{
 "cells": [
  {
   "cell_type": "code",
   "execution_count": 1,
   "metadata": {},
   "outputs": [],
   "source": [
    "import mido\n",
    "from midi_player import MIDIPlayer\n",
    "from midi_player.stylers import dark"
   ]
  },
  {
   "cell_type": "code",
   "execution_count": 2,
   "metadata": {},
   "outputs": [
    {
     "name": "stdout",
     "output_type": "stream",
     "text": [
      "=== Track 0\n",
      "MetaMessage('set_tempo', tempo=500000, time=0)\n",
      "MetaMessage('time_signature', numerator=4, denominator=4, clocks_per_click=24, notated_32nd_notes_per_beat=8, time=0)\n",
      "MetaMessage('end_of_track', time=1)\n",
      "=== Track 1\n",
      "Message('program_change', channel=0, program=0, time=0)\n",
      "Message('control_change', channel=0, control=64, value=110, time=0)\n",
      "Message('control_change', channel=0, control=67, value=117, time=0)\n",
      "Message('control_change', channel=0, control=64, value=114, time=490)\n",
      "Message('control_change', channel=0, control=64, value=118, time=94)\n",
      "Message('control_change', channel=0, control=67, value=121, time=75)\n",
      "Message('control_change', channel=0, control=64, value=122, time=262)\n",
      "Message('note_on', channel=0, note=71, velocity=60, time=128)\n",
      "Message('control_change', channel=0, control=67, value=117, time=37)\n",
      "Message('control_change', channel=0, control=67, value=113, time=55)\n",
      "Message('note_on', channel=0, note=71, velocity=0, time=1)\n",
      "Message('control_change', channel=0, control=64, value=111, time=41)\n",
      "Message('control_change', channel=0, control=64, value=93, time=19)\n",
      "Message('control_change', channel=0, control=64, value=76, time=17)\n",
      "Message('note_on', channel=0, note=55, velocity=44, time=9)\n",
      "Message('note_on', channel=0, note=71, velocity=54, time=9)\n",
      "Message('control_change', channel=0, control=64, value=65, time=1)\n",
      "Message('control_change', channel=0, control=67, value=108, time=1)\n",
      "Message('control_change', channel=0, control=64, value=60, time=19)\n",
      "Message('control_change', channel=0, control=64, value=66, time=38)\n",
      "Message('control_change', channel=0, control=67, value=103, time=1)\n",
      "Message('control_change', channel=0, control=64, value=76, time=19)\n",
      "Message('control_change', channel=0, control=64, value=89, time=19)\n",
      "Message('control_change', channel=0, control=64, value=103, time=18)\n",
      "Message('control_change', channel=0, control=64, value=113, time=18)\n",
      "Message('control_change', channel=0, control=64, value=120, time=19)\n",
      "Message('note_on', channel=0, note=59, velocity=55, time=15)\n",
      "Message('control_change', channel=0, control=64, value=125, time=5)\n",
      "Message('control_change', channel=0, control=67, value=99, time=1)\n",
      "Message('note_on', channel=0, note=55, velocity=0, time=26)\n",
      "Message('control_change', channel=0, control=67, value=94, time=47)\n",
      "Message('note_on', channel=0, note=59, velocity=0, time=82)\n",
      "Message('note_on', channel=0, note=62, velocity=52, time=2)\n",
      "Message('control_change', channel=0, control=67, value=90, time=49)\n",
      "Message('note_on', channel=0, note=62, velocity=0, time=66)\n",
      "Message('note_on', channel=0, note=72, velocity=76, time=32)\n",
      "Message('note_on', channel=0, note=71, velocity=0, time=7)\n",
      "Message('note_on', channel=0, note=67, velocity=56, time=9)\n",
      "Message('note_on', channel=0, note=72, velocity=0, time=24)\n",
      "Message('note_on', channel=0, note=57, velocity=61, time=149)\n",
      "Message('note_on', channel=0, note=74, velocity=68, time=0)\n",
      "Message('control_change', channel=0, control=64, value=99, time=13)\n",
      "Message('note_on', channel=0, note=67, velocity=0, time=3)\n",
      "Message('control_change', channel=0, control=64, value=65, time=14)\n",
      "Message('control_change', channel=0, control=64, value=0, time=17)\n",
      "Message('note_on', channel=0, note=72, velocity=77, time=5)\n",
      "Message('note_on', channel=0, note=74, velocity=0, time=58)\n",
      "Message('note_on', channel=0, note=74, velocity=51, time=0)\n",
      "Message('note_on', channel=0, note=72, velocity=0, time=8)\n",
      "Message('note_on', channel=0, note=72, velocity=60, time=41)\n",
      "Message('note_on', channel=0, note=67, velocity=57, time=22)\n",
      "Message('note_on', channel=0, note=74, velocity=0, time=10)\n",
      "Message('note_on', channel=0, note=67, velocity=0, time=94)\n",
      "Message('note_on', channel=0, note=66, velocity=58, time=46)\n",
      "Message('note_on', channel=0, note=66, velocity=0, time=174)\n",
      "Message('note_on', channel=0, note=72, velocity=0, time=10)\n",
      "Message('note_on', channel=0, note=57, velocity=0, time=3)\n",
      "Message('note_on', channel=0, note=71, velocity=68, time=0)\n",
      "Message('note_on', channel=0, note=64, velocity=35, time=34)\n",
      "Message('note_on', channel=0, note=71, velocity=0, time=30)\n",
      "Message('note_on', channel=0, note=72, velocity=47, time=1)\n",
      "Message('note_on', channel=0, note=72, velocity=0, time=80)\n",
      "Message('note_on', channel=0, note=74, velocity=68, time=5)\n",
      "Message('note_on', channel=0, note=59, velocity=50, time=32)\n",
      "Message('note_on', channel=0, note=64, velocity=0, time=49)\n",
      "Message('note_on', channel=0, note=62, velocity=63, time=119)\n",
      "Message('note_on', channel=0, note=66, velocity=63, time=185)\n",
      "Message('note_on', channel=0, note=62, velocity=0, time=32)\n",
      "Message('note_on', channel=0, note=67, velocity=58, time=131)\n",
      "Message('note_on', channel=0, note=66, velocity=0, time=22)\n",
      "Message('control_change', channel=0, control=64, value=45, time=127)\n",
      "Message('note_on', channel=0, note=59, velocity=0, time=14)\n",
      "Message('control_change', channel=0, control=64, value=66, time=6)\n",
      "Message('control_change', channel=0, control=64, value=78, time=18)\n",
      "Message('note_on', channel=0, note=74, velocity=0, time=3)\n",
      "Message('note_on', channel=0, note=71, velocity=66, time=5)\n",
      "Message('control_change', channel=0, control=64, value=90, time=13)\n",
      "Message('control_change', channel=0, control=64, value=103, time=18)\n",
      "Message('control_change', channel=0, control=64, value=114, time=19)\n",
      "Message('control_change', channel=0, control=64, value=121, time=18)\n",
      "Message('control_change', channel=0, control=64, value=125, time=57)\n",
      "Message('note_on', channel=0, note=71, velocity=0, time=18)\n",
      "Message('note_on', channel=0, note=74, velocity=78, time=17)\n",
      "Message('control_change', channel=0, control=64, value=110, time=152)\n",
      "Message('note_on', channel=0, note=78, velocity=77, time=20)\n",
      "Message('control_change', channel=0, control=64, value=87, time=1)\n",
      "Message('note_on', channel=0, note=74, velocity=0, time=6)\n",
      "Message('note_on', channel=0, note=59, velocity=58, time=1)\n",
      "Message('control_change', channel=0, control=64, value=59, time=11)\n",
      "Message('control_change', channel=0, control=64, value=0, time=19)\n",
      "Message('control_change', channel=0, control=64, value=35, time=40)\n",
      "Message('control_change', channel=0, control=64, value=56, time=18)\n",
      "Message('control_change', channel=0, control=64, value=67, time=19)\n",
      "Message('control_change', channel=0, control=64, value=74, time=33)\n",
      "Message('note_on', channel=0, note=59, velocity=0, time=13)\n",
      "Message('control_change', channel=0, control=64, value=80, time=5)\n",
      "Message('control_change', channel=0, control=64, value=85, time=20)\n",
      "Message('note_on', channel=0, note=79, velocity=73, time=0)\n",
      "Message('control_change', channel=0, control=64, value=91, time=20)\n",
      "Message('note_on', channel=0, note=78, velocity=0, time=12)\n",
      "Message('control_change', channel=0, control=64, value=97, time=4)\n",
      "Message('control_change', channel=0, control=64, value=101, time=20)\n",
      "Message('control_change', channel=0, control=64, value=105, time=19)\n",
      "Message('control_change', channel=0, control=64, value=99, time=96)\n",
      "Message('note_on', channel=0, note=76, velocity=76, time=2)\n",
      "Message('note_on', channel=0, note=60, velocity=54, time=9)\n",
      "Message('control_change', channel=0, control=64, value=80, time=6)\n",
      "Message('note_on', channel=0, note=79, velocity=0, time=11)\n",
      "Message('control_change', channel=0, control=64, value=50, time=9)\n",
      "Message('control_change', channel=0, control=64, value=0, time=18)\n",
      "Message('control_change', channel=0, control=64, value=41, time=56)\n",
      "Message('control_change', channel=0, control=64, value=59, time=20)\n",
      "Message('control_change', channel=0, control=64, value=69, time=18)\n",
      "Message('note_on', channel=0, note=60, velocity=0, time=7)\n",
      "Message('note_on', channel=0, note=76, velocity=0, time=9)\n",
      "Message('control_change', channel=0, control=64, value=75, time=2)\n",
      "Message('note_on', channel=0, note=79, velocity=68, time=4)\n",
      "Message('control_change', channel=0, control=64, value=77, time=15)\n",
      "Message('control_change', channel=0, control=64, value=81, time=39)\n",
      "Message('control_change', channel=0, control=64, value=83, time=18)\n",
      "Message('control_change', channel=0, control=64, value=86, time=20)\n",
      "Message('control_change', channel=0, control=64, value=91, time=37)\n",
      "Message('note_on', channel=0, note=74, velocity=70, time=34)\n",
      "Message('control_change', channel=0, control=64, value=85, time=2)\n",
      "Message('note_on', channel=0, note=79, velocity=0, time=0)\n",
      "Message('note_on', channel=0, note=59, velocity=59, time=3)\n",
      "Message('control_change', channel=0, control=64, value=68, time=19)\n",
      "Message('control_change', channel=0, control=64, value=0, time=17)\n",
      "Message('control_change', channel=0, control=64, value=46, time=77)\n",
      "Message('control_change', channel=0, control=64, value=62, time=20)\n",
      "Message('control_change', channel=0, control=64, value=70, time=17)\n",
      "Message('note_on', channel=0, note=74, velocity=0, time=4)\n",
      "Message('note_on', channel=0, note=79, velocity=63, time=12)\n",
      "Message('control_change', channel=0, control=64, value=73, time=3)\n",
      "Message('note_on', channel=0, note=59, velocity=0, time=5)\n",
      "Message('control_change', channel=0, control=64, value=67, time=128)\n",
      "Message('control_change', channel=0, control=64, value=48, time=19)\n",
      "Message('control_change', channel=0, control=64, value=0, time=19)\n",
      "Message('note_on', channel=0, note=72, velocity=70, time=15)\n",
      "Message('note_on', channel=0, note=79, velocity=0, time=4)\n",
      "Message('note_on', channel=0, note=57, velocity=47, time=21)\n",
      "Message('note_on', channel=0, note=72, velocity=0, time=142)\n",
      "Message('note_on', channel=0, note=71, velocity=72, time=10)\n",
      "Message('control_change', channel=0, control=67, value=86, time=88)\n",
      "Message('note_on', channel=0, note=71, velocity=0, time=85)\n",
      "Message('note_on', channel=0, note=72, velocity=73, time=13)\n",
      "Message('note_on', channel=0, note=66, velocity=61, time=6)\n",
      "Message('note_on', channel=0, note=57, velocity=0, time=28)\n",
      "Message('note_on', channel=0, note=67, velocity=0, time=20)\n",
      "Message('note_on', channel=0, note=81, velocity=73, time=108)\n",
      "Message('note_on', channel=0, note=72, velocity=0, time=10)\n",
      "Message('note_on', channel=0, note=66, velocity=0, time=157)\n",
      "Message('note_on', channel=0, note=72, velocity=70, time=18)\n",
      "Message('note_on', channel=0, note=55, velocity=67, time=1)\n",
      "Message('note_on', channel=0, note=81, velocity=0, time=1)\n",
      "Message('note_on', channel=0, note=72, velocity=0, time=155)\n",
      "Message('note_on', channel=0, note=71, velocity=70, time=13)\n",
      "Message('note_on', channel=0, note=71, velocity=0, time=182)\n",
      "Message('note_on', channel=0, note=69, velocity=66, time=6)\n",
      "Message('note_on', channel=0, note=59, velocity=62, time=10)\n",
      "Message('note_on', channel=0, note=59, velocity=0, time=45)\n",
      "Message('note_on', channel=0, note=69, velocity=0, time=97)\n",
      "Message('note_on', channel=0, note=67, velocity=64, time=10)\n",
      "Message('note_on', channel=0, note=55, velocity=0, time=176)\n",
      "Message('note_on', channel=0, note=71, velocity=69, time=7)\n",
      "Message('note_on', channel=0, note=62, velocity=57, time=18)\n",
      "Message('note_on', channel=0, note=67, velocity=0, time=4)\n",
      "Message('note_on', channel=0, note=54, velocity=57, time=161)\n",
      "Message('note_on', channel=0, note=62, velocity=0, time=65)\n",
      "Message('note_on', channel=0, note=54, velocity=0, time=102)\n",
      "Message('note_on', channel=0, note=67, velocity=64, time=2)\n",
      "Message('note_on', channel=0, note=52, velocity=51, time=1)\n",
      "Message('note_on', channel=0, note=67, velocity=0, time=31)\n",
      "Message('note_on', channel=0, note=52, velocity=0, time=83)\n",
      "Message('note_on', channel=0, note=50, velocity=62, time=26)\n",
      "Message('note_on', channel=0, note=71, velocity=0, time=205)\n",
      "Message('note_on', channel=0, note=50, velocity=0, time=2)\n",
      "Message('note_on', channel=0, note=49, velocity=58, time=1)\n",
      "Message('note_on', channel=0, note=64, velocity=64, time=12)\n",
      "Message('note_on', channel=0, note=76, velocity=69, time=168)\n",
      "Message('note_on', channel=0, note=64, velocity=0, time=58)\n",
      "Message('note_on', channel=0, note=76, velocity=0, time=111)\n",
      "Message('note_on', channel=0, note=69, velocity=70, time=3)\n",
      "Message('note_on', channel=0, note=52, velocity=66, time=4)\n",
      "Message('note_on', channel=0, note=52, velocity=0, time=46)\n",
      "Message('note_on', channel=0, note=69, velocity=0, time=122)\n",
      "Message('note_on', channel=0, note=76, velocity=66, time=17)\n",
      "Message('note_on', channel=0, note=57, velocity=51, time=164)\n",
      "Message('note_on', channel=0, note=67, velocity=63, time=10)\n",
      "Message('note_on', channel=0, note=76, velocity=0, time=11)\n",
      "Message('note_on', channel=0, note=49, velocity=0, time=30)\n",
      "Message('note_on', channel=0, note=67, velocity=0, time=116)\n",
      "Message('note_on', channel=0, note=66, velocity=65, time=17)\n",
      "Message('note_on', channel=0, note=66, velocity=0, time=165)\n",
      "Message('note_on', channel=0, note=49, velocity=60, time=4)\n",
      "Message('note_on', channel=0, note=67, velocity=69, time=8)\n",
      "Message('note_on', channel=0, note=49, velocity=0, time=96)\n",
      "Message('note_on', channel=0, note=76, velocity=71, time=65)\n",
      "Message('note_on', channel=0, note=67, velocity=0, time=3)\n",
      "Message('note_on', channel=0, note=67, velocity=67, time=182)\n",
      "Message('note_on', channel=0, note=76, velocity=0, time=2)\n",
      "Message('note_on', channel=0, note=50, velocity=64, time=1)\n",
      "Message('note_on', channel=0, note=66, velocity=70, time=155)\n",
      "Message('note_on', channel=0, note=67, velocity=0, time=2)\n",
      "Message('note_on', channel=0, note=64, velocity=68, time=198)\n",
      "Message('note_on', channel=0, note=54, velocity=59, time=8)\n",
      "Message('note_on', channel=0, note=57, velocity=0, time=21)\n",
      "Message('note_on', channel=0, note=66, velocity=0, time=18)\n",
      "Message('note_on', channel=0, note=54, velocity=0, time=66)\n",
      "Message('note_on', channel=0, note=62, velocity=69, time=51)\n",
      "Message('note_on', channel=0, note=64, velocity=0, time=0)\n",
      "Message('note_on', channel=0, note=64, velocity=70, time=187)\n",
      "Message('note_on', channel=0, note=50, velocity=0, time=8)\n",
      "Message('note_on', channel=0, note=57, velocity=59, time=1)\n",
      "Message('note_on', channel=0, note=62, velocity=0, time=31)\n",
      "Message('note_on', channel=0, note=66, velocity=73, time=121)\n",
      "Message('note_on', channel=0, note=64, velocity=0, time=37)\n",
      "Message('note_on', channel=0, note=67, velocity=73, time=143)\n",
      "Message('note_on', channel=0, note=48, velocity=60, time=2)\n",
      "Message('note_on', channel=0, note=66, velocity=0, time=34)\n",
      "Message('control_change', channel=0, control=64, value=42, time=54)\n",
      "Message('control_change', channel=0, control=64, value=60, time=17)\n",
      "Message('control_change', channel=0, control=64, value=68, time=19)\n",
      "Message('note_on', channel=0, note=48, velocity=0, time=0)\n",
      "Message('note_on', channel=0, note=66, velocity=76, time=55)\n",
      "Message('note_on', channel=0, note=67, velocity=0, time=39)\n",
      "Message('note_on', channel=0, note=66, velocity=0, time=135)\n",
      "Message('note_on', channel=0, note=47, velocity=55, time=22)\n",
      "Message('note_on', channel=0, note=50, velocity=58, time=1)\n",
      "Message('note_on', channel=0, note=67, velocity=71, time=0)\n",
      "Message('control_change', channel=0, control=64, value=66, time=28)\n",
      "Message('control_change', channel=0, control=64, value=63, time=17)\n",
      "Message('note_on', channel=0, note=57, velocity=0, time=0)\n",
      "Message('control_change', channel=0, control=64, value=59, time=21)\n",
      "Message('control_change', channel=0, control=64, value=54, time=17)\n",
      "Message('control_change', channel=0, control=64, value=48, time=21)\n",
      "Message('control_change', channel=0, control=64, value=42, time=18)\n",
      "Message('control_change', channel=0, control=64, value=28, time=19)\n",
      "Message('control_change', channel=0, control=64, value=0, time=19)\n",
      "Message('note_on', channel=0, note=67, velocity=0, time=2)\n",
      "Message('note_on', channel=0, note=69, velocity=73, time=6)\n",
      "Message('note_on', channel=0, note=67, velocity=74, time=171)\n",
      "Message('note_on', channel=0, note=55, velocity=64, time=15)\n",
      "Message('note_on', channel=0, note=69, velocity=0, time=3)\n",
      "Message('control_change', channel=0, control=64, value=48, time=49)\n",
      "Message('note_on', channel=0, note=47, velocity=0, time=6)\n",
      "Message('control_change', channel=0, control=64, value=68, time=15)\n",
      "Message('control_change', channel=0, control=64, value=80, time=15)\n",
      "Message('control_change', channel=0, control=64, value=93, time=19)\n",
      "Message('control_change', channel=0, control=64, value=108, time=20)\n",
      "Message('control_change', channel=0, control=64, value=119, time=19)\n",
      "Message('note_on', channel=0, note=69, velocity=76, time=6)\n",
      "Message('control_change', channel=0, control=64, value=125, time=11)\n",
      "Message('note_on', channel=0, note=67, velocity=0, time=0)\n",
      "Message('note_on', channel=0, note=69, velocity=0, time=42)\n",
      "Message('note_on', channel=0, note=71, velocity=69, time=120)\n",
      "Message('note_on', channel=0, note=45, velocity=62, time=16)\n",
      "Message('control_change', channel=0, control=64, value=98, time=13)\n",
      "Message('note_on', channel=0, note=50, velocity=0, time=1)\n",
      "Message('control_change', channel=0, control=64, value=56, time=18)\n",
      "Message('note_on', channel=0, note=69, velocity=75, time=0)\n",
      "Message('note_on', channel=0, note=71, velocity=0, time=8)\n",
      "Message('control_change', channel=0, control=64, value=0, time=9)\n",
      "Message('note_on', channel=0, note=69, velocity=0, time=55)\n",
      "Message('note_on', channel=0, note=71, velocity=56, time=2)\n",
      "Message('note_on', channel=0, note=69, velocity=61, time=56)\n",
      "Message('note_on', channel=0, note=71, velocity=0, time=31)\n",
      "Message('note_on', channel=0, note=54, velocity=55, time=157)\n",
      "Message('note_on', channel=0, note=55, velocity=0, time=2)\n",
      "Message('note_on', channel=0, note=67, velocity=65, time=168)\n",
      "Message('note_on', channel=0, note=69, velocity=0, time=9)\n",
      "Message('note_on', channel=0, note=67, velocity=0, time=64)\n",
      "Message('note_on', channel=0, note=69, velocity=65, time=13)\n",
      "Message('note_on', channel=0, note=69, velocity=0, time=60)\n",
      "Message('note_on', channel=0, note=54, velocity=0, time=21)\n",
      "Message('note_on', channel=0, note=71, velocity=65, time=8)\n",
      "Message('note_on', channel=0, note=45, velocity=0, time=5)\n",
      "Message('note_on', channel=0, note=55, velocity=51, time=3)\n",
      "Message('note_on', channel=0, note=43, velocity=56, time=177)\n",
      "Message('note_on', channel=0, note=47, velocity=56, time=159)\n",
      "Message('note_on', channel=0, note=43, velocity=0, time=16)\n",
      "Message('note_on', channel=0, note=55, velocity=0, time=3)\n",
      "Message('note_on', channel=0, note=50, velocity=50, time=175)\n",
      "Message('note_on', channel=0, note=47, velocity=0, time=8)\n",
      "Message('note_on', channel=0, note=50, velocity=0, time=136)\n",
      "Message('note_on', channel=0, note=55, velocity=54, time=28)\n",
      "Message('note_on', channel=0, note=71, velocity=0, time=31)\n",
      "Message('note_on', channel=0, note=71, velocity=74, time=149)\n",
      "Message('note_on', channel=0, note=71, velocity=0, time=160)\n",
      "Message('note_on', channel=0, note=76, velocity=66, time=17)\n",
      "Message('note_on', channel=0, note=57, velocity=48, time=7)\n",
      "Message('note_on', channel=0, note=59, velocity=30, time=46)\n",
      "Message('note_on', channel=0, note=59, velocity=0, time=46)\n",
      "Message('note_on', channel=0, note=75, velocity=82, time=49)\n",
      "Message('note_on', channel=0, note=57, velocity=0, time=3)\n",
      "Message('note_on', channel=0, note=59, velocity=53, time=3)\n",
      "Message('note_on', channel=0, note=76, velocity=0, time=4)\n",
      "Message('note_on', channel=0, note=55, velocity=0, time=18)\n",
      "Message('control_change', channel=0, control=67, value=82, time=47)\n",
      "Message('control_change', channel=0, control=67, value=78, time=92)\n",
      "Message('note_on', channel=0, note=60, velocity=68, time=23)\n",
      "Message('note_on', channel=0, note=75, velocity=0, time=1)\n",
      "Message('note_on', channel=0, note=59, velocity=0, time=6)\n",
      "Message('note_on', channel=0, note=76, velocity=83, time=3)\n",
      "Message('control_change', channel=0, control=64, value=56, time=43)\n",
      "Message('control_change', channel=0, control=67, value=74, time=1)\n",
      "Message('control_change', channel=0, control=64, value=70, time=18)\n",
      "Message('control_change', channel=0, control=64, value=79, time=19)\n",
      "Message('control_change', channel=0, control=64, value=88, time=19)\n",
      "Message('control_change', channel=0, control=67, value=70, time=2)\n",
      "Message('control_change', channel=0, control=64, value=96, time=15)\n",
      "Message('note_on', channel=0, note=60, velocity=0, time=6)\n",
      "Message('control_change', channel=0, control=64, value=102, time=12)\n",
      "Message('note_on', channel=0, note=76, velocity=0, time=14)\n",
      "Message('control_change', channel=0, control=64, value=108, time=6)\n",
      "Message('control_change', channel=0, control=67, value=65, time=1)\n",
      "Message('note_on', channel=0, note=78, velocity=80, time=6)\n",
      "Message('control_change', channel=0, control=64, value=112, time=12)\n",
      "Message('control_change', channel=0, control=67, value=61, time=1)\n",
      "Message('control_change', channel=0, control=64, value=116, time=19)\n",
      "Message('control_change', channel=0, control=67, value=57, time=3)\n",
      "Message('control_change', channel=0, control=67, value=53, time=36)\n",
      "Message('control_change', channel=0, control=64, value=121, time=55)\n",
      "Message('control_change', channel=0, control=64, value=127, time=38)\n",
      "Message('note_on', channel=0, note=55, velocity=70, time=8)\n",
      "Message('note_on', channel=0, note=64, velocity=69, time=2)\n",
      "Message('note_on', channel=0, note=76, velocity=80, time=1)\n",
      "Message('note_on', channel=0, note=78, velocity=0, time=5)\n",
      "Message('control_change', channel=0, control=64, value=112, time=41)\n",
      "Message('control_change', channel=0, control=64, value=95, time=18)\n",
      "Message('control_change', channel=0, control=64, value=83, time=20)\n",
      "Message('control_change', channel=0, control=64, value=85, time=36)\n",
      "Message('note_on', channel=0, note=76, velocity=0, time=27)\n",
      "Message('control_change', channel=0, control=67, value=49, time=12)\n",
      "Message('note_on', channel=0, note=78, velocity=76, time=1)\n",
      "Message('control_change', channel=0, control=64, value=94, time=149)\n",
      "Message('note_on', channel=0, note=78, velocity=0, time=13)\n",
      "Message('control_change', channel=0, control=64, value=101, time=7)\n",
      "Message('note_on', channel=0, note=79, velocity=78, time=8)\n",
      "Message('note_on', channel=0, note=55, velocity=0, time=27)\n",
      "Message('control_change', channel=0, control=64, value=86, time=2)\n",
      "Message('note_on', channel=0, note=57, velocity=62, time=5)\n",
      "Message('control_change', channel=0, control=64, value=46, time=16)\n",
      "Message('control_change', channel=0, control=64, value=0, time=19)\n",
      "Message('note_on', channel=0, note=79, velocity=0, time=2)\n",
      "Message('note_on', channel=0, note=78, velocity=66, time=7)\n",
      "Message('note_on', channel=0, note=79, velocity=72, time=47)\n",
      "Message('note_on', channel=0, note=78, velocity=0, time=7)\n",
      "Message('note_on', channel=0, note=78, velocity=64, time=45)\n",
      "Message('note_on', channel=0, note=79, velocity=0, time=3)\n",
      "Message('note_on', channel=0, note=57, velocity=0, time=175)\n",
      "Message('note_on', channel=0, note=64, velocity=0, time=14)\n",
      "Message('note_on', channel=0, note=59, velocity=44, time=14)\n",
      "Message('note_on', channel=0, note=63, velocity=49, time=14)\n",
      "Message('control_change', channel=0, control=64, value=23, time=4)\n",
      "Message('control_change', channel=0, control=64, value=55, time=20)\n",
      "Message('control_change', channel=0, control=64, value=67, time=20)\n",
      "Message('control_change', channel=0, control=64, value=72, time=17)\n",
      "Message('control_change', channel=0, control=64, value=74, time=21)\n",
      "Message('control_change', channel=0, control=64, value=77, time=39)\n",
      "Message('control_change', channel=0, control=64, value=79, time=17)\n",
      "Message('note_on', channel=0, note=78, velocity=0, time=12)\n",
      "Message('control_change', channel=0, control=64, value=81, time=7)\n",
      "Message('note_on', channel=0, note=76, velocity=66, time=22)\n",
      "Message('control_change', channel=0, control=64, value=78, time=72)\n",
      "Message('note_on', channel=0, note=78, velocity=70, time=3)\n",
      "Message('note_on', channel=0, note=76, velocity=0, time=8)\n",
      "Message('control_change', channel=0, control=64, value=75, time=9)\n",
      "Message('control_change', channel=0, control=64, value=70, time=18)\n",
      "Message('note_on', channel=0, note=63, velocity=0, time=8)\n",
      "Message('note_on', channel=0, note=59, velocity=0, time=4)\n",
      "Message('control_change', channel=0, control=64, value=65, time=8)\n",
      "Message('note_on', channel=0, note=78, velocity=0, time=13)\n",
      "Message('note_on', channel=0, note=64, velocity=52, time=2)\n",
      "Message('control_change', channel=0, control=64, value=60, time=3)\n",
      "Message('note_on', channel=0, note=79, velocity=75, time=13)\n",
      "Message('control_change', channel=0, control=64, value=56, time=6)\n",
      "Message('control_change', channel=0, control=64, value=54, time=38)\n",
      "Message('control_change', channel=0, control=64, value=52, time=56)\n",
      "Message('control_change', channel=0, control=64, value=50, time=38)\n",
      "Message('note_on', channel=0, note=59, velocity=53, time=40)\n",
      "Message('control_change', channel=0, control=64, value=48, time=93)\n",
      "Message('note_on', channel=0, note=59, velocity=0, time=54)\n",
      "Message('note_on', channel=0, note=55, velocity=48, time=22)\n",
      "Message('note_on', channel=0, note=55, velocity=0, time=162)\n",
      "Message('note_on', channel=0, note=59, velocity=53, time=16)\n",
      "Message('control_change', channel=0, control=64, value=46, time=82)\n",
      "Message('control_change', channel=0, control=64, value=43, time=18)\n",
      "Message('control_change', channel=0, control=64, value=29, time=18)\n",
      "Message('control_change', channel=0, control=64, value=0, time=19)\n",
      "Message('note_on', channel=0, note=59, velocity=0, time=46)\n",
      "Message('note_on', channel=0, note=52, velocity=58, time=9)\n",
      "Message('control_change', channel=0, control=64, value=34, time=61)\n",
      "Message('control_change', channel=0, control=64, value=52, time=16)\n",
      "Message('control_change', channel=0, control=64, value=60, time=21)\n",
      "Message('control_change', channel=0, control=64, value=63, time=17)\n",
      "Message('control_change', channel=0, control=64, value=65, time=21)\n",
      "Message('note_on', channel=0, note=78, velocity=71, time=31)\n",
      "Message('note_on', channel=0, note=52, velocity=0, time=39)\n",
      "Message('control_change', channel=0, control=64, value=66, time=3)\n",
      "Message('note_on', channel=0, note=79, velocity=0, time=14)\n",
      "Message('note_on', channel=0, note=64, velocity=0, time=10)\n",
      "Message('control_change', channel=0, control=64, value=67, time=15)\n",
      "Message('control_change', channel=0, control=64, value=69, time=57)\n",
      "Message('control_change', channel=0, control=64, value=66, time=37)\n",
      "Message('note_on', channel=0, note=55, velocity=58, time=7)\n",
      "Message('note_on', channel=0, note=76, velocity=74, time=2)\n",
      "Message('note_on', channel=0, note=78, velocity=0, time=2)\n",
      "Message('control_change', channel=0, control=64, value=54, time=7)\n",
      "Message('control_change', channel=0, control=64, value=0, time=21)\n",
      "Message('control_change', channel=0, control=64, value=36, time=75)\n",
      "Message('control_change', channel=0, control=64, value=52, time=18)\n",
      "Message('control_change', channel=0, control=64, value=56, time=20)\n",
      "Message('note_on', channel=0, note=76, velocity=0, time=20)\n",
      "Message('note_on', channel=0, note=74, velocity=74, time=8)\n",
      "Message('note_on', channel=0, note=55, velocity=0, time=12)\n",
      "Message('control_change', channel=0, control=64, value=60, time=15)\n",
      "Message('control_change', channel=0, control=64, value=62, time=20)\n",
      "Message('control_change', channel=0, control=64, value=65, time=19)\n",
      "Message('control_change', channel=0, control=64, value=66, time=18)\n",
      "Message('control_change', channel=0, control=64, value=68, time=19)\n",
      "Message('control_change', channel=0, control=64, value=62, time=90)\n",
      "Message('note_on', channel=0, note=73, velocity=76, time=8)\n",
      "Message('note_on', channel=0, note=74, velocity=0, time=6)\n",
      "Message('control_change', channel=0, control=64, value=43, time=5)\n",
      "Message('note_on', channel=0, note=57, velocity=57, time=1)\n",
      "Message('control_change', channel=0, control=64, value=0, time=20)\n",
      "Message('note_on', channel=0, note=76, velocity=68, time=146)\n",
      "Message('note_on', channel=0, note=73, velocity=0, time=11)\n",
      "Message('note_on', channel=0, note=59, velocity=57, time=173)\n",
      "Message('note_on', channel=0, note=71, velocity=60, time=2)\n",
      "Message('note_on', channel=0, note=76, velocity=0, time=5)\n",
      "Message('note_on', channel=0, note=59, velocity=0, time=86)\n",
      "Message('note_on', channel=0, note=76, velocity=63, time=86)\n",
      "Message('note_on', channel=0, note=71, velocity=0, time=34)\n",
      "Message('note_on', channel=0, note=76, velocity=0, time=118)\n",
      "Message('note_on', channel=0, note=61, velocity=61, time=29)\n",
      "Message('note_on', channel=0, note=69, velocity=69, time=5)\n",
      "Message('note_on', channel=0, note=57, velocity=0, time=49)\n",
      "Message('control_change', channel=0, control=64, value=42, time=9)\n",
      "Message('control_change', channel=0, control=64, value=61, time=19)\n",
      "Message('control_change', channel=0, control=64, value=71, time=19)\n",
      "Message('control_change', channel=0, control=64, value=77, time=19)\n",
      "Message('control_change', channel=0, control=64, value=82, time=18)\n",
      "Message('control_change', channel=0, control=64, value=85, time=18)\n",
      "Message('note_on', channel=0, note=79, velocity=73, time=16)\n",
      "Message('control_change', channel=0, control=64, value=87, time=4)\n",
      "Message('control_change', channel=0, control=64, value=92, time=54)\n",
      "Message('control_change', channel=0, control=67, value=45, time=1)\n",
      "Message('control_change', channel=0, control=64, value=96, time=38)\n",
      "Message('control_change', channel=0, control=64, value=91, time=75)\n",
      "Message('control_change', channel=0, control=67, value=39, time=1)\n",
      "Message('note_on', channel=0, note=57, velocity=65, time=14)\n",
      "Message('control_change', channel=0, control=64, value=82, time=3)\n",
      "Message('note_on', channel=0, note=78, velocity=79, time=0)\n",
      "Message('control_change', channel=0, control=64, value=72, time=19)\n",
      "Message('control_change', channel=0, control=67, value=34, time=2)\n",
      "Message('note_on', channel=0, note=79, velocity=0, time=0)\n",
      "Message('note_on', channel=0, note=69, velocity=0, time=7)\n",
      "Message('control_change', channel=0, control=64, value=66, time=9)\n",
      "Message('control_change', channel=0, control=67, value=29, time=39)\n",
      "Message('control_change', channel=0, control=67, value=25, time=38)\n",
      "Message('note_on', channel=0, note=76, velocity=79, time=61)\n",
      "Message('note_on', channel=0, note=78, velocity=0, time=40)\n",
      "Message('control_change', channel=0, control=67, value=20, time=12)\n",
      "Message('note_on', channel=0, note=57, velocity=0, time=52)\n",
      "Message('control_change', channel=0, control=64, value=65, time=41)\n",
      "Message('control_change', channel=0, control=67, value=16, time=3)\n",
      "Message('control_change', channel=0, control=64, value=55, time=17)\n",
      "Message('control_change', channel=0, control=64, value=0, time=21)\n",
      "Message('note_on', channel=0, note=62, velocity=54, time=9)\n",
      "Message('note_on', channel=0, note=61, velocity=0, time=2)\n",
      "Message('note_on', channel=0, note=78, velocity=77, time=2)\n",
      "Message('note_on', channel=0, note=50, velocity=36, time=21)\n",
      "Message('note_on', channel=0, note=76, velocity=0, time=1)\n",
      "Message('note_on', channel=0, note=81, velocity=69, time=146)\n",
      "Message('note_on', channel=0, note=78, velocity=0, time=31)\n",
      "Message('note_on', channel=0, note=81, velocity=0, time=136)\n",
      "Message('note_on', channel=0, note=50, velocity=0, time=13)\n",
      "Message('note_on', channel=0, note=76, velocity=62, time=4)\n",
      "Message('note_on', channel=0, note=52, velocity=58, time=2)\n",
      "Message('note_on', channel=0, note=52, velocity=0, time=71)\n",
      "Message('note_on', channel=0, note=81, velocity=55, time=121)\n",
      "Message('note_on', channel=0, note=76, velocity=0, time=13)\n",
      "Message('note_on', channel=0, note=81, velocity=0, time=154)\n",
      "Message('note_on', channel=0, note=54, velocity=46, time=19)\n",
      "Message('note_on', channel=0, note=74, velocity=58, time=0)\n",
      "Message('note_on', channel=0, note=54, velocity=0, time=125)\n",
      "Message('note_on', channel=0, note=72, velocity=69, time=32)\n",
      "Message('note_on', channel=0, note=74, velocity=0, time=23)\n",
      "Message('note_on', channel=0, note=71, velocity=73, time=160)\n",
      "Message('note_on', channel=0, note=50, velocity=59, time=12)\n",
      "Message('note_on', channel=0, note=72, velocity=0, time=23)\n",
      "Message('control_change', channel=0, control=64, value=13, time=45)\n",
      "Message('control_change', channel=0, control=64, value=28, time=18)\n",
      "Message('control_change', channel=0, control=64, value=34, time=18)\n",
      "Message('note_on', channel=0, note=50, velocity=0, time=1)\n",
      "Message('control_change', channel=0, control=64, value=38, time=18)\n",
      "Message('control_change', channel=0, control=64, value=40, time=19)\n",
      "Message('control_change', channel=0, control=64, value=44, time=20)\n",
      "Message('note_on', channel=0, note=69, velocity=73, time=5)\n",
      "Message('control_change', channel=0, control=64, value=48, time=12)\n",
      "Message('note_on', channel=0, note=71, velocity=0, time=2)\n",
      "Message('control_change', channel=0, control=64, value=52, time=19)\n",
      "Message('control_change', channel=0, control=64, value=55, time=19)\n",
      "Message('control_change', channel=0, control=64, value=58, time=35)\n",
      "Message('control_change', channel=0, control=64, value=60, time=40)\n",
      "Message('control_change', channel=0, control=64, value=61, time=33)\n",
      "Message('control_change', channel=0, control=64, value=59, time=38)\n",
      "Message('note_on', channel=0, note=55, velocity=57, time=10)\n",
      "Message('note_on', channel=0, note=69, velocity=0, time=0)\n",
      "Message('note_on', channel=0, note=71, velocity=68, time=3)\n",
      "Message('control_change', channel=0, control=64, value=42, time=4)\n",
      "Message('control_change', channel=0, control=64, value=0, time=22)\n",
      "Message('note_on', channel=0, note=74, velocity=58, time=146)\n",
      "Message('note_on', channel=0, note=71, velocity=0, time=2)\n",
      "Message('note_on', channel=0, note=69, velocity=66, time=171)\n",
      "Message('note_on', channel=0, note=74, velocity=0, time=4)\n",
      "Message('note_on', channel=0, note=60, velocity=56, time=7)\n",
      "Message('note_on', channel=0, note=62, velocity=0, time=50)\n",
      "Message('note_on', channel=0, note=69, velocity=0, time=98)\n",
      "Message('note_on', channel=0, note=74, velocity=63, time=10)\n",
      "Message('note_on', channel=0, note=60, velocity=0, time=6)\n",
      "Message('note_on', channel=0, note=74, velocity=0, time=167)\n",
      "Message('note_on', channel=0, note=67, velocity=65, time=9)\n",
      "Message('note_on', channel=0, note=59, velocity=52, time=12)\n",
      "Message('note_on', channel=0, note=59, velocity=0, time=133)\n",
      "Message('note_on', channel=0, note=67, velocity=0, time=19)\n",
      "Message('note_on', channel=0, note=74, velocity=66, time=2)\n",
      "Message('control_change', channel=0, control=64, value=9, time=33)\n",
      "Message('control_change', channel=0, control=64, value=16, time=31)\n",
      "Message('control_change', channel=0, control=64, value=23, time=21)\n",
      "Message('control_change', channel=0, control=64, value=29, time=18)\n",
      "Message('control_change', channel=0, control=64, value=9, time=58)\n",
      "Message('control_change', channel=0, control=64, value=0, time=18)\n",
      "Message('note_on', channel=0, note=66, velocity=65, time=25)\n",
      "Message('note_on', channel=0, note=74, velocity=0, time=0)\n",
      "Message('note_on', channel=0, note=57, velocity=61, time=10)\n",
      "Message('control_change', channel=0, control=64, value=13, time=22)\n",
      "Message('control_change', channel=0, control=64, value=54, time=18)\n",
      "Message('control_change', channel=0, control=64, value=71, time=21)\n",
      "Message('control_change', channel=0, control=64, value=82, time=17)\n",
      "Message('control_change', channel=0, control=64, value=87, time=21)\n",
      "Message('note_on', channel=0, note=55, velocity=0, time=60)\n",
      "Message('note_on', channel=0, note=57, velocity=0, time=0)\n",
      "Message('note_on', channel=0, note=74, velocity=68, time=2)\n",
      "Message('note_on', channel=0, note=66, velocity=0, time=84)\n",
      "Message('note_on', channel=0, note=74, velocity=0, time=84)\n",
      "Message('control_change', channel=0, control=64, value=82, time=15)\n",
      "Message('note_on', channel=0, note=55, velocity=62, time=8)\n",
      "Message('note_on', channel=0, note=64, velocity=71, time=3)\n",
      "Message('control_change', channel=0, control=64, value=69, time=8)\n",
      "Message('control_change', channel=0, control=64, value=43, time=19)\n",
      "Message('control_change', channel=0, control=64, value=0, time=17)\n",
      "Message('note_on', channel=0, note=74, velocity=72, time=122)\n",
      "Message('note_on', channel=0, note=64, velocity=0, time=137)\n",
      "Message('note_on', channel=0, note=73, velocity=74, time=44)\n",
      "Message('note_on', channel=0, note=52, velocity=71, time=8)\n",
      "Message('note_on', channel=0, note=74, velocity=0, time=24)\n",
      "Message('note_on', channel=0, note=55, velocity=0, time=132)\n",
      "Message('note_on', channel=0, note=71, velocity=75, time=23)\n",
      "Message('note_on', channel=0, note=73, velocity=0, time=33)\n",
      "Message('note_on', channel=0, note=45, velocity=70, time=157)\n",
      "Message('note_on', channel=0, note=73, velocity=74, time=6)\n",
      "Message('note_on', channel=0, note=71, velocity=0, time=35)\n",
      "Message('control_change', channel=0, control=64, value=29, time=31)\n",
      "Message('control_change', channel=0, control=64, value=48, time=18)\n",
      "Message('control_change', channel=0, control=64, value=57, time=18)\n",
      "Message('control_change', channel=0, control=64, value=60, time=18)\n",
      "Message('control_change', channel=0, control=64, value=61, time=21)\n",
      "Message('control_change', channel=0, control=64, value=62, time=18)\n",
      "Message('note_on', channel=0, note=76, velocity=77, time=6)\n",
      "Message('control_change', channel=0, control=64, value=63, time=14)\n",
      "Message('note_on', channel=0, note=73, velocity=0, time=4)\n",
      "Message('control_change', channel=0, control=64, value=65, time=15)\n",
      "Message('control_change', channel=0, control=64, value=66, time=38)\n",
      "Message('note_on', channel=0, note=76, velocity=0, time=74)\n",
      "Message('control_change', channel=0, control=64, value=63, time=21)\n",
      "Message('note_on', channel=0, note=69, velocity=78, time=15)\n",
      "Message('control_change', channel=0, control=64, value=48, time=3)\n",
      "Message('note_on', channel=0, note=45, velocity=0, time=10)\n",
      "Message('note_on', channel=0, note=49, velocity=71, time=7)\n",
      "Message('control_change', channel=0, control=64, value=0, time=3)\n",
      "Message('note_on', channel=0, note=52, velocity=0, time=135)\n",
      "Message('note_on', channel=0, note=79, velocity=78, time=14)\n",
      "Message('control_change', channel=0, control=64, value=36, time=1)\n",
      "Message('control_change', channel=0, control=64, value=47, time=19)\n",
      "Message('control_change', channel=0, control=64, value=50, time=18)\n",
      "Message('control_change', channel=0, control=64, value=52, time=56)\n",
      "Message('control_change', channel=0, control=64, value=47, time=71)\n",
      "Message('control_change', channel=0, control=64, value=0, time=19)\n",
      "Message('note_on', channel=0, note=78, velocity=79, time=16)\n",
      "Message('note_on', channel=0, note=50, velocity=78, time=3)\n",
      "Message('note_on', channel=0, note=49, velocity=0, time=11)\n",
      "Message('note_on', channel=0, note=79, velocity=0, time=12)\n",
      "Message('note_on', channel=0, note=69, velocity=0, time=36)\n",
      "Message('note_on', channel=0, note=76, velocity=76, time=112)\n",
      "Message('note_on', channel=0, note=78, velocity=0, time=28)\n",
      "Message('note_on', channel=0, note=78, velocity=75, time=143)\n",
      "Message('note_on', channel=0, note=43, velocity=67, time=8)\n",
      "Message('control_change', channel=0, control=64, value=52, time=48)\n",
      "Message('note_on', channel=0, note=76, velocity=0, time=1)\n",
      "Message('control_change', channel=0, control=64, value=61, time=18)\n",
      "Message('control_change', channel=0, control=64, value=67, time=18)\n",
      "Message('control_change', channel=0, control=64, value=73, time=21)\n",
      "Message('control_change', channel=0, control=64, value=78, time=18)\n",
      "Message('control_change', channel=0, control=67, value=20, time=1)\n",
      "Message('control_change', channel=0, control=64, value=82, time=18)\n",
      "Message('note_on', channel=0, note=43, velocity=0, time=12)\n",
      "Message('note_on', channel=0, note=74, velocity=74, time=3)\n",
      "Message('control_change', channel=0, control=64, value=85, time=2)\n",
      "Message('note_on', channel=0, note=50, velocity=0, time=1)\n",
      "Message('note_on', channel=0, note=52, velocity=74, time=6)\n",
      "Message('note_on', channel=0, note=78, velocity=0, time=18)\n",
      "Message('control_change', channel=0, control=64, value=89, time=33)\n",
      "Message('note_on', channel=0, note=74, velocity=0, time=93)\n",
      "Message('control_change', channel=0, control=64, value=94, time=19)\n",
      "Message('note_on', channel=0, note=73, velocity=70, time=12)\n",
      "Message('note_on', channel=0, note=54, velocity=77, time=17)\n",
      "Message('note_on', channel=0, note=45, velocity=68, time=4)\n",
      "Message('note_on', channel=0, note=73, velocity=0, time=22)\n",
      "Message('control_change', channel=0, control=64, value=75, time=2)\n",
      "Message('note_on', channel=0, note=52, velocity=0, time=0)\n",
      "Message('note_on', channel=0, note=74, velocity=66, time=11)\n",
      "Message('control_change', channel=0, control=64, value=25, time=7)\n",
      "Message('control_change', channel=0, control=64, value=0, time=20)\n",
      "Message('note_on', channel=0, note=74, velocity=0, time=36)\n",
      "Message('control_change', channel=0, control=67, value=24, time=3)\n",
      "Message('note_on', channel=0, note=73, velocity=61, time=7)\n",
      "Message('control_change', channel=0, control=67, value=29, time=29)\n",
      "Message('note_on', channel=0, note=74, velocity=62, time=24)\n",
      "Message('note_on', channel=0, note=74, velocity=0, time=61)\n",
      "Message('control_change', channel=0, control=67, value=33, time=121)\n",
      "Message('note_on', channel=0, note=55, velocity=61, time=106)\n",
      "Message('note_on', channel=0, note=45, velocity=0, time=33)\n",
      "Message('note_on', channel=0, note=54, velocity=0, time=20)\n",
      "Message('control_change', channel=0, control=64, value=23, time=28)\n",
      "Message('control_change', channel=0, control=64, value=48, time=19)\n",
      "Message('control_change', channel=0, control=64, value=62, time=20)\n",
      "Message('control_change', channel=0, control=64, value=71, time=19)\n",
      "Message('control_change', channel=0, control=64, value=76, time=16)\n",
      "Message('control_change', channel=0, control=64, value=80, time=21)\n",
      "Message('control_change', channel=0, control=64, value=84, time=18)\n",
      "Message('note_on', channel=0, note=74, velocity=67, time=19)\n",
      "Message('control_change', channel=0, control=64, value=89, time=1)\n",
      "Message('control_change', channel=0, control=64, value=96, time=16)\n",
      "Message('control_change', channel=0, control=64, value=103, time=21)\n",
      "Message('control_change', channel=0, control=64, value=108, time=19)\n",
      "Message('note_on', channel=0, note=73, velocity=0, time=2)\n",
      "Message('note_on', channel=0, note=74, velocity=0, time=58)\n",
      "Message('note_on', channel=0, note=55, velocity=0, time=125)\n",
      "Message('control_change', channel=0, control=64, value=99, time=22)\n",
      "Message('note_on', channel=0, note=54, velocity=50, time=9)\n",
      "Message('note_on', channel=0, note=74, velocity=61, time=2)\n",
      "Message('note_on', channel=0, note=50, velocity=47, time=6)\n",
      "Message('control_change', channel=0, control=64, value=91, time=3)\n",
      "Message('control_change', channel=0, control=64, value=80, time=17)\n",
      "Message('control_change', channel=0, control=64, value=69, time=22)\n",
      "Message('control_change', channel=0, control=64, value=62, time=17)\n",
      "Message('control_change', channel=0, control=64, value=61, time=19)\n",
      "Message('control_change', channel=0, control=64, value=60, time=39)\n",
      "Message('control_change', channel=0, control=64, value=58, time=37)\n",
      "Message('note_on', channel=0, note=62, velocity=58, time=63)\n",
      "Message('note_on', channel=0, note=54, velocity=0, time=13)\n",
      "Message('note_on', channel=0, note=50, velocity=0, time=133)\n",
      "Message('note_on', channel=0, note=62, velocity=0, time=15)\n",
      "Message('note_on', channel=0, note=52, velocity=46, time=9)\n",
      "Message('note_on', channel=0, note=55, velocity=54, time=1)\n",
      "Message('note_on', channel=0, note=55, velocity=0, time=146)\n",
      "Message('note_on', channel=0, note=62, velocity=58, time=28)\n",
      "Message('control_change', channel=0, control=64, value=56, time=42)\n",
      "Message('control_change', channel=0, control=64, value=54, time=111)\n",
      "Message('note_on', channel=0, note=62, velocity=0, time=14)\n",
      "Message('control_change', channel=0, control=67, value=29, time=5)\n",
      "Message('note_on', channel=0, note=57, velocity=53, time=5)\n",
      "Message('note_on', channel=0, note=54, velocity=47, time=5)\n",
      "Message('note_on', channel=0, note=52, velocity=0, time=66)\n",
      "Message('note_on', channel=0, note=78, velocity=75, time=97)\n",
      "Message('note_on', channel=0, note=57, velocity=0, time=2)\n",
      "Message('note_on', channel=0, note=62, velocity=57, time=3)\n",
      "Message('note_on', channel=0, note=54, velocity=0, time=17)\n",
      "Message('control_change', channel=0, control=64, value=52, time=50)\n",
      "Message('note_on', channel=0, note=74, velocity=0, time=13)\n",
      "Message('control_change', channel=0, control=64, value=49, time=6)\n",
      "Message('control_change', channel=0, control=64, value=41, time=20)\n",
      "Message('control_change', channel=0, control=64, value=26, time=19)\n",
      "Message('control_change', channel=0, control=64, value=18, time=19)\n",
      "Message('note_on', channel=0, note=54, velocity=58, time=28)\n",
      "Message('note_on', channel=0, note=81, velocity=81, time=0)\n",
      "Message('control_change', channel=0, control=64, value=25, time=9)\n",
      "Message('note_on', channel=0, note=50, velocity=49, time=5)\n",
      "Message('note_on', channel=0, note=62, velocity=0, time=1)\n",
      "Message('control_change', channel=0, control=64, value=40, time=14)\n",
      "Message('note_on', channel=0, note=78, velocity=0, time=4)\n",
      "Message('control_change', channel=0, control=64, value=52, time=14)\n",
      "Message('control_change', channel=0, control=64, value=59, time=19)\n",
      "Message('control_change', channel=0, control=64, value=62, time=32)\n",
      "Message('control_change', channel=0, control=64, value=64, time=22)\n",
      "Message('control_change', channel=0, control=64, value=65, time=16)\n",
      "Message('control_change', channel=0, control=64, value=66, time=21)\n",
      "Message('note_on', channel=0, note=84, velocity=80, time=24)\n",
      "Message('note_on', channel=0, note=50, velocity=0, time=1)\n",
      "Message('note_on', channel=0, note=62, velocity=62, time=14)\n",
      "Message('note_on', channel=0, note=54, velocity=0, time=7)\n",
      "Message('note_on', channel=0, note=81, velocity=0, time=6)\n",
      "Message('control_change', channel=0, control=64, value=67, time=4)\n",
      "Message('control_change', channel=0, control=64, value=66, time=131)\n",
      "Message('control_change', channel=0, control=64, value=65, time=20)\n",
      "Message('control_change', channel=0, control=64, value=61, time=19)\n",
      "Message('note_on', channel=0, note=55, velocity=59, time=0)\n",
      "Message('note_on', channel=0, note=62, velocity=0, time=13)\n",
      "Message('note_on', channel=0, note=83, velocity=75, time=2)\n",
      "Message('control_change', channel=0, control=64, value=55, time=4)\n",
      "Message('note_on', channel=0, note=84, velocity=0, time=4)\n",
      "Message('control_change', channel=0, control=64, value=47, time=14)\n",
      "Message('control_change', channel=0, control=64, value=36, time=20)\n",
      "Message('control_change', channel=0, control=64, value=16, time=19)\n",
      "Message('control_change', channel=0, control=64, value=0, time=20)\n",
      "Message('note_on', channel=0, note=62, velocity=49, time=113)\n",
      "Message('note_on', channel=0, note=55, velocity=0, time=138)\n",
      "Message('note_on', channel=0, note=62, velocity=0, time=21)\n",
      "Message('note_on', channel=0, note=57, velocity=53, time=3)\n",
      "Message('note_on', channel=0, note=83, velocity=0, time=167)\n",
      "Message('note_on', channel=0, note=81, velocity=71, time=5)\n",
      "Message('note_on', channel=0, note=62, velocity=50, time=10)\n",
      "Message('note_on', channel=0, note=62, velocity=0, time=188)\n",
      "Message('note_on', channel=0, note=79, velocity=72, time=4)\n",
      "Message('note_on', channel=0, note=59, velocity=51, time=8)\n",
      "Message('note_on', channel=0, note=81, velocity=0, time=21)\n",
      "Message('note_on', channel=0, note=57, velocity=0, time=103)\n",
      "Message('note_on', channel=0, note=78, velocity=75, time=32)\n",
      "Message('note_on', channel=0, note=62, velocity=61, time=7)\n",
      "Message('note_on', channel=0, note=79, velocity=0, time=20)\n",
      "Message('note_on', channel=0, note=59, velocity=0, time=134)\n",
      "Message('note_on', channel=0, note=76, velocity=74, time=13)\n",
      "Message('note_on', channel=0, note=78, velocity=0, time=7)\n",
      "Message('note_on', channel=0, note=55, velocity=67, time=1)\n",
      "Message('note_on', channel=0, note=62, velocity=0, time=14)\n",
      "Message('control_change', channel=0, control=64, value=19, time=41)\n",
      "Message('control_change', channel=0, control=64, value=50, time=20)\n",
      "Message('control_change', channel=0, control=64, value=65, time=19)\n",
      "Message('control_change', channel=0, control=64, value=75, time=20)\n",
      "Message('control_change', channel=0, control=64, value=81, time=17)\n",
      "Message('control_change', channel=0, control=64, value=83, time=20)\n",
      "Message('note_on', channel=0, note=55, velocity=0, time=3)\n",
      "Message('note_on', channel=0, note=74, velocity=82, time=8)\n",
      "Message('note_on', channel=0, note=62, velocity=66, time=2)\n",
      "Message('note_on', channel=0, note=76, velocity=0, time=33)\n",
      "Message('control_change', channel=0, control=64, value=85, time=9)\n",
      "Message('control_change', channel=0, control=64, value=87, time=21)\n",
      "Message('note_on', channel=0, note=74, velocity=0, time=9)\n",
      "Message('control_change', channel=0, control=64, value=91, time=45)\n",
      "Message('note_on', channel=0, note=52, velocity=62, time=69)\n",
      "Message('note_on', channel=0, note=76, velocity=76, time=6)\n",
      "Message('control_change', channel=0, control=64, value=96, time=2)\n",
      "Message('note_on', channel=0, note=62, velocity=0, time=30)\n",
      "Message('note_on', channel=0, note=78, velocity=74, time=26)\n",
      "Message('control_change', channel=0, control=64, value=85, time=1)\n",
      "Message('control_change', channel=0, control=64, value=67, time=21)\n",
      "Message('note_on', channel=0, note=76, velocity=0, time=3)\n",
      "Message('control_change', channel=0, control=64, value=37, time=14)\n",
      "Message('control_change', channel=0, control=64, value=0, time=18)\n",
      "Message('note_on', channel=0, note=79, velocity=71, time=44)\n",
      "Message('note_on', channel=0, note=78, velocity=0, time=24)\n",
      "Message('note_on', channel=0, note=62, velocity=58, time=22)\n",
      "Message('note_on', channel=0, note=52, velocity=0, time=165)\n",
      "Message('note_on', channel=0, note=54, velocity=53, time=4)\n",
      "Message('note_on', channel=0, note=62, velocity=0, time=19)\n",
      "Message('note_on', channel=0, note=62, velocity=58, time=161)\n",
      "Message('note_on', channel=0, note=78, velocity=68, time=2)\n",
      "Message('note_on', channel=0, note=79, velocity=0, time=18)\n",
      "Message('note_on', channel=0, note=78, velocity=0, time=162)\n",
      "Message('note_on', channel=0, note=62, velocity=0, time=5)\n",
      "Message('note_on', channel=0, note=55, velocity=53, time=5)\n",
      "Message('note_on', channel=0, note=76, velocity=61, time=1)\n",
      "Message('note_on', channel=0, note=54, velocity=0, time=12)\n",
      "Message('note_on', channel=0, note=76, velocity=0, time=143)\n",
      "Message('note_on', channel=0, note=62, velocity=57, time=7)\n",
      "Message('note_on', channel=0, note=74, velocity=70, time=7)\n",
      "Message('note_on', channel=0, note=62, velocity=0, time=172)\n",
      "Message('note_on', channel=0, note=74, velocity=0, time=6)\n",
      "Message('note_on', channel=0, note=73, velocity=67, time=1)\n",
      "Message('control_change', channel=0, control=64, value=19, time=17)\n",
      "Message('note_on', channel=0, note=52, velocity=36, time=25)\n",
      "Message('control_change', channel=0, control=64, value=37, time=7)\n",
      "Message('control_change', channel=0, control=64, value=54, time=18)\n",
      "Message('control_change', channel=0, control=64, value=65, time=19)\n",
      "Message('control_change', channel=0, control=64, value=71, time=19)\n",
      "Message('note_on', channel=0, note=55, velocity=0, time=10)\n",
      "Message('control_change', channel=0, control=64, value=73, time=8)\n",
      "Message('note_on', channel=0, note=52, velocity=0, time=38)\n",
      "Message('note_on', channel=0, note=62, velocity=52, time=24)\n",
      "Message('note_on', channel=0, note=71, velocity=69, time=3)\n",
      "Message('note_on', channel=0, note=73, velocity=0, time=4)\n",
      "Message('control_change', channel=0, control=64, value=71, time=138)\n",
      "Message('control_change', channel=0, control=64, value=68, time=22)\n",
      "Message('control_change', channel=0, control=64, value=63, time=18)\n",
      "Message('note_on', channel=0, note=57, velocity=58, time=6)\n",
      "Message('note_on', channel=0, note=73, velocity=69, time=8)\n",
      "Message('control_change', channel=0, control=64, value=59, time=4)\n",
      "Message('note_on', channel=0, note=71, velocity=0, time=4)\n",
      "Message('control_change', channel=0, control=64, value=54, time=16)\n",
      "Message('note_on', channel=0, note=62, velocity=0, time=11)\n",
      "Message('control_change', channel=0, control=64, value=48, time=7)\n",
      "Message('control_change', channel=0, control=64, value=46, time=18)\n",
      "Message('control_change', channel=0, control=64, value=44, time=38)\n",
      "Message('control_change', channel=0, control=64, value=42, time=38)\n",
      "Message('note_on', channel=0, note=73, velocity=0, time=16)\n",
      "Message('note_on', channel=0, note=69, velocity=66, time=12)\n",
      "Message('note_on', channel=0, note=61, velocity=55, time=18)\n",
      "Message('note_on', channel=0, note=57, velocity=0, time=19)\n",
      "Message('control_change', channel=0, control=64, value=40, time=49)\n",
      "Message('control_change', channel=0, control=64, value=30, time=56)\n",
      "Message('control_change', channel=0, control=64, value=20, time=19)\n",
      "Message('note_on', channel=0, note=61, velocity=0, time=16)\n",
      "Message('note_on', channel=0, note=69, velocity=0, time=0)\n",
      "Message('control_change', channel=0, control=64, value=11, time=3)\n",
      "Message('note_on', channel=0, note=74, velocity=69, time=0)\n",
      "Message('note_on', channel=0, note=59, velocity=59, time=1)\n",
      "Message('control_change', channel=0, control=64, value=27, time=75)\n",
      "Message('control_change', channel=0, control=64, value=34, time=19)\n",
      "Message('control_change', channel=0, control=64, value=38, time=19)\n",
      "Message('control_change', channel=0, control=64, value=40, time=19)\n",
      "Message('note_on', channel=0, note=74, velocity=0, time=4)\n",
      "Message('control_change', channel=0, control=64, value=42, time=17)\n",
      "Message('control_change', channel=0, control=64, value=45, time=17)\n",
      "Message('note_on', channel=0, note=62, velocity=55, time=6)\n",
      "Message('note_on', channel=0, note=69, velocity=64, time=0)\n",
      "Message('control_change', channel=0, control=64, value=47, time=11)\n",
      "Message('control_change', channel=0, control=64, value=49, time=58)\n",
      "Message('note_on', channel=0, note=69, velocity=0, time=88)\n",
      "Message('control_change', channel=0, control=64, value=38, time=21)\n",
      "Message('note_on', channel=0, note=61, velocity=60, time=14)\n",
      "Message('note_on', channel=0, note=76, velocity=66, time=0)\n",
      "Message('note_on', channel=0, note=62, velocity=0, time=1)\n",
      "Message('control_change', channel=0, control=64, value=0, time=5)\n",
      "Message('note_on', channel=0, note=59, velocity=0, time=9)\n",
      "Message('control_change', channel=0, control=64, value=20, time=85)\n",
      "Message('control_change', channel=0, control=64, value=36, time=18)\n",
      "Message('control_change', channel=0, control=64, value=45, time=20)\n",
      "Message('note_on', channel=0, note=76, velocity=0, time=7)\n",
      "Message('note_on', channel=0, note=61, velocity=0, time=4)\n",
      "Message('control_change', channel=0, control=64, value=50, time=6)\n",
      "Message('note_on', channel=0, note=64, velocity=49, time=10)\n",
      "Message('note_on', channel=0, note=69, velocity=57, time=16)\n",
      "Message('control_change', channel=0, control=64, value=52, time=11)\n",
      "Message('control_change', channel=0, control=64, value=54, time=115)\n",
      "Message('note_on', channel=0, note=57, velocity=52, time=48)\n",
      "Message('note_on', channel=0, note=64, velocity=0, time=8)\n",
      "Message('control_change', channel=0, control=64, value=46, time=2)\n",
      "Message('note_on', channel=0, note=79, velocity=64, time=3)\n",
      "Message('control_change', channel=0, control=64, value=22, time=15)\n",
      "Message('control_change', channel=0, control=64, value=0, time=17)\n",
      "Message('control_change', channel=0, control=64, value=16, time=58)\n",
      "Message('control_change', channel=0, control=64, value=37, time=19)\n",
      "Message('control_change', channel=0, control=64, value=49, time=19)\n",
      "Message('note_on', channel=0, note=79, velocity=0, time=11)\n",
      "Message('control_change', channel=0, control=64, value=55, time=6)\n",
      "Message('note_on', channel=0, note=76, velocity=59, time=21)\n",
      "Message('note_on', channel=0, note=61, velocity=53, time=1)\n",
      "Message('note_on', channel=0, note=57, velocity=0, time=8)\n",
      "Message('control_change', channel=0, control=64, value=57, time=27)\n",
      "Message('note_on', channel=0, note=69, velocity=0, time=71)\n",
      "Message('note_on', channel=0, note=61, velocity=0, time=48)\n",
      "Message('control_change', channel=0, control=64, value=55, time=14)\n",
      "Message('note_on', channel=0, note=62, velocity=51, time=14)\n",
      "Message('control_change', channel=0, control=64, value=39, time=6)\n",
      "Message('note_on', channel=0, note=77, velocity=62, time=9)\n",
      "Message('note_on', channel=0, note=76, velocity=0, time=2)\n",
      "Message('control_change', channel=0, control=64, value=0, time=7)\n",
      "Message('control_change', channel=0, control=64, value=29, time=147)\n",
      "Message('control_change', channel=0, control=64, value=38, time=18)\n",
      "Message('control_change', channel=0, control=64, value=41, time=20)\n",
      "Message('note_on', channel=0, note=69, velocity=52, time=6)\n",
      "Message('control_change', channel=0, control=64, value=43, time=12)\n",
      "Message('control_change', channel=0, control=64, value=46, time=40)\n",
      "Message('note_on', channel=0, note=62, velocity=0, time=5)\n",
      "Message('control_change', channel=0, control=64, value=48, time=13)\n",
      "Message('control_change', channel=0, control=64, value=50, time=39)\n",
      "Message('control_change', channel=0, control=64, value=48, time=37)\n",
      "Message('control_change', channel=0, control=64, value=45, time=18)\n",
      "Message('note_on', channel=0, note=60, velocity=53, time=5)\n",
      "Message('note_on', channel=0, note=74, velocity=58, time=9)\n",
      "Message('note_on', channel=0, note=69, velocity=0, time=23)\n",
      "Message('note_on', channel=0, note=77, velocity=0, time=22)\n",
      "Message('control_change', channel=0, control=64, value=47, time=73)\n",
      "Message('control_change', channel=0, control=64, value=49, time=37)\n",
      "Message('note_on', channel=0, note=76, velocity=63, time=19)\n",
      "Message('note_on', channel=0, note=60, velocity=0, time=29)\n",
      "Message('note_on', channel=0, note=74, velocity=0, time=15)\n",
      "Message('control_change', channel=0, control=64, value=52, time=32)\n",
      "Message('control_change', channel=0, control=64, value=54, time=38)\n",
      "Message('control_change', channel=0, control=64, value=52, time=38)\n",
      "Message('control_change', channel=0, control=64, value=36, time=18)\n",
      "Message('note_on', channel=0, note=77, velocity=74, time=15)\n",
      "Message('control_change', channel=0, control=64, value=0, time=4)\n",
      "Message('note_on', channel=0, note=58, velocity=60, time=5)\n",
      "Message('note_on', channel=0, note=76, velocity=0, time=14)\n",
      "Message('control_change', channel=0, control=64, value=15, time=93)\n",
      "Message('control_change', channel=0, control=64, value=31, time=20)\n",
      "Message('control_change', channel=0, control=64, value=40, time=18)\n",
      "Message('note_on', channel=0, note=58, velocity=0, time=5)\n",
      "Message('note_on', channel=0, note=77, velocity=0, time=2)\n",
      "Message('control_change', channel=0, control=64, value=45, time=14)\n",
      "Message('note_on', channel=0, note=74, velocity=63, time=4)\n",
      "Message('control_change', channel=0, control=64, value=48, time=14)\n",
      "Message('control_change', channel=0, control=64, value=50, time=19)\n",
      "Message('control_change', channel=0, control=64, value=52, time=39)\n",
      "Message('control_change', channel=0, control=64, value=43, time=75)\n",
      "Message('control_change', channel=0, control=64, value=33, time=31)\n",
      "Message('note_on', channel=0, note=57, velocity=64, time=11)\n",
      "Message('note_on', channel=0, note=78, velocity=72, time=3)\n",
      "Message('control_change', channel=0, control=64, value=28, time=6)\n",
      "Message('note_on', channel=0, note=74, velocity=0, time=9)\n",
      "Message('control_change', channel=0, control=64, value=33, time=48)\n",
      "Message('note_on', channel=0, note=57, velocity=0, time=71)\n",
      "Message('control_change', channel=0, control=64, value=37, time=6)\n",
      "Message('note_on', channel=0, note=74, velocity=64, time=36)\n",
      "Message('note_on', channel=0, note=78, velocity=0, time=57)\n",
      "Message('control_change', channel=0, control=64, value=18, time=76)\n",
      "Message('control_change', channel=0, control=64, value=0, time=19)\n",
      "Message('note_on', channel=0, note=74, velocity=0, time=12)\n",
      "Message('note_on', channel=0, note=58, velocity=63, time=16)\n",
      "Message('note_on', channel=0, note=79, velocity=79, time=5)\n",
      "Message('control_change', channel=0, control=64, value=45, time=62)\n",
      "Message('control_change', channel=0, control=64, value=63, time=19)\n",
      "Message('control_change', channel=0, control=64, value=72, time=17)\n",
      "Message('control_change', channel=0, control=64, value=76, time=21)\n",
      "Message('note_on', channel=0, note=79, velocity=0, time=10)\n",
      "Message('control_change', channel=0, control=64, value=79, time=5)\n",
      "Message('note_on', channel=0, note=58, velocity=0, time=8)\n",
      "Message('control_change', channel=0, control=64, value=81, time=15)\n",
      "Message('note_on', channel=0, note=74, velocity=76, time=8)\n",
      "Message('control_change', channel=0, control=64, value=84, time=10)\n",
      "Message('control_change', channel=0, control=64, value=86, time=19)\n",
      "Message('control_change', channel=0, control=64, value=91, time=57)\n",
      "Message('control_change', channel=0, control=64, value=82, time=55)\n",
      "Message('control_change', channel=0, control=64, value=71, time=21)\n",
      "Message('control_change', channel=0, control=64, value=58, time=16)\n",
      "Message('control_change', channel=0, control=64, value=50, time=20)\n",
      "Message('note_on', channel=0, note=82, velocity=80, time=2)\n",
      "Message('note_on', channel=0, note=55, velocity=56, time=9)\n",
      "Message('note_on', channel=0, note=74, velocity=0, time=60)\n",
      "Message('note_on', channel=0, note=55, velocity=0, time=51)\n",
      "Message('note_on', channel=0, note=82, velocity=0, time=24)\n",
      "Message('note_on', channel=0, note=81, velocity=71, time=35)\n",
      "Message('control_change', channel=0, control=64, value=48, time=41)\n",
      "Message('control_change', channel=0, control=64, value=45, time=57)\n",
      "Message('control_change', channel=0, control=64, value=34, time=19)\n",
      "Message('control_change', channel=0, control=64, value=0, time=19)\n",
      "Message('note_on', channel=0, note=52, velocity=59, time=60)\n",
      "Message('note_on', channel=0, note=80, velocity=64, time=2)\n",
      "Message('note_on', channel=0, note=81, velocity=0, time=10)\n",
      "Message('control_change', channel=0, control=64, value=15, time=42)\n",
      "Message('control_change', channel=0, control=64, value=32, time=20)\n",
      "Message('control_change', channel=0, control=64, value=43, time=16)\n",
      "Message('note_on', channel=0, note=52, velocity=0, time=8)\n",
      "Message('control_change', channel=0, control=64, value=50, time=12)\n",
      "Message('control_change', channel=0, control=64, value=55, time=18)\n",
      "Message('control_change', channel=0, control=64, value=58, time=20)\n",
      "Message('control_change', channel=0, control=64, value=61, time=19)\n",
      "Message('control_change', channel=0, control=64, value=62, time=20)\n",
      "Message('note_on', channel=0, note=74, velocity=60, time=8)\n",
      "Message('control_change', channel=0, control=64, value=64, time=10)\n",
      "Message('control_change', channel=0, control=64, value=65, time=20)\n",
      "Message('control_change', channel=0, control=64, value=66, time=37)\n",
      "Message('control_change', channel=0, control=64, value=65, time=18)\n",
      "Message('control_change', channel=0, control=64, value=57, time=20)\n",
      "Message('control_change', channel=0, control=64, value=13, time=16)\n",
      "Message('note_on', channel=0, note=74, velocity=0, time=14)\n",
      "Message('control_change', channel=0, control=64, value=0, time=5)\n",
      "Message('note_on', channel=0, note=80, velocity=0, time=26)\n",
      "Message('note_on', channel=0, note=57, velocity=51, time=3)\n",
      "Message('note_on', channel=0, note=73, velocity=64, time=2)\n",
      "Message('control_change', channel=0, control=64, value=48, time=27)\n",
      "Message('control_change', channel=0, control=64, value=69, time=21)\n",
      "Message('control_change', channel=0, control=64, value=81, time=17)\n",
      "Message('control_change', channel=0, control=64, value=91, time=20)\n",
      "Message('control_change', channel=0, control=64, value=97, time=19)\n",
      "Message('note_on', channel=0, note=57, velocity=0, time=2)\n",
      "Message('note_on', channel=0, note=79, velocity=71, time=74)\n",
      "Message('control_change', channel=0, control=64, value=86, time=151)\n",
      "Message('control_change', channel=0, control=64, value=70, time=19)\n",
      "Message('note_on', channel=0, note=62, velocity=59, time=11)\n",
      "Message('control_change', channel=0, control=64, value=55, time=9)\n",
      "Message('note_on', channel=0, note=78, velocity=65, time=2)\n",
      "Message('note_on', channel=0, note=79, velocity=0, time=3)\n",
      "Message('control_change', channel=0, control=64, value=48, time=11)\n",
      "Message('note_on', channel=0, note=73, velocity=0, time=7)\n",
      "Message('note_on', channel=0, note=72, velocity=65, time=153)\n",
      "Message('note_on', channel=0, note=72, velocity=0, time=153)\n",
      "Message('note_on', channel=0, note=78, velocity=0, time=5)\n",
      "Message('note_on', channel=0, note=71, velocity=67, time=27)\n",
      "Message('note_on', channel=0, note=55, velocity=49, time=7)\n",
      "Message('note_on', channel=0, note=62, velocity=0, time=130)\n",
      "Message('note_on', channel=0, note=55, velocity=0, time=28)\n",
      "Message('note_on', channel=0, note=76, velocity=74, time=10)\n",
      "Message('note_on', channel=0, note=67, velocity=53, time=17)\n",
      "Message('note_on', channel=0, note=71, velocity=0, time=152)\n",
      "Message('note_on', channel=0, note=66, velocity=55, time=14)\n",
      "Message('note_on', channel=0, note=69, velocity=61, time=9)\n",
      "Message('note_on', channel=0, note=67, velocity=0, time=9)\n",
      "Message('note_on', channel=0, note=57, velocity=31, time=8)\n",
      "Message('note_on', channel=0, note=76, velocity=0, time=151)\n",
      "Message('note_on', channel=0, note=74, velocity=76, time=7)\n",
      "Message('note_on', channel=0, note=69, velocity=0, time=185)\n",
      "Message('note_on', channel=0, note=66, velocity=0, time=6)\n",
      "Message('note_on', channel=0, note=64, velocity=57, time=3)\n",
      "Message('note_on', channel=0, note=67, velocity=59, time=16)\n",
      "Message('note_on', channel=0, note=74, velocity=0, time=133)\n",
      "Message('note_on', channel=0, note=73, velocity=71, time=50)\n",
      "Message('note_on', channel=0, note=57, velocity=0, time=131)\n",
      "Message('control_change', channel=0, control=64, value=46, time=16)\n",
      "Message('note_on', channel=0, note=64, velocity=0, time=78)\n",
      "Message('note_on', channel=0, note=62, velocity=50, time=11)\n",
      "Message('note_on', channel=0, note=74, velocity=70, time=3)\n",
      "Message('note_on', channel=0, note=67, velocity=0, time=5)\n",
      "Message('note_on', channel=0, note=73, velocity=0, time=42)\n",
      "Message('control_change', channel=0, control=64, value=44, time=12)\n",
      "Message('control_change', channel=0, control=64, value=42, time=133)\n",
      "Message('note_on', channel=0, note=67, velocity=40, time=6)\n",
      "Message('note_on', channel=0, note=67, velocity=0, time=170)\n",
      "Message('note_on', channel=0, note=69, velocity=60, time=13)\n",
      "Message('note_on', channel=0, note=64, velocity=55, time=191)\n",
      "Message('control_change', channel=0, control=64, value=40, time=13)\n",
      "Message('note_on', channel=0, note=64, velocity=0, time=179)\n",
      "Message('note_on', channel=0, note=66, velocity=64, time=0)\n",
      "Message('note_on', channel=0, note=62, velocity=0, time=179)\n",
      "Message('note_on', channel=0, note=61, velocity=51, time=1)\n",
      "Message('control_change', channel=0, control=67, value=33, time=129)\n",
      "Message('note_on', channel=0, note=61, velocity=0, time=27)\n",
      "Message('note_on', channel=0, note=62, velocity=55, time=18)\n",
      "Message('note_on', channel=0, note=57, velocity=45, time=206)\n",
      "Message('control_change', channel=0, control=67, value=37, time=182)\n",
      "Message('control_change', channel=0, control=67, value=41, time=75)\n",
      "Message('note_on', channel=0, note=50, velocity=41, time=95)\n",
      "Message('control_change', channel=0, control=64, value=34, time=17)\n",
      "Message('control_change', channel=0, control=67, value=45, time=20)\n",
      "Message('control_change', channel=0, control=64, value=30, time=18)\n",
      "Message('control_change', channel=0, control=64, value=25, time=39)\n",
      "Message('control_change', channel=0, control=64, value=20, time=36)\n",
      "Message('control_change', channel=0, control=67, value=49, time=0)\n",
      "Message('control_change', channel=0, control=64, value=16, time=58)\n",
      "Message('control_change', channel=0, control=67, value=53, time=36)\n",
      "Message('control_change', channel=0, control=64, value=0, time=38)\n",
      "Message('control_change', channel=0, control=67, value=58, time=37)\n",
      "Message('control_change', channel=0, control=67, value=63, time=96)\n",
      "Message('control_change', channel=0, control=67, value=67, time=57)\n",
      "Message('control_change', channel=0, control=64, value=9, time=37)\n",
      "Message('control_change', channel=0, control=64, value=29, time=19)\n",
      "Message('control_change', channel=0, control=64, value=40, time=20)\n",
      "Message('control_change', channel=0, control=64, value=50, time=18)\n",
      "Message('control_change', channel=0, control=64, value=56, time=21)\n",
      "Message('control_change', channel=0, control=67, value=72, time=1)\n",
      "Message('control_change', channel=0, control=64, value=62, time=17)\n",
      "Message('control_change', channel=0, control=64, value=66, time=17)\n",
      "Message('control_change', channel=0, control=64, value=69, time=20)\n",
      "Message('control_change', channel=0, control=64, value=72, time=18)\n",
      "Message('control_change', channel=0, control=64, value=74, time=19)\n",
      "Message('control_change', channel=0, control=64, value=77, time=20)\n",
      "Message('note_on', channel=0, note=69, velocity=0, time=29)\n",
      "Message('control_change', channel=0, control=64, value=79, time=4)\n",
      "Message('control_change', channel=0, control=64, value=82, time=20)\n",
      "Message('control_change', channel=0, control=64, value=87, time=18)\n",
      "Message('control_change', channel=0, control=64, value=92, time=19)\n",
      "Message('control_change', channel=0, control=64, value=100, time=17)\n",
      "Message('control_change', channel=0, control=64, value=108, time=18)\n",
      "Message('control_change', channel=0, control=64, value=116, time=20)\n",
      "Message('control_change', channel=0, control=64, value=121, time=19)\n",
      "Message('note_on', channel=0, note=74, velocity=0, time=17)\n",
      "Message('control_change', channel=0, control=64, value=126, time=21)\n",
      "Message('note_on', channel=0, note=66, velocity=0, time=3)\n",
      "Message('note_on', channel=0, note=57, velocity=0, time=138)\n",
      "Message('note_on', channel=0, note=50, velocity=0, time=15)\n",
      "Message('note_on', channel=0, note=62, velocity=0, time=40)\n",
      "Message('control_change', channel=0, control=67, value=79, time=144)\n",
      "Message('control_change', channel=0, control=67, value=85, time=37)\n",
      "Message('control_change', channel=0, control=67, value=90, time=57)\n",
      "Message('control_change', channel=0, control=64, value=122, time=40)\n",
      "Message('control_change', channel=0, control=64, value=115, time=17)\n",
      "Message('control_change', channel=0, control=67, value=95, time=2)\n",
      "Message('control_change', channel=0, control=64, value=107, time=18)\n",
      "Message('control_change', channel=0, control=64, value=98, time=18)\n",
      "Message('control_change', channel=0, control=64, value=87, time=19)\n",
      "Message('control_change', channel=0, control=64, value=75, time=20)\n",
      "Message('control_change', channel=0, control=64, value=62, time=17)\n",
      "Message('control_change', channel=0, control=64, value=52, time=18)\n",
      "Message('control_change', channel=0, control=64, value=50, time=19)\n",
      "Message('note_on', channel=0, note=71, velocity=63, time=73)\n",
      "Message('control_change', channel=0, control=64, value=48, time=3)\n",
      "Message('control_change', channel=0, control=64, value=46, time=21)\n",
      "Message('note_on', channel=0, note=71, velocity=0, time=91)\n",
      "Message('control_change', channel=0, control=64, value=48, time=37)\n",
      "Message('control_change', channel=0, control=64, value=50, time=17)\n",
      "Message('note_on', channel=0, note=71, velocity=60, time=36)\n",
      "Message('control_change', channel=0, control=64, value=53, time=1)\n",
      "Message('note_on', channel=0, note=55, velocity=46, time=10)\n",
      "Message('control_change', channel=0, control=64, value=55, time=11)\n",
      "Message('control_change', channel=0, control=64, value=58, time=18)\n",
      "Message('control_change', channel=0, control=64, value=61, time=20)\n",
      "Message('control_change', channel=0, control=64, value=64, time=18)\n",
      "Message('control_change', channel=0, control=64, value=65, time=21)\n",
      "Message('note_on', channel=0, note=59, velocity=41, time=105)\n",
      "Message('control_change', channel=0, control=64, value=62, time=7)\n",
      "Message('control_change', channel=0, control=64, value=59, time=20)\n",
      "Message('control_change', channel=0, control=64, value=56, time=19)\n",
      "Message('control_change', channel=0, control=64, value=59, time=55)\n",
      "Message('control_change', channel=0, control=64, value=62, time=20)\n",
      "Message('note_on', channel=0, note=55, velocity=0, time=16)\n",
      "Message('control_change', channel=0, control=64, value=66, time=1)\n",
      "Message('control_change', channel=0, control=64, value=69, time=18)\n",
      "Message('note_on', channel=0, note=62, velocity=52, time=9)\n",
      "Message('note_on', channel=0, note=59, velocity=0, time=7)\n",
      "Message('control_change', channel=0, control=64, value=74, time=4)\n",
      "Message('control_change', channel=0, control=64, value=79, time=19)\n",
      "Message('control_change', channel=0, control=64, value=85, time=19)\n",
      "Message('control_change', channel=0, control=64, value=91, time=18)\n",
      "Message('control_change', channel=0, control=64, value=97, time=19)\n",
      "Message('control_change', channel=0, control=64, value=102, time=20)\n",
      "Message('control_change', channel=0, control=64, value=109, time=18)\n",
      "Message('note_on', channel=0, note=62, velocity=0, time=15)\n",
      "Message('control_change', channel=0, control=64, value=114, time=4)\n",
      "Message('note_on', channel=0, note=72, velocity=70, time=18)\n",
      "Message('control_change', channel=0, control=64, value=118, time=2)\n",
      "Message('note_on', channel=0, note=71, velocity=0, time=6)\n",
      "Message('note_on', channel=0, note=67, velocity=53, time=1)\n",
      "Message('note_on', channel=0, note=72, velocity=0, time=26)\n",
      "Message('control_change', channel=0, control=64, value=122, time=79)\n",
      "Message('note_on', channel=0, note=57, velocity=67, time=72)\n",
      "Message('note_on', channel=0, note=74, velocity=75, time=1)\n",
      "Message('note_on', channel=0, note=67, velocity=0, time=14)\n",
      "Message('control_change', channel=0, control=64, value=102, time=6)\n",
      "Message('control_change', channel=0, control=64, value=71, time=21)\n",
      "Message('note_on', channel=0, note=74, velocity=0, time=5)\n",
      "Message('control_change', channel=0, control=64, value=0, time=14)\n",
      "Message('note_on', channel=0, note=72, velocity=72, time=4)\n",
      "Message('note_on', channel=0, note=72, velocity=0, time=71)\n",
      "Message('note_on', channel=0, note=74, velocity=67, time=9)\n",
      "Message('note_on', channel=0, note=72, velocity=64, time=57)\n",
      "Message('note_on', channel=0, note=74, velocity=0, time=2)\n",
      "Message('note_on', channel=0, note=67, velocity=57, time=2)\n",
      "Message('note_on', channel=0, note=67, velocity=0, time=114)\n",
      "Message('note_on', channel=0, note=66, velocity=58, time=55)\n",
      "Message('control_change', channel=0, control=64, value=28, time=1)\n",
      "Message('note_on', channel=0, note=72, velocity=0, time=0)\n",
      "Message('note_on', channel=0, note=72, velocity=7, time=0)\n",
      "Message('control_change', channel=0, control=64, value=35, time=21)\n",
      "Message('note_on', channel=0, note=57, velocity=0, time=162)\n",
      "Message('note_on', channel=0, note=66, velocity=0, time=0)\n",
      "Message('note_on', channel=0, note=72, velocity=0, time=1)\n",
      "Message('note_on', channel=0, note=71, velocity=59, time=8)\n",
      "Message('note_on', channel=0, note=64, velocity=51, time=15)\n",
      "Message('control_change', channel=0, control=64, value=30, time=40)\n",
      "Message('note_on', channel=0, note=72, velocity=58, time=0)\n",
      "Message('note_on', channel=0, note=71, velocity=0, time=3)\n",
      "Message('control_change', channel=0, control=64, value=26, time=36)\n",
      "Message('note_on', channel=0, note=72, velocity=0, time=24)\n",
      "Message('control_change', channel=0, control=64, value=22, time=31)\n",
      "Message('note_on', channel=0, note=74, velocity=65, time=1)\n",
      "Message('control_change', channel=0, control=64, value=16, time=37)\n",
      "Message('note_on', channel=0, note=59, velocity=52, time=8)\n",
      "Message('note_on', channel=0, note=64, velocity=0, time=5)\n",
      "Message('note_on', channel=0, note=62, velocity=57, time=166)\n",
      "Message('note_on', channel=0, note=66, velocity=61, time=194)\n",
      "Message('note_on', channel=0, note=62, velocity=0, time=27)\n",
      "Message('note_on', channel=0, note=67, velocity=65, time=138)\n",
      "Message('note_on', channel=0, note=59, velocity=0, time=40)\n",
      "Message('note_on', channel=0, note=66, velocity=0, time=7)\n",
      "Message('control_change', channel=0, control=64, value=0, time=36)\n",
      "Message('note_on', channel=0, note=74, velocity=0, time=95)\n",
      "Message('note_on', channel=0, note=71, velocity=67, time=29)\n",
      "Message('control_change', channel=0, control=64, value=28, time=5)\n",
      "Message('control_change', channel=0, control=64, value=52, time=21)\n",
      "Message('control_change', channel=0, control=64, value=63, time=19)\n",
      "Message('control_change', channel=0, control=64, value=69, time=16)\n",
      "Message('control_change', channel=0, control=64, value=72, time=21)\n",
      "Message('control_change', channel=0, control=64, value=74, time=18)\n",
      "Message('control_change', channel=0, control=64, value=77, time=37)\n",
      "Message('control_change', channel=0, control=64, value=80, time=19)\n",
      "Message('note_on', channel=0, note=74, velocity=71, time=0)\n",
      "Message('control_change', channel=0, control=64, value=82, time=19)\n",
      "Message('note_on', channel=0, note=71, velocity=0, time=14)\n",
      "Message('control_change', channel=0, control=64, value=85, time=6)\n",
      "Message('control_change', channel=0, control=64, value=90, time=19)\n",
      "Message('control_change', channel=0, control=64, value=94, time=19)\n",
      "Message('control_change', channel=0, control=64, value=99, time=20)\n",
      "Message('control_change', channel=0, control=64, value=103, time=18)\n",
      "Message('note_on', channel=0, note=74, velocity=0, time=66)\n",
      "Message('note_on', channel=0, note=59, velocity=62, time=4)\n",
      "Message('note_on', channel=0, note=78, velocity=76, time=1)\n",
      "Message('control_change', channel=0, control=64, value=94, time=4)\n",
      "Message('control_change', channel=0, control=64, value=76, time=18)\n",
      "Message('control_change', channel=0, control=64, value=55, time=18)\n",
      "Message('control_change', channel=0, control=64, value=63, time=38)\n",
      "Message('control_change', channel=0, control=64, value=71, time=21)\n",
      "Message('control_change', channel=0, control=64, value=79, time=18)\n",
      "Message('control_change', channel=0, control=64, value=87, time=21)\n",
      "Message('control_change', channel=0, control=64, value=93, time=17)\n",
      "Message('note_on', channel=0, note=79, velocity=72, time=15)\n",
      "Message('note_on', channel=0, note=59, velocity=0, time=9)\n",
      "Message('control_change', channel=0, control=64, value=99, time=28)\n",
      "Message('note_on', channel=0, note=78, velocity=0, time=2)\n",
      "Message('control_change', channel=0, control=64, value=105, time=36)\n",
      "Message('control_change', channel=0, control=64, value=109, time=57)\n",
      "Message('note_on', channel=0, note=60, velocity=64, time=68)\n",
      "Message('note_on', channel=0, note=76, velocity=72, time=2)\n",
      "Message('control_change', channel=0, control=64, value=98, time=6)\n",
      "Message('note_on', channel=0, note=79, velocity=0, time=0)\n",
      "Message('control_change', channel=0, control=64, value=76, time=19)\n",
      "Message('control_change', channel=0, control=64, value=37, time=20)\n",
      "Message('control_change', channel=0, control=64, value=0, time=17)\n",
      "Message('control_change', channel=0, control=64, value=47, time=38)\n",
      "Message('control_change', channel=0, control=64, value=64, time=19)\n",
      "Message('control_change', channel=0, control=64, value=74, time=20)\n",
      "Message('control_change', channel=0, control=64, value=81, time=16)\n",
      "Message('control_change', channel=0, control=64, value=85, time=20)\n",
      "Message('note_on', channel=0, note=60, velocity=0, time=4)\n",
      "Message('note_on', channel=0, note=79, velocity=70, time=6)\n",
      "Message('note_on', channel=0, note=76, velocity=0, time=2)\n",
      "Message('control_change', channel=0, control=64, value=87, time=7)\n",
      "Message('control_change', channel=0, control=64, value=91, time=58)\n",
      "Message('control_change', channel=0, control=64, value=98, time=39)\n",
      "Message('control_change', channel=0, control=64, value=102, time=16)\n",
      "Message('note_on', channel=0, note=79, velocity=0, time=50)\n",
      "Message('note_on', channel=0, note=59, velocity=62, time=7)\n",
      "Message('note_on', channel=0, note=74, velocity=76, time=0)\n",
      "Message('control_change', channel=0, control=64, value=78, time=2)\n",
      "Message('control_change', channel=0, control=64, value=0, time=16)\n",
      "Message('control_change', channel=0, control=64, value=46, time=96)\n",
      "Message('control_change', channel=0, control=64, value=59, time=20)\n",
      "Message('control_change', channel=0, control=64, value=62, time=17)\n",
      "Message('note_on', channel=0, note=74, velocity=0, time=28)\n",
      "Message('note_on', channel=0, note=79, velocity=74, time=5)\n",
      "Message('control_change', channel=0, control=64, value=63, time=99)\n",
      "Message('control_change', channel=0, control=64, value=59, time=38)\n",
      "Message('note_on', channel=0, note=59, velocity=0, time=14)\n",
      "Message('control_change', channel=0, control=64, value=41, time=5)\n",
      "Message('note_on', channel=0, note=79, velocity=0, time=5)\n",
      "Message('control_change', channel=0, control=64, value=0, time=15)\n",
      "Message('note_on', channel=0, note=72, velocity=74, time=6)\n",
      "Message('note_on', channel=0, note=57, velocity=61, time=6)\n",
      "Message('note_on', channel=0, note=74, velocity=71, time=71)\n",
      "Message('note_on', channel=0, note=72, velocity=0, time=1)\n",
      "Message('note_on', channel=0, note=74, velocity=0, time=54)\n",
      "Message('note_on', channel=0, note=72, velocity=65, time=5)\n",
      "Message('note_on', channel=0, note=71, velocity=73, time=69)\n",
      "Message('note_on', channel=0, note=72, velocity=0, time=0)\n",
      "Message('note_on', channel=0, note=72, velocity=77, time=167)\n",
      "Message('note_on', channel=0, note=71, velocity=0, time=4)\n",
      "Message('note_on', channel=0, note=66, velocity=63, time=1)\n",
      "Message('note_on', channel=0, note=57, velocity=0, time=33)\n",
      "Message('note_on', channel=0, note=67, velocity=0, time=28)\n",
      "Message('control_change', channel=0, control=64, value=18, time=60)\n",
      "Message('control_change', channel=0, control=64, value=39, time=21)\n",
      "Message('control_change', channel=0, control=64, value=52, time=16)\n",
      "Message('note_on', channel=0, note=81, velocity=76, time=6)\n",
      "Message('control_change', channel=0, control=64, value=59, time=13)\n",
      "Message('note_on', channel=0, note=72, velocity=0, time=1)\n",
      "Message('control_change', channel=0, control=64, value=62, time=18)\n",
      "Message('control_change', channel=0, control=64, value=64, time=75)\n",
      "Message('control_change', channel=0, control=64, value=58, time=39)\n",
      "Message('control_change', channel=0, control=64, value=29, time=19)\n",
      "Message('note_on', channel=0, note=66, velocity=0, time=11)\n",
      "Message('note_on', channel=0, note=72, velocity=74, time=6)\n",
      "Message('control_change', channel=0, control=64, value=0, time=1)\n",
      "Message('note_on', channel=0, note=55, velocity=66, time=3)\n",
      "Message('note_on', channel=0, note=81, velocity=0, time=7)\n",
      "Message('control_change', channel=0, control=64, value=53, time=66)\n",
      "Message('control_change', channel=0, control=64, value=69, time=19)\n",
      "Message('control_change', channel=0, control=64, value=77, time=19)\n",
      "Message('control_change', channel=0, control=64, value=81, time=17)\n",
      "Message('note_on', channel=0, note=72, velocity=0, time=27)\n",
      "Message('control_change', channel=0, control=64, value=83, time=12)\n",
      "Message('note_on', channel=0, note=71, velocity=72, time=8)\n",
      "Message('control_change', channel=0, control=64, value=85, time=30)\n",
      "Message('control_change', channel=0, control=64, value=88, time=90)\n",
      "Message('control_change', channel=0, control=64, value=82, time=58)\n",
      "Message('note_on', channel=0, note=69, velocity=73, time=12)\n",
      "Message('note_on', channel=0, note=71, velocity=0, time=3)\n",
      "Message('control_change', channel=0, control=64, value=67, time=2)\n",
      "Message('note_on', channel=0, note=59, velocity=61, time=3)\n",
      "Message('control_change', channel=0, control=64, value=36, time=16)\n",
      "Message('control_change', channel=0, control=64, value=25, time=38)\n",
      "Message('note_on', channel=0, note=59, velocity=0, time=9)\n",
      "Message('control_change', channel=0, control=64, value=44, time=11)\n",
      "Message('control_change', channel=0, control=64, value=58, time=21)\n",
      "Message('control_change', channel=0, control=64, value=65, time=17)\n",
      "Message('control_change', channel=0, control=64, value=66, time=19)\n",
      "Message('note_on', channel=0, note=69, velocity=0, time=31)\n",
      "Message('note_on', channel=0, note=67, velocity=70, time=9)\n",
      "Message('control_change', channel=0, control=64, value=67, time=55)\n",
      "Message('control_change', channel=0, control=64, value=68, time=36)\n",
      "Message('control_change', channel=0, control=64, value=66, time=38)\n",
      "Message('control_change', channel=0, control=64, value=61, time=20)\n",
      "Message('note_on', channel=0, note=55, velocity=0, time=0)\n",
      "Message('control_change', channel=0, control=64, value=52, time=19)\n",
      "Message('note_on', channel=0, note=67, velocity=0, time=5)\n",
      "Message('note_on', channel=0, note=71, velocity=69, time=11)\n",
      "Message('control_change', channel=0, control=64, value=38, time=1)\n",
      "Message('note_on', channel=0, note=62, velocity=58, time=7)\n",
      "Message('control_change', channel=0, control=64, value=45, time=31)\n",
      "Message('control_change', channel=0, control=64, value=56, time=21)\n",
      "Message('control_change', channel=0, control=64, value=62, time=17)\n",
      "Message('control_change', channel=0, control=64, value=66, time=20)\n",
      "Message('note_on', channel=0, note=54, velocity=51, time=90)\n",
      "Message('note_on', channel=0, note=69, velocity=49, time=10)\n",
      "Message('note_on', channel=0, note=69, velocity=0, time=34)\n",
      "Message('note_on', channel=0, note=62, velocity=0, time=77)\n",
      "Message('note_on', channel=0, note=54, velocity=0, time=36)\n",
      "Message('control_change', channel=0, control=64, value=65, time=15)\n",
      "Message('note_on', channel=0, note=52, velocity=49, time=5)\n",
      "Message('note_on', channel=0, note=67, velocity=72, time=1)\n",
      "Message('control_change', channel=0, control=64, value=62, time=15)\n",
      "Message('control_change', channel=0, control=64, value=57, time=18)\n",
      "Message('note_on', channel=0, note=67, velocity=0, time=17)\n",
      "Message('control_change', channel=0, control=64, value=51, time=1)\n",
      "Message('note_on', channel=0, note=52, velocity=0, time=83)\n",
      "Message('note_on', channel=0, note=50, velocity=56, time=47)\n",
      "Message('note_on', channel=0, note=66, velocity=54, time=26)\n",
      "Message('control_change', channel=0, control=64, value=49, time=28)\n",
      "Message('note_on', channel=0, note=66, velocity=0, time=9)\n",
      "Message('control_change', channel=0, control=64, value=44, time=30)\n",
      "Message('control_change', channel=0, control=64, value=35, time=20)\n",
      "Message('control_change', channel=0, control=64, value=9, time=18)\n",
      "Message('control_change', channel=0, control=64, value=0, time=21)\n",
      "Message('note_on', channel=0, note=49, velocity=56, time=43)\n",
      "Message('note_on', channel=0, note=50, velocity=0, time=4)\n",
      "Message('note_on', channel=0, note=71, velocity=0, time=3)\n",
      "Message('note_on', channel=0, note=64, velocity=61, time=23)\n",
      "Message('control_change', channel=0, control=64, value=39, time=58)\n",
      "Message('control_change', channel=0, control=64, value=59, time=17)\n",
      "Message('control_change', channel=0, control=64, value=69, time=20)\n",
      "Message('control_change', channel=0, control=64, value=74, time=18)\n",
      "Message('control_change', channel=0, control=64, value=77, time=21)\n",
      "Message('note_on', channel=0, note=76, velocity=68, time=42)\n",
      "Message('control_change', channel=0, control=64, value=80, time=14)\n",
      "Message('control_change', channel=0, control=64, value=84, time=37)\n",
      "Message('control_change', channel=0, control=64, value=87, time=19)\n",
      "Message('control_change', channel=0, control=64, value=93, time=39)\n",
      "Message('control_change', channel=0, control=64, value=88, time=37)\n",
      "Message('note_on', channel=0, note=76, velocity=0, time=4)\n",
      "Message('note_on', channel=0, note=64, velocity=0, time=2)\n",
      "Message('control_change', channel=0, control=64, value=74, time=12)\n",
      "Message('note_on', channel=0, note=52, velocity=62, time=2)\n",
      "Message('note_on', channel=0, note=69, velocity=61, time=4)\n",
      "Message('control_change', channel=0, control=64, value=50, time=14)\n",
      "Message('control_change', channel=0, control=64, value=0, time=19)\n",
      "Message('note_on', channel=0, note=52, velocity=0, time=34)\n",
      "Message('control_change', channel=0, control=64, value=28, time=2)\n",
      "Message('control_change', channel=0, control=64, value=44, time=21)\n",
      "Message('control_change', channel=0, control=64, value=54, time=19)\n",
      "Message('control_change', channel=0, control=64, value=57, time=18)\n",
      "Message('note_on', channel=0, note=76, velocity=68, time=52)\n",
      "Message('note_on', channel=0, note=69, velocity=0, time=3)\n",
      "Message('control_change', channel=0, control=64, value=59, time=2)\n",
      "Message('control_change', channel=0, control=64, value=61, time=17)\n",
      "Message('control_change', channel=0, control=64, value=62, time=20)\n",
      "Message('control_change', channel=0, control=64, value=64, time=19)\n",
      "Message('control_change', channel=0, control=64, value=66, time=19)\n",
      "Message('control_change', channel=0, control=64, value=68, time=19)\n",
      "Message('control_change', channel=0, control=64, value=66, time=39)\n",
      "Message('control_change', channel=0, control=64, value=61, time=18)\n",
      "Message('control_change', channel=0, control=64, value=50, time=33)\n",
      "Message('note_on', channel=0, note=57, velocity=60, time=4)\n",
      "Message('note_on', channel=0, note=67, velocity=69, time=11)\n",
      "Message('control_change', channel=0, control=64, value=42, time=4)\n",
      "Message('control_change', channel=0, control=64, value=51, time=38)\n",
      "Message('note_on', channel=0, note=76, velocity=0, time=12)\n",
      "Message('control_change', channel=0, control=64, value=57, time=4)\n",
      "Message('note_on', channel=0, note=49, velocity=0, time=12)\n",
      "Message('control_change', channel=0, control=64, value=61, time=8)\n",
      "Message('control_change', channel=0, control=64, value=63, time=21)\n",
      "Message('note_on', channel=0, note=67, velocity=0, time=53)\n",
      "Message('control_change', channel=0, control=64, value=64, time=3)\n",
      "Message('note_on', channel=0, note=66, velocity=64, time=6)\n",
      "Message('control_change', channel=0, control=64, value=65, time=52)\n",
      "Message('control_change', channel=0, control=64, value=66, time=17)\n",
      "Message('control_change', channel=0, control=64, value=62, time=76)\n",
      "Message('control_change', channel=0, control=64, value=53, time=19)\n",
      "Message('note_on', channel=0, note=49, velocity=67, time=15)\n",
      "Message('note_on', channel=0, note=66, velocity=0, time=0)\n",
      "Message('control_change', channel=0, control=64, value=44, time=4)\n",
      "Message('note_on', channel=0, note=67, velocity=70, time=2)\n",
      "Message('control_change', channel=0, control=64, value=53, time=55)\n",
      "Message('control_change', channel=0, control=64, value=61, time=20)\n",
      "Message('control_change', channel=0, control=64, value=63, time=19)\n",
      "Message('note_on', channel=0, note=49, velocity=0, time=5)\n",
      "Message('control_change', channel=0, control=64, value=64, time=12)\n",
      "Message('control_change', channel=0, control=64, value=65, time=58)\n",
      "Message('note_on', channel=0, note=76, velocity=70, time=5)\n",
      "Message('note_on', channel=0, note=67, velocity=0, time=4)\n",
      "Message('control_change', channel=0, control=64, value=66, time=85)\n",
      "Message('control_change', channel=0, control=64, value=68, time=38)\n",
      "Message('control_change', channel=0, control=64, value=65, time=38)\n",
      "Message('control_change', channel=0, control=64, value=55, time=17)\n",
      "Message('note_on', channel=0, note=50, velocity=61, time=4)\n",
      "Message('control_change', channel=0, control=64, value=25, time=16)\n",
      "Message('note_on', channel=0, note=67, velocity=71, time=2)\n",
      "Message('note_on', channel=0, note=76, velocity=0, time=11)\n",
      "Message('control_change', channel=0, control=64, value=0, time=5)\n",
      "Message('control_change', channel=0, control=64, value=11, time=57)\n",
      "Message('control_change', channel=0, control=64, value=25, time=19)\n",
      "Message('control_change', channel=0, control=64, value=34, time=19)\n",
      "Message('note_on', channel=0, note=67, velocity=0, time=45)\n",
      "Message('note_on', channel=0, note=66, velocity=73, time=7)\n",
      "Message('note_on', channel=0, note=54, velocity=63, time=193)\n",
      "Message('note_on', channel=0, note=64, velocity=73, time=10)\n",
      "Message('note_on', channel=0, note=57, velocity=0, time=51)\n",
      "Message('note_on', channel=0, note=66, velocity=0, time=16)\n",
      "Message('control_change', channel=0, control=67, value=91, time=90)\n",
      "Message('note_on', channel=0, note=64, velocity=0, time=6)\n",
      "Message('note_on', channel=0, note=62, velocity=69, time=6)\n",
      "Message('control_change', channel=0, control=64, value=30, time=25)\n",
      "Message('control_change', channel=0, control=64, value=25, time=76)\n",
      "Message('control_change', channel=0, control=67, value=87, time=0)\n",
      "Message('note_on', channel=0, note=54, velocity=0, time=0)\n",
      "Message('control_change', channel=0, control=64, value=0, time=22)\n",
      "Message('note_on', channel=0, note=64, velocity=73, time=75)\n",
      "Message('note_on', channel=0, note=57, velocity=56, time=18)\n",
      "Message('note_on', channel=0, note=62, velocity=0, time=8)\n",
      "Message('note_on', channel=0, note=50, velocity=0, time=2)\n",
      "Message('control_change', channel=0, control=64, value=23, time=27)\n",
      "Message('control_change', channel=0, control=64, value=40, time=20)\n",
      "Message('control_change', channel=0, control=64, value=48, time=18)\n",
      "Message('control_change', channel=0, control=64, value=53, time=21)\n",
      "Message('control_change', channel=0, control=64, value=57, time=17)\n",
      "Message('control_change', channel=0, control=64, value=60, time=21)\n",
      "Message('control_change', channel=0, control=64, value=61, time=18)\n",
      "Message('note_on', channel=0, note=66, velocity=72, time=5)\n",
      "Message('note_on', channel=0, note=64, velocity=0, time=47)\n",
      "Message('control_change', channel=0, control=64, value=63, time=4)\n",
      "Message('control_change', channel=0, control=64, value=65, time=19)\n",
      "Message('control_change', channel=0, control=64, value=66, time=21)\n",
      "Message('control_change', channel=0, control=64, value=67, time=34)\n",
      "Message('control_change', channel=0, control=64, value=65, time=39)\n",
      "Message('control_change', channel=0, control=64, value=54, time=19)\n",
      "Message('note_on', channel=0, note=67, velocity=74, time=0)\n",
      "Message('note_on', channel=0, note=48, velocity=58, time=3)\n",
      "Message('control_change', channel=0, control=64, value=26, time=17)\n",
      "Message('note_on', channel=0, note=66, velocity=0, time=13)\n",
      "Message('control_change', channel=0, control=64, value=0, time=4)\n",
      "Message('control_change', channel=0, control=64, value=31, time=21)\n",
      "Message('control_change', channel=0, control=64, value=56, time=32)\n",
      "Message('control_change', channel=0, control=64, value=71, time=20)\n",
      "Message('note_on', channel=0, note=48, velocity=0, time=17)\n",
      "Message('control_change', channel=0, control=64, value=80, time=1)\n",
      "Message('control_change', channel=0, control=64, value=85, time=20)\n",
      "Message('note_on', channel=0, note=66, velocity=73, time=50)\n",
      "Message('note_on', channel=0, note=67, velocity=0, time=13)\n",
      "Message('control_change', channel=0, control=64, value=88, time=88)\n",
      "Message('control_change', channel=0, control=64, value=96, time=37)\n",
      "Message('note_on', channel=0, note=66, velocity=0, time=16)\n",
      "Message('control_change', channel=0, control=64, value=102, time=4)\n",
      "Message('note_on', channel=0, note=67, velocity=71, time=16)\n",
      "Message('note_on', channel=0, note=47, velocity=59, time=16)\n",
      "Message('control_change', channel=0, control=64, value=88, time=5)\n",
      "Message('note_on', channel=0, note=50, velocity=55, time=3)\n",
      "Message('control_change', channel=0, control=64, value=58, time=15)\n",
      "Message('control_change', channel=0, control=64, value=0, time=19)\n",
      "Message('note_on', channel=0, note=57, velocity=0, time=0)\n",
      "Message('note_on', channel=0, note=67, velocity=0, time=23)\n",
      "Message('note_on', channel=0, note=69, velocity=72, time=11)\n",
      "Message('note_on', channel=0, note=67, velocity=70, time=81)\n",
      "Message('note_on', channel=0, note=69, velocity=0, time=1)\n",
      "Message('note_on', channel=0, note=67, velocity=0, time=62)\n",
      "Message('note_on', channel=0, note=66, velocity=75, time=28)\n",
      "Message('note_on', channel=0, note=66, velocity=0, time=74)\n",
      "Message('note_on', channel=0, note=55, velocity=59, time=30)\n",
      "Message('note_on', channel=0, note=67, velocity=71, time=0)\n",
      "Message('note_on', channel=0, note=47, velocity=0, time=56)\n",
      "Message('control_change', channel=0, control=64, value=29, time=87)\n",
      "Message('control_change', channel=0, control=64, value=52, time=20)\n",
      "Message('note_on', channel=0, note=67, velocity=0, time=10)\n",
      "Message('note_on', channel=0, note=69, velocity=70, time=0)\n",
      "Message('control_change', channel=0, control=64, value=64, time=9)\n",
      "Message('control_change', channel=0, control=64, value=74, time=18)\n",
      "Message('note_on', channel=0, note=69, velocity=0, time=4)\n",
      "Message('control_change', channel=0, control=64, value=84, time=16)\n",
      "Message('control_change', channel=0, control=64, value=97, time=18)\n",
      "Message('control_change', channel=0, control=64, value=109, time=21)\n",
      "Message('control_change', channel=0, control=64, value=117, time=18)\n",
      "Message('control_change', channel=0, control=64, value=122, time=32)\n",
      "Message('control_change', channel=0, control=64, value=127, time=39)\n",
      "Message('note_on', channel=0, note=71, velocity=67, time=25)\n",
      "Message('note_on', channel=0, note=45, velocity=62, time=12)\n",
      "Message('control_change', channel=0, control=64, value=123, time=18)\n",
      "Message('note_on', channel=0, note=50, velocity=0, time=8)\n",
      "Message('control_change', channel=0, control=64, value=98, time=11)\n",
      "Message('note_on', channel=0, note=71, velocity=0, time=1)\n",
      "Message('note_on', channel=0, note=69, velocity=76, time=8)\n",
      "Message('control_change', channel=0, control=64, value=65, time=11)\n",
      "Message('control_change', channel=0, control=64, value=0, time=19)\n",
      "Message('note_on', channel=0, note=69, velocity=0, time=21)\n",
      "Message('note_on', channel=0, note=71, velocity=61, time=8)\n",
      "Message('note_on', channel=0, note=69, velocity=66, time=53)\n",
      "Message('note_on', channel=0, note=71, velocity=0, time=7)\n",
      "Message('note_on', channel=0, note=69, velocity=0, time=121)\n",
      "Message('note_on', channel=0, note=69, velocity=35, time=0)\n",
      "Message('note_on', channel=0, note=55, velocity=0, time=65)\n",
      "Message('note_on', channel=0, note=54, velocity=51, time=21)\n",
      "Message('note_on', channel=0, note=69, velocity=0, time=138)\n",
      "Message('note_on', channel=0, note=67, velocity=59, time=22)\n",
      "Message('note_on', channel=0, note=67, velocity=0, time=63)\n",
      "Message('note_on', channel=0, note=69, velocity=75, time=31)\n",
      "Message('note_on', channel=0, note=69, velocity=0, time=81)\n",
      "Message('note_on', channel=0, note=54, velocity=0, time=5)\n",
      "Message('note_on', channel=0, note=71, velocity=60, time=21)\n",
      "Message('note_on', channel=0, note=55, velocity=43, time=10)\n",
      "Message('note_on', channel=0, note=45, velocity=0, time=3)\n",
      "Message('note_on', channel=0, note=43, velocity=56, time=191)\n",
      "Message('note_on', channel=0, note=43, velocity=0, time=158)\n",
      "Message('note_on', channel=0, note=47, velocity=55, time=4)\n",
      "Message('note_on', channel=0, note=55, velocity=0, time=24)\n",
      "Message('note_on', channel=0, note=50, velocity=53, time=162)\n",
      "Message('note_on', channel=0, note=47, velocity=0, time=7)\n",
      "Message('note_on', channel=0, note=50, velocity=0, time=140)\n",
      "Message('note_on', channel=0, note=55, velocity=50, time=35)\n",
      "Message('note_on', channel=0, note=71, velocity=0, time=1)\n",
      "Message('control_change', channel=0, control=64, value=42, time=36)\n",
      "Message('control_change', channel=0, control=64, value=58, time=19)\n",
      "Message('control_change', channel=0, control=64, value=66, time=19)\n",
      "Message('control_change', channel=0, control=64, value=68, time=19)\n",
      "Message('control_change', channel=0, control=64, value=70, time=55)\n",
      "Message('note_on', channel=0, note=71, velocity=67, time=22)\n",
      "Message('control_change', channel=0, control=64, value=72, time=17)\n",
      "Message('control_change', channel=0, control=64, value=74, time=37)\n",
      "Message('note_on', channel=0, note=71, velocity=0, time=105)\n",
      "Message('note_on', channel=0, note=76, velocity=70, time=25)\n",
      "Message('note_on', channel=0, note=57, velocity=44, time=28)\n",
      "Message('control_change', channel=0, control=64, value=69, time=9)\n",
      "Message('control_change', channel=0, control=64, value=63, time=19)\n",
      "Message('control_change', channel=0, control=64, value=62, time=19)\n",
      "Message('control_change', channel=0, control=64, value=63, time=19)\n",
      "Message('control_change', channel=0, control=64, value=65, time=17)\n",
      "Message('control_change', channel=0, control=64, value=66, time=20)\n",
      "Message('note_on', channel=0, note=57, velocity=0, time=42)\n",
      "Message('note_on', channel=0, note=59, velocity=55, time=3)\n",
      "Message('note_on', channel=0, note=75, velocity=75, time=2)\n",
      "Message('note_on', channel=0, note=76, velocity=0, time=27)\n",
      "Message('note_on', channel=0, note=55, velocity=0, time=16)\n",
      "Message('control_change', channel=0, control=64, value=67, time=2)\n",
      "Message('control_change', channel=0, control=64, value=66, time=79)\n",
      "Message('control_change', channel=0, control=64, value=57, time=18)\n",
      "Message('control_change', channel=0, control=64, value=0, time=16)\n",
      "Message('note_on', channel=0, note=75, velocity=0, time=6)\n",
      "Message('note_on', channel=0, note=60, velocity=63, time=11)\n",
      "Message('note_on', channel=0, note=76, velocity=73, time=14)\n",
      "Message('note_on', channel=0, note=59, velocity=0, time=20)\n",
      "Message('control_change', channel=0, control=64, value=50, time=48)\n",
      "Message('control_change', channel=0, control=64, value=65, time=18)\n",
      "Message('note_on', channel=0, note=76, velocity=0, time=4)\n",
      "Message('note_on', channel=0, note=78, velocity=69, time=4)\n",
      "Message('control_change', channel=0, control=64, value=73, time=11)\n",
      "Message('note_on', channel=0, note=60, velocity=0, time=11)\n",
      "Message('control_change', channel=0, control=64, value=78, time=4)\n",
      "Message('control_change', channel=0, control=64, value=81, time=21)\n",
      "Message('note_on', channel=0, note=76, velocity=70, time=16)\n",
      "Message('note_on', channel=0, note=78, velocity=0, time=38)\n",
      "Message('note_on', channel=0, note=75, velocity=80, time=62)\n",
      "Message('note_on', channel=0, note=76, velocity=0, time=8)\n",
      "Message('control_change', channel=0, control=64, value=70, time=67)\n",
      "Message('note_on', channel=0, note=75, velocity=0, time=8)\n",
      "Message('note_on', channel=0, note=55, velocity=62, time=6)\n",
      "Message('note_on', channel=0, note=64, velocity=44, time=0)\n",
      "Message('control_change', channel=0, control=64, value=25, time=5)\n",
      "Message('note_on', channel=0, note=76, velocity=82, time=5)\n",
      "Message('note_on', channel=0, note=65, velocity=51, time=8)\n",
      "Message('control_change', channel=0, control=64, value=0, time=3)\n",
      "Message('control_change', channel=0, control=67, value=82, time=1)\n",
      "Message('note_on', channel=0, note=65, velocity=0, time=29)\n",
      "Message('control_change', channel=0, control=67, value=74, time=7)\n",
      "Message('control_change', channel=0, control=67, value=68, time=21)\n",
      "Message('control_change', channel=0, control=67, value=64, time=36)\n",
      "Message('control_change', channel=0, control=64, value=34, time=39)\n",
      "Message('control_change', channel=0, control=64, value=51, time=19)\n",
      "Message('note_on', channel=0, note=76, velocity=0, time=10)\n",
      "Message('note_on', channel=0, note=78, velocity=80, time=7)\n",
      "Message('control_change', channel=0, control=64, value=59, time=2)\n",
      "Message('control_change', channel=0, control=67, value=55, time=2)\n",
      "Message('control_change', channel=0, control=64, value=64, time=18)\n",
      "Message('control_change', channel=0, control=67, value=50, time=2)\n",
      "Message('control_change', channel=0, control=64, value=68, time=16)\n",
      "Message('control_change', channel=0, control=67, value=46, time=20)\n",
      "Message('control_change', channel=0, control=64, value=70, time=32)\n",
      "Message('control_change', channel=0, control=64, value=74, time=58)\n",
      "Message('control_change', channel=0, control=64, value=78, time=17)\n",
      "Message('note_on', channel=0, note=78, velocity=0, time=13)\n",
      "Message('control_change', channel=0, control=64, value=86, time=6)\n",
      "Message('note_on', channel=0, note=55, velocity=0, time=4)\n",
      "Message('note_on', channel=0, note=79, velocity=79, time=5)\n",
      "Message('control_change', channel=0, control=64, value=98, time=9)\n",
      "Message('note_on', channel=0, note=57, velocity=68, time=3)\n",
      "Message('control_change', channel=0, control=64, value=105, time=18)\n",
      "Message('control_change', channel=0, control=64, value=96, time=16)\n",
      "Message('control_change', channel=0, control=67, value=41, time=2)\n",
      "Message('control_change', channel=0, control=64, value=69, time=20)\n",
      "Message('note_on', channel=0, note=79, velocity=0, time=4)\n",
      "Message('note_on', channel=0, note=78, velocity=79, time=1)\n",
      "Message('control_change', channel=0, control=64, value=0, time=11)\n",
      "Message('note_on', channel=0, note=78, velocity=0, time=58)\n",
      "Message('note_on', channel=0, note=79, velocity=75, time=6)\n",
      "Message('note_on', channel=0, note=78, velocity=77, time=50)\n",
      "Message('note_on', channel=0, note=79, velocity=0, time=3)\n",
      "Message('note_on', channel=0, note=57, velocity=0, time=147)\n",
      "Message('note_on', channel=0, note=59, velocity=46, time=33)\n",
      "Message('control_change', channel=0, control=64, value=39, time=7)\n",
      "Message('note_on', channel=0, note=64, velocity=0, time=2)\n",
      "Message('note_on', channel=0, note=63, velocity=54, time=12)\n",
      "Message('control_change', channel=0, control=64, value=66, time=4)\n",
      "Message('control_change', channel=0, control=64, value=78, time=21)\n",
      "Message('control_change', channel=0, control=64, value=88, time=17)\n",
      "Message('control_change', channel=0, control=64, value=96, time=20)\n",
      "Message('note_on', channel=0, note=78, velocity=0, time=3)\n",
      "Message('control_change', channel=0, control=64, value=104, time=15)\n",
      "Message('control_change', channel=0, control=64, value=111, time=19)\n",
      "Message('control_change', channel=0, control=64, value=117, time=20)\n",
      "Message('note_on', channel=0, note=76, velocity=69, time=67)\n",
      "Message('note_on', channel=0, note=78, velocity=67, time=62)\n",
      "Message('note_on', channel=0, note=76, velocity=0, time=13)\n",
      "Message('control_change', channel=0, control=64, value=107, time=7)\n",
      "Message('control_change', channel=0, control=67, value=45, time=1)\n",
      "Message('control_change', channel=0, control=64, value=95, time=18)\n",
      "Message('control_change', channel=0, control=64, value=82, time=21)\n",
      "Message('note_on', channel=0, note=78, velocity=0, time=15)\n",
      "Message('control_change', channel=0, control=64, value=69, time=2)\n",
      "Message('note_on', channel=0, note=59, velocity=0, time=6)\n",
      "Message('note_on', channel=0, note=79, velocity=69, time=4)\n",
      "Message('control_change', channel=0, control=64, value=57, time=11)\n",
      "Message('note_on', channel=0, note=63, velocity=0, time=5)\n",
      "Message('note_on', channel=0, note=64, velocity=54, time=7)\n",
      "Message('control_change', channel=0, control=64, value=52, time=5)\n",
      "Message('control_change', channel=0, control=64, value=49, time=91)\n",
      "Message('control_change', channel=0, control=64, value=46, time=19)\n",
      "Message('note_on', channel=0, note=59, velocity=54, time=77)\n",
      "Message('control_change', channel=0, control=64, value=44, time=37)\n",
      "Message('note_on', channel=0, note=59, velocity=0, time=122)\n",
      "Message('note_on', channel=0, note=55, velocity=50, time=8)\n",
      "Message('note_on', channel=0, note=55, velocity=0, time=143)\n",
      "Message('note_on', channel=0, note=59, velocity=51, time=28)\n",
      "Message('control_change', channel=0, control=64, value=40, time=112)\n",
      "Message('control_change', channel=0, control=64, value=0, time=21)\n",
      "Message('note_on', channel=0, note=59, velocity=0, time=51)\n",
      "Message('note_on', channel=0, note=52, velocity=33, time=28)\n",
      "Message('control_change', channel=0, control=64, value=23, time=33)\n",
      "Message('control_change', channel=0, control=64, value=48, time=20)\n",
      "Message('control_change', channel=0, control=64, value=60, time=19)\n",
      "Message('control_change', channel=0, control=64, value=66, time=18)\n",
      "Message('control_change', channel=0, control=64, value=68, time=20)\n",
      "Message('note_on', channel=0, note=78, velocity=67, time=47)\n",
      "Message('control_change', channel=0, control=64, value=71, time=7)\n",
      "Message('control_change', channel=0, control=64, value=74, time=40)\n",
      "Message('note_on', channel=0, note=79, velocity=0, time=10)\n",
      "Message('control_change', channel=0, control=64, value=76, time=8)\n",
      "Message('control_change', channel=0, control=64, value=78, time=20)\n",
      "Message('control_change', channel=0, control=64, value=80, time=19)\n",
      "Message('note_on', channel=0, note=52, velocity=0, time=5)\n",
      "Message('control_change', channel=0, control=64, value=82, time=14)\n",
      "Message('control_change', channel=0, control=64, value=84, time=34)\n",
      "Message('note_on', channel=0, note=64, velocity=0, time=23)\n",
      "Message('note_on', channel=0, note=76, velocity=70, time=31)\n",
      "Message('note_on', channel=0, note=78, velocity=0, time=2)\n",
      "Message('control_change', channel=0, control=64, value=75, time=1)\n",
      "Message('note_on', channel=0, note=55, velocity=52, time=1)\n",
      "Message('control_change', channel=0, control=64, value=51, time=16)\n",
      "Message('control_change', channel=0, control=64, value=0, time=20)\n",
      "Message('control_change', channel=0, control=64, value=23, time=73)\n",
      "Message('control_change', channel=0, control=64, value=43, time=20)\n",
      "Message('control_change', channel=0, control=64, value=50, time=19)\n",
      "Message('note_on', channel=0, note=76, velocity=0, time=9)\n",
      "Message('control_change', channel=0, control=64, value=54, time=10)\n",
      "Message('note_on', channel=0, note=74, velocity=74, time=9)\n",
      "Message('control_change', channel=0, control=64, value=59, time=9)\n",
      "Message('control_change', channel=0, control=64, value=63, time=20)\n",
      "Message('control_change', channel=0, control=64, value=66, time=21)\n",
      "Message('control_change', channel=0, control=64, value=68, time=15)\n",
      "Message('control_change', channel=0, control=64, value=70, time=40)\n",
      "Message('note_on', channel=0, note=55, velocity=0, time=70)\n",
      "Message('control_change', channel=0, control=64, value=62, time=4)\n",
      "Message('note_on', channel=0, note=74, velocity=0, time=3)\n",
      "Message('note_on', channel=0, note=57, velocity=65, time=3)\n",
      "Message('note_on', channel=0, note=73, velocity=73, time=1)\n",
      "Message('control_change', channel=0, control=64, value=22, time=12)\n",
      "Message('control_change', channel=0, control=64, value=0, time=19)\n",
      "Message('control_change', channel=0, control=64, value=44, time=78)\n",
      "Message('control_change', channel=0, control=64, value=61, time=16)\n",
      "Message('control_change', channel=0, control=64, value=67, time=21)\n",
      "Message('note_on', channel=0, note=76, velocity=67, time=34)\n",
      "Message('note_on', channel=0, note=73, velocity=0, time=9)\n",
      "Message('control_change', channel=0, control=64, value=68, time=11)\n",
      "Message('control_change', channel=0, control=64, value=70, time=58)\n",
      "Message('control_change', channel=0, control=64, value=72, time=39)\n",
      "Message('control_change', channel=0, control=64, value=69, time=55)\n",
      "Message('note_on', channel=0, note=71, velocity=64, time=8)\n",
      "Message('note_on', channel=0, note=76, velocity=0, time=1)\n",
      "Message('note_on', channel=0, note=59, velocity=63, time=2)\n",
      "Message('control_change', channel=0, control=64, value=59, time=8)\n",
      "Message('control_change', channel=0, control=64, value=25, time=18)\n",
      "Message('control_change', channel=0, control=64, value=0, time=20)\n",
      "Message('control_change', channel=0, control=64, value=37, time=37)\n",
      "Message('control_change', channel=0, control=64, value=56, time=18)\n",
      "Message('control_change', channel=0, control=64, value=66, time=21)\n",
      "Message('note_on', channel=0, note=59, velocity=0, time=4)\n",
      "Message('control_change', channel=0, control=64, value=69, time=14)\n",
      "Message('note_on', channel=0, note=76, velocity=62, time=45)\n",
      "Message('note_on', channel=0, note=71, velocity=0, time=50)\n",
      "Message('control_change', channel=0, control=64, value=68, time=34)\n",
      "Message('control_change', channel=0, control=64, value=66, time=18)\n",
      "Message('control_change', channel=0, control=64, value=59, time=21)\n",
      "Message('control_change', channel=0, control=64, value=46, time=16)\n",
      "Message('note_on', channel=0, note=76, velocity=0, time=2)\n",
      "Message('control_change', channel=0, control=64, value=33, time=19)\n",
      "Message('note_on', channel=0, note=61, velocity=63, time=32)\n",
      "Message('note_on', channel=0, note=69, velocity=70, time=1)\n",
      "Message('control_change', channel=0, control=64, value=39, time=4)\n",
      "Message('control_change', channel=0, control=64, value=46, time=19)\n",
      "Message('control_change', channel=0, control=64, value=52, time=19)\n",
      "Message('control_change', channel=0, control=64, value=57, time=20)\n",
      "Message('control_change', channel=0, control=64, value=60, time=19)\n",
      "Message('note_on', channel=0, note=57, velocity=0, time=4)\n",
      "Message('control_change', channel=0, control=64, value=62, time=13)\n",
      "Message('control_change', channel=0, control=64, value=65, time=19)\n",
      "Message('control_change', channel=0, control=64, value=67, time=20)\n",
      "Message('control_change', channel=0, control=64, value=68, time=19)\n",
      "Message('note_on', channel=0, note=79, velocity=74, time=13)\n",
      "Message('control_change', channel=0, control=64, value=70, time=22)\n",
      "Message('control_change', channel=0, control=64, value=72, time=59)\n",
      "Message('control_change', channel=0, control=64, value=69, time=56)\n",
      "Message('control_change', channel=0, control=64, value=60, time=20)\n",
      "Message('note_on', channel=0, note=57, velocity=65, time=15)\n",
      "Message('control_change', channel=0, control=64, value=39, time=1)\n",
      "Message('note_on', channel=0, note=78, velocity=79, time=4)\n",
      "Message('control_change', channel=0, control=64, value=22, time=17)\n",
      "Message('note_on', channel=0, note=79, velocity=0, time=5)\n",
      "Message('note_on', channel=0, note=69, velocity=0, time=2)\n",
      "Message('control_change', channel=0, control=64, value=31, time=12)\n",
      "Message('control_change', channel=0, control=64, value=52, time=20)\n",
      "Message('control_change', channel=0, control=64, value=68, time=16)\n",
      "Message('note_on', channel=0, note=57, velocity=0, time=10)\n",
      "Message('control_change', channel=0, control=64, value=79, time=10)\n",
      "Message('control_change', channel=0, control=64, value=89, time=19)\n",
      "Message('control_change', channel=0, control=64, value=96, time=19)\n",
      "Message('control_change', channel=0, control=64, value=101, time=18)\n",
      "Message('note_on', channel=0, note=76, velocity=80, time=29)\n",
      "Message('control_change', channel=0, control=64, value=106, time=10)\n",
      "Message('note_on', channel=0, note=78, velocity=0, time=26)\n",
      "Message('note_on', channel=0, note=61, velocity=0, time=158)\n",
      "Message('control_change', channel=0, control=64, value=98, time=4)\n",
      "Message('note_on', channel=0, note=62, velocity=67, time=2)\n",
      "Message('note_on', channel=0, note=78, velocity=77, time=1)\n",
      "Message('control_change', channel=0, control=64, value=81, time=33)\n",
      "Message('note_on', channel=0, note=50, velocity=59, time=0)\n",
      "Message('note_on', channel=0, note=76, velocity=0, time=3)\n",
      "Message('control_change', channel=0, control=64, value=52, time=14)\n",
      "Message('control_change', channel=0, control=64, value=0, time=19)\n",
      "Message('control_change', channel=0, control=64, value=15, time=96)\n",
      "Message('control_change', channel=0, control=64, value=23, time=16)\n",
      "Message('note_on', channel=0, note=81, velocity=64, time=20)\n",
      "Message('note_on', channel=0, note=78, velocity=0, time=54)\n",
      "Message('note_on', channel=0, note=50, velocity=0, time=132)\n",
      "Message('control_change', channel=0, control=64, value=28, time=6)\n",
      "Message('note_on', channel=0, note=52, velocity=58, time=2)\n",
      "Message('note_on', channel=0, note=81, velocity=0, time=5)\n",
      "Message('note_on', channel=0, note=76, velocity=64, time=1)\n",
      "Message('control_change', channel=0, control=64, value=37, time=8)\n",
      "Message('control_change', channel=0, control=64, value=46, time=17)\n",
      "Message('control_change', channel=0, control=64, value=53, time=19)\n",
      "Message('control_change', channel=0, control=64, value=57, time=20)\n",
      "Message('note_on', channel=0, note=52, velocity=0, time=35)\n",
      "Message('control_change', channel=0, control=64, value=59, time=3)\n",
      "Message('control_change', channel=0, control=64, value=60, time=38)\n",
      "Message('control_change', channel=0, control=64, value=61, time=21)\n",
      "Message('control_change', channel=0, control=64, value=62, time=15)\n",
      "Message('note_on', channel=0, note=81, velocity=50, time=2)\n",
      "Message('control_change', channel=0, control=64, value=63, time=19)\n",
      "Message('note_on', channel=0, note=76, velocity=0, time=7)\n",
      "Message('control_change', channel=0, control=64, value=65, time=12)\n",
      "Message('control_change', channel=0, control=64, value=66, time=35)\n",
      "Message('control_change', channel=0, control=64, value=63, time=58)\n",
      "Message('control_change', channel=0, control=64, value=58, time=19)\n",
      "Message('control_change', channel=0, control=64, value=55, time=20)\n",
      "Message('note_on', channel=0, note=81, velocity=0, time=16)\n",
      "Message('note_on', channel=0, note=54, velocity=46, time=4)\n",
      "Message('note_on', channel=0, note=74, velocity=55, time=4)\n",
      "Message('control_change', channel=0, control=64, value=58, time=13)\n",
      "Message('control_change', channel=0, control=64, value=61, time=18)\n",
      "Message('control_change', channel=0, control=64, value=65, time=19)\n",
      "Message('control_change', channel=0, control=64, value=66, time=20)\n",
      "Message('note_on', channel=0, note=54, velocity=0, time=34)\n",
      "Message('control_change', channel=0, control=67, value=49, time=4)\n",
      "Message('control_change', channel=0, control=64, value=67, time=17)\n",
      "Message('note_on', channel=0, note=72, velocity=67, time=43)\n",
      "Message('note_on', channel=0, note=74, velocity=0, time=14)\n",
      "Message('control_change', channel=0, control=64, value=69, time=54)\n",
      "Message('control_change', channel=0, control=64, value=71, time=39)\n",
      "Message('control_change', channel=0, control=64, value=65, time=55)\n",
      "Message('control_change', channel=0, control=64, value=51, time=21)\n",
      "Message('note_on', channel=0, note=71, velocity=68, time=14)\n",
      "Message('control_change', channel=0, control=64, value=0, time=1)\n",
      "Message('note_on', channel=0, note=50, velocity=59, time=10)\n",
      "Message('note_on', channel=0, note=72, velocity=0, time=21)\n",
      "Message('control_change', channel=0, control=64, value=11, time=28)\n",
      "Message('control_change', channel=0, control=64, value=44, time=19)\n",
      "Message('control_change', channel=0, control=64, value=57, time=19)\n",
      "Message('note_on', channel=0, note=50, velocity=0, time=13)\n",
      "Message('control_change', channel=0, control=64, value=60, time=5)\n",
      "Message('note_on', channel=0, note=69, velocity=69, time=68)\n",
      "Message('note_on', channel=0, note=71, velocity=0, time=22)\n",
      "Message('control_change', channel=0, control=64, value=61, time=5)\n",
      "Message('control_change', channel=0, control=64, value=62, time=37)\n",
      "Message('control_change', channel=0, control=64, value=65, time=38)\n",
      "Message('control_change', channel=0, control=64, value=66, time=20)\n",
      "Message('control_change', channel=0, control=64, value=65, time=57)\n",
      "Message('note_on', channel=0, note=71, velocity=67, time=17)\n",
      "Message('control_change', channel=0, control=64, value=59, time=1)\n",
      "Message('note_on', channel=0, note=55, velocity=48, time=2)\n",
      "Message('note_on', channel=0, note=69, velocity=0, time=15)\n",
      "Message('control_change', channel=0, control=64, value=44, time=1)\n",
      "Message('control_change', channel=0, control=64, value=0, time=20)\n",
      "Message('control_change', channel=0, control=64, value=31, time=55)\n",
      "Message('control_change', channel=0, control=64, value=47, time=18)\n",
      "Message('control_change', channel=0, control=64, value=57, time=21)\n",
      "Message('control_change', channel=0, control=64, value=60, time=18)\n",
      "Message('note_on', channel=0, note=74, velocity=54, time=18)\n",
      "Message('control_change', channel=0, control=64, value=61, time=1)\n",
      "Message('note_on', channel=0, note=71, velocity=0, time=5)\n",
      "Message('control_change', channel=0, control=64, value=63, time=34)\n",
      "Message('control_change', channel=0, control=64, value=64, time=19)\n",
      "Message('control_change', channel=0, control=64, value=66, time=36)\n",
      "Message('control_change', channel=0, control=64, value=67, time=38)\n",
      "Message('note_on', channel=0, note=74, velocity=0, time=27)\n",
      "Message('control_change', channel=0, control=64, value=62, time=10)\n",
      "Message('note_on', channel=0, note=69, velocity=59, time=8)\n",
      "Message('control_change', channel=0, control=64, value=56, time=13)\n",
      "Message('note_on', channel=0, note=60, velocity=55, time=8)\n",
      "Message('control_change', channel=0, control=64, value=54, time=9)\n",
      "Message('control_change', channel=0, control=64, value=57, time=20)\n",
      "Message('control_change', channel=0, control=64, value=61, time=37)\n",
      "Message('control_change', channel=0, control=64, value=66, time=17)\n",
      "Message('control_change', channel=0, control=64, value=68, time=18)\n",
      "Message('note_on', channel=0, note=62, velocity=0, time=0)\n",
      "Message('note_on', channel=0, note=74, velocity=56, time=60)\n",
      "Message('control_change', channel=0, control=64, value=70, time=15)\n",
      "Message('note_on', channel=0, note=69, velocity=0, time=5)\n",
      "Message('note_on', channel=0, note=60, velocity=0, time=17)\n",
      "Message('control_change', channel=0, control=64, value=72, time=34)\n",
      "Message('control_change', channel=0, control=64, value=75, time=58)\n",
      "Message('control_change', channel=0, control=64, value=67, time=58)\n",
      "Message('note_on', channel=0, note=74, velocity=0, time=6)\n",
      "Message('control_change', channel=0, control=64, value=52, time=11)\n",
      "Message('note_on', channel=0, note=67, velocity=63, time=0)\n",
      "Message('note_on', channel=0, note=59, velocity=53, time=8)\n",
      "Message('control_change', channel=0, control=64, value=18, time=10)\n",
      "Message('control_change', channel=0, control=64, value=42, time=39)\n",
      "Message('control_change', channel=0, control=64, value=58, time=20)\n",
      "Message('control_change', channel=0, control=64, value=67, time=16)\n",
      "Message('control_change', channel=0, control=64, value=73, time=20)\n",
      "Message('note_on', channel=0, note=59, velocity=0, time=33)\n",
      "Message('note_on', channel=0, note=74, velocity=65, time=19)\n",
      "Message('control_change', channel=0, control=64, value=75, time=4)\n",
      "Message('note_on', channel=0, note=67, velocity=0, time=35)\n",
      "Message('control_change', channel=0, control=64, value=78, time=24)\n",
      "Message('control_change', channel=0, control=64, value=80, time=18)\n",
      "Message('control_change', channel=0, control=64, value=83, time=38)\n",
      "Message('control_change', channel=0, control=64, value=76, time=54)\n",
      "Message('control_change', channel=0, control=64, value=67, time=20)\n",
      "Message('note_on', channel=0, note=66, velocity=68, time=4)\n",
      "Message('note_on', channel=0, note=57, velocity=58, time=1)\n",
      "Message('note_on', channel=0, note=74, velocity=0, time=1)\n",
      "Message('control_change', channel=0, control=64, value=61, time=14)\n",
      "Message('note_on', channel=0, note=55, velocity=0, time=6)\n",
      "Message('control_change', channel=0, control=64, value=63, time=12)\n",
      "Message('control_change', channel=0, control=64, value=69, time=19)\n",
      "Message('control_change', channel=0, control=64, value=75, time=20)\n",
      "Message('control_change', channel=0, control=64, value=81, time=18)\n",
      "Message('control_change', channel=0, control=64, value=86, time=20)\n",
      "Message('note_on', channel=0, note=57, velocity=0, time=49)\n",
      "Message('note_on', channel=0, note=74, velocity=71, time=13)\n",
      "Message('control_change', channel=0, control=64, value=90, time=29)\n",
      "Message('control_change', channel=0, control=64, value=96, time=39)\n",
      "Message('note_on', channel=0, note=66, velocity=0, time=5)\n",
      "Message('control_change', channel=0, control=64, value=103, time=49)\n",
      "Message('control_change', channel=0, control=64, value=108, time=20)\n",
      "Message('control_change', channel=0, control=64, value=91, time=55)\n",
      "Message('note_on', channel=0, note=74, velocity=0, time=5)\n",
      "Message('note_on', channel=0, note=55, velocity=66, time=7)\n",
      "Message('note_on', channel=0, note=64, velocity=71, time=1)\n",
      "Message('control_change', channel=0, control=64, value=67, time=7)\n",
      "Message('control_change', channel=0, control=64, value=23, time=17)\n",
      "Message('control_change', channel=0, control=64, value=18, time=22)\n",
      "Message('control_change', channel=0, control=64, value=46, time=15)\n",
      "Message('control_change', channel=0, control=64, value=61, time=21)\n",
      "Message('control_change', channel=0, control=64, value=69, time=18)\n",
      "Message('control_change', channel=0, control=64, value=73, time=20)\n",
      "Message('note_on', channel=0, note=74, velocity=73, time=48)\n",
      "Message('control_change', channel=0, control=64, value=76, time=47)\n",
      "Message('control_change', channel=0, control=64, value=78, time=17)\n",
      "Message('control_change', channel=0, control=64, value=81, time=19)\n",
      "Message('note_on', channel=0, note=64, velocity=0, time=14)\n",
      "Message('control_change', channel=0, control=64, value=83, time=6)\n",
      "Message('control_change', channel=0, control=64, value=86, time=19)\n",
      "Message('control_change', channel=0, control=64, value=77, time=55)\n",
      "Message('note_on', channel=0, note=52, velocity=72, time=5)\n",
      "Message('note_on', channel=0, note=73, velocity=75, time=7)\n",
      "Message('control_change', channel=0, control=64, value=62, time=8)\n",
      "Message('note_on', channel=0, note=74, velocity=0, time=5)\n",
      "Message('control_change', channel=0, control=64, value=42, time=13)\n",
      "Message('control_change', channel=0, control=64, value=58, time=41)\n",
      "Message('control_change', channel=0, control=64, value=70, time=18)\n",
      "Message('control_change', channel=0, control=64, value=78, time=16)\n",
      "Message('control_change', channel=0, control=64, value=81, time=20)\n",
      "Message('note_on', channel=0, note=55, velocity=0, time=7)\n",
      "Message('control_change', channel=0, control=64, value=79, time=12)\n",
      "Message('control_change', channel=0, control=64, value=77, time=21)\n",
      "Message('control_change', channel=0, control=67, value=53, time=1)\n",
      "Message('note_on', channel=0, note=71, velocity=75, time=7)\n",
      "Message('note_on', channel=0, note=73, velocity=0, time=19)\n",
      "Message('control_change', channel=0, control=64, value=79, time=7)\n",
      "Message('control_change', channel=0, control=64, value=82, time=40)\n",
      "Message('control_change', channel=0, control=64, value=85, time=18)\n",
      "Message('control_change', channel=0, control=64, value=76, time=94)\n",
      "Message('control_change', channel=0, control=64, value=62, time=20)\n",
      "Message('note_on', channel=0, note=45, velocity=56, time=6)\n",
      "Message('note_on', channel=0, note=73, velocity=81, time=1)\n",
      "Message('control_change', channel=0, control=64, value=34, time=12)\n",
      "Message('control_change', channel=0, control=64, value=0, time=18)\n",
      "Message('note_on', channel=0, note=71, velocity=0, time=0)\n",
      "Message('control_change', channel=0, control=64, value=30, time=18)\n",
      "Message('control_change', channel=0, control=64, value=54, time=20)\n",
      "Message('control_change', channel=0, control=64, value=66, time=19)\n",
      "Message('control_change', channel=0, control=64, value=71, time=19)\n",
      "Message('note_on', channel=0, note=73, velocity=0, time=56)\n",
      "Message('note_on', channel=0, note=74, velocity=69, time=26)\n",
      "Message('control_change', channel=0, control=64, value=74, time=10)\n",
      "Message('control_change', channel=0, control=64, value=77, time=17)\n",
      "Message('control_change', channel=0, control=64, value=80, time=18)\n",
      "Message('control_change', channel=0, control=64, value=76, time=37)\n",
      "Message('control_change', channel=0, control=64, value=66, time=16)\n",
      "Message('note_on', channel=0, note=76, velocity=73, time=2)\n",
      "Message('control_change', channel=0, control=64, value=50, time=18)\n",
      "Message('note_on', channel=0, note=74, velocity=0, time=7)\n",
      "Message('control_change', channel=0, control=64, value=33, time=13)\n",
      "Message('control_change', channel=0, control=64, value=0, time=18)\n",
      "Message('note_on', channel=0, note=76, velocity=0, time=16)\n",
      "Message('note_on', channel=0, note=49, velocity=71, time=8)\n",
      "Message('note_on', channel=0, note=69, velocity=79, time=11)\n",
      "Message('note_on', channel=0, note=45, velocity=0, time=3)\n",
      "Message('note_on', channel=0, note=52, velocity=0, time=4)\n",
      "Message('control_change', channel=0, control=64, value=28, time=35)\n",
      "Message('control_change', channel=0, control=64, value=52, time=20)\n",
      "Message('control_change', channel=0, control=64, value=58, time=17)\n",
      "Message('note_on', channel=0, note=79, velocity=80, time=103)\n",
      "Message('control_change', channel=0, control=64, value=60, time=106)\n",
      "Message('control_change', channel=0, control=64, value=54, time=55)\n",
      "Message('control_change', channel=0, control=64, value=43, time=20)\n",
      "Message('note_on', channel=0, note=78, velocity=79, time=0)\n",
      "Message('note_on', channel=0, note=50, velocity=76, time=4)\n",
      "Message('note_on', channel=0, note=79, velocity=0, time=7)\n",
      "Message('control_change', channel=0, control=64, value=36, time=5)\n",
      "Message('note_on', channel=0, note=69, velocity=0, time=0)\n",
      "Message('note_on', channel=0, note=49, velocity=0, time=17)\n",
      "Message('control_change', channel=0, control=64, value=43, time=42)\n",
      "Message('control_change', channel=0, control=64, value=47, time=18)\n",
      "Message('control_change', channel=0, control=64, value=49, time=57)\n",
      "Message('note_on', channel=0, note=76, velocity=79, time=23)\n",
      "Message('note_on', channel=0, note=78, velocity=0, time=32)\n",
      "Message('control_change', channel=0, control=64, value=39, time=58)\n",
      "Message('control_change', channel=0, control=64, value=0, time=18)\n",
      "Message('note_on', channel=0, note=78, velocity=84, time=81)\n",
      "Message('note_on', channel=0, note=43, velocity=68, time=3)\n",
      "Message('note_on', channel=0, note=76, velocity=0, time=22)\n",
      "Message('control_change', channel=0, control=64, value=38, time=25)\n",
      "Message('control_change', channel=0, control=64, value=59, time=16)\n",
      "Message('control_change', channel=0, control=64, value=68, time=21)\n",
      "Message('control_change', channel=0, control=64, value=72, time=18)\n",
      "Message('control_change', channel=0, control=64, value=76, time=20)\n",
      "Message('control_change', channel=0, control=64, value=80, time=16)\n",
      "Message('control_change', channel=0, control=64, value=82, time=21)\n",
      "Message('note_on', channel=0, note=74, velocity=80, time=12)\n",
      "Message('note_on', channel=0, note=43, velocity=0, time=1)\n",
      "Message('note_on', channel=0, note=50, velocity=0, time=0)\n",
      "Message('note_on', channel=0, note=78, velocity=0, time=8)\n",
      "Message('note_on', channel=0, note=52, velocity=71, time=5)\n",
      "Message('control_change', channel=0, control=64, value=84, time=31)\n",
      "Message('control_change', channel=0, control=64, value=87, time=37)\n",
      "Message('control_change', channel=0, control=67, value=57, time=20)\n",
      "Message('control_change', channel=0, control=64, value=92, time=55)\n",
      "Message('note_on', channel=0, note=74, velocity=0, time=15)\n",
      "Message('note_on', channel=0, note=73, velocity=73, time=29)\n",
      "Message('control_change', channel=0, control=64, value=85, time=13)\n",
      "Message('note_on', channel=0, note=45, velocity=65, time=7)\n",
      "Message('note_on', channel=0, note=54, velocity=68, time=0)\n",
      "Message('control_change', channel=0, control=64, value=65, time=12)\n",
      "Message('control_change', channel=0, control=64, value=0, time=18)\n",
      "Message('note_on', channel=0, note=74, velocity=76, time=14)\n",
      "Message('note_on', channel=0, note=73, velocity=0, time=2)\n",
      "Message('note_on', channel=0, note=52, velocity=0, time=7)\n",
      "Message('note_on', channel=0, note=73, velocity=69, time=57)\n",
      "Message('note_on', channel=0, note=74, velocity=0, time=2)\n",
      "Message('control_change', channel=0, control=67, value=61, time=14)\n",
      "Message('note_on', channel=0, note=73, velocity=0, time=49)\n",
      "Message('note_on', channel=0, note=74, velocity=44, time=20)\n",
      "Message('note_on', channel=0, note=74, velocity=0, time=36)\n",
      "Message('note_on', channel=0, note=73, velocity=67, time=2)\n",
      "Message('control_change', channel=0, control=67, value=66, time=24)\n",
      "Message('note_on', channel=0, note=55, velocity=56, time=175)\n",
      "Message('note_on', channel=0, note=54, velocity=0, time=68)\n",
      "Message('control_change', channel=0, control=64, value=44, time=21)\n",
      "Message('control_change', channel=0, control=64, value=62, time=36)\n",
      "Message('note_on', channel=0, note=45, velocity=0, time=1)\n",
      "Message('control_change', channel=0, control=64, value=72, time=18)\n",
      "Message('control_change', channel=0, control=64, value=79, time=19)\n",
      "Message('control_change', channel=0, control=64, value=85, time=19)\n",
      "Message('control_change', channel=0, control=64, value=91, time=16)\n",
      "Message('control_change', channel=0, control=64, value=98, time=21)\n",
      "Message('control_change', channel=0, control=64, value=104, time=18)\n",
      "Message('note_on', channel=0, note=74, velocity=69, time=12)\n",
      "Message('control_change', channel=0, control=64, value=108, time=8)\n",
      "Message('note_on', channel=0, note=73, velocity=0, time=21)\n",
      "Message('control_change', channel=0, control=64, value=112, time=34)\n",
      "Message('note_on', channel=0, note=74, velocity=0, time=24)\n",
      "Message('control_change', channel=0, control=64, value=106, time=145)\n",
      "Message('control_change', channel=0, control=64, value=97, time=21)\n",
      "Message('note_on', channel=0, note=55, velocity=0, time=7)\n",
      "Message('control_change', channel=0, control=64, value=85, time=9)\n",
      "Message('note_on', channel=0, note=54, velocity=51, time=0)\n",
      "Message('note_on', channel=0, note=50, velocity=45, time=2)\n",
      "Message('note_on', channel=0, note=74, velocity=58, time=16)\n",
      "Message('control_change', channel=0, control=64, value=71, time=3)\n",
      "Message('control_change', channel=0, control=64, value=59, time=19)\n",
      "Message('control_change', channel=0, control=64, value=50, time=18)\n",
      "Message('note_on', channel=0, note=62, velocity=53, time=179)\n",
      "Message('note_on', channel=0, note=54, velocity=0, time=8)\n",
      "Message('control_change', channel=0, control=64, value=48, time=116)\n",
      "Message('note_on', channel=0, note=50, velocity=0, time=34)\n",
      "Message('note_on', channel=0, note=62, velocity=0, time=12)\n",
      "Message('note_on', channel=0, note=55, velocity=57, time=1)\n",
      "Message('note_on', channel=0, note=52, velocity=49, time=2)\n",
      "Message('control_change', channel=0, control=64, value=46, time=103)\n",
      "Message('note_on', channel=0, note=62, velocity=61, time=83)\n",
      "Message('note_on', channel=0, note=55, velocity=0, time=2)\n",
      "Message('control_change', channel=0, control=64, value=44, time=41)\n",
      "Message('note_on', channel=0, note=62, velocity=0, time=137)\n",
      "Message('note_on', channel=0, note=54, velocity=56, time=10)\n",
      "Message('note_on', channel=0, note=57, velocity=53, time=10)\n",
      "Message('note_on', channel=0, note=52, velocity=0, time=61)\n",
      "Message('note_on', channel=0, note=74, velocity=0, time=86)\n",
      "Message('note_on', channel=0, note=54, velocity=0, time=6)\n",
      "Message('note_on', channel=0, note=76, velocity=72, time=4)\n",
      "Message('note_on', channel=0, note=57, velocity=0, time=3)\n",
      "Message('note_on', channel=0, note=62, velocity=61, time=10)\n",
      "Message('note_on', channel=0, note=76, velocity=0, time=84)\n",
      "Message('note_on', channel=0, note=78, velocity=69, time=11)\n",
      "Message('note_on', channel=0, note=78, velocity=0, time=48)\n",
      "Message('note_on', channel=0, note=54, velocity=57, time=17)\n",
      "Message('note_on', channel=0, note=50, velocity=51, time=3)\n",
      "Message('note_on', channel=0, note=79, velocity=76, time=11)\n",
      "Message('note_on', channel=0, note=62, velocity=0, time=5)\n",
      "Message('note_on', channel=0, note=79, velocity=0, time=52)\n",
      "Message('control_change', channel=0, control=64, value=48, time=29)\n",
      "Message('note_on', channel=0, note=81, velocity=75, time=1)\n",
      "Message('note_on', channel=0, note=50, velocity=0, time=40)\n",
      "Message('note_on', channel=0, note=83, velocity=75, time=26)\n",
      "Message('note_on', channel=0, note=81, velocity=0, time=3)\n",
      "Message('note_on', channel=0, note=54, velocity=0, time=9)\n",
      "Message('note_on', channel=0, note=62, velocity=57, time=11)\n",
      "Message('control_change', channel=0, control=64, value=50, time=61)\n",
      "Message('note_on', channel=0, note=83, velocity=0, time=1)\n",
      "Message('note_on', channel=0, note=84, velocity=80, time=1)\n",
      "Message('control_change', channel=0, control=64, value=44, time=36)\n",
      "Message('control_change', channel=0, control=64, value=38, time=15)\n",
      "Message('control_change', channel=0, control=64, value=23, time=21)\n",
      "Message('control_change', channel=0, control=64, value=19, time=18)\n",
      "Message('note_on', channel=0, note=62, velocity=0, time=5)\n",
      "Message('note_on', channel=0, note=55, velocity=62, time=4)\n",
      "Message('note_on', channel=0, note=84, velocity=0, time=12)\n",
      "Message('note_on', channel=0, note=83, velocity=75, time=4)\n",
      "Message('control_change', channel=0, control=64, value=30, time=123)\n",
      "Message('control_change', channel=0, control=64, value=34, time=39)\n",
      "Message('note_on', channel=0, note=62, velocity=55, time=44)\n",
      "Message('control_change', channel=0, control=64, value=43, time=31)\n",
      "Message('control_change', channel=0, control=64, value=49, time=19)\n",
      "Message('control_change', channel=0, control=64, value=54, time=20)\n",
      "Message('note_on', channel=0, note=55, velocity=0, time=87)\n",
      "Message('note_on', channel=0, note=62, velocity=0, time=11)\n",
      "Message('note_on', channel=0, note=57, velocity=54, time=10)\n",
      "Message('control_change', channel=0, control=64, value=56, time=24)\n",
      "Message('control_change', channel=0, control=64, value=60, time=133)\n",
      "Message('note_on', channel=0, note=62, velocity=52, time=36)\n",
      "Message('note_on', channel=0, note=81, velocity=69, time=5)\n",
      "Message('note_on', channel=0, note=83, velocity=0, time=1)\n",
      "Message('control_change', channel=0, control=64, value=61, time=70)\n",
      "Message('control_change', channel=0, control=64, value=64, time=18)\n",
      "Message('control_change', channel=0, control=64, value=65, time=18)\n",
      "Message('note_on', channel=0, note=59, velocity=57, time=69)\n",
      "Message('note_on', channel=0, note=62, velocity=0, time=7)\n",
      "Message('note_on', channel=0, note=79, velocity=75, time=7)\n",
      "Message('note_on', channel=0, note=81, velocity=0, time=32)\n",
      "Message('note_on', channel=0, note=57, velocity=0, time=72)\n",
      "Message('control_change', channel=0, control=64, value=66, time=58)\n",
      "Message('note_on', channel=0, note=62, velocity=58, time=0)\n",
      "Message('note_on', channel=0, note=78, velocity=79, time=8)\n",
      "Message('note_on', channel=0, note=79, velocity=0, time=23)\n",
      "Message('note_on', channel=0, note=59, velocity=0, time=39)\n",
      "Message('control_change', channel=0, control=64, value=67, time=79)\n",
      "Message('control_change', channel=0, control=64, value=66, time=18)\n",
      "Message('control_change', channel=0, control=64, value=62, time=21)\n",
      "Message('note_on', channel=0, note=76, velocity=79, time=7)\n",
      "Message('note_on', channel=0, note=55, velocity=65, time=2)\n",
      "Message('note_on', channel=0, note=78, velocity=0, time=0)\n",
      "Message('control_change', channel=0, control=64, value=56, time=7)\n",
      "Message('note_on', channel=0, note=62, velocity=0, time=10)\n",
      "Message('control_change', channel=0, control=64, value=52, time=10)\n",
      "Message('control_change', channel=0, control=64, value=55, time=39)\n",
      "Message('control_change', channel=0, control=64, value=61, time=17)\n",
      "Message('control_change', channel=0, control=64, value=67, time=20)\n",
      "Message('control_change', channel=0, control=64, value=69, time=39)\n",
      "Message('note_on', channel=0, note=55, velocity=0, time=23)\n",
      "Message('note_on', channel=0, note=74, velocity=77, time=5)\n",
      "Message('note_on', channel=0, note=62, velocity=65, time=7)\n",
      "Message('control_change', channel=0, control=64, value=72, time=20)\n",
      "Message('note_on', channel=0, note=76, velocity=0, time=6)\n",
      "Message('control_change', channel=0, control=64, value=76, time=13)\n",
      "Message('control_change', channel=0, control=64, value=79, time=20)\n",
      "Message('note_on', channel=0, note=74, velocity=0, time=49)\n",
      "Message('control_change', channel=0, control=64, value=82, time=5)\n",
      "Message('control_change', channel=0, control=64, value=84, time=40)\n",
      "Message('control_change', channel=0, control=64, value=87, time=19)\n",
      "Message('note_on', channel=0, note=76, velocity=71, time=19)\n",
      "Message('note_on', channel=0, note=52, velocity=62, time=2)\n",
      "Message('note_on', channel=0, note=62, velocity=0, time=11)\n",
      "Message('control_change', channel=0, control=64, value=79, time=4)\n",
      "Message('control_change', channel=0, control=64, value=65, time=21)\n",
      "Message('control_change', channel=0, control=64, value=52, time=17)\n",
      "Message('note_on', channel=0, note=78, velocity=72, time=7)\n",
      "Message('note_on', channel=0, note=76, velocity=0, time=11)\n",
      "Message('control_change', channel=0, control=64, value=49, time=77)\n",
      "Message('note_on', channel=0, note=79, velocity=73, time=9)\n",
      "Message('control_change', channel=0, control=64, value=46, time=9)\n",
      "Message('note_on', channel=0, note=62, velocity=60, time=9)\n",
      "Message('note_on', channel=0, note=78, velocity=0, time=8)\n",
      "Message('control_change', channel=0, control=64, value=44, time=1)\n",
      "Message('note_on', channel=0, note=52, velocity=0, time=94)\n",
      "Message('note_on', channel=0, note=54, velocity=53, time=80)\n",
      "Message('note_on', channel=0, note=62, velocity=0, time=26)\n",
      "Message('control_change', channel=0, control=64, value=46, time=138)\n",
      "Message('note_on', channel=0, note=78, velocity=65, time=44)\n",
      "Message('note_on', channel=0, note=62, velocity=52, time=1)\n",
      "Message('note_on', channel=0, note=79, velocity=0, time=22)\n",
      "Message('note_on', channel=0, note=54, velocity=0, time=69)\n",
      "Message('control_change', channel=0, control=64, value=49, time=15)\n",
      "Message('control_change', channel=0, control=64, value=45, time=58)\n",
      "Message('note_on', channel=0, note=55, velocity=54, time=8)\n",
      "Message('control_change', channel=0, control=64, value=42, time=10)\n",
      "Message('note_on', channel=0, note=76, velocity=69, time=8)\n",
      "Message('note_on', channel=0, note=78, velocity=0, time=8)\n",
      "Message('note_on', channel=0, note=62, velocity=0, time=2)\n",
      "Message('control_change', channel=0, control=64, value=45, time=74)\n",
      "Message('control_change', channel=0, control=64, value=49, time=58)\n",
      "Message('control_change', channel=0, control=64, value=54, time=18)\n",
      "Message('note_on', channel=0, note=76, velocity=0, time=0)\n",
      "Message('note_on', channel=0, note=62, velocity=59, time=2)\n",
      "Message('control_change', channel=0, control=64, value=58, time=20)\n",
      "Message('note_on', channel=0, note=74, velocity=72, time=2)\n",
      "Message('control_change', channel=0, control=64, value=60, time=89)\n",
      "Message('control_change', channel=0, control=64, value=63, time=21)\n",
      "Message('control_change', channel=0, control=64, value=66, time=18)\n",
      "Message('control_change', channel=0, control=64, value=63, time=18)\n",
      "Message('note_on', channel=0, note=52, velocity=64, time=9)\n",
      "Message('note_on', channel=0, note=73, velocity=72, time=9)\n",
      "Message('control_change', channel=0, control=64, value=56, time=1)\n",
      "Message('note_on', channel=0, note=62, velocity=0, time=2)\n",
      "Message('control_change', channel=0, control=64, value=50, time=16)\n",
      "Message('note_on', channel=0, note=74, velocity=0, time=2)\n",
      "Message('control_change', channel=0, control=64, value=54, time=35)\n",
      "Message('control_change', channel=0, control=64, value=59, time=20)\n",
      "Message('control_change', channel=0, control=64, value=65, time=19)\n",
      "Message('note_on', channel=0, note=55, velocity=0, time=0)\n",
      "Message('control_change', channel=0, control=64, value=66, time=20)\n",
      "Message('note_on', channel=0, note=52, velocity=0, time=29)\n",
      "Message('note_on', channel=0, note=62, velocity=55, time=29)\n",
      "Message('note_on', channel=0, note=71, velocity=76, time=4)\n",
      "Message('note_on', channel=0, note=73, velocity=0, time=27)\n",
      "Message('control_change', channel=0, control=64, value=69, time=23)\n",
      "Message('control_change', channel=0, control=64, value=68, time=39)\n",
      "Message('control_change', channel=0, control=64, value=66, time=72)\n",
      "Message('control_change', channel=0, control=64, value=65, time=20)\n",
      "Message('note_on', channel=0, note=57, velocity=66, time=16)\n",
      "Message('note_on', channel=0, note=73, velocity=77, time=9)\n",
      "Message('control_change', channel=0, control=64, value=64, time=11)\n",
      "Message('note_on', channel=0, note=71, velocity=0, time=19)\n",
      "Message('control_change', channel=0, control=64, value=63, time=1)\n",
      "Message('note_on', channel=0, note=62, velocity=0, time=26)\n",
      "Message('control_change', channel=0, control=64, value=65, time=67)\n",
      "Message('control_change', channel=0, control=64, value=64, time=41)\n",
      "Message('note_on', channel=0, note=61, velocity=64, time=16)\n",
      "Message('control_change', channel=0, control=64, value=62, time=1)\n",
      "Message('note_on', channel=0, note=69, velocity=73, time=0)\n",
      "Message('note_on', channel=0, note=73, velocity=0, time=1)\n",
      "Message('control_change', channel=0, control=64, value=61, time=18)\n",
      "Message('note_on', channel=0, note=57, velocity=0, time=11)\n",
      "Message('control_change', channel=0, control=64, value=62, time=45)\n",
      "Message('control_change', channel=0, control=64, value=61, time=38)\n",
      "Message('control_change', channel=0, control=64, value=58, time=16)\n",
      "Message('control_change', channel=0, control=64, value=50, time=21)\n",
      "Message('note_on', channel=0, note=69, velocity=0, time=9)\n",
      "Message('control_change', channel=0, control=64, value=43, time=9)\n",
      "Message('note_on', channel=0, note=59, velocity=58, time=17)\n",
      "Message('note_on', channel=0, note=74, velocity=72, time=1)\n",
      "Message('note_on', channel=0, note=61, velocity=0, time=1)\n",
      "Message('control_change', channel=0, control=64, value=46, time=58)\n",
      "Message('note_on', channel=0, note=74, velocity=0, time=67)\n",
      "Message('control_change', channel=0, control=64, value=48, time=11)\n",
      "Message('control_change', channel=0, control=64, value=52, time=18)\n",
      "Message('note_on', channel=0, note=69, velocity=67, time=22)\n",
      "Message('note_on', channel=0, note=62, velocity=57, time=2)\n",
      "Message('control_change', channel=0, control=64, value=49, time=51)\n",
      "Message('control_change', channel=0, control=64, value=52, time=57)\n",
      "Message('note_on', channel=0, note=69, velocity=0, time=29)\n",
      "Message('note_on', channel=0, note=76, velocity=70, time=36)\n",
      "Message('note_on', channel=0, note=61, velocity=65, time=7)\n",
      "Message('note_on', channel=0, note=62, velocity=0, time=7)\n",
      "Message('note_on', channel=0, note=59, velocity=0, time=42)\n",
      "Message('control_change', channel=0, control=64, value=55, time=29)\n",
      "Message('note_on', channel=0, note=76, velocity=0, time=57)\n",
      "Message('control_change', channel=0, control=64, value=52, time=14)\n",
      "Message('note_on', channel=0, note=61, velocity=0, time=30)\n",
      "Message('note_on', channel=0, note=64, velocity=49, time=1)\n",
      "Message('note_on', channel=0, note=69, velocity=66, time=4)\n",
      "Message('control_change', channel=0, control=64, value=54, time=43)\n",
      "Message('control_change', channel=0, control=64, value=52, time=76)\n",
      "Message('note_on', channel=0, note=57, velocity=57, time=64)\n",
      "Message('note_on', channel=0, note=64, velocity=0, time=4)\n",
      "Message('note_on', channel=0, note=79, velocity=70, time=2)\n",
      "Message('control_change', channel=0, control=64, value=55, time=138)\n",
      "Message('note_on', channel=0, note=79, velocity=0, time=18)\n",
      "Message('note_on', channel=0, note=61, velocity=59, time=13)\n",
      "Message('note_on', channel=0, note=76, velocity=66, time=5)\n",
      "Message('note_on', channel=0, note=57, velocity=0, time=16)\n",
      "Message('control_change', channel=0, control=64, value=52, time=1)\n",
      "Message('control_change', channel=0, control=64, value=49, time=116)\n",
      "Message('note_on', channel=0, note=69, velocity=0, time=5)\n",
      "Message('control_change', channel=0, control=64, value=36, time=13)\n",
      "Message('control_change', channel=0, control=64, value=0, time=19)\n",
      "Message('note_on', channel=0, note=61, velocity=0, time=2)\n",
      "Message('note_on', channel=0, note=62, velocity=52, time=16)\n",
      "Message('note_on', channel=0, note=77, velocity=71, time=3)\n",
      "Message('note_on', channel=0, note=76, velocity=0, time=24)\n",
      "Message('control_change', channel=0, control=64, value=25, time=69)\n",
      "Message('control_change', channel=0, control=64, value=42, time=19)\n",
      "Message('control_change', channel=0, control=64, value=53, time=18)\n",
      "Message('control_change', channel=0, control=64, value=61, time=19)\n",
      "Message('control_change', channel=0, control=64, value=67, time=20)\n",
      "Message('note_on', channel=0, note=69, velocity=60, time=32)\n",
      "Message('note_on', channel=0, note=62, velocity=0, time=48)\n",
      "Message('control_change', channel=0, control=64, value=69, time=15)\n",
      "Message('control_change', channel=0, control=64, value=74, time=35)\n",
      "Message('note_on', channel=0, note=69, velocity=0, time=54)\n",
      "Message('control_change', channel=0, control=64, value=70, time=4)\n",
      "Message('control_change', channel=0, control=64, value=66, time=33)\n",
      "Message('note_on', channel=0, note=60, velocity=54, time=4)\n",
      "Message('note_on', channel=0, note=74, velocity=64, time=0)\n",
      "Message('control_change', channel=0, control=64, value=64, time=15)\n",
      "Message('control_change', channel=0, control=64, value=66, time=20)\n",
      "Message('note_on', channel=0, note=77, velocity=0, time=12)\n",
      "Message('control_change', channel=0, control=64, value=67, time=64)\n",
      "Message('control_change', channel=0, control=64, value=71, time=55)\n",
      "Message('note_on', channel=0, note=60, velocity=0, time=7)\n",
      "Message('control_change', channel=0, control=64, value=74, time=13)\n",
      "Message('note_on', channel=0, note=76, velocity=71, time=2)\n",
      "Message('note_on', channel=0, note=74, velocity=0, time=38)\n",
      "Message('control_change', channel=0, control=64, value=68, time=111)\n",
      "Message('control_change', channel=0, control=64, value=64, time=20)\n",
      "Message('note_on', channel=0, note=77, velocity=72, time=15)\n",
      "Message('note_on', channel=0, note=58, velocity=66, time=3)\n",
      "Message('note_on', channel=0, note=76, velocity=0, time=11)\n",
      "Message('control_change', channel=0, control=64, value=66, time=26)\n",
      "Message('control_change', channel=0, control=64, value=67, time=19)\n",
      "Message('note_on', channel=0, note=74, velocity=61, time=111)\n",
      "Message('note_on', channel=0, note=77, velocity=0, time=9)\n",
      "Message('control_change', channel=0, control=64, value=69, time=13)\n",
      "Message('note_on', channel=0, note=58, velocity=0, time=12)\n",
      "Message('control_change', channel=0, control=64, value=67, time=42)\n",
      "Message('control_change', channel=0, control=64, value=66, time=22)\n",
      "Message('control_change', channel=0, control=64, value=65, time=16)\n",
      "Message('note_on', channel=0, note=74, velocity=0, time=53)\n",
      "Message('note_on', channel=0, note=78, velocity=77, time=20)\n",
      "Message('note_on', channel=0, note=57, velocity=68, time=2)\n",
      "Message('control_change', channel=0, control=64, value=66, time=77)\n",
      "Message('control_change', channel=0, control=64, value=68, time=20)\n",
      "Message('note_on', channel=0, note=57, velocity=0, time=37)\n",
      "Message('note_on', channel=0, note=74, velocity=66, time=42)\n",
      "Message('control_change', channel=0, control=64, value=71, time=67)\n",
      "Message('note_on', channel=0, note=78, velocity=0, time=18)\n",
      "Message('control_change', channel=0, control=64, value=66, time=58)\n",
      "Message('control_change', channel=0, control=64, value=58, time=20)\n",
      "Message('note_on', channel=0, note=74, velocity=0, time=14)\n",
      "Message('control_change', channel=0, control=64, value=54, time=6)\n",
      "Message('note_on', channel=0, note=79, velocity=80, time=18)\n",
      "Message('note_on', channel=0, note=58, velocity=69, time=1)\n",
      "Message('control_change', channel=0, control=64, value=59, time=55)\n",
      "Message('control_change', channel=0, control=64, value=61, time=17)\n",
      "Message('control_change', channel=0, control=64, value=63, time=19)\n",
      "Message('control_change', channel=0, control=64, value=67, time=20)\n",
      "Message('control_change', channel=0, control=64, value=70, time=19)\n",
      "Message('note_on', channel=0, note=79, velocity=0, time=15)\n",
      "Message('note_on', channel=0, note=74, velocity=76, time=31)\n",
      "Message('note_on', channel=0, note=58, velocity=0, time=24)\n",
      "Message('control_change', channel=0, control=64, value=72, time=6)\n",
      "Message('control_change', channel=0, control=64, value=74, time=18)\n",
      "Message('control_change', channel=0, control=64, value=76, time=18)\n",
      "Message('control_change', channel=0, control=64, value=74, time=58)\n",
      "Message('control_change', channel=0, control=64, value=69, time=17)\n",
      "Message('control_change', channel=0, control=64, value=65, time=20)\n",
      "Message('note_on', channel=0, note=82, velocity=81, time=37)\n",
      "Message('note_on', channel=0, note=55, velocity=62, time=1)\n",
      "Message('control_change', channel=0, control=64, value=67, time=40)\n",
      "Message('note_on', channel=0, note=74, velocity=0, time=15)\n",
      "Message('control_change', channel=0, control=64, value=69, time=2)\n",
      "Message('control_change', channel=0, control=64, value=71, time=57)\n",
      "Message('control_change', channel=0, control=64, value=74, time=18)\n",
      "Message('note_on', channel=0, note=55, velocity=0, time=6)\n",
      "Message('note_on', channel=0, note=82, velocity=0, time=9)\n",
      "Message('note_on', channel=0, note=81, velocity=75, time=30)\n",
      "Message('control_change', channel=0, control=64, value=76, time=87)\n",
      "Message('control_change', channel=0, control=64, value=73, time=20)\n",
      "Message('control_change', channel=0, control=64, value=63, time=18)\n",
      "Message('control_change', channel=0, control=64, value=43, time=19)\n",
      "Message('control_change', channel=0, control=64, value=28, time=19)\n",
      "Message('note_on', channel=0, note=52, velocity=62, time=27)\n",
      "Message('note_on', channel=0, note=80, velocity=78, time=4)\n",
      "Message('note_on', channel=0, note=81, velocity=0, time=4)\n",
      "Message('control_change', channel=0, control=64, value=43, time=1)\n",
      "Message('control_change', channel=0, control=64, value=53, time=21)\n",
      "Message('control_change', channel=0, control=64, value=58, time=34)\n",
      "Message('control_change', channel=0, control=64, value=61, time=17)\n",
      "Message('control_change', channel=0, control=64, value=62, time=39)\n",
      "Message('control_change', channel=0, control=64, value=65, time=20)\n",
      "Message('control_change', channel=0, control=64, value=70, time=18)\n",
      "Message('control_change', channel=0, control=64, value=74, time=20)\n",
      "Message('note_on', channel=0, note=52, velocity=0, time=8)\n",
      "Message('note_on', channel=0, note=74, velocity=61, time=4)\n",
      "Message('control_change', channel=0, control=64, value=77, time=99)\n",
      "Message('control_change', channel=0, control=64, value=71, time=38)\n",
      "Message('control_change', channel=0, control=64, value=65, time=20)\n",
      "Message('note_on', channel=0, note=74, velocity=0, time=12)\n",
      "Message('control_change', channel=0, control=64, value=68, time=28)\n",
      "Message('note_on', channel=0, note=80, velocity=0, time=1)\n",
      "Message('note_on', channel=0, note=73, velocity=70, time=2)\n",
      "Message('note_on', channel=0, note=57, velocity=57, time=7)\n",
      "Message('control_change', channel=0, control=64, value=71, time=6)\n",
      "Message('control_change', channel=0, control=64, value=76, time=22)\n",
      "Message('control_change', channel=0, control=64, value=79, time=15)\n",
      "Message('note_on', channel=0, note=57, velocity=0, time=55)\n",
      "Message('control_change', channel=0, control=64, value=83, time=58)\n",
      "Message('note_on', channel=0, note=73, velocity=0, time=2)\n",
      "Message('note_on', channel=0, note=79, velocity=74, time=5)\n",
      "Message('control_change', channel=0, control=67, value=70, time=90)\n",
      "Message('control_change', channel=0, control=64, value=85, time=18)\n",
      "Message('note_on', channel=0, note=62, velocity=65, time=88)\n",
      "Message('note_on', channel=0, note=78, velocity=73, time=7)\n",
      "Message('note_on', channel=0, note=79, velocity=0, time=8)\n",
      "Message('control_change', channel=0, control=64, value=82, time=7)\n",
      "Message('control_change', channel=0, control=64, value=76, time=22)\n",
      "Message('control_change', channel=0, control=64, value=68, time=18)\n",
      "Message('control_change', channel=0, control=64, value=59, time=19)\n",
      "Message('note_on', channel=0, note=76, velocity=70, time=7)\n",
      "Message('note_on', channel=0, note=78, velocity=0, time=41)\n",
      "Message('note_on', channel=0, note=76, velocity=0, time=29)\n",
      "Message('note_on', channel=0, note=74, velocity=72, time=12)\n",
      "Message('control_change', channel=0, control=64, value=61, time=1)\n",
      "Message('note_on', channel=0, note=74, velocity=0, time=56)\n",
      "Message('note_on', channel=0, note=72, velocity=73, time=57)\n",
      "Message('control_change', channel=0, control=64, value=60, time=36)\n",
      "Message('note_on', channel=0, note=72, velocity=0, time=48)\n",
      "Message('note_on', channel=0, note=55, velocity=57, time=3)\n",
      "Message('note_on', channel=0, note=71, velocity=72, time=19)\n",
      "Message('control_change', channel=0, control=64, value=61, time=44)\n",
      "Message('note_on', channel=0, note=62, velocity=0, time=97)\n",
      "Message('note_on', channel=0, note=55, velocity=0, time=25)\n",
      "Message('note_on', channel=0, note=76, velocity=70, time=17)\n",
      "Message('note_on', channel=0, note=67, velocity=57, time=1)\n",
      "Message('note_on', channel=0, note=71, velocity=0, time=8)\n",
      "Message('note_on', channel=0, note=57, velocity=47, time=173)\n",
      "Message('note_on', channel=0, note=66, velocity=53, time=4)\n",
      "Message('control_change', channel=0, control=64, value=60, time=13)\n",
      "Message('note_on', channel=0, note=67, velocity=0, time=6)\n",
      "Message('note_on', channel=0, note=69, velocity=61, time=14)\n",
      "Message('control_change', channel=0, control=64, value=61, time=77)\n",
      "Message('note_on', channel=0, note=76, velocity=0, time=53)\n",
      "Message('control_change', channel=0, control=64, value=60, time=1)\n",
      "Message('note_on', channel=0, note=74, velocity=66, time=30)\n",
      "Message('note_on', channel=0, note=69, velocity=0, time=22)\n",
      "Message('control_change', channel=0, control=64, value=61, time=24)\n",
      "Message('control_change', channel=0, control=64, value=60, time=59)\n",
      "Message('note_on', channel=0, note=67, velocity=59, time=76)\n",
      "Message('note_on', channel=0, note=64, velocity=56, time=3)\n",
      "Message('control_change', channel=0, control=64, value=61, time=15)\n",
      "Message('note_on', channel=0, note=66, velocity=0, time=0)\n",
      "Message('control_change', channel=0, control=64, value=58, time=89)\n",
      "Message('control_change', channel=0, control=64, value=60, time=58)\n",
      "Message('note_on', channel=0, note=74, velocity=0, time=12)\n",
      "Message('note_on', channel=0, note=73, velocity=67, time=32)\n",
      "Message('control_change', channel=0, control=64, value=58, time=30)\n",
      "Message('note_on', channel=0, note=67, velocity=0, time=31)\n",
      "Message('control_change', channel=0, control=64, value=60, time=44)\n",
      "Message('note_on', channel=0, note=57, velocity=0, time=76)\n",
      "Message('note_on', channel=0, note=64, velocity=0, time=23)\n",
      "Message('note_on', channel=0, note=74, velocity=70, time=2)\n",
      "Message('note_on', channel=0, note=62, velocity=58, time=3)\n",
      "Message('note_on', channel=0, note=73, velocity=0, time=36)\n",
      "Message('note_on', channel=0, note=67, velocity=54, time=143)\n",
      "Message('note_on', channel=0, note=67, velocity=0, time=162)\n",
      "Message('note_on', channel=0, note=69, velocity=57, time=24)\n",
      "Message('control_change', channel=0, control=64, value=58, time=157)\n",
      "Message('note_on', channel=0, note=64, velocity=54, time=33)\n",
      "Message('note_on', channel=0, note=66, velocity=55, time=212)\n",
      "Message('note_on', channel=0, note=64, velocity=0, time=6)\n",
      "Message('control_change', channel=0, control=64, value=56, time=27)\n",
      "Message('control_change', channel=0, control=64, value=54, time=17)\n",
      "Message('note_on', channel=0, note=62, velocity=0, time=111)\n",
      "Message('note_on', channel=0, note=61, velocity=57, time=9)\n",
      "Message('control_change', channel=0, control=64, value=52, time=14)\n",
      "Message('note_on', channel=0, note=61, velocity=0, time=155)\n",
      "Message('note_on', channel=0, note=62, velocity=59, time=30)\n",
      "Message('control_change', channel=0, control=64, value=49, time=60)\n",
      "Message('control_change', channel=0, control=64, value=47, time=20)\n",
      "Message('control_change', channel=0, control=64, value=44, time=110)\n",
      "Message('note_on', channel=0, note=57, velocity=52, time=7)\n",
      "Message('control_change', channel=0, control=64, value=42, time=13)\n",
      "Message('control_change', channel=0, control=64, value=33, time=114)\n",
      "Message('control_change', channel=0, control=64, value=29, time=20)\n",
      "Message('control_change', channel=0, control=64, value=19, time=74)\n",
      "Message('control_change', channel=0, control=64, value=0, time=34)\n",
      "Message('note_on', channel=0, note=50, velocity=46, time=84)\n",
      "Message('control_change', channel=0, control=64, value=18, time=483)\n",
      "Message('control_change', channel=0, control=64, value=31, time=20)\n",
      "Message('control_change', channel=0, control=64, value=42, time=19)\n",
      "Message('control_change', channel=0, control=64, value=48, time=16)\n",
      "Message('control_change', channel=0, control=64, value=52, time=22)\n",
      "Message('control_change', channel=0, control=64, value=56, time=17)\n",
      "Message('control_change', channel=0, control=64, value=60, time=19)\n",
      "Message('control_change', channel=0, control=64, value=65, time=17)\n",
      "Message('control_change', channel=0, control=64, value=69, time=18)\n",
      "Message('control_change', channel=0, control=64, value=73, time=21)\n",
      "Message('control_change', channel=0, control=64, value=77, time=18)\n",
      "Message('control_change', channel=0, control=64, value=79, time=19)\n",
      "Message('control_change', channel=0, control=64, value=81, time=20)\n",
      "Message('control_change', channel=0, control=64, value=85, time=20)\n",
      "Message('control_change', channel=0, control=64, value=91, time=18)\n",
      "Message('note_on', channel=0, note=66, velocity=0, time=9)\n",
      "Message('control_change', channel=0, control=64, value=99, time=11)\n",
      "Message('control_change', channel=0, control=64, value=108, time=17)\n",
      "Message('control_change', channel=0, control=64, value=114, time=20)\n",
      "Message('note_on', channel=0, note=74, velocity=0, time=30)\n",
      "Message('note_on', channel=0, note=69, velocity=0, time=74)\n",
      "Message('note_on', channel=0, note=62, velocity=0, time=22)\n",
      "Message('control_change', channel=0, control=64, value=118, time=2)\n",
      "Message('note_on', channel=0, note=57, velocity=0, time=37)\n",
      "Message('control_change', channel=0, control=67, value=74, time=40)\n",
      "Message('note_on', channel=0, note=50, velocity=0, time=14)\n",
      "Message('control_change', channel=0, control=67, value=78, time=134)\n",
      "Message('control_change', channel=0, control=64, value=114, time=189)\n",
      "Message('note_on', channel=0, note=78, velocity=83, time=43)\n",
      "Message('note_on', channel=0, note=78, velocity=0, time=136)\n",
      "Message('control_change', channel=0, control=64, value=108, time=87)\n",
      "Message('control_change', channel=0, control=64, value=95, time=18)\n",
      "Message('note_on', channel=0, note=78, velocity=76, time=4)\n",
      "Message('control_change', channel=0, control=64, value=74, time=15)\n",
      "Message('note_on', channel=0, note=69, velocity=41, time=7)\n",
      "Message('note_on', channel=0, note=74, velocity=40, time=1)\n",
      "Message('note_on', channel=0, note=50, velocity=49, time=3)\n",
      "Message('control_change', channel=0, control=64, value=46, time=8)\n",
      "Message('control_change', channel=0, control=64, value=0, time=20)\n",
      "Message('control_change', channel=0, control=64, value=32, time=38)\n",
      "Message('control_change', channel=0, control=64, value=53, time=16)\n",
      "Message('control_change', channel=0, control=64, value=66, time=22)\n",
      "Message('control_change', channel=0, control=64, value=75, time=17)\n",
      "Message('control_change', channel=0, control=64, value=83, time=19)\n",
      "Message('control_change', channel=0, control=64, value=87, time=34)\n",
      "Message('note_on', channel=0, note=54, velocity=54, time=14)\n",
      "Message('note_on', channel=0, note=50, velocity=0, time=18)\n",
      "Message('note_on', channel=0, note=69, velocity=0, time=1)\n",
      "Message('note_on', channel=0, note=74, velocity=0, time=23)\n",
      "Message('control_change', channel=0, control=64, value=91, time=19)\n",
      "Message('control_change', channel=0, control=64, value=96, time=20)\n",
      "Message('control_change', channel=0, control=64, value=101, time=18)\n",
      "Message('control_change', channel=0, control=64, value=105, time=58)\n",
      "Message('note_on', channel=0, note=57, velocity=56, time=18)\n",
      "Message('control_change', channel=0, control=64, value=112, time=20)\n",
      "Message('control_change', channel=0, control=64, value=116, time=18)\n",
      "Message('note_on', channel=0, note=54, velocity=0, time=20)\n",
      "Message('note_on', channel=0, note=57, velocity=0, time=86)\n",
      "Message('control_change', channel=0, control=64, value=121, time=6)\n",
      "Message('note_on', channel=0, note=60, velocity=59, time=15)\n",
      "Message('note_on', channel=0, note=79, velocity=76, time=6)\n",
      "Message('note_on', channel=0, note=78, velocity=0, time=31)\n",
      "Message('note_on', channel=0, note=79, velocity=0, time=23)\n",
      "Message('control_change', channel=0, control=64, value=125, time=75)\n",
      "Message('note_on', channel=0, note=60, velocity=0, time=45)\n",
      "Message('note_on', channel=0, note=59, velocity=65, time=7)\n",
      "Message('note_on', channel=0, note=81, velocity=86, time=15)\n",
      "Message('control_change', channel=0, control=64, value=111, time=11)\n",
      "Message('control_change', channel=0, control=64, value=82, time=19)\n",
      "Message('control_change', channel=0, control=64, value=32, time=19)\n",
      "Message('note_on', channel=0, note=81, velocity=0, time=3)\n",
      "Message('control_change', channel=0, control=64, value=0, time=14)\n",
      "Message('note_on', channel=0, note=79, velocity=73, time=1)\n",
      "Message('note_on', channel=0, note=81, velocity=78, time=50)\n",
      "Message('note_on', channel=0, note=79, velocity=0, time=20)\n",
      "Message('note_on', channel=0, note=79, velocity=75, time=36)\n",
      "Message('note_on', channel=0, note=59, velocity=0, time=8)\n",
      "Message('note_on', channel=0, note=81, velocity=0, time=1)\n",
      "Message('note_on', channel=0, note=57, velocity=65, time=1)\n",
      "Message('note_on', channel=0, note=59, velocity=68, time=175)\n",
      "Message('note_on', channel=0, note=57, velocity=0, time=7)\n",
      "Message('control_change', channel=0, control=64, value=15, time=56)\n",
      "Message('control_change', channel=0, control=64, value=19, time=115)\n",
      "Message('note_on', channel=0, note=79, velocity=0, time=5)\n",
      "Message('note_on', channel=0, note=78, velocity=68, time=18)\n",
      "Message('note_on', channel=0, note=59, velocity=0, time=6)\n",
      "Message('note_on', channel=0, note=55, velocity=42, time=12)\n",
      "Message('note_on', channel=0, note=78, velocity=0, time=50)\n",
      "Message('note_on', channel=0, note=79, velocity=79, time=10)\n",
      "Message('note_on', channel=0, note=55, velocity=0, time=74)\n",
      "Message('note_on', channel=0, note=79, velocity=0, time=10)\n",
      "Message('control_change', channel=0, control=64, value=15, time=1)\n",
      "Message('note_on', channel=0, note=81, velocity=80, time=7)\n",
      "Message('note_on', channel=0, note=54, velocity=55, time=6)\n",
      "Message('control_change', channel=0, control=64, value=0, time=7)\n",
      "Message('note_on', channel=0, note=57, velocity=53, time=189)\n",
      "Message('note_on', channel=0, note=57, velocity=0, time=167)\n",
      "Message('note_on', channel=0, note=60, velocity=50, time=29)\n",
      "Message('note_on', channel=0, note=60, velocity=0, time=138)\n",
      "Message('note_on', channel=0, note=64, velocity=56, time=36)\n",
      "Message('note_on', channel=0, note=62, velocity=58, time=203)\n",
      "Message('note_on', channel=0, note=64, velocity=0, time=21)\n",
      "Message('control_change', channel=0, control=64, value=37, time=64)\n",
      "Message('control_change', channel=0, control=64, value=56, time=18)\n",
      "Message('note_on', channel=0, note=62, velocity=0, time=16)\n",
      "Message('control_change', channel=0, control=64, value=67, time=2)\n",
      "Message('control_change', channel=0, control=67, value=73, time=1)\n",
      "Message('control_change', channel=0, control=64, value=72, time=18)\n",
      "Message('note_on', channel=0, note=81, velocity=0, time=27)\n",
      "Message('note_on', channel=0, note=54, velocity=0, time=6)\n",
      "Message('note_on', channel=0, note=72, velocity=73, time=12)\n",
      "Message('control_change', channel=0, control=64, value=74, time=14)\n",
      "Message('control_change', channel=0, control=64, value=79, time=38)\n",
      "Message('control_change', channel=0, control=67, value=69, time=1)\n",
      "Message('control_change', channel=0, control=64, value=83, time=15)\n",
      "Message('control_change', channel=0, control=64, value=88, time=21)\n",
      "Message('control_change', channel=0, control=64, value=94, time=18)\n",
      "Message('control_change', channel=0, control=64, value=98, time=19)\n",
      "Message('note_on', channel=0, note=72, velocity=0, time=52)\n",
      "Message('control_change', channel=0, control=64, value=87, time=3)\n",
      "Message('note_on', channel=0, note=57, velocity=54, time=4)\n",
      "Message('note_on', channel=0, note=74, velocity=80, time=0)\n",
      "Message('note_on', channel=0, note=54, velocity=53, time=1)\n",
      "Message('control_change', channel=0, control=64, value=72, time=15)\n",
      "Message('control_change', channel=0, control=64, value=58, time=19)\n",
      "Message('control_change', channel=0, control=64, value=61, time=21)\n",
      "Message('control_change', channel=0, control=64, value=68, time=17)\n",
      "Message('control_change', channel=0, control=64, value=75, time=21)\n",
      "Message('control_change', channel=0, control=64, value=82, time=18)\n",
      "Message('control_change', channel=0, control=64, value=92, time=18)\n",
      "Message('control_change', channel=0, control=64, value=100, time=18)\n",
      "Message('note_on', channel=0, note=54, velocity=0, time=11)\n",
      "Message('control_change', channel=0, control=64, value=104, time=7)\n",
      "Message('note_on', channel=0, note=69, velocity=84, time=13)\n",
      "Message('note_on', channel=0, note=57, velocity=0, time=13)\n",
      "Message('control_change', channel=0, control=64, value=108, time=12)\n",
      "Message('control_change', channel=0, control=67, value=65, time=1)\n",
      "Message('note_on', channel=0, note=74, velocity=0, time=8)\n",
      "Message('control_change', channel=0, control=64, value=114, time=29)\n",
      "Message('control_change', channel=0, control=64, value=119, time=20)\n",
      "Message('control_change', channel=0, control=64, value=125, time=18)\n",
      "Message('note_on', channel=0, note=69, velocity=0, time=45)\n",
      "Message('note_on', channel=0, note=55, velocity=71, time=31)\n",
      "Message('note_on', channel=0, note=71, velocity=79, time=9)\n",
      "Message('control_change', channel=0, control=64, value=94, time=9)\n",
      "Message('control_change', channel=0, control=64, value=52, time=20)\n",
      "Message('control_change', channel=0, control=64, value=0, time=20)\n",
      "Message('control_change', channel=0, control=67, value=59, time=1)\n",
      "Message('note_on', channel=0, note=75, velocity=77, time=151)\n",
      "Message('control_change', channel=0, control=64, value=9, time=34)\n",
      "Message('control_change', channel=0, control=64, value=20, time=16)\n",
      "Message('note_on', channel=0, note=71, velocity=0, time=8)\n",
      "Message('control_change', channel=0, control=64, value=28, time=11)\n",
      "Message('note_on', channel=0, note=48, velocity=54, time=109)\n",
      "Message('note_on', channel=0, note=55, velocity=0, time=0)\n",
      "Message('note_on', channel=0, note=76, velocity=77, time=3)\n",
      "Message('note_on', channel=0, note=52, velocity=61, time=2)\n",
      "Message('note_on', channel=0, note=75, velocity=0, time=16)\n",
      "Message('note_on', channel=0, note=48, velocity=0, time=61)\n",
      "Message('note_on', channel=0, note=48, velocity=29, time=0)\n",
      "Message('note_on', channel=0, note=79, velocity=72, time=92)\n",
      "Message('note_on', channel=0, note=76, velocity=0, time=12)\n",
      "Message('control_change', channel=0, control=64, value=23, time=25)\n",
      "Message('control_change', channel=0, control=64, value=11, time=77)\n",
      "Message('control_change', channel=0, control=64, value=0, time=20)\n",
      "Message('note_on', channel=0, note=48, velocity=0, time=34)\n",
      "Message('note_on', channel=0, note=79, velocity=0, time=20)\n",
      "Message('note_on', channel=0, note=45, velocity=56, time=5)\n",
      "Message('note_on', channel=0, note=78, velocity=68, time=0)\n",
      "Message('control_change', channel=0, control=64, value=27, time=52)\n",
      "Message('control_change', channel=0, control=64, value=50, time=20)\n",
      "Message('control_change', channel=0, control=64, value=61, time=18)\n",
      "Message('control_change', channel=0, control=64, value=66, time=20)\n",
      "Message('control_change', channel=0, control=64, value=67, time=17)\n",
      "Message('control_change', channel=0, control=64, value=68, time=20)\n",
      "Message('note_on', channel=0, note=72, velocity=65, time=45)\n",
      "Message('note_on', channel=0, note=78, velocity=0, time=11)\n",
      "Message('control_change', channel=0, control=64, value=67, time=89)\n",
      "Message('control_change', channel=0, control=64, value=64, time=21)\n",
      "Message('control_change', channel=0, control=64, value=60, time=18)\n",
      "Message('note_on', channel=0, note=45, velocity=0, time=33)\n",
      "Message('note_on', channel=0, note=72, velocity=0, time=1)\n",
      "Message('note_on', channel=0, note=47, velocity=52, time=21)\n",
      "Message('control_change', channel=0, control=64, value=62, time=4)\n",
      "Message('note_on', channel=0, note=71, velocity=62, time=0)\n",
      "Message('note_on', channel=0, note=51, velocity=54, time=1)\n",
      "Message('note_on', channel=0, note=52, velocity=0, time=14)\n",
      "Message('control_change', channel=0, control=64, value=64, time=3)\n",
      "Message('control_change', channel=0, control=64, value=67, time=20)\n",
      "Message('control_change', channel=0, control=64, value=70, time=18)\n",
      "Message('control_change', channel=0, control=64, value=72, time=94)\n",
      "Message('control_change', channel=0, control=64, value=74, time=18)\n",
      "Message('note_on', channel=0, note=81, velocity=67, time=15)\n",
      "Message('control_change', channel=0, control=64, value=76, time=4)\n",
      "Message('note_on', channel=0, note=71, velocity=0, time=18)\n",
      "Message('note_on', channel=0, note=47, velocity=0, time=34)\n",
      "Message('control_change', channel=0, control=64, value=78, time=25)\n",
      "Message('control_change', channel=0, control=64, value=80, time=36)\n",
      "Message('control_change', channel=0, control=64, value=73, time=57)\n",
      "Message('note_on', channel=0, note=51, velocity=0, time=6)\n",
      "Message('note_on', channel=0, note=81, velocity=0, time=10)\n",
      "Message('control_change', channel=0, control=64, value=64, time=1)\n",
      "Message('note_on', channel=0, note=52, velocity=51, time=3)\n",
      "Message('note_on', channel=0, note=79, velocity=64, time=6)\n",
      "Message('control_change', channel=0, control=64, value=53, time=12)\n",
      "Message('note_on', channel=0, note=40, velocity=42, time=8)\n",
      "Message('control_change', channel=0, control=64, value=50, time=10)\n",
      "Message('control_change', channel=0, control=64, value=48, time=97)\n",
      "Message('note_on', channel=0, note=79, velocity=0, time=44)\n",
      "Message('note_on', channel=0, note=75, velocity=74, time=3)\n",
      "Message('control_change', channel=0, control=64, value=44, time=62)\n",
      "Message('note_on', channel=0, note=40, velocity=0, time=0)\n",
      "Message('note_on', channel=0, note=76, velocity=77, time=119)\n",
      "Message('note_on', channel=0, note=52, velocity=0, time=1)\n",
      "Message('note_on', channel=0, note=75, velocity=0, time=3)\n",
      "Message('note_on', channel=0, note=79, velocity=78, time=187)\n",
      "Message('note_on', channel=0, note=76, velocity=0, time=5)\n",
      "Message('control_change', channel=0, control=67, value=63, time=119)\n",
      "Message('note_on', channel=0, note=72, velocity=72, time=78)\n",
      "Message('note_on', channel=0, note=79, velocity=0, time=29)\n",
      "Message('note_on', channel=0, note=72, velocity=0, time=25)\n",
      "Message('note_on', channel=0, note=71, velocity=65, time=23)\n",
      "Message('control_change', channel=0, control=64, value=42, time=51)\n",
      "Message('note_on', channel=0, note=71, velocity=0, time=32)\n",
      "Message('note_on', channel=0, note=72, velocity=76, time=20)\n",
      "Message('note_on', channel=0, note=52, velocity=72, time=2)\n",
      "Message('control_change', channel=0, control=64, value=40, time=117)\n",
      "Message('note_on', channel=0, note=72, velocity=0, time=56)\n",
      "Message('note_on', channel=0, note=54, velocity=64, time=6)\n",
      "Message('note_on', channel=0, note=52, velocity=0, time=10)\n",
      "Message('control_change', channel=0, control=64, value=33, time=61)\n",
      "Message('control_change', channel=0, control=64, value=29, time=74)\n",
      "Message('note_on', channel=0, note=50, velocity=59, time=30)\n",
      "Message('note_on', channel=0, note=72, velocity=72, time=2)\n",
      "Message('control_change', channel=0, control=64, value=0, time=5)\n",
      "Message('note_on', channel=0, note=54, velocity=0, time=17)\n",
      "Message('note_on', channel=0, note=72, velocity=0, time=23)\n",
      "Message('note_on', channel=0, note=55, velocity=57, time=172)\n",
      "Message('note_on', channel=0, note=50, velocity=0, time=1)\n",
      "Message('note_on', channel=0, note=72, velocity=55, time=6)\n",
      "Message('control_change', channel=0, control=64, value=28, time=98)\n",
      "Message('control_change', channel=0, control=64, value=42, time=20)\n",
      "Message('note_on', channel=0, note=55, velocity=0, time=6)\n",
      "Message('control_change', channel=0, control=64, value=46, time=13)\n",
      "Message('note_on', channel=0, note=69, velocity=60, time=26)\n",
      "Message('note_on', channel=0, note=72, velocity=0, time=58)\n",
      "Message('control_change', channel=0, control=64, value=42, time=49)\n",
      "Message('control_change', channel=0, control=64, value=33, time=19)\n",
      "Message('control_change', channel=0, control=64, value=0, time=37)\n",
      "Message('note_on', channel=0, note=69, velocity=0, time=24)\n",
      "Message('note_on', channel=0, note=43, velocity=56, time=6)\n",
      "Message('note_on', channel=0, note=71, velocity=60, time=10)\n",
      "Message('control_change', channel=0, control=64, value=28, time=54)\n",
      "Message('control_change', channel=0, control=64, value=42, time=18)\n",
      "Message('control_change', channel=0, control=64, value=53, time=20)\n",
      "Message('control_change', channel=0, control=64, value=62, time=18)\n",
      "Message('control_change', channel=0, control=64, value=69, time=18)\n",
      "Message('control_change', channel=0, control=64, value=72, time=19)\n",
      "Message('note_on', channel=0, note=71, velocity=0, time=8)\n",
      "Message('note_on', channel=0, note=43, velocity=0, time=2)\n",
      "Message('note_on', channel=0, note=76, velocity=60, time=19)\n",
      "Message('control_change', channel=0, control=64, value=75, time=67)\n",
      "Message('control_change', channel=0, control=64, value=70, time=113)\n",
      "Message('note_on', channel=0, note=69, velocity=70, time=18)\n",
      "Message('control_change', channel=0, control=64, value=63, time=2)\n",
      "Message('control_change', channel=0, control=64, value=54, time=18)\n",
      "Message('note_on', channel=0, note=76, velocity=0, time=9)\n",
      "Message('control_change', channel=0, control=64, value=36, time=10)\n",
      "Message('note_on', channel=0, note=69, velocity=0, time=4)\n",
      "Message('control_change', channel=0, control=64, value=0, time=14)\n",
      "Message('note_on', channel=0, note=67, velocity=60, time=24)\n",
      "Message('note_on', channel=0, note=67, velocity=0, time=68)\n",
      "Message('note_on', channel=0, note=49, velocity=66, time=43)\n",
      "Message('note_on', channel=0, note=69, velocity=65, time=2)\n",
      "Message('note_on', channel=0, note=51, velocity=71, time=190)\n",
      "Message('note_on', channel=0, note=49, velocity=0, time=16)\n",
      "Message('note_on', channel=0, note=69, velocity=0, time=16)\n",
      "Message('note_on', channel=0, note=47, velocity=57, time=155)\n",
      "Message('note_on', channel=0, note=69, velocity=72, time=15)\n",
      "Message('note_on', channel=0, note=51, velocity=0, time=8)\n",
      "Message('note_on', channel=0, note=69, velocity=0, time=39)\n",
      "Message('control_change', channel=0, control=64, value=18, time=137)\n",
      "Message('note_on', channel=0, note=52, velocity=61, time=6)\n",
      "Message('note_on', channel=0, note=69, velocity=67, time=3)\n",
      "Message('note_on', channel=0, note=47, velocity=0, time=1)\n",
      "Message('control_change', channel=0, control=64, value=9, time=10)\n",
      "Message('control_change', channel=0, control=64, value=0, time=19)\n",
      "Message('note_on', channel=0, note=52, velocity=0, time=70)\n",
      "Message('control_change', channel=0, control=64, value=13, time=4)\n",
      "Message('control_change', channel=0, control=64, value=0, time=38)\n",
      "Message('note_on', channel=0, note=69, velocity=0, time=32)\n",
      "Message('note_on', channel=0, note=66, velocity=59, time=1)\n",
      "Message('note_on', channel=0, note=66, velocity=0, time=176)\n",
      "Message('note_on', channel=0, note=40, velocity=52, time=33)\n",
      "Message('note_on', channel=0, note=67, velocity=59, time=5)\n",
      "Message('control_change', channel=0, control=64, value=13, time=34)\n",
      "Message('control_change', channel=0, control=64, value=23, time=18)\n",
      "Message('control_change', channel=0, control=64, value=33, time=39)\n",
      "Message('control_change', channel=0, control=64, value=45, time=19)\n",
      "Message('control_change', channel=0, control=64, value=57, time=17)\n",
      "Message('note_on', channel=0, note=67, velocity=0, time=7)\n",
      "Message('control_change', channel=0, control=64, value=65, time=13)\n",
      "Message('note_on', channel=0, note=40, velocity=0, time=7)\n",
      "Message('control_change', channel=0, control=64, value=68, time=13)\n",
      "Message('note_on', channel=0, note=72, velocity=58, time=2)\n",
      "Message('control_change', channel=0, control=64, value=70, time=72)\n",
      "Message('control_change', channel=0, control=64, value=67, time=38)\n",
      "Message('control_change', channel=0, control=64, value=62, time=19)\n",
      "Message('note_on', channel=0, note=72, velocity=0, time=6)\n",
      "Message('note_on', channel=0, note=72, velocity=8, time=0)\n",
      "Message('control_change', channel=0, control=64, value=56, time=14)\n",
      "Message('control_change', channel=0, control=64, value=53, time=15)\n",
      "Message('control_change', channel=0, control=64, value=48, time=43)\n",
      "Message('note_on', channel=0, note=72, velocity=0, time=1)\n",
      "Message('note_on', channel=0, note=65, velocity=58, time=1)\n",
      "Message('control_change', channel=0, control=64, value=41, time=14)\n",
      "Message('control_change', channel=0, control=64, value=36, time=18)\n",
      "Message('note_on', channel=0, note=65, velocity=0, time=10)\n",
      "Message('control_change', channel=0, control=64, value=30, time=28)\n",
      "Message('note_on', channel=0, note=64, velocity=48, time=10)\n",
      "Message('control_change', channel=0, control=64, value=19, time=27)\n",
      "Message('control_change', channel=0, control=64, value=11, time=18)\n",
      "Message('note_on', channel=0, note=64, velocity=0, time=9)\n",
      "Message('note_on', channel=0, note=65, velocity=57, time=37)\n",
      "Message('note_on', channel=0, note=45, velocity=57, time=5)\n",
      "Message('control_change', channel=0, control=64, value=0, time=46)\n",
      "Message('note_on', channel=0, note=45, velocity=0, time=142)\n",
      "Message('note_on', channel=0, note=47, velocity=57, time=1)\n",
      "Message('note_on', channel=0, note=65, velocity=0, time=37)\n",
      "Message('note_on', channel=0, note=43, velocity=54, time=155)\n",
      "Message('note_on', channel=0, note=65, velocity=60, time=17)\n",
      "Message('note_on', channel=0, note=47, velocity=0, time=22)\n",
      "Message('note_on', channel=0, note=65, velocity=0, time=30)\n",
      "Message('note_on', channel=0, note=65, velocity=58, time=153)\n",
      "Message('note_on', channel=0, note=43, velocity=0, time=14)\n",
      "Message('note_on', channel=0, note=48, velocity=55, time=4)\n",
      "Message('control_change', channel=0, control=64, value=36, time=27)\n",
      "Message('control_change', channel=0, control=64, value=54, time=14)\n",
      "Message('control_change', channel=0, control=64, value=60, time=19)\n",
      "Message('note_on', channel=0, note=48, velocity=0, time=87)\n",
      "Message('note_on', channel=0, note=63, velocity=60, time=19)\n",
      "Message('control_change', channel=0, control=64, value=58, time=28)\n",
      "Message('note_on', channel=0, note=65, velocity=0, time=1)\n",
      "Message('control_change', channel=0, control=64, value=56, time=92)\n",
      "Message('control_change', channel=0, control=64, value=54, time=39)\n",
      "Message('note_on', channel=0, note=63, velocity=0, time=14)\n",
      "Message('note_on', channel=0, note=64, velocity=62, time=10)\n",
      "Message('note_on', channel=0, note=49, velocity=55, time=2)\n",
      "Message('note_on', channel=0, note=49, velocity=0, time=139)\n",
      "Message('note_on', channel=0, note=64, velocity=0, time=21)\n",
      "Message('note_on', channel=0, note=69, velocity=61, time=3)\n",
      "Message('control_change', channel=0, control=64, value=52, time=17)\n",
      "Message('note_on', channel=0, note=50, velocity=65, time=202)\n",
      "Message('note_on', channel=0, note=67, velocity=66, time=9)\n",
      "Message('note_on', channel=0, note=69, velocity=0, time=22)\n",
      "Message('note_on', channel=0, note=50, velocity=0, time=120)\n",
      "Message('note_on', channel=0, note=67, velocity=0, time=12)\n",
      "Message('note_on', channel=0, note=64, velocity=62, time=15)\n",
      "Message('note_on', channel=0, note=64, velocity=0, time=168)\n",
      "Message('note_on', channel=0, note=51, velocity=71, time=14)\n",
      "Message('note_on', channel=0, note=66, velocity=66, time=1)\n",
      "Message('note_on', channel=0, note=51, velocity=0, time=138)\n",
      "Message('note_on', channel=0, note=66, velocity=0, time=38)\n",
      "Message('note_on', channel=0, note=71, velocity=50, time=13)\n",
      "Message('note_on', channel=0, note=72, velocity=38, time=37)\n",
      "Message('control_change', channel=0, control=64, value=48, time=21)\n",
      "Message('control_change', channel=0, control=64, value=42, time=19)\n",
      "Message('note_on', channel=0, note=72, velocity=0, time=2)\n",
      "Message('control_change', channel=0, control=64, value=13, time=17)\n",
      "Message('control_change', channel=0, control=64, value=0, time=18)\n",
      "Message('note_on', channel=0, note=52, velocity=62, time=76)\n",
      "Message('note_on', channel=0, note=69, velocity=70, time=8)\n",
      "Message('control_change', channel=0, control=64, value=19, time=8)\n",
      "Message('note_on', channel=0, note=71, velocity=0, time=13)\n",
      "Message('control_change', channel=0, control=64, value=53, time=7)\n",
      "Message('control_change', channel=0, control=64, value=68, time=19)\n",
      "Message('control_change', channel=0, control=64, value=76, time=21)\n",
      "Message('control_change', channel=0, control=64, value=84, time=18)\n",
      "Message('control_change', channel=0, control=64, value=92, time=20)\n",
      "Message('control_change', channel=0, control=64, value=100, time=18)\n",
      "Message('control_change', channel=0, control=64, value=105, time=21)\n",
      "Message('note_on', channel=0, note=52, velocity=0, time=23)\n",
      "Message('note_on', channel=0, note=66, velocity=66, time=26)\n",
      "Message('control_change', channel=0, control=64, value=110, time=21)\n",
      "Message('note_on', channel=0, note=69, velocity=0, time=9)\n",
      "Message('control_change', channel=0, control=64, value=102, time=123)\n",
      "Message('control_change', channel=0, control=64, value=93, time=19)\n",
      "Message('note_on', channel=0, note=66, velocity=0, time=4)\n",
      "Message('control_change', channel=0, control=64, value=83, time=16)\n",
      "Message('note_on', channel=0, note=40, velocity=63, time=2)\n",
      "Message('note_on', channel=0, note=67, velocity=72, time=1)\n",
      "Message('control_change', channel=0, control=64, value=72, time=13)\n",
      "Message('control_change', channel=0, control=64, value=62, time=20)\n",
      "Message('control_change', channel=0, control=64, value=55, time=18)\n",
      "Message('note_on', channel=0, note=40, velocity=0, time=59)\n",
      "Message('control_change', channel=0, control=64, value=53, time=16)\n",
      "Message('control_change', channel=0, control=64, value=50, time=21)\n",
      "Message('control_change', channel=0, control=64, value=46, time=18)\n",
      "Message('note_on', channel=0, note=72, velocity=74, time=9)\n",
      "Message('control_change', channel=0, control=64, value=44, time=9)\n",
      "Message('note_on', channel=0, note=67, velocity=0, time=5)\n",
      "Message('control_change', channel=0, control=64, value=42, time=92)\n",
      "Message('control_change', channel=0, control=64, value=40, time=17)\n",
      "Message('note_on', channel=0, note=42, velocity=66, time=56)\n",
      "Message('note_on', channel=0, note=71, velocity=78, time=18)\n",
      "Message('note_on', channel=0, note=72, velocity=0, time=17)\n",
      "Message('note_on', channel=0, note=42, velocity=0, time=126)\n",
      "Message('note_on', channel=0, note=71, velocity=0, time=12)\n",
      "Message('note_on', channel=0, note=67, velocity=76, time=14)\n",
      "Message('control_change', channel=0, control=64, value=33, time=97)\n",
      "Message('control_change', channel=0, control=64, value=0, time=20)\n",
      "Message('note_on', channel=0, note=54, velocity=74, time=93)\n",
      "Message('note_on', channel=0, note=67, velocity=0, time=1)\n",
      "Message('note_on', channel=0, note=69, velocity=80, time=0)\n",
      "Message('control_change', channel=0, control=64, value=18, time=14)\n",
      "Message('control_change', channel=0, control=64, value=48, time=20)\n",
      "Message('control_change', channel=0, control=64, value=61, time=18)\n",
      "Message('control_change', channel=0, control=64, value=66, time=18)\n",
      "Message('control_change', channel=0, control=64, value=68, time=19)\n",
      "Message('note_on', channel=0, note=54, velocity=0, time=55)\n",
      "Message('control_change', channel=0, control=64, value=70, time=21)\n",
      "Message('note_on', channel=0, note=74, velocity=71, time=12)\n",
      "Message('note_on', channel=0, note=69, velocity=0, time=4)\n",
      "Message('control_change', channel=0, control=64, value=66, time=116)\n",
      "Message('control_change', channel=0, control=64, value=60, time=18)\n",
      "Message('control_change', channel=0, control=64, value=52, time=19)\n",
      "Message('control_change', channel=0, control=64, value=39, time=22)\n",
      "Message('control_change', channel=0, control=64, value=23, time=17)\n",
      "Message('note_on', channel=0, note=55, velocity=65, time=4)\n",
      "Message('note_on', channel=0, note=72, velocity=76, time=0)\n",
      "Message('note_on', channel=0, note=74, velocity=0, time=8)\n",
      "Message('control_change', channel=0, control=64, value=34, time=45)\n",
      "Message('control_change', channel=0, control=64, value=44, time=20)\n",
      "Message('control_change', channel=0, control=64, value=54, time=16)\n",
      "Message('control_change', channel=0, control=64, value=58, time=20)\n",
      "Message('control_change', channel=0, control=64, value=61, time=39)\n",
      "Message('control_change', channel=0, control=64, value=65, time=16)\n",
      "Message('note_on', channel=0, note=69, velocity=72, time=11)\n",
      "Message('control_change', channel=0, control=64, value=68, time=9)\n",
      "Message('note_on', channel=0, note=72, velocity=0, time=3)\n",
      "Message('control_change', channel=0, control=64, value=71, time=16)\n",
      "Message('control_change', channel=0, control=64, value=73, time=20)\n",
      "Message('control_change', channel=0, control=64, value=75, time=38)\n",
      "Message('control_change', channel=0, control=64, value=69, time=55)\n",
      "Message('control_change', channel=0, control=64, value=53, time=20)\n",
      "Message('note_on', channel=0, note=69, velocity=0, time=0)\n",
      "Message('control_change', channel=0, control=64, value=0, time=19)\n",
      "Message('note_on', channel=0, note=71, velocity=76, time=3)\n",
      "Message('note_on', channel=0, note=43, velocity=65, time=6)\n",
      "Message('control_change', channel=0, control=64, value=18, time=28)\n",
      "Message('control_change', channel=0, control=64, value=55, time=18)\n",
      "Message('control_change', channel=0, control=64, value=76, time=20)\n",
      "Message('control_change', channel=0, control=64, value=95, time=18)\n",
      "Message('control_change', channel=0, control=64, value=116, time=19)\n",
      "Message('control_change', channel=0, control=64, value=127, time=20)\n",
      "Message('note_on', channel=0, note=74, velocity=80, time=40)\n",
      "Message('note_on', channel=0, note=43, velocity=0, time=11)\n",
      "Message('note_on', channel=0, note=71, velocity=0, time=7)\n",
      "Message('note_on', channel=0, note=74, velocity=0, time=32)\n",
      "Message('note_on', channel=0, note=55, velocity=0, time=66)\n",
      "Message('note_on', channel=0, note=79, velocity=81, time=106)\n",
      "Message('control_change', channel=0, control=64, value=123, time=54)\n",
      "Message('control_change', channel=0, control=64, value=103, time=20)\n",
      "Message('note_on', channel=0, note=78, velocity=82, time=2)\n",
      "Message('note_on', channel=0, note=79, velocity=0, time=4)\n",
      "Message('control_change', channel=0, control=64, value=77, time=13)\n",
      "Message('control_change', channel=0, control=64, value=51, time=19)\n",
      "Message('control_change', channel=0, control=64, value=0, time=18)\n",
      "Message('note_on', channel=0, note=78, velocity=0, time=14)\n",
      "Message('note_on', channel=0, note=79, velocity=82, time=21)\n",
      "Message('note_on', channel=0, note=52, velocity=67, time=23)\n",
      "Message('note_on', channel=0, note=55, velocity=69, time=179)\n",
      "Message('note_on', channel=0, note=52, velocity=0, time=24)\n",
      "Message('control_change', channel=0, control=64, value=23, time=4)\n",
      "Message('control_change', channel=0, control=64, value=43, time=20)\n",
      "Message('control_change', channel=0, control=64, value=56, time=18)\n",
      "Message('control_change', channel=0, control=64, value=63, time=19)\n",
      "Message('control_change', channel=0, control=64, value=67, time=19)\n",
      "Message('note_on', channel=0, note=79, velocity=0, time=8)\n",
      "Message('control_change', channel=0, control=64, value=70, time=11)\n",
      "Message('control_change', channel=0, control=64, value=73, time=19)\n",
      "Message('control_change', channel=0, control=64, value=77, time=17)\n",
      "Message('control_change', channel=0, control=64, value=83, time=18)\n",
      "Message('note_on', channel=0, note=59, velocity=67, time=3)\n",
      "Message('note_on', channel=0, note=79, velocity=82, time=4)\n",
      "Message('note_on', channel=0, note=55, velocity=0, time=3)\n",
      "Message('control_change', channel=0, control=64, value=90, time=13)\n",
      "Message('control_change', channel=0, control=64, value=96, time=16)\n",
      "Message('control_change', channel=0, control=64, value=101, time=20)\n",
      "Message('note_on', channel=0, note=79, velocity=0, time=13)\n",
      "Message('control_change', channel=0, control=64, value=106, time=24)\n",
      "Message('control_change', channel=0, control=64, value=113, time=38)\n",
      "Message('control_change', channel=0, control=64, value=117, time=19)\n",
      "Message('note_on', channel=0, note=79, velocity=81, time=50)\n",
      "Message('control_change', channel=0, control=64, value=111, time=7)\n",
      "Message('note_on', channel=0, note=48, velocity=65, time=24)\n",
      "Message('note_on', channel=0, note=59, velocity=0, time=4)\n",
      "Message('control_change', channel=0, control=64, value=96, time=5)\n",
      "Message('control_change', channel=0, control=64, value=74, time=20)\n",
      "Message('control_change', channel=0, control=64, value=50, time=19)\n",
      "Message('control_change', channel=0, control=64, value=36, time=18)\n",
      "Message('control_change', channel=0, control=64, value=40, time=57)\n",
      "Message('control_change', channel=0, control=64, value=42, time=18)\n",
      "Message('note_on', channel=0, note=71, velocity=62, time=48)\n",
      "Message('note_on', channel=0, note=71, velocity=0, time=148)\n",
      "Message('note_on', channel=0, note=55, velocity=59, time=22)\n",
      "Message('note_on', channel=0, note=72, velocity=59, time=1)\n",
      "Message('control_change', channel=0, control=64, value=44, time=28)\n",
      "Message('note_on', channel=0, note=55, velocity=0, time=39)\n",
      "Message('note_on', channel=0, note=76, velocity=58, time=125)\n",
      "Message('note_on', channel=0, note=72, velocity=0, time=2)\n",
      "Message('control_change', channel=0, control=64, value=39, time=59)\n",
      "Message('control_change', channel=0, control=64, value=32, time=19)\n",
      "Message('control_change', channel=0, control=64, value=25, time=19)\n",
      "Message('control_change', channel=0, control=64, value=32, time=56)\n",
      "Message('control_change', channel=0, control=64, value=49, time=18)\n",
      "Message('note_on', channel=0, note=76, velocity=0, time=3)\n",
      "Message('note_on', channel=0, note=60, velocity=62, time=4)\n",
      "Message('note_on', channel=0, note=69, velocity=66, time=7)\n",
      "Message('control_change', channel=0, control=64, value=62, time=6)\n",
      "Message('note_on', channel=0, note=79, velocity=0, time=15)\n",
      "Message('control_change', channel=0, control=64, value=72, time=3)\n",
      "Message('note_on', channel=0, note=48, velocity=0, time=16)\n",
      "Message('control_change', channel=0, control=64, value=81, time=4)\n",
      "Message('control_change', channel=0, control=64, value=91, time=18)\n",
      "Message('control_change', channel=0, control=64, value=100, time=20)\n",
      "Message('control_change', channel=0, control=64, value=107, time=19)\n",
      "Message('control_change', channel=0, control=64, value=111, time=18)\n",
      "Message('control_change', channel=0, control=64, value=117, time=39)\n",
      "Message('note_on', channel=0, note=79, velocity=79, time=22)\n",
      "Message('control_change', channel=0, control=64, value=112, time=181)\n",
      "Message('note_on', channel=0, note=57, velocity=68, time=14)\n",
      "Message('control_change', channel=0, control=64, value=97, time=5)\n",
      "Message('note_on', channel=0, note=78, velocity=79, time=9)\n",
      "Message('control_change', channel=0, control=64, value=74, time=11)\n",
      "Message('note_on', channel=0, note=79, velocity=0, time=9)\n",
      "Message('control_change', channel=0, control=64, value=50, time=9)\n",
      "Message('control_change', channel=0, control=64, value=39, time=19)\n",
      "Message('note_on', channel=0, note=60, velocity=0, time=1)\n",
      "Message('control_change', channel=0, control=64, value=43, time=19)\n",
      "Message('control_change', channel=0, control=64, value=54, time=19)\n",
      "Message('control_change', channel=0, control=64, value=63, time=17)\n",
      "Message('control_change', channel=0, control=64, value=67, time=19)\n",
      "Message('control_change', channel=0, control=64, value=70, time=21)\n",
      "Message('control_change', channel=0, control=64, value=74, time=17)\n",
      "Message('note_on', channel=0, note=78, velocity=0, time=17)\n",
      "Message('control_change', channel=0, control=64, value=77, time=1)\n",
      "Message('note_on', channel=0, note=81, velocity=75, time=2)\n",
      "Message('control_change', channel=0, control=64, value=79, time=17)\n",
      "Message('control_change', channel=0, control=64, value=81, time=39)\n",
      "Message('control_change', channel=0, control=64, value=83, time=37)\n",
      "Message('control_change', channel=0, control=64, value=86, time=22)\n",
      "Message('note_on', channel=0, note=81, velocity=0, time=10)\n",
      "Message('control_change', channel=0, control=64, value=83, time=64)\n",
      "Message('note_on', channel=0, note=59, velocity=62, time=1)\n",
      "Message('note_on', channel=0, note=57, velocity=0, time=1)\n",
      "Message('note_on', channel=0, note=75, velocity=71, time=8)\n",
      "Message('control_change', channel=0, control=64, value=76, time=5)\n",
      "Message('control_change', channel=0, control=64, value=69, time=20)\n",
      "Message('control_change', channel=0, control=64, value=63, time=20)\n",
      "Message('note_on', channel=0, note=69, velocity=0, time=5)\n",
      "Message('control_change', channel=0, control=64, value=61, time=14)\n",
      "Message('control_change', channel=0, control=64, value=63, time=58)\n",
      "Message('control_change', channel=0, control=64, value=64, time=19)\n",
      "Message('control_change', channel=0, control=64, value=63, time=55)\n",
      "Message('note_on', channel=0, note=69, velocity=62, time=6)\n",
      "Message('control_change', channel=0, control=64, value=62, time=32)\n",
      "Message('control_change', channel=0, control=64, value=61, time=75)\n",
      "Message('control_change', channel=0, control=64, value=58, time=19)\n",
      "Message('control_change', channel=0, control=64, value=50, time=21)\n",
      "Message('control_change', channel=0, control=64, value=32, time=18)\n",
      "Message('control_change', channel=0, control=64, value=0, time=19)\n",
      "Message('note_on', channel=0, note=67, velocity=60, time=2)\n",
      "Message('note_on', channel=0, note=52, velocity=57, time=23)\n",
      "Message('note_on', channel=0, note=59, velocity=0, time=6)\n",
      "Message('control_change', channel=0, control=64, value=29, time=76)\n",
      "Message('note_on', channel=0, note=75, velocity=0, time=2)\n",
      "Message('control_change', channel=0, control=64, value=48, time=18)\n",
      "Message('control_change', channel=0, control=64, value=62, time=19)\n",
      "Message('note_on', channel=0, note=67, velocity=0, time=4)\n",
      "Message('control_change', channel=0, control=64, value=70, time=15)\n",
      "Message('control_change', channel=0, control=64, value=75, time=18)\n",
      "Message('note_on', channel=0, note=76, velocity=75, time=8)\n",
      "Message('control_change', channel=0, control=64, value=77, time=31)\n",
      "Message('note_on', channel=0, note=69, velocity=0, time=17)\n",
      "Message('control_change', channel=0, control=64, value=80, time=40)\n",
      "Message('control_change', channel=0, control=64, value=77, time=73)\n",
      "Message('control_change', channel=0, control=64, value=74, time=20)\n",
      "Message('control_change', channel=0, control=64, value=69, time=18)\n",
      "Message('note_on', channel=0, note=59, velocity=59, time=1)\n",
      "Message('note_on', channel=0, note=66, velocity=70, time=4)\n",
      "Message('note_on', channel=0, note=52, velocity=0, time=8)\n",
      "Message('control_change', channel=0, control=64, value=67, time=8)\n",
      "Message('control_change', channel=0, control=64, value=65, time=19)\n",
      "Message('note_on', channel=0, note=76, velocity=0, time=33)\n",
      "Message('control_change', channel=0, control=64, value=64, time=99)\n",
      "Message('note_on', channel=0, note=69, velocity=69, time=4)\n",
      "Message('control_change', channel=0, control=64, value=62, time=13)\n",
      "Message('control_change', channel=0, control=64, value=61, time=21)\n",
      "Message('control_change', channel=0, control=64, value=60, time=94)\n",
      "Message('control_change', channel=0, control=64, value=54, time=22)\n",
      "Message('control_change', channel=0, control=64, value=44, time=16)\n",
      "Message('control_change', channel=0, control=64, value=38, time=17)\n",
      "Message('note_on', channel=0, note=47, velocity=57, time=9)\n",
      "Message('note_on', channel=0, note=76, velocity=73, time=4)\n",
      "Message('note_on', channel=0, note=66, velocity=0, time=23)\n",
      "Message('note_on', channel=0, note=59, velocity=0, time=16)\n",
      "Message('control_change', channel=0, control=64, value=30, time=24)\n",
      "Message('control_change', channel=0, control=64, value=23, time=19)\n",
      "Message('note_on', channel=0, note=76, velocity=0, time=63)\n",
      "Message('note_on', channel=0, note=75, velocity=72, time=32)\n",
      "Message('note_on', channel=0, note=69, velocity=0, time=26)\n",
      "Message('note_on', channel=0, note=47, velocity=0, time=185)\n",
      "Message('note_on', channel=0, note=76, velocity=67, time=7)\n",
      "Message('note_on', channel=0, note=52, velocity=49, time=18)\n",
      "Message('note_on', channel=0, note=75, velocity=0, time=24)\n",
      "Message('note_on', channel=0, note=71, velocity=54, time=154)\n",
      "Message('note_on', channel=0, note=67, velocity=48, time=183)\n",
      "Message('note_on', channel=0, note=59, velocity=49, time=195)\n",
      "Message('note_on', channel=0, note=52, velocity=0, time=124)\n",
      "Message('note_on', channel=0, note=59, velocity=0, time=103)\n",
      "Message('note_on', channel=0, note=64, velocity=55, time=7)\n",
      "Message('note_on', channel=0, note=61, velocity=69, time=174)\n",
      "Message('note_on', channel=0, note=64, velocity=0, time=4)\n",
      "Message('note_on', channel=0, note=62, velocity=72, time=190)\n",
      "Message('note_on', channel=0, note=61, velocity=0, time=18)\n",
      "Message('note_on', channel=0, note=59, velocity=64, time=161)\n",
      "Message('note_on', channel=0, note=62, velocity=0, time=14)\n",
      "Message('control_change', channel=0, control=64, value=19, time=45)\n",
      "Message('note_on', channel=0, note=76, velocity=0, time=80)\n",
      "Message('note_on', channel=0, note=59, velocity=0, time=44)\n",
      "Message('note_on', channel=0, note=61, velocity=59, time=15)\n",
      "Message('note_on', channel=0, note=71, velocity=0, time=59)\n",
      "Message('note_on', channel=0, note=69, velocity=56, time=163)\n",
      "Message('note_on', channel=0, note=67, velocity=0, time=1)\n",
      "Message('note_on', channel=0, note=71, velocity=66, time=182)\n",
      "Message('note_on', channel=0, note=69, velocity=0, time=21)\n",
      "Message('note_on', channel=0, note=67, velocity=70, time=152)\n",
      "Message('note_on', channel=0, note=71, velocity=0, time=7)\n",
      "Message('note_on', channel=0, note=76, velocity=63, time=190)\n",
      "Message('note_on', channel=0, note=67, velocity=0, time=18)\n",
      "Message('control_change', channel=0, control=64, value=25, time=7)\n",
      "Message('note_on', channel=0, note=57, velocity=62, time=144)\n",
      "Message('control_change', channel=0, control=64, value=30, time=7)\n",
      "Message('note_on', channel=0, note=61, velocity=0, time=50)\n",
      "Message('control_change', channel=0, control=64, value=26, time=4)\n",
      "Message('control_change', channel=0, control=64, value=31, time=98)\n",
      "Message('note_on', channel=0, note=57, velocity=0, time=31)\n",
      "Message('note_on', channel=0, note=59, velocity=68, time=20)\n",
      "Message('note_on', channel=0, note=67, velocity=60, time=32)\n",
      "Message('note_on', channel=0, note=69, velocity=25, time=33)\n",
      "Message('note_on', channel=0, note=69, velocity=0, time=47)\n",
      "Message('note_on', channel=0, note=61, velocity=69, time=82)\n",
      "Message('note_on', channel=0, note=59, velocity=0, time=10)\n",
      "Message('note_on', channel=0, note=67, velocity=0, time=161)\n",
      "Message('note_on', channel=0, note=62, velocity=62, time=26)\n",
      "Message('note_on', channel=0, note=66, velocity=69, time=3)\n",
      "Message('note_on', channel=0, note=61, velocity=0, time=9)\n",
      "Message('note_on', channel=0, note=76, velocity=0, time=32)\n",
      "Message('control_change', channel=0, control=64, value=25, time=150)\n",
      "Message('note_on', channel=0, note=66, velocity=0, time=4)\n",
      "Message('note_on', channel=0, note=64, velocity=66, time=1)\n",
      "Message('control_change', channel=0, control=64, value=30, time=55)\n",
      "Message('control_change', channel=0, control=64, value=22, time=73)\n",
      "Message('note_on', channel=0, note=66, velocity=76, time=46)\n",
      "Message('control_change', channel=0, control=64, value=28, time=13)\n",
      "Message('note_on', channel=0, note=64, velocity=0, time=3)\n",
      "Message('control_change', channel=0, control=64, value=34, time=149)\n",
      "Message('note_on', channel=0, note=69, velocity=73, time=41)\n",
      "Message('control_change', channel=0, control=64, value=30, time=30)\n",
      "Message('control_change', channel=0, control=64, value=11, time=129)\n",
      "Message('control_change', channel=0, control=64, value=0, time=19)\n",
      "Message('note_on', channel=0, note=72, velocity=76, time=10)\n",
      "Message('control_change', channel=0, control=64, value=28, time=181)\n",
      "Message('note_on', channel=0, note=57, velocity=62, time=6)\n",
      "Message('control_change', channel=0, control=64, value=43, time=11)\n",
      "Message('control_change', channel=0, control=64, value=52, time=21)\n",
      "Message('control_change', channel=0, control=64, value=58, time=18)\n",
      "Message('note_on', channel=0, note=66, velocity=0, time=15)\n",
      "Message('control_change', channel=0, control=64, value=62, time=3)\n",
      "Message('control_change', channel=0, control=64, value=65, time=18)\n",
      "Message('control_change', channel=0, control=64, value=69, time=21)\n",
      "Message('control_change', channel=0, control=64, value=72, time=18)\n",
      "Message('note_on', channel=0, note=69, velocity=0, time=79)\n",
      "Message('note_on', channel=0, note=54, velocity=67, time=2)\n",
      "Message('note_on', channel=0, note=57, velocity=0, time=21)\n",
      "Message('control_change', channel=0, control=64, value=75, time=11)\n",
      "Message('note_on', channel=0, note=50, velocity=65, time=140)\n",
      "Message('note_on', channel=0, note=54, velocity=0, time=8)\n",
      "Message('note_on', channel=0, note=62, velocity=0, time=21)\n",
      "Message('control_change', channel=0, control=64, value=73, time=96)\n",
      "Message('control_change', channel=0, control=64, value=69, time=19)\n",
      "Message('control_change', channel=0, control=64, value=65, time=21)\n",
      "Message('control_change', channel=0, control=64, value=62, time=32)\n",
      "Message('note_on', channel=0, note=50, velocity=0, time=12)\n",
      "Message('note_on', channel=0, note=55, velocity=62, time=17)\n",
      "Message('control_change', channel=0, control=64, value=61, time=46)\n",
      "Message('control_change', channel=0, control=64, value=59, time=18)\n",
      "Message('control_change', channel=0, control=64, value=55, time=18)\n",
      "Message('control_change', channel=0, control=64, value=51, time=21)\n",
      "Message('note_on', channel=0, note=72, velocity=0, time=52)\n",
      "Message('note_on', channel=0, note=69, velocity=65, time=29)\n",
      "Message('control_change', channel=0, control=64, value=49, time=32)\n",
      "Message('note_on', channel=0, note=71, velocity=70, time=159)\n",
      "Message('note_on', channel=0, note=69, velocity=0, time=22)\n",
      "Message('note_on', channel=0, note=72, velocity=42, time=21)\n",
      "Message('note_on', channel=0, note=72, velocity=0, time=1)\n",
      "Message('control_change', channel=0, control=64, value=47, time=80)\n",
      "Message('note_on', channel=0, note=74, velocity=79, time=50)\n",
      "Message('note_on', channel=0, note=71, velocity=0, time=12)\n",
      "Message('note_on', channel=0, note=77, velocity=78, time=184)\n",
      "Message('note_on', channel=0, note=74, velocity=0, time=14)\n",
      "Message('control_change', channel=0, control=64, value=44, time=2)\n",
      "Message('note_on', channel=0, note=57, velocity=56, time=177)\n",
      "Message('note_on', channel=0, note=72, velocity=63, time=3)\n",
      "Message('note_on', channel=0, note=55, velocity=0, time=3)\n",
      "Message('note_on', channel=0, note=72, velocity=0, time=175)\n",
      "Message('note_on', channel=0, note=74, velocity=70, time=3)\n",
      "Message('note_on', channel=0, note=59, velocity=56, time=4)\n",
      "Message('note_on', channel=0, note=57, velocity=0, time=23)\n",
      "Message('note_on', channel=0, note=74, velocity=0, time=143)\n",
      "Message('note_on', channel=0, note=55, velocity=52, time=12)\n",
      "Message('note_on', channel=0, note=71, velocity=71, time=1)\n",
      "Message('note_on', channel=0, note=59, velocity=0, time=11)\n",
      "Message('note_on', channel=0, note=60, velocity=63, time=200)\n",
      "Message('note_on', channel=0, note=71, velocity=0, time=0)\n",
      "Message('note_on', channel=0, note=55, velocity=0, time=7)\n",
      "Message('note_on', channel=0, note=67, velocity=62, time=0)\n",
      "Message('control_change', channel=0, control=64, value=42, time=106)\n",
      "Message('control_change', channel=0, control=64, value=37, time=17)\n",
      "Message('control_change', channel=0, control=64, value=23, time=20)\n",
      "Message('control_change', channel=0, control=64, value=0, time=17)\n",
      "Message('note_on', channel=0, note=71, velocity=73, time=14)\n",
      "Message('note_on', channel=0, note=67, velocity=0, time=7)\n",
      "Message('control_change', channel=0, control=64, value=20, time=74)\n",
      "Message('control_change', channel=0, control=64, value=30, time=18)\n",
      "Message('control_change', channel=0, control=64, value=38, time=19)\n",
      "Message('control_change', channel=0, control=64, value=47, time=19)\n",
      "Message('control_change', channel=0, control=64, value=57, time=19)\n",
      "Message('control_change', channel=0, control=64, value=63, time=19)\n",
      "Message('note_on', channel=0, note=72, velocity=79, time=32)\n",
      "Message('control_change', channel=0, control=64, value=65, time=3)\n",
      "Message('note_on', channel=0, note=71, velocity=0, time=34)\n",
      "Message('control_change', channel=0, control=64, value=63, time=3)\n",
      "Message('control_change', channel=0, control=64, value=61, time=20)\n",
      "Message('note_on', channel=0, note=77, velocity=0, time=4)\n",
      "Message('control_change', channel=0, control=64, value=64, time=73)\n",
      "Message('note_on', channel=0, note=76, velocity=82, time=27)\n",
      "Message('note_on', channel=0, note=72, velocity=0, time=8)\n",
      "Message('control_change', channel=0, control=64, value=66, time=57)\n",
      "Message('control_change', channel=0, control=64, value=67, time=19)\n",
      "Message('control_change', channel=0, control=64, value=63, time=74)\n",
      "Message('note_on', channel=0, note=76, velocity=0, time=11)\n",
      "Message('control_change', channel=0, control=64, value=60, time=8)\n",
      "Message('note_on', channel=0, note=78, velocity=82, time=13)\n",
      "Message('control_change', channel=0, control=64, value=62, time=43)\n",
      "Message('control_change', channel=0, control=64, value=65, time=20)\n",
      "Message('control_change', channel=0, control=64, value=66, time=38)\n",
      "Message('control_change', channel=0, control=64, value=67, time=19)\n",
      "Message('control_change', channel=0, control=64, value=70, time=20)\n",
      "Message('control_change', channel=0, control=64, value=72, time=18)\n",
      "Message('note_on', channel=0, note=74, velocity=72, time=10)\n",
      "Message('note_on', channel=0, note=57, velocity=61, time=26)\n",
      "Message('control_change', channel=0, control=64, value=66, time=21)\n",
      "Message('note_on', channel=0, note=60, velocity=0, time=0)\n",
      "Message('control_change', channel=0, control=64, value=58, time=19)\n",
      "Message('control_change', channel=0, control=64, value=56, time=19)\n",
      "Message('control_change', channel=0, control=64, value=60, time=39)\n",
      "Message('control_change', channel=0, control=64, value=62, time=17)\n",
      "Message('note_on', channel=0, note=74, velocity=0, time=10)\n",
      "Message('control_change', channel=0, control=64, value=63, time=12)\n",
      "Message('control_change', channel=0, control=64, value=66, time=15)\n",
      "Message('control_change', channel=0, control=64, value=68, time=20)\n",
      "Message('note_on', channel=0, note=79, velocity=83, time=1)\n",
      "Message('note_on', channel=0, note=59, velocity=67, time=11)\n",
      "Message('control_change', channel=0, control=64, value=71, time=26)\n",
      "Message('control_change', channel=0, control=64, value=74, time=17)\n",
      "Message('note_on', channel=0, note=57, velocity=0, time=4)\n",
      "Message('control_change', channel=0, control=64, value=76, time=34)\n",
      "Message('note_on', channel=0, note=59, velocity=0, time=58)\n",
      "Message('note_on', channel=0, note=79, velocity=0, time=27)\n",
      "Message('note_on', channel=0, note=62, velocity=64, time=5)\n",
      "Message('note_on', channel=0, note=74, velocity=74, time=2)\n",
      "Message('note_on', channel=0, note=78, velocity=0, time=2)\n",
      "Message('control_change', channel=0, control=64, value=78, time=74)\n",
      "Message('control_change', channel=0, control=64, value=82, time=39)\n",
      "Message('control_change', channel=0, control=64, value=85, time=17)\n",
      "Message('control_change', channel=0, control=64, value=77, time=58)\n",
      "Message('control_change', channel=0, control=64, value=68, time=17)\n",
      "Message('note_on', channel=0, note=81, velocity=78, time=9)\n",
      "Message('note_on', channel=0, note=54, velocity=67, time=1)\n",
      "Message('control_change', channel=0, control=64, value=61, time=8)\n",
      "Message('note_on', channel=0, note=74, velocity=0, time=9)\n",
      "Message('note_on', channel=0, note=79, velocity=58, time=9)\n",
      "Message('control_change', channel=0, control=64, value=63, time=21)\n",
      "Message('note_on', channel=0, note=79, velocity=0, time=10)\n",
      "Message('note_on', channel=0, note=62, velocity=0, time=2)\n",
      "Message('control_change', channel=0, control=64, value=65, time=7)\n",
      "Message('control_change', channel=0, control=64, value=66, time=19)\n",
      "Message('control_change', channel=0, control=64, value=67, time=20)\n",
      "Message('control_change', channel=0, control=64, value=71, time=55)\n",
      "Message('note_on', channel=0, note=54, velocity=0, time=9)\n",
      "Message('note_on', channel=0, note=57, velocity=63, time=3)\n",
      "Message('control_change', channel=0, control=64, value=74, time=6)\n",
      "Message('note_on', channel=0, note=74, velocity=76, time=5)\n",
      "Message('note_on', channel=0, note=81, velocity=0, time=9)\n",
      "Message('control_change', channel=0, control=64, value=76, time=6)\n",
      "Message('control_change', channel=0, control=64, value=73, time=94)\n",
      "Message('control_change', channel=0, control=64, value=66, time=19)\n",
      "Message('control_change', channel=0, control=64, value=50, time=19)\n",
      "Message('control_change', channel=0, control=64, value=0, time=20)\n",
      "Message('note_on', channel=0, note=74, velocity=0, time=24)\n",
      "Message('note_on', channel=0, note=55, velocity=67, time=4)\n",
      "Message('note_on', channel=0, note=57, velocity=0, time=2)\n",
      "Message('note_on', channel=0, note=83, velocity=82, time=0)\n",
      "Message('control_change', channel=0, control=64, value=18, time=6)\n",
      "Message('control_change', channel=0, control=64, value=35, time=20)\n",
      "Message('control_change', channel=0, control=64, value=50, time=20)\n",
      "Message('control_change', channel=0, control=64, value=62, time=17)\n",
      "Message('control_change', channel=0, control=64, value=68, time=22)\n",
      "Message('control_change', channel=0, control=64, value=71, time=17)\n",
      "Message('note_on', channel=0, note=55, velocity=0, time=47)\n",
      "Message('control_change', channel=0, control=64, value=73, time=28)\n",
      "Message('note_on', channel=0, note=59, velocity=67, time=0)\n",
      "Message('note_on', channel=0, note=83, velocity=0, time=3)\n",
      "Message('note_on', channel=0, note=74, velocity=70, time=6)\n",
      "Message('control_change', channel=0, control=64, value=71, time=143)\n",
      "Message('note_on', channel=0, note=74, velocity=0, time=10)\n",
      "Message('control_change', channel=0, control=64, value=68, time=6)\n",
      "Message('control_change', channel=0, control=64, value=65, time=22)\n",
      "Message('note_on', channel=0, note=48, velocity=63, time=11)\n",
      "Message('note_on', channel=0, note=76, velocity=75, time=3)\n",
      "Message('note_on', channel=0, note=59, velocity=0, time=57)\n",
      "Message('control_change', channel=0, control=64, value=62, time=74)\n",
      "Message('control_change', channel=0, control=64, value=60, time=20)\n",
      "Message('note_on', channel=0, note=48, velocity=0, time=27)\n",
      "Message('note_on', channel=0, note=52, velocity=54, time=20)\n",
      "Message('note_on', channel=0, note=71, velocity=63, time=3)\n",
      "Message('note_on', channel=0, note=71, velocity=0, time=161)\n",
      "Message('note_on', channel=0, note=52, velocity=0, time=8)\n",
      "Message('note_on', channel=0, note=45, velocity=46, time=20)\n",
      "Message('note_on', channel=0, note=72, velocity=67, time=4)\n",
      "Message('note_on', channel=0, note=76, velocity=0, time=35)\n",
      "Message('control_change', channel=0, control=64, value=61, time=43)\n",
      "Message('note_on', channel=0, note=81, velocity=75, time=91)\n",
      "Message('control_change', channel=0, control=64, value=62, time=21)\n",
      "Message('note_on', channel=0, note=48, velocity=58, time=6)\n",
      "Message('control_change', channel=0, control=64, value=64, time=13)\n",
      "Message('note_on', channel=0, note=45, velocity=0, time=24)\n",
      "Message('control_change', channel=0, control=64, value=63, time=70)\n",
      "Message('control_change', channel=0, control=64, value=62, time=20)\n",
      "Message('control_change', channel=0, control=64, value=60, time=18)\n",
      "Message('control_change', channel=0, control=64, value=54, time=21)\n",
      "Message('note_on', channel=0, note=79, velocity=75, time=4)\n",
      "Message('note_on', channel=0, note=81, velocity=0, time=12)\n",
      "Message('control_change', channel=0, control=64, value=34, time=1)\n",
      "Message('note_on', channel=0, note=50, velocity=66, time=1)\n",
      "Message('note_on', channel=0, note=48, velocity=0, time=10)\n",
      "Message('control_change', channel=0, control=64, value=0, time=7)\n",
      "Message('control_change', channel=0, control=64, value=18, time=38)\n",
      "Message('control_change', channel=0, control=64, value=37, time=20)\n",
      "Message('control_change', channel=0, control=64, value=53, time=18)\n",
      "Message('control_change', channel=0, control=64, value=62, time=20)\n",
      "Message('control_change', channel=0, control=64, value=64, time=19)\n",
      "Message('control_change', channel=0, control=64, value=63, time=18)\n",
      "Message('note_on', channel=0, note=79, velocity=0, time=4)\n",
      "Message('note_on', channel=0, note=76, velocity=64, time=22)\n",
      "Message('control_change', channel=0, control=64, value=65, time=46)\n",
      "Message('control_change', channel=0, control=64, value=67, time=19)\n",
      "Message('control_change', channel=0, control=64, value=64, time=95)\n",
      "Message('control_change', channel=0, control=64, value=59, time=20)\n",
      "Message('control_change', channel=0, control=64, value=56, time=17)\n",
      "Message('control_change', channel=0, control=64, value=50, time=17)\n",
      "Message('note_on', channel=0, note=76, velocity=0, time=0)\n",
      "Message('note_on', channel=0, note=38, velocity=36, time=5)\n",
      "Message('note_on', channel=0, note=72, velocity=0, time=4)\n",
      "Message('note_on', channel=0, note=78, velocity=58, time=1)\n",
      "Message('control_change', channel=0, control=64, value=45, time=10)\n",
      "Message('control_change', channel=0, control=67, value=67, time=19)\n",
      "Message('control_change', channel=0, control=64, value=48, time=19)\n",
      "Message('note_on', channel=0, note=50, velocity=0, time=18)\n",
      "Message('control_change', channel=0, control=64, value=54, time=1)\n",
      "Message('control_change', channel=0, control=64, value=60, time=19)\n",
      "Message('control_change', channel=0, control=64, value=66, time=20)\n",
      "Message('control_change', channel=0, control=64, value=67, time=17)\n",
      "Message('control_change', channel=0, control=67, value=71, time=19)\n",
      "Message('note_on', channel=0, note=69, velocity=61, time=39)\n",
      "Message('control_change', channel=0, control=64, value=68, time=55)\n",
      "Message('control_change', channel=0, control=64, value=67, time=39)\n",
      "Message('control_change', channel=0, control=64, value=66, time=58)\n",
      "Message('note_on', channel=0, note=69, velocity=0, time=10)\n",
      "Message('control_change', channel=0, control=64, value=63, time=24)\n",
      "Message('note_on', channel=0, note=43, velocity=56, time=0)\n",
      "Message('note_on', channel=0, note=71, velocity=65, time=13)\n",
      "Message('control_change', channel=0, control=64, value=60, time=7)\n",
      "Message('note_on', channel=0, note=78, velocity=0, time=15)\n",
      "Message('control_change', channel=0, control=64, value=57, time=4)\n",
      "Message('note_on', channel=0, note=43, velocity=0, time=56)\n",
      "Message('control_change', channel=0, control=64, value=61, time=20)\n",
      "Message('control_change', channel=0, control=64, value=60, time=58)\n",
      "Message('note_on', channel=0, note=67, velocity=65, time=31)\n",
      "Message('note_on', channel=0, note=71, velocity=0, time=35)\n",
      "Message('control_change', channel=0, control=64, value=57, time=84)\n",
      "Message('note_on', channel=0, note=67, velocity=0, time=83)\n",
      "Message('note_on', channel=0, note=49, velocity=53, time=15)\n",
      "Message('note_on', channel=0, note=76, velocity=66, time=7)\n",
      "Message('control_change', channel=0, control=64, value=48, time=5)\n",
      "Message('control_change', channel=0, control=64, value=0, time=20)\n",
      "Message('note_on', channel=0, note=49, velocity=0, time=37)\n",
      "Message('control_change', channel=0, control=64, value=31, time=58)\n",
      "Message('control_change', channel=0, control=64, value=51, time=16)\n",
      "Message('control_change', channel=0, control=64, value=62, time=19)\n",
      "Message('control_change', channel=0, control=64, value=67, time=18)\n",
      "Message('note_on', channel=0, note=76, velocity=0, time=16)\n",
      "Message('control_change', channel=0, control=64, value=70, time=23)\n",
      "Message('note_on', channel=0, note=67, velocity=58, time=4)\n",
      "Message('control_change', channel=0, control=64, value=72, time=16)\n",
      "Message('note_on', channel=0, note=67, velocity=0, time=133)\n",
      "Message('note_on', channel=0, note=38, velocity=0, time=7)\n",
      "Message('note_on', channel=0, note=50, velocity=54, time=59)\n",
      "Message('control_change', channel=0, control=64, value=70, time=8)\n",
      "Message('note_on', channel=0, note=66, velocity=60, time=6)\n",
      "Message('control_change', channel=0, control=64, value=68, time=52)\n",
      "Message('control_change', channel=0, control=64, value=65, time=18)\n",
      "Message('control_change', channel=0, control=64, value=62, time=17)\n",
      "Message('control_change', channel=0, control=64, value=61, time=95)\n",
      "Message('note_on', channel=0, note=62, velocity=61, time=23)\n",
      "Message('note_on', channel=0, note=66, velocity=0, time=8)\n",
      "Message('note_on', channel=0, note=50, velocity=0, time=4)\n",
      "Message('control_change', channel=0, control=64, value=57, time=3)\n",
      "Message('control_change', channel=0, control=64, value=54, time=133)\n",
      "Message('note_on', channel=0, note=52, velocity=55, time=30)\n",
      "Message('note_on', channel=0, note=62, velocity=0, time=3)\n",
      "Message('note_on', channel=0, note=67, velocity=66, time=5)\n",
      "Message('control_change', channel=0, control=64, value=52, time=128)\n",
      "Message('note_on', channel=0, note=55, velocity=68, time=61)\n",
      "Message('note_on', channel=0, note=67, velocity=0, time=4)\n",
      "Message('note_on', channel=0, note=62, velocity=59, time=5)\n",
      "Message('note_on', channel=0, note=52, velocity=0, time=34)\n",
      "Message('control_change', channel=0, control=64, value=49, time=46)\n",
      "Message('note_on', channel=0, note=62, velocity=0, time=97)\n",
      "Message('note_on', channel=0, note=69, velocity=70, time=3)\n",
      "Message('note_on', channel=0, note=54, velocity=65, time=21)\n",
      "Message('note_on', channel=0, note=55, velocity=0, time=1)\n",
      "Message('control_change', channel=0, control=64, value=51, time=68)\n",
      "Message('control_change', channel=0, control=64, value=53, time=19)\n",
      "Message('note_on', channel=0, note=69, velocity=0, time=55)\n",
      "Message('control_change', channel=0, control=64, value=50, time=1)\n",
      "Message('note_on', channel=0, note=57, velocity=55, time=17)\n",
      "Message('note_on', channel=0, note=54, velocity=0, time=8)\n",
      "Message('note_on', channel=0, note=62, velocity=60, time=2)\n",
      "Message('control_change', channel=0, control=64, value=53, time=50)\n",
      "Message('control_change', channel=0, control=64, value=50, time=73)\n",
      "Message('note_on', channel=0, note=57, velocity=0, time=65)\n",
      "Message('note_on', channel=0, note=50, velocity=53, time=1)\n",
      "Message('note_on', channel=0, note=72, velocity=65, time=2)\n",
      "Message('control_change', channel=0, control=64, value=52, time=7)\n",
      "Message('note_on', channel=0, note=72, velocity=0, time=122)\n",
      "Message('note_on', channel=0, note=69, velocity=62, time=45)\n",
      "Message('note_on', channel=0, note=54, velocity=54, time=5)\n",
      "Message('note_on', channel=0, note=50, velocity=0, time=5)\n",
      "Message('control_change', channel=0, control=64, value=45, time=161)\n",
      "Message('control_change', channel=0, control=64, value=28, time=20)\n",
      "Message('note_on', channel=0, note=54, velocity=0, time=8)\n",
      "Message('control_change', channel=0, control=64, value=0, time=8)\n",
      "Message('note_on', channel=0, note=55, velocity=51, time=11)\n",
      "Message('note_on', channel=0, note=62, velocity=0, time=1)\n",
      "Message('note_on', channel=0, note=70, velocity=57, time=20)\n",
      "Message('note_on', channel=0, note=69, velocity=0, time=4)\n",
      "Message('control_change', channel=0, control=64, value=23, time=97)\n",
      "Message('control_change', channel=0, control=64, value=36, time=19)\n",
      "Message('control_change', channel=0, control=64, value=45, time=20)\n",
      "Message('control_change', channel=0, control=64, value=48, time=17)\n",
      "Message('control_change', channel=0, control=64, value=50, time=20)\n",
      "Message('note_on', channel=0, note=62, velocity=49, time=0)\n",
      "Message('control_change', channel=0, control=64, value=52, time=38)\n",
      "Message('note_on', channel=0, note=55, velocity=0, time=12)\n",
      "Message('control_change', channel=0, control=64, value=56, time=26)\n",
      "Message('control_change', channel=0, control=64, value=53, time=76)\n",
      "Message('control_change', channel=0, control=64, value=50, time=17)\n",
      "Message('note_on', channel=0, note=62, velocity=0, time=8)\n",
      "Message('note_on', channel=0, note=53, velocity=53, time=14)\n",
      "Message('note_on', channel=0, note=67, velocity=64, time=4)\n",
      "Message('note_on', channel=0, note=70, velocity=0, time=61)\n",
      "Message('control_change', channel=0, control=64, value=52, time=65)\n",
      "Message('control_change', channel=0, control=64, value=54, time=17)\n",
      "Message('note_on', channel=0, note=69, velocity=68, time=45)\n",
      "Message('note_on', channel=0, note=53, velocity=0, time=11)\n",
      "Message('note_on', channel=0, note=67, velocity=0, time=23)\n",
      "Message('control_change', channel=0, control=64, value=48, time=110)\n",
      "Message('control_change', channel=0, control=64, value=43, time=20)\n",
      "Message('note_on', channel=0, note=70, velocity=73, time=30)\n",
      "Message('note_on', channel=0, note=51, velocity=61, time=6)\n",
      "Message('control_change', channel=0, control=64, value=46, time=20)\n",
      "Message('note_on', channel=0, note=69, velocity=0, time=9)\n",
      "Message('control_change', channel=0, control=64, value=49, time=10)\n",
      "Message('control_change', channel=0, control=64, value=52, time=111)\n",
      "Message('control_change', channel=0, control=64, value=55, time=18)\n",
      "Message('note_on', channel=0, note=70, velocity=0, time=16)\n",
      "Message('control_change', channel=0, control=64, value=60, time=3)\n",
      "Message('note_on', channel=0, note=67, velocity=62, time=6)\n",
      "Message('note_on', channel=0, note=51, velocity=0, time=4)\n",
      "Message('control_change', channel=0, control=64, value=61, time=102)\n",
      "Message('control_change', channel=0, control=64, value=58, time=39)\n",
      "Message('control_change', channel=0, control=64, value=51, time=19)\n",
      "Message('control_change', channel=0, control=64, value=42, time=19)\n",
      "Message('note_on', channel=0, note=71, velocity=76, time=13)\n",
      "Message('note_on', channel=0, note=50, velocity=61, time=4)\n",
      "Message('note_on', channel=0, note=67, velocity=0, time=5)\n",
      "Message('control_change', channel=0, control=64, value=48, time=34)\n",
      "Message('control_change', channel=0, control=64, value=55, time=20)\n",
      "Message('control_change', channel=0, control=64, value=58, time=19)\n",
      "Message('note_on', channel=0, note=50, velocity=0, time=58)\n",
      "Message('note_on', channel=0, note=67, velocity=59, time=50)\n",
      "Message('control_change', channel=0, control=64, value=62, time=7)\n",
      "Message('control_change', channel=0, control=64, value=63, time=16)\n",
      "Message('note_on', channel=0, note=71, velocity=0, time=19)\n",
      "Message('control_change', channel=0, control=64, value=60, time=112)\n",
      "Message('control_change', channel=0, control=64, value=53, time=20)\n",
      "Message('control_change', channel=0, control=64, value=44, time=19)\n",
      "Message('note_on', channel=0, note=72, velocity=76, time=0)\n",
      "Message('note_on', channel=0, note=51, velocity=66, time=7)\n",
      "Message('note_on', channel=0, note=67, velocity=0, time=17)\n",
      "Message('control_change', channel=0, control=64, value=46, time=14)\n",
      "Message('control_change', channel=0, control=64, value=52, time=20)\n",
      "Message('control_change', channel=0, control=64, value=59, time=19)\n",
      "Message('control_change', channel=0, control=64, value=65, time=18)\n",
      "Message('control_change', channel=0, control=64, value=66, time=17)\n",
      "Message('note_on', channel=0, note=72, velocity=0, time=40)\n",
      "Message('note_on', channel=0, note=67, velocity=66, time=29)\n",
      "Message('control_change', channel=0, control=64, value=67, time=6)\n",
      "Message('note_on', channel=0, note=51, velocity=0, time=15)\n",
      "Message('control_change', channel=0, control=64, value=72, time=24)\n",
      "Message('control_change', channel=0, control=64, value=70, time=111)\n",
      "Message('control_change', channel=0, control=64, value=67, time=57)\n",
      "Message('note_on', channel=0, note=75, velocity=78, time=15)\n",
      "Message('control_change', channel=0, control=64, value=66, time=1)\n",
      "Message('note_on', channel=0, note=48, velocity=50, time=9)\n",
      "Message('control_change', channel=0, control=64, value=67, time=68)\n",
      "Message('note_on', channel=0, note=67, velocity=0, time=11)\n",
      "Message('note_on', channel=0, note=75, velocity=0, time=48)\n",
      "Message('note_on', channel=0, note=48, velocity=0, time=6)\n",
      "Message('control_change', channel=0, control=64, value=66, time=12)\n",
      "Message('note_on', channel=0, note=74, velocity=79, time=23)\n",
      "Message('control_change', channel=0, control=64, value=67, time=52)\n",
      "Message('control_change', channel=0, control=64, value=64, time=54)\n",
      "Message('control_change', channel=0, control=64, value=61, time=19)\n",
      "Message('control_change', channel=0, control=64, value=56, time=20)\n",
      "Message('note_on', channel=0, note=73, velocity=71, time=59)\n",
      "Message('note_on', channel=0, note=74, velocity=0, time=4)\n",
      "Message('note_on', channel=0, note=45, velocity=55, time=2)\n",
      "Message('control_change', channel=0, control=64, value=58, time=29)\n",
      "Message('control_change', channel=0, control=64, value=61, time=58)\n",
      "Message('control_change', channel=0, control=64, value=63, time=16)\n",
      "Message('control_change', channel=0, control=64, value=65, time=20)\n",
      "Message('note_on', channel=0, note=45, velocity=0, time=23)\n",
      "Message('note_on', channel=0, note=67, velocity=60, time=17)\n",
      "Message('control_change', channel=0, control=64, value=67, time=77)\n",
      "Message('control_change', channel=0, control=64, value=68, time=17)\n",
      "Message('control_change', channel=0, control=64, value=66, time=16)\n",
      "Message('control_change', channel=0, control=64, value=63, time=22)\n",
      "Message('control_change', channel=0, control=64, value=56, time=17)\n",
      "Message('control_change', channel=0, control=64, value=44, time=20)\n",
      "Message('note_on', channel=0, note=67, velocity=0, time=9)\n",
      "Message('control_change', channel=0, control=64, value=41, time=6)\n",
      "Message('note_on', channel=0, note=73, velocity=0, time=3)\n",
      "Message('note_on', channel=0, note=66, velocity=63, time=16)\n",
      "Message('note_on', channel=0, note=50, velocity=60, time=3)\n",
      "Message('control_change', channel=0, control=64, value=44, time=19)\n",
      "Message('control_change', channel=0, control=64, value=49, time=18)\n",
      "Message('control_change', channel=0, control=64, value=55, time=36)\n",
      "Message('control_change', channel=0, control=64, value=59, time=18)\n",
      "Message('note_on', channel=0, note=50, velocity=0, time=37)\n",
      "Message('control_change', channel=0, control=64, value=61, time=2)\n",
      "Message('control_change', channel=0, control=64, value=64, time=16)\n",
      "Message('control_change', channel=0, control=64, value=66, time=20)\n",
      "Message('note_on', channel=0, note=72, velocity=65, time=19)\n",
      "Message('note_on', channel=0, note=66, velocity=0, time=35)\n",
      "Message('control_change', channel=0, control=64, value=67, time=59)\n",
      "Message('control_change', channel=0, control=64, value=65, time=96)\n",
      "Message('control_change', channel=0, control=64, value=63, time=18)\n",
      "Message('note_on', channel=0, note=55, velocity=55, time=3)\n",
      "Message('note_on', channel=0, note=72, velocity=0, time=3)\n",
      "Message('note_on', channel=0, note=71, velocity=67, time=2)\n",
      "Message('control_change', channel=0, control=64, value=64, time=162)\n",
      "Message('note_on', channel=0, note=65, velocity=61, time=25)\n",
      "Message('control_change', channel=0, control=64, value=63, time=30)\n",
      "Message('control_change', channel=0, control=64, value=65, time=76)\n",
      "Message('note_on', channel=0, note=65, velocity=0, time=30)\n",
      "Message('control_change', channel=0, control=64, value=63, time=27)\n",
      "Message('note_on', channel=0, note=64, velocity=57, time=8)\n",
      "Message('note_on', channel=0, note=48, velocity=49, time=14)\n",
      "Message('control_change', channel=0, control=64, value=64, time=55)\n",
      "Message('control_change', channel=0, control=64, value=63, time=75)\n",
      "Message('note_on', channel=0, note=48, velocity=0, time=27)\n",
      "Message('note_on', channel=0, note=55, velocity=0, time=14)\n",
      "Message('note_on', channel=0, note=71, velocity=0, time=9)\n",
      "Message('note_on', channel=0, note=69, velocity=73, time=5)\n",
      "Message('note_on', channel=0, note=60, velocity=51, time=15)\n",
      "Message('control_change', channel=0, control=64, value=64, time=4)\n",
      "Message('note_on', channel=0, note=64, velocity=0, time=28)\n",
      "Message('control_change', channel=0, control=64, value=63, time=46)\n",
      "Message('control_change', channel=0, control=64, value=64, time=74)\n",
      "Message('note_on', channel=0, note=60, velocity=0, time=30)\n",
      "Message('note_on', channel=0, note=59, velocity=52, time=1)\n",
      "Message('note_on', channel=0, note=62, velocity=62, time=12)\n",
      "Message('note_on', channel=0, note=50, velocity=45, time=8)\n",
      "Message('control_change', channel=0, control=64, value=63, time=4)\n",
      "Message('control_change', channel=0, control=64, value=61, time=20)\n",
      "Message('control_change', channel=0, control=64, value=62, time=77)\n",
      "Message('note_on', channel=0, note=69, velocity=0, time=50)\n",
      "Message('control_change', channel=0, control=64, value=61, time=24)\n",
      "Message('note_on', channel=0, note=67, velocity=65, time=0)\n",
      "Message('control_change', channel=0, control=64, value=62, time=57)\n",
      "Message('note_on', channel=0, note=62, velocity=0, time=34)\n",
      "Message('control_change', channel=0, control=64, value=61, time=59)\n",
      "Message('note_on', channel=0, note=57, velocity=54, time=49)\n",
      "Message('note_on', channel=0, note=60, velocity=58, time=5)\n",
      "Message('note_on', channel=0, note=59, velocity=0, time=2)\n",
      "Message('control_change', channel=0, control=64, value=62, time=3)\n",
      "Message('control_change', channel=0, control=64, value=61, time=93)\n",
      "Message('control_change', channel=0, control=64, value=62, time=58)\n",
      "Message('note_on', channel=0, note=67, velocity=0, time=6)\n",
      "Message('note_on', channel=0, note=66, velocity=66, time=31)\n",
      "Message('control_change', channel=0, control=64, value=61, time=37)\n",
      "Message('control_change', channel=0, control=64, value=60, time=168)\n",
      "Message('note_on', channel=0, note=57, velocity=0, time=36)\n",
      "Message('note_on', channel=0, note=50, velocity=0, time=5)\n",
      "Message('note_on', channel=0, note=55, velocity=51, time=8)\n",
      "Message('note_on', channel=0, note=67, velocity=64, time=18)\n",
      "Message('note_on', channel=0, note=60, velocity=0, time=2)\n",
      "Message('control_change', channel=0, control=64, value=61, time=3)\n",
      "Message('note_on', channel=0, note=66, velocity=0, time=18)\n",
      "Message('control_change', channel=0, control=64, value=60, time=58)\n",
      "Message('control_change', channel=0, control=64, value=61, time=55)\n",
      "Message('note_on', channel=0, note=60, velocity=45, time=59)\n",
      "Message('control_change', channel=0, control=64, value=59, time=36)\n",
      "Message('note_on', channel=0, note=60, velocity=0, time=117)\n",
      "Message('note_on', channel=0, note=62, velocity=54, time=33)\n",
      "Message('note_on', channel=0, note=57, velocity=47, time=184)\n",
      "Message('note_on', channel=0, note=57, velocity=0, time=208)\n",
      "Message('note_on', channel=0, note=59, velocity=49, time=2)\n",
      "Message('note_on', channel=0, note=55, velocity=0, time=199)\n",
      "Message('note_on', channel=0, note=54, velocity=51, time=6)\n",
      "Message('note_on', channel=0, note=54, velocity=0, time=171)\n",
      "Message('note_on', channel=0, note=55, velocity=50, time=38)\n",
      "Message('note_on', channel=0, note=50, velocity=46, time=196)\n",
      "Message('control_change', channel=0, control=64, value=57, time=297)\n",
      "Message('control_change', channel=0, control=64, value=53, time=38)\n",
      "Message('note_on', channel=0, note=43, velocity=40, time=6)\n",
      "Message('control_change', channel=0, control=64, value=48, time=11)\n",
      "Message('control_change', channel=0, control=64, value=42, time=20)\n",
      "Message('control_change', channel=0, control=64, value=33, time=21)\n",
      "Message('control_change', channel=0, control=64, value=27, time=15)\n",
      "Message('control_change', channel=0, control=64, value=22, time=18)\n",
      "Message('control_change', channel=0, control=64, value=16, time=20)\n",
      "Message('control_change', channel=0, control=64, value=0, time=19)\n",
      "Message('control_change', channel=0, control=64, value=11, time=187)\n",
      "Message('control_change', channel=0, control=64, value=23, time=16)\n",
      "Message('control_change', channel=0, control=64, value=28, time=20)\n",
      "Message('control_change', channel=0, control=64, value=33, time=19)\n",
      "Message('control_change', channel=0, control=64, value=38, time=19)\n",
      "Message('control_change', channel=0, control=64, value=43, time=19)\n",
      "Message('control_change', channel=0, control=64, value=50, time=19)\n",
      "Message('control_change', channel=0, control=64, value=55, time=20)\n",
      "Message('control_change', channel=0, control=64, value=58, time=18)\n",
      "Message('control_change', channel=0, control=64, value=61, time=18)\n",
      "Message('control_change', channel=0, control=64, value=62, time=19)\n",
      "Message('control_change', channel=0, control=64, value=63, time=21)\n",
      "Message('control_change', channel=0, control=64, value=65, time=17)\n",
      "Message('control_change', channel=0, control=64, value=68, time=19)\n",
      "Message('control_change', channel=0, control=64, value=71, time=18)\n",
      "Message('control_change', channel=0, control=64, value=74, time=21)\n",
      "Message('control_change', channel=0, control=64, value=78, time=17)\n",
      "Message('control_change', channel=0, control=64, value=82, time=20)\n",
      "Message('control_change', channel=0, control=64, value=86, time=19)\n",
      "Message('control_change', channel=0, control=64, value=91, time=18)\n",
      "Message('control_change', channel=0, control=64, value=98, time=21)\n",
      "Message('control_change', channel=0, control=64, value=106, time=18)\n",
      "Message('control_change', channel=0, control=64, value=114, time=19)\n",
      "Message('control_change', channel=0, control=64, value=121, time=17)\n",
      "Message('control_change', channel=0, control=64, value=126, time=20)\n",
      "Message('note_on', channel=0, note=59, velocity=0, time=170)\n",
      "Message('note_on', channel=0, note=62, velocity=0, time=64)\n",
      "Message('note_on', channel=0, note=67, velocity=0, time=26)\n",
      "Message('note_on', channel=0, note=50, velocity=0, time=28)\n",
      "Message('note_on', channel=0, note=43, velocity=0, time=26)\n",
      "Message('control_change', channel=0, control=67, value=78, time=58)\n",
      "Message('control_change', channel=0, control=67, value=82, time=19)\n",
      "Message('note_on', channel=0, note=55, velocity=0, time=21)\n",
      "Message('control_change', channel=0, control=67, value=89, time=18)\n",
      "Message('control_change', channel=0, control=67, value=94, time=38)\n",
      "Message('control_change', channel=0, control=67, value=99, time=37)\n",
      "Message('note_on', channel=0, note=78, velocity=82, time=226)\n",
      "Message('note_on', channel=0, note=78, velocity=0, time=80)\n",
      "Message('control_change', channel=0, control=67, value=103, time=35)\n",
      "Message('note_on', channel=0, note=69, velocity=73, time=11)\n",
      "Message('note_on', channel=0, note=74, velocity=66, time=78)\n",
      "Message('control_change', channel=0, control=64, value=118, time=24)\n",
      "Message('control_change', channel=0, control=64, value=102, time=20)\n",
      "Message('control_change', channel=0, control=64, value=81, time=17)\n",
      "Message('note_on', channel=0, note=50, velocity=52, time=13)\n",
      "Message('control_change', channel=0, control=64, value=59, time=6)\n",
      "Message('note_on', channel=0, note=78, velocity=79, time=0)\n",
      "Message('control_change', channel=0, control=64, value=43, time=19)\n",
      "Message('control_change', channel=0, control=64, value=50, time=55)\n",
      "Message('note_on', channel=0, note=69, velocity=0, time=16)\n",
      "Message('control_change', channel=0, control=64, value=62, time=1)\n",
      "Message('control_change', channel=0, control=64, value=71, time=21)\n",
      "Message('control_change', channel=0, control=64, value=78, time=21)\n",
      "Message('note_on', channel=0, note=74, velocity=0, time=1)\n",
      "Message('control_change', channel=0, control=64, value=85, time=17)\n",
      "Message('control_change', channel=0, control=64, value=93, time=18)\n",
      "Message('control_change', channel=0, control=64, value=99, time=21)\n",
      "Message('note_on', channel=0, note=54, velocity=60, time=14)\n",
      "Message('control_change', channel=0, control=64, value=106, time=2)\n",
      "Message('control_change', channel=0, control=64, value=113, time=20)\n",
      "Message('note_on', channel=0, note=50, velocity=0, time=15)\n",
      "Message('control_change', channel=0, control=64, value=120, time=2)\n",
      "Message('control_change', channel=0, control=64, value=124, time=54)\n",
      "Message('note_on', channel=0, note=57, velocity=61, time=86)\n",
      "Message('note_on', channel=0, note=54, velocity=0, time=40)\n",
      "Message('note_on', channel=0, note=57, velocity=0, time=111)\n",
      "Message('note_on', channel=0, note=79, velocity=80, time=17)\n",
      "Message('note_on', channel=0, note=60, velocity=60, time=6)\n",
      "Message('note_on', channel=0, note=78, velocity=0, time=37)\n",
      "Message('note_on', channel=0, note=79, velocity=0, time=14)\n",
      "Message('note_on', channel=0, note=60, velocity=0, time=125)\n",
      "Message('note_on', channel=0, note=59, velocity=63, time=6)\n",
      "Message('control_change', channel=0, control=64, value=120, time=12)\n",
      "Message('note_on', channel=0, note=81, velocity=84, time=1)\n",
      "Message('control_change', channel=0, control=64, value=93, time=18)\n",
      "Message('control_change', channel=0, control=64, value=65, time=19)\n",
      "Message('note_on', channel=0, note=81, velocity=0, time=6)\n",
      "Message('note_on', channel=0, note=79, velocity=78, time=11)\n",
      "Message('control_change', channel=0, control=64, value=40, time=3)\n",
      "Message('note_on', channel=0, note=81, velocity=80, time=57)\n",
      "Message('note_on', channel=0, note=79, velocity=0, time=12)\n",
      "Message('note_on', channel=0, note=79, velocity=79, time=52)\n",
      "Message('note_on', channel=0, note=81, velocity=0, time=5)\n",
      "Message('note_on', channel=0, note=57, velocity=61, time=9)\n",
      "Message('note_on', channel=0, note=59, velocity=0, time=17)\n",
      "Message('control_change', channel=0, control=64, value=43, time=16)\n",
      "Message('control_change', channel=0, control=64, value=47, time=19)\n",
      "Message('control_change', channel=0, control=64, value=49, time=20)\n",
      "Message('control_change', channel=0, control=64, value=51, time=19)\n",
      "Message('control_change', channel=0, control=64, value=54, time=19)\n",
      "Message('control_change', channel=0, control=64, value=56, time=19)\n",
      "Message('control_change', channel=0, control=64, value=59, time=17)\n",
      "Message('note_on', channel=0, note=57, velocity=0, time=24)\n",
      "Message('note_on', channel=0, note=59, velocity=66, time=3)\n",
      "Message('control_change', channel=0, control=64, value=60, time=48)\n",
      "Message('note_on', channel=0, note=55, velocity=53, time=138)\n",
      "Message('note_on', channel=0, note=59, velocity=0, time=7)\n",
      "Message('note_on', channel=0, note=79, velocity=0, time=3)\n",
      "Message('note_on', channel=0, note=78, velocity=77, time=13)\n",
      "Message('control_change', channel=0, control=64, value=57, time=25)\n",
      "Message('note_on', channel=0, note=78, velocity=0, time=37)\n",
      "Message('note_on', channel=0, note=79, velocity=80, time=23)\n",
      "Message('control_change', channel=0, control=64, value=55, time=55)\n",
      "Message('note_on', channel=0, note=55, velocity=0, time=5)\n",
      "Message('control_change', channel=0, control=64, value=52, time=13)\n",
      "Message('note_on', channel=0, note=54, velocity=57, time=1)\n",
      "Message('note_on', channel=0, note=79, velocity=0, time=9)\n",
      "Message('note_on', channel=0, note=81, velocity=81, time=0)\n",
      "Message('control_change', channel=0, control=64, value=46, time=8)\n",
      "Message('control_change', channel=0, control=64, value=43, time=18)\n",
      "Message('control_change', channel=0, control=64, value=37, time=98)\n",
      "Message('control_change', channel=0, control=64, value=28, time=18)\n",
      "Message('note_on', channel=0, note=57, velocity=62, time=46)\n",
      "Message('note_on', channel=0, note=60, velocity=64, time=191)\n",
      "Message('note_on', channel=0, note=57, velocity=0, time=2)\n",
      "Message('control_change', channel=0, control=67, value=99, time=5)\n",
      "Message('note_on', channel=0, note=60, velocity=0, time=144)\n",
      "Message('note_on', channel=0, note=64, velocity=52, time=31)\n",
      "Message('control_change', channel=0, control=64, value=22, time=128)\n",
      "Message('control_change', channel=0, control=64, value=0, time=20)\n",
      "Message('note_on', channel=0, note=64, velocity=0, time=53)\n",
      "Message('note_on', channel=0, note=62, velocity=61, time=6)\n",
      "Message('control_change', channel=0, control=67, value=95, time=49)\n",
      "Message('control_change', channel=0, control=64, value=16, time=57)\n",
      "Message('control_change', channel=0, control=64, value=31, time=18)\n",
      "Message('note_on', channel=0, note=62, velocity=0, time=13)\n",
      "Message('control_change', channel=0, control=64, value=38, time=5)\n",
      "Message('control_change', channel=0, control=64, value=42, time=21)\n",
      "Message('control_change', channel=0, control=67, value=90, time=1)\n",
      "Message('note_on', channel=0, note=81, velocity=0, time=13)\n",
      "Message('control_change', channel=0, control=64, value=47, time=4)\n",
      "Message('note_on', channel=0, note=72, velocity=67, time=8)\n",
      "Message('note_on', channel=0, note=54, velocity=0, time=3)\n",
      "Message('control_change', channel=0, control=64, value=52, time=7)\n",
      "Message('control_change', channel=0, control=64, value=57, time=19)\n",
      "Message('control_change', channel=0, control=64, value=61, time=19)\n",
      "Message('control_change', channel=0, control=64, value=63, time=20)\n",
      "Message('control_change', channel=0, control=64, value=65, time=18)\n",
      "Message('control_change', channel=0, control=67, value=86, time=1)\n",
      "Message('control_change', channel=0, control=64, value=66, time=19)\n",
      "Message('control_change', channel=0, control=64, value=62, time=54)\n",
      "Message('note_on', channel=0, note=72, velocity=0, time=17)\n",
      "Message('control_change', channel=0, control=64, value=56, time=3)\n",
      "Message('note_on', channel=0, note=54, velocity=48, time=0)\n",
      "Message('note_on', channel=0, note=57, velocity=57, time=1)\n",
      "Message('note_on', channel=0, note=74, velocity=76, time=4)\n",
      "Message('control_change', channel=0, control=64, value=48, time=14)\n",
      "Message('control_change', channel=0, control=64, value=51, time=38)\n",
      "Message('control_change', channel=0, control=64, value=57, time=19)\n",
      "Message('control_change', channel=0, control=64, value=62, time=18)\n",
      "Message('control_change', channel=0, control=64, value=67, time=21)\n",
      "Message('control_change', channel=0, control=64, value=69, time=17)\n",
      "Message('control_change', channel=0, control=64, value=72, time=39)\n",
      "Message('note_on', channel=0, note=54, velocity=0, time=4)\n",
      "Message('note_on', channel=0, note=57, velocity=0, time=0)\n",
      "Message('note_on', channel=0, note=69, velocity=80, time=15)\n",
      "Message('control_change', channel=0, control=64, value=74, time=38)\n",
      "Message('note_on', channel=0, note=74, velocity=0, time=16)\n",
      "Message('control_change', channel=0, control=64, value=77, time=2)\n",
      "Message('control_change', channel=0, control=64, value=80, time=19)\n",
      "Message('control_change', channel=0, control=64, value=83, time=19)\n",
      "Message('control_change', channel=0, control=64, value=87, time=17)\n",
      "Message('control_change', channel=0, control=64, value=92, time=19)\n",
      "Message('note_on', channel=0, note=69, velocity=0, time=21)\n",
      "Message('note_on', channel=0, note=55, velocity=64, time=31)\n",
      "Message('control_change', channel=0, control=64, value=82, time=4)\n",
      "Message('note_on', channel=0, note=71, velocity=80, time=9)\n",
      "Message('control_change', channel=0, control=64, value=65, time=13)\n",
      "Message('control_change', channel=0, control=64, value=42, time=18)\n",
      "Message('control_change', channel=0, control=64, value=34, time=20)\n",
      "Message('control_change', channel=0, control=64, value=40, time=55)\n",
      "Message('note_on', channel=0, note=75, velocity=77, time=99)\n",
      "Message('note_on', channel=0, note=71, velocity=0, time=58)\n",
      "Message('note_on', channel=0, note=55, velocity=0, time=114)\n",
      "Message('note_on', channel=0, note=52, velocity=67, time=6)\n",
      "Message('note_on', channel=0, note=76, velocity=79, time=12)\n",
      "Message('note_on', channel=0, note=48, velocity=62, time=6)\n",
      "Message('note_on', channel=0, note=75, velocity=0, time=1)\n",
      "Message('control_change', channel=0, control=64, value=35, time=59)\n",
      "Message('note_on', channel=0, note=79, velocity=71, time=114)\n",
      "Message('note_on', channel=0, note=76, velocity=0, time=1)\n",
      "Message('control_change', channel=0, control=64, value=31, time=17)\n",
      "Message('control_change', channel=0, control=64, value=25, time=115)\n",
      "Message('control_change', channel=0, control=64, value=16, time=18)\n",
      "Message('note_on', channel=0, note=48, velocity=0, time=21)\n",
      "Message('note_on', channel=0, note=79, velocity=0, time=18)\n",
      "Message('note_on', channel=0, note=78, velocity=69, time=2)\n",
      "Message('note_on', channel=0, note=45, velocity=59, time=5)\n",
      "Message('note_on', channel=0, note=72, velocity=71, time=177)\n",
      "Message('note_on', channel=0, note=78, velocity=0, time=21)\n",
      "Message('note_on', channel=0, note=45, velocity=0, time=105)\n",
      "Message('control_change', channel=0, control=64, value=0, time=29)\n",
      "Message('note_on', channel=0, note=72, velocity=0, time=19)\n",
      "Message('note_on', channel=0, note=51, velocity=63, time=31)\n",
      "Message('note_on', channel=0, note=71, velocity=65, time=1)\n",
      "Message('note_on', channel=0, note=47, velocity=50, time=9)\n",
      "Message('note_on', channel=0, note=52, velocity=0, time=18)\n",
      "Message('control_change', channel=0, control=64, value=31, time=31)\n",
      "Message('control_change', channel=0, control=64, value=58, time=19)\n",
      "Message('control_change', channel=0, control=64, value=69, time=20)\n",
      "Message('control_change', channel=0, control=64, value=75, time=19)\n",
      "Message('note_on', channel=0, note=47, velocity=0, time=3)\n",
      "Message('control_change', channel=0, control=64, value=77, time=14)\n",
      "Message('control_change', channel=0, control=64, value=80, time=38)\n",
      "Message('note_on', channel=0, note=81, velocity=65, time=9)\n",
      "Message('note_on', channel=0, note=51, velocity=0, time=6)\n",
      "Message('control_change', channel=0, control=64, value=84, time=3)\n",
      "Message('control_change', channel=0, control=64, value=87, time=19)\n",
      "Message('note_on', channel=0, note=71, velocity=0, time=28)\n",
      "Message('control_change', channel=0, control=64, value=82, time=124)\n",
      "Message('control_change', channel=0, control=64, value=68, time=18)\n",
      "Message('note_on', channel=0, note=81, velocity=0, time=6)\n",
      "Message('note_on', channel=0, note=52, velocity=55, time=4)\n",
      "Message('control_change', channel=0, control=64, value=45, time=8)\n",
      "Message('note_on', channel=0, note=79, velocity=62, time=2)\n",
      "Message('control_change', channel=0, control=64, value=22, time=18)\n",
      "Message('note_on', channel=0, note=40, velocity=37, time=0)\n",
      "Message('control_change', channel=0, control=64, value=15, time=76)\n",
      "Message('control_change', channel=0, control=64, value=0, time=17)\n",
      "Message('note_on', channel=0, note=75, velocity=74, time=64)\n",
      "Message('note_on', channel=0, note=79, velocity=0, time=2)\n",
      "Message('note_on', channel=0, note=40, velocity=0, time=59)\n",
      "Message('note_on', channel=0, note=52, velocity=0, time=68)\n",
      "Message('note_on', channel=0, note=76, velocity=79, time=52)\n",
      "Message('note_on', channel=0, note=75, velocity=0, time=3)\n",
      "Message('note_on', channel=0, note=76, velocity=0, time=153)\n",
      "Message('note_on', channel=0, note=79, velocity=76, time=37)\n",
      "Message('note_on', channel=0, note=72, velocity=70, time=210)\n",
      "Message('note_on', channel=0, note=79, velocity=0, time=43)\n",
      "Message('note_on', channel=0, note=72, velocity=0, time=15)\n",
      "Message('note_on', channel=0, note=71, velocity=62, time=20)\n",
      "Message('note_on', channel=0, note=71, velocity=0, time=73)\n",
      "Message('note_on', channel=0, note=52, velocity=63, time=13)\n",
      "Message('note_on', channel=0, note=72, velocity=69, time=14)\n",
      "Message('note_on', channel=0, note=72, velocity=0, time=164)\n",
      "Message('note_on', channel=0, note=54, velocity=68, time=13)\n",
      "Message('note_on', channel=0, note=52, velocity=0, time=4)\n",
      "Message('note_on', channel=0, note=50, velocity=58, time=190)\n",
      "Message('note_on', channel=0, note=72, velocity=69, time=2)\n",
      "Message('note_on', channel=0, note=54, velocity=0, time=16)\n",
      "Message('note_on', channel=0, note=72, velocity=0, time=29)\n",
      "Message('note_on', channel=0, note=72, velocity=71, time=166)\n",
      "Message('note_on', channel=0, note=50, velocity=0, time=5)\n",
      "Message('note_on', channel=0, note=55, velocity=53, time=10)\n",
      "Message('note_on', channel=0, note=55, velocity=0, time=119)\n",
      "Message('note_on', channel=0, note=69, velocity=62, time=57)\n",
      "Message('note_on', channel=0, note=72, velocity=0, time=4)\n",
      "Message('note_on', channel=0, note=69, velocity=0, time=165)\n",
      "Message('note_on', channel=0, note=43, velocity=59, time=21)\n",
      "Message('note_on', channel=0, note=71, velocity=60, time=5)\n",
      "Message('control_change', channel=0, control=64, value=28, time=48)\n",
      "Message('control_change', channel=0, control=64, value=40, time=18)\n",
      "Message('control_change', channel=0, control=64, value=50, time=19)\n",
      "Message('control_change', channel=0, control=64, value=58, time=20)\n",
      "Message('control_change', channel=0, control=64, value=64, time=19)\n",
      "Message('control_change', channel=0, control=64, value=67, time=18)\n",
      "Message('note_on', channel=0, note=43, velocity=0, time=7)\n",
      "Message('note_on', channel=0, note=71, velocity=0, time=7)\n",
      "Message('note_on', channel=0, note=76, velocity=60, time=24)\n",
      "Message('control_change', channel=0, control=64, value=69, time=1)\n",
      "Message('control_change', channel=0, control=64, value=71, time=75)\n",
      "Message('control_change', channel=0, control=64, value=68, time=76)\n",
      "Message('control_change', channel=0, control=64, value=66, time=18)\n",
      "Message('control_change', channel=0, control=64, value=63, time=19)\n",
      "Message('note_on', channel=0, note=69, velocity=65, time=11)\n",
      "Message('control_change', channel=0, control=64, value=60, time=8)\n",
      "Message('control_change', channel=0, control=64, value=56, time=20)\n",
      "Message('note_on', channel=0, note=76, velocity=0, time=13)\n",
      "Message('control_change', channel=0, control=64, value=48, time=4)\n",
      "Message('note_on', channel=0, note=69, velocity=0, time=15)\n",
      "Message('control_change', channel=0, control=64, value=28, time=4)\n",
      "Message('control_change', channel=0, control=64, value=0, time=19)\n",
      "Message('note_on', channel=0, note=67, velocity=59, time=7)\n",
      "Message('note_on', channel=0, note=67, velocity=0, time=72)\n",
      "Message('note_on', channel=0, note=49, velocity=65, time=15)\n",
      "Message('note_on', channel=0, note=69, velocity=64, time=21)\n",
      "Message('note_on', channel=0, note=51, velocity=65, time=174)\n",
      "Message('note_on', channel=0, note=49, velocity=0, time=1)\n",
      "Message('note_on', channel=0, note=69, velocity=0, time=35)\n",
      "Message('note_on', channel=0, note=47, velocity=57, time=158)\n",
      "Message('note_on', channel=0, note=69, velocity=69, time=4)\n",
      "Message('note_on', channel=0, note=51, velocity=0, time=59)\n",
      "Message('note_on', channel=0, note=69, velocity=0, time=3)\n",
      "Message('note_on', channel=0, note=47, velocity=0, time=133)\n",
      "Message('note_on', channel=0, note=69, velocity=70, time=15)\n",
      "Message('note_on', channel=0, note=52, velocity=59, time=1)\n",
      "Message('control_change', channel=0, control=64, value=38, time=14)\n",
      "Message('control_change', channel=0, control=64, value=57, time=20)\n",
      "Message('control_change', channel=0, control=64, value=60, time=19)\n",
      "Message('control_change', channel=0, control=64, value=62, time=75)\n",
      "Message('control_change', channel=0, control=64, value=63, time=20)\n",
      "Message('control_change', channel=0, control=64, value=64, time=18)\n",
      "Message('note_on', channel=0, note=66, velocity=63, time=4)\n",
      "Message('note_on', channel=0, note=69, velocity=0, time=16)\n",
      "Message('note_on', channel=0, note=52, velocity=0, time=2)\n",
      "Message('control_change', channel=0, control=64, value=65, time=73)\n",
      "Message('control_change', channel=0, control=67, value=82, time=18)\n",
      "Message('control_change', channel=0, control=64, value=62, time=38)\n",
      "Message('control_change', channel=0, control=64, value=50, time=34)\n",
      "Message('note_on', channel=0, note=66, velocity=0, time=8)\n",
      "Message('control_change', channel=0, control=64, value=0, time=10)\n",
      "Message('note_on', channel=0, note=67, velocity=59, time=13)\n",
      "Message('note_on', channel=0, note=40, velocity=52, time=7)\n",
      "Message('control_change', channel=0, control=64, value=56, time=77)\n",
      "Message('control_change', channel=0, control=64, value=71, time=20)\n",
      "Message('control_change', channel=0, control=64, value=79, time=17)\n",
      "Message('control_change', channel=0, control=64, value=85, time=18)\n",
      "Message('note_on', channel=0, note=67, velocity=0, time=18)\n",
      "Message('control_change', channel=0, control=64, value=90, time=2)\n",
      "Message('note_on', channel=0, note=40, velocity=0, time=9)\n",
      "Message('control_change', channel=0, control=64, value=95, time=8)\n",
      "Message('note_on', channel=0, note=72, velocity=61, time=21)\n",
      "Message('control_change', channel=0, control=64, value=88, time=133)\n",
      "Message('control_change', channel=0, control=64, value=81, time=18)\n",
      "Message('control_change', channel=0, control=64, value=71, time=19)\n",
      "Message('control_change', channel=0, control=64, value=61, time=17)\n",
      "Message('note_on', channel=0, note=72, velocity=0, time=11)\n",
      "Message('note_on', channel=0, note=65, velocity=64, time=6)\n",
      "Message('control_change', channel=0, control=64, value=37, time=2)\n",
      "Message('control_change', channel=0, control=64, value=0, time=19)\n",
      "Message('note_on', channel=0, note=65, velocity=0, time=33)\n",
      "Message('note_on', channel=0, note=64, velocity=54, time=34)\n",
      "Message('note_on', channel=0, note=64, velocity=0, time=52)\n",
      "Message('note_on', channel=0, note=45, velocity=58, time=40)\n",
      "Message('note_on', channel=0, note=65, velocity=59, time=1)\n",
      "Message('note_on', channel=0, note=45, velocity=0, time=195)\n",
      "Message('control_change', channel=0, control=67, value=78, time=3)\n",
      "Message('note_on', channel=0, note=47, velocity=53, time=1)\n",
      "Message('control_change', channel=0, control=67, value=73, time=39)\n",
      "Message('note_on', channel=0, note=65, velocity=0, time=15)\n",
      "Message('control_change', channel=0, control=67, value=68, time=42)\n",
      "Message('control_change', channel=0, control=67, value=58, time=52)\n",
      "Message('control_change', channel=0, control=67, value=50, time=17)\n",
      "Message('control_change', channel=0, control=67, value=45, time=20)\n",
      "Message('note_on', channel=0, note=43, velocity=47, time=18)\n",
      "Message('note_on', channel=0, note=47, velocity=0, time=8)\n",
      "Message('note_on', channel=0, note=65, velocity=61, time=13)\n",
      "Message('control_change', channel=0, control=67, value=41, time=37)\n",
      "Message('note_on', channel=0, note=65, velocity=0, time=13)\n",
      "Message('control_change', channel=0, control=67, value=36, time=82)\n",
      "Message('note_on', channel=0, note=43, velocity=0, time=65)\n",
      "Message('note_on', channel=0, note=65, velocity=58, time=18)\n",
      "Message('note_on', channel=0, note=48, velocity=44, time=9)\n",
      "Message('control_change', channel=0, control=64, value=13, time=78)\n",
      "Message('control_change', channel=0, control=64, value=34, time=18)\n",
      "Message('control_change', channel=0, control=64, value=47, time=18)\n",
      "Message('control_change', channel=0, control=64, value=54, time=20)\n",
      "Message('control_change', channel=0, control=64, value=56, time=19)\n",
      "Message('note_on', channel=0, note=63, velocity=58, time=26)\n",
      "Message('note_on', channel=0, note=48, velocity=0, time=17)\n",
      "Message('note_on', channel=0, note=65, velocity=0, time=16)\n",
      "Message('note_on', channel=0, note=63, velocity=0, time=136)\n",
      "Message('note_on', channel=0, note=64, velocity=57, time=22)\n",
      "Message('note_on', channel=0, note=49, velocity=54, time=5)\n",
      "Message('note_on', channel=0, note=49, velocity=0, time=163)\n",
      "Message('note_on', channel=0, note=69, velocity=64, time=13)\n",
      "Message('note_on', channel=0, note=64, velocity=0, time=8)\n",
      "Message('note_on', channel=0, note=50, velocity=58, time=198)\n",
      "Message('note_on', channel=0, note=67, velocity=61, time=14)\n",
      "Message('note_on', channel=0, note=69, velocity=0, time=2)\n",
      "Message('note_on', channel=0, note=67, velocity=0, time=142)\n",
      "Message('note_on', channel=0, note=50, velocity=0, time=25)\n",
      "Message('note_on', channel=0, note=64, velocity=61, time=1)\n",
      "Message('control_change', channel=0, control=64, value=54, time=57)\n",
      "Message('control_change', channel=0, control=64, value=52, time=57)\n",
      "Message('control_change', channel=0, control=67, value=40, time=1)\n",
      "Message('control_change', channel=0, control=64, value=48, time=17)\n",
      "Message('control_change', channel=0, control=64, value=42, time=20)\n",
      "Message('control_change', channel=0, control=64, value=31, time=18)\n",
      "Message('note_on', channel=0, note=66, velocity=70, time=15)\n",
      "Message('note_on', channel=0, note=51, velocity=66, time=6)\n",
      "Message('note_on', channel=0, note=64, velocity=0, time=31)\n",
      "Message('control_change', channel=0, control=64, value=36, time=101)\n",
      "Message('note_on', channel=0, note=51, velocity=0, time=11)\n",
      "Message('note_on', channel=0, note=66, velocity=0, time=38)\n",
      "Message('note_on', channel=0, note=71, velocity=67, time=0)\n",
      "Message('control_change', channel=0, control=64, value=29, time=101)\n",
      "Message('control_change', channel=0, control=64, value=0, time=18)\n",
      "Message('note_on', channel=0, note=52, velocity=43, time=92)\n",
      "Message('note_on', channel=0, note=69, velocity=64, time=7)\n",
      "Message('control_change', channel=0, control=64, value=38, time=14)\n",
      "Message('note_on', channel=0, note=71, velocity=0, time=10)\n",
      "Message('control_change', channel=0, control=64, value=57, time=9)\n",
      "Message('note_on', channel=0, note=50, velocity=34, time=4)\n",
      "Message('control_change', channel=0, control=64, value=66, time=15)\n",
      "Message('control_change', channel=0, control=64, value=71, time=33)\n",
      "Message('note_on', channel=0, note=50, velocity=0, time=15)\n",
      "Message('control_change', channel=0, control=64, value=74, time=4)\n",
      "Message('note_on', channel=0, note=66, velocity=64, time=94)\n",
      "Message('note_on', channel=0, note=69, velocity=0, time=35)\n",
      "Message('control_change', channel=0, control=64, value=72, time=81)\n",
      "Message('control_change', channel=0, control=64, value=69, time=18)\n",
      "Message('control_change', channel=0, control=64, value=67, time=18)\n",
      "Message('control_change', channel=0, control=64, value=65, time=18)\n",
      "Message('note_on', channel=0, note=66, velocity=0, time=19)\n",
      "Message('note_on', channel=0, note=40, velocity=64, time=4)\n",
      "Message('note_on', channel=0, note=67, velocity=70, time=6)\n",
      "Message('control_change', channel=0, control=64, value=62, time=10)\n",
      "Message('control_change', channel=0, control=64, value=59, time=19)\n",
      "Message('control_change', channel=0, control=64, value=55, time=19)\n",
      "Message('control_change', channel=0, control=64, value=53, time=19)\n",
      "Message('note_on', channel=0, note=52, velocity=0, time=25)\n",
      "Message('note_on', channel=0, note=40, velocity=0, time=17)\n",
      "Message('control_change', channel=0, control=64, value=50, time=34)\n",
      "Message('control_change', channel=0, control=64, value=47, time=17)\n",
      "Message('note_on', channel=0, note=72, velocity=65, time=14)\n",
      "Message('control_change', channel=0, control=64, value=44, time=6)\n",
      "Message('note_on', channel=0, note=67, velocity=0, time=14)\n",
      "Message('note_on', channel=0, note=42, velocity=72, time=177)\n",
      "Message('note_on', channel=0, note=71, velocity=71, time=7)\n",
      "Message('note_on', channel=0, note=72, velocity=0, time=17)\n",
      "Message('note_on', channel=0, note=42, velocity=0, time=114)\n",
      "Message('note_on', channel=0, note=71, velocity=0, time=17)\n",
      "Message('note_on', channel=0, note=67, velocity=71, time=20)\n",
      "Message('control_change', channel=0, control=64, value=48, time=32)\n",
      "Message('control_change', channel=0, control=64, value=51, time=40)\n",
      "Message('control_change', channel=0, control=64, value=54, time=51)\n",
      "Message('control_change', channel=0, control=64, value=50, time=38)\n",
      "Message('control_change', channel=0, control=64, value=39, time=18)\n",
      "Message('control_change', channel=0, control=64, value=0, time=20)\n",
      "Message('note_on', channel=0, note=69, velocity=75, time=5)\n",
      "Message('note_on', channel=0, note=54, velocity=68, time=13)\n",
      "Message('note_on', channel=0, note=67, velocity=0, time=28)\n",
      "Message('control_change', channel=0, control=64, value=25, time=11)\n",
      "Message('control_change', channel=0, control=64, value=55, time=18)\n",
      "Message('control_change', channel=0, control=64, value=69, time=19)\n",
      "Message('control_change', channel=0, control=64, value=79, time=19)\n",
      "Message('control_change', channel=0, control=64, value=84, time=20)\n",
      "Message('control_change', channel=0, control=64, value=87, time=17)\n",
      "Message('note_on', channel=0, note=54, velocity=0, time=36)\n",
      "Message('note_on', channel=0, note=74, velocity=76, time=1)\n",
      "Message('note_on', channel=0, note=69, velocity=0, time=31)\n",
      "Message('control_change', channel=0, control=64, value=81, time=142)\n",
      "Message('control_change', channel=0, control=64, value=68, time=16)\n",
      "Message('note_on', channel=0, note=55, velocity=67, time=6)\n",
      "Message('note_on', channel=0, note=72, velocity=76, time=1)\n",
      "Message('note_on', channel=0, note=74, velocity=0, time=9)\n",
      "Message('control_change', channel=0, control=64, value=25, time=2)\n",
      "Message('control_change', channel=0, control=64, value=0, time=20)\n",
      "Message('control_change', channel=0, control=64, value=36, time=39)\n",
      "Message('control_change', channel=0, control=64, value=61, time=20)\n",
      "Message('control_change', channel=0, control=64, value=74, time=19)\n",
      "Message('control_change', channel=0, control=64, value=82, time=19)\n",
      "Message('control_change', channel=0, control=64, value=87, time=21)\n",
      "Message('note_on', channel=0, note=69, velocity=78, time=33)\n",
      "Message('note_on', channel=0, note=72, velocity=0, time=63)\n",
      "Message('control_change', channel=0, control=67, value=36, time=13)\n",
      "Message('control_change', channel=0, control=64, value=91, time=39)\n",
      "Message('control_change', channel=0, control=64, value=84, time=38)\n",
      "Message('control_change', channel=0, control=64, value=65, time=20)\n",
      "Message('note_on', channel=0, note=69, velocity=0, time=0)\n",
      "Message('control_change', channel=0, control=64, value=0, time=19)\n",
      "Message('note_on', channel=0, note=71, velocity=81, time=1)\n",
      "Message('note_on', channel=0, note=43, velocity=73, time=3)\n",
      "Message('control_change', channel=0, control=64, value=32, time=50)\n",
      "Message('control_change', channel=0, control=64, value=65, time=21)\n",
      "Message('control_change', channel=0, control=64, value=82, time=30)\n",
      "Message('control_change', channel=0, control=64, value=98, time=21)\n",
      "Message('control_change', channel=0, control=64, value=109, time=18)\n",
      "Message('control_change', channel=0, control=64, value=113, time=20)\n",
      "Message('note_on', channel=0, note=71, velocity=0, time=8)\n",
      "Message('note_on', channel=0, note=43, velocity=0, time=24)\n",
      "Message('note_on', channel=0, note=74, velocity=74, time=3)\n",
      "Message('note_on', channel=0, note=72, velocity=52, time=29)\n",
      "Message('note_on', channel=0, note=74, velocity=0, time=12)\n",
      "Message('note_on', channel=0, note=72, velocity=0, time=17)\n",
      "Message('note_on', channel=0, note=79, velocity=82, time=143)\n",
      "Message('control_change', channel=0, control=64, value=105, time=47)\n",
      "Message('note_on', channel=0, note=55, velocity=0, time=2)\n",
      "Message('control_change', channel=0, control=64, value=88, time=16)\n",
      "Message('note_on', channel=0, note=78, velocity=77, time=16)\n",
      "Message('note_on', channel=0, note=79, velocity=0, time=0)\n",
      "Message('control_change', channel=0, control=64, value=65, time=2)\n",
      "Message('control_change', channel=0, control=64, value=34, time=20)\n",
      "Message('control_change', channel=0, control=64, value=16, time=21)\n",
      "Message('note_on', channel=0, note=78, velocity=0, time=36)\n",
      "Message('control_change', channel=0, control=64, value=0, time=1)\n",
      "Message('note_on', channel=0, note=52, velocity=63, time=9)\n",
      "Message('note_on', channel=0, note=79, velocity=83, time=0)\n",
      "Message('control_change', channel=0, control=64, value=20, time=123)\n",
      "Message('control_change', channel=0, control=64, value=37, time=20)\n",
      "Message('control_change', channel=0, control=64, value=49, time=19)\n",
      "Message('control_change', channel=0, control=64, value=58, time=19)\n",
      "Message('control_change', channel=0, control=64, value=62, time=17)\n",
      "Message('note_on', channel=0, note=55, velocity=65, time=6)\n",
      "Message('control_change', channel=0, control=64, value=66, time=16)\n",
      "Message('control_change', channel=0, control=64, value=68, time=17)\n",
      "Message('note_on', channel=0, note=52, velocity=0, time=0)\n",
      "Message('control_change', channel=0, control=64, value=72, time=17)\n",
      "Message('control_change', channel=0, control=64, value=76, time=19)\n",
      "Message('note_on', channel=0, note=79, velocity=0, time=12)\n",
      "Message('control_change', channel=0, control=64, value=79, time=6)\n",
      "Message('control_change', channel=0, control=64, value=82, time=21)\n",
      "Message('control_change', channel=0, control=64, value=85, time=38)\n",
      "Message('control_change', channel=0, control=64, value=87, time=19)\n",
      "Message('note_on', channel=0, note=79, velocity=82, time=15)\n",
      "Message('note_on', channel=0, note=59, velocity=65, time=7)\n",
      "Message('note_on', channel=0, note=55, velocity=0, time=9)\n",
      "Message('control_change', channel=0, control=64, value=93, time=4)\n",
      "Message('note_on', channel=0, note=79, velocity=0, time=69)\n",
      "Message('note_on', channel=0, note=79, velocity=80, time=142)\n",
      "Message('control_change', channel=0, control=64, value=80, time=16)\n",
      "Message('note_on', channel=0, note=48, velocity=60, time=4)\n",
      "Message('control_change', channel=0, control=64, value=70, time=10)\n",
      "Message('note_on', channel=0, note=59, velocity=0, time=0)\n",
      "Message('control_change', channel=0, control=64, value=63, time=18)\n",
      "Message('control_change', channel=0, control=64, value=60, time=20)\n",
      "Message('control_change', channel=0, control=64, value=61, time=55)\n",
      "Message('control_change', channel=0, control=64, value=62, time=20)\n",
      "Message('control_change', channel=0, control=64, value=63, time=19)\n",
      "Message('note_on', channel=0, note=71, velocity=62, time=24)\n",
      "Message('control_change', channel=0, control=64, value=62, time=33)\n",
      "Message('control_change', channel=0, control=64, value=63, time=75)\n",
      "Message('note_on', channel=0, note=72, velocity=65, time=73)\n",
      "Message('note_on', channel=0, note=71, velocity=0, time=1)\n",
      "Message('note_on', channel=0, note=55, velocity=56, time=2)\n",
      "Message('control_change', channel=0, control=64, value=64, time=17)\n",
      "Message('control_change', channel=0, control=64, value=65, time=39)\n",
      "Message('note_on', channel=0, note=55, velocity=0, time=0)\n",
      "Message('control_change', channel=0, control=64, value=66, time=114)\n",
      "Message('note_on', channel=0, note=72, velocity=0, time=13)\n",
      "Message('note_on', channel=0, note=76, velocity=70, time=2)\n",
      "Message('control_change', channel=0, control=64, value=65, time=60)\n",
      "Message('control_change', channel=0, control=64, value=64, time=39)\n",
      "Message('control_change', channel=0, control=64, value=62, time=38)\n",
      "Message('control_change', channel=0, control=64, value=59, time=18)\n",
      "Message('control_change', channel=0, control=64, value=55, time=22)\n",
      "Message('note_on', channel=0, note=76, velocity=0, time=7)\n",
      "Message('control_change', channel=0, control=64, value=53, time=7)\n",
      "Message('note_on', channel=0, note=69, velocity=72, time=2)\n",
      "Message('note_on', channel=0, note=60, velocity=64, time=7)\n",
      "Message('note_on', channel=0, note=79, velocity=0, time=1)\n",
      "Message('note_on', channel=0, note=48, velocity=0, time=18)\n",
      "Message('control_change', channel=0, control=64, value=59, time=11)\n",
      "Message('control_change', channel=0, control=64, value=65, time=21)\n",
      "Message('control_change', channel=0, control=64, value=71, time=32)\n",
      "Message('control_change', channel=0, control=64, value=73, time=18)\n",
      "Message('control_change', channel=0, control=64, value=75, time=78)\n",
      "Message('control_change', channel=0, control=64, value=77, time=19)\n",
      "Message('note_on', channel=0, note=79, velocity=76, time=3)\n",
      "Message('control_change', channel=0, control=64, value=81, time=17)\n",
      "Message('control_change', channel=0, control=64, value=84, time=17)\n",
      "Message('control_change', channel=0, control=64, value=82, time=111)\n",
      "Message('control_change', channel=0, control=64, value=74, time=22)\n",
      "Message('control_change', channel=0, control=64, value=61, time=15)\n",
      "Message('note_on', channel=0, note=57, velocity=62, time=0)\n",
      "Message('note_on', channel=0, note=78, velocity=76, time=9)\n",
      "Message('control_change', channel=0, control=64, value=55, time=13)\n",
      "Message('note_on', channel=0, note=79, velocity=0, time=7)\n",
      "Message('control_change', channel=0, control=64, value=57, time=13)\n",
      "Message('control_change', channel=0, control=64, value=62, time=18)\n",
      "Message('note_on', channel=0, note=60, velocity=0, time=17)\n",
      "Message('control_change', channel=0, control=64, value=67, time=1)\n",
      "Message('control_change', channel=0, control=64, value=72, time=18)\n",
      "Message('control_change', channel=0, control=64, value=75, time=20)\n",
      "Message('note_on', channel=0, note=81, velocity=80, time=81)\n",
      "Message('note_on', channel=0, note=78, velocity=0, time=2)\n",
      "Message('control_change', channel=0, control=64, value=77, time=29)\n",
      "Message('note_on', channel=0, note=81, velocity=0, time=107)\n",
      "Message('control_change', channel=0, control=64, value=73, time=45)\n",
      "Message('note_on', channel=0, note=59, velocity=59, time=12)\n",
      "Message('control_change', channel=0, control=64, value=68, time=7)\n",
      "Message('note_on', channel=0, note=75, velocity=75, time=0)\n",
      "Message('note_on', channel=0, note=57, velocity=0, time=6)\n",
      "Message('control_change', channel=0, control=64, value=63, time=14)\n",
      "Message('note_on', channel=0, note=69, velocity=0, time=30)\n",
      "Message('control_change', channel=0, control=64, value=65, time=45)\n",
      "Message('control_change', channel=0, control=64, value=66, time=19)\n",
      "Message('control_change', channel=0, control=64, value=65, time=39)\n",
      "Message('note_on', channel=0, note=69, velocity=62, time=40)\n",
      "Message('control_change', channel=0, control=64, value=66, time=35)\n",
      "Message('control_change', channel=0, control=64, value=65, time=89)\n",
      "Message('control_change', channel=0, control=64, value=61, time=19)\n",
      "Message('control_change', channel=0, control=64, value=55, time=19)\n",
      "Message('control_change', channel=0, control=64, value=48, time=20)\n",
      "Message('note_on', channel=0, note=67, velocity=65, time=14)\n",
      "Message('note_on', channel=0, note=59, velocity=0, time=12)\n",
      "Message('note_on', channel=0, note=52, velocity=62, time=8)\n",
      "Message('control_change', channel=0, control=64, value=52, time=40)\n",
      "Message('control_change', channel=0, control=64, value=55, time=19)\n",
      "Message('note_on', channel=0, note=69, velocity=0, time=0)\n",
      "Message('note_on', channel=0, note=75, velocity=0, time=6)\n",
      "Message('control_change', channel=0, control=64, value=57, time=12)\n",
      "Message('control_change', channel=0, control=64, value=61, time=19)\n",
      "Message('note_on', channel=0, note=67, velocity=0, time=3)\n",
      "Message('control_change', channel=0, control=64, value=65, time=15)\n",
      "Message('control_change', channel=0, control=64, value=66, time=21)\n",
      "Message('note_on', channel=0, note=76, velocity=65, time=37)\n",
      "Message('control_change', channel=0, control=64, value=67, time=58)\n",
      "Message('control_change', channel=0, control=64, value=69, time=18)\n",
      "Message('control_change', channel=0, control=67, value=40, time=0)\n",
      "Message('control_change', channel=0, control=64, value=67, time=73)\n",
      "Message('control_change', channel=0, control=64, value=63, time=21)\n",
      "Message('note_on', channel=0, note=52, velocity=0, time=4)\n",
      "Message('control_change', channel=0, control=64, value=61, time=14)\n",
      "Message('note_on', channel=0, note=59, velocity=58, time=2)\n",
      "Message('note_on', channel=0, note=66, velocity=68, time=11)\n",
      "Message('note_on', channel=0, note=76, velocity=0, time=23)\n",
      "Message('control_change', channel=0, control=64, value=62, time=39)\n",
      "Message('control_change', channel=0, control=64, value=65, time=77)\n",
      "Message('note_on', channel=0, note=69, velocity=61, time=31)\n",
      "Message('control_change', channel=0, control=67, value=44, time=82)\n",
      "Message('control_change', channel=0, control=64, value=66, time=37)\n",
      "Message('control_change', channel=0, control=64, value=65, time=18)\n",
      "Message('control_change', channel=0, control=64, value=61, time=20)\n",
      "Message('control_change', channel=0, control=64, value=48, time=20)\n",
      "Message('note_on', channel=0, note=47, velocity=58, time=6)\n",
      "Message('note_on', channel=0, note=76, velocity=63, time=27)\n",
      "Message('control_change', channel=0, control=64, value=0, time=4)\n",
      "Message('note_on', channel=0, note=59, velocity=0, time=18)\n",
      "Message('control_change', channel=0, control=64, value=9, time=2)\n",
      "Message('control_change', channel=0, control=64, value=34, time=18)\n",
      "Message('control_change', channel=0, control=64, value=44, time=33)\n",
      "Message('control_change', channel=0, control=64, value=47, time=19)\n",
      "Message('note_on', channel=0, note=76, velocity=0, time=75)\n",
      "Message('note_on', channel=0, note=75, velocity=69, time=11)\n",
      "Message('control_change', channel=0, control=64, value=55, time=11)\n",
      "Message('control_change', channel=0, control=64, value=58, time=18)\n",
      "Message('note_on', channel=0, note=69, velocity=0, time=66)\n",
      "Message('note_on', channel=0, note=66, velocity=0, time=13)\n",
      "Message('control_change', channel=0, control=64, value=50, time=53)\n",
      "Message('control_change', channel=0, control=64, value=31, time=18)\n",
      "Message('note_on', channel=0, note=47, velocity=0, time=4)\n",
      "Message('control_change', channel=0, control=64, value=0, time=15)\n",
      "Message('note_on', channel=0, note=52, velocity=61, time=0)\n",
      "Message('note_on', channel=0, note=76, velocity=65, time=6)\n",
      "Message('note_on', channel=0, note=75, velocity=0, time=38)\n",
      "Message('control_change', channel=0, control=64, value=29, time=90)\n",
      "Message('control_change', channel=0, control=64, value=39, time=17)\n",
      "Message('note_on', channel=0, note=71, velocity=62, time=35)\n",
      "Message('control_change', channel=0, control=64, value=44, time=2)\n",
      "Message('control_change', channel=0, control=64, value=53, time=20)\n",
      "Message('control_change', channel=0, control=64, value=59, time=18)\n",
      "Message('control_change', channel=0, control=64, value=62, time=19)\n",
      "Message('control_change', channel=0, control=64, value=64, time=18)\n",
      "Message('control_change', channel=0, control=64, value=65, time=38)\n",
      "Message('control_change', channel=0, control=64, value=69, time=21)\n",
      "Message('control_change', channel=0, control=64, value=74, time=18)\n",
      "Message('control_change', channel=0, control=64, value=79, time=20)\n",
      "Message('control_change', channel=0, control=64, value=82, time=18)\n",
      "Message('note_on', channel=0, note=67, velocity=62, time=2)\n",
      "Message('control_change', channel=0, control=64, value=84, time=17)\n",
      "Message('control_change', channel=0, control=64, value=88, time=36)\n",
      "Message('control_change', channel=0, control=64, value=93, time=21)\n",
      "Message('control_change', channel=0, control=64, value=98, time=18)\n",
      "Message('control_change', channel=0, control=64, value=102, time=74)\n",
      "Message('note_on', channel=0, note=52, velocity=0, time=4)\n",
      "Message('note_on', channel=0, note=59, velocity=63, time=11)\n",
      "Message('control_change', channel=0, control=64, value=107, time=23)\n",
      "Message('note_on', channel=0, note=59, velocity=0, time=32)\n",
      "Message('control_change', channel=0, control=64, value=113, time=78)\n",
      "Message('control_change', channel=0, control=64, value=117, time=21)\n",
      "Message('control_change', channel=0, control=64, value=121, time=37)\n",
      "Message('note_on', channel=0, note=64, velocity=67, time=46)\n",
      "Message('control_change', channel=0, control=64, value=114, time=9)\n",
      "Message('control_change', channel=0, control=64, value=97, time=20)\n",
      "Message('control_change', channel=0, control=64, value=74, time=19)\n",
      "Message('control_change', channel=0, control=64, value=52, time=19)\n",
      "Message('note_on', channel=0, note=64, velocity=0, time=15)\n",
      "Message('note_on', channel=0, note=62, velocity=63, time=1)\n",
      "Message('control_change', channel=0, control=64, value=43, time=3)\n",
      "Message('note_on', channel=0, note=61, velocity=72, time=94)\n",
      "Message('note_on', channel=0, note=62, velocity=0, time=29)\n",
      "Message('note_on', channel=0, note=61, velocity=0, time=146)\n",
      "Message('note_on', channel=0, note=62, velocity=63, time=31)\n",
      "Message('note_on', channel=0, note=62, velocity=0, time=73)\n",
      "Message('note_on', channel=0, note=61, velocity=68, time=34)\n",
      "Message('note_on', channel=0, note=61, velocity=0, time=58)\n",
      "Message('note_on', channel=0, note=59, velocity=67, time=15)\n",
      "Message('control_change', channel=0, control=67, value=48, time=162)\n",
      "Message('note_on', channel=0, note=59, velocity=0, time=48)\n",
      "Message('note_on', channel=0, note=61, velocity=60, time=28)\n",
      "Message('note_on', channel=0, note=67, velocity=0, time=203)\n",
      "Message('note_on', channel=0, note=69, velocity=57, time=0)\n",
      "Message('note_on', channel=0, note=71, velocity=0, time=14)\n",
      "Message('note_on', channel=0, note=76, velocity=0, time=51)\n",
      "Message('control_change', channel=0, control=64, value=40, time=123)\n",
      "Message('note_on', channel=0, note=71, velocity=61, time=3)\n",
      "Message('note_on', channel=0, note=69, velocity=0, time=4)\n",
      "Message('control_change', channel=0, control=64, value=33, time=126)\n",
      "Message('control_change', channel=0, control=64, value=25, time=18)\n",
      "Message('control_change', channel=0, control=64, value=0, time=17)\n",
      "Message('note_on', channel=0, note=71, velocity=0, time=15)\n",
      "Message('note_on', channel=0, note=67, velocity=70, time=2)\n",
      "Message('control_change', channel=0, control=64, value=22, time=135)\n",
      "Message('control_change', channel=0, control=64, value=51, time=20)\n",
      "Message('control_change', channel=0, control=64, value=66, time=17)\n",
      "Message('note_on', channel=0, note=69, velocity=75, time=14)\n",
      "Message('control_change', channel=0, control=64, value=72, time=5)\n",
      "Message('note_on', channel=0, note=61, velocity=0, time=22)\n",
      "Message('note_on', channel=0, note=67, velocity=0, time=1)\n",
      "Message('control_change', channel=0, control=64, value=69, time=130)\n",
      "Message('note_on', channel=0, note=57, velocity=66, time=23)\n",
      "Message('note_on', channel=0, note=66, velocity=72, time=18)\n",
      "Message('control_change', channel=0, control=64, value=68, time=11)\n",
      "Message('note_on', channel=0, note=69, velocity=0, time=7)\n",
      "Message('control_change', channel=0, control=64, value=67, time=69)\n",
      "Message('control_change', channel=0, control=64, value=65, time=17)\n",
      "Message('control_change', channel=0, control=64, value=62, time=20)\n",
      "Message('control_change', channel=0, control=64, value=61, time=19)\n",
      "Message('note_on', channel=0, note=57, velocity=0, time=26)\n",
      "Message('note_on', channel=0, note=59, velocity=62, time=10)\n",
      "Message('note_on', channel=0, note=66, velocity=0, time=8)\n",
      "Message('note_on', channel=0, note=67, velocity=71, time=2)\n",
      "Message('control_change', channel=0, control=64, value=62, time=9)\n",
      "Message('control_change', channel=0, control=64, value=61, time=55)\n",
      "Message('note_on', channel=0, note=76, velocity=65, time=119)\n",
      "Message('note_on', channel=0, note=59, velocity=0, time=2)\n",
      "Message('note_on', channel=0, note=61, velocity=61, time=4)\n",
      "Message('control_change', channel=0, control=64, value=60, time=8)\n",
      "Message('note_on', channel=0, note=67, velocity=0, time=22)\n",
      "Message('note_on', channel=0, note=61, velocity=0, time=152)\n",
      "Message('note_on', channel=0, note=62, velocity=69, time=5)\n",
      "Message('note_on', channel=0, note=67, velocity=69, time=12)\n",
      "Message('note_on', channel=0, note=76, velocity=0, time=11)\n",
      "Message('control_change', channel=0, control=64, value=58, time=100)\n",
      "Message('note_on', channel=0, note=67, velocity=0, time=77)\n",
      "Message('note_on', channel=0, note=64, velocity=66, time=1)\n",
      "Message('note_on', channel=0, note=64, velocity=0, time=196)\n",
      "Message('note_on', channel=0, note=66, velocity=69, time=8)\n",
      "Message('note_on', channel=0, note=69, velocity=67, time=175)\n",
      "Message('control_change', channel=0, control=64, value=56, time=12)\n",
      "Message('control_change', channel=0, control=64, value=50, time=111)\n",
      "Message('control_change', channel=0, control=64, value=23, time=20)\n",
      "Message('control_change', channel=0, control=64, value=0, time=18)\n",
      "Message('control_change', channel=0, control=64, value=15, time=39)\n",
      "Message('note_on', channel=0, note=72, velocity=73, time=2)\n",
      "Message('control_change', channel=0, control=64, value=33, time=17)\n",
      "Message('control_change', channel=0, control=64, value=42, time=19)\n",
      "Message('control_change', channel=0, control=64, value=47, time=20)\n",
      "Message('control_change', channel=0, control=64, value=52, time=19)\n",
      "Message('control_change', channel=0, control=64, value=56, time=16)\n",
      "Message('control_change', channel=0, control=64, value=60, time=20)\n",
      "Message('control_change', channel=0, control=67, value=52, time=1)\n",
      "Message('control_change', channel=0, control=64, value=65, time=18)\n",
      "Message('control_change', channel=0, control=64, value=68, time=18)\n",
      "Message('note_on', channel=0, note=62, velocity=0, time=2)\n",
      "Message('note_on', channel=0, note=57, velocity=61, time=29)\n",
      "Message('control_change', channel=0, control=64, value=65, time=6)\n",
      "Message('control_change', channel=0, control=64, value=61, time=20)\n",
      "Message('control_change', channel=0, control=64, value=58, time=18)\n",
      "Message('note_on', channel=0, note=57, velocity=0, time=16)\n",
      "Message('control_change', channel=0, control=64, value=55, time=79)\n",
      "Message('control_change', channel=0, control=64, value=51, time=19)\n",
      "Message('control_change', channel=0, control=64, value=48, time=21)\n",
      "Message('note_on', channel=0, note=54, velocity=61, time=24)\n",
      "Message('note_on', channel=0, note=54, velocity=0, time=50)\n",
      "Message('note_on', channel=0, note=69, velocity=0, time=92)\n",
      "Message('note_on', channel=0, note=50, velocity=56, time=67)\n",
      "Message('note_on', channel=0, note=66, velocity=0, time=1)\n",
      "Message('note_on', channel=0, note=50, velocity=0, time=39)\n",
      "Message('control_change', channel=0, control=64, value=46, time=79)\n",
      "Message('control_change', channel=0, control=64, value=42, time=21)\n",
      "Message('control_change', channel=0, control=64, value=31, time=17)\n",
      "Message('control_change', channel=0, control=64, value=26, time=21)\n",
      "Message('control_change', channel=0, control=64, value=43, time=38)\n",
      "Message('note_on', channel=0, note=55, velocity=52, time=11)\n",
      "Message('control_change', channel=0, control=64, value=57, time=5)\n",
      "Message('control_change', channel=0, control=64, value=68, time=21)\n",
      "Message('control_change', channel=0, control=64, value=74, time=19)\n",
      "Message('control_change', channel=0, control=64, value=77, time=19)\n",
      "Message('control_change', channel=0, control=64, value=80, time=37)\n",
      "Message('control_change', channel=0, control=64, value=83, time=39)\n",
      "Message('note_on', channel=0, note=72, velocity=0, time=9)\n",
      "Message('note_on', channel=0, note=69, velocity=61, time=36)\n",
      "Message('note_on', channel=0, note=71, velocity=70, time=189)\n",
      "Message('note_on', channel=0, note=69, velocity=0, time=17)\n",
      "Message('control_change', channel=0, control=64, value=81, time=68)\n",
      "Message('control_change', channel=0, control=64, value=78, time=39)\n",
      "Message('control_change', channel=0, control=64, value=76, time=18)\n",
      "Message('note_on', channel=0, note=74, velocity=81, time=45)\n",
      "Message('note_on', channel=0, note=71, velocity=0, time=15)\n",
      "Message('control_change', channel=0, control=64, value=73, time=55)\n",
      "Message('note_on', channel=0, note=77, velocity=77, time=154)\n",
      "Message('note_on', channel=0, note=74, velocity=0, time=21)\n",
      "Message('control_change', channel=0, control=64, value=75, time=7)\n",
      "Message('note_on', channel=0, note=57, velocity=13, time=69)\n",
      "Message('note_on', channel=0, note=55, velocity=0, time=20)\n",
      "Message('note_on', channel=0, note=57, velocity=0, time=51)\n",
      "Message('note_on', channel=0, note=57, velocity=32, time=0)\n",
      "Message('note_on', channel=0, note=72, velocity=61, time=15)\n",
      "Message('control_change', channel=0, control=64, value=72, time=35)\n",
      "Message('note_on', channel=0, note=57, velocity=0, time=35)\n",
      "Message('control_change', channel=0, control=64, value=69, time=2)\n",
      "Message('control_change', channel=0, control=64, value=68, time=21)\n",
      "Message('note_on', channel=0, note=72, velocity=0, time=92)\n",
      "Message('note_on', channel=0, note=74, velocity=76, time=4)\n",
      "Message('note_on', channel=0, note=57, velocity=51, time=11)\n",
      "Message('control_change', channel=0, control=64, value=67, time=5)\n",
      "Message('control_change', channel=0, control=64, value=68, time=75)\n",
      "Message('note_on', channel=0, note=57, velocity=0, time=19)\n",
      "Message('control_change', channel=0, control=64, value=67, time=18)\n",
      "Message('control_change', channel=0, control=64, value=66, time=20)\n",
      "Message('note_on', channel=0, note=59, velocity=59, time=2)\n",
      "Message('note_on', channel=0, note=74, velocity=0, time=10)\n",
      "Message('control_change', channel=0, control=64, value=65, time=6)\n",
      "Message('note_on', channel=0, note=71, velocity=69, time=15)\n",
      "Message('control_change', channel=0, control=64, value=63, time=80)\n",
      "Message('control_change', channel=0, control=64, value=61, time=19)\n",
      "Message('note_on', channel=0, note=59, velocity=0, time=8)\n",
      "Message('control_change', channel=0, control=64, value=51, time=9)\n",
      "Message('control_change', channel=0, control=64, value=32, time=21)\n",
      "Message('note_on', channel=0, note=55, velocity=53, time=14)\n",
      "Message('control_change', channel=0, control=64, value=25, time=3)\n",
      "Message('note_on', channel=0, note=67, velocity=64, time=50)\n",
      "Message('note_on', channel=0, note=71, velocity=0, time=3)\n",
      "Message('note_on', channel=0, note=60, velocity=74, time=57)\n",
      "Message('note_on', channel=0, note=55, velocity=0, time=8)\n",
      "Message('control_change', channel=0, control=64, value=35, time=35)\n",
      "Message('note_on', channel=0, note=67, velocity=0, time=116)\n",
      "Message('note_on', channel=0, note=71, velocity=68, time=6)\n",
      "Message('control_change', channel=0, control=64, value=43, time=25)\n",
      "Message('control_change', channel=0, control=64, value=47, time=18)\n",
      "Message('control_change', channel=0, control=64, value=49, time=133)\n",
      "Message('note_on', channel=0, note=72, velocity=63, time=34)\n",
      "Message('note_on', channel=0, note=71, velocity=0, time=5)\n",
      "Message('note_on', channel=0, note=74, velocity=61, time=11)\n",
      "Message('control_change', channel=0, control=64, value=47, time=26)\n",
      "Message('note_on', channel=0, note=74, velocity=0, time=75)\n",
      "Message('note_on', channel=0, note=72, velocity=0, time=48)\n",
      "Message('note_on', channel=0, note=76, velocity=74, time=6)\n",
      "Message('note_on', channel=0, note=77, velocity=0, time=39)\n",
      "Message('control_change', channel=0, control=64, value=51, time=1)\n",
      "Message('control_change', channel=0, control=64, value=57, time=20)\n",
      "Message('control_change', channel=0, control=64, value=60, time=17)\n",
      "Message('note_on', channel=0, note=76, velocity=0, time=125)\n",
      "Message('note_on', channel=0, note=78, velocity=80, time=3)\n",
      "Message('note_on', channel=0, note=74, velocity=72, time=182)\n",
      "Message('note_on', channel=0, note=57, velocity=64, time=21)\n",
      "Message('note_on', channel=0, note=60, velocity=0, time=16)\n",
      "Message('control_change', channel=0, control=64, value=61, time=32)\n",
      "Message('control_change', channel=0, control=64, value=60, time=108)\n",
      "Message('note_on', channel=0, note=74, velocity=0, time=1)\n",
      "Message('control_change', channel=0, control=64, value=56, time=18)\n",
      "Message('note_on', channel=0, note=79, velocity=80, time=15)\n",
      "Message('control_change', channel=0, control=64, value=52, time=4)\n",
      "Message('note_on', channel=0, note=59, velocity=59, time=3)\n",
      "Message('control_change', channel=0, control=64, value=44, time=16)\n",
      "Message('control_change', channel=0, control=64, value=37, time=19)\n",
      "Message('note_on', channel=0, note=57, velocity=0, time=11)\n",
      "Message('control_change', channel=0, control=64, value=46, time=27)\n",
      "Message('control_change', channel=0, control=64, value=51, time=20)\n",
      "Message('control_change', channel=0, control=64, value=57, time=20)\n",
      "Message('control_change', channel=0, control=64, value=64, time=17)\n",
      "Message('note_on', channel=0, note=59, velocity=0, time=8)\n",
      "Message('control_change', channel=0, control=64, value=69, time=11)\n",
      "Message('control_change', channel=0, control=64, value=72, time=19)\n",
      "Message('note_on', channel=0, note=79, velocity=0, time=1)\n",
      "Message('note_on', channel=0, note=62, velocity=65, time=13)\n",
      "Message('control_change', channel=0, control=67, value=56, time=5)\n",
      "Message('note_on', channel=0, note=74, velocity=69, time=2)\n",
      "Message('note_on', channel=0, note=78, velocity=0, time=0)\n",
      "Message('control_change', channel=0, control=64, value=74, time=72)\n",
      "Message('control_change', channel=0, control=64, value=68, time=78)\n",
      "Message('control_change', channel=0, control=64, value=60, time=18)\n",
      "Message('control_change', channel=0, control=64, value=58, time=18)\n",
      "Message('note_on', channel=0, note=81, velocity=81, time=1)\n",
      "Message('note_on', channel=0, note=54, velocity=66, time=3)\n",
      "Message('control_change', channel=0, control=64, value=60, time=16)\n",
      "Message('control_change', channel=0, control=64, value=62, time=18)\n",
      "Message('note_on', channel=0, note=74, velocity=0, time=2)\n",
      "Message('note_on', channel=0, note=62, velocity=0, time=10)\n",
      "Message('control_change', channel=0, control=64, value=65, time=6)\n",
      "Message('control_change', channel=0, control=64, value=67, time=18)\n",
      "Message('note_on', channel=0, note=54, velocity=0, time=96)\n",
      "Message('note_on', channel=0, note=57, velocity=63, time=15)\n",
      "Message('note_on', channel=0, note=74, velocity=73, time=6)\n",
      "Message('note_on', channel=0, note=81, velocity=0, time=12)\n",
      "Message('control_change', channel=0, control=64, value=69, time=62)\n",
      "Message('control_change', channel=0, control=64, value=71, time=36)\n",
      "Message('control_change', channel=0, control=64, value=65, time=39)\n",
      "Message('control_change', channel=0, control=64, value=51, time=19)\n",
      "Message('control_change', channel=0, control=64, value=15, time=19)\n",
      "Message('note_on', channel=0, note=83, velocity=82, time=9)\n",
      "Message('note_on', channel=0, note=55, velocity=63, time=3)\n",
      "Message('note_on', channel=0, note=57, velocity=0, time=2)\n",
      "Message('control_change', channel=0, control=64, value=11, time=6)\n",
      "Message('control_change', channel=0, control=64, value=29, time=19)\n",
      "Message('note_on', channel=0, note=74, velocity=0, time=4)\n",
      "Message('control_change', channel=0, control=64, value=48, time=14)\n",
      "Message('control_change', channel=0, control=64, value=60, time=33)\n",
      "Message('control_change', channel=0, control=64, value=66, time=19)\n",
      "Message('control_change', channel=0, control=64, value=67, time=38)\n",
      "Message('control_change', channel=0, control=64, value=68, time=18)\n",
      "Message('note_on', channel=0, note=55, velocity=0, time=6)\n",
      "Message('note_on', channel=0, note=83, velocity=0, time=27)\n",
      "Message('control_change', channel=0, control=64, value=71, time=6)\n",
      "Message('note_on', channel=0, note=74, velocity=73, time=10)\n",
      "Message('note_on', channel=0, note=59, velocity=62, time=3)\n",
      "Message('control_change', channel=0, control=64, value=74, time=5)\n",
      "Message('control_change', channel=0, control=64, value=71, time=132)\n",
      "Message('control_change', channel=0, control=64, value=68, time=20)\n",
      "Message('note_on', channel=0, note=74, velocity=0, time=6)\n",
      "Message('control_change', channel=0, control=64, value=63, time=14)\n",
      "Message('note_on', channel=0, note=76, velocity=74, time=10)\n",
      "Message('note_on', channel=0, note=48, velocity=60, time=1)\n",
      "Message('note_on', channel=0, note=59, velocity=0, time=26)\n",
      "Message('control_change', channel=0, control=64, value=64, time=58)\n",
      "Message('control_change', channel=0, control=64, value=63, time=37)\n",
      "Message('note_on', channel=0, note=48, velocity=0, time=45)\n",
      "Message('note_on', channel=0, note=52, velocity=59, time=16)\n",
      "Message('note_on', channel=0, note=71, velocity=65, time=20)\n",
      "Message('control_change', channel=0, control=64, value=65, time=13)\n",
      "Message('control_change', channel=0, control=64, value=64, time=94)\n",
      "Message('control_change', channel=0, control=64, value=65, time=37)\n",
      "Message('note_on', channel=0, note=52, velocity=0, time=12)\n",
      "Message('note_on', channel=0, note=71, velocity=0, time=3)\n",
      "Message('note_on', channel=0, note=72, velocity=70, time=23)\n",
      "Message('note_on', channel=0, note=45, velocity=37, time=18)\n",
      "Message('note_on', channel=0, note=43, velocity=37, time=2)\n",
      "Message('note_on', channel=0, note=76, velocity=0, time=39)\n",
      "Message('control_change', channel=0, control=64, value=67, time=35)\n",
      "Message('control_change', channel=0, control=64, value=69, time=39)\n",
      "Message('note_on', channel=0, note=43, velocity=0, time=3)\n",
      "Message('note_on', channel=0, note=81, velocity=76, time=49)\n",
      "Message('note_on', channel=0, note=48, velocity=58, time=1)\n",
      "Message('note_on', channel=0, note=45, velocity=0, time=12)\n",
      "Message('control_change', channel=0, control=64, value=71, time=62)\n",
      "Message('control_change', channel=0, control=64, value=69, time=94)\n",
      "Message('control_change', channel=0, control=64, value=62, time=19)\n",
      "Message('control_change', channel=0, control=64, value=55, time=19)\n",
      "Message('note_on', channel=0, note=50, velocity=63, time=10)\n",
      "Message('note_on', channel=0, note=79, velocity=75, time=0)\n",
      "Message('note_on', channel=0, note=48, velocity=0, time=1)\n",
      "Message('note_on', channel=0, note=81, velocity=0, time=5)\n",
      "Message('control_change', channel=0, control=64, value=43, time=3)\n",
      "Message('control_change', channel=0, control=64, value=25, time=19)\n",
      "Message('control_change', channel=0, control=64, value=42, time=39)\n",
      "Message('control_change', channel=0, control=64, value=50, time=20)\n",
      "Message('control_change', channel=0, control=64, value=57, time=16)\n",
      "Message('control_change', channel=0, control=64, value=63, time=20)\n",
      "Message('control_change', channel=0, control=64, value=67, time=18)\n",
      "Message('note_on', channel=0, note=79, velocity=0, time=30)\n",
      "Message('note_on', channel=0, note=76, velocity=74, time=3)\n",
      "Message('control_change', channel=0, control=64, value=69, time=61)\n",
      "Message('control_change', channel=0, control=64, value=72, time=20)\n",
      "Message('control_change', channel=0, control=64, value=68, time=75)\n",
      "Message('control_change', channel=0, control=64, value=60, time=18)\n",
      "Message('note_on', channel=0, note=76, velocity=0, time=18)\n",
      "Message('control_change', channel=0, control=64, value=55, time=2)\n",
      "Message('note_on', channel=0, note=38, velocity=66, time=6)\n",
      "Message('note_on', channel=0, note=78, velocity=71, time=1)\n",
      "Message('note_on', channel=0, note=72, velocity=0, time=1)\n",
      "Message('note_on', channel=0, note=50, velocity=0, time=28)\n",
      "Message('control_change', channel=0, control=64, value=57, time=1)\n",
      "Message('control_change', channel=0, control=64, value=59, time=18)\n",
      "Message('control_change', channel=0, control=64, value=63, time=20)\n",
      "Message('control_change', channel=0, control=64, value=66, time=19)\n",
      "Message('control_change', channel=0, control=64, value=68, time=59)\n",
      "Message('control_change', channel=0, control=64, value=71, time=18)\n",
      "Message('note_on', channel=0, note=69, velocity=69, time=31)\n",
      "Message('control_change', channel=0, control=64, value=69, time=63)\n",
      "Message('control_change', channel=0, control=64, value=67, time=75)\n",
      "Message('control_change', channel=0, control=64, value=63, time=19)\n",
      "Message('note_on', channel=0, note=69, velocity=0, time=7)\n",
      "Message('control_change', channel=0, control=64, value=59, time=11)\n",
      "Message('note_on', channel=0, note=43, velocity=60, time=23)\n",
      "Message('note_on', channel=0, note=71, velocity=65, time=2)\n",
      "Message('note_on', channel=0, note=78, velocity=0, time=45)\n",
      "Message('note_on', channel=0, note=43, velocity=0, time=59)\n",
      "Message('note_on', channel=0, note=67, velocity=64, time=106)\n",
      "Message('control_change', channel=0, control=64, value=57, time=8)\n",
      "Message('note_on', channel=0, note=71, velocity=0, time=17)\n",
      "Message('control_change', channel=0, control=64, value=50, time=115)\n",
      "Message('control_change', channel=0, control=64, value=28, time=18)\n",
      "Message('control_change', channel=0, control=64, value=0, time=17)\n",
      "Message('note_on', channel=0, note=67, velocity=0, time=3)\n",
      "Message('note_on', channel=0, note=76, velocity=66, time=29)\n",
      "Message('note_on', channel=0, note=49, velocity=53, time=10)\n",
      "Message('control_change', channel=0, control=64, value=35, time=55)\n",
      "Message('note_on', channel=0, note=49, velocity=0, time=15)\n",
      "Message('control_change', channel=0, control=64, value=55, time=4)\n",
      "Message('control_change', channel=0, control=64, value=67, time=18)\n",
      "Message('control_change', channel=0, control=64, value=75, time=19)\n",
      "Message('control_change', channel=0, control=64, value=81, time=19)\n",
      "Message('control_change', channel=0, control=64, value=84, time=19)\n",
      "Message('note_on', channel=0, note=76, velocity=0, time=37)\n",
      "Message('note_on', channel=0, note=67, velocity=56, time=23)\n",
      "Message('note_on', channel=0, note=67, velocity=0, time=185)\n",
      "Message('control_change', channel=0, control=64, value=81, time=18)\n",
      "Message('note_on', channel=0, note=38, velocity=0, time=1)\n",
      "Message('control_change', channel=0, control=64, value=79, time=18)\n",
      "Message('control_change', channel=0, control=64, value=76, time=19)\n",
      "Message('note_on', channel=0, note=66, velocity=62, time=0)\n",
      "Message('note_on', channel=0, note=50, velocity=56, time=10)\n",
      "Message('control_change', channel=0, control=64, value=74, time=9)\n",
      "Message('control_change', channel=0, control=64, value=71, time=59)\n",
      "Message('control_change', channel=0, control=64, value=69, time=18)\n",
      "Message('control_change', channel=0, control=64, value=67, time=33)\n",
      "Message('control_change', channel=0, control=64, value=66, time=18)\n",
      "Message('note_on', channel=0, note=54, velocity=50, time=81)\n",
      "Message('control_change', channel=0, control=64, value=65, time=14)\n",
      "Message('note_on', channel=0, note=62, velocity=61, time=0)\n",
      "Message('note_on', channel=0, note=50, velocity=0, time=11)\n",
      "Message('note_on', channel=0, note=66, velocity=0, time=8)\n",
      "Message('control_change', channel=0, control=64, value=64, time=20)\n",
      "Message('control_change', channel=0, control=64, value=63, time=93)\n",
      "Message('note_on', channel=0, note=52, velocity=58, time=47)\n",
      "Message('note_on', channel=0, note=54, velocity=0, time=3)\n",
      "Message('note_on', channel=0, note=62, velocity=0, time=16)\n",
      "Message('note_on', channel=0, note=67, velocity=63, time=1)\n",
      "Message('note_on', channel=0, note=62, velocity=58, time=178)\n",
      "Message('note_on', channel=0, note=67, velocity=0, time=0)\n",
      "Message('note_on', channel=0, note=55, velocity=50, time=7)\n",
      "Message('control_change', channel=0, control=64, value=62, time=13)\n",
      "Message('note_on', channel=0, note=52, velocity=0, time=38)\n",
      "Message('note_on', channel=0, note=62, velocity=0, time=116)\n",
      "Message('note_on', channel=0, note=69, velocity=61, time=18)\n",
      "Message('note_on', channel=0, note=54, velocity=52, time=7)\n",
      "Message('note_on', channel=0, note=55, velocity=0, time=10)\n",
      "Message('note_on', channel=0, note=69, velocity=0, time=155)\n",
      "Message('note_on', channel=0, note=57, velocity=51, time=11)\n",
      "Message('note_on', channel=0, note=54, velocity=0, time=6)\n",
      "Message('note_on', channel=0, note=62, velocity=55, time=7)\n",
      "Message('note_on', channel=0, note=50, velocity=51, time=200)\n",
      "Message('note_on', channel=0, note=57, velocity=0, time=10)\n",
      "Message('note_on', channel=0, note=72, velocity=66, time=4)\n",
      "Message('note_on', channel=0, note=72, velocity=0, time=138)\n",
      "Message('note_on', channel=0, note=54, velocity=59, time=27)\n",
      "Message('note_on', channel=0, note=50, velocity=0, time=9)\n",
      "Message('note_on', channel=0, note=69, velocity=58, time=3)\n",
      "Message('control_change', channel=0, control=64, value=58, time=144)\n",
      "Message('control_change', channel=0, control=64, value=25, time=17)\n",
      "Message('control_change', channel=0, control=64, value=0, time=19)\n",
      "Message('note_on', channel=0, note=54, velocity=0, time=5)\n",
      "Message('note_on', channel=0, note=62, velocity=0, time=1)\n",
      "Message('note_on', channel=0, note=55, velocity=58, time=5)\n",
      "Message('note_on', channel=0, note=70, velocity=66, time=6)\n",
      "Message('note_on', channel=0, note=69, velocity=0, time=1)\n",
      "Message('control_change', channel=0, control=64, value=16, time=115)\n",
      "Message('control_change', channel=0, control=64, value=39, time=20)\n",
      "Message('control_change', channel=0, control=64, value=48, time=17)\n",
      "Message('control_change', channel=0, control=64, value=53, time=22)\n",
      "Message('control_change', channel=0, control=64, value=55, time=16)\n",
      "Message('note_on', channel=0, note=62, velocity=57, time=0)\n",
      "Message('control_change', channel=0, control=64, value=59, time=57)\n",
      "Message('note_on', channel=0, note=55, velocity=0, time=8)\n",
      "Message('control_change', channel=0, control=64, value=62, time=11)\n",
      "Message('control_change', channel=0, control=64, value=64, time=18)\n",
      "Message('control_change', channel=0, control=64, value=66, time=38)\n",
      "Message('control_change', channel=0, control=64, value=62, time=38)\n",
      "Message('note_on', channel=0, note=62, velocity=0, time=10)\n",
      "Message('control_change', channel=0, control=64, value=53, time=9)\n",
      "Message('note_on', channel=0, note=67, velocity=65, time=2)\n",
      "Message('note_on', channel=0, note=53, velocity=59, time=5)\n",
      "Message('control_change', channel=0, control=64, value=36, time=14)\n",
      "Message('control_change', channel=0, control=64, value=25, time=18)\n",
      "Message('note_on', channel=0, note=70, velocity=0, time=50)\n",
      "Message('control_change', channel=0, control=64, value=40, time=1)\n",
      "Message('control_change', channel=0, control=64, value=52, time=20)\n",
      "Message('control_change', channel=0, control=64, value=59, time=19)\n",
      "Message('control_change', channel=0, control=64, value=63, time=18)\n",
      "Message('control_change', channel=0, control=64, value=65, time=18)\n",
      "Message('note_on', channel=0, note=69, velocity=70, time=46)\n",
      "Message('note_on', channel=0, note=53, velocity=0, time=25)\n",
      "Message('control_change', channel=0, control=64, value=66, time=4)\n",
      "Message('note_on', channel=0, note=67, velocity=0, time=9)\n",
      "Message('control_change', channel=0, control=64, value=68, time=29)\n",
      "Message('control_change', channel=0, control=64, value=64, time=95)\n",
      "Message('control_change', channel=0, control=64, value=51, time=19)\n",
      "Message('note_on', channel=0, note=70, velocity=80, time=13)\n",
      "Message('control_change', channel=0, control=64, value=9, time=5)\n",
      "Message('note_on', channel=0, note=51, velocity=65, time=11)\n",
      "Message('control_change', channel=0, control=64, value=0, time=8)\n",
      "Message('note_on', channel=0, note=69, velocity=0, time=15)\n",
      "Message('control_change', channel=0, control=64, value=11, time=24)\n",
      "Message('control_change', channel=0, control=64, value=41, time=18)\n",
      "Message('control_change', channel=0, control=64, value=54, time=19)\n",
      "Message('control_change', channel=0, control=64, value=59, time=20)\n",
      "Message('control_change', channel=0, control=64, value=61, time=18)\n",
      "Message('control_change', channel=0, control=64, value=62, time=38)\n",
      "Message('note_on', channel=0, note=70, velocity=0, time=0)\n",
      "Message('note_on', channel=0, note=67, velocity=62, time=9)\n",
      "Message('note_on', channel=0, note=51, velocity=0, time=5)\n",
      "Message('control_change', channel=0, control=64, value=63, time=25)\n",
      "Message('control_change', channel=0, control=64, value=64, time=18)\n",
      "Message('control_change', channel=0, control=64, value=66, time=18)\n",
      "Message('control_change', channel=0, control=64, value=67, time=19)\n",
      "Message('control_change', channel=0, control=64, value=64, time=77)\n",
      "Message('control_change', channel=0, control=64, value=58, time=19)\n",
      "Message('control_change', channel=0, control=64, value=55, time=18)\n",
      "Message('note_on', channel=0, note=71, velocity=76, time=4)\n",
      "Message('note_on', channel=0, note=67, velocity=0, time=5)\n",
      "Message('note_on', channel=0, note=50, velocity=62, time=3)\n",
      "Message('control_change', channel=0, control=64, value=57, time=26)\n",
      "Message('control_change', channel=0, control=64, value=62, time=19)\n",
      "Message('control_change', channel=0, control=64, value=66, time=17)\n",
      "Message('control_change', channel=0, control=64, value=68, time=20)\n",
      "Message('note_on', channel=0, note=50, velocity=0, time=56)\n",
      "Message('note_on', channel=0, note=67, velocity=59, time=27)\n",
      "Message('note_on', channel=0, note=71, velocity=0, time=77)\n",
      "Message('control_change', channel=0, control=64, value=70, time=5)\n",
      "Message('control_change', channel=0, control=64, value=65, time=96)\n",
      "Message('control_change', channel=0, control=64, value=51, time=18)\n",
      "Message('control_change', channel=0, control=64, value=0, time=19)\n",
      "Message('note_on', channel=0, note=72, velocity=76, time=14)\n",
      "Message('note_on', channel=0, note=51, velocity=65, time=3)\n",
      "Message('note_on', channel=0, note=67, velocity=0, time=9)\n",
      "Message('control_change', channel=0, control=64, value=19, time=12)\n",
      "Message('control_change', channel=0, control=64, value=52, time=19)\n",
      "Message('control_change', channel=0, control=64, value=69, time=18)\n",
      "Message('control_change', channel=0, control=64, value=79, time=20)\n",
      "Message('control_change', channel=0, control=64, value=88, time=18)\n",
      "Message('control_change', channel=0, control=64, value=97, time=21)\n",
      "Message('note_on', channel=0, note=72, velocity=0, time=11)\n",
      "Message('control_change', channel=0, control=64, value=102, time=5)\n",
      "Message('note_on', channel=0, note=67, velocity=68, time=44)\n",
      "Message('note_on', channel=0, note=51, velocity=0, time=41)\n",
      "Message('control_change', channel=0, control=64, value=93, time=126)\n",
      "Message('control_change', channel=0, control=64, value=74, time=17)\n",
      "Message('control_change', channel=0, control=64, value=49, time=21)\n",
      "Message('note_on', channel=0, note=75, velocity=80, time=3)\n",
      "Message('control_change', channel=0, control=64, value=38, time=13)\n",
      "Message('note_on', channel=0, note=48, velocity=56, time=1)\n",
      "Message('control_change', channel=0, control=64, value=46, time=18)\n",
      "Message('control_change', channel=0, control=64, value=56, time=19)\n",
      "Message('control_change', channel=0, control=64, value=63, time=19)\n",
      "Message('note_on', channel=0, note=67, velocity=0, time=0)\n",
      "Message('control_change', channel=0, control=64, value=66, time=19)\n",
      "Message('note_on', channel=0, note=75, velocity=0, time=44)\n",
      "Message('note_on', channel=0, note=48, velocity=0, time=7)\n",
      "Message('note_on', channel=0, note=74, velocity=76, time=42)\n",
      "Message('control_change', channel=0, control=64, value=68, time=21)\n",
      "Message('control_change', channel=0, control=64, value=71, time=37)\n",
      "Message('control_change', channel=0, control=64, value=68, time=95)\n",
      "Message('control_change', channel=0, control=64, value=61, time=18)\n",
      "Message('control_change', channel=0, control=64, value=49, time=21)\n",
      "Message('note_on', channel=0, note=45, velocity=55, time=10)\n",
      "Message('note_on', channel=0, note=73, velocity=69, time=0)\n",
      "Message('note_on', channel=0, note=74, velocity=0, time=4)\n",
      "Message('control_change', channel=0, control=64, value=35, time=4)\n",
      "Message('control_change', channel=0, control=64, value=48, time=52)\n",
      "Message('control_change', channel=0, control=64, value=58, time=20)\n",
      "Message('control_change', channel=0, control=64, value=65, time=19)\n",
      "Message('control_change', channel=0, control=64, value=72, time=17)\n",
      "Message('control_change', channel=0, control=64, value=74, time=19)\n",
      "Message('note_on', channel=0, note=67, velocity=59, time=69)\n",
      "Message('control_change', channel=0, control=64, value=76, time=25)\n",
      "Message('control_change', channel=0, control=64, value=79, time=20)\n",
      "Message('note_on', channel=0, note=45, velocity=0, time=14)\n",
      "Message('control_change', channel=0, control=64, value=76, time=44)\n",
      "Message('note_on', channel=0, note=67, velocity=0, time=47)\n",
      "Message('control_change', channel=0, control=64, value=79, time=27)\n",
      "Message('note_on', channel=0, note=73, velocity=0, time=3)\n",
      "Message('note_on', channel=0, note=66, velocity=56, time=18)\n",
      "Message('note_on', channel=0, note=50, velocity=60, time=7)\n",
      "Message('control_change', channel=0, control=64, value=81, time=27)\n",
      "Message('control_change', channel=0, control=64, value=84, time=20)\n",
      "Message('note_on', channel=0, note=50, velocity=0, time=8)\n",
      "Message('control_change', channel=0, control=64, value=89, time=11)\n",
      "Message('control_change', channel=0, control=64, value=95, time=19)\n",
      "Message('control_change', channel=0, control=64, value=100, time=18)\n",
      "Message('note_on', channel=0, note=66, velocity=0, time=62)\n",
      "Message('note_on', channel=0, note=72, velocity=74, time=0)\n",
      "Message('note_on', channel=0, note=72, velocity=0, time=193)\n",
      "Message('note_on', channel=0, note=71, velocity=70, time=22)\n",
      "Message('control_change', channel=0, control=64, value=88, time=7)\n",
      "Message('note_on', channel=0, note=55, velocity=59, time=1)\n",
      "Message('control_change', channel=0, control=64, value=70, time=18)\n",
      "Message('control_change', channel=0, control=64, value=48, time=18)\n",
      "Message('control_change', channel=0, control=64, value=44, time=20)\n",
      "Message('note_on', channel=0, note=69, velocity=69, time=7)\n",
      "Message('note_on', channel=0, note=71, velocity=0, time=9)\n",
      "Message('control_change', channel=0, control=64, value=49, time=2)\n",
      "Message('control_change', channel=0, control=64, value=52, time=19)\n",
      "Message('note_on', channel=0, note=69, velocity=0, time=58)\n",
      "Message('note_on', channel=0, note=67, velocity=69, time=21)\n",
      "Message('note_on', channel=0, note=67, velocity=0, time=81)\n",
      "Message('note_on', channel=0, note=65, velocity=67, time=25)\n",
      "Message('note_on', channel=0, note=65, velocity=0, time=94)\n",
      "Message('note_on', channel=0, note=48, velocity=55, time=11)\n",
      "Message('note_on', channel=0, note=64, velocity=70, time=2)\n",
      "Message('control_change', channel=0, control=67, value=60, time=25)\n",
      "Message('note_on', channel=0, note=48, velocity=0, time=147)\n",
      "Message('note_on', channel=0, note=55, velocity=0, time=5)\n",
      "Message('note_on', channel=0, note=64, velocity=0, time=9)\n",
      "Message('note_on', channel=0, note=69, velocity=70, time=6)\n",
      "Message('note_on', channel=0, note=60, velocity=53, time=14)\n",
      "Message('note_on', channel=0, note=60, velocity=0, time=182)\n",
      "Message('note_on', channel=0, note=59, velocity=54, time=4)\n",
      "Message('control_change', channel=0, control=64, value=54, time=10)\n",
      "Message('note_on', channel=0, note=62, velocity=59, time=1)\n",
      "Message('note_on', channel=0, note=50, velocity=51, time=4)\n",
      "Message('control_change', channel=0, control=64, value=51, time=70)\n",
      "Message('note_on', channel=0, note=69, velocity=0, time=74)\n",
      "Message('control_change', channel=0, control=64, value=54, time=2)\n",
      "Message('note_on', channel=0, note=67, velocity=63, time=33)\n",
      "Message('control_change', channel=0, control=64, value=52, time=24)\n",
      "Message('control_change', channel=0, control=64, value=54, time=75)\n",
      "Message('note_on', channel=0, note=62, velocity=0, time=86)\n",
      "Message('control_change', channel=0, control=64, value=52, time=26)\n",
      "Message('note_on', channel=0, note=60, velocity=60, time=26)\n",
      "Message('note_on', channel=0, note=57, velocity=54, time=5)\n",
      "Message('note_on', channel=0, note=59, velocity=0, time=2)\n",
      "Message('note_on', channel=0, note=67, velocity=0, time=153)\n",
      "Message('note_on', channel=0, note=66, velocity=62, time=36)\n",
      "Message('note_on', channel=0, note=57, velocity=0, time=249)\n",
      "Message('note_on', channel=0, note=50, velocity=0, time=5)\n",
      "Message('note_on', channel=0, note=60, velocity=0, time=5)\n",
      "Message('note_on', channel=0, note=67, velocity=63, time=7)\n",
      "Message('note_on', channel=0, note=55, velocity=49, time=10)\n",
      "Message('note_on', channel=0, note=66, velocity=0, time=28)\n",
      "Message('note_on', channel=0, note=60, velocity=47, time=171)\n",
      "Message('note_on', channel=0, note=60, velocity=0, time=198)\n",
      "Message('note_on', channel=0, note=62, velocity=56, time=3)\n",
      "Message('note_on', channel=0, note=57, velocity=54, time=220)\n",
      "Message('note_on', channel=0, note=57, velocity=0, time=225)\n",
      "Message('note_on', channel=0, note=59, velocity=50, time=19)\n",
      "Message('note_on', channel=0, note=54, velocity=46, time=235)\n",
      "Message('note_on', channel=0, note=55, velocity=0, time=3)\n",
      "Message('note_on', channel=0, note=54, velocity=0, time=263)\n",
      "Message('note_on', channel=0, note=55, velocity=50, time=41)\n",
      "Message('note_on', channel=0, note=50, velocity=40, time=336)\n",
      "Message('note_on', channel=0, note=43, velocity=43, time=658)\n",
      "Message('control_change', channel=0, control=64, value=54, time=466)\n",
      "Message('control_change', channel=0, control=64, value=56, time=168)\n",
      "Message('control_change', channel=0, control=64, value=58, time=39)\n",
      "Message('control_change', channel=0, control=64, value=60, time=58)\n",
      "Message('control_change', channel=0, control=64, value=61, time=17)\n",
      "Message('control_change', channel=0, control=64, value=62, time=39)\n",
      "Message('control_change', channel=0, control=64, value=63, time=18)\n",
      "Message('control_change', channel=0, control=64, value=64, time=36)\n",
      "Message('control_change', channel=0, control=64, value=65, time=38)\n",
      "Message('control_change', channel=0, control=64, value=66, time=56)\n",
      "Message('control_change', channel=0, control=64, value=68, time=38)\n",
      "Message('control_change', channel=0, control=64, value=70, time=92)\n",
      "Message('control_change', channel=0, control=64, value=72, time=57)\n",
      "Message('control_change', channel=0, control=64, value=74, time=57)\n",
      "Message('control_change', channel=0, control=64, value=76, time=39)\n",
      "Message('control_change', channel=0, control=64, value=79, time=36)\n",
      "Message('control_change', channel=0, control=64, value=83, time=39)\n",
      "Message('control_change', channel=0, control=64, value=85, time=16)\n",
      "Message('control_change', channel=0, control=64, value=93, time=39)\n",
      "Message('control_change', channel=0, control=64, value=97, time=20)\n",
      "Message('control_change', channel=0, control=64, value=102, time=17)\n",
      "Message('control_change', channel=0, control=64, value=107, time=21)\n",
      "Message('control_change', channel=0, control=64, value=111, time=19)\n",
      "Message('control_change', channel=0, control=64, value=117, time=36)\n",
      "Message('control_change', channel=0, control=64, value=123, time=39)\n",
      "Message('control_change', channel=0, control=64, value=127, time=36)\n",
      "Message('note_on', channel=0, note=59, velocity=0, time=222)\n",
      "Message('note_on', channel=0, note=67, velocity=0, time=44)\n",
      "Message('note_on', channel=0, note=43, velocity=0, time=17)\n",
      "Message('note_on', channel=0, note=62, velocity=0, time=26)\n",
      "Message('note_on', channel=0, note=50, velocity=0, time=114)\n",
      "Message('control_change', channel=0, control=67, value=56, time=27)\n",
      "Message('note_on', channel=0, note=55, velocity=0, time=16)\n",
      "Message('control_change', channel=0, control=64, value=120, time=99)\n",
      "Message('control_change', channel=0, control=64, value=98, time=18)\n",
      "Message('control_change', channel=0, control=67, value=50, time=1)\n",
      "Message('control_change', channel=0, control=64, value=74, time=18)\n",
      "Message('control_change', channel=0, control=64, value=59, time=18)\n",
      "Message('control_change', channel=0, control=64, value=53, time=21)\n",
      "Message('control_change', channel=0, control=64, value=51, time=36)\n",
      "Message('control_change', channel=0, control=64, value=48, time=74)\n",
      "Message('control_change', channel=0, control=64, value=38, time=20)\n",
      "Message('control_change', channel=0, control=64, value=33, time=19)\n",
      "Message('control_change', channel=0, control=64, value=28, time=57)\n",
      "Message('control_change', channel=0, control=64, value=0, time=19)\n",
      "Message('note_on', channel=0, note=79, velocity=79, time=8)\n",
      "Message('note_on', channel=0, note=79, velocity=0, time=37)\n",
      "Message('note_on', channel=0, note=79, velocity=82, time=58)\n",
      "Message('note_on', channel=0, note=55, velocity=60, time=14)\n",
      "Message('note_on', channel=0, note=74, velocity=69, time=6)\n",
      "Message('note_on', channel=0, note=71, velocity=63, time=5)\n",
      "Message('control_change', channel=0, control=64, value=20, time=22)\n",
      "Message('control_change', channel=0, control=64, value=56, time=19)\n",
      "Message('control_change', channel=0, control=64, value=67, time=20)\n",
      "Message('control_change', channel=0, control=64, value=74, time=19)\n",
      "Message('control_change', channel=0, control=64, value=80, time=19)\n",
      "Message('control_change', channel=0, control=64, value=87, time=19)\n",
      "Message('control_change', channel=0, control=64, value=93, time=17)\n",
      "Message('control_change', channel=0, control=64, value=98, time=20)\n",
      "Message('note_on', channel=0, note=71, velocity=0, time=53)\n",
      "Message('note_on', channel=0, note=74, velocity=0, time=5)\n",
      "Message('note_on', channel=0, note=78, velocity=71, time=2)\n",
      "Message('note_on', channel=0, note=79, velocity=0, time=4)\n",
      "Message('control_change', channel=0, control=64, value=89, time=83)\n",
      "Message('note_on', channel=0, note=55, velocity=0, time=17)\n",
      "Message('control_change', channel=0, control=64, value=78, time=1)\n",
      "Message('note_on', channel=0, note=76, velocity=77, time=1)\n",
      "Message('control_change', channel=0, control=64, value=68, time=19)\n",
      "Message('note_on', channel=0, note=78, velocity=0, time=15)\n",
      "Message('control_change', channel=0, control=64, value=62, time=3)\n",
      "Message('control_change', channel=0, control=64, value=61, time=19)\n",
      "Message('control_change', channel=0, control=64, value=59, time=20)\n",
      "Message('control_change', channel=0, control=64, value=52, time=19)\n",
      "Message('note_on', channel=0, note=76, velocity=0, time=3)\n",
      "Message('note_on', channel=0, note=74, velocity=80, time=8)\n",
      "Message('control_change', channel=0, control=64, value=37, time=7)\n",
      "Message('control_change', channel=0, control=64, value=23, time=18)\n",
      "Message('note_on', channel=0, note=74, velocity=0, time=33)\n",
      "Message('control_change', channel=0, control=64, value=9, time=24)\n",
      "Message('note_on', channel=0, note=72, velocity=69, time=9)\n",
      "Message('control_change', channel=0, control=64, value=0, time=11)\n",
      "Message('note_on', channel=0, note=72, velocity=0, time=61)\n",
      "Message('note_on', channel=0, note=71, velocity=75, time=29)\n",
      "Message('note_on', channel=0, note=62, velocity=74, time=1)\n",
      "Message('note_on', channel=0, note=62, velocity=0, time=34)\n",
      "Message('note_on', channel=0, note=71, velocity=0, time=28)\n",
      "Message('note_on', channel=0, note=69, velocity=80, time=22)\n",
      "Message('note_on', channel=0, note=69, velocity=0, time=57)\n",
      "Message('note_on', channel=0, note=71, velocity=81, time=61)\n",
      "Message('note_on', channel=0, note=67, velocity=77, time=3)\n",
      "Message('note_on', channel=0, note=67, velocity=0, time=30)\n",
      "Message('note_on', channel=0, note=71, velocity=0, time=32)\n",
      "Message('note_on', channel=0, note=74, velocity=76, time=35)\n",
      "Message('note_on', channel=0, note=74, velocity=0, time=93)\n",
      "Message('note_on', channel=0, note=69, velocity=81, time=13)\n",
      "Message('note_on', channel=0, note=66, velocity=76, time=3)\n",
      "Message('note_on', channel=0, note=66, velocity=0, time=27)\n",
      "Message('note_on', channel=0, note=69, velocity=0, time=20)\n",
      "Message('note_on', channel=0, note=72, velocity=82, time=57)\n",
      "Message('note_on', channel=0, note=72, velocity=0, time=53)\n",
      "Message('note_on', channel=0, note=67, velocity=74, time=66)\n",
      "Message('note_on', channel=0, note=71, velocity=88, time=7)\n",
      "Message('note_on', channel=0, note=71, velocity=0, time=23)\n",
      "Message('note_on', channel=0, note=67, velocity=0, time=162)\n",
      "Message('note_on', channel=0, note=67, velocity=83, time=38)\n",
      "Message('note_on', channel=0, note=66, velocity=66, time=7)\n",
      "Message('note_on', channel=0, note=66, velocity=0, time=33)\n",
      "Message('note_on', channel=0, note=67, velocity=0, time=10)\n",
      "Message('note_on', channel=0, note=64, velocity=67, time=48)\n",
      "Message('note_on', channel=0, note=62, velocity=72, time=103)\n",
      "Message('note_on', channel=0, note=64, velocity=0, time=7)\n",
      "Message('note_on', channel=0, note=71, velocity=82, time=0)\n",
      "Message('note_on', channel=0, note=71, velocity=0, time=25)\n",
      "Message('note_on', channel=0, note=62, velocity=0, time=45)\n",
      "Message('note_on', channel=0, note=60, velocity=70, time=39)\n",
      "Message('note_on', channel=0, note=74, velocity=82, time=91)\n",
      "Message('note_on', channel=0, note=60, velocity=0, time=3)\n",
      "Message('note_on', channel=0, note=59, velocity=72, time=9)\n",
      "Message('note_on', channel=0, note=74, velocity=0, time=22)\n",
      "Message('note_on', channel=0, note=59, velocity=0, time=59)\n",
      "Message('note_on', channel=0, note=57, velocity=69, time=30)\n",
      "Message('note_on', channel=0, note=79, velocity=80, time=96)\n",
      "Message('note_on', channel=0, note=59, velocity=77, time=5)\n",
      "Message('note_on', channel=0, note=57, velocity=0, time=4)\n",
      "Message('control_change', channel=0, control=67, value=54, time=6)\n",
      "Message('note_on', channel=0, note=79, velocity=0, time=13)\n",
      "Message('note_on', channel=0, note=59, velocity=0, time=30)\n",
      "Message('note_on', channel=0, note=62, velocity=69, time=65)\n",
      "Message('note_on', channel=0, note=62, velocity=0, time=84)\n",
      "Message('note_on', channel=0, note=57, velocity=75, time=5)\n",
      "Message('note_on', channel=0, note=77, velocity=44, time=52)\n",
      "Message('note_on', channel=0, note=77, velocity=0, time=39)\n",
      "Message('note_on', channel=0, note=57, velocity=0, time=11)\n",
      "Message('note_on', channel=0, note=60, velocity=70, time=10)\n",
      "Message('note_on', channel=0, note=60, velocity=0, time=44)\n",
      "Message('note_on', channel=0, note=59, velocity=78, time=52)\n",
      "Message('note_on', channel=0, note=79, velocity=80, time=15)\n",
      "Message('note_on', channel=0, note=59, velocity=0, time=26)\n",
      "Message('note_on', channel=0, note=79, velocity=0, time=33)\n",
      "Message('note_on', channel=0, note=81, velocity=69, time=40)\n",
      "Message('note_on', channel=0, note=55, velocity=79, time=111)\n",
      "Message('note_on', channel=0, note=81, velocity=0, time=2)\n",
      "Message('note_on', channel=0, note=83, velocity=70, time=0)\n",
      "Message('note_on', channel=0, note=55, velocity=0, time=33)\n",
      "Message('note_on', channel=0, note=83, velocity=0, time=36)\n",
      "Message('note_on', channel=0, note=79, velocity=75, time=15)\n",
      "Message('note_on', channel=0, note=79, velocity=0, time=92)\n",
      "Message('note_on', channel=0, note=59, velocity=75, time=23)\n",
      "Message('note_on', channel=0, note=74, velocity=80, time=14)\n",
      "Message('note_on', channel=0, note=59, velocity=0, time=26)\n",
      "Message('note_on', channel=0, note=74, velocity=0, time=37)\n",
      "Message('note_on', channel=0, note=77, velocity=72, time=41)\n",
      "Message('note_on', channel=0, note=76, velocity=81, time=115)\n",
      "Message('note_on', channel=0, note=77, velocity=0, time=2)\n",
      "Message('note_on', channel=0, note=57, velocity=67, time=4)\n",
      "Message('note_on', channel=0, note=55, velocity=61, time=18)\n",
      "Message('note_on', channel=0, note=57, velocity=0, time=19)\n",
      "Message('note_on', channel=0, note=55, velocity=0, time=12)\n",
      "Message('note_on', channel=0, note=76, velocity=0, time=20)\n",
      "Message('note_on', channel=0, note=74, velocity=82, time=15)\n",
      "Message('note_on', channel=0, note=74, velocity=0, time=57)\n",
      "Message('note_on', channel=0, note=60, velocity=82, time=55)\n",
      "Message('note_on', channel=0, note=76, velocity=82, time=5)\n",
      "Message('note_on', channel=0, note=60, velocity=0, time=30)\n",
      "Message('note_on', channel=0, note=76, velocity=0, time=50)\n",
      "Message('control_change', channel=0, control=64, value=13, time=19)\n",
      "Message('note_on', channel=0, note=81, velocity=83, time=11)\n",
      "Message('note_on', channel=0, note=81, velocity=0, time=67)\n",
      "Message('note_on', channel=0, note=57, velocity=82, time=31)\n",
      "Message('control_change', channel=0, control=64, value=26, time=3)\n",
      "Message('note_on', channel=0, note=83, velocity=84, time=3)\n",
      "Message('note_on', channel=0, note=57, velocity=0, time=27)\n",
      "Message('note_on', channel=0, note=83, velocity=0, time=57)\n",
      "Message('note_on', channel=0, note=84, velocity=82, time=15)\n",
      "Message('control_change', channel=0, control=64, value=34, time=31)\n",
      "Message('control_change', channel=0, control=64, value=38, time=39)\n",
      "Message('note_on', channel=0, note=84, velocity=0, time=22)\n",
      "Message('note_on', channel=0, note=62, velocity=73, time=23)\n",
      "Message('note_on', channel=0, note=78, velocity=80, time=1)\n",
      "Message('control_change', channel=0, control=64, value=34, time=9)\n",
      "Message('note_on', channel=0, note=78, velocity=0, time=15)\n",
      "Message('control_change', channel=0, control=64, value=28, time=101)\n",
      "Message('note_on', channel=0, note=74, velocity=77, time=90)\n",
      "Message('note_on', channel=0, note=62, velocity=0, time=17)\n",
      "Message('note_on', channel=0, note=60, velocity=64, time=2)\n",
      "Message('note_on', channel=0, note=74, velocity=0, time=12)\n",
      "Message('control_change', channel=0, control=64, value=20, time=29)\n",
      "Message('note_on', channel=0, note=59, velocity=71, time=74)\n",
      "Message('control_change', channel=0, control=64, value=27, time=17)\n",
      "Message('note_on', channel=0, note=60, velocity=0, time=4)\n",
      "Message('control_change', channel=0, control=64, value=23, time=52)\n",
      "Message('control_change', channel=0, control=64, value=18, time=19)\n",
      "Message('note_on', channel=0, note=57, velocity=75, time=17)\n",
      "Message('note_on', channel=0, note=59, velocity=0, time=10)\n",
      "Message('note_on', channel=0, note=57, velocity=0, time=37)\n",
      "Message('control_change', channel=0, control=64, value=22, time=9)\n",
      "Message('note_on', channel=0, note=76, velocity=73, time=41)\n",
      "Message('note_on', channel=0, note=55, velocity=75, time=14)\n",
      "Message('control_change', channel=0, control=64, value=13, time=5)\n",
      "Message('control_change', channel=0, control=64, value=9, time=54)\n",
      "Message('note_on', channel=0, note=76, velocity=0, time=7)\n",
      "Message('control_change', channel=0, control=64, value=19, time=15)\n",
      "Message('note_on', channel=0, note=74, velocity=72, time=12)\n",
      "Message('note_on', channel=0, note=55, velocity=0, time=24)\n",
      "Message('note_on', channel=0, note=54, velocity=69, time=4)\n",
      "Message('note_on', channel=0, note=74, velocity=0, time=29)\n",
      "Message('control_change', channel=0, control=64, value=0, time=4)\n",
      "Message('note_on', channel=0, note=72, velocity=77, time=36)\n",
      "Message('note_on', channel=0, note=54, velocity=0, time=20)\n",
      "Message('note_on', channel=0, note=52, velocity=70, time=7)\n",
      "Message('note_on', channel=0, note=72, velocity=0, time=41)\n",
      "Message('note_on', channel=0, note=52, velocity=0, time=50)\n",
      "Message('note_on', channel=0, note=50, velocity=71, time=1)\n",
      "Message('note_on', channel=0, note=71, velocity=76, time=1)\n",
      "Message('note_on', channel=0, note=50, velocity=0, time=68)\n",
      "Message('note_on', channel=0, note=71, velocity=0, time=5)\n",
      "Message('note_on', channel=0, note=74, velocity=74, time=26)\n",
      "Message('note_on', channel=0, note=54, velocity=74, time=1)\n",
      "Message('note_on', channel=0, note=54, velocity=0, time=64)\n",
      "Message('note_on', channel=0, note=74, velocity=0, time=15)\n",
      "Message('note_on', channel=0, note=69, velocity=75, time=27)\n",
      "Message('note_on', channel=0, note=48, velocity=79, time=4)\n",
      "Message('note_on', channel=0, note=69, velocity=0, time=45)\n",
      "Message('note_on', channel=0, note=48, velocity=0, time=34)\n",
      "Message('note_on', channel=0, note=74, velocity=76, time=21)\n",
      "Message('note_on', channel=0, note=54, velocity=77, time=17)\n",
      "Message('note_on', channel=0, note=74, velocity=0, time=74)\n",
      "Message('note_on', channel=0, note=54, velocity=0, time=3)\n",
      "Message('note_on', channel=0, note=47, velocity=83, time=36)\n",
      "Message('note_on', channel=0, note=67, velocity=81, time=3)\n",
      "Message('note_on', channel=0, note=47, velocity=0, time=38)\n",
      "Message('note_on', channel=0, note=67, velocity=0, time=12)\n",
      "Message('note_on', channel=0, note=74, velocity=65, time=58)\n",
      "Message('note_on', channel=0, note=74, velocity=0, time=94)\n",
      "Message('note_on', channel=0, note=45, velocity=78, time=19)\n",
      "Message('note_on', channel=0, note=66, velocity=76, time=5)\n",
      "Message('note_on', channel=0, note=45, velocity=0, time=41)\n",
      "Message('note_on', channel=0, note=66, velocity=0, time=3)\n",
      "Message('note_on', channel=0, note=74, velocity=74, time=64)\n",
      "Message('note_on', channel=0, note=74, velocity=0, time=59)\n",
      "Message('note_on', channel=0, note=47, velocity=75, time=46)\n",
      "Message('note_on', channel=0, note=67, velocity=77, time=8)\n",
      "Message('note_on', channel=0, note=47, velocity=0, time=33)\n",
      "Message('note_on', channel=0, note=67, velocity=0, time=37)\n",
      "Message('note_on', channel=0, note=74, velocity=73, time=34)\n",
      "Message('note_on', channel=0, note=74, velocity=0, time=88)\n",
      "Message('note_on', channel=0, note=43, velocity=81, time=11)\n",
      "Message('note_on', channel=0, note=72, velocity=73, time=14)\n",
      "Message('note_on', channel=0, note=43, velocity=0, time=31)\n",
      "Message('control_change', channel=0, control=64, value=39, time=24)\n",
      "Message('control_change', channel=0, control=64, value=0, time=19)\n",
      "Message('note_on', channel=0, note=72, velocity=0, time=24)\n",
      "Message('note_on', channel=0, note=71, velocity=70, time=15)\n",
      "Message('note_on', channel=0, note=71, velocity=0, time=47)\n",
      "Message('note_on', channel=0, note=45, velocity=82, time=46)\n",
      "Message('note_on', channel=0, note=69, velocity=65, time=31)\n",
      "Message('note_on', channel=0, note=67, velocity=58, time=21)\n",
      "Message('note_on', channel=0, note=45, velocity=0, time=4)\n",
      "Message('note_on', channel=0, note=69, velocity=0, time=18)\n",
      "Message('note_on', channel=0, note=67, velocity=0, time=2)\n",
      "Message('note_on', channel=0, note=67, velocity=62, time=61)\n",
      "Message('note_on', channel=0, note=67, velocity=0, time=49)\n",
      "Message('note_on', channel=0, note=47, velocity=82, time=42)\n",
      "Message('note_on', channel=0, note=65, velocity=77, time=4)\n",
      "Message('note_on', channel=0, note=47, velocity=0, time=32)\n",
      "Message('note_on', channel=0, note=65, velocity=0, time=14)\n",
      "Message('note_on', channel=0, note=74, velocity=77, time=59)\n",
      "Message('note_on', channel=0, note=74, velocity=0, time=80)\n",
      "Message('note_on', channel=0, note=48, velocity=89, time=30)\n",
      "Message('note_on', channel=0, note=64, velocity=82, time=2)\n",
      "Message('note_on', channel=0, note=48, velocity=0, time=30)\n",
      "Message('control_change', channel=0, control=64, value=53, time=5)\n",
      "Message('control_change', channel=0, control=64, value=0, time=19)\n",
      "Message('note_on', channel=0, note=64, velocity=0, time=7)\n",
      "Message('note_on', channel=0, note=74, velocity=77, time=46)\n",
      "Message('note_on', channel=0, note=74, velocity=0, time=84)\n",
      "Message('note_on', channel=0, note=62, velocity=78, time=36)\n",
      "Message('note_on', channel=0, note=47, velocity=68, time=3)\n",
      "Message('note_on', channel=0, note=47, velocity=0, time=37)\n",
      "Message('note_on', channel=0, note=62, velocity=0, time=14)\n",
      "Message('note_on', channel=0, note=74, velocity=71, time=54)\n",
      "Message('note_on', channel=0, note=74, velocity=0, time=72)\n",
      "Message('note_on', channel=0, note=64, velocity=79, time=40)\n",
      "Message('note_on', channel=0, note=48, velocity=66, time=3)\n",
      "Message('note_on', channel=0, note=48, velocity=0, time=33)\n",
      "Message('note_on', channel=0, note=64, velocity=0, time=30)\n",
      "Message('note_on', channel=0, note=74, velocity=76, time=54)\n",
      "Message('note_on', channel=0, note=74, velocity=0, time=92)\n",
      "Message('note_on', channel=0, note=45, velocity=78, time=12)\n",
      "Message('note_on', channel=0, note=72, velocity=79, time=7)\n",
      "Message('note_on', channel=0, note=45, velocity=0, time=30)\n",
      "Message('note_on', channel=0, note=72, velocity=0, time=69)\n",
      "Message('note_on', channel=0, note=71, velocity=76, time=12)\n",
      "Message('note_on', channel=0, note=71, velocity=0, time=67)\n",
      "Message('note_on', channel=0, note=47, velocity=80, time=23)\n",
      "Message('note_on', channel=0, note=69, velocity=78, time=23)\n",
      "Message('note_on', channel=0, note=47, velocity=0, time=19)\n",
      "Message('note_on', channel=0, note=69, velocity=0, time=37)\n",
      "Message('note_on', channel=0, note=67, velocity=80, time=41)\n",
      "Message('note_on', channel=0, note=67, velocity=0, time=72)\n",
      "Message('note_on', channel=0, note=69, velocity=80, time=29)\n",
      "Message('note_on', channel=0, note=48, velocity=90, time=10)\n",
      "Message('note_on', channel=0, note=48, velocity=0, time=31)\n",
      "Message('control_change', channel=0, control=64, value=51, time=24)\n",
      "Message('note_on', channel=0, note=69, velocity=0, time=6)\n",
      "Message('control_change', channel=0, control=64, value=0, time=11)\n",
      "Message('note_on', channel=0, note=72, velocity=79, time=17)\n",
      "Message('note_on', channel=0, note=50, velocity=89, time=134)\n",
      "Message('note_on', channel=0, note=66, velocity=82, time=1)\n",
      "Message('note_on', channel=0, note=72, velocity=0, time=6)\n",
      "Message('control_change', channel=0, control=64, value=52, time=38)\n",
      "Message('control_change', channel=0, control=64, value=60, time=18)\n",
      "Message('control_change', channel=0, control=64, value=57, time=19)\n",
      "Message('control_change', channel=0, control=64, value=55, time=17)\n",
      "Message('note_on', channel=0, note=66, velocity=0, time=6)\n",
      "Message('note_on', channel=0, note=64, velocity=76, time=3)\n",
      "Message('control_change', channel=0, control=64, value=58, time=64)\n",
      "Message('note_on', channel=0, note=64, velocity=0, time=29)\n",
      "Message('note_on', channel=0, note=50, velocity=0, time=37)\n",
      "Message('note_on', channel=0, note=62, velocity=78, time=0)\n",
      "Message('note_on', channel=0, note=48, velocity=73, time=5)\n",
      "Message('control_change', channel=0, control=64, value=53, time=5)\n",
      "Message('control_change', channel=0, control=64, value=50, time=18)\n",
      "Message('control_change', channel=0, control=64, value=48, time=21)\n",
      "Message('control_change', channel=0, control=64, value=44, time=18)\n",
      "Message('control_change', channel=0, control=64, value=26, time=20)\n",
      "Message('note_on', channel=0, note=62, velocity=0, time=5)\n",
      "Message('note_on', channel=0, note=47, velocity=76, time=4)\n",
      "Message('control_change', channel=0, control=64, value=0, time=8)\n",
      "Message('note_on', channel=0, note=64, velocity=71, time=9)\n",
      "Message('note_on', channel=0, note=48, velocity=0, time=4)\n",
      "Message('note_on', channel=0, note=64, velocity=0, time=74)\n",
      "Message('note_on', channel=0, note=45, velocity=76, time=11)\n",
      "Message('note_on', channel=0, note=66, velocity=84, time=8)\n",
      "Message('note_on', channel=0, note=47, velocity=0, time=2)\n",
      "Message('note_on', channel=0, note=45, velocity=0, time=53)\n",
      "Message('note_on', channel=0, note=66, velocity=0, time=20)\n",
      "Message('note_on', channel=0, note=67, velocity=82, time=28)\n",
      "Message('note_on', channel=0, note=43, velocity=77, time=7)\n",
      "Message('note_on', channel=0, note=67, velocity=0, time=72)\n",
      "Message('note_on', channel=0, note=69, velocity=80, time=28)\n",
      "Message('note_on', channel=0, note=42, velocity=77, time=8)\n",
      "Message('note_on', channel=0, note=43, velocity=0, time=30)\n",
      "Message('note_on', channel=0, note=69, velocity=0, time=54)\n",
      "Message('note_on', channel=0, note=71, velocity=81, time=5)\n",
      "Message('note_on', channel=0, note=42, velocity=0, time=10)\n",
      "Message('note_on', channel=0, note=40, velocity=75, time=9)\n",
      "Message('note_on', channel=0, note=40, velocity=0, time=58)\n",
      "Message('note_on', channel=0, note=38, velocity=74, time=32)\n",
      "Message('note_on', channel=0, note=72, velocity=86, time=2)\n",
      "Message('control_change', channel=0, control=64, value=37, time=5)\n",
      "Message('note_on', channel=0, note=71, velocity=0, time=10)\n",
      "Message('control_change', channel=0, control=64, value=0, time=6)\n",
      "Message('note_on', channel=0, note=72, velocity=0, time=68)\n",
      "Message('note_on', channel=0, note=38, velocity=0, time=5)\n",
      "Message('note_on', channel=0, note=42, velocity=64, time=9)\n",
      "Message('note_on', channel=0, note=69, velocity=85, time=3)\n",
      "Message('note_on', channel=0, note=69, velocity=0, time=60)\n",
      "Message('note_on', channel=0, note=42, velocity=0, time=29)\n",
      "Message('note_on', channel=0, note=45, velocity=69, time=4)\n",
      "Message('note_on', channel=0, note=74, velocity=82, time=17)\n",
      "Message('note_on', channel=0, note=45, velocity=0, time=53)\n",
      "Message('note_on', channel=0, note=74, velocity=0, time=44)\n",
      "Message('note_on', channel=0, note=50, velocity=71, time=12)\n",
      "Message('note_on', channel=0, note=69, velocity=81, time=12)\n",
      "Message('note_on', channel=0, note=69, velocity=0, time=57)\n",
      "Message('note_on', channel=0, note=50, velocity=0, time=52)\n",
      "Message('note_on', channel=0, note=43, velocity=59, time=3)\n",
      "Message('note_on', channel=0, note=71, velocity=79, time=1)\n",
      "Message('note_on', channel=0, note=67, velocity=70, time=117)\n",
      "Message('note_on', channel=0, note=66, velocity=70, time=94)\n",
      "Message('note_on', channel=0, note=67, velocity=0, time=20)\n",
      "Message('note_on', channel=0, note=43, velocity=0, time=22)\n",
      "Message('note_on', channel=0, note=66, velocity=0, time=5)\n",
      "Message('note_on', channel=0, note=64, velocity=66, time=52)\n",
      "Message('note_on', channel=0, note=64, velocity=0, time=67)\n",
      "Message('note_on', channel=0, note=62, velocity=67, time=54)\n",
      "Message('note_on', channel=0, note=62, velocity=0, time=40)\n",
      "Message('note_on', channel=0, note=60, velocity=64, time=58)\n",
      "Message('note_on', channel=0, note=59, velocity=64, time=104)\n",
      "Message('note_on', channel=0, note=60, velocity=0, time=1)\n",
      "Message('note_on', channel=0, note=59, velocity=0, time=80)\n",
      "Message('note_on', channel=0, note=57, velocity=67, time=16)\n",
      "Message('note_on', channel=0, note=71, velocity=0, time=88)\n",
      "Message('note_on', channel=0, note=57, velocity=0, time=16)\n",
      "Message('note_on', channel=0, note=55, velocity=70, time=23)\n",
      "Message('note_on', channel=0, note=55, velocity=0, time=49)\n",
      "Message('note_on', channel=0, note=59, velocity=70, time=61)\n",
      "Message('note_on', channel=0, note=59, velocity=0, time=91)\n",
      "Message('note_on', channel=0, note=54, velocity=62, time=28)\n",
      "Message('note_on', channel=0, note=71, velocity=63, time=9)\n",
      "Message('note_on', channel=0, note=71, velocity=0, time=37)\n",
      "Message('note_on', channel=0, note=54, velocity=0, time=21)\n",
      "Message('note_on', channel=0, note=57, velocity=56, time=41)\n",
      "Message('note_on', channel=0, note=57, velocity=0, time=82)\n",
      "Message('note_on', channel=0, note=76, velocity=62, time=34)\n",
      "Message('note_on', channel=0, note=55, velocity=58, time=12)\n",
      "Message('note_on', channel=0, note=55, velocity=0, time=38)\n",
      "Message('note_on', channel=0, note=78, velocity=69, time=65)\n",
      "Message('note_on', channel=0, note=76, velocity=0, time=10)\n",
      "Message('note_on', channel=0, note=78, velocity=0, time=84)\n",
      "Message('note_on', channel=0, note=52, velocity=73, time=22)\n",
      "Message('note_on', channel=0, note=79, velocity=73, time=1)\n",
      "Message('note_on', channel=0, note=52, velocity=0, time=40)\n",
      "Message('note_on', channel=0, note=76, velocity=74, time=79)\n",
      "Message('note_on', channel=0, note=79, velocity=0, time=3)\n",
      "Message('note_on', channel=0, note=76, velocity=0, time=114)\n",
      "Message('note_on', channel=0, note=55, velocity=57, time=7)\n",
      "Message('note_on', channel=0, note=71, velocity=76, time=4)\n",
      "Message('note_on', channel=0, note=55, velocity=0, time=28)\n",
      "Message('note_on', channel=0, note=71, velocity=0, time=45)\n",
      "Message('note_on', channel=0, note=76, velocity=76, time=36)\n",
      "Message('control_change', channel=0, control=67, value=50, time=23)\n",
      "Message('note_on', channel=0, note=52, velocity=67, time=66)\n",
      "Message('note_on', channel=0, note=78, velocity=79, time=12)\n",
      "Message('note_on', channel=0, note=76, velocity=0, time=10)\n",
      "Message('note_on', channel=0, note=52, velocity=0, time=36)\n",
      "Message('note_on', channel=0, note=78, velocity=0, time=44)\n",
      "Message('note_on', channel=0, note=79, velocity=79, time=18)\n",
      "Message('note_on', channel=0, note=59, velocity=67, time=113)\n",
      "Message('note_on', channel=0, note=75, velocity=82, time=9)\n",
      "Message('note_on', channel=0, note=79, velocity=0, time=0)\n",
      "Message('note_on', channel=0, note=59, velocity=0, time=26)\n",
      "Message('note_on', channel=0, note=75, velocity=0, time=47)\n",
      "Message('note_on', channel=0, note=81, velocity=62, time=49)\n",
      "Message('note_on', channel=0, note=83, velocity=58, time=8)\n",
      "Message('note_on', channel=0, note=83, velocity=0, time=27)\n",
      "Message('note_on', channel=0, note=47, velocity=79, time=58)\n",
      "Message('note_on', channel=0, note=81, velocity=0, time=0)\n",
      "Message('note_on', channel=0, note=79, velocity=82, time=1)\n",
      "Message('note_on', channel=0, note=47, velocity=0, time=36)\n",
      "Message('note_on', channel=0, note=79, velocity=0, time=67)\n",
      "Message('note_on', channel=0, note=78, velocity=82, time=7)\n",
      "Message('note_on', channel=0, note=52, velocity=64, time=113)\n",
      "Message('note_on', channel=0, note=79, velocity=86, time=2)\n",
      "Message('note_on', channel=0, note=78, velocity=0, time=9)\n",
      "Message('note_on', channel=0, note=79, velocity=0, time=31)\n",
      "Message('note_on', channel=0, note=52, velocity=0, time=39)\n",
      "Message('note_on', channel=0, note=54, velocity=77, time=30)\n",
      "Message('note_on', channel=0, note=54, velocity=0, time=58)\n",
      "Message('note_on', channel=0, note=55, velocity=77, time=51)\n",
      "Message('note_on', channel=0, note=76, velocity=80, time=16)\n",
      "Message('note_on', channel=0, note=76, velocity=0, time=29)\n",
      "Message('note_on', channel=0, note=55, velocity=0, time=68)\n",
      "Message('note_on', channel=0, note=52, velocity=71, time=1)\n",
      "Message('note_on', channel=0, note=52, velocity=0, time=93)\n",
      "Message('note_on', channel=0, note=49, velocity=63, time=28)\n",
      "Message('note_on', channel=0, note=79, velocity=77, time=6)\n",
      "Message('note_on', channel=0, note=79, velocity=0, time=29)\n",
      "Message('note_on', channel=0, note=49, velocity=0, time=33)\n",
      "Message('note_on', channel=0, note=55, velocity=62, time=36)\n",
      "Message('note_on', channel=0, note=55, velocity=0, time=84)\n",
      "Message('note_on', channel=0, note=47, velocity=72, time=21)\n",
      "Message('note_on', channel=0, note=74, velocity=79, time=4)\n",
      "Message('note_on', channel=0, note=74, velocity=0, time=26)\n",
      "Message('note_on', channel=0, note=47, velocity=0, time=27)\n",
      "Message('note_on', channel=0, note=55, velocity=70, time=65)\n",
      "Message('note_on', channel=0, note=55, velocity=0, time=82)\n",
      "Message('note_on', channel=0, note=45, velocity=79, time=28)\n",
      "Message('note_on', channel=0, note=73, velocity=80, time=0)\n",
      "Message('note_on', channel=0, note=73, velocity=0, time=24)\n",
      "Message('note_on', channel=0, note=45, velocity=0, time=24)\n",
      "Message('note_on', channel=0, note=55, velocity=72, time=75)\n",
      "Message('note_on', channel=0, note=55, velocity=0, time=88)\n",
      "Message('note_on', channel=0, note=54, velocity=67, time=17)\n",
      "Message('note_on', channel=0, note=81, velocity=75, time=16)\n",
      "Message('note_on', channel=0, note=81, velocity=0, time=25)\n",
      "Message('control_change', channel=0, control=67, value=46, time=44)\n",
      "Message('note_on', channel=0, note=52, velocity=73, time=18)\n",
      "Message('note_on', channel=0, note=54, velocity=0, time=2)\n",
      "Message('note_on', channel=0, note=52, velocity=0, time=65)\n",
      "Message('note_on', channel=0, note=54, velocity=79, time=57)\n",
      "Message('note_on', channel=0, note=74, velocity=79, time=4)\n",
      "Message('note_on', channel=0, note=54, velocity=0, time=25)\n",
      "Message('note_on', channel=0, note=74, velocity=0, time=67)\n",
      "Message('note_on', channel=0, note=76, velocity=71, time=13)\n",
      "Message('note_on', channel=0, note=50, velocity=78, time=114)\n",
      "Message('note_on', channel=0, note=78, velocity=74, time=2)\n",
      "Message('note_on', channel=0, note=76, velocity=0, time=10)\n",
      "Message('note_on', channel=0, note=50, velocity=0, time=22)\n",
      "Message('note_on', channel=0, note=74, velocity=76, time=75)\n",
      "Message('note_on', channel=0, note=78, velocity=0, time=10)\n",
      "Message('note_on', channel=0, note=74, velocity=0, time=57)\n",
      "Message('note_on', channel=0, note=54, velocity=81, time=38)\n",
      "Message('note_on', channel=0, note=69, velocity=80, time=4)\n",
      "Message('note_on', channel=0, note=54, velocity=0, time=34)\n",
      "Message('note_on', channel=0, note=69, velocity=0, time=33)\n",
      "Message('note_on', channel=0, note=72, velocity=77, time=47)\n",
      "Message('note_on', channel=0, note=50, velocity=82, time=109)\n",
      "Message('note_on', channel=0, note=71, velocity=81, time=7)\n",
      "Message('note_on', channel=0, note=72, velocity=0, time=4)\n",
      "Message('note_on', channel=0, note=50, velocity=0, time=22)\n",
      "Message('note_on', channel=0, note=71, velocity=0, time=56)\n",
      "Message('control_change', channel=0, control=67, value=42, time=7)\n",
      "Message('note_on', channel=0, note=69, velocity=82, time=9)\n",
      "Message('note_on', channel=0, note=69, velocity=0, time=49)\n",
      "Message('note_on', channel=0, note=55, velocity=78, time=58)\n",
      "Message('note_on', channel=0, note=71, velocity=81, time=4)\n",
      "Message('note_on', channel=0, note=55, velocity=0, time=26)\n",
      "Message('note_on', channel=0, note=71, velocity=0, time=54)\n",
      "Message('note_on', channel=0, note=76, velocity=81, time=28)\n",
      "Message('note_on', channel=0, note=76, velocity=0, time=86)\n",
      "Message('note_on', channel=0, note=78, velocity=84, time=19)\n",
      "Message('note_on', channel=0, note=52, velocity=75, time=4)\n",
      "Message('note_on', channel=0, note=52, velocity=0, time=29)\n",
      "Message('note_on', channel=0, note=78, velocity=0, time=46)\n",
      "Message('note_on', channel=0, note=79, velocity=80, time=28)\n",
      "Message('note_on', channel=0, note=79, velocity=0, time=62)\n",
      "Message('note_on', channel=0, note=73, velocity=82, time=56)\n",
      "Message('note_on', channel=0, note=57, velocity=70, time=4)\n",
      "Message('note_on', channel=0, note=73, velocity=0, time=19)\n",
      "Message('note_on', channel=0, note=57, velocity=0, time=198)\n",
      "Message('note_on', channel=0, note=55, velocity=65, time=21)\n",
      "Message('note_on', channel=0, note=69, velocity=78, time=2)\n",
      "Message('note_on', channel=0, note=69, velocity=0, time=36)\n",
      "Message('note_on', channel=0, note=54, velocity=74, time=73)\n",
      "Message('note_on', channel=0, note=55, velocity=0, time=15)\n",
      "Message('note_on', channel=0, note=54, velocity=0, time=50)\n",
      "Message('note_on', channel=0, note=52, velocity=65, time=62)\n",
      "Message('note_on', channel=0, note=50, velocity=37, time=34)\n",
      "Message('note_on', channel=0, note=52, velocity=0, time=50)\n",
      "Message('note_on', channel=0, note=50, velocity=0, time=6)\n",
      "Message('note_on', channel=0, note=50, velocity=32, time=0)\n",
      "Message('note_on', channel=0, note=50, velocity=0, time=99)\n",
      "Message('note_on', channel=0, note=69, velocity=78, time=22)\n",
      "Message('note_on', channel=0, note=49, velocity=70, time=8)\n",
      "Message('note_on', channel=0, note=69, velocity=0, time=41)\n",
      "Message('note_on', channel=0, note=49, velocity=0, time=11)\n",
      "Message('note_on', channel=0, note=47, velocity=62, time=36)\n",
      "Message('note_on', channel=0, note=71, velocity=68, time=15)\n",
      "Message('note_on', channel=0, note=71, velocity=0, time=63)\n",
      "Message('note_on', channel=0, note=45, velocity=78, time=34)\n",
      "Message('note_on', channel=0, note=47, velocity=0, time=2)\n",
      "Message('note_on', channel=0, note=73, velocity=79, time=6)\n",
      "Message('note_on', channel=0, note=45, velocity=0, time=50)\n",
      "Message('note_on', channel=0, note=73, velocity=0, time=20)\n",
      "Message('note_on', channel=0, note=52, velocity=78, time=30)\n",
      "Message('note_on', channel=0, note=74, velocity=81, time=1)\n",
      "Message('note_on', channel=0, note=52, velocity=0, time=92)\n",
      "Message('note_on', channel=0, note=74, velocity=0, time=4)\n",
      "Message('note_on', channel=0, note=43, velocity=85, time=17)\n",
      "Message('note_on', channel=0, note=76, velocity=80, time=5)\n",
      "Message('note_on', channel=0, note=43, velocity=0, time=44)\n",
      "Message('note_on', channel=0, note=76, velocity=0, time=40)\n",
      "Message('note_on', channel=0, note=73, velocity=80, time=32)\n",
      "Message('note_on', channel=0, note=52, velocity=78, time=3)\n",
      "Message('note_on', channel=0, note=73, velocity=0, time=65)\n",
      "Message('note_on', channel=0, note=52, velocity=0, time=23)\n",
      "Message('note_on', channel=0, note=74, velocity=84, time=13)\n",
      "Message('note_on', channel=0, note=42, velocity=86, time=8)\n",
      "Message('note_on', channel=0, note=42, velocity=0, time=32)\n",
      "Message('note_on', channel=0, note=74, velocity=0, time=56)\n",
      "Message('note_on', channel=0, note=76, velocity=79, time=12)\n",
      "Message('note_on', channel=0, note=76, velocity=0, time=70)\n",
      "Message('note_on', channel=0, note=69, velocity=81, time=55)\n",
      "Message('note_on', channel=0, note=40, velocity=80, time=1)\n",
      "Message('note_on', channel=0, note=40, velocity=0, time=41)\n",
      "Message('note_on', channel=0, note=69, velocity=0, time=40)\n",
      "Message('note_on', channel=0, note=73, velocity=76, time=26)\n",
      "Message('note_on', channel=0, note=73, velocity=0, time=73)\n",
      "Message('note_on', channel=0, note=74, velocity=80, time=32)\n",
      "Message('note_on', channel=0, note=42, velocity=72, time=15)\n",
      "Message('note_on', channel=0, note=42, velocity=0, time=33)\n",
      "Message('control_change', channel=0, control=67, value=46, time=4)\n",
      "Message('note_on', channel=0, note=74, velocity=0, time=37)\n",
      "Message('note_on', channel=0, note=76, velocity=70, time=23)\n",
      "Message('note_on', channel=0, note=76, velocity=0, time=76)\n",
      "Message('note_on', channel=0, note=45, velocity=79, time=34)\n",
      "Message('note_on', channel=0, note=69, velocity=78, time=2)\n",
      "Message('note_on', channel=0, note=45, velocity=0, time=30)\n",
      "Message('note_on', channel=0, note=69, velocity=0, time=31)\n",
      "Message('note_on', channel=0, note=74, velocity=70, time=40)\n",
      "Message('note_on', channel=0, note=74, velocity=0, time=84)\n",
      "Message('note_on', channel=0, note=50, velocity=78, time=56)\n",
      "Message('note_on', channel=0, note=66, velocity=81, time=0)\n",
      "Message('note_on', channel=0, note=50, velocity=0, time=33)\n",
      "Message('note_on', channel=0, note=66, velocity=0, time=8)\n",
      "Message('note_on', channel=0, note=74, velocity=71, time=58)\n",
      "Message('note_on', channel=0, note=42, velocity=84, time=112)\n",
      "Message('note_on', channel=0, note=69, velocity=81, time=4)\n",
      "Message('note_on', channel=0, note=74, velocity=0, time=2)\n",
      "Message('note_on', channel=0, note=42, velocity=0, time=34)\n",
      "Message('note_on', channel=0, note=69, velocity=0, time=17)\n",
      "Message('note_on', channel=0, note=76, velocity=74, time=56)\n",
      "Message('note_on', channel=0, note=76, velocity=0, time=103)\n",
      "Message('control_change', channel=0, control=64, value=37, time=5)\n",
      "Message('note_on', channel=0, note=43, velocity=89, time=1)\n",
      "Message('note_on', channel=0, note=74, velocity=82, time=6)\n",
      "Message('control_change', channel=0, control=64, value=46, time=13)\n",
      "Message('control_change', channel=0, control=64, value=0, time=20)\n",
      "Message('note_on', channel=0, note=43, velocity=0, time=12)\n",
      "Message('note_on', channel=0, note=74, velocity=0, time=45)\n",
      "Message('note_on', channel=0, note=76, velocity=79, time=24)\n",
      "Message('note_on', channel=0, note=76, velocity=0, time=101)\n",
      "Message('note_on', channel=0, note=45, velocity=81, time=18)\n",
      "Message('note_on', channel=0, note=71, velocity=75, time=3)\n",
      "Message('note_on', channel=0, note=45, velocity=0, time=42)\n",
      "Message('note_on', channel=0, note=71, velocity=0, time=34)\n",
      "Message('note_on', channel=0, note=73, velocity=73, time=32)\n",
      "Message('control_change', channel=0, control=67, value=42, time=8)\n",
      "Message('note_on', channel=0, note=73, velocity=0, time=77)\n",
      "Message('note_on', channel=0, note=47, velocity=76, time=36)\n",
      "Message('note_on', channel=0, note=74, velocity=77, time=2)\n",
      "Message('note_on', channel=0, note=47, velocity=0, time=28)\n",
      "Message('note_on', channel=0, note=74, velocity=0, time=60)\n",
      "Message('note_on', channel=0, note=76, velocity=73, time=20)\n",
      "Message('note_on', channel=0, note=76, velocity=0, time=76)\n",
      "Message('note_on', channel=0, note=43, velocity=72, time=38)\n",
      "Message('note_on', channel=0, note=71, velocity=75, time=3)\n",
      "Message('note_on', channel=0, note=43, velocity=0, time=33)\n",
      "Message('note_on', channel=0, note=71, velocity=0, time=12)\n",
      "Message('note_on', channel=0, note=74, velocity=76, time=62)\n",
      "Message('control_change', channel=0, control=67, value=36, time=5)\n",
      "Message('note_on', channel=0, note=74, velocity=0, time=67)\n",
      "Message('note_on', channel=0, note=40, velocity=76, time=31)\n",
      "Message('note_on', channel=0, note=67, velocity=80, time=8)\n",
      "Message('control_change', channel=0, control=67, value=31, time=4)\n",
      "Message('note_on', channel=0, note=40, velocity=0, time=31)\n",
      "Message('note_on', channel=0, note=67, velocity=0, time=22)\n",
      "Message('note_on', channel=0, note=74, velocity=77, time=48)\n",
      "Message('control_change', channel=0, control=67, value=25, time=15)\n",
      "Message('control_change', channel=0, control=67, value=21, time=37)\n",
      "Message('note_on', channel=0, note=74, velocity=0, time=58)\n",
      "Message('note_on', channel=0, note=43, velocity=82, time=1)\n",
      "Message('note_on', channel=0, note=71, velocity=82, time=10)\n",
      "Message('note_on', channel=0, note=43, velocity=0, time=21)\n",
      "Message('note_on', channel=0, note=71, velocity=0, time=36)\n",
      "Message('note_on', channel=0, note=74, velocity=81, time=44)\n",
      "Message('note_on', channel=0, note=45, velocity=84, time=119)\n",
      "Message('note_on', channel=0, note=73, velocity=84, time=1)\n",
      "Message('note_on', channel=0, note=74, velocity=0, time=7)\n",
      "Message('note_on', channel=0, note=45, velocity=0, time=50)\n",
      "Message('note_on', channel=0, note=73, velocity=0, time=37)\n",
      "Message('note_on', channel=0, note=74, velocity=82, time=24)\n",
      "Message('note_on', channel=0, note=74, velocity=0, time=104)\n",
      "Message('note_on', channel=0, note=76, velocity=77, time=10)\n",
      "Message('note_on', channel=0, note=47, velocity=73, time=2)\n",
      "Message('note_on', channel=0, note=47, velocity=0, time=38)\n",
      "Message('note_on', channel=0, note=76, velocity=0, time=64)\n",
      "Message('note_on', channel=0, note=73, velocity=76, time=3)\n",
      "Message('note_on', channel=0, note=73, velocity=0, time=91)\n",
      "Message('note_on', channel=0, note=49, velocity=60, time=26)\n",
      "Message('note_on', channel=0, note=67, velocity=77, time=2)\n",
      "Message('note_on', channel=0, note=49, velocity=0, time=34)\n",
      "Message('note_on', channel=0, note=67, velocity=0, time=11)\n",
      "Message('note_on', channel=0, note=71, velocity=73, time=62)\n",
      "Message('note_on', channel=0, note=50, velocity=66, time=107)\n",
      "Message('note_on', channel=0, note=71, velocity=0, time=1)\n",
      "Message('note_on', channel=0, note=69, velocity=65, time=12)\n",
      "Message('note_on', channel=0, note=50, velocity=0, time=19)\n",
      "Message('note_on', channel=0, note=69, velocity=0, time=36)\n",
      "Message('note_on', channel=0, note=67, velocity=64, time=31)\n",
      "Message('note_on', channel=0, note=67, velocity=0, time=77)\n",
      "Message('note_on', channel=0, note=45, velocity=73, time=31)\n",
      "Message('note_on', channel=0, note=66, velocity=73, time=4)\n",
      "Message('note_on', channel=0, note=45, velocity=0, time=54)\n",
      "Message('note_on', channel=0, note=66, velocity=0, time=6)\n",
      "Message('note_on', channel=0, note=74, velocity=76, time=58)\n",
      "Message('note_on', channel=0, note=74, velocity=0, time=72)\n",
      "Message('note_on', channel=0, note=55, velocity=70, time=37)\n",
      "Message('note_on', channel=0, note=64, velocity=74, time=10)\n",
      "Message('note_on', channel=0, note=55, velocity=0, time=34)\n",
      "Message('note_on', channel=0, note=64, velocity=0, time=27)\n",
      "Message('note_on', channel=0, note=73, velocity=74, time=39)\n",
      "Message('note_on', channel=0, note=54, velocity=63, time=111)\n",
      "Message('note_on', channel=0, note=73, velocity=0, time=10)\n",
      "Message('note_on', channel=0, note=74, velocity=77, time=4)\n",
      "Message('control_change', channel=0, control=67, value=25, time=39)\n",
      "Message('control_change', channel=0, control=67, value=29, time=152)\n",
      "Message('note_on', channel=0, note=74, velocity=0, time=67)\n",
      "Message('note_on', channel=0, note=50, velocity=54, time=4)\n",
      "Message('note_on', channel=0, note=73, velocity=70, time=6)\n",
      "Message('note_on', channel=0, note=54, velocity=0, time=2)\n",
      "Message('note_on', channel=0, note=73, velocity=0, time=95)\n",
      "Message('note_on', channel=0, note=71, velocity=67, time=3)\n",
      "Message('note_on', channel=0, note=71, velocity=0, time=56)\n",
      "Message('note_on', channel=0, note=69, velocity=75, time=41)\n",
      "Message('note_on', channel=0, note=54, velocity=46, time=22)\n",
      "Message('note_on', channel=0, note=69, velocity=0, time=9)\n",
      "Message('note_on', channel=0, note=54, velocity=0, time=47)\n",
      "Message('note_on', channel=0, note=67, velocity=70, time=25)\n",
      "Message('note_on', channel=0, note=67, velocity=0, time=75)\n",
      "Message('note_on', channel=0, note=66, velocity=64, time=53)\n",
      "Message('note_on', channel=0, note=57, velocity=54, time=24)\n",
      "Message('note_on', channel=0, note=66, velocity=0, time=6)\n",
      "Message('note_on', channel=0, note=57, velocity=0, time=24)\n",
      "Message('note_on', channel=0, note=64, velocity=59, time=57)\n",
      "Message('note_on', channel=0, note=64, velocity=0, time=57)\n",
      "Message('control_change', channel=0, control=67, value=34, time=21)\n",
      "Message('note_on', channel=0, note=62, velocity=59, time=46)\n",
      "Message('control_change', channel=0, control=64, value=49, time=69)\n",
      "Message('control_change', channel=0, control=67, value=40, time=1)\n",
      "Message('control_change', channel=0, control=64, value=65, time=17)\n",
      "Message('control_change', channel=0, control=64, value=73, time=18)\n",
      "Message('control_change', channel=0, control=64, value=77, time=19)\n",
      "Message('control_change', channel=0, control=64, value=82, time=18)\n",
      "Message('control_change', channel=0, control=64, value=91, time=21)\n",
      "Message('control_change', channel=0, control=64, value=101, time=17)\n",
      "Message('control_change', channel=0, control=64, value=109, time=19)\n",
      "Message('note_on', channel=0, note=50, velocity=0, time=5)\n",
      "Message('control_change', channel=0, control=64, value=113, time=15)\n",
      "Message('control_change', channel=0, control=67, value=36, time=17)\n",
      "Message('note_on', channel=0, note=62, velocity=0, time=82)\n",
      "Message('note_on', channel=0, note=79, velocity=82, time=52)\n",
      "Message('note_on', channel=0, note=79, velocity=0, time=30)\n",
      "Message('note_on', channel=0, note=71, velocity=79, time=60)\n",
      "Message('control_change', channel=0, control=64, value=104, time=5)\n",
      "Message('control_change', channel=0, control=64, value=86, time=19)\n",
      "Message('control_change', channel=0, control=64, value=39, time=20)\n",
      "Message('note_on', channel=0, note=74, velocity=59, time=5)\n",
      "Message('control_change', channel=0, control=64, value=0, time=12)\n",
      "Message('control_change', channel=0, control=67, value=40, time=19)\n",
      "Message('note_on', channel=0, note=55, velocity=64, time=31)\n",
      "Message('note_on', channel=0, note=79, velocity=85, time=3)\n",
      "Message('note_on', channel=0, note=74, velocity=0, time=36)\n",
      "Message('control_change', channel=0, control=64, value=35, time=19)\n",
      "Message('control_change', channel=0, control=64, value=54, time=20)\n",
      "Message('control_change', channel=0, control=67, value=45, time=1)\n",
      "Message('control_change', channel=0, control=64, value=61, time=18)\n",
      "Message('control_change', channel=0, control=67, value=52, time=1)\n",
      "Message('control_change', channel=0, control=64, value=66, time=18)\n",
      "Message('control_change', channel=0, control=67, value=59, time=2)\n",
      "Message('control_change', channel=0, control=64, value=71, time=16)\n",
      "Message('control_change', channel=0, control=64, value=78, time=22)\n",
      "Message('control_change', channel=0, control=64, value=86, time=17)\n",
      "Message('control_change', channel=0, control=64, value=96, time=21)\n",
      "Message('control_change', channel=0, control=67, value=63, time=0)\n",
      "Message('control_change', channel=0, control=64, value=107, time=18)\n",
      "Message('control_change', channel=0, control=64, value=117, time=16)\n",
      "Message('control_change', channel=0, control=67, value=69, time=1)\n",
      "Message('control_change', channel=0, control=64, value=124, time=19)\n",
      "Message('note_on', channel=0, note=71, velocity=0, time=36)\n",
      "Message('note_on', channel=0, note=78, velocity=72, time=0)\n",
      "Message('note_on', channel=0, note=79, velocity=0, time=8)\n",
      "Message('note_on', channel=0, note=55, velocity=0, time=25)\n",
      "Message('note_on', channel=0, note=76, velocity=79, time=64)\n",
      "Message('note_on', channel=0, note=78, velocity=0, time=20)\n",
      "Message('control_change', channel=0, control=64, value=113, time=55)\n",
      "Message('control_change', channel=0, control=64, value=103, time=19)\n",
      "Message('note_on', channel=0, note=76, velocity=0, time=13)\n",
      "Message('control_change', channel=0, control=64, value=94, time=5)\n",
      "Message('note_on', channel=0, note=74, velocity=82, time=1)\n",
      "Message('control_change', channel=0, control=64, value=87, time=19)\n",
      "Message('control_change', channel=0, control=64, value=80, time=16)\n",
      "Message('control_change', channel=0, control=64, value=70, time=20)\n",
      "Message('control_change', channel=0, control=64, value=61, time=20)\n",
      "Message('note_on', channel=0, note=74, velocity=0, time=13)\n",
      "Message('control_change', channel=0, control=64, value=56, time=5)\n",
      "Message('note_on', channel=0, note=72, velocity=74, time=16)\n",
      "Message('control_change', channel=0, control=64, value=52, time=41)\n",
      "Message('control_change', channel=0, control=67, value=63, time=1)\n",
      "Message('control_change', channel=0, control=64, value=39, time=17)\n",
      "Message('note_on', channel=0, note=72, velocity=0, time=12)\n",
      "Message('control_change', channel=0, control=64, value=0, time=7)\n",
      "Message('note_on', channel=0, note=62, velocity=88, time=9)\n",
      "Message('note_on', channel=0, note=71, velocity=75, time=28)\n",
      "Message('control_change', channel=0, control=67, value=59, time=57)\n",
      "Message('note_on', channel=0, note=71, velocity=0, time=27)\n",
      "Message('note_on', channel=0, note=69, velocity=77, time=18)\n",
      "Message('note_on', channel=0, note=69, velocity=0, time=63)\n",
      "Message('note_on', channel=0, note=62, velocity=0, time=14)\n",
      "Message('note_on', channel=0, note=67, velocity=75, time=23)\n",
      "Message('note_on', channel=0, note=71, velocity=79, time=17)\n",
      "Message('note_on', channel=0, note=67, velocity=0, time=7)\n",
      "Message('note_on', channel=0, note=71, velocity=0, time=53)\n",
      "Message('note_on', channel=0, note=74, velocity=76, time=54)\n",
      "Message('note_on', channel=0, note=74, velocity=0, time=81)\n",
      "Message('note_on', channel=0, note=66, velocity=70, time=17)\n",
      "Message('note_on', channel=0, note=69, velocity=75, time=23)\n",
      "Message('note_on', channel=0, note=66, velocity=0, time=5)\n",
      "Message('note_on', channel=0, note=69, velocity=0, time=22)\n",
      "Message('control_change', channel=0, control=67, value=63, time=9)\n",
      "Message('note_on', channel=0, note=72, velocity=80, time=65)\n",
      "Message('note_on', channel=0, note=72, velocity=0, time=46)\n",
      "Message('note_on', channel=0, note=67, velocity=64, time=60)\n",
      "Message('note_on', channel=0, note=71, velocity=82, time=1)\n",
      "Message('note_on', channel=0, note=71, velocity=0, time=29)\n",
      "Message('note_on', channel=0, note=67, velocity=0, time=165)\n",
      "Message('note_on', channel=0, note=66, velocity=64, time=36)\n",
      "Message('note_on', channel=0, note=67, velocity=77, time=8)\n",
      "Message('note_on', channel=0, note=66, velocity=0, time=42)\n",
      "Message('note_on', channel=0, note=67, velocity=0, time=6)\n",
      "Message('note_on', channel=0, note=64, velocity=63, time=49)\n",
      "Message('note_on', channel=0, note=62, velocity=74, time=98)\n",
      "Message('note_on', channel=0, note=64, velocity=0, time=4)\n",
      "Message('note_on', channel=0, note=71, velocity=73, time=16)\n",
      "Message('note_on', channel=0, note=71, velocity=0, time=20)\n",
      "Message('note_on', channel=0, note=62, velocity=0, time=19)\n",
      "Message('note_on', channel=0, note=60, velocity=69, time=49)\n",
      "Message('note_on', channel=0, note=59, velocity=72, time=127)\n",
      "Message('note_on', channel=0, note=74, velocity=86, time=6)\n",
      "Message('note_on', channel=0, note=60, velocity=0, time=1)\n",
      "Message('note_on', channel=0, note=59, velocity=0, time=89)\n",
      "Message('note_on', channel=0, note=57, velocity=67, time=17)\n",
      "Message('note_on', channel=0, note=74, velocity=0, time=91)\n",
      "Message('control_change', channel=0, control=64, value=9, time=7)\n",
      "Message('control_change', channel=0, control=64, value=15, time=20)\n",
      "Message('note_on', channel=0, note=79, velocity=79, time=5)\n",
      "Message('note_on', channel=0, note=59, velocity=70, time=3)\n",
      "Message('note_on', channel=0, note=57, velocity=0, time=6)\n",
      "Message('note_on', channel=0, note=79, velocity=0, time=19)\n",
      "Message('control_change', channel=0, control=64, value=0, time=5)\n",
      "Message('note_on', channel=0, note=59, velocity=0, time=20)\n",
      "Message('note_on', channel=0, note=62, velocity=61, time=62)\n",
      "Message('note_on', channel=0, note=62, velocity=0, time=79)\n",
      "Message('note_on', channel=0, note=57, velocity=67, time=6)\n",
      "Message('note_on', channel=0, note=78, velocity=74, time=17)\n",
      "Message('note_on', channel=0, note=78, velocity=0, time=26)\n",
      "Message('note_on', channel=0, note=57, velocity=0, time=58)\n",
      "Message('note_on', channel=0, note=60, velocity=65, time=19)\n",
      "Message('note_on', channel=0, note=60, velocity=0, time=39)\n",
      "Message('note_on', channel=0, note=59, velocity=72, time=71)\n",
      "Message('note_on', channel=0, note=79, velocity=73, time=6)\n",
      "Message('note_on', channel=0, note=59, velocity=0, time=24)\n",
      "Message('note_on', channel=0, note=79, velocity=0, time=35)\n",
      "Message('note_on', channel=0, note=81, velocity=58, time=40)\n",
      "Message('note_on', channel=0, note=55, velocity=77, time=123)\n",
      "Message('note_on', channel=0, note=81, velocity=0, time=4)\n",
      "Message('note_on', channel=0, note=83, velocity=66, time=10)\n",
      "Message('note_on', channel=0, note=55, velocity=0, time=28)\n",
      "Message('note_on', channel=0, note=83, velocity=0, time=34)\n",
      "Message('note_on', channel=0, note=79, velocity=63, time=31)\n",
      "Message('note_on', channel=0, note=79, velocity=0, time=80)\n",
      "Message('note_on', channel=0, note=59, velocity=79, time=34)\n",
      "Message('note_on', channel=0, note=74, velocity=72, time=5)\n",
      "Message('note_on', channel=0, note=59, velocity=0, time=29)\n",
      "Message('note_on', channel=0, note=74, velocity=0, time=30)\n",
      "Message('note_on', channel=0, note=77, velocity=69, time=51)\n",
      "Message('note_on', channel=0, note=76, velocity=74, time=97)\n",
      "Message('note_on', channel=0, note=77, velocity=0, time=1)\n",
      "Message('note_on', channel=0, note=55, velocity=74, time=8)\n",
      "Message('note_on', channel=0, note=55, velocity=0, time=28)\n",
      "Message('note_on', channel=0, note=76, velocity=0, time=35)\n",
      "Message('note_on', channel=0, note=74, velocity=81, time=23)\n",
      "Message('note_on', channel=0, note=74, velocity=0, time=53)\n",
      "Message('note_on', channel=0, note=60, velocity=78, time=71)\n",
      "Message('note_on', channel=0, note=76, velocity=67, time=13)\n",
      "Message('note_on', channel=0, note=77, velocity=66, time=17)\n",
      "Message('note_on', channel=0, note=60, velocity=0, time=1)\n",
      "Message('note_on', channel=0, note=77, velocity=0, time=20)\n",
      "Message('note_on', channel=0, note=76, velocity=0, time=28)\n",
      "Message('note_on', channel=0, note=81, velocity=80, time=26)\n",
      "Message('note_on', channel=0, note=81, velocity=0, time=89)\n",
      "Message('note_on', channel=0, note=83, velocity=80, time=6)\n",
      "Message('note_on', channel=0, note=57, velocity=73, time=21)\n",
      "Message('note_on', channel=0, note=57, velocity=0, time=32)\n",
      "Message('note_on', channel=0, note=83, velocity=0, time=11)\n",
      "Message('note_on', channel=0, note=84, velocity=82, time=43)\n",
      "Message('control_change', channel=0, control=64, value=22, time=49)\n",
      "Message('note_on', channel=0, note=84, velocity=0, time=6)\n",
      "Message('control_change', channel=0, control=64, value=28, time=16)\n",
      "Message('control_change', channel=0, control=64, value=0, time=35)\n",
      "Message('note_on', channel=0, note=78, velocity=87, time=9)\n",
      "Message('note_on', channel=0, note=62, velocity=87, time=18)\n",
      "Message('control_change', channel=0, control=67, value=67, time=12)\n",
      "Message('note_on', channel=0, note=78, velocity=0, time=3)\n",
      "Message('note_on', channel=0, note=79, velocity=48, time=5)\n",
      "Message('note_on', channel=0, note=78, velocity=81, time=47)\n",
      "Message('note_on', channel=0, note=79, velocity=0, time=4)\n",
      "Message('note_on', channel=0, note=79, velocity=30, time=0)\n",
      "Message('note_on', channel=0, note=79, velocity=0, time=34)\n",
      "Message('note_on', channel=0, note=74, velocity=63, time=107)\n",
      "Message('note_on', channel=0, note=62, velocity=0, time=3)\n",
      "Message('note_on', channel=0, note=60, velocity=67, time=4)\n",
      "Message('note_on', channel=0, note=78, velocity=0, time=10)\n",
      "Message('note_on', channel=0, note=74, velocity=0, time=61)\n",
      "Message('note_on', channel=0, note=59, velocity=63, time=41)\n",
      "Message('note_on', channel=0, note=60, velocity=0, time=6)\n",
      "Message('note_on', channel=0, note=57, velocity=70, time=104)\n",
      "Message('note_on', channel=0, note=59, velocity=0, time=5)\n",
      "Message('note_on', channel=0, note=57, velocity=0, time=41)\n",
      "Message('note_on', channel=0, note=55, velocity=71, time=72)\n",
      "Message('note_on', channel=0, note=76, velocity=79, time=4)\n",
      "Message('control_change', channel=0, control=67, value=63, time=73)\n",
      "Message('note_on', channel=0, note=74, velocity=77, time=33)\n",
      "Message('note_on', channel=0, note=55, velocity=0, time=3)\n",
      "Message('note_on', channel=0, note=76, velocity=0, time=1)\n",
      "Message('note_on', channel=0, note=54, velocity=72, time=2)\n",
      "Message('note_on', channel=0, note=74, velocity=0, time=49)\n",
      "Message('note_on', channel=0, note=72, velocity=78, time=53)\n",
      "Message('note_on', channel=0, note=54, velocity=0, time=1)\n",
      "Message('note_on', channel=0, note=52, velocity=69, time=3)\n",
      "Message('note_on', channel=0, note=72, velocity=0, time=58)\n",
      "Message('note_on', channel=0, note=52, velocity=0, time=13)\n",
      "Message('note_on', channel=0, note=50, velocity=71, time=24)\n",
      "Message('note_on', channel=0, note=71, velocity=76, time=19)\n",
      "Message('note_on', channel=0, note=71, velocity=0, time=57)\n",
      "Message('note_on', channel=0, note=50, velocity=0, time=4)\n",
      "Message('note_on', channel=0, note=54, velocity=68, time=40)\n",
      "Message('note_on', channel=0, note=74, velocity=74, time=0)\n",
      "Message('note_on', channel=0, note=54, velocity=0, time=54)\n",
      "Message('note_on', channel=0, note=74, velocity=0, time=14)\n",
      "Message('note_on', channel=0, note=69, velocity=78, time=33)\n",
      "Message('note_on', channel=0, note=48, velocity=76, time=5)\n",
      "Message('note_on', channel=0, note=69, velocity=0, time=39)\n",
      "Message('note_on', channel=0, note=48, velocity=0, time=24)\n",
      "Message('note_on', channel=0, note=74, velocity=76, time=43)\n",
      "Message('note_on', channel=0, note=54, velocity=74, time=13)\n",
      "Message('note_on', channel=0, note=74, velocity=0, time=53)\n",
      "Message('control_change', channel=0, control=64, value=36, time=15)\n",
      "Message('note_on', channel=0, note=54, velocity=0, time=4)\n",
      "Message('control_change', channel=0, control=64, value=66, time=13)\n",
      "Message('note_on', channel=0, note=47, velocity=88, time=12)\n",
      "Message('note_on', channel=0, note=67, velocity=81, time=3)\n",
      "Message('control_change', channel=0, control=64, value=69, time=4)\n",
      "Message('control_change', channel=0, control=67, value=68, time=38)\n",
      "Message('note_on', channel=0, note=67, velocity=0, time=29)\n",
      "Message('control_change', channel=0, control=64, value=71, time=46)\n",
      "Message('note_on', channel=0, note=74, velocity=72, time=0)\n",
      "Message('control_change', channel=0, control=67, value=64, time=1)\n",
      "Message('control_change', channel=0, control=64, value=76, time=39)\n",
      "Message('control_change', channel=0, control=64, value=82, time=19)\n",
      "Message('control_change', channel=0, control=64, value=93, time=18)\n",
      "Message('note_on', channel=0, note=47, velocity=0, time=7)\n",
      "Message('control_change', channel=0, control=64, value=105, time=12)\n",
      "Message('note_on', channel=0, note=74, velocity=0, time=3)\n",
      "Message('control_change', channel=0, control=64, value=101, time=16)\n",
      "Message('note_on', channel=0, note=66, velocity=70, time=6)\n",
      "Message('note_on', channel=0, note=45, velocity=83, time=2)\n",
      "Message('control_change', channel=0, control=64, value=76, time=11)\n",
      "Message('control_change', channel=0, control=64, value=0, time=18)\n",
      "Message('note_on', channel=0, note=66, velocity=0, time=5)\n",
      "Message('note_on', channel=0, note=45, velocity=0, time=15)\n",
      "Message('note_on', channel=0, note=74, velocity=71, time=64)\n",
      "Message('note_on', channel=0, note=74, velocity=0, time=75)\n",
      "Message('note_on', channel=0, note=67, velocity=74, time=57)\n",
      "Message('note_on', channel=0, note=47, velocity=68, time=8)\n",
      "Message('note_on', channel=0, note=47, velocity=0, time=36)\n",
      "Message('note_on', channel=0, note=67, velocity=0, time=11)\n",
      "Message('note_on', channel=0, note=74, velocity=72, time=45)\n",
      "Message('note_on', channel=0, note=43, velocity=82, time=114)\n",
      "Message('note_on', channel=0, note=74, velocity=0, time=3)\n",
      "Message('note_on', channel=0, note=72, velocity=74, time=12)\n",
      "Message('note_on', channel=0, note=43, velocity=0, time=31)\n",
      "Message('note_on', channel=0, note=72, velocity=0, time=63)\n",
      "Message('note_on', channel=0, note=71, velocity=70, time=10)\n",
      "Message('note_on', channel=0, note=71, velocity=0, time=47)\n",
      "Message('note_on', channel=0, note=45, velocity=85, time=59)\n",
      "Message('note_on', channel=0, note=69, velocity=78, time=1)\n",
      "Message('note_on', channel=0, note=45, velocity=0, time=32)\n",
      "Message('note_on', channel=0, note=69, velocity=0, time=9)\n",
      "Message('note_on', channel=0, note=67, velocity=73, time=67)\n",
      "Message('note_on', channel=0, note=67, velocity=0, time=56)\n",
      "Message('note_on', channel=0, note=47, velocity=89, time=51)\n",
      "Message('note_on', channel=0, note=65, velocity=79, time=1)\n",
      "Message('note_on', channel=0, note=47, velocity=0, time=25)\n",
      "Message('note_on', channel=0, note=65, velocity=0, time=9)\n",
      "Message('note_on', channel=0, note=74, velocity=76, time=66)\n",
      "Message('note_on', channel=0, note=74, velocity=0, time=100)\n",
      "Message('note_on', channel=0, note=64, velocity=77, time=26)\n",
      "Message('note_on', channel=0, note=48, velocity=82, time=3)\n",
      "Message('control_change', channel=0, control=64, value=41, time=8)\n",
      "Message('control_change', channel=0, control=64, value=47, time=22)\n",
      "Message('control_change', channel=0, control=64, value=52, time=51)\n",
      "Message('note_on', channel=0, note=64, velocity=0, time=3)\n",
      "Message('control_change', channel=0, control=64, value=59, time=16)\n",
      "Message('control_change', channel=0, control=64, value=63, time=22)\n",
      "Message('note_on', channel=0, note=74, velocity=74, time=2)\n",
      "Message('control_change', channel=0, control=64, value=64, time=13)\n",
      "Message('control_change', channel=0, control=64, value=61, time=37)\n",
      "Message('control_change', channel=0, control=64, value=47, time=21)\n",
      "Message('note_on', channel=0, note=74, velocity=0, time=10)\n",
      "Message('control_change', channel=0, control=64, value=0, time=7)\n",
      "Message('note_on', channel=0, note=62, velocity=78, time=22)\n",
      "Message('note_on', channel=0, note=47, velocity=77, time=2)\n",
      "Message('note_on', channel=0, note=48, velocity=0, time=10)\n",
      "Message('note_on', channel=0, note=47, velocity=0, time=28)\n",
      "Message('note_on', channel=0, note=62, velocity=0, time=8)\n",
      "Message('note_on', channel=0, note=74, velocity=74, time=60)\n",
      "Message('note_on', channel=0, note=74, velocity=0, time=66)\n",
      "Message('note_on', channel=0, note=64, velocity=78, time=43)\n",
      "Message('note_on', channel=0, note=48, velocity=62, time=15)\n",
      "Message('note_on', channel=0, note=50, velocity=47, time=20)\n",
      "Message('note_on', channel=0, note=48, velocity=0, time=13)\n",
      "Message('note_on', channel=0, note=64, velocity=0, time=19)\n",
      "Message('note_on', channel=0, note=50, velocity=0, time=9)\n",
      "Message('note_on', channel=0, note=74, velocity=71, time=26)\n",
      "Message('note_on', channel=0, note=74, velocity=0, time=87)\n",
      "Message('note_on', channel=0, note=72, velocity=79, time=25)\n",
      "Message('note_on', channel=0, note=45, velocity=79, time=3)\n",
      "Message('note_on', channel=0, note=45, velocity=0, time=43)\n",
      "Message('note_on', channel=0, note=72, velocity=0, time=60)\n",
      "Message('note_on', channel=0, note=71, velocity=75, time=13)\n",
      "Message('note_on', channel=0, note=71, velocity=0, time=47)\n",
      "Message('note_on', channel=0, note=47, velocity=84, time=51)\n",
      "Message('note_on', channel=0, note=69, velocity=78, time=10)\n",
      "Message('note_on', channel=0, note=47, velocity=0, time=29)\n",
      "Message('note_on', channel=0, note=69, velocity=0, time=26)\n",
      "Message('note_on', channel=0, note=67, velocity=77, time=63)\n",
      "Message('note_on', channel=0, note=67, velocity=0, time=61)\n",
      "Message('note_on', channel=0, note=69, velocity=81, time=44)\n",
      "Message('note_on', channel=0, note=48, velocity=87, time=12)\n",
      "Message('note_on', channel=0, note=48, velocity=0, time=32)\n",
      "Message('note_on', channel=0, note=69, velocity=0, time=9)\n",
      "Message('note_on', channel=0, note=72, velocity=79, time=51)\n",
      "Message('control_change', channel=0, control=67, value=68, time=85)\n",
      "Message('note_on', channel=0, note=72, velocity=0, time=15)\n",
      "Message('note_on', channel=0, note=50, velocity=91, time=18)\n",
      "Message('note_on', channel=0, note=66, velocity=80, time=7)\n",
      "Message('note_on', channel=0, note=50, velocity=0, time=33)\n",
      "Message('control_change', channel=0, control=64, value=86, time=1)\n",
      "Message('control_change', channel=0, control=64, value=107, time=21)\n",
      "Message('control_change', channel=0, control=64, value=112, time=18)\n",
      "Message('control_change', channel=0, control=64, value=107, time=19)\n",
      "Message('note_on', channel=0, note=66, velocity=0, time=0)\n",
      "Message('note_on', channel=0, note=64, velocity=80, time=15)\n",
      "Message('control_change', channel=0, control=64, value=103, time=4)\n",
      "Message('control_change', channel=0, control=64, value=109, time=36)\n",
      "Message('note_on', channel=0, note=64, velocity=0, time=38)\n",
      "Message('control_change', channel=0, control=64, value=102, time=38)\n",
      "Message('control_change', channel=0, control=67, value=74, time=2)\n",
      "Message('note_on', channel=0, note=62, velocity=78, time=10)\n",
      "Message('note_on', channel=0, note=48, velocity=77, time=4)\n",
      "Message('control_change', channel=0, control=64, value=87, time=4)\n",
      "Message('control_change', channel=0, control=64, value=61, time=19)\n",
      "Message('control_change', channel=0, control=64, value=0, time=19)\n",
      "Message('note_on', channel=0, note=62, velocity=0, time=17)\n",
      "Message('note_on', channel=0, note=47, velocity=74, time=37)\n",
      "Message('note_on', channel=0, note=48, velocity=0, time=5)\n",
      "Message('note_on', channel=0, note=64, velocity=74, time=0)\n",
      "Message('note_on', channel=0, note=64, velocity=0, time=86)\n",
      "Message('note_on', channel=0, note=66, velocity=83, time=14)\n",
      "Message('note_on', channel=0, note=45, velocity=81, time=7)\n",
      "Message('note_on', channel=0, note=47, velocity=0, time=1)\n",
      "Message('note_on', channel=0, note=66, velocity=0, time=59)\n",
      "Message('note_on', channel=0, note=45, velocity=0, time=1)\n",
      "Message('note_on', channel=0, note=67, velocity=82, time=36)\n",
      "Message('note_on', channel=0, note=43, velocity=80, time=18)\n",
      "Message('note_on', channel=0, note=67, velocity=0, time=66)\n",
      "Message('note_on', channel=0, note=69, velocity=82, time=41)\n",
      "Message('note_on', channel=0, note=42, velocity=79, time=16)\n",
      "Message('note_on', channel=0, note=43, velocity=0, time=1)\n",
      "Message('note_on', channel=0, note=42, velocity=0, time=54)\n",
      "Message('note_on', channel=0, note=69, velocity=0, time=5)\n",
      "Message('note_on', channel=0, note=71, velocity=83, time=27)\n",
      "Message('note_on', channel=0, note=40, velocity=77, time=16)\n",
      "Message('note_on', channel=0, note=40, velocity=0, time=69)\n",
      "Message('note_on', channel=0, note=72, velocity=82, time=25)\n",
      "Message('note_on', channel=0, note=38, velocity=71, time=1)\n",
      "Message('note_on', channel=0, note=71, velocity=0, time=13)\n",
      "Message('note_on', channel=0, note=38, velocity=0, time=90)\n",
      "Message('note_on', channel=0, note=69, velocity=86, time=3)\n",
      "Message('note_on', channel=0, note=72, velocity=0, time=1)\n",
      "Message('note_on', channel=0, note=42, velocity=76, time=5)\n",
      "Message('note_on', channel=0, note=69, velocity=0, time=50)\n",
      "Message('note_on', channel=0, note=42, velocity=0, time=40)\n",
      "Message('note_on', channel=0, note=45, velocity=79, time=13)\n",
      "Message('note_on', channel=0, note=74, velocity=82, time=3)\n",
      "Message('note_on', channel=0, note=45, velocity=0, time=57)\n",
      "Message('note_on', channel=0, note=74, velocity=0, time=16)\n",
      "Message('note_on', channel=0, note=50, velocity=71, time=38)\n",
      "Message('note_on', channel=0, note=69, velocity=80, time=0)\n",
      "Message('note_on', channel=0, note=69, velocity=0, time=55)\n",
      "Message('note_on', channel=0, note=50, velocity=0, time=32)\n",
      "Message('control_change', channel=0, control=67, value=81, time=18)\n",
      "Message('note_on', channel=0, note=43, velocity=78, time=8)\n",
      "Message('note_on', channel=0, note=71, velocity=78, time=2)\n",
      "Message('note_on', channel=0, note=67, velocity=69, time=117)\n",
      "Message('note_on', channel=0, note=66, velocity=64, time=102)\n",
      "Message('control_change', channel=0, control=67, value=85, time=15)\n",
      "Message('note_on', channel=0, note=67, velocity=0, time=24)\n",
      "Message('note_on', channel=0, note=66, velocity=0, time=13)\n",
      "Message('note_on', channel=0, note=43, velocity=0, time=9)\n",
      "Message('note_on', channel=0, note=64, velocity=63, time=54)\n",
      "Message('note_on', channel=0, note=64, velocity=0, time=76)\n",
      "Message('note_on', channel=0, note=62, velocity=64, time=45)\n",
      "Message('note_on', channel=0, note=62, velocity=0, time=54)\n",
      "Message('note_on', channel=0, note=60, velocity=62, time=57)\n",
      "Message('note_on', channel=0, note=60, velocity=0, time=76)\n",
      "Message('note_on', channel=0, note=59, velocity=63, time=36)\n",
      "Message('control_change', channel=0, control=67, value=81, time=6)\n",
      "Message('note_on', channel=0, note=59, velocity=0, time=41)\n",
      "Message('note_on', channel=0, note=57, velocity=66, time=48)\n",
      "Message('note_on', channel=0, note=71, velocity=0, time=8)\n",
      "Message('note_on', channel=0, note=57, velocity=0, time=64)\n",
      "Message('note_on', channel=0, note=55, velocity=68, time=32)\n",
      "Message('note_on', channel=0, note=55, velocity=0, time=54)\n",
      "Message('note_on', channel=0, note=59, velocity=64, time=66)\n",
      "Message('note_on', channel=0, note=59, velocity=0, time=93)\n",
      "Message('note_on', channel=0, note=54, velocity=61, time=18)\n",
      "Message('note_on', channel=0, note=54, velocity=0, time=60)\n",
      "Message('note_on', channel=0, note=57, velocity=52, time=76)\n",
      "Message('note_on', channel=0, note=57, velocity=0, time=71)\n",
      "Message('note_on', channel=0, note=76, velocity=58, time=41)\n",
      "Message('note_on', channel=0, note=55, velocity=59, time=14)\n",
      "Message('note_on', channel=0, note=55, velocity=0, time=31)\n",
      "Message('note_on', channel=0, note=78, velocity=64, time=73)\n",
      "Message('note_on', channel=0, note=76, velocity=0, time=1)\n",
      "Message('note_on', channel=0, note=52, velocity=70, time=101)\n",
      "Message('note_on', channel=0, note=78, velocity=0, time=4)\n",
      "Message('note_on', channel=0, note=79, velocity=63, time=8)\n",
      "Message('note_on', channel=0, note=52, velocity=0, time=33)\n",
      "Message('note_on', channel=0, note=76, velocity=69, time=94)\n",
      "Message('note_on', channel=0, note=79, velocity=0, time=0)\n",
      "Message('note_on', channel=0, note=76, velocity=0, time=75)\n",
      "Message('note_on', channel=0, note=55, velocity=70, time=9)\n",
      "Message('note_on', channel=0, note=55, velocity=0, time=37)\n",
      "Message('note_on', channel=0, note=71, velocity=49, time=12)\n",
      "Message('note_on', channel=0, note=72, velocity=44, time=7)\n",
      "Message('note_on', channel=0, note=71, velocity=0, time=32)\n",
      "Message('note_on', channel=0, note=72, velocity=0, time=0)\n",
      "Message('note_on', channel=0, note=76, velocity=70, time=44)\n",
      "Message('note_on', channel=0, note=52, velocity=62, time=104)\n",
      "Message('control_change', channel=0, control=67, value=76, time=1)\n",
      "Message('note_on', channel=0, note=78, velocity=73, time=2)\n",
      "Message('note_on', channel=0, note=76, velocity=0, time=10)\n",
      "Message('note_on', channel=0, note=52, velocity=0, time=33)\n",
      "Message('note_on', channel=0, note=78, velocity=0, time=46)\n",
      "Message('note_on', channel=0, note=79, velocity=78, time=12)\n",
      "Message('control_change', channel=0, control=67, value=72, time=120)\n",
      "Message('note_on', channel=0, note=59, velocity=71, time=4)\n",
      "Message('note_on', channel=0, note=79, velocity=0, time=9)\n",
      "Message('note_on', channel=0, note=75, velocity=78, time=3)\n",
      "Message('note_on', channel=0, note=59, velocity=0, time=21)\n",
      "Message('note_on', channel=0, note=75, velocity=0, time=64)\n",
      "Message('note_on', channel=0, note=83, velocity=58, time=34)\n",
      "Message('note_on', channel=0, note=81, velocity=64, time=3)\n",
      "Message('note_on', channel=0, note=83, velocity=0, time=69)\n",
      "Message('note_on', channel=0, note=79, velocity=79, time=14)\n",
      "Message('note_on', channel=0, note=81, velocity=0, time=4)\n",
      "Message('note_on', channel=0, note=47, velocity=72, time=9)\n",
      "Message('note_on', channel=0, note=47, velocity=0, time=44)\n",
      "Message('note_on', channel=0, note=78, velocity=79, time=62)\n",
      "Message('note_on', channel=0, note=79, velocity=0, time=1)\n",
      "Message('note_on', channel=0, note=52, velocity=71, time=106)\n",
      "Message('note_on', channel=0, note=78, velocity=0, time=12)\n",
      "Message('note_on', channel=0, note=79, velocity=75, time=1)\n",
      "Message('note_on', channel=0, note=79, velocity=0, time=32)\n",
      "Message('note_on', channel=0, note=52, velocity=0, time=50)\n",
      "Message('note_on', channel=0, note=54, velocity=67, time=9)\n",
      "Message('note_on', channel=0, note=54, velocity=0, time=59)\n",
      "Message('note_on', channel=0, note=55, velocity=67, time=46)\n",
      "Message('note_on', channel=0, note=76, velocity=84, time=11)\n",
      "Message('note_on', channel=0, note=52, velocity=68, time=104)\n",
      "Message('note_on', channel=0, note=55, velocity=0, time=19)\n",
      "Message('note_on', channel=0, note=52, velocity=0, time=90)\n",
      "Message('note_on', channel=0, note=79, velocity=76, time=17)\n",
      "Message('note_on', channel=0, note=49, velocity=69, time=7)\n",
      "Message('note_on', channel=0, note=76, velocity=0, time=1)\n",
      "Message('note_on', channel=0, note=79, velocity=0, time=23)\n",
      "Message('note_on', channel=0, note=49, velocity=0, time=30)\n",
      "Message('note_on', channel=0, note=55, velocity=62, time=51)\n",
      "Message('note_on', channel=0, note=55, velocity=0, time=74)\n",
      "Message('note_on', channel=0, note=47, velocity=67, time=30)\n",
      "Message('note_on', channel=0, note=74, velocity=79, time=3)\n",
      "Message('note_on', channel=0, note=74, velocity=0, time=26)\n",
      "Message('note_on', channel=0, note=47, velocity=0, time=25)\n",
      "Message('note_on', channel=0, note=55, velocity=66, time=62)\n",
      "Message('note_on', channel=0, note=55, velocity=0, time=90)\n",
      "Message('note_on', channel=0, note=73, velocity=80, time=17)\n",
      "Message('note_on', channel=0, note=45, velocity=76, time=12)\n",
      "Message('note_on', channel=0, note=73, velocity=0, time=11)\n",
      "Message('note_on', channel=0, note=45, velocity=0, time=37)\n",
      "Message('note_on', channel=0, note=55, velocity=70, time=58)\n",
      "Message('note_on', channel=0, note=55, velocity=0, time=84)\n",
      "Message('note_on', channel=0, note=54, velocity=69, time=19)\n",
      "Message('note_on', channel=0, note=81, velocity=75, time=7)\n",
      "Message('note_on', channel=0, note=81, velocity=0, time=25)\n",
      "Message('note_on', channel=0, note=54, velocity=0, time=76)\n",
      "Message('note_on', channel=0, note=52, velocity=72, time=2)\n",
      "Message('note_on', channel=0, note=52, velocity=0, time=64)\n",
      "Message('note_on', channel=0, note=74, velocity=77, time=61)\n",
      "Message('note_on', channel=0, note=54, velocity=74, time=2)\n",
      "Message('note_on', channel=0, note=54, velocity=0, time=46)\n",
      "Message('note_on', channel=0, note=74, velocity=0, time=44)\n",
      "Message('note_on', channel=0, note=76, velocity=71, time=24)\n",
      "Message('note_on', channel=0, note=78, velocity=77, time=117)\n",
      "Message('note_on', channel=0, note=50, velocity=75, time=3)\n",
      "Message('note_on', channel=0, note=76, velocity=0, time=16)\n",
      "Message('note_on', channel=0, note=50, velocity=0, time=22)\n",
      "Message('note_on', channel=0, note=74, velocity=70, time=71)\n",
      "Message('note_on', channel=0, note=78, velocity=0, time=19)\n",
      "Message('note_on', channel=0, note=74, velocity=0, time=60)\n",
      "Message('note_on', channel=0, note=54, velocity=75, time=26)\n",
      "Message('note_on', channel=0, note=69, velocity=80, time=4)\n",
      "Message('note_on', channel=0, note=54, velocity=0, time=34)\n",
      "Message('note_on', channel=0, note=69, velocity=0, time=38)\n",
      "Message('note_on', channel=0, note=72, velocity=72, time=36)\n",
      "Message('note_on', channel=0, note=50, velocity=73, time=98)\n",
      "Message('note_on', channel=0, note=71, velocity=76, time=21)\n",
      "Message('note_on', channel=0, note=50, velocity=0, time=21)\n",
      "Message('note_on', channel=0, note=72, velocity=0, time=46)\n",
      "Message('note_on', channel=0, note=71, velocity=0, time=27)\n",
      "Message('note_on', channel=0, note=69, velocity=80, time=8)\n",
      "Message('note_on', channel=0, note=69, velocity=0, time=54)\n",
      "Message('note_on', channel=0, note=55, velocity=77, time=36)\n",
      "Message('note_on', channel=0, note=55, velocity=0, time=32)\n",
      "Message('note_on', channel=0, note=71, velocity=79, time=3)\n",
      "Message('note_on', channel=0, note=71, velocity=0, time=84)\n",
      "Message('note_on', channel=0, note=76, velocity=74, time=35)\n",
      "Message('note_on', channel=0, note=52, velocity=75, time=88)\n",
      "Message('note_on', channel=0, note=78, velocity=77, time=8)\n",
      "Message('note_on', channel=0, note=76, velocity=0, time=9)\n",
      "Message('note_on', channel=0, note=52, velocity=0, time=18)\n",
      "Message('note_on', channel=0, note=78, velocity=0, time=59)\n",
      "Message('note_on', channel=0, note=79, velocity=78, time=19)\n",
      "Message('control_change', channel=0, control=64, value=11, time=11)\n",
      "Message('control_change', channel=0, control=64, value=32, time=20)\n",
      "Message('note_on', channel=0, note=79, velocity=0, time=10)\n",
      "Message('control_change', channel=0, control=64, value=41, time=8)\n",
      "Message('control_change', channel=0, control=64, value=0, time=39)\n",
      "Message('note_on', channel=0, note=73, velocity=89, time=15)\n",
      "Message('note_on', channel=0, note=57, velocity=85, time=1)\n",
      "Message('note_on', channel=0, note=74, velocity=52, time=33)\n",
      "Message('note_on', channel=0, note=73, velocity=0, time=23)\n",
      "Message('note_on', channel=0, note=73, velocity=66, time=46)\n",
      "Message('note_on', channel=0, note=74, velocity=0, time=29)\n",
      "Message('note_on', channel=0, note=57, velocity=0, time=77)\n",
      "Message('note_on', channel=0, note=55, velocity=64, time=27)\n",
      "Message('note_on', channel=0, note=69, velocity=80, time=0)\n",
      "Message('note_on', channel=0, note=73, velocity=0, time=22)\n",
      "Message('note_on', channel=0, note=69, velocity=0, time=28)\n",
      "Message('note_on', channel=0, note=54, velocity=67, time=61)\n",
      "Message('note_on', channel=0, note=55, velocity=0, time=10)\n",
      "Message('note_on', channel=0, note=54, velocity=0, time=70)\n",
      "Message('note_on', channel=0, note=52, velocity=73, time=41)\n",
      "Message('note_on', channel=0, note=52, velocity=0, time=109)\n",
      "Message('note_on', channel=0, note=50, velocity=69, time=8)\n",
      "Message('note_on', channel=0, note=50, velocity=0, time=118)\n",
      "Message('note_on', channel=0, note=49, velocity=68, time=5)\n",
      "Message('note_on', channel=0, note=69, velocity=76, time=2)\n",
      "Message('note_on', channel=0, note=49, velocity=0, time=58)\n",
      "Message('note_on', channel=0, note=69, velocity=0, time=3)\n",
      "Message('note_on', channel=0, note=47, velocity=66, time=29)\n",
      "Message('note_on', channel=0, note=71, velocity=75, time=16)\n",
      "Message('note_on', channel=0, note=47, velocity=0, time=72)\n",
      "Message('note_on', channel=0, note=45, velocity=80, time=28)\n",
      "Message('note_on', channel=0, note=71, velocity=0, time=6)\n",
      "Message('note_on', channel=0, note=73, velocity=83, time=1)\n",
      "Message('note_on', channel=0, note=45, velocity=0, time=57)\n",
      "Message('note_on', channel=0, note=73, velocity=0, time=8)\n",
      "Message('note_on', channel=0, note=74, velocity=86, time=35)\n",
      "Message('note_on', channel=0, note=52, velocity=79, time=7)\n",
      "Message('note_on', channel=0, note=52, velocity=0, time=95)\n",
      "Message('note_on', channel=0, note=74, velocity=0, time=1)\n",
      "Message('note_on', channel=0, note=43, velocity=88, time=19)\n",
      "Message('note_on', channel=0, note=76, velocity=82, time=2)\n",
      "Message('note_on', channel=0, note=43, velocity=0, time=51)\n",
      "Message('note_on', channel=0, note=76, velocity=0, time=33)\n",
      "Message('note_on', channel=0, note=52, velocity=83, time=22)\n",
      "Message('note_on', channel=0, note=73, velocity=80, time=1)\n",
      "Message('note_on', channel=0, note=73, velocity=0, time=78)\n",
      "Message('note_on', channel=0, note=52, velocity=0, time=31)\n",
      "Message('note_on', channel=0, note=74, velocity=80, time=7)\n",
      "Message('note_on', channel=0, note=42, velocity=90, time=9)\n",
      "Message('control_change', channel=0, control=64, value=61, time=18)\n",
      "Message('control_change', channel=0, control=64, value=68, time=19)\n",
      "Message('control_change', channel=0, control=64, value=66, time=17)\n",
      "Message('control_change', channel=0, control=64, value=65, time=18)\n",
      "Message('note_on', channel=0, note=76, velocity=79, time=32)\n",
      "Message('control_change', channel=0, control=64, value=66, time=7)\n",
      "Message('note_on', channel=0, note=74, velocity=0, time=7)\n",
      "Message('control_change', channel=0, control=64, value=69, time=14)\n",
      "Message('control_change', channel=0, control=67, value=76, time=0)\n",
      "Message('control_change', channel=0, control=64, value=71, time=17)\n",
      "Message('note_on', channel=0, note=76, velocity=0, time=56)\n",
      "Message('control_change', channel=0, control=64, value=75, time=32)\n",
      "Message('note_on', channel=0, note=69, velocity=76, time=6)\n",
      "Message('note_on', channel=0, note=40, velocity=82, time=4)\n",
      "Message('note_on', channel=0, note=42, velocity=0, time=4)\n",
      "Message('control_change', channel=0, control=64, value=78, time=5)\n",
      "Message('control_change', channel=0, control=64, value=73, time=20)\n",
      "Message('control_change', channel=0, control=64, value=47, time=19)\n",
      "Message('note_on', channel=0, note=40, velocity=0, time=5)\n",
      "Message('control_change', channel=0, control=64, value=0, time=12)\n",
      "Message('control_change', channel=0, control=67, value=72, time=1)\n",
      "Message('note_on', channel=0, note=69, velocity=0, time=11)\n",
      "Message('note_on', channel=0, note=73, velocity=77, time=32)\n",
      "Message('note_on', channel=0, note=73, velocity=0, time=68)\n",
      "Message('note_on', channel=0, note=74, velocity=80, time=39)\n",
      "Message('note_on', channel=0, note=42, velocity=81, time=8)\n",
      "Message('note_on', channel=0, note=42, velocity=0, time=37)\n",
      "Message('note_on', channel=0, note=74, velocity=0, time=39)\n",
      "Message('note_on', channel=0, note=76, velocity=77, time=33)\n",
      "Message('note_on', channel=0, note=45, velocity=82, time=102)\n",
      "Message('note_on', channel=0, note=69, velocity=80, time=16)\n",
      "Message('note_on', channel=0, note=76, velocity=0, time=1)\n",
      "Message('note_on', channel=0, note=45, velocity=0, time=16)\n",
      "Message('note_on', channel=0, note=69, velocity=0, time=71)\n",
      "Message('note_on', channel=0, note=74, velocity=68, time=6)\n",
      "Message('control_change', channel=0, control=67, value=68, time=68)\n",
      "Message('note_on', channel=0, note=74, velocity=0, time=9)\n",
      "Message('note_on', channel=0, note=66, velocity=82, time=46)\n",
      "Message('note_on', channel=0, note=50, velocity=76, time=9)\n",
      "Message('control_change', channel=0, control=67, value=72, time=11)\n",
      "Message('note_on', channel=0, note=50, velocity=0, time=28)\n",
      "Message('note_on', channel=0, note=66, velocity=0, time=7)\n",
      "Message('control_change', channel=0, control=67, value=67, time=25)\n",
      "Message('note_on', channel=0, note=74, velocity=73, time=18)\n",
      "Message('note_on', channel=0, note=42, velocity=86, time=114)\n",
      "Message('note_on', channel=0, note=69, velocity=82, time=1)\n",
      "Message('note_on', channel=0, note=74, velocity=0, time=6)\n",
      "Message('note_on', channel=0, note=42, velocity=0, time=58)\n",
      "Message('control_change', channel=0, control=67, value=71, time=4)\n",
      "Message('note_on', channel=0, note=69, velocity=0, time=9)\n",
      "Message('note_on', channel=0, note=76, velocity=76, time=33)\n",
      "Message('control_change', channel=0, control=67, value=67, time=16)\n",
      "Message('note_on', channel=0, note=76, velocity=0, time=104)\n",
      "Message('note_on', channel=0, note=74, velocity=82, time=9)\n",
      "Message('note_on', channel=0, note=43, velocity=90, time=3)\n",
      "Message('control_change', channel=0, control=64, value=60, time=34)\n",
      "Message('control_change', channel=0, control=64, value=66, time=17)\n",
      "Message('note_on', channel=0, note=76, velocity=79, time=69)\n",
      "Message('note_on', channel=0, note=74, velocity=0, time=12)\n",
      "Message('control_change', channel=0, control=64, value=67, time=53)\n",
      "Message('control_change', channel=0, control=64, value=65, time=37)\n",
      "Message('note_on', channel=0, note=45, velocity=80, time=13)\n",
      "Message('note_on', channel=0, note=43, velocity=0, time=4)\n",
      "Message('control_change', channel=0, control=64, value=22, time=2)\n",
      "Message('note_on', channel=0, note=71, velocity=78, time=1)\n",
      "Message('note_on', channel=0, note=76, velocity=0, time=9)\n",
      "Message('control_change', channel=0, control=64, value=0, time=9)\n",
      "Message('note_on', channel=0, note=45, velocity=0, time=22)\n",
      "Message('note_on', channel=0, note=71, velocity=0, time=36)\n",
      "Message('note_on', channel=0, note=73, velocity=74, time=31)\n",
      "Message('note_on', channel=0, note=73, velocity=0, time=74)\n",
      "Message('note_on', channel=0, note=74, velocity=82, time=27)\n",
      "Message('note_on', channel=0, note=47, velocity=73, time=19)\n",
      "Message('note_on', channel=0, note=48, velocity=33, time=27)\n",
      "Message('note_on', channel=0, note=47, velocity=0, time=4)\n",
      "Message('note_on', channel=0, note=48, velocity=0, time=44)\n",
      "Message('note_on', channel=0, note=74, velocity=0, time=15)\n",
      "Message('note_on', channel=0, note=76, velocity=80, time=9)\n",
      "Message('note_on', channel=0, note=76, velocity=0, time=91)\n",
      "Message('note_on', channel=0, note=43, velocity=81, time=29)\n",
      "Message('note_on', channel=0, note=71, velocity=78, time=6)\n",
      "Message('note_on', channel=0, note=43, velocity=0, time=30)\n",
      "Message('note_on', channel=0, note=71, velocity=0, time=24)\n",
      "Message('note_on', channel=0, note=74, velocity=67, time=69)\n",
      "Message('control_change', channel=0, control=67, value=63, time=43)\n",
      "Message('control_change', channel=0, control=67, value=67, time=38)\n",
      "Message('note_on', channel=0, note=74, velocity=0, time=10)\n",
      "Message('note_on', channel=0, note=40, velocity=79, time=12)\n",
      "Message('note_on', channel=0, note=67, velocity=80, time=16)\n",
      "Message('note_on', channel=0, note=40, velocity=0, time=30)\n",
      "Message('control_change', channel=0, control=67, value=63, time=26)\n",
      "Message('note_on', channel=0, note=67, velocity=0, time=10)\n",
      "Message('note_on', channel=0, note=74, velocity=80, time=38)\n",
      "Message('note_on', channel=0, note=43, velocity=85, time=106)\n",
      "Message('note_on', channel=0, note=74, velocity=0, time=14)\n",
      "Message('note_on', channel=0, note=71, velocity=85, time=5)\n",
      "Message('note_on', channel=0, note=43, velocity=0, time=9)\n",
      "Message('control_change', channel=0, control=67, value=67, time=6)\n",
      "Message('note_on', channel=0, note=71, velocity=0, time=41)\n",
      "Message('control_change', channel=0, control=67, value=63, time=36)\n",
      "Message('note_on', channel=0, note=74, velocity=79, time=8)\n",
      "Message('control_change', channel=0, control=67, value=68, time=49)\n",
      "Message('note_on', channel=0, note=45, velocity=88, time=71)\n",
      "Message('note_on', channel=0, note=73, velocity=87, time=3)\n",
      "Message('note_on', channel=0, note=74, velocity=0, time=7)\n",
      "Message('control_change', channel=0, control=64, value=46, time=13)\n",
      "Message('control_change', channel=0, control=67, value=64, time=1)\n",
      "Message('control_change', channel=0, control=64, value=81, time=17)\n",
      "Message('control_change', channel=0, control=64, value=83, time=18)\n",
      "Message('control_change', channel=0, control=64, value=76, time=20)\n",
      "Message('control_change', channel=0, control=67, value=68, time=2)\n",
      "Message('control_change', channel=0, control=64, value=67, time=17)\n",
      "Message('note_on', channel=0, note=73, velocity=0, time=3)\n",
      "Message('note_on', channel=0, note=74, velocity=83, time=11)\n",
      "Message('control_change', channel=0, control=64, value=61, time=5)\n",
      "Message('control_change', channel=0, control=64, value=65, time=19)\n",
      "Message('control_change', channel=0, control=64, value=69, time=20)\n",
      "Message('control_change', channel=0, control=67, value=63, time=2)\n",
      "Message('control_change', channel=0, control=64, value=72, time=15)\n",
      "Message('control_change', channel=0, control=67, value=68, time=37)\n",
      "Message('note_on', channel=0, note=76, velocity=80, time=7)\n",
      "Message('note_on', channel=0, note=47, velocity=77, time=1)\n",
      "Message('note_on', channel=0, note=45, velocity=0, time=3)\n",
      "Message('control_change', channel=0, control=64, value=65, time=8)\n",
      "Message('note_on', channel=0, note=74, velocity=0, time=10)\n",
      "Message('control_change', channel=0, control=64, value=0, time=8)\n",
      "Message('note_on', channel=0, note=47, velocity=0, time=27)\n",
      "Message('note_on', channel=0, note=73, velocity=80, time=46)\n",
      "Message('note_on', channel=0, note=76, velocity=0, time=5)\n",
      "Message('note_on', channel=0, note=73, velocity=0, time=96)\n",
      "Message('note_on', channel=0, note=67, velocity=80, time=40)\n",
      "Message('note_on', channel=0, note=49, velocity=26, time=37)\n",
      "Message('note_on', channel=0, note=48, velocity=37, time=13)\n",
      "Message('note_on', channel=0, note=67, velocity=0, time=3)\n",
      "Message('note_on', channel=0, note=49, velocity=0, time=41)\n",
      "Message('note_on', channel=0, note=48, velocity=0, time=8)\n",
      "Message('control_change', channel=0, control=67, value=64, time=2)\n",
      "Message('note_on', channel=0, note=71, velocity=76, time=7)\n",
      "Message('control_change', channel=0, control=67, value=68, time=70)\n",
      "Message('note_on', channel=0, note=71, velocity=0, time=33)\n",
      "Message('note_on', channel=0, note=69, velocity=76, time=3)\n",
      "Message('note_on', channel=0, note=50, velocity=75, time=3)\n",
      "Message('note_on', channel=0, note=50, velocity=0, time=27)\n",
      "Message('control_change', channel=0, control=67, value=64, time=9)\n",
      "Message('control_change', channel=0, control=67, value=68, time=37)\n",
      "Message('note_on', channel=0, note=69, velocity=0, time=5)\n",
      "Message('note_on', channel=0, note=67, velocity=71, time=26)\n",
      "Message('note_on', channel=0, note=67, velocity=0, time=83)\n",
      "Message('note_on', channel=0, note=45, velocity=78, time=26)\n",
      "Message('note_on', channel=0, note=66, velocity=74, time=6)\n",
      "Message('control_change', channel=0, control=64, value=46, time=25)\n",
      "Message('control_change', channel=0, control=64, value=68, time=18)\n",
      "Message('control_change', channel=0, control=64, value=66, time=20)\n",
      "Message('note_on', channel=0, note=66, velocity=0, time=13)\n",
      "Message('control_change', channel=0, control=64, value=62, time=4)\n",
      "Message('control_change', channel=0, control=64, value=60, time=20)\n",
      "Message('note_on', channel=0, note=74, velocity=76, time=8)\n",
      "Message('control_change', channel=0, control=64, value=62, time=30)\n",
      "Message('control_change', channel=0, control=64, value=64, time=18)\n",
      "Message('note_on', channel=0, note=74, velocity=0, time=35)\n",
      "Message('control_change', channel=0, control=64, value=65, time=3)\n",
      "Message('control_change', channel=0, control=64, value=66, time=20)\n",
      "Message('note_on', channel=0, note=45, velocity=0, time=0)\n",
      "Message('note_on', channel=0, note=55, velocity=69, time=9)\n",
      "Message('note_on', channel=0, note=64, velocity=74, time=5)\n",
      "Message('control_change', channel=0, control=64, value=63, time=24)\n",
      "Message('note_on', channel=0, note=55, velocity=0, time=15)\n",
      "Message('control_change', channel=0, control=64, value=44, time=2)\n",
      "Message('control_change', channel=0, control=64, value=0, time=19)\n",
      "Message('note_on', channel=0, note=64, velocity=0, time=15)\n",
      "Message('note_on', channel=0, note=73, velocity=79, time=22)\n",
      "Message('control_change', channel=0, control=67, value=74, time=111)\n",
      "Message('note_on', channel=0, note=54, velocity=72, time=24)\n",
      "Message('note_on', channel=0, note=74, velocity=83, time=6)\n",
      "Message('note_on', channel=0, note=73, velocity=0, time=10)\n",
      "Message('control_change', channel=0, control=67, value=79, time=90)\n",
      "Message('control_change', channel=0, control=67, value=83, time=136)\n",
      "Message('note_on', channel=0, note=74, velocity=0, time=47)\n",
      "Message('note_on', channel=0, note=73, velocity=76, time=2)\n",
      "Message('note_on', channel=0, note=50, velocity=64, time=2)\n",
      "Message('note_on', channel=0, note=54, velocity=0, time=14)\n",
      "Message('note_on', channel=0, note=71, velocity=73, time=91)\n",
      "Message('note_on', channel=0, note=73, velocity=0, time=10)\n",
      "Message('note_on', channel=0, note=71, velocity=0, time=47)\n",
      "Message('note_on', channel=0, note=54, velocity=65, time=45)\n",
      "Message('note_on', channel=0, note=69, velocity=76, time=1)\n",
      "Message('note_on', channel=0, note=69, velocity=0, time=39)\n",
      "Message('note_on', channel=0, note=54, velocity=0, time=19)\n",
      "Message('note_on', channel=0, note=67, velocity=69, time=40)\n",
      "Message('note_on', channel=0, note=67, velocity=0, time=65)\n",
      "Message('note_on', channel=0, note=66, velocity=71, time=47)\n",
      "Message('note_on', channel=0, note=57, velocity=66, time=7)\n",
      "Message('note_on', channel=0, note=66, velocity=0, time=29)\n",
      "Message('control_change', channel=0, control=67, value=79, time=1)\n",
      "Message('note_on', channel=0, note=57, velocity=0, time=5)\n",
      "Message('note_on', channel=0, note=64, velocity=72, time=61)\n",
      "Message('note_on', channel=0, note=64, velocity=0, time=98)\n",
      "Message('note_on', channel=0, note=62, velocity=76, time=36)\n",
      "Message('control_change', channel=0, control=64, value=40, time=44)\n",
      "Message('control_change', channel=0, control=64, value=57, time=18)\n",
      "Message('control_change', channel=0, control=64, value=69, time=21)\n",
      "Message('control_change', channel=0, control=64, value=78, time=18)\n",
      "Message('control_change', channel=0, control=64, value=84, time=18)\n",
      "Message('control_change', channel=0, control=64, value=88, time=18)\n",
      "Message('control_change', channel=0, control=64, value=95, time=42)\n",
      "Message('control_change', channel=0, control=64, value=101, time=38)\n",
      "Message('note_on', channel=0, note=50, velocity=0, time=70)\n",
      "Message('note_on', channel=0, note=62, velocity=0, time=45)\n",
      "Message('control_change', channel=0, control=64, value=91, time=34)\n",
      "Message('control_change', channel=0, control=64, value=78, time=19)\n",
      "Message('control_change', channel=0, control=64, value=53, time=19)\n",
      "Message('note_on', channel=0, note=78, velocity=91, time=5)\n",
      "Message('control_change', channel=0, control=64, value=0, time=15)\n",
      "Message('note_on', channel=0, note=78, velocity=0, time=31)\n",
      "Message('note_on', channel=0, note=78, velocity=88, time=53)\n",
      "Message('note_on', channel=0, note=69, velocity=77, time=13)\n",
      "Message('note_on', channel=0, note=74, velocity=74, time=7)\n",
      "Message('note_on', channel=0, note=62, velocity=67, time=1)\n",
      "Message('control_change', channel=0, control=64, value=35, time=103)\n",
      "Message('control_change', channel=0, control=64, value=51, time=17)\n",
      "Message('control_change', channel=0, control=64, value=59, time=20)\n",
      "Message('control_change', channel=0, control=64, value=66, time=19)\n",
      "Message('control_change', channel=0, control=64, value=72, time=20)\n",
      "Message('control_change', channel=0, control=64, value=79, time=18)\n",
      "Message('control_change', channel=0, control=64, value=85, time=20)\n",
      "Message('note_on', channel=0, note=69, velocity=0, time=2)\n",
      "Message('control_change', channel=0, control=64, value=91, time=15)\n",
      "Message('note_on', channel=0, note=60, velocity=65, time=18)\n",
      "Message('control_change', channel=0, control=64, value=97, time=2)\n",
      "Message('note_on', channel=0, note=74, velocity=0, time=1)\n",
      "Message('note_on', channel=0, note=62, velocity=0, time=7)\n",
      "Message('control_change', channel=0, control=64, value=101, time=10)\n",
      "Message('note_on', channel=0, note=59, velocity=72, time=75)\n",
      "Message('note_on', channel=0, note=60, velocity=0, time=13)\n",
      "Message('control_change', channel=0, control=64, value=95, time=60)\n",
      "Message('control_change', channel=0, control=64, value=90, time=18)\n",
      "Message('control_change', channel=0, control=64, value=84, time=21)\n",
      "Message('note_on', channel=0, note=57, velocity=78, time=9)\n",
      "Message('note_on', channel=0, note=59, velocity=0, time=0)\n",
      "Message('control_change', channel=0, control=64, value=78, time=8)\n",
      "Message('control_change', channel=0, control=64, value=73, time=19)\n",
      "Message('control_change', channel=0, control=64, value=69, time=20)\n",
      "Message('note_on', channel=0, note=57, velocity=0, time=12)\n",
      "Message('control_change', channel=0, control=64, value=66, time=8)\n",
      "Message('control_change', channel=0, control=64, value=61, time=18)\n",
      "Message('control_change', channel=0, control=64, value=53, time=18)\n",
      "Message('note_on', channel=0, note=55, velocity=74, time=12)\n",
      "Message('control_change', channel=0, control=64, value=45, time=8)\n",
      "Message('control_change', channel=0, control=64, value=41, time=19)\n",
      "Message('control_change', channel=0, control=64, value=32, time=56)\n",
      "Message('control_change', channel=0, control=64, value=13, time=18)\n",
      "Message('note_on', channel=0, note=55, velocity=0, time=4)\n",
      "Message('note_on', channel=0, note=54, velocity=74, time=4)\n",
      "Message('note_on', channel=0, note=78, velocity=0, time=1)\n",
      "Message('note_on', channel=0, note=74, velocity=80, time=8)\n",
      "Message('control_change', channel=0, control=64, value=0, time=4)\n",
      "Message('note_on', channel=0, note=54, velocity=0, time=77)\n",
      "Message('note_on', channel=0, note=74, velocity=0, time=5)\n",
      "Message('note_on', channel=0, note=76, velocity=78, time=11)\n",
      "Message('note_on', channel=0, note=52, velocity=73, time=4)\n",
      "Message('note_on', channel=0, note=52, velocity=0, time=84)\n",
      "Message('note_on', channel=0, note=50, velocity=78, time=15)\n",
      "Message('note_on', channel=0, note=78, velocity=82, time=8)\n",
      "Message('note_on', channel=0, note=76, velocity=0, time=31)\n",
      "Message('note_on', channel=0, note=50, velocity=0, time=33)\n",
      "Message('note_on', channel=0, note=78, velocity=0, time=26)\n",
      "Message('note_on', channel=0, note=79, velocity=82, time=17)\n",
      "Message('note_on', channel=0, note=57, velocity=70, time=6)\n",
      "Message('note_on', channel=0, note=57, velocity=0, time=85)\n",
      "Message('note_on', channel=0, note=48, velocity=77, time=25)\n",
      "Message('note_on', channel=0, note=81, velocity=81, time=4)\n",
      "Message('note_on', channel=0, note=79, velocity=0, time=19)\n",
      "Message('note_on', channel=0, note=48, velocity=0, time=45)\n",
      "Message('note_on', channel=0, note=81, velocity=0, time=24)\n",
      "Message('note_on', channel=0, note=78, velocity=82, time=14)\n",
      "Message('note_on', channel=0, note=57, velocity=78, time=19)\n",
      "Message('note_on', channel=0, note=57, velocity=0, time=69)\n",
      "Message('note_on', channel=0, note=78, velocity=0, time=33)\n",
      "Message('note_on', channel=0, note=79, velocity=82, time=4)\n",
      "Message('note_on', channel=0, note=47, velocity=88, time=9)\n",
      "Message('note_on', channel=0, note=47, velocity=0, time=48)\n",
      "Message('note_on', channel=0, note=50, velocity=63, time=200)\n",
      "Message('control_change', channel=0, control=67, value=83, time=4)\n",
      "Message('note_on', channel=0, note=78, velocity=71, time=6)\n",
      "Message('note_on', channel=0, note=79, velocity=0, time=10)\n",
      "Message('note_on', channel=0, note=50, velocity=0, time=17)\n",
      "Message('control_change', channel=0, control=67, value=79, time=60)\n",
      "Message('note_on', channel=0, note=76, velocity=76, time=2)\n",
      "Message('note_on', channel=0, note=78, velocity=0, time=31)\n",
      "Message('note_on', channel=0, note=76, velocity=0, time=77)\n",
      "Message('note_on', channel=0, note=74, velocity=84, time=2)\n",
      "Message('note_on', channel=0, note=55, velocity=71, time=4)\n",
      "Message('note_on', channel=0, note=55, velocity=0, time=33)\n",
      "Message('note_on', channel=0, note=74, velocity=0, time=30)\n",
      "Message('note_on', channel=0, note=72, velocity=74, time=50)\n",
      "Message('note_on', channel=0, note=72, velocity=0, time=75)\n",
      "Message('note_on', channel=0, note=57, velocity=68, time=20)\n",
      "Message('note_on', channel=0, note=71, velocity=81, time=8)\n",
      "Message('note_on', channel=0, note=57, velocity=0, time=40)\n",
      "Message('note_on', channel=0, note=71, velocity=0, time=44)\n",
      "Message('note_on', channel=0, note=69, velocity=82, time=20)\n",
      "Message('note_on', channel=0, note=69, velocity=0, time=78)\n",
      "Message('note_on', channel=0, note=59, velocity=73, time=28)\n",
      "Message('note_on', channel=0, note=67, velocity=80, time=9)\n",
      "Message('note_on', channel=0, note=59, velocity=0, time=49)\n",
      "Message('note_on', channel=0, note=67, velocity=0, time=54)\n",
      "Message('note_on', channel=0, note=71, velocity=80, time=12)\n",
      "Message('note_on', channel=0, note=71, velocity=0, time=109)\n",
      "Message('note_on', channel=0, note=55, velocity=68, time=2)\n",
      "Message('note_on', channel=0, note=74, velocity=76, time=4)\n",
      "Message('note_on', channel=0, note=55, velocity=0, time=48)\n",
      "Message('note_on', channel=0, note=74, velocity=0, time=64)\n",
      "Message('note_on', channel=0, note=77, velocity=75, time=2)\n",
      "Message('note_on', channel=0, note=77, velocity=0, time=98)\n",
      "Message('note_on', channel=0, note=76, velocity=72, time=13)\n",
      "Message('note_on', channel=0, note=60, velocity=53, time=11)\n",
      "Message('note_on', channel=0, note=62, velocity=49, time=15)\n",
      "Message('note_on', channel=0, note=60, velocity=0, time=25)\n",
      "Message('note_on', channel=0, note=62, velocity=0, time=10)\n",
      "Message('note_on', channel=0, note=74, velocity=66, time=58)\n",
      "Message('note_on', channel=0, note=76, velocity=0, time=9)\n",
      "Message('note_on', channel=0, note=74, velocity=0, time=87)\n",
      "Message('note_on', channel=0, note=72, velocity=69, time=3)\n",
      "Message('note_on', channel=0, note=64, velocity=63, time=9)\n",
      "Message('note_on', channel=0, note=64, velocity=0, time=41)\n",
      "Message('note_on', channel=0, note=72, velocity=0, time=26)\n",
      "Message('note_on', channel=0, note=71, velocity=71, time=25)\n",
      "Message('note_on', channel=0, note=71, velocity=0, time=81)\n",
      "Message('note_on', channel=0, note=69, velocity=78, time=33)\n",
      "Message('note_on', channel=0, note=60, velocity=70, time=4)\n",
      "Message('note_on', channel=0, note=60, velocity=0, time=42)\n",
      "Message('note_on', channel=0, note=69, velocity=0, time=25)\n",
      "Message('note_on', channel=0, note=78, velocity=81, time=53)\n",
      "Message('note_on', channel=0, note=78, velocity=0, time=84)\n",
      "Message('note_on', channel=0, note=79, velocity=86, time=22)\n",
      "Message('control_change', channel=0, control=64, value=9, time=4)\n",
      "Message('note_on', channel=0, note=59, velocity=74, time=10)\n",
      "Message('note_on', channel=0, note=59, velocity=0, time=30)\n",
      "Message('note_on', channel=0, note=81, velocity=85, time=67)\n",
      "Message('note_on', channel=0, note=79, velocity=0, time=7)\n",
      "Message('note_on', channel=0, note=60, velocity=78, time=108)\n",
      "Message('note_on', channel=0, note=79, velocity=82, time=3)\n",
      "Message('note_on', channel=0, note=81, velocity=0, time=2)\n",
      "Message('note_on', channel=0, note=60, velocity=0, time=29)\n",
      "Message('note_on', channel=0, note=79, velocity=0, time=69)\n",
      "Message('note_on', channel=0, note=78, velocity=77, time=1)\n",
      "Message('note_on', channel=0, note=78, velocity=0, time=90)\n",
      "Message('note_on', channel=0, note=79, velocity=78, time=17)\n",
      "Message('note_on', channel=0, note=57, velocity=67, time=3)\n",
      "Message('note_on', channel=0, note=57, velocity=0, time=36)\n",
      "Message('note_on', channel=0, note=79, velocity=0, time=40)\n",
      "Message('note_on', channel=0, note=76, velocity=77, time=17)\n",
      "Message('note_on', channel=0, note=76, velocity=0, time=51)\n",
      "Message('control_change', channel=0, control=64, value=18, time=5)\n",
      "Message('note_on', channel=0, note=75, velocity=82, time=56)\n",
      "Message('control_change', channel=0, control=64, value=11, time=2)\n",
      "Message('note_on', channel=0, note=59, velocity=68, time=15)\n",
      "Message('control_change', channel=0, control=64, value=0, time=3)\n",
      "Message('note_on', channel=0, note=75, velocity=0, time=5)\n",
      "Message('note_on', channel=0, note=59, velocity=0, time=220)\n",
      "Message('note_on', channel=0, note=57, velocity=60, time=16)\n",
      "Message('note_on', channel=0, note=71, velocity=73, time=5)\n",
      "Message('note_on', channel=0, note=71, velocity=0, time=29)\n",
      "Message('note_on', channel=0, note=55, velocity=61, time=73)\n",
      "Message('note_on', channel=0, note=57, velocity=0, time=12)\n",
      "Message('note_on', channel=0, note=54, velocity=70, time=88)\n",
      "Message('note_on', channel=0, note=55, velocity=0, time=1)\n",
      "Message('note_on', channel=0, note=54, velocity=0, time=66)\n",
      "Message('note_on', channel=0, note=52, velocity=61, time=65)\n",
      "Message('note_on', channel=0, note=52, velocity=0, time=64)\n",
      "Message('note_on', channel=0, note=51, velocity=73, time=36)\n",
      "Message('note_on', channel=0, note=83, velocity=80, time=0)\n",
      "Message('note_on', channel=0, note=51, velocity=0, time=99)\n",
      "Message('note_on', channel=0, note=49, velocity=68, time=5)\n",
      "Message('note_on', channel=0, note=81, velocity=81, time=11)\n",
      "Message('note_on', channel=0, note=83, velocity=0, time=2)\n",
      "Message('note_on', channel=0, note=49, velocity=0, time=41)\n",
      "Message('note_on', channel=0, note=47, velocity=72, time=33)\n",
      "Message('note_on', channel=0, note=79, velocity=80, time=37)\n",
      "Message('note_on', channel=0, note=81, velocity=0, time=26)\n",
      "Message('note_on', channel=0, note=47, velocity=0, time=23)\n",
      "Message('note_on', channel=0, note=79, velocity=0, time=39)\n",
      "Message('note_on', channel=0, note=54, velocity=74, time=4)\n",
      "Message('note_on', channel=0, note=78, velocity=77, time=11)\n",
      "Message('control_change', channel=0, control=67, value=75, time=4)\n",
      "Message('note_on', channel=0, note=54, velocity=0, time=49)\n",
      "Message('note_on', channel=0, note=78, velocity=0, time=20)\n",
      "Message('note_on', channel=0, note=45, velocity=79, time=19)\n",
      "Message('note_on', channel=0, note=76, velocity=80, time=5)\n",
      "Message('note_on', channel=0, note=45, velocity=0, time=57)\n",
      "Message('note_on', channel=0, note=54, velocity=74, time=49)\n",
      "Message('note_on', channel=0, note=76, velocity=0, time=1)\n",
      "Message('note_on', channel=0, note=75, velocity=78, time=11)\n",
      "Message('control_change', channel=0, control=64, value=9, time=32)\n",
      "Message('note_on', channel=0, note=75, velocity=0, time=15)\n",
      "Message('note_on', channel=0, note=54, velocity=0, time=2)\n",
      "Message('control_change', channel=0, control=64, value=0, time=37)\n",
      "Message('note_on', channel=0, note=41, velocity=66, time=8)\n",
      "Message('note_on', channel=0, note=43, velocity=68, time=14)\n",
      "Message('note_on', channel=0, note=76, velocity=86, time=3)\n",
      "Message('note_on', channel=0, note=76, velocity=0, time=27)\n",
      "Message('note_on', channel=0, note=43, velocity=0, time=1)\n",
      "Message('note_on', channel=0, note=41, velocity=0, time=7)\n",
      "Message('note_on', channel=0, note=45, velocity=70, time=73)\n",
      "Message('note_on', channel=0, note=43, velocity=65, time=14)\n",
      "Message('control_change', channel=0, control=67, value=80, time=25)\n",
      "Message('note_on', channel=0, note=43, velocity=0, time=9)\n",
      "Message('note_on', channel=0, note=42, velocity=77, time=62)\n",
      "Message('note_on', channel=0, note=78, velocity=80, time=17)\n",
      "Message('note_on', channel=0, note=45, velocity=0, time=1)\n",
      "Message('note_on', channel=0, note=42, velocity=0, time=44)\n",
      "Message('note_on', channel=0, note=75, velocity=83, time=48)\n",
      "Message('note_on', channel=0, note=45, velocity=63, time=2)\n",
      "Message('note_on', channel=0, note=78, velocity=0, time=18)\n",
      "Message('note_on', channel=0, note=75, velocity=0, time=44)\n",
      "Message('note_on', channel=0, note=45, velocity=0, time=24)\n",
      "Message('note_on', channel=0, note=43, velocity=81, time=8)\n",
      "Message('control_change', channel=0, control=67, value=84, time=4)\n",
      "Message('note_on', channel=0, note=76, velocity=87, time=8)\n",
      "Message('control_change', channel=0, control=64, value=50, time=31)\n",
      "Message('note_on', channel=0, note=76, velocity=0, time=6)\n",
      "Message('control_change', channel=0, control=64, value=39, time=12)\n",
      "Message('note_on', channel=0, note=43, velocity=0, time=5)\n",
      "Message('control_change', channel=0, control=64, value=0, time=16)\n",
      "Message('note_on', channel=0, note=45, velocity=73, time=47)\n",
      "Message('note_on', channel=0, note=45, velocity=0, time=88)\n",
      "Message('note_on', channel=0, note=42, velocity=72, time=15)\n",
      "Message('note_on', channel=0, note=78, velocity=83, time=15)\n",
      "Message('note_on', channel=0, note=42, velocity=0, time=55)\n",
      "Message('note_on', channel=0, note=45, velocity=71, time=61)\n",
      "Message('note_on', channel=0, note=75, velocity=84, time=1)\n",
      "Message('note_on', channel=0, note=78, velocity=0, time=4)\n",
      "Message('note_on', channel=0, note=75, velocity=0, time=67)\n",
      "Message('note_on', channel=0, note=45, velocity=0, time=22)\n",
      "Message('note_on', channel=0, note=43, velocity=71, time=12)\n",
      "Message('note_on', channel=0, note=76, velocity=85, time=3)\n",
      "Message('note_on', channel=0, note=43, velocity=0, time=54)\n",
      "Message('note_on', channel=0, note=47, velocity=67, time=69)\n",
      "Message('note_on', channel=0, note=71, velocity=73, time=102)\n",
      "Message('note_on', channel=0, note=40, velocity=67, time=2)\n",
      "Message('note_on', channel=0, note=47, velocity=0, time=4)\n",
      "Message('note_on', channel=0, note=71, velocity=0, time=21)\n",
      "Message('note_on', channel=0, note=40, velocity=0, time=63)\n",
      "Message('note_on', channel=0, note=43, velocity=68, time=21)\n",
      "Message('note_on', channel=0, note=43, velocity=0, time=111)\n",
      "Message('note_on', channel=0, note=45, velocity=72, time=4)\n",
      "Message('note_on', channel=0, note=72, velocity=80, time=1)\n",
      "Message('note_on', channel=0, note=72, velocity=0, time=31)\n",
      "Message('note_on', channel=0, note=45, velocity=0, time=18)\n",
      "Message('note_on', channel=0, note=47, velocity=64, time=59)\n",
      "Message('note_on', channel=0, note=47, velocity=0, time=99)\n",
      "Message('note_on', channel=0, note=74, velocity=77, time=16)\n",
      "Message('note_on', channel=0, note=43, velocity=67, time=2)\n",
      "Message('note_on', channel=0, note=43, velocity=0, time=59)\n",
      "Message('note_on', channel=0, note=74, velocity=0, time=33)\n",
      "Message('note_on', channel=0, note=71, velocity=78, time=4)\n",
      "Message('note_on', channel=0, note=47, velocity=68, time=22)\n",
      "Message('note_on', channel=0, note=71, velocity=0, time=33)\n",
      "Message('note_on', channel=0, note=72, velocity=82, time=58)\n",
      "Message('note_on', channel=0, note=47, velocity=0, time=1)\n",
      "Message('note_on', channel=0, note=45, velocity=72, time=15)\n",
      "Message('note_on', channel=0, note=72, velocity=0, time=18)\n",
      "Message('note_on', channel=0, note=45, velocity=0, time=33)\n",
      "Message('note_on', channel=0, note=47, velocity=65, time=57)\n",
      "Message('note_on', channel=0, note=74, velocity=76, time=101)\n",
      "Message('note_on', channel=0, note=47, velocity=0, time=6)\n",
      "Message('note_on', channel=0, note=43, velocity=69, time=6)\n",
      "Message('note_on', channel=0, note=43, velocity=0, time=64)\n",
      "Message('note_on', channel=0, note=71, velocity=81, time=14)\n",
      "Message('note_on', channel=0, note=76, velocity=0, time=20)\n",
      "Message('note_on', channel=0, note=74, velocity=0, time=5)\n",
      "Message('note_on', channel=0, note=47, velocity=68, time=1)\n",
      "Message('control_change', channel=0, control=64, value=15, time=35)\n",
      "Message('note_on', channel=0, note=71, velocity=0, time=7)\n",
      "Message('control_change', channel=0, control=64, value=0, time=12)\n",
      "Message('note_on', channel=0, note=47, velocity=0, time=23)\n",
      "Message('note_on', channel=0, note=72, velocity=86, time=3)\n",
      "Message('note_on', channel=0, note=45, velocity=80, time=19)\n",
      "Message('note_on', channel=0, note=72, velocity=0, time=12)\n",
      "Message('note_on', channel=0, note=45, velocity=0, time=52)\n",
      "Message('note_on', channel=0, note=48, velocity=73, time=44)\n",
      "Message('note_on', channel=0, note=42, velocity=82, time=91)\n",
      "Message('note_on', channel=0, note=48, velocity=0, time=1)\n",
      "Message('note_on', channel=0, note=81, velocity=88, time=2)\n",
      "Message('note_on', channel=0, note=72, velocity=82, time=3)\n",
      "Message('note_on', channel=0, note=72, velocity=0, time=25)\n",
      "Message('note_on', channel=0, note=81, velocity=0, time=3)\n",
      "Message('note_on', channel=0, note=45, velocity=78, time=78)\n",
      "Message('note_on', channel=0, note=42, velocity=0, time=34)\n",
      "Message('note_on', channel=0, note=45, velocity=0, time=52)\n",
      "Message('control_change', channel=0, control=64, value=25, time=30)\n",
      "Message('note_on', channel=0, note=71, velocity=85, time=3)\n",
      "Message('note_on', channel=0, note=47, velocity=80, time=1)\n",
      "Message('note_on', channel=0, note=79, velocity=82, time=0)\n",
      "Message('control_change', channel=0, control=64, value=44, time=30)\n",
      "Message('control_change', channel=0, control=67, value=88, time=1)\n",
      "Message('note_on', channel=0, note=71, velocity=0, time=6)\n",
      "Message('note_on', channel=0, note=79, velocity=0, time=7)\n",
      "Message('control_change', channel=0, control=64, value=0, time=6)\n",
      "Message('note_on', channel=0, note=49, velocity=74, time=188)\n",
      "Message('note_on', channel=0, note=47, velocity=0, time=9)\n",
      "Message('note_on', channel=0, note=78, velocity=83, time=2)\n",
      "Message('note_on', channel=0, note=69, velocity=77, time=9)\n",
      "Message('note_on', channel=0, note=69, velocity=0, time=54)\n",
      "Message('note_on', channel=0, note=51, velocity=76, time=33)\n",
      "Message('note_on', channel=0, note=49, velocity=0, time=16)\n",
      "Message('control_change', channel=0, control=67, value=81, time=8)\n",
      "Message('control_change', channel=0, control=67, value=71, time=20)\n",
      "Message('control_change', channel=0, control=67, value=66, time=19)\n",
      "Message('control_change', channel=0, control=67, value=70, time=17)\n",
      "Message('note_on', channel=0, note=51, velocity=0, time=1)\n",
      "Message('note_on', channel=0, note=52, velocity=78, time=35)\n",
      "Message('note_on', channel=0, note=67, velocity=81, time=12)\n",
      "Message('control_change', channel=0, control=67, value=64, time=8)\n",
      "Message('control_change', channel=0, control=67, value=55, time=21)\n",
      "Message('control_change', channel=0, control=67, value=43, time=21)\n",
      "Message('note_on', channel=0, note=54, velocity=70, time=53)\n",
      "Message('note_on', channel=0, note=52, velocity=0, time=7)\n",
      "Message('control_change', channel=0, control=67, value=34, time=51)\n",
      "Message('note_on', channel=0, note=67, velocity=0, time=20)\n",
      "Message('note_on', channel=0, note=55, velocity=75, time=5)\n",
      "Message('note_on', channel=0, note=76, velocity=80, time=25)\n",
      "Message('note_on', channel=0, note=78, velocity=0, time=5)\n",
      "Message('note_on', channel=0, note=54, velocity=0, time=4)\n",
      "Message('control_change', channel=0, control=67, value=28, time=54)\n",
      "Message('note_on', channel=0, note=57, velocity=82, time=19)\n",
      "Message('note_on', channel=0, note=55, velocity=0, time=6)\n",
      "Message('note_on', channel=0, note=57, velocity=0, time=83)\n",
      "Message('control_change', channel=0, control=67, value=23, time=7)\n",
      "Message('note_on', channel=0, note=76, velocity=0, time=21)\n",
      "Message('note_on', channel=0, note=59, velocity=85, time=3)\n",
      "Message('note_on', channel=0, note=66, velocity=80, time=14)\n",
      "Message('note_on', channel=0, note=59, velocity=0, time=34)\n",
      "Message('note_on', channel=0, note=66, velocity=0, time=75)\n",
      "Message('note_on', channel=0, note=69, velocity=73, time=11)\n",
      "Message('control_change', channel=0, control=67, value=27, time=44)\n",
      "Message('note_on', channel=0, note=69, velocity=0, time=54)\n",
      "Message('note_on', channel=0, note=47, velocity=77, time=4)\n",
      "Message('note_on', channel=0, note=76, velocity=79, time=9)\n",
      "Message('note_on', channel=0, note=47, velocity=0, time=28)\n",
      "Message('note_on', channel=0, note=76, velocity=0, time=80)\n",
      "Message('note_on', channel=0, note=75, velocity=77, time=2)\n",
      "Message('control_change', channel=0, control=67, value=31, time=69)\n",
      "Message('note_on', channel=0, note=73, velocity=26, time=29)\n",
      "Message('note_on', channel=0, note=73, velocity=0, time=1)\n",
      "Message('note_on', channel=0, note=52, velocity=66, time=2)\n",
      "Message('control_change', channel=0, control=67, value=36, time=7)\n",
      "Message('note_on', channel=0, note=76, velocity=76, time=19)\n",
      "Message('note_on', channel=0, note=75, velocity=0, time=9)\n",
      "Message('note_on', channel=0, note=52, velocity=0, time=193)\n",
      "Message('note_on', channel=0, note=54, velocity=60, time=5)\n",
      "Message('note_on', channel=0, note=72, velocity=71, time=17)\n",
      "Message('note_on', channel=0, note=72, velocity=0, time=46)\n",
      "Message('note_on', channel=0, note=54, velocity=0, time=42)\n",
      "Message('note_on', channel=0, note=55, velocity=57, time=2)\n",
      "Message('note_on', channel=0, note=55, velocity=0, time=90)\n",
      "Message('note_on', channel=0, note=57, velocity=70, time=12)\n",
      "Message('note_on', channel=0, note=71, velocity=69, time=28)\n",
      "Message('note_on', channel=0, note=57, velocity=0, time=22)\n",
      "Message('note_on', channel=0, note=71, velocity=0, time=9)\n",
      "Message('note_on', channel=0, note=59, velocity=71, time=59)\n",
      "Message('note_on', channel=0, note=59, velocity=0, time=111)\n",
      "Message('note_on', channel=0, note=61, velocity=68, time=7)\n",
      "Message('note_on', channel=0, note=69, velocity=68, time=2)\n",
      "Message('note_on', channel=0, note=69, velocity=0, time=32)\n",
      "Message('note_on', channel=0, note=63, velocity=72, time=72)\n",
      "Message('note_on', channel=0, note=61, velocity=0, time=4)\n",
      "Message('note_on', channel=0, note=63, velocity=0, time=68)\n",
      "Message('note_on', channel=0, note=64, velocity=71, time=41)\n",
      "Message('note_on', channel=0, note=76, velocity=0, time=4)\n",
      "Message('note_on', channel=0, note=67, velocity=77, time=4)\n",
      "Message('control_change', channel=0, control=67, value=32, time=22)\n",
      "Message('note_on', channel=0, note=67, velocity=0, time=5)\n",
      "Message('note_on', channel=0, note=64, velocity=0, time=43)\n",
      "Message('note_on', channel=0, note=61, velocity=71, time=31)\n",
      "Message('note_on', channel=0, note=61, velocity=0, time=81)\n",
      "Message('control_change', channel=0, control=67, value=36, time=30)\n",
      "Message('note_on', channel=0, note=62, velocity=80, time=0)\n",
      "Message('note_on', channel=0, note=76, velocity=85, time=9)\n",
      "Message('note_on', channel=0, note=76, velocity=0, time=29)\n",
      "Message('note_on', channel=0, note=62, velocity=0, time=50)\n",
      "Message('note_on', channel=0, note=59, velocity=77, time=19)\n",
      "Message('note_on', channel=0, note=61, velocity=79, time=125)\n",
      "Message('note_on', channel=0, note=69, velocity=85, time=8)\n",
      "Message('control_change', channel=0, control=67, value=32, time=2)\n",
      "Message('note_on', channel=0, note=59, velocity=0, time=2)\n",
      "Message('control_change', channel=0, control=67, value=36, time=37)\n",
      "Message('note_on', channel=0, note=61, velocity=0, time=22)\n",
      "Message('note_on', channel=0, note=62, velocity=71, time=41)\n",
      "Message('control_change', channel=0, control=67, value=32, time=31)\n",
      "Message('control_change', channel=0, control=67, value=36, time=39)\n",
      "Message('note_on', channel=0, note=62, velocity=0, time=9)\n",
      "Message('note_on', channel=0, note=61, velocity=72, time=56)\n",
      "Message('note_on', channel=0, note=69, velocity=0, time=2)\n",
      "Message('note_on', channel=0, note=71, velocity=68, time=14)\n",
      "Message('note_on', channel=0, note=61, velocity=0, time=63)\n",
      "Message('note_on', channel=0, note=73, velocity=74, time=36)\n",
      "Message('note_on', channel=0, note=71, velocity=0, time=6)\n",
      "Message('note_on', channel=0, note=59, velocity=68, time=4)\n",
      "Message('note_on', channel=0, note=73, velocity=0, time=67)\n",
      "Message('note_on', channel=0, note=59, velocity=0, time=19)\n",
      "Message('note_on', channel=0, note=57, velocity=73, time=8)\n",
      "Message('note_on', channel=0, note=74, velocity=76, time=9)\n",
      "Message('note_on', channel=0, note=74, velocity=0, time=88)\n",
      "Message('note_on', channel=0, note=57, velocity=0, time=6)\n",
      "Message('note_on', channel=0, note=55, velocity=70, time=5)\n",
      "Message('note_on', channel=0, note=76, velocity=71, time=6)\n",
      "Message('note_on', channel=0, note=55, velocity=0, time=95)\n",
      "Message('note_on', channel=0, note=54, velocity=77, time=4)\n",
      "Message('note_on', channel=0, note=78, velocity=77, time=8)\n",
      "Message('note_on', channel=0, note=76, velocity=0, time=9)\n",
      "Message('note_on', channel=0, note=54, velocity=0, time=72)\n",
      "Message('note_on', channel=0, note=78, velocity=0, time=6)\n",
      "Message('note_on', channel=0, note=79, velocity=79, time=18)\n",
      "Message('note_on', channel=0, note=52, velocity=75, time=5)\n",
      "Message('note_on', channel=0, note=54, velocity=75, time=111)\n",
      "Message('note_on', channel=0, note=81, velocity=76, time=0)\n",
      "Message('note_on', channel=0, note=79, velocity=0, time=3)\n",
      "Message('note_on', channel=0, note=52, velocity=0, time=23)\n",
      "Message('note_on', channel=0, note=81, velocity=0, time=49)\n",
      "Message('note_on', channel=0, note=54, velocity=0, time=2)\n",
      "Message('note_on', channel=0, note=78, velocity=77, time=23)\n",
      "Message('note_on', channel=0, note=62, velocity=78, time=11)\n",
      "Message('control_change', channel=0, control=67, value=42, time=47)\n",
      "Message('note_on', channel=0, note=78, velocity=0, time=52)\n",
      "Message('note_on', channel=0, note=79, velocity=78, time=3)\n",
      "Message('note_on', channel=0, note=52, velocity=70, time=12)\n",
      "Message('control_change', channel=0, control=67, value=37, time=8)\n",
      "Message('note_on', channel=0, note=62, velocity=0, time=3)\n",
      "Message('control_change', channel=0, control=67, value=43, time=67)\n",
      "Message('note_on', channel=0, note=79, velocity=0, time=28)\n",
      "Message('note_on', channel=0, note=76, velocity=75, time=5)\n",
      "Message('note_on', channel=0, note=61, velocity=72, time=2)\n",
      "Message('note_on', channel=0, note=52, velocity=0, time=7)\n",
      "Message('control_change', channel=0, control=67, value=39, time=54)\n",
      "Message('note_on', channel=0, note=76, velocity=0, time=3)\n",
      "Message('note_on', channel=0, note=61, velocity=0, time=8)\n",
      "Message('control_change', channel=0, control=67, value=43, time=25)\n",
      "Message('note_on', channel=0, note=62, velocity=78, time=13)\n",
      "Message('note_on', channel=0, note=78, velocity=79, time=3)\n",
      "Message('control_change', channel=0, control=67, value=37, time=79)\n",
      "Message('note_on', channel=0, note=79, velocity=78, time=31)\n",
      "Message('note_on', channel=0, note=78, velocity=0, time=4)\n",
      "Message('control_change', channel=0, control=67, value=42, time=23)\n",
      "Message('control_change', channel=0, control=67, value=36, time=74)\n",
      "Message('note_on', channel=0, note=50, velocity=77, time=5)\n",
      "Message('note_on', channel=0, note=62, velocity=0, time=12)\n",
      "Message('note_on', channel=0, note=78, velocity=83, time=0)\n",
      "Message('note_on', channel=0, note=79, velocity=0, time=20)\n",
      "Message('control_change', channel=0, control=67, value=41, time=20)\n",
      "Message('note_on', channel=0, note=50, velocity=0, time=48)\n",
      "Message('note_on', channel=0, note=52, velocity=75, time=4)\n",
      "Message('note_on', channel=0, note=76, velocity=86, time=3)\n",
      "Message('control_change', channel=0, control=67, value=36, time=20)\n",
      "Message('note_on', channel=0, note=78, velocity=0, time=7)\n",
      "Message('control_change', channel=0, control=67, value=41, time=52)\n",
      "Message('note_on', channel=0, note=76, velocity=0, time=3)\n",
      "Message('note_on', channel=0, note=54, velocity=68, time=29)\n",
      "Message('note_on', channel=0, note=74, velocity=87, time=5)\n",
      "Message('note_on', channel=0, note=52, velocity=0, time=21)\n",
      "Message('control_change', channel=0, control=67, value=37, time=16)\n",
      "Message('note_on', channel=0, note=74, velocity=0, time=55)\n",
      "Message('control_change', channel=0, control=67, value=41, time=2)\n",
      "Message('note_on', channel=0, note=55, velocity=75, time=8)\n",
      "Message('note_on', channel=0, note=76, velocity=83, time=6)\n",
      "Message('note_on', channel=0, note=54, velocity=0, time=7)\n",
      "Message('note_on', channel=0, note=55, velocity=0, time=59)\n",
      "Message('control_change', channel=0, control=67, value=37, time=14)\n",
      "Message('note_on', channel=0, note=78, velocity=84, time=18)\n",
      "Message('note_on', channel=0, note=76, velocity=0, time=3)\n",
      "Message('note_on', channel=0, note=57, velocity=75, time=5)\n",
      "Message('control_change', channel=0, control=67, value=41, time=30)\n",
      "Message('note_on', channel=0, note=78, velocity=0, time=37)\n",
      "Message('note_on', channel=0, note=79, velocity=83, time=28)\n",
      "Message('note_on', channel=0, note=57, velocity=0, time=3)\n",
      "Message('control_change', channel=0, control=67, value=37, time=8)\n",
      "Message('note_on', channel=0, note=59, velocity=77, time=21)\n",
      "Message('note_on', channel=0, note=79, velocity=0, time=67)\n",
      "Message('note_on', channel=0, note=81, velocity=83, time=27)\n",
      "Message('note_on', channel=0, note=60, velocity=72, time=18)\n",
      "Message('note_on', channel=0, note=59, velocity=0, time=16)\n",
      "Message('note_on', channel=0, note=83, velocity=85, time=71)\n",
      "Message('note_on', channel=0, note=62, velocity=84, time=7)\n",
      "Message('note_on', channel=0, note=60, velocity=0, time=11)\n",
      "Message('note_on', channel=0, note=81, velocity=0, time=7)\n",
      "Message('note_on', channel=0, note=62, velocity=0, time=47)\n",
      "Message('note_on', channel=0, note=84, velocity=86, time=36)\n",
      "Message('note_on', channel=0, note=83, velocity=0, time=5)\n",
      "Message('note_on', channel=0, note=64, velocity=76, time=1)\n",
      "Message('note_on', channel=0, note=64, velocity=0, time=87)\n",
      "Message('note_on', channel=0, note=81, velocity=85, time=17)\n",
      "Message('note_on', channel=0, note=84, velocity=0, time=1)\n",
      "Message('note_on', channel=0, note=66, velocity=80, time=2)\n",
      "Message('control_change', channel=0, control=67, value=41, time=65)\n",
      "Message('note_on', channel=0, note=81, velocity=0, time=3)\n",
      "Message('note_on', channel=0, note=66, velocity=0, time=9)\n",
      "Message('note_on', channel=0, note=83, velocity=82, time=25)\n",
      "Message('note_on', channel=0, note=67, velocity=92, time=1)\n",
      "Message('control_change', channel=0, control=67, value=36, time=37)\n",
      "Message('note_on', channel=0, note=67, velocity=0, time=2)\n",
      "Message('note_on', channel=0, note=83, velocity=0, time=33)\n",
      "Message('control_change', channel=0, control=67, value=41, time=24)\n",
      "Message('note_on', channel=0, note=78, velocity=75, time=21)\n",
      "Message('note_on', channel=0, note=78, velocity=0, time=84)\n",
      "Message('note_on', channel=0, note=79, velocity=79, time=25)\n",
      "Message('note_on', channel=0, note=59, velocity=82, time=2)\n",
      "Message('note_on', channel=0, note=59, velocity=0, time=45)\n",
      "Message('note_on', channel=0, note=79, velocity=0, time=24)\n",
      "Message('note_on', channel=0, note=74, velocity=74, time=40)\n",
      "Message('note_on', channel=0, note=74, velocity=0, time=51)\n",
      "Message('note_on', channel=0, note=76, velocity=79, time=81)\n",
      "Message('note_on', channel=0, note=60, velocity=82, time=8)\n",
      "Message('note_on', channel=0, note=60, velocity=0, time=39)\n",
      "Message('note_on', channel=0, note=76, velocity=0, time=1)\n",
      "Message('note_on', channel=0, note=71, velocity=73, time=56)\n",
      "Message('note_on', channel=0, note=71, velocity=0, time=49)\n",
      "Message('note_on', channel=0, note=72, velocity=80, time=75)\n",
      "Message('note_on', channel=0, note=64, velocity=77, time=1)\n",
      "Message('note_on', channel=0, note=64, velocity=0, time=33)\n",
      "Message('note_on', channel=0, note=72, velocity=0, time=15)\n",
      "Message('note_on', channel=0, note=67, velocity=71, time=47)\n",
      "Message('note_on', channel=0, note=67, velocity=0, time=60)\n",
      "Message('note_on', channel=0, note=60, velocity=73, time=53)\n",
      "Message('note_on', channel=0, note=69, velocity=78, time=7)\n",
      "Message('note_on', channel=0, note=60, velocity=0, time=23)\n",
      "Message('note_on', channel=0, note=69, velocity=0, time=40)\n",
      "Message('note_on', channel=0, note=72, velocity=77, time=43)\n",
      "Message('note_on', channel=0, note=72, velocity=0, time=61)\n",
      "Message('note_on', channel=0, note=57, velocity=75, time=42)\n",
      "Message('note_on', channel=0, note=64, velocity=76, time=15)\n",
      "Message('note_on', channel=0, note=57, velocity=0, time=16)\n",
      "Message('note_on', channel=0, note=64, velocity=0, time=27)\n",
      "Message('note_on', channel=0, note=67, velocity=73, time=74)\n",
      "Message('note_on', channel=0, note=67, velocity=0, time=47)\n",
      "Message('control_change', channel=0, control=64, value=35, time=35)\n",
      "Message('control_change', channel=0, control=64, value=59, time=19)\n",
      "Message('note_on', channel=0, note=62, velocity=84, time=3)\n",
      "Message('note_on', channel=0, note=66, velocity=73, time=11)\n",
      "Message('control_change', channel=0, control=64, value=61, time=6)\n",
      "Message('control_change', channel=0, control=67, value=45, time=2)\n",
      "Message('note_on', channel=0, note=62, velocity=0, time=21)\n",
      "Message('control_change', channel=0, control=64, value=60, time=9)\n",
      "Message('note_on', channel=0, note=66, velocity=0, time=19)\n",
      "Message('control_change', channel=0, control=64, value=61, time=38)\n",
      "Message('control_change', channel=0, control=64, value=60, time=20)\n",
      "Message('note_on', channel=0, note=69, velocity=76, time=3)\n",
      "Message('control_change', channel=0, control=64, value=55, time=16)\n",
      "Message('control_change', channel=0, control=67, value=41, time=1)\n",
      "Message('control_change', channel=0, control=64, value=50, time=17)\n",
      "Message('note_on', channel=0, note=69, velocity=0, time=19)\n",
      "Message('control_change', channel=0, control=67, value=46, time=2)\n",
      "Message('control_change', channel=0, control=64, value=41, time=54)\n",
      "Message('note_on', channel=0, note=60, velocity=73, time=10)\n",
      "Message('note_on', channel=0, note=62, velocity=71, time=0)\n",
      "Message('control_change', channel=0, control=64, value=0, time=10)\n",
      "Message('control_change', channel=0, control=67, value=42, time=17)\n",
      "Message('note_on', channel=0, note=62, velocity=0, time=32)\n",
      "Message('control_change', channel=0, control=67, value=47, time=5)\n",
      "Message('note_on', channel=0, note=60, velocity=0, time=15)\n",
      "Message('note_on', channel=0, note=59, velocity=66, time=24)\n",
      "Message('note_on', channel=0, note=64, velocity=71, time=8)\n",
      "Message('note_on', channel=0, note=64, velocity=0, time=58)\n",
      "Message('note_on', channel=0, note=59, velocity=0, time=25)\n",
      "Message('note_on', channel=0, note=57, velocity=73, time=2)\n",
      "Message('note_on', channel=0, note=66, velocity=78, time=22)\n",
      "Message('control_change', channel=0, control=67, value=52, time=18)\n",
      "Message('note_on', channel=0, note=57, velocity=0, time=15)\n",
      "Message('note_on', channel=0, note=66, velocity=0, time=32)\n",
      "Message('control_change', channel=0, control=67, value=47, time=8)\n",
      "Message('note_on', channel=0, note=55, velocity=73, time=20)\n",
      "Message('note_on', channel=0, note=67, velocity=78, time=8)\n",
      "Message('control_change', channel=0, control=67, value=52, time=50)\n",
      "Message('note_on', channel=0, note=67, velocity=0, time=14)\n",
      "Message('note_on', channel=0, note=55, velocity=0, time=35)\n",
      "Message('control_change', channel=0, control=67, value=48, time=6)\n",
      "Message('note_on', channel=0, note=54, velocity=70, time=2)\n",
      "Message('note_on', channel=0, note=69, velocity=75, time=11)\n",
      "Message('note_on', channel=0, note=54, velocity=0, time=72)\n",
      "Message('note_on', channel=0, note=69, velocity=0, time=4)\n",
      "Message('note_on', channel=0, note=71, velocity=70, time=17)\n",
      "Message('note_on', channel=0, note=52, velocity=71, time=1)\n",
      "Message('note_on', channel=0, note=71, velocity=0, time=70)\n",
      "Message('note_on', channel=0, note=52, velocity=0, time=14)\n",
      "Message('note_on', channel=0, note=72, velocity=76, time=18)\n",
      "Message('note_on', channel=0, note=50, velocity=72, time=3)\n",
      "Message('note_on', channel=0, note=72, velocity=0, time=55)\n",
      "Message('note_on', channel=0, note=50, velocity=0, time=1)\n",
      "Message('note_on', channel=0, note=57, velocity=68, time=66)\n",
      "Message('note_on', channel=0, note=74, velocity=70, time=12)\n",
      "Message('note_on', channel=0, note=74, velocity=0, time=59)\n",
      "Message('note_on', channel=0, note=57, velocity=0, time=14)\n",
      "Message('note_on', channel=0, note=48, velocity=71, time=27)\n",
      "Message('note_on', channel=0, note=76, velocity=71, time=8)\n",
      "Message('note_on', channel=0, note=48, velocity=0, time=31)\n",
      "Message('note_on', channel=0, note=76, velocity=0, time=19)\n",
      "Message('control_change', channel=0, control=67, value=52, time=18)\n",
      "Message('note_on', channel=0, note=78, velocity=76, time=38)\n",
      "Message('note_on', channel=0, note=57, velocity=63, time=6)\n",
      "Message('control_change', channel=0, control=67, value=47, time=51)\n",
      "Message('note_on', channel=0, note=57, velocity=0, time=7)\n",
      "Message('note_on', channel=0, note=78, velocity=0, time=4)\n",
      "Message('control_change', channel=0, control=67, value=52, time=27)\n",
      "Message('note_on', channel=0, note=47, velocity=85, time=12)\n",
      "Message('note_on', channel=0, note=79, velocity=71, time=10)\n",
      "Message('control_change', channel=0, control=64, value=11, time=92)\n",
      "Message('note_on', channel=0, note=79, velocity=0, time=5)\n",
      "Message('note_on', channel=0, note=81, velocity=73, time=17)\n",
      "Message('control_change', channel=0, control=64, value=0, time=13)\n",
      "Message('note_on', channel=0, note=81, velocity=0, time=62)\n",
      "Message('control_change', channel=0, control=64, value=18, time=15)\n",
      "Message('note_on', channel=0, note=47, velocity=0, time=2)\n",
      "Message('control_change', channel=0, control=64, value=0, time=18)\n",
      "Message('note_on', channel=0, note=45, velocity=73, time=8)\n",
      "Message('note_on', channel=0, note=74, velocity=70, time=5)\n",
      "Message('note_on', channel=0, note=45, velocity=0, time=36)\n",
      "Message('control_change', channel=0, control=67, value=56, time=5)\n",
      "Message('note_on', channel=0, note=74, velocity=0, time=26)\n",
      "Message('note_on', channel=0, note=78, velocity=65, time=35)\n",
      "Message('control_change', channel=0, control=67, value=51, time=33)\n",
      "Message('note_on', channel=0, note=78, velocity=0, time=45)\n",
      "Message('control_change', channel=0, control=67, value=56, time=14)\n",
      "Message('note_on', channel=0, note=79, velocity=69, time=24)\n",
      "Message('note_on', channel=0, note=47, velocity=74, time=2)\n",
      "Message('note_on', channel=0, note=47, velocity=0, time=33)\n",
      "Message('control_change', channel=0, control=67, value=52, time=17)\n",
      "Message('note_on', channel=0, note=79, velocity=0, time=32)\n",
      "Message('note_on', channel=0, note=81, velocity=66, time=28)\n",
      "Message('control_change', channel=0, control=67, value=56, time=15)\n",
      "Message('note_on', channel=0, note=81, velocity=0, time=55)\n",
      "Message('control_change', channel=0, control=67, value=51, time=35)\n",
      "Message('note_on', channel=0, note=50, velocity=63, time=32)\n",
      "Message('note_on', channel=0, note=74, velocity=59, time=2)\n",
      "Message('control_change', channel=0, control=67, value=56, time=22)\n",
      "Message('note_on', channel=0, note=50, velocity=0, time=12)\n",
      "Message('note_on', channel=0, note=74, velocity=0, time=11)\n",
      "Message('control_change', channel=0, control=67, value=51, time=54)\n",
      "Message('note_on', channel=0, note=79, velocity=60, time=8)\n",
      "Message('note_on', channel=0, note=79, velocity=0, time=63)\n",
      "Message('control_change', channel=0, control=67, value=55, time=1)\n",
      "Message('note_on', channel=0, note=71, velocity=68, time=51)\n",
      "Message('note_on', channel=0, note=55, velocity=66, time=7)\n",
      "Message('control_change', channel=0, control=67, value=51, time=21)\n",
      "Message('note_on', channel=0, note=55, velocity=0, time=17)\n",
      "Message('note_on', channel=0, note=71, velocity=0, time=3)\n",
      "Message('control_change', channel=0, control=67, value=55, time=35)\n",
      "Message('note_on', channel=0, note=79, velocity=62, time=28)\n",
      "Message('control_change', channel=0, control=67, value=50, time=67)\n",
      "Message('control_change', channel=0, control=67, value=54, time=39)\n",
      "Message('note_on', channel=0, note=47, velocity=71, time=2)\n",
      "Message('note_on', channel=0, note=79, velocity=0, time=0)\n",
      "Message('note_on', channel=0, note=74, velocity=73, time=7)\n",
      "Message('note_on', channel=0, note=47, velocity=0, time=38)\n",
      "Message('note_on', channel=0, note=74, velocity=0, time=13)\n",
      "Message('control_change', channel=0, control=67, value=50, time=32)\n",
      "Message('note_on', channel=0, note=81, velocity=72, time=20)\n",
      "Message('control_change', channel=0, control=67, value=55, time=40)\n",
      "Message('note_on', channel=0, note=81, velocity=0, time=59)\n",
      "Message('control_change', channel=0, control=64, value=35, time=14)\n",
      "Message('control_change', channel=0, control=67, value=50, time=0)\n",
      "Message('note_on', channel=0, note=79, velocity=76, time=12)\n",
      "Message('control_change', channel=0, control=64, value=66, time=7)\n",
      "Message('note_on', channel=0, note=48, velocity=81, time=0)\n",
      "Message('control_change', channel=0, control=64, value=62, time=20)\n",
      "Message('control_change', channel=0, control=64, value=52, time=19)\n",
      "Message('control_change', channel=0, control=67, value=55, time=1)\n",
      "Message('control_change', channel=0, control=64, value=16, time=18)\n",
      "Message('control_change', channel=0, control=64, value=0, time=19)\n",
      "Message('note_on', channel=0, note=79, velocity=0, time=17)\n",
      "Message('note_on', channel=0, note=81, velocity=77, time=5)\n",
      "Message('control_change', channel=0, control=64, value=19, time=34)\n",
      "Message('control_change', channel=0, control=67, value=50, time=1)\n",
      "Message('control_change', channel=0, control=64, value=27, time=18)\n",
      "Message('control_change', channel=0, control=64, value=0, time=52)\n",
      "Message('control_change', channel=0, control=67, value=55, time=1)\n",
      "Message('note_on', channel=0, note=81, velocity=0, time=8)\n",
      "Message('note_on', channel=0, note=48, velocity=0, time=25)\n",
      "Message('note_on', channel=0, note=50, velocity=79, time=3)\n",
      "Message('note_on', channel=0, note=76, velocity=70, time=3)\n",
      "Message('note_on', channel=0, note=50, velocity=0, time=31)\n",
      "Message('control_change', channel=0, control=67, value=51, time=24)\n",
      "Message('note_on', channel=0, note=76, velocity=0, time=21)\n",
      "Message('control_change', channel=0, control=67, value=56, time=36)\n",
      "Message('note_on', channel=0, note=78, velocity=66, time=8)\n",
      "Message('note_on', channel=0, note=78, velocity=0, time=75)\n",
      "Message('note_on', channel=0, note=52, velocity=75, time=29)\n",
      "Message('note_on', channel=0, note=79, velocity=76, time=11)\n",
      "Message('note_on', channel=0, note=52, velocity=0, time=29)\n",
      "Message('note_on', channel=0, note=79, velocity=0, time=83)\n",
      "Message('note_on', channel=0, note=81, velocity=75, time=2)\n",
      "Message('note_on', channel=0, note=81, velocity=0, time=77)\n",
      "Message('note_on', channel=0, note=48, velocity=69, time=40)\n",
      "Message('note_on', channel=0, note=76, velocity=75, time=2)\n",
      "Message('note_on', channel=0, note=48, velocity=0, time=30)\n",
      "Message('note_on', channel=0, note=76, velocity=0, time=16)\n",
      "Message('note_on', channel=0, note=79, velocity=73, time=57)\n",
      "Message('control_change', channel=0, control=64, value=23, time=68)\n",
      "Message('control_change', channel=0, control=67, value=52, time=2)\n",
      "Message('note_on', channel=0, note=79, velocity=0, time=4)\n",
      "Message('control_change', channel=0, control=64, value=0, time=12)\n",
      "Message('note_on', channel=0, note=45, velocity=72, time=14)\n",
      "Message('note_on', channel=0, note=72, velocity=77, time=19)\n",
      "Message('control_change', channel=0, control=67, value=56, time=5)\n",
      "Message('note_on', channel=0, note=45, velocity=0, time=23)\n",
      "Message('note_on', channel=0, note=72, velocity=0, time=31)\n",
      "Message('note_on', channel=0, note=79, velocity=74, time=40)\n",
      "Message('control_change', channel=0, control=67, value=51, time=3)\n",
      "Message('control_change', channel=0, control=67, value=56, time=55)\n",
      "Message('note_on', channel=0, note=79, velocity=0, time=61)\n",
      "Message('note_on', channel=0, note=48, velocity=76, time=13)\n",
      "Message('note_on', channel=0, note=76, velocity=80, time=8)\n",
      "Message('note_on', channel=0, note=48, velocity=0, time=25)\n",
      "Message('control_change', channel=0, control=67, value=52, time=1)\n",
      "Message('note_on', channel=0, note=76, velocity=0, time=29)\n",
      "Message('control_change', channel=0, control=67, value=56, time=31)\n",
      "Message('note_on', channel=0, note=79, velocity=78, time=17)\n",
      "Message('control_change', channel=0, control=64, value=33, time=77)\n",
      "Message('control_change', channel=0, control=64, value=23, time=37)\n",
      "Message('note_on', channel=0, note=50, velocity=75, time=6)\n",
      "Message('note_on', channel=0, note=78, velocity=79, time=5)\n",
      "Message('note_on', channel=0, note=79, velocity=0, time=7)\n",
      "Message('control_change', channel=0, control=64, value=18, time=20)\n",
      "Message('control_change', channel=0, control=64, value=28, time=39)\n",
      "Message('note_on', channel=0, note=78, velocity=0, time=16)\n",
      "Message('control_change', channel=0, control=67, value=52, time=21)\n",
      "Message('note_on', channel=0, note=79, velocity=78, time=5)\n",
      "Message('control_change', channel=0, control=64, value=20, time=106)\n",
      "Message('note_on', channel=0, note=81, velocity=78, time=3)\n",
      "Message('note_on', channel=0, note=79, velocity=0, time=2)\n",
      "Message('note_on', channel=0, note=50, velocity=0, time=5)\n",
      "Message('note_on', channel=0, note=52, velocity=71, time=4)\n",
      "Message('control_change', channel=0, control=64, value=0, time=6)\n",
      "Message('note_on', channel=0, note=52, velocity=0, time=34)\n",
      "Message('control_change', channel=0, control=67, value=56, time=23)\n",
      "Message('note_on', channel=0, note=81, velocity=0, time=31)\n",
      "Message('note_on', channel=0, note=78, velocity=76, time=4)\n",
      "Message('note_on', channel=0, note=78, velocity=0, time=75)\n",
      "Message('note_on', channel=0, note=72, velocity=77, time=49)\n",
      "Message('note_on', channel=0, note=54, velocity=70, time=5)\n",
      "Message('note_on', channel=0, note=54, velocity=0, time=34)\n",
      "Message('note_on', channel=0, note=72, velocity=0, time=11)\n",
      "Message('note_on', channel=0, note=76, velocity=70, time=59)\n",
      "Message('note_on', channel=0, note=74, velocity=74, time=135)\n",
      "Message('note_on', channel=0, note=55, velocity=70, time=1)\n",
      "Message('note_on', channel=0, note=76, velocity=0, time=1)\n",
      "Message('note_on', channel=0, note=55, velocity=0, time=48)\n",
      "Message('note_on', channel=0, note=74, velocity=0, time=8)\n",
      "Message('note_on', channel=0, note=72, velocity=69, time=41)\n",
      "Message('note_on', channel=0, note=55, velocity=28, time=36)\n",
      "Message('note_on', channel=0, note=72, velocity=0, time=24)\n",
      "Message('note_on', channel=0, note=55, velocity=0, time=54)\n",
      "Message('note_on', channel=0, note=71, velocity=73, time=11)\n",
      "Message('note_on', channel=0, note=50, velocity=74, time=4)\n",
      "Message('note_on', channel=0, note=71, velocity=0, time=66)\n",
      "Message('note_on', channel=0, note=79, velocity=69, time=44)\n",
      "Message('note_on', channel=0, note=79, velocity=0, time=87)\n",
      "Message('note_on', channel=0, note=50, velocity=0, time=18)\n",
      "Message('note_on', channel=0, note=60, velocity=64, time=1)\n",
      "Message('note_on', channel=0, note=69, velocity=72, time=18)\n",
      "Message('note_on', channel=0, note=60, velocity=0, time=35)\n",
      "Message('note_on', channel=0, note=69, velocity=0, time=18)\n",
      "Message('note_on', channel=0, note=78, velocity=71, time=44)\n",
      "Message('note_on', channel=0, note=59, velocity=60, time=120)\n",
      "Message('note_on', channel=0, note=78, velocity=0, time=14)\n",
      "Message('note_on', channel=0, note=79, velocity=69, time=2)\n",
      "Message('note_on', channel=0, note=59, velocity=0, time=288)\n",
      "Message('note_on', channel=0, note=55, velocity=59, time=2)\n",
      "Message('note_on', channel=0, note=79, velocity=0, time=7)\n",
      "Message('note_on', channel=0, note=78, velocity=68, time=1)\n",
      "Message('note_on', channel=0, note=76, velocity=65, time=115)\n",
      "Message('note_on', channel=0, note=78, velocity=0, time=2)\n",
      "Message('note_on', channel=0, note=76, velocity=0, time=54)\n",
      "Message('note_on', channel=0, note=59, velocity=53, time=34)\n",
      "Message('note_on', channel=0, note=74, velocity=74, time=1)\n",
      "Message('note_on', channel=0, note=74, velocity=0, time=37)\n",
      "Message('note_on', channel=0, note=59, velocity=0, time=11)\n",
      "Message('note_on', channel=0, note=72, velocity=68, time=64)\n",
      "Message('note_on', channel=0, note=72, velocity=0, time=57)\n",
      "Message('note_on', channel=0, note=62, velocity=62, time=38)\n",
      "Message('note_on', channel=0, note=71, velocity=60, time=12)\n",
      "Message('note_on', channel=0, note=62, velocity=0, time=24)\n",
      "Message('note_on', channel=0, note=71, velocity=0, time=10)\n",
      "Message('note_on', channel=0, note=69, velocity=64, time=64)\n",
      "Message('note_on', channel=0, note=69, velocity=0, time=54)\n",
      "Message('note_on', channel=0, note=67, velocity=65, time=76)\n",
      "Message('control_change', channel=0, control=67, value=60, time=37)\n",
      "Message('control_change', channel=0, control=64, value=42, time=58)\n",
      "Message('control_change', channel=0, control=64, value=61, time=19)\n",
      "Message('control_change', channel=0, control=64, value=71, time=19)\n",
      "Message('control_change', channel=0, control=64, value=78, time=20)\n",
      "Message('control_change', channel=0, control=64, value=83, time=19)\n",
      "Message('control_change', channel=0, control=64, value=87, time=17)\n",
      "Message('control_change', channel=0, control=67, value=56, time=19)\n",
      "Message('control_change', channel=0, control=64, value=93, time=20)\n",
      "Message('control_change', channel=0, control=64, value=97, time=51)\n",
      "Message('note_on', channel=0, note=67, velocity=0, time=10)\n",
      "Message('note_on', channel=0, note=55, velocity=0, time=78)\n",
      "Message('note_on', channel=0, note=78, velocity=88, time=40)\n",
      "Message('note_on', channel=0, note=78, velocity=0, time=31)\n",
      "Message('control_change', channel=0, control=64, value=93, time=31)\n",
      "Message('control_change', channel=0, control=64, value=79, time=19)\n",
      "Message('note_on', channel=0, note=69, velocity=87, time=2)\n",
      "Message('control_change', channel=0, control=64, value=39, time=17)\n",
      "Message('control_change', channel=0, control=64, value=0, time=17)\n",
      "Message('note_on', channel=0, note=74, velocity=65, time=11)\n",
      "Message('control_change', channel=0, control=67, value=60, time=9)\n",
      "Message('note_on', channel=0, note=62, velocity=71, time=15)\n",
      "Message('note_on', channel=0, note=78, velocity=89, time=40)\n",
      "Message('control_change', channel=0, control=64, value=46, time=41)\n",
      "Message('note_on', channel=0, note=74, velocity=0, time=8)\n",
      "Message('control_change', channel=0, control=64, value=66, time=11)\n",
      "Message('control_change', channel=0, control=64, value=78, time=17)\n",
      "Message('note_on', channel=0, note=69, velocity=0, time=16)\n",
      "Message('control_change', channel=0, control=64, value=91, time=3)\n",
      "Message('control_change', channel=0, control=67, value=66, time=2)\n",
      "Message('control_change', channel=0, control=64, value=106, time=17)\n",
      "Message('control_change', channel=0, control=64, value=121, time=20)\n",
      "Message('control_change', channel=0, control=64, value=127, time=17)\n",
      "Message('control_change', channel=0, control=67, value=62, time=19)\n",
      "Message('note_on', channel=0, note=62, velocity=0, time=94)\n",
      "Message('note_on', channel=0, note=60, velocity=67, time=1)\n",
      "Message('control_change', channel=0, control=67, value=57, time=21)\n",
      "Message('control_change', channel=0, control=64, value=123, time=35)\n",
      "Message('note_on', channel=0, note=59, velocity=74, time=35)\n",
      "Message('control_change', channel=0, control=64, value=115, time=3)\n",
      "Message('control_change', channel=0, control=64, value=107, time=20)\n",
      "Message('note_on', channel=0, note=60, velocity=0, time=0)\n",
      "Message('control_change', channel=0, control=64, value=98, time=17)\n",
      "Message('control_change', channel=0, control=67, value=52, time=1)\n",
      "Message('control_change', channel=0, control=64, value=87, time=18)\n",
      "Message('control_change', channel=0, control=64, value=81, time=20)\n",
      "Message('control_change', channel=0, control=64, value=79, time=19)\n",
      "Message('note_on', channel=0, note=57, velocity=77, time=12)\n",
      "Message('note_on', channel=0, note=59, velocity=0, time=4)\n",
      "Message('control_change', channel=0, control=67, value=57, time=1)\n",
      "Message('control_change', channel=0, control=64, value=77, time=22)\n",
      "Message('control_change', channel=0, control=64, value=73, time=18)\n",
      "Message('control_change', channel=0, control=64, value=70, time=20)\n",
      "Message('control_change', channel=0, control=67, value=52, time=1)\n",
      "Message('note_on', channel=0, note=57, velocity=0, time=1)\n",
      "Message('note_on', channel=0, note=55, velocity=79, time=49)\n",
      "Message('control_change', channel=0, control=64, value=65, time=25)\n",
      "Message('control_change', channel=0, control=67, value=57, time=0)\n",
      "Message('control_change', channel=0, control=64, value=60, time=32)\n",
      "Message('control_change', channel=0, control=64, value=55, time=18)\n",
      "Message('control_change', channel=0, control=64, value=53, time=20)\n",
      "Message('control_change', channel=0, control=67, value=52, time=1)\n",
      "Message('control_change', channel=0, control=64, value=50, time=18)\n",
      "Message('note_on', channel=0, note=78, velocity=0, time=16)\n",
      "Message('control_change', channel=0, control=64, value=36, time=1)\n",
      "Message('note_on', channel=0, note=74, velocity=86, time=0)\n",
      "Message('note_on', channel=0, note=54, velocity=79, time=1)\n",
      "Message('note_on', channel=0, note=55, velocity=0, time=1)\n",
      "Message('control_change', channel=0, control=64, value=0, time=18)\n",
      "Message('note_on', channel=0, note=52, velocity=81, time=86)\n",
      "Message('note_on', channel=0, note=76, velocity=82, time=7)\n",
      "Message('note_on', channel=0, note=54, velocity=0, time=5)\n",
      "Message('note_on', channel=0, note=74, velocity=0, time=0)\n",
      "Message('control_change', channel=0, control=67, value=57, time=52)\n",
      "Message('note_on', channel=0, note=50, velocity=79, time=39)\n",
      "Message('note_on', channel=0, note=52, velocity=0, time=2)\n",
      "Message('note_on', channel=0, note=78, velocity=86, time=3)\n",
      "Message('control_change', channel=0, control=67, value=52, time=14)\n",
      "Message('note_on', channel=0, note=76, velocity=0, time=6)\n",
      "Message('note_on', channel=0, note=50, velocity=0, time=50)\n",
      "Message('control_change', channel=0, control=67, value=57, time=21)\n",
      "Message('note_on', channel=0, note=78, velocity=0, time=4)\n",
      "Message('note_on', channel=0, note=79, velocity=87, time=6)\n",
      "Message('note_on', channel=0, note=57, velocity=73, time=5)\n",
      "Message('control_change', channel=0, control=67, value=52, time=59)\n",
      "Message('note_on', channel=0, note=57, velocity=0, time=42)\n",
      "Message('control_change', channel=0, control=67, value=59, time=14)\n",
      "Message('note_on', channel=0, note=48, velocity=79, time=2)\n",
      "Message('note_on', channel=0, note=81, velocity=82, time=2)\n",
      "Message('note_on', channel=0, note=79, velocity=0, time=15)\n",
      "Message('control_change', channel=0, control=67, value=54, time=57)\n",
      "Message('note_on', channel=0, note=48, velocity=0, time=12)\n",
      "Message('note_on', channel=0, note=81, velocity=0, time=19)\n",
      "Message('note_on', channel=0, note=78, velocity=80, time=4)\n",
      "Message('control_change', channel=0, control=67, value=59, time=21)\n",
      "Message('note_on', channel=0, note=57, velocity=76, time=2)\n",
      "Message('control_change', channel=0, control=67, value=63, time=36)\n",
      "Message('note_on', channel=0, note=79, velocity=79, time=50)\n",
      "Message('note_on', channel=0, note=57, velocity=0, time=2)\n",
      "Message('note_on', channel=0, note=47, velocity=86, time=1)\n",
      "Message('note_on', channel=0, note=78, velocity=0, time=1)\n",
      "Message('control_change', channel=0, control=67, value=59, time=1)\n",
      "Message('note_on', channel=0, note=47, velocity=0, time=55)\n",
      "Message('control_change', channel=0, control=67, value=67, time=3)\n",
      "Message('control_change', channel=0, control=67, value=63, time=93)\n",
      "Message('control_change', channel=0, control=67, value=68, time=39)\n",
      "Message('control_change', channel=0, control=67, value=72, time=52)\n",
      "Message('note_on', channel=0, note=50, velocity=68, time=20)\n",
      "Message('note_on', channel=0, note=78, velocity=73, time=6)\n",
      "Message('note_on', channel=0, note=79, velocity=0, time=6)\n",
      "Message('control_change', channel=0, control=67, value=68, time=8)\n",
      "Message('note_on', channel=0, note=50, velocity=0, time=16)\n",
      "Message('note_on', channel=0, note=78, velocity=0, time=69)\n",
      "Message('note_on', channel=0, note=76, velocity=69, time=7)\n",
      "Message('control_change', channel=0, control=67, value=64, time=78)\n",
      "Message('note_on', channel=0, note=76, velocity=0, time=10)\n",
      "Message('note_on', channel=0, note=55, velocity=74, time=12)\n",
      "Message('note_on', channel=0, note=74, velocity=80, time=0)\n",
      "Message('control_change', channel=0, control=67, value=68, time=15)\n",
      "Message('note_on', channel=0, note=55, velocity=0, time=15)\n",
      "Message('note_on', channel=0, note=74, velocity=0, time=33)\n",
      "Message('note_on', channel=0, note=72, velocity=76, time=42)\n",
      "Message('note_on', channel=0, note=72, velocity=0, time=75)\n",
      "Message('note_on', channel=0, note=57, velocity=80, time=31)\n",
      "Message('note_on', channel=0, note=71, velocity=80, time=2)\n",
      "Message('control_change', channel=0, control=64, value=25, time=28)\n",
      "Message('control_change', channel=0, control=64, value=65, time=19)\n",
      "Message('control_change', channel=0, control=67, value=64, time=1)\n",
      "Message('control_change', channel=0, control=64, value=83, time=19)\n",
      "Message('note_on', channel=0, note=71, velocity=0, time=3)\n",
      "Message('control_change', channel=0, control=64, value=99, time=13)\n",
      "Message('control_change', channel=0, control=67, value=68, time=2)\n",
      "Message('control_change', channel=0, control=64, value=106, time=17)\n",
      "Message('note_on', channel=0, note=69, velocity=80, time=7)\n",
      "Message('control_change', channel=0, control=64, value=101, time=51)\n",
      "Message('control_change', channel=0, control=64, value=96, time=20)\n",
      "Message('control_change', channel=0, control=67, value=64, time=1)\n",
      "Message('note_on', channel=0, note=69, velocity=0, time=6)\n",
      "Message('control_change', channel=0, control=64, value=78, time=12)\n",
      "Message('control_change', channel=0, control=64, value=0, time=18)\n",
      "Message('note_on', channel=0, note=59, velocity=77, time=13)\n",
      "Message('note_on', channel=0, note=67, velocity=73, time=0)\n",
      "Message('note_on', channel=0, note=57, velocity=0, time=3)\n",
      "Message('control_change', channel=0, control=67, value=69, time=4)\n",
      "Message('note_on', channel=0, note=59, velocity=0, time=19)\n",
      "Message('note_on', channel=0, note=67, velocity=0, time=28)\n",
      "Message('note_on', channel=0, note=71, velocity=78, time=39)\n",
      "Message('note_on', channel=0, note=71, velocity=0, time=71)\n",
      "Message('note_on', channel=0, note=74, velocity=74, time=42)\n",
      "Message('note_on', channel=0, note=55, velocity=71, time=16)\n",
      "Message('control_change', channel=0, control=67, value=65, time=11)\n",
      "Message('note_on', channel=0, note=55, velocity=0, time=35)\n",
      "Message('control_change', channel=0, control=67, value=69, time=35)\n",
      "Message('note_on', channel=0, note=74, velocity=0, time=16)\n",
      "Message('note_on', channel=0, note=77, velocity=73, time=8)\n",
      "Message('control_change', channel=0, control=67, value=65, time=73)\n",
      "Message('note_on', channel=0, note=77, velocity=0, time=30)\n",
      "Message('control_change', channel=0, control=67, value=69, time=6)\n",
      "Message('note_on', channel=0, note=76, velocity=71, time=9)\n",
      "Message('note_on', channel=0, note=60, velocity=78, time=2)\n",
      "Message('control_change', channel=0, control=64, value=28, time=8)\n",
      "Message('control_change', channel=0, control=64, value=34, time=19)\n",
      "Message('note_on', channel=0, note=60, velocity=0, time=7)\n",
      "Message('control_change', channel=0, control=64, value=0, time=12)\n",
      "Message('note_on', channel=0, note=74, velocity=65, time=73)\n",
      "Message('note_on', channel=0, note=76, velocity=0, time=1)\n",
      "Message('note_on', channel=0, note=74, velocity=0, time=80)\n",
      "Message('note_on', channel=0, note=72, velocity=69, time=12)\n",
      "Message('note_on', channel=0, note=64, velocity=71, time=19)\n",
      "Message('note_on', channel=0, note=64, velocity=0, time=33)\n",
      "Message('note_on', channel=0, note=72, velocity=0, time=21)\n",
      "Message('note_on', channel=0, note=71, velocity=66, time=35)\n",
      "Message('note_on', channel=0, note=71, velocity=0, time=59)\n",
      "Message('note_on', channel=0, note=69, velocity=75, time=54)\n",
      "Message('note_on', channel=0, note=60, velocity=70, time=5)\n",
      "Message('note_on', channel=0, note=60, velocity=0, time=35)\n",
      "Message('note_on', channel=0, note=69, velocity=0, time=25)\n",
      "Message('note_on', channel=0, note=78, velocity=78, time=41)\n",
      "Message('note_on', channel=0, note=78, velocity=0, time=74)\n",
      "Message('note_on', channel=0, note=79, velocity=84, time=32)\n",
      "Message('note_on', channel=0, note=59, velocity=80, time=2)\n",
      "Message('note_on', channel=0, note=59, velocity=0, time=34)\n",
      "Message('note_on', channel=0, note=79, velocity=0, time=37)\n",
      "Message('control_change', channel=0, control=67, value=74, time=6)\n",
      "Message('note_on', channel=0, note=81, velocity=81, time=53)\n",
      "Message('control_change', channel=0, control=67, value=69, time=38)\n",
      "Message('note_on', channel=0, note=60, velocity=80, time=66)\n",
      "Message('control_change', channel=0, control=67, value=74, time=11)\n",
      "Message('note_on', channel=0, note=81, velocity=0, time=1)\n",
      "Message('note_on', channel=0, note=79, velocity=80, time=2)\n",
      "Message('note_on', channel=0, note=60, velocity=0, time=19)\n",
      "Message('control_change', channel=0, control=67, value=69, time=53)\n",
      "Message('note_on', channel=0, note=79, velocity=0, time=27)\n",
      "Message('note_on', channel=0, note=78, velocity=77, time=1)\n",
      "Message('note_on', channel=0, note=78, velocity=0, time=92)\n",
      "Message('note_on', channel=0, note=79, velocity=80, time=7)\n",
      "Message('note_on', channel=0, note=57, velocity=77, time=10)\n",
      "Message('control_change', channel=0, control=64, value=11, time=15)\n",
      "Message('note_on', channel=0, note=57, velocity=0, time=11)\n",
      "Message('control_change', channel=0, control=64, value=28, time=7)\n",
      "Message('control_change', channel=0, control=64, value=41, time=20)\n",
      "Message('control_change', channel=0, control=64, value=48, time=18)\n",
      "Message('control_change', channel=0, control=64, value=52, time=19)\n",
      "Message('note_on', channel=0, note=79, velocity=0, time=8)\n",
      "Message('note_on', channel=0, note=76, velocity=73, time=3)\n",
      "Message('control_change', channel=0, control=64, value=56, time=6)\n",
      "Message('control_change', channel=0, control=64, value=61, time=22)\n",
      "Message('note_on', channel=0, note=76, velocity=0, time=13)\n",
      "Message('control_change', channel=0, control=64, value=63, time=2)\n",
      "Message('control_change', channel=0, control=64, value=58, time=19)\n",
      "Message('note_on', channel=0, note=57, velocity=26, time=4)\n",
      "Message('control_change', channel=0, control=64, value=0, time=16)\n",
      "Message('note_on', channel=0, note=57, velocity=0, time=0)\n",
      "Message('note_on', channel=0, note=75, velocity=88, time=13)\n",
      "Message('note_on', channel=0, note=59, velocity=82, time=4)\n",
      "Message('control_change', channel=0, control=67, value=73, time=1)\n",
      "Message('note_on', channel=0, note=76, velocity=61, time=11)\n",
      "Message('note_on', channel=0, note=76, velocity=0, time=109)\n",
      "Message('note_on', channel=0, note=59, velocity=0, time=88)\n",
      "Message('note_on', channel=0, note=57, velocity=61, time=26)\n",
      "Message('note_on', channel=0, note=75, velocity=0, time=6)\n",
      "Message('note_on', channel=0, note=72, velocity=45, time=27)\n",
      "Message('note_on', channel=0, note=71, velocity=33, time=17)\n",
      "Message('note_on', channel=0, note=72, velocity=0, time=14)\n",
      "Message('note_on', channel=0, note=71, velocity=0, time=27)\n",
      "Message('note_on', channel=0, note=55, velocity=61, time=6)\n",
      "Message('note_on', channel=0, note=57, velocity=0, time=9)\n",
      "Message('note_on', channel=0, note=54, velocity=75, time=111)\n",
      "Message('note_on', channel=0, note=55, velocity=0, time=10)\n",
      "Message('note_on', channel=0, note=54, velocity=0, time=64)\n",
      "Message('note_on', channel=0, note=52, velocity=75, time=57)\n",
      "Message('note_on', channel=0, note=83, velocity=87, time=88)\n",
      "Message('note_on', channel=0, note=52, velocity=0, time=2)\n",
      "Message('note_on', channel=0, note=51, velocity=79, time=9)\n",
      "Message('control_change', channel=0, control=64, value=16, time=14)\n",
      "Message('control_change', channel=0, control=64, value=0, time=20)\n",
      "Message('note_on', channel=0, note=51, velocity=0, time=65)\n",
      "Message('note_on', channel=0, note=81, velocity=80, time=2)\n",
      "Message('note_on', channel=0, note=83, velocity=0, time=1)\n",
      "Message('note_on', channel=0, note=49, velocity=74, time=6)\n",
      "Message('note_on', channel=0, note=49, velocity=0, time=66)\n",
      "Message('note_on', channel=0, note=47, velocity=66, time=25)\n",
      "Message('note_on', channel=0, note=79, velocity=76, time=22)\n",
      "Message('note_on', channel=0, note=81, velocity=0, time=18)\n",
      "Message('note_on', channel=0, note=47, velocity=0, time=39)\n",
      "Message('note_on', channel=0, note=79, velocity=0, time=20)\n",
      "Message('note_on', channel=0, note=78, velocity=81, time=5)\n",
      "Message('note_on', channel=0, note=54, velocity=79, time=10)\n",
      "Message('note_on', channel=0, note=78, velocity=0, time=32)\n",
      "Message('note_on', channel=0, note=54, velocity=0, time=50)\n",
      "Message('note_on', channel=0, note=76, velocity=74, time=14)\n",
      "Message('note_on', channel=0, note=45, velocity=80, time=16)\n",
      "Message('control_change', channel=0, control=67, value=77, time=6)\n",
      "Message('note_on', channel=0, note=74, velocity=60, time=0)\n",
      "Message('note_on', channel=0, note=74, velocity=0, time=28)\n",
      "Message('note_on', channel=0, note=45, velocity=0, time=9)\n",
      "Message('note_on', channel=0, note=76, velocity=0, time=17)\n",
      "Message('note_on', channel=0, note=75, velocity=81, time=19)\n",
      "Message('note_on', channel=0, note=54, velocity=77, time=12)\n",
      "Message('control_change', channel=0, control=67, value=73, time=26)\n",
      "Message('note_on', channel=0, note=75, velocity=0, time=11)\n",
      "Message('note_on', channel=0, note=54, velocity=0, time=19)\n",
      "Message('control_change', channel=0, control=67, value=80, time=7)\n",
      "Message('note_on', channel=0, note=76, velocity=86, time=41)\n",
      "Message('note_on', channel=0, note=43, velocity=69, time=1)\n",
      "Message('note_on', channel=0, note=41, velocity=61, time=23)\n",
      "Message('note_on', channel=0, note=76, velocity=0, time=5)\n",
      "Message('note_on', channel=0, note=43, velocity=0, time=26)\n",
      "Message('note_on', channel=0, note=41, velocity=0, time=4)\n",
      "Message('note_on', channel=0, note=45, velocity=76, time=66)\n",
      "Message('control_change', channel=0, control=67, value=86, time=2)\n",
      "Message('note_on', channel=0, note=42, velocity=76, time=109)\n",
      "Message('note_on', channel=0, note=78, velocity=82, time=9)\n",
      "Message('note_on', channel=0, note=45, velocity=0, time=3)\n",
      "Message('control_change', channel=0, control=67, value=90, time=32)\n",
      "Message('note_on', channel=0, note=42, velocity=0, time=8)\n",
      "Message('note_on', channel=0, note=78, velocity=0, time=1)\n",
      "Message('note_on', channel=0, note=76, velocity=73, time=33)\n",
      "Message('note_on', channel=0, note=45, velocity=72, time=22)\n",
      "Message('control_change', channel=0, control=67, value=85, time=8)\n",
      "Message('note_on', channel=0, note=75, velocity=80, time=6)\n",
      "Message('note_on', channel=0, note=76, velocity=0, time=13)\n",
      "Message('control_change', channel=0, control=67, value=90, time=22)\n",
      "Message('note_on', channel=0, note=75, velocity=0, time=11)\n",
      "Message('control_change', channel=0, control=64, value=29, time=6)\n",
      "Message('control_change', channel=0, control=64, value=60, time=22)\n",
      "Message('note_on', channel=0, note=43, velocity=83, time=7)\n",
      "Message('note_on', channel=0, note=45, velocity=0, time=0)\n",
      "Message('note_on', channel=0, note=76, velocity=85, time=0)\n",
      "Message('control_change', channel=0, control=64, value=0, time=10)\n",
      "Message('note_on', channel=0, note=76, velocity=0, time=30)\n",
      "Message('control_change', channel=0, control=67, value=85, time=6)\n",
      "Message('note_on', channel=0, note=43, velocity=0, time=22)\n",
      "Message('control_change', channel=0, control=67, value=90, time=17)\n",
      "Message('note_on', channel=0, note=45, velocity=69, time=41)\n",
      "Message('note_on', channel=0, note=45, velocity=0, time=82)\n",
      "Message('note_on', channel=0, note=42, velocity=70, time=13)\n",
      "Message('note_on', channel=0, note=78, velocity=80, time=12)\n",
      "Message('note_on', channel=0, note=78, velocity=0, time=46)\n",
      "Message('note_on', channel=0, note=42, velocity=0, time=17)\n",
      "Message('note_on', channel=0, note=76, velocity=55, time=19)\n",
      "Message('note_on', channel=0, note=77, velocity=45, time=11)\n",
      "Message('note_on', channel=0, note=45, velocity=65, time=1)\n",
      "Message('note_on', channel=0, note=75, velocity=81, time=15)\n",
      "Message('note_on', channel=0, note=76, velocity=0, time=9)\n",
      "Message('note_on', channel=0, note=77, velocity=0, time=7)\n",
      "Message('note_on', channel=0, note=75, velocity=0, time=41)\n",
      "Message('note_on', channel=0, note=45, velocity=0, time=14)\n",
      "Message('note_on', channel=0, note=43, velocity=74, time=17)\n",
      "Message('note_on', channel=0, note=76, velocity=89, time=0)\n",
      "Message('control_change', channel=0, control=64, value=54, time=12)\n",
      "Message('control_change', channel=0, control=64, value=47, time=21)\n",
      "Message('control_change', channel=0, control=67, value=85, time=2)\n",
      "Message('control_change', channel=0, control=64, value=0, time=15)\n",
      "Message('control_change', channel=0, control=67, value=90, time=19)\n",
      "Message('note_on', channel=0, note=43, velocity=0, time=0)\n",
      "Message('note_on', channel=0, note=47, velocity=63, time=57)\n",
      "Message('control_change', channel=0, control=67, value=86, time=40)\n",
      "Message('control_change', channel=0, control=67, value=90, time=71)\n",
      "Message('note_on', channel=0, note=47, velocity=0, time=5)\n",
      "Message('note_on', channel=0, note=71, velocity=75, time=3)\n",
      "Message('note_on', channel=0, note=40, velocity=75, time=1)\n",
      "Message('note_on', channel=0, note=71, velocity=0, time=27)\n",
      "Message('control_change', channel=0, control=67, value=86, time=38)\n",
      "Message('note_on', channel=0, note=40, velocity=0, time=29)\n",
      "Message('note_on', channel=0, note=43, velocity=69, time=13)\n",
      "Message('note_on', channel=0, note=43, velocity=0, time=88)\n",
      "Message('note_on', channel=0, note=45, velocity=79, time=20)\n",
      "Message('note_on', channel=0, note=72, velocity=77, time=18)\n",
      "Message('control_change', channel=0, control=64, value=38, time=21)\n",
      "Message('note_on', channel=0, note=72, velocity=0, time=6)\n",
      "Message('note_on', channel=0, note=45, velocity=0, time=9)\n",
      "Message('control_change', channel=0, control=64, value=0, time=3)\n",
      "Message('control_change', channel=0, control=67, value=90, time=2)\n",
      "Message('note_on', channel=0, note=47, velocity=67, time=45)\n",
      "Message('control_change', channel=0, control=67, value=86, time=49)\n",
      "Message('control_change', channel=0, control=67, value=90, time=38)\n",
      "Message('note_on', channel=0, note=47, velocity=0, time=12)\n",
      "Message('note_on', channel=0, note=43, velocity=72, time=22)\n",
      "Message('note_on', channel=0, note=74, velocity=67, time=17)\n",
      "Message('control_change', channel=0, control=67, value=86, time=42)\n",
      "Message('note_on', channel=0, note=72, velocity=76, time=6)\n",
      "Message('note_on', channel=0, note=43, velocity=0, time=4)\n",
      "Message('note_on', channel=0, note=74, velocity=0, time=11)\n",
      "Message('control_change', channel=0, control=67, value=90, time=17)\n",
      "Message('note_on', channel=0, note=47, velocity=70, time=17)\n",
      "Message('note_on', channel=0, note=72, velocity=0, time=8)\n",
      "Message('note_on', channel=0, note=71, velocity=73, time=12)\n",
      "Message('note_on', channel=0, note=71, velocity=0, time=31)\n",
      "Message('note_on', channel=0, note=72, velocity=81, time=26)\n",
      "Message('control_change', channel=0, control=67, value=86, time=2)\n",
      "Message('note_on', channel=0, note=47, velocity=0, time=7)\n",
      "Message('note_on', channel=0, note=45, velocity=71, time=5)\n",
      "Message('note_on', channel=0, note=72, velocity=0, time=32)\n",
      "Message('control_change', channel=0, control=67, value=91, time=12)\n",
      "Message('note_on', channel=0, note=45, velocity=0, time=14)\n",
      "Message('note_on', channel=0, note=47, velocity=69, time=47)\n",
      "Message('control_change', channel=0, control=67, value=87, time=31)\n",
      "Message('control_change', channel=0, control=67, value=91, time=39)\n",
      "Message('note_on', channel=0, note=47, velocity=0, time=24)\n",
      "Message('note_on', channel=0, note=43, velocity=74, time=15)\n",
      "Message('note_on', channel=0, note=74, velocity=64, time=16)\n",
      "Message('note_on', channel=0, note=72, velocity=79, time=52)\n",
      "Message('note_on', channel=0, note=76, velocity=0, time=7)\n",
      "Message('note_on', channel=0, note=43, velocity=0, time=7)\n",
      "Message('note_on', channel=0, note=74, velocity=0, time=24)\n",
      "Message('note_on', channel=0, note=47, velocity=71, time=21)\n",
      "Message('note_on', channel=0, note=71, velocity=79, time=13)\n",
      "Message('note_on', channel=0, note=72, velocity=0, time=1)\n",
      "Message('note_on', channel=0, note=71, velocity=0, time=27)\n",
      "Message('note_on', channel=0, note=47, velocity=0, time=28)\n",
      "Message('note_on', channel=0, note=72, velocity=85, time=17)\n",
      "Message('note_on', channel=0, note=45, velocity=79, time=8)\n",
      "Message('note_on', channel=0, note=72, velocity=0, time=14)\n",
      "Message('control_change', channel=0, control=64, value=41, time=3)\n",
      "Message('control_change', channel=0, control=64, value=0, time=21)\n",
      "Message('control_change', channel=0, control=67, value=95, time=1)\n",
      "Message('note_on', channel=0, note=45, velocity=0, time=30)\n",
      "Message('note_on', channel=0, note=48, velocity=71, time=47)\n",
      "Message('control_change', channel=0, control=67, value=99, time=68)\n",
      "Message('note_on', channel=0, note=42, velocity=79, time=18)\n",
      "Message('note_on', channel=0, note=48, velocity=0, time=4)\n",
      "Message('note_on', channel=0, note=81, velocity=88, time=9)\n",
      "Message('note_on', channel=0, note=72, velocity=66, time=13)\n",
      "Message('note_on', channel=0, note=81, velocity=0, time=19)\n",
      "Message('note_on', channel=0, note=72, velocity=0, time=3)\n",
      "Message('control_change', channel=0, control=67, value=92, time=11)\n",
      "Message('note_on', channel=0, note=45, velocity=76, time=54)\n",
      "Message('note_on', channel=0, note=42, velocity=0, time=33)\n",
      "Message('note_on', channel=0, note=45, velocity=0, time=53)\n",
      "Message('note_on', channel=0, note=79, velocity=87, time=34)\n",
      "Message('note_on', channel=0, note=71, velocity=87, time=1)\n",
      "Message('note_on', channel=0, note=47, velocity=78, time=3)\n",
      "Message('note_on', channel=0, note=71, velocity=0, time=22)\n",
      "Message('note_on', channel=0, note=79, velocity=0, time=0)\n",
      "Message('control_change', channel=0, control=64, value=31, time=82)\n",
      "Message('control_change', channel=0, control=64, value=0, time=38)\n",
      "Message('control_change', channel=0, control=67, value=97, time=16)\n",
      "Message('note_on', channel=0, note=49, velocity=71, time=70)\n",
      "Message('note_on', channel=0, note=78, velocity=86, time=1)\n",
      "Message('note_on', channel=0, note=69, velocity=75, time=8)\n",
      "Message('note_on', channel=0, note=47, velocity=0, time=6)\n",
      "Message('control_change', channel=0, control=64, value=13, time=13)\n",
      "Message('control_change', channel=0, control=67, value=93, time=1)\n",
      "Message('control_change', channel=0, control=64, value=9, time=17)\n",
      "Message('control_change', channel=0, control=64, value=0, time=20)\n",
      "Message('note_on', channel=0, note=69, velocity=0, time=16)\n",
      "Message('note_on', channel=0, note=51, velocity=78, time=31)\n",
      "Message('note_on', channel=0, note=49, velocity=0, time=32)\n",
      "Message('note_on', channel=0, note=51, velocity=0, time=52)\n",
      "Message('note_on', channel=0, note=52, velocity=82, time=33)\n",
      "Message('note_on', channel=0, note=67, velocity=82, time=12)\n",
      "Message('control_change', channel=0, control=67, value=88, time=45)\n",
      "Message('control_change', channel=0, control=67, value=84, time=21)\n",
      "Message('note_on', channel=0, note=54, velocity=77, time=29)\n",
      "Message('note_on', channel=0, note=52, velocity=0, time=13)\n",
      "Message('note_on', channel=0, note=55, velocity=74, time=76)\n",
      "Message('note_on', channel=0, note=54, velocity=0, time=11)\n",
      "Message('note_on', channel=0, note=67, velocity=0, time=0)\n",
      "Message('note_on', channel=0, note=76, velocity=77, time=16)\n",
      "Message('note_on', channel=0, note=78, velocity=0, time=21)\n",
      "Message('note_on', channel=0, note=57, velocity=83, time=66)\n",
      "Message('note_on', channel=0, note=55, velocity=0, time=11)\n",
      "Message('control_change', channel=0, control=64, value=11, time=57)\n",
      "Message('control_change', channel=0, control=64, value=16, time=20)\n",
      "Message('note_on', channel=0, note=57, velocity=0, time=8)\n",
      "Message('note_on', channel=0, note=76, velocity=0, time=16)\n",
      "Message('note_on', channel=0, note=59, velocity=87, time=7)\n",
      "Message('control_change', channel=0, control=64, value=22, time=4)\n",
      "Message('note_on', channel=0, note=66, velocity=82, time=14)\n",
      "Message('note_on', channel=0, note=59, velocity=0, time=24)\n",
      "Message('control_change', channel=0, control=64, value=0, time=20)\n",
      "Message('note_on', channel=0, note=66, velocity=0, time=35)\n",
      "Message('note_on', channel=0, note=69, velocity=70, time=26)\n",
      "Message('note_on', channel=0, note=69, velocity=0, time=86)\n",
      "Message('note_on', channel=0, note=47, velocity=80, time=19)\n",
      "Message('note_on', channel=0, note=76, velocity=79, time=1)\n",
      "Message('note_on', channel=0, note=47, velocity=0, time=31)\n",
      "Message('note_on', channel=0, note=76, velocity=0, time=75)\n",
      "Message('note_on', channel=0, note=75, velocity=74, time=7)\n",
      "Message('control_change', channel=0, control=67, value=89, time=75)\n",
      "Message('note_on', channel=0, note=52, velocity=75, time=50)\n",
      "Message('note_on', channel=0, note=75, velocity=0, time=5)\n",
      "Message('note_on', channel=0, note=76, velocity=76, time=5)\n",
      "Message('note_on', channel=0, note=54, velocity=56, time=241)\n",
      "Message('note_on', channel=0, note=72, velocity=69, time=0)\n",
      "Message('note_on', channel=0, note=52, velocity=0, time=17)\n",
      "Message('note_on', channel=0, note=72, velocity=0, time=20)\n",
      "Message('note_on', channel=0, note=55, velocity=61, time=66)\n",
      "Message('note_on', channel=0, note=54, velocity=0, time=11)\n",
      "Message('note_on', channel=0, note=55, velocity=0, time=95)\n",
      "Message('note_on', channel=0, note=57, velocity=68, time=6)\n",
      "Message('note_on', channel=0, note=71, velocity=67, time=4)\n",
      "Message('note_on', channel=0, note=71, velocity=0, time=31)\n",
      "Message('note_on', channel=0, note=57, velocity=0, time=35)\n",
      "Message('note_on', channel=0, note=59, velocity=67, time=37)\n",
      "Message('control_change', channel=0, control=67, value=85, time=42)\n",
      "Message('note_on', channel=0, note=59, velocity=0, time=67)\n",
      "Message('note_on', channel=0, note=61, velocity=69, time=5)\n",
      "Message('note_on', channel=0, note=69, velocity=65, time=3)\n",
      "Message('note_on', channel=0, note=69, velocity=0, time=35)\n",
      "Message('note_on', channel=0, note=63, velocity=72, time=63)\n",
      "Message('note_on', channel=0, note=61, velocity=0, time=10)\n",
      "Message('note_on', channel=0, note=63, velocity=0, time=75)\n",
      "Message('note_on', channel=0, note=64, velocity=78, time=37)\n",
      "Message('note_on', channel=0, note=67, velocity=76, time=16)\n",
      "Message('note_on', channel=0, note=76, velocity=0, time=7)\n",
      "Message('note_on', channel=0, note=67, velocity=0, time=23)\n",
      "Message('note_on', channel=0, note=64, velocity=0, time=60)\n",
      "Message('note_on', channel=0, note=61, velocity=82, time=9)\n",
      "Message('note_on', channel=0, note=61, velocity=0, time=104)\n",
      "Message('note_on', channel=0, note=62, velocity=85, time=9)\n",
      "Message('note_on', channel=0, note=76, velocity=84, time=20)\n",
      "Message('note_on', channel=0, note=76, velocity=0, time=38)\n",
      "Message('note_on', channel=0, note=59, velocity=84, time=37)\n",
      "Message('note_on', channel=0, note=62, velocity=0, time=22)\n",
      "Message('control_change', channel=0, control=67, value=90, time=16)\n",
      "Message('note_on', channel=0, note=59, velocity=0, time=35)\n",
      "Message('note_on', channel=0, note=59, velocity=56, time=51)\n",
      "Message('note_on', channel=0, note=61, velocity=89, time=3)\n",
      "Message('note_on', channel=0, note=69, velocity=88, time=23)\n",
      "Message('note_on', channel=0, note=59, velocity=0, time=7)\n",
      "Message('note_on', channel=0, note=61, velocity=0, time=69)\n",
      "Message('note_on', channel=0, note=62, velocity=84, time=24)\n",
      "Message('control_change', channel=0, control=67, value=86, time=33)\n",
      "Message('control_change', channel=0, control=67, value=91, time=38)\n",
      "Message('note_on', channel=0, note=62, velocity=0, time=11)\n",
      "Message('note_on', channel=0, note=61, velocity=84, time=36)\n",
      "Message('note_on', channel=0, note=69, velocity=0, time=2)\n",
      "Message('note_on', channel=0, note=71, velocity=70, time=10)\n",
      "Message('control_change', channel=0, control=67, value=86, time=35)\n",
      "Message('note_on', channel=0, note=61, velocity=0, time=53)\n",
      "Message('control_change', channel=0, control=67, value=91, time=1)\n",
      "Message('note_on', channel=0, note=73, velocity=79, time=12)\n",
      "Message('note_on', channel=0, note=71, velocity=0, time=9)\n",
      "Message('note_on', channel=0, note=59, velocity=77, time=1)\n",
      "Message('control_change', channel=0, control=67, value=85, time=56)\n",
      "Message('note_on', channel=0, note=73, velocity=0, time=14)\n",
      "Message('note_on', channel=0, note=74, velocity=80, time=31)\n",
      "Message('note_on', channel=0, note=59, velocity=0, time=3)\n",
      "Message('note_on', channel=0, note=57, velocity=75, time=5)\n",
      "Message('note_on', channel=0, note=74, velocity=0, time=99)\n",
      "Message('note_on', channel=0, note=57, velocity=0, time=4)\n",
      "Message('note_on', channel=0, note=55, velocity=76, time=6)\n",
      "Message('note_on', channel=0, note=76, velocity=77, time=15)\n",
      "Message('note_on', channel=0, note=54, velocity=77, time=99)\n",
      "Message('note_on', channel=0, note=55, velocity=0, time=4)\n",
      "Message('note_on', channel=0, note=78, velocity=81, time=8)\n",
      "Message('note_on', channel=0, note=76, velocity=0, time=7)\n",
      "Message('note_on', channel=0, note=78, velocity=0, time=77)\n",
      "Message('note_on', channel=0, note=54, velocity=0, time=6)\n",
      "Message('note_on', channel=0, note=79, velocity=82, time=12)\n",
      "Message('note_on', channel=0, note=52, velocity=76, time=2)\n",
      "Message('note_on', channel=0, note=81, velocity=80, time=119)\n",
      "Message('note_on', channel=0, note=54, velocity=84, time=1)\n",
      "Message('note_on', channel=0, note=79, velocity=0, time=8)\n",
      "Message('control_change', channel=0, control=67, value=89, time=6)\n",
      "Message('note_on', channel=0, note=52, velocity=0, time=17)\n",
      "Message('note_on', channel=0, note=54, velocity=0, time=33)\n",
      "Message('control_change', channel=0, control=67, value=85, time=23)\n",
      "Message('note_on', channel=0, note=81, velocity=0, time=1)\n",
      "Message('note_on', channel=0, note=78, velocity=81, time=13)\n",
      "Message('note_on', channel=0, note=62, velocity=76, time=13)\n",
      "Message('control_change', channel=0, control=67, value=90, time=31)\n",
      "Message('note_on', channel=0, note=79, velocity=83, time=71)\n",
      "Message('note_on', channel=0, note=52, velocity=80, time=12)\n",
      "Message('control_change', channel=0, control=67, value=85, time=12)\n",
      "Message('note_on', channel=0, note=62, velocity=0, time=7)\n",
      "Message('note_on', channel=0, note=78, velocity=0, time=1)\n",
      "Message('control_change', channel=0, control=67, value=91, time=49)\n",
      "Message('note_on', channel=0, note=76, velocity=82, time=21)\n",
      "Message('note_on', channel=0, note=61, velocity=83, time=7)\n",
      "Message('note_on', channel=0, note=52, velocity=0, time=15)\n",
      "Message('note_on', channel=0, note=79, velocity=0, time=8)\n",
      "Message('control_change', channel=0, control=67, value=85, time=42)\n",
      "Message('note_on', channel=0, note=76, velocity=0, time=3)\n",
      "Message('note_on', channel=0, note=61, velocity=0, time=8)\n",
      "Message('control_change', channel=0, control=67, value=90, time=26)\n",
      "Message('note_on', channel=0, note=78, velocity=82, time=8)\n",
      "Message('note_on', channel=0, note=62, velocity=84, time=7)\n",
      "Message('note_on', channel=0, note=79, velocity=82, time=128)\n",
      "Message('note_on', channel=0, note=78, velocity=0, time=26)\n",
      "Message('note_on', channel=0, note=50, velocity=79, time=87)\n",
      "Message('note_on', channel=0, note=78, velocity=82, time=2)\n",
      "Message('control_change', channel=0, control=67, value=85, time=3)\n",
      "Message('note_on', channel=0, note=62, velocity=0, time=17)\n",
      "Message('note_on', channel=0, note=79, velocity=0, time=10)\n",
      "Message('note_on', channel=0, note=76, velocity=86, time=75)\n",
      "Message('note_on', channel=0, note=52, velocity=78, time=7)\n",
      "Message('note_on', channel=0, note=50, velocity=0, time=8)\n",
      "Message('note_on', channel=0, note=78, velocity=0, time=9)\n",
      "Message('control_change', channel=0, control=67, value=73, time=7)\n",
      "Message('control_change', channel=0, control=67, value=66, time=20)\n",
      "Message('note_on', channel=0, note=76, velocity=0, time=28)\n",
      "Message('note_on', channel=0, note=74, velocity=89, time=30)\n",
      "Message('note_on', channel=0, note=54, velocity=69, time=8)\n",
      "Message('note_on', channel=0, note=52, velocity=0, time=23)\n",
      "Message('control_change', channel=0, control=67, value=61, time=23)\n",
      "Message('note_on', channel=0, note=74, velocity=0, time=18)\n",
      "Message('note_on', channel=0, note=76, velocity=87, time=36)\n",
      "Message('note_on', channel=0, note=55, velocity=77, time=2)\n",
      "Message('note_on', channel=0, note=54, velocity=0, time=23)\n",
      "Message('note_on', channel=0, note=55, velocity=0, time=50)\n",
      "Message('note_on', channel=0, note=78, velocity=88, time=28)\n",
      "Message('note_on', channel=0, note=57, velocity=82, time=3)\n",
      "Message('note_on', channel=0, note=76, velocity=0, time=15)\n",
      "Message('note_on', channel=0, note=78, velocity=0, time=64)\n",
      "Message('note_on', channel=0, note=79, velocity=85, time=29)\n",
      "Message('note_on', channel=0, note=59, velocity=84, time=14)\n",
      "Message('note_on', channel=0, note=57, velocity=0, time=16)\n",
      "Message('note_on', channel=0, note=79, velocity=0, time=52)\n",
      "Message('note_on', channel=0, note=81, velocity=84, time=24)\n",
      "Message('note_on', channel=0, note=60, velocity=75, time=13)\n",
      "Message('note_on', channel=0, note=59, velocity=0, time=30)\n",
      "Message('note_on', channel=0, note=83, velocity=83, time=69)\n",
      "Message('note_on', channel=0, note=62, velocity=87, time=14)\n",
      "Message('note_on', channel=0, note=81, velocity=0, time=8)\n",
      "Message('note_on', channel=0, note=60, velocity=0, time=3)\n",
      "Message('note_on', channel=0, note=62, velocity=0, time=77)\n",
      "Message('note_on', channel=0, note=84, velocity=85, time=25)\n",
      "Message('note_on', channel=0, note=64, velocity=86, time=4)\n",
      "Message('note_on', channel=0, note=83, velocity=0, time=9)\n",
      "Message('control_change', channel=0, control=67, value=65, time=12)\n",
      "Message('control_change', channel=0, control=67, value=61, time=56)\n",
      "Message('note_on', channel=0, note=84, velocity=0, time=3)\n",
      "Message('note_on', channel=0, note=64, velocity=0, time=9)\n",
      "Message('note_on', channel=0, note=81, velocity=81, time=7)\n",
      "Message('note_on', channel=0, note=66, velocity=87, time=23)\n",
      "Message('control_change', channel=0, control=67, value=66, time=35)\n",
      "Message('note_on', channel=0, note=81, velocity=0, time=9)\n",
      "Message('note_on', channel=0, note=66, velocity=0, time=32)\n",
      "Message('note_on', channel=0, note=83, velocity=78, time=10)\n",
      "Message('note_on', channel=0, note=67, velocity=91, time=19)\n",
      "Message('note_on', channel=0, note=67, velocity=0, time=34)\n",
      "Message('control_change', channel=0, control=67, value=76, time=46)\n",
      "Message('note_on', channel=0, note=83, velocity=0, time=7)\n",
      "Message('note_on', channel=0, note=78, velocity=77, time=2)\n",
      "Message('control_change', channel=0, control=64, value=16, time=85)\n",
      "Message('control_change', channel=0, control=67, value=72, time=1)\n",
      "Message('control_change', channel=0, control=64, value=50, time=19)\n",
      "Message('note_on', channel=0, note=79, velocity=80, time=13)\n",
      "Message('note_on', channel=0, note=78, velocity=0, time=2)\n",
      "Message('control_change', channel=0, control=64, value=58, time=3)\n",
      "Message('control_change', channel=0, control=67, value=77, time=1)\n",
      "Message('note_on', channel=0, note=59, velocity=89, time=2)\n",
      "Message('control_change', channel=0, control=67, value=72, time=71)\n",
      "Message('note_on', channel=0, note=79, velocity=0, time=9)\n",
      "Message('control_change', channel=0, control=64, value=61, time=12)\n",
      "Message('note_on', channel=0, note=74, velocity=76, time=8)\n",
      "Message('control_change', channel=0, control=64, value=64, time=10)\n",
      "Message('control_change', channel=0, control=67, value=68, time=2)\n",
      "Message('control_change', channel=0, control=64, value=67, time=18)\n",
      "Message('control_change', channel=0, control=64, value=70, time=19)\n",
      "Message('control_change', channel=0, control=67, value=73, time=1)\n",
      "Message('note_on', channel=0, note=74, velocity=0, time=16)\n",
      "Message('control_change', channel=0, control=64, value=74, time=4)\n",
      "Message('control_change', channel=0, control=64, value=82, time=17)\n",
      "Message('control_change', channel=0, control=64, value=93, time=17)\n",
      "Message('note_on', channel=0, note=59, velocity=0, time=13)\n",
      "Message('note_on', channel=0, note=60, velocity=88, time=3)\n",
      "Message('control_change', channel=0, control=64, value=97, time=2)\n",
      "Message('note_on', channel=0, note=76, velocity=80, time=6)\n",
      "Message('control_change', channel=0, control=64, value=79, time=16)\n",
      "Message('control_change', channel=0, control=64, value=0, time=18)\n",
      "Message('note_on', channel=0, note=60, velocity=0, time=7)\n",
      "Message('note_on', channel=0, note=76, velocity=0, time=16)\n",
      "Message('note_on', channel=0, note=71, velocity=75, time=51)\n",
      "Message('note_on', channel=0, note=71, velocity=0, time=50)\n",
      "Message('control_change', channel=0, control=67, value=77, time=60)\n",
      "Message('note_on', channel=0, note=64, velocity=81, time=22)\n",
      "Message('note_on', channel=0, note=72, velocity=77, time=6)\n",
      "Message('note_on', channel=0, note=64, velocity=0, time=21)\n",
      "Message('note_on', channel=0, note=72, velocity=0, time=29)\n",
      "Message('note_on', channel=0, note=67, velocity=70, time=49)\n",
      "Message('note_on', channel=0, note=67, velocity=0, time=53)\n",
      "Message('control_change', channel=0, control=67, value=73, time=29)\n",
      "Message('note_on', channel=0, note=60, velocity=86, time=20)\n",
      "Message('note_on', channel=0, note=69, velocity=76, time=14)\n",
      "Message('note_on', channel=0, note=60, velocity=0, time=15)\n",
      "Message('control_change', channel=0, control=67, value=77, time=6)\n",
      "Message('note_on', channel=0, note=69, velocity=0, time=32)\n",
      "Message('note_on', channel=0, note=72, velocity=76, time=51)\n",
      "Message('control_change', channel=0, control=67, value=72, time=12)\n",
      "Message('control_change', channel=0, control=67, value=76, time=39)\n",
      "Message('note_on', channel=0, note=72, velocity=0, time=10)\n",
      "Message('note_on', channel=0, note=57, velocity=79, time=45)\n",
      "Message('note_on', channel=0, note=64, velocity=76, time=7)\n",
      "Message('note_on', channel=0, note=57, velocity=0, time=26)\n",
      "Message('note_on', channel=0, note=64, velocity=0, time=20)\n",
      "Message('note_on', channel=0, note=67, velocity=72, time=68)\n",
      "Message('note_on', channel=0, note=67, velocity=0, time=43)\n",
      "Message('control_change', channel=0, control=67, value=81, time=65)\n",
      "Message('note_on', channel=0, note=66, velocity=77, time=9)\n",
      "Message('note_on', channel=0, note=62, velocity=86, time=1)\n",
      "Message('control_change', channel=0, control=64, value=55, time=9)\n",
      "Message('control_change', channel=0, control=64, value=69, time=15)\n",
      "Message('note_on', channel=0, note=62, velocity=0, time=0)\n",
      "Message('control_change', channel=0, control=64, value=75, time=20)\n",
      "Message('note_on', channel=0, note=66, velocity=0, time=2)\n",
      "Message('control_change', channel=0, control=64, value=79, time=17)\n",
      "Message('note_on', channel=0, note=69, velocity=78, time=46)\n",
      "Message('control_change', channel=0, control=64, value=81, time=29)\n",
      "Message('note_on', channel=0, note=69, velocity=0, time=32)\n",
      "Message('control_change', channel=0, control=64, value=73, time=65)\n",
      "Message('note_on', channel=0, note=62, velocity=70, time=7)\n",
      "Message('note_on', channel=0, note=60, velocity=79, time=22)\n",
      "Message('control_change', channel=0, control=64, value=48, time=3)\n",
      "Message('control_change', channel=0, control=64, value=0, time=19)\n",
      "Message('note_on', channel=0, note=62, velocity=0, time=13)\n",
      "Message('note_on', channel=0, note=60, velocity=0, time=22)\n",
      "Message('note_on', channel=0, note=64, velocity=71, time=48)\n",
      "Message('note_on', channel=0, note=59, velocity=77, time=1)\n",
      "Message('note_on', channel=0, note=64, velocity=0, time=53)\n",
      "Message('control_change', channel=0, control=67, value=85, time=16)\n",
      "Message('note_on', channel=0, note=59, velocity=0, time=13)\n",
      "Message('note_on', channel=0, note=66, velocity=76, time=22)\n",
      "Message('note_on', channel=0, note=57, velocity=79, time=5)\n",
      "Message('note_on', channel=0, note=57, velocity=0, time=53)\n",
      "Message('note_on', channel=0, note=66, velocity=0, time=9)\n",
      "Message('note_on', channel=0, note=67, velocity=77, time=37)\n",
      "Message('note_on', channel=0, note=55, velocity=77, time=13)\n",
      "Message('note_on', channel=0, note=67, velocity=0, time=47)\n",
      "Message('note_on', channel=0, note=55, velocity=0, time=47)\n",
      "Message('note_on', channel=0, note=54, velocity=74, time=14)\n",
      "Message('note_on', channel=0, note=69, velocity=75, time=2)\n",
      "Message('note_on', channel=0, note=69, velocity=0, time=58)\n",
      "Message('note_on', channel=0, note=54, velocity=0, time=2)\n",
      "Message('note_on', channel=0, note=52, velocity=75, time=41)\n",
      "Message('note_on', channel=0, note=71, velocity=73, time=8)\n",
      "Message('control_change', channel=0, control=67, value=89, time=23)\n",
      "Message('note_on', channel=0, note=52, velocity=0, time=34)\n",
      "Message('note_on', channel=0, note=71, velocity=0, time=16)\n",
      "Message('note_on', channel=0, note=50, velocity=73, time=32)\n",
      "Message('note_on', channel=0, note=72, velocity=74, time=6)\n",
      "Message('note_on', channel=0, note=72, velocity=0, time=38)\n",
      "Message('note_on', channel=0, note=50, velocity=0, time=28)\n",
      "Message('note_on', channel=0, note=57, velocity=69, time=49)\n",
      "Message('note_on', channel=0, note=74, velocity=71, time=1)\n",
      "Message('note_on', channel=0, note=74, velocity=0, time=45)\n",
      "Message('note_on', channel=0, note=57, velocity=0, time=29)\n",
      "Message('control_change', channel=0, control=67, value=93, time=24)\n",
      "Message('note_on', channel=0, note=48, velocity=70, time=9)\n",
      "Message('note_on', channel=0, note=76, velocity=70, time=5)\n",
      "Message('note_on', channel=0, note=76, velocity=0, time=37)\n",
      "Message('note_on', channel=0, note=48, velocity=0, time=10)\n",
      "Message('note_on', channel=0, note=78, velocity=74, time=90)\n",
      "Message('note_on', channel=0, note=57, velocity=63, time=6)\n",
      "Message('note_on', channel=0, note=78, velocity=0, time=19)\n",
      "Message('note_on', channel=0, note=57, velocity=0, time=63)\n",
      "Message('note_on', channel=0, note=79, velocity=68, time=76)\n",
      "Message('note_on', channel=0, note=47, velocity=56, time=4)\n",
      "Message('control_change', channel=0, control=64, value=25, time=17)\n",
      "Message('control_change', channel=0, control=64, value=58, time=19)\n",
      "Message('control_change', channel=0, control=64, value=68, time=19)\n",
      "Message('control_change', channel=0, control=64, value=71, time=19)\n",
      "Message('control_change', channel=0, control=64, value=74, time=37)\n",
      "Message('note_on', channel=0, note=81, velocity=65, time=9)\n",
      "Message('control_change', channel=0, control=64, value=77, time=9)\n",
      "Message('note_on', channel=0, note=79, velocity=0, time=0)\n",
      "Message('control_change', channel=0, control=64, value=79, time=20)\n",
      "Message('control_change', channel=0, control=64, value=82, time=19)\n",
      "Message('control_change', channel=0, control=64, value=84, time=20)\n",
      "Message('note_on', channel=0, note=81, velocity=0, time=21)\n",
      "Message('control_change', channel=0, control=64, value=78, time=17)\n",
      "Message('control_change', channel=0, control=64, value=57, time=18)\n",
      "Message('note_on', channel=0, note=45, velocity=57, time=0)\n",
      "Message('note_on', channel=0, note=74, velocity=67, time=0)\n",
      "Message('note_on', channel=0, note=47, velocity=0, time=15)\n",
      "Message('control_change', channel=0, control=64, value=0, time=3)\n",
      "Message('note_on', channel=0, note=45, velocity=0, time=27)\n",
      "Message('note_on', channel=0, note=74, velocity=0, time=19)\n",
      "Message('note_on', channel=0, note=78, velocity=65, time=36)\n",
      "Message('control_change', channel=0, control=67, value=98, time=32)\n",
      "Message('note_on', channel=0, note=78, velocity=0, time=52)\n",
      "Message('note_on', channel=0, note=79, velocity=68, time=32)\n",
      "Message('note_on', channel=0, note=47, velocity=60, time=15)\n",
      "Message('note_on', channel=0, note=47, velocity=0, time=38)\n",
      "Message('note_on', channel=0, note=79, velocity=0, time=27)\n",
      "Message('note_on', channel=0, note=81, velocity=64, time=40)\n",
      "Message('note_on', channel=0, note=81, velocity=0, time=47)\n",
      "Message('note_on', channel=0, note=74, velocity=65, time=68)\n",
      "Message('note_on', channel=0, note=50, velocity=66, time=3)\n",
      "Message('note_on', channel=0, note=50, velocity=0, time=53)\n",
      "Message('note_on', channel=0, note=74, velocity=0, time=5)\n",
      "Message('note_on', channel=0, note=79, velocity=62, time=58)\n",
      "Message('note_on', channel=0, note=79, velocity=0, time=81)\n",
      "Message('note_on', channel=0, note=71, velocity=68, time=40)\n",
      "Message('note_on', channel=0, note=55, velocity=65, time=1)\n",
      "Message('note_on', channel=0, note=55, velocity=0, time=40)\n",
      "Message('note_on', channel=0, note=71, velocity=0, time=13)\n",
      "Message('note_on', channel=0, note=79, velocity=54, time=67)\n",
      "Message('note_on', channel=0, note=79, velocity=0, time=72)\n",
      "Message('note_on', channel=0, note=47, velocity=64, time=35)\n",
      "Message('note_on', channel=0, note=74, velocity=66, time=2)\n",
      "Message('note_on', channel=0, note=47, velocity=0, time=32)\n",
      "Message('note_on', channel=0, note=74, velocity=0, time=7)\n",
      "Message('note_on', channel=0, note=81, velocity=60, time=76)\n",
      "Message('control_change', channel=0, control=67, value=94, time=17)\n",
      "Message('note_on', channel=0, note=81, velocity=0, time=78)\n",
      "Message('control_change', channel=0, control=64, value=47, time=17)\n",
      "Message('note_on', channel=0, note=79, velocity=64, time=12)\n",
      "Message('note_on', channel=0, note=48, velocity=67, time=2)\n",
      "Message('control_change', channel=0, control=64, value=65, time=5)\n",
      "Message('control_change', channel=0, control=64, value=71, time=20)\n",
      "Message('control_change', channel=0, control=67, value=88, time=2)\n",
      "Message('control_change', channel=0, control=64, value=74, time=33)\n",
      "Message('control_change', channel=0, control=64, value=77, time=39)\n",
      "Message('note_on', channel=0, note=81, velocity=65, time=7)\n",
      "Message('control_change', channel=0, control=67, value=84, time=11)\n",
      "Message('note_on', channel=0, note=79, velocity=0, time=3)\n",
      "Message('control_change', channel=0, control=64, value=79, time=16)\n",
      "Message('control_change', channel=0, control=67, value=78, time=1)\n",
      "Message('control_change', channel=0, control=64, value=70, time=57)\n",
      "Message('note_on', channel=0, note=81, velocity=0, time=1)\n",
      "Message('control_change', channel=0, control=64, value=42, time=17)\n",
      "Message('note_on', channel=0, note=48, velocity=0, time=11)\n",
      "Message('note_on', channel=0, note=50, velocity=76, time=1)\n",
      "Message('note_on', channel=0, note=76, velocity=65, time=0)\n",
      "Message('control_change', channel=0, control=64, value=0, time=6)\n",
      "Message('control_change', channel=0, control=67, value=73, time=2)\n",
      "Message('control_change', channel=0, control=67, value=68, time=19)\n",
      "Message('note_on', channel=0, note=50, velocity=0, time=6)\n",
      "Message('note_on', channel=0, note=76, velocity=0, time=61)\n",
      "Message('note_on', channel=0, note=78, velocity=62, time=30)\n",
      "Message('note_on', channel=0, note=78, velocity=0, time=79)\n",
      "Message('note_on', channel=0, note=79, velocity=74, time=34)\n",
      "Message('note_on', channel=0, note=52, velocity=76, time=2)\n",
      "Message('control_change', channel=0, control=67, value=64, time=8)\n",
      "Message('note_on', channel=0, note=52, velocity=0, time=24)\n",
      "Message('control_change', channel=0, control=67, value=56, time=15)\n",
      "Message('note_on', channel=0, note=79, velocity=0, time=60)\n",
      "Message('note_on', channel=0, note=81, velocity=72, time=8)\n",
      "Message('note_on', channel=0, note=81, velocity=0, time=87)\n",
      "Message('note_on', channel=0, note=76, velocity=77, time=31)\n",
      "Message('note_on', channel=0, note=48, velocity=60, time=14)\n",
      "Message('note_on', channel=0, note=76, velocity=0, time=30)\n",
      "Message('note_on', channel=0, note=48, velocity=0, time=6)\n",
      "Message('note_on', channel=0, note=79, velocity=69, time=66)\n",
      "Message('note_on', channel=0, note=79, velocity=0, time=78)\n",
      "Message('note_on', channel=0, note=45, velocity=64, time=37)\n",
      "Message('note_on', channel=0, note=72, velocity=79, time=4)\n",
      "Message('control_change', channel=0, control=67, value=60, time=14)\n",
      "Message('note_on', channel=0, note=45, velocity=0, time=29)\n",
      "Message('note_on', channel=0, note=72, velocity=0, time=27)\n",
      "Message('note_on', channel=0, note=79, velocity=73, time=33)\n",
      "Message('note_on', channel=0, note=48, velocity=71, time=109)\n",
      "Message('note_on', channel=0, note=76, velocity=80, time=9)\n",
      "Message('note_on', channel=0, note=79, velocity=0, time=4)\n",
      "Message('note_on', channel=0, note=48, velocity=0, time=16)\n",
      "Message('note_on', channel=0, note=76, velocity=0, time=68)\n",
      "Message('note_on', channel=0, note=79, velocity=80, time=30)\n",
      "Message('control_change', channel=0, control=67, value=56, time=103)\n",
      "Message('note_on', channel=0, note=50, velocity=72, time=8)\n",
      "Message('note_on', channel=0, note=78, velocity=83, time=11)\n",
      "Message('note_on', channel=0, note=79, velocity=0, time=7)\n",
      "Message('note_on', channel=0, note=78, velocity=0, time=90)\n",
      "Message('note_on', channel=0, note=79, velocity=84, time=14)\n",
      "Message('note_on', channel=0, note=50, velocity=0, time=113)\n",
      "Message('note_on', channel=0, note=81, velocity=80, time=7)\n",
      "Message('note_on', channel=0, note=52, velocity=72, time=1)\n",
      "Message('note_on', channel=0, note=79, velocity=0, time=4)\n",
      "Message('note_on', channel=0, note=52, velocity=0, time=35)\n",
      "Message('note_on', channel=0, note=78, velocity=79, time=73)\n",
      "Message('note_on', channel=0, note=81, velocity=0, time=11)\n",
      "Message('note_on', channel=0, note=78, velocity=0, time=89)\n",
      "Message('note_on', channel=0, note=54, velocity=68, time=19)\n",
      "Message('note_on', channel=0, note=72, velocity=77, time=1)\n",
      "Message('note_on', channel=0, note=72, velocity=0, time=74)\n",
      "Message('note_on', channel=0, note=76, velocity=66, time=37)\n",
      "Message('control_change', channel=0, control=64, value=28, time=103)\n",
      "Message('control_change', channel=0, control=67, value=60, time=1)\n",
      "Message('note_on', channel=0, note=74, velocity=80, time=3)\n",
      "Message('note_on', channel=0, note=55, velocity=72, time=12)\n",
      "Message('control_change', channel=0, control=64, value=35, time=3)\n",
      "Message('note_on', channel=0, note=54, velocity=0, time=12)\n",
      "Message('note_on', channel=0, note=76, velocity=0, time=4)\n",
      "Message('control_change', channel=0, control=64, value=19, time=23)\n",
      "Message('control_change', channel=0, control=64, value=0, time=18)\n",
      "Message('note_on', channel=0, note=74, velocity=0, time=16)\n",
      "Message('note_on', channel=0, note=72, velocity=72, time=11)\n",
      "Message('note_on', channel=0, note=72, velocity=0, time=135)\n",
      "Message('control_change', channel=0, control=64, value=11, time=22)\n",
      "Message('note_on', channel=0, note=50, velocity=72, time=2)\n",
      "Message('note_on', channel=0, note=71, velocity=75, time=6)\n",
      "Message('note_on', channel=0, note=55, velocity=0, time=3)\n",
      "Message('control_change', channel=0, control=64, value=0, time=26)\n",
      "Message('note_on', channel=0, note=71, velocity=0, time=60)\n",
      "Message('note_on', channel=0, note=79, velocity=65, time=31)\n",
      "Message('control_change', channel=0, control=64, value=15, time=25)\n",
      "Message('control_change', channel=0, control=64, value=0, time=18)\n",
      "Message('control_change', channel=0, control=67, value=65, time=18)\n",
      "Message('control_change', channel=0, control=67, value=69, time=18)\n",
      "Message('note_on', channel=0, note=79, velocity=0, time=38)\n",
      "Message('control_change', channel=0, control=64, value=32, time=1)\n",
      "Message('note_on', channel=0, note=60, velocity=61, time=7)\n",
      "Message('control_change', channel=0, control=64, value=53, time=9)\n",
      "Message('note_on', channel=0, note=69, velocity=65, time=1)\n",
      "Message('control_change', channel=0, control=64, value=63, time=19)\n",
      "Message('control_change', channel=0, control=64, value=64, time=19)\n",
      "Message('control_change', channel=0, control=64, value=61, time=20)\n",
      "Message('control_change', channel=0, control=64, value=59, time=18)\n",
      "Message('control_change', channel=0, control=67, value=75, time=2)\n",
      "Message('control_change', channel=0, control=64, value=61, time=19)\n",
      "Message('note_on', channel=0, note=69, velocity=0, time=2)\n",
      "Message('note_on', channel=0, note=50, velocity=0, time=14)\n",
      "Message('control_change', channel=0, control=64, value=65, time=1)\n",
      "Message('note_on', channel=0, note=78, velocity=67, time=5)\n",
      "Message('control_change', channel=0, control=64, value=68, time=15)\n",
      "Message('control_change', channel=0, control=64, value=70, time=20)\n",
      "Message('control_change', channel=0, control=64, value=62, time=37)\n",
      "Message('control_change', channel=0, control=64, value=55, time=18)\n",
      "Message('control_change', channel=0, control=67, value=81, time=1)\n",
      "Message('control_change', channel=0, control=64, value=53, time=19)\n",
      "Message('note_on', channel=0, note=60, velocity=0, time=8)\n",
      "Message('control_change', channel=0, control=64, value=55, time=7)\n",
      "Message('note_on', channel=0, note=79, velocity=65, time=15)\n",
      "Message('note_on', channel=0, note=78, velocity=0, time=8)\n",
      "Message('note_on', channel=0, note=59, velocity=58, time=3)\n",
      "Message('control_change', channel=0, control=64, value=50, time=14)\n",
      "Message('control_change', channel=0, control=64, value=29, time=19)\n",
      "Message('control_change', channel=0, control=64, value=0, time=20)\n",
      "Message('control_change', channel=0, control=67, value=86, time=19)\n",
      "Message('control_change', channel=0, control=64, value=18, time=18)\n",
      "Message('control_change', channel=0, control=64, value=37, time=20)\n",
      "Message('control_change', channel=0, control=64, value=46, time=16)\n",
      "Message('control_change', channel=0, control=64, value=42, time=39)\n",
      "Message('control_change', channel=0, control=67, value=91, time=39)\n",
      "Message('control_change', channel=0, control=64, value=44, time=20)\n",
      "Message('note_on', channel=0, note=59, velocity=0, time=131)\n",
      "Message('note_on', channel=0, note=55, velocity=56, time=5)\n",
      "Message('note_on', channel=0, note=79, velocity=0, time=3)\n",
      "Message('note_on', channel=0, note=78, velocity=58, time=7)\n",
      "Message('note_on', channel=0, note=76, velocity=57, time=127)\n",
      "Message('note_on', channel=0, note=78, velocity=0, time=4)\n",
      "Message('note_on', channel=0, note=76, velocity=0, time=106)\n",
      "Message('note_on', channel=0, note=59, velocity=52, time=14)\n",
      "Message('control_change', channel=0, control=67, value=96, time=13)\n",
      "Message('note_on', channel=0, note=74, velocity=56, time=8)\n",
      "Message('note_on', channel=0, note=59, velocity=0, time=27)\n",
      "Message('note_on', channel=0, note=74, velocity=0, time=39)\n",
      "Message('control_change', channel=0, control=64, value=42, time=19)\n",
      "Message('control_change', channel=0, control=67, value=101, time=22)\n",
      "Message('note_on', channel=0, note=72, velocity=55, time=4)\n",
      "Message('control_change', channel=0, control=67, value=107, time=12)\n",
      "Message('note_on', channel=0, note=72, velocity=0, time=83)\n",
      "Message('control_change', channel=0, control=67, value=113, time=31)\n",
      "Message('note_on', channel=0, note=62, velocity=52, time=2)\n",
      "Message('note_on', channel=0, note=71, velocity=57, time=13)\n",
      "Message('control_change', channel=0, control=67, value=117, time=3)\n",
      "Message('note_on', channel=0, note=62, velocity=0, time=40)\n",
      "Message('note_on', channel=0, note=71, velocity=0, time=8)\n",
      "Message('control_change', channel=0, control=67, value=121, time=68)\n",
      "Message('note_on', channel=0, note=69, velocity=57, time=27)\n",
      "Message('control_change', channel=0, control=64, value=40, time=46)\n",
      "Message('control_change', channel=0, control=67, value=126, time=58)\n",
      "Message('note_on', channel=0, note=69, velocity=0, time=129)\n",
      "Message('note_on', channel=0, note=67, velocity=45, time=61)\n",
      "Message('control_change', channel=0, control=64, value=36, time=14)\n",
      "Message('control_change', channel=0, control=64, value=31, time=38)\n",
      "Message('control_change', channel=0, control=64, value=23, time=19)\n",
      "Message('control_change', channel=0, control=64, value=0, time=18)\n",
      "Message('control_change', channel=0, control=64, value=13, time=340)\n",
      "Message('control_change', channel=0, control=64, value=19, time=21)\n",
      "Message('control_change', channel=0, control=64, value=23, time=18)\n",
      "Message('control_change', channel=0, control=64, value=28, time=16)\n",
      "Message('control_change', channel=0, control=64, value=33, time=20)\n",
      "Message('control_change', channel=0, control=64, value=38, time=19)\n",
      "Message('control_change', channel=0, control=64, value=43, time=19)\n",
      "Message('control_change', channel=0, control=64, value=47, time=18)\n",
      "Message('control_change', channel=0, control=64, value=50, time=19)\n",
      "Message('control_change', channel=0, control=64, value=52, time=20)\n",
      "Message('control_change', channel=0, control=64, value=56, time=36)\n",
      "Message('control_change', channel=0, control=64, value=59, time=39)\n",
      "Message('control_change', channel=0, control=64, value=61, time=20)\n",
      "Message('control_change', channel=0, control=64, value=62, time=16)\n",
      "Message('control_change', channel=0, control=64, value=63, time=20)\n",
      "Message('control_change', channel=0, control=64, value=65, time=19)\n",
      "Message('control_change', channel=0, control=64, value=66, time=19)\n",
      "Message('control_change', channel=0, control=64, value=67, time=17)\n",
      "Message('control_change', channel=0, control=64, value=69, time=39)\n",
      "Message('control_change', channel=0, control=64, value=72, time=74)\n",
      "Message('control_change', channel=0, control=64, value=75, time=37)\n",
      "Message('control_change', channel=0, control=64, value=78, time=37)\n",
      "Message('control_change', channel=0, control=64, value=82, time=38)\n",
      "Message('control_change', channel=0, control=64, value=84, time=21)\n",
      "Message('control_change', channel=0, control=64, value=87, time=16)\n",
      "Message('control_change', channel=0, control=64, value=93, time=38)\n",
      "Message('control_change', channel=0, control=64, value=98, time=39)\n",
      "Message('control_change', channel=0, control=64, value=102, time=112)\n",
      "Message('note_on', channel=0, note=55, velocity=0, time=186)\n",
      "Message('note_on', channel=0, note=67, velocity=0, time=47)\n",
      "Message('control_change', channel=0, control=64, value=97, time=164)\n",
      "Message('control_change', channel=0, control=64, value=92, time=36)\n",
      "Message('control_change', channel=0, control=64, value=88, time=21)\n",
      "Message('control_change', channel=0, control=64, value=82, time=18)\n",
      "Message('control_change', channel=0, control=64, value=77, time=19)\n",
      "Message('control_change', channel=0, control=64, value=74, time=19)\n",
      "Message('control_change', channel=0, control=64, value=72, time=18)\n",
      "Message('control_change', channel=0, control=64, value=69, time=38)\n",
      "Message('control_change', channel=0, control=64, value=68, time=19)\n",
      "Message('control_change', channel=0, control=64, value=67, time=35)\n",
      "Message('control_change', channel=0, control=64, value=66, time=18)\n",
      "Message('control_change', channel=0, control=64, value=65, time=20)\n",
      "Message('control_change', channel=0, control=64, value=62, time=19)\n",
      "Message('control_change', channel=0, control=64, value=60, time=19)\n",
      "Message('control_change', channel=0, control=64, value=56, time=17)\n",
      "Message('control_change', channel=0, control=64, value=53, time=20)\n",
      "Message('control_change', channel=0, control=64, value=55, time=264)\n",
      "Message('control_change', channel=0, control=64, value=58, time=56)\n",
      "Message('control_change', channel=0, control=64, value=60, time=78)\n",
      "Message('control_change', channel=0, control=64, value=61, time=36)\n",
      "Message('control_change', channel=0, control=64, value=62, time=39)\n",
      "Message('control_change', channel=0, control=64, value=63, time=73)\n",
      "Message('control_change', channel=0, control=64, value=64, time=38)\n",
      "Message('control_change', channel=0, control=64, value=65, time=76)\n",
      "Message('control_change', channel=0, control=64, value=66, time=39)\n",
      "Message('control_change', channel=0, control=64, value=68, time=38)\n",
      "Message('control_change', channel=0, control=64, value=70, time=56)\n",
      "Message('control_change', channel=0, control=64, value=72, time=52)\n",
      "Message('control_change', channel=0, control=64, value=74, time=39)\n",
      "Message('control_change', channel=0, control=64, value=76, time=55)\n",
      "Message('control_change', channel=0, control=64, value=78, time=38)\n",
      "Message('control_change', channel=0, control=64, value=81, time=37)\n",
      "Message('control_change', channel=0, control=64, value=84, time=39)\n",
      "Message('control_change', channel=0, control=64, value=86, time=57)\n",
      "Message('control_change', channel=0, control=64, value=90, time=94)\n",
      "Message('note_on', channel=0, note=71, velocity=67, time=726)\n",
      "Message('note_on', channel=0, note=43, velocity=48, time=18)\n",
      "Message('control_change', channel=0, control=64, value=88, time=25)\n",
      "Message('control_change', channel=0, control=64, value=86, time=20)\n",
      "Message('control_change', channel=0, control=64, value=82, time=18)\n",
      "Message('note_on', channel=0, note=71, velocity=0, time=14)\n",
      "Message('control_change', channel=0, control=64, value=76, time=5)\n",
      "Message('note_on', channel=0, note=69, velocity=63, time=6)\n",
      "Message('control_change', channel=0, control=64, value=69, time=14)\n",
      "Message('control_change', channel=0, control=64, value=62, time=18)\n",
      "Message('control_change', channel=0, control=64, value=58, time=21)\n",
      "Message('note_on', channel=0, note=69, velocity=0, time=34)\n",
      "Message('control_change', channel=0, control=64, value=55, time=3)\n",
      "Message('control_change', channel=0, control=64, value=50, time=17)\n",
      "Message('note_on', channel=0, note=71, velocity=63, time=12)\n",
      "Message('control_change', channel=0, control=64, value=38, time=8)\n",
      "Message('control_change', channel=0, control=64, value=18, time=19)\n",
      "Message('control_change', channel=0, control=64, value=13, time=18)\n",
      "Message('control_change', channel=0, control=64, value=23, time=151)\n",
      "Message('control_change', channel=0, control=64, value=28, time=19)\n",
      "Message('control_change', channel=0, control=64, value=32, time=39)\n",
      "Message('control_change', channel=0, control=64, value=36, time=36)\n",
      "Message('control_change', channel=0, control=64, value=41, time=57)\n",
      "Message('control_change', channel=0, control=64, value=43, time=114)\n",
      "Message('control_change', channel=0, control=64, value=40, time=242)\n",
      "Message('control_change', channel=0, control=64, value=36, time=37)\n",
      "Message('control_change', channel=0, control=64, value=31, time=37)\n",
      "Message('note_on', channel=0, note=55, velocity=51, time=13)\n",
      "Message('control_change', channel=0, control=64, value=23, time=8)\n",
      "Message('control_change', channel=0, control=64, value=0, time=39)\n",
      "Message('note_on', channel=0, note=43, velocity=0, time=105)\n",
      "Message('control_change', channel=0, control=64, value=23, time=44)\n",
      "Message('control_change', channel=0, control=64, value=36, time=18)\n",
      "Message('control_change', channel=0, control=64, value=46, time=17)\n",
      "Message('control_change', channel=0, control=64, value=53, time=21)\n",
      "Message('control_change', channel=0, control=64, value=58, time=18)\n",
      "Message('control_change', channel=0, control=64, value=62, time=21)\n",
      "Message('control_change', channel=0, control=64, value=66, time=18)\n",
      "Message('control_change', channel=0, control=64, value=69, time=20)\n",
      "Message('control_change', channel=0, control=64, value=71, time=19)\n",
      "Message('control_change', channel=0, control=64, value=73, time=18)\n",
      "Message('control_change', channel=0, control=64, value=75, time=18)\n",
      "Message('control_change', channel=0, control=64, value=78, time=19)\n",
      "Message('control_change', channel=0, control=64, value=81, time=20)\n",
      "Message('note_on', channel=0, note=72, velocity=65, time=11)\n",
      "Message('control_change', channel=0, control=64, value=85, time=4)\n",
      "Message('control_change', channel=0, control=64, value=90, time=21)\n",
      "Message('note_on', channel=0, note=71, velocity=0, time=13)\n",
      "Message('control_change', channel=0, control=64, value=96, time=5)\n",
      "Message('control_change', channel=0, control=64, value=103, time=20)\n",
      "Message('control_change', channel=0, control=64, value=110, time=19)\n",
      "Message('control_change', channel=0, control=64, value=115, time=20)\n",
      "Message('control_change', channel=0, control=64, value=120, time=19)\n",
      "Message('control_change', channel=0, control=64, value=124, time=39)\n",
      "Message('control_change', channel=0, control=64, value=115, time=278)\n",
      "Message('control_change', channel=0, control=64, value=99, time=19)\n",
      "Message('note_on', channel=0, note=52, velocity=55, time=6)\n",
      "Message('control_change', channel=0, control=64, value=77, time=12)\n",
      "Message('control_change', channel=0, control=64, value=56, time=18)\n",
      "Message('note_on', channel=0, note=71, velocity=71, time=2)\n",
      "Message('control_change', channel=0, control=64, value=44, time=17)\n",
      "Message('control_change', channel=0, control=64, value=48, time=38)\n",
      "Message('note_on', channel=0, note=72, velocity=0, time=1)\n",
      "Message('control_change', channel=0, control=64, value=53, time=20)\n",
      "Message('control_change', channel=0, control=64, value=58, time=18)\n",
      "Message('control_change', channel=0, control=64, value=62, time=17)\n",
      "Message('control_change', channel=0, control=64, value=64, time=21)\n",
      "Message('note_on', channel=0, note=71, velocity=0, time=4)\n",
      "Message('note_on', channel=0, note=69, velocity=65, time=16)\n",
      "Message('note_on', channel=0, note=69, velocity=0, time=54)\n",
      "Message('control_change', channel=0, control=64, value=63, time=1)\n",
      "Message('note_on', channel=0, note=71, velocity=67, time=7)\n",
      "Message('control_change', channel=0, control=64, value=62, time=11)\n",
      "Message('control_change', channel=0, control=64, value=61, time=19)\n",
      "Message('control_change', channel=0, control=64, value=60, time=18)\n",
      "Message('note_on', channel=0, note=69, velocity=65, time=8)\n",
      "Message('note_on', channel=0, note=71, velocity=0, time=1)\n",
      "Message('control_change', channel=0, control=64, value=58, time=11)\n",
      "Message('control_change', channel=0, control=64, value=53, time=19)\n",
      "Message('control_change', channel=0, control=64, value=47, time=21)\n",
      "Message('control_change', channel=0, control=64, value=42, time=17)\n",
      "Message('control_change', channel=0, control=64, value=47, time=151)\n",
      "Message('control_change', channel=0, control=64, value=50, time=17)\n",
      "Message('note_on', channel=0, note=69, velocity=0, time=161)\n",
      "Message('note_on', channel=0, note=67, velocity=59, time=17)\n",
      "Message('control_change', channel=0, control=64, value=48, time=87)\n",
      "Message('control_change', channel=0, control=64, value=44, time=54)\n",
      "Message('control_change', channel=0, control=64, value=40, time=21)\n",
      "Message('note_on', channel=0, note=47, velocity=49, time=11)\n",
      "Message('control_change', channel=0, control=64, value=33, time=5)\n",
      "Message('note_on', channel=0, note=67, velocity=0, time=0)\n",
      "Message('note_on', channel=0, note=74, velocity=67, time=1)\n",
      "Message('note_on', channel=0, note=52, velocity=0, time=13)\n",
      "Message('control_change', channel=0, control=64, value=11, time=4)\n",
      "Message('control_change', channel=0, control=64, value=0, time=20)\n",
      "Message('control_change', channel=0, control=64, value=23, time=190)\n",
      "Message('control_change', channel=0, control=64, value=49, time=19)\n",
      "Message('control_change', channel=0, control=64, value=63, time=18)\n",
      "Message('control_change', channel=0, control=64, value=71, time=18)\n",
      "Message('control_change', channel=0, control=64, value=77, time=20)\n",
      "Message('control_change', channel=0, control=64, value=83, time=19)\n",
      "Message('control_change', channel=0, control=64, value=91, time=18)\n",
      "Message('control_change', channel=0, control=64, value=98, time=18)\n",
      "Message('control_change', channel=0, control=64, value=104, time=19)\n",
      "Message('control_change', channel=0, control=64, value=108, time=20)\n",
      "Message('control_change', channel=0, control=64, value=114, time=38)\n",
      "Message('control_change', channel=0, control=67, value=122, time=39)\n",
      "Message('control_change', channel=0, control=64, value=118, time=16)\n",
      "Message('control_change', channel=0, control=64, value=122, time=58)\n",
      "Message('note_on', channel=0, note=74, velocity=0, time=11)\n",
      "Message('control_change', channel=0, control=64, value=126, time=64)\n",
      "Message('control_change', channel=0, control=64, value=122, time=133)\n",
      "Message('note_on', channel=0, note=47, velocity=0, time=16)\n",
      "Message('control_change', channel=0, control=64, value=112, time=4)\n",
      "Message('note_on', channel=0, note=74, velocity=79, time=6)\n",
      "Message('control_change', channel=0, control=64, value=97, time=11)\n",
      "Message('note_on', channel=0, note=48, velocity=52, time=15)\n",
      "Message('control_change', channel=0, control=64, value=84, time=1)\n",
      "Message('control_change', channel=0, control=64, value=78, time=21)\n",
      "Message('control_change', channel=0, control=64, value=82, time=39)\n",
      "Message('control_change', channel=0, control=64, value=87, time=35)\n",
      "Message('control_change', channel=0, control=64, value=91, time=18)\n",
      "Message('control_change', channel=0, control=64, value=95, time=20)\n",
      "Message('note_on', channel=0, note=55, velocity=0, time=50)\n",
      "Message('note_on', channel=0, note=74, velocity=0, time=44)\n",
      "Message('note_on', channel=0, note=76, velocity=69, time=5)\n",
      "Message('note_on', channel=0, note=76, velocity=0, time=82)\n",
      "Message('note_on', channel=0, note=74, velocity=70, time=9)\n",
      "Message('control_change', channel=0, control=64, value=82, time=17)\n",
      "Message('control_change', channel=0, control=64, value=69, time=19)\n",
      "Message('control_change', channel=0, control=64, value=57, time=18)\n",
      "Message('control_change', channel=0, control=64, value=46, time=20)\n",
      "Message('note_on', channel=0, note=74, velocity=0, time=1)\n",
      "Message('control_change', channel=0, control=64, value=23, time=16)\n",
      "Message('note_on', channel=0, note=55, velocity=51, time=6)\n",
      "Message('note_on', channel=0, note=76, velocity=73, time=0)\n",
      "Message('control_change', channel=0, control=64, value=0, time=13)\n",
      "Message('note_on', channel=0, note=55, velocity=0, time=142)\n",
      "Message('control_change', channel=0, control=64, value=9, time=160)\n",
      "Message('note_on', channel=0, note=57, velocity=52, time=92)\n",
      "Message('control_change', channel=0, control=64, value=13, time=3)\n",
      "Message('control_change', channel=0, control=64, value=18, time=39)\n",
      "Message('note_on', channel=0, note=57, velocity=0, time=130)\n",
      "Message('control_change', channel=0, control=64, value=0, time=169)\n",
      "Message('control_change', channel=0, control=64, value=19, time=92)\n",
      "Message('note_on', channel=0, note=59, velocity=58, time=12)\n",
      "Message('control_change', channel=0, control=64, value=40, time=4)\n",
      "Message('control_change', channel=0, control=64, value=56, time=23)\n",
      "Message('control_change', channel=0, control=64, value=66, time=19)\n",
      "Message('control_change', channel=0, control=64, value=74, time=20)\n",
      "Message('control_change', channel=0, control=64, value=81, time=18)\n",
      "Message('control_change', channel=0, control=64, value=89, time=17)\n",
      "Message('control_change', channel=0, control=64, value=99, time=21)\n",
      "Message('control_change', channel=0, control=64, value=108, time=17)\n",
      "Message('note_on', channel=0, note=48, velocity=0, time=8)\n",
      "Message('control_change', channel=0, control=64, value=115, time=11)\n",
      "Message('note_on', channel=0, note=59, velocity=0, time=1)\n",
      "Message('control_change', channel=0, control=64, value=120, time=18)\n",
      "Message('control_change', channel=0, control=64, value=124, time=38)\n",
      "Message('note_on', channel=0, note=76, velocity=0, time=13)\n",
      "Message('control_change', channel=0, control=64, value=117, time=287)\n",
      "Message('note_on', channel=0, note=60, velocity=45, time=0)\n",
      "Message('note_on', channel=0, note=57, velocity=45, time=4)\n",
      "Message('control_change', channel=0, control=64, value=104, time=16)\n",
      "Message('note_on', channel=0, note=67, velocity=64, time=5)\n",
      "Message('control_change', channel=0, control=64, value=89, time=15)\n",
      "Message('control_change', channel=0, control=64, value=74, time=18)\n",
      "Message('control_change', channel=0, control=64, value=59, time=18)\n",
      "Message('control_change', channel=0, control=64, value=44, time=20)\n",
      "Message('control_change', channel=0, control=64, value=40, time=19)\n",
      "Message('note_on', channel=0, note=67, velocity=0, time=384)\n",
      "Message('note_on', channel=0, note=66, velocity=56, time=4)\n",
      "Message('control_change', channel=0, control=64, value=43, time=117)\n",
      "Message('note_on', channel=0, note=57, velocity=0, time=33)\n",
      "Message('control_change', channel=0, control=64, value=46, time=5)\n",
      "Message('control_change', channel=0, control=64, value=48, time=58)\n",
      "Message('note_on', channel=0, note=57, velocity=51, time=211)\n",
      "Message('control_change', channel=0, control=64, value=46, time=14)\n",
      "Message('note_on', channel=0, note=54, velocity=46, time=4)\n",
      "Message('note_on', channel=0, note=60, velocity=0, time=24)\n",
      "Message('control_change', channel=0, control=64, value=44, time=384)\n",
      "Message('control_change', channel=0, control=64, value=37, time=18)\n",
      "Message('note_on', channel=0, note=72, velocity=74, time=3)\n",
      "Message('control_change', channel=0, control=64, value=19, time=18)\n",
      "Message('control_change', channel=0, control=64, value=0, time=17)\n",
      "Message('note_on', channel=0, note=66, velocity=0, time=3)\n",
      "Message('control_change', channel=0, control=64, value=29, time=74)\n",
      "Message('control_change', channel=0, control=64, value=55, time=18)\n",
      "Message('control_change', channel=0, control=64, value=68, time=19)\n",
      "Message('control_change', channel=0, control=64, value=78, time=19)\n",
      "Message('control_change', channel=0, control=64, value=86, time=20)\n",
      "Message('control_change', channel=0, control=64, value=95, time=17)\n",
      "Message('control_change', channel=0, control=64, value=103, time=19)\n",
      "Message('control_change', channel=0, control=64, value=109, time=20)\n",
      "Message('control_change', channel=0, control=64, value=113, time=57)\n",
      "Message('note_on', channel=0, note=72, velocity=0, time=44)\n",
      "Message('note_on', channel=0, note=55, velocity=52, time=117)\n",
      "Message('note_on', channel=0, note=54, velocity=0, time=24)\n",
      "Message('control_change', channel=0, control=64, value=105, time=2)\n",
      "Message('note_on', channel=0, note=72, velocity=63, time=4)\n",
      "Message('control_change', channel=0, control=64, value=89, time=15)\n",
      "Message('note_on', channel=0, note=57, velocity=0, time=4)\n",
      "Message('control_change', channel=0, control=64, value=70, time=15)\n",
      "Message('control_change', channel=0, control=64, value=54, time=17)\n",
      "Message('note_on', channel=0, note=72, velocity=0, time=3)\n",
      "Message('note_on', channel=0, note=71, velocity=65, time=11)\n",
      "Message('control_change', channel=0, control=64, value=43, time=7)\n",
      "Message('control_change', channel=0, control=64, value=39, time=19)\n",
      "Message('note_on', channel=0, note=71, velocity=0, time=24)\n",
      "Message('note_on', channel=0, note=72, velocity=71, time=12)\n",
      "Message('note_on', channel=0, note=72, velocity=0, time=65)\n",
      "Message('note_on', channel=0, note=71, velocity=61, time=13)\n",
      "Message('control_change', channel=0, control=64, value=35, time=109)\n",
      "Message('control_change', channel=0, control=64, value=26, time=38)\n",
      "Message('control_change', channel=0, control=64, value=33, time=132)\n",
      "Message('control_change', channel=0, control=64, value=40, time=18)\n",
      "Message('control_change', channel=0, control=64, value=48, time=20)\n",
      "Message('control_change', channel=0, control=64, value=54, time=19)\n",
      "Message('control_change', channel=0, control=64, value=57, time=19)\n",
      "Message('control_change', channel=0, control=64, value=59, time=19)\n",
      "Message('control_change', channel=0, control=64, value=60, time=37)\n",
      "Message('control_change', channel=0, control=64, value=61, time=56)\n",
      "Message('note_on', channel=0, note=69, velocity=61, time=87)\n",
      "Message('note_on', channel=0, note=71, velocity=0, time=47)\n",
      "Message('note_on', channel=0, note=69, velocity=0, time=27)\n",
      "Message('control_change', channel=0, control=64, value=60, time=103)\n",
      "Message('control_change', channel=0, control=64, value=58, time=19)\n",
      "Message('control_change', channel=0, control=64, value=56, time=19)\n",
      "Message('note_on', channel=0, note=69, velocity=66, time=13)\n",
      "Message('control_change', channel=0, control=64, value=53, time=9)\n",
      "Message('note_on', channel=0, note=50, velocity=49, time=8)\n",
      "Message('control_change', channel=0, control=64, value=49, time=8)\n",
      "Message('control_change', channel=0, control=64, value=45, time=20)\n",
      "Message('control_change', channel=0, control=64, value=43, time=19)\n",
      "Message('control_change', channel=0, control=64, value=35, time=92)\n",
      "Message('note_on', channel=0, note=52, velocity=56, time=291)\n",
      "Message('note_on', channel=0, note=55, velocity=0, time=101)\n",
      "Message('note_on', channel=0, note=52, velocity=0, time=49)\n",
      "Message('note_on', channel=0, note=54, velocity=53, time=277)\n",
      "Message('note_on', channel=0, note=54, velocity=0, time=139)\n",
      "Message('note_on', channel=0, note=57, velocity=55, time=302)\n",
      "Message('note_on', channel=0, note=57, velocity=0, time=135)\n",
      "Message('control_change', channel=0, control=64, value=25, time=246)\n",
      "Message('control_change', channel=0, control=64, value=0, time=20)\n",
      "Message('note_on', channel=0, note=62, velocity=48, time=61)\n",
      "Message('control_change', channel=0, control=64, value=25, time=53)\n",
      "Message('control_change', channel=0, control=64, value=40, time=19)\n",
      "Message('control_change', channel=0, control=64, value=54, time=18)\n",
      "Message('control_change', channel=0, control=64, value=62, time=19)\n",
      "Message('note_on', channel=0, note=50, velocity=0, time=6)\n",
      "Message('control_change', channel=0, control=64, value=67, time=13)\n",
      "Message('control_change', channel=0, control=64, value=71, time=16)\n",
      "Message('control_change', channel=0, control=64, value=73, time=21)\n",
      "Message('control_change', channel=0, control=64, value=77, time=17)\n",
      "Message('control_change', channel=0, control=64, value=81, time=21)\n",
      "Message('control_change', channel=0, control=64, value=87, time=18)\n",
      "Message('control_change', channel=0, control=64, value=94, time=21)\n",
      "Message('control_change', channel=0, control=64, value=101, time=18)\n",
      "Message('control_change', channel=0, control=64, value=107, time=20)\n",
      "Message('control_change', channel=0, control=64, value=112, time=17)\n",
      "Message('control_change', channel=0, control=64, value=117, time=58)\n",
      "Message('control_change', channel=0, control=64, value=121, time=52)\n",
      "Message('note_on', channel=0, note=50, velocity=51, time=110)\n",
      "Message('control_change', channel=0, control=64, value=109, time=4)\n",
      "Message('control_change', channel=0, control=64, value=96, time=20)\n",
      "Message('control_change', channel=0, control=64, value=87, time=17)\n",
      "Message('note_on', channel=0, note=69, velocity=0, time=20)\n",
      "Message('control_change', channel=0, control=64, value=93, time=37)\n",
      "Message('control_change', channel=0, control=64, value=99, time=18)\n",
      "Message('control_change', channel=0, control=64, value=105, time=19)\n",
      "Message('control_change', channel=0, control=64, value=109, time=19)\n",
      "Message('note_on', channel=0, note=50, velocity=0, time=58)\n",
      "Message('control_change', channel=0, control=64, value=113, time=93)\n",
      "Message('control_change', channel=0, control=64, value=104, time=269)\n",
      "Message('control_change', channel=0, control=64, value=93, time=16)\n",
      "Message('note_on', channel=0, note=62, velocity=0, time=13)\n",
      "Message('note_on', channel=0, note=48, velocity=52, time=2)\n",
      "Message('control_change', channel=0, control=64, value=79, time=4)\n",
      "Message('control_change', channel=0, control=64, value=66, time=19)\n",
      "Message('note_on', channel=0, note=78, velocity=71, time=0)\n",
      "Message('control_change', channel=0, control=64, value=56, time=20)\n",
      "Message('control_change', channel=0, control=64, value=51, time=19)\n",
      "Message('note_on', channel=0, note=78, velocity=0, time=57)\n",
      "Message('note_on', channel=0, note=76, velocity=73, time=2)\n",
      "Message('control_change', channel=0, control=64, value=48, time=34)\n",
      "Message('note_on', channel=0, note=76, velocity=0, time=59)\n",
      "Message('note_on', channel=0, note=78, velocity=80, time=16)\n",
      "Message('control_change', channel=0, control=64, value=44, time=625)\n",
      "Message('control_change', channel=0, control=64, value=37, time=17)\n",
      "Message('control_change', channel=0, control=64, value=11, time=20)\n",
      "Message('control_change', channel=0, control=64, value=0, time=18)\n",
      "Message('note_on', channel=0, note=57, velocity=48, time=46)\n",
      "Message('control_change', channel=0, control=64, value=22, time=142)\n",
      "Message('control_change', channel=0, control=64, value=36, time=19)\n",
      "Message('control_change', channel=0, control=64, value=47, time=19)\n",
      "Message('control_change', channel=0, control=64, value=55, time=19)\n",
      "Message('control_change', channel=0, control=64, value=60, time=20)\n",
      "Message('control_change', channel=0, control=64, value=65, time=32)\n",
      "Message('control_change', channel=0, control=64, value=69, time=19)\n",
      "Message('control_change', channel=0, control=64, value=72, time=19)\n",
      "Message('control_change', channel=0, control=64, value=75, time=20)\n",
      "Message('control_change', channel=0, control=64, value=78, time=19)\n",
      "Message('control_change', channel=0, control=64, value=82, time=19)\n",
      "Message('note_on', channel=0, note=48, velocity=0, time=14)\n",
      "Message('control_change', channel=0, control=64, value=86, time=5)\n",
      "Message('control_change', channel=0, control=64, value=92, time=21)\n",
      "Message('control_change', channel=0, control=64, value=99, time=16)\n",
      "Message('control_change', channel=0, control=64, value=107, time=19)\n",
      "Message('control_change', channel=0, control=64, value=113, time=19)\n",
      "Message('control_change', channel=0, control=64, value=118, time=21)\n",
      "Message('note_on', channel=0, note=79, velocity=76, time=1)\n",
      "Message('note_on', channel=0, note=78, velocity=0, time=8)\n",
      "Message('control_change', channel=0, control=64, value=122, time=26)\n",
      "Message('control_change', channel=0, control=64, value=127, time=77)\n",
      "Message('note_on', channel=0, note=48, velocity=55, time=315)\n",
      "Message('control_change', channel=0, control=64, value=112, time=4)\n",
      "Message('control_change', channel=0, control=64, value=85, time=20)\n",
      "Message('control_change', channel=0, control=64, value=53, time=22)\n",
      "Message('note_on', channel=0, note=78, velocity=72, time=4)\n",
      "Message('control_change', channel=0, control=64, value=0, time=10)\n",
      "Message('control_change', channel=0, control=64, value=25, time=40)\n",
      "Message('note_on', channel=0, note=79, velocity=0, time=8)\n",
      "Message('control_change', channel=0, control=64, value=46, time=8)\n",
      "Message('control_change', channel=0, control=64, value=57, time=22)\n",
      "Message('note_on', channel=0, note=78, velocity=0, time=8)\n",
      "Message('control_change', channel=0, control=64, value=62, time=10)\n",
      "Message('note_on', channel=0, note=76, velocity=71, time=14)\n",
      "Message('note_on', channel=0, note=78, velocity=69, time=51)\n",
      "Message('note_on', channel=0, note=76, velocity=0, time=1)\n",
      "Message('control_change', channel=0, control=64, value=63, time=8)\n",
      "Message('control_change', channel=0, control=64, value=59, time=59)\n",
      "Message('note_on', channel=0, note=76, velocity=71, time=1)\n",
      "Message('note_on', channel=0, note=78, velocity=0, time=19)\n",
      "Message('control_change', channel=0, control=64, value=53, time=12)\n",
      "Message('control_change', channel=0, control=64, value=47, time=19)\n",
      "Message('control_change', channel=0, control=64, value=49, time=133)\n",
      "Message('control_change', channel=0, control=64, value=52, time=18)\n",
      "Message('control_change', channel=0, control=64, value=55, time=76)\n",
      "Message('control_change', channel=0, control=64, value=58, time=39)\n",
      "Message('control_change', channel=0, control=64, value=60, time=56)\n",
      "Message('control_change', channel=0, control=64, value=61, time=20)\n",
      "Message('note_on', channel=0, note=74, velocity=69, time=79)\n",
      "Message('note_on', channel=0, note=76, velocity=0, time=7)\n",
      "Message('control_change', channel=0, control=64, value=56, time=83)\n",
      "Message('control_change', channel=0, control=64, value=48, time=19)\n",
      "Message('control_change', channel=0, control=64, value=27, time=19)\n",
      "Message('control_change', channel=0, control=64, value=0, time=20)\n",
      "Message('note_on', channel=0, note=79, velocity=73, time=12)\n",
      "Message('note_on', channel=0, note=74, velocity=0, time=6)\n",
      "Message('note_on', channel=0, note=47, velocity=52, time=8)\n",
      "Message('note_on', channel=0, note=48, velocity=0, time=3)\n",
      "Message('note_on', channel=0, note=57, velocity=0, time=49)\n",
      "Message('control_change', channel=0, control=64, value=29, time=89)\n",
      "Message('control_change', channel=0, control=64, value=52, time=20)\n",
      "Message('control_change', channel=0, control=64, value=62, time=19)\n",
      "Message('control_change', channel=0, control=64, value=68, time=20)\n",
      "Message('control_change', channel=0, control=64, value=71, time=18)\n",
      "Message('control_change', channel=0, control=64, value=74, time=20)\n",
      "Message('control_change', channel=0, control=64, value=76, time=17)\n",
      "Message('control_change', channel=0, control=64, value=79, time=20)\n",
      "Message('control_change', channel=0, control=64, value=74, time=90)\n",
      "Message('control_change', channel=0, control=64, value=71, time=18)\n",
      "Message('control_change', channel=0, control=64, value=75, time=37)\n",
      "Message('note_on', channel=0, note=50, velocity=51, time=15)\n",
      "Message('control_change', channel=0, control=64, value=80, time=3)\n",
      "Message('note_on', channel=0, note=47, velocity=0, time=13)\n",
      "Message('control_change', channel=0, control=64, value=87, time=7)\n",
      "Message('control_change', channel=0, control=64, value=97, time=19)\n",
      "Message('control_change', channel=0, control=64, value=108, time=16)\n",
      "Message('control_change', channel=0, control=64, value=120, time=20)\n",
      "Message('control_change', channel=0, control=64, value=127, time=18)\n",
      "Message('note_on', channel=0, note=79, velocity=0, time=38)\n",
      "Message('note_on', channel=0, note=50, velocity=0, time=59)\n",
      "Message('control_change', channel=0, control=64, value=122, time=245)\n",
      "Message('note_on', channel=0, note=72, velocity=73, time=10)\n",
      "Message('control_change', channel=0, control=64, value=105, time=5)\n",
      "Message('note_on', channel=0, note=52, velocity=51, time=0)\n",
      "Message('note_on', channel=0, note=55, velocity=51, time=0)\n",
      "Message('control_change', channel=0, control=64, value=87, time=22)\n",
      "Message('control_change', channel=0, control=64, value=71, time=20)\n",
      "Message('note_on', channel=0, note=72, velocity=0, time=17)\n",
      "Message('control_change', channel=0, control=64, value=62, time=1)\n",
      "Message('control_change', channel=0, control=64, value=60, time=17)\n",
      "Message('note_on', channel=0, note=71, velocity=72, time=7)\n",
      "Message('note_on', channel=0, note=71, velocity=0, time=78)\n",
      "Message('note_on', channel=0, note=72, velocity=67, time=31)\n",
      "Message('control_change', channel=0, control=64, value=57, time=371)\n",
      "Message('control_change', channel=0, control=64, value=54, time=38)\n",
      "Message('control_change', channel=0, control=64, value=50, time=37)\n",
      "Message('control_change', channel=0, control=64, value=45, time=21)\n",
      "Message('control_change', channel=0, control=64, value=39, time=17)\n",
      "Message('note_on', channel=0, note=48, velocity=41, time=232)\n",
      "Message('note_on', channel=0, note=52, velocity=0, time=58)\n",
      "Message('note_on', channel=0, note=74, velocity=59, time=378)\n",
      "Message('note_on', channel=0, note=72, velocity=0, time=46)\n",
      "Message('note_on', channel=0, note=76, velocity=65, time=166)\n",
      "Message('note_on', channel=0, note=74, velocity=0, time=29)\n",
      "Message('note_on', channel=0, note=48, velocity=0, time=179)\n",
      "Message('note_on', channel=0, note=69, velocity=59, time=32)\n",
      "Message('note_on', channel=0, note=76, velocity=0, time=4)\n",
      "Message('control_change', channel=0, control=64, value=32, time=4)\n",
      "Message('note_on', channel=0, note=50, velocity=44, time=6)\n",
      "Message('control_change', channel=0, control=64, value=23, time=17)\n",
      "Message('control_change', channel=0, control=64, value=0, time=15)\n",
      "Message('control_change', channel=0, control=64, value=9, time=136)\n",
      "Message('control_change', channel=0, control=64, value=38, time=16)\n",
      "Message('control_change', channel=0, control=64, value=54, time=20)\n",
      "Message('control_change', channel=0, control=64, value=64, time=18)\n",
      "Message('control_change', channel=0, control=64, value=70, time=21)\n",
      "Message('control_change', channel=0, control=64, value=74, time=16)\n",
      "Message('control_change', channel=0, control=64, value=77, time=18)\n",
      "Message('control_change', channel=0, control=64, value=80, time=20)\n",
      "Message('control_change', channel=0, control=64, value=83, time=19)\n",
      "Message('control_change', channel=0, control=64, value=87, time=20)\n",
      "Message('control_change', channel=0, control=64, value=95, time=39)\n",
      "Message('control_change', channel=0, control=64, value=100, time=18)\n",
      "Message('control_change', channel=0, control=64, value=104, time=20)\n",
      "Message('control_change', channel=0, control=64, value=109, time=37)\n",
      "Message('control_change', channel=0, control=64, value=99, time=373)\n",
      "Message('control_change', channel=0, control=64, value=87, time=20)\n",
      "Message('note_on', channel=0, note=54, velocity=46, time=10)\n",
      "Message('note_on', channel=0, note=74, velocity=57, time=0)\n",
      "Message('control_change', channel=0, control=64, value=71, time=8)\n",
      "Message('note_on', channel=0, note=55, velocity=0, time=16)\n",
      "Message('control_change', channel=0, control=64, value=52, time=4)\n",
      "Message('note_on', channel=0, note=69, velocity=0, time=9)\n",
      "Message('control_change', channel=0, control=64, value=31, time=8)\n",
      "Message('control_change', channel=0, control=64, value=38, time=57)\n",
      "Message('control_change', channel=0, control=64, value=48, time=20)\n",
      "Message('control_change', channel=0, control=64, value=58, time=17)\n",
      "Message('control_change', channel=0, control=64, value=64, time=18)\n",
      "Message('control_change', channel=0, control=64, value=68, time=20)\n",
      "Message('note_on', channel=0, note=74, velocity=0, time=11)\n",
      "Message('control_change', channel=0, control=64, value=71, time=7)\n",
      "Message('control_change', channel=0, control=64, value=74, time=20)\n",
      "Message('control_change', channel=0, control=64, value=76, time=20)\n",
      "Message('control_change', channel=0, control=64, value=80, time=18)\n",
      "Message('control_change', channel=0, control=64, value=83, time=21)\n",
      "Message('control_change', channel=0, control=64, value=88, time=16)\n",
      "Message('control_change', channel=0, control=64, value=92, time=20)\n",
      "Message('control_change', channel=0, control=64, value=96, time=18)\n",
      "Message('control_change', channel=0, control=64, value=101, time=38)\n",
      "Message('note_on', channel=0, note=52, velocity=49, time=51)\n",
      "Message('note_on', channel=0, note=54, velocity=0, time=50)\n",
      "Message('note_on', channel=0, note=72, velocity=69, time=154)\n",
      "Message('control_change', channel=0, control=64, value=96, time=80)\n",
      "Message('control_change', channel=0, control=64, value=89, time=40)\n",
      "Message('control_change', channel=0, control=64, value=82, time=19)\n",
      "Message('control_change', channel=0, control=64, value=73, time=17)\n",
      "Message('control_change', channel=0, control=64, value=65, time=20)\n",
      "Message('control_change', channel=0, control=64, value=60, time=19)\n",
      "Message('control_change', channel=0, control=64, value=57, time=20)\n",
      "Message('note_on', channel=0, note=72, velocity=0, time=11)\n",
      "Message('note_on', channel=0, note=71, velocity=58, time=1)\n",
      "Message('note_on', channel=0, note=52, velocity=0, time=1)\n",
      "Message('note_on', channel=0, note=54, velocity=40, time=10)\n",
      "Message('control_change', channel=0, control=64, value=55, time=12)\n",
      "Message('control_change', channel=0, control=64, value=53, time=20)\n",
      "Message('control_change', channel=0, control=64, value=50, time=18)\n",
      "Message('control_change', channel=0, control=64, value=46, time=20)\n",
      "Message('control_change', channel=0, control=64, value=41, time=19)\n",
      "Message('control_change', channel=0, control=64, value=36, time=18)\n",
      "Message('control_change', channel=0, control=64, value=32, time=40)\n",
      "Message('control_change', channel=0, control=64, value=28, time=150)\n",
      "Message('control_change', channel=0, control=64, value=32, time=262)\n",
      "Message('control_change', channel=0, control=64, value=42, time=21)\n",
      "Message('control_change', channel=0, control=64, value=52, time=18)\n",
      "Message('control_change', channel=0, control=64, value=61, time=20)\n",
      "Message('note_on', channel=0, note=72, velocity=60, time=0)\n",
      "Message('control_change', channel=0, control=64, value=68, time=16)\n",
      "Message('control_change', channel=0, control=64, value=72, time=20)\n",
      "Message('control_change', channel=0, control=64, value=76, time=21)\n",
      "Message('note_on', channel=0, note=71, velocity=0, time=6)\n",
      "Message('control_change', channel=0, control=64, value=80, time=12)\n",
      "Message('control_change', channel=0, control=64, value=84, time=32)\n",
      "Message('control_change', channel=0, control=64, value=89, time=20)\n",
      "Message('note_on', channel=0, note=72, velocity=0, time=5)\n",
      "Message('control_change', channel=0, control=64, value=94, time=14)\n",
      "Message('control_change', channel=0, control=64, value=99, time=19)\n",
      "Message('control_change', channel=0, control=64, value=104, time=18)\n",
      "Message('control_change', channel=0, control=64, value=108, time=39)\n",
      "Message('control_change', channel=0, control=64, value=104, time=37)\n",
      "Message('control_change', channel=0, control=64, value=95, time=20)\n",
      "Message('control_change', channel=0, control=64, value=81, time=18)\n",
      "Message('control_change', channel=0, control=64, value=68, time=20)\n",
      "Message('note_on', channel=0, note=55, velocity=45, time=10)\n",
      "Message('control_change', channel=0, control=64, value=61, time=8)\n",
      "Message('note_on', channel=0, note=72, velocity=61, time=5)\n",
      "Message('control_change', channel=0, control=64, value=60, time=14)\n",
      "Message('note_on', channel=0, note=54, velocity=0, time=30)\n",
      "Message('note_on', channel=0, note=72, velocity=0, time=187)\n",
      "Message('note_on', channel=0, note=71, velocity=56, time=25)\n",
      "Message('note_on', channel=0, note=50, velocity=0, time=4)\n",
      "Message('note_on', channel=0, note=71, velocity=0, time=43)\n",
      "Message('note_on', channel=0, note=72, velocity=56, time=20)\n",
      "Message('note_on', channel=0, note=72, velocity=0, time=75)\n",
      "Message('note_on', channel=0, note=71, velocity=52, time=9)\n",
      "Message('control_change', channel=0, control=64, value=56, time=3)\n",
      "Message('control_change', channel=0, control=64, value=54, time=18)\n",
      "Message('control_change', channel=0, control=64, value=52, time=40)\n",
      "Message('control_change', channel=0, control=64, value=50, time=55)\n",
      "Message('control_change', channel=0, control=64, value=48, time=113)\n",
      "Message('control_change', channel=0, control=64, value=46, time=109)\n",
      "Message('control_change', channel=0, control=64, value=43, time=39)\n",
      "Message('control_change', channel=0, control=64, value=41, time=19)\n",
      "Message('control_change', channel=0, control=64, value=35, time=39)\n",
      "Message('control_change', channel=0, control=64, value=28, time=38)\n",
      "Message('note_on', channel=0, note=50, velocity=43, time=34)\n",
      "Message('control_change', channel=0, control=64, value=22, time=1)\n",
      "Message('control_change', channel=0, control=64, value=9, time=20)\n",
      "Message('control_change', channel=0, control=64, value=0, time=21)\n",
      "Message('control_change', channel=0, control=64, value=27, time=128)\n",
      "Message('control_change', channel=0, control=64, value=44, time=21)\n",
      "Message('note_on', channel=0, note=50, velocity=0, time=2)\n",
      "Message('control_change', channel=0, control=64, value=55, time=16)\n",
      "Message('control_change', channel=0, control=64, value=61, time=20)\n",
      "Message('control_change', channel=0, control=64, value=63, time=18)\n",
      "Message('control_change', channel=0, control=64, value=62, time=37)\n",
      "Message('control_change', channel=0, control=64, value=61, time=20)\n",
      "Message('control_change', channel=0, control=64, value=60, time=18)\n",
      "Message('note_on', channel=0, note=69, velocity=51, time=156)\n",
      "Message('note_on', channel=0, note=71, velocity=0, time=24)\n",
      "Message('control_change', channel=0, control=64, value=58, time=11)\n",
      "Message('control_change', channel=0, control=64, value=56, time=504)\n",
      "Message('control_change', channel=0, control=64, value=54, time=37)\n",
      "Message('control_change', channel=0, control=64, value=51, time=40)\n",
      "Message('note_on', channel=0, note=67, velocity=37, time=7)\n",
      "Message('note_on', channel=0, note=43, velocity=33, time=6)\n",
      "Message('note_on', channel=0, note=69, velocity=0, time=8)\n",
      "Message('control_change', channel=0, control=64, value=48, time=15)\n",
      "Message('control_change', channel=0, control=64, value=44, time=21)\n",
      "Message('control_change', channel=0, control=64, value=39, time=18)\n",
      "Message('control_change', channel=0, control=64, value=34, time=19)\n",
      "Message('control_change', channel=0, control=64, value=46, time=112)\n",
      "Message('control_change', channel=0, control=64, value=56, time=20)\n",
      "Message('control_change', channel=0, control=64, value=65, time=20)\n",
      "Message('control_change', channel=0, control=64, value=71, time=18)\n",
      "Message('control_change', channel=0, control=64, value=77, time=20)\n",
      "Message('control_change', channel=0, control=64, value=85, time=20)\n",
      "Message('control_change', channel=0, control=64, value=95, time=16)\n",
      "Message('control_change', channel=0, control=64, value=106, time=18)\n",
      "Message('control_change', channel=0, control=64, value=117, time=20)\n",
      "Message('control_change', channel=0, control=64, value=125, time=19)\n",
      "Message('note_on', channel=0, note=43, velocity=0, time=43)\n",
      "Message('note_on', channel=0, note=67, velocity=0, time=28)\n",
      "Message('note_on', channel=0, note=55, velocity=0, time=89)\n",
      "Message('control_change', channel=0, control=64, value=118, time=383)\n",
      "Message('control_change', channel=0, control=64, value=114, time=19)\n",
      "Message('control_change', channel=0, control=64, value=110, time=17)\n",
      "Message('control_change', channel=0, control=64, value=105, time=20)\n",
      "Message('control_change', channel=0, control=64, value=100, time=18)\n",
      "Message('control_change', channel=0, control=64, value=95, time=20)\n",
      "Message('control_change', channel=0, control=64, value=89, time=18)\n",
      "Message('control_change', channel=0, control=64, value=83, time=21)\n",
      "Message('control_change', channel=0, control=64, value=76, time=18)\n",
      "Message('control_change', channel=0, control=64, value=68, time=20)\n",
      "Message('control_change', channel=0, control=64, value=62, time=16)\n",
      "Message('control_change', channel=0, control=64, value=60, time=20)\n",
      "Message('control_change', channel=0, control=64, value=57, time=39)\n",
      "Message('control_change', channel=0, control=64, value=53, time=16)\n",
      "Message('control_change', channel=0, control=64, value=44, time=21)\n",
      "Message('note_on', channel=0, note=83, velocity=73, time=8)\n",
      "Message('control_change', channel=0, control=64, value=31, time=10)\n",
      "Message('note_on', channel=0, note=55, velocity=45, time=13)\n",
      "Message('control_change', channel=0, control=64, value=13, time=4)\n",
      "Message('control_change', channel=0, control=64, value=0, time=21)\n",
      "Message('control_change', channel=0, control=64, value=23, time=132)\n",
      "Message('control_change', channel=0, control=64, value=34, time=20)\n",
      "Message('control_change', channel=0, control=64, value=42, time=17)\n",
      "Message('control_change', channel=0, control=64, value=48, time=19)\n",
      "Message('control_change', channel=0, control=64, value=52, time=20)\n",
      "Message('control_change', channel=0, control=64, value=55, time=19)\n",
      "Message('control_change', channel=0, control=64, value=58, time=38)\n",
      "Message('control_change', channel=0, control=64, value=60, time=19)\n",
      "Message('control_change', channel=0, control=64, value=61, time=20)\n",
      "Message('control_change', channel=0, control=64, value=63, time=33)\n",
      "Message('control_change', channel=0, control=64, value=65, time=18)\n",
      "Message('control_change', channel=0, control=64, value=66, time=19)\n",
      "Message('control_change', channel=0, control=64, value=68, time=20)\n",
      "Message('note_on', channel=0, note=59, velocity=51, time=24)\n",
      "Message('control_change', channel=0, control=64, value=70, time=15)\n",
      "Message('control_change', channel=0, control=64, value=72, time=19)\n",
      "Message('control_change', channel=0, control=64, value=76, time=38)\n",
      "Message('control_change', channel=0, control=64, value=78, time=17)\n",
      "Message('note_on', channel=0, note=59, velocity=0, time=1)\n",
      "Message('control_change', channel=0, control=64, value=81, time=17)\n",
      "Message('control_change', channel=0, control=64, value=84, time=21)\n",
      "Message('control_change', channel=0, control=64, value=88, time=17)\n",
      "Message('control_change', channel=0, control=64, value=95, time=37)\n",
      "Message('control_change', channel=0, control=64, value=101, time=38)\n",
      "Message('control_change', channel=0, control=64, value=106, time=39)\n",
      "Message('control_change', channel=0, control=64, value=95, time=150)\n",
      "Message('note_on', channel=0, note=64, velocity=56, time=16)\n",
      "Message('control_change', channel=0, control=64, value=81, time=4)\n",
      "Message('control_change', channel=0, control=64, value=67, time=19)\n",
      "Message('control_change', channel=0, control=64, value=59, time=18)\n",
      "Message('control_change', channel=0, control=64, value=62, time=38)\n",
      "Message('control_change', channel=0, control=64, value=65, time=17)\n",
      "Message('control_change', channel=0, control=64, value=69, time=20)\n",
      "Message('control_change', channel=0, control=64, value=73, time=19)\n",
      "Message('control_change', channel=0, control=64, value=76, time=20)\n",
      "Message('control_change', channel=0, control=64, value=79, time=18)\n",
      "Message('control_change', channel=0, control=64, value=82, time=37)\n",
      "Message('control_change', channel=0, control=64, value=85, time=20)\n",
      "Message('control_change', channel=0, control=64, value=92, time=38)\n",
      "Message('control_change', channel=0, control=64, value=97, time=17)\n",
      "Message('control_change', channel=0, control=64, value=102, time=20)\n",
      "Message('control_change', channel=0, control=64, value=106, time=18)\n",
      "Message('control_change', channel=0, control=64, value=111, time=39)\n",
      "Message('control_change', channel=0, control=64, value=115, time=56)\n",
      "Message('note_on', channel=0, note=79, velocity=76, time=0)\n",
      "Message('note_on', channel=0, note=83, velocity=0, time=48)\n",
      "Message('control_change', channel=0, control=64, value=120, time=24)\n",
      "Message('note_on', channel=0, note=79, velocity=0, time=12)\n",
      "Message('note_on', channel=0, note=79, velocity=67, time=175)\n",
      "Message('note_on', channel=0, note=79, velocity=0, time=43)\n",
      "Message('note_on', channel=0, note=78, velocity=71, time=20)\n",
      "Message('control_change', channel=0, control=64, value=109, time=33)\n",
      "Message('note_on', channel=0, note=78, velocity=0, time=9)\n",
      "Message('note_on', channel=0, note=79, velocity=66, time=11)\n",
      "Message('control_change', channel=0, control=64, value=86, time=1)\n",
      "Message('control_change', channel=0, control=64, value=56, time=18)\n",
      "Message('note_on', channel=0, note=62, velocity=58, time=14)\n",
      "Message('control_change', channel=0, control=64, value=0, time=4)\n",
      "Message('note_on', channel=0, note=78, velocity=72, time=13)\n",
      "Message('note_on', channel=0, note=64, velocity=0, time=3)\n",
      "Message('note_on', channel=0, note=79, velocity=0, time=4)\n",
      "Message('control_change', channel=0, control=64, value=26, time=37)\n",
      "Message('control_change', channel=0, control=64, value=46, time=19)\n",
      "Message('control_change', channel=0, control=64, value=56, time=17)\n",
      "Message('control_change', channel=0, control=64, value=61, time=20)\n",
      "Message('control_change', channel=0, control=64, value=63, time=18)\n",
      "Message('control_change', channel=0, control=64, value=65, time=20)\n",
      "Message('control_change', channel=0, control=64, value=67, time=19)\n",
      "Message('control_change', channel=0, control=64, value=69, time=17)\n",
      "Message('control_change', channel=0, control=64, value=72, time=20)\n",
      "Message('control_change', channel=0, control=64, value=75, time=18)\n",
      "Message('control_change', channel=0, control=64, value=79, time=20)\n",
      "Message('control_change', channel=0, control=64, value=82, time=19)\n",
      "Message('control_change', channel=0, control=64, value=86, time=20)\n",
      "Message('control_change', channel=0, control=64, value=90, time=18)\n",
      "Message('control_change', channel=0, control=64, value=95, time=20)\n",
      "Message('control_change', channel=0, control=64, value=99, time=17)\n",
      "Message('control_change', channel=0, control=64, value=104, time=20)\n",
      "Message('control_change', channel=0, control=64, value=109, time=18)\n",
      "Message('control_change', channel=0, control=64, value=114, time=39)\n",
      "Message('note_on', channel=0, note=78, velocity=0, time=76)\n",
      "Message('note_on', channel=0, note=76, velocity=70, time=150)\n",
      "Message('control_change', channel=0, control=64, value=109, time=148)\n",
      "Message('control_change', channel=0, control=64, value=101, time=20)\n",
      "Message('note_on', channel=0, note=62, velocity=0, time=12)\n",
      "Message('control_change', channel=0, control=64, value=86, time=2)\n",
      "Message('control_change', channel=0, control=64, value=67, time=21)\n",
      "Message('note_on', channel=0, note=55, velocity=0, time=6)\n",
      "Message('note_on', channel=0, note=81, velocity=72, time=5)\n",
      "Message('note_on', channel=0, note=61, velocity=55, time=1)\n",
      "Message('control_change', channel=0, control=64, value=42, time=7)\n",
      "Message('control_change', channel=0, control=64, value=0, time=20)\n",
      "Message('note_on', channel=0, note=76, velocity=0, time=7)\n",
      "Message('control_change', channel=0, control=64, value=15, time=86)\n",
      "Message('control_change', channel=0, control=64, value=23, time=21)\n",
      "Message('control_change', channel=0, control=64, value=28, time=18)\n",
      "Message('control_change', channel=0, control=64, value=33, time=19)\n",
      "Message('control_change', channel=0, control=64, value=38, time=17)\n",
      "Message('control_change', channel=0, control=64, value=42, time=20)\n",
      "Message('control_change', channel=0, control=64, value=48, time=19)\n",
      "Message('control_change', channel=0, control=64, value=52, time=20)\n",
      "Message('control_change', channel=0, control=64, value=54, time=19)\n",
      "Message('control_change', channel=0, control=64, value=57, time=37)\n",
      "Message('note_on', channel=0, note=55, velocity=47, time=92)\n",
      "Message('control_change', channel=0, control=64, value=59, time=2)\n",
      "Message('control_change', channel=0, control=64, value=61, time=20)\n",
      "Message('control_change', channel=0, control=64, value=63, time=16)\n",
      "Message('control_change', channel=0, control=64, value=65, time=22)\n",
      "Message('control_change', channel=0, control=64, value=67, time=16)\n",
      "Message('control_change', channel=0, control=64, value=70, time=21)\n",
      "Message('control_change', channel=0, control=64, value=74, time=16)\n",
      "Message('control_change', channel=0, control=64, value=78, time=21)\n",
      "Message('note_on', channel=0, note=55, velocity=0, time=9)\n",
      "Message('control_change', channel=0, control=64, value=81, time=8)\n",
      "Message('control_change', channel=0, control=64, value=83, time=22)\n",
      "Message('control_change', channel=0, control=64, value=81, time=128)\n",
      "Message('control_change', channel=0, control=64, value=79, time=18)\n",
      "Message('control_change', channel=0, control=64, value=75, time=38)\n",
      "Message('control_change', channel=0, control=64, value=72, time=19)\n",
      "Message('control_change', channel=0, control=64, value=69, time=17)\n",
      "Message('control_change', channel=0, control=64, value=68, time=21)\n",
      "Message('note_on', channel=0, note=74, velocity=67, time=20)\n",
      "Message('note_on', channel=0, note=54, velocity=47, time=13)\n",
      "Message('control_change', channel=0, control=64, value=67, time=23)\n",
      "Message('control_change', channel=0, control=64, value=66, time=20)\n",
      "Message('note_on', channel=0, note=81, velocity=0, time=10)\n",
      "Message('control_change', channel=0, control=64, value=65, time=8)\n",
      "Message('control_change', channel=0, control=64, value=63, time=18)\n",
      "Message('note_on', channel=0, note=61, velocity=0, time=42)\n",
      "Message('control_change', channel=0, control=64, value=62, time=54)\n",
      "Message('control_change', channel=0, control=64, value=61, time=243)\n",
      "Message('note_on', channel=0, note=57, velocity=51, time=4)\n",
      "Message('note_on', channel=0, note=57, velocity=0, time=82)\n",
      "Message('control_change', channel=0, control=64, value=58, time=9)\n",
      "Message('control_change', channel=0, control=64, value=56, time=38)\n",
      "Message('control_change', channel=0, control=64, value=54, time=58)\n",
      "Message('control_change', channel=0, control=64, value=52, time=36)\n",
      "Message('control_change', channel=0, control=64, value=48, time=37)\n",
      "Message('control_change', channel=0, control=64, value=46, time=20)\n",
      "Message('control_change', channel=0, control=64, value=43, time=19)\n",
      "Message('control_change', channel=0, control=64, value=39, time=19)\n",
      "Message('note_on', channel=0, note=62, velocity=52, time=118)\n",
      "Message('control_change', channel=0, control=64, value=46, time=12)\n",
      "Message('control_change', channel=0, control=64, value=53, time=17)\n",
      "Message('control_change', channel=0, control=64, value=61, time=18)\n",
      "Message('control_change', channel=0, control=64, value=66, time=20)\n",
      "Message('control_change', channel=0, control=64, value=71, time=19)\n",
      "Message('control_change', channel=0, control=64, value=76, time=19)\n",
      "Message('control_change', channel=0, control=64, value=82, time=19)\n",
      "Message('control_change', channel=0, control=64, value=90, time=20)\n",
      "Message('control_change', channel=0, control=64, value=99, time=19)\n",
      "Message('control_change', channel=0, control=64, value=110, time=17)\n",
      "Message('control_change', channel=0, control=64, value=119, time=19)\n",
      "Message('note_on', channel=0, note=62, velocity=0, time=0)\n",
      "Message('control_change', channel=0, control=64, value=125, time=19)\n",
      "Message('note_on', channel=0, note=76, velocity=69, time=213)\n",
      "Message('note_on', channel=0, note=74, velocity=0, time=47)\n",
      "Message('note_on', channel=0, note=78, velocity=71, time=137)\n",
      "Message('note_on', channel=0, note=76, velocity=0, time=33)\n",
      "Message('control_change', channel=0, control=64, value=116, time=117)\n",
      "Message('control_change', channel=0, control=64, value=104, time=19)\n",
      "Message('control_change', channel=0, control=64, value=90, time=19)\n",
      "Message('control_change', channel=0, control=64, value=77, time=20)\n",
      "Message('control_change', channel=0, control=64, value=65, time=18)\n",
      "Message('control_change', channel=0, control=64, value=54, time=20)\n",
      "Message('note_on', channel=0, note=71, velocity=65, time=9)\n",
      "Message('note_on', channel=0, note=55, velocity=43, time=9)\n",
      "Message('control_change', channel=0, control=64, value=50, time=1)\n",
      "Message('note_on', channel=0, note=78, velocity=0, time=23)\n",
      "Message('note_on', channel=0, note=54, velocity=0, time=1)\n",
      "Message('control_change', channel=0, control=64, value=53, time=141)\n",
      "Message('control_change', channel=0, control=64, value=55, time=37)\n",
      "Message('control_change', channel=0, control=64, value=57, time=169)\n",
      "Message('note_on', channel=0, note=54, velocity=40, time=78)\n",
      "Message('note_on', channel=0, note=54, velocity=0, time=135)\n",
      "Message('note_on', channel=0, note=52, velocity=48, time=281)\n",
      "Message('note_on', channel=0, note=52, velocity=0, time=171)\n",
      "Message('note_on', channel=0, note=74, velocity=58, time=25)\n",
      "Message('note_on', channel=0, note=71, velocity=0, time=77)\n",
      "Message('note_on', channel=0, note=73, velocity=65, time=129)\n",
      "Message('note_on', channel=0, note=50, velocity=53, time=8)\n",
      "Message('note_on', channel=0, note=74, velocity=0, time=9)\n",
      "Message('control_change', channel=0, control=64, value=59, time=8)\n",
      "Message('note_on', channel=0, note=50, velocity=0, time=151)\n",
      "Message('note_on', channel=0, note=71, velocity=72, time=14)\n",
      "Message('note_on', channel=0, note=73, velocity=0, time=14)\n",
      "Message('note_on', channel=0, note=76, velocity=74, time=181)\n",
      "Message('note_on', channel=0, note=49, velocity=52, time=10)\n",
      "Message('note_on', channel=0, note=71, velocity=0, time=54)\n",
      "Message('note_on', channel=0, note=49, velocity=0, time=80)\n",
      "Message('note_on', channel=0, note=79, velocity=77, time=42)\n",
      "Message('note_on', channel=0, note=76, velocity=0, time=16)\n",
      "Message('control_change', channel=0, control=64, value=56, time=135)\n",
      "Message('control_change', channel=0, control=64, value=51, time=18)\n",
      "Message('control_change', channel=0, control=64, value=33, time=17)\n",
      "Message('control_change', channel=0, control=64, value=0, time=20)\n",
      "Message('note_on', channel=0, note=47, velocity=53, time=8)\n",
      "Message('note_on', channel=0, note=78, velocity=72, time=2)\n",
      "Message('note_on', channel=0, note=79, velocity=0, time=1)\n",
      "Message('control_change', channel=0, control=64, value=28, time=84)\n",
      "Message('note_on', channel=0, note=47, velocity=0, time=9)\n",
      "Message('control_change', channel=0, control=64, value=52, time=13)\n",
      "Message('control_change', channel=0, control=64, value=66, time=15)\n",
      "Message('control_change', channel=0, control=64, value=74, time=20)\n",
      "Message('control_change', channel=0, control=64, value=82, time=18)\n",
      "Message('control_change', channel=0, control=64, value=89, time=20)\n",
      "Message('note_on', channel=0, note=76, velocity=74, time=7)\n",
      "Message('control_change', channel=0, control=64, value=96, time=10)\n",
      "Message('control_change', channel=0, control=64, value=103, time=20)\n",
      "Message('control_change', channel=0, control=64, value=107, time=18)\n",
      "Message('note_on', channel=0, note=78, velocity=0, time=7)\n",
      "Message('control_change', channel=0, control=64, value=112, time=32)\n",
      "Message('control_change', channel=0, control=64, value=118, time=57)\n",
      "Message('control_change', channel=0, control=64, value=124, time=37)\n",
      "Message('note_on', channel=0, note=76, velocity=0, time=0)\n",
      "Message('note_on', channel=0, note=74, velocity=74, time=29)\n",
      "Message('control_change', channel=0, control=64, value=120, time=7)\n",
      "Message('note_on', channel=0, note=45, velocity=56, time=1)\n",
      "Message('control_change', channel=0, control=64, value=103, time=21)\n",
      "Message('control_change', channel=0, control=64, value=76, time=16)\n",
      "Message('note_on', channel=0, note=55, velocity=0, time=9)\n",
      "Message('control_change', channel=0, control=64, value=31, time=11)\n",
      "Message('note_on', channel=0, note=74, velocity=0, time=10)\n",
      "Message('control_change', channel=0, control=64, value=0, time=8)\n",
      "Message('note_on', channel=0, note=73, velocity=67, time=7)\n",
      "Message('note_on', channel=0, note=73, velocity=0, time=56)\n",
      "Message('note_on', channel=0, note=74, velocity=60, time=2)\n",
      "Message('note_on', channel=0, note=74, velocity=0, time=51)\n",
      "Message('note_on', channel=0, note=73, velocity=58, time=17)\n",
      "Message('control_change', channel=0, control=64, value=9, time=152)\n",
      "Message('note_on', channel=0, note=52, velocity=57, time=57)\n",
      "Message('control_change', channel=0, control=64, value=13, time=108)\n",
      "Message('note_on', channel=0, note=52, velocity=0, time=47)\n",
      "Message('control_change', channel=0, control=64, value=19, time=103)\n",
      "Message('control_change', channel=0, control=64, value=23, time=95)\n",
      "Message('note_on', channel=0, note=57, velocity=52, time=74)\n",
      "Message('control_change', channel=0, control=64, value=28, time=23)\n",
      "Message('note_on', channel=0, note=57, velocity=0, time=116)\n",
      "Message('control_change', channel=0, control=64, value=32, time=32)\n",
      "Message('note_on', channel=0, note=71, velocity=62, time=237)\n",
      "Message('note_on', channel=0, note=55, velocity=48, time=9)\n",
      "Message('note_on', channel=0, note=73, velocity=0, time=40)\n",
      "Message('note_on', channel=0, note=55, velocity=0, time=98)\n",
      "Message('control_change', channel=0, control=64, value=22, time=293)\n",
      "Message('note_on', channel=0, note=71, velocity=0, time=2)\n",
      "Message('note_on', channel=0, note=69, velocity=54, time=8)\n",
      "Message('control_change', channel=0, control=64, value=0, time=8)\n",
      "Message('note_on', channel=0, note=54, velocity=43, time=3)\n",
      "Message('note_on', channel=0, note=45, velocity=0, time=12)\n",
      "Message('control_change', channel=0, control=64, value=20, time=210)\n",
      "Message('control_change', channel=0, control=64, value=28, time=18)\n",
      "Message('control_change', channel=0, control=64, value=36, time=18)\n",
      "Message('control_change', channel=0, control=64, value=44, time=19)\n",
      "Message('control_change', channel=0, control=64, value=52, time=20)\n",
      "Message('control_change', channel=0, control=64, value=58, time=18)\n",
      "Message('control_change', channel=0, control=64, value=64, time=20)\n",
      "Message('control_change', channel=0, control=64, value=68, time=19)\n",
      "Message('control_change', channel=0, control=64, value=71, time=20)\n",
      "Message('control_change', channel=0, control=64, value=74, time=17)\n",
      "Message('control_change', channel=0, control=64, value=78, time=19)\n",
      "Message('control_change', channel=0, control=64, value=82, time=20)\n",
      "Message('control_change', channel=0, control=64, value=89, time=20)\n",
      "Message('note_on', channel=0, note=50, velocity=47, time=1)\n",
      "Message('control_change', channel=0, control=64, value=97, time=16)\n",
      "Message('control_change', channel=0, control=64, value=106, time=19)\n",
      "Message('control_change', channel=0, control=64, value=114, time=18)\n",
      "Message('control_change', channel=0, control=64, value=120, time=21)\n",
      "Message('control_change', channel=0, control=64, value=124, time=17)\n",
      "Message('note_on', channel=0, note=69, velocity=0, time=9)\n",
      "Message('note_on', channel=0, note=54, velocity=0, time=17)\n",
      "Message('note_on', channel=0, note=50, velocity=0, time=12)\n",
      "Message('note_on', channel=0, note=69, velocity=64, time=210)\n",
      "Message('note_on', channel=0, note=69, velocity=0, time=41)\n",
      "Message('note_on', channel=0, note=52, velocity=57, time=14)\n",
      "Message('note_on', channel=0, note=67, velocity=65, time=9)\n",
      "Message('control_change', channel=0, control=64, value=106, time=7)\n",
      "Message('control_change', channel=0, control=64, value=85, time=19)\n",
      "Message('note_on', channel=0, note=67, velocity=0, time=14)\n",
      "Message('control_change', channel=0, control=64, value=68, time=4)\n",
      "Message('note_on', channel=0, note=69, velocity=69, time=8)\n",
      "Message('control_change', channel=0, control=64, value=59, time=10)\n",
      "Message('control_change', channel=0, control=64, value=60, time=39)\n",
      "Message('note_on', channel=0, note=67, velocity=67, time=6)\n",
      "Message('note_on', channel=0, note=69, velocity=0, time=3)\n",
      "Message('control_change', channel=0, control=64, value=61, time=27)\n",
      "Message('note_on', channel=0, note=66, velocity=76, time=97)\n",
      "Message('note_on', channel=0, note=67, velocity=0, time=8)\n",
      "Message('note_on', channel=0, note=66, velocity=0, time=136)\n",
      "Message('note_on', channel=0, note=67, velocity=76, time=14)\n",
      "Message('note_on', channel=0, note=50, velocity=63, time=5)\n",
      "Message('note_on', channel=0, note=50, velocity=0, time=129)\n",
      "Message('control_change', channel=0, control=64, value=60, time=64)\n",
      "Message('control_change', channel=0, control=64, value=57, time=133)\n",
      "Message('control_change', channel=0, control=64, value=54, time=34)\n",
      "Message('control_change', channel=0, control=64, value=50, time=18)\n",
      "Message('control_change', channel=0, control=64, value=47, time=21)\n",
      "Message('control_change', channel=0, control=64, value=44, time=17)\n",
      "Message('note_on', channel=0, note=76, velocity=71, time=24)\n",
      "Message('control_change', channel=0, control=64, value=40, time=13)\n",
      "Message('note_on', channel=0, note=49, velocity=56, time=4)\n",
      "Message('note_on', channel=0, note=52, velocity=0, time=48)\n",
      "Message('note_on', channel=0, note=67, velocity=0, time=1)\n",
      "Message('control_change', channel=0, control=64, value=36, time=4)\n",
      "Message('control_change', channel=0, control=64, value=31, time=59)\n",
      "Message('note_on', channel=0, note=52, velocity=55, time=292)\n",
      "Message('note_on', channel=0, note=52, velocity=0, time=119)\n",
      "Message('control_change', channel=0, control=64, value=26, time=98)\n",
      "Message('control_change', channel=0, control=64, value=20, time=18)\n",
      "Message('control_change', channel=0, control=64, value=0, time=19)\n",
      "Message('control_change', channel=0, control=64, value=23, time=170)\n",
      "Message('note_on', channel=0, note=57, velocity=57, time=12)\n",
      "Message('control_change', channel=0, control=64, value=46, time=21)\n",
      "Message('control_change', channel=0, control=64, value=60, time=20)\n",
      "Message('control_change', channel=0, control=64, value=68, time=19)\n",
      "Message('control_change', channel=0, control=64, value=74, time=19)\n",
      "Message('note_on', channel=0, note=49, velocity=0, time=6)\n",
      "Message('control_change', channel=0, control=64, value=80, time=11)\n",
      "Message('control_change', channel=0, control=64, value=87, time=20)\n",
      "Message('control_change', channel=0, control=64, value=94, time=18)\n",
      "Message('control_change', channel=0, control=64, value=102, time=19)\n",
      "Message('control_change', channel=0, control=64, value=109, time=21)\n",
      "Message('control_change', channel=0, control=64, value=114, time=18)\n",
      "Message('control_change', channel=0, control=64, value=118, time=38)\n",
      "Message('control_change', channel=0, control=64, value=114, time=131)\n",
      "Message('control_change', channel=0, control=64, value=110, time=19)\n",
      "Message('control_change', channel=0, control=64, value=104, time=20)\n",
      "Message('control_change', channel=0, control=64, value=98, time=19)\n",
      "Message('note_on', channel=0, note=47, velocity=57, time=8)\n",
      "Message('control_change', channel=0, control=64, value=91, time=10)\n",
      "Message('note_on', channel=0, note=74, velocity=71, time=7)\n",
      "Message('control_change', channel=0, control=64, value=84, time=13)\n",
      "Message('control_change', channel=0, control=64, value=76, time=19)\n",
      "Message('note_on', channel=0, note=76, velocity=0, time=15)\n",
      "Message('control_change', channel=0, control=64, value=70, time=2)\n",
      "Message('control_change', channel=0, control=64, value=67, time=20)\n",
      "Message('note_on', channel=0, note=47, velocity=0, time=25)\n",
      "Message('control_change', channel=0, control=64, value=66, time=14)\n",
      "Message('control_change', channel=0, control=64, value=65, time=54)\n",
      "Message('note_on', channel=0, note=73, velocity=76, time=34)\n",
      "Message('control_change', channel=0, control=64, value=63, time=4)\n",
      "Message('note_on', channel=0, note=74, velocity=0, time=14)\n",
      "Message('control_change', channel=0, control=64, value=62, time=44)\n",
      "Message('control_change', channel=0, control=64, value=60, time=37)\n",
      "Message('control_change', channel=0, control=64, value=58, time=57)\n",
      "Message('control_change', channel=0, control=64, value=56, time=36)\n",
      "Message('note_on', channel=0, note=79, velocity=80, time=32)\n",
      "Message('note_on', channel=0, note=45, velocity=61, time=3)\n",
      "Message('control_change', channel=0, control=64, value=54, time=3)\n",
      "Message('note_on', channel=0, note=73, velocity=0, time=21)\n",
      "Message('control_change', channel=0, control=64, value=51, time=39)\n",
      "Message('control_change', channel=0, control=64, value=49, time=18)\n",
      "Message('control_change', channel=0, control=64, value=46, time=33)\n",
      "Message('control_change', channel=0, control=64, value=44, time=18)\n",
      "Message('control_change', channel=0, control=64, value=41, time=39)\n",
      "Message('control_change', channel=0, control=64, value=36, time=36)\n",
      "Message('control_change', channel=0, control=64, value=28, time=20)\n",
      "Message('control_change', channel=0, control=64, value=9, time=19)\n",
      "Message('control_change', channel=0, control=64, value=0, time=19)\n",
      "Message('control_change', channel=0, control=64, value=13, time=152)\n",
      "Message('control_change', channel=0, control=64, value=50, time=17)\n",
      "Message('note_on', channel=0, note=50, velocity=64, time=7)\n",
      "Message('control_change', channel=0, control=64, value=66, time=13)\n",
      "Message('note_on', channel=0, note=57, velocity=0, time=9)\n",
      "Message('control_change', channel=0, control=64, value=76, time=8)\n",
      "Message('control_change', channel=0, control=64, value=86, time=20)\n",
      "Message('control_change', channel=0, control=64, value=96, time=19)\n",
      "Message('control_change', channel=0, control=64, value=106, time=20)\n",
      "Message('control_change', channel=0, control=64, value=113, time=17)\n",
      "Message('note_on', channel=0, note=50, velocity=0, time=6)\n",
      "Message('control_change', channel=0, control=64, value=118, time=15)\n",
      "Message('note_on', channel=0, note=78, velocity=79, time=104)\n",
      "Message('note_on', channel=0, note=79, velocity=0, time=1)\n",
      "Message('note_on', channel=0, note=78, velocity=0, time=53)\n",
      "Message('note_on', channel=0, note=76, velocity=71, time=43)\n",
      "Message('control_change', channel=0, control=64, value=102, time=6)\n",
      "Message('control_change', channel=0, control=64, value=86, time=20)\n",
      "Message('control_change', channel=0, control=64, value=69, time=18)\n",
      "Message('control_change', channel=0, control=64, value=56, time=18)\n",
      "Message('control_change', channel=0, control=64, value=49, time=18)\n",
      "Message('note_on', channel=0, note=81, velocity=80, time=32)\n",
      "Message('note_on', channel=0, note=45, velocity=0, time=9)\n",
      "Message('note_on', channel=0, note=49, velocity=58, time=0)\n",
      "Message('note_on', channel=0, note=76, velocity=0, time=0)\n",
      "Message('control_change', channel=0, control=64, value=47, time=183)\n",
      "Message('control_change', channel=0, control=64, value=41, time=57)\n",
      "Message('control_change', channel=0, control=64, value=26, time=15)\n",
      "Message('control_change', channel=0, control=64, value=0, time=21)\n",
      "Message('control_change', channel=0, control=64, value=31, time=94)\n",
      "Message('control_change', channel=0, control=64, value=52, time=19)\n",
      "Message('control_change', channel=0, control=64, value=65, time=19)\n",
      "Message('note_on', channel=0, note=43, velocity=55, time=5)\n",
      "Message('control_change', channel=0, control=64, value=74, time=14)\n",
      "Message('control_change', channel=0, control=64, value=81, time=20)\n",
      "Message('control_change', channel=0, control=64, value=88, time=19)\n",
      "Message('control_change', channel=0, control=64, value=95, time=19)\n",
      "Message('control_change', channel=0, control=64, value=101, time=18)\n",
      "Message('note_on', channel=0, note=43, velocity=0, time=1)\n",
      "Message('control_change', channel=0, control=64, value=105, time=17)\n",
      "Message('note_on', channel=0, note=78, velocity=73, time=92)\n",
      "Message('note_on', channel=0, note=81, velocity=0, time=69)\n",
      "Message('control_change', channel=0, control=64, value=99, time=104)\n",
      "Message('control_change', channel=0, control=64, value=93, time=19)\n",
      "Message('control_change', channel=0, control=64, value=83, time=21)\n",
      "Message('control_change', channel=0, control=64, value=71, time=17)\n",
      "Message('control_change', channel=0, control=64, value=59, time=21)\n",
      "Message('note_on', channel=0, note=50, velocity=55, time=0)\n",
      "Message('note_on', channel=0, note=76, velocity=65, time=0)\n",
      "Message('note_on', channel=0, note=42, velocity=50, time=8)\n",
      "Message('control_change', channel=0, control=64, value=52, time=11)\n",
      "Message('note_on', channel=0, note=49, velocity=0, time=7)\n",
      "Message('control_change', channel=0, control=64, value=50, time=9)\n",
      "Message('note_on', channel=0, note=78, velocity=0, time=2)\n",
      "Message('control_change', channel=0, control=64, value=48, time=56)\n",
      "Message('note_on', channel=0, note=50, velocity=0, time=346)\n",
      "Message('note_on', channel=0, note=52, velocity=55, time=4)\n",
      "Message('note_on', channel=0, note=74, velocity=61, time=6)\n",
      "Message('note_on', channel=0, note=76, velocity=0, time=2)\n",
      "Message('note_on', channel=0, note=52, velocity=0, time=95)\n",
      "Message('control_change', channel=0, control=64, value=46, time=146)\n",
      "Message('control_change', channel=0, control=64, value=44, time=37)\n",
      "Message('control_change', channel=0, control=64, value=42, time=58)\n",
      "Message('control_change', channel=0, control=64, value=47, time=114)\n",
      "Message('note_on', channel=0, note=54, velocity=43, time=1)\n",
      "Message('control_change', channel=0, control=64, value=50, time=18)\n",
      "Message('control_change', channel=0, control=64, value=54, time=17)\n",
      "Message('control_change', channel=0, control=64, value=57, time=21)\n",
      "Message('control_change', channel=0, control=64, value=61, time=19)\n",
      "Message('note_on', channel=0, note=42, velocity=0, time=2)\n",
      "Message('control_change', channel=0, control=64, value=64, time=15)\n",
      "Message('control_change', channel=0, control=64, value=66, time=19)\n",
      "Message('control_change', channel=0, control=64, value=67, time=18)\n",
      "Message('control_change', channel=0, control=64, value=70, time=38)\n",
      "Message('control_change', channel=0, control=64, value=73, time=38)\n",
      "Message('control_change', channel=0, control=64, value=75, time=19)\n",
      "Message('control_change', channel=0, control=64, value=78, time=36)\n",
      "Message('control_change', channel=0, control=64, value=81, time=39)\n",
      "Message('control_change', channel=0, control=64, value=77, time=93)\n",
      "Message('control_change', channel=0, control=64, value=70, time=17)\n",
      "Message('control_change', channel=0, control=64, value=67, time=19)\n",
      "Message('control_change', channel=0, control=64, value=69, time=20)\n",
      "Message('note_on', channel=0, note=43, velocity=43, time=0)\n",
      "Message('note_on', channel=0, note=71, velocity=61, time=1)\n",
      "Message('control_change', channel=0, control=64, value=74, time=17)\n",
      "Message('control_change', channel=0, control=64, value=81, time=19)\n",
      "Message('note_on', channel=0, note=74, velocity=0, time=4)\n",
      "Message('control_change', channel=0, control=64, value=91, time=13)\n",
      "Message('control_change', channel=0, control=64, value=104, time=19)\n",
      "Message('control_change', channel=0, control=64, value=117, time=20)\n",
      "Message('control_change', channel=0, control=64, value=127, time=19)\n",
      "Message('note_on', channel=0, note=43, velocity=0, time=1)\n",
      "Message('note_on', channel=0, note=54, velocity=0, time=58)\n",
      "Message('note_on', channel=0, note=71, velocity=0, time=8)\n",
      "Message('note_on', channel=0, note=52, velocity=58, time=280)\n",
      "Message('control_change', channel=0, control=64, value=111, time=12)\n",
      "Message('note_on', channel=0, note=45, velocity=49, time=3)\n",
      "Message('control_change', channel=0, control=64, value=91, time=16)\n",
      "Message('note_on', channel=0, note=74, velocity=72, time=4)\n",
      "Message('control_change', channel=0, control=64, value=73, time=15)\n",
      "Message('control_change', channel=0, control=64, value=62, time=20)\n",
      "Message('control_change', channel=0, control=64, value=61, time=19)\n",
      "Message('note_on', channel=0, note=74, velocity=0, time=185)\n",
      "Message('note_on', channel=0, note=73, velocity=54, time=14)\n",
      "Message('note_on', channel=0, note=73, velocity=0, time=54)\n",
      "Message('note_on', channel=0, note=74, velocity=61, time=29)\n",
      "Message('note_on', channel=0, note=54, velocity=58, time=68)\n",
      "Message('control_change', channel=0, control=64, value=60, time=4)\n",
      "Message('note_on', channel=0, note=52, velocity=0, time=24)\n",
      "Message('note_on', channel=0, note=73, velocity=69, time=5)\n",
      "Message('note_on', channel=0, note=74, velocity=0, time=2)\n",
      "Message('note_on', channel=0, note=54, velocity=0, time=37)\n",
      "Message('control_change', channel=0, control=64, value=58, time=63)\n",
      "Message('control_change', channel=0, control=64, value=56, time=114)\n",
      "Message('control_change', channel=0, control=64, value=54, time=76)\n",
      "Message('control_change', channel=0, control=64, value=51, time=93)\n",
      "Message('control_change', channel=0, control=64, value=49, time=57)\n",
      "Message('note_on', channel=0, note=55, velocity=45, time=14)\n",
      "Message('control_change', channel=0, control=64, value=47, time=62)\n",
      "Message('control_change', channel=0, control=64, value=45, time=112)\n",
      "Message('control_change', channel=0, control=64, value=43, time=134)\n",
      "Message('control_change', channel=0, control=64, value=40, time=56)\n",
      "Message('control_change', channel=0, control=64, value=36, time=20)\n",
      "Message('control_change', channel=0, control=64, value=23, time=19)\n",
      "Message('control_change', channel=0, control=64, value=0, time=32)\n",
      "Message('note_on', channel=0, note=74, velocity=68, time=37)\n",
      "Message('control_change', channel=0, control=64, value=30, time=38)\n",
      "Message('control_change', channel=0, control=64, value=54, time=19)\n",
      "Message('note_on', channel=0, note=45, velocity=0, time=10)\n",
      "Message('note_on', channel=0, note=73, velocity=0, time=0)\n",
      "Message('control_change', channel=0, control=64, value=68, time=10)\n",
      "Message('control_change', channel=0, control=64, value=78, time=20)\n",
      "Message('control_change', channel=0, control=64, value=88, time=17)\n",
      "Message('control_change', channel=0, control=64, value=100, time=18)\n",
      "Message('note_on', channel=0, note=74, velocity=0, time=12)\n",
      "Message('control_change', channel=0, control=64, value=112, time=8)\n",
      "Message('control_change', channel=0, control=64, value=120, time=19)\n",
      "Message('control_change', channel=0, control=64, value=109, time=321)\n",
      "Message('control_change', channel=0, control=64, value=96, time=19)\n",
      "Message('note_on', channel=0, note=74, velocity=58, time=0)\n",
      "Message('note_on', channel=0, note=50, velocity=46, time=7)\n",
      "Message('control_change', channel=0, control=64, value=83, time=11)\n",
      "Message('control_change', channel=0, control=64, value=71, time=20)\n",
      "Message('control_change', channel=0, control=64, value=61, time=19)\n",
      "Message('control_change', channel=0, control=64, value=56, time=17)\n",
      "Message('note_on', channel=0, note=54, velocity=47, time=420)\n",
      "Message('note_on', channel=0, note=55, velocity=0, time=23)\n",
      "Message('note_on', channel=0, note=52, velocity=52, time=170)\n",
      "Message('note_on', channel=0, note=54, velocity=0, time=9)\n",
      "Message('note_on', channel=0, note=50, velocity=0, time=109)\n",
      "Message('note_on', channel=0, note=52, velocity=0, time=108)\n",
      "Message('note_on', channel=0, note=54, velocity=47, time=14)\n",
      "Message('control_change', channel=0, control=64, value=54, time=462)\n",
      "Message('control_change', channel=0, control=64, value=49, time=20)\n",
      "Message('control_change', channel=0, control=64, value=29, time=19)\n",
      "Message('note_on', channel=0, note=50, velocity=49, time=3)\n",
      "Message('control_change', channel=0, control=64, value=0, time=14)\n",
      "Message('control_change', channel=0, control=64, value=44, time=114)\n",
      "Message('note_on', channel=0, note=50, velocity=0, time=15)\n",
      "Message('control_change', channel=0, control=64, value=63, time=4)\n",
      "Message('control_change', channel=0, control=64, value=74, time=19)\n",
      "Message('control_change', channel=0, control=64, value=84, time=19)\n",
      "Message('control_change', channel=0, control=64, value=93, time=20)\n",
      "Message('control_change', channel=0, control=64, value=103, time=18)\n",
      "Message('control_change', channel=0, control=64, value=110, time=17)\n",
      "Message('control_change', channel=0, control=64, value=115, time=19)\n",
      "Message('note_on', channel=0, note=54, velocity=0, time=74)\n",
      "Message('control_change', channel=0, control=64, value=110, time=210)\n",
      "Message('control_change', channel=0, control=64, value=101, time=38)\n",
      "Message('control_change', channel=0, control=64, value=94, time=18)\n",
      "Message('control_change', channel=0, control=64, value=86, time=19)\n",
      "Message('control_change', channel=0, control=64, value=77, time=19)\n",
      "Message('note_on', channel=0, note=38, velocity=41, time=11)\n",
      "Message('control_change', channel=0, control=64, value=69, time=8)\n",
      "Message('control_change', channel=0, control=64, value=64, time=20)\n",
      "Message('control_change', channel=0, control=64, value=61, time=19)\n",
      "Message('control_change', channel=0, control=64, value=56, time=38)\n",
      "Message('control_change', channel=0, control=64, value=51, time=18)\n",
      "Message('control_change', channel=0, control=64, value=41, time=19)\n",
      "Message('control_change', channel=0, control=64, value=26, time=18)\n",
      "Message('control_change', channel=0, control=64, value=15, time=19)\n",
      "Message('control_change', channel=0, control=64, value=9, time=38)\n",
      "Message('control_change', channel=0, control=64, value=0, time=19)\n",
      "Message('control_change', channel=0, control=64, value=9, time=185)\n",
      "Message('control_change', channel=0, control=64, value=28, time=17)\n",
      "Message('control_change', channel=0, control=64, value=42, time=21)\n",
      "Message('control_change', channel=0, control=64, value=55, time=18)\n",
      "Message('control_change', channel=0, control=64, value=62, time=21)\n",
      "Message('control_change', channel=0, control=64, value=68, time=17)\n",
      "Message('control_change', channel=0, control=64, value=71, time=20)\n",
      "Message('control_change', channel=0, control=64, value=75, time=20)\n",
      "Message('control_change', channel=0, control=64, value=79, time=16)\n",
      "Message('control_change', channel=0, control=64, value=83, time=20)\n",
      "Message('control_change', channel=0, control=64, value=90, time=18)\n",
      "Message('control_change', channel=0, control=64, value=98, time=21)\n",
      "Message('control_change', channel=0, control=64, value=107, time=18)\n",
      "Message('control_change', channel=0, control=64, value=117, time=18)\n",
      "Message('control_change', channel=0, control=64, value=126, time=18)\n",
      "Message('note_on', channel=0, note=38, velocity=0, time=15)\n",
      "Message('note_on', channel=0, note=74, velocity=0, time=22)\n",
      "Message('control_change', channel=0, control=64, value=121, time=305)\n",
      "Message('control_change', channel=0, control=64, value=115, time=37)\n",
      "Message('control_change', channel=0, control=64, value=108, time=37)\n",
      "Message('control_change', channel=0, control=64, value=102, time=38)\n",
      "Message('control_change', channel=0, control=64, value=96, time=37)\n",
      "Message('control_change', channel=0, control=64, value=92, time=55)\n",
      "Message('control_change', channel=0, control=64, value=87, time=38)\n",
      "Message('control_change', channel=0, control=64, value=83, time=18)\n",
      "Message('control_change', channel=0, control=64, value=79, time=19)\n",
      "Message('control_change', channel=0, control=64, value=74, time=18)\n",
      "Message('control_change', channel=0, control=64, value=71, time=19)\n",
      "Message('control_change', channel=0, control=64, value=69, time=19)\n",
      "Message('control_change', channel=0, control=64, value=68, time=18)\n",
      "Message('control_change', channel=0, control=64, value=67, time=38)\n",
      "Message('control_change', channel=0, control=64, value=66, time=40)\n",
      "Message('control_change', channel=0, control=64, value=65, time=17)\n",
      "Message('control_change', channel=0, control=64, value=64, time=19)\n",
      "Message('control_change', channel=0, control=64, value=63, time=20)\n",
      "Message('note_on', channel=0, note=43, velocity=47, time=57)\n",
      "Message('control_change', channel=0, control=64, value=62, time=37)\n",
      "Message('note_on', channel=0, note=71, velocity=65, time=17)\n",
      "Message('control_change', channel=0, control=64, value=61, time=39)\n",
      "Message('note_on', channel=0, note=71, velocity=0, time=52)\n",
      "Message('control_change', channel=0, control=64, value=58, time=3)\n",
      "Message('note_on', channel=0, note=69, velocity=67, time=9)\n",
      "Message('note_on', channel=0, note=69, velocity=0, time=76)\n",
      "Message('control_change', channel=0, control=64, value=56, time=11)\n",
      "Message('note_on', channel=0, note=71, velocity=68, time=13)\n",
      "Message('control_change', channel=0, control=64, value=54, time=120)\n",
      "Message('control_change', channel=0, control=64, value=52, time=169)\n",
      "Message('control_change', channel=0, control=64, value=49, time=39)\n",
      "Message('control_change', channel=0, control=64, value=47, time=53)\n",
      "Message('control_change', channel=0, control=64, value=45, time=130)\n",
      "Message('control_change', channel=0, control=64, value=43, time=322)\n",
      "Message('note_on', channel=0, note=55, velocity=43, time=32)\n",
      "Message('control_change', channel=0, control=64, value=36, time=26)\n",
      "Message('control_change', channel=0, control=64, value=31, time=16)\n",
      "Message('control_change', channel=0, control=64, value=23, time=19)\n",
      "Message('control_change', channel=0, control=64, value=19, time=21)\n",
      "Message('control_change', channel=0, control=64, value=9, time=34)\n",
      "Message('control_change', channel=0, control=64, value=0, time=20)\n",
      "Message('note_on', channel=0, note=43, velocity=0, time=109)\n",
      "Message('control_change', channel=0, control=64, value=18, time=176)\n",
      "Message('control_change', channel=0, control=64, value=29, time=34)\n",
      "Message('note_on', channel=0, note=72, velocity=70, time=9)\n",
      "Message('control_change', channel=0, control=64, value=36, time=9)\n",
      "Message('control_change', channel=0, control=64, value=42, time=20)\n",
      "Message('control_change', channel=0, control=64, value=49, time=20)\n",
      "Message('control_change', channel=0, control=64, value=55, time=17)\n",
      "Message('note_on', channel=0, note=71, velocity=0, time=5)\n",
      "Message('control_change', channel=0, control=64, value=60, time=14)\n",
      "Message('control_change', channel=0, control=64, value=63, time=19)\n",
      "Message('control_change', channel=0, control=64, value=65, time=19)\n",
      "Message('control_change', channel=0, control=64, value=66, time=17)\n",
      "Message('control_change', channel=0, control=64, value=67, time=38)\n",
      "Message('control_change', channel=0, control=64, value=65, time=209)\n",
      "Message('control_change', channel=0, control=64, value=61, time=19)\n",
      "Message('control_change', channel=0, control=64, value=58, time=18)\n",
      "Message('control_change', channel=0, control=64, value=55, time=20)\n",
      "Message('note_on', channel=0, note=52, velocity=51, time=2)\n",
      "Message('note_on', channel=0, note=71, velocity=70, time=14)\n",
      "Message('control_change', channel=0, control=64, value=53, time=2)\n",
      "Message('note_on', channel=0, note=72, velocity=0, time=78)\n",
      "Message('note_on', channel=0, note=71, velocity=0, time=130)\n",
      "Message('note_on', channel=0, note=69, velocity=63, time=14)\n",
      "Message('note_on', channel=0, note=69, velocity=0, time=52)\n",
      "Message('control_change', channel=0, control=64, value=51, time=11)\n",
      "Message('note_on', channel=0, note=71, velocity=63, time=2)\n",
      "Message('control_change', channel=0, control=64, value=45, time=16)\n",
      "Message('control_change', channel=0, control=64, value=32, time=18)\n",
      "Message('control_change', channel=0, control=64, value=0, time=19)\n",
      "Message('note_on', channel=0, note=69, velocity=64, time=8)\n",
      "Message('note_on', channel=0, note=71, velocity=0, time=2)\n",
      "Message('control_change', channel=0, control=64, value=16, time=176)\n",
      "Message('control_change', channel=0, control=64, value=39, time=18)\n",
      "Message('control_change', channel=0, control=64, value=54, time=19)\n",
      "Message('control_change', channel=0, control=64, value=62, time=18)\n",
      "Message('control_change', channel=0, control=64, value=68, time=21)\n",
      "Message('control_change', channel=0, control=64, value=71, time=17)\n",
      "Message('control_change', channel=0, control=64, value=76, time=18)\n",
      "Message('control_change', channel=0, control=64, value=80, time=20)\n",
      "Message('control_change', channel=0, control=64, value=86, time=18)\n",
      "Message('control_change', channel=0, control=64, value=91, time=20)\n",
      "Message('control_change', channel=0, control=64, value=96, time=18)\n",
      "Message('note_on', channel=0, note=69, velocity=0, time=9)\n",
      "Message('control_change', channel=0, control=64, value=101, time=12)\n",
      "Message('note_on', channel=0, note=67, velocity=70, time=5)\n",
      "Message('control_change', channel=0, control=64, value=106, time=13)\n",
      "Message('control_change', channel=0, control=64, value=110, time=19)\n",
      "Message('control_change', channel=0, control=64, value=117, time=37)\n",
      "Message('note_on', channel=0, note=67, velocity=0, time=38)\n",
      "Message('control_change', channel=0, control=64, value=121, time=19)\n",
      "Message('control_change', channel=0, control=64, value=110, time=76)\n",
      "Message('note_on', channel=0, note=47, velocity=51, time=15)\n",
      "Message('control_change', channel=0, control=64, value=100, time=4)\n",
      "Message('control_change', channel=0, control=64, value=89, time=19)\n",
      "Message('note_on', channel=0, note=67, velocity=58, time=17)\n",
      "Message('control_change', channel=0, control=64, value=79, time=1)\n",
      "Message('control_change', channel=0, control=64, value=71, time=21)\n",
      "Message('note_on', channel=0, note=52, velocity=0, time=2)\n",
      "Message('control_change', channel=0, control=64, value=65, time=14)\n",
      "Message('control_change', channel=0, control=64, value=63, time=19)\n",
      "Message('control_change', channel=0, control=64, value=61, time=94)\n",
      "Message('note_on', channel=0, note=74, velocity=65, time=14)\n",
      "Message('note_on', channel=0, note=67, velocity=0, time=4)\n",
      "Message('control_change', channel=0, control=64, value=60, time=20)\n",
      "Message('control_change', channel=0, control=64, value=57, time=39)\n",
      "Message('control_change', channel=0, control=64, value=53, time=21)\n",
      "Message('control_change', channel=0, control=64, value=48, time=17)\n",
      "Message('control_change', channel=0, control=64, value=42, time=19)\n",
      "Message('control_change', channel=0, control=64, value=32, time=18)\n",
      "Message('control_change', channel=0, control=64, value=0, time=19)\n",
      "Message('control_change', channel=0, control=64, value=48, time=93)\n",
      "Message('control_change', channel=0, control=64, value=67, time=36)\n",
      "Message('control_change', channel=0, control=64, value=80, time=20)\n",
      "Message('control_change', channel=0, control=64, value=93, time=18)\n",
      "Message('control_change', channel=0, control=64, value=106, time=19)\n",
      "Message('control_change', channel=0, control=64, value=116, time=17)\n",
      "Message('control_change', channel=0, control=64, value=120, time=20)\n",
      "Message('note_on', channel=0, note=74, velocity=0, time=122)\n",
      "Message('control_change', channel=0, control=64, value=115, time=122)\n",
      "Message('control_change', channel=0, control=64, value=106, time=20)\n",
      "Message('control_change', channel=0, control=64, value=89, time=18)\n",
      "Message('note_on', channel=0, note=47, velocity=0, time=4)\n",
      "Message('control_change', channel=0, control=64, value=71, time=15)\n",
      "Message('note_on', channel=0, note=74, velocity=71, time=12)\n",
      "Message('control_change', channel=0, control=64, value=57, time=5)\n",
      "Message('note_on', channel=0, note=48, velocity=50, time=5)\n",
      "Message('control_change', channel=0, control=64, value=54, time=17)\n",
      "Message('control_change', channel=0, control=64, value=56, time=56)\n",
      "Message('note_on', channel=0, note=74, velocity=0, time=160)\n",
      "Message('note_on', channel=0, note=55, velocity=0, time=15)\n",
      "Message('note_on', channel=0, note=76, velocity=69, time=13)\n",
      "Message('note_on', channel=0, note=76, velocity=0, time=79)\n",
      "Message('note_on', channel=0, note=74, velocity=73, time=13)\n",
      "Message('control_change', channel=0, control=67, value=118, time=41)\n",
      "Message('control_change', channel=0, control=67, value=114, time=37)\n",
      "Message('note_on', channel=0, note=74, velocity=0, time=0)\n",
      "Message('note_on', channel=0, note=55, velocity=57, time=2)\n",
      "Message('note_on', channel=0, note=76, velocity=76, time=13)\n",
      "Message('control_change', channel=0, control=67, value=108, time=61)\n",
      "Message('control_change', channel=0, control=67, value=104, time=91)\n",
      "Message('note_on', channel=0, note=55, velocity=0, time=11)\n",
      "Message('control_change', channel=0, control=67, value=100, time=26)\n",
      "Message('control_change', channel=0, control=67, value=96, time=38)\n",
      "Message('control_change', channel=0, control=67, value=90, time=56)\n",
      "Message('control_change', channel=0, control=67, value=83, time=19)\n",
      "Message('control_change', channel=0, control=67, value=73, time=19)\n",
      "Message('control_change', channel=0, control=67, value=63, time=20)\n",
      "Message('control_change', channel=0, control=67, value=53, time=19)\n",
      "Message('control_change', channel=0, control=67, value=44, time=19)\n",
      "Message('control_change', channel=0, control=67, value=37, time=19)\n",
      "Message('control_change', channel=0, control=67, value=33, time=18)\n",
      "Message('note_on', channel=0, note=57, velocity=58, time=17)\n",
      "Message('control_change', channel=0, control=67, value=27, time=21)\n",
      "Message('control_change', channel=0, control=67, value=19, time=37)\n",
      "Message('control_change', channel=0, control=67, value=15, time=39)\n",
      "Message('note_on', channel=0, note=57, velocity=0, time=88)\n",
      "Message('control_change', channel=0, control=64, value=54, time=157)\n",
      "Message('control_change', channel=0, control=64, value=51, time=19)\n",
      "Message('control_change', channel=0, control=64, value=46, time=19)\n",
      "Message('control_change', channel=0, control=64, value=43, time=18)\n",
      "Message('control_change', channel=0, control=64, value=46, time=39)\n",
      "Message('note_on', channel=0, note=59, velocity=57, time=6)\n",
      "Message('control_change', channel=0, control=64, value=53, time=11)\n",
      "Message('control_change', channel=0, control=67, value=11, time=1)\n",
      "Message('control_change', channel=0, control=64, value=60, time=18)\n",
      "Message('control_change', channel=0, control=64, value=66, time=20)\n",
      "Message('control_change', channel=0, control=64, value=71, time=19)\n",
      "Message('control_change', channel=0, control=64, value=75, time=17)\n",
      "Message('control_change', channel=0, control=64, value=79, time=19)\n",
      "Message('control_change', channel=0, control=64, value=85, time=20)\n",
      "Message('control_change', channel=0, control=64, value=92, time=18)\n",
      "Message('control_change', channel=0, control=64, value=99, time=35)\n",
      "Message('note_on', channel=0, note=59, velocity=0, time=6)\n",
      "Message('control_change', channel=0, control=64, value=107, time=14)\n",
      "Message('control_change', channel=0, control=64, value=114, time=20)\n",
      "Message('note_on', channel=0, note=48, velocity=0, time=16)\n",
      "Message('control_change', channel=0, control=64, value=121, time=1)\n",
      "Message('control_change', channel=0, control=64, value=125, time=17)\n",
      "Message('note_on', channel=0, note=76, velocity=0, time=99)\n",
      "Message('control_change', channel=0, control=64, value=119, time=130)\n",
      "Message('control_change', channel=0, control=64, value=111, time=18)\n",
      "Message('note_on', channel=0, note=60, velocity=49, time=7)\n",
      "Message('note_on', channel=0, note=57, velocity=48, time=2)\n",
      "Message('note_on', channel=0, note=67, velocity=61, time=8)\n",
      "Message('control_change', channel=0, control=64, value=99, time=2)\n",
      "Message('control_change', channel=0, control=64, value=87, time=18)\n",
      "Message('control_change', channel=0, control=64, value=73, time=20)\n",
      "Message('control_change', channel=0, control=64, value=61, time=18)\n",
      "Message('control_change', channel=0, control=64, value=56, time=19)\n",
      "Message('control_change', channel=0, control=64, value=58, time=361)\n",
      "Message('note_on', channel=0, note=66, velocity=59, time=14)\n",
      "Message('note_on', channel=0, note=67, velocity=0, time=4)\n",
      "Message('control_change', channel=0, control=64, value=60, time=14)\n",
      "Message('control_change', channel=0, control=64, value=61, time=40)\n",
      "Message('control_change', channel=0, control=64, value=62, time=15)\n",
      "Message('note_on', channel=0, note=57, velocity=0, time=13)\n",
      "Message('control_change', channel=0, control=64, value=64, time=27)\n",
      "Message('control_change', channel=0, control=64, value=65, time=74)\n",
      "Message('control_change', channel=0, control=64, value=66, time=36)\n",
      "Message('control_change', channel=0, control=64, value=65, time=227)\n",
      "Message('note_on', channel=0, note=57, velocity=44, time=6)\n",
      "Message('note_on', channel=0, note=54, velocity=44, time=8)\n",
      "Message('control_change', channel=0, control=64, value=62, time=6)\n",
      "Message('control_change', channel=0, control=64, value=59, time=17)\n",
      "Message('note_on', channel=0, note=60, velocity=0, time=7)\n",
      "Message('control_change', channel=0, control=64, value=57, time=11)\n",
      "Message('control_change', channel=0, control=64, value=55, time=38)\n",
      "Message('control_change', channel=0, control=64, value=52, time=245)\n",
      "Message('control_change', channel=0, control=64, value=50, time=19)\n",
      "Message('control_change', channel=0, control=64, value=40, time=18)\n",
      "Message('control_change', channel=0, control=64, value=16, time=20)\n",
      "Message('control_change', channel=0, control=64, value=0, time=19)\n",
      "Message('note_on', channel=0, note=72, velocity=65, time=22)\n",
      "Message('control_change', channel=0, control=64, value=33, time=53)\n",
      "Message('control_change', channel=0, control=64, value=53, time=20)\n",
      "Message('control_change', channel=0, control=64, value=65, time=17)\n",
      "Message('note_on', channel=0, note=66, velocity=0, time=0)\n",
      "Message('control_change', channel=0, control=64, value=74, time=21)\n",
      "Message('control_change', channel=0, control=64, value=81, time=18)\n",
      "Message('control_change', channel=0, control=64, value=89, time=18)\n",
      "Message('control_change', channel=0, control=64, value=98, time=20)\n",
      "Message('control_change', channel=0, control=64, value=104, time=18)\n",
      "Message('control_change', channel=0, control=64, value=109, time=20)\n",
      "Message('control_change', channel=0, control=64, value=113, time=73)\n",
      "Message('note_on', channel=0, note=72, velocity=0, time=15)\n",
      "Message('control_change', channel=0, control=64, value=109, time=134)\n",
      "Message('control_change', channel=0, control=64, value=96, time=19)\n",
      "Message('note_on', channel=0, note=72, velocity=63, time=15)\n",
      "Message('note_on', channel=0, note=55, velocity=46, time=2)\n",
      "Message('control_change', channel=0, control=64, value=77, time=1)\n",
      "Message('note_on', channel=0, note=57, velocity=0, time=2)\n",
      "Message('note_on', channel=0, note=54, velocity=0, time=10)\n",
      "Message('control_change', channel=0, control=64, value=61, time=8)\n",
      "Message('control_change', channel=0, control=64, value=55, time=20)\n",
      "Message('control_change', channel=0, control=64, value=57, time=18)\n",
      "Message('control_change', channel=0, control=64, value=59, time=20)\n",
      "Message('control_change', channel=0, control=64, value=61, time=17)\n",
      "Message('note_on', channel=0, note=72, velocity=0, time=123)\n",
      "Message('note_on', channel=0, note=71, velocity=63, time=11)\n",
      "Message('note_on', channel=0, note=71, velocity=0, time=64)\n",
      "Message('note_on', channel=0, note=72, velocity=53, time=26)\n",
      "Message('note_on', channel=0, note=72, velocity=0, time=67)\n",
      "Message('note_on', channel=0, note=71, velocity=55, time=11)\n",
      "Message('control_change', channel=0, control=64, value=62, time=228)\n",
      "Message('note_on', channel=0, note=69, velocity=64, time=3)\n",
      "Message('note_on', channel=0, note=71, velocity=0, time=31)\n",
      "Message('control_change', channel=0, control=64, value=65, time=2)\n",
      "Message('control_change', channel=0, control=64, value=66, time=39)\n",
      "Message('note_on', channel=0, note=69, velocity=0, time=53)\n",
      "Message('note_on', channel=0, note=50, velocity=48, time=107)\n",
      "Message('note_on', channel=0, note=69, velocity=58, time=11)\n",
      "Message('control_change', channel=0, control=64, value=63, time=31)\n",
      "Message('control_change', channel=0, control=64, value=60, time=19)\n",
      "Message('control_change', channel=0, control=64, value=57, time=21)\n",
      "Message('note_on', channel=0, note=52, velocity=51, time=369)\n",
      "Message('control_change', channel=0, control=64, value=59, time=177)\n",
      "Message('control_change', channel=0, control=64, value=60, time=75)\n",
      "Message('control_change', channel=0, control=64, value=58, time=95)\n",
      "Message('note_on', channel=0, note=55, velocity=0, time=32)\n",
      "Message('note_on', channel=0, note=52, velocity=0, time=4)\n",
      "Message('note_on', channel=0, note=54, velocity=57, time=40)\n",
      "Message('note_on', channel=0, note=54, velocity=0, time=129)\n",
      "Message('note_on', channel=0, note=57, velocity=49, time=330)\n",
      "Message('note_on', channel=0, note=57, velocity=0, time=135)\n",
      "Message('control_change', channel=0, control=64, value=56, time=214)\n",
      "Message('note_on', channel=0, note=62, velocity=44, time=181)\n",
      "Message('control_change', channel=0, control=64, value=59, time=22)\n",
      "Message('control_change', channel=0, control=64, value=62, time=21)\n",
      "Message('control_change', channel=0, control=64, value=65, time=18)\n",
      "Message('control_change', channel=0, control=64, value=68, time=19)\n",
      "Message('control_change', channel=0, control=64, value=70, time=17)\n",
      "Message('control_change', channel=0, control=64, value=72, time=19)\n",
      "Message('note_on', channel=0, note=50, velocity=0, time=3)\n",
      "Message('control_change', channel=0, control=64, value=74, time=17)\n",
      "Message('control_change', channel=0, control=64, value=77, time=19)\n",
      "Message('control_change', channel=0, control=64, value=81, time=19)\n",
      "Message('control_change', channel=0, control=64, value=86, time=20)\n",
      "Message('control_change', channel=0, control=64, value=91, time=18)\n",
      "Message('control_change', channel=0, control=64, value=97, time=19)\n",
      "Message('control_change', channel=0, control=64, value=102, time=17)\n",
      "Message('control_change', channel=0, control=64, value=107, time=20)\n",
      "Message('control_change', channel=0, control=64, value=111, time=19)\n",
      "Message('control_change', channel=0, control=64, value=115, time=19)\n",
      "Message('control_change', channel=0, control=64, value=121, time=37)\n",
      "Message('control_change', channel=0, control=64, value=125, time=57)\n",
      "Message('note_on', channel=0, note=69, velocity=0, time=7)\n",
      "Message('note_on', channel=0, note=50, velocity=44, time=120)\n",
      "Message('note_on', channel=0, note=50, velocity=0, time=135)\n",
      "Message('control_change', channel=0, control=64, value=118, time=413)\n",
      "Message('control_change', channel=0, control=64, value=110, time=21)\n",
      "Message('note_on', channel=0, note=48, velocity=48, time=7)\n",
      "Message('note_on', channel=0, note=78, velocity=72, time=7)\n",
      "Message('control_change', channel=0, control=64, value=100, time=4)\n",
      "Message('control_change', channel=0, control=64, value=92, time=17)\n",
      "Message('control_change', channel=0, control=64, value=86, time=19)\n",
      "Message('control_change', channel=0, control=64, value=79, time=20)\n",
      "Message('control_change', channel=0, control=64, value=72, time=18)\n",
      "Message('note_on', channel=0, note=62, velocity=0, time=0)\n",
      "Message('note_on', channel=0, note=78, velocity=0, time=9)\n",
      "Message('control_change', channel=0, control=64, value=68, time=9)\n",
      "Message('note_on', channel=0, note=76, velocity=70, time=0)\n",
      "Message('note_on', channel=0, note=76, velocity=0, time=91)\n",
      "Message('note_on', channel=0, note=78, velocity=74, time=11)\n",
      "Message('control_change', channel=0, control=64, value=67, time=12)\n",
      "Message('control_change', channel=0, control=64, value=66, time=544)\n",
      "Message('control_change', channel=0, control=64, value=65, time=39)\n",
      "Message('control_change', channel=0, control=64, value=63, time=19)\n",
      "Message('control_change', channel=0, control=64, value=60, time=18)\n",
      "Message('control_change', channel=0, control=64, value=55, time=19)\n",
      "Message('control_change', channel=0, control=64, value=51, time=20)\n",
      "Message('note_on', channel=0, note=57, velocity=47, time=67)\n",
      "Message('control_change', channel=0, control=64, value=55, time=26)\n",
      "Message('control_change', channel=0, control=64, value=59, time=19)\n",
      "Message('control_change', channel=0, control=64, value=62, time=17)\n",
      "Message('control_change', channel=0, control=64, value=65, time=20)\n",
      "Message('control_change', channel=0, control=64, value=68, time=20)\n",
      "Message('control_change', channel=0, control=64, value=71, time=37)\n",
      "Message('control_change', channel=0, control=64, value=74, time=20)\n",
      "Message('control_change', channel=0, control=64, value=76, time=19)\n",
      "Message('control_change', channel=0, control=64, value=80, time=16)\n",
      "Message('control_change', channel=0, control=64, value=85, time=22)\n",
      "Message('note_on', channel=0, note=48, velocity=0, time=2)\n",
      "Message('control_change', channel=0, control=64, value=90, time=15)\n",
      "Message('control_change', channel=0, control=64, value=97, time=20)\n",
      "Message('control_change', channel=0, control=64, value=102, time=19)\n",
      "Message('control_change', channel=0, control=64, value=107, time=17)\n",
      "Message('control_change', channel=0, control=64, value=112, time=39)\n",
      "Message('control_change', channel=0, control=64, value=116, time=77)\n",
      "Message('note_on', channel=0, note=79, velocity=69, time=20)\n",
      "Message('note_on', channel=0, note=78, velocity=0, time=25)\n",
      "Message('note_on', channel=0, note=81, velocity=71, time=195)\n",
      "Message('note_on', channel=0, note=79, velocity=0, time=29)\n",
      "Message('control_change', channel=0, control=64, value=110, time=179)\n",
      "Message('note_on', channel=0, note=48, velocity=52, time=16)\n",
      "Message('control_change', channel=0, control=64, value=96, time=1)\n",
      "Message('note_on', channel=0, note=79, velocity=68, time=14)\n",
      "Message('control_change', channel=0, control=64, value=75, time=6)\n",
      "Message('note_on', channel=0, note=81, velocity=0, time=7)\n",
      "Message('control_change', channel=0, control=64, value=49, time=13)\n",
      "Message('control_change', channel=0, control=64, value=30, time=19)\n",
      "Message('control_change', channel=0, control=64, value=37, time=38)\n",
      "Message('control_change', channel=0, control=64, value=46, time=18)\n",
      "Message('control_change', channel=0, control=64, value=55, time=20)\n",
      "Message('control_change', channel=0, control=64, value=60, time=16)\n",
      "Message('control_change', channel=0, control=64, value=63, time=20)\n",
      "Message('control_change', channel=0, control=64, value=66, time=22)\n",
      "Message('note_on', channel=0, note=78, velocity=76, time=1)\n",
      "Message('control_change', channel=0, control=64, value=68, time=16)\n",
      "Message('control_change', channel=0, control=64, value=70, time=19)\n",
      "Message('note_on', channel=0, note=79, velocity=0, time=8)\n",
      "Message('control_change', channel=0, control=64, value=72, time=11)\n",
      "Message('control_change', channel=0, control=64, value=74, time=20)\n",
      "Message('control_change', channel=0, control=64, value=77, time=16)\n",
      "Message('control_change', channel=0, control=64, value=80, time=20)\n",
      "Message('control_change', channel=0, control=64, value=83, time=18)\n",
      "Message('control_change', channel=0, control=64, value=87, time=22)\n",
      "Message('control_change', channel=0, control=64, value=93, time=34)\n",
      "Message('note_on', channel=0, note=76, velocity=77, time=1)\n",
      "Message('control_change', channel=0, control=64, value=99, time=37)\n",
      "Message('note_on', channel=0, note=78, velocity=0, time=75)\n",
      "Message('note_on', channel=0, note=74, velocity=80, time=67)\n",
      "Message('note_on', channel=0, note=76, velocity=0, time=23)\n",
      "Message('note_on', channel=0, note=74, velocity=0, time=84)\n",
      "Message('control_change', channel=0, control=64, value=90, time=201)\n",
      "Message('note_on', channel=0, note=74, velocity=70, time=8)\n",
      "Message('note_on', channel=0, note=47, velocity=48, time=1)\n",
      "Message('control_change', channel=0, control=64, value=80, time=9)\n",
      "Message('control_change', channel=0, control=64, value=68, time=19)\n",
      "Message('note_on', channel=0, note=48, velocity=0, time=18)\n",
      "Message('control_change', channel=0, control=64, value=60, time=2)\n",
      "Message('control_change', channel=0, control=64, value=57, time=19)\n",
      "Message('note_on', channel=0, note=74, velocity=0, time=91)\n",
      "Message('note_on', channel=0, note=79, velocity=68, time=4)\n",
      "Message('note_on', channel=0, note=57, velocity=0, time=92)\n",
      "Message('control_change', channel=0, control=64, value=55, time=58)\n",
      "Message('control_change', channel=0, control=64, value=51, time=20)\n",
      "Message('control_change', channel=0, control=64, value=36, time=20)\n",
      "Message('control_change', channel=0, control=64, value=0, time=17)\n",
      "Message('note_on', channel=0, note=50, velocity=49, time=46)\n",
      "Message('control_change', channel=0, control=64, value=18, time=29)\n",
      "Message('control_change', channel=0, control=64, value=49, time=18)\n",
      "Message('control_change', channel=0, control=64, value=65, time=19)\n",
      "Message('control_change', channel=0, control=64, value=76, time=20)\n",
      "Message('control_change', channel=0, control=64, value=86, time=18)\n",
      "Message('control_change', channel=0, control=64, value=97, time=20)\n",
      "Message('note_on', channel=0, note=47, velocity=0, time=8)\n",
      "Message('control_change', channel=0, control=64, value=106, time=12)\n",
      "Message('note_on', channel=0, note=50, velocity=0, time=11)\n",
      "Message('control_change', channel=0, control=64, value=113, time=7)\n",
      "Message('control_change', channel=0, control=64, value=118, time=36)\n",
      "Message('control_change', channel=0, control=64, value=111, time=210)\n",
      "Message('control_change', channel=0, control=64, value=101, time=16)\n",
      "Message('control_change', channel=0, control=64, value=88, time=20)\n",
      "Message('note_on', channel=0, note=72, velocity=62, time=4)\n",
      "Message('note_on', channel=0, note=52, velocity=45, time=13)\n",
      "Message('note_on', channel=0, note=55, velocity=46, time=0)\n",
      "Message('control_change', channel=0, control=64, value=77, time=2)\n",
      "Message('note_on', channel=0, note=79, velocity=0, time=3)\n",
      "Message('control_change', channel=0, control=64, value=67, time=17)\n",
      "Message('control_change', channel=0, control=64, value=60, time=18)\n",
      "Message('note_on', channel=0, note=72, velocity=0, time=60)\n",
      "Message('note_on', channel=0, note=71, velocity=62, time=16)\n",
      "Message('note_on', channel=0, note=71, velocity=0, time=76)\n",
      "Message('note_on', channel=0, note=72, velocity=56, time=51)\n",
      "Message('control_change', channel=0, control=64, value=58, time=549)\n",
      "Message('note_on', channel=0, note=48, velocity=44, time=169)\n",
      "Message('note_on', channel=0, note=52, velocity=0, time=37)\n",
      "Message('note_on', channel=0, note=74, velocity=53, time=444)\n",
      "Message('note_on', channel=0, note=72, velocity=0, time=37)\n",
      "Message('note_on', channel=0, note=76, velocity=57, time=172)\n",
      "Message('note_on', channel=0, note=74, velocity=0, time=20)\n",
      "Message('note_on', channel=0, note=48, velocity=0, time=172)\n",
      "Message('control_change', channel=0, control=64, value=55, time=21)\n",
      "Message('note_on', channel=0, note=76, velocity=0, time=16)\n",
      "Message('control_change', channel=0, control=64, value=51, time=1)\n",
      "Message('note_on', channel=0, note=69, velocity=55, time=15)\n",
      "Message('control_change', channel=0, control=64, value=44, time=3)\n",
      "Message('note_on', channel=0, note=50, velocity=39, time=3)\n",
      "Message('control_change', channel=0, control=64, value=36, time=18)\n",
      "Message('control_change', channel=0, control=64, value=45, time=128)\n",
      "Message('control_change', channel=0, control=64, value=54, time=21)\n",
      "Message('control_change', channel=0, control=64, value=62, time=17)\n",
      "Message('control_change', channel=0, control=64, value=68, time=20)\n",
      "Message('control_change', channel=0, control=64, value=71, time=19)\n",
      "Message('control_change', channel=0, control=64, value=74, time=18)\n",
      "Message('control_change', channel=0, control=64, value=77, time=19)\n",
      "Message('control_change', channel=0, control=64, value=81, time=18)\n",
      "Message('control_change', channel=0, control=64, value=86, time=20)\n",
      "Message('control_change', channel=0, control=64, value=91, time=17)\n",
      "Message('control_change', channel=0, control=64, value=96, time=20)\n",
      "Message('control_change', channel=0, control=64, value=101, time=17)\n",
      "Message('control_change', channel=0, control=64, value=106, time=21)\n",
      "Message('control_change', channel=0, control=64, value=110, time=56)\n",
      "Message('control_change', channel=0, control=64, value=104, time=434)\n",
      "Message('control_change', channel=0, control=64, value=100, time=21)\n",
      "Message('note_on', channel=0, note=74, velocity=57, time=16)\n",
      "Message('control_change', channel=0, control=64, value=91, time=1)\n",
      "Message('note_on', channel=0, note=54, velocity=40, time=15)\n",
      "Message('control_change', channel=0, control=64, value=78, time=5)\n",
      "Message('note_on', channel=0, note=55, velocity=0, time=15)\n",
      "Message('control_change', channel=0, control=64, value=65, time=3)\n",
      "Message('control_change', channel=0, control=64, value=55, time=19)\n",
      "Message('note_on', channel=0, note=69, velocity=0, time=12)\n",
      "Message('control_change', channel=0, control=64, value=58, time=27)\n",
      "Message('control_change', channel=0, control=64, value=63, time=17)\n",
      "Message('control_change', channel=0, control=64, value=69, time=34)\n",
      "Message('control_change', channel=0, control=64, value=73, time=18)\n",
      "Message('control_change', channel=0, control=64, value=77, time=21)\n",
      "Message('control_change', channel=0, control=64, value=79, time=18)\n",
      "Message('control_change', channel=0, control=64, value=81, time=19)\n",
      "Message('control_change', channel=0, control=64, value=84, time=20)\n",
      "Message('control_change', channel=0, control=64, value=86, time=20)\n",
      "Message('note_on', channel=0, note=74, velocity=0, time=12)\n",
      "Message('control_change', channel=0, control=64, value=91, time=23)\n",
      "Message('note_on', channel=0, note=54, velocity=0, time=150)\n",
      "Message('note_on', channel=0, note=52, velocity=42, time=54)\n",
      "Message('note_on', channel=0, note=72, velocity=60, time=148)\n",
      "Message('control_change', channel=0, control=64, value=87, time=175)\n",
      "Message('control_change', channel=0, control=64, value=83, time=18)\n",
      "Message('control_change', channel=0, control=64, value=78, time=17)\n",
      "Message('note_on', channel=0, note=72, velocity=0, time=11)\n",
      "Message('note_on', channel=0, note=71, velocity=50, time=5)\n",
      "Message('note_on', channel=0, note=54, velocity=48, time=1)\n",
      "Message('control_change', channel=0, control=64, value=70, time=2)\n",
      "Message('control_change', channel=0, control=64, value=61, time=21)\n",
      "Message('note_on', channel=0, note=52, velocity=0, time=11)\n",
      "Message('control_change', channel=0, control=64, value=49, time=6)\n",
      "Message('control_change', channel=0, control=64, value=32, time=21)\n",
      "Message('control_change', channel=0, control=64, value=0, time=18)\n",
      "Message('control_change', channel=0, control=64, value=23, time=185)\n",
      "Message('control_change', channel=0, control=64, value=40, time=18)\n",
      "Message('control_change', channel=0, control=64, value=54, time=21)\n",
      "Message('control_change', channel=0, control=64, value=62, time=18)\n",
      "Message('control_change', channel=0, control=64, value=67, time=20)\n",
      "Message('control_change', channel=0, control=64, value=70, time=18)\n",
      "Message('control_change', channel=0, control=64, value=72, time=19)\n",
      "Message('control_change', channel=0, control=64, value=76, time=38)\n",
      "Message('control_change', channel=0, control=64, value=80, time=19)\n",
      "Message('control_change', channel=0, control=64, value=84, time=18)\n",
      "Message('control_change', channel=0, control=64, value=89, time=18)\n",
      "Message('control_change', channel=0, control=64, value=93, time=20)\n",
      "Message('control_change', channel=0, control=64, value=99, time=38)\n",
      "Message('control_change', channel=0, control=67, value=15, time=37)\n",
      "Message('control_change', channel=0, control=67, value=20, time=75)\n",
      "Message('control_change', channel=0, control=67, value=25, time=39)\n",
      "Message('note_on', channel=0, note=72, velocity=59, time=10)\n",
      "Message('control_change', channel=0, control=67, value=32, time=26)\n",
      "Message('control_change', channel=0, control=67, value=39, time=39)\n",
      "Message('note_on', channel=0, note=71, velocity=0, time=11)\n",
      "Message('note_on', channel=0, note=72, velocity=0, time=24)\n",
      "Message('control_change', channel=0, control=67, value=45, time=1)\n",
      "Message('control_change', channel=0, control=67, value=52, time=41)\n",
      "Message('control_change', channel=0, control=67, value=56, time=17)\n",
      "Message('control_change', channel=0, control=64, value=94, time=20)\n",
      "Message('control_change', channel=0, control=67, value=60, time=1)\n",
      "Message('control_change', channel=0, control=64, value=82, time=18)\n",
      "Message('control_change', channel=0, control=64, value=61, time=19)\n",
      "Message('control_change', channel=0, control=67, value=67, time=2)\n",
      "Message('control_change', channel=0, control=64, value=0, time=17)\n",
      "Message('note_on', channel=0, note=55, velocity=48, time=7)\n",
      "Message('note_on', channel=0, note=72, velocity=59, time=4)\n",
      "Message('control_change', channel=0, control=67, value=71, time=24)\n",
      "Message('note_on', channel=0, note=54, velocity=0, time=25)\n",
      "Message('control_change', channel=0, control=64, value=23, time=33)\n",
      "Message('control_change', channel=0, control=64, value=39, time=20)\n",
      "Message('control_change', channel=0, control=64, value=48, time=19)\n",
      "Message('control_change', channel=0, control=64, value=53, time=19)\n",
      "Message('control_change', channel=0, control=64, value=55, time=17)\n",
      "Message('note_on', channel=0, note=50, velocity=0, time=20)\n",
      "Message('note_on', channel=0, note=72, velocity=0, time=81)\n",
      "Message('control_change', channel=0, control=64, value=57, time=8)\n",
      "Message('note_on', channel=0, note=71, velocity=54, time=22)\n",
      "Message('note_on', channel=0, note=71, velocity=0, time=55)\n",
      "Message('note_on', channel=0, note=72, velocity=57, time=25)\n",
      "Message('control_change', channel=0, control=64, value=54, time=31)\n",
      "Message('note_on', channel=0, note=72, velocity=0, time=42)\n",
      "Message('control_change', channel=0, control=64, value=51, time=16)\n",
      "Message('note_on', channel=0, note=71, velocity=45, time=19)\n",
      "Message('control_change', channel=0, control=64, value=49, time=17)\n",
      "Message('control_change', channel=0, control=64, value=47, time=96)\n",
      "Message('control_change', channel=0, control=67, value=67, time=131)\n",
      "Message('control_change', channel=0, control=67, value=63, time=133)\n",
      "Message('control_change', channel=0, control=67, value=58, time=76)\n",
      "Message('note_on', channel=0, note=50, velocity=39, time=1)\n",
      "Message('note_on', channel=0, note=50, velocity=0, time=159)\n",
      "Message('note_on', channel=0, note=69, velocity=46, time=291)\n",
      "Message('note_on', channel=0, note=71, velocity=0, time=36)\n",
      "Message('control_change', channel=0, control=64, value=45, time=546)\n",
      "Message('note_on', channel=0, note=67, velocity=41, time=7)\n",
      "Message('note_on', channel=0, note=43, velocity=31, time=8)\n",
      "Message('note_on', channel=0, note=69, velocity=0, time=13)\n",
      "Message('control_change', channel=0, control=64, value=43, time=12)\n",
      "Message('control_change', channel=0, control=64, value=40, time=17)\n",
      "Message('control_change', channel=0, control=64, value=36, time=19)\n",
      "Message('control_change', channel=0, control=64, value=32, time=20)\n",
      "Message('control_change', channel=0, control=64, value=28, time=36)\n",
      "Message('control_change', channel=0, control=64, value=39, time=89)\n",
      "Message('control_change', channel=0, control=64, value=50, time=21)\n",
      "Message('control_change', channel=0, control=64, value=59, time=18)\n",
      "Message('control_change', channel=0, control=64, value=66, time=20)\n",
      "Message('control_change', channel=0, control=64, value=72, time=19)\n",
      "Message('control_change', channel=0, control=64, value=77, time=19)\n",
      "Message('control_change', channel=0, control=64, value=83, time=19)\n",
      "Message('note_on', channel=0, note=67, velocity=0, time=11)\n",
      "Message('control_change', channel=0, control=64, value=92, time=9)\n",
      "Message('control_change', channel=0, control=64, value=101, time=17)\n",
      "Message('note_on', channel=0, note=43, velocity=0, time=17)\n",
      "Message('control_change', channel=0, control=64, value=110, time=1)\n",
      "Message('control_change', channel=0, control=64, value=117, time=20)\n",
      "Message('control_change', channel=0, control=64, value=121, time=20)\n",
      "Message('control_change', channel=0, control=64, value=126, time=36)\n",
      "Message('note_on', channel=0, note=55, velocity=0, time=145)\n",
      "Message('control_change', channel=0, control=67, value=62, time=5)\n",
      "Message('control_change', channel=0, control=67, value=66, time=229)\n",
      "Message('control_change', channel=0, control=64, value=120, time=56)\n",
      "Message('control_change', channel=0, control=64, value=114, time=36)\n",
      "Message('control_change', channel=0, control=64, value=110, time=38)\n",
      "Message('control_change', channel=0, control=67, value=70, time=20)\n",
      "Message('control_change', channel=0, control=64, value=105, time=39)\n",
      "Message('control_change', channel=0, control=64, value=100, time=55)\n",
      "Message('control_change', channel=0, control=64, value=95, time=39)\n",
      "Message('control_change', channel=0, control=64, value=90, time=32)\n",
      "Message('control_change', channel=0, control=64, value=85, time=19)\n",
      "Message('control_change', channel=0, control=64, value=79, time=20)\n",
      "Message('control_change', channel=0, control=64, value=72, time=18)\n",
      "Message('control_change', channel=0, control=64, value=66, time=20)\n",
      "Message('control_change', channel=0, control=64, value=62, time=18)\n",
      "Message('control_change', channel=0, control=64, value=61, time=21)\n",
      "Message('control_change', channel=0, control=64, value=58, time=18)\n",
      "Message('control_change', channel=0, control=64, value=54, time=20)\n",
      "Message('note_on', channel=0, note=83, velocity=70, time=12)\n",
      "Message('control_change', channel=0, control=64, value=44, time=4)\n",
      "Message('note_on', channel=0, note=55, velocity=40, time=16)\n",
      "Message('control_change', channel=0, control=64, value=25, time=5)\n",
      "Message('control_change', channel=0, control=64, value=0, time=19)\n",
      "Message('control_change', channel=0, control=64, value=26, time=131)\n",
      "Message('control_change', channel=0, control=64, value=39, time=20)\n",
      "Message('control_change', channel=0, control=64, value=48, time=19)\n",
      "Message('control_change', channel=0, control=64, value=55, time=17)\n",
      "Message('control_change', channel=0, control=64, value=59, time=19)\n",
      "Message('control_change', channel=0, control=64, value=62, time=19)\n",
      "Message('control_change', channel=0, control=64, value=65, time=19)\n",
      "Message('control_change', channel=0, control=64, value=66, time=18)\n",
      "Message('control_change', channel=0, control=64, value=68, time=38)\n",
      "Message('control_change', channel=0, control=64, value=70, time=37)\n",
      "Message('control_change', channel=0, control=64, value=72, time=38)\n",
      "Message('control_change', channel=0, control=64, value=74, time=39)\n",
      "Message('note_on', channel=0, note=59, velocity=42, time=4)\n",
      "Message('control_change', channel=0, control=64, value=77, time=52)\n",
      "Message('control_change', channel=0, control=64, value=80, time=76)\n",
      "Message('note_on', channel=0, note=59, velocity=0, time=23)\n",
      "Message('control_change', channel=0, control=64, value=82, time=16)\n",
      "Message('control_change', channel=0, control=64, value=84, time=75)\n",
      "Message('control_change', channel=0, control=64, value=82, time=185)\n",
      "Message('control_change', channel=0, control=64, value=75, time=19)\n",
      "Message('note_on', channel=0, note=64, velocity=41, time=11)\n",
      "Message('control_change', channel=0, control=64, value=66, time=7)\n",
      "Message('control_change', channel=0, control=64, value=60, time=22)\n",
      "Message('control_change', channel=0, control=64, value=62, time=35)\n",
      "Message('control_change', channel=0, control=64, value=65, time=19)\n",
      "Message('control_change', channel=0, control=64, value=67, time=20)\n",
      "Message('control_change', channel=0, control=64, value=69, time=16)\n",
      "Message('control_change', channel=0, control=64, value=71, time=39)\n",
      "Message('control_change', channel=0, control=64, value=73, time=93)\n",
      "Message('control_change', channel=0, control=64, value=75, time=76)\n",
      "Message('note_on', channel=0, note=81, velocity=60, time=112)\n",
      "Message('note_on', channel=0, note=83, velocity=0, time=28)\n",
      "Message('note_on', channel=0, note=79, velocity=68, time=163)\n",
      "Message('control_change', channel=0, control=64, value=77, time=56)\n",
      "Message('note_on', channel=0, note=81, velocity=0, time=2)\n",
      "Message('note_on', channel=0, note=79, velocity=0, time=161)\n",
      "Message('control_change', channel=0, control=64, value=75, time=1)\n",
      "Message('note_on', channel=0, note=62, velocity=58, time=0)\n",
      "Message('note_on', channel=0, note=78, velocity=69, time=1)\n",
      "Message('control_change', channel=0, control=64, value=71, time=20)\n",
      "Message('control_change', channel=0, control=64, value=64, time=19)\n",
      "Message('note_on', channel=0, note=64, velocity=0, time=15)\n",
      "Message('control_change', channel=0, control=64, value=57, time=3)\n",
      "Message('control_change', channel=0, control=64, value=55, time=20)\n",
      "Message('control_change', channel=0, control=64, value=58, time=39)\n",
      "Message('control_change', channel=0, control=64, value=62, time=19)\n",
      "Message('control_change', channel=0, control=64, value=65, time=16)\n",
      "Message('control_change', channel=0, control=64, value=68, time=21)\n",
      "Message('note_on', channel=0, note=79, velocity=72, time=26)\n",
      "Message('note_on', channel=0, note=78, velocity=0, time=6)\n",
      "Message('control_change', channel=0, control=64, value=71, time=6)\n",
      "Message('control_change', channel=0, control=64, value=73, time=75)\n",
      "Message('control_change', channel=0, control=64, value=76, time=39)\n",
      "Message('control_change', channel=0, control=64, value=78, time=37)\n",
      "Message('control_change', channel=0, control=64, value=80, time=37)\n",
      "Message('note_on', channel=0, note=76, velocity=76, time=16)\n",
      "Message('note_on', channel=0, note=79, velocity=0, time=10)\n",
      "Message('control_change', channel=0, control=64, value=82, time=29)\n",
      "Message('control_change', channel=0, control=64, value=84, time=58)\n",
      "Message('control_change', channel=0, control=64, value=86, time=56)\n",
      "Message('control_change', channel=0, control=64, value=82, time=226)\n",
      "Message('control_change', channel=0, control=64, value=71, time=19)\n",
      "Message('note_on', channel=0, note=81, velocity=70, time=15)\n",
      "Message('note_on', channel=0, note=62, velocity=0, time=3)\n",
      "Message('control_change', channel=0, control=64, value=46, time=1)\n",
      "Message('note_on', channel=0, note=76, velocity=0, time=4)\n",
      "Message('control_change', channel=0, control=64, value=0, time=16)\n",
      "Message('note_on', channel=0, note=55, velocity=0, time=1)\n",
      "Message('note_on', channel=0, note=61, velocity=52, time=9)\n",
      "Message('control_change', channel=0, control=64, value=22, time=48)\n",
      "Message('control_change', channel=0, control=64, value=49, time=33)\n",
      "Message('control_change', channel=0, control=64, value=62, time=16)\n",
      "Message('control_change', channel=0, control=64, value=69, time=21)\n",
      "Message('control_change', channel=0, control=64, value=71, time=18)\n",
      "Message('control_change', channel=0, control=64, value=74, time=38)\n",
      "Message('control_change', channel=0, control=64, value=77, time=41)\n",
      "Message('control_change', channel=0, control=64, value=79, time=18)\n",
      "Message('control_change', channel=0, control=64, value=81, time=16)\n",
      "Message('control_change', channel=0, control=64, value=83, time=21)\n",
      "Message('control_change', channel=0, control=64, value=86, time=20)\n",
      "Message('control_change', channel=0, control=64, value=90, time=74)\n",
      "Message('note_on', channel=0, note=81, velocity=0, time=19)\n",
      "Message('note_on', channel=0, note=55, velocity=51, time=34)\n",
      "Message('note_on', channel=0, note=79, velocity=60, time=251)\n",
      "Message('note_on', channel=0, note=78, velocity=65, time=113)\n",
      "Message('note_on', channel=0, note=79, velocity=0, time=5)\n",
      "Message('control_change', channel=0, control=64, value=83, time=12)\n",
      "Message('control_change', channel=0, control=64, value=76, time=18)\n",
      "Message('control_change', channel=0, control=64, value=67, time=19)\n",
      "Message('control_change', channel=0, control=64, value=61, time=17)\n",
      "Message('control_change', channel=0, control=64, value=58, time=19)\n",
      "Message('note_on', channel=0, note=78, velocity=0, time=0)\n",
      "Message('note_on', channel=0, note=54, velocity=46, time=7)\n",
      "Message('note_on', channel=0, note=76, velocity=65, time=0)\n",
      "Message('note_on', channel=0, note=55, velocity=0, time=8)\n",
      "Message('note_on', channel=0, note=61, velocity=0, time=433)\n",
      "Message('note_on', channel=0, note=74, velocity=59, time=16)\n",
      "Message('note_on', channel=0, note=57, velocity=39, time=7)\n",
      "Message('note_on', channel=0, note=76, velocity=0, time=16)\n",
      "Message('note_on', channel=0, note=57, velocity=0, time=53)\n",
      "Message('control_change', channel=0, control=64, value=56, time=175)\n",
      "Message('control_change', channel=0, control=64, value=58, time=189)\n",
      "Message('control_change', channel=0, control=64, value=61, time=19)\n",
      "Message('note_on', channel=0, note=62, velocity=43, time=1)\n",
      "Message('control_change', channel=0, control=64, value=65, time=18)\n",
      "Message('control_change', channel=0, control=64, value=69, time=17)\n",
      "Message('control_change', channel=0, control=64, value=73, time=20)\n",
      "Message('control_change', channel=0, control=64, value=77, time=18)\n",
      "Message('control_change', channel=0, control=64, value=84, time=20)\n",
      "Message('control_change', channel=0, control=64, value=93, time=20)\n",
      "Message('control_change', channel=0, control=64, value=105, time=18)\n",
      "Message('control_change', channel=0, control=64, value=117, time=18)\n",
      "Message('control_change', channel=0, control=64, value=127, time=20)\n",
      "Message('note_on', channel=0, note=62, velocity=0, time=53)\n",
      "Message('note_on', channel=0, note=74, velocity=0, time=204)\n",
      "Message('note_on', channel=0, note=76, velocity=67, time=35)\n",
      "Message('note_on', channel=0, note=78, velocity=67, time=202)\n",
      "Message('note_on', channel=0, note=76, velocity=0, time=20)\n",
      "Message('control_change', channel=0, control=64, value=118, time=49)\n",
      "Message('control_change', channel=0, control=64, value=111, time=18)\n",
      "Message('control_change', channel=0, control=64, value=102, time=18)\n",
      "Message('control_change', channel=0, control=64, value=89, time=19)\n",
      "Message('control_change', channel=0, control=64, value=74, time=20)\n",
      "Message('control_change', channel=0, control=64, value=58, time=19)\n",
      "Message('control_change', channel=0, control=64, value=42, time=19)\n",
      "Message('control_change', channel=0, control=64, value=40, time=18)\n",
      "Message('note_on', channel=0, note=71, velocity=65, time=28)\n",
      "Message('note_on', channel=0, note=54, velocity=0, time=6)\n",
      "Message('note_on', channel=0, note=55, velocity=48, time=0)\n",
      "Message('note_on', channel=0, note=78, velocity=0, time=5)\n",
      "Message('control_change', channel=0, control=64, value=46, time=92)\n",
      "Message('control_change', channel=0, control=64, value=51, time=20)\n",
      "Message('control_change', channel=0, control=64, value=56, time=19)\n",
      "Message('control_change', channel=0, control=64, value=61, time=20)\n",
      "Message('control_change', channel=0, control=64, value=64, time=17)\n",
      "Message('control_change', channel=0, control=64, value=66, time=21)\n",
      "Message('note_on', channel=0, note=54, velocity=58, time=250)\n",
      "Message('note_on', channel=0, note=54, velocity=0, time=173)\n",
      "Message('note_on', channel=0, note=52, velocity=51, time=241)\n",
      "Message('control_change', channel=0, control=64, value=65, time=10)\n",
      "Message('note_on', channel=0, note=52, velocity=0, time=175)\n",
      "Message('note_on', channel=0, note=74, velocity=65, time=8)\n",
      "Message('note_on', channel=0, note=71, velocity=0, time=90)\n",
      "Message('note_on', channel=0, note=50, velocity=56, time=133)\n",
      "Message('note_on', channel=0, note=73, velocity=70, time=2)\n",
      "Message('note_on', channel=0, note=74, velocity=0, time=2)\n",
      "Message('note_on', channel=0, note=50, velocity=0, time=180)\n",
      "Message('note_on', channel=0, note=71, velocity=75, time=13)\n",
      "Message('note_on', channel=0, note=73, velocity=0, time=14)\n",
      "Message('control_change', channel=0, control=64, value=64, time=41)\n",
      "Message('control_change', channel=0, control=64, value=63, time=95)\n",
      "Message('note_on', channel=0, note=76, velocity=75, time=62)\n",
      "Message('note_on', channel=0, note=49, velocity=48, time=13)\n",
      "Message('note_on', channel=0, note=71, velocity=0, time=24)\n",
      "Message('note_on', channel=0, note=49, velocity=0, time=114)\n",
      "Message('note_on', channel=0, note=79, velocity=73, time=42)\n",
      "Message('note_on', channel=0, note=76, velocity=0, time=14)\n",
      "Message('control_change', channel=0, control=64, value=62, time=14)\n",
      "Message('control_change', channel=0, control=64, value=60, time=76)\n",
      "Message('control_change', channel=0, control=64, value=57, time=17)\n",
      "Message('control_change', channel=0, control=64, value=49, time=19)\n",
      "Message('control_change', channel=0, control=64, value=29, time=18)\n",
      "Message('control_change', channel=0, control=64, value=0, time=20)\n",
      "Message('note_on', channel=0, note=78, velocity=71, time=22)\n",
      "Message('note_on', channel=0, note=79, velocity=0, time=2)\n",
      "Message('note_on', channel=0, note=47, velocity=50, time=7)\n",
      "Message('control_change', channel=0, control=64, value=23, time=44)\n",
      "Message('control_change', channel=0, control=64, value=46, time=20)\n",
      "Message('control_change', channel=0, control=64, value=61, time=19)\n",
      "Message('control_change', channel=0, control=64, value=71, time=33)\n",
      "Message('control_change', channel=0, control=64, value=76, time=20)\n",
      "Message('control_change', channel=0, control=64, value=81, time=18)\n",
      "Message('note_on', channel=0, note=47, velocity=0, time=2)\n",
      "Message('control_change', channel=0, control=64, value=85, time=18)\n",
      "Message('note_on', channel=0, note=76, velocity=73, time=19)\n",
      "Message('control_change', channel=0, control=64, value=90, time=18)\n",
      "Message('note_on', channel=0, note=78, velocity=0, time=38)\n",
      "Message('control_change', channel=0, control=64, value=94, time=113)\n",
      "Message('note_on', channel=0, note=76, velocity=0, time=57)\n",
      "Message('note_on', channel=0, note=45, velocity=54, time=5)\n",
      "Message('note_on', channel=0, note=74, velocity=70, time=10)\n",
      "Message('control_change', channel=0, control=64, value=84, time=22)\n",
      "Message('control_change', channel=0, control=64, value=71, time=18)\n",
      "Message('control_change', channel=0, control=64, value=58, time=20)\n",
      "Message('note_on', channel=0, note=55, velocity=0, time=5)\n",
      "Message('control_change', channel=0, control=64, value=53, time=14)\n",
      "Message('note_on', channel=0, note=74, velocity=0, time=18)\n",
      "Message('note_on', channel=0, note=73, velocity=66, time=21)\n",
      "Message('note_on', channel=0, note=73, velocity=0, time=63)\n",
      "Message('note_on', channel=0, note=74, velocity=64, time=13)\n",
      "Message('note_on', channel=0, note=74, velocity=0, time=76)\n",
      "Message('note_on', channel=0, note=73, velocity=62, time=8)\n",
      "Message('note_on', channel=0, note=52, velocity=59, time=144)\n",
      "Message('note_on', channel=0, note=52, velocity=0, time=132)\n",
      "Message('note_on', channel=0, note=57, velocity=49, time=326)\n",
      "Message('note_on', channel=0, note=57, velocity=0, time=98)\n",
      "Message('note_on', channel=0, note=71, velocity=59, time=331)\n",
      "Message('note_on', channel=0, note=55, velocity=45, time=17)\n",
      "Message('note_on', channel=0, note=73, velocity=0, time=26)\n",
      "Message('note_on', channel=0, note=55, velocity=0, time=90)\n",
      "Message('note_on', channel=0, note=54, velocity=42, time=353)\n",
      "Message('note_on', channel=0, note=69, velocity=52, time=3)\n",
      "Message('note_on', channel=0, note=71, velocity=0, time=1)\n",
      "Message('note_on', channel=0, note=45, velocity=0, time=44)\n",
      "Message('control_change', channel=0, control=64, value=51, time=21)\n",
      "Message('control_change', channel=0, control=64, value=49, time=95)\n",
      "Message('control_change', channel=0, control=64, value=52, time=76)\n",
      "Message('control_change', channel=0, control=64, value=55, time=19)\n",
      "Message('control_change', channel=0, control=64, value=57, time=18)\n",
      "Message('control_change', channel=0, control=64, value=61, time=18)\n",
      "Message('control_change', channel=0, control=64, value=66, time=20)\n",
      "Message('control_change', channel=0, control=64, value=71, time=19)\n",
      "Message('control_change', channel=0, control=64, value=74, time=18)\n",
      "Message('control_change', channel=0, control=64, value=79, time=19)\n",
      "Message('control_change', channel=0, control=64, value=84, time=20)\n",
      "Message('control_change', channel=0, control=64, value=91, time=18)\n",
      "Message('control_change', channel=0, control=64, value=100, time=19)\n",
      "Message('control_change', channel=0, control=64, value=110, time=19)\n",
      "Message('control_change', channel=0, control=64, value=120, time=20)\n",
      "Message('note_on', channel=0, note=50, velocity=48, time=11)\n",
      "Message('control_change', channel=0, control=64, value=127, time=8)\n",
      "Message('note_on', channel=0, note=69, velocity=0, time=111)\n",
      "Message('note_on', channel=0, note=50, velocity=0, time=30)\n",
      "Message('note_on', channel=0, note=54, velocity=0, time=20)\n",
      "Message('note_on', channel=0, note=69, velocity=61, time=153)\n",
      "Message('note_on', channel=0, note=69, velocity=0, time=36)\n",
      "Message('control_change', channel=0, control=64, value=118, time=41)\n",
      "Message('note_on', channel=0, note=67, velocity=56, time=4)\n",
      "Message('control_change', channel=0, control=64, value=98, time=14)\n",
      "Message('control_change', channel=0, control=64, value=76, time=21)\n",
      "Message('note_on', channel=0, note=67, velocity=0, time=9)\n",
      "Message('note_on', channel=0, note=69, velocity=73, time=2)\n",
      "Message('note_on', channel=0, note=52, velocity=47, time=3)\n",
      "Message('control_change', channel=0, control=64, value=62, time=5)\n",
      "Message('control_change', channel=0, control=64, value=57, time=18)\n",
      "Message('note_on', channel=0, note=69, velocity=0, time=22)\n",
      "Message('note_on', channel=0, note=67, velocity=67, time=17)\n",
      "Message('note_on', channel=0, note=67, velocity=0, time=142)\n",
      "Message('note_on', channel=0, note=66, velocity=75, time=14)\n",
      "Message('note_on', channel=0, note=66, velocity=0, time=169)\n",
      "Message('note_on', channel=0, note=67, velocity=75, time=20)\n",
      "Message('note_on', channel=0, note=50, velocity=55, time=13)\n",
      "Message('note_on', channel=0, note=50, velocity=0, time=109)\n",
      "Message('control_change', channel=0, control=64, value=59, time=41)\n",
      "Message('note_on', channel=0, note=76, velocity=74, time=301)\n",
      "Message('note_on', channel=0, note=49, velocity=59, time=10)\n",
      "Message('control_change', channel=0, control=64, value=57, time=25)\n",
      "Message('note_on', channel=0, note=52, velocity=0, time=34)\n",
      "Message('note_on', channel=0, note=67, velocity=0, time=1)\n",
      "Message('control_change', channel=0, control=64, value=55, time=60)\n",
      "Message('control_change', channel=0, control=64, value=53, time=56)\n",
      "Message('note_on', channel=0, note=52, velocity=59, time=241)\n",
      "Message('note_on', channel=0, note=52, velocity=0, time=112)\n",
      "Message('control_change', channel=0, control=64, value=50, time=193)\n",
      "Message('control_change', channel=0, control=64, value=45, time=21)\n",
      "Message('control_change', channel=0, control=64, value=31, time=18)\n",
      "Message('control_change', channel=0, control=64, value=9, time=19)\n",
      "Message('control_change', channel=0, control=64, value=39, time=90)\n",
      "Message('note_on', channel=0, note=57, velocity=54, time=13)\n",
      "Message('control_change', channel=0, control=64, value=57, time=5)\n",
      "Message('control_change', channel=0, control=64, value=68, time=21)\n",
      "Message('note_on', channel=0, note=49, velocity=0, time=8)\n",
      "Message('control_change', channel=0, control=64, value=76, time=10)\n",
      "Message('control_change', channel=0, control=64, value=83, time=17)\n",
      "Message('control_change', channel=0, control=64, value=92, time=20)\n",
      "Message('control_change', channel=0, control=64, value=101, time=21)\n",
      "Message('control_change', channel=0, control=64, value=109, time=17)\n",
      "Message('control_change', channel=0, control=64, value=115, time=20)\n",
      "Message('control_change', channel=0, control=64, value=120, time=39)\n",
      "Message('control_change', channel=0, control=64, value=115, time=186)\n",
      "Message('control_change', channel=0, control=64, value=107, time=39)\n",
      "Message('note_on', channel=0, note=47, velocity=53, time=16)\n",
      "Message('control_change', channel=0, control=64, value=102, time=3)\n",
      "Message('note_on', channel=0, note=74, velocity=73, time=13)\n",
      "Message('control_change', channel=0, control=64, value=96, time=4)\n",
      "Message('control_change', channel=0, control=64, value=92, time=21)\n",
      "Message('note_on', channel=0, note=76, velocity=0, time=22)\n",
      "Message('control_change', channel=0, control=64, value=85, time=16)\n",
      "Message('control_change', channel=0, control=64, value=82, time=18)\n",
      "Message('control_change', channel=0, control=64, value=80, time=19)\n",
      "Message('control_change', channel=0, control=64, value=78, time=18)\n",
      "Message('control_change', channel=0, control=64, value=76, time=19)\n",
      "Message('note_on', channel=0, note=73, velocity=74, time=55)\n",
      "Message('control_change', channel=0, control=64, value=74, time=2)\n",
      "Message('note_on', channel=0, note=74, velocity=0, time=5)\n",
      "Message('control_change', channel=0, control=64, value=71, time=53)\n",
      "Message('note_on', channel=0, note=47, velocity=0, time=37)\n",
      "Message('control_change', channel=0, control=64, value=69, time=38)\n",
      "Message('control_change', channel=0, control=64, value=67, time=17)\n",
      "Message('control_change', channel=0, control=64, value=65, time=19)\n",
      "Message('control_change', channel=0, control=64, value=63, time=21)\n",
      "Message('control_change', channel=0, control=64, value=60, time=24)\n",
      "Message('note_on', channel=0, note=79, velocity=76, time=11)\n",
      "Message('control_change', channel=0, control=64, value=56, time=7)\n",
      "Message('note_on', channel=0, note=45, velocity=59, time=3)\n",
      "Message('note_on', channel=0, note=73, velocity=0, time=12)\n",
      "Message('control_change', channel=0, control=64, value=48, time=5)\n",
      "Message('control_change', channel=0, control=64, value=36, time=19)\n",
      "Message('control_change', channel=0, control=64, value=27, time=19)\n",
      "Message('control_change', channel=0, control=64, value=23, time=33)\n",
      "Message('control_change', channel=0, control=64, value=19, time=19)\n",
      "Message('control_change', channel=0, control=64, value=11, time=20)\n",
      "Message('control_change', channel=0, control=64, value=0, time=18)\n",
      "Message('control_change', channel=0, control=64, value=47, time=265)\n",
      "Message('note_on', channel=0, note=50, velocity=69, time=13)\n",
      "Message('control_change', channel=0, control=64, value=64, time=3)\n",
      "Message('note_on', channel=0, note=57, velocity=0, time=12)\n",
      "Message('control_change', channel=0, control=64, value=74, time=7)\n",
      "Message('control_change', channel=0, control=64, value=82, time=20)\n",
      "Message('control_change', channel=0, control=64, value=89, time=19)\n",
      "Message('control_change', channel=0, control=64, value=95, time=20)\n",
      "Message('control_change', channel=0, control=64, value=99, time=18)\n",
      "Message('control_change', channel=0, control=64, value=106, time=37)\n",
      "Message('note_on', channel=0, note=50, velocity=0, time=6)\n",
      "Message('control_change', channel=0, control=64, value=111, time=32)\n",
      "Message('note_on', channel=0, note=78, velocity=74, time=42)\n",
      "Message('note_on', channel=0, note=79, velocity=0, time=12)\n",
      "Message('note_on', channel=0, note=78, velocity=0, time=34)\n",
      "Message('note_on', channel=0, note=76, velocity=77, time=52)\n",
      "Message('control_change', channel=0, control=64, value=106, time=33)\n",
      "Message('control_change', channel=0, control=64, value=96, time=18)\n",
      "Message('control_change', channel=0, control=64, value=82, time=17)\n",
      "Message('control_change', channel=0, control=64, value=69, time=19)\n",
      "Message('control_change', channel=0, control=64, value=59, time=18)\n",
      "Message('note_on', channel=0, note=76, velocity=0, time=18)\n",
      "Message('control_change', channel=0, control=64, value=54, time=2)\n",
      "Message('note_on', channel=0, note=49, velocity=52, time=2)\n",
      "Message('note_on', channel=0, note=45, velocity=0, time=7)\n",
      "Message('note_on', channel=0, note=81, velocity=77, time=2)\n",
      "Message('control_change', channel=0, control=64, value=52, time=173)\n",
      "Message('control_change', channel=0, control=64, value=50, time=39)\n",
      "Message('control_change', channel=0, control=64, value=46, time=19)\n",
      "Message('control_change', channel=0, control=64, value=39, time=17)\n",
      "Message('control_change', channel=0, control=64, value=29, time=19)\n",
      "Message('control_change', channel=0, control=64, value=9, time=20)\n",
      "Message('control_change', channel=0, control=64, value=0, time=19)\n",
      "Message('control_change', channel=0, control=64, value=23, time=58)\n",
      "Message('control_change', channel=0, control=64, value=43, time=18)\n",
      "Message('control_change', channel=0, control=64, value=59, time=19)\n",
      "Message('note_on', channel=0, note=43, velocity=56, time=9)\n",
      "Message('control_change', channel=0, control=64, value=68, time=9)\n",
      "Message('control_change', channel=0, control=64, value=74, time=20)\n",
      "Message('control_change', channel=0, control=64, value=80, time=18)\n",
      "Message('control_change', channel=0, control=64, value=86, time=20)\n",
      "Message('control_change', channel=0, control=64, value=92, time=16)\n",
      "Message('note_on', channel=0, note=43, velocity=0, time=3)\n",
      "Message('control_change', channel=0, control=64, value=98, time=17)\n",
      "Message('control_change', channel=0, control=64, value=102, time=18)\n",
      "Message('control_change', channel=0, control=64, value=107, time=20)\n",
      "Message('control_change', channel=0, control=64, value=112, time=39)\n",
      "Message('note_on', channel=0, note=78, velocity=70, time=33)\n",
      "Message('note_on', channel=0, note=81, velocity=0, time=97)\n",
      "Message('control_change', channel=0, control=64, value=99, time=114)\n",
      "Message('control_change', channel=0, control=64, value=84, time=21)\n",
      "Message('note_on', channel=0, note=76, velocity=66, time=14)\n",
      "Message('control_change', channel=0, control=64, value=69, time=4)\n",
      "Message('note_on', channel=0, note=42, velocity=43, time=3)\n",
      "Message('note_on', channel=0, note=50, velocity=51, time=0)\n",
      "Message('control_change', channel=0, control=64, value=59, time=14)\n",
      "Message('note_on', channel=0, note=49, velocity=0, time=13)\n",
      "Message('note_on', channel=0, note=78, velocity=0, time=5)\n",
      "Message('control_change', channel=0, control=64, value=56, time=3)\n",
      "Message('note_on', channel=0, note=50, velocity=0, time=398)\n",
      "Message('note_on', channel=0, note=52, velocity=50, time=11)\n",
      "Message('note_on', channel=0, note=74, velocity=58, time=7)\n",
      "Message('note_on', channel=0, note=76, velocity=0, time=3)\n",
      "Message('note_on', channel=0, note=52, velocity=0, time=88)\n",
      "Message('control_change', channel=0, control=64, value=54, time=168)\n",
      "Message('control_change', channel=0, control=64, value=56, time=131)\n",
      "Message('control_change', channel=0, control=64, value=58, time=19)\n",
      "Message('control_change', channel=0, control=64, value=61, time=20)\n",
      "Message('note_on', channel=0, note=54, velocity=51, time=7)\n",
      "Message('control_change', channel=0, control=64, value=66, time=13)\n",
      "Message('control_change', channel=0, control=64, value=69, time=18)\n",
      "Message('control_change', channel=0, control=64, value=72, time=19)\n",
      "Message('control_change', channel=0, control=64, value=75, time=19)\n",
      "Message('control_change', channel=0, control=64, value=79, time=19)\n",
      "Message('control_change', channel=0, control=64, value=83, time=17)\n",
      "Message('note_on', channel=0, note=42, velocity=0, time=2)\n",
      "Message('control_change', channel=0, control=64, value=89, time=18)\n",
      "Message('control_change', channel=0, control=64, value=96, time=20)\n",
      "Message('control_change', channel=0, control=64, value=103, time=16)\n",
      "Message('control_change', channel=0, control=64, value=109, time=20)\n",
      "Message('control_change', channel=0, control=64, value=113, time=18)\n",
      "Message('control_change', channel=0, control=64, value=118, time=58)\n",
      "Message('control_change', channel=0, control=64, value=106, time=165)\n",
      "Message('control_change', channel=0, control=64, value=92, time=19)\n",
      "Message('note_on', channel=0, note=71, velocity=63, time=7)\n",
      "Message('note_on', channel=0, note=43, velocity=52, time=2)\n",
      "Message('control_change', channel=0, control=64, value=77, time=11)\n",
      "Message('note_on', channel=0, note=74, velocity=0, time=11)\n",
      "Message('control_change', channel=0, control=64, value=70, time=6)\n",
      "Message('control_change', channel=0, control=64, value=73, time=19)\n",
      "Message('control_change', channel=0, control=64, value=79, time=19)\n",
      "Message('control_change', channel=0, control=64, value=89, time=21)\n",
      "Message('note_on', channel=0, note=43, velocity=0, time=5)\n",
      "Message('control_change', channel=0, control=64, value=100, time=11)\n",
      "Message('note_on', channel=0, note=54, velocity=0, time=20)\n",
      "Message('control_change', channel=0, control=64, value=112, time=3)\n",
      "Message('control_change', channel=0, control=64, value=121, time=16)\n",
      "Message('note_on', channel=0, note=71, velocity=0, time=4)\n",
      "Message('control_change', channel=0, control=64, value=126, time=16)\n",
      "Message('note_on', channel=0, note=45, velocity=55, time=271)\n",
      "Message('control_change', channel=0, control=64, value=112, time=12)\n",
      "Message('note_on', channel=0, note=52, velocity=53, time=12)\n",
      "Message('control_change', channel=0, control=64, value=95, time=4)\n",
      "Message('note_on', channel=0, note=74, velocity=69, time=2)\n",
      "Message('control_change', channel=0, control=64, value=79, time=20)\n",
      "Message('control_change', channel=0, control=64, value=68, time=18)\n",
      "Message('control_change', channel=0, control=64, value=66, time=19)\n",
      "Message('control_change', channel=0, control=64, value=67, time=58)\n",
      "Message('note_on', channel=0, note=73, velocity=63, time=105)\n",
      "Message('note_on', channel=0, note=74, velocity=0, time=2)\n",
      "Message('note_on', channel=0, note=73, velocity=0, time=80)\n",
      "Message('note_on', channel=0, note=74, velocity=64, time=19)\n",
      "Message('control_change', channel=0, control=64, value=66, time=19)\n",
      "Message('control_change', channel=0, control=64, value=65, time=52)\n",
      "Message('note_on', channel=0, note=74, velocity=0, time=25)\n",
      "Message('note_on', channel=0, note=54, velocity=56, time=9)\n",
      "Message('note_on', channel=0, note=73, velocity=65, time=1)\n",
      "Message('control_change', channel=0, control=64, value=63, time=23)\n",
      "Message('note_on', channel=0, note=52, velocity=0, time=13)\n",
      "Message('control_change', channel=0, control=64, value=62, time=6)\n",
      "Message('control_change', channel=0, control=64, value=61, time=18)\n",
      "Message('note_on', channel=0, note=54, velocity=0, time=5)\n",
      "Message('control_change', channel=0, control=64, value=60, time=15)\n",
      "Message('control_change', channel=0, control=64, value=57, time=113)\n",
      "Message('control_change', channel=0, control=64, value=54, time=56)\n",
      "Message('control_change', channel=0, control=64, value=52, time=18)\n",
      "Message('control_change', channel=0, control=64, value=50, time=19)\n",
      "Message('control_change', channel=0, control=64, value=48, time=57)\n",
      "Message('control_change', channel=0, control=64, value=46, time=20)\n",
      "Message('control_change', channel=0, control=64, value=42, time=20)\n",
      "Message('control_change', channel=0, control=64, value=37, time=35)\n",
      "Message('control_change', channel=0, control=64, value=31, time=57)\n",
      "Message('note_on', channel=0, note=55, velocity=42, time=0)\n",
      "Message('control_change', channel=0, control=64, value=27, time=38)\n",
      "Message('control_change', channel=0, control=64, value=23, time=37)\n",
      "Message('control_change', channel=0, control=64, value=19, time=113)\n",
      "Message('control_change', channel=0, control=64, value=15, time=134)\n",
      "Message('control_change', channel=0, control=64, value=0, time=38)\n",
      "Message('note_on', channel=0, note=74, velocity=64, time=132)\n",
      "Message('control_change', channel=0, control=64, value=38, time=52)\n",
      "Message('note_on', channel=0, note=73, velocity=0, time=1)\n",
      "Message('control_change', channel=0, control=64, value=58, time=19)\n",
      "Message('control_change', channel=0, control=64, value=69, time=19)\n",
      "Message('note_on', channel=0, note=45, velocity=0, time=11)\n",
      "Message('control_change', channel=0, control=64, value=77, time=5)\n",
      "Message('control_change', channel=0, control=64, value=83, time=20)\n",
      "Message('note_on', channel=0, note=74, velocity=0, time=5)\n",
      "Message('control_change', channel=0, control=64, value=90, time=14)\n",
      "Message('control_change', channel=0, control=64, value=98, time=20)\n",
      "Message('control_change', channel=0, control=64, value=106, time=19)\n",
      "Message('control_change', channel=0, control=64, value=111, time=18)\n",
      "Message('control_change', channel=0, control=64, value=117, time=39)\n",
      "Message('control_change', channel=0, control=64, value=108, time=282)\n",
      "Message('note_on', channel=0, note=74, velocity=58, time=6)\n",
      "Message('note_on', channel=0, note=50, velocity=44, time=3)\n",
      "Message('control_change', channel=0, control=64, value=96, time=9)\n",
      "Message('control_change', channel=0, control=64, value=83, time=19)\n",
      "Message('control_change', channel=0, control=64, value=71, time=18)\n",
      "Message('control_change', channel=0, control=64, value=62, time=19)\n",
      "Message('control_change', channel=0, control=64, value=60, time=19)\n",
      "Message('note_on', channel=0, note=54, velocity=44, time=412)\n",
      "Message('note_on', channel=0, note=55, velocity=0, time=13)\n",
      "Message('note_on', channel=0, note=52, velocity=57, time=174)\n",
      "Message('note_on', channel=0, note=54, velocity=0, time=13)\n",
      "Message('note_on', channel=0, note=50, velocity=0, time=40)\n",
      "Message('note_on', channel=0, note=54, velocity=48, time=178)\n",
      "Message('note_on', channel=0, note=52, velocity=0, time=16)\n",
      "Message('control_change', channel=0, control=64, value=57, time=485)\n",
      "Message('control_change', channel=0, control=64, value=53, time=19)\n",
      "Message('note_on', channel=0, note=50, velocity=47, time=12)\n",
      "Message('control_change', channel=0, control=64, value=43, time=7)\n",
      "Message('control_change', channel=0, control=64, value=25, time=19)\n",
      "Message('control_change', channel=0, control=64, value=0, time=18)\n",
      "Message('control_change', channel=0, control=64, value=27, time=76)\n",
      "Message('control_change', channel=0, control=64, value=49, time=19)\n",
      "Message('note_on', channel=0, note=50, velocity=0, time=12)\n",
      "Message('control_change', channel=0, control=64, value=63, time=7)\n",
      "Message('control_change', channel=0, control=64, value=72, time=22)\n",
      "Message('control_change', channel=0, control=64, value=78, time=15)\n",
      "Message('control_change', channel=0, control=64, value=84, time=20)\n",
      "Message('control_change', channel=0, control=64, value=91, time=20)\n",
      "Message('control_change', channel=0, control=64, value=97, time=18)\n",
      "Message('control_change', channel=0, control=64, value=101, time=16)\n",
      "Message('note_on', channel=0, note=54, velocity=0, time=182)\n",
      "Message('control_change', channel=0, control=64, value=96, time=178)\n",
      "Message('control_change', channel=0, control=64, value=92, time=20)\n",
      "Message('control_change', channel=0, control=64, value=85, time=17)\n",
      "Message('note_on', channel=0, note=38, velocity=34, time=9)\n",
      "Message('control_change', channel=0, control=64, value=77, time=9)\n",
      "Message('control_change', channel=0, control=64, value=70, time=20)\n",
      "Message('control_change', channel=0, control=64, value=64, time=21)\n",
      "Message('control_change', channel=0, control=64, value=60, time=16)\n",
      "Message('control_change', channel=0, control=64, value=57, time=20)\n",
      "Message('control_change', channel=0, control=64, value=54, time=19)\n",
      "Message('control_change', channel=0, control=64, value=49, time=19)\n",
      "Message('control_change', channel=0, control=64, value=41, time=19)\n",
      "Message('control_change', channel=0, control=64, value=29, time=35)\n",
      "Message('control_change', channel=0, control=64, value=18, time=19)\n",
      "Message('control_change', channel=0, control=64, value=13, time=19)\n",
      "Message('control_change', channel=0, control=64, value=9, time=20)\n",
      "Message('control_change', channel=0, control=64, value=0, time=17)\n",
      "Message('control_change', channel=0, control=64, value=26, time=113)\n",
      "Message('control_change', channel=0, control=64, value=38, time=19)\n",
      "Message('control_change', channel=0, control=64, value=48, time=19)\n",
      "Message('control_change', channel=0, control=64, value=57, time=19)\n",
      "Message('control_change', channel=0, control=64, value=63, time=19)\n",
      "Message('control_change', channel=0, control=64, value=67, time=20)\n",
      "Message('control_change', channel=0, control=64, value=70, time=16)\n",
      "Message('control_change', channel=0, control=64, value=72, time=20)\n",
      "Message('control_change', channel=0, control=64, value=75, time=18)\n",
      "Message('control_change', channel=0, control=64, value=78, time=21)\n",
      "Message('control_change', channel=0, control=64, value=83, time=16)\n",
      "Message('control_change', channel=0, control=64, value=90, time=20)\n",
      "Message('control_change', channel=0, control=64, value=98, time=19)\n",
      "Message('control_change', channel=0, control=64, value=106, time=19)\n",
      "Message('control_change', channel=0, control=64, value=113, time=19)\n",
      "Message('note_on', channel=0, note=74, velocity=0, time=5)\n",
      "Message('note_on', channel=0, note=38, velocity=0, time=2)\n",
      "Message('control_change', channel=0, control=64, value=120, time=13)\n",
      "Message('control_change', channel=0, control=64, value=125, time=18)\n",
      "Message('control_change', channel=0, control=64, value=120, time=374)\n",
      "Message('control_change', channel=0, control=64, value=113, time=38)\n",
      "Message('control_change', channel=0, control=64, value=106, time=54)\n",
      "Message('control_change', channel=0, control=64, value=102, time=19)\n",
      "Message('control_change', channel=0, control=64, value=98, time=19)\n",
      "Message('control_change', channel=0, control=64, value=93, time=20)\n",
      "Message('control_change', channel=0, control=64, value=89, time=17)\n",
      "Message('control_change', channel=0, control=64, value=84, time=18)\n",
      "Message('control_change', channel=0, control=64, value=79, time=20)\n",
      "Message('control_change', channel=0, control=64, value=73, time=18)\n",
      "Message('control_change', channel=0, control=64, value=69, time=19)\n",
      "Message('control_change', channel=0, control=64, value=66, time=18)\n",
      "Message('control_change', channel=0, control=64, value=65, time=59)\n",
      "Message('control_change', channel=0, control=64, value=61, time=17)\n",
      "Message('control_change', channel=0, control=64, value=57, time=22)\n",
      "Message('control_change', channel=0, control=64, value=54, time=17)\n",
      "Message('note_on', channel=0, note=50, velocity=49, time=306)\n",
      "Message('note_on', channel=0, note=78, velocity=63, time=9)\n",
      "Message('note_on', channel=0, note=78, velocity=0, time=84)\n",
      "Message('note_on', channel=0, note=76, velocity=66, time=16)\n",
      "Message('note_on', channel=0, note=76, velocity=0, time=89)\n",
      "Message('note_on', channel=0, note=78, velocity=66, time=21)\n",
      "Message('control_change', channel=0, control=67, value=66, time=697)\n",
      "Message('control_change', channel=0, control=64, value=52, time=58)\n",
      "Message('note_on', channel=0, note=62, velocity=49, time=15)\n",
      "Message('control_change', channel=0, control=64, value=54, time=136)\n",
      "Message('control_change', channel=0, control=64, value=56, time=18)\n",
      "Message('control_change', channel=0, control=67, value=62, time=0)\n",
      "Message('control_change', channel=0, control=64, value=58, time=20)\n",
      "Message('control_change', channel=0, control=64, value=60, time=19)\n",
      "Message('control_change', channel=0, control=64, value=63, time=19)\n",
      "Message('control_change', channel=0, control=64, value=66, time=19)\n",
      "Message('control_change', channel=0, control=64, value=68, time=16)\n",
      "Message('control_change', channel=0, control=64, value=71, time=21)\n",
      "Message('control_change', channel=0, control=64, value=73, time=18)\n",
      "Message('note_on', channel=0, note=50, velocity=0, time=9)\n",
      "Message('control_change', channel=0, control=64, value=76, time=11)\n",
      "Message('control_change', channel=0, control=64, value=79, time=34)\n",
      "Message('control_change', channel=0, control=64, value=81, time=20)\n",
      "Message('control_change', channel=0, control=64, value=83, time=18)\n",
      "Message('control_change', channel=0, control=64, value=86, time=21)\n",
      "Message('control_change', channel=0, control=64, value=91, time=36)\n",
      "Message('note_on', channel=0, note=79, velocity=72, time=32)\n",
      "Message('control_change', channel=0, control=64, value=97, time=5)\n",
      "Message('note_on', channel=0, note=78, velocity=0, time=34)\n",
      "Message('control_change', channel=0, control=64, value=101, time=3)\n",
      "Message('control_change', channel=0, control=67, value=58, time=39)\n",
      "Message('control_change', channel=0, control=64, value=105, time=38)\n",
      "Message('control_change', channel=0, control=67, value=54, time=149)\n",
      "Message('control_change', channel=0, control=64, value=98, time=135)\n",
      "Message('control_change', channel=0, control=64, value=88, time=17)\n",
      "Message('note_on', channel=0, note=81, velocity=66, time=15)\n",
      "Message('control_change', channel=0, control=64, value=74, time=3)\n",
      "Message('note_on', channel=0, note=60, velocity=44, time=8)\n",
      "Message('control_change', channel=0, control=64, value=57, time=13)\n",
      "Message('note_on', channel=0, note=79, velocity=0, time=11)\n",
      "Message('control_change', channel=0, control=64, value=36, time=7)\n",
      "Message('control_change', channel=0, control=64, value=31, time=17)\n",
      "Message('control_change', channel=0, control=64, value=45, time=58)\n",
      "Message('control_change', channel=0, control=64, value=56, time=20)\n",
      "Message('control_change', channel=0, control=64, value=65, time=18)\n",
      "Message('control_change', channel=0, control=64, value=69, time=22)\n",
      "Message('control_change', channel=0, control=64, value=72, time=16)\n",
      "Message('note_on', channel=0, note=81, velocity=0, time=1)\n",
      "Message('control_change', channel=0, control=64, value=76, time=18)\n",
      "Message('control_change', channel=0, control=64, value=79, time=19)\n",
      "Message('control_change', channel=0, control=64, value=83, time=18)\n",
      "Message('control_change', channel=0, control=64, value=89, time=20)\n",
      "Message('control_change', channel=0, control=64, value=95, time=18)\n",
      "Message('control_change', channel=0, control=64, value=99, time=19)\n",
      "Message('control_change', channel=0, control=64, value=104, time=38)\n",
      "Message('note_on', channel=0, note=78, velocity=63, time=338)\n",
      "Message('control_change', channel=0, control=64, value=99, time=148)\n",
      "Message('control_change', channel=0, control=64, value=94, time=21)\n",
      "Message('control_change', channel=0, control=64, value=84, time=17)\n",
      "Message('note_on', channel=0, note=74, velocity=69, time=4)\n",
      "Message('note_on', channel=0, note=60, velocity=0, time=15)\n",
      "Message('control_change', channel=0, control=64, value=71, time=3)\n",
      "Message('note_on', channel=0, note=59, velocity=48, time=3)\n",
      "Message('note_on', channel=0, note=78, velocity=0, time=4)\n",
      "Message('control_change', channel=0, control=64, value=48, time=11)\n",
      "Message('note_on', channel=0, note=62, velocity=0, time=5)\n",
      "Message('control_change', channel=0, control=64, value=0, time=14)\n",
      "Message('control_change', channel=0, control=64, value=26, time=110)\n",
      "Message('control_change', channel=0, control=64, value=42, time=22)\n",
      "Message('control_change', channel=0, control=64, value=53, time=17)\n",
      "Message('control_change', channel=0, control=64, value=60, time=19)\n",
      "Message('control_change', channel=0, control=64, value=63, time=19)\n",
      "Message('control_change', channel=0, control=64, value=65, time=19)\n",
      "Message('control_change', channel=0, control=64, value=66, time=20)\n",
      "Message('control_change', channel=0, control=64, value=67, time=36)\n",
      "Message('control_change', channel=0, control=64, value=68, time=39)\n",
      "Message('note_on', channel=0, note=62, velocity=57, time=82)\n",
      "Message('control_change', channel=0, control=64, value=70, time=12)\n",
      "Message('control_change', channel=0, control=64, value=72, time=72)\n",
      "Message('control_change', channel=0, control=64, value=74, time=37)\n",
      "Message('control_change', channel=0, control=64, value=77, time=37)\n",
      "Message('control_change', channel=0, control=64, value=79, time=38)\n",
      "Message('control_change', channel=0, control=64, value=81, time=57)\n",
      "Message('control_change', channel=0, control=64, value=77, time=172)\n",
      "Message('note_on', channel=0, note=59, velocity=0, time=4)\n",
      "Message('control_change', channel=0, control=64, value=70, time=13)\n",
      "Message('note_on', channel=0, note=79, velocity=72, time=0)\n",
      "Message('note_on', channel=0, note=60, velocity=56, time=1)\n",
      "Message('control_change', channel=0, control=64, value=56, time=17)\n",
      "Message('note_on', channel=0, note=74, velocity=0, time=3)\n",
      "Message('control_change', channel=0, control=64, value=18, time=17)\n",
      "Message('note_on', channel=0, note=62, velocity=0, time=7)\n",
      "Message('control_change', channel=0, control=64, value=0, time=11)\n",
      "Message('control_change', channel=0, control=64, value=27, time=59)\n",
      "Message('control_change', channel=0, control=64, value=41, time=18)\n",
      "Message('control_change', channel=0, control=64, value=51, time=18)\n",
      "Message('control_change', channel=0, control=64, value=57, time=18)\n",
      "Message('control_change', channel=0, control=64, value=59, time=21)\n",
      "Message('control_change', channel=0, control=64, value=61, time=18)\n",
      "Message('control_change', channel=0, control=64, value=62, time=18)\n",
      "Message('control_change', channel=0, control=64, value=63, time=39)\n",
      "Message('control_change', channel=0, control=64, value=65, time=18)\n",
      "Message('control_change', channel=0, control=64, value=66, time=38)\n",
      "Message('note_on', channel=0, note=59, velocity=57, time=112)\n",
      "Message('note_on', channel=0, note=60, velocity=0, time=25)\n",
      "Message('control_change', channel=0, control=64, value=63, time=347)\n",
      "Message('control_change', channel=0, control=64, value=61, time=19)\n",
      "Message('control_change', channel=0, control=64, value=59, time=19)\n",
      "Message('note_on', channel=0, note=57, velocity=61, time=10)\n",
      "Message('control_change', channel=0, control=64, value=60, time=47)\n",
      "Message('control_change', channel=0, control=64, value=61, time=20)\n",
      "Message('control_change', channel=0, control=64, value=62, time=18)\n",
      "Message('control_change', channel=0, control=64, value=64, time=38)\n",
      "Message('control_change', channel=0, control=64, value=65, time=56)\n",
      "Message('note_on', channel=0, note=59, velocity=0, time=24)\n",
      "Message('control_change', channel=0, control=64, value=66, time=15)\n",
      "Message('control_change', channel=0, control=64, value=65, time=111)\n",
      "Message('control_change', channel=0, control=64, value=61, time=17)\n",
      "Message('control_change', channel=0, control=64, value=58, time=21)\n",
      "Message('note_on', channel=0, note=55, velocity=57, time=48)\n",
      "Message('note_on', channel=0, note=81, velocity=75, time=5)\n",
      "Message('note_on', channel=0, note=79, velocity=0, time=9)\n",
      "Message('control_change', channel=0, control=64, value=61, time=15)\n",
      "Message('note_on', channel=0, note=57, velocity=0, time=14)\n",
      "Message('control_change', channel=0, control=64, value=63, time=5)\n",
      "Message('control_change', channel=0, control=64, value=64, time=19)\n",
      "Message('control_change', channel=0, control=64, value=65, time=37)\n",
      "Message('control_change', channel=0, control=64, value=66, time=37)\n",
      "Message('note_on', channel=0, note=83, velocity=78, time=57)\n",
      "Message('control_change', channel=0, control=64, value=67, time=18)\n",
      "Message('note_on', channel=0, note=81, velocity=0, time=10)\n",
      "Message('control_change', channel=0, control=64, value=65, time=156)\n",
      "Message('control_change', channel=0, control=64, value=63, time=19)\n",
      "Message('control_change', channel=0, control=64, value=61, time=18)\n",
      "Message('control_change', channel=0, control=64, value=58, time=21)\n",
      "Message('control_change', channel=0, control=64, value=55, time=17)\n",
      "Message('note_on', channel=0, note=76, velocity=68, time=9)\n",
      "Message('control_change', channel=0, control=64, value=52, time=12)\n",
      "Message('note_on', channel=0, note=83, velocity=0, time=3)\n",
      "Message('note_on', channel=0, note=60, velocity=53, time=8)\n",
      "Message('control_change', channel=0, control=64, value=49, time=7)\n",
      "Message('note_on', channel=0, note=55, velocity=0, time=11)\n",
      "Message('control_change', channel=0, control=64, value=54, time=365)\n",
      "Message('control_change', channel=0, control=64, value=60, time=19)\n",
      "Message('note_on', channel=0, note=48, velocity=48, time=15)\n",
      "Message('control_change', channel=0, control=64, value=66, time=4)\n",
      "Message('control_change', channel=0, control=64, value=70, time=20)\n",
      "Message('control_change', channel=0, control=64, value=73, time=20)\n",
      "Message('control_change', channel=0, control=64, value=77, time=18)\n",
      "Message('control_change', channel=0, control=64, value=80, time=20)\n",
      "Message('control_change', channel=0, control=64, value=82, time=19)\n",
      "Message('control_change', channel=0, control=64, value=84, time=20)\n",
      "Message('note_on', channel=0, note=48, velocity=0, time=22)\n",
      "Message('control_change', channel=0, control=64, value=80, time=255)\n",
      "Message('control_change', channel=0, control=64, value=73, time=19)\n",
      "Message('control_change', channel=0, control=64, value=66, time=18)\n",
      "Message('note_on', channel=0, note=50, velocity=47, time=17)\n",
      "Message('control_change', channel=0, control=64, value=62, time=2)\n",
      "Message('control_change', channel=0, control=64, value=63, time=133)\n",
      "Message('control_change', channel=0, control=64, value=64, time=38)\n",
      "Message('control_change', channel=0, control=64, value=65, time=75)\n",
      "Message('control_change', channel=0, control=64, value=62, time=96)\n",
      "Message('control_change', channel=0, control=64, value=64, time=73)\n",
      "Message('note_on', channel=0, note=74, velocity=66, time=10)\n",
      "Message('note_on', channel=0, note=59, velocity=46, time=1)\n",
      "Message('control_change', channel=0, control=64, value=66, time=9)\n",
      "Message('note_on', channel=0, note=60, velocity=0, time=2)\n",
      "Message('control_change', channel=0, control=64, value=69, time=19)\n",
      "Message('note_on', channel=0, note=76, velocity=0, time=5)\n",
      "Message('control_change', channel=0, control=64, value=73, time=11)\n",
      "Message('control_change', channel=0, control=64, value=76, time=18)\n",
      "Message('control_change', channel=0, control=64, value=79, time=20)\n",
      "Message('control_change', channel=0, control=64, value=82, time=18)\n",
      "Message('note_on', channel=0, note=50, velocity=0, time=6)\n",
      "Message('control_change', channel=0, control=64, value=85, time=15)\n",
      "Message('control_change', channel=0, control=64, value=88, time=18)\n",
      "Message('control_change', channel=0, control=64, value=95, time=38)\n",
      "Message('control_change', channel=0, control=64, value=102, time=36)\n",
      "Message('note_on', channel=0, note=59, velocity=0, time=209)\n",
      "Message('control_change', channel=0, control=64, value=94, time=17)\n",
      "Message('note_on', channel=0, note=72, velocity=63, time=8)\n",
      "Message('note_on', channel=0, note=57, velocity=48, time=7)\n",
      "Message('control_change', channel=0, control=64, value=86, time=2)\n",
      "Message('note_on', channel=0, note=74, velocity=0, time=7)\n",
      "Message('control_change', channel=0, control=64, value=78, time=14)\n",
      "Message('control_change', channel=0, control=64, value=73, time=17)\n",
      "Message('control_change', channel=0, control=64, value=70, time=18)\n",
      "Message('control_change', channel=0, control=64, value=68, time=37)\n",
      "Message('control_change', channel=0, control=64, value=67, time=38)\n",
      "Message('control_change', channel=0, control=64, value=66, time=77)\n",
      "Message('control_change', channel=0, control=64, value=65, time=37)\n",
      "Message('control_change', channel=0, control=64, value=64, time=112)\n",
      "Message('control_change', channel=0, control=64, value=63, time=41)\n",
      "Message('control_change', channel=0, control=64, value=61, time=18)\n",
      "Message('control_change', channel=0, control=64, value=58, time=18)\n",
      "Message('note_on', channel=0, note=56, velocity=44, time=5)\n",
      "Message('control_change', channel=0, control=64, value=55, time=15)\n",
      "Message('note_on', channel=0, note=57, velocity=0, time=6)\n",
      "Message('control_change', channel=0, control=64, value=53, time=11)\n",
      "Message('control_change', channel=0, control=64, value=55, time=58)\n",
      "Message('control_change', channel=0, control=64, value=60, time=19)\n",
      "Message('control_change', channel=0, control=64, value=65, time=18)\n",
      "Message('control_change', channel=0, control=64, value=69, time=18)\n",
      "Message('control_change', channel=0, control=64, value=74, time=20)\n",
      "Message('control_change', channel=0, control=64, value=80, time=19)\n",
      "Message('control_change', channel=0, control=64, value=86, time=16)\n",
      "Message('note_on', channel=0, note=71, velocity=62, time=4)\n",
      "Message('control_change', channel=0, control=64, value=93, time=16)\n",
      "Message('control_change', channel=0, control=64, value=99, time=16)\n",
      "Message('control_change', channel=0, control=64, value=105, time=21)\n",
      "Message('note_on', channel=0, note=72, velocity=0, time=14)\n",
      "Message('control_change', channel=0, control=64, value=110, time=3)\n",
      "Message('note_on', channel=0, note=71, velocity=0, time=56)\n",
      "Message('control_change', channel=0, control=64, value=114, time=3)\n",
      "Message('control_change', channel=0, control=64, value=105, time=109)\n",
      "Message('note_on', channel=0, note=74, velocity=65, time=14)\n",
      "Message('note_on', channel=0, note=57, velocity=58, time=2)\n",
      "Message('control_change', channel=0, control=64, value=93, time=2)\n",
      "Message('note_on', channel=0, note=56, velocity=0, time=3)\n",
      "Message('control_change', channel=0, control=64, value=79, time=17)\n",
      "Message('control_change', channel=0, control=64, value=68, time=20)\n",
      "Message('control_change', channel=0, control=64, value=65, time=16)\n",
      "Message('control_change', channel=0, control=64, value=66, time=59)\n",
      "Message('note_on', channel=0, note=74, velocity=0, time=96)\n",
      "Message('note_on', channel=0, note=72, velocity=60, time=28)\n",
      "Message('note_on', channel=0, note=72, velocity=0, time=56)\n",
      "Message('note_on', channel=0, note=74, velocity=61, time=31)\n",
      "Message('note_on', channel=0, note=74, velocity=0, time=60)\n",
      "Message('control_change', channel=0, control=64, value=65, time=9)\n",
      "Message('note_on', channel=0, note=52, velocity=52, time=18)\n",
      "Message('note_on', channel=0, note=72, velocity=53, time=6)\n",
      "Message('note_on', channel=0, note=52, velocity=0, time=101)\n",
      "Message('control_change', channel=0, control=64, value=64, time=27)\n",
      "Message('control_change', channel=0, control=64, value=63, time=19)\n",
      "Message('control_change', channel=0, control=64, value=62, time=39)\n",
      "Message('control_change', channel=0, control=64, value=61, time=75)\n",
      "Message('control_change', channel=0, control=64, value=60, time=17)\n",
      "Message('note_on', channel=0, note=45, velocity=47, time=138)\n",
      "Message('note_on', channel=0, note=45, velocity=0, time=237)\n",
      "Message('note_on', channel=0, note=71, velocity=53, time=212)\n",
      "Message('note_on', channel=0, note=72, velocity=0, time=8)\n",
      "Message('note_on', channel=0, note=47, velocity=41, time=6)\n",
      "Message('note_on', channel=0, note=47, velocity=0, time=120)\n",
      "Message('note_on', channel=0, note=48, velocity=35, time=318)\n",
      "Message('note_on', channel=0, note=69, velocity=49, time=16)\n",
      "Message('control_change', channel=0, control=64, value=58, time=19)\n",
      "Message('note_on', channel=0, note=71, velocity=0, time=5)\n",
      "Message('control_change', channel=0, control=64, value=60, time=140)\n",
      "Message('control_change', channel=0, control=64, value=61, time=21)\n",
      "Message('note_on', channel=0, note=48, velocity=0, time=8)\n",
      "Message('control_change', channel=0, control=64, value=62, time=48)\n",
      "Message('control_change', channel=0, control=64, value=60, time=171)\n",
      "Message('control_change', channel=0, control=64, value=57, time=38)\n",
      "Message('note_on', channel=0, note=52, velocity=40, time=56)\n",
      "Message('control_change', channel=0, control=64, value=60, time=19)\n",
      "Message('control_change', channel=0, control=64, value=65, time=17)\n",
      "Message('control_change', channel=0, control=64, value=70, time=20)\n",
      "Message('control_change', channel=0, control=64, value=76, time=19)\n",
      "Message('control_change', channel=0, control=64, value=80, time=19)\n",
      "Message('note_on', channel=0, note=52, velocity=0, time=7)\n",
      "Message('note_on', channel=0, note=69, velocity=0, time=9)\n",
      "Message('control_change', channel=0, control=64, value=86, time=3)\n",
      "Message('control_change', channel=0, control=64, value=92, time=20)\n",
      "Message('control_change', channel=0, control=64, value=100, time=19)\n",
      "Message('control_change', channel=0, control=64, value=107, time=21)\n",
      "Message('control_change', channel=0, control=64, value=115, time=17)\n",
      "Message('control_change', channel=0, control=64, value=120, time=18)\n",
      "Message('note_on', channel=0, note=57, velocity=0, time=23)\n",
      "Message('control_change', channel=0, control=64, value=115, time=295)\n",
      "Message('control_change', channel=0, control=64, value=110, time=20)\n",
      "Message('control_change', channel=0, control=64, value=102, time=19)\n",
      "Message('control_change', channel=0, control=64, value=94, time=34)\n",
      "Message('control_change', channel=0, control=64, value=83, time=18)\n",
      "Message('note_on', channel=0, note=57, velocity=43, time=6)\n",
      "Message('note_on', channel=0, note=84, velocity=68, time=8)\n",
      "Message('control_change', channel=0, control=64, value=71, time=3)\n",
      "Message('control_change', channel=0, control=64, value=61, time=23)\n",
      "Message('control_change', channel=0, control=64, value=57, time=18)\n",
      "Message('control_change', channel=0, control=64, value=54, time=38)\n",
      "Message('note_on', channel=0, note=60, velocity=39, time=374)\n",
      "Message('note_on', channel=0, note=60, velocity=0, time=131)\n",
      "Message('control_change', channel=0, control=64, value=56, time=23)\n",
      "Message('control_change', channel=0, control=67, value=50, time=57)\n",
      "Message('control_change', channel=0, control=67, value=45, time=133)\n",
      "Message('control_change', channel=0, control=64, value=61, time=37)\n",
      "Message('control_change', channel=0, control=64, value=66, time=18)\n",
      "Message('control_change', channel=0, control=64, value=70, time=20)\n",
      "Message('control_change', channel=0, control=64, value=73, time=18)\n",
      "Message('note_on', channel=0, note=66, velocity=43, time=6)\n",
      "Message('control_change', channel=0, control=64, value=76, time=27)\n",
      "Message('control_change', channel=0, control=64, value=81, time=20)\n",
      "Message('control_change', channel=0, control=64, value=88, time=18)\n",
      "Message('control_change', channel=0, control=64, value=95, time=21)\n",
      "Message('control_change', channel=0, control=64, value=103, time=18)\n",
      "Message('control_change', channel=0, control=64, value=110, time=20)\n",
      "Message('note_on', channel=0, note=57, velocity=0, time=5)\n",
      "Message('control_change', channel=0, control=64, value=114, time=14)\n",
      "Message('note_on', channel=0, note=57, velocity=55, time=250)\n",
      "Message('note_on', channel=0, note=83, velocity=65, time=29)\n",
      "Message('note_on', channel=0, note=84, velocity=0, time=2)\n",
      "Message('note_on', channel=0, note=81, velocity=70, time=179)\n",
      "Message('note_on', channel=0, note=83, velocity=0, time=6)\n",
      "Message('control_change', channel=0, control=64, value=107, time=99)\n",
      "Message('control_change', channel=0, control=64, value=101, time=19)\n",
      "Message('control_change', channel=0, control=64, value=90, time=19)\n",
      "Message('control_change', channel=0, control=64, value=76, time=21)\n",
      "Message('note_on', channel=0, note=57, velocity=0, time=15)\n",
      "Message('control_change', channel=0, control=64, value=58, time=2)\n",
      "Message('control_change', channel=0, control=64, value=33, time=20)\n",
      "Message('note_on', channel=0, note=81, velocity=0, time=9)\n",
      "Message('note_on', channel=0, note=83, velocity=67, time=6)\n",
      "Message('control_change', channel=0, control=64, value=25, time=2)\n",
      "Message('note_on', channel=0, note=55, velocity=48, time=11)\n",
      "Message('note_on', channel=0, note=66, velocity=0, time=1)\n",
      "Message('control_change', channel=0, control=64, value=38, time=45)\n",
      "Message('control_change', channel=0, control=64, value=52, time=20)\n",
      "Message('control_change', channel=0, control=64, value=62, time=17)\n",
      "Message('control_change', channel=0, control=64, value=69, time=19)\n",
      "Message('note_on', channel=0, note=83, velocity=0, time=4)\n",
      "Message('control_change', channel=0, control=64, value=74, time=15)\n",
      "Message('control_change', channel=0, control=64, value=79, time=20)\n",
      "Message('control_change', channel=0, control=64, value=85, time=33)\n",
      "Message('control_change', channel=0, control=64, value=91, time=18)\n",
      "Message('control_change', channel=0, control=64, value=97, time=20)\n",
      "Message('control_change', channel=0, control=64, value=102, time=19)\n",
      "Message('note_on', channel=0, note=59, velocity=37, time=217)\n",
      "Message('note_on', channel=0, note=55, velocity=0, time=132)\n",
      "Message('note_on', channel=0, note=76, velocity=69, time=38)\n",
      "Message('note_on', channel=0, note=76, velocity=0, time=106)\n",
      "Message('control_change', channel=0, control=64, value=93, time=110)\n",
      "Message('control_change', channel=0, control=64, value=83, time=23)\n",
      "Message('note_on', channel=0, note=76, velocity=69, time=8)\n",
      "Message('note_on', channel=0, note=54, velocity=42, time=3)\n",
      "Message('control_change', channel=0, control=64, value=73, time=8)\n",
      "Message('control_change', channel=0, control=64, value=68, time=17)\n",
      "Message('control_change', channel=0, control=64, value=67, time=19)\n",
      "Message('note_on', channel=0, note=59, velocity=0, time=49)\n",
      "Message('note_on', channel=0, note=76, velocity=0, time=90)\n",
      "Message('note_on', channel=0, note=75, velocity=61, time=14)\n",
      "Message('note_on', channel=0, note=57, velocity=46, time=217)\n",
      "Message('note_on', channel=0, note=57, velocity=0, time=60)\n",
      "Message('control_change', channel=0, control=64, value=65, time=245)\n",
      "Message('control_change', channel=0, control=64, value=63, time=16)\n",
      "Message('control_change', channel=0, control=64, value=61, time=20)\n",
      "Message('control_change', channel=0, control=64, value=57, time=21)\n",
      "Message('control_change', channel=0, control=64, value=52, time=17)\n",
      "Message('control_change', channel=0, control=64, value=43, time=19)\n",
      "Message('control_change', channel=0, control=64, value=38, time=20)\n",
      "Message('note_on', channel=0, note=60, velocity=45, time=37)\n",
      "Message('control_change', channel=0, control=64, value=50, time=18)\n",
      "Message('control_change', channel=0, control=64, value=59, time=20)\n",
      "Message('control_change', channel=0, control=64, value=66, time=19)\n",
      "Message('control_change', channel=0, control=64, value=70, time=19)\n",
      "Message('control_change', channel=0, control=64, value=74, time=19)\n",
      "Message('control_change', channel=0, control=64, value=77, time=20)\n",
      "Message('note_on', channel=0, note=54, velocity=0, time=14)\n",
      "Message('control_change', channel=0, control=64, value=81, time=5)\n",
      "Message('control_change', channel=0, control=64, value=84, time=18)\n",
      "Message('control_change', channel=0, control=64, value=87, time=18)\n",
      "Message('control_change', channel=0, control=64, value=92, time=38)\n",
      "Message('control_change', channel=0, control=64, value=96, time=37)\n",
      "Message('control_change', channel=0, control=64, value=86, time=186)\n",
      "Message('control_change', channel=0, control=64, value=77, time=19)\n",
      "Message('note_on', channel=0, note=52, velocity=46, time=7)\n",
      "Message('note_on', channel=0, note=76, velocity=65, time=7)\n",
      "Message('note_on', channel=0, note=75, velocity=0, time=1)\n",
      "Message('control_change', channel=0, control=64, value=73, time=3)\n",
      "Message('control_change', channel=0, control=64, value=75, time=21)\n",
      "Message('control_change', channel=0, control=64, value=78, time=16)\n",
      "Message('control_change', channel=0, control=64, value=82, time=20)\n",
      "Message('control_change', channel=0, control=64, value=87, time=18)\n",
      "Message('note_on', channel=0, note=52, velocity=0, time=48)\n",
      "Message('note_on', channel=0, note=76, velocity=0, time=28)\n",
      "Message('note_on', channel=0, note=78, velocity=59, time=48)\n",
      "Message('control_change', channel=0, control=64, value=83, time=196)\n",
      "Message('control_change', channel=0, control=64, value=78, time=22)\n",
      "Message('control_change', channel=0, control=64, value=70, time=17)\n",
      "Message('control_change', channel=0, control=64, value=62, time=20)\n",
      "Message('note_on', channel=0, note=78, velocity=0, time=14)\n",
      "Message('control_change', channel=0, control=64, value=56, time=4)\n",
      "Message('control_change', channel=0, control=64, value=49, time=21)\n",
      "Message('note_on', channel=0, note=71, velocity=50, time=15)\n",
      "Message('control_change', channel=0, control=64, value=39, time=1)\n",
      "Message('note_on', channel=0, note=54, velocity=28, time=1)\n",
      "Message('note_on', channel=0, note=60, velocity=0, time=9)\n",
      "Message('note_on', channel=0, note=51, velocity=43, time=2)\n",
      "Message('control_change', channel=0, control=64, value=20, time=7)\n",
      "Message('control_change', channel=0, control=64, value=0, time=20)\n",
      "Message('control_change', channel=0, control=64, value=36, time=188)\n",
      "Message('control_change', channel=0, control=64, value=56, time=18)\n",
      "Message('control_change', channel=0, control=64, value=67, time=21)\n",
      "Message('control_change', channel=0, control=64, value=74, time=17)\n",
      "Message('control_change', channel=0, control=64, value=80, time=20)\n",
      "Message('control_change', channel=0, control=64, value=85, time=34)\n",
      "Message('control_change', channel=0, control=64, value=91, time=18)\n",
      "Message('control_change', channel=0, control=64, value=96, time=19)\n",
      "Message('note_on', channel=0, note=54, velocity=0, time=12)\n",
      "Message('note_on', channel=0, note=51, velocity=0, time=3)\n",
      "Message('control_change', channel=0, control=64, value=100, time=3)\n",
      "Message('control_change', channel=0, control=64, value=106, time=39)\n",
      "Message('note_on', channel=0, note=71, velocity=0, time=171)\n",
      "Message('control_change', channel=0, control=64, value=100, time=18)\n",
      "Message('control_change', channel=0, control=64, value=94, time=20)\n",
      "Message('control_change', channel=0, control=64, value=89, time=18)\n",
      "Message('note_on', channel=0, note=81, velocity=69, time=21)\n",
      "Message('control_change', channel=0, control=64, value=87, time=167)\n",
      "Message('control_change', channel=0, control=64, value=83, time=19)\n",
      "Message('control_change', channel=0, control=64, value=71, time=20)\n",
      "Message('control_change', channel=0, control=64, value=44, time=18)\n",
      "Message('note_on', channel=0, note=81, velocity=0, time=10)\n",
      "Message('note_on', channel=0, note=52, velocity=55, time=2)\n",
      "Message('control_change', channel=0, control=64, value=0, time=8)\n",
      "Message('note_on', channel=0, note=79, velocity=60, time=3)\n",
      "Message('control_change', channel=0, control=64, value=15, time=91)\n",
      "Message('note_on', channel=0, note=79, velocity=0, time=11)\n",
      "Message('control_change', channel=0, control=64, value=48, time=3)\n",
      "Message('control_change', channel=0, control=64, value=62, time=21)\n",
      "Message('control_change', channel=0, control=64, value=70, time=20)\n",
      "Message('control_change', channel=0, control=64, value=75, time=18)\n",
      "Message('control_change', channel=0, control=64, value=79, time=21)\n",
      "Message('control_change', channel=0, control=64, value=83, time=18)\n",
      "Message('control_change', channel=0, control=64, value=87, time=21)\n",
      "Message('control_change', channel=0, control=64, value=91, time=17)\n",
      "Message('control_change', channel=0, control=64, value=98, time=37)\n",
      "Message('control_change', channel=0, control=64, value=102, time=38)\n",
      "Message('control_change', channel=0, control=64, value=92, time=91)\n",
      "Message('control_change', channel=0, control=64, value=86, time=19)\n",
      "Message('note_on', channel=0, note=45, velocity=50, time=22)\n",
      "Message('note_on', channel=0, note=54, velocity=52, time=1)\n",
      "Message('control_change', channel=0, control=64, value=92, time=54)\n",
      "Message('note_on', channel=0, note=45, velocity=0, time=39)\n",
      "Message('note_on', channel=0, note=52, velocity=0, time=22)\n",
      "Message('control_change', channel=0, control=64, value=96, time=15)\n",
      "Message('note_on', channel=0, note=78, velocity=67, time=47)\n",
      "Message('control_change', channel=0, control=64, value=100, time=139)\n",
      "Message('control_change', channel=0, control=64, value=82, time=75)\n",
      "Message('control_change', channel=0, control=64, value=56, time=20)\n",
      "Message('note_on', channel=0, note=47, velocity=49, time=6)\n",
      "Message('control_change', channel=0, control=64, value=0, time=13)\n",
      "Message('note_on', channel=0, note=76, velocity=70, time=8)\n",
      "Message('note_on', channel=0, note=78, velocity=0, time=14)\n",
      "Message('control_change', channel=0, control=64, value=25, time=55)\n",
      "Message('control_change', channel=0, control=64, value=46, time=19)\n",
      "Message('control_change', channel=0, control=64, value=55, time=17)\n",
      "Message('control_change', channel=0, control=64, value=60, time=19)\n",
      "Message('control_change', channel=0, control=64, value=62, time=20)\n",
      "Message('note_on', channel=0, note=54, velocity=0, time=13)\n",
      "Message('control_change', channel=0, control=64, value=65, time=4)\n",
      "Message('control_change', channel=0, control=64, value=66, time=37)\n",
      "Message('note_on', channel=0, note=76, velocity=0, time=29)\n",
      "Message('note_on', channel=0, note=75, velocity=63, time=10)\n",
      "Message('note_on', channel=0, note=75, velocity=0, time=69)\n",
      "Message('note_on', channel=0, note=76, velocity=59, time=10)\n",
      "Message('control_change', channel=0, control=64, value=63, time=17)\n",
      "Message('control_change', channel=0, control=64, value=61, time=17)\n",
      "Message('control_change', channel=0, control=64, value=59, time=20)\n",
      "Message('control_change', channel=0, control=64, value=57, time=19)\n",
      "Message('control_change', channel=0, control=64, value=54, time=18)\n",
      "Message('note_on', channel=0, note=76, velocity=0, time=0)\n",
      "Message('note_on', channel=0, note=75, velocity=66, time=21)\n",
      "Message('control_change', channel=0, control=64, value=49, time=12)\n",
      "Message('note_on', channel=0, note=55, velocity=55, time=13)\n",
      "Message('control_change', channel=0, control=64, value=46, time=6)\n",
      "Message('control_change', channel=0, control=64, value=43, time=19)\n",
      "Message('control_change', channel=0, control=64, value=41, time=21)\n",
      "Message('note_on', channel=0, note=55, velocity=0, time=36)\n",
      "Message('control_change', channel=0, control=64, value=36, time=40)\n",
      "Message('control_change', channel=0, control=64, value=31, time=38)\n",
      "Message('note_on', channel=0, note=57, velocity=41, time=287)\n",
      "Message('control_change', channel=0, control=64, value=25, time=278)\n",
      "Message('control_change', channel=0, control=64, value=9, time=37)\n",
      "Message('control_change', channel=0, control=64, value=0, time=19)\n",
      "Message('note_on', channel=0, note=76, velocity=62, time=100)\n",
      "Message('control_change', channel=0, control=64, value=22, time=14)\n",
      "Message('note_on', channel=0, note=75, velocity=0, time=11)\n",
      "Message('control_change', channel=0, control=64, value=46, time=8)\n",
      "Message('control_change', channel=0, control=64, value=61, time=32)\n",
      "Message('control_change', channel=0, control=64, value=70, time=20)\n",
      "Message('control_change', channel=0, control=64, value=76, time=18)\n",
      "Message('note_on', channel=0, note=76, velocity=0, time=1)\n",
      "Message('control_change', channel=0, control=64, value=82, time=20)\n",
      "Message('control_change', channel=0, control=64, value=90, time=18)\n",
      "Message('control_change', channel=0, control=64, value=98, time=20)\n",
      "Message('note_on', channel=0, note=47, velocity=0, time=7)\n",
      "Message('control_change', channel=0, control=64, value=104, time=11)\n",
      "Message('control_change', channel=0, control=64, value=110, time=20)\n",
      "Message('control_change', channel=0, control=64, value=114, time=37)\n",
      "Message('control_change', channel=0, control=64, value=103, time=244)\n",
      "Message('note_on', channel=0, note=76, velocity=61, time=9)\n",
      "Message('note_on', channel=0, note=52, velocity=41, time=5)\n",
      "Message('control_change', channel=0, control=64, value=89, time=4)\n",
      "Message('control_change', channel=0, control=64, value=72, time=22)\n",
      "Message('control_change', channel=0, control=64, value=60, time=16)\n",
      "Message('control_change', channel=0, control=64, value=56, time=19)\n",
      "Message('note_on', channel=0, note=57, velocity=0, time=397)\n",
      "Message('note_on', channel=0, note=55, velocity=45, time=17)\n",
      "Message('note_on', channel=0, note=55, velocity=0, time=193)\n",
      "Message('note_on', channel=0, note=54, velocity=43, time=15)\n",
      "Message('note_on', channel=0, note=52, velocity=0, time=65)\n",
      "Message('note_on', channel=0, note=54, velocity=0, time=178)\n",
      "Message('note_on', channel=0, note=55, velocity=42, time=12)\n",
      "Message('control_change', channel=0, control=64, value=53, time=480)\n",
      "Message('control_change', channel=0, control=64, value=47, time=18)\n",
      "Message('note_on', channel=0, note=52, velocity=42, time=10)\n",
      "Message('control_change', channel=0, control=64, value=39, time=8)\n",
      "Message('control_change', channel=0, control=67, value=49, time=72)\n",
      "Message('control_change', channel=0, control=64, value=44, time=19)\n",
      "Message('control_change', channel=0, control=64, value=55, time=19)\n",
      "Message('control_change', channel=0, control=64, value=64, time=20)\n",
      "Message('control_change', channel=0, control=64, value=70, time=19)\n",
      "Message('control_change', channel=0, control=64, value=74, time=19)\n",
      "Message('note_on', channel=0, note=52, velocity=0, time=4)\n",
      "Message('control_change', channel=0, control=64, value=77, time=14)\n",
      "Message('control_change', channel=0, control=67, value=54, time=20)\n",
      "Message('control_change', channel=0, control=64, value=75, time=111)\n",
      "Message('control_change', channel=0, control=64, value=73, time=58)\n",
      "Message('control_change', channel=0, control=64, value=71, time=75)\n",
      "Message('control_change', channel=0, control=64, value=69, time=56)\n",
      "Message('control_change', channel=0, control=64, value=68, time=20)\n",
      "Message('control_change', channel=0, control=64, value=67, time=38)\n",
      "Message('control_change', channel=0, control=64, value=65, time=38)\n",
      "Message('control_change', channel=0, control=64, value=64, time=18)\n",
      "Message('control_change', channel=0, control=64, value=62, time=20)\n",
      "Message('control_change', channel=0, control=64, value=61, time=17)\n",
      "Message('control_change', channel=0, control=64, value=60, time=19)\n",
      "Message('note_on', channel=0, note=55, velocity=0, time=6)\n",
      "Message('note_on', channel=0, note=40, velocity=28, time=8)\n",
      "Message('control_change', channel=0, control=64, value=57, time=3)\n",
      "Message('control_change', channel=0, control=64, value=54, time=21)\n",
      "Message('control_change', channel=0, control=64, value=49, time=20)\n",
      "Message('control_change', channel=0, control=64, value=41, time=16)\n",
      "Message('control_change', channel=0, control=64, value=31, time=21)\n",
      "Message('control_change', channel=0, control=64, value=23, time=18)\n",
      "Message('control_change', channel=0, control=64, value=19, time=38)\n",
      "Message('control_change', channel=0, control=64, value=23, time=114)\n",
      "Message('control_change', channel=0, control=64, value=34, time=18)\n",
      "Message('control_change', channel=0, control=64, value=44, time=33)\n",
      "Message('control_change', channel=0, control=64, value=55, time=20)\n",
      "Message('control_change', channel=0, control=64, value=63, time=19)\n",
      "Message('control_change', channel=0, control=64, value=69, time=19)\n",
      "Message('control_change', channel=0, control=64, value=74, time=19)\n",
      "Message('control_change', channel=0, control=64, value=79, time=20)\n",
      "Message('control_change', channel=0, control=64, value=86, time=19)\n",
      "Message('control_change', channel=0, control=64, value=94, time=19)\n",
      "Message('control_change', channel=0, control=64, value=102, time=16)\n",
      "Message('control_change', channel=0, control=64, value=108, time=21)\n",
      "Message('note_on', channel=0, note=76, velocity=0, time=29)\n",
      "Message('control_change', channel=0, control=64, value=114, time=9)\n",
      "Message('control_change', channel=0, control=64, value=118, time=36)\n",
      "Message('note_on', channel=0, note=40, velocity=0, time=31)\n",
      "Message('control_change', channel=0, control=64, value=123, time=5)\n",
      "Message('control_change', channel=0, control=64, value=117, time=268)\n",
      "Message('control_change', channel=0, control=64, value=112, time=57)\n",
      "Message('control_change', channel=0, control=64, value=106, time=55)\n",
      "Message('control_change', channel=0, control=64, value=100, time=39)\n",
      "Message('control_change', channel=0, control=64, value=95, time=36)\n",
      "Message('control_change', channel=0, control=64, value=90, time=40)\n",
      "Message('control_change', channel=0, control=64, value=87, time=17)\n",
      "Message('control_change', channel=0, control=64, value=84, time=20)\n",
      "Message('control_change', channel=0, control=64, value=80, time=19)\n",
      "Message('control_change', channel=0, control=64, value=76, time=20)\n",
      "Message('control_change', channel=0, control=64, value=72, time=17)\n",
      "Message('control_change', channel=0, control=64, value=70, time=18)\n",
      "Message('control_change', channel=0, control=64, value=68, time=90)\n",
      "Message('control_change', channel=0, control=64, value=67, time=40)\n",
      "Message('control_change', channel=0, control=64, value=65, time=38)\n",
      "Message('note_on', channel=0, note=52, velocity=42, time=7)\n",
      "Message('note_on', channel=0, note=55, velocity=36, time=14)\n",
      "Message('note_on', channel=0, note=71, velocity=61, time=3)\n",
      "Message('control_change', channel=0, control=64, value=63, time=14)\n",
      "Message('control_change', channel=0, control=64, value=62, time=37)\n",
      "Message('note_on', channel=0, note=71, velocity=0, time=7)\n",
      "Message('control_change', channel=0, control=64, value=61, time=30)\n",
      "Message('note_on', channel=0, note=69, velocity=60, time=5)\n",
      "Message('control_change', channel=0, control=64, value=60, time=32)\n",
      "Message('note_on', channel=0, note=69, velocity=0, time=20)\n",
      "Message('note_on', channel=0, note=71, velocity=52, time=34)\n",
      "Message('control_change', channel=0, control=64, value=58, time=288)\n",
      "Message('control_change', channel=0, control=64, value=56, time=18)\n",
      "Message('control_change', channel=0, control=64, value=52, time=37)\n",
      "Message('control_change', channel=0, control=64, value=49, time=38)\n",
      "Message('control_change', channel=0, control=64, value=46, time=20)\n",
      "Message('control_change', channel=0, control=64, value=42, time=17)\n",
      "Message('control_change', channel=0, control=64, value=37, time=19)\n",
      "Message('control_change', channel=0, control=64, value=32, time=19)\n",
      "Message('control_change', channel=0, control=64, value=27, time=39)\n",
      "Message('control_change', channel=0, control=64, value=23, time=19)\n",
      "Message('control_change', channel=0, control=64, value=16, time=19)\n",
      "Message('control_change', channel=0, control=64, value=9, time=21)\n",
      "Message('control_change', channel=0, control=64, value=0, time=73)\n",
      "Message('note_on', channel=0, note=50, velocity=44, time=161)\n",
      "Message('note_on', channel=0, note=52, velocity=0, time=54)\n",
      "Message('note_on', channel=0, note=72, velocity=59, time=405)\n",
      "Message('note_on', channel=0, note=71, velocity=0, time=8)\n",
      "Message('control_change', channel=0, control=64, value=27, time=47)\n",
      "Message('control_change', channel=0, control=64, value=45, time=19)\n",
      "Message('control_change', channel=0, control=64, value=59, time=19)\n",
      "Message('control_change', channel=0, control=64, value=68, time=20)\n",
      "Message('control_change', channel=0, control=64, value=73, time=17)\n",
      "Message('control_change', channel=0, control=64, value=76, time=19)\n",
      "Message('control_change', channel=0, control=64, value=78, time=18)\n",
      "Message('control_change', channel=0, control=64, value=80, time=21)\n",
      "Message('control_change', channel=0, control=64, value=82, time=38)\n",
      "Message('control_change', channel=0, control=64, value=84, time=41)\n",
      "Message('control_change', channel=0, control=64, value=86, time=71)\n",
      "Message('control_change', channel=0, control=64, value=81, time=109)\n",
      "Message('control_change', channel=0, control=64, value=72, time=21)\n",
      "Message('note_on', channel=0, note=48, velocity=42, time=8)\n",
      "Message('note_on', channel=0, note=71, velocity=58, time=4)\n",
      "Message('control_change', channel=0, control=64, value=62, time=7)\n",
      "Message('note_on', channel=0, note=50, velocity=0, time=3)\n",
      "Message('control_change', channel=0, control=64, value=58, time=16)\n",
      "Message('note_on', channel=0, note=72, velocity=0, time=12)\n",
      "Message('control_change', channel=0, control=64, value=61, time=23)\n",
      "Message('control_change', channel=0, control=64, value=65, time=21)\n",
      "Message('control_change', channel=0, control=64, value=66, time=18)\n",
      "Message('note_on', channel=0, note=71, velocity=0, time=12)\n",
      "Message('note_on', channel=0, note=69, velocity=52, time=22)\n",
      "Message('note_on', channel=0, note=71, velocity=37, time=58)\n",
      "Message('control_change', channel=0, control=64, value=63, time=23)\n",
      "Message('control_change', channel=0, control=64, value=58, time=18)\n",
      "Message('control_change', channel=0, control=64, value=48, time=19)\n",
      "Message('note_on', channel=0, note=71, velocity=0, time=5)\n",
      "Message('control_change', channel=0, control=64, value=25, time=14)\n",
      "Message('control_change', channel=0, control=64, value=0, time=37)\n",
      "Message('control_change', channel=0, control=64, value=9, time=111)\n",
      "Message('control_change', channel=0, control=64, value=19, time=38)\n",
      "Message('control_change', channel=0, control=64, value=33, time=20)\n",
      "Message('control_change', channel=0, control=64, value=48, time=18)\n",
      "Message('control_change', channel=0, control=64, value=60, time=20)\n",
      "Message('control_change', channel=0, control=64, value=68, time=19)\n",
      "Message('control_change', channel=0, control=64, value=72, time=19)\n",
      "Message('control_change', channel=0, control=64, value=75, time=18)\n",
      "Message('control_change', channel=0, control=64, value=79, time=22)\n",
      "Message('control_change', channel=0, control=64, value=84, time=15)\n",
      "Message('control_change', channel=0, control=64, value=89, time=20)\n",
      "Message('control_change', channel=0, control=64, value=95, time=18)\n",
      "Message('control_change', channel=0, control=64, value=100, time=21)\n",
      "Message('note_on', channel=0, note=67, velocity=61, time=8)\n",
      "Message('control_change', channel=0, control=64, value=105, time=11)\n",
      "Message('control_change', channel=0, control=64, value=110, time=18)\n",
      "Message('note_on', channel=0, note=69, velocity=0, time=9)\n",
      "Message('note_on', channel=0, note=67, velocity=0, time=25)\n",
      "Message('control_change', channel=0, control=64, value=116, time=4)\n",
      "Message('control_change', channel=0, control=64, value=107, time=205)\n",
      "Message('control_change', channel=0, control=64, value=97, time=18)\n",
      "Message('note_on', channel=0, note=47, velocity=47, time=5)\n",
      "Message('control_change', channel=0, control=64, value=86, time=15)\n",
      "Message('note_on', channel=0, note=48, velocity=0, time=2)\n",
      "Message('note_on', channel=0, note=77, velocity=56, time=1)\n",
      "Message('control_change', channel=0, control=64, value=75, time=16)\n",
      "Message('control_change', channel=0, control=64, value=66, time=16)\n",
      "Message('note_on', channel=0, note=76, velocity=37, time=6)\n",
      "Message('control_change', channel=0, control=64, value=61, time=15)\n",
      "Message('note_on', channel=0, note=77, velocity=0, time=10)\n",
      "Message('note_on', channel=0, note=76, velocity=0, time=82)\n",
      "Message('control_change', channel=0, control=64, value=60, time=1)\n",
      "Message('note_on', channel=0, note=77, velocity=68, time=24)\n",
      "Message('control_change', channel=0, control=64, value=56, time=14)\n",
      "Message('control_change', channel=0, control=64, value=53, time=20)\n",
      "Message('control_change', channel=0, control=64, value=45, time=20)\n",
      "Message('control_change', channel=0, control=64, value=32, time=17)\n",
      "Message('control_change', channel=0, control=64, value=25, time=18)\n",
      "Message('control_change', channel=0, control=64, value=41, time=132)\n",
      "Message('control_change', channel=0, control=64, value=55, time=20)\n",
      "Message('control_change', channel=0, control=64, value=66, time=16)\n",
      "Message('control_change', channel=0, control=64, value=73, time=20)\n",
      "Message('control_change', channel=0, control=64, value=79, time=19)\n",
      "Message('control_change', channel=0, control=64, value=87, time=19)\n",
      "Message('control_change', channel=0, control=64, value=96, time=20)\n",
      "Message('control_change', channel=0, control=64, value=105, time=19)\n",
      "Message('control_change', channel=0, control=64, value=113, time=19)\n",
      "Message('control_change', channel=0, control=64, value=120, time=19)\n",
      "Message('control_change', channel=0, control=64, value=125, time=37)\n",
      "Message('note_on', channel=0, note=77, velocity=0, time=103)\n",
      "Message('note_on', channel=0, note=47, velocity=0, time=153)\n",
      "Message('control_change', channel=0, control=64, value=110, time=24)\n",
      "Message('note_on', channel=0, note=77, velocity=67, time=13)\n",
      "Message('control_change', channel=0, control=64, value=94, time=7)\n",
      "Message('note_on', channel=0, note=48, velocity=43, time=13)\n",
      "Message('control_change', channel=0, control=64, value=79, time=5)\n",
      "Message('control_change', channel=0, control=64, value=70, time=20)\n",
      "Message('control_change', channel=0, control=64, value=73, time=54)\n",
      "Message('control_change', channel=0, control=64, value=76, time=20)\n",
      "Message('control_change', channel=0, control=64, value=78, time=18)\n",
      "Message('control_change', channel=0, control=64, value=80, time=37)\n",
      "Message('control_change', channel=0, control=64, value=78, time=210)\n",
      "Message('control_change', channel=0, control=64, value=75, time=17)\n",
      "Message('control_change', channel=0, control=64, value=71, time=19)\n",
      "Message('control_change', channel=0, control=64, value=67, time=20)\n",
      "Message('control_change', channel=0, control=64, value=64, time=18)\n",
      "Message('note_on', channel=0, note=76, velocity=63, time=0)\n",
      "Message('note_on', channel=0, note=52, velocity=45, time=9)\n",
      "Message('control_change', channel=0, control=64, value=61, time=11)\n",
      "Message('note_on', channel=0, note=77, velocity=0, time=17)\n",
      "Message('note_on', channel=0, note=55, velocity=0, time=19)\n",
      "Message('control_change', channel=0, control=64, value=60, time=39)\n",
      "Message('note_on', channel=0, note=52, velocity=0, time=103)\n",
      "Message('control_change', channel=0, control=67, value=50, time=85)\n",
      "Message('note_on', channel=0, note=53, velocity=55, time=166)\n",
      "Message('note_on', channel=0, note=53, velocity=0, time=149)\n",
      "Message('control_change', channel=0, control=64, value=56, time=192)\n",
      "Message('control_change', channel=0, control=64, value=49, time=20)\n",
      "Message('control_change', channel=0, control=64, value=29, time=16)\n",
      "Message('control_change', channel=0, control=64, value=0, time=21)\n",
      "Message('note_on', channel=0, note=55, velocity=56, time=26)\n",
      "Message('control_change', channel=0, control=64, value=34, time=28)\n",
      "Message('control_change', channel=0, control=64, value=56, time=20)\n",
      "Message('control_change', channel=0, control=67, value=46, time=2)\n",
      "Message('control_change', channel=0, control=64, value=69, time=17)\n",
      "Message('control_change', channel=0, control=64, value=79, time=18)\n",
      "Message('control_change', channel=0, control=64, value=88, time=21)\n",
      "Message('control_change', channel=0, control=64, value=99, time=16)\n",
      "Message('control_change', channel=0, control=64, value=109, time=21)\n",
      "Message('note_on', channel=0, note=48, velocity=0, time=8)\n",
      "Message('control_change', channel=0, control=64, value=115, time=9)\n",
      "Message('note_on', channel=0, note=55, velocity=0, time=23)\n",
      "Message('control_change', channel=0, control=64, value=120, time=17)\n",
      "Message('control_change', channel=0, control=67, value=42, time=19)\n",
      "Message('control_change', channel=0, control=64, value=114, time=208)\n",
      "Message('note_on', channel=0, note=53, velocity=52, time=10)\n",
      "Message('note_on', channel=0, note=74, velocity=74, time=1)\n",
      "Message('note_on', channel=0, note=57, velocity=54, time=2)\n",
      "Message('control_change', channel=0, control=64, value=102, time=4)\n",
      "Message('control_change', channel=0, control=64, value=87, time=20)\n",
      "Message('note_on', channel=0, note=76, velocity=0, time=5)\n",
      "Message('control_change', channel=0, control=64, value=74, time=14)\n",
      "Message('control_change', channel=0, control=64, value=65, time=33)\n",
      "Message('control_change', channel=0, control=64, value=63, time=20)\n",
      "Message('control_change', channel=0, control=67, value=38, time=131)\n",
      "Message('control_change', channel=0, control=64, value=64, time=113)\n",
      "Message('note_on', channel=0, note=57, velocity=0, time=94)\n",
      "Message('control_change', channel=0, control=67, value=34, time=2)\n",
      "Message('note_on', channel=0, note=59, velocity=66, time=5)\n",
      "Message('control_change', channel=0, control=64, value=65, time=15)\n",
      "Message('note_on', channel=0, note=59, velocity=0, time=128)\n",
      "Message('note_on', channel=0, note=74, velocity=0, time=55)\n",
      "Message('note_on', channel=0, note=72, velocity=72, time=17)\n",
      "Message('note_on', channel=0, note=72, velocity=0, time=70)\n",
      "Message('note_on', channel=0, note=71, velocity=73, time=26)\n",
      "Message('control_change', channel=0, control=64, value=63, time=41)\n",
      "Message('control_change', channel=0, control=64, value=62, time=38)\n",
      "Message('note_on', channel=0, note=71, velocity=0, time=1)\n",
      "Message('control_change', channel=0, control=64, value=61, time=35)\n",
      "Message('note_on', channel=0, note=81, velocity=73, time=3)\n",
      "Message('note_on', channel=0, note=60, velocity=51, time=1)\n",
      "Message('control_change', channel=0, control=64, value=58, time=35)\n",
      "Message('control_change', channel=0, control=64, value=56, time=95)\n",
      "Message('note_on', channel=0, note=53, velocity=0, time=320)\n",
      "Message('note_on', channel=0, note=55, velocity=51, time=27)\n",
      "Message('note_on', channel=0, note=55, velocity=0, time=163)\n",
      "Message('note_on', channel=0, note=79, velocity=60, time=50)\n",
      "Message('note_on', channel=0, note=81, velocity=0, time=59)\n",
      "Message('note_on', channel=0, note=57, velocity=48, time=133)\n",
      "Message('note_on', channel=0, note=77, velocity=71, time=5)\n",
      "Message('note_on', channel=0, note=79, velocity=0, time=57)\n",
      "Message('note_on', channel=0, note=57, velocity=0, time=58)\n",
      "Message('note_on', channel=0, note=76, velocity=73, time=72)\n",
      "Message('note_on', channel=0, note=77, velocity=0, time=26)\n",
      "Message('note_on', channel=0, note=76, velocity=0, time=169)\n",
      "Message('note_on', channel=0, note=53, velocity=53, time=16)\n",
      "Message('note_on', channel=0, note=74, velocity=67, time=6)\n",
      "Message('note_on', channel=0, note=53, velocity=0, time=100)\n",
      "Message('note_on', channel=0, note=74, velocity=0, time=65)\n",
      "Message('note_on', channel=0, note=72, velocity=59, time=27)\n",
      "Message('control_change', channel=0, control=64, value=54, time=188)\n",
      "Message('note_on', channel=0, note=72, velocity=0, time=28)\n",
      "Message('control_change', channel=0, control=64, value=51, time=9)\n",
      "Message('control_change', channel=0, control=64, value=44, time=18)\n",
      "Message('note_on', channel=0, note=76, velocity=35, time=9)\n",
      "Message('control_change', channel=0, control=64, value=23, time=11)\n",
      "Message('note_on', channel=0, note=55, velocity=34, time=8)\n",
      "Message('control_change', channel=0, control=64, value=0, time=10)\n",
      "Message('control_change', channel=0, control=64, value=28, time=115)\n",
      "Message('control_change', channel=0, control=64, value=48, time=17)\n",
      "Message('control_change', channel=0, control=64, value=61, time=20)\n",
      "Message('control_change', channel=0, control=64, value=68, time=17)\n",
      "Message('control_change', channel=0, control=64, value=72, time=21)\n",
      "Message('control_change', channel=0, control=64, value=75, time=17)\n",
      "Message('control_change', channel=0, control=64, value=79, time=20)\n",
      "Message('control_change', channel=0, control=64, value=83, time=19)\n",
      "Message('control_change', channel=0, control=64, value=89, time=20)\n",
      "Message('control_change', channel=0, control=64, value=96, time=19)\n",
      "Message('control_change', channel=0, control=64, value=105, time=19)\n",
      "Message('control_change', channel=0, control=64, value=112, time=32)\n",
      "Message('control_change', channel=0, control=64, value=117, time=20)\n",
      "Message('note_on', channel=0, note=76, velocity=0, time=42)\n",
      "Message('control_change', channel=0, control=64, value=122, time=33)\n",
      "Message('control_change', channel=0, control=64, value=126, time=37)\n",
      "Message('note_on', channel=0, note=76, velocity=53, time=146)\n",
      "Message('note_on', channel=0, note=76, velocity=0, time=41)\n",
      "Message('note_on', channel=0, note=74, velocity=51, time=31)\n",
      "Message('control_change', channel=0, control=64, value=121, time=28)\n",
      "Message('note_on', channel=0, note=74, velocity=0, time=7)\n",
      "Message('control_change', channel=0, control=64, value=117, time=12)\n",
      "Message('control_change', channel=0, control=64, value=110, time=21)\n",
      "Message('note_on', channel=0, note=76, velocity=51, time=6)\n",
      "Message('control_change', channel=0, control=64, value=102, time=12)\n",
      "Message('control_change', channel=0, control=64, value=92, time=17)\n",
      "Message('note_on', channel=0, note=76, velocity=0, time=0)\n",
      "Message('control_change', channel=0, control=64, value=82, time=20)\n",
      "Message('note_on', channel=0, note=74, velocity=63, time=4)\n",
      "Message('control_change', channel=0, control=64, value=71, time=15)\n",
      "Message('note_on', channel=0, note=60, velocity=0, time=1)\n",
      "Message('control_change', channel=0, control=64, value=62, time=18)\n",
      "Message('note_on', channel=0, note=59, velocity=43, time=8)\n",
      "Message('control_change', channel=0, control=64, value=61, time=11)\n",
      "Message('note_on', channel=0, note=74, velocity=0, time=24)\n",
      "Message('control_change', channel=0, control=64, value=60, time=32)\n",
      "Message('control_change', channel=0, control=67, value=38, time=37)\n",
      "Message('control_change', channel=0, control=64, value=57, time=21)\n",
      "Message('note_on', channel=0, note=59, velocity=0, time=16)\n",
      "Message('note_on', channel=0, note=59, velocity=10, time=0)\n",
      "Message('note_on', channel=0, note=72, velocity=53, time=48)\n",
      "Message('control_change', channel=0, control=67, value=42, time=8)\n",
      "Message('note_on', channel=0, note=72, velocity=0, time=23)\n",
      "Message('control_change', channel=0, control=64, value=55, time=17)\n",
      "Message('note_on', channel=0, note=59, velocity=0, time=3)\n",
      "Message('control_change', channel=0, control=67, value=46, time=14)\n",
      "Message('control_change', channel=0, control=64, value=52, time=39)\n",
      "Message('control_change', channel=0, control=64, value=50, time=19)\n",
      "Message('control_change', channel=0, control=64, value=44, time=20)\n",
      "Message('control_change', channel=0, control=64, value=37, time=18)\n",
      "Message('control_change', channel=0, control=64, value=31, time=20)\n",
      "Message('control_change', channel=0, control=67, value=51, time=18)\n",
      "Message('note_on', channel=0, note=74, velocity=53, time=12)\n",
      "Message('control_change', channel=0, control=64, value=43, time=60)\n",
      "Message('control_change', channel=0, control=67, value=55, time=1)\n",
      "Message('control_change', channel=0, control=64, value=57, time=17)\n",
      "Message('control_change', channel=0, control=64, value=68, time=20)\n",
      "Message('note_on', channel=0, note=55, velocity=0, time=11)\n",
      "Message('control_change', channel=0, control=64, value=76, time=5)\n",
      "Message('control_change', channel=0, control=67, value=59, time=1)\n",
      "Message('control_change', channel=0, control=64, value=83, time=19)\n",
      "Message('note_on', channel=0, note=74, velocity=0, time=15)\n",
      "Message('control_change', channel=0, control=64, value=90, time=3)\n",
      "Message('control_change', channel=0, control=64, value=97, time=21)\n",
      "Message('control_change', channel=0, control=64, value=104, time=18)\n",
      "Message('control_change', channel=0, control=64, value=109, time=21)\n",
      "Message('control_change', channel=0, control=64, value=113, time=17)\n",
      "Message('control_change', channel=0, control=67, value=63, time=1)\n",
      "Message('control_change', channel=0, control=64, value=117, time=37)\n",
      "Message('control_change', channel=0, control=64, value=112, time=284)\n",
      "Message('note_on', channel=0, note=72, velocity=47, time=31)\n",
      "Message('control_change', channel=0, control=64, value=103, time=4)\n",
      "Message('note_on', channel=0, note=60, velocity=39, time=14)\n",
      "Message('control_change', channel=0, control=64, value=96, time=7)\n",
      "Message('note_on', channel=0, note=48, velocity=37, time=9)\n",
      "Message('control_change', channel=0, control=64, value=89, time=9)\n",
      "Message('control_change', channel=0, control=64, value=80, time=21)\n",
      "Message('control_change', channel=0, control=64, value=68, time=17)\n",
      "Message('control_change', channel=0, control=64, value=58, time=19)\n",
      "Message('control_change', channel=0, control=64, value=50, time=20)\n",
      "Message('control_change', channel=0, control=64, value=46, time=18)\n",
      "Message('control_change', channel=0, control=64, value=42, time=18)\n",
      "Message('control_change', channel=0, control=64, value=35, time=19)\n",
      "Message('control_change', channel=0, control=64, value=39, time=75)\n",
      "Message('control_change', channel=0, control=64, value=49, time=20)\n",
      "Message('control_change', channel=0, control=64, value=57, time=19)\n",
      "Message('control_change', channel=0, control=64, value=64, time=19)\n",
      "Message('control_change', channel=0, control=64, value=68, time=18)\n",
      "Message('control_change', channel=0, control=64, value=71, time=21)\n",
      "Message('note_on', channel=0, note=72, velocity=0, time=15)\n",
      "Message('control_change', channel=0, control=64, value=75, time=2)\n",
      "Message('control_change', channel=0, control=64, value=78, time=22)\n",
      "Message('control_change', channel=0, control=64, value=82, time=31)\n",
      "Message('control_change', channel=0, control=64, value=87, time=20)\n",
      "Message('control_change', channel=0, control=64, value=92, time=18)\n",
      "Message('note_on', channel=0, note=60, velocity=0, time=12)\n",
      "Message('control_change', channel=0, control=64, value=98, time=7)\n",
      "Message('control_change', channel=0, control=64, value=104, time=18)\n",
      "Message('control_change', channel=0, control=64, value=109, time=19)\n",
      "Message('control_change', channel=0, control=64, value=113, time=38)\n",
      "Message('control_change', channel=0, control=64, value=109, time=585)\n",
      "Message('control_change', channel=0, control=64, value=101, time=39)\n",
      "Message('note_on', channel=0, note=54, velocity=47, time=10)\n",
      "Message('control_change', channel=0, control=64, value=91, time=9)\n",
      "Message('note_on', channel=0, note=71, velocity=65, time=11)\n",
      "Message('control_change', channel=0, control=64, value=79, time=5)\n",
      "Message('control_change', channel=0, control=64, value=67, time=22)\n",
      "Message('control_change', channel=0, control=64, value=59, time=18)\n",
      "Message('control_change', channel=0, control=64, value=57, time=19)\n",
      "Message('note_on', channel=0, note=48, velocity=0, time=107)\n",
      "Message('note_on', channel=0, note=69, velocity=60, time=304)\n",
      "Message('note_on', channel=0, note=52, velocity=50, time=2)\n",
      "Message('note_on', channel=0, note=71, velocity=0, time=0)\n",
      "Message('note_on', channel=0, note=52, velocity=0, time=139)\n",
      "Message('note_on', channel=0, note=50, velocity=55, time=278)\n",
      "Message('note_on', channel=0, note=50, velocity=0, time=137)\n",
      "Message('control_change', channel=0, control=64, value=53, time=233)\n",
      "Message('control_change', channel=0, control=64, value=48, time=20)\n",
      "Message('control_change', channel=0, control=64, value=38, time=20)\n",
      "Message('control_change', channel=0, control=64, value=33, time=17)\n",
      "Message('note_on', channel=0, note=71, velocity=67, time=0)\n",
      "Message('note_on', channel=0, note=48, velocity=50, time=2)\n",
      "Message('note_on', channel=0, note=69, velocity=0, time=31)\n",
      "Message('control_change', channel=0, control=64, value=43, time=25)\n",
      "Message('control_change', channel=0, control=64, value=56, time=18)\n",
      "Message('control_change', channel=0, control=64, value=66, time=19)\n",
      "Message('control_change', channel=0, control=64, value=72, time=19)\n",
      "Message('control_change', channel=0, control=64, value=78, time=17)\n",
      "Message('control_change', channel=0, control=64, value=84, time=19)\n",
      "Message('control_change', channel=0, control=64, value=89, time=19)\n",
      "Message('control_change', channel=0, control=64, value=94, time=39)\n",
      "Message('note_on', channel=0, note=48, velocity=0, time=61)\n",
      "Message('control_change', channel=0, control=64, value=88, time=146)\n",
      "Message('note_on', channel=0, note=69, velocity=64, time=18)\n",
      "Message('control_change', channel=0, control=64, value=78, time=1)\n",
      "Message('note_on', channel=0, note=47, velocity=44, time=7)\n",
      "Message('note_on', channel=0, note=71, velocity=0, time=11)\n",
      "Message('control_change', channel=0, control=64, value=67, time=1)\n",
      "Message('control_change', channel=0, control=64, value=61, time=20)\n",
      "Message('note_on', channel=0, note=69, velocity=0, time=6)\n",
      "Message('note_on', channel=0, note=67, velocity=64, time=27)\n",
      "Message('note_on', channel=0, note=67, velocity=0, time=49)\n",
      "Message('note_on', channel=0, note=69, velocity=63, time=12)\n",
      "Message('note_on', channel=0, note=69, velocity=0, time=54)\n",
      "Message('note_on', channel=0, note=67, velocity=57, time=16)\n",
      "Message('control_change', channel=0, control=64, value=60, time=63)\n",
      "Message('control_change', channel=0, control=64, value=57, time=36)\n",
      "Message('control_change', channel=0, control=64, value=52, time=33)\n",
      "Message('control_change', channel=0, control=64, value=42, time=21)\n",
      "Message('control_change', channel=0, control=64, value=19, time=18)\n",
      "Message('control_change', channel=0, control=64, value=0, time=19)\n",
      "Message('note_on', channel=0, note=47, velocity=0, time=0)\n",
      "Message('note_on', channel=0, note=45, velocity=49, time=37)\n",
      "Message('control_change', channel=0, control=64, value=33, time=38)\n",
      "Message('control_change', channel=0, control=64, value=51, time=18)\n",
      "Message('control_change', channel=0, control=64, value=63, time=21)\n",
      "Message('control_change', channel=0, control=64, value=71, time=19)\n",
      "Message('control_change', channel=0, control=64, value=76, time=19)\n",
      "Message('control_change', channel=0, control=64, value=80, time=19)\n",
      "Message('control_change', channel=0, control=64, value=84, time=17)\n",
      "Message('note_on', channel=0, note=45, velocity=0, time=3)\n",
      "Message('control_change', channel=0, control=64, value=88, time=17)\n",
      "Message('control_change', channel=0, control=64, value=92, time=19)\n",
      "Message('note_on', channel=0, note=66, velocity=74, time=4)\n",
      "Message('note_on', channel=0, note=54, velocity=0, time=7)\n",
      "Message('note_on', channel=0, note=67, velocity=0, time=2)\n",
      "Message('control_change', channel=0, control=64, value=98, time=23)\n",
      "Message('control_change', channel=0, control=67, value=59, time=95)\n",
      "Message('control_change', channel=0, control=64, value=94, time=57)\n",
      "Message('control_change', channel=0, control=64, value=87, time=18)\n",
      "Message('control_change', channel=0, control=64, value=78, time=20)\n",
      "Message('note_on', channel=0, note=74, velocity=71, time=8)\n",
      "Message('note_on', channel=0, note=55, velocity=56, time=6)\n",
      "Message('note_on', channel=0, note=47, velocity=48, time=4)\n",
      "Message('control_change', channel=0, control=64, value=68, time=2)\n",
      "Message('note_on', channel=0, note=66, velocity=0, time=0)\n",
      "Message('control_change', channel=0, control=64, value=59, time=16)\n",
      "Message('control_change', channel=0, control=64, value=53, time=19)\n",
      "Message('control_change', channel=0, control=64, value=48, time=19)\n",
      "Message('control_change', channel=0, control=64, value=43, time=20)\n",
      "Message('control_change', channel=0, control=64, value=37, time=19)\n",
      "Message('control_change', channel=0, control=64, value=28, time=20)\n",
      "Message('control_change', channel=0, control=64, value=9, time=19)\n",
      "Message('control_change', channel=0, control=64, value=0, time=18)\n",
      "Message('control_change', channel=0, control=67, value=55, time=1)\n",
      "Message('control_change', channel=0, control=67, value=50, time=130)\n",
      "Message('control_change', channel=0, control=64, value=35, time=39)\n",
      "Message('control_change', channel=0, control=64, value=55, time=18)\n",
      "Message('control_change', channel=0, control=64, value=66, time=20)\n",
      "Message('control_change', channel=0, control=64, value=74, time=19)\n",
      "Message('note_on', channel=0, note=47, velocity=0, time=17)\n",
      "Message('control_change', channel=0, control=64, value=82, time=2)\n",
      "Message('control_change', channel=0, control=67, value=45, time=0)\n",
      "Message('note_on', channel=0, note=74, velocity=0, time=29)\n",
      "Message('note_on', channel=0, note=50, velocity=64, time=1)\n",
      "Message('control_change', channel=0, control=64, value=92, time=1)\n",
      "Message('control_change', channel=0, control=64, value=102, time=22)\n",
      "Message('control_change', channel=0, control=64, value=112, time=18)\n",
      "Message('control_change', channel=0, control=64, value=119, time=20)\n",
      "Message('control_change', channel=0, control=64, value=123, time=55)\n",
      "Message('note_on', channel=0, note=50, velocity=0, time=74)\n",
      "Message('control_change', channel=0, control=64, value=113, time=170)\n",
      "Message('control_change', channel=0, control=64, value=102, time=21)\n",
      "Message('control_change', channel=0, control=64, value=91, time=18)\n",
      "Message('note_on', channel=0, note=48, velocity=52, time=10)\n",
      "Message('note_on', channel=0, note=74, velocity=76, time=1)\n",
      "Message('control_change', channel=0, control=64, value=82, time=9)\n",
      "Message('control_change', channel=0, control=64, value=75, time=19)\n",
      "Message('control_change', channel=0, control=64, value=71, time=19)\n",
      "Message('note_on', channel=0, note=76, velocity=68, time=202)\n",
      "Message('note_on', channel=0, note=74, velocity=0, time=4)\n",
      "Message('note_on', channel=0, note=48, velocity=0, time=25)\n",
      "Message('control_change', channel=0, control=64, value=69, time=31)\n",
      "Message('note_on', channel=0, note=76, velocity=0, time=15)\n",
      "Message('control_change', channel=0, control=64, value=68, time=3)\n",
      "Message('note_on', channel=0, note=74, velocity=67, time=17)\n",
      "Message('control_change', channel=0, control=64, value=66, time=4)\n",
      "Message('control_change', channel=0, control=64, value=63, time=20)\n",
      "Message('control_change', channel=0, control=64, value=59, time=17)\n",
      "Message('control_change', channel=0, control=64, value=52, time=19)\n",
      "Message('note_on', channel=0, note=74, velocity=0, time=9)\n",
      "Message('note_on', channel=0, note=47, velocity=53, time=6)\n",
      "Message('control_change', channel=0, control=64, value=44, time=3)\n",
      "Message('note_on', channel=0, note=76, velocity=70, time=9)\n",
      "Message('control_change', channel=0, control=64, value=40, time=10)\n",
      "Message('note_on', channel=0, note=47, velocity=0, time=143)\n",
      "Message('note_on', channel=0, note=45, velocity=57, time=296)\n",
      "Message('control_change', channel=0, control=64, value=42, time=126)\n",
      "Message('note_on', channel=0, note=45, velocity=0, time=30)\n",
      "Message('control_change', channel=0, control=64, value=34, time=234)\n",
      "Message('note_on', channel=0, note=43, velocity=48, time=62)\n",
      "Message('control_change', channel=0, control=64, value=44, time=15)\n",
      "Message('control_change', channel=0, control=64, value=59, time=18)\n",
      "Message('control_change', channel=0, control=64, value=70, time=20)\n",
      "Message('control_change', channel=0, control=64, value=80, time=19)\n",
      "Message('note_on', channel=0, note=76, velocity=0, time=14)\n",
      "Message('control_change', channel=0, control=64, value=90, time=6)\n",
      "Message('control_change', channel=0, control=64, value=102, time=18)\n",
      "Message('note_on', channel=0, note=43, velocity=0, time=9)\n",
      "Message('control_change', channel=0, control=64, value=114, time=9)\n",
      "Message('control_change', channel=0, control=64, value=124, time=20)\n",
      "Message('control_change', channel=0, control=64, value=117, time=374)\n",
      "Message('note_on', channel=0, note=55, velocity=0, time=8)\n",
      "Message('note_on', channel=0, note=42, velocity=53, time=4)\n",
      "Message('control_change', channel=0, control=64, value=106, time=6)\n",
      "Message('control_change', channel=0, control=64, value=98, time=18)\n",
      "Message('note_on', channel=0, note=62, velocity=59, time=2)\n",
      "Message('control_change', channel=0, control=64, value=90, time=19)\n",
      "Message('control_change', channel=0, control=64, value=82, time=18)\n",
      "Message('control_change', channel=0, control=64, value=76, time=20)\n",
      "Message('control_change', channel=0, control=64, value=71, time=18)\n",
      "Message('control_change', channel=0, control=64, value=69, time=93)\n",
      "Message('note_on', channel=0, note=64, velocity=59, time=47)\n",
      "Message('note_on', channel=0, note=62, velocity=0, time=15)\n",
      "Message('note_on', channel=0, note=66, velocity=66, time=181)\n",
      "Message('note_on', channel=0, note=45, velocity=56, time=1)\n",
      "Message('note_on', channel=0, note=64, velocity=0, time=17)\n",
      "Message('note_on', channel=0, note=45, velocity=0, time=55)\n",
      "Message('note_on', channel=0, note=66, velocity=0, time=108)\n",
      "Message('control_change', channel=0, control=64, value=68, time=27)\n",
      "Message('note_on', channel=0, note=67, velocity=68, time=0)\n",
      "Message('control_change', channel=0, control=64, value=67, time=74)\n",
      "Message('control_change', channel=0, control=64, value=66, time=19)\n",
      "Message('control_change', channel=0, control=64, value=65, time=19)\n",
      "Message('control_change', channel=0, control=64, value=62, time=19)\n",
      "Message('control_change', channel=0, control=64, value=60, time=21)\n",
      "Message('control_change', channel=0, control=64, value=55, time=18)\n",
      "Message('control_change', channel=0, control=64, value=48, time=20)\n",
      "Message('control_change', channel=0, control=64, value=38, time=16)\n",
      "Message('note_on', channel=0, note=69, velocity=66, time=15)\n",
      "Message('note_on', channel=0, note=50, velocity=53, time=4)\n",
      "Message('control_change', channel=0, control=64, value=32, time=2)\n",
      "Message('note_on', channel=0, note=67, velocity=0, time=12)\n",
      "Message('note_on', channel=0, note=42, velocity=0, time=89)\n",
      "Message('control_change', channel=0, control=64, value=36, time=49)\n",
      "Message('note_on', channel=0, note=71, velocity=63, time=48)\n",
      "Message('note_on', channel=0, note=69, velocity=0, time=42)\n",
      "Message('control_change', channel=0, control=64, value=32, time=118)\n",
      "Message('note_on', channel=0, note=42, velocity=43, time=30)\n",
      "Message('note_on', channel=0, note=72, velocity=65, time=2)\n",
      "Message('control_change', channel=0, control=64, value=36, time=24)\n",
      "Message('note_on', channel=0, note=71, velocity=0, time=13)\n",
      "Message('control_change', channel=0, control=64, value=49, time=7)\n",
      "Message('control_change', channel=0, control=64, value=61, time=18)\n",
      "Message('control_change', channel=0, control=64, value=69, time=18)\n",
      "Message('control_change', channel=0, control=64, value=74, time=19)\n",
      "Message('control_change', channel=0, control=64, value=78, time=21)\n",
      "Message('note_on', channel=0, note=42, velocity=0, time=13)\n",
      "Message('control_change', channel=0, control=64, value=81, time=2)\n",
      "Message('control_change', channel=0, control=64, value=83, time=20)\n",
      "Message('note_on', channel=0, note=72, velocity=0, time=33)\n",
      "Message('note_on', channel=0, note=69, velocity=60, time=12)\n",
      "Message('control_change', channel=0, control=64, value=85, time=13)\n",
      "Message('control_change', channel=0, control=64, value=83, time=185)\n",
      "Message('control_change', channel=0, control=64, value=77, time=18)\n",
      "Message('note_on', channel=0, note=43, velocity=51, time=8)\n",
      "Message('control_change', channel=0, control=64, value=70, time=11)\n",
      "Message('note_on', channel=0, note=69, velocity=0, time=14)\n",
      "Message('control_change', channel=0, control=64, value=67, time=5)\n",
      "Message('note_on', channel=0, note=71, velocity=57, time=3)\n",
      "Message('note_on', channel=0, note=69, velocity=67, time=140)\n",
      "Message('note_on', channel=0, note=71, velocity=0, time=6)\n",
      "Message('note_on', channel=0, note=69, velocity=0, time=117)\n",
      "Message('note_on', channel=0, note=67, velocity=67, time=1)\n",
      "Message('note_on', channel=0, note=48, velocity=55, time=102)\n",
      "Message('note_on', channel=0, note=52, velocity=57, time=6)\n",
      "Message('note_on', channel=0, note=67, velocity=0, time=14)\n",
      "Message('note_on', channel=0, note=69, velocity=70, time=16)\n",
      "Message('control_change', channel=0, control=64, value=66, time=10)\n",
      "Message('note_on', channel=0, note=50, velocity=0, time=49)\n",
      "Message('control_change', channel=0, control=64, value=65, time=27)\n",
      "Message('note_on', channel=0, note=69, velocity=0, time=34)\n",
      "Message('note_on', channel=0, note=67, velocity=69, time=2)\n",
      "Message('control_change', channel=0, control=64, value=63, time=22)\n",
      "Message('control_change', channel=0, control=64, value=62, time=17)\n",
      "Message('control_change', channel=0, control=64, value=61, time=19)\n",
      "Message('note_on', channel=0, note=43, velocity=0, time=8)\n",
      "Message('control_change', channel=0, control=64, value=58, time=11)\n",
      "Message('control_change', channel=0, control=64, value=54, time=36)\n",
      "Message('note_on', channel=0, note=67, velocity=0, time=0)\n",
      "Message('note_on', channel=0, note=66, velocity=63, time=13)\n",
      "Message('control_change', channel=0, control=64, value=52, time=7)\n",
      "Message('control_change', channel=0, control=64, value=47, time=19)\n",
      "Message('control_change', channel=0, control=64, value=39, time=19)\n",
      "Message('control_change', channel=0, control=64, value=26, time=20)\n",
      "Message('control_change', channel=0, control=64, value=11, time=19)\n",
      "Message('control_change', channel=0, control=64, value=0, time=18)\n",
      "Message('note_on', channel=0, note=66, velocity=0, time=35)\n",
      "Message('note_on', channel=0, note=48, velocity=0, time=36)\n",
      "Message('note_on', channel=0, note=52, velocity=0, time=1)\n",
      "Message('note_on', channel=0, note=67, velocity=59, time=7)\n",
      "Message('note_on', channel=0, note=50, velocity=52, time=8)\n",
      "Message('control_change', channel=0, control=64, value=34, time=173)\n",
      "Message('control_change', channel=0, control=64, value=55, time=20)\n",
      "Message('control_change', channel=0, control=64, value=65, time=18)\n",
      "Message('control_change', channel=0, control=64, value=70, time=20)\n",
      "Message('control_change', channel=0, control=64, value=73, time=19)\n",
      "Message('control_change', channel=0, control=64, value=76, time=17)\n",
      "Message('control_change', channel=0, control=64, value=79, time=20)\n",
      "Message('control_change', channel=0, control=64, value=82, time=17)\n",
      "Message('control_change', channel=0, control=64, value=86, time=21)\n",
      "Message('control_change', channel=0, control=64, value=90, time=19)\n",
      "Message('control_change', channel=0, control=64, value=94, time=16)\n",
      "Message('control_change', channel=0, control=64, value=99, time=40)\n",
      "Message('note_on', channel=0, note=59, velocity=53, time=45)\n",
      "Message('note_on', channel=0, note=67, velocity=0, time=71)\n",
      "Message('note_on', channel=0, note=67, velocity=61, time=338)\n",
      "Message('control_change', channel=0, control=64, value=95, time=19)\n",
      "Message('note_on', channel=0, note=57, velocity=49, time=10)\n",
      "Message('control_change', channel=0, control=64, value=83, time=9)\n",
      "Message('note_on', channel=0, note=59, velocity=0, time=2)\n",
      "Message('note_on', channel=0, note=67, velocity=0, time=4)\n",
      "Message('control_change', channel=0, control=64, value=70, time=27)\n",
      "Message('control_change', channel=0, control=64, value=60, time=17)\n",
      "Message('note_on', channel=0, note=66, velocity=57, time=5)\n",
      "Message('control_change', channel=0, control=64, value=57, time=15)\n",
      "Message('note_on', channel=0, note=66, velocity=0, time=33)\n",
      "Message('note_on', channel=0, note=67, velocity=60, time=10)\n",
      "Message('note_on', channel=0, note=67, velocity=0, time=43)\n",
      "Message('note_on', channel=0, note=66, velocity=45, time=35)\n",
      "Message('control_change', channel=0, control=64, value=54, time=144)\n",
      "Message('control_change', channel=0, control=64, value=50, time=18)\n",
      "Message('control_change', channel=0, control=64, value=42, time=18)\n",
      "Message('control_change', channel=0, control=64, value=29, time=20)\n",
      "Message('control_change', channel=0, control=64, value=16, time=19)\n",
      "Message('note_on', channel=0, note=57, velocity=0, time=12)\n",
      "Message('control_change', channel=0, control=64, value=11, time=5)\n",
      "Message('note_on', channel=0, note=55, velocity=41, time=47)\n",
      "Message('note_on', channel=0, note=66, velocity=0, time=192)\n",
      "Message('note_on', channel=0, note=64, velocity=47, time=2)\n",
      "Message('note_on', channel=0, note=54, velocity=42, time=244)\n",
      "Message('note_on', channel=0, note=62, velocity=51, time=2)\n",
      "Message('note_on', channel=0, note=64, velocity=0, time=1)\n",
      "Message('note_on', channel=0, note=50, velocity=0, time=11)\n",
      "Message('note_on', channel=0, note=55, velocity=0, time=32)\n",
      "Message('note_on', channel=0, note=48, velocity=45, time=463)\n",
      "Message('control_change', channel=0, control=64, value=27, time=3)\n",
      "Message('control_change', channel=0, control=64, value=43, time=20)\n",
      "Message('control_change', channel=0, control=64, value=58, time=19)\n",
      "Message('control_change', channel=0, control=64, value=68, time=19)\n",
      "Message('control_change', channel=0, control=64, value=75, time=20)\n",
      "Message('control_change', channel=0, control=64, value=81, time=19)\n",
      "Message('note_on', channel=0, note=62, velocity=0, time=2)\n",
      "Message('control_change', channel=0, control=64, value=88, time=17)\n",
      "Message('control_change', channel=0, control=64, value=96, time=16)\n",
      "Message('control_change', channel=0, control=64, value=104, time=20)\n",
      "Message('note_on', channel=0, note=48, velocity=0, time=5)\n",
      "Message('control_change', channel=0, control=64, value=110, time=14)\n",
      "Message('control_change', channel=0, control=64, value=115, time=19)\n",
      "Message('control_change', channel=0, control=64, value=110, time=449)\n",
      "Message('control_change', channel=0, control=64, value=99, time=20)\n",
      "Message('note_on', channel=0, note=47, velocity=48, time=1)\n",
      "Message('note_on', channel=0, note=74, velocity=67, time=6)\n",
      "Message('control_change', channel=0, control=64, value=85, time=12)\n",
      "Message('control_change', channel=0, control=64, value=72, time=18)\n",
      "Message('note_on', channel=0, note=54, velocity=0, time=14)\n",
      "Message('control_change', channel=0, control=64, value=62, time=3)\n",
      "Message('control_change', channel=0, control=64, value=57, time=19)\n",
      "Message('note_on', channel=0, note=74, velocity=0, time=0)\n",
      "Message('note_on', channel=0, note=72, velocity=66, time=21)\n",
      "Message('note_on', channel=0, note=72, velocity=0, time=71)\n",
      "Message('note_on', channel=0, note=74, velocity=62, time=18)\n",
      "Message('control_change', channel=0, control=64, value=55, time=5)\n",
      "Message('note_on', channel=0, note=50, velocity=59, time=310)\n",
      "Message('note_on', channel=0, note=50, velocity=0, time=53)\n",
      "Message('control_change', channel=0, control=64, value=51, time=314)\n",
      "Message('control_change', channel=0, control=64, value=46, time=18)\n",
      "Message('control_change', channel=0, control=64, value=42, time=20)\n",
      "Message('note_on', channel=0, note=55, velocity=45, time=50)\n",
      "Message('control_change', channel=0, control=64, value=46, time=25)\n",
      "Message('control_change', channel=0, control=64, value=53, time=17)\n",
      "Message('control_change', channel=0, control=64, value=61, time=18)\n",
      "Message('control_change', channel=0, control=64, value=66, time=21)\n",
      "Message('control_change', channel=0, control=64, value=71, time=19)\n",
      "Message('note_on', channel=0, note=47, velocity=0, time=9)\n",
      "Message('control_change', channel=0, control=64, value=74, time=10)\n",
      "Message('control_change', channel=0, control=64, value=76, time=18)\n",
      "Message('control_change', channel=0, control=64, value=79, time=20)\n",
      "Message('control_change', channel=0, control=64, value=82, time=19)\n",
      "Message('control_change', channel=0, control=64, value=87, time=18)\n",
      "Message('control_change', channel=0, control=64, value=91, time=18)\n",
      "Message('control_change', channel=0, control=64, value=96, time=20)\n",
      "Message('control_change', channel=0, control=64, value=101, time=19)\n",
      "Message('control_change', channel=0, control=64, value=106, time=19)\n",
      "Message('control_change', channel=0, control=64, value=112, time=36)\n",
      "Message('control_change', channel=0, control=64, value=117, time=57)\n",
      "Message('control_change', channel=0, control=64, value=121, time=40)\n",
      "Message('note_on', channel=0, note=47, velocity=51, time=29)\n",
      "Message('note_on', channel=0, note=76, velocity=64, time=0)\n",
      "Message('note_on', channel=0, note=74, velocity=0, time=14)\n",
      "Message('control_change', channel=0, control=64, value=126, time=32)\n",
      "Message('note_on', channel=0, note=47, velocity=0, time=133)\n",
      "Message('note_on', channel=0, note=76, velocity=0, time=123)\n",
      "Message('control_change', channel=0, control=64, value=118, time=118)\n",
      "Message('control_change', channel=0, control=64, value=107, time=18)\n",
      "Message('note_on', channel=0, note=74, velocity=67, time=4)\n",
      "Message('note_on', channel=0, note=45, velocity=49, time=6)\n",
      "Message('control_change', channel=0, control=64, value=97, time=9)\n",
      "Message('control_change', channel=0, control=64, value=89, time=19)\n",
      "Message('note_on', channel=0, note=74, velocity=0, time=7)\n",
      "Message('control_change', channel=0, control=64, value=82, time=11)\n",
      "Message('control_change', channel=0, control=64, value=74, time=20)\n",
      "Message('note_on', channel=0, note=72, velocity=66, time=3)\n",
      "Message('control_change', channel=0, control=64, value=69, time=16)\n",
      "Message('control_change', channel=0, control=64, value=68, time=19)\n",
      "Message('note_on', channel=0, note=72, velocity=0, time=8)\n",
      "Message('note_on', channel=0, note=74, velocity=65, time=10)\n",
      "Message('note_on', channel=0, note=74, velocity=0, time=47)\n",
      "Message('control_change', channel=0, control=64, value=67, time=7)\n",
      "Message('note_on', channel=0, note=72, velocity=65, time=3)\n",
      "Message('control_change', channel=0, control=64, value=65, time=36)\n",
      "Message('control_change', channel=0, control=64, value=62, time=39)\n",
      "Message('control_change', channel=0, control=64, value=59, time=19)\n",
      "Message('control_change', channel=0, control=64, value=54, time=17)\n",
      "Message('control_change', channel=0, control=64, value=50, time=21)\n",
      "Message('control_change', channel=0, control=64, value=48, time=18)\n",
      "Message('note_on', channel=0, note=45, velocity=0, time=73)\n",
      "Message('note_on', channel=0, note=43, velocity=51, time=35)\n",
      "Message('control_change', channel=0, control=64, value=54, time=5)\n",
      "Message('control_change', channel=0, control=64, value=60, time=22)\n",
      "Message('control_change', channel=0, control=64, value=66, time=17)\n",
      "Message('control_change', channel=0, control=64, value=69, time=19)\n",
      "Message('control_change', channel=0, control=64, value=71, time=17)\n",
      "Message('control_change', channel=0, control=64, value=74, time=39)\n",
      "Message('control_change', channel=0, control=64, value=77, time=36)\n",
      "Message('note_on', channel=0, note=72, velocity=0, time=35)\n",
      "Message('note_on', channel=0, note=71, velocity=66, time=3)\n",
      "Message('control_change', channel=0, control=64, value=80, time=39)\n",
      "Message('control_change', channel=0, control=64, value=77, time=112)\n",
      "Message('control_change', channel=0, control=64, value=73, time=21)\n",
      "Message('control_change', channel=0, control=64, value=67, time=17)\n",
      "Message('note_on', channel=0, note=71, velocity=0, time=16)\n",
      "Message('control_change', channel=0, control=64, value=60, time=4)\n",
      "Message('note_on', channel=0, note=43, velocity=0, time=1)\n",
      "Message('note_on', channel=0, note=76, velocity=77, time=2)\n",
      "Message('note_on', channel=0, note=48, velocity=58, time=1)\n",
      "Message('control_change', channel=0, control=64, value=54, time=14)\n",
      "Message('control_change', channel=0, control=64, value=42, time=18)\n",
      "Message('control_change', channel=0, control=64, value=0, time=20)\n",
      "Message('note_on', channel=0, note=55, velocity=0, time=29)\n",
      "Message('control_change', channel=0, control=64, value=23, time=174)\n",
      "Message('control_change', channel=0, control=64, value=42, time=19)\n",
      "Message('control_change', channel=0, control=64, value=56, time=20)\n",
      "Message('control_change', channel=0, control=64, value=65, time=19)\n",
      "Message('control_change', channel=0, control=64, value=71, time=18)\n",
      "Message('control_change', channel=0, control=64, value=75, time=20)\n",
      "Message('control_change', channel=0, control=64, value=80, time=20)\n",
      "Message('note_on', channel=0, note=76, velocity=0, time=9)\n",
      "Message('control_change', channel=0, control=64, value=85, time=8)\n",
      "Message('control_change', channel=0, control=64, value=91, time=19)\n",
      "Message('control_change', channel=0, control=64, value=98, time=19)\n",
      "Message('note_on', channel=0, note=52, velocity=54, time=11)\n",
      "Message('control_change', channel=0, control=64, value=105, time=7)\n",
      "Message('control_change', channel=0, control=64, value=111, time=22)\n",
      "Message('control_change', channel=0, control=64, value=115, time=16)\n",
      "Message('control_change', channel=0, control=64, value=120, time=38)\n",
      "Message('note_on', channel=0, note=52, velocity=0, time=51)\n",
      "Message('control_change', channel=0, control=64, value=124, time=45)\n",
      "Message('control_change', channel=0, control=64, value=112, time=226)\n",
      "Message('note_on', channel=0, note=57, velocity=58, time=14)\n",
      "Message('control_change', channel=0, control=64, value=94, time=5)\n",
      "Message('control_change', channel=0, control=64, value=75, time=18)\n",
      "Message('control_change', channel=0, control=64, value=65, time=19)\n",
      "Message('note_on', channel=0, note=76, velocity=73, time=7)\n",
      "Message('control_change', channel=0, control=64, value=68, time=31)\n",
      "Message('control_change', channel=0, control=64, value=71, time=18)\n",
      "Message('control_change', channel=0, control=64, value=73, time=19)\n",
      "Message('control_change', channel=0, control=64, value=75, time=19)\n",
      "Message('note_on', channel=0, note=76, velocity=0, time=65)\n",
      "Message('note_on', channel=0, note=78, velocity=66, time=32)\n",
      "Message('note_on', channel=0, note=78, velocity=0, time=68)\n",
      "Message('note_on', channel=0, note=79, velocity=76, time=19)\n",
      "Message('control_change', channel=0, control=64, value=77, time=2)\n",
      "Message('note_on', channel=0, note=48, velocity=0, time=26)\n",
      "Message('note_on', channel=0, note=45, velocity=51, time=42)\n",
      "Message('note_on', channel=0, note=78, velocity=71, time=6)\n",
      "Message('control_change', channel=0, control=64, value=73, time=1)\n",
      "Message('note_on', channel=0, note=79, velocity=0, time=0)\n",
      "Message('control_change', channel=0, control=64, value=68, time=19)\n",
      "Message('control_change', channel=0, control=64, value=62, time=19)\n",
      "Message('note_on', channel=0, note=78, velocity=0, time=13)\n",
      "Message('control_change', channel=0, control=64, value=54, time=6)\n",
      "Message('note_on', channel=0, note=79, velocity=76, time=5)\n",
      "Message('control_change', channel=0, control=64, value=43, time=14)\n",
      "Message('control_change', channel=0, control=64, value=28, time=19)\n",
      "Message('control_change', channel=0, control=64, value=0, time=18)\n",
      "Message('note_on', channel=0, note=78, velocity=80, time=9)\n",
      "Message('note_on', channel=0, note=79, velocity=0, time=0)\n",
      "Message('note_on', channel=0, note=45, velocity=0, time=280)\n",
      "Message('note_on', channel=0, note=50, velocity=57, time=18)\n",
      "Message('control_change', channel=0, control=64, value=13, time=70)\n",
      "Message('control_change', channel=0, control=64, value=18, time=94)\n",
      "Message('control_change', channel=0, control=64, value=23, time=20)\n",
      "Message('control_change', channel=0, control=64, value=30, time=95)\n",
      "Message('control_change', channel=0, control=64, value=42, time=17)\n",
      "Message('control_change', channel=0, control=64, value=55, time=36)\n",
      "Message('control_change', channel=0, control=64, value=65, time=19)\n",
      "Message('control_change', channel=0, control=64, value=71, time=19)\n",
      "Message('control_change', channel=0, control=64, value=78, time=19)\n",
      "Message('control_change', channel=0, control=64, value=85, time=15)\n",
      "Message('control_change', channel=0, control=64, value=94, time=19)\n",
      "Message('note_on', channel=0, note=78, velocity=0, time=6)\n",
      "Message('note_on', channel=0, note=48, velocity=63, time=8)\n",
      "Message('control_change', channel=0, control=64, value=103, time=4)\n",
      "Message('control_change', channel=0, control=67, value=41, time=2)\n",
      "Message('control_change', channel=0, control=64, value=112, time=18)\n",
      "Message('note_on', channel=0, note=50, velocity=0, time=11)\n",
      "Message('control_change', channel=0, control=64, value=119, time=5)\n",
      "Message('control_change', channel=0, control=64, value=123, time=21)\n",
      "Message('control_change', channel=0, control=64, value=127, time=38)\n",
      "Message('control_change', channel=0, control=67, value=37, time=20)\n",
      "Message('note_on', channel=0, note=57, velocity=0, time=92)\n",
      "Message('note_on', channel=0, note=76, velocity=74, time=25)\n",
      "Message('note_on', channel=0, note=78, velocity=83, time=92)\n",
      "Message('note_on', channel=0, note=76, velocity=0, time=3)\n",
      "Message('control_change', channel=0, control=64, value=107, time=52)\n",
      "Message('control_change', channel=0, control=64, value=79, time=19)\n",
      "Message('note_on', channel=0, note=78, velocity=0, time=7)\n",
      "Message('control_change', channel=0, control=64, value=48, time=14)\n",
      "Message('note_on', channel=0, note=48, velocity=0, time=14)\n",
      "Message('control_change', channel=0, control=64, value=11, time=1)\n",
      "Message('note_on', channel=0, note=47, velocity=62, time=12)\n",
      "Message('note_on', channel=0, note=79, velocity=83, time=1)\n",
      "Message('control_change', channel=0, control=64, value=16, time=45)\n",
      "Message('control_change', channel=0, control=64, value=25, time=112)\n",
      "Message('control_change', channel=0, control=64, value=32, time=75)\n",
      "Message('control_change', channel=0, control=64, value=37, time=20)\n",
      "Message('control_change', channel=0, control=64, value=42, time=20)\n",
      "Message('control_change', channel=0, control=64, value=46, time=18)\n",
      "Message('control_change', channel=0, control=64, value=49, time=75)\n",
      "Message('control_change', channel=0, control=64, value=51, time=34)\n",
      "Message('control_change', channel=0, control=64, value=54, time=21)\n",
      "Message('note_on', channel=0, note=50, velocity=59, time=6)\n",
      "Message('note_on', channel=0, note=50, velocity=0, time=177)\n",
      "Message('control_change', channel=0, control=64, value=56, time=23)\n",
      "Message('control_change', channel=0, control=64, value=54, time=187)\n",
      "Message('control_change', channel=0, control=64, value=50, time=20)\n",
      "Message('note_on', channel=0, note=49, velocity=68, time=18)\n",
      "Message('control_change', channel=0, control=64, value=48, time=2)\n",
      "Message('note_on', channel=0, note=47, velocity=0, time=21)\n",
      "Message('note_on', channel=0, note=52, velocity=47, time=449)\n",
      "Message('note_on', channel=0, note=81, velocity=69, time=3)\n",
      "Message('note_on', channel=0, note=79, velocity=0, time=57)\n",
      "Message('note_on', channel=0, note=52, velocity=0, time=78)\n",
      "Message('note_on', channel=0, note=83, velocity=72, time=73)\n",
      "Message('note_on', channel=0, note=81, velocity=0, time=30)\n",
      "Message('control_change', channel=0, control=64, value=50, time=114)\n",
      "Message('note_on', channel=0, note=81, velocity=70, time=54)\n",
      "Message('note_on', channel=0, note=57, velocity=57, time=11)\n",
      "Message('note_on', channel=0, note=83, velocity=0, time=26)\n",
      "Message('note_on', channel=0, note=78, velocity=69, time=153)\n",
      "Message('note_on', channel=0, note=81, velocity=0, time=3)\n",
      "Message('control_change', channel=0, control=64, value=46, time=150)\n",
      "Message('control_change', channel=0, control=64, value=40, time=19)\n",
      "Message('control_change', channel=0, control=64, value=13, time=20)\n",
      "Message('control_change', channel=0, control=64, value=0, time=19)\n",
      "Message('note_on', channel=0, note=45, velocity=52, time=4)\n",
      "Message('note_on', channel=0, note=79, velocity=70, time=1)\n",
      "Message('note_on', channel=0, note=78, velocity=0, time=1)\n",
      "Message('note_on', channel=0, note=49, velocity=0, time=2)\n",
      "Message('control_change', channel=0, control=64, value=41, time=84)\n",
      "Message('control_change', channel=0, control=64, value=60, time=18)\n",
      "Message('control_change', channel=0, control=64, value=71, time=21)\n",
      "Message('note_on', channel=0, note=57, velocity=0, time=10)\n",
      "Message('control_change', channel=0, control=64, value=81, time=7)\n",
      "Message('control_change', channel=0, control=64, value=92, time=37)\n",
      "Message('control_change', channel=0, control=64, value=104, time=19)\n",
      "Message('control_change', channel=0, control=64, value=117, time=18)\n",
      "Message('control_change', channel=0, control=64, value=125, time=20)\n",
      "Message('note_on', channel=0, note=79, velocity=0, time=16)\n",
      "Message('note_on', channel=0, note=79, velocity=69, time=174)\n",
      "Message('note_on', channel=0, note=45, velocity=0, time=18)\n",
      "Message('note_on', channel=0, note=50, velocity=51, time=14)\n",
      "Message('control_change', channel=0, control=64, value=110, time=3)\n",
      "Message('control_change', channel=0, control=64, value=92, time=20)\n",
      "Message('note_on', channel=0, note=79, velocity=0, time=5)\n",
      "Message('control_change', channel=0, control=64, value=74, time=15)\n",
      "Message('note_on', channel=0, note=78, velocity=59, time=2)\n",
      "Message('control_change', channel=0, control=64, value=64, time=15)\n",
      "Message('control_change', channel=0, control=64, value=62, time=19)\n",
      "Message('note_on', channel=0, note=78, velocity=0, time=17)\n",
      "Message('note_on', channel=0, note=79, velocity=64, time=17)\n",
      "Message('note_on', channel=0, note=79, velocity=0, time=49)\n",
      "Message('note_on', channel=0, note=78, velocity=59, time=21)\n",
      "Message('note_on', channel=0, note=57, velocity=51, time=260)\n",
      "Message('note_on', channel=0, note=57, velocity=0, time=157)\n",
      "Message('control_change', channel=0, control=64, value=63, time=79)\n",
      "Message('note_on', channel=0, note=62, velocity=47, time=228)\n",
      "Message('note_on', channel=0, note=62, velocity=0, time=132)\n",
      "Message('note_on', channel=0, note=76, velocity=60, time=285)\n",
      "Message('note_on', channel=0, note=60, velocity=44, time=2)\n",
      "Message('note_on', channel=0, note=78, velocity=0, time=54)\n",
      "Message('note_on', channel=0, note=60, velocity=0, time=74)\n",
      "Message('note_on', channel=0, note=76, velocity=0, time=328)\n",
      "Message('note_on', channel=0, note=74, velocity=54, time=6)\n",
      "Message('note_on', channel=0, note=59, velocity=38, time=13)\n",
      "Message('note_on', channel=0, note=59, velocity=0, time=157)\n",
      "Message('control_change', channel=0, control=64, value=64, time=57)\n",
      "Message('control_change', channel=0, control=64, value=65, time=95)\n",
      "Message('control_change', channel=0, control=64, value=62, time=75)\n",
      "Message('control_change', channel=0, control=64, value=65, time=57)\n",
      "Message('control_change', channel=0, control=64, value=69, time=18)\n",
      "Message('note_on', channel=0, note=57, velocity=45, time=0)\n",
      "Message('control_change', channel=0, control=64, value=76, time=19)\n",
      "Message('control_change', channel=0, control=64, value=84, time=19)\n",
      "Message('control_change', channel=0, control=64, value=94, time=18)\n",
      "Message('control_change', channel=0, control=64, value=104, time=22)\n",
      "Message('control_change', channel=0, control=64, value=110, time=15)\n",
      "Message('note_on', channel=0, note=74, velocity=0, time=0)\n",
      "Message('note_on', channel=0, note=57, velocity=0, time=14)\n",
      "Message('control_change', channel=0, control=64, value=115, time=25)\n",
      "Message('note_on', channel=0, note=50, velocity=0, time=25)\n",
      "Message('note_on', channel=0, note=74, velocity=61, time=89)\n",
      "Message('note_on', channel=0, note=74, velocity=0, time=34)\n",
      "Message('note_on', channel=0, note=72, velocity=56, time=58)\n",
      "Message('note_on', channel=0, note=72, velocity=0, time=28)\n",
      "Message('note_on', channel=0, note=74, velocity=59, time=26)\n",
      "Message('control_change', channel=0, control=64, value=101, time=3)\n",
      "Message('note_on', channel=0, note=55, velocity=60, time=5)\n",
      "Message('control_change', channel=0, control=64, value=77, time=11)\n",
      "Message('note_on', channel=0, note=52, velocity=51, time=1)\n",
      "Message('note_on', channel=0, note=74, velocity=0, time=7)\n",
      "Message('control_change', channel=0, control=64, value=44, time=11)\n",
      "Message('note_on', channel=0, note=72, velocity=77, time=4)\n",
      "Message('control_change', channel=0, control=64, value=0, time=18)\n",
      "Message('control_change', channel=0, control=64, value=16, time=36)\n",
      "Message('control_change', channel=0, control=64, value=40, time=17)\n",
      "Message('control_change', channel=0, control=64, value=53, time=21)\n",
      "Message('control_change', channel=0, control=64, value=58, time=18)\n",
      "Message('control_change', channel=0, control=64, value=60, time=20)\n",
      "Message('control_change', channel=0, control=64, value=61, time=18)\n",
      "Message('control_change', channel=0, control=64, value=62, time=20)\n",
      "Message('note_on', channel=0, note=72, velocity=0, time=1)\n",
      "Message('note_on', channel=0, note=71, velocity=73, time=23)\n",
      "Message('control_change', channel=0, control=64, value=64, time=14)\n",
      "Message('control_change', channel=0, control=64, value=65, time=18)\n",
      "Message('control_change', channel=0, control=64, value=66, time=38)\n",
      "Message('note_on', channel=0, note=71, velocity=0, time=97)\n",
      "Message('control_change', channel=0, control=64, value=61, time=15)\n",
      "Message('control_change', channel=0, control=64, value=48, time=20)\n",
      "Message('note_on', channel=0, note=72, velocity=74, time=17)\n",
      "Message('control_change', channel=0, control=64, value=30, time=1)\n",
      "Message('note_on', channel=0, note=50, velocity=55, time=15)\n",
      "Message('control_change', channel=0, control=64, value=42, time=24)\n",
      "Message('note_on', channel=0, note=52, velocity=0, time=6)\n",
      "Message('control_change', channel=0, control=64, value=59, time=12)\n",
      "Message('control_change', channel=0, control=64, value=70, time=18)\n",
      "Message('note_on', channel=0, note=55, velocity=0, time=14)\n",
      "Message('control_change', channel=0, control=64, value=77, time=4)\n",
      "Message('control_change', channel=0, control=64, value=84, time=22)\n",
      "Message('control_change', channel=0, control=64, value=91, time=16)\n",
      "Message('control_change', channel=0, control=64, value=99, time=20)\n",
      "Message('control_change', channel=0, control=64, value=106, time=18)\n",
      "Message('control_change', channel=0, control=64, value=111, time=20)\n",
      "Message('note_on', channel=0, note=50, velocity=0, time=43)\n",
      "Message('note_on', channel=0, note=72, velocity=0, time=143)\n",
      "Message('control_change', channel=0, control=64, value=107, time=40)\n",
      "Message('control_change', channel=0, control=64, value=96, time=33)\n",
      "Message('control_change', channel=0, control=64, value=77, time=19)\n",
      "Message('note_on', channel=0, note=78, velocity=70, time=18)\n",
      "Message('control_change', channel=0, control=64, value=54, time=2)\n",
      "Message('control_change', channel=0, control=67, value=41, time=0)\n",
      "Message('control_change', channel=0, control=64, value=0, time=17)\n",
      "Message('note_on', channel=0, note=57, velocity=46, time=6)\n",
      "Message('note_on', channel=0, note=48, velocity=38, time=1)\n",
      "Message('control_change', channel=0, control=64, value=20, time=89)\n",
      "Message('control_change', channel=0, control=64, value=33, time=18)\n",
      "Message('control_change', channel=0, control=64, value=46, time=20)\n",
      "Message('control_change', channel=0, control=64, value=56, time=19)\n",
      "Message('control_change', channel=0, control=64, value=60, time=19)\n",
      "Message('control_change', channel=0, control=64, value=62, time=19)\n",
      "Message('control_change', channel=0, control=64, value=64, time=20)\n",
      "Message('control_change', channel=0, control=64, value=66, time=18)\n",
      "Message('control_change', channel=0, control=64, value=67, time=20)\n",
      "Message('control_change', channel=0, control=64, value=69, time=37)\n",
      "Message('control_change', channel=0, control=64, value=67, time=73)\n",
      "Message('control_change', channel=0, control=64, value=60, time=21)\n",
      "Message('control_change', channel=0, control=64, value=50, time=17)\n",
      "Message('control_change', channel=0, control=64, value=47, time=19)\n",
      "Message('note_on', channel=0, note=47, velocity=52, time=1)\n",
      "Message('note_on', channel=0, note=48, velocity=0, time=27)\n",
      "Message('control_change', channel=0, control=64, value=55, time=9)\n",
      "Message('control_change', channel=0, control=64, value=63, time=19)\n",
      "Message('control_change', channel=0, control=64, value=68, time=20)\n",
      "Message('control_change', channel=0, control=64, value=71, time=19)\n",
      "Message('control_change', channel=0, control=64, value=74, time=20)\n",
      "Message('control_change', channel=0, control=64, value=77, time=18)\n",
      "Message('control_change', channel=0, control=64, value=80, time=21)\n",
      "Message('control_change', channel=0, control=64, value=85, time=17)\n",
      "Message('note_on', channel=0, note=47, velocity=0, time=7)\n",
      "Message('control_change', channel=0, control=64, value=90, time=12)\n",
      "Message('control_change', channel=0, control=64, value=94, time=18)\n",
      "Message('control_change', channel=0, control=64, value=98, time=20)\n",
      "Message('control_change', channel=0, control=64, value=104, time=38)\n",
      "Message('control_change', channel=0, control=64, value=100, time=113)\n",
      "Message('control_change', channel=0, control=64, value=87, time=18)\n",
      "Message('control_change', channel=0, control=64, value=66, time=18)\n",
      "Message('control_change', channel=0, control=64, value=15, time=20)\n",
      "Message('note_on', channel=0, note=45, velocity=55, time=14)\n",
      "Message('control_change', channel=0, control=64, value=0, time=4)\n",
      "Message('control_change', channel=0, control=64, value=34, time=53)\n",
      "Message('control_change', channel=0, control=64, value=55, time=19)\n",
      "Message('control_change', channel=0, control=64, value=65, time=19)\n",
      "Message('control_change', channel=0, control=64, value=71, time=20)\n",
      "Message('control_change', channel=0, control=64, value=74, time=18)\n",
      "Message('control_change', channel=0, control=64, value=77, time=19)\n",
      "Message('note_on', channel=0, note=45, velocity=0, time=16)\n",
      "Message('control_change', channel=0, control=64, value=80, time=3)\n",
      "Message('control_change', channel=0, control=64, value=83, time=20)\n",
      "Message('control_change', channel=0, control=64, value=85, time=17)\n",
      "Message('control_change', channel=0, control=64, value=87, time=20)\n",
      "Message('control_change', channel=0, control=64, value=83, time=225)\n",
      "Message('note_on', channel=0, note=43, velocity=56, time=5)\n",
      "Message('note_on', channel=0, note=78, velocity=0, time=6)\n",
      "Message('note_on', channel=0, note=79, velocity=66, time=5)\n",
      "Message('control_change', channel=0, control=64, value=71, time=3)\n",
      "Message('note_on', channel=0, note=57, velocity=0, time=0)\n",
      "Message('control_change', channel=0, control=64, value=46, time=19)\n",
      "Message('control_change', channel=0, control=64, value=0, time=20)\n",
      "Message('control_change', channel=0, control=64, value=18, time=57)\n",
      "Message('control_change', channel=0, control=64, value=48, time=19)\n",
      "Message('control_change', channel=0, control=64, value=62, time=18)\n",
      "Message('control_change', channel=0, control=64, value=70, time=19)\n",
      "Message('control_change', channel=0, control=64, value=74, time=19)\n",
      "Message('control_change', channel=0, control=64, value=76, time=20)\n",
      "Message('note_on', channel=0, note=43, velocity=0, time=4)\n",
      "Message('control_change', channel=0, control=64, value=78, time=32)\n",
      "Message('note_on', channel=0, note=81, velocity=72, time=4)\n",
      "Message('control_change', channel=0, control=64, value=80, time=54)\n",
      "Message('note_on', channel=0, note=79, velocity=0, time=29)\n",
      "Message('control_change', channel=0, control=64, value=83, time=45)\n",
      "Message('note_on', channel=0, note=81, velocity=0, time=3)\n",
      "Message('control_change', channel=0, control=64, value=78, time=91)\n",
      "Message('note_on', channel=0, note=42, velocity=46, time=14)\n",
      "Message('control_change', channel=0, control=64, value=68, time=5)\n",
      "Message('note_on', channel=0, note=81, velocity=68, time=12)\n",
      "Message('control_change', channel=0, control=64, value=51, time=6)\n",
      "Message('control_change', channel=0, control=64, value=33, time=34)\n",
      "Message('control_change', channel=0, control=64, value=39, time=38)\n",
      "Message('control_change', channel=0, control=64, value=50, time=19)\n",
      "Message('control_change', channel=0, control=64, value=57, time=20)\n",
      "Message('control_change', channel=0, control=64, value=60, time=18)\n",
      "Message('control_change', channel=0, control=64, value=61, time=39)\n",
      "Message('note_on', channel=0, note=83, velocity=71, time=9)\n",
      "Message('control_change', channel=0, control=67, value=37, time=11)\n",
      "Message('control_change', channel=0, control=64, value=62, time=36)\n",
      "Message('control_change', channel=0, control=64, value=63, time=40)\n",
      "Message('control_change', channel=0, control=64, value=64, time=36)\n",
      "Message('note_on', channel=0, note=84, velocity=75, time=7)\n",
      "Message('note_on', channel=0, note=81, velocity=0, time=21)\n",
      "Message('control_change', channel=0, control=64, value=66, time=9)\n",
      "Message('note_on', channel=0, note=83, velocity=0, time=13)\n",
      "Message('control_change', channel=0, control=64, value=67, time=27)\n",
      "Message('note_on', channel=0, note=84, velocity=0, time=5)\n",
      "Message('control_change', channel=0, control=64, value=62, time=49)\n",
      "Message('control_change', channel=0, control=64, value=50, time=22)\n",
      "Message('note_on', channel=0, note=84, velocity=68, time=4)\n",
      "Message('note_on', channel=0, note=38, velocity=47, time=9)\n",
      "Message('control_change', channel=0, control=64, value=25, time=3)\n",
      "Message('control_change', channel=0, control=64, value=18, time=20)\n",
      "Message('note_on', channel=0, note=42, velocity=0, time=2)\n",
      "Message('control_change', channel=0, control=64, value=22, time=15)\n",
      "Message('control_change', channel=0, control=64, value=39, time=19)\n",
      "Message('control_change', channel=0, control=64, value=51, time=20)\n",
      "Message('control_change', channel=0, control=64, value=58, time=19)\n",
      "Message('control_change', channel=0, control=64, value=60, time=19)\n",
      "Message('note_on', channel=0, note=83, velocity=77, time=27)\n",
      "Message('note_on', channel=0, note=84, velocity=0, time=45)\n",
      "Message('control_change', channel=0, control=64, value=61, time=3)\n",
      "Message('control_change', channel=0, control=64, value=62, time=40)\n",
      "Message('note_on', channel=0, note=81, velocity=80, time=22)\n",
      "Message('control_change', channel=0, control=64, value=63, time=15)\n",
      "Message('control_change', channel=0, control=64, value=64, time=16)\n",
      "Message('note_on', channel=0, note=83, velocity=0, time=1)\n",
      "Message('control_change', channel=0, control=64, value=65, time=19)\n",
      "Message('note_on', channel=0, note=81, velocity=0, time=24)\n",
      "Message('note_on', channel=0, note=38, velocity=0, time=42)\n",
      "Message('control_change', channel=0, control=64, value=63, time=10)\n",
      "Message('note_on', channel=0, note=81, velocity=67, time=15)\n",
      "Message('note_on', channel=0, note=40, velocity=60, time=3)\n",
      "Message('control_change', channel=0, control=64, value=55, time=1)\n",
      "Message('control_change', channel=0, control=64, value=32, time=20)\n",
      "Message('control_change', channel=0, control=67, value=33, time=1)\n",
      "Message('control_change', channel=0, control=64, value=0, time=16)\n",
      "Message('control_change', channel=0, control=64, value=32, time=59)\n",
      "Message('control_change', channel=0, control=64, value=47, time=18)\n",
      "Message('control_change', channel=0, control=64, value=55, time=32)\n",
      "Message('control_change', channel=0, control=64, value=57, time=19)\n",
      "Message('note_on', channel=0, note=79, velocity=75, time=5)\n",
      "Message('control_change', channel=0, control=64, value=60, time=35)\n",
      "Message('note_on', channel=0, note=81, velocity=0, time=1)\n",
      "Message('control_change', channel=0, control=64, value=61, time=17)\n",
      "Message('control_change', channel=0, control=64, value=62, time=19)\n",
      "Message('control_change', channel=0, control=64, value=63, time=20)\n",
      "Message('control_change', channel=0, control=64, value=65, time=19)\n",
      "Message('note_on', channel=0, note=78, velocity=79, time=6)\n",
      "Message('note_on', channel=0, note=79, velocity=0, time=24)\n",
      "Message('control_change', channel=0, control=64, value=66, time=5)\n",
      "Message('note_on', channel=0, note=78, velocity=0, time=50)\n",
      "Message('note_on', channel=0, note=40, velocity=0, time=52)\n",
      "Message('control_change', channel=0, control=64, value=59, time=13)\n",
      "Message('note_on', channel=0, note=78, velocity=71, time=17)\n",
      "Message('note_on', channel=0, note=42, velocity=50, time=1)\n",
      "Message('control_change', channel=0, control=64, value=32, time=1)\n",
      "Message('note_on', channel=0, note=45, velocity=42, time=8)\n",
      "Message('control_change', channel=0, control=64, value=0, time=8)\n",
      "Message('control_change', channel=0, control=64, value=37, time=98)\n",
      "Message('control_change', channel=0, control=64, value=52, time=18)\n",
      "Message('control_change', channel=0, control=64, value=60, time=19)\n",
      "Message('note_on', channel=0, note=76, velocity=70, time=2)\n",
      "Message('control_change', channel=0, control=64, value=63, time=14)\n",
      "Message('note_on', channel=0, note=78, velocity=0, time=16)\n",
      "Message('control_change', channel=0, control=64, value=65, time=4)\n",
      "Message('control_change', channel=0, control=64, value=66, time=19)\n",
      "Message('control_change', channel=0, control=64, value=67, time=77)\n",
      "Message('note_on', channel=0, note=74, velocity=68, time=12)\n",
      "Message('note_on', channel=0, note=76, velocity=0, time=6)\n",
      "Message('control_change', channel=0, control=64, value=69, time=38)\n",
      "Message('note_on', channel=0, note=74, velocity=0, time=31)\n",
      "Message('note_on', channel=0, note=42, velocity=0, time=13)\n",
      "Message('control_change', channel=0, control=64, value=72, time=12)\n",
      "Message('control_change', channel=0, control=64, value=68, time=77)\n",
      "Message('note_on', channel=0, note=47, velocity=48, time=1)\n",
      "Message('note_on', channel=0, note=43, velocity=50, time=1)\n",
      "Message('control_change', channel=0, control=64, value=57, time=17)\n",
      "Message('note_on', channel=0, note=45, velocity=0, time=2)\n",
      "Message('note_on', channel=0, note=74, velocity=64, time=9)\n",
      "Message('control_change', channel=0, control=64, value=0, time=8)\n",
      "Message('control_change', channel=0, control=64, value=9, time=74)\n",
      "Message('control_change', channel=0, control=64, value=32, time=20)\n",
      "Message('control_change', channel=0, control=64, value=40, time=19)\n",
      "Message('control_change', channel=0, control=64, value=43, time=31)\n",
      "Message('note_on', channel=0, note=83, velocity=67, time=20)\n",
      "Message('note_on', channel=0, note=74, velocity=0, time=27)\n",
      "Message('control_change', channel=0, control=64, value=45, time=31)\n",
      "Message('note_on', channel=0, note=83, velocity=0, time=72)\n",
      "Message('note_on', channel=0, note=81, velocity=69, time=4)\n",
      "Message('control_change', channel=0, control=64, value=40, time=112)\n",
      "Message('note_on', channel=0, note=47, velocity=0, time=6)\n",
      "Message('note_on', channel=0, note=43, velocity=0, time=9)\n",
      "Message('note_on', channel=0, note=45, velocity=59, time=2)\n",
      "Message('note_on', channel=0, note=48, velocity=51, time=9)\n",
      "Message('note_on', channel=0, note=79, velocity=72, time=2)\n",
      "Message('note_on', channel=0, note=81, velocity=0, time=23)\n",
      "Message('note_on', channel=0, note=78, velocity=71, time=110)\n",
      "Message('note_on', channel=0, note=79, velocity=0, time=5)\n",
      "Message('note_on', channel=0, note=78, velocity=0, time=103)\n",
      "Message('note_on', channel=0, note=76, velocity=66, time=33)\n",
      "Message('control_change', channel=0, control=64, value=32, time=37)\n",
      "Message('control_change', channel=0, control=64, value=25, time=17)\n",
      "Message('control_change', channel=0, control=64, value=9, time=19)\n",
      "Message('control_change', channel=0, control=64, value=0, time=20)\n",
      "Message('note_on', channel=0, note=74, velocity=62, time=59)\n",
      "Message('note_on', channel=0, note=76, velocity=0, time=11)\n",
      "Message('note_on', channel=0, note=45, velocity=0, time=4)\n",
      "Message('note_on', channel=0, note=50, velocity=51, time=1)\n",
      "Message('note_on', channel=0, note=47, velocity=42, time=18)\n",
      "Message('note_on', channel=0, note=48, velocity=0, time=17)\n",
      "Message('control_change', channel=0, control=64, value=25, time=40)\n",
      "Message('control_change', channel=0, control=64, value=52, time=19)\n",
      "Message('control_change', channel=0, control=64, value=66, time=18)\n",
      "Message('control_change', channel=0, control=64, value=75, time=20)\n",
      "Message('note_on', channel=0, note=72, velocity=67, time=2)\n",
      "Message('note_on', channel=0, note=47, velocity=0, time=5)\n",
      "Message('note_on', channel=0, note=74, velocity=0, time=1)\n",
      "Message('control_change', channel=0, control=64, value=81, time=10)\n",
      "Message('note_on', channel=0, note=50, velocity=0, time=0)\n",
      "Message('control_change', channel=0, control=64, value=85, time=19)\n",
      "Message('note_on', channel=0, note=71, velocity=64, time=116)\n",
      "Message('note_on', channel=0, note=72, velocity=0, time=3)\n",
      "Message('control_change', channel=0, control=64, value=82, time=85)\n",
      "Message('control_change', channel=0, control=64, value=80, time=19)\n",
      "Message('control_change', channel=0, control=64, value=76, time=19)\n",
      "Message('control_change', channel=0, control=64, value=72, time=20)\n",
      "Message('control_change', channel=0, control=64, value=67, time=16)\n",
      "Message('note_on', channel=0, note=71, velocity=0, time=0)\n",
      "Message('note_on', channel=0, note=76, velocity=65, time=14)\n",
      "Message('note_on', channel=0, note=55, velocity=58, time=3)\n",
      "Message('control_change', channel=0, control=64, value=63, time=3)\n",
      "Message('note_on', channel=0, note=48, velocity=30, time=13)\n",
      "Message('control_change', channel=0, control=64, value=61, time=4)\n",
      "Message('control_change', channel=0, control=64, value=58, time=40)\n",
      "Message('control_change', channel=0, control=64, value=54, time=38)\n",
      "Message('control_change', channel=0, control=64, value=52, time=21)\n",
      "Message('note_on', channel=0, note=74, velocity=64, time=21)\n",
      "Message('note_on', channel=0, note=76, velocity=0, time=3)\n",
      "Message('control_change', channel=0, control=64, value=48, time=13)\n",
      "Message('control_change', channel=0, control=64, value=46, time=113)\n",
      "Message('note_on', channel=0, note=74, velocity=0, time=8)\n",
      "Message('note_on', channel=0, note=72, velocity=62, time=3)\n",
      "Message('control_change', channel=0, control=64, value=44, time=45)\n",
      "Message('control_change', channel=0, control=64, value=42, time=75)\n",
      "Message('control_change', channel=0, control=64, value=34, time=38)\n",
      "Message('note_on', channel=0, note=72, velocity=0, time=3)\n",
      "Message('note_on', channel=0, note=48, velocity=0, time=10)\n",
      "Message('note_on', channel=0, note=50, velocity=59, time=0)\n",
      "Message('control_change', channel=0, control=64, value=29, time=4)\n",
      "Message('note_on', channel=0, note=71, velocity=63, time=4)\n",
      "Message('control_change', channel=0, control=64, value=25, time=35)\n",
      "Message('control_change', channel=0, control=64, value=31, time=112)\n",
      "Message('control_change', channel=0, control=64, value=23, time=262)\n",
      "Message('control_change', channel=0, control=64, value=9, time=19)\n",
      "Message('control_change', channel=0, control=64, value=0, time=18)\n",
      "Message('note_on', channel=0, note=52, velocity=47, time=58)\n",
      "Message('note_on', channel=0, note=71, velocity=0, time=55)\n",
      "Message('control_change', channel=0, control=64, value=43, time=1)\n",
      "Message('control_change', channel=0, control=64, value=61, time=19)\n",
      "Message('control_change', channel=0, control=64, value=71, time=20)\n",
      "Message('control_change', channel=0, control=64, value=77, time=19)\n",
      "Message('control_change', channel=0, control=64, value=81, time=18)\n",
      "Message('control_change', channel=0, control=64, value=85, time=17)\n",
      "Message('control_change', channel=0, control=64, value=91, time=39)\n",
      "Message('control_change', channel=0, control=64, value=96, time=36)\n",
      "Message('control_change', channel=0, control=67, value=37, time=3)\n",
      "Message('control_change', channel=0, control=67, value=41, time=207)\n",
      "Message('control_change', channel=0, control=64, value=89, time=37)\n",
      "Message('control_change', channel=0, control=67, value=45, time=2)\n",
      "Message('note_on', channel=0, note=71, velocity=57, time=12)\n",
      "Message('control_change', channel=0, control=64, value=77, time=4)\n",
      "Message('note_on', channel=0, note=52, velocity=0, time=3)\n",
      "Message('note_on', channel=0, note=54, velocity=47, time=7)\n",
      "Message('control_change', channel=0, control=64, value=61, time=9)\n",
      "Message('control_change', channel=0, control=67, value=49, time=0)\n",
      "Message('control_change', channel=0, control=64, value=47, time=20)\n",
      "Message('note_on', channel=0, note=71, velocity=0, time=2)\n",
      "Message('control_change', channel=0, control=64, value=44, time=17)\n",
      "Message('note_on', channel=0, note=55, velocity=0, time=9)\n",
      "Message('note_on', channel=0, note=69, velocity=62, time=5)\n",
      "Message('control_change', channel=0, control=67, value=54, time=24)\n",
      "Message('note_on', channel=0, note=69, velocity=0, time=16)\n",
      "Message('note_on', channel=0, note=71, velocity=58, time=26)\n",
      "Message('control_change', channel=0, control=67, value=58, time=14)\n",
      "Message('note_on', channel=0, note=71, velocity=0, time=33)\n",
      "Message('note_on', channel=0, note=69, velocity=66, time=38)\n",
      "Message('control_change', channel=0, control=67, value=62, time=37)\n",
      "Message('note_on', channel=0, note=69, velocity=0, time=74)\n",
      "Message('note_on', channel=0, note=69, velocity=30, time=0)\n",
      "Message('control_change', channel=0, control=64, value=42, time=60)\n",
      "Message('control_change', channel=0, control=67, value=66, time=1)\n",
      "Message('control_change', channel=0, control=64, value=25, time=37)\n",
      "Message('control_change', channel=0, control=64, value=0, time=18)\n",
      "Message('control_change', channel=0, control=67, value=71, time=58)\n",
      "Message('note_on', channel=0, note=60, velocity=54, time=12)\n",
      "Message('note_on', channel=0, note=54, velocity=0, time=7)\n",
      "Message('control_change', channel=0, control=67, value=76, time=37)\n",
      "Message('control_change', channel=0, control=64, value=29, time=21)\n",
      "Message('control_change', channel=0, control=64, value=52, time=18)\n",
      "Message('control_change', channel=0, control=64, value=63, time=16)\n",
      "Message('control_change', channel=0, control=64, value=69, time=20)\n",
      "Message('control_change', channel=0, control=64, value=72, time=20)\n",
      "Message('control_change', channel=0, control=64, value=74, time=19)\n",
      "Message('note_on', channel=0, note=67, velocity=57, time=65)\n",
      "Message('control_change', channel=0, control=67, value=80, time=28)\n",
      "Message('control_change', channel=0, control=64, value=76, time=39)\n",
      "Message('note_on', channel=0, note=69, velocity=0, time=23)\n",
      "Message('note_on', channel=0, note=67, velocity=0, time=19)\n",
      "Message('control_change', channel=0, control=64, value=74, time=127)\n",
      "Message('control_change', channel=0, control=64, value=67, time=19)\n",
      "Message('note_on', channel=0, note=67, velocity=57, time=11)\n",
      "Message('note_on', channel=0, note=55, velocity=48, time=2)\n",
      "Message('note_on', channel=0, note=50, velocity=0, time=2)\n",
      "Message('control_change', channel=0, control=64, value=56, time=3)\n",
      "Message('control_change', channel=0, control=64, value=37, time=20)\n",
      "Message('control_change', channel=0, control=64, value=25, time=19)\n",
      "Message('note_on', channel=0, note=60, velocity=0, time=455)\n",
      "Message('note_on', channel=0, note=59, velocity=43, time=3)\n",
      "Message('note_on', channel=0, note=59, velocity=0, time=195)\n",
      "Message('note_on', channel=0, note=57, velocity=50, time=12)\n",
      "Message('note_on', channel=0, note=59, velocity=48, time=253)\n",
      "Message('note_on', channel=0, note=57, velocity=0, time=4)\n",
      "Message('note_on', channel=0, note=55, velocity=0, time=33)\n",
      "Message('control_change', channel=0, control=64, value=16, time=435)\n",
      "Message('control_change', channel=0, control=64, value=0, time=37)\n",
      "Message('note_on', channel=0, note=55, velocity=44, time=36)\n",
      "Message('control_change', channel=0, control=64, value=33, time=20)\n",
      "Message('control_change', channel=0, control=64, value=52, time=19)\n",
      "Message('control_change', channel=0, control=64, value=65, time=18)\n",
      "Message('note_on', channel=0, note=59, velocity=0, time=7)\n",
      "Message('control_change', channel=0, control=64, value=72, time=14)\n",
      "Message('control_change', channel=0, control=64, value=77, time=16)\n",
      "Message('control_change', channel=0, control=64, value=80, time=20)\n",
      "Message('control_change', channel=0, control=64, value=83, time=18)\n",
      "Message('control_change', channel=0, control=64, value=86, time=21)\n",
      "Message('control_change', channel=0, control=64, value=91, time=37)\n",
      "Message('control_change', channel=0, control=64, value=87, time=431)\n",
      "Message('control_change', channel=0, control=64, value=82, time=38)\n",
      "Message('control_change', channel=0, control=64, value=79, time=19)\n",
      "Message('control_change', channel=0, control=64, value=74, time=18)\n",
      "Message('control_change', channel=0, control=64, value=67, time=19)\n",
      "Message('control_change', channel=0, control=64, value=61, time=18)\n",
      "Message('note_on', channel=0, note=43, velocity=39, time=8)\n",
      "Message('control_change', channel=0, control=64, value=54, time=11)\n",
      "Message('control_change', channel=0, control=64, value=46, time=19)\n",
      "Message('control_change', channel=0, control=64, value=36, time=19)\n",
      "Message('control_change', channel=0, control=64, value=22, time=17)\n",
      "Message('note_on', channel=0, note=55, velocity=0, time=0)\n",
      "Message('control_change', channel=0, control=64, value=0, time=20)\n",
      "Message('control_change', channel=0, control=64, value=28, time=189)\n",
      "Message('control_change', channel=0, control=64, value=45, time=21)\n",
      "Message('control_change', channel=0, control=64, value=58, time=16)\n",
      "Message('control_change', channel=0, control=64, value=66, time=20)\n",
      "Message('control_change', channel=0, control=64, value=71, time=19)\n",
      "Message('control_change', channel=0, control=64, value=75, time=20)\n",
      "Message('control_change', channel=0, control=64, value=79, time=18)\n",
      "Message('control_change', channel=0, control=64, value=82, time=21)\n",
      "Message('control_change', channel=0, control=64, value=86, time=17)\n",
      "Message('control_change', channel=0, control=64, value=94, time=37)\n",
      "Message('control_change', channel=0, control=64, value=100, time=18)\n",
      "Message('control_change', channel=0, control=64, value=105, time=20)\n",
      "Message('control_change', channel=0, control=64, value=109, time=19)\n",
      "Message('note_on', channel=0, note=67, velocity=0, time=10)\n",
      "Message('note_on', channel=0, note=43, velocity=0, time=44)\n",
      "Message('control_change', channel=0, control=64, value=113, time=22)\n",
      "Message('control_change', channel=0, control=64, value=108, time=392)\n",
      "Message('control_change', channel=0, control=64, value=101, time=36)\n",
      "Message('control_change', channel=0, control=64, value=97, time=21)\n",
      "Message('control_change', channel=0, control=64, value=93, time=18)\n",
      "Message('control_change', channel=0, control=64, value=89, time=38)\n",
      "Message('control_change', channel=0, control=64, value=86, time=39)\n",
      "Message('control_change', channel=0, control=64, value=84, time=19)\n",
      "Message('control_change', channel=0, control=64, value=81, time=19)\n",
      "Message('control_change', channel=0, control=64, value=77, time=19)\n",
      "Message('control_change', channel=0, control=64, value=74, time=18)\n",
      "Message('control_change', channel=0, control=64, value=71, time=18)\n",
      "Message('control_change', channel=0, control=64, value=69, time=20)\n",
      "Message('control_change', channel=0, control=64, value=68, time=37)\n",
      "Message('control_change', channel=0, control=64, value=66, time=18)\n",
      "Message('control_change', channel=0, control=64, value=65, time=20)\n",
      "Message('control_change', channel=0, control=64, value=64, time=19)\n",
      "Message('control_change', channel=0, control=64, value=62, time=19)\n",
      "Message('control_change', channel=0, control=64, value=61, time=39)\n",
      "Message('control_change', channel=0, control=64, value=60, time=17)\n",
      "Message('control_change', channel=0, control=67, value=76, time=18)\n",
      "Message('control_change', channel=0, control=64, value=57, time=76)\n",
      "Message('note_on', channel=0, note=50, velocity=45, time=68)\n",
      "Message('control_change', channel=0, control=64, value=55, time=7)\n",
      "Message('note_on', channel=0, note=78, velocity=62, time=6)\n",
      "Message('control_change', channel=0, control=64, value=52, time=53)\n",
      "Message('note_on', channel=0, note=78, velocity=0, time=13)\n",
      "Message('note_on', channel=0, note=76, velocity=66, time=12)\n",
      "Message('control_change', channel=0, control=64, value=49, time=12)\n",
      "Message('note_on', channel=0, note=76, velocity=0, time=80)\n",
      "Message('note_on', channel=0, note=78, velocity=71, time=21)\n",
      "Message('control_change', channel=0, control=64, value=47, time=27)\n",
      "Message('control_change', channel=0, control=67, value=72, time=77)\n",
      "Message('control_change', channel=0, control=67, value=67, time=55)\n",
      "Message('control_change', channel=0, control=67, value=63, time=56)\n",
      "Message('control_change', channel=0, control=67, value=59, time=114)\n",
      "Message('control_change', channel=0, control=67, value=55, time=95)\n",
      "Message('control_change', channel=0, control=67, value=51, time=208)\n",
      "Message('control_change', channel=0, control=67, value=47, time=112)\n",
      "Message('note_on', channel=0, note=62, velocity=48, time=5)\n",
      "Message('control_change', channel=0, control=64, value=50, time=73)\n",
      "Message('control_change', channel=0, control=67, value=42, time=0)\n",
      "Message('control_change', channel=0, control=64, value=53, time=36)\n",
      "Message('control_change', channel=0, control=64, value=55, time=19)\n",
      "Message('control_change', channel=0, control=67, value=37, time=1)\n",
      "Message('control_change', channel=0, control=64, value=57, time=18)\n",
      "Message('control_change', channel=0, control=64, value=59, time=32)\n",
      "Message('control_change', channel=0, control=64, value=62, time=19)\n",
      "Message('control_change', channel=0, control=64, value=63, time=20)\n",
      "Message('control_change', channel=0, control=64, value=65, time=19)\n",
      "Message('control_change', channel=0, control=67, value=33, time=18)\n",
      "Message('control_change', channel=0, control=64, value=66, time=39)\n",
      "Message('control_change', channel=0, control=64, value=67, time=56)\n",
      "Message('control_change', channel=0, control=67, value=29, time=1)\n",
      "Message('note_on', channel=0, note=50, velocity=0, time=13)\n",
      "Message('control_change', channel=0, control=64, value=68, time=5)\n",
      "Message('note_on', channel=0, note=79, velocity=69, time=80)\n",
      "Message('control_change', channel=0, control=67, value=25, time=33)\n",
      "Message('note_on', channel=0, note=78, velocity=0, time=10)\n",
      "Message('control_change', channel=0, control=64, value=70, time=29)\n",
      "Message('control_change', channel=0, control=67, value=21, time=17)\n",
      "Message('control_change', channel=0, control=67, value=17, time=57)\n",
      "Message('control_change', channel=0, control=67, value=11, time=57)\n",
      "Message('control_change', channel=0, control=64, value=67, time=188)\n",
      "Message('control_change', channel=0, control=64, value=63, time=20)\n",
      "Message('control_change', channel=0, control=64, value=57, time=19)\n",
      "Message('control_change', channel=0, control=64, value=43, time=18)\n",
      "Message('note_on', channel=0, note=81, velocity=65, time=7)\n",
      "Message('note_on', channel=0, note=60, velocity=43, time=10)\n",
      "Message('control_change', channel=0, control=64, value=0, time=1)\n",
      "Message('note_on', channel=0, note=79, velocity=0, time=2)\n",
      "Message('control_change', channel=0, control=64, value=38, time=115)\n",
      "Message('control_change', channel=0, control=64, value=56, time=15)\n",
      "Message('control_change', channel=0, control=64, value=67, time=20)\n",
      "Message('control_change', channel=0, control=64, value=74, time=21)\n",
      "Message('note_on', channel=0, note=81, velocity=0, time=4)\n",
      "Message('control_change', channel=0, control=64, value=80, time=14)\n",
      "Message('control_change', channel=0, control=64, value=86, time=32)\n",
      "Message('control_change', channel=0, control=64, value=91, time=19)\n",
      "Message('control_change', channel=0, control=64, value=98, time=19)\n",
      "Message('control_change', channel=0, control=64, value=103, time=20)\n",
      "Message('control_change', channel=0, control=64, value=108, time=38)\n",
      "Message('note_on', channel=0, note=78, velocity=67, time=379)\n",
      "Message('control_change', channel=0, control=64, value=98, time=151)\n",
      "Message('control_change', channel=0, control=64, value=83, time=16)\n",
      "Message('note_on', channel=0, note=59, velocity=45, time=18)\n",
      "Message('note_on', channel=0, note=60, velocity=0, time=1)\n",
      "Message('control_change', channel=0, control=64, value=61, time=2)\n",
      "Message('note_on', channel=0, note=74, velocity=66, time=11)\n",
      "Message('control_change', channel=0, control=64, value=0, time=6)\n",
      "Message('note_on', channel=0, note=78, velocity=0, time=16)\n",
      "Message('note_on', channel=0, note=62, velocity=0, time=17)\n",
      "Message('control_change', channel=0, control=64, value=25, time=100)\n",
      "Message('control_change', channel=0, control=64, value=40, time=20)\n",
      "Message('control_change', channel=0, control=64, value=50, time=20)\n",
      "Message('control_change', channel=0, control=64, value=56, time=16)\n",
      "Message('control_change', channel=0, control=64, value=59, time=20)\n",
      "Message('control_change', channel=0, control=64, value=60, time=18)\n",
      "Message('control_change', channel=0, control=64, value=61, time=18)\n",
      "Message('control_change', channel=0, control=64, value=62, time=93)\n",
      "Message('note_on', channel=0, note=62, velocity=58, time=82)\n",
      "Message('control_change', channel=0, control=64, value=63, time=219)\n",
      "Message('note_on', channel=0, note=59, velocity=0, time=129)\n",
      "Message('control_change', channel=0, control=64, value=59, time=57)\n",
      "Message('note_on', channel=0, note=60, velocity=50, time=4)\n",
      "Message('note_on', channel=0, note=79, velocity=76, time=4)\n",
      "Message('note_on', channel=0, note=74, velocity=0, time=2)\n",
      "Message('control_change', channel=0, control=64, value=51, time=9)\n",
      "Message('note_on', channel=0, note=62, velocity=0, time=14)\n",
      "Message('control_change', channel=0, control=64, value=29, time=6)\n",
      "Message('control_change', channel=0, control=64, value=0, time=19)\n",
      "Message('control_change', channel=0, control=64, value=15, time=76)\n",
      "Message('control_change', channel=0, control=64, value=23, time=20)\n",
      "Message('control_change', channel=0, control=64, value=28, time=94)\n",
      "Message('control_change', channel=0, control=64, value=33, time=131)\n",
      "Message('note_on', channel=0, note=59, velocity=51, time=75)\n",
      "Message('note_on', channel=0, note=60, velocity=0, time=21)\n",
      "Message('control_change', channel=0, control=64, value=38, time=91)\n",
      "Message('control_change', channel=0, control=64, value=40, time=74)\n",
      "Message('control_change', channel=0, control=64, value=43, time=38)\n",
      "Message('control_change', channel=0, control=64, value=45, time=170)\n",
      "Message('note_on', channel=0, note=57, velocity=57, time=52)\n",
      "Message('control_change', channel=0, control=64, value=47, time=3)\n",
      "Message('note_on', channel=0, note=59, velocity=0, time=61)\n",
      "Message('control_change', channel=0, control=64, value=50, time=72)\n",
      "Message('control_change', channel=0, control=64, value=52, time=95)\n",
      "Message('control_change', channel=0, control=64, value=44, time=112)\n",
      "Message('control_change', channel=0, control=64, value=38, time=20)\n",
      "Message('note_on', channel=0, note=55, velocity=53, time=53)\n",
      "Message('control_change', channel=0, control=64, value=45, time=3)\n",
      "Message('note_on', channel=0, note=81, velocity=69, time=4)\n",
      "Message('control_change', channel=0, control=64, value=52, time=16)\n",
      "Message('note_on', channel=0, note=79, velocity=0, time=4)\n",
      "Message('note_on', channel=0, note=57, velocity=0, time=6)\n",
      "Message('control_change', channel=0, control=64, value=56, time=22)\n",
      "Message('control_change', channel=0, control=64, value=59, time=20)\n",
      "Message('control_change', channel=0, control=64, value=60, time=19)\n",
      "Message('control_change', channel=0, control=64, value=61, time=19)\n",
      "Message('control_change', channel=0, control=64, value=63, time=39)\n",
      "Message('control_change', channel=0, control=64, value=64, time=18)\n",
      "Message('note_on', channel=0, note=83, velocity=73, time=34)\n",
      "Message('note_on', channel=0, note=81, velocity=0, time=49)\n",
      "Message('control_change', channel=0, control=64, value=65, time=11)\n",
      "Message('control_change', channel=0, control=64, value=64, time=95)\n",
      "Message('control_change', channel=0, control=64, value=62, time=16)\n",
      "Message('control_change', channel=0, control=64, value=60, time=20)\n",
      "Message('control_change', channel=0, control=64, value=58, time=19)\n",
      "Message('control_change', channel=0, control=64, value=56, time=37)\n",
      "Message('note_on', channel=0, note=77, velocity=68, time=0)\n",
      "Message('control_change', channel=0, control=64, value=54, time=20)\n",
      "Message('note_on', channel=0, note=60, velocity=55, time=3)\n",
      "Message('note_on', channel=0, note=83, velocity=0, time=6)\n",
      "Message('control_change', channel=0, control=64, value=51, time=11)\n",
      "Message('note_on', channel=0, note=55, velocity=0, time=22)\n",
      "Message('control_change', channel=0, control=64, value=48, time=317)\n",
      "Message('control_change', channel=0, control=64, value=45, time=18)\n",
      "Message('control_change', channel=0, control=64, value=38, time=20)\n",
      "Message('control_change', channel=0, control=64, value=26, time=18)\n",
      "Message('note_on', channel=0, note=76, velocity=59, time=12)\n",
      "Message('control_change', channel=0, control=64, value=0, time=6)\n",
      "Message('note_on', channel=0, note=77, velocity=0, time=3)\n",
      "Message('note_on', channel=0, note=48, velocity=37, time=20)\n",
      "Message('control_change', channel=0, control=64, value=32, time=87)\n",
      "Message('control_change', channel=0, control=64, value=50, time=20)\n",
      "Message('control_change', channel=0, control=64, value=61, time=19)\n",
      "Message('note_on', channel=0, note=48, velocity=0, time=0)\n",
      "Message('control_change', channel=0, control=64, value=67, time=19)\n",
      "Message('control_change', channel=0, control=64, value=70, time=19)\n",
      "Message('control_change', channel=0, control=64, value=72, time=19)\n",
      "Message('control_change', channel=0, control=64, value=74, time=39)\n",
      "Message('control_change', channel=0, control=64, value=72, time=169)\n",
      "Message('control_change', channel=0, control=64, value=69, time=16)\n",
      "Message('note_on', channel=0, note=50, velocity=45, time=11)\n",
      "Message('control_change', channel=0, control=64, value=67, time=8)\n",
      "Message('control_change', channel=0, control=64, value=65, time=58)\n",
      "Message('control_change', channel=0, control=64, value=64, time=20)\n",
      "Message('control_change', channel=0, control=64, value=62, time=19)\n",
      "Message('control_change', channel=0, control=64, value=61, time=35)\n",
      "Message('control_change', channel=0, control=64, value=60, time=59)\n",
      "Message('control_change', channel=0, control=64, value=58, time=18)\n",
      "Message('control_change', channel=0, control=64, value=56, time=39)\n",
      "Message('control_change', channel=0, control=64, value=52, time=39)\n",
      "Message('control_change', channel=0, control=64, value=49, time=16)\n",
      "Message('control_change', channel=0, control=64, value=55, time=76)\n",
      "Message('note_on', channel=0, note=60, velocity=0, time=15)\n",
      "Message('control_change', channel=0, control=64, value=60, time=4)\n",
      "Message('note_on', channel=0, note=59, velocity=47, time=4)\n",
      "Message('note_on', channel=0, note=74, velocity=63, time=13)\n",
      "Message('control_change', channel=0, control=64, value=65, time=1)\n",
      "Message('control_change', channel=0, control=64, value=68, time=21)\n",
      "Message('note_on', channel=0, note=50, velocity=0, time=14)\n",
      "Message('control_change', channel=0, control=64, value=70, time=1)\n",
      "Message('control_change', channel=0, control=64, value=73, time=20)\n",
      "Message('note_on', channel=0, note=76, velocity=0, time=6)\n",
      "Message('control_change', channel=0, control=64, value=76, time=13)\n",
      "Message('control_change', channel=0, control=64, value=79, time=19)\n",
      "Message('control_change', channel=0, control=64, value=83, time=21)\n",
      "Message('control_change', channel=0, control=64, value=86, time=18)\n",
      "Message('control_change', channel=0, control=64, value=94, time=38)\n",
      "Message('control_change', channel=0, control=64, value=98, time=34)\n",
      "Message('control_change', channel=0, control=64, value=102, time=38)\n",
      "Message('note_on', channel=0, note=59, velocity=0, time=175)\n",
      "Message('control_change', channel=0, control=64, value=96, time=15)\n",
      "Message('note_on', channel=0, note=52, velocity=49, time=15)\n",
      "Message('control_change', channel=0, control=64, value=91, time=1)\n",
      "Message('note_on', channel=0, note=57, velocity=46, time=0)\n",
      "Message('note_on', channel=0, note=72, velocity=60, time=16)\n",
      "Message('control_change', channel=0, control=64, value=84, time=3)\n",
      "Message('note_on', channel=0, note=74, velocity=0, time=12)\n",
      "Message('control_change', channel=0, control=64, value=78, time=6)\n",
      "Message('control_change', channel=0, control=64, value=74, time=22)\n",
      "Message('control_change', channel=0, control=64, value=69, time=17)\n",
      "Message('control_change', channel=0, control=64, value=64, time=21)\n",
      "Message('control_change', channel=0, control=64, value=61, time=18)\n",
      "Message('control_change', channel=0, control=64, value=59, time=76)\n",
      "Message('control_change', channel=0, control=64, value=55, time=36)\n",
      "Message('control_change', channel=0, control=64, value=53, time=18)\n",
      "Message('control_change', channel=0, control=64, value=51, time=58)\n",
      "Message('control_change', channel=0, control=64, value=49, time=18)\n",
      "Message('control_change', channel=0, control=64, value=44, time=19)\n",
      "Message('control_change', channel=0, control=64, value=39, time=19)\n",
      "Message('control_change', channel=0, control=64, value=34, time=19)\n",
      "Message('control_change', channel=0, control=64, value=25, time=19)\n",
      "Message('control_change', channel=0, control=64, value=0, time=20)\n",
      "Message('note_on', channel=0, note=57, velocity=0, time=24)\n",
      "Message('note_on', channel=0, note=56, velocity=46, time=5)\n",
      "Message('control_change', channel=0, control=64, value=16, time=46)\n",
      "Message('control_change', channel=0, control=64, value=42, time=19)\n",
      "Message('control_change', channel=0, control=64, value=57, time=19)\n",
      "Message('control_change', channel=0, control=64, value=67, time=17)\n",
      "Message('control_change', channel=0, control=64, value=73, time=19)\n",
      "Message('note_on', channel=0, note=52, velocity=0, time=14)\n",
      "Message('control_change', channel=0, control=64, value=78, time=5)\n",
      "Message('control_change', channel=0, control=64, value=83, time=19)\n",
      "Message('control_change', channel=0, control=64, value=87, time=20)\n",
      "Message('note_on', channel=0, note=71, velocity=61, time=16)\n",
      "Message('control_change', channel=0, control=64, value=93, time=22)\n",
      "Message('note_on', channel=0, note=72, velocity=0, time=29)\n",
      "Message('control_change', channel=0, control=64, value=97, time=24)\n",
      "Message('control_change', channel=0, control=64, value=101, time=57)\n",
      "Message('note_on', channel=0, note=71, velocity=0, time=87)\n",
      "Message('note_on', channel=0, note=74, velocity=69, time=12)\n",
      "Message('control_change', channel=0, control=64, value=93, time=13)\n",
      "Message('note_on', channel=0, note=57, velocity=53, time=4)\n",
      "Message('note_on', channel=0, note=56, velocity=0, time=2)\n",
      "Message('control_change', channel=0, control=64, value=78, time=15)\n",
      "Message('control_change', channel=0, control=64, value=63, time=18)\n",
      "Message('control_change', channel=0, control=64, value=59, time=20)\n",
      "Message('control_change', channel=0, control=64, value=60, time=16)\n",
      "Message('control_change', channel=0, control=64, value=62, time=20)\n",
      "Message('note_on', channel=0, note=74, velocity=0, time=129)\n",
      "Message('note_on', channel=0, note=72, velocity=60, time=25)\n",
      "Message('note_on', channel=0, note=72, velocity=0, time=50)\n",
      "Message('note_on', channel=0, note=74, velocity=52, time=27)\n",
      "Message('note_on', channel=0, note=74, velocity=0, time=46)\n",
      "Message('control_change', channel=0, control=64, value=61, time=5)\n",
      "Message('control_change', channel=0, control=64, value=60, time=19)\n",
      "Message('note_on', channel=0, note=72, velocity=57, time=11)\n",
      "Message('note_on', channel=0, note=52, velocity=44, time=5)\n",
      "Message('control_change', channel=0, control=64, value=58, time=41)\n",
      "Message('note_on', channel=0, note=52, velocity=0, time=67)\n",
      "Message('control_change', channel=0, control=64, value=55, time=9)\n",
      "Message('control_change', channel=0, control=64, value=52, time=18)\n",
      "Message('control_change', channel=0, control=67, value=15, time=113)\n",
      "Message('note_on', channel=0, note=45, velocity=48, time=207)\n",
      "Message('note_on', channel=0, note=45, velocity=0, time=102)\n",
      "Message('note_on', channel=0, note=71, velocity=46, time=325)\n",
      "Message('note_on', channel=0, note=47, velocity=40, time=1)\n",
      "Message('note_on', channel=0, note=72, velocity=0, time=21)\n",
      "Message('note_on', channel=0, note=47, velocity=0, time=66)\n",
      "Message('control_change', channel=0, control=64, value=49, time=276)\n",
      "Message('control_change', channel=0, control=64, value=47, time=57)\n",
      "Message('note_on', channel=0, note=71, velocity=0, time=39)\n",
      "Message('note_on', channel=0, note=69, velocity=47, time=2)\n",
      "Message('control_change', channel=0, control=64, value=44, time=12)\n",
      "Message('note_on', channel=0, note=48, velocity=20, time=4)\n",
      "Message('control_change', channel=0, control=64, value=47, time=147)\n",
      "Message('control_change', channel=0, control=64, value=49, time=38)\n",
      "Message('control_change', channel=0, control=64, value=47, time=149)\n",
      "Message('control_change', channel=0, control=64, value=52, time=97)\n",
      "Message('control_change', channel=0, control=64, value=57, time=19)\n",
      "Message('note_on', channel=0, note=52, velocity=42, time=9)\n",
      "Message('control_change', channel=0, control=64, value=62, time=7)\n",
      "Message('control_change', channel=0, control=64, value=67, time=21)\n",
      "Message('note_on', channel=0, note=48, velocity=0, time=7)\n",
      "Message('control_change', channel=0, control=64, value=72, time=11)\n",
      "Message('control_change', channel=0, control=64, value=77, time=20)\n",
      "Message('note_on', channel=0, note=69, velocity=0, time=7)\n",
      "Message('control_change', channel=0, control=64, value=82, time=8)\n",
      "Message('note_on', channel=0, note=52, velocity=0, time=17)\n",
      "Message('control_change', channel=0, control=64, value=90, time=4)\n",
      "Message('control_change', channel=0, control=64, value=98, time=19)\n",
      "Message('control_change', channel=0, control=64, value=108, time=19)\n",
      "Message('control_change', channel=0, control=64, value=117, time=19)\n",
      "Message('control_change', channel=0, control=64, value=123, time=21)\n",
      "Message('control_change', channel=0, control=64, value=127, time=18)\n",
      "Message('note_on', channel=0, note=57, velocity=0, time=40)\n",
      "Message('control_change', channel=0, control=64, value=119, time=314)\n",
      "Message('control_change', channel=0, control=64, value=110, time=17)\n",
      "Message('note_on', channel=0, note=57, velocity=48, time=6)\n",
      "Message('note_on', channel=0, note=84, velocity=75, time=7)\n",
      "Message('control_change', channel=0, control=64, value=100, time=7)\n",
      "Message('control_change', channel=0, control=64, value=88, time=18)\n",
      "Message('control_change', channel=0, control=64, value=75, time=21)\n",
      "Message('control_change', channel=0, control=64, value=65, time=19)\n",
      "Message('note_on', channel=0, note=84, velocity=0, time=1)\n",
      "Message('note_on', channel=0, note=83, velocity=68, time=4)\n",
      "Message('control_change', channel=0, control=64, value=61, time=14)\n",
      "Message('note_on', channel=0, note=83, velocity=0, time=53)\n",
      "Message('control_change', channel=0, control=64, value=60, time=2)\n",
      "Message('note_on', channel=0, note=84, velocity=74, time=12)\n",
      "Message('control_change', channel=0, control=64, value=58, time=26)\n",
      "Message('note_on', channel=0, note=60, velocity=44, time=277)\n",
      "Message('note_on', channel=0, note=60, velocity=0, time=108)\n",
      "Message('control_change', channel=0, control=64, value=56, time=142)\n",
      "Message('control_change', channel=0, control=64, value=54, time=39)\n",
      "Message('control_change', channel=0, control=64, value=60, time=96)\n",
      "Message('control_change', channel=0, control=64, value=65, time=32)\n",
      "Message('control_change', channel=0, control=64, value=68, time=20)\n",
      "Message('note_on', channel=0, note=66, velocity=47, time=11)\n",
      "Message('control_change', channel=0, control=64, value=71, time=6)\n",
      "Message('control_change', channel=0, control=64, value=73, time=21)\n",
      "Message('control_change', channel=0, control=64, value=76, time=16)\n",
      "Message('note_on', channel=0, note=57, velocity=0, time=0)\n",
      "Message('control_change', channel=0, control=64, value=80, time=21)\n",
      "Message('control_change', channel=0, control=64, value=84, time=18)\n",
      "Message('control_change', channel=0, control=64, value=87, time=20)\n",
      "Message('control_change', channel=0, control=64, value=93, time=39)\n",
      "Message('control_change', channel=0, control=64, value=97, time=38)\n",
      "Message('note_on', channel=0, note=57, velocity=42, time=218)\n",
      "Message('note_on', channel=0, note=84, velocity=0, time=33)\n",
      "Message('note_on', channel=0, note=83, velocity=66, time=9)\n",
      "Message('note_on', channel=0, note=81, velocity=73, time=164)\n",
      "Message('note_on', channel=0, note=83, velocity=0, time=5)\n",
      "Message('control_change', channel=0, control=64, value=91, time=135)\n",
      "Message('control_change', channel=0, control=64, value=80, time=18)\n",
      "Message('control_change', channel=0, control=64, value=59, time=21)\n",
      "Message('note_on', channel=0, note=66, velocity=0, time=17)\n",
      "Message('control_change', channel=0, control=64, value=0, time=2)\n",
      "Message('note_on', channel=0, note=81, velocity=0, time=15)\n",
      "Message('note_on', channel=0, note=83, velocity=64, time=11)\n",
      "Message('note_on', channel=0, note=55, velocity=49, time=12)\n",
      "Message('note_on', channel=0, note=57, velocity=0, time=7)\n",
      "Message('control_change', channel=0, control=64, value=25, time=30)\n",
      "Message('control_change', channel=0, control=64, value=55, time=20)\n",
      "Message('control_change', channel=0, control=64, value=68, time=31)\n",
      "Message('control_change', channel=0, control=64, value=76, time=21)\n",
      "Message('control_change', channel=0, control=64, value=84, time=18)\n",
      "Message('note_on', channel=0, note=83, velocity=0, time=17)\n",
      "Message('control_change', channel=0, control=64, value=93, time=3)\n",
      "Message('control_change', channel=0, control=64, value=103, time=17)\n",
      "Message('control_change', channel=0, control=64, value=112, time=20)\n",
      "Message('control_change', channel=0, control=64, value=117, time=19)\n",
      "Message('note_on', channel=0, note=59, velocity=45, time=253)\n",
      "Message('note_on', channel=0, note=81, velocity=64, time=72)\n",
      "Message('note_on', channel=0, note=55, velocity=0, time=47)\n",
      "Message('note_on', channel=0, note=81, velocity=0, time=30)\n",
      "Message('note_on', channel=0, note=79, velocity=68, time=8)\n",
      "Message('note_on', channel=0, note=79, velocity=0, time=42)\n",
      "Message('note_on', channel=0, note=78, velocity=74, time=34)\n",
      "Message('note_on', channel=0, note=78, velocity=0, time=58)\n",
      "Message('note_on', channel=0, note=76, velocity=67, time=20)\n",
      "Message('note_on', channel=0, note=76, velocity=0, time=37)\n",
      "Message('control_change', channel=0, control=64, value=109, time=1)\n",
      "Message('control_change', channel=0, control=64, value=91, time=21)\n",
      "Message('control_change', channel=0, control=64, value=67, time=20)\n",
      "Message('note_on', channel=0, note=54, velocity=51, time=11)\n",
      "Message('control_change', channel=0, control=64, value=23, time=6)\n",
      "Message('note_on', channel=0, note=76, velocity=70, time=3)\n",
      "Message('control_change', channel=0, control=64, value=0, time=15)\n",
      "Message('note_on', channel=0, note=59, velocity=0, time=17)\n",
      "Message('control_change', channel=0, control=64, value=16, time=59)\n",
      "Message('control_change', channel=0, control=64, value=22, time=130)\n",
      "Message('control_change', channel=0, control=64, value=26, time=74)\n",
      "Message('note_on', channel=0, note=76, velocity=0, time=164)\n",
      "Message('note_on', channel=0, note=75, velocity=60, time=18)\n",
      "Message('note_on', channel=0, note=57, velocity=42, time=8)\n",
      "Message('note_on', channel=0, note=57, velocity=0, time=73)\n",
      "Message('control_change', channel=0, control=64, value=20, time=172)\n",
      "Message('control_change', channel=0, control=64, value=16, time=18)\n",
      "Message('control_change', channel=0, control=64, value=9, time=20)\n",
      "Message('control_change', channel=0, control=64, value=0, time=19)\n",
      "Message('control_change', channel=0, control=64, value=11, time=57)\n",
      "Message('control_change', channel=0, control=64, value=37, time=19)\n",
      "Message('control_change', channel=0, control=64, value=55, time=19)\n",
      "Message('control_change', channel=0, control=64, value=66, time=17)\n",
      "Message('control_change', channel=0, control=64, value=74, time=19)\n",
      "Message('note_on', channel=0, note=60, velocity=50, time=0)\n",
      "Message('control_change', channel=0, control=64, value=80, time=20)\n",
      "Message('control_change', channel=0, control=64, value=85, time=19)\n",
      "Message('control_change', channel=0, control=64, value=90, time=16)\n",
      "Message('note_on', channel=0, note=54, velocity=0, time=13)\n",
      "Message('control_change', channel=0, control=64, value=95, time=5)\n",
      "Message('control_change', channel=0, control=64, value=99, time=21)\n",
      "Message('control_change', channel=0, control=64, value=105, time=38)\n",
      "Message('note_on', channel=0, note=52, velocity=47, time=317)\n",
      "Message('control_change', channel=0, control=64, value=95, time=1)\n",
      "Message('note_on', channel=0, note=75, velocity=0, time=11)\n",
      "Message('control_change', channel=0, control=64, value=80, time=7)\n",
      "Message('note_on', channel=0, note=76, velocity=60, time=9)\n",
      "Message('control_change', channel=0, control=64, value=63, time=11)\n",
      "Message('control_change', channel=0, control=64, value=53, time=20)\n",
      "Message('control_change', channel=0, control=64, value=60, time=35)\n",
      "Message('control_change', channel=0, control=64, value=67, time=20)\n",
      "Message('control_change', channel=0, control=64, value=73, time=19)\n",
      "Message('control_change', channel=0, control=64, value=78, time=19)\n",
      "Message('control_change', channel=0, control=64, value=84, time=20)\n",
      "Message('control_change', channel=0, control=67, value=21, time=2)\n",
      "Message('control_change', channel=0, control=64, value=90, time=16)\n",
      "Message('note_on', channel=0, note=76, velocity=0, time=3)\n",
      "Message('control_change', channel=0, control=64, value=95, time=16)\n",
      "Message('note_on', channel=0, note=78, velocity=60, time=14)\n",
      "Message('note_on', channel=0, note=52, velocity=0, time=1)\n",
      "Message('control_change', channel=0, control=67, value=25, time=80)\n",
      "Message('control_change', channel=0, control=67, value=29, time=36)\n",
      "Message('control_change', channel=0, control=67, value=33, time=39)\n",
      "Message('control_change', channel=0, control=64, value=88, time=75)\n",
      "Message('control_change', channel=0, control=64, value=80, time=21)\n",
      "Message('control_change', channel=0, control=64, value=71, time=15)\n",
      "Message('control_change', channel=0, control=64, value=63, time=20)\n",
      "Message('control_change', channel=0, control=67, value=37, time=1)\n",
      "Message('note_on', channel=0, note=54, velocity=36, time=13)\n",
      "Message('control_change', channel=0, control=64, value=58, time=5)\n",
      "Message('note_on', channel=0, note=51, velocity=44, time=2)\n",
      "Message('note_on', channel=0, note=78, velocity=0, time=27)\n",
      "Message('note_on', channel=0, note=72, velocity=50, time=7)\n",
      "Message('control_change', channel=0, control=64, value=55, time=20)\n",
      "Message('control_change', channel=0, control=67, value=41, time=0)\n",
      "Message('note_on', channel=0, note=60, velocity=0, time=14)\n",
      "Message('control_change', channel=0, control=64, value=51, time=6)\n",
      "Message('control_change', channel=0, control=64, value=46, time=20)\n",
      "Message('control_change', channel=0, control=64, value=43, time=17)\n",
      "Message('control_change', channel=0, control=67, value=46, time=1)\n",
      "Message('control_change', channel=0, control=67, value=52, time=38)\n",
      "Message('control_change', channel=0, control=64, value=41, time=20)\n",
      "Message('control_change', channel=0, control=67, value=56, time=31)\n",
      "Message('control_change', channel=0, control=64, value=37, time=39)\n",
      "Message('control_change', channel=0, control=64, value=29, time=20)\n",
      "Message('control_change', channel=0, control=67, value=60, time=1)\n",
      "Message('control_change', channel=0, control=64, value=16, time=15)\n",
      "Message('control_change', channel=0, control=64, value=0, time=20)\n",
      "Message('note_on', channel=0, note=71, velocity=39, time=81)\n",
      "Message('note_on', channel=0, note=72, velocity=0, time=37)\n",
      "Message('control_change', channel=0, control=64, value=18, time=53)\n",
      "Message('control_change', channel=0, control=64, value=39, time=18)\n",
      "Message('control_change', channel=0, control=64, value=54, time=20)\n",
      "Message('control_change', channel=0, control=64, value=63, time=17)\n",
      "Message('control_change', channel=0, control=64, value=70, time=19)\n",
      "Message('control_change', channel=0, control=64, value=75, time=19)\n",
      "Message('control_change', channel=0, control=64, value=79, time=19)\n",
      "Message('control_change', channel=0, control=64, value=83, time=20)\n",
      "Message('control_change', channel=0, control=64, value=87, time=20)\n",
      "Message('control_change', channel=0, control=64, value=93, time=39)\n",
      "Message('note_on', channel=0, note=54, velocity=0, time=15)\n",
      "Message('note_on', channel=0, note=51, velocity=0, time=65)\n",
      "Message('control_change', channel=0, control=67, value=56, time=105)\n",
      "Message('note_on', channel=0, note=81, velocity=69, time=75)\n",
      "Message('control_change', channel=0, control=64, value=86, time=20)\n",
      "Message('control_change', channel=0, control=67, value=51, time=1)\n",
      "Message('control_change', channel=0, control=64, value=81, time=18)\n",
      "Message('control_change', channel=0, control=64, value=75, time=21)\n",
      "Message('note_on', channel=0, note=71, velocity=0, time=1)\n",
      "Message('control_change', channel=0, control=64, value=71, time=15)\n",
      "Message('control_change', channel=0, control=67, value=46, time=0)\n",
      "Message('control_change', channel=0, control=64, value=66, time=19)\n",
      "Message('control_change', channel=0, control=64, value=60, time=21)\n",
      "Message('control_change', channel=0, control=67, value=42, time=1)\n",
      "Message('control_change', channel=0, control=64, value=51, time=17)\n",
      "Message('control_change', channel=0, control=64, value=34, time=17)\n",
      "Message('control_change', channel=0, control=64, value=0, time=18)\n",
      "Message('note_on', channel=0, note=52, velocity=50, time=83)\n",
      "Message('note_on', channel=0, note=79, velocity=59, time=6)\n",
      "Message('control_change', channel=0, control=67, value=38, time=3)\n",
      "Message('note_on', channel=0, note=81, velocity=0, time=13)\n",
      "Message('control_change', channel=0, control=64, value=37, time=63)\n",
      "Message('note_on', channel=0, note=79, velocity=0, time=11)\n",
      "Message('control_change', channel=0, control=64, value=58, time=7)\n",
      "Message('control_change', channel=0, control=64, value=69, time=21)\n",
      "Message('control_change', channel=0, control=64, value=74, time=17)\n",
      "Message('control_change', channel=0, control=64, value=78, time=21)\n",
      "Message('control_change', channel=0, control=64, value=81, time=18)\n",
      "Message('control_change', channel=0, control=64, value=85, time=20)\n",
      "Message('control_change', channel=0, control=64, value=89, time=19)\n",
      "Message('control_change', channel=0, control=64, value=96, time=36)\n",
      "Message('control_change', channel=0, control=64, value=101, time=38)\n",
      "Message('control_change', channel=0, control=64, value=105, time=37)\n",
      "Message('note_on', channel=0, note=54, velocity=54, time=127)\n",
      "Message('note_on', channel=0, note=45, velocity=51, time=17)\n",
      "Message('control_change', channel=0, control=64, value=96, time=27)\n",
      "Message('control_change', channel=0, control=64, value=83, time=19)\n",
      "Message('control_change', channel=0, control=64, value=74, time=19)\n",
      "Message('note_on', channel=0, note=45, velocity=0, time=49)\n",
      "Message('note_on', channel=0, note=52, velocity=0, time=2)\n",
      "Message('control_change', channel=0, control=64, value=78, time=3)\n",
      "Message('control_change', channel=0, control=64, value=80, time=21)\n",
      "Message('control_change', channel=0, control=64, value=83, time=19)\n",
      "Message('note_on', channel=0, note=78, velocity=69, time=13)\n",
      "Message('control_change', channel=0, control=64, value=85, time=25)\n",
      "Message('control_change', channel=0, control=64, value=87, time=56)\n",
      "Message('control_change', channel=0, control=64, value=91, time=95)\n",
      "Message('control_change', channel=0, control=64, value=82, time=57)\n",
      "Message('control_change', channel=0, control=64, value=69, time=19)\n",
      "Message('note_on', channel=0, note=47, velocity=42, time=4)\n",
      "Message('note_on', channel=0, note=76, velocity=69, time=3)\n",
      "Message('control_change', channel=0, control=64, value=52, time=14)\n",
      "Message('note_on', channel=0, note=78, velocity=0, time=5)\n",
      "Message('control_change', channel=0, control=64, value=46, time=25)\n",
      "Message('control_change', channel=0, control=64, value=49, time=38)\n",
      "Message('note_on', channel=0, note=54, velocity=0, time=8)\n",
      "Message('control_change', channel=0, control=64, value=52, time=13)\n",
      "Message('control_change', channel=0, control=64, value=54, time=16)\n",
      "Message('note_on', channel=0, note=76, velocity=0, time=125)\n",
      "Message('note_on', channel=0, note=75, velocity=67, time=7)\n",
      "Message('note_on', channel=0, note=75, velocity=0, time=74)\n",
      "Message('note_on', channel=0, note=76, velocity=63, time=14)\n",
      "Message('control_change', channel=0, control=64, value=52, time=64)\n",
      "Message('note_on', channel=0, note=76, velocity=0, time=21)\n",
      "Message('note_on', channel=0, note=75, velocity=67, time=5)\n",
      "Message('control_change', channel=0, control=64, value=48, time=15)\n",
      "Message('note_on', channel=0, note=55, velocity=50, time=1)\n",
      "Message('note_on', channel=0, note=55, velocity=0, time=81)\n",
      "Message('control_change', channel=0, control=64, value=45, time=8)\n",
      "Message('control_change', channel=0, control=64, value=43, time=20)\n",
      "Message('control_change', channel=0, control=64, value=37, time=37)\n",
      "Message('control_change', channel=0, control=64, value=32, time=171)\n",
      "Message('control_change', channel=0, control=64, value=28, time=38)\n",
      "Message('control_change', channel=0, control=64, value=23, time=56)\n",
      "Message('control_change', channel=0, control=64, value=13, time=39)\n",
      "Message('note_on', channel=0, note=57, velocity=44, time=10)\n",
      "Message('control_change', channel=0, control=64, value=0, time=7)\n",
      "Message('control_change', channel=0, control=64, value=29, time=412)\n",
      "Message('control_change', channel=0, control=64, value=50, time=19)\n",
      "Message('control_change', channel=0, control=64, value=62, time=19)\n",
      "Message('note_on', channel=0, note=76, velocity=65, time=0)\n",
      "Message('note_on', channel=0, note=75, velocity=0, time=13)\n",
      "Message('control_change', channel=0, control=64, value=70, time=5)\n",
      "Message('control_change', channel=0, control=64, value=75, time=20)\n",
      "Message('control_change', channel=0, control=64, value=79, time=20)\n",
      "Message('control_change', channel=0, control=64, value=83, time=19)\n",
      "Message('control_change', channel=0, control=64, value=89, time=20)\n",
      "Message('control_change', channel=0, control=64, value=97, time=16)\n",
      "Message('note_on', channel=0, note=47, velocity=0, time=8)\n",
      "Message('note_on', channel=0, note=76, velocity=0, time=1)\n",
      "Message('control_change', channel=0, control=64, value=106, time=10)\n",
      "Message('control_change', channel=0, control=64, value=113, time=20)\n",
      "Message('control_change', channel=0, control=64, value=119, time=18)\n",
      "Message('control_change', channel=0, control=64, value=113, time=339)\n",
      "Message('control_change', channel=0, control=64, value=104, time=17)\n",
      "Message('note_on', channel=0, note=76, velocity=65, time=0)\n",
      "Message('note_on', channel=0, note=52, velocity=48, time=3)\n",
      "Message('control_change', channel=0, control=64, value=92, time=17)\n",
      "Message('control_change', channel=0, control=64, value=79, time=21)\n",
      "Message('control_change', channel=0, control=64, value=65, time=33)\n",
      "Message('control_change', channel=0, control=64, value=55, time=19)\n",
      "Message('control_change', channel=0, control=64, value=52, time=20)\n",
      "Message('note_on', channel=0, note=57, velocity=0, time=372)\n",
      "Message('note_on', channel=0, note=55, velocity=45, time=26)\n",
      "Message('note_on', channel=0, note=55, velocity=0, time=189)\n",
      "Message('note_on', channel=0, note=54, velocity=50, time=3)\n",
      "Message('note_on', channel=0, note=52, velocity=0, time=64)\n",
      "Message('note_on', channel=0, note=54, velocity=0, time=176)\n",
      "Message('note_on', channel=0, note=55, velocity=43, time=7)\n",
      "Message('control_change', channel=0, control=64, value=50, time=514)\n",
      "Message('control_change', channel=0, control=64, value=47, time=19)\n",
      "Message('note_on', channel=0, note=52, velocity=45, time=14)\n",
      "Message('control_change', channel=0, control=64, value=38, time=4)\n",
      "Message('control_change', channel=0, control=64, value=22, time=21)\n",
      "Message('control_change', channel=0, control=67, value=42, time=3)\n",
      "Message('control_change', channel=0, control=64, value=0, time=15)\n",
      "Message('control_change', channel=0, control=64, value=23, time=76)\n",
      "Message('control_change', channel=0, control=64, value=43, time=17)\n",
      "Message('control_change', channel=0, control=64, value=56, time=20)\n",
      "Message('control_change', channel=0, control=64, value=65, time=17)\n",
      "Message('note_on', channel=0, note=52, velocity=0, time=8)\n",
      "Message('control_change', channel=0, control=64, value=70, time=12)\n",
      "Message('control_change', channel=0, control=64, value=74, time=19)\n",
      "Message('control_change', channel=0, control=64, value=77, time=19)\n",
      "Message('control_change', channel=0, control=67, value=46, time=1)\n",
      "Message('control_change', channel=0, control=64, value=79, time=19)\n",
      "Message('control_change', channel=0, control=64, value=82, time=20)\n",
      "Message('control_change', channel=0, control=64, value=85, time=37)\n",
      "Message('control_change', channel=0, control=67, value=50, time=56)\n",
      "Message('control_change', channel=0, control=64, value=83, time=96)\n",
      "Message('control_change', channel=0, control=64, value=80, time=90)\n",
      "Message('control_change', channel=0, control=64, value=78, time=20)\n",
      "Message('control_change', channel=0, control=64, value=76, time=16)\n",
      "Message('control_change', channel=0, control=64, value=73, time=19)\n",
      "Message('control_change', channel=0, control=64, value=70, time=38)\n",
      "Message('control_change', channel=0, control=64, value=67, time=37)\n",
      "Message('control_change', channel=0, control=64, value=66, time=20)\n",
      "Message('control_change', channel=0, control=64, value=65, time=19)\n",
      "Message('control_change', channel=0, control=64, value=63, time=17)\n",
      "Message('note_on', channel=0, note=40, velocity=36, time=0)\n",
      "Message('control_change', channel=0, control=64, value=61, time=20)\n",
      "Message('control_change', channel=0, control=64, value=57, time=22)\n",
      "Message('control_change', channel=0, control=64, value=50, time=18)\n",
      "Message('control_change', channel=0, control=64, value=34, time=16)\n",
      "Message('control_change', channel=0, control=64, value=0, time=20)\n",
      "Message('note_on', channel=0, note=55, velocity=0, time=2)\n",
      "Message('control_change', channel=0, control=64, value=31, time=206)\n",
      "Message('control_change', channel=0, control=64, value=50, time=18)\n",
      "Message('control_change', channel=0, control=64, value=61, time=19)\n",
      "Message('control_change', channel=0, control=64, value=68, time=18)\n",
      "Message('control_change', channel=0, control=64, value=72, time=20)\n",
      "Message('control_change', channel=0, control=64, value=77, time=17)\n",
      "Message('control_change', channel=0, control=64, value=83, time=20)\n",
      "Message('control_change', channel=0, control=64, value=91, time=19)\n",
      "Message('control_change', channel=0, control=64, value=99, time=19)\n",
      "Message('control_change', channel=0, control=64, value=107, time=19)\n",
      "Message('control_change', channel=0, control=64, value=112, time=20)\n",
      "Message('note_on', channel=0, note=76, velocity=0, time=47)\n",
      "Message('control_change', channel=0, control=67, value=54, time=28)\n",
      "Message('control_change', channel=0, control=64, value=116, time=19)\n",
      "Message('note_on', channel=0, note=40, velocity=0, time=33)\n",
      "Message('control_change', channel=0, control=64, value=112, time=305)\n",
      "Message('control_change', channel=0, control=64, value=107, time=94)\n",
      "Message('control_change', channel=0, control=64, value=102, time=36)\n",
      "Message('control_change', channel=0, control=64, value=97, time=38)\n",
      "Message('control_change', channel=0, control=64, value=92, time=114)\n",
      "Message('control_change', channel=0, control=64, value=87, time=38)\n",
      "Message('control_change', channel=0, control=64, value=85, time=19)\n",
      "Message('control_change', channel=0, control=64, value=82, time=18)\n",
      "Message('control_change', channel=0, control=64, value=79, time=18)\n",
      "Message('note_on', channel=0, note=52, velocity=42, time=11)\n",
      "Message('control_change', channel=0, control=64, value=74, time=8)\n",
      "Message('note_on', channel=0, note=55, velocity=44, time=18)\n",
      "Message('control_change', channel=0, control=64, value=70, time=1)\n",
      "Message('control_change', channel=0, control=64, value=66, time=17)\n",
      "Message('control_change', channel=0, control=64, value=63, time=19)\n",
      "Message('note_on', channel=0, note=71, velocity=61, time=14)\n",
      "Message('control_change', channel=0, control=64, value=62, time=5)\n",
      "Message('control_change', channel=0, control=64, value=61, time=39)\n",
      "Message('note_on', channel=0, note=71, velocity=0, time=24)\n",
      "Message('control_change', channel=0, control=64, value=57, time=14)\n",
      "Message('note_on', channel=0, note=69, velocity=66, time=9)\n",
      "Message('control_change', channel=0, control=64, value=55, time=10)\n",
      "Message('control_change', channel=0, control=64, value=52, time=18)\n",
      "Message('control_change', channel=0, control=64, value=50, time=20)\n",
      "Message('note_on', channel=0, note=69, velocity=0, time=18)\n",
      "Message('note_on', channel=0, note=71, velocity=62, time=31)\n",
      "Message('control_change', channel=0, control=64, value=48, time=26)\n",
      "Message('control_change', channel=0, control=64, value=46, time=37)\n",
      "Message('note_on', channel=0, note=50, velocity=43, time=660)\n",
      "Message('note_on', channel=0, note=52, velocity=0, time=53)\n",
      "Message('control_change', channel=0, control=64, value=44, time=319)\n",
      "Message('control_change', channel=0, control=64, value=41, time=38)\n",
      "Message('note_on', channel=0, note=72, velocity=65, time=43)\n",
      "Message('note_on', channel=0, note=71, velocity=0, time=42)\n",
      "Message('control_change', channel=0, control=64, value=48, time=8)\n",
      "Message('control_change', channel=0, control=64, value=55, time=19)\n",
      "Message('control_change', channel=0, control=64, value=61, time=18)\n",
      "Message('control_change', channel=0, control=64, value=66, time=20)\n",
      "Message('control_change', channel=0, control=64, value=69, time=19)\n",
      "Message('control_change', channel=0, control=64, value=71, time=19)\n",
      "Message('control_change', channel=0, control=64, value=74, time=19)\n",
      "Message('control_change', channel=0, control=64, value=77, time=37)\n",
      "Message('control_change', channel=0, control=64, value=79, time=38)\n",
      "Message('control_change', channel=0, control=64, value=81, time=36)\n",
      "Message('control_change', channel=0, control=64, value=77, time=136)\n",
      "Message('control_change', channel=0, control=64, value=69, time=18)\n",
      "Message('note_on', channel=0, note=48, velocity=49, time=15)\n",
      "Message('control_change', channel=0, control=64, value=56, time=1)\n",
      "Message('note_on', channel=0, note=71, velocity=68, time=15)\n",
      "Message('control_change', channel=0, control=64, value=36, time=5)\n",
      "Message('note_on', channel=0, note=50, velocity=0, time=41)\n",
      "Message('control_change', channel=0, control=64, value=45, time=14)\n",
      "Message('control_change', channel=0, control=64, value=54, time=21)\n",
      "Message('control_change', channel=0, control=64, value=59, time=18)\n",
      "Message('note_on', channel=0, note=72, velocity=0, time=13)\n",
      "Message('control_change', channel=0, control=64, value=60, time=6)\n",
      "Message('control_change', channel=0, control=64, value=61, time=40)\n",
      "Message('note_on', channel=0, note=71, velocity=0, time=12)\n",
      "Message('note_on', channel=0, note=69, velocity=64, time=29)\n",
      "Message('note_on', channel=0, note=69, velocity=0, time=41)\n",
      "Message('control_change', channel=0, control=64, value=55, time=12)\n",
      "Message('note_on', channel=0, note=71, velocity=55, time=10)\n",
      "Message('control_change', channel=0, control=64, value=31, time=6)\n",
      "Message('control_change', channel=0, control=64, value=0, time=21)\n",
      "Message('note_on', channel=0, note=71, velocity=0, time=18)\n",
      "Message('note_on', channel=0, note=69, velocity=60, time=14)\n",
      "Message('control_change', channel=0, control=64, value=31, time=117)\n",
      "Message('control_change', channel=0, control=64, value=53, time=18)\n",
      "Message('control_change', channel=0, control=64, value=65, time=19)\n",
      "Message('control_change', channel=0, control=64, value=71, time=18)\n",
      "Message('control_change', channel=0, control=64, value=76, time=20)\n",
      "Message('control_change', channel=0, control=64, value=80, time=18)\n",
      "Message('control_change', channel=0, control=64, value=84, time=19)\n",
      "Message('control_change', channel=0, control=64, value=90, time=18)\n",
      "Message('control_change', channel=0, control=64, value=97, time=18)\n",
      "Message('control_change', channel=0, control=64, value=103, time=19)\n",
      "Message('control_change', channel=0, control=64, value=107, time=20)\n",
      "Message('note_on', channel=0, note=69, velocity=0, time=47)\n",
      "Message('control_change', channel=0, control=64, value=111, time=11)\n",
      "Message('note_on', channel=0, note=67, velocity=60, time=35)\n",
      "Message('note_on', channel=0, note=67, velocity=0, time=51)\n",
      "Message('control_change', channel=0, control=64, value=116, time=25)\n",
      "Message('control_change', channel=0, control=64, value=121, time=39)\n",
      "Message('control_change', channel=0, control=64, value=125, time=19)\n",
      "Message('control_change', channel=0, control=64, value=105, time=76)\n",
      "Message('note_on', channel=0, note=48, velocity=0, time=7)\n",
      "Message('control_change', channel=0, control=64, value=83, time=9)\n",
      "Message('note_on', channel=0, note=47, velocity=46, time=2)\n",
      "Message('note_on', channel=0, note=67, velocity=57, time=1)\n",
      "Message('control_change', channel=0, control=64, value=63, time=18)\n",
      "Message('control_change', channel=0, control=64, value=54, time=19)\n",
      "Message('note_on', channel=0, note=67, velocity=0, time=18)\n",
      "Message('control_change', channel=0, control=64, value=56, time=38)\n",
      "Message('note_on', channel=0, note=69, velocity=67, time=5)\n",
      "Message('note_on', channel=0, note=69, velocity=0, time=60)\n",
      "Message('note_on', channel=0, note=71, velocity=66, time=43)\n",
      "Message('note_on', channel=0, note=71, velocity=0, time=38)\n",
      "Message('note_on', channel=0, note=72, velocity=66, time=56)\n",
      "Message('note_on', channel=0, note=72, velocity=0, time=36)\n",
      "Message('note_on', channel=0, note=74, velocity=61, time=80)\n",
      "Message('control_change', channel=0, control=64, value=53, time=57)\n",
      "Message('note_on', channel=0, note=74, velocity=0, time=19)\n",
      "Message('note_on', channel=0, note=76, velocity=65, time=8)\n",
      "Message('control_change', channel=0, control=64, value=51, time=9)\n",
      "Message('control_change', channel=0, control=64, value=48, time=19)\n",
      "Message('control_change', channel=0, control=64, value=36, time=20)\n",
      "Message('control_change', channel=0, control=64, value=0, time=16)\n",
      "Message('note_on', channel=0, note=76, velocity=0, time=26)\n",
      "Message('note_on', channel=0, note=77, velocity=67, time=9)\n",
      "Message('control_change', channel=0, control=64, value=33, time=81)\n",
      "Message('control_change', channel=0, control=64, value=55, time=20)\n",
      "Message('control_change', channel=0, control=64, value=67, time=17)\n",
      "Message('control_change', channel=0, control=64, value=76, time=19)\n",
      "Message('control_change', channel=0, control=64, value=83, time=20)\n",
      "Message('control_change', channel=0, control=64, value=89, time=19)\n",
      "Message('note_on', channel=0, note=77, velocity=0, time=3)\n",
      "Message('control_change', channel=0, control=64, value=94, time=15)\n",
      "Message('note_on', channel=0, note=47, velocity=0, time=55)\n",
      "Message('note_on', channel=0, note=48, velocity=45, time=25)\n",
      "Message('control_change', channel=0, control=64, value=88, time=13)\n",
      "Message('note_on', channel=0, note=77, velocity=61, time=6)\n",
      "Message('control_change', channel=0, control=64, value=80, time=15)\n",
      "Message('control_change', channel=0, control=64, value=73, time=19)\n",
      "Message('control_change', channel=0, control=64, value=69, time=19)\n",
      "Message('control_change', channel=0, control=64, value=68, time=337)\n",
      "Message('note_on', channel=0, note=76, velocity=56, time=35)\n",
      "Message('control_change', channel=0, control=64, value=66, time=3)\n",
      "Message('note_on', channel=0, note=52, velocity=46, time=4)\n",
      "Message('control_change', channel=0, control=64, value=63, time=16)\n",
      "Message('note_on', channel=0, note=77, velocity=0, time=6)\n",
      "Message('control_change', channel=0, control=64, value=61, time=28)\n",
      "Message('control_change', channel=0, control=64, value=58, time=20)\n",
      "Message('control_change', channel=0, control=64, value=56, time=18)\n",
      "Message('note_on', channel=0, note=55, velocity=0, time=2)\n",
      "Message('control_change', channel=0, control=64, value=54, time=55)\n",
      "Message('note_on', channel=0, note=52, velocity=0, time=92)\n",
      "Message('note_on', channel=0, note=53, velocity=58, time=210)\n",
      "Message('control_change', channel=0, control=67, value=50, time=133)\n",
      "Message('note_on', channel=0, note=53, velocity=0, time=46)\n",
      "Message('control_change', channel=0, control=64, value=52, time=181)\n",
      "Message('control_change', channel=0, control=64, value=42, time=19)\n",
      "Message('control_change', channel=0, control=64, value=11, time=16)\n",
      "Message('control_change', channel=0, control=64, value=0, time=20)\n",
      "Message('note_on', channel=0, note=55, velocity=56, time=29)\n",
      "Message('control_change', channel=0, control=64, value=32, time=7)\n",
      "Message('control_change', channel=0, control=64, value=55, time=18)\n",
      "Message('control_change', channel=0, control=64, value=69, time=21)\n",
      "Message('control_change', channel=0, control=64, value=79, time=18)\n",
      "Message('control_change', channel=0, control=64, value=89, time=20)\n",
      "Message('control_change', channel=0, control=64, value=99, time=34)\n",
      "Message('control_change', channel=0, control=64, value=107, time=20)\n",
      "Message('control_change', channel=0, control=64, value=113, time=19)\n",
      "Message('note_on', channel=0, note=48, velocity=0, time=11)\n",
      "Message('control_change', channel=0, control=64, value=117, time=8)\n",
      "Message('note_on', channel=0, note=55, velocity=0, time=11)\n",
      "Message('control_change', channel=0, control=64, value=123, time=26)\n",
      "Message('control_change', channel=0, control=64, value=112, time=207)\n",
      "Message('control_change', channel=0, control=64, value=99, time=20)\n",
      "Message('note_on', channel=0, note=53, velocity=57, time=16)\n",
      "Message('note_on', channel=0, note=57, velocity=62, time=0)\n",
      "Message('note_on', channel=0, note=74, velocity=71, time=1)\n",
      "Message('control_change', channel=0, control=64, value=87, time=1)\n",
      "Message('control_change', channel=0, control=64, value=77, time=19)\n",
      "Message('note_on', channel=0, note=76, velocity=0, time=6)\n",
      "Message('control_change', channel=0, control=64, value=69, time=13)\n",
      "Message('control_change', channel=0, control=64, value=64, time=18)\n",
      "Message('control_change', channel=0, control=64, value=63, time=18)\n",
      "Message('control_change', channel=0, control=64, value=62, time=77)\n",
      "Message('control_change', channel=0, control=64, value=60, time=19)\n",
      "Message('control_change', channel=0, control=64, value=58, time=20)\n",
      "Message('control_change', channel=0, control=64, value=60, time=92)\n",
      "Message('control_change', channel=0, control=64, value=61, time=18)\n",
      "Message('control_change', channel=0, control=64, value=63, time=20)\n",
      "Message('control_change', channel=0, control=64, value=65, time=20)\n",
      "Message('control_change', channel=0, control=64, value=66, time=18)\n",
      "Message('control_change', channel=0, control=64, value=67, time=20)\n",
      "Message('control_change', channel=0, control=67, value=46, time=57)\n",
      "Message('note_on', channel=0, note=59, velocity=62, time=10)\n",
      "Message('note_on', channel=0, note=57, velocity=0, time=65)\n",
      "Message('note_on', channel=0, note=74, velocity=0, time=161)\n",
      "Message('note_on', channel=0, note=72, velocity=66, time=20)\n",
      "Message('note_on', channel=0, note=59, velocity=0, time=56)\n",
      "Message('control_change', channel=0, control=64, value=62, time=5)\n",
      "Message('note_on', channel=0, note=72, velocity=0, time=8)\n",
      "Message('control_change', channel=0, control=64, value=56, time=9)\n",
      "Message('note_on', channel=0, note=71, velocity=73, time=12)\n",
      "Message('control_change', channel=0, control=64, value=50, time=6)\n",
      "Message('control_change', channel=0, control=64, value=48, time=21)\n",
      "Message('control_change', channel=0, control=67, value=42, time=1)\n",
      "Message('control_change', channel=0, control=64, value=46, time=37)\n",
      "Message('note_on', channel=0, note=71, velocity=0, time=20)\n",
      "Message('control_change', channel=0, control=64, value=44, time=18)\n",
      "Message('control_change', channel=0, control=64, value=42, time=19)\n",
      "Message('note_on', channel=0, note=81, velocity=78, time=4)\n",
      "Message('control_change', channel=0, control=64, value=37, time=15)\n",
      "Message('note_on', channel=0, note=60, velocity=54, time=16)\n",
      "Message('control_change', channel=0, control=64, value=32, time=20)\n",
      "Message('control_change', channel=0, control=64, value=28, time=21)\n",
      "Message('control_change', channel=0, control=64, value=20, time=56)\n",
      "Message('control_change', channel=0, control=64, value=16, time=37)\n",
      "Message('control_change', channel=0, control=67, value=38, time=321)\n",
      "Message('note_on', channel=0, note=53, velocity=0, time=11)\n",
      "Message('control_change', channel=0, control=64, value=20, time=6)\n",
      "Message('note_on', channel=0, note=55, velocity=45, time=7)\n",
      "Message('note_on', channel=0, note=79, velocity=67, time=230)\n",
      "Message('note_on', channel=0, note=81, velocity=0, time=40)\n",
      "Message('note_on', channel=0, note=55, velocity=0, time=45)\n",
      "Message('note_on', channel=0, note=77, velocity=73, time=111)\n",
      "Message('note_on', channel=0, note=57, velocity=42, time=19)\n",
      "Message('note_on', channel=0, note=79, velocity=0, time=23)\n",
      "Message('note_on', channel=0, note=57, velocity=0, time=131)\n",
      "Message('note_on', channel=0, note=76, velocity=74, time=20)\n",
      "Message('note_on', channel=0, note=77, velocity=0, time=34)\n",
      "Message('control_change', channel=0, control=64, value=0, time=148)\n",
      "Message('note_on', channel=0, note=76, velocity=0, time=11)\n",
      "Message('note_on', channel=0, note=53, velocity=51, time=6)\n",
      "Message('note_on', channel=0, note=74, velocity=70, time=3)\n",
      "Message('control_change', channel=0, control=64, value=23, time=38)\n",
      "Message('control_change', channel=0, control=64, value=34, time=18)\n",
      "Message('control_change', channel=0, control=64, value=41, time=20)\n",
      "Message('control_change', channel=0, control=64, value=44, time=19)\n",
      "Message('control_change', channel=0, control=64, value=47, time=20)\n",
      "Message('note_on', channel=0, note=53, velocity=0, time=32)\n",
      "Message('note_on', channel=0, note=74, velocity=0, time=35)\n",
      "Message('note_on', channel=0, note=72, velocity=63, time=19)\n",
      "Message('control_change', channel=0, control=64, value=43, time=229)\n",
      "Message('control_change', channel=0, control=64, value=36, time=18)\n",
      "Message('note_on', channel=0, note=76, velocity=56, time=6)\n",
      "Message('note_on', channel=0, note=72, velocity=0, time=5)\n",
      "Message('control_change', channel=0, control=64, value=25, time=8)\n",
      "Message('note_on', channel=0, note=55, velocity=48, time=7)\n",
      "Message('control_change', channel=0, control=64, value=0, time=13)\n",
      "Message('control_change', channel=0, control=64, value=11, time=190)\n",
      "Message('control_change', channel=0, control=64, value=41, time=16)\n",
      "Message('control_change', channel=0, control=64, value=58, time=21)\n",
      "Message('control_change', channel=0, control=64, value=68, time=17)\n",
      "Message('control_change', channel=0, control=67, value=42, time=2)\n",
      "Message('control_change', channel=0, control=64, value=74, time=19)\n",
      "Message('control_change', channel=0, control=64, value=78, time=18)\n",
      "Message('control_change', channel=0, control=64, value=82, time=20)\n",
      "Message('control_change', channel=0, control=67, value=48, time=1)\n",
      "Message('control_change', channel=0, control=64, value=87, time=18)\n",
      "Message('control_change', channel=0, control=64, value=91, time=21)\n",
      "Message('control_change', channel=0, control=67, value=52, time=2)\n",
      "Message('control_change', channel=0, control=64, value=96, time=13)\n",
      "Message('control_change', channel=0, control=64, value=100, time=20)\n",
      "Message('control_change', channel=0, control=67, value=57, time=18)\n",
      "Message('control_change', channel=0, control=64, value=104, time=20)\n",
      "Message('note_on', channel=0, note=76, velocity=0, time=17)\n",
      "Message('control_change', channel=0, control=67, value=62, time=20)\n",
      "Message('control_change', channel=0, control=67, value=67, time=57)\n",
      "Message('control_change', channel=0, control=67, value=71, time=77)\n",
      "Message('note_on', channel=0, note=76, velocity=50, time=64)\n",
      "Message('control_change', channel=0, control=67, value=76, time=27)\n",
      "Message('note_on', channel=0, note=76, velocity=0, time=16)\n",
      "Message('note_on', channel=0, note=74, velocity=58, time=37)\n",
      "Message('control_change', channel=0, control=64, value=100, time=60)\n",
      "Message('note_on', channel=0, note=74, velocity=0, time=3)\n",
      "Message('note_on', channel=0, note=76, velocity=65, time=22)\n",
      "Message('control_change', channel=0, control=64, value=93, time=12)\n",
      "Message('control_change', channel=0, control=64, value=85, time=17)\n",
      "Message('control_change', channel=0, control=64, value=74, time=20)\n",
      "Message('note_on', channel=0, note=76, velocity=0, time=0)\n",
      "Message('control_change', channel=0, control=67, value=80, time=2)\n",
      "Message('note_on', channel=0, note=74, velocity=62, time=3)\n",
      "Message('note_on', channel=0, note=60, velocity=0, time=3)\n",
      "Message('note_on', channel=0, note=59, velocity=44, time=9)\n",
      "Message('control_change', channel=0, control=64, value=61, time=1)\n",
      "Message('control_change', channel=0, control=64, value=44, time=20)\n",
      "Message('control_change', channel=0, control=64, value=0, time=16)\n",
      "Message('control_change', channel=0, control=67, value=86, time=20)\n",
      "Message('control_change', channel=0, control=67, value=90, time=39)\n",
      "Message('control_change', channel=0, control=67, value=95, time=57)\n",
      "Message('note_on', channel=0, note=74, velocity=0, time=19)\n",
      "Message('note_on', channel=0, note=72, velocity=58, time=50)\n",
      "Message('control_change', channel=0, control=67, value=99, time=6)\n",
      "Message('note_on', channel=0, note=72, velocity=0, time=125)\n",
      "Message('note_on', channel=0, note=55, velocity=0, time=80)\n",
      "Message('note_on', channel=0, note=74, velocity=58, time=10)\n",
      "Message('control_change', channel=0, control=64, value=22, time=12)\n",
      "Message('control_change', channel=0, control=67, value=103, time=1)\n",
      "Message('control_change', channel=0, control=64, value=47, time=17)\n",
      "Message('control_change', channel=0, control=64, value=62, time=20)\n",
      "Message('note_on', channel=0, note=59, velocity=0, time=14)\n",
      "Message('control_change', channel=0, control=64, value=70, time=2)\n",
      "Message('control_change', channel=0, control=64, value=76, time=22)\n",
      "Message('control_change', channel=0, control=64, value=79, time=17)\n",
      "Message('control_change', channel=0, control=64, value=82, time=19)\n",
      "Message('control_change', channel=0, control=64, value=85, time=21)\n",
      "Message('control_change', channel=0, control=64, value=89, time=16)\n",
      "Message('control_change', channel=0, control=64, value=93, time=18)\n",
      "Message('control_change', channel=0, control=64, value=97, time=20)\n",
      "Message('control_change', channel=0, control=64, value=101, time=39)\n",
      "Message('note_on', channel=0, note=74, velocity=0, time=0)\n",
      "Message('control_change', channel=0, control=64, value=96, time=280)\n",
      "Message('control_change', channel=0, control=64, value=88, time=35)\n",
      "Message('control_change', channel=0, control=64, value=82, time=20)\n",
      "Message('note_on', channel=0, note=72, velocity=50, time=6)\n",
      "Message('control_change', channel=0, control=64, value=75, time=14)\n",
      "Message('note_on', channel=0, note=48, velocity=36, time=16)\n",
      "Message('note_on', channel=0, note=60, velocity=32, time=1)\n",
      "Message('control_change', channel=0, control=64, value=66, time=3)\n",
      "Message('control_change', channel=0, control=64, value=55, time=17)\n",
      "Message('control_change', channel=0, control=64, value=43, time=20)\n",
      "Message('control_change', channel=0, control=64, value=33, time=19)\n",
      "Message('control_change', channel=0, control=64, value=23, time=20)\n",
      "Message('control_change', channel=0, control=64, value=0, time=18)\n",
      "Message('control_change', channel=0, control=64, value=30, time=169)\n",
      "Message('control_change', channel=0, control=64, value=48, time=20)\n",
      "Message('control_change', channel=0, control=64, value=59, time=19)\n",
      "Message('control_change', channel=0, control=64, value=65, time=19)\n",
      "Message('control_change', channel=0, control=64, value=69, time=18)\n",
      "Message('control_change', channel=0, control=64, value=73, time=19)\n",
      "Message('control_change', channel=0, control=64, value=76, time=17)\n",
      "Message('note_on', channel=0, note=60, velocity=0, time=0)\n",
      "Message('note_on', channel=0, note=72, velocity=0, time=5)\n",
      "Message('control_change', channel=0, control=64, value=79, time=17)\n",
      "Message('control_change', channel=0, control=64, value=83, time=17)\n",
      "Message('control_change', channel=0, control=64, value=88, time=19)\n",
      "Message('control_change', channel=0, control=64, value=92, time=18)\n",
      "Message('control_change', channel=0, control=64, value=96, time=18)\n",
      "Message('control_change', channel=0, control=64, value=101, time=56)\n",
      "Message('control_change', channel=0, control=64, value=97, time=452)\n",
      "Message('control_change', channel=0, control=64, value=93, time=113)\n",
      "Message('control_change', channel=0, control=64, value=89, time=39)\n",
      "Message('control_change', channel=0, control=64, value=82, time=16)\n",
      "Message('note_on', channel=0, note=54, velocity=45, time=14)\n",
      "Message('control_change', channel=0, control=64, value=71, time=6)\n",
      "Message('control_change', channel=0, control=64, value=58, time=19)\n",
      "Message('control_change', channel=0, control=64, value=44, time=19)\n",
      "Message('note_on', channel=0, note=71, velocity=72, time=5)\n",
      "Message('control_change', channel=0, control=64, value=37, time=13)\n",
      "Message('note_on', channel=0, note=48, velocity=0, time=54)\n",
      "Message('note_on', channel=0, note=69, velocity=62, time=390)\n",
      "Message('note_on', channel=0, note=52, velocity=50, time=5)\n",
      "Message('note_on', channel=0, note=71, velocity=0, time=10)\n",
      "Message('note_on', channel=0, note=52, velocity=0, time=129)\n",
      "Message('note_on', channel=0, note=50, velocity=52, time=319)\n",
      "Message('control_change', channel=0, control=64, value=41, time=91)\n",
      "Message('control_change', channel=0, control=64, value=44, time=19)\n",
      "Message('control_change', channel=0, control=64, value=47, time=19)\n",
      "Message('note_on', channel=0, note=50, velocity=0, time=7)\n",
      "Message('control_change', channel=0, control=64, value=50, time=11)\n",
      "Message('control_change', channel=0, control=64, value=53, time=20)\n",
      "Message('control_change', channel=0, control=64, value=56, time=18)\n",
      "Message('control_change', channel=0, control=64, value=58, time=20)\n",
      "Message('control_change', channel=0, control=64, value=60, time=37)\n",
      "Message('control_change', channel=0, control=64, value=61, time=17)\n",
      "Message('control_change', channel=0, control=64, value=62, time=39)\n",
      "Message('control_change', channel=0, control=64, value=56, time=94)\n",
      "Message('control_change', channel=0, control=64, value=46, time=20)\n",
      "Message('control_change', channel=0, control=64, value=35, time=19)\n",
      "Message('note_on', channel=0, note=48, velocity=45, time=6)\n",
      "Message('note_on', channel=0, note=71, velocity=67, time=1)\n",
      "Message('note_on', channel=0, note=69, velocity=0, time=29)\n",
      "Message('control_change', channel=0, control=64, value=42, time=1)\n",
      "Message('control_change', channel=0, control=64, value=54, time=18)\n",
      "Message('control_change', channel=0, control=64, value=64, time=20)\n",
      "Message('control_change', channel=0, control=64, value=70, time=32)\n",
      "Message('control_change', channel=0, control=64, value=75, time=19)\n",
      "Message('control_change', channel=0, control=64, value=80, time=19)\n",
      "Message('control_change', channel=0, control=64, value=86, time=20)\n",
      "Message('control_change', channel=0, control=64, value=91, time=19)\n",
      "Message('note_on', channel=0, note=48, velocity=0, time=3)\n",
      "Message('control_change', channel=0, control=64, value=95, time=35)\n",
      "Message('note_on', channel=0, note=71, velocity=0, time=34)\n",
      "Message('control_change', channel=0, control=64, value=99, time=116)\n",
      "Message('control_change', channel=0, control=64, value=87, time=96)\n",
      "Message('note_on', channel=0, note=47, velocity=50, time=4)\n",
      "Message('note_on', channel=0, note=69, velocity=70, time=12)\n",
      "Message('control_change', channel=0, control=64, value=74, time=2)\n",
      "Message('control_change', channel=0, control=64, value=62, time=18)\n",
      "Message('control_change', channel=0, control=64, value=58, time=21)\n",
      "Message('note_on', channel=0, note=69, velocity=0, time=11)\n",
      "Message('note_on', channel=0, note=67, velocity=63, time=30)\n",
      "Message('note_on', channel=0, note=67, velocity=0, time=47)\n",
      "Message('note_on', channel=0, note=69, velocity=60, time=19)\n",
      "Message('note_on', channel=0, note=67, velocity=63, time=46)\n",
      "Message('note_on', channel=0, note=69, velocity=0, time=3)\n",
      "Message('control_change', channel=0, control=64, value=55, time=106)\n",
      "Message('control_change', channel=0, control=64, value=44, time=21)\n",
      "Message('control_change', channel=0, control=64, value=0, time=16)\n",
      "Message('note_on', channel=0, note=47, velocity=0, time=25)\n",
      "Message('note_on', channel=0, note=45, velocity=42, time=68)\n",
      "Message('control_change', channel=0, control=64, value=44, time=59)\n",
      "Message('control_change', channel=0, control=64, value=62, time=20)\n",
      "Message('control_change', channel=0, control=64, value=72, time=19)\n",
      "Message('control_change', channel=0, control=64, value=79, time=18)\n",
      "Message('control_change', channel=0, control=64, value=83, time=33)\n",
      "Message('note_on', channel=0, note=45, velocity=0, time=0)\n",
      "Message('control_change', channel=0, control=64, value=87, time=20)\n",
      "Message('note_on', channel=0, note=67, velocity=0, time=5)\n",
      "Message('note_on', channel=0, note=54, velocity=0, time=17)\n",
      "Message('control_change', channel=0, control=64, value=91, time=16)\n",
      "Message('note_on', channel=0, note=66, velocity=68, time=0)\n",
      "Message('control_change', channel=0, control=64, value=96, time=38)\n",
      "Message('control_change', channel=0, control=64, value=100, time=39)\n",
      "Message('control_change', channel=0, control=64, value=96, time=110)\n",
      "Message('control_change', channel=0, control=64, value=87, time=19)\n",
      "Message('control_change', channel=0, control=64, value=73, time=19)\n",
      "Message('note_on', channel=0, note=47, velocity=50, time=0)\n",
      "Message('note_on', channel=0, note=74, velocity=68, time=2)\n",
      "Message('note_on', channel=0, note=66, velocity=0, time=5)\n",
      "Message('note_on', channel=0, note=55, velocity=56, time=1)\n",
      "Message('control_change', channel=0, control=64, value=60, time=13)\n",
      "Message('control_change', channel=0, control=64, value=51, time=18)\n",
      "Message('control_change', channel=0, control=64, value=47, time=19)\n",
      "Message('control_change', channel=0, control=64, value=44, time=20)\n",
      "Message('control_change', channel=0, control=64, value=39, time=56)\n",
      "Message('control_change', channel=0, control=64, value=34, time=18)\n",
      "Message('control_change', channel=0, control=64, value=29, time=95)\n",
      "Message('control_change', channel=0, control=64, value=18, time=57)\n",
      "Message('control_change', channel=0, control=64, value=0, time=18)\n",
      "Message('control_change', channel=0, control=67, value=99, time=2)\n",
      "Message('note_on', channel=0, note=47, velocity=0, time=75)\n",
      "Message('note_on', channel=0, note=50, velocity=52, time=31)\n",
      "Message('control_change', channel=0, control=64, value=47, time=62)\n",
      "Message('control_change', channel=0, control=64, value=66, time=19)\n",
      "Message('note_on', channel=0, note=74, velocity=0, time=7)\n",
      "Message('control_change', channel=0, control=64, value=77, time=13)\n",
      "Message('control_change', channel=0, control=64, value=87, time=18)\n",
      "Message('control_change', channel=0, control=64, value=97, time=20)\n",
      "Message('control_change', channel=0, control=64, value=105, time=17)\n",
      "Message('control_change', channel=0, control=64, value=111, time=20)\n",
      "Message('control_change', channel=0, control=64, value=115, time=18)\n",
      "Message('note_on', channel=0, note=50, velocity=0, time=33)\n",
      "Message('control_change', channel=0, control=64, value=121, time=18)\n",
      "Message('control_change', channel=0, control=64, value=112, time=172)\n",
      "Message('control_change', channel=0, control=67, value=95, time=1)\n",
      "Message('control_change', channel=0, control=64, value=98, time=17)\n",
      "Message('control_change', channel=0, control=64, value=82, time=19)\n",
      "Message('note_on', channel=0, note=48, velocity=54, time=6)\n",
      "Message('note_on', channel=0, note=74, velocity=70, time=8)\n",
      "Message('control_change', channel=0, control=64, value=69, time=6)\n",
      "Message('control_change', channel=0, control=64, value=66, time=17)\n",
      "Message('control_change', channel=0, control=64, value=68, time=19)\n",
      "Message('control_change', channel=0, control=64, value=72, time=19)\n",
      "Message('control_change', channel=0, control=64, value=77, time=21)\n",
      "Message('control_change', channel=0, control=64, value=82, time=17)\n",
      "Message('control_change', channel=0, control=64, value=85, time=21)\n",
      "Message('note_on', channel=0, note=74, velocity=0, time=9)\n",
      "Message('note_on', channel=0, note=48, velocity=0, time=25)\n",
      "Message('control_change', channel=0, control=64, value=87, time=40)\n",
      "Message('note_on', channel=0, note=76, velocity=58, time=65)\n",
      "Message('note_on', channel=0, note=76, velocity=0, time=38)\n",
      "Message('note_on', channel=0, note=74, velocity=68, time=40)\n",
      "Message('control_change', channel=0, control=64, value=83, time=28)\n",
      "Message('control_change', channel=0, control=64, value=71, time=19)\n",
      "Message('control_change', channel=0, control=64, value=44, time=19)\n",
      "Message('note_on', channel=0, note=74, velocity=0, time=1)\n",
      "Message('note_on', channel=0, note=47, velocity=49, time=4)\n",
      "Message('note_on', channel=0, note=76, velocity=68, time=2)\n",
      "Message('control_change', channel=0, control=64, value=0, time=10)\n",
      "Message('control_change', channel=0, control=64, value=16, time=95)\n",
      "Message('control_change', channel=0, control=64, value=38, time=19)\n",
      "Message('control_change', channel=0, control=64, value=51, time=20)\n",
      "Message('control_change', channel=0, control=64, value=58, time=17)\n",
      "Message('note_on', channel=0, note=47, velocity=0, time=4)\n",
      "Message('control_change', channel=0, control=64, value=61, time=17)\n",
      "Message('control_change', channel=0, control=64, value=62, time=17)\n",
      "Message('control_change', channel=0, control=64, value=63, time=21)\n",
      "Message('control_change', channel=0, control=64, value=64, time=16)\n",
      "Message('control_change', channel=0, control=64, value=66, time=19)\n",
      "Message('control_change', channel=0, control=64, value=67, time=20)\n",
      "Message('control_change', channel=0, control=64, value=63, time=129)\n",
      "Message('control_change', channel=0, control=64, value=55, time=19)\n",
      "Message('control_change', channel=0, control=64, value=44, time=19)\n",
      "Message('control_change', channel=0, control=64, value=42, time=19)\n",
      "Message('note_on', channel=0, note=45, velocity=39, time=3)\n",
      "Message('control_change', channel=0, control=64, value=44, time=16)\n",
      "Message('control_change', channel=0, control=64, value=54, time=18)\n",
      "Message('control_change', channel=0, control=64, value=62, time=18)\n",
      "Message('control_change', channel=0, control=64, value=67, time=19)\n",
      "Message('control_change', channel=0, control=64, value=69, time=20)\n",
      "Message('control_change', channel=0, control=64, value=73, time=37)\n",
      "Message('note_on', channel=0, note=45, velocity=0, time=9)\n",
      "Message('control_change', channel=0, control=64, value=76, time=29)\n",
      "Message('control_change', channel=0, control=64, value=79, time=38)\n",
      "Message('control_change', channel=0, control=64, value=81, time=41)\n",
      "Message('control_change', channel=0, control=64, value=83, time=53)\n",
      "Message('control_change', channel=0, control=64, value=75, time=56)\n",
      "Message('control_change', channel=0, control=64, value=62, time=18)\n",
      "Message('control_change', channel=0, control=64, value=42, time=20)\n",
      "Message('control_change', channel=0, control=64, value=35, time=18)\n",
      "Message('control_change', channel=0, control=64, value=44, time=20)\n",
      "Message('note_on', channel=0, note=43, velocity=48, time=7)\n",
      "Message('control_change', channel=0, control=64, value=60, time=12)\n",
      "Message('control_change', channel=0, control=64, value=72, time=20)\n",
      "Message('note_on', channel=0, note=76, velocity=0, time=1)\n",
      "Message('control_change', channel=0, control=64, value=82, time=17)\n",
      "Message('control_change', channel=0, control=64, value=91, time=19)\n",
      "Message('control_change', channel=0, control=64, value=99, time=19)\n",
      "Message('control_change', channel=0, control=64, value=105, time=18)\n",
      "Message('note_on', channel=0, note=43, velocity=0, time=17)\n",
      "Message('control_change', channel=0, control=64, value=109, time=2)\n",
      "Message('control_change', channel=0, control=64, value=115, time=38)\n",
      "Message('note_on', channel=0, note=55, velocity=0, time=83)\n",
      "Message('control_change', channel=0, control=64, value=107, time=215)\n",
      "Message('control_change', channel=0, control=64, value=101, time=21)\n",
      "Message('control_change', channel=0, control=64, value=95, time=17)\n",
      "Message('control_change', channel=0, control=64, value=90, time=21)\n",
      "Message('control_change', channel=0, control=64, value=85, time=18)\n",
      "Message('note_on', channel=0, note=42, velocity=47, time=11)\n",
      "Message('control_change', channel=0, control=64, value=82, time=5)\n",
      "Message('note_on', channel=0, note=62, velocity=59, time=16)\n",
      "Message('control_change', channel=0, control=64, value=79, time=3)\n",
      "Message('control_change', channel=0, control=64, value=77, time=20)\n",
      "Message('control_change', channel=0, control=64, value=74, time=37)\n",
      "Message('control_change', channel=0, control=64, value=72, time=38)\n",
      "Message('note_on', channel=0, note=64, velocity=64, time=114)\n",
      "Message('note_on', channel=0, note=62, velocity=0, time=17)\n",
      "Message('control_change', channel=0, control=64, value=70, time=41)\n",
      "Message('control_change', channel=0, control=64, value=68, time=112)\n",
      "Message('note_on', channel=0, note=45, velocity=58, time=26)\n",
      "Message('note_on', channel=0, note=66, velocity=68, time=5)\n",
      "Message('note_on', channel=0, note=64, velocity=0, time=18)\n",
      "Message('control_change', channel=0, control=64, value=67, time=7)\n",
      "Message('note_on', channel=0, note=45, velocity=0, time=30)\n",
      "Message('control_change', channel=0, control=64, value=66, time=28)\n",
      "Message('note_on', channel=0, note=66, velocity=0, time=85)\n",
      "Message('control_change', channel=0, control=64, value=65, time=8)\n",
      "Message('note_on', channel=0, note=67, velocity=65, time=25)\n",
      "Message('control_change', channel=0, control=64, value=64, time=33)\n",
      "Message('control_change', channel=0, control=64, value=63, time=17)\n",
      "Message('control_change', channel=0, control=64, value=60, time=39)\n",
      "Message('control_change', channel=0, control=64, value=56, time=19)\n",
      "Message('control_change', channel=0, control=64, value=50, time=17)\n",
      "Message('control_change', channel=0, control=64, value=37, time=21)\n",
      "Message('control_change', channel=0, control=64, value=0, time=32)\n",
      "Message('note_on', channel=0, note=69, velocity=67, time=61)\n",
      "Message('note_on', channel=0, note=50, velocity=63, time=2)\n",
      "Message('note_on', channel=0, note=67, velocity=0, time=19)\n",
      "Message('note_on', channel=0, note=42, velocity=0, time=19)\n",
      "Message('control_change', channel=0, control=64, value=29, time=51)\n",
      "Message('control_change', channel=0, control=64, value=51, time=19)\n",
      "Message('control_change', channel=0, control=64, value=62, time=19)\n",
      "Message('control_change', channel=0, control=64, value=69, time=20)\n",
      "Message('control_change', channel=0, control=64, value=74, time=17)\n",
      "Message('control_change', channel=0, control=64, value=77, time=19)\n",
      "Message('note_on', channel=0, note=71, velocity=66, time=9)\n",
      "Message('control_change', channel=0, control=64, value=80, time=30)\n",
      "Message('note_on', channel=0, note=69, velocity=0, time=7)\n",
      "Message('control_change', channel=0, control=64, value=82, time=12)\n",
      "Message('control_change', channel=0, control=64, value=85, time=18)\n",
      "Message('control_change', channel=0, control=64, value=89, time=19)\n",
      "Message('control_change', channel=0, control=64, value=95, time=20)\n",
      "Message('control_change', channel=0, control=67, value=91, time=1)\n",
      "Message('control_change', channel=0, control=64, value=99, time=18)\n",
      "Message('control_change', channel=0, control=64, value=103, time=36)\n",
      "Message('control_change', channel=0, control=64, value=94, time=40)\n",
      "Message('note_on', channel=0, note=42, velocity=54, time=8)\n",
      "Message('note_on', channel=0, note=72, velocity=65, time=5)\n",
      "Message('control_change', channel=0, control=64, value=81, time=2)\n",
      "Message('note_on', channel=0, note=71, velocity=0, time=15)\n",
      "Message('control_change', channel=0, control=64, value=68, time=5)\n",
      "Message('control_change', channel=0, control=64, value=64, time=20)\n",
      "Message('control_change', channel=0, control=64, value=68, time=19)\n",
      "Message('control_change', channel=0, control=64, value=73, time=18)\n",
      "Message('control_change', channel=0, control=64, value=79, time=21)\n",
      "Message('control_change', channel=0, control=64, value=83, time=18)\n",
      "Message('note_on', channel=0, note=42, velocity=0, time=4)\n",
      "Message('note_on', channel=0, note=72, velocity=0, time=71)\n",
      "Message('note_on', channel=0, note=69, velocity=69, time=1)\n",
      "Message('control_change', channel=0, control=64, value=85, time=19)\n",
      "Message('control_change', channel=0, control=64, value=87, time=132)\n",
      "Message('control_change', channel=0, control=64, value=83, time=37)\n",
      "Message('control_change', channel=0, control=64, value=74, time=18)\n",
      "Message('control_change', channel=0, control=67, value=87, time=2)\n",
      "Message('control_change', channel=0, control=64, value=62, time=18)\n",
      "Message('control_change', channel=0, control=64, value=54, time=18)\n",
      "Message('note_on', channel=0, note=43, velocity=29, time=3)\n",
      "Message('note_on', channel=0, note=45, velocity=42, time=0)\n",
      "Message('note_on', channel=0, note=71, velocity=62, time=13)\n",
      "Message('note_on', channel=0, note=69, velocity=0, time=2)\n",
      "Message('control_change', channel=0, control=64, value=56, time=54)\n",
      "Message('note_on', channel=0, note=43, velocity=0, time=12)\n",
      "Message('note_on', channel=0, note=69, velocity=73, time=96)\n",
      "Message('note_on', channel=0, note=71, velocity=0, time=14)\n",
      "Message('note_on', channel=0, note=67, velocity=71, time=113)\n",
      "Message('note_on', channel=0, note=69, velocity=0, time=7)\n",
      "Message('note_on', channel=0, note=50, velocity=0, time=124)\n",
      "Message('note_on', channel=0, note=52, velocity=60, time=11)\n",
      "Message('note_on', channel=0, note=69, velocity=76, time=2)\n",
      "Message('note_on', channel=0, note=67, velocity=0, time=1)\n",
      "Message('note_on', channel=0, note=48, velocity=58, time=6)\n",
      "Message('note_on', channel=0, note=45, velocity=0, time=2)\n",
      "Message('control_change', channel=0, control=64, value=54, time=7)\n",
      "Message('note_on', channel=0, note=69, velocity=0, time=120)\n",
      "Message('note_on', channel=0, note=67, velocity=52, time=16)\n",
      "Message('note_on', channel=0, note=67, velocity=0, time=101)\n",
      "Message('control_change', channel=0, control=64, value=52, time=9)\n",
      "Message('note_on', channel=0, note=66, velocity=66, time=10)\n",
      "Message('control_change', channel=0, control=64, value=48, time=27)\n",
      "Message('control_change', channel=0, control=64, value=43, time=19)\n",
      "Message('control_change', channel=0, control=64, value=36, time=20)\n",
      "Message('control_change', channel=0, control=64, value=22, time=19)\n",
      "Message('control_change', channel=0, control=64, value=0, time=18)\n",
      "Message('note_on', channel=0, note=48, velocity=0, time=29)\n",
      "Message('note_on', channel=0, note=66, velocity=0, time=11)\n",
      "Message('note_on', channel=0, note=67, velocity=62, time=11)\n",
      "Message('note_on', channel=0, note=52, velocity=0, time=2)\n",
      "Message('note_on', channel=0, note=50, velocity=57, time=4)\n",
      "Message('control_change', channel=0, control=64, value=18, time=167)\n",
      "Message('control_change', channel=0, control=64, value=43, time=19)\n",
      "Message('control_change', channel=0, control=64, value=56, time=21)\n",
      "Message('control_change', channel=0, control=64, value=63, time=17)\n",
      "Message('control_change', channel=0, control=64, value=68, time=19)\n",
      "Message('control_change', channel=0, control=64, value=71, time=19)\n",
      "Message('control_change', channel=0, control=64, value=74, time=38)\n",
      "Message('control_change', channel=0, control=64, value=77, time=18)\n",
      "Message('control_change', channel=0, control=64, value=80, time=19)\n",
      "Message('control_change', channel=0, control=64, value=83, time=18)\n",
      "Message('control_change', channel=0, control=64, value=85, time=19)\n",
      "Message('control_change', channel=0, control=64, value=83, time=38)\n",
      "Message('control_change', channel=0, control=64, value=79, time=20)\n",
      "Message('note_on', channel=0, note=59, velocity=60, time=14)\n",
      "Message('control_change', channel=0, control=64, value=74, time=4)\n",
      "Message('control_change', channel=0, control=64, value=76, time=19)\n",
      "Message('control_change', channel=0, control=64, value=82, time=20)\n",
      "Message('control_change', channel=0, control=64, value=91, time=19)\n",
      "Message('note_on', channel=0, note=67, velocity=0, time=11)\n",
      "Message('control_change', channel=0, control=64, value=103, time=8)\n",
      "Message('control_change', channel=0, control=64, value=113, time=17)\n",
      "Message('note_on', channel=0, note=59, velocity=0, time=324)\n",
      "Message('note_on', channel=0, note=67, velocity=64, time=5)\n",
      "Message('note_on', channel=0, note=57, velocity=59, time=9)\n",
      "Message('control_change', channel=0, control=64, value=98, time=21)\n",
      "Message('note_on', channel=0, note=67, velocity=0, time=14)\n",
      "Message('control_change', channel=0, control=64, value=78, time=5)\n",
      "Message('note_on', channel=0, note=66, velocity=61, time=10)\n",
      "Message('control_change', channel=0, control=64, value=58, time=8)\n",
      "Message('control_change', channel=0, control=64, value=47, time=21)\n",
      "Message('note_on', channel=0, note=66, velocity=0, time=30)\n",
      "Message('note_on', channel=0, note=67, velocity=64, time=3)\n",
      "Message('note_on', channel=0, note=67, velocity=0, time=58)\n",
      "Message('note_on', channel=0, note=66, velocity=53, time=28)\n",
      "Message('control_change', channel=0, control=64, value=43, time=178)\n",
      "Message('control_change', channel=0, control=64, value=32, time=18)\n",
      "Message('control_change', channel=0, control=64, value=0, time=22)\n",
      "Message('note_on', channel=0, note=57, velocity=0, time=48)\n",
      "Message('note_on', channel=0, note=55, velocity=45, time=41)\n",
      "Message('note_on', channel=0, note=64, velocity=55, time=204)\n",
      "Message('note_on', channel=0, note=66, velocity=0, time=20)\n",
      "Message('note_on', channel=0, note=55, velocity=0, time=208)\n",
      "Message('note_on', channel=0, note=50, velocity=0, time=5)\n",
      "Message('note_on', channel=0, note=54, velocity=46, time=7)\n",
      "Message('note_on', channel=0, note=62, velocity=52, time=14)\n",
      "Message('note_on', channel=0, note=64, velocity=0, time=1)\n",
      "Message('note_on', channel=0, note=48, velocity=48, time=489)\n",
      "Message('control_change', channel=0, control=64, value=27, time=52)\n",
      "Message('control_change', channel=0, control=64, value=49, time=19)\n",
      "Message('control_change', channel=0, control=64, value=64, time=20)\n",
      "Message('control_change', channel=0, control=64, value=74, time=16)\n",
      "Message('control_change', channel=0, control=64, value=85, time=20)\n",
      "Message('control_change', channel=0, control=64, value=95, time=18)\n",
      "Message('note_on', channel=0, note=62, velocity=0, time=2)\n",
      "Message('note_on', channel=0, note=48, velocity=0, time=10)\n",
      "Message('control_change', channel=0, control=64, value=105, time=8)\n",
      "Message('control_change', channel=0, control=64, value=111, time=18)\n",
      "Message('control_change', channel=0, control=64, value=116, time=38)\n",
      "Message('control_change', channel=0, control=64, value=111, time=341)\n",
      "Message('control_change', channel=0, control=64, value=105, time=17)\n",
      "Message('control_change', channel=0, control=64, value=96, time=20)\n",
      "Message('note_on', channel=0, note=47, velocity=51, time=11)\n",
      "Message('control_change', channel=0, control=64, value=85, time=7)\n",
      "Message('control_change', channel=0, control=64, value=75, time=20)\n",
      "Message('note_on', channel=0, note=54, velocity=0, time=0)\n",
      "Message('control_change', channel=0, control=64, value=66, time=32)\n",
      "Message('note_on', channel=0, note=74, velocity=68, time=3)\n",
      "Message('control_change', channel=0, control=64, value=60, time=18)\n",
      "Message('control_change', channel=0, control=64, value=57, time=18)\n",
      "Message('note_on', channel=0, note=74, velocity=0, time=24)\n",
      "Message('note_on', channel=0, note=72, velocity=69, time=17)\n",
      "Message('control_change', channel=0, control=64, value=55, time=17)\n",
      "Message('control_change', channel=0, control=64, value=52, time=19)\n",
      "Message('control_change', channel=0, control=64, value=48, time=18)\n",
      "Message('control_change', channel=0, control=64, value=46, time=18)\n",
      "Message('note_on', channel=0, note=72, velocity=0, time=3)\n",
      "Message('note_on', channel=0, note=74, velocity=67, time=14)\n",
      "Message('note_on', channel=0, note=50, velocity=58, time=322)\n",
      "Message('note_on', channel=0, note=50, velocity=0, time=107)\n",
      "Message('control_change', channel=0, control=64, value=44, time=197)\n",
      "Message('control_change', channel=0, control=64, value=42, time=18)\n",
      "Message('control_change', channel=0, control=64, value=33, time=20)\n",
      "Message('control_change', channel=0, control=64, value=0, time=19)\n",
      "Message('note_on', channel=0, note=55, velocity=52, time=105)\n",
      "Message('control_change', channel=0, control=64, value=28, time=22)\n",
      "Message('control_change', channel=0, control=64, value=50, time=19)\n",
      "Message('control_change', channel=0, control=64, value=62, time=19)\n",
      "Message('control_change', channel=0, control=64, value=69, time=19)\n",
      "Message('control_change', channel=0, control=64, value=74, time=20)\n",
      "Message('control_change', channel=0, control=64, value=77, time=19)\n",
      "Message('control_change', channel=0, control=64, value=79, time=19)\n",
      "Message('note_on', channel=0, note=47, velocity=0, time=11)\n",
      "Message('control_change', channel=0, control=64, value=83, time=27)\n",
      "Message('control_change', channel=0, control=64, value=88, time=17)\n",
      "Message('control_change', channel=0, control=64, value=94, time=19)\n",
      "Message('control_change', channel=0, control=64, value=100, time=19)\n",
      "Message('control_change', channel=0, control=64, value=105, time=18)\n",
      "Message('control_change', channel=0, control=64, value=109, time=19)\n",
      "Message('control_change', channel=0, control=64, value=113, time=38)\n",
      "Message('control_change', channel=0, control=64, value=108, time=94)\n",
      "Message('control_change', channel=0, control=64, value=99, time=21)\n",
      "Message('control_change', channel=0, control=64, value=91, time=17)\n",
      "Message('note_on', channel=0, note=76, velocity=73, time=8)\n",
      "Message('note_on', channel=0, note=47, velocity=54, time=3)\n",
      "Message('note_on', channel=0, note=74, velocity=0, time=32)\n",
      "Message('control_change', channel=0, control=64, value=96, time=15)\n",
      "Message('control_change', channel=0, control=64, value=101, time=38)\n",
      "Message('control_change', channel=0, control=64, value=106, time=76)\n",
      "Message('control_change', channel=0, control=64, value=110, time=129)\n",
      "Message('control_change', channel=0, control=64, value=102, time=117)\n",
      "Message('control_change', channel=0, control=64, value=86, time=15)\n",
      "Message('note_on', channel=0, note=45, velocity=58, time=18)\n",
      "Message('control_change', channel=0, control=64, value=65, time=1)\n",
      "Message('note_on', channel=0, note=47, velocity=0, time=18)\n",
      "Message('control_change', channel=0, control=64, value=44, time=2)\n",
      "Message('note_on', channel=0, note=74, velocity=71, time=10)\n",
      "Message('note_on', channel=0, note=76, velocity=0, time=41)\n",
      "Message('control_change', channel=0, control=64, value=52, time=1)\n",
      "Message('control_change', channel=0, control=64, value=58, time=19)\n",
      "Message('control_change', channel=0, control=64, value=62, time=19)\n",
      "Message('note_on', channel=0, note=74, velocity=0, time=0)\n",
      "Message('note_on', channel=0, note=72, velocity=67, time=19)\n",
      "Message('note_on', channel=0, note=74, velocity=76, time=60)\n",
      "Message('note_on', channel=0, note=72, velocity=0, time=9)\n",
      "Message('control_change', channel=0, control=64, value=63, time=8)\n",
      "Message('control_change', channel=0, control=64, value=64, time=17)\n",
      "Message('note_on', channel=0, note=74, velocity=0, time=26)\n",
      "Message('note_on', channel=0, note=72, velocity=56, time=10)\n",
      "Message('control_change', channel=0, control=64, value=61, time=23)\n",
      "Message('control_change', channel=0, control=64, value=56, time=18)\n",
      "Message('control_change', channel=0, control=64, value=43, time=18)\n",
      "Message('control_change', channel=0, control=64, value=0, time=19)\n",
      "Message('note_on', channel=0, note=45, velocity=0, time=71)\n",
      "Message('control_change', channel=0, control=64, value=34, time=23)\n",
      "Message('control_change', channel=0, control=64, value=54, time=19)\n",
      "Message('note_on', channel=0, note=43, velocity=51, time=12)\n",
      "Message('control_change', channel=0, control=64, value=64, time=6)\n",
      "Message('control_change', channel=0, control=64, value=70, time=21)\n",
      "Message('control_change', channel=0, control=64, value=75, time=18)\n",
      "Message('control_change', channel=0, control=64, value=79, time=20)\n",
      "Message('control_change', channel=0, control=64, value=82, time=16)\n",
      "Message('control_change', channel=0, control=64, value=85, time=21)\n",
      "Message('control_change', channel=0, control=64, value=87, time=19)\n",
      "Message('control_change', channel=0, control=64, value=96, time=37)\n",
      "Message('control_change', channel=0, control=64, value=101, time=22)\n",
      "Message('control_change', channel=0, control=64, value=106, time=17)\n",
      "Message('note_on', channel=0, note=71, velocity=75, time=13)\n",
      "Message('note_on', channel=0, note=72, velocity=0, time=38)\n",
      "Message('note_on', channel=0, note=43, velocity=0, time=143)\n",
      "Message('control_change', channel=0, control=64, value=91, time=13)\n",
      "Message('note_on', channel=0, note=71, velocity=0, time=4)\n",
      "Message('note_on', channel=0, note=76, velocity=73, time=12)\n",
      "Message('note_on', channel=0, note=48, velocity=55, time=1)\n",
      "Message('control_change', channel=0, control=64, value=71, time=2)\n",
      "Message('control_change', channel=0, control=64, value=30, time=19)\n",
      "Message('control_change', channel=0, control=64, value=0, time=21)\n",
      "Message('note_on', channel=0, note=55, velocity=0, time=18)\n",
      "Message('control_change', channel=0, control=64, value=35, time=204)\n",
      "Message('control_change', channel=0, control=64, value=52, time=19)\n",
      "Message('control_change', channel=0, control=64, value=61, time=18)\n",
      "Message('control_change', channel=0, control=64, value=67, time=18)\n",
      "Message('control_change', channel=0, control=64, value=72, time=19)\n",
      "Message('control_change', channel=0, control=64, value=76, time=21)\n",
      "Message('control_change', channel=0, control=64, value=81, time=17)\n",
      "Message('control_change', channel=0, control=64, value=87, time=19)\n",
      "Message('note_on', channel=0, note=76, velocity=0, time=6)\n",
      "Message('control_change', channel=0, control=64, value=93, time=12)\n",
      "Message('control_change', channel=0, control=64, value=99, time=20)\n",
      "Message('control_change', channel=0, control=64, value=105, time=18)\n",
      "Message('control_change', channel=0, control=64, value=111, time=19)\n",
      "Message('note_on', channel=0, note=52, velocity=62, time=5)\n",
      "Message('control_change', channel=0, control=64, value=118, time=14)\n",
      "Message('control_change', channel=0, control=64, value=123, time=19)\n",
      "Message('control_change', channel=0, control=64, value=127, time=75)\n",
      "Message('control_change', channel=0, control=64, value=107, time=283)\n",
      "Message('control_change', channel=0, control=64, value=74, time=18)\n",
      "Message('note_on', channel=0, note=57, velocity=63, time=0)\n",
      "Message('note_on', channel=0, note=52, velocity=0, time=2)\n",
      "Message('control_change', channel=0, control=64, value=0, time=17)\n",
      "Message('note_on', channel=0, note=76, velocity=75, time=40)\n",
      "Message('control_change', channel=0, control=64, value=18, time=18)\n",
      "Message('control_change', channel=0, control=64, value=51, time=20)\n",
      "Message('control_change', channel=0, control=67, value=83, time=1)\n",
      "Message('control_change', channel=0, control=64, value=65, time=19)\n",
      "Message('control_change', channel=0, control=64, value=72, time=16)\n",
      "Message('control_change', channel=0, control=64, value=74, time=20)\n",
      "Message('control_change', channel=0, control=64, value=77, time=70)\n",
      "Message('note_on', channel=0, note=76, velocity=0, time=13)\n",
      "Message('control_change', channel=0, control=67, value=77, time=5)\n",
      "Message('control_change', channel=0, control=64, value=80, time=21)\n",
      "Message('note_on', channel=0, note=78, velocity=71, time=4)\n",
      "Message('control_change', channel=0, control=64, value=83, time=16)\n",
      "Message('control_change', channel=0, control=67, value=71, time=2)\n",
      "Message('control_change', channel=0, control=64, value=87, time=15)\n",
      "Message('control_change', channel=0, control=64, value=91, time=20)\n",
      "Message('control_change', channel=0, control=64, value=96, time=19)\n",
      "Message('note_on', channel=0, note=78, velocity=0, time=3)\n",
      "Message('control_change', channel=0, control=67, value=67, time=17)\n",
      "Message('note_on', channel=0, note=79, velocity=74, time=13)\n",
      "Message('control_change', channel=0, control=64, value=101, time=4)\n",
      "Message('note_on', channel=0, note=48, velocity=0, time=22)\n",
      "Message('control_change', channel=0, control=67, value=63, time=36)\n",
      "Message('note_on', channel=0, note=79, velocity=0, time=15)\n",
      "Message('note_on', channel=0, note=45, velocity=65, time=1)\n",
      "Message('note_on', channel=0, note=78, velocity=70, time=11)\n",
      "Message('control_change', channel=0, control=64, value=91, time=9)\n",
      "Message('control_change', channel=0, control=64, value=75, time=19)\n",
      "Message('control_change', channel=0, control=64, value=57, time=19)\n",
      "Message('note_on', channel=0, note=78, velocity=0, time=3)\n",
      "Message('note_on', channel=0, note=79, velocity=69, time=14)\n",
      "Message('control_change', channel=0, control=64, value=52, time=2)\n",
      "Message('control_change', channel=0, control=64, value=57, time=18)\n",
      "Message('control_change', channel=0, control=64, value=62, time=21)\n",
      "Message('note_on', channel=0, note=79, velocity=0, time=9)\n",
      "Message('control_change', channel=0, control=64, value=67, time=9)\n",
      "Message('note_on', channel=0, note=78, velocity=68, time=2)\n",
      "Message('control_change', channel=0, control=64, value=68, time=17)\n",
      "Message('note_on', channel=0, note=78, velocity=0, time=35)\n",
      "Message('note_on', channel=0, note=79, velocity=73, time=21)\n",
      "Message('note_on', channel=0, note=79, velocity=0, time=45)\n",
      "Message('control_change', channel=0, control=64, value=70, time=11)\n",
      "Message('note_on', channel=0, note=78, velocity=72, time=0)\n",
      "Message('note_on', channel=0, note=78, velocity=0, time=48)\n",
      "Message('note_on', channel=0, note=79, velocity=75, time=17)\n",
      "Message('control_change', channel=0, control=64, value=72, time=30)\n",
      "Message('note_on', channel=0, note=78, velocity=77, time=22)\n",
      "Message('note_on', channel=0, note=79, velocity=0, time=1)\n",
      "Message('note_on', channel=0, note=45, velocity=0, time=12)\n",
      "Message('note_on', channel=0, note=50, velocity=60, time=16)\n",
      "Message('control_change', channel=0, control=64, value=66, time=25)\n",
      "Message('control_change', channel=0, control=64, value=53, time=18)\n",
      "Message('control_change', channel=0, control=64, value=16, time=21)\n",
      "Message('control_change', channel=0, control=64, value=0, time=16)\n",
      "Message('control_change', channel=0, control=64, value=31, time=38)\n",
      "Message('control_change', channel=0, control=64, value=48, time=21)\n",
      "Message('control_change', channel=0, control=64, value=53, time=18)\n",
      "Message('control_change', channel=0, control=64, value=56, time=203)\n",
      "Message('control_change', channel=0, control=64, value=62, time=20)\n",
      "Message('control_change', channel=0, control=64, value=68, time=19)\n",
      "Message('control_change', channel=0, control=64, value=72, time=19)\n",
      "Message('control_change', channel=0, control=64, value=79, time=19)\n",
      "Message('note_on', channel=0, note=48, velocity=66, time=9)\n",
      "Message('control_change', channel=0, control=64, value=88, time=12)\n",
      "Message('control_change', channel=0, control=64, value=99, time=17)\n",
      "Message('note_on', channel=0, note=50, velocity=0, time=7)\n",
      "Message('control_change', channel=0, control=64, value=107, time=9)\n",
      "Message('note_on', channel=0, note=78, velocity=0, time=10)\n",
      "Message('control_change', channel=0, control=64, value=112, time=10)\n",
      "Message('control_change', channel=0, control=64, value=117, time=38)\n",
      "Message('control_change', channel=0, control=64, value=121, time=112)\n",
      "Message('note_on', channel=0, note=76, velocity=76, time=29)\n",
      "Message('control_change', channel=0, control=64, value=125, time=29)\n",
      "Message('note_on', channel=0, note=57, velocity=0, time=11)\n",
      "Message('note_on', channel=0, note=78, velocity=74, time=40)\n",
      "Message('note_on', channel=0, note=76, velocity=0, time=4)\n",
      "Message('control_change', channel=0, control=64, value=111, time=58)\n",
      "Message('control_change', channel=0, control=64, value=82, time=19)\n",
      "Message('note_on', channel=0, note=78, velocity=0, time=2)\n",
      "Message('control_change', channel=0, control=64, value=42, time=16)\n",
      "Message('note_on', channel=0, note=79, velocity=82, time=11)\n",
      "Message('note_on', channel=0, note=48, velocity=0, time=3)\n",
      "Message('control_change', channel=0, control=64, value=0, time=3)\n",
      "Message('note_on', channel=0, note=47, velocity=62, time=3)\n",
      "Message('control_change', channel=0, control=64, value=13, time=187)\n",
      "Message('control_change', channel=0, control=64, value=23, time=21)\n",
      "Message('control_change', channel=0, control=64, value=28, time=56)\n",
      "Message('control_change', channel=0, control=64, value=33, time=19)\n",
      "Message('control_change', channel=0, control=64, value=40, time=18)\n",
      "Message('control_change', channel=0, control=64, value=45, time=20)\n",
      "Message('control_change', channel=0, control=64, value=48, time=18)\n",
      "Message('control_change', channel=0, control=64, value=51, time=21)\n",
      "Message('control_change', channel=0, control=64, value=54, time=31)\n",
      "Message('control_change', channel=0, control=64, value=57, time=20)\n",
      "Message('control_change', channel=0, control=64, value=59, time=39)\n",
      "Message('control_change', channel=0, control=64, value=60, time=18)\n",
      "Message('note_on', channel=0, note=50, velocity=60, time=4)\n",
      "Message('control_change', channel=0, control=64, value=61, time=16)\n",
      "Message('control_change', channel=0, control=64, value=63, time=18)\n",
      "Message('control_change', channel=0, control=64, value=65, time=20)\n",
      "Message('control_change', channel=0, control=64, value=66, time=20)\n",
      "Message('control_change', channel=0, control=64, value=67, time=16)\n",
      "Message('control_change', channel=0, control=64, value=70, time=58)\n",
      "Message('control_change', channel=0, control=64, value=73, time=36)\n",
      "Message('note_on', channel=0, note=50, velocity=0, time=6)\n",
      "Message('control_change', channel=0, control=64, value=76, time=33)\n",
      "Message('control_change', channel=0, control=64, value=79, time=39)\n",
      "Message('control_change', channel=0, control=64, value=81, time=18)\n",
      "Message('control_change', channel=0, control=64, value=85, time=20)\n",
      "Message('control_change', channel=0, control=64, value=90, time=17)\n",
      "Message('control_change', channel=0, control=64, value=96, time=19)\n",
      "Message('control_change', channel=0, control=64, value=100, time=20)\n",
      "Message('control_change', channel=0, control=64, value=93, time=35)\n",
      "Message('control_change', channel=0, control=64, value=79, time=20)\n",
      "Message('control_change', channel=0, control=64, value=63, time=19)\n",
      "Message('note_on', channel=0, note=49, velocity=70, time=3)\n",
      "Message('control_change', channel=0, control=64, value=53, time=17)\n",
      "Message('control_change', channel=0, control=64, value=55, time=35)\n",
      "Message('note_on', channel=0, note=47, velocity=0, time=3)\n",
      "Message('control_change', channel=0, control=64, value=58, time=35)\n",
      "Message('control_change', channel=0, control=64, value=60, time=171)\n",
      "Message('note_on', channel=0, note=52, velocity=56, time=191)\n",
      "Message('note_on', channel=0, note=81, velocity=76, time=8)\n",
      "Message('note_on', channel=0, note=79, velocity=0, time=39)\n",
      "Message('note_on', channel=0, note=52, velocity=0, time=140)\n",
      "Message('note_on', channel=0, note=83, velocity=80, time=18)\n",
      "Message('note_on', channel=0, note=81, velocity=0, time=49)\n",
      "Message('control_change', channel=0, control=64, value=57, time=23)\n",
      "Message('control_change', channel=0, control=64, value=53, time=20)\n",
      "Message('control_change', channel=0, control=64, value=44, time=16)\n",
      "Message('control_change', channel=0, control=64, value=19, time=21)\n",
      "Message('control_change', channel=0, control=64, value=0, time=18)\n",
      "Message('note_on', channel=0, note=57, velocity=57, time=61)\n",
      "Message('note_on', channel=0, note=81, velocity=78, time=13)\n",
      "Message('control_change', channel=0, control=64, value=18, time=2)\n",
      "Message('control_change', channel=0, control=64, value=31, time=21)\n",
      "Message('control_change', channel=0, control=64, value=37, time=16)\n",
      "Message('note_on', channel=0, note=83, velocity=0, time=0)\n",
      "Message('control_change', channel=0, control=64, value=41, time=20)\n",
      "Message('control_change', channel=0, control=64, value=46, time=19)\n",
      "Message('control_change', channel=0, control=64, value=50, time=20)\n",
      "Message('control_change', channel=0, control=64, value=53, time=18)\n",
      "Message('control_change', channel=0, control=64, value=55, time=17)\n",
      "Message('control_change', channel=0, control=64, value=57, time=59)\n",
      "Message('note_on', channel=0, note=78, velocity=74, time=6)\n",
      "Message('note_on', channel=0, note=81, velocity=0, time=14)\n",
      "Message('control_change', channel=0, control=64, value=59, time=110)\n",
      "Message('control_change', channel=0, control=64, value=56, time=57)\n",
      "Message('control_change', channel=0, control=64, value=44, time=19)\n",
      "Message('note_on', channel=0, note=45, velocity=55, time=10)\n",
      "Message('note_on', channel=0, note=79, velocity=75, time=0)\n",
      "Message('note_on', channel=0, note=49, velocity=0, time=4)\n",
      "Message('control_change', channel=0, control=64, value=0, time=5)\n",
      "Message('note_on', channel=0, note=78, velocity=0, time=2)\n",
      "Message('control_change', channel=0, control=64, value=33, time=74)\n",
      "Message('control_change', channel=0, control=64, value=55, time=34)\n",
      "Message('control_change', channel=0, control=64, value=67, time=19)\n",
      "Message('control_change', channel=0, control=64, value=74, time=18)\n",
      "Message('control_change', channel=0, control=64, value=80, time=20)\n",
      "Message('control_change', channel=0, control=64, value=85, time=20)\n",
      "Message('control_change', channel=0, control=64, value=91, time=18)\n",
      "Message('note_on', channel=0, note=76, velocity=73, time=7)\n",
      "Message('control_change', channel=0, control=64, value=98, time=10)\n",
      "Message('control_change', channel=0, control=64, value=104, time=21)\n",
      "Message('note_on', channel=0, note=79, velocity=0, time=12)\n",
      "Message('control_change', channel=0, control=64, value=109, time=4)\n",
      "Message('control_change', channel=0, control=64, value=113, time=22)\n",
      "Message('control_change', channel=0, control=64, value=117, time=39)\n",
      "Message('control_change', channel=0, control=64, value=123, time=54)\n",
      "Message('control_change', channel=0, control=64, value=127, time=39)\n",
      "Message('note_on', channel=0, note=45, velocity=0, time=28)\n",
      "Message('note_on', channel=0, note=76, velocity=0, time=5)\n",
      "Message('note_on', channel=0, note=50, velocity=60, time=15)\n",
      "Message('control_change', channel=0, control=64, value=110, time=8)\n",
      "Message('note_on', channel=0, note=79, velocity=78, time=14)\n",
      "Message('control_change', channel=0, control=64, value=85, time=6)\n",
      "Message('note_on', channel=0, note=57, velocity=0, time=9)\n",
      "Message('control_change', channel=0, control=64, value=60, time=9)\n",
      "Message('control_change', channel=0, control=64, value=43, time=19)\n",
      "Message('control_change', channel=0, control=64, value=52, time=39)\n",
      "Message('control_change', channel=0, control=64, value=56, time=15)\n",
      "Message('note_on', channel=0, note=78, velocity=72, time=151)\n",
      "Message('note_on', channel=0, note=79, velocity=0, time=16)\n",
      "Message('note_on', channel=0, note=78, velocity=0, time=56)\n",
      "Message('note_on', channel=0, note=79, velocity=56, time=8)\n",
      "Message('control_change', channel=0, control=64, value=54, time=54)\n",
      "Message('control_change', channel=0, control=64, value=51, time=20)\n",
      "Message('note_on', channel=0, note=78, velocity=73, time=13)\n",
      "Message('control_change', channel=0, control=64, value=48, time=2)\n",
      "Message('note_on', channel=0, note=57, velocity=55, time=6)\n",
      "Message('note_on', channel=0, note=79, velocity=0, time=2)\n",
      "Message('control_change', channel=0, control=64, value=44, time=13)\n",
      "Message('control_change', channel=0, control=64, value=38, time=19)\n",
      "Message('control_change', channel=0, control=64, value=31, time=18)\n",
      "Message('note_on', channel=0, note=57, velocity=0, time=85)\n",
      "Message('control_change', channel=0, control=64, value=39, time=215)\n",
      "Message('control_change', channel=0, control=64, value=44, time=19)\n",
      "Message('control_change', channel=0, control=64, value=47, time=21)\n",
      "Message('control_change', channel=0, control=64, value=49, time=35)\n",
      "Message('control_change', channel=0, control=64, value=52, time=19)\n",
      "Message('note_on', channel=0, note=62, velocity=54, time=0)\n",
      "Message('control_change', channel=0, control=64, value=55, time=19)\n",
      "Message('control_change', channel=0, control=64, value=58, time=18)\n",
      "Message('control_change', channel=0, control=64, value=60, time=38)\n",
      "Message('control_change', channel=0, control=64, value=61, time=58)\n",
      "Message('note_on', channel=0, note=62, velocity=0, time=15)\n",
      "Message('control_change', channel=0, control=64, value=62, time=41)\n",
      "Message('control_change', channel=0, control=64, value=57, time=208)\n",
      "Message('control_change', channel=0, control=64, value=54, time=20)\n",
      "Message('control_change', channel=0, control=67, value=59, time=2)\n",
      "Message('note_on', channel=0, note=76, velocity=68, time=10)\n",
      "Message('control_change', channel=0, control=64, value=51, time=4)\n",
      "Message('note_on', channel=0, note=60, velocity=51, time=6)\n",
      "Message('note_on', channel=0, note=78, velocity=0, time=29)\n",
      "Message('control_change', channel=0, control=64, value=54, time=23)\n",
      "Message('control_change', channel=0, control=64, value=56, time=17)\n",
      "Message('control_change', channel=0, control=64, value=58, time=39)\n",
      "Message('control_change', channel=0, control=64, value=60, time=38)\n",
      "Message('note_on', channel=0, note=60, velocity=0, time=5)\n",
      "Message('control_change', channel=0, control=64, value=61, time=14)\n",
      "Message('control_change', channel=0, control=64, value=62, time=91)\n",
      "Message('control_change', channel=0, control=64, value=63, time=38)\n",
      "Message('control_change', channel=0, control=64, value=64, time=37)\n",
      "Message('control_change', channel=0, control=64, value=61, time=76)\n",
      "Message('control_change', channel=0, control=64, value=54, time=19)\n",
      "Message('control_change', channel=0, control=64, value=43, time=19)\n",
      "Message('note_on', channel=0, note=76, velocity=0, time=24)\n",
      "Message('note_on', channel=0, note=59, velocity=48, time=2)\n",
      "Message('note_on', channel=0, note=74, velocity=58, time=0)\n",
      "Message('control_change', channel=0, control=64, value=52, time=29)\n",
      "Message('control_change', channel=0, control=64, value=62, time=20)\n",
      "Message('control_change', channel=0, control=64, value=68, time=19)\n",
      "Message('control_change', channel=0, control=64, value=71, time=18)\n",
      "Message('control_change', channel=0, control=64, value=73, time=18)\n",
      "Message('control_change', channel=0, control=64, value=75, time=20)\n",
      "Message('control_change', channel=0, control=64, value=77, time=19)\n",
      "Message('control_change', channel=0, control=64, value=79, time=20)\n",
      "Message('note_on', channel=0, note=59, velocity=0, time=24)\n",
      "Message('control_change', channel=0, control=64, value=82, time=14)\n",
      "Message('control_change', channel=0, control=64, value=85, time=38)\n",
      "Message('control_change', channel=0, control=64, value=87, time=37)\n",
      "Message('control_change', channel=0, control=64, value=85, time=131)\n",
      "Message('control_change', channel=0, control=64, value=75, time=22)\n",
      "Message('control_change', channel=0, control=64, value=61, time=17)\n",
      "Message('control_change', channel=0, control=64, value=50, time=19)\n",
      "Message('control_change', channel=0, control=64, value=60, time=38)\n",
      "Message('note_on', channel=0, note=57, velocity=41, time=3)\n",
      "Message('control_change', channel=0, control=64, value=69, time=15)\n",
      "Message('control_change', channel=0, control=64, value=76, time=19)\n",
      "Message('control_change', channel=0, control=64, value=82, time=17)\n",
      "Message('control_change', channel=0, control=64, value=88, time=19)\n",
      "Message('note_on', channel=0, note=57, velocity=0, time=35)\n",
      "Message('control_change', channel=0, control=64, value=94, time=2)\n",
      "Message('note_on', channel=0, note=50, velocity=0, time=44)\n",
      "Message('note_on', channel=0, note=74, velocity=0, time=2)\n",
      "Message('control_change', channel=0, control=64, value=99, time=123)\n",
      "Message('note_on', channel=0, note=74, velocity=52, time=31)\n",
      "Message('note_on', channel=0, note=74, velocity=0, time=28)\n",
      "Message('note_on', channel=0, note=72, velocity=63, time=31)\n",
      "Message('note_on', channel=0, note=72, velocity=0, time=39)\n",
      "Message('control_change', channel=0, control=64, value=92, time=21)\n",
      "Message('note_on', channel=0, note=74, velocity=71, time=4)\n",
      "Message('control_change', channel=0, control=64, value=73, time=17)\n",
      "Message('note_on', channel=0, note=55, velocity=51, time=15)\n",
      "Message('control_change', channel=0, control=64, value=32, time=2)\n",
      "Message('note_on', channel=0, note=72, velocity=73, time=2)\n",
      "Message('note_on', channel=0, note=74, velocity=0, time=1)\n",
      "Message('note_on', channel=0, note=52, velocity=48, time=7)\n",
      "Message('control_change', channel=0, control=64, value=0, time=9)\n",
      "Message('control_change', channel=0, control=64, value=18, time=38)\n",
      "Message('control_change', channel=0, control=64, value=48, time=18)\n",
      "Message('control_change', channel=0, control=64, value=61, time=19)\n",
      "Message('control_change', channel=0, control=64, value=68, time=19)\n",
      "Message('control_change', channel=0, control=64, value=70, time=19)\n",
      "Message('note_on', channel=0, note=72, velocity=0, time=48)\n",
      "Message('control_change', channel=0, control=64, value=73, time=8)\n",
      "Message('note_on', channel=0, note=71, velocity=70, time=9)\n",
      "Message('control_change', channel=0, control=64, value=76, time=46)\n",
      "Message('control_change', channel=0, control=64, value=79, time=42)\n",
      "Message('control_change', channel=0, control=64, value=82, time=34)\n",
      "Message('control_change', channel=0, control=64, value=84, time=39)\n",
      "Message('note_on', channel=0, note=71, velocity=0, time=2)\n",
      "Message('control_change', channel=0, control=64, value=82, time=18)\n",
      "Message('control_change', channel=0, control=64, value=74, time=18)\n",
      "Message('note_on', channel=0, note=72, velocity=76, time=16)\n",
      "Message('control_change', channel=0, control=64, value=58, time=3)\n",
      "Message('note_on', channel=0, note=50, velocity=60, time=6)\n",
      "Message('control_change', channel=0, control=64, value=16, time=14)\n",
      "Message('note_on', channel=0, note=52, velocity=0, time=19)\n",
      "Message('control_change', channel=0, control=64, value=33, time=17)\n",
      "Message('control_change', channel=0, control=64, value=54, time=19)\n",
      "Message('note_on', channel=0, note=55, velocity=0, time=0)\n",
      "Message('control_change', channel=0, control=64, value=67, time=20)\n",
      "Message('control_change', channel=0, control=64, value=74, time=19)\n",
      "Message('control_change', channel=0, control=64, value=79, time=17)\n",
      "Message('control_change', channel=0, control=64, value=82, time=18)\n",
      "Message('control_change', channel=0, control=64, value=84, time=21)\n",
      "Message('note_on', channel=0, note=50, velocity=0, time=2)\n",
      "Message('control_change', channel=0, control=64, value=89, time=16)\n",
      "Message('control_change', channel=0, control=64, value=95, time=19)\n",
      "Message('control_change', channel=0, control=64, value=100, time=20)\n",
      "Message('control_change', channel=0, control=64, value=91, time=202)\n",
      "Message('control_change', channel=0, control=64, value=77, time=21)\n",
      "Message('control_change', channel=0, control=64, value=60, time=19)\n",
      "Message('note_on', channel=0, note=72, velocity=0, time=11)\n",
      "Message('control_change', channel=0, control=64, value=40, time=7)\n",
      "Message('note_on', channel=0, note=66, velocity=66, time=3)\n",
      "Message('note_on', channel=0, note=48, velocity=44, time=3)\n",
      "Message('note_on', channel=0, note=57, velocity=38, time=10)\n",
      "Message('control_change', channel=0, control=64, value=42, time=60)\n",
      "Message('control_change', channel=0, control=64, value=44, time=18)\n",
      "Message('control_change', channel=0, control=64, value=46, time=37)\n",
      "Message('control_change', channel=0, control=64, value=50, time=38)\n",
      "Message('control_change', channel=0, control=64, value=53, time=19)\n",
      "Message('control_change', channel=0, control=64, value=55, time=20)\n",
      "Message('control_change', channel=0, control=64, value=57, time=38)\n",
      "Message('control_change', channel=0, control=64, value=59, time=55)\n",
      "Message('control_change', channel=0, control=64, value=57, time=59)\n",
      "Message('control_change', channel=0, control=64, value=55, time=16)\n",
      "Message('note_on', channel=0, note=47, velocity=49, time=61)\n",
      "Message('control_change', channel=0, control=64, value=59, time=15)\n",
      "Message('control_change', channel=0, control=64, value=61, time=22)\n",
      "Message('control_change', channel=0, control=64, value=62, time=17)\n",
      "Message('note_on', channel=0, note=48, velocity=0, time=4)\n",
      "Message('control_change', channel=0, control=64, value=64, time=53)\n",
      "Message('control_change', channel=0, control=64, value=65, time=39)\n",
      "Message('control_change', channel=0, control=64, value=66, time=35)\n",
      "Message('note_on', channel=0, note=47, velocity=0, time=53)\n",
      "Message('control_change', channel=0, control=64, value=67, time=23)\n",
      "Message('control_change', channel=0, control=64, value=62, time=149)\n",
      "Message('control_change', channel=0, control=64, value=52, time=16)\n",
      "Message('control_change', channel=0, control=64, value=36, time=20)\n",
      "Message('note_on', channel=0, note=45, velocity=57, time=17)\n",
      "Message('control_change', channel=0, control=64, value=26, time=1)\n",
      "Message('control_change', channel=0, control=64, value=43, time=39)\n",
      "Message('control_change', channel=0, control=64, value=56, time=20)\n",
      "Message('control_change', channel=0, control=64, value=65, time=17)\n",
      "Message('control_change', channel=0, control=64, value=69, time=21)\n",
      "Message('control_change', channel=0, control=64, value=72, time=16)\n",
      "Message('control_change', channel=0, control=64, value=76, time=21)\n",
      "Message('control_change', channel=0, control=64, value=79, time=17)\n",
      "Message('note_on', channel=0, note=45, velocity=0, time=13)\n",
      "Message('control_change', channel=0, control=64, value=82, time=7)\n",
      "Message('control_change', channel=0, control=64, value=85, time=19)\n",
      "Message('control_change', channel=0, control=64, value=91, time=37)\n",
      "Message('control_change', channel=0, control=64, value=95, time=95)\n",
      "Message('control_change', channel=0, control=64, value=80, time=113)\n",
      "Message('note_on', channel=0, note=43, velocity=49, time=14)\n",
      "Message('control_change', channel=0, control=64, value=60, time=3)\n",
      "Message('note_on', channel=0, note=67, velocity=59, time=13)\n",
      "Message('control_change', channel=0, control=64, value=0, time=7)\n",
      "Message('note_on', channel=0, note=66, velocity=0, time=32)\n",
      "Message('control_change', channel=0, control=64, value=40, time=46)\n",
      "Message('control_change', channel=0, control=64, value=57, time=19)\n",
      "Message('control_change', channel=0, control=64, value=65, time=17)\n",
      "Message('note_on', channel=0, note=43, velocity=0, time=8)\n",
      "Message('control_change', channel=0, control=64, value=69, time=10)\n",
      "Message('control_change', channel=0, control=64, value=71, time=39)\n",
      "Message('note_on', channel=0, note=69, velocity=64, time=31)\n",
      "Message('note_on', channel=0, note=57, velocity=0, time=13)\n",
      "Message('control_change', channel=0, control=64, value=74, time=13)\n",
      "Message('note_on', channel=0, note=67, velocity=0, time=4)\n",
      "Message('control_change', channel=0, control=64, value=76, time=91)\n",
      "Message('control_change', channel=0, control=64, value=78, time=71)\n",
      "Message('control_change', channel=0, control=64, value=75, time=93)\n",
      "Message('note_on', channel=0, note=69, velocity=0, time=16)\n",
      "Message('note_on', channel=0, note=42, velocity=47, time=2)\n",
      "Message('control_change', channel=0, control=64, value=67, time=1)\n",
      "Message('note_on', channel=0, note=62, velocity=58, time=16)\n",
      "Message('control_change', channel=0, control=64, value=55, time=3)\n",
      "Message('control_change', channel=0, control=64, value=37, time=21)\n",
      "Message('control_change', channel=0, control=64, value=32, time=18)\n",
      "Message('control_change', channel=0, control=64, value=37, time=74)\n",
      "Message('control_change', channel=0, control=64, value=40, time=171)\n",
      "Message('control_change', channel=0, control=64, value=43, time=37)\n",
      "Message('note_on', channel=0, note=48, velocity=43, time=208)\n",
      "Message('note_on', channel=0, note=64, velocity=58, time=5)\n",
      "Message('note_on', channel=0, note=62, velocity=0, time=11)\n",
      "Message('note_on', channel=0, note=42, velocity=0, time=51)\n",
      "Message('note_on', channel=0, note=66, velocity=62, time=124)\n",
      "Message('note_on', channel=0, note=64, velocity=0, time=22)\n",
      "Message('control_change', channel=0, control=64, value=41, time=124)\n",
      "Message('note_on', channel=0, note=66, velocity=0, time=47)\n",
      "Message('control_change', channel=0, control=64, value=43, time=7)\n",
      "Message('control_change', channel=0, control=64, value=49, time=20)\n",
      "Message('note_on', channel=0, note=47, velocity=48, time=7)\n",
      "Message('note_on', channel=0, note=67, velocity=66, time=4)\n",
      "Message('control_change', channel=0, control=64, value=56, time=8)\n",
      "Message('control_change', channel=0, control=64, value=61, time=21)\n",
      "Message('note_on', channel=0, note=48, velocity=0, time=12)\n",
      "Message('control_change', channel=0, control=64, value=64, time=6)\n",
      "Message('control_change', channel=0, control=64, value=65, time=20)\n",
      "Message('control_change', channel=0, control=64, value=66, time=18)\n",
      "Message('control_change', channel=0, control=64, value=67, time=19)\n",
      "Message('control_change', channel=0, control=64, value=70, time=38)\n",
      "Message('control_change', channel=0, control=64, value=73, time=37)\n",
      "Message('note_on', channel=0, note=67, velocity=0, time=4)\n",
      "Message('note_on', channel=0, note=69, velocity=72, time=4)\n",
      "Message('control_change', channel=0, control=64, value=76, time=29)\n",
      "Message('control_change', channel=0, control=64, value=79, time=58)\n",
      "Message('control_change', channel=0, control=64, value=81, time=39)\n",
      "Message('control_change', channel=0, control=64, value=74, time=55)\n",
      "Message('control_change', channel=0, control=64, value=62, time=19)\n",
      "Message('note_on', channel=0, note=45, velocity=60, time=2)\n",
      "Message('note_on', channel=0, note=47, velocity=0, time=7)\n",
      "Message('note_on', channel=0, note=71, velocity=76, time=2)\n",
      "Message('note_on', channel=0, note=42, velocity=53, time=2)\n",
      "Message('control_change', channel=0, control=64, value=50, time=4)\n",
      "Message('note_on', channel=0, note=69, velocity=0, time=3)\n",
      "Message('control_change', channel=0, control=64, value=48, time=16)\n",
      "Message('control_change', channel=0, control=64, value=50, time=19)\n",
      "Message('control_change', channel=0, control=64, value=55, time=20)\n",
      "Message('control_change', channel=0, control=64, value=59, time=20)\n",
      "Message('control_change', channel=0, control=64, value=61, time=18)\n",
      "Message('note_on', channel=0, note=71, velocity=0, time=89)\n",
      "Message('control_change', channel=0, control=64, value=62, time=3)\n",
      "Message('note_on', channel=0, note=72, velocity=79, time=26)\n",
      "Message('control_change', channel=0, control=64, value=63, time=15)\n",
      "Message('control_change', channel=0, control=64, value=64, time=74)\n",
      "Message('note_on', channel=0, note=42, velocity=0, time=62)\n",
      "Message('control_change', channel=0, control=64, value=61, time=86)\n",
      "Message('note_on', channel=0, note=45, velocity=0, time=3)\n",
      "Message('control_change', channel=0, control=64, value=51, time=18)\n",
      "Message('note_on', channel=0, note=43, velocity=46, time=2)\n",
      "Message('note_on', channel=0, note=47, velocity=55, time=4)\n",
      "Message('note_on', channel=0, note=74, velocity=69, time=6)\n",
      "Message('note_on', channel=0, note=72, velocity=0, time=10)\n",
      "Message('control_change', channel=0, control=64, value=0, time=13)\n",
      "Message('control_change', channel=0, control=64, value=9, time=133)\n",
      "Message('control_change', channel=0, control=64, value=22, time=19)\n",
      "Message('control_change', channel=0, control=64, value=29, time=19)\n",
      "Message('note_on', channel=0, note=79, velocity=65, time=43)\n",
      "Message('control_change', channel=0, control=64, value=9, time=13)\n",
      "Message('control_change', channel=0, control=64, value=0, time=18)\n",
      "Message('note_on', channel=0, note=74, velocity=0, time=22)\n",
      "Message('control_change', channel=0, control=64, value=27, time=35)\n",
      "Message('control_change', channel=0, control=64, value=37, time=20)\n",
      "Message('control_change', channel=0, control=64, value=46, time=19)\n",
      "Message('control_change', channel=0, control=64, value=54, time=19)\n",
      "Message('control_change', channel=0, control=64, value=58, time=17)\n",
      "Message('control_change', channel=0, control=64, value=61, time=20)\n",
      "Message('control_change', channel=0, control=64, value=62, time=18)\n",
      "Message('note_on', channel=0, note=47, velocity=0, time=3)\n",
      "Message('note_on', channel=0, note=78, velocity=70, time=7)\n",
      "Message('note_on', channel=0, note=45, velocity=57, time=9)\n",
      "Message('note_on', channel=0, note=48, velocity=54, time=5)\n",
      "Message('note_on', channel=0, note=79, velocity=0, time=1)\n",
      "Message('note_on', channel=0, note=43, velocity=0, time=8)\n",
      "Message('control_change', channel=0, control=64, value=63, time=2)\n",
      "Message('control_change', channel=0, control=64, value=64, time=21)\n",
      "Message('control_change', channel=0, control=64, value=66, time=16)\n",
      "Message('control_change', channel=0, control=64, value=67, time=19)\n",
      "Message('control_change', channel=0, control=64, value=69, time=58)\n",
      "Message('note_on', channel=0, note=45, velocity=0, time=41)\n",
      "Message('note_on', channel=0, note=76, velocity=70, time=28)\n",
      "Message('note_on', channel=0, note=78, velocity=0, time=52)\n",
      "Message('control_change', channel=0, control=64, value=62, time=144)\n",
      "Message('control_change', channel=0, control=64, value=42, time=32)\n",
      "Message('control_change', channel=0, control=64, value=0, time=19)\n",
      "Message('note_on', channel=0, note=47, velocity=52, time=9)\n",
      "Message('note_on', channel=0, note=50, velocity=53, time=3)\n",
      "Message('note_on', channel=0, note=74, velocity=70, time=5)\n",
      "Message('note_on', channel=0, note=76, velocity=0, time=18)\n",
      "Message('note_on', channel=0, note=48, velocity=0, time=8)\n",
      "Message('control_change', channel=0, control=64, value=29, time=68)\n",
      "Message('control_change', channel=0, control=64, value=50, time=19)\n",
      "Message('note_on', channel=0, note=74, velocity=0, time=13)\n",
      "Message('control_change', channel=0, control=64, value=61, time=6)\n",
      "Message('control_change', channel=0, control=64, value=66, time=20)\n",
      "Message('note_on', channel=0, note=72, velocity=66, time=4)\n",
      "Message('control_change', channel=0, control=64, value=68, time=14)\n",
      "Message('note_on', channel=0, note=47, velocity=0, time=8)\n",
      "Message('note_on', channel=0, note=50, velocity=0, time=10)\n",
      "Message('control_change', channel=0, control=64, value=72, time=19)\n",
      "Message('control_change', channel=0, control=64, value=75, time=39)\n",
      "Message('note_on', channel=0, note=72, velocity=0, time=40)\n",
      "Message('note_on', channel=0, note=71, velocity=73, time=3)\n",
      "Message('control_change', channel=0, control=64, value=73, time=108)\n",
      "Message('control_change', channel=0, control=64, value=71, time=20)\n",
      "Message('control_change', channel=0, control=64, value=68, time=36)\n",
      "Message('control_change', channel=0, control=64, value=67, time=19)\n",
      "Message('note_on', channel=0, note=55, velocity=54, time=4)\n",
      "Message('note_on', channel=0, note=48, velocity=46, time=9)\n",
      "Message('control_change', channel=0, control=64, value=65, time=6)\n",
      "Message('control_change', channel=0, control=64, value=64, time=18)\n",
      "Message('note_on', channel=0, note=76, velocity=66, time=14)\n",
      "Message('control_change', channel=0, control=64, value=63, time=6)\n",
      "Message('control_change', channel=0, control=64, value=62, time=17)\n",
      "Message('note_on', channel=0, note=71, velocity=0, time=12)\n",
      "Message('control_change', channel=0, control=64, value=61, time=27)\n",
      "Message('note_on', channel=0, note=76, velocity=0, time=81)\n",
      "Message('control_change', channel=0, control=64, value=60, time=13)\n",
      "Message('note_on', channel=0, note=74, velocity=58, time=0)\n",
      "Message('control_change', channel=0, control=67, value=63, time=40)\n",
      "Message('note_on', channel=0, note=72, velocity=63, time=93)\n",
      "Message('note_on', channel=0, note=74, velocity=0, time=0)\n",
      "Message('control_change', channel=0, control=64, value=58, time=57)\n",
      "Message('control_change', channel=0, control=64, value=55, time=52)\n",
      "Message('control_change', channel=0, control=64, value=51, time=18)\n",
      "Message('note_on', channel=0, note=48, velocity=0, time=14)\n",
      "Message('control_change', channel=0, control=64, value=40, time=6)\n",
      "Message('control_change', channel=0, control=64, value=9, time=19)\n",
      "Message('note_on', channel=0, note=50, velocity=47, time=6)\n",
      "Message('control_change', channel=0, control=64, value=0, time=12)\n",
      "Message('note_on', channel=0, note=72, velocity=0, time=2)\n",
      "Message('note_on', channel=0, note=71, velocity=59, time=11)\n",
      "Message('control_change', channel=0, control=67, value=67, time=119)\n",
      "Message('control_change', channel=0, control=64, value=9, time=247)\n",
      "Message('control_change', channel=0, control=64, value=46, time=18)\n",
      "Message('control_change', channel=0, control=64, value=63, time=19)\n",
      "Message('note_on', channel=0, note=71, velocity=0, time=2)\n",
      "Message('control_change', channel=0, control=64, value=72, time=17)\n",
      "Message('control_change', channel=0, control=64, value=76, time=18)\n",
      "Message('control_change', channel=0, control=64, value=80, time=19)\n",
      "Message('note_on', channel=0, note=52, velocity=39, time=14)\n",
      "Message('control_change', channel=0, control=64, value=87, time=4)\n",
      "Message('control_change', channel=0, control=64, value=99, time=18)\n",
      "Message('control_change', channel=0, control=64, value=111, time=21)\n",
      "Message('control_change', channel=0, control=64, value=120, time=18)\n",
      "Message('control_change', channel=0, control=64, value=124, time=78)\n",
      "Message('control_change', channel=0, control=64, value=119, time=316)\n",
      "Message('control_change', channel=0, control=64, value=112, time=18)\n",
      "Message('control_change', channel=0, control=64, value=98, time=18)\n",
      "Message('control_change', channel=0, control=64, value=82, time=20)\n",
      "Message('note_on', channel=0, note=54, velocity=42, time=10)\n",
      "Message('note_on', channel=0, note=52, velocity=0, time=3)\n",
      "Message('control_change', channel=0, control=64, value=67, time=4)\n",
      "Message('note_on', channel=0, note=71, velocity=42, time=2)\n",
      "Message('control_change', channel=0, control=64, value=58, time=18)\n",
      "Message('note_on', channel=0, note=71, velocity=0, time=23)\n",
      "Message('note_on', channel=0, note=69, velocity=57, time=30)\n",
      "Message('note_on', channel=0, note=55, velocity=0, time=6)\n",
      "Message('note_on', channel=0, note=69, velocity=0, time=41)\n",
      "Message('note_on', channel=0, note=71, velocity=52, time=19)\n",
      "Message('note_on', channel=0, note=71, velocity=0, time=49)\n",
      "Message('note_on', channel=0, note=69, velocity=56, time=24)\n",
      "Message('control_change', channel=0, control=64, value=56, time=148)\n",
      "Message('control_change', channel=0, control=64, value=54, time=38)\n",
      "Message('control_change', channel=0, control=64, value=50, time=18)\n",
      "Message('control_change', channel=0, control=64, value=40, time=19)\n",
      "Message('control_change', channel=0, control=64, value=0, time=18)\n",
      "Message('note_on', channel=0, note=54, velocity=0, time=99)\n",
      "Message('note_on', channel=0, note=60, velocity=42, time=5)\n",
      "Message('control_change', channel=0, control=64, value=16, time=68)\n",
      "Message('control_change', channel=0, control=64, value=35, time=20)\n",
      "Message('control_change', channel=0, control=64, value=48, time=17)\n",
      "Message('control_change', channel=0, control=64, value=56, time=19)\n",
      "Message('control_change', channel=0, control=64, value=59, time=19)\n",
      "Message('control_change', channel=0, control=64, value=61, time=19)\n",
      "Message('control_change', channel=0, control=64, value=62, time=20)\n",
      "Message('control_change', channel=0, control=64, value=64, time=37)\n",
      "Message('control_change', channel=0, control=64, value=65, time=20)\n",
      "Message('note_on', channel=0, note=67, velocity=56, time=11)\n",
      "Message('control_change', channel=0, control=64, value=66, time=21)\n",
      "Message('control_change', channel=0, control=64, value=67, time=39)\n",
      "Message('note_on', channel=0, note=69, velocity=0, time=52)\n",
      "Message('note_on', channel=0, note=67, velocity=0, time=40)\n",
      "Message('control_change', channel=0, control=64, value=69, time=20)\n",
      "Message('note_on', channel=0, note=50, velocity=0, time=83)\n",
      "Message('control_change', channel=0, control=64, value=68, time=31)\n",
      "Message('control_change', channel=0, control=64, value=63, time=19)\n",
      "Message('note_on', channel=0, note=55, velocity=44, time=0)\n",
      "Message('note_on', channel=0, note=67, velocity=54, time=15)\n",
      "Message('control_change', channel=0, control=64, value=54, time=2)\n",
      "Message('control_change', channel=0, control=64, value=43, time=20)\n",
      "Message('control_change', channel=0, control=64, value=36, time=19)\n",
      "Message('note_on', channel=0, note=60, velocity=0, time=487)\n",
      "Message('note_on', channel=0, note=59, velocity=50, time=21)\n",
      "Message('control_change', channel=0, control=67, value=63, time=225)\n",
      "Message('note_on', channel=0, note=59, velocity=0, time=16)\n",
      "Message('note_on', channel=0, note=57, velocity=40, time=29)\n",
      "Message('note_on', channel=0, note=55, velocity=0, time=125)\n",
      "Message('control_change', channel=0, control=64, value=32, time=75)\n",
      "Message('control_change', channel=0, control=64, value=28, time=18)\n",
      "Message('control_change', channel=0, control=64, value=23, time=37)\n",
      "Message('note_on', channel=0, note=57, velocity=0, time=54)\n",
      "Message('note_on', channel=0, note=59, velocity=47, time=0)\n",
      "Message('control_change', channel=0, control=64, value=27, time=98)\n",
      "Message('control_change', channel=0, control=64, value=31, time=78)\n",
      "Message('control_change', channel=0, control=64, value=36, time=73)\n",
      "Message('control_change', channel=0, control=64, value=28, time=394)\n",
      "Message('note_on', channel=0, note=55, velocity=37, time=49)\n",
      "Message('control_change', channel=0, control=67, value=67, time=6)\n",
      "Message('control_change', channel=0, control=64, value=41, time=38)\n",
      "Message('control_change', channel=0, control=64, value=52, time=19)\n",
      "Message('control_change', channel=0, control=64, value=61, time=20)\n",
      "Message('control_change', channel=0, control=64, value=67, time=19)\n",
      "Message('control_change', channel=0, control=64, value=71, time=16)\n",
      "Message('note_on', channel=0, note=59, velocity=0, time=0)\n",
      "Message('control_change', channel=0, control=64, value=74, time=20)\n",
      "Message('control_change', channel=0, control=64, value=79, time=20)\n",
      "Message('control_change', channel=0, control=64, value=84, time=19)\n",
      "Message('control_change', channel=0, control=64, value=90, time=17)\n",
      "Message('control_change', channel=0, control=64, value=95, time=19)\n",
      "Message('control_change', channel=0, control=64, value=101, time=20)\n",
      "Message('control_change', channel=0, control=64, value=107, time=19)\n",
      "Message('control_change', channel=0, control=64, value=113, time=38)\n",
      "Message('control_change', channel=0, control=64, value=109, time=676)\n",
      "Message('control_change', channel=0, control=64, value=104, time=37)\n",
      "Message('control_change', channel=0, control=64, value=99, time=18)\n",
      "Message('control_change', channel=0, control=64, value=94, time=21)\n",
      "Message('note_on', channel=0, note=43, velocity=41, time=14)\n",
      "Message('control_change', channel=0, control=64, value=88, time=3)\n",
      "Message('control_change', channel=0, control=64, value=82, time=18)\n",
      "Message('control_change', channel=0, control=64, value=75, time=20)\n",
      "Message('control_change', channel=0, control=64, value=69, time=20)\n",
      "Message('control_change', channel=0, control=64, value=66, time=19)\n",
      "Message('control_change', channel=0, control=64, value=65, time=17)\n",
      "Message('control_change', channel=0, control=64, value=63, time=19)\n",
      "Message('control_change', channel=0, control=64, value=61, time=20)\n",
      "Message('control_change', channel=0, control=64, value=57, time=18)\n",
      "Message('control_change', channel=0, control=64, value=52, time=21)\n",
      "Message('control_change', channel=0, control=64, value=48, time=17)\n",
      "Message('control_change', channel=0, control=64, value=44, time=20)\n",
      "Message('control_change', channel=0, control=64, value=42, time=38)\n",
      "Message('control_change', channel=0, control=64, value=40, time=37)\n",
      "Message('control_change', channel=0, control=64, value=44, time=486)\n",
      "Message('control_change', channel=0, control=64, value=49, time=20)\n",
      "Message('control_change', channel=0, control=64, value=54, time=19)\n",
      "Message('control_change', channel=0, control=64, value=58, time=19)\n",
      "Message('control_change', channel=0, control=64, value=61, time=20)\n",
      "Message('control_change', channel=0, control=64, value=62, time=19)\n",
      "Message('control_change', channel=0, control=64, value=65, time=19)\n",
      "Message('control_change', channel=0, control=64, value=67, time=17)\n",
      "Message('control_change', channel=0, control=64, value=70, time=19)\n",
      "Message('control_change', channel=0, control=64, value=72, time=20)\n",
      "Message('control_change', channel=0, control=64, value=76, time=19)\n",
      "Message('control_change', channel=0, control=64, value=78, time=17)\n",
      "Message('control_change', channel=0, control=64, value=80, time=19)\n",
      "Message('control_change', channel=0, control=64, value=85, time=39)\n",
      "Message('control_change', channel=0, control=64, value=89, time=17)\n",
      "Message('control_change', channel=0, control=64, value=95, time=20)\n",
      "Message('control_change', channel=0, control=64, value=102, time=17)\n",
      "Message('control_change', channel=0, control=64, value=109, time=21)\n",
      "Message('control_change', channel=0, control=64, value=113, time=17)\n",
      "Message('note_on', channel=0, note=43, velocity=0, time=38)\n",
      "Message('note_on', channel=0, note=55, velocity=0, time=42)\n",
      "Message('note_on', channel=0, note=67, velocity=0, time=29)\n",
      "Message('control_change', channel=0, control=64, value=109, time=663)\n",
      "Message('control_change', channel=0, control=64, value=103, time=56)\n",
      "Message('control_change', channel=0, control=64, value=97, time=38)\n",
      "Message('control_change', channel=0, control=64, value=93, time=37)\n",
      "Message('control_change', channel=0, control=64, value=89, time=77)\n",
      "Message('control_change', channel=0, control=64, value=86, time=56)\n",
      "Message('control_change', channel=0, control=64, value=83, time=37)\n",
      "Message('control_change', channel=0, control=64, value=80, time=38)\n",
      "Message('control_change', channel=0, control=64, value=77, time=36)\n",
      "Message('control_change', channel=0, control=64, value=75, time=21)\n",
      "Message('control_change', channel=0, control=64, value=73, time=17)\n",
      "Message('control_change', channel=0, control=64, value=71, time=21)\n",
      "Message('control_change', channel=0, control=64, value=69, time=74)\n",
      "Message('control_change', channel=0, control=64, value=67, time=20)\n",
      "Message('control_change', channel=0, control=64, value=66, time=19)\n",
      "Message('control_change', channel=0, control=64, value=65, time=74)\n",
      "Message('control_change', channel=0, control=64, value=62, time=38)\n",
      "Message('control_change', channel=0, control=64, value=61, time=36)\n",
      "Message('control_change', channel=0, control=64, value=60, time=74)\n",
      "Message('control_change', channel=0, control=64, value=58, time=170)\n",
      "Message('control_change', channel=0, control=64, value=56, time=75)\n",
      "Message('control_change', channel=0, control=64, value=53, time=38)\n",
      "Message('control_change', channel=0, control=64, value=50, time=39)\n",
      "Message('control_change', channel=0, control=64, value=48, time=56)\n",
      "Message('control_change', channel=0, control=64, value=46, time=58)\n",
      "Message('control_change', channel=0, control=64, value=44, time=111)\n",
      "Message('control_change', channel=0, control=67, value=63, time=96)\n",
      "Message('control_change', channel=0, control=64, value=37, time=94)\n",
      "Message('control_change', channel=0, control=64, value=0, time=19)\n",
      "Message('note_on', channel=0, note=83, velocity=60, time=1)\n",
      "Message('note_on', channel=0, note=74, velocity=57, time=1)\n",
      "Message('note_on', channel=0, note=55, velocity=37, time=12)\n",
      "Message('note_on', channel=0, note=74, velocity=0, time=12)\n",
      "Message('note_on', channel=0, note=83, velocity=0, time=16)\n",
      "Message('note_on', channel=0, note=55, velocity=0, time=8)\n",
      "Message('note_on', channel=0, note=79, velocity=63, time=318)\n",
      "Message('note_on', channel=0, note=67, velocity=50, time=3)\n",
      "Message('note_on', channel=0, note=71, velocity=44, time=18)\n",
      "Message('note_on', channel=0, note=79, velocity=0, time=19)\n",
      "Message('note_on', channel=0, note=67, velocity=0, time=2)\n",
      "Message('note_on', channel=0, note=71, velocity=0, time=12)\n",
      "Message('note_on', channel=0, note=74, velocity=69, time=291)\n",
      "Message('note_on', channel=0, note=69, velocity=58, time=14)\n",
      "Message('note_on', channel=0, note=66, velocity=45, time=3)\n",
      "Message('control_change', channel=0, control=64, value=55, time=2)\n",
      "Message('note_on', channel=0, note=74, velocity=0, time=17)\n",
      "Message('control_change', channel=0, control=64, value=73, time=1)\n",
      "Message('control_change', channel=0, control=64, value=85, time=19)\n",
      "Message('note_on', channel=0, note=69, velocity=0, time=16)\n",
      "Message('note_on', channel=0, note=66, velocity=0, time=4)\n",
      "Message('control_change', channel=0, control=64, value=96, time=1)\n",
      "Message('control_change', channel=0, control=64, value=105, time=17)\n",
      "Message('control_change', channel=0, control=64, value=112, time=19)\n",
      "Message('control_change', channel=0, control=64, value=116, time=38)\n",
      "Message('note_on', channel=0, note=76, velocity=68, time=180)\n",
      "Message('control_change', channel=0, control=64, value=111, time=8)\n",
      "Message('note_on', channel=0, note=54, velocity=52, time=0)\n",
      "Message('note_on', channel=0, note=54, velocity=0, time=52)\n",
      "Message('control_change', channel=0, control=64, value=105, time=1)\n",
      "Message('note_on', channel=0, note=76, velocity=0, time=0)\n",
      "Message('control_change', channel=0, control=64, value=101, time=40)\n",
      "Message('control_change', channel=0, control=64, value=95, time=36)\n",
      "Message('note_on', channel=0, note=78, velocity=74, time=13)\n",
      "Message('control_change', channel=0, control=64, value=89, time=6)\n",
      "Message('control_change', channel=0, control=64, value=78, time=20)\n",
      "Message('note_on', channel=0, note=78, velocity=0, time=5)\n",
      "Message('control_change', channel=0, control=64, value=60, time=12)\n",
      "Message('control_change', channel=0, control=64, value=0, time=19)\n",
      "Message('note_on', channel=0, note=79, velocity=69, time=79)\n",
      "Message('note_on', channel=0, note=52, velocity=54, time=5)\n",
      "Message('note_on', channel=0, note=71, velocity=54, time=17)\n",
      "Message('note_on', channel=0, note=79, velocity=0, time=18)\n",
      "Message('note_on', channel=0, note=52, velocity=0, time=6)\n",
      "Message('note_on', channel=0, note=71, velocity=0, time=4)\n",
      "Message('note_on', channel=0, note=76, velocity=71, time=264)\n",
      "Message('note_on', channel=0, note=64, velocity=55, time=13)\n",
      "Message('note_on', channel=0, note=67, velocity=62, time=1)\n",
      "Message('note_on', channel=0, note=76, velocity=0, time=23)\n",
      "Message('note_on', channel=0, note=67, velocity=0, time=9)\n",
      "Message('note_on', channel=0, note=64, velocity=0, time=5)\n",
      "Message('note_on', channel=0, note=71, velocity=66, time=268)\n",
      "Message('note_on', channel=0, note=66, velocity=54, time=18)\n",
      "Message('note_on', channel=0, note=62, velocity=54, time=4)\n",
      "Message('control_change', channel=0, control=64, value=29, time=21)\n",
      "Message('note_on', channel=0, note=62, velocity=0, time=33)\n",
      "Message('control_change', channel=0, control=64, value=53, time=1)\n",
      "Message('control_change', channel=0, control=64, value=64, time=20)\n",
      "Message('control_change', channel=0, control=64, value=70, time=20)\n",
      "Message('control_change', channel=0, control=64, value=76, time=18)\n",
      "Message('control_change', channel=0, control=64, value=82, time=18)\n",
      "Message('control_change', channel=0, control=64, value=90, time=19)\n",
      "Message('control_change', channel=0, control=64, value=97, time=19)\n",
      "Message('note_on', channel=0, note=66, velocity=0, time=13)\n",
      "Message('control_change', channel=0, control=64, value=102, time=4)\n",
      "Message('control_change', channel=0, control=64, value=109, time=39)\n",
      "Message('note_on', channel=0, note=71, velocity=0, time=85)\n",
      "Message('note_on', channel=0, note=50, velocity=60, time=1)\n",
      "Message('note_on', channel=0, note=50, velocity=0, time=48)\n",
      "Message('control_change', channel=0, control=64, value=82, time=244)\n",
      "Message('control_change', channel=0, control=64, value=0, time=18)\n",
      "Message('note_on', channel=0, note=48, velocity=57, time=2)\n",
      "Message('note_on', channel=0, note=76, velocity=66, time=2)\n",
      "Message('note_on', channel=0, note=67, velocity=64, time=13)\n",
      "Message('note_on', channel=0, note=48, velocity=0, time=18)\n",
      "Message('note_on', channel=0, note=76, velocity=0, time=5)\n",
      "Message('note_on', channel=0, note=67, velocity=0, time=11)\n",
      "Message('note_on', channel=0, note=72, velocity=68, time=266)\n",
      "Message('note_on', channel=0, note=60, velocity=58, time=5)\n",
      "Message('note_on', channel=0, note=69, velocity=60, time=1)\n",
      "Message('note_on', channel=0, note=72, velocity=0, time=27)\n",
      "Message('note_on', channel=0, note=69, velocity=0, time=7)\n",
      "Message('note_on', channel=0, note=60, velocity=0, time=3)\n",
      "Message('control_change', channel=0, control=64, value=27, time=299)\n",
      "Message('note_on', channel=0, note=62, velocity=55, time=15)\n",
      "Message('note_on', channel=0, note=69, velocity=66, time=0)\n",
      "Message('control_change', channel=0, control=64, value=48, time=3)\n",
      "Message('note_on', channel=0, note=66, velocity=62, time=2)\n",
      "Message('control_change', channel=0, control=64, value=62, time=19)\n",
      "Message('control_change', channel=0, control=64, value=72, time=17)\n",
      "Message('note_on', channel=0, note=62, velocity=0, time=2)\n",
      "Message('control_change', channel=0, control=64, value=80, time=15)\n",
      "Message('control_change', channel=0, control=64, value=89, time=21)\n",
      "Message('control_change', channel=0, control=64, value=97, time=18)\n",
      "Message('control_change', channel=0, control=64, value=103, time=18)\n",
      "Message('note_on', channel=0, note=66, velocity=0, time=15)\n",
      "Message('note_on', channel=0, note=66, velocity=27, time=0)\n",
      "Message('control_change', channel=0, control=64, value=107, time=23)\n",
      "Message('note_on', channel=0, note=66, velocity=0, time=157)\n",
      "Message('note_on', channel=0, note=57, velocity=63, time=4)\n",
      "Message('note_on', channel=0, note=71, velocity=67, time=12)\n",
      "Message('note_on', channel=0, note=69, velocity=0, time=30)\n",
      "Message('note_on', channel=0, note=57, velocity=0, time=8)\n",
      "Message('note_on', channel=0, note=71, velocity=0, time=83)\n",
      "Message('note_on', channel=0, note=72, velocity=72, time=9)\n",
      "Message('control_change', channel=0, control=64, value=102, time=75)\n",
      "Message('control_change', channel=0, control=64, value=94, time=20)\n",
      "Message('control_change', channel=0, control=64, value=70, time=19)\n",
      "Message('control_change', channel=0, control=64, value=0, time=16)\n",
      "Message('note_on', channel=0, note=74, velocity=67, time=19)\n",
      "Message('note_on', channel=0, note=69, velocity=65, time=3)\n",
      "Message('note_on', channel=0, note=54, velocity=63, time=6)\n",
      "Message('note_on', channel=0, note=72, velocity=0, time=10)\n",
      "Message('control_change', channel=0, control=64, value=23, time=55)\n",
      "Message('note_on', channel=0, note=54, velocity=0, time=9)\n",
      "Message('control_change', channel=0, control=64, value=54, time=8)\n",
      "Message('control_change', channel=0, control=64, value=66, time=21)\n",
      "Message('control_change', channel=0, control=64, value=71, time=18)\n",
      "Message('note_on', channel=0, note=74, velocity=0, time=20)\n",
      "Message('note_on', channel=0, note=71, velocity=63, time=13)\n",
      "Message('control_change', channel=0, control=64, value=73, time=4)\n",
      "Message('note_on', channel=0, note=69, velocity=0, time=2)\n",
      "Message('control_change', channel=0, control=64, value=67, time=112)\n",
      "Message('control_change', channel=0, control=64, value=56, time=19)\n",
      "Message('control_change', channel=0, control=64, value=40, time=21)\n",
      "Message('note_on', channel=0, note=50, velocity=55, time=1)\n",
      "Message('note_on', channel=0, note=72, velocity=66, time=1)\n",
      "Message('note_on', channel=0, note=71, velocity=0, time=13)\n",
      "Message('control_change', channel=0, control=64, value=44, time=21)\n",
      "Message('note_on', channel=0, note=50, velocity=0, time=13)\n",
      "Message('control_change', channel=0, control=64, value=52, time=6)\n",
      "Message('control_change', channel=0, control=64, value=55, time=18)\n",
      "Message('note_on', channel=0, note=69, velocity=63, time=68)\n",
      "Message('note_on', channel=0, note=72, velocity=0, time=15)\n",
      "Message('control_change', channel=0, control=64, value=57, time=11)\n",
      "Message('control_change', channel=0, control=64, value=54, time=38)\n",
      "Message('control_change', channel=0, control=64, value=41, time=21)\n",
      "Message('control_change', channel=0, control=64, value=0, time=17)\n",
      "Message('note_on', channel=0, note=69, velocity=0, time=51)\n",
      "Message('control_change', channel=0, control=64, value=29, time=6)\n",
      "Message('note_on', channel=0, note=55, velocity=51, time=6)\n",
      "Message('note_on', channel=0, note=72, velocity=66, time=5)\n",
      "Message('note_on', channel=0, note=67, velocity=51, time=6)\n",
      "Message('control_change', channel=0, control=64, value=46, time=1)\n",
      "Message('control_change', channel=0, control=64, value=57, time=19)\n",
      "Message('control_change', channel=0, control=64, value=61, time=20)\n",
      "Message('note_on', channel=0, note=55, velocity=0, time=1)\n",
      "Message('note_on', channel=0, note=67, velocity=0, time=12)\n",
      "Message('control_change', channel=0, control=64, value=64, time=3)\n",
      "Message('control_change', channel=0, control=64, value=66, time=19)\n",
      "Message('note_on', channel=0, note=71, velocity=67, time=58)\n",
      "Message('note_on', channel=0, note=72, velocity=0, time=2)\n",
      "Message('control_change', channel=0, control=64, value=62, time=57)\n",
      "Message('control_change', channel=0, control=64, value=53, time=18)\n",
      "Message('control_change', channel=0, control=64, value=46, time=18)\n",
      "Message('control_change', channel=0, control=64, value=49, time=18)\n",
      "Message('control_change', channel=0, control=64, value=59, time=21)\n",
      "Message('note_on', channel=0, note=71, velocity=0, time=16)\n",
      "Message('control_change', channel=0, control=64, value=69, time=1)\n",
      "Message('note_on', channel=0, note=69, velocity=67, time=1)\n",
      "Message('note_on', channel=0, note=50, velocity=57, time=4)\n",
      "Message('control_change', channel=0, control=64, value=77, time=14)\n",
      "Message('control_change', channel=0, control=64, value=87, time=19)\n",
      "Message('note_on', channel=0, note=50, velocity=0, time=8)\n",
      "Message('control_change', channel=0, control=64, value=95, time=12)\n",
      "Message('control_change', channel=0, control=64, value=99, time=18)\n",
      "Message('note_on', channel=0, note=69, velocity=0, time=8)\n",
      "Message('note_on', channel=0, note=67, velocity=68, time=73)\n",
      "Message('note_on', channel=0, note=67, velocity=0, time=52)\n",
      "Message('control_change', channel=0, control=64, value=104, time=15)\n",
      "Message('control_change', channel=0, control=64, value=110, time=19)\n",
      "Message('control_change', channel=0, control=64, value=119, time=17)\n",
      "Message('control_change', channel=0, control=64, value=126, time=19)\n",
      "Message('note_on', channel=0, note=43, velocity=75, time=19)\n",
      "Message('control_change', channel=0, control=64, value=120, time=1)\n",
      "Message('note_on', channel=0, note=83, velocity=75, time=14)\n",
      "Message('note_on', channel=0, note=74, velocity=76, time=3)\n",
      "Message('control_change', channel=0, control=64, value=85, time=2)\n",
      "Message('control_change', channel=0, control=64, value=0, time=18)\n",
      "Message('note_on', channel=0, note=74, velocity=0, time=0)\n",
      "Message('note_on', channel=0, note=83, velocity=0, time=3)\n",
      "Message('note_on', channel=0, note=50, velocity=62, time=107)\n",
      "Message('note_on', channel=0, note=43, velocity=0, time=10)\n",
      "Message('note_on', channel=0, note=50, velocity=0, time=124)\n",
      "Message('note_on', channel=0, note=79, velocity=72, time=21)\n",
      "Message('note_on', channel=0, note=71, velocity=72, time=2)\n",
      "Message('note_on', channel=0, note=52, velocity=67, time=3)\n",
      "Message('note_on', channel=0, note=71, velocity=0, time=27)\n",
      "Message('note_on', channel=0, note=79, velocity=0, time=5)\n",
      "Message('note_on', channel=0, note=54, velocity=68, time=107)\n",
      "Message('note_on', channel=0, note=52, velocity=0, time=16)\n",
      "Message('note_on', channel=0, note=76, velocity=73, time=148)\n",
      "Message('note_on', channel=0, note=55, velocity=67, time=5)\n",
      "Message('note_on', channel=0, note=73, velocity=73, time=2)\n",
      "Message('note_on', channel=0, note=54, velocity=0, time=22)\n",
      "Message('control_change', channel=0, control=64, value=54, time=23)\n",
      "Message('control_change', channel=0, control=64, value=67, time=16)\n",
      "Message('control_change', channel=0, control=64, value=73, time=19)\n",
      "Message('control_change', channel=0, control=64, value=78, time=20)\n",
      "Message('control_change', channel=0, control=64, value=82, time=19)\n",
      "Message('control_change', channel=0, control=64, value=86, time=34)\n",
      "Message('note_on', channel=0, note=57, velocity=67, time=6)\n",
      "Message('note_on', channel=0, note=55, velocity=0, time=2)\n",
      "Message('control_change', channel=0, control=64, value=92, time=11)\n",
      "Message('control_change', channel=0, control=64, value=99, time=20)\n",
      "Message('control_change', channel=0, control=64, value=105, time=18)\n",
      "Message('note_on', channel=0, note=73, velocity=0, time=6)\n",
      "Message('note_on', channel=0, note=76, velocity=0, time=9)\n",
      "Message('note_on', channel=0, note=57, velocity=0, time=99)\n",
      "Message('note_on', channel=0, note=55, velocity=62, time=1)\n",
      "Message('note_on', channel=0, note=76, velocity=71, time=25)\n",
      "Message('note_on', channel=0, note=73, velocity=61, time=6)\n",
      "Message('note_on', channel=0, note=73, velocity=0, time=23)\n",
      "Message('note_on', channel=0, note=76, velocity=0, time=16)\n",
      "Message('control_change', channel=0, control=64, value=100, time=60)\n",
      "Message('note_on', channel=0, note=78, velocity=80, time=4)\n",
      "Message('note_on', channel=0, note=54, velocity=64, time=6)\n",
      "Message('control_change', channel=0, control=64, value=77, time=7)\n",
      "Message('note_on', channel=0, note=74, velocity=75, time=0)\n",
      "Message('note_on', channel=0, note=55, velocity=0, time=9)\n",
      "Message('control_change', channel=0, control=64, value=0, time=12)\n",
      "Message('note_on', channel=0, note=74, velocity=0, time=13)\n",
      "Message('note_on', channel=0, note=78, velocity=0, time=8)\n",
      "Message('note_on', channel=0, note=54, velocity=0, time=92)\n",
      "Message('note_on', channel=0, note=52, velocity=67, time=1)\n",
      "Message('note_on', channel=0, note=76, velocity=77, time=0)\n",
      "Message('note_on', channel=0, note=79, velocity=76, time=1)\n",
      "Message('note_on', channel=0, note=76, velocity=0, time=26)\n",
      "Message('note_on', channel=0, note=79, velocity=0, time=2)\n",
      "Message('note_on', channel=0, note=50, velocity=69, time=101)\n",
      "Message('note_on', channel=0, note=52, velocity=0, time=9)\n",
      "Message('note_on', channel=0, note=50, velocity=0, time=138)\n",
      "Message('note_on', channel=0, note=52, velocity=68, time=8)\n",
      "Message('note_on', channel=0, note=76, velocity=77, time=3)\n",
      "Message('note_on', channel=0, note=73, velocity=72, time=11)\n",
      "Message('note_on', channel=0, note=73, velocity=0, time=27)\n",
      "Message('note_on', channel=0, note=76, velocity=0, time=5)\n",
      "Message('note_on', channel=0, note=54, velocity=62, time=99)\n",
      "Message('note_on', channel=0, note=52, velocity=0, time=6)\n",
      "Message('note_on', channel=0, note=73, velocity=75, time=167)\n",
      "Message('note_on', channel=0, note=55, velocity=68, time=3)\n",
      "Message('note_on', channel=0, note=69, velocity=72, time=2)\n",
      "Message('control_change', channel=0, control=64, value=54, time=11)\n",
      "Message('note_on', channel=0, note=54, velocity=0, time=8)\n",
      "Message('control_change', channel=0, control=64, value=71, time=11)\n",
      "Message('control_change', channel=0, control=64, value=76, time=18)\n",
      "Message('control_change', channel=0, control=64, value=79, time=38)\n",
      "Message('control_change', channel=0, control=64, value=81, time=18)\n",
      "Message('note_on', channel=0, note=55, velocity=0, time=7)\n",
      "Message('control_change', channel=0, control=64, value=85, time=12)\n",
      "Message('note_on', channel=0, note=57, velocity=65, time=3)\n",
      "Message('control_change', channel=0, control=64, value=90, time=16)\n",
      "Message('note_on', channel=0, note=73, velocity=0, time=11)\n",
      "Message('control_change', channel=0, control=64, value=94, time=9)\n",
      "Message('control_change', channel=0, control=64, value=98, time=38)\n",
      "Message('note_on', channel=0, note=59, velocity=72, time=91)\n",
      "Message('note_on', channel=0, note=57, velocity=0, time=7)\n",
      "Message('note_on', channel=0, note=74, velocity=74, time=5)\n",
      "Message('control_change', channel=0, control=67, value=59, time=86)\n",
      "Message('note_on', channel=0, note=61, velocity=76, time=42)\n",
      "Message('note_on', channel=0, note=76, velocity=76, time=11)\n",
      "Message('note_on', channel=0, note=59, velocity=0, time=1)\n",
      "Message('note_on', channel=0, note=74, velocity=0, time=30)\n",
      "Message('note_on', channel=0, note=61, velocity=0, time=83)\n",
      "Message('control_change', channel=0, control=64, value=80, time=20)\n",
      "Message('note_on', channel=0, note=78, velocity=79, time=9)\n",
      "Message('note_on', channel=0, note=62, velocity=82, time=2)\n",
      "Message('control_change', channel=0, control=64, value=0, time=8)\n",
      "Message('note_on', channel=0, note=76, velocity=0, time=18)\n",
      "Message('control_change', channel=0, control=67, value=55, time=1)\n",
      "Message('note_on', channel=0, note=62, velocity=0, time=11)\n",
      "Message('note_on', channel=0, note=74, velocity=74, time=103)\n",
      "Message('note_on', channel=0, note=78, velocity=0, time=26)\n",
      "Message('control_change', channel=0, control=67, value=51, time=121)\n",
      "Message('note_on', channel=0, note=61, velocity=85, time=12)\n",
      "Message('note_on', channel=0, note=79, velocity=78, time=4)\n",
      "Message('note_on', channel=0, note=74, velocity=0, time=16)\n",
      "Message('note_on', channel=0, note=61, velocity=0, time=13)\n",
      "Message('control_change', channel=0, control=67, value=47, time=11)\n",
      "Message('note_on', channel=0, note=79, velocity=0, time=82)\n",
      "Message('note_on', channel=0, note=76, velocity=74, time=17)\n",
      "Message('note_on', channel=0, note=62, velocity=82, time=145)\n",
      "Message('note_on', channel=0, note=78, velocity=76, time=10)\n",
      "Message('note_on', channel=0, note=62, velocity=0, time=24)\n",
      "Message('control_change', channel=0, control=64, value=50, time=5)\n",
      "Message('note_on', channel=0, note=76, velocity=0, time=5)\n",
      "Message('control_change', channel=0, control=64, value=65, time=15)\n",
      "Message('control_change', channel=0, control=64, value=68, time=17)\n",
      "Message('note_on', channel=0, note=69, velocity=0, time=16)\n",
      "Message('control_change', channel=0, control=64, value=71, time=3)\n",
      "Message('control_change', channel=0, control=64, value=73, time=20)\n",
      "Message('note_on', channel=0, note=74, velocity=79, time=15)\n",
      "Message('note_on', channel=0, note=78, velocity=0, time=21)\n",
      "Message('control_change', channel=0, control=64, value=75, time=1)\n",
      "Message('note_on', channel=0, note=74, velocity=0, time=14)\n",
      "Message('control_change', channel=0, control=64, value=79, time=26)\n",
      "Message('control_change', channel=0, control=64, value=81, time=18)\n",
      "Message('control_change', channel=0, control=64, value=83, time=17)\n",
      "Message('control_change', channel=0, control=64, value=85, time=20)\n",
      "Message('control_change', channel=0, control=64, value=87, time=18)\n",
      "Message('note_on', channel=0, note=54, velocity=77, time=36)\n",
      "Message('note_on', channel=0, note=81, velocity=82, time=4)\n",
      "Message('note_on', channel=0, note=74, velocity=80, time=6)\n",
      "Message('control_change', channel=0, control=64, value=78, time=12)\n",
      "Message('control_change', channel=0, control=64, value=54, time=18)\n",
      "Message('control_change', channel=0, control=64, value=0, time=18)\n",
      "Message('note_on', channel=0, note=54, velocity=0, time=44)\n",
      "Message('note_on', channel=0, note=55, velocity=71, time=31)\n",
      "Message('note_on', channel=0, note=55, velocity=0, time=138)\n",
      "Message('note_on', channel=0, note=57, velocity=75, time=20)\n",
      "Message('note_on', channel=0, note=57, velocity=0, time=43)\n",
      "Message('note_on', channel=0, note=79, velocity=76, time=10)\n",
      "Message('note_on', channel=0, note=81, velocity=0, time=21)\n",
      "Message('note_on', channel=0, note=74, velocity=0, time=17)\n",
      "Message('note_on', channel=0, note=78, velocity=74, time=93)\n",
      "Message('note_on', channel=0, note=79, velocity=0, time=17)\n",
      "Message('note_on', channel=0, note=45, velocity=74, time=113)\n",
      "Message('note_on', channel=0, note=76, velocity=76, time=11)\n",
      "Message('note_on', channel=0, note=73, velocity=71, time=8)\n",
      "Message('note_on', channel=0, note=78, velocity=0, time=12)\n",
      "Message('note_on', channel=0, note=45, velocity=0, time=11)\n",
      "Message('note_on', channel=0, note=76, velocity=0, time=29)\n",
      "Message('note_on', channel=0, note=78, velocity=74, time=68)\n",
      "Message('note_on', channel=0, note=73, velocity=0, time=24)\n",
      "Message('note_on', channel=0, note=78, velocity=0, time=34)\n",
      "Message('note_on', channel=0, note=74, velocity=74, time=122)\n",
      "Message('note_on', channel=0, note=50, velocity=66, time=11)\n",
      "Message('control_change', channel=0, control=64, value=23, time=7)\n",
      "Message('note_on', channel=0, note=74, velocity=0, time=17)\n",
      "Message('control_change', channel=0, control=64, value=71, time=3)\n",
      "Message('control_change', channel=0, control=67, value=52, time=0)\n",
      "Message('note_on', channel=0, note=50, velocity=0, time=3)\n",
      "Message('control_change', channel=0, control=64, value=86, time=16)\n",
      "Message('control_change', channel=0, control=64, value=99, time=18)\n",
      "Message('control_change', channel=0, control=67, value=57, time=2)\n",
      "Message('control_change', channel=0, control=64, value=112, time=17)\n",
      "Message('control_change', channel=0, control=64, value=123, time=20)\n",
      "Message('control_change', channel=0, control=67, value=63, time=2)\n",
      "Message('control_change', channel=0, control=64, value=127, time=16)\n",
      "Message('control_change', channel=0, control=67, value=70, time=18)\n",
      "Message('control_change', channel=0, control=67, value=74, time=38)\n",
      "Message('control_change', channel=0, control=67, value=79, time=94)\n",
      "Message('note_on', channel=0, note=76, velocity=65, time=44)\n",
      "Message('note_on', channel=0, note=76, velocity=0, time=67)\n",
      "Message('note_on', channel=0, note=78, velocity=76, time=16)\n",
      "Message('control_change', channel=0, control=64, value=123, time=60)\n",
      "Message('note_on', channel=0, note=78, velocity=0, time=27)\n",
      "Message('note_on', channel=0, note=79, velocity=62, time=16)\n",
      "Message('note_on', channel=0, note=81, velocity=66, time=28)\n",
      "Message('note_on', channel=0, note=79, velocity=0, time=31)\n",
      "Message('note_on', channel=0, note=81, velocity=0, time=59)\n",
      "Message('note_on', channel=0, note=83, velocity=71, time=0)\n",
      "Message('control_change', channel=0, control=64, value=117, time=8)\n",
      "Message('note_on', channel=0, note=55, velocity=66, time=1)\n",
      "Message('note_on', channel=0, note=74, velocity=76, time=1)\n",
      "Message('control_change', channel=0, control=64, value=91, time=20)\n",
      "Message('note_on', channel=0, note=74, velocity=0, time=12)\n",
      "Message('note_on', channel=0, note=55, velocity=0, time=3)\n",
      "Message('control_change', channel=0, control=64, value=0, time=3)\n",
      "Message('note_on', channel=0, note=83, velocity=0, time=2)\n",
      "Message('note_on', channel=0, note=79, velocity=68, time=270)\n",
      "Message('note_on', channel=0, note=71, velocity=62, time=14)\n",
      "Message('note_on', channel=0, note=67, velocity=47, time=11)\n",
      "Message('note_on', channel=0, note=79, velocity=0, time=21)\n",
      "Message('note_on', channel=0, note=71, velocity=0, time=3)\n",
      "Message('note_on', channel=0, note=67, velocity=0, time=2)\n",
      "Message('control_change', channel=0, control=64, value=28, time=259)\n",
      "Message('note_on', channel=0, note=66, velocity=64, time=0)\n",
      "Message('note_on', channel=0, note=74, velocity=57, time=8)\n",
      "Message('note_on', channel=0, note=69, velocity=57, time=3)\n",
      "Message('control_change', channel=0, control=64, value=42, time=8)\n",
      "Message('note_on', channel=0, note=66, velocity=0, time=17)\n",
      "Message('note_on', channel=0, note=74, velocity=0, time=1)\n",
      "Message('control_change', channel=0, control=64, value=55, time=2)\n",
      "Message('control_change', channel=0, control=64, value=67, time=33)\n",
      "Message('control_change', channel=0, control=64, value=76, time=19)\n",
      "Message('control_change', channel=0, control=64, value=83, time=20)\n",
      "Message('control_change', channel=0, control=64, value=92, time=19)\n",
      "Message('control_change', channel=0, control=64, value=101, time=19)\n",
      "Message('control_change', channel=0, control=64, value=108, time=19)\n",
      "Message('note_on', channel=0, note=69, velocity=0, time=14)\n",
      "Message('note_on', channel=0, note=69, velocity=9, time=0)\n",
      "Message('control_change', channel=0, control=64, value=114, time=6)\n",
      "Message('note_on', channel=0, note=76, velocity=66, time=3)\n",
      "Message('note_on', channel=0, note=76, velocity=0, time=49)\n",
      "Message('control_change', channel=0, control=64, value=101, time=1)\n",
      "Message('note_on', channel=0, note=74, velocity=65, time=18)\n",
      "Message('control_change', channel=0, control=64, value=79, time=1)\n",
      "Message('control_change', channel=0, control=64, value=62, time=21)\n",
      "Message('note_on', channel=0, note=74, velocity=0, time=16)\n",
      "Message('control_change', channel=0, control=64, value=65, time=2)\n",
      "Message('note_on', channel=0, note=54, velocity=55, time=5)\n",
      "Message('control_change', channel=0, control=64, value=73, time=15)\n",
      "Message('note_on', channel=0, note=76, velocity=73, time=1)\n",
      "Message('control_change', channel=0, control=64, value=81, time=16)\n",
      "Message('control_change', channel=0, control=64, value=89, time=22)\n",
      "Message('control_change', channel=0, control=64, value=94, time=17)\n",
      "Message('note_on', channel=0, note=78, velocity=79, time=83)\n",
      "Message('note_on', channel=0, note=76, velocity=0, time=4)\n",
      "Message('note_on', channel=0, note=69, velocity=0, time=60)\n",
      "Message('note_on', channel=0, note=78, velocity=0, time=4)\n",
      "Message('note_on', channel=0, note=54, velocity=0, time=21)\n",
      "Message('note_on', channel=0, note=52, velocity=71, time=55)\n",
      "Message('note_on', channel=0, note=79, velocity=73, time=9)\n",
      "Message('control_change', channel=0, control=64, value=80, time=10)\n",
      "Message('note_on', channel=0, note=71, velocity=63, time=6)\n",
      "Message('control_change', channel=0, control=64, value=0, time=12)\n",
      "Message('note_on', channel=0, note=52, velocity=0, time=6)\n",
      "Message('note_on', channel=0, note=79, velocity=0, time=1)\n",
      "Message('note_on', channel=0, note=71, velocity=0, time=2)\n",
      "Message('note_on', channel=0, note=76, velocity=70, time=273)\n",
      "Message('note_on', channel=0, note=67, velocity=70, time=10)\n",
      "Message('note_on', channel=0, note=64, velocity=49, time=4)\n",
      "Message('note_on', channel=0, note=76, velocity=0, time=24)\n",
      "Message('note_on', channel=0, note=67, velocity=0, time=2)\n",
      "Message('note_on', channel=0, note=64, velocity=0, time=7)\n",
      "Message('control_change', channel=0, control=67, value=75, time=196)\n",
      "Message('control_change', channel=0, control=67, value=71, time=55)\n",
      "Message('control_change', channel=0, control=67, value=67, time=39)\n",
      "Message('note_on', channel=0, note=72, velocity=67, time=6)\n",
      "Message('note_on', channel=0, note=62, velocity=49, time=22)\n",
      "Message('note_on', channel=0, note=66, velocity=45, time=9)\n",
      "Message('note_on', channel=0, note=62, velocity=0, time=42)\n",
      "Message('control_change', channel=0, control=67, value=63, time=15)\n",
      "Message('control_change', channel=0, control=67, value=59, time=40)\n",
      "Message('note_on', channel=0, note=72, velocity=0, time=5)\n",
      "Message('note_on', channel=0, note=71, velocity=57, time=8)\n",
      "Message('control_change', channel=0, control=67, value=55, time=80)\n",
      "Message('control_change', channel=0, control=64, value=32, time=58)\n",
      "Message('note_on', channel=0, note=50, velocity=56, time=17)\n",
      "Message('control_change', channel=0, control=64, value=58, time=2)\n",
      "Message('control_change', channel=0, control=64, value=70, time=19)\n",
      "Message('control_change', channel=0, control=64, value=81, time=17)\n",
      "Message('note_on', channel=0, note=50, velocity=0, time=15)\n",
      "Message('control_change', channel=0, control=64, value=97, time=4)\n",
      "Message('control_change', channel=0, control=64, value=117, time=20)\n",
      "Message('control_change', channel=0, control=64, value=127, time=18)\n",
      "Message('note_on', channel=0, note=66, velocity=0, time=45)\n",
      "Message('note_on', channel=0, note=71, velocity=0, time=155)\n",
      "Message('note_on', channel=0, note=76, velocity=74, time=35)\n",
      "Message('control_change', channel=0, control=64, value=91, time=9)\n",
      "Message('note_on', channel=0, note=48, velocity=64, time=0)\n",
      "Message('note_on', channel=0, note=67, velocity=70, time=0)\n",
      "Message('control_change', channel=0, control=64, value=0, time=20)\n",
      "Message('note_on', channel=0, note=76, velocity=0, time=3)\n",
      "Message('note_on', channel=0, note=67, velocity=0, time=7)\n",
      "Message('control_change', channel=0, control=67, value=51, time=7)\n",
      "Message('note_on', channel=0, note=48, velocity=0, time=0)\n",
      "Message('note_on', channel=0, note=72, velocity=74, time=294)\n",
      "Message('note_on', channel=0, note=69, velocity=70, time=5)\n",
      "Message('note_on', channel=0, note=60, velocity=67, time=3)\n",
      "Message('note_on', channel=0, note=69, velocity=0, time=26)\n",
      "Message('note_on', channel=0, note=72, velocity=0, time=2)\n",
      "Message('note_on', channel=0, note=60, velocity=0, time=8)\n",
      "Message('control_change', channel=0, control=64, value=48, time=283)\n",
      "Message('note_on', channel=0, note=62, velocity=59, time=10)\n",
      "Message('note_on', channel=0, note=69, velocity=73, time=1)\n",
      "Message('control_change', channel=0, control=64, value=59, time=8)\n",
      "Message('note_on', channel=0, note=66, velocity=72, time=0)\n",
      "Message('control_change', channel=0, control=64, value=62, time=20)\n",
      "Message('control_change', channel=0, control=64, value=69, time=18)\n",
      "Message('control_change', channel=0, control=64, value=76, time=18)\n",
      "Message('note_on', channel=0, note=62, velocity=0, time=6)\n",
      "Message('control_change', channel=0, control=64, value=84, time=13)\n",
      "Message('control_change', channel=0, control=64, value=95, time=20)\n",
      "Message('control_change', channel=0, control=64, value=104, time=18)\n",
      "Message('control_change', channel=0, control=64, value=112, time=20)\n",
      "Message('control_change', channel=0, control=64, value=116, time=19)\n",
      "Message('control_change', channel=0, control=64, value=120, time=38)\n",
      "Message('note_on', channel=0, note=66, velocity=0, time=106)\n",
      "Message('control_change', channel=0, control=64, value=110, time=5)\n",
      "Message('control_change', channel=0, control=64, value=100, time=18)\n",
      "Message('note_on', channel=0, note=57, velocity=62, time=14)\n",
      "Message('note_on', channel=0, note=71, velocity=70, time=2)\n",
      "Message('control_change', channel=0, control=64, value=96, time=5)\n",
      "Message('note_on', channel=0, note=69, velocity=0, time=36)\n",
      "Message('note_on', channel=0, note=57, velocity=0, time=18)\n",
      "Message('note_on', channel=0, note=72, velocity=80, time=86)\n",
      "Message('note_on', channel=0, note=71, velocity=0, time=7)\n",
      "Message('control_change', channel=0, control=64, value=92, time=113)\n",
      "Message('control_change', channel=0, control=64, value=71, time=19)\n",
      "Message('control_change', channel=0, control=64, value=0, time=18)\n",
      "Message('note_on', channel=0, note=74, velocity=74, time=4)\n",
      "Message('note_on', channel=0, note=69, velocity=72, time=3)\n",
      "Message('note_on', channel=0, note=72, velocity=0, time=2)\n",
      "Message('note_on', channel=0, note=54, velocity=63, time=4)\n",
      "Message('control_change', channel=0, control=64, value=39, time=45)\n",
      "Message('control_change', channel=0, control=64, value=62, time=19)\n",
      "Message('control_change', channel=0, control=64, value=72, time=19)\n",
      "Message('control_change', channel=0, control=64, value=78, time=20)\n",
      "Message('note_on', channel=0, note=74, velocity=0, time=33)\n",
      "Message('control_change', channel=0, control=64, value=80, time=1)\n",
      "Message('note_on', channel=0, note=71, velocity=68, time=3)\n",
      "Message('note_on', channel=0, note=69, velocity=0, time=6)\n",
      "Message('control_change', channel=0, control=64, value=83, time=32)\n",
      "Message('control_change', channel=0, control=64, value=86, time=17)\n",
      "Message('note_on', channel=0, note=54, velocity=0, time=52)\n",
      "Message('control_change', channel=0, control=64, value=82, time=5)\n",
      "Message('control_change', channel=0, control=64, value=65, time=18)\n",
      "Message('control_change', channel=0, control=64, value=0, time=20)\n",
      "Message('note_on', channel=0, note=72, velocity=69, time=9)\n",
      "Message('note_on', channel=0, note=50, velocity=63, time=10)\n",
      "Message('note_on', channel=0, note=71, velocity=0, time=4)\n",
      "Message('note_on', channel=0, note=50, velocity=0, time=43)\n",
      "Message('control_change', channel=0, control=64, value=32, time=8)\n",
      "Message('control_change', channel=0, control=64, value=54, time=19)\n",
      "Message('control_change', channel=0, control=64, value=59, time=21)\n",
      "Message('control_change', channel=0, control=64, value=61, time=37)\n",
      "Message('note_on', channel=0, note=69, velocity=65, time=1)\n",
      "Message('note_on', channel=0, note=72, velocity=0, time=3)\n",
      "Message('control_change', channel=0, control=64, value=63, time=13)\n",
      "Message('control_change', channel=0, control=64, value=65, time=20)\n",
      "Message('control_change', channel=0, control=64, value=62, time=38)\n",
      "Message('control_change', channel=0, control=64, value=42, time=19)\n",
      "Message('control_change', channel=0, control=64, value=0, time=19)\n",
      "Message('note_on', channel=0, note=55, velocity=56, time=47)\n",
      "Message('note_on', channel=0, note=69, velocity=0, time=4)\n",
      "Message('note_on', channel=0, note=72, velocity=65, time=5)\n",
      "Message('note_on', channel=0, note=67, velocity=58, time=4)\n",
      "Message('control_change', channel=0, control=64, value=28, time=15)\n",
      "Message('control_change', channel=0, control=64, value=52, time=19)\n",
      "Message('note_on', channel=0, note=55, velocity=0, time=7)\n",
      "Message('control_change', channel=0, control=64, value=57, time=12)\n",
      "Message('note_on', channel=0, note=67, velocity=0, time=1)\n",
      "Message('control_change', channel=0, control=64, value=60, time=89)\n",
      "Message('note_on', channel=0, note=72, velocity=0, time=0)\n",
      "Message('note_on', channel=0, note=71, velocity=63, time=14)\n",
      "Message('control_change', channel=0, control=64, value=62, time=5)\n",
      "Message('control_change', channel=0, control=64, value=61, time=20)\n",
      "Message('control_change', channel=0, control=64, value=47, time=19)\n",
      "Message('control_change', channel=0, control=64, value=0, time=19)\n",
      "Message('control_change', channel=0, control=64, value=39, time=75)\n",
      "Message('note_on', channel=0, note=71, velocity=0, time=7)\n",
      "Message('note_on', channel=0, note=69, velocity=70, time=8)\n",
      "Message('control_change', channel=0, control=64, value=65, time=2)\n",
      "Message('note_on', channel=0, note=50, velocity=62, time=10)\n",
      "Message('control_change', channel=0, control=64, value=77, time=8)\n",
      "Message('control_change', channel=0, control=64, value=87, time=21)\n",
      "Message('note_on', channel=0, note=50, velocity=0, time=6)\n",
      "Message('control_change', channel=0, control=64, value=96, time=13)\n",
      "Message('control_change', channel=0, control=64, value=103, time=20)\n",
      "Message('note_on', channel=0, note=69, velocity=0, time=11)\n",
      "Message('control_change', channel=0, control=64, value=107, time=6)\n",
      "Message('note_on', channel=0, note=67, velocity=63, time=56)\n",
      "Message('control_change', channel=0, control=64, value=115, time=39)\n",
      "Message('note_on', channel=0, note=67, velocity=0, time=9)\n",
      "Message('control_change', channel=0, control=64, value=122, time=10)\n",
      "Message('control_change', channel=0, control=64, value=127, time=19)\n",
      "Message('note_on', channel=0, note=43, velocity=80, time=74)\n",
      "Message('note_on', channel=0, note=83, velocity=74, time=10)\n",
      "Message('note_on', channel=0, note=74, velocity=76, time=1)\n",
      "Message('control_change', channel=0, control=64, value=89, time=10)\n",
      "Message('control_change', channel=0, control=64, value=0, time=18)\n",
      "Message('note_on', channel=0, note=74, velocity=0, time=0)\n",
      "Message('note_on', channel=0, note=83, velocity=0, time=10)\n",
      "Message('note_on', channel=0, note=50, velocity=67, time=104)\n",
      "Message('note_on', channel=0, note=43, velocity=0, time=14)\n",
      "Message('note_on', channel=0, note=50, velocity=0, time=115)\n",
      "Message('note_on', channel=0, note=79, velocity=73, time=28)\n",
      "Message('note_on', channel=0, note=52, velocity=72, time=1)\n",
      "Message('note_on', channel=0, note=71, velocity=70, time=5)\n",
      "Message('note_on', channel=0, note=79, velocity=0, time=25)\n",
      "Message('note_on', channel=0, note=71, velocity=0, time=4)\n",
      "Message('note_on', channel=0, note=54, velocity=72, time=121)\n",
      "Message('note_on', channel=0, note=52, velocity=0, time=39)\n",
      "Message('note_on', channel=0, note=55, velocity=74, time=131)\n",
      "Message('note_on', channel=0, note=76, velocity=80, time=5)\n",
      "Message('note_on', channel=0, note=73, velocity=82, time=3)\n",
      "Message('note_on', channel=0, note=54, velocity=0, time=39)\n",
      "Message('control_change', channel=0, control=64, value=60, time=8)\n",
      "Message('control_change', channel=0, control=64, value=73, time=20)\n",
      "Message('control_change', channel=0, control=64, value=81, time=21)\n",
      "Message('control_change', channel=0, control=64, value=89, time=17)\n",
      "Message('control_change', channel=0, control=64, value=96, time=21)\n",
      "Message('note_on', channel=0, note=57, velocity=70, time=16)\n",
      "Message('control_change', channel=0, control=64, value=102, time=3)\n",
      "Message('control_change', channel=0, control=64, value=110, time=20)\n",
      "Message('note_on', channel=0, note=55, velocity=0, time=0)\n",
      "Message('control_change', channel=0, control=64, value=120, time=17)\n",
      "Message('control_change', channel=0, control=64, value=127, time=18)\n",
      "Message('note_on', channel=0, note=73, velocity=0, time=7)\n",
      "Message('note_on', channel=0, note=76, velocity=0, time=12)\n",
      "Message('note_on', channel=0, note=55, velocity=69, time=95)\n",
      "Message('note_on', channel=0, note=76, velocity=73, time=11)\n",
      "Message('note_on', channel=0, note=57, velocity=0, time=8)\n",
      "Message('note_on', channel=0, note=73, velocity=65, time=1)\n",
      "Message('note_on', channel=0, note=73, velocity=0, time=28)\n",
      "Message('note_on', channel=0, note=76, velocity=0, time=5)\n",
      "Message('control_change', channel=0, control=64, value=114, time=41)\n",
      "Message('control_change', channel=0, control=64, value=74, time=18)\n",
      "Message('control_change', channel=0, control=64, value=0, time=20)\n",
      "Message('note_on', channel=0, note=78, velocity=72, time=0)\n",
      "Message('note_on', channel=0, note=54, velocity=66, time=11)\n",
      "Message('note_on', channel=0, note=74, velocity=67, time=7)\n",
      "Message('note_on', channel=0, note=55, velocity=0, time=18)\n",
      "Message('note_on', channel=0, note=74, velocity=0, time=13)\n",
      "Message('note_on', channel=0, note=78, velocity=0, time=7)\n",
      "Message('note_on', channel=0, note=52, velocity=71, time=100)\n",
      "Message('note_on', channel=0, note=79, velocity=74, time=2)\n",
      "Message('note_on', channel=0, note=76, velocity=74, time=1)\n",
      "Message('note_on', channel=0, note=54, velocity=0, time=8)\n",
      "Message('note_on', channel=0, note=76, velocity=0, time=22)\n",
      "Message('note_on', channel=0, note=79, velocity=0, time=0)\n",
      "Message('note_on', channel=0, note=50, velocity=74, time=115)\n",
      "Message('note_on', channel=0, note=52, velocity=0, time=5)\n",
      "Message('note_on', channel=0, note=50, velocity=0, time=151)\n",
      "Message('note_on', channel=0, note=52, velocity=71, time=3)\n",
      "Message('note_on', channel=0, note=76, velocity=78, time=11)\n",
      "Message('note_on', channel=0, note=73, velocity=74, time=10)\n",
      "Message('note_on', channel=0, note=73, velocity=0, time=29)\n",
      "Message('note_on', channel=0, note=76, velocity=0, time=4)\n",
      "Message('note_on', channel=0, note=54, velocity=69, time=105)\n",
      "Message('note_on', channel=0, note=52, velocity=0, time=27)\n",
      "Message('control_change', channel=0, control=64, value=32, time=122)\n",
      "Message('note_on', channel=0, note=69, velocity=78, time=12)\n",
      "Message('note_on', channel=0, note=73, velocity=76, time=4)\n",
      "Message('control_change', channel=0, control=64, value=68, time=2)\n",
      "Message('note_on', channel=0, note=55, velocity=80, time=9)\n",
      "Message('control_change', channel=0, control=64, value=74, time=12)\n",
      "Message('note_on', channel=0, note=54, velocity=0, time=6)\n",
      "Message('control_change', channel=0, control=64, value=77, time=12)\n",
      "Message('control_change', channel=0, control=64, value=81, time=19)\n",
      "Message('control_change', channel=0, control=64, value=84, time=21)\n",
      "Message('control_change', channel=0, control=64, value=88, time=18)\n",
      "Message('note_on', channel=0, note=55, velocity=0, time=31)\n",
      "Message('note_on', channel=0, note=73, velocity=0, time=12)\n",
      "Message('note_on', channel=0, note=57, velocity=83, time=4)\n",
      "Message('note_on', channel=0, note=59, velocity=81, time=157)\n",
      "Message('note_on', channel=0, note=74, velocity=79, time=4)\n",
      "Message('note_on', channel=0, note=57, velocity=0, time=27)\n",
      "Message('control_change', channel=0, control=64, value=86, time=102)\n",
      "Message('note_on', channel=0, note=61, velocity=88, time=21)\n",
      "Message('note_on', channel=0, note=76, velocity=79, time=2)\n",
      "Message('control_change', channel=0, control=64, value=84, time=9)\n",
      "Message('note_on', channel=0, note=59, velocity=0, time=6)\n",
      "Message('note_on', channel=0, note=74, velocity=0, time=1)\n",
      "Message('control_change', channel=0, control=64, value=80, time=30)\n",
      "Message('control_change', channel=0, control=64, value=77, time=21)\n",
      "Message('control_change', channel=0, control=64, value=68, time=19)\n",
      "Message('control_change', channel=0, control=64, value=35, time=19)\n",
      "Message('control_change', channel=0, control=64, value=0, time=20)\n",
      "Message('note_on', channel=0, note=61, velocity=0, time=10)\n",
      "Message('note_on', channel=0, note=78, velocity=79, time=14)\n",
      "Message('note_on', channel=0, note=62, velocity=88, time=1)\n",
      "Message('note_on', channel=0, note=76, velocity=0, time=30)\n",
      "Message('note_on', channel=0, note=62, velocity=0, time=12)\n",
      "Message('control_change', channel=0, control=67, value=47, time=7)\n",
      "Message('note_on', channel=0, note=74, velocity=80, time=93)\n",
      "Message('note_on', channel=0, note=78, velocity=0, time=30)\n",
      "Message('note_on', channel=0, note=61, velocity=85, time=118)\n",
      "Message('note_on', channel=0, note=79, velocity=80, time=7)\n",
      "Message('note_on', channel=0, note=61, velocity=0, time=20)\n",
      "Message('note_on', channel=0, note=74, velocity=0, time=0)\n",
      "Message('note_on', channel=0, note=79, velocity=0, time=102)\n",
      "Message('note_on', channel=0, note=76, velocity=75, time=2)\n",
      "Message('note_on', channel=0, note=62, velocity=82, time=164)\n",
      "Message('note_on', channel=0, note=78, velocity=80, time=2)\n",
      "Message('note_on', channel=0, note=62, velocity=0, time=24)\n",
      "Message('control_change', channel=0, control=64, value=51, time=2)\n",
      "Message('note_on', channel=0, note=76, velocity=0, time=12)\n",
      "Message('control_change', channel=0, control=64, value=74, time=8)\n",
      "Message('control_change', channel=0, control=64, value=80, time=20)\n",
      "Message('control_change', channel=0, control=64, value=83, time=19)\n",
      "Message('control_change', channel=0, control=64, value=87, time=37)\n",
      "Message('note_on', channel=0, note=69, velocity=0, time=0)\n",
      "Message('note_on', channel=0, note=74, velocity=80, time=3)\n",
      "Message('control_change', channel=0, control=64, value=94, time=16)\n",
      "Message('note_on', channel=0, note=78, velocity=0, time=12)\n",
      "Message('control_change', channel=0, control=64, value=102, time=6)\n",
      "Message('control_change', channel=0, control=67, value=51, time=2)\n",
      "Message('note_on', channel=0, note=74, velocity=0, time=1)\n",
      "Message('control_change', channel=0, control=64, value=110, time=17)\n",
      "Message('control_change', channel=0, control=64, value=116, time=51)\n",
      "Message('control_change', channel=0, control=64, value=123, time=39)\n",
      "Message('note_on', channel=0, note=74, velocity=90, time=52)\n",
      "Message('control_change', channel=0, control=64, value=113, time=5)\n",
      "Message('note_on', channel=0, note=81, velocity=87, time=1)\n",
      "Message('note_on', channel=0, note=54, velocity=69, time=1)\n",
      "Message('control_change', channel=0, control=64, value=86, time=17)\n",
      "Message('control_change', channel=0, control=64, value=46, time=21)\n",
      "Message('control_change', channel=0, control=64, value=0, time=16)\n",
      "Message('control_change', channel=0, control=64, value=15, time=58)\n",
      "Message('note_on', channel=0, note=55, velocity=69, time=32)\n",
      "Message('control_change', channel=0, control=64, value=11, time=5)\n",
      "Message('note_on', channel=0, note=54, velocity=0, time=0)\n",
      "Message('control_change', channel=0, control=64, value=0, time=18)\n",
      "Message('note_on', channel=0, note=55, velocity=0, time=102)\n",
      "Message('note_on', channel=0, note=57, velocity=72, time=33)\n",
      "Message('note_on', channel=0, note=79, velocity=78, time=16)\n",
      "Message('note_on', channel=0, note=57, velocity=0, time=14)\n",
      "Message('note_on', channel=0, note=81, velocity=0, time=2)\n",
      "Message('note_on', channel=0, note=74, velocity=0, time=44)\n",
      "Message('note_on', channel=0, note=78, velocity=76, time=79)\n",
      "Message('note_on', channel=0, note=79, velocity=0, time=11)\n",
      "Message('note_on', channel=0, note=45, velocity=70, time=135)\n",
      "Message('note_on', channel=0, note=76, velocity=74, time=4)\n",
      "Message('note_on', channel=0, note=73, velocity=68, time=10)\n",
      "Message('note_on', channel=0, note=78, velocity=0, time=8)\n",
      "Message('note_on', channel=0, note=45, velocity=0, time=17)\n",
      "Message('note_on', channel=0, note=76, velocity=0, time=18)\n",
      "Message('control_change', channel=0, control=67, value=55, time=58)\n",
      "Message('note_on', channel=0, note=78, velocity=69, time=38)\n",
      "Message('note_on', channel=0, note=73, velocity=0, time=23)\n",
      "Message('note_on', channel=0, note=78, velocity=0, time=12)\n",
      "Message('note_on', channel=0, note=50, velocity=52, time=170)\n",
      "Message('note_on', channel=0, note=74, velocity=59, time=15)\n",
      "Message('control_change', channel=0, control=64, value=46, time=135)\n",
      "Message('control_change', channel=0, control=64, value=65, time=18)\n",
      "Message('control_change', channel=0, control=64, value=75, time=19)\n",
      "Message('control_change', channel=0, control=64, value=84, time=20)\n",
      "Message('control_change', channel=0, control=64, value=92, time=18)\n",
      "Message('control_change', channel=0, control=64, value=102, time=20)\n",
      "Message('control_change', channel=0, control=64, value=114, time=18)\n",
      "Message('note_on', channel=0, note=74, velocity=0, time=6)\n",
      "Message('control_change', channel=0, control=64, value=127, time=15)\n",
      "Message('note_on', channel=0, note=50, velocity=0, time=10)\n",
      "Message('control_change', channel=0, control=67, value=51, time=81)\n",
      "Message('control_change', channel=0, control=67, value=47, time=19)\n",
      "Message('control_change', channel=0, control=67, value=41, time=19)\n",
      "Message('control_change', channel=0, control=64, value=104, time=20)\n",
      "Message('control_change', channel=0, control=67, value=37, time=1)\n",
      "Message('control_change', channel=0, control=64, value=80, time=18)\n",
      "Message('control_change', channel=0, control=64, value=62, time=19)\n",
      "Message('control_change', channel=0, control=64, value=52, time=20)\n",
      "Message('control_change', channel=0, control=64, value=44, time=19)\n",
      "Message('control_change', channel=0, control=64, value=41, time=18)\n",
      "Message('control_change', channel=0, control=67, value=30, time=1)\n",
      "Message('control_change', channel=0, control=67, value=23, time=16)\n",
      "Message('control_change', channel=0, control=64, value=30, time=21)\n",
      "Message('control_change', channel=0, control=67, value=15, time=2)\n",
      "Message('control_change', channel=0, control=64, value=0, time=17)\n",
      "Message('note_on', channel=0, note=69, velocity=71, time=65)\n",
      "Message('note_on', channel=0, note=66, velocity=76, time=5)\n",
      "Message('note_on', channel=0, note=62, velocity=64, time=7)\n",
      "Message('note_on', channel=0, note=66, velocity=0, time=22)\n",
      "Message('note_on', channel=0, note=69, velocity=0, time=2)\n",
      "Message('control_change', channel=0, control=67, value=0, time=11)\n",
      "Message('note_on', channel=0, note=62, velocity=0, time=3)\n",
      "Message('note_on', channel=0, note=57, velocity=73, time=303)\n",
      "Message('note_on', channel=0, note=74, velocity=79, time=4)\n",
      "Message('note_on', channel=0, note=66, velocity=52, time=1)\n",
      "Message('note_on', channel=0, note=69, velocity=62, time=9)\n",
      "Message('note_on', channel=0, note=57, velocity=0, time=16)\n",
      "Message('note_on', channel=0, note=66, velocity=0, time=11)\n",
      "Message('note_on', channel=0, note=69, velocity=0, time=9)\n",
      "Message('note_on', channel=0, note=74, velocity=0, time=2)\n",
      "Message('note_on', channel=0, note=55, velocity=60, time=288)\n",
      "Message('note_on', channel=0, note=78, velocity=73, time=4)\n",
      "Message('note_on', channel=0, note=69, velocity=75, time=3)\n",
      "Message('note_on', channel=0, note=74, velocity=68, time=0)\n",
      "Message('note_on', channel=0, note=54, velocity=67, time=141)\n",
      "Message('note_on', channel=0, note=55, velocity=0, time=11)\n",
      "Message('note_on', channel=0, note=52, velocity=64, time=129)\n",
      "Message('note_on', channel=0, note=54, velocity=0, time=60)\n",
      "Message('note_on', channel=0, note=52, velocity=0, time=80)\n",
      "Message('note_on', channel=0, note=50, velocity=70, time=6)\n",
      "Message('note_on', channel=0, note=50, velocity=0, time=136)\n",
      "Message('note_on', channel=0, note=57, velocity=70, time=43)\n",
      "Message('note_on', channel=0, note=79, velocity=71, time=9)\n",
      "Message('note_on', channel=0, note=74, velocity=0, time=7)\n",
      "Message('note_on', channel=0, note=78, velocity=0, time=10)\n",
      "Message('note_on', channel=0, note=57, velocity=0, time=5)\n",
      "Message('note_on', channel=0, note=78, velocity=74, time=125)\n",
      "Message('note_on', channel=0, note=79, velocity=0, time=9)\n",
      "Message('note_on', channel=0, note=76, velocity=70, time=123)\n",
      "Message('note_on', channel=0, note=60, velocity=70, time=4)\n",
      "Message('note_on', channel=0, note=78, velocity=0, time=9)\n",
      "Message('note_on', channel=0, note=69, velocity=0, time=5)\n",
      "Message('control_change', channel=0, control=64, value=52, time=14)\n",
      "Message('note_on', channel=0, note=60, velocity=0, time=2)\n",
      "Message('control_change', channel=0, control=64, value=65, time=15)\n",
      "Message('control_change', channel=0, control=64, value=63, time=18)\n",
      "Message('control_change', channel=0, control=64, value=62, time=20)\n",
      "Message('note_on', channel=0, note=76, velocity=0, time=35)\n",
      "Message('control_change', channel=0, control=64, value=65, time=4)\n",
      "Message('note_on', channel=0, note=74, velocity=59, time=13)\n",
      "Message('control_change', channel=0, control=64, value=66, time=5)\n",
      "Message('control_change', channel=0, control=64, value=68, time=20)\n",
      "Message('note_on', channel=0, note=74, velocity=0, time=24)\n",
      "Message('control_change', channel=0, control=64, value=72, time=31)\n",
      "Message('note_on', channel=0, note=67, velocity=70, time=2)\n",
      "Message('control_change', channel=0, control=64, value=76, time=18)\n",
      "Message('control_change', channel=0, control=64, value=81, time=19)\n",
      "Message('note_on', channel=0, note=74, velocity=72, time=25)\n",
      "Message('note_on', channel=0, note=59, velocity=66, time=1)\n",
      "Message('note_on', channel=0, note=67, velocity=0, time=8)\n",
      "Message('control_change', channel=0, control=64, value=70, time=1)\n",
      "Message('note_on', channel=0, note=79, velocity=83, time=11)\n",
      "Message('control_change', channel=0, control=64, value=0, time=8)\n",
      "Message('note_on', channel=0, note=74, velocity=0, time=15)\n",
      "Message('note_on', channel=0, note=79, velocity=0, time=5)\n",
      "Message('note_on', channel=0, note=59, velocity=0, time=94)\n",
      "Message('note_on', channel=0, note=60, velocity=60, time=23)\n",
      "Message('note_on', channel=0, note=60, velocity=0, time=155)\n",
      "Message('note_on', channel=0, note=59, velocity=60, time=18)\n",
      "Message('note_on', channel=0, note=74, velocity=80, time=7)\n",
      "Message('note_on', channel=0, note=74, velocity=0, time=30)\n",
      "Message('note_on', channel=0, note=57, velocity=61, time=103)\n",
      "Message('note_on', channel=0, note=59, velocity=0, time=7)\n",
      "Message('note_on', channel=0, note=57, velocity=0, time=116)\n",
      "Message('note_on', channel=0, note=57, velocity=49, time=0)\n",
      "Message('note_on', channel=0, note=83, velocity=80, time=40)\n",
      "Message('note_on', channel=0, note=55, velocity=74, time=4)\n",
      "Message('note_on', channel=0, note=57, velocity=0, time=2)\n",
      "Message('note_on', channel=0, note=74, velocity=76, time=3)\n",
      "Message('note_on', channel=0, note=74, velocity=0, time=28)\n",
      "Message('note_on', channel=0, note=83, velocity=0, time=10)\n",
      "Message('note_on', channel=0, note=55, velocity=0, time=94)\n",
      "Message('note_on', channel=0, note=57, velocity=55, time=5)\n",
      "Message('note_on', channel=0, note=57, velocity=0, time=155)\n",
      "Message('note_on', channel=0, note=59, velocity=62, time=12)\n",
      "Message('note_on', channel=0, note=79, velocity=76, time=4)\n",
      "Message('note_on', channel=0, note=71, velocity=70, time=10)\n",
      "Message('note_on', channel=0, note=79, velocity=0, time=21)\n",
      "Message('note_on', channel=0, note=71, velocity=0, time=7)\n",
      "Message('control_change', channel=0, control=67, value=8, time=50)\n",
      "Message('note_on', channel=0, note=59, velocity=0, time=28)\n",
      "Message('note_on', channel=0, note=55, velocity=65, time=19)\n",
      "Message('note_on', channel=0, note=76, velocity=73, time=176)\n",
      "Message('note_on', channel=0, note=67, velocity=71, time=9)\n",
      "Message('note_on', channel=0, note=55, velocity=0, time=6)\n",
      "Message('control_change', channel=0, control=64, value=41, time=3)\n",
      "Message('control_change', channel=0, control=64, value=50, time=17)\n",
      "Message('note_on', channel=0, note=60, velocity=38, time=0)\n",
      "Message('note_on', channel=0, note=59, velocity=46, time=5)\n",
      "Message('control_change', channel=0, control=64, value=60, time=17)\n",
      "Message('control_change', channel=0, control=64, value=68, time=19)\n",
      "Message('control_change', channel=0, control=64, value=75, time=20)\n",
      "Message('note_on', channel=0, note=59, velocity=0, time=8)\n",
      "Message('control_change', channel=0, control=64, value=82, time=7)\n",
      "Message('note_on', channel=0, note=60, velocity=0, time=17)\n",
      "Message('control_change', channel=0, control=64, value=89, time=4)\n",
      "Message('note_on', channel=0, note=62, velocity=66, time=17)\n",
      "Message('control_change', channel=0, control=64, value=95, time=2)\n",
      "Message('note_on', channel=0, note=67, velocity=0, time=2)\n",
      "Message('control_change', channel=0, control=64, value=100, time=18)\n",
      "Message('note_on', channel=0, note=76, velocity=0, time=2)\n",
      "Message('control_change', channel=0, control=64, value=106, time=14)\n",
      "Message('control_change', channel=0, control=64, value=111, time=20)\n",
      "Message('note_on', channel=0, note=62, velocity=0, time=67)\n",
      "Message('note_on', channel=0, note=60, velocity=64, time=13)\n",
      "Message('note_on', channel=0, note=78, velocity=77, time=20)\n",
      "Message('note_on', channel=0, note=69, velocity=76, time=8)\n",
      "Message('control_change', channel=0, control=64, value=105, time=6)\n",
      "Message('control_change', channel=0, control=64, value=87, time=19)\n",
      "Message('note_on', channel=0, note=78, velocity=0, time=1)\n",
      "Message('note_on', channel=0, note=69, velocity=0, time=6)\n",
      "Message('control_change', channel=0, control=64, value=61, time=11)\n",
      "Message('control_change', channel=0, control=64, value=0, time=19)\n",
      "Message('note_on', channel=0, note=60, velocity=0, time=48)\n",
      "Message('note_on', channel=0, note=59, velocity=67, time=1)\n",
      "Message('note_on', channel=0, note=79, velocity=82, time=11)\n",
      "Message('note_on', channel=0, note=71, velocity=75, time=10)\n",
      "Message('note_on', channel=0, note=71, velocity=0, time=26)\n",
      "Message('note_on', channel=0, note=79, velocity=0, time=0)\n",
      "Message('note_on', channel=0, note=81, velocity=82, time=96)\n",
      "Message('note_on', channel=0, note=59, velocity=0, time=13)\n",
      "Message('note_on', channel=0, note=72, velocity=71, time=0)\n",
      "Message('note_on', channel=0, note=57, velocity=66, time=2)\n",
      "Message('note_on', channel=0, note=72, velocity=0, time=16)\n",
      "Message('note_on', channel=0, note=81, velocity=0, time=4)\n",
      "Message('control_change', channel=0, control=67, value=13, time=73)\n",
      "Message('note_on', channel=0, note=57, velocity=0, time=49)\n",
      "Message('note_on', channel=0, note=59, velocity=53, time=19)\n",
      "Message('note_on', channel=0, note=59, velocity=0, time=150)\n",
      "Message('note_on', channel=0, note=78, velocity=71, time=1)\n",
      "Message('note_on', channel=0, note=69, velocity=67, time=12)\n",
      "Message('note_on', channel=0, note=60, velocity=54, time=6)\n",
      "Message('note_on', channel=0, note=78, velocity=0, time=21)\n",
      "Message('note_on', channel=0, note=69, velocity=0, time=9)\n",
      "Message('control_change', channel=0, control=67, value=17, time=14)\n",
      "Message('note_on', channel=0, note=60, velocity=0, time=91)\n",
      "Message('control_change', channel=0, control=67, value=21, time=4)\n",
      "Message('note_on', channel=0, note=57, velocity=50, time=22)\n",
      "Message('control_change', channel=0, control=67, value=25, time=56)\n",
      "Message('note_on', channel=0, note=57, velocity=0, time=84)\n",
      "Message('note_on', channel=0, note=75, velocity=63, time=11)\n",
      "Message('note_on', channel=0, note=66, velocity=56, time=17)\n",
      "Message('note_on', channel=0, note=59, velocity=52, time=7)\n",
      "Message('control_change', channel=0, control=67, value=29, time=31)\n",
      "Message('note_on', channel=0, note=59, velocity=0, time=24)\n",
      "Message('control_change', channel=0, control=67, value=33, time=32)\n",
      "Message('control_change', channel=0, control=67, value=37, time=93)\n",
      "Message('note_on', channel=0, note=66, velocity=0, time=131)\n",
      "Message('note_on', channel=0, note=47, velocity=46, time=17)\n",
      "Message('control_change', channel=0, control=64, value=48, time=4)\n",
      "Message('control_change', channel=0, control=64, value=67, time=21)\n",
      "Message('control_change', channel=0, control=64, value=77, time=15)\n",
      "Message('control_change', channel=0, control=64, value=87, time=18)\n",
      "Message('control_change', channel=0, control=64, value=97, time=20)\n",
      "Message('control_change', channel=0, control=64, value=105, time=20)\n",
      "Message('control_change', channel=0, control=64, value=110, time=17)\n",
      "Message('control_change', channel=0, control=64, value=115, time=57)\n",
      "Message('note_on', channel=0, note=47, velocity=0, time=4)\n",
      "Message('note_on', channel=0, note=75, velocity=0, time=18)\n",
      "Message('control_change', channel=0, control=64, value=123, time=16)\n",
      "Message('control_change', channel=0, control=64, value=127, time=20)\n",
      "Message('control_change', channel=0, control=64, value=113, time=109)\n",
      "Message('control_change', channel=0, control=64, value=74, time=22)\n",
      "Message('note_on', channel=0, note=71, velocity=70, time=2)\n",
      "Message('control_change', channel=0, control=64, value=0, time=14)\n",
      "Message('note_on', channel=0, note=71, velocity=0, time=101)\n",
      "Message('note_on', channel=0, note=73, velocity=51, time=48)\n",
      "Message('note_on', channel=0, note=73, velocity=0, time=122)\n",
      "Message('note_on', channel=0, note=75, velocity=62, time=13)\n",
      "Message('note_on', channel=0, note=66, velocity=69, time=1)\n",
      "Message('note_on', channel=0, note=66, velocity=0, time=30)\n",
      "Message('note_on', channel=0, note=75, velocity=0, time=84)\n",
      "Message('note_on', channel=0, note=76, velocity=58, time=31)\n",
      "Message('note_on', channel=0, note=76, velocity=0, time=142)\n",
      "Message('note_on', channel=0, note=78, velocity=68, time=21)\n",
      "Message('note_on', channel=0, note=63, velocity=63, time=8)\n",
      "Message('note_on', channel=0, note=63, velocity=0, time=36)\n",
      "Message('note_on', channel=0, note=79, velocity=68, time=91)\n",
      "Message('note_on', channel=0, note=78, velocity=0, time=18)\n",
      "Message('note_on', channel=0, note=63, velocity=70, time=164)\n",
      "Message('note_on', channel=0, note=78, velocity=64, time=0)\n",
      "Message('note_on', channel=0, note=79, velocity=0, time=95)\n",
      "Message('note_on', channel=0, note=63, velocity=0, time=35)\n",
      "Message('note_on', channel=0, note=64, velocity=67, time=1)\n",
      "Message('note_on', channel=0, note=76, velocity=66, time=0)\n",
      "Message('note_on', channel=0, note=78, velocity=0, time=28)\n",
      "Message('note_on', channel=0, note=76, velocity=0, time=90)\n",
      "Message('note_on', channel=0, note=64, velocity=0, time=18)\n",
      "Message('note_on', channel=0, note=75, velocity=66, time=14)\n",
      "Message('note_on', channel=0, note=66, velocity=76, time=4)\n",
      "Message('note_on', channel=0, note=66, velocity=0, time=30)\n",
      "Message('note_on', channel=0, note=75, velocity=0, time=100)\n",
      "Message('note_on', channel=0, note=76, velocity=65, time=7)\n",
      "Message('note_on', channel=0, note=76, velocity=0, time=119)\n",
      "Message('note_on', channel=0, note=63, velocity=80, time=55)\n",
      "Message('note_on', channel=0, note=78, velocity=67, time=2)\n",
      "Message('note_on', channel=0, note=63, velocity=0, time=32)\n",
      "Message('note_on', channel=0, note=78, velocity=0, time=93)\n",
      "Message('note_on', channel=0, note=79, velocity=68, time=6)\n",
      "Message('note_on', channel=0, note=79, velocity=0, time=148)\n",
      "Message('note_on', channel=0, note=59, velocity=79, time=35)\n",
      "Message('note_on', channel=0, note=81, velocity=73, time=4)\n",
      "Message('note_on', channel=0, note=59, velocity=0, time=44)\n",
      "Message('control_change', channel=0, control=64, value=19, time=29)\n",
      "Message('control_change', channel=0, control=64, value=31, time=17)\n",
      "Message('control_change', channel=0, control=64, value=37, time=20)\n",
      "Message('control_change', channel=0, control=64, value=40, time=19)\n",
      "Message('note_on', channel=0, note=83, velocity=71, time=17)\n",
      "Message('control_change', channel=0, control=64, value=43, time=1)\n",
      "Message('note_on', channel=0, note=81, velocity=0, time=20)\n",
      "Message('control_change', channel=0, control=64, value=46, time=20)\n",
      "Message('control_change', channel=0, control=64, value=43, time=111)\n",
      "Message('note_on', channel=0, note=81, velocity=75, time=16)\n",
      "Message('note_on', channel=0, note=59, velocity=77, time=2)\n",
      "Message('control_change', channel=0, control=64, value=41, time=3)\n",
      "Message('note_on', channel=0, note=83, velocity=0, time=40)\n",
      "Message('note_on', channel=0, note=79, velocity=74, time=96)\n",
      "Message('note_on', channel=0, note=61, velocity=79, time=2)\n",
      "Message('note_on', channel=0, note=81, velocity=0, time=11)\n",
      "Message('note_on', channel=0, note=59, velocity=0, time=3)\n",
      "Message('note_on', channel=0, note=79, velocity=0, time=106)\n",
      "Message('note_on', channel=0, note=61, velocity=0, time=18)\n",
      "Message('note_on', channel=0, note=78, velocity=73, time=3)\n",
      "Message('note_on', channel=0, note=63, velocity=84, time=1)\n",
      "Message('note_on', channel=0, note=63, velocity=0, time=38)\n",
      "Message('note_on', channel=0, note=78, velocity=0, time=82)\n",
      "Message('note_on', channel=0, note=79, velocity=72, time=17)\n",
      "Message('note_on', channel=0, note=79, velocity=0, time=147)\n",
      "Message('note_on', channel=0, note=81, velocity=78, time=15)\n",
      "Message('note_on', channel=0, note=59, velocity=72, time=8)\n",
      "Message('note_on', channel=0, note=59, velocity=0, time=31)\n",
      "Message('note_on', channel=0, note=83, velocity=74, time=113)\n",
      "Message('note_on', channel=0, note=81, velocity=0, time=43)\n",
      "Message('note_on', channel=0, note=84, velocity=76, time=112)\n",
      "Message('note_on', channel=0, note=55, velocity=75, time=8)\n",
      "Message('note_on', channel=0, note=83, velocity=0, time=25)\n",
      "Message('note_on', channel=0, note=81, velocity=75, time=106)\n",
      "Message('note_on', channel=0, note=84, velocity=0, time=2)\n",
      "Message('note_on', channel=0, note=54, velocity=69, time=2)\n",
      "Message('control_change', channel=0, control=64, value=33, time=3)\n",
      "Message('control_change', channel=0, control=64, value=25, time=20)\n",
      "Message('note_on', channel=0, note=55, velocity=0, time=2)\n",
      "Message('control_change', channel=0, control=64, value=13, time=18)\n",
      "Message('control_change', channel=0, control=64, value=0, time=18)\n",
      "Message('note_on', channel=0, note=83, velocity=75, time=96)\n",
      "Message('note_on', channel=0, note=55, velocity=71, time=1)\n",
      "Message('note_on', channel=0, note=81, velocity=0, time=6)\n",
      "Message('note_on', channel=0, note=54, velocity=0, time=2)\n",
      "Message('note_on', channel=0, note=83, velocity=0, time=22)\n",
      "Message('control_change', channel=0, control=64, value=32, time=4)\n",
      "Message('control_change', channel=0, control=64, value=42, time=19)\n",
      "Message('note_on', channel=0, note=55, velocity=0, time=51)\n",
      "Message('note_on', channel=0, note=57, velocity=64, time=24)\n",
      "Message('control_change', channel=0, control=64, value=40, time=77)\n",
      "Message('note_on', channel=0, note=57, velocity=0, time=65)\n",
      "Message('note_on', channel=0, note=59, velocity=72, time=17)\n",
      "Message('note_on', channel=0, note=76, velocity=73, time=4)\n",
      "Message('note_on', channel=0, note=67, velocity=67, time=3)\n",
      "Message('note_on', channel=0, note=59, velocity=0, time=28)\n",
      "Message('note_on', channel=0, note=67, velocity=0, time=6)\n",
      "Message('note_on', channel=0, note=76, velocity=0, time=7)\n",
      "Message('control_change', channel=0, control=64, value=30, time=186)\n",
      "Message('control_change', channel=0, control=64, value=0, time=19)\n",
      "Message('note_on', channel=0, note=47, velocity=68, time=81)\n",
      "Message('note_on', channel=0, note=78, velocity=70, time=13)\n",
      "Message('note_on', channel=0, note=69, velocity=66, time=9)\n",
      "Message('note_on', channel=0, note=47, velocity=0, time=21)\n",
      "Message('note_on', channel=0, note=69, velocity=0, time=32)\n",
      "Message('note_on', channel=0, note=78, velocity=0, time=67)\n",
      "Message('note_on', channel=0, note=75, velocity=65, time=10)\n",
      "Message('note_on', channel=0, note=52, velocity=58, time=159)\n",
      "Message('note_on', channel=0, note=76, velocity=67, time=8)\n",
      "Message('note_on', channel=0, note=67, velocity=59, time=17)\n",
      "Message('note_on', channel=0, note=75, velocity=0, time=14)\n",
      "Message('note_on', channel=0, note=52, velocity=0, time=101)\n",
      "Message('note_on', channel=0, note=47, velocity=62, time=16)\n",
      "Message('control_change', channel=0, control=64, value=20, time=20)\n",
      "Message('control_change', channel=0, control=64, value=35, time=17)\n",
      "Message('control_change', channel=0, control=64, value=43, time=20)\n",
      "Message('control_change', channel=0, control=64, value=47, time=19)\n",
      "Message('note_on', channel=0, note=76, velocity=0, time=42)\n",
      "Message('control_change', channel=0, control=64, value=49, time=17)\n",
      "Message('note_on', channel=0, note=67, velocity=0, time=27)\n",
      "Message('note_on', channel=0, note=43, velocity=61, time=3)\n",
      "Message('note_on', channel=0, note=47, velocity=0, time=2)\n",
      "Message('control_change', channel=0, control=64, value=51, time=24)\n",
      "Message('control_change', channel=0, control=64, value=54, time=59)\n",
      "Message('control_change', channel=0, control=64, value=56, time=71)\n",
      "Message('note_on', channel=0, note=43, velocity=0, time=5)\n",
      "Message('note_on', channel=0, note=47, velocity=67, time=0)\n",
      "Message('control_change', channel=0, control=64, value=59, time=50)\n",
      "Message('control_change', channel=0, control=64, value=61, time=18)\n",
      "Message('control_change', channel=0, control=64, value=65, time=20)\n",
      "Message('control_change', channel=0, control=64, value=68, time=18)\n",
      "Message('control_change', channel=0, control=64, value=67, time=21)\n",
      "Message('note_on', channel=0, note=47, velocity=0, time=0)\n",
      "Message('control_change', channel=0, control=64, value=52, time=18)\n",
      "Message('note_on', channel=0, note=40, velocity=66, time=1)\n",
      "Message('note_on', channel=0, note=71, velocity=70, time=14)\n",
      "Message('note_on', channel=0, note=67, velocity=69, time=2)\n",
      "Message('control_change', channel=0, control=64, value=0, time=3)\n",
      "Message('note_on', channel=0, note=67, velocity=0, time=32)\n",
      "Message('note_on', channel=0, note=71, velocity=0, time=1)\n",
      "Message('note_on', channel=0, note=40, velocity=0, time=116)\n",
      "Message('note_on', channel=0, note=42, velocity=63, time=1)\n",
      "Message('note_on', channel=0, note=76, velocity=71, time=145)\n",
      "Message('note_on', channel=0, note=43, velocity=63, time=1)\n",
      "Message('note_on', channel=0, note=71, velocity=73, time=1)\n",
      "Message('note_on', channel=0, note=42, velocity=0, time=6)\n",
      "Message('note_on', channel=0, note=71, velocity=0, time=23)\n",
      "Message('note_on', channel=0, note=76, velocity=0, time=7)\n",
      "Message('note_on', channel=0, note=43, velocity=0, time=113)\n",
      "Message('note_on', channel=0, note=45, velocity=63, time=4)\n",
      "Message('note_on', channel=0, note=45, velocity=0, time=156)\n",
      "Message('note_on', channel=0, note=79, velocity=68, time=5)\n",
      "Message('note_on', channel=0, note=47, velocity=63, time=3)\n",
      "Message('note_on', channel=0, note=74, velocity=69, time=8)\n",
      "Message('control_change', channel=0, control=64, value=40, time=19)\n",
      "Message('control_change', channel=0, control=64, value=64, time=18)\n",
      "Message('control_change', channel=0, control=64, value=62, time=19)\n",
      "Message('control_change', channel=0, control=64, value=60, time=19)\n",
      "Message('control_change', channel=0, control=64, value=58, time=39)\n",
      "Message('note_on', channel=0, note=48, velocity=58, time=56)\n",
      "Message('note_on', channel=0, note=47, velocity=0, time=12)\n",
      "Message('note_on', channel=0, note=50, velocity=64, time=141)\n",
      "Message('note_on', channel=0, note=48, velocity=0, time=2)\n",
      "Message('note_on', channel=0, note=52, velocity=70, time=140)\n",
      "Message('note_on', channel=0, note=50, velocity=0, time=22)\n",
      "Message('control_change', channel=0, control=64, value=56, time=37)\n",
      "Message('note_on', channel=0, note=52, velocity=0, time=78)\n",
      "Message('note_on', channel=0, note=74, velocity=0, time=3)\n",
      "Message('note_on', channel=0, note=53, velocity=62, time=18)\n",
      "Message('note_on', channel=0, note=72, velocity=71, time=10)\n",
      "Message('note_on', channel=0, note=79, velocity=0, time=92)\n",
      "Message('note_on', channel=0, note=72, velocity=0, time=45)\n",
      "Message('note_on', channel=0, note=71, velocity=72, time=7)\n",
      "Message('note_on', channel=0, note=55, velocity=62, time=15)\n",
      "Message('note_on', channel=0, note=53, velocity=0, time=18)\n",
      "Message('note_on', channel=0, note=57, velocity=67, time=112)\n",
      "Message('note_on', channel=0, note=55, velocity=0, time=8)\n",
      "Message('note_on', channel=0, note=71, velocity=0, time=3)\n",
      "Message('note_on', channel=0, note=69, velocity=70, time=3)\n",
      "Message('note_on', channel=0, note=69, velocity=0, time=123)\n",
      "Message('note_on', channel=0, note=59, velocity=73, time=7)\n",
      "Message('note_on', channel=0, note=57, velocity=0, time=27)\n",
      "Message('note_on', channel=0, note=67, velocity=74, time=19)\n",
      "Message('control_change', channel=0, control=64, value=54, time=51)\n",
      "Message('note_on', channel=0, note=59, velocity=0, time=40)\n",
      "Message('note_on', channel=0, note=60, velocity=60, time=33)\n",
      "Message('note_on', channel=0, note=77, velocity=75, time=22)\n",
      "Message('note_on', channel=0, note=67, velocity=0, time=40)\n",
      "Message('control_change', channel=0, control=64, value=48, time=52)\n",
      "Message('control_change', channel=0, control=64, value=25, time=21)\n",
      "Message('note_on', channel=0, note=60, velocity=0, time=9)\n",
      "Message('note_on', channel=0, note=62, velocity=66, time=5)\n",
      "Message('control_change', channel=0, control=64, value=0, time=3)\n",
      "Message('note_on', channel=0, note=77, velocity=0, time=7)\n",
      "Message('note_on', channel=0, note=74, velocity=71, time=6)\n",
      "Message('note_on', channel=0, note=62, velocity=0, time=143)\n",
      "Message('note_on', channel=0, note=76, velocity=73, time=5)\n",
      "Message('note_on', channel=0, note=60, velocity=69, time=9)\n",
      "Message('note_on', channel=0, note=74, velocity=0, time=20)\n",
      "Message('note_on', channel=0, note=76, velocity=0, time=21)\n",
      "Message('note_on', channel=0, note=60, velocity=0, time=95)\n",
      "Message('note_on', channel=0, note=59, velocity=71, time=1)\n",
      "Message('note_on', channel=0, note=57, velocity=67, time=155)\n",
      "Message('note_on', channel=0, note=59, velocity=0, time=11)\n",
      "Message('note_on', channel=0, note=66, velocity=70, time=4)\n",
      "Message('note_on', channel=0, note=57, velocity=0, time=97)\n",
      "Message('note_on', channel=0, note=66, velocity=0, time=30)\n",
      "Message('note_on', channel=0, note=55, velocity=67, time=3)\n",
      "Message('note_on', channel=0, note=67, velocity=70, time=8)\n",
      "Message('note_on', channel=0, note=54, velocity=67, time=168)\n",
      "Message('note_on', channel=0, note=67, velocity=0, time=1)\n",
      "Message('note_on', channel=0, note=69, velocity=73, time=5)\n",
      "Message('note_on', channel=0, note=55, velocity=0, time=14)\n",
      "Message('note_on', channel=0, note=52, velocity=62, time=133)\n",
      "Message('note_on', channel=0, note=71, velocity=75, time=0)\n",
      "Message('note_on', channel=0, note=54, velocity=0, time=13)\n",
      "Message('note_on', channel=0, note=69, velocity=0, time=11)\n",
      "Message('note_on', channel=0, note=50, velocity=71, time=128)\n",
      "Message('note_on', channel=0, note=72, velocity=76, time=7)\n",
      "Message('note_on', channel=0, note=52, velocity=0, time=2)\n",
      "Message('note_on', channel=0, note=71, velocity=0, time=26)\n",
      "Message('note_on', channel=0, note=50, velocity=0, time=60)\n",
      "Message('note_on', channel=0, note=72, velocity=0, time=44)\n",
      "Message('note_on', channel=0, note=48, velocity=63, time=9)\n",
      "Message('note_on', channel=0, note=69, velocity=80, time=9)\n",
      "Message('note_on', channel=0, note=69, velocity=0, time=120)\n",
      "Message('note_on', channel=0, note=48, velocity=0, time=17)\n",
      "Message('note_on', channel=0, note=47, velocity=65, time=5)\n",
      "Message('note_on', channel=0, note=71, velocity=79, time=8)\n",
      "Message('note_on', channel=0, note=45, velocity=69, time=140)\n",
      "Message('note_on', channel=0, note=72, velocity=77, time=2)\n",
      "Message('note_on', channel=0, note=47, velocity=0, time=10)\n",
      "Message('note_on', channel=0, note=71, velocity=0, time=31)\n",
      "Message('note_on', channel=0, note=45, velocity=0, time=112)\n",
      "Message('note_on', channel=0, note=74, velocity=79, time=14)\n",
      "Message('note_on', channel=0, note=43, velocity=72, time=2)\n",
      "Message('note_on', channel=0, note=72, velocity=0, time=28)\n",
      "Message('control_change', channel=0, control=64, value=32, time=91)\n",
      "Message('note_on', channel=0, note=45, velocity=69, time=10)\n",
      "Message('note_on', channel=0, note=43, velocity=0, time=9)\n",
      "Message('note_on', channel=0, note=72, velocity=77, time=11)\n",
      "Message('note_on', channel=0, note=74, velocity=0, time=8)\n",
      "Message('note_on', channel=0, note=47, velocity=69, time=121)\n",
      "Message('note_on', channel=0, note=45, velocity=0, time=12)\n",
      "Message('note_on', channel=0, note=74, velocity=79, time=2)\n",
      "Message('note_on', channel=0, note=72, velocity=0, time=27)\n",
      "Message('note_on', channel=0, note=48, velocity=68, time=108)\n",
      "Message('note_on', channel=0, note=76, velocity=77, time=9)\n",
      "Message('note_on', channel=0, note=74, velocity=0, time=7)\n",
      "Message('note_on', channel=0, note=47, velocity=0, time=2)\n",
      "Message('control_change', channel=0, control=64, value=25, time=11)\n",
      "Message('control_change', channel=0, control=64, value=0, time=17)\n",
      "Message('note_on', channel=0, note=48, velocity=0, time=85)\n",
      "Message('note_on', channel=0, note=76, velocity=0, time=6)\n",
      "Message('note_on', channel=0, note=50, velocity=69, time=30)\n",
      "Message('note_on', channel=0, note=69, velocity=81, time=5)\n",
      "Message('note_on', channel=0, note=66, velocity=73, time=7)\n",
      "Message('control_change', channel=0, control=64, value=20, time=37)\n",
      "Message('control_change', channel=0, control=64, value=68, time=21)\n",
      "Message('control_change', channel=0, control=67, value=31, time=1)\n",
      "Message('control_change', channel=0, control=64, value=75, time=18)\n",
      "Message('control_change', channel=0, control=67, value=27, time=0)\n",
      "Message('control_change', channel=0, control=67, value=21, time=17)\n",
      "Message('control_change', channel=0, control=67, value=15, time=19)\n",
      "Message('note_on', channel=0, note=45, velocity=78, time=12)\n",
      "Message('control_change', channel=0, control=64, value=77, time=5)\n",
      "Message('control_change', channel=0, control=67, value=8, time=1)\n",
      "Message('note_on', channel=0, note=50, velocity=0, time=12)\n",
      "Message('control_change', channel=0, control=64, value=79, time=6)\n",
      "Message('note_on', channel=0, note=66, velocity=0, time=16)\n",
      "Message('control_change', channel=0, control=64, value=83, time=3)\n",
      "Message('control_change', channel=0, control=64, value=90, time=21)\n",
      "Message('control_change', channel=0, control=67, value=0, time=2)\n",
      "Message('note_on', channel=0, note=69, velocity=0, time=2)\n",
      "Message('control_change', channel=0, control=64, value=99, time=15)\n",
      "Message('control_change', channel=0, control=64, value=109, time=21)\n",
      "Message('control_change', channel=0, control=64, value=117, time=17)\n",
      "Message('control_change', channel=0, control=64, value=121, time=34)\n",
      "Message('note_on', channel=0, note=42, velocity=73, time=11)\n",
      "Message('note_on', channel=0, note=45, velocity=0, time=22)\n",
      "Message('note_on', channel=0, note=45, velocity=73, time=127)\n",
      "Message('note_on', channel=0, note=42, velocity=0, time=10)\n",
      "Message('control_change', channel=0, control=64, value=112, time=133)\n",
      "Message('note_on', channel=0, note=45, velocity=0, time=6)\n",
      "Message('control_change', channel=0, control=64, value=68, time=11)\n",
      "Message('note_on', channel=0, note=38, velocity=79, time=2)\n",
      "Message('note_on', channel=0, note=84, velocity=84, time=15)\n",
      "Message('control_change', channel=0, control=64, value=0, time=2)\n",
      "Message('note_on', channel=0, note=84, velocity=0, time=24)\n",
      "Message('note_on', channel=0, note=38, velocity=0, time=110)\n",
      "Message('note_on', channel=0, note=40, velocity=71, time=2)\n",
      "Message('note_on', channel=0, note=42, velocity=74, time=152)\n",
      "Message('note_on', channel=0, note=81, velocity=83, time=13)\n",
      "Message('note_on', channel=0, note=74, velocity=77, time=7)\n",
      "Message('note_on', channel=0, note=40, velocity=0, time=8)\n",
      "Message('note_on', channel=0, note=81, velocity=0, time=19)\n",
      "Message('note_on', channel=0, note=74, velocity=0, time=2)\n",
      "Message('note_on', channel=0, note=43, velocity=74, time=110)\n",
      "Message('note_on', channel=0, note=42, velocity=0, time=26)\n",
      "Message('note_on', channel=0, note=43, velocity=0, time=147)\n",
      "Message('note_on', channel=0, note=45, velocity=75, time=6)\n",
      "Message('note_on', channel=0, note=78, velocity=84, time=13)\n",
      "Message('note_on', channel=0, note=72, velocity=80, time=4)\n",
      "Message('control_change', channel=0, control=64, value=57, time=15)\n",
      "Message('control_change', channel=0, control=64, value=70, time=18)\n",
      "Message('note_on', channel=0, note=47, velocity=75, time=108)\n",
      "Message('note_on', channel=0, note=45, velocity=0, time=17)\n",
      "Message('note_on', channel=0, note=78, velocity=0, time=25)\n",
      "Message('note_on', channel=0, note=47, velocity=0, time=112)\n",
      "Message('note_on', channel=0, note=45, velocity=76, time=1)\n",
      "Message('note_on', channel=0, note=78, velocity=84, time=4)\n",
      "Message('note_on', channel=0, note=78, velocity=0, time=65)\n",
      "Message('note_on', channel=0, note=72, velocity=0, time=6)\n",
      "Message('note_on', channel=0, note=79, velocity=86, time=66)\n",
      "Message('note_on', channel=0, note=43, velocity=79, time=2)\n",
      "Message('note_on', channel=0, note=72, velocity=41, time=7)\n",
      "Message('note_on', channel=0, note=45, velocity=0, time=15)\n",
      "Message('control_change', channel=0, control=64, value=72, time=5)\n",
      "Message('note_on', channel=0, note=72, velocity=0, time=12)\n",
      "Message('note_on', channel=0, note=79, velocity=0, time=11)\n",
      "Message('control_change', channel=0, control=64, value=67, time=34)\n",
      "Message('control_change', channel=0, control=64, value=41, time=19)\n",
      "Message('control_change', channel=0, control=64, value=0, time=19)\n",
      "Message('note_on', channel=0, note=42, velocity=79, time=18)\n",
      "Message('note_on', channel=0, note=81, velocity=84, time=1)\n",
      "Message('note_on', channel=0, note=72, velocity=79, time=4)\n",
      "Message('note_on', channel=0, note=43, velocity=0, time=6)\n",
      "Message('note_on', channel=0, note=72, velocity=0, time=17)\n",
      "Message('note_on', channel=0, note=81, velocity=0, time=12)\n",
      "Message('note_on', channel=0, note=43, velocity=61, time=120)\n",
      "Message('note_on', channel=0, note=42, velocity=0, time=13)\n",
      "Message('note_on', channel=0, note=45, velocity=76, time=143)\n",
      "Message('note_on', channel=0, note=78, velocity=79, time=1)\n",
      "Message('note_on', channel=0, note=69, velocity=78, time=6)\n",
      "Message('note_on', channel=0, note=43, velocity=0, time=3)\n",
      "Message('note_on', channel=0, note=69, velocity=0, time=37)\n",
      "Message('note_on', channel=0, note=78, velocity=0, time=19)\n",
      "Message('note_on', channel=0, note=45, velocity=0, time=70)\n",
      "Message('note_on', channel=0, note=47, velocity=73, time=21)\n",
      "Message('note_on', channel=0, note=48, velocity=72, time=171)\n",
      "Message('note_on', channel=0, note=74, velocity=83, time=8)\n",
      "Message('note_on', channel=0, note=66, velocity=77, time=4)\n",
      "Message('note_on', channel=0, note=47, velocity=0, time=11)\n",
      "Message('control_change', channel=0, control=64, value=68, time=29)\n",
      "Message('control_change', channel=0, control=64, value=66, time=37)\n",
      "Message('note_on', channel=0, note=50, velocity=70, time=64)\n",
      "Message('note_on', channel=0, note=48, velocity=0, time=7)\n",
      "Message('control_change', channel=0, control=64, value=67, time=5)\n",
      "Message('note_on', channel=0, note=74, velocity=0, time=43)\n",
      "Message('note_on', channel=0, note=48, velocity=70, time=112)\n",
      "Message('note_on', channel=0, note=50, velocity=0, time=14)\n",
      "Message('note_on', channel=0, note=74, velocity=77, time=18)\n",
      "Message('control_change', channel=0, control=64, value=66, time=3)\n",
      "Message('note_on', channel=0, note=66, velocity=0, time=2)\n",
      "Message('note_on', channel=0, note=47, velocity=73, time=115)\n",
      "Message('note_on', channel=0, note=76, velocity=80, time=11)\n",
      "Message('control_change', channel=0, control=64, value=67, time=3)\n",
      "Message('note_on', channel=0, note=74, velocity=0, time=4)\n",
      "Message('note_on', channel=0, note=48, velocity=0, time=3)\n",
      "Message('note_on', channel=0, note=76, velocity=0, time=75)\n",
      "Message('control_change', channel=0, control=64, value=57, time=32)\n",
      "Message('note_on', channel=0, note=47, velocity=0, time=18)\n",
      "Message('control_change', channel=0, control=64, value=0, time=2)\n",
      "Message('note_on', channel=0, note=45, velocity=81, time=3)\n",
      "Message('note_on', channel=0, note=72, velocity=79, time=18)\n",
      "Message('note_on', channel=0, note=78, velocity=84, time=0)\n",
      "Message('control_change', channel=0, control=64, value=34, time=86)\n",
      "Message('control_change', channel=0, control=64, value=52, time=19)\n",
      "Message('control_change', channel=0, control=64, value=56, time=18)\n",
      "Message('note_on', channel=0, note=47, velocity=73, time=18)\n",
      "Message('note_on', channel=0, note=78, velocity=0, time=0)\n",
      "Message('note_on', channel=0, note=79, velocity=81, time=4)\n",
      "Message('note_on', channel=0, note=45, velocity=0, time=1)\n",
      "Message('note_on', channel=0, note=48, velocity=74, time=147)\n",
      "Message('note_on', channel=0, note=81, velocity=78, time=15)\n",
      "Message('note_on', channel=0, note=47, velocity=0, time=6)\n",
      "Message('note_on', channel=0, note=79, velocity=0, time=12)\n",
      "Message('note_on', channel=0, note=50, velocity=76, time=105)\n",
      "Message('note_on', channel=0, note=48, velocity=0, time=17)\n",
      "Message('note_on', channel=0, note=78, velocity=81, time=4)\n",
      "Message('note_on', channel=0, note=81, velocity=0, time=6)\n",
      "Message('note_on', channel=0, note=72, velocity=0, time=38)\n",
      "Message('control_change', channel=0, control=64, value=30, time=60)\n",
      "Message('note_on', channel=0, note=78, velocity=0, time=7)\n",
      "Message('control_change', channel=0, control=64, value=0, time=11)\n",
      "Message('note_on', channel=0, note=52, velocity=76, time=5)\n",
      "Message('note_on', channel=0, note=50, velocity=0, time=1)\n",
      "Message('note_on', channel=0, note=79, velocity=87, time=15)\n",
      "Message('note_on', channel=0, note=71, velocity=82, time=10)\n",
      "Message('note_on', channel=0, note=52, velocity=0, time=12)\n",
      "Message('control_change', channel=0, control=64, value=35, time=34)\n",
      "Message('control_change', channel=0, control=64, value=61, time=17)\n",
      "Message('control_change', channel=0, control=64, value=71, time=21)\n",
      "Message('note_on', channel=0, note=71, velocity=0, time=4)\n",
      "Message('control_change', channel=0, control=64, value=74, time=14)\n",
      "Message('note_on', channel=0, note=76, velocity=80, time=31)\n",
      "Message('control_change', channel=0, control=64, value=72, time=5)\n",
      "Message('note_on', channel=0, note=79, velocity=0, time=14)\n",
      "Message('control_change', channel=0, control=64, value=68, time=46)\n",
      "Message('control_change', channel=0, control=64, value=41, time=15)\n",
      "Message('note_on', channel=0, note=76, velocity=0, time=10)\n",
      "Message('control_change', channel=0, control=64, value=0, time=9)\n",
      "Message('note_on', channel=0, note=48, velocity=84, time=51)\n",
      "Message('note_on', channel=0, note=81, velocity=83, time=15)\n",
      "Message('note_on', channel=0, note=72, velocity=80, time=6)\n",
      "Message('control_change', channel=0, control=64, value=48, time=1)\n",
      "Message('note_on', channel=0, note=48, velocity=0, time=4)\n",
      "Message('control_change', channel=0, control=64, value=72, time=18)\n",
      "Message('control_change', channel=0, control=64, value=84, time=20)\n",
      "Message('control_change', channel=0, control=64, value=96, time=34)\n",
      "Message('control_change', channel=0, control=64, value=104, time=19)\n",
      "Message('control_change', channel=0, control=64, value=109, time=20)\n",
      "Message('note_on', channel=0, note=72, velocity=0, time=33)\n",
      "Message('note_on', channel=0, note=81, velocity=0, time=15)\n",
      "Message('control_change', channel=0, control=64, value=113, time=26)\n",
      "Message('control_change', channel=0, control=64, value=120, time=38)\n",
      "Message('control_change', channel=0, control=64, value=126, time=17)\n",
      "Message('note_on', channel=0, note=50, velocity=84, time=73)\n",
      "Message('note_on', channel=0, note=79, velocity=91, time=0)\n",
      "Message('note_on', channel=0, note=69, velocity=79, time=15)\n",
      "Message('note_on', channel=0, note=50, velocity=0, time=17)\n",
      "Message('note_on', channel=0, note=78, velocity=71, time=9)\n",
      "Message('control_change', channel=0, control=64, value=82, time=3)\n",
      "Message('note_on', channel=0, note=69, velocity=0, time=5)\n",
      "Message('note_on', channel=0, note=79, velocity=0, time=8)\n",
      "Message('control_change', channel=0, control=64, value=0, time=7)\n",
      "Message('note_on', channel=0, note=78, velocity=0, time=43)\n",
      "Message('note_on', channel=0, note=69, velocity=49, time=7)\n",
      "Message('note_on', channel=0, note=79, velocity=76, time=7)\n",
      "Message('note_on', channel=0, note=78, velocity=80, time=42)\n",
      "Message('note_on', channel=0, note=79, velocity=0, time=37)\n",
      "Message('note_on', channel=0, note=38, velocity=81, time=146)\n",
      "Message('note_on', channel=0, note=38, velocity=0, time=37)\n",
      "Message('note_on', channel=0, note=79, velocity=85, time=122)\n",
      "Message('note_on', channel=0, note=78, velocity=0, time=15)\n",
      "Message('note_on', channel=0, note=69, velocity=0, time=16)\n",
      "Message('note_on', channel=0, note=79, velocity=0, time=12)\n",
      "Message('note_on', channel=0, note=79, velocity=76, time=213)\n",
      "Message('note_on', channel=0, note=43, velocity=66, time=3)\n",
      "Message('note_on', channel=0, note=71, velocity=72, time=5)\n",
      "Message('control_change', channel=0, control=64, value=19, time=175)\n",
      "Message('control_change', channel=0, control=64, value=55, time=18)\n",
      "Message('control_change', channel=0, control=64, value=70, time=21)\n",
      "Message('control_change', channel=0, control=64, value=81, time=18)\n",
      "Message('control_change', channel=0, control=64, value=94, time=20)\n",
      "Message('control_change', channel=0, control=64, value=109, time=18)\n",
      "Message('control_change', channel=0, control=67, value=10, time=1)\n",
      "Message('control_change', channel=0, control=64, value=121, time=17)\n",
      "Message('control_change', channel=0, control=67, value=18, time=1)\n",
      "Message('control_change', channel=0, control=64, value=127, time=18)\n",
      "Message('control_change', channel=0, control=67, value=25, time=1)\n",
      "Message('control_change', channel=0, control=67, value=29, time=20)\n",
      "Message('control_change', channel=0, control=67, value=33, time=17)\n",
      "Message('note_on', channel=0, note=43, velocity=0, time=0)\n",
      "Message('note_on', channel=0, note=79, velocity=0, time=6)\n",
      "Message('control_change', channel=0, control=67, value=39, time=14)\n",
      "Message('control_change', channel=0, control=67, value=51, time=17)\n",
      "Message('note_on', channel=0, note=71, velocity=0, time=0)\n",
      "Message('control_change', channel=0, control=67, value=68, time=20)\n",
      "Message('control_change', channel=0, control=67, value=86, time=19)\n",
      "Message('control_change', channel=0, control=67, value=98, time=18)\n",
      "Message('control_change', channel=0, control=67, value=106, time=20)\n",
      "Message('control_change', channel=0, control=67, value=113, time=18)\n",
      "Message('control_change', channel=0, control=67, value=119, time=18)\n",
      "Message('control_change', channel=0, control=67, value=124, time=19)\n",
      "Message('control_change', channel=0, control=64, value=121, time=77)\n",
      "Message('control_change', channel=0, control=64, value=110, time=19)\n",
      "Message('control_change', channel=0, control=64, value=97, time=19)\n",
      "Message('control_change', channel=0, control=64, value=84, time=20)\n",
      "Message('control_change', channel=0, control=64, value=74, time=17)\n",
      "Message('control_change', channel=0, control=64, value=65, time=20)\n",
      "Message('control_change', channel=0, control=64, value=54, time=18)\n",
      "Message('control_change', channel=0, control=64, value=39, time=21)\n",
      "Message('control_change', channel=0, control=64, value=0, time=16)\n",
      "Message('note_on', channel=0, note=69, velocity=62, time=68)\n",
      "Message('note_on', channel=0, note=66, velocity=61, time=7)\n",
      "Message('note_on', channel=0, note=62, velocity=51, time=2)\n",
      "Message('note_on', channel=0, note=69, velocity=0, time=32)\n",
      "Message('note_on', channel=0, note=66, velocity=0, time=2)\n",
      "Message('note_on', channel=0, note=62, velocity=0, time=11)\n",
      "Message('note_on', channel=0, note=74, velocity=68, time=283)\n",
      "Message('note_on', channel=0, note=57, velocity=56, time=8)\n",
      "Message('note_on', channel=0, note=66, velocity=55, time=3)\n",
      "Message('note_on', channel=0, note=69, velocity=48, time=11)\n",
      "Message('note_on', channel=0, note=66, velocity=0, time=25)\n",
      "Message('note_on', channel=0, note=69, velocity=0, time=5)\n",
      "Message('note_on', channel=0, note=57, velocity=0, time=9)\n",
      "Message('note_on', channel=0, note=74, velocity=0, time=0)\n",
      "Message('note_on', channel=0, note=74, velocity=58, time=283)\n",
      "Message('note_on', channel=0, note=55, velocity=51, time=1)\n",
      "Message('note_on', channel=0, note=78, velocity=67, time=1)\n",
      "Message('note_on', channel=0, note=69, velocity=54, time=8)\n",
      "Message('note_on', channel=0, note=54, velocity=67, time=126)\n",
      "Message('note_on', channel=0, note=55, velocity=0, time=9)\n",
      "Message('note_on', channel=0, note=52, velocity=55, time=146)\n",
      "Message('note_on', channel=0, note=54, velocity=0, time=9)\n",
      "Message('note_on', channel=0, note=52, velocity=0, time=128)\n",
      "Message('note_on', channel=0, note=50, velocity=75, time=10)\n",
      "Message('note_on', channel=0, note=74, velocity=0, time=44)\n",
      "Message('note_on', channel=0, note=50, velocity=0, time=96)\n",
      "Message('note_on', channel=0, note=79, velocity=73, time=18)\n",
      "Message('note_on', channel=0, note=57, velocity=73, time=3)\n",
      "Message('note_on', channel=0, note=78, velocity=0, time=21)\n",
      "Message('note_on', channel=0, note=57, velocity=0, time=14)\n",
      "Message('note_on', channel=0, note=78, velocity=71, time=113)\n",
      "Message('note_on', channel=0, note=79, velocity=0, time=22)\n",
      "Message('note_on', channel=0, note=76, velocity=72, time=120)\n",
      "Message('note_on', channel=0, note=60, velocity=67, time=9)\n",
      "Message('control_change', channel=0, control=64, value=36, time=7)\n",
      "Message('control_change', channel=0, control=67, value=120, time=1)\n",
      "Message('control_change', channel=0, control=64, value=55, time=19)\n",
      "Message('note_on', channel=0, note=78, velocity=0, time=0)\n",
      "Message('note_on', channel=0, note=60, velocity=0, time=6)\n",
      "Message('control_change', channel=0, control=64, value=62, time=13)\n",
      "Message('control_change', channel=0, control=64, value=66, time=18)\n",
      "Message('note_on', channel=0, note=69, velocity=0, time=4)\n",
      "Message('control_change', channel=0, control=64, value=70, time=15)\n",
      "Message('control_change', channel=0, control=64, value=73, time=20)\n",
      "Message('note_on', channel=0, note=76, velocity=0, time=13)\n",
      "Message('note_on', channel=0, note=74, velocity=57, time=8)\n",
      "Message('note_on', channel=0, note=74, velocity=0, time=30)\n",
      "Message('control_change', channel=0, control=64, value=76, time=44)\n",
      "Message('control_change', channel=0, control=64, value=78, time=36)\n",
      "Message('note_on', channel=0, note=67, velocity=64, time=0)\n",
      "Message('control_change', channel=0, control=64, value=76, time=20)\n",
      "Message('note_on', channel=0, note=74, velocity=62, time=9)\n",
      "Message('control_change', channel=0, control=64, value=68, time=8)\n",
      "Message('note_on', channel=0, note=59, velocity=54, time=18)\n",
      "Message('control_change', channel=0, control=64, value=50, time=1)\n",
      "Message('control_change', channel=0, control=64, value=0, time=19)\n",
      "Message('note_on', channel=0, note=79, velocity=69, time=44)\n",
      "Message('control_change', channel=0, control=64, value=28, time=86)\n",
      "Message('control_change', channel=0, control=64, value=53, time=19)\n",
      "Message('control_change', channel=0, control=64, value=63, time=19)\n",
      "Message('control_change', channel=0, control=64, value=68, time=19)\n",
      "Message('note_on', channel=0, note=60, velocity=55, time=14)\n",
      "Message('note_on', channel=0, note=59, velocity=0, time=3)\n",
      "Message('control_change', channel=0, control=64, value=71, time=1)\n",
      "Message('control_change', channel=0, control=64, value=74, time=18)\n",
      "Message('note_on', channel=0, note=74, velocity=0, time=15)\n",
      "Message('control_change', channel=0, control=64, value=76, time=3)\n",
      "Message('control_change', channel=0, control=64, value=78, time=77)\n",
      "Message('note_on', channel=0, note=60, velocity=0, time=25)\n",
      "Message('note_on', channel=0, note=79, velocity=0, time=0)\n",
      "Message('control_change', channel=0, control=64, value=70, time=12)\n",
      "Message('note_on', channel=0, note=59, velocity=58, time=5)\n",
      "Message('note_on', channel=0, note=74, velocity=77, time=4)\n",
      "Message('note_on', channel=0, note=67, velocity=0, time=5)\n",
      "Message('control_change', channel=0, control=64, value=48, time=4)\n",
      "Message('control_change', channel=0, control=64, value=0, time=21)\n",
      "Message('note_on', channel=0, note=74, velocity=0, time=6)\n",
      "Message('note_on', channel=0, note=59, velocity=0, time=105)\n",
      "Message('note_on', channel=0, note=57, velocity=61, time=2)\n",
      "Message('note_on', channel=0, note=55, velocity=68, time=151)\n",
      "Message('note_on', channel=0, note=83, velocity=62, time=0)\n",
      "Message('note_on', channel=0, note=57, velocity=0, time=3)\n",
      "Message('note_on', channel=0, note=74, velocity=65, time=4)\n",
      "Message('note_on', channel=0, note=81, velocity=41, time=30)\n",
      "Message('note_on', channel=0, note=74, velocity=0, time=4)\n",
      "Message('note_on', channel=0, note=83, velocity=0, time=11)\n",
      "Message('note_on', channel=0, note=79, velocity=13, time=3)\n",
      "Message('note_on', channel=0, note=81, velocity=0, time=21)\n",
      "Message('note_on', channel=0, note=79, velocity=0, time=55)\n",
      "Message('note_on', channel=0, note=55, velocity=0, time=4)\n",
      "Message('note_on', channel=0, note=57, velocity=66, time=6)\n",
      "Message('note_on', channel=0, note=79, velocity=66, time=167)\n",
      "Message('note_on', channel=0, note=59, velocity=61, time=4)\n",
      "Message('note_on', channel=0, note=57, velocity=0, time=4)\n",
      "Message('note_on', channel=0, note=71, velocity=67, time=5)\n",
      "Message('note_on', channel=0, note=79, velocity=0, time=28)\n",
      "Message('note_on', channel=0, note=71, velocity=0, time=2)\n",
      "Message('note_on', channel=0, note=59, velocity=0, time=96)\n",
      "Message('note_on', channel=0, note=55, velocity=66, time=21)\n",
      "Message('control_change', channel=0, control=64, value=25, time=169)\n",
      "Message('note_on', channel=0, note=76, velocity=73, time=6)\n",
      "Message('note_on', channel=0, note=60, velocity=62, time=3)\n",
      "Message('note_on', channel=0, note=55, velocity=0, time=4)\n",
      "Message('note_on', channel=0, note=67, velocity=68, time=6)\n",
      "Message('control_change', channel=0, control=64, value=50, time=2)\n",
      "Message('control_change', channel=0, control=67, value=115, time=1)\n",
      "Message('control_change', channel=0, control=64, value=58, time=17)\n",
      "Message('control_change', channel=0, control=64, value=62, time=19)\n",
      "Message('control_change', channel=0, control=67, value=111, time=1)\n",
      "Message('control_change', channel=0, control=64, value=63, time=18)\n",
      "Message('control_change', channel=0, control=64, value=67, time=19)\n",
      "Message('control_change', channel=0, control=64, value=71, time=17)\n",
      "Message('note_on', channel=0, note=60, velocity=0, time=14)\n",
      "Message('note_on', channel=0, note=67, velocity=0, time=0)\n",
      "Message('control_change', channel=0, control=64, value=74, time=6)\n",
      "Message('control_change', channel=0, control=67, value=107, time=1)\n",
      "Message('note_on', channel=0, note=76, velocity=0, time=18)\n",
      "Message('note_on', channel=0, note=62, velocity=59, time=2)\n",
      "Message('control_change', channel=0, control=67, value=99, time=18)\n",
      "Message('control_change', channel=0, control=67, value=94, time=35)\n",
      "Message('control_change', channel=0, control=64, value=72, time=78)\n",
      "Message('note_on', channel=0, note=62, velocity=0, time=13)\n",
      "Message('note_on', channel=0, note=60, velocity=65, time=1)\n",
      "Message('note_on', channel=0, note=78, velocity=77, time=4)\n",
      "Message('note_on', channel=0, note=69, velocity=75, time=3)\n",
      "Message('control_change', channel=0, control=64, value=70, time=16)\n",
      "Message('control_change', channel=0, control=64, value=67, time=19)\n",
      "Message('note_on', channel=0, note=69, velocity=0, time=0)\n",
      "Message('control_change', channel=0, control=67, value=89, time=1)\n",
      "Message('note_on', channel=0, note=78, velocity=0, time=2)\n",
      "Message('control_change', channel=0, control=64, value=63, time=15)\n",
      "Message('control_change', channel=0, control=64, value=58, time=19)\n",
      "Message('control_change', channel=0, control=64, value=54, time=19)\n",
      "Message('control_change', channel=0, control=64, value=51, time=19)\n",
      "Message('control_change', channel=0, control=64, value=48, time=18)\n",
      "Message('note_on', channel=0, note=59, velocity=70, time=2)\n",
      "Message('note_on', channel=0, note=79, velocity=80, time=2)\n",
      "Message('note_on', channel=0, note=60, velocity=0, time=4)\n",
      "Message('note_on', channel=0, note=71, velocity=70, time=2)\n",
      "Message('control_change', channel=0, control=64, value=33, time=10)\n",
      "Message('note_on', channel=0, note=79, velocity=0, time=15)\n",
      "Message('control_change', channel=0, control=64, value=0, time=1)\n",
      "Message('note_on', channel=0, note=71, velocity=0, time=2)\n",
      "Message('note_on', channel=0, note=59, velocity=0, time=43)\n",
      "Message('note_on', channel=0, note=57, velocity=69, time=60)\n",
      "Message('note_on', channel=0, note=81, velocity=75, time=7)\n",
      "Message('note_on', channel=0, note=72, velocity=71, time=6)\n",
      "Message('note_on', channel=0, note=81, velocity=0, time=27)\n",
      "Message('note_on', channel=0, note=72, velocity=0, time=6)\n",
      "Message('note_on', channel=0, note=59, velocity=60, time=101)\n",
      "Message('note_on', channel=0, note=57, velocity=0, time=3)\n",
      "Message('note_on', channel=0, note=59, velocity=0, time=153)\n",
      "Message('note_on', channel=0, note=78, velocity=65, time=31)\n",
      "Message('note_on', channel=0, note=60, velocity=54, time=7)\n",
      "Message('note_on', channel=0, note=69, velocity=64, time=20)\n",
      "Message('note_on', channel=0, note=69, velocity=0, time=34)\n",
      "Message('note_on', channel=0, note=78, velocity=0, time=10)\n",
      "Message('note_on', channel=0, note=60, velocity=0, time=90)\n",
      "Message('note_on', channel=0, note=57, velocity=58, time=8)\n",
      "Message('control_change', channel=0, control=67, value=94, time=164)\n",
      "Message('note_on', channel=0, note=59, velocity=41, time=39)\n",
      "Message('note_on', channel=0, note=76, velocity=58, time=11)\n",
      "Message('note_on', channel=0, note=57, velocity=0, time=14)\n",
      "Message('note_on', channel=0, note=66, velocity=44, time=9)\n",
      "Message('control_change', channel=0, control=67, value=98, time=60)\n",
      "Message('note_on', channel=0, note=59, velocity=0, time=48)\n",
      "Message('note_on', channel=0, note=76, velocity=0, time=18)\n",
      "Message('note_on', channel=0, note=75, velocity=59, time=18)\n",
      "Message('control_change', channel=0, control=67, value=102, time=10)\n",
      "Message('control_change', channel=0, control=67, value=106, time=94)\n",
      "Message('control_change', channel=0, control=64, value=38, time=167)\n",
      "Message('note_on', channel=0, note=47, velocity=40, time=12)\n",
      "Message('control_change', channel=0, control=64, value=54, time=5)\n",
      "Message('control_change', channel=0, control=64, value=65, time=21)\n",
      "Message('control_change', channel=0, control=64, value=73, time=19)\n",
      "Message('note_on', channel=0, note=66, velocity=0, time=3)\n",
      "Message('control_change', channel=0, control=64, value=80, time=15)\n",
      "Message('control_change', channel=0, control=64, value=86, time=19)\n",
      "Message('control_change', channel=0, control=64, value=92, time=18)\n",
      "Message('control_change', channel=0, control=64, value=98, time=21)\n",
      "Message('control_change', channel=0, control=64, value=103, time=16)\n",
      "Message('control_change', channel=0, control=64, value=108, time=20)\n",
      "Message('control_change', channel=0, control=64, value=112, time=20)\n",
      "Message('note_on', channel=0, note=47, velocity=0, time=98)\n",
      "Message('control_change', channel=0, control=64, value=96, time=70)\n",
      "Message('control_change', channel=0, control=64, value=81, time=18)\n",
      "Message('note_on', channel=0, note=71, velocity=66, time=12)\n",
      "Message('note_on', channel=0, note=75, velocity=0, time=0)\n",
      "Message('control_change', channel=0, control=64, value=75, time=8)\n",
      "Message('control_change', channel=0, control=64, value=79, time=38)\n",
      "Message('control_change', channel=0, control=64, value=82, time=38)\n",
      "Message('control_change', channel=0, control=64, value=84, time=21)\n",
      "Message('control_change', channel=0, control=64, value=87, time=18)\n",
      "Message('note_on', channel=0, note=71, velocity=0, time=27)\n",
      "Message('note_on', channel=0, note=73, velocity=49, time=34)\n",
      "Message('control_change', channel=0, control=64, value=91, time=14)\n",
      "Message('control_change', channel=0, control=64, value=95, time=36)\n",
      "Message('control_change', channel=0, control=64, value=79, time=78)\n",
      "Message('note_on', channel=0, note=66, velocity=68, time=10)\n",
      "Message('control_change', channel=0, control=64, value=55, time=9)\n",
      "Message('note_on', channel=0, note=75, velocity=65, time=1)\n",
      "Message('note_on', channel=0, note=73, velocity=0, time=8)\n",
      "Message('control_change', channel=0, control=64, value=45, time=8)\n",
      "Message('control_change', channel=0, control=64, value=57, time=20)\n",
      "Message('control_change', channel=0, control=64, value=69, time=18)\n",
      "Message('control_change', channel=0, control=64, value=77, time=20)\n",
      "Message('control_change', channel=0, control=64, value=81, time=18)\n",
      "Message('note_on', channel=0, note=66, velocity=0, time=12)\n",
      "Message('note_on', channel=0, note=75, velocity=0, time=20)\n",
      "Message('note_on', channel=0, note=76, velocity=56, time=26)\n",
      "Message('control_change', channel=0, control=64, value=86, time=17)\n",
      "Message('control_change', channel=0, control=64, value=93, time=18)\n",
      "Message('control_change', channel=0, control=64, value=100, time=21)\n",
      "Message('note_on', channel=0, note=76, velocity=0, time=81)\n",
      "Message('control_change', channel=0, control=64, value=88, time=10)\n",
      "Message('control_change', channel=0, control=64, value=68, time=18)\n",
      "Message('note_on', channel=0, note=63, velocity=75, time=3)\n",
      "Message('note_on', channel=0, note=78, velocity=67, time=1)\n",
      "Message('control_change', channel=0, control=64, value=37, time=15)\n",
      "Message('control_change', channel=0, control=64, value=52, time=39)\n",
      "Message('control_change', channel=0, control=64, value=66, time=16)\n",
      "Message('control_change', channel=0, control=64, value=73, time=21)\n",
      "Message('note_on', channel=0, note=63, velocity=0, time=8)\n",
      "Message('control_change', channel=0, control=64, value=75, time=8)\n",
      "Message('note_on', channel=0, note=79, velocity=58, time=53)\n",
      "Message('note_on', channel=0, note=78, velocity=0, time=8)\n",
      "Message('control_change', channel=0, control=64, value=71, time=129)\n",
      "Message('control_change', channel=0, control=64, value=62, time=18)\n",
      "Message('note_on', channel=0, note=78, velocity=65, time=6)\n",
      "Message('note_on', channel=0, note=63, velocity=74, time=7)\n",
      "Message('control_change', channel=0, control=64, value=45, time=6)\n",
      "Message('control_change', channel=0, control=64, value=11, time=21)\n",
      "Message('note_on', channel=0, note=79, velocity=0, time=22)\n",
      "Message('note_on', channel=0, note=64, velocity=63, time=81)\n",
      "Message('note_on', channel=0, note=63, velocity=0, time=1)\n",
      "Message('note_on', channel=0, note=76, velocity=69, time=0)\n",
      "Message('note_on', channel=0, note=65, velocity=69, time=14)\n",
      "Message('note_on', channel=0, note=78, velocity=0, time=10)\n",
      "Message('control_change', channel=0, control=64, value=0, time=40)\n",
      "Message('note_on', channel=0, note=76, velocity=0, time=65)\n",
      "Message('note_on', channel=0, note=65, velocity=0, time=6)\n",
      "Message('note_on', channel=0, note=64, velocity=0, time=23)\n",
      "Message('note_on', channel=0, note=75, velocity=62, time=0)\n",
      "Message('note_on', channel=0, note=66, velocity=81, time=1)\n",
      "Message('note_on', channel=0, note=66, velocity=0, time=56)\n",
      "Message('note_on', channel=0, note=75, velocity=0, time=79)\n",
      "Message('note_on', channel=0, note=76, velocity=66, time=13)\n",
      "Message('note_on', channel=0, note=76, velocity=0, time=147)\n",
      "Message('note_on', channel=0, note=63, velocity=80, time=38)\n",
      "Message('note_on', channel=0, note=78, velocity=70, time=5)\n",
      "Message('note_on', channel=0, note=63, velocity=0, time=46)\n",
      "Message('note_on', channel=0, note=78, velocity=0, time=83)\n",
      "Message('note_on', channel=0, note=79, velocity=73, time=10)\n",
      "Message('control_change', channel=0, control=64, value=9, time=30)\n",
      "Message('control_change', channel=0, control=64, value=0, time=56)\n",
      "Message('note_on', channel=0, note=79, velocity=0, time=66)\n",
      "Message('note_on', channel=0, note=59, velocity=76, time=25)\n",
      "Message('note_on', channel=0, note=81, velocity=68, time=2)\n",
      "Message('control_change', channel=0, control=64, value=32, time=39)\n",
      "Message('control_change', channel=0, control=64, value=50, time=19)\n",
      "Message('control_change', channel=0, control=64, value=60, time=19)\n",
      "Message('note_on', channel=0, note=59, velocity=0, time=3)\n",
      "Message('control_change', channel=0, control=64, value=65, time=16)\n",
      "Message('control_change', channel=0, control=64, value=66, time=20)\n",
      "Message('note_on', channel=0, note=83, velocity=52, time=31)\n",
      "Message('note_on', channel=0, note=81, velocity=0, time=17)\n",
      "Message('control_change', channel=0, control=64, value=68, time=27)\n",
      "Message('note_on', channel=0, note=81, velocity=66, time=124)\n",
      "Message('note_on', channel=0, note=59, velocity=74, time=2)\n",
      "Message('control_change', channel=0, control=64, value=65, time=3)\n",
      "Message('control_change', channel=0, control=64, value=60, time=22)\n",
      "Message('control_change', channel=0, control=64, value=53, time=19)\n",
      "Message('note_on', channel=0, note=83, velocity=0, time=1)\n",
      "Message('control_change', channel=0, control=64, value=50, time=18)\n",
      "Message('note_on', channel=0, note=79, velocity=72, time=77)\n",
      "Message('note_on', channel=0, note=61, velocity=76, time=11)\n",
      "Message('control_change', channel=0, control=64, value=48, time=4)\n",
      "Message('note_on', channel=0, note=59, velocity=0, time=9)\n",
      "Message('note_on', channel=0, note=81, velocity=0, time=1)\n",
      "Message('control_change', channel=0, control=64, value=46, time=28)\n",
      "Message('note_on', channel=0, note=79, velocity=0, time=74)\n",
      "Message('note_on', channel=0, note=63, velocity=82, time=37)\n",
      "Message('note_on', channel=0, note=78, velocity=71, time=6)\n",
      "Message('note_on', channel=0, note=61, velocity=0, time=8)\n",
      "Message('note_on', channel=0, note=63, velocity=0, time=24)\n",
      "Message('note_on', channel=0, note=78, velocity=0, time=96)\n",
      "Message('note_on', channel=0, note=79, velocity=70, time=14)\n",
      "Message('control_change', channel=0, control=64, value=43, time=59)\n",
      "Message('control_change', channel=0, control=64, value=37, time=20)\n",
      "Message('control_change', channel=0, control=64, value=0, time=19)\n",
      "Message('note_on', channel=0, note=79, velocity=0, time=39)\n",
      "Message('note_on', channel=0, note=59, velocity=81, time=22)\n",
      "Message('note_on', channel=0, note=81, velocity=76, time=4)\n",
      "Message('note_on', channel=0, note=59, velocity=0, time=33)\n",
      "Message('note_on', channel=0, note=83, velocity=78, time=113)\n",
      "Message('note_on', channel=0, note=81, velocity=0, time=33)\n",
      "Message('note_on', channel=0, note=84, velocity=78, time=126)\n",
      "Message('note_on', channel=0, note=55, velocity=71, time=11)\n",
      "Message('note_on', channel=0, note=83, velocity=0, time=27)\n",
      "Message('note_on', channel=0, note=81, velocity=78, time=112)\n",
      "Message('note_on', channel=0, note=84, velocity=0, time=2)\n",
      "Message('note_on', channel=0, note=54, velocity=64, time=9)\n",
      "Message('note_on', channel=0, note=55, velocity=0, time=30)\n",
      "Message('note_on', channel=0, note=55, velocity=74, time=124)\n",
      "Message('note_on', channel=0, note=81, velocity=0, time=1)\n",
      "Message('note_on', channel=0, note=83, velocity=75, time=8)\n",
      "Message('note_on', channel=0, note=54, velocity=0, time=13)\n",
      "Message('note_on', channel=0, note=83, velocity=0, time=14)\n",
      "Message('note_on', channel=0, note=55, velocity=0, time=92)\n",
      "Message('note_on', channel=0, note=57, velocity=70, time=14)\n",
      "Message('note_on', channel=0, note=59, velocity=75, time=158)\n",
      "Message('note_on', channel=0, note=76, velocity=74, time=6)\n",
      "Message('note_on', channel=0, note=57, velocity=0, time=4)\n",
      "Message('note_on', channel=0, note=67, velocity=70, time=2)\n",
      "Message('note_on', channel=0, note=59, velocity=0, time=19)\n",
      "Message('note_on', channel=0, note=67, velocity=0, time=9)\n",
      "Message('note_on', channel=0, note=76, velocity=0, time=1)\n",
      "Message('note_on', channel=0, note=47, velocity=69, time=279)\n",
      "Message('note_on', channel=0, note=78, velocity=76, time=20)\n",
      "Message('note_on', channel=0, note=69, velocity=75, time=6)\n",
      "Message('note_on', channel=0, note=47, velocity=0, time=19)\n",
      "Message('control_change', channel=0, control=64, value=13, time=6)\n",
      "Message('note_on', channel=0, note=69, velocity=0, time=43)\n",
      "Message('note_on', channel=0, note=78, velocity=0, time=29)\n",
      "Message('note_on', channel=0, note=75, velocity=73, time=26)\n",
      "Message('control_change', channel=0, control=64, value=18, time=37)\n",
      "Message('control_change', channel=0, control=64, value=0, time=54)\n",
      "Message('note_on', channel=0, note=52, velocity=66, time=83)\n",
      "Message('note_on', channel=0, note=76, velocity=74, time=4)\n",
      "Message('note_on', channel=0, note=67, velocity=68, time=17)\n",
      "Message('note_on', channel=0, note=75, velocity=0, time=2)\n",
      "Message('control_change', channel=0, control=64, value=23, time=62)\n",
      "Message('control_change', channel=0, control=64, value=39, time=18)\n",
      "Message('control_change', channel=0, control=64, value=48, time=19)\n",
      "Message('control_change', channel=0, control=64, value=53, time=18)\n",
      "Message('control_change', channel=0, control=64, value=57, time=18)\n",
      "Message('note_on', channel=0, note=52, velocity=0, time=0)\n",
      "Message('note_on', channel=0, note=47, velocity=68, time=2)\n",
      "Message('control_change', channel=0, control=64, value=60, time=18)\n",
      "Message('control_change', channel=0, control=64, value=62, time=18)\n",
      "Message('control_change', channel=0, control=64, value=64, time=21)\n",
      "Message('control_change', channel=0, control=64, value=65, time=18)\n",
      "Message('control_change', channel=0, control=67, value=102, time=20)\n",
      "Message('note_on', channel=0, note=76, velocity=0, time=9)\n",
      "Message('note_on', channel=0, note=67, velocity=0, time=13)\n",
      "Message('note_on', channel=0, note=43, velocity=72, time=42)\n",
      "Message('note_on', channel=0, note=47, velocity=0, time=13)\n",
      "Message('control_change', channel=0, control=64, value=66, time=16)\n",
      "Message('control_change', channel=0, control=67, value=98, time=75)\n",
      "Message('control_change', channel=0, control=64, value=67, time=38)\n",
      "Message('note_on', channel=0, note=47, velocity=73, time=10)\n",
      "Message('note_on', channel=0, note=43, velocity=0, time=18)\n",
      "Message('control_change', channel=0, control=67, value=94, time=11)\n",
      "Message('control_change', channel=0, control=64, value=71, time=20)\n",
      "Message('control_change', channel=0, control=64, value=75, time=16)\n",
      "Message('control_change', channel=0, control=64, value=80, time=19)\n",
      "Message('control_change', channel=0, control=64, value=85, time=22)\n",
      "Message('note_on', channel=0, note=47, velocity=0, time=11)\n",
      "Message('control_change', channel=0, control=64, value=79, time=4)\n",
      "Message('note_on', channel=0, note=40, velocity=74, time=15)\n",
      "Message('control_change', channel=0, control=64, value=50, time=4)\n",
      "Message('note_on', channel=0, note=71, velocity=82, time=15)\n",
      "Message('control_change', channel=0, control=64, value=0, time=3)\n",
      "Message('note_on', channel=0, note=67, velocity=78, time=3)\n",
      "Message('note_on', channel=0, note=67, velocity=0, time=32)\n",
      "Message('note_on', channel=0, note=71, velocity=0, time=7)\n",
      "Message('note_on', channel=0, note=42, velocity=72, time=90)\n",
      "Message('note_on', channel=0, note=40, velocity=0, time=30)\n",
      "Message('note_on', channel=0, note=42, velocity=0, time=121)\n",
      "Message('note_on', channel=0, note=43, velocity=75, time=10)\n",
      "Message('note_on', channel=0, note=76, velocity=85, time=29)\n",
      "Message('note_on', channel=0, note=71, velocity=79, time=2)\n",
      "Message('note_on', channel=0, note=71, velocity=0, time=28)\n",
      "Message('note_on', channel=0, note=76, velocity=0, time=10)\n",
      "Message('note_on', channel=0, note=45, velocity=73, time=104)\n",
      "Message('note_on', channel=0, note=43, velocity=0, time=26)\n",
      "Message('note_on', channel=0, note=79, velocity=81, time=166)\n",
      "Message('note_on', channel=0, note=45, velocity=0, time=1)\n",
      "Message('note_on', channel=0, note=47, velocity=69, time=1)\n",
      "Message('note_on', channel=0, note=74, velocity=76, time=3)\n",
      "Message('control_change', channel=0, control=64, value=25, time=110)\n",
      "Message('control_change', channel=0, control=64, value=31, time=19)\n",
      "Message('note_on', channel=0, note=48, velocity=56, time=30)\n",
      "Message('control_change', channel=0, control=64, value=37, time=7)\n",
      "Message('note_on', channel=0, note=47, velocity=0, time=23)\n",
      "Message('note_on', channel=0, note=50, velocity=71, time=128)\n",
      "Message('note_on', channel=0, note=48, velocity=0, time=19)\n",
      "Message('control_change', channel=0, control=64, value=33, time=57)\n",
      "Message('note_on', channel=0, note=52, velocity=75, time=69)\n",
      "Message('control_change', channel=0, control=64, value=26, time=3)\n",
      "Message('control_change', channel=0, control=67, value=90, time=2)\n",
      "Message('note_on', channel=0, note=50, velocity=0, time=19)\n",
      "Message('control_change', channel=0, control=64, value=22, time=19)\n",
      "Message('note_on', channel=0, note=74, velocity=0, time=109)\n",
      "Message('control_change', channel=0, control=64, value=18, time=1)\n",
      "Message('control_change', channel=0, control=67, value=85, time=2)\n",
      "Message('note_on', channel=0, note=52, velocity=0, time=4)\n",
      "Message('note_on', channel=0, note=53, velocity=71, time=2)\n",
      "Message('note_on', channel=0, note=72, velocity=74, time=10)\n",
      "Message('note_on', channel=0, note=79, velocity=0, time=31)\n",
      "Message('control_change', channel=0, control=67, value=81, time=8)\n",
      "Message('control_change', channel=0, control=67, value=75, time=57)\n",
      "Message('note_on', channel=0, note=72, velocity=0, time=34)\n",
      "Message('note_on', channel=0, note=71, velocity=78, time=19)\n",
      "Message('note_on', channel=0, note=55, velocity=68, time=7)\n",
      "Message('note_on', channel=0, note=53, velocity=0, time=28)\n",
      "Message('control_change', channel=0, control=67, value=71, time=26)\n",
      "Message('note_on', channel=0, note=57, velocity=73, time=81)\n",
      "Message('note_on', channel=0, note=69, velocity=80, time=6)\n",
      "Message('note_on', channel=0, note=71, velocity=0, time=8)\n",
      "Message('note_on', channel=0, note=55, velocity=0, time=8)\n",
      "Message('note_on', channel=0, note=59, velocity=75, time=117)\n",
      "Message('note_on', channel=0, note=69, velocity=0, time=1)\n",
      "Message('note_on', channel=0, note=67, velocity=73, time=16)\n",
      "Message('note_on', channel=0, note=57, velocity=0, time=10)\n",
      "Message('note_on', channel=0, note=59, velocity=0, time=112)\n",
      "Message('note_on', channel=0, note=60, velocity=67, time=24)\n",
      "Message('note_on', channel=0, note=77, velocity=79, time=7)\n",
      "Message('note_on', channel=0, note=67, velocity=0, time=33)\n",
      "Message('control_change', channel=0, control=64, value=22, time=29)\n",
      "Message('control_change', channel=0, control=64, value=9, time=76)\n",
      "Message('note_on', channel=0, note=60, velocity=0, time=1)\n",
      "Message('note_on', channel=0, note=62, velocity=70, time=3)\n",
      "Message('note_on', channel=0, note=77, velocity=0, time=3)\n",
      "Message('note_on', channel=0, note=74, velocity=76, time=3)\n",
      "Message('control_change', channel=0, control=64, value=0, time=8)\n",
      "Message('note_on', channel=0, note=62, velocity=0, time=146)\n",
      "Message('note_on', channel=0, note=76, velocity=76, time=1)\n",
      "Message('note_on', channel=0, note=60, velocity=72, time=5)\n",
      "Message('note_on', channel=0, note=74, velocity=0, time=36)\n",
      "Message('note_on', channel=0, note=76, velocity=0, time=24)\n",
      "Message('note_on', channel=0, note=59, velocity=74, time=97)\n",
      "Message('note_on', channel=0, note=60, velocity=0, time=1)\n",
      "Message('note_on', channel=0, note=57, velocity=66, time=161)\n",
      "Message('note_on', channel=0, note=66, velocity=74, time=7)\n",
      "Message('note_on', channel=0, note=59, velocity=0, time=18)\n",
      "Message('note_on', channel=0, note=57, velocity=0, time=77)\n",
      "Message('note_on', channel=0, note=66, velocity=0, time=40)\n",
      "Message('note_on', channel=0, note=55, velocity=70, time=2)\n",
      "Message('note_on', channel=0, note=67, velocity=75, time=3)\n",
      "Message('note_on', channel=0, note=54, velocity=72, time=153)\n",
      "Message('note_on', channel=0, note=67, velocity=0, time=2)\n",
      "Message('note_on', channel=0, note=69, velocity=76, time=2)\n",
      "Message('note_on', channel=0, note=55, velocity=0, time=8)\n",
      "Message('note_on', channel=0, note=52, velocity=69, time=132)\n",
      "Message('note_on', channel=0, note=71, velocity=78, time=7)\n",
      "Message('note_on', channel=0, note=54, velocity=0, time=6)\n",
      "Message('note_on', channel=0, note=69, velocity=0, time=27)\n",
      "Message('control_change', channel=0, control=67, value=66, time=4)\n",
      "Message('control_change', channel=0, control=67, value=59, time=37)\n",
      "Message('control_change', channel=0, control=67, value=53, time=21)\n",
      "Message('note_on', channel=0, note=50, velocity=70, time=54)\n",
      "Message('note_on', channel=0, note=72, velocity=79, time=5)\n",
      "Message('note_on', channel=0, note=52, velocity=0, time=6)\n",
      "Message('control_change', channel=0, control=67, value=49, time=9)\n",
      "Message('note_on', channel=0, note=71, velocity=0, time=12)\n",
      "Message('note_on', channel=0, note=50, velocity=0, time=82)\n",
      "Message('note_on', channel=0, note=48, velocity=68, time=46)\n",
      "Message('note_on', channel=0, note=69, velocity=80, time=5)\n",
      "Message('note_on', channel=0, note=72, velocity=0, time=3)\n",
      "Message('note_on', channel=0, note=69, velocity=0, time=130)\n",
      "Message('note_on', channel=0, note=48, velocity=0, time=14)\n",
      "Message('note_on', channel=0, note=47, velocity=68, time=4)\n",
      "Message('control_change', channel=0, control=67, value=45, time=1)\n",
      "Message('note_on', channel=0, note=71, velocity=80, time=2)\n",
      "Message('note_on', channel=0, note=72, velocity=77, time=143)\n",
      "Message('note_on', channel=0, note=45, velocity=67, time=2)\n",
      "Message('note_on', channel=0, note=47, velocity=0, time=15)\n",
      "Message('note_on', channel=0, note=71, velocity=0, time=24)\n",
      "Message('note_on', channel=0, note=74, velocity=77, time=105)\n",
      "Message('note_on', channel=0, note=45, velocity=0, time=3)\n",
      "Message('note_on', channel=0, note=43, velocity=75, time=1)\n",
      "Message('note_on', channel=0, note=72, velocity=0, time=33)\n",
      "Message('note_on', channel=0, note=45, velocity=69, time=108)\n",
      "Message('note_on', channel=0, note=43, velocity=0, time=5)\n",
      "Message('note_on', channel=0, note=72, velocity=76, time=2)\n",
      "Message('note_on', channel=0, note=74, velocity=0, time=11)\n",
      "Message('note_on', channel=0, note=47, velocity=69, time=130)\n",
      "Message('note_on', channel=0, note=74, velocity=84, time=4)\n",
      "Message('note_on', channel=0, note=45, velocity=0, time=11)\n",
      "Message('note_on', channel=0, note=72, velocity=0, time=3)\n",
      "Message('control_change', channel=0, control=64, value=11, time=18)\n",
      "Message('control_change', channel=0, control=64, value=25, time=20)\n",
      "Message('control_change', channel=0, control=64, value=32, time=19)\n",
      "Message('note_on', channel=0, note=48, velocity=72, time=89)\n",
      "Message('note_on', channel=0, note=76, velocity=77, time=1)\n",
      "Message('note_on', channel=0, note=74, velocity=0, time=2)\n",
      "Message('note_on', channel=0, note=47, velocity=0, time=18)\n",
      "Message('control_change', channel=0, control=64, value=0, time=56)\n",
      "Message('note_on', channel=0, note=76, velocity=0, time=53)\n",
      "Message('note_on', channel=0, note=48, velocity=0, time=18)\n",
      "Message('note_on', channel=0, note=50, velocity=67, time=29)\n",
      "Message('note_on', channel=0, note=66, velocity=66, time=12)\n",
      "Message('note_on', channel=0, note=71, velocity=64, time=2)\n",
      "Message('note_on', channel=0, note=69, velocity=70, time=126)\n",
      "Message('note_on', channel=0, note=71, velocity=0, time=19)\n",
      "Message('note_on', channel=0, note=45, velocity=62, time=1)\n",
      "Message('note_on', channel=0, note=50, velocity=0, time=14)\n",
      "Message('control_change', channel=0, control=64, value=22, time=8)\n",
      "Message('control_change', channel=0, control=64, value=44, time=22)\n",
      "Message('control_change', channel=0, control=64, value=60, time=16)\n",
      "Message('control_change', channel=0, control=64, value=71, time=20)\n",
      "Message('note_on', channel=0, note=66, velocity=0, time=9)\n",
      "Message('control_change', channel=0, control=64, value=82, time=10)\n",
      "Message('control_change', channel=0, control=64, value=94, time=20)\n",
      "Message('control_change', channel=0, control=64, value=107, time=19)\n",
      "Message('note_on', channel=0, note=69, velocity=0, time=3)\n",
      "Message('note_on', channel=0, note=42, velocity=72, time=8)\n",
      "Message('note_on', channel=0, note=45, velocity=0, time=7)\n",
      "Message('control_change', channel=0, control=64, value=118, time=1)\n",
      "Message('control_change', channel=0, control=64, value=127, time=18)\n",
      "Message('control_change', channel=0, control=67, value=37, time=2)\n",
      "Message('control_change', channel=0, control=67, value=32, time=15)\n",
      "Message('control_change', channel=0, control=67, value=28, time=76)\n",
      "Message('note_on', channel=0, note=45, velocity=79, time=13)\n",
      "Message('note_on', channel=0, note=42, velocity=0, time=9)\n",
      "Message('control_change', channel=0, control=67, value=23, time=37)\n",
      "Message('control_change', channel=0, control=67, value=19, time=54)\n",
      "Message('note_on', channel=0, note=38, velocity=82, time=46)\n",
      "Message('note_on', channel=0, note=45, velocity=0, time=7)\n",
      "Message('note_on', channel=0, note=84, velocity=86, time=14)\n",
      "Message('note_on', channel=0, note=81, velocity=72, time=9)\n",
      "Message('control_change', channel=0, control=64, value=104, time=20)\n",
      "Message('note_on', channel=0, note=81, velocity=0, time=4)\n",
      "Message('note_on', channel=0, note=84, velocity=0, time=0)\n",
      "Message('control_change', channel=0, control=64, value=19, time=13)\n",
      "Message('control_change', channel=0, control=64, value=0, time=20)\n",
      "Message('note_on', channel=0, note=40, velocity=76, time=85)\n",
      "Message('note_on', channel=0, note=38, velocity=0, time=2)\n",
      "Message('note_on', channel=0, note=42, velocity=78, time=159)\n",
      "Message('note_on', channel=0, note=81, velocity=88, time=13)\n",
      "Message('note_on', channel=0, note=74, velocity=77, time=8)\n",
      "Message('note_on', channel=0, note=40, velocity=0, time=10)\n",
      "Message('note_on', channel=0, note=74, velocity=0, time=28)\n",
      "Message('note_on', channel=0, note=81, velocity=0, time=1)\n",
      "Message('control_change', channel=0, control=67, value=15, time=48)\n",
      "Message('note_on', channel=0, note=43, velocity=74, time=44)\n",
      "Message('note_on', channel=0, note=42, velocity=0, time=35)\n",
      "Message('note_on', channel=0, note=43, velocity=0, time=128)\n",
      "Message('note_on', channel=0, note=45, velocity=78, time=9)\n",
      "Message('note_on', channel=0, note=78, velocity=86, time=8)\n",
      "Message('control_change', channel=0, control=64, value=9, time=2)\n",
      "Message('note_on', channel=0, note=72, velocity=77, time=3)\n",
      "Message('control_change', channel=0, control=64, value=79, time=16)\n",
      "Message('control_change', channel=0, control=64, value=94, time=20)\n",
      "Message('note_on', channel=0, note=71, velocity=54, time=1)\n",
      "Message('control_change', channel=0, control=64, value=103, time=18)\n",
      "Message('note_on', channel=0, note=71, velocity=0, time=8)\n",
      "Message('note_on', channel=0, note=47, velocity=79, time=69)\n",
      "Message('note_on', channel=0, note=45, velocity=0, time=23)\n",
      "Message('note_on', channel=0, note=78, velocity=0, time=32)\n",
      "Message('note_on', channel=0, note=72, velocity=0, time=101)\n",
      "Message('note_on', channel=0, note=72, velocity=37, time=0)\n",
      "Message('note_on', channel=0, note=45, velocity=75, time=13)\n",
      "Message('note_on', channel=0, note=78, velocity=83, time=11)\n",
      "Message('note_on', channel=0, note=47, velocity=0, time=1)\n",
      "Message('note_on', channel=0, note=78, velocity=0, time=62)\n",
      "Message('note_on', channel=0, note=43, velocity=80, time=84)\n",
      "Message('note_on', channel=0, note=79, velocity=82, time=3)\n",
      "Message('note_on', channel=0, note=72, velocity=0, time=15)\n",
      "Message('note_on', channel=0, note=72, velocity=19, time=0)\n",
      "Message('note_on', channel=0, note=45, velocity=0, time=7)\n",
      "Message('note_on', channel=0, note=72, velocity=0, time=26)\n",
      "Message('note_on', channel=0, note=79, velocity=0, time=1)\n",
      "Message('control_change', channel=0, control=64, value=85, time=88)\n",
      "Message('note_on', channel=0, note=42, velocity=82, time=5)\n",
      "Message('note_on', channel=0, note=81, velocity=81, time=6)\n",
      "Message('control_change', channel=0, control=64, value=0, time=6)\n",
      "Message('note_on', channel=0, note=72, velocity=82, time=0)\n",
      "Message('note_on', channel=0, note=43, velocity=0, time=12)\n",
      "Message('note_on', channel=0, note=72, velocity=0, time=14)\n",
      "Message('note_on', channel=0, note=81, velocity=0, time=6)\n",
      "Message('note_on', channel=0, note=43, velocity=74, time=100)\n",
      "Message('note_on', channel=0, note=42, velocity=0, time=5)\n",
      "Message('note_on', channel=0, note=45, velocity=76, time=156)\n",
      "Message('note_on', channel=0, note=78, velocity=78, time=4)\n",
      "Message('note_on', channel=0, note=69, velocity=80, time=7)\n",
      "Message('note_on', channel=0, note=43, velocity=0, time=11)\n",
      "Message('note_on', channel=0, note=69, velocity=0, time=21)\n",
      "Message('note_on', channel=0, note=78, velocity=0, time=17)\n",
      "Message('note_on', channel=0, note=45, velocity=0, time=60)\n",
      "Message('note_on', channel=0, note=47, velocity=67, time=30)\n",
      "Message('note_on', channel=0, note=48, velocity=74, time=173)\n",
      "Message('note_on', channel=0, note=74, velocity=80, time=18)\n",
      "Message('note_on', channel=0, note=66, velocity=80, time=2)\n",
      "Message('note_on', channel=0, note=47, velocity=0, time=6)\n",
      "Message('control_change', channel=0, control=64, value=50, time=21)\n",
      "Message('control_change', channel=0, control=64, value=84, time=19)\n",
      "Message('control_change', channel=0, control=64, value=93, time=17)\n",
      "Message('control_change', channel=0, control=67, value=19, time=19)\n",
      "Message('note_on', channel=0, note=50, velocity=76, time=53)\n",
      "Message('note_on', channel=0, note=48, velocity=0, time=20)\n",
      "Message('note_on', channel=0, note=74, velocity=0, time=46)\n",
      "Message('note_on', channel=0, note=48, velocity=70, time=115)\n",
      "Message('note_on', channel=0, note=66, velocity=0, time=20)\n",
      "Message('note_on', channel=0, note=74, velocity=80, time=2)\n",
      "Message('note_on', channel=0, note=50, velocity=0, time=1)\n",
      "Message('note_on', channel=0, note=47, velocity=75, time=131)\n",
      "Message('note_on', channel=0, note=74, velocity=0, time=1)\n",
      "Message('note_on', channel=0, note=48, velocity=0, time=5)\n",
      "Message('note_on', channel=0, note=76, velocity=81, time=2)\n",
      "Message('control_change', channel=0, control=64, value=88, time=72)\n",
      "Message('note_on', channel=0, note=76, velocity=0, time=1)\n",
      "Message('control_change', channel=0, control=64, value=79, time=19)\n",
      "Message('control_change', channel=0, control=64, value=47, time=18)\n",
      "Message('control_change', channel=0, control=64, value=0, time=18)\n",
      "Message('note_on', channel=0, note=47, velocity=0, time=8)\n",
      "Message('note_on', channel=0, note=45, velocity=80, time=4)\n",
      "Message('note_on', channel=0, note=78, velocity=84, time=12)\n",
      "Message('note_on', channel=0, note=72, velocity=79, time=1)\n",
      "Message('control_change', channel=0, control=64, value=33, time=51)\n",
      "Message('control_change', channel=0, control=64, value=57, time=19)\n",
      "Message('control_change', channel=0, control=64, value=67, time=20)\n",
      "Message('control_change', channel=0, control=64, value=69, time=19)\n",
      "Message('note_on', channel=0, note=78, velocity=0, time=15)\n",
      "Message('note_on', channel=0, note=47, velocity=73, time=7)\n",
      "Message('note_on', channel=0, note=79, velocity=80, time=2)\n",
      "Message('note_on', channel=0, note=45, velocity=0, time=3)\n",
      "Message('control_change', channel=0, control=64, value=68, time=85)\n",
      "Message('control_change', channel=0, control=64, value=63, time=19)\n",
      "Message('control_change', channel=0, control=64, value=54, time=18)\n",
      "Message('control_change', channel=0, control=64, value=42, time=19)\n",
      "Message('note_on', channel=0, note=72, velocity=0, time=3)\n",
      "Message('note_on', channel=0, note=72, velocity=33, time=0)\n",
      "Message('note_on', channel=0, note=48, velocity=77, time=6)\n",
      "Message('note_on', channel=0, note=81, velocity=81, time=3)\n",
      "Message('note_on', channel=0, note=47, velocity=0, time=18)\n",
      "Message('control_change', channel=0, control=64, value=48, time=9)\n",
      "Message('note_on', channel=0, note=79, velocity=0, time=1)\n",
      "Message('note_on', channel=0, note=72, velocity=0, time=10)\n",
      "Message('control_change', channel=0, control=64, value=53, time=7)\n",
      "Message('control_change', channel=0, control=64, value=57, time=20)\n",
      "Message('control_change', channel=0, control=64, value=59, time=55)\n",
      "Message('note_on', channel=0, note=50, velocity=78, time=17)\n",
      "Message('note_on', channel=0, note=81, velocity=0, time=3)\n",
      "Message('note_on', channel=0, note=78, velocity=80, time=1)\n",
      "Message('note_on', channel=0, note=48, velocity=0, time=17)\n",
      "Message('control_change', channel=0, control=64, value=60, time=1)\n",
      "Message('control_change', channel=0, control=64, value=61, time=33)\n",
      "Message('control_change', channel=0, control=64, value=59, time=57)\n",
      "Message('note_on', channel=0, note=78, velocity=0, time=5)\n",
      "Message('note_on', channel=0, note=50, velocity=0, time=5)\n",
      "Message('control_change', channel=0, control=64, value=33, time=9)\n",
      "Message('control_change', channel=0, control=64, value=0, time=18)\n",
      "Message('note_on', channel=0, note=52, velocity=80, time=23)\n",
      "Message('note_on', channel=0, note=79, velocity=86, time=0)\n",
      "Message('note_on', channel=0, note=71, velocity=78, time=6)\n",
      "Message('note_on', channel=0, note=52, velocity=0, time=27)\n",
      "Message('control_change', channel=0, control=64, value=43, time=20)\n",
      "Message('control_change', channel=0, control=64, value=74, time=20)\n",
      "Message('control_change', channel=0, control=64, value=90, time=19)\n",
      "Message('control_change', channel=0, control=64, value=100, time=20)\n",
      "Message('note_on', channel=0, note=76, velocity=79, time=30)\n",
      "Message('note_on', channel=0, note=71, velocity=0, time=9)\n",
      "Message('note_on', channel=0, note=79, velocity=0, time=8)\n",
      "Message('note_on', channel=0, note=76, velocity=0, time=50)\n",
      "Message('control_change', channel=0, control=64, value=92, time=14)\n",
      "Message('control_change', channel=0, control=64, value=65, time=21)\n",
      "Message('control_change', channel=0, control=64, value=0, time=18)\n",
      "Message('control_change', channel=0, control=67, value=15, time=18)\n",
      "Message('note_on', channel=0, note=48, velocity=83, time=27)\n",
      "Message('control_change', channel=0, control=64, value=26, time=11)\n",
      "Message('note_on', channel=0, note=81, velocity=83, time=0)\n",
      "Message('note_on', channel=0, note=72, velocity=82, time=2)\n",
      "Message('control_change', channel=0, control=64, value=69, time=16)\n",
      "Message('note_on', channel=0, note=48, velocity=0, time=0)\n",
      "Message('control_change', channel=0, control=64, value=88, time=20)\n",
      "Message('control_change', channel=0, control=64, value=111, time=18)\n",
      "Message('control_change', channel=0, control=64, value=127, time=20)\n",
      "Message('control_change', channel=0, control=67, value=10, time=1)\n",
      "Message('note_on', channel=0, note=72, velocity=0, time=79)\n",
      "Message('note_on', channel=0, note=81, velocity=0, time=16)\n",
      "Message('control_change', channel=0, control=67, value=0, time=35)\n",
      "Message('note_on', channel=0, note=79, velocity=90, time=132)\n",
      "Message('note_on', channel=0, note=50, velocity=78, time=3)\n",
      "Message('note_on', channel=0, note=69, velocity=83, time=12)\n",
      "Message('control_change', channel=0, control=64, value=118, time=7)\n",
      "Message('note_on', channel=0, note=78, velocity=82, time=9)\n",
      "Message('note_on', channel=0, note=50, velocity=0, time=2)\n",
      "Message('control_change', channel=0, control=64, value=66, time=6)\n",
      "Message('note_on', channel=0, note=79, velocity=0, time=6)\n",
      "Message('control_change', channel=0, control=64, value=0, time=13)\n",
      "Message('note_on', channel=0, note=78, velocity=0, time=70)\n",
      "Message('note_on', channel=0, note=79, velocity=84, time=2)\n",
      "Message('note_on', channel=0, note=78, velocity=80, time=61)\n",
      "Message('note_on', channel=0, note=79, velocity=0, time=36)\n",
      "Message('note_on', channel=0, note=38, velocity=89, time=150)\n",
      "Message('note_on', channel=0, note=38, velocity=0, time=35)\n",
      "Message('note_on', channel=0, note=79, velocity=81, time=181)\n",
      "Message('note_on', channel=0, note=69, velocity=0, time=17)\n",
      "Message('note_on', channel=0, note=78, velocity=0, time=14)\n",
      "Message('note_on', channel=0, note=79, velocity=0, time=15)\n",
      "Message('note_on', channel=0, note=43, velocity=70, time=285)\n",
      "Message('note_on', channel=0, note=79, velocity=78, time=7)\n",
      "Message('note_on', channel=0, note=71, velocity=75, time=3)\n",
      "Message('control_change', channel=0, control=67, value=8, time=158)\n",
      "Message('control_change', channel=0, control=64, value=50, time=16)\n",
      "Message('control_change', channel=0, control=64, value=63, time=20)\n",
      "Message('control_change', channel=0, control=64, value=68, time=34)\n",
      "Message('control_change', channel=0, control=64, value=71, time=17)\n",
      "Message('control_change', channel=0, control=64, value=75, time=20)\n",
      "Message('control_change', channel=0, control=67, value=13, time=2)\n",
      "Message('control_change', channel=0, control=64, value=81, time=17)\n",
      "Message('control_change', channel=0, control=67, value=17, time=1)\n",
      "Message('control_change', channel=0, control=64, value=88, time=18)\n",
      "Message('control_change', channel=0, control=64, value=97, time=18)\n",
      "Message('control_change', channel=0, control=64, value=106, time=20)\n",
      "Message('control_change', channel=0, control=64, value=114, time=19)\n",
      "Message('control_change', channel=0, control=64, value=121, time=17)\n",
      "Message('control_change', channel=0, control=64, value=126, time=19)\n",
      "Message('note_on', channel=0, note=79, velocity=0, time=205)\n",
      "Message('note_on', channel=0, note=71, velocity=0, time=26)\n",
      "Message('note_on', channel=0, note=43, velocity=0, time=38)\n",
      "Message('control_change', channel=0, control=67, value=13, time=355)\n",
      "Message('control_change', channel=0, control=64, value=122, time=166)\n",
      "Message('control_change', channel=0, control=64, value=76, time=17)\n",
      "Message('control_change', channel=0, control=67, value=8, time=2)\n",
      "Message('control_change', channel=0, control=64, value=0, time=18)\n",
      "Message('control_change', channel=0, control=67, value=0, time=58)\n",
      "Message('note_on', channel=0, note=71, velocity=79, time=7)\n",
      "Message('note_on', channel=0, note=71, velocity=0, time=40)\n",
      "Message('note_on', channel=0, note=74, velocity=69, time=116)\n",
      "Message('note_on', channel=0, note=74, velocity=0, time=33)\n",
      "Message('note_on', channel=0, note=79, velocity=85, time=113)\n",
      "Message('note_on', channel=0, note=78, velocity=80, time=48)\n",
      "Message('note_on', channel=0, note=79, velocity=0, time=0)\n",
      "Message('control_change', channel=0, control=64, value=64, time=18)\n",
      "Message('note_on', channel=0, note=78, velocity=0, time=4)\n",
      "Message('control_change', channel=0, control=64, value=67, time=17)\n",
      "Message('note_on', channel=0, note=79, velocity=72, time=11)\n",
      "Message('control_change', channel=0, control=64, value=0, time=6)\n",
      "Message('note_on', channel=0, note=62, velocity=71, time=50)\n",
      "Message('note_on', channel=0, note=62, velocity=0, time=43)\n",
      "Message('note_on', channel=0, note=59, velocity=67, time=78)\n",
      "Message('note_on', channel=0, note=59, velocity=0, time=30)\n",
      "Message('note_on', channel=0, note=79, velocity=0, time=88)\n",
      "Message('note_on', channel=0, note=55, velocity=63, time=19)\n",
      "Message('note_on', channel=0, note=81, velocity=81, time=13)\n",
      "Message('note_on', channel=0, note=55, velocity=0, time=23)\n",
      "Message('note_on', channel=0, note=81, velocity=0, time=3)\n",
      "Message('note_on', channel=0, note=54, velocity=69, time=125)\n",
      "Message('note_on', channel=0, note=83, velocity=80, time=5)\n",
      "Message('note_on', channel=0, note=54, velocity=0, time=29)\n",
      "Message('control_change', channel=0, control=64, value=23, time=2)\n",
      "Message('note_on', channel=0, note=83, velocity=0, time=0)\n",
      "Message('note_on', channel=0, note=81, velocity=69, time=11)\n",
      "Message('control_change', channel=0, control=64, value=74, time=6)\n",
      "Message('control_change', channel=0, control=64, value=51, time=20)\n",
      "Message('control_change', channel=0, control=64, value=0, time=18)\n",
      "Message('note_on', channel=0, note=83, velocity=80, time=10)\n",
      "Message('note_on', channel=0, note=60, velocity=69, time=19)\n",
      "Message('note_on', channel=0, note=81, velocity=0, time=0)\n",
      "Message('note_on', channel=0, note=81, velocity=81, time=40)\n",
      "Message('note_on', channel=0, note=60, velocity=0, time=4)\n",
      "Message('note_on', channel=0, note=83, velocity=0, time=8)\n",
      "Message('note_on', channel=0, note=57, velocity=69, time=96)\n",
      "Message('note_on', channel=0, note=81, velocity=0, time=5)\n",
      "Message('note_on', channel=0, note=81, velocity=18, time=0)\n",
      "Message('note_on', channel=0, note=57, velocity=0, time=26)\n",
      "Message('note_on', channel=0, note=81, velocity=0, time=91)\n",
      "Message('note_on', channel=0, note=54, velocity=56, time=33)\n",
      "Message('note_on', channel=0, note=79, velocity=76, time=6)\n",
      "Message('note_on', channel=0, note=54, velocity=0, time=21)\n",
      "Message('note_on', channel=0, note=79, velocity=0, time=29)\n",
      "Message('note_on', channel=0, note=81, velocity=82, time=3)\n",
      "Message('note_on', channel=0, note=55, velocity=75, time=55)\n",
      "Message('control_change', channel=0, control=64, value=58, time=6)\n",
      "Message('note_on', channel=0, note=83, velocity=92, time=2)\n",
      "Message('note_on', channel=0, note=81, velocity=0, time=14)\n",
      "Message('control_change', channel=0, control=64, value=0, time=3)\n",
      "Message('note_on', channel=0, note=55, velocity=0, time=18)\n",
      "Message('control_change', channel=0, control=67, value=8, time=38)\n",
      "Message('note_on', channel=0, note=59, velocity=49, time=89)\n",
      "Message('note_on', channel=0, note=59, velocity=0, time=32)\n",
      "Message('note_on', channel=0, note=55, velocity=65, time=92)\n",
      "Message('note_on', channel=0, note=81, velocity=73, time=3)\n",
      "Message('note_on', channel=0, note=83, velocity=0, time=12)\n",
      "Message('note_on', channel=0, note=55, velocity=0, time=21)\n",
      "Message('note_on', channel=0, note=81, velocity=0, time=0)\n",
      "Message('note_on', channel=0, note=50, velocity=55, time=111)\n",
      "Message('note_on', channel=0, note=83, velocity=78, time=1)\n",
      "Message('note_on', channel=0, note=50, velocity=0, time=35)\n",
      "Message('note_on', channel=0, note=83, velocity=0, time=5)\n",
      "Message('note_on', channel=0, note=47, velocity=65, time=89)\n",
      "Message('note_on', channel=0, note=79, velocity=79, time=14)\n",
      "Message('control_change', channel=0, control=64, value=77, time=2)\n",
      "Message('control_change', channel=0, control=64, value=73, time=19)\n",
      "Message('note_on', channel=0, note=45, velocity=37, time=6)\n",
      "Message('note_on', channel=0, note=47, velocity=0, time=0)\n",
      "Message('control_change', channel=0, control=64, value=42, time=11)\n",
      "Message('control_change', channel=0, control=64, value=0, time=20)\n",
      "Message('note_on', channel=0, note=79, velocity=0, time=3)\n",
      "Message('note_on', channel=0, note=45, velocity=0, time=10)\n",
      "Message('note_on', channel=0, note=79, velocity=62, time=42)\n",
      "Message('note_on', channel=0, note=50, velocity=72, time=13)\n",
      "Message('note_on', channel=0, note=50, velocity=0, time=36)\n",
      "Message('note_on', channel=0, note=47, velocity=68, time=100)\n",
      "Message('note_on', channel=0, note=74, velocity=73, time=17)\n",
      "Message('note_on', channel=0, note=79, velocity=0, time=2)\n",
      "Message('note_on', channel=0, note=47, velocity=0, time=20)\n",
      "Message('note_on', channel=0, note=74, velocity=0, time=7)\n",
      "Message('note_on', channel=0, note=43, velocity=71, time=86)\n",
      "Message('note_on', channel=0, note=71, velocity=80, time=24)\n",
      "Message('note_on', channel=0, note=43, velocity=0, time=13)\n",
      "Message('note_on', channel=0, note=71, velocity=0, time=16)\n",
      "Message('note_on', channel=0, note=48, velocity=75, time=96)\n",
      "Message('note_on', channel=0, note=76, velocity=82, time=11)\n",
      "Message('control_change', channel=0, control=64, value=54, time=14)\n",
      "Message('note_on', channel=0, note=48, velocity=0, time=9)\n",
      "Message('control_change', channel=0, control=64, value=77, time=10)\n",
      "Message('control_change', channel=0, control=64, value=72, time=39)\n",
      "Message('control_change', channel=0, control=64, value=68, time=19)\n",
      "Message('control_change', channel=0, control=64, value=66, time=19)\n",
      "Message('note_on', channel=0, note=43, velocity=69, time=21)\n",
      "Message('control_change', channel=0, control=64, value=65, time=35)\n",
      "Message('note_on', channel=0, note=43, velocity=0, time=2)\n",
      "Message('control_change', channel=0, control=64, value=62, time=17)\n",
      "Message('control_change', channel=0, control=64, value=59, time=33)\n",
      "Message('control_change', channel=0, control=64, value=55, time=19)\n",
      "Message('control_change', channel=0, control=64, value=45, time=18)\n",
      "Message('control_change', channel=0, control=64, value=0, time=20)\n",
      "Message('note_on', channel=0, note=72, velocity=79, time=8)\n",
      "Message('note_on', channel=0, note=52, velocity=76, time=2)\n",
      "Message('note_on', channel=0, note=76, velocity=0, time=1)\n",
      "Message('note_on', channel=0, note=72, velocity=0, time=29)\n",
      "Message('note_on', channel=0, note=52, velocity=0, time=12)\n",
      "Message('note_on', channel=0, note=48, velocity=72, time=95)\n",
      "Message('note_on', channel=0, note=69, velocity=84, time=0)\n",
      "Message('note_on', channel=0, note=48, velocity=0, time=30)\n",
      "Message('note_on', channel=0, note=69, velocity=0, time=11)\n",
      "Message('control_change', channel=0, control=67, value=12, time=76)\n",
      "Message('note_on', channel=0, note=50, velocity=85, time=16)\n",
      "Message('note_on', channel=0, note=66, velocity=82, time=11)\n",
      "Message('control_change', channel=0, control=64, value=52, time=12)\n",
      "Message('note_on', channel=0, note=50, velocity=0, time=15)\n",
      "Message('control_change', channel=0, control=64, value=72, time=3)\n",
      "Message('control_change', channel=0, control=64, value=66, time=18)\n",
      "Message('control_change', channel=0, control=64, value=48, time=19)\n",
      "Message('control_change', channel=0, control=64, value=0, time=22)\n",
      "Message('note_on', channel=0, note=45, velocity=81, time=39)\n",
      "Message('note_on', channel=0, note=45, velocity=0, time=44)\n",
      "Message('note_on', channel=0, note=66, velocity=0, time=89)\n",
      "Message('note_on', channel=0, note=54, velocity=79, time=10)\n",
      "Message('note_on', channel=0, note=74, velocity=63, time=19)\n",
      "Message('note_on', channel=0, note=54, velocity=0, time=12)\n",
      "Message('note_on', channel=0, note=74, velocity=0, time=27)\n",
      "Message('note_on', channel=0, note=50, velocity=76, time=71)\n",
      "Message('control_change', channel=0, control=67, value=16, time=6)\n",
      "Message('note_on', channel=0, note=69, velocity=80, time=12)\n",
      "Message('note_on', channel=0, note=50, velocity=0, time=16)\n",
      "Message('control_change', channel=0, control=67, value=11, time=12)\n",
      "Message('note_on', channel=0, note=69, velocity=0, time=6)\n",
      "Message('control_change', channel=0, control=67, value=15, time=87)\n",
      "Message('note_on', channel=0, note=55, velocity=76, time=14)\n",
      "Message('control_change', channel=0, control=64, value=39, time=3)\n",
      "Message('note_on', channel=0, note=72, velocity=74, time=9)\n",
      "Message('control_change', channel=0, control=64, value=63, time=12)\n",
      "Message('control_change', channel=0, control=64, value=60, time=33)\n",
      "Message('note_on', channel=0, note=72, velocity=0, time=0)\n",
      "Message('control_change', channel=0, control=64, value=39, time=21)\n",
      "Message('control_change', channel=0, control=67, value=9, time=0)\n",
      "Message('control_change', channel=0, control=64, value=0, time=17)\n",
      "Message('control_change', channel=0, control=67, value=14, time=20)\n",
      "Message('note_on', channel=0, note=71, velocity=76, time=52)\n",
      "Message('note_on', channel=0, note=71, velocity=0, time=31)\n",
      "Message('control_change', channel=0, control=67, value=10, time=11)\n",
      "Message('control_change', channel=0, control=67, value=14, time=39)\n",
      "Message('note_on', channel=0, note=55, velocity=0, time=51)\n",
      "Message('note_on', channel=0, note=69, velocity=78, time=11)\n",
      "Message('note_on', channel=0, note=50, velocity=76, time=2)\n",
      "Message('control_change', channel=0, control=67, value=8, time=27)\n",
      "Message('note_on', channel=0, note=69, velocity=0, time=0)\n",
      "Message('note_on', channel=0, note=50, velocity=0, time=6)\n",
      "Message('control_change', channel=0, control=67, value=13, time=73)\n",
      "Message('note_on', channel=0, note=71, velocity=79, time=24)\n",
      "Message('note_on', channel=0, note=71, velocity=0, time=27)\n",
      "Message('control_change', channel=0, control=67, value=8, time=3)\n",
      "Message('control_change', channel=0, control=67, value=12, time=96)\n",
      "Message('note_on', channel=0, note=47, velocity=73, time=17)\n",
      "Message('note_on', channel=0, note=67, velocity=85, time=8)\n",
      "Message('control_change', channel=0, control=64, value=22, time=13)\n",
      "Message('note_on', channel=0, note=47, velocity=0, time=13)\n",
      "Message('control_change', channel=0, control=64, value=49, time=5)\n",
      "Message('note_on', channel=0, note=67, velocity=0, time=13)\n",
      "Message('control_change', channel=0, control=64, value=0, time=6)\n",
      "Message('control_change', channel=0, control=67, value=8, time=20)\n",
      "Message('note_on', channel=0, note=69, velocity=90, time=69)\n",
      "Message('note_on', channel=0, note=69, velocity=0, time=30)\n",
      "Message('control_change', channel=0, control=67, value=12, time=51)\n",
      "Message('control_change', channel=0, control=67, value=16, time=38)\n",
      "Message('note_on', channel=0, note=71, velocity=93, time=22)\n",
      "Message('note_on', channel=0, note=50, velocity=70, time=4)\n",
      "Message('control_change', channel=0, control=67, value=12, time=11)\n",
      "Message('note_on', channel=0, note=50, velocity=0, time=23)\n",
      "Message('note_on', channel=0, note=71, velocity=0, time=1)\n",
      "Message('control_change', channel=0, control=67, value=17, time=72)\n",
      "Message('note_on', channel=0, note=74, velocity=92, time=40)\n",
      "Message('control_change', channel=0, control=67, value=13, time=30)\n",
      "Message('note_on', channel=0, note=74, velocity=0, time=4)\n",
      "Message('control_change', channel=0, control=67, value=19, time=73)\n",
      "Message('note_on', channel=0, note=43, velocity=79, time=41)\n",
      "Message('note_on', channel=0, note=79, velocity=89, time=2)\n",
      "Message('control_change', channel=0, control=64, value=23, time=30)\n",
      "Message('note_on', channel=0, note=43, velocity=0, time=2)\n",
      "Message('control_change', channel=0, control=64, value=70, time=19)\n",
      "Message('note_on', channel=0, note=78, velocity=73, time=2)\n",
      "Message('note_on', channel=0, note=79, velocity=0, time=12)\n",
      "Message('control_change', channel=0, control=64, value=63, time=1)\n",
      "Message('note_on', channel=0, note=78, velocity=0, time=14)\n",
      "Message('control_change', channel=0, control=64, value=0, time=6)\n",
      "Message('control_change', channel=0, control=67, value=25, time=2)\n",
      "Message('control_change', channel=0, control=67, value=30, time=18)\n",
      "Message('note_on', channel=0, note=62, velocity=80, time=47)\n",
      "Message('control_change', channel=0, control=67, value=24, time=30)\n",
      "Message('note_on', channel=0, note=62, velocity=0, time=9)\n",
      "Message('control_change', channel=0, control=67, value=28, time=30)\n",
      "Message('note_on', channel=0, note=60, velocity=39, time=75)\n",
      "Message('note_on', channel=0, note=59, velocity=47, time=3)\n",
      "Message('control_change', channel=0, control=67, value=21, time=14)\n",
      "Message('control_change', channel=0, control=67, value=16, time=16)\n",
      "Message('note_on', channel=0, note=59, velocity=0, time=0)\n",
      "Message('note_on', channel=0, note=60, velocity=0, time=2)\n",
      "Message('control_change', channel=0, control=67, value=23, time=39)\n",
      "Message('control_change', channel=0, control=67, value=27, time=38)\n",
      "Message('note_on', channel=0, note=55, velocity=69, time=15)\n",
      "Message('note_on', channel=0, note=81, velocity=81, time=4)\n",
      "Message('control_change', channel=0, control=67, value=22, time=20)\n",
      "Message('note_on', channel=0, note=55, velocity=0, time=11)\n",
      "Message('note_on', channel=0, note=81, velocity=0, time=6)\n",
      "Message('control_change', channel=0, control=67, value=17, time=19)\n",
      "Message('control_change', channel=0, control=67, value=23, time=39)\n",
      "Message('note_on', channel=0, note=83, velocity=81, time=41)\n",
      "Message('note_on', channel=0, note=54, velocity=74, time=5)\n",
      "Message('control_change', channel=0, control=67, value=17, time=28)\n",
      "Message('note_on', channel=0, note=83, velocity=0, time=0)\n",
      "Message('note_on', channel=0, note=54, velocity=0, time=3)\n",
      "Message('note_on', channel=0, note=81, velocity=75, time=12)\n",
      "Message('control_change', channel=0, control=64, value=29, time=5)\n",
      "Message('control_change', channel=0, control=64, value=65, time=18)\n",
      "Message('control_change', channel=0, control=64, value=23, time=21)\n",
      "Message('control_change', channel=0, control=67, value=24, time=1)\n",
      "Message('note_on', channel=0, note=83, velocity=80, time=9)\n",
      "Message('note_on', channel=0, note=84, velocity=63, time=5)\n",
      "Message('control_change', channel=0, control=64, value=0, time=3)\n",
      "Message('note_on', channel=0, note=81, velocity=0, time=10)\n",
      "Message('control_change', channel=0, control=67, value=29, time=7)\n",
      "Message('note_on', channel=0, note=60, velocity=75, time=2)\n",
      "Message('note_on', channel=0, note=84, velocity=0, time=6)\n",
      "Message('note_on', channel=0, note=81, velocity=80, time=12)\n",
      "Message('note_on', channel=0, note=83, velocity=0, time=6)\n",
      "Message('note_on', channel=0, note=60, velocity=0, time=9)\n",
      "Message('control_change', channel=0, control=67, value=23, time=3)\n",
      "Message('control_change', channel=0, control=67, value=19, time=20)\n",
      "Message('control_change', channel=0, control=67, value=24, time=72)\n",
      "Message('note_on', channel=0, note=57, velocity=66, time=37)\n",
      "Message('control_change', channel=0, control=67, value=17, time=39)\n",
      "Message('note_on', channel=0, note=57, velocity=0, time=1)\n",
      "Message('control_change', channel=0, control=67, value=22, time=53)\n",
      "Message('note_on', channel=0, note=81, velocity=0, time=13)\n",
      "Message('note_on', channel=0, note=79, velocity=78, time=39)\n",
      "Message('note_on', channel=0, note=54, velocity=56, time=2)\n",
      "Message('note_on', channel=0, note=54, velocity=0, time=30)\n",
      "Message('control_change', channel=0, control=67, value=16, time=10)\n",
      "Message('note_on', channel=0, note=79, velocity=0, time=0)\n",
      "Message('note_on', channel=0, note=81, velocity=88, time=14)\n",
      "Message('control_change', channel=0, control=67, value=21, time=26)\n",
      "Message('note_on', channel=0, note=83, velocity=92, time=38)\n",
      "Message('note_on', channel=0, note=81, velocity=0, time=2)\n",
      "Message('note_on', channel=0, note=55, velocity=75, time=2)\n",
      "Message('note_on', channel=0, note=55, velocity=0, time=34)\n",
      "Message('control_change', channel=0, control=67, value=15, time=38)\n",
      "Message('control_change', channel=0, control=67, value=20, time=39)\n",
      "Message('note_on', channel=0, note=59, velocity=67, time=39)\n",
      "Message('note_on', channel=0, note=59, velocity=0, time=34)\n",
      "Message('control_change', channel=0, control=67, value=16, time=19)\n",
      "Message('control_change', channel=0, control=67, value=20, time=57)\n",
      "Message('note_on', channel=0, note=55, velocity=67, time=30)\n",
      "Message('note_on', channel=0, note=81, velocity=80, time=5)\n",
      "Message('note_on', channel=0, note=83, velocity=0, time=3)\n",
      "Message('note_on', channel=0, note=55, velocity=0, time=22)\n",
      "Message('note_on', channel=0, note=81, velocity=0, time=22)\n",
      "Message('control_change', channel=0, control=67, value=16, time=13)\n",
      "Message('control_change', channel=0, control=67, value=21, time=55)\n",
      "Message('note_on', channel=0, note=50, velocity=75, time=2)\n",
      "Message('note_on', channel=0, note=83, velocity=89, time=9)\n",
      "Message('note_on', channel=0, note=50, velocity=0, time=27)\n",
      "Message('note_on', channel=0, note=83, velocity=0, time=26)\n",
      "Message('note_on', channel=0, note=47, velocity=76, time=87)\n",
      "Message('note_on', channel=0, note=79, velocity=89, time=10)\n",
      "Message('control_change', channel=0, control=64, value=38, time=9)\n",
      "Message('control_change', channel=0, control=64, value=70, time=20)\n",
      "Message('note_on', channel=0, note=47, velocity=0, time=6)\n",
      "Message('control_change', channel=0, control=64, value=67, time=47)\n",
      "Message('control_change', channel=0, control=64, value=63, time=20)\n",
      "Message('control_change', channel=0, control=64, value=61, time=17)\n",
      "Message('note_on', channel=0, note=55, velocity=80, time=29)\n",
      "Message('note_on', channel=0, note=55, velocity=0, time=42)\n",
      "Message('control_change', channel=0, control=64, value=60, time=23)\n",
      "Message('note_on', channel=0, note=50, velocity=76, time=69)\n",
      "Message('control_change', channel=0, control=64, value=56, time=6)\n",
      "Message('note_on', channel=0, note=81, velocity=88, time=9)\n",
      "Message('control_change', channel=0, control=64, value=54, time=11)\n",
      "Message('note_on', channel=0, note=50, velocity=0, time=8)\n",
      "Message('control_change', channel=0, control=64, value=52, time=9)\n",
      "Message('note_on', channel=0, note=79, velocity=0, time=2)\n",
      "Message('note_on', channel=0, note=81, velocity=0, time=27)\n",
      "Message('control_change', channel=0, control=64, value=50, time=11)\n",
      "Message('note_on', channel=0, note=47, velocity=75, time=64)\n",
      "Message('note_on', channel=0, note=84, velocity=91, time=10)\n",
      "Message('control_change', channel=0, control=64, value=48, time=1)\n",
      "Message('control_change', channel=0, control=64, value=44, time=19)\n",
      "Message('note_on', channel=0, note=47, velocity=0, time=2)\n",
      "Message('control_change', channel=0, control=64, value=27, time=17)\n",
      "Message('note_on', channel=0, note=84, velocity=0, time=8)\n",
      "Message('control_change', channel=0, control=64, value=0, time=10)\n",
      "Message('note_on', channel=0, note=43, velocity=74, time=85)\n",
      "Message('control_change', channel=0, control=67, value=25, time=10)\n",
      "Message('note_on', channel=0, note=83, velocity=87, time=1)\n",
      "Message('note_on', channel=0, note=43, velocity=0, time=31)\n",
      "Message('control_change', channel=0, control=67, value=21, time=45)\n",
      "Message('note_on', channel=0, note=47, velocity=69, time=59)\n",
      "Message('note_on', channel=0, note=47, velocity=0, time=35)\n",
      "Message('note_on', channel=0, note=49, velocity=73, time=104)\n",
      "Message('note_on', channel=0, note=76, velocity=85, time=16)\n",
      "Message('note_on', channel=0, note=49, velocity=0, time=22)\n",
      "Message('note_on', channel=0, note=83, velocity=0, time=1)\n",
      "Message('note_on', channel=0, note=76, velocity=0, time=18)\n",
      "Message('note_on', channel=0, note=52, velocity=67, time=108)\n",
      "Message('note_on', channel=0, note=79, velocity=86, time=6)\n",
      "Message('note_on', channel=0, note=52, velocity=0, time=32)\n",
      "Message('note_on', channel=0, note=79, velocity=0, time=8)\n",
      "Message('note_on', channel=0, note=42, velocity=68, time=105)\n",
      "Message('note_on', channel=0, note=81, velocity=84, time=0)\n",
      "Message('control_change', channel=0, control=64, value=28, time=28)\n",
      "Message('note_on', channel=0, note=42, velocity=0, time=4)\n",
      "Message('control_change', channel=0, control=64, value=39, time=16)\n",
      "Message('control_change', channel=0, control=64, value=41, time=18)\n",
      "Message('note_on', channel=0, note=45, velocity=81, time=64)\n",
      "Message('note_on', channel=0, note=45, velocity=0, time=35)\n",
      "Message('control_change', channel=0, control=64, value=36, time=109)\n",
      "Message('note_on', channel=0, note=50, velocity=78, time=11)\n",
      "Message('note_on', channel=0, note=71, velocity=79, time=8)\n",
      "Message('control_change', channel=0, control=64, value=26, time=19)\n",
      "Message('note_on', channel=0, note=81, velocity=0, time=2)\n",
      "Message('control_change', channel=0, control=64, value=16, time=16)\n",
      "Message('note_on', channel=0, note=71, velocity=0, time=2)\n",
      "Message('control_change', channel=0, control=64, value=0, time=36)\n",
      "Message('note_on', channel=0, note=74, velocity=82, time=53)\n",
      "Message('note_on', channel=0, note=74, velocity=0, time=45)\n",
      "Message('note_on', channel=0, note=50, velocity=0, time=35)\n",
      "Message('note_on', channel=0, note=40, velocity=76, time=74)\n",
      "Message('note_on', channel=0, note=79, velocity=79, time=6)\n",
      "Message('note_on', channel=0, note=40, velocity=0, time=44)\n",
      "Message('note_on', channel=0, note=43, velocity=77, time=83)\n",
      "Message('note_on', channel=0, note=43, velocity=0, time=53)\n",
      "Message('note_on', channel=0, note=45, velocity=73, time=120)\n",
      "Message('note_on', channel=0, note=73, velocity=80, time=3)\n",
      "Message('note_on', channel=0, note=79, velocity=0, time=24)\n",
      "Message('note_on', channel=0, note=45, velocity=0, time=10)\n",
      "Message('note_on', channel=0, note=73, velocity=0, time=12)\n",
      "Message('note_on', channel=0, note=76, velocity=85, time=85)\n",
      "Message('note_on', channel=0, note=49, velocity=81, time=1)\n",
      "Message('note_on', channel=0, note=49, velocity=0, time=35)\n",
      "Message('note_on', channel=0, note=76, velocity=0, time=5)\n",
      "Message('control_change', channel=0, control=67, value=25, time=64)\n",
      "Message('note_on', channel=0, note=50, velocity=79, time=38)\n",
      "Message('note_on', channel=0, note=78, velocity=87, time=4)\n",
      "Message('control_change', channel=0, control=64, value=32, time=15)\n",
      "Message('control_change', channel=0, control=64, value=49, time=17)\n",
      "Message('note_on', channel=0, note=50, velocity=0, time=6)\n",
      "Message('control_change', channel=0, control=64, value=58, time=14)\n",
      "Message('control_change', channel=0, control=64, value=62, time=18)\n",
      "Message('note_on', channel=0, note=52, velocity=65, time=73)\n",
      "Message('note_on', channel=0, note=52, velocity=0, time=38)\n",
      "Message('control_change', channel=0, control=64, value=61, time=77)\n",
      "Message('control_change', channel=0, control=64, value=59, time=20)\n",
      "Message('note_on', channel=0, note=78, velocity=0, time=7)\n",
      "Message('note_on', channel=0, note=74, velocity=86, time=8)\n",
      "Message('note_on', channel=0, note=54, velocity=59, time=3)\n",
      "Message('control_change', channel=0, control=64, value=54, time=2)\n",
      "Message('control_change', channel=0, control=64, value=44, time=19)\n",
      "Message('control_change', channel=0, control=64, value=33, time=19)\n",
      "Message('note_on', channel=0, note=54, velocity=0, time=1)\n",
      "Message('note_on', channel=0, note=74, velocity=0, time=0)\n",
      "Message('control_change', channel=0, control=64, value=25, time=35)\n",
      "Message('control_change', channel=0, control=64, value=0, time=18)\n",
      "Message('note_on', channel=0, note=50, velocity=57, time=34)\n",
      "Message('note_on', channel=0, note=78, velocity=85, time=8)\n",
      "Message('note_on', channel=0, note=50, velocity=0, time=31)\n",
      "Message('note_on', channel=0, note=78, velocity=0, time=9)\n",
      "Message('note_on', channel=0, note=55, velocity=71, time=118)\n",
      "Message('note_on', channel=0, note=83, velocity=88, time=4)\n",
      "Message('note_on', channel=0, note=83, velocity=0, time=27)\n",
      "Message('note_on', channel=0, note=55, velocity=0, time=3)\n",
      "Message('note_on', channel=0, note=52, velocity=67, time=110)\n",
      "Message('note_on', channel=0, note=52, velocity=0, time=33)\n",
      "Message('note_on', channel=0, note=54, velocity=67, time=118)\n",
      "Message('note_on', channel=0, note=81, velocity=86, time=4)\n",
      "Message('note_on', channel=0, note=54, velocity=0, time=33)\n",
      "Message('note_on', channel=0, note=81, velocity=0, time=16)\n",
      "Message('note_on', channel=0, note=50, velocity=60, time=98)\n",
      "Message('note_on', channel=0, note=50, velocity=0, time=36)\n",
      "Message('note_on', channel=0, note=79, velocity=78, time=111)\n",
      "Message('note_on', channel=0, note=57, velocity=72, time=3)\n",
      "Message('note_on', channel=0, note=57, velocity=0, time=33)\n",
      "Message('note_on', channel=0, note=79, velocity=0, time=3)\n",
      "Message('note_on', channel=0, note=78, velocity=74, time=111)\n",
      "Message('note_on', channel=0, note=78, velocity=0, time=36)\n",
      "Message('note_on', channel=0, note=79, velocity=82, time=97)\n",
      "Message('note_on', channel=0, note=45, velocity=64, time=12)\n",
      "Message('note_on', channel=0, note=79, velocity=0, time=20)\n",
      "Message('note_on', channel=0, note=45, velocity=0, time=19)\n",
      "Message('note_on', channel=0, note=76, velocity=80, time=106)\n",
      "Message('note_on', channel=0, note=76, velocity=0, time=28)\n",
      "Message('note_on', channel=0, note=50, velocity=58, time=131)\n",
      "Message('control_change', channel=0, control=67, value=21, time=2)\n",
      "Message('note_on', channel=0, note=74, velocity=71, time=4)\n",
      "Message('note_on', channel=0, note=50, velocity=0, time=32)\n",
      "Message('control_change', channel=0, control=67, value=11, time=1)\n",
      "Message('note_on', channel=0, note=45, velocity=61, time=96)\n",
      "Message('note_on', channel=0, note=45, velocity=0, time=37)\n",
      "Message('note_on', channel=0, note=42, velocity=64, time=104)\n",
      "Message('note_on', channel=0, note=42, velocity=0, time=36)\n",
      "Message('note_on', channel=0, note=45, velocity=62, time=105)\n",
      "Message('note_on', channel=0, note=45, velocity=0, time=39)\n",
      "Message('control_change', channel=0, control=64, value=20, time=110)\n",
      "Message('note_on', channel=0, note=38, velocity=67, time=13)\n",
      "Message('control_change', channel=0, control=64, value=66, time=6)\n",
      "Message('control_change', channel=0, control=64, value=82, time=19)\n",
      "Message('note_on', channel=0, note=38, velocity=0, time=10)\n",
      "Message('control_change', channel=0, control=64, value=100, time=9)\n",
      "Message('control_change', channel=0, control=64, value=118, time=21)\n",
      "Message('control_change', channel=0, control=67, value=16, time=0)\n",
      "Message('control_change', channel=0, control=64, value=127, time=18)\n",
      "Message('note_on', channel=0, note=74, velocity=0, time=86)\n",
      "Message('note_on', channel=0, note=71, velocity=78, time=181)\n",
      "Message('control_change', channel=0, control=64, value=117, time=12)\n",
      "Message('note_on', channel=0, note=71, velocity=0, time=16)\n",
      "Message('control_change', channel=0, control=64, value=71, time=3)\n",
      "Message('control_change', channel=0, control=64, value=0, time=18)\n",
      "Message('note_on', channel=0, note=74, velocity=79, time=69)\n",
      "Message('note_on', channel=0, note=74, velocity=0, time=25)\n",
      "Message('note_on', channel=0, note=79, velocity=70, time=131)\n",
      "Message('note_on', channel=0, note=78, velocity=80, time=35)\n",
      "Message('note_on', channel=0, note=79, velocity=0, time=4)\n",
      "Message('control_change', channel=0, control=64, value=23, time=1)\n",
      "Message('control_change', channel=0, control=67, value=21, time=1)\n",
      "Message('control_change', channel=0, control=64, value=39, time=18)\n",
      "Message('control_change', channel=0, control=67, value=25, time=1)\n",
      "Message('control_change', channel=0, control=64, value=0, time=18)\n",
      "Message('note_on', channel=0, note=78, velocity=0, time=5)\n",
      "Message('note_on', channel=0, note=62, velocity=55, time=22)\n",
      "Message('note_on', channel=0, note=62, velocity=0, time=43)\n",
      "Message('control_change', channel=0, control=67, value=29, time=43)\n",
      "Message('note_on', channel=0, note=59, velocity=74, time=33)\n",
      "Message('note_on', channel=0, note=59, velocity=0, time=33)\n",
      "Message('note_on', channel=0, note=55, velocity=77, time=103)\n",
      "Message('note_on', channel=0, note=81, velocity=82, time=24)\n",
      "Message('note_on', channel=0, note=55, velocity=0, time=8)\n",
      "Message('note_on', channel=0, note=81, velocity=0, time=23)\n",
      "Message('note_on', channel=0, note=83, velocity=80, time=113)\n",
      "Message('note_on', channel=0, note=54, velocity=74, time=4)\n",
      "Message('note_on', channel=0, note=83, velocity=0, time=24)\n",
      "Message('note_on', channel=0, note=54, velocity=0, time=6)\n",
      "Message('note_on', channel=0, note=81, velocity=72, time=13)\n",
      "Message('control_change', channel=0, control=64, value=69, time=3)\n",
      "Message('control_change', channel=0, control=64, value=61, time=20)\n",
      "Message('control_change', channel=0, control=64, value=0, time=21)\n",
      "Message('control_change', channel=0, control=67, value=36, time=1)\n",
      "Message('note_on', channel=0, note=83, velocity=82, time=7)\n",
      "Message('note_on', channel=0, note=81, velocity=0, time=19)\n",
      "Message('note_on', channel=0, note=60, velocity=72, time=19)\n",
      "Message('note_on', channel=0, note=81, velocity=75, time=20)\n",
      "Message('control_change', channel=0, control=67, value=30, time=11)\n",
      "Message('note_on', channel=0, note=60, velocity=0, time=7)\n",
      "Message('note_on', channel=0, note=83, velocity=0, time=7)\n",
      "Message('control_change', channel=0, control=67, value=35, time=22)\n",
      "Message('note_on', channel=0, note=81, velocity=0, time=25)\n",
      "Message('control_change', channel=0, control=67, value=43, time=12)\n",
      "Message('note_on', channel=0, note=83, velocity=82, time=0)\n",
      "Message('note_on', channel=0, note=57, velocity=79, time=28)\n",
      "Message('note_on', channel=0, note=81, velocity=54, time=26)\n",
      "Message('note_on', channel=0, note=57, velocity=0, time=2)\n",
      "Message('note_on', channel=0, note=83, velocity=0, time=11)\n",
      "Message('control_change', channel=0, control=67, value=38, time=9)\n",
      "Message('control_change', channel=0, control=67, value=45, time=38)\n",
      "Message('note_on', channel=0, note=79, velocity=80, time=57)\n",
      "Message('note_on', channel=0, note=81, velocity=0, time=2)\n",
      "Message('note_on', channel=0, note=54, velocity=75, time=5)\n",
      "Message('note_on', channel=0, note=54, velocity=0, time=27)\n",
      "Message('control_change', channel=0, control=67, value=38, time=1)\n",
      "Message('note_on', channel=0, note=81, velocity=78, time=23)\n",
      "Message('note_on', channel=0, note=79, velocity=0, time=2)\n",
      "Message('control_change', channel=0, control=67, value=44, time=15)\n",
      "Message('control_change', channel=0, control=64, value=25, time=20)\n",
      "Message('control_change', channel=0, control=67, value=49, time=1)\n",
      "Message('control_change', channel=0, control=64, value=55, time=16)\n",
      "Message('control_change', channel=0, control=67, value=53, time=1)\n",
      "Message('note_on', channel=0, note=83, velocity=92, time=4)\n",
      "Message('note_on', channel=0, note=55, velocity=79, time=8)\n",
      "Message('control_change', channel=0, control=64, value=0, time=5)\n",
      "Message('note_on', channel=0, note=81, velocity=0, time=6)\n",
      "Message('note_on', channel=0, note=55, velocity=0, time=27)\n",
      "Message('control_change', channel=0, control=67, value=44, time=5)\n",
      "Message('control_change', channel=0, control=67, value=38, time=21)\n",
      "Message('control_change', channel=0, control=67, value=42, time=19)\n",
      "Message('control_change', channel=0, control=67, value=47, time=18)\n",
      "Message('control_change', channel=0, control=67, value=51, time=20)\n",
      "Message('note_on', channel=0, note=59, velocity=67, time=32)\n",
      "Message('control_change', channel=0, control=67, value=45, time=22)\n",
      "Message('note_on', channel=0, note=59, velocity=0, time=13)\n",
      "Message('control_change', channel=0, control=67, value=38, time=6)\n",
      "Message('control_change', channel=0, control=67, value=43, time=39)\n",
      "Message('note_on', channel=0, note=81, velocity=78, time=53)\n",
      "Message('note_on', channel=0, note=55, velocity=65, time=2)\n",
      "Message('note_on', channel=0, note=83, velocity=0, time=2)\n",
      "Message('note_on', channel=0, note=55, velocity=0, time=34)\n",
      "Message('control_change', channel=0, control=67, value=34, time=2)\n",
      "Message('note_on', channel=0, note=81, velocity=0, time=9)\n",
      "Message('control_change', channel=0, control=67, value=29, time=12)\n",
      "Message('control_change', channel=0, control=67, value=34, time=19)\n",
      "Message('control_change', channel=0, control=67, value=38, time=34)\n",
      "Message('control_change', channel=0, control=67, value=42, time=17)\n",
      "Message('note_on', channel=0, note=83, velocity=85, time=17)\n",
      "Message('note_on', channel=0, note=50, velocity=63, time=3)\n",
      "Message('control_change', channel=0, control=67, value=34, time=36)\n",
      "Message('note_on', channel=0, note=50, velocity=0, time=1)\n",
      "Message('note_on', channel=0, note=83, velocity=0, time=11)\n",
      "Message('control_change', channel=0, control=67, value=39, time=66)\n",
      "Message('note_on', channel=0, note=79, velocity=80, time=33)\n",
      "Message('control_change', channel=0, control=64, value=68, time=4)\n",
      "Message('note_on', channel=0, note=47, velocity=38, time=13)\n",
      "Message('note_on', channel=0, note=45, velocity=26, time=15)\n",
      "Message('control_change', channel=0, control=64, value=57, time=8)\n",
      "Message('control_change', channel=0, control=67, value=33, time=3)\n",
      "Message('control_change', channel=0, control=64, value=25, time=17)\n",
      "Message('note_on', channel=0, note=47, velocity=0, time=3)\n",
      "Message('control_change', channel=0, control=64, value=0, time=16)\n",
      "Message('note_on', channel=0, note=45, velocity=0, time=16)\n",
      "Message('control_change', channel=0, control=67, value=37, time=3)\n",
      "Message('control_change', channel=0, control=64, value=19, time=17)\n",
      "Message('note_on', channel=0, note=50, velocity=74, time=14)\n",
      "Message('control_change', channel=0, control=64, value=9, time=26)\n",
      "Message('note_on', channel=0, note=50, velocity=0, time=8)\n",
      "Message('control_change', channel=0, control=64, value=0, time=11)\n",
      "Message('control_change', channel=0, control=67, value=32, time=1)\n",
      "Message('control_change', channel=0, control=64, value=9, time=55)\n",
      "Message('control_change', channel=0, control=67, value=37, time=20)\n",
      "Message('note_on', channel=0, note=47, velocity=73, time=12)\n",
      "Message('control_change', channel=0, control=64, value=0, time=4)\n",
      "Message('note_on', channel=0, note=74, velocity=77, time=16)\n",
      "Message('note_on', channel=0, note=79, velocity=0, time=8)\n",
      "Message('note_on', channel=0, note=47, velocity=0, time=4)\n",
      "Message('note_on', channel=0, note=74, velocity=0, time=14)\n",
      "Message('control_change', channel=0, control=67, value=31, time=18)\n",
      "Message('control_change', channel=0, control=67, value=36, time=54)\n",
      "Message('note_on', channel=0, note=43, velocity=73, time=22)\n",
      "Message('note_on', channel=0, note=71, velocity=79, time=20)\n",
      "Message('note_on', channel=0, note=43, velocity=0, time=13)\n",
      "Message('note_on', channel=0, note=71, velocity=0, time=13)\n",
      "Message('control_change', channel=0, control=67, value=29, time=28)\n",
      "Message('control_change', channel=0, control=67, value=34, time=37)\n",
      "Message('note_on', channel=0, note=48, velocity=76, time=36)\n",
      "Message('note_on', channel=0, note=76, velocity=82, time=18)\n",
      "Message('control_change', channel=0, control=64, value=59, time=2)\n",
      "Message('note_on', channel=0, note=48, velocity=0, time=14)\n",
      "Message('control_change', channel=0, control=64, value=83, time=5)\n",
      "Message('control_change', channel=0, control=64, value=93, time=20)\n",
      "Message('note_on', channel=0, note=76, velocity=0, time=30)\n",
      "Message('control_change', channel=0, control=64, value=99, time=46)\n",
      "Message('control_change', channel=0, control=67, value=38, time=1)\n",
      "Message('note_on', channel=0, note=43, velocity=75, time=2)\n",
      "Message('control_change', channel=0, control=64, value=104, time=17)\n",
      "Message('note_on', channel=0, note=43, velocity=0, time=14)\n",
      "Message('control_change', channel=0, control=64, value=108, time=4)\n",
      "Message('control_change', channel=0, control=64, value=114, time=52)\n",
      "Message('control_change', channel=0, control=67, value=33, time=1)\n",
      "Message('control_change', channel=0, control=64, value=118, time=17)\n",
      "Message('control_change', channel=0, control=64, value=126, time=21)\n",
      "Message('control_change', channel=0, control=67, value=37, time=1)\n",
      "Message('note_on', channel=0, note=52, velocity=81, time=37)\n",
      "Message('note_on', channel=0, note=76, velocity=78, time=9)\n",
      "Message('control_change', channel=0, control=64, value=111, time=27)\n",
      "Message('note_on', channel=0, note=52, velocity=0, time=5)\n",
      "Message('control_change', channel=0, control=64, value=65, time=14)\n",
      "Message('note_on', channel=0, note=76, velocity=0, time=7)\n",
      "Message('control_change', channel=0, control=64, value=0, time=12)\n",
      "Message('note_on', channel=0, note=74, velocity=79, time=9)\n",
      "Message('control_change', channel=0, control=67, value=41, time=30)\n",
      "Message('note_on', channel=0, note=72, velocity=76, time=3)\n",
      "Message('note_on', channel=0, note=74, velocity=0, time=5)\n",
      "Message('note_on', channel=0, note=72, velocity=0, time=25)\n",
      "Message('note_on', channel=0, note=48, velocity=58, time=1)\n",
      "Message('note_on', channel=0, note=50, velocity=49, time=19)\n",
      "Message('note_on', channel=0, note=71, velocity=82, time=7)\n",
      "Message('note_on', channel=0, note=48, velocity=0, time=7)\n",
      "Message('note_on', channel=0, note=71, velocity=0, time=28)\n",
      "Message('note_on', channel=0, note=50, velocity=0, time=1)\n",
      "Message('control_change', channel=0, control=64, value=41, time=34)\n",
      "Message('note_on', channel=0, note=69, velocity=89, time=6)\n",
      "Message('control_change', channel=0, control=64, value=61, time=12)\n",
      "Message('note_on', channel=0, note=50, velocity=79, time=6)\n",
      "Message('control_change', channel=0, control=64, value=0, time=15)\n",
      "Message('control_change', channel=0, control=67, value=45, time=1)\n",
      "Message('note_on', channel=0, note=50, velocity=0, time=17)\n",
      "Message('note_on', channel=0, note=50, velocity=44, time=119)\n",
      "Message('note_on', channel=0, note=50, velocity=0, time=37)\n",
      "Message('note_on', channel=0, note=69, velocity=0, time=15)\n",
      "Message('note_on', channel=0, note=74, velocity=82, time=61)\n",
      "Message('note_on', channel=0, note=54, velocity=74, time=30)\n",
      "Message('note_on', channel=0, note=74, velocity=0, time=26)\n",
      "Message('note_on', channel=0, note=54, velocity=0, time=7)\n",
      "Message('note_on', channel=0, note=69, velocity=84, time=80)\n",
      "Message('note_on', channel=0, note=69, velocity=0, time=34)\n",
      "Message('control_change', channel=0, control=67, value=49, time=4)\n",
      "Message('note_on', channel=0, note=55, velocity=76, time=106)\n",
      "Message('note_on', channel=0, note=72, velocity=77, time=6)\n",
      "Message('control_change', channel=0, control=64, value=48, time=4)\n",
      "Message('control_change', channel=0, control=64, value=79, time=20)\n",
      "Message('note_on', channel=0, note=72, velocity=0, time=25)\n",
      "Message('control_change', channel=0, control=67, value=54, time=6)\n",
      "Message('control_change', channel=0, control=64, value=69, time=20)\n",
      "Message('control_change', channel=0, control=64, value=63, time=21)\n",
      "Message('control_change', channel=0, control=64, value=65, time=18)\n",
      "Message('control_change', channel=0, control=64, value=70, time=19)\n",
      "Message('control_change', channel=0, control=67, value=49, time=1)\n",
      "Message('note_on', channel=0, note=71, velocity=80, time=11)\n",
      "Message('control_change', channel=0, control=64, value=76, time=3)\n",
      "Message('control_change', channel=0, control=64, value=78, time=22)\n",
      "Message('control_change', channel=0, control=64, value=76, time=20)\n",
      "Message('note_on', channel=0, note=71, velocity=0, time=2)\n",
      "Message('control_change', channel=0, control=64, value=74, time=16)\n",
      "Message('control_change', channel=0, control=64, value=77, time=58)\n",
      "Message('note_on', channel=0, note=55, velocity=0, time=25)\n",
      "Message('note_on', channel=0, note=50, velocity=78, time=5)\n",
      "Message('note_on', channel=0, note=69, velocity=71, time=0)\n",
      "Message('control_change', channel=0, control=64, value=69, time=6)\n",
      "Message('control_change', channel=0, control=64, value=0, time=19)\n",
      "Message('note_on', channel=0, note=69, velocity=0, time=6)\n",
      "Message('note_on', channel=0, note=50, velocity=0, time=3)\n",
      "Message('note_on', channel=0, note=71, velocity=70, time=104)\n",
      "Message('note_on', channel=0, note=71, velocity=0, time=29)\n",
      "Message('note_on', channel=0, note=47, velocity=79, time=117)\n",
      "Message('note_on', channel=0, note=67, velocity=79, time=11)\n",
      "Message('note_on', channel=0, note=47, velocity=0, time=21)\n",
      "Message('note_on', channel=0, note=67, velocity=0, time=10)\n",
      "Message('note_on', channel=0, note=69, velocity=85, time=95)\n",
      "Message('note_on', channel=0, note=69, velocity=0, time=31)\n",
      "Message('note_on', channel=0, note=71, velocity=88, time=115)\n",
      "Message('note_on', channel=0, note=50, velocity=73, time=1)\n",
      "Message('note_on', channel=0, note=50, velocity=0, time=31)\n",
      "Message('note_on', channel=0, note=71, velocity=0, time=12)\n",
      "Message('note_on', channel=0, note=74, velocity=88, time=104)\n",
      "Message('note_on', channel=0, note=74, velocity=0, time=30)\n",
      "Message('note_on', channel=0, note=79, velocity=84, time=123)\n",
      "Message('note_on', channel=0, note=43, velocity=80, time=2)\n",
      "Message('note_on', channel=0, note=79, velocity=0, time=33)\n",
      "Message('note_on', channel=0, note=43, velocity=0, time=2)\n",
      "Message('control_change', channel=0, control=64, value=61, time=3)\n",
      "Message('note_on', channel=0, note=78, velocity=79, time=0)\n",
      "Message('control_change', channel=0, control=67, value=54, time=2)\n",
      "Message('control_change', channel=0, control=64, value=58, time=19)\n",
      "Message('note_on', channel=0, note=78, velocity=0, time=6)\n",
      "Message('control_change', channel=0, control=64, value=0, time=11)\n",
      "Message('note_on', channel=0, note=79, velocity=82, time=18)\n",
      "Message('note_on', channel=0, note=62, velocity=80, time=55)\n",
      "Message('control_change', channel=0, control=67, value=59, time=21)\n",
      "Message('note_on', channel=0, note=62, velocity=0, time=21)\n",
      "Message('note_on', channel=0, note=59, velocity=77, time=82)\n",
      "Message('note_on', channel=0, note=59, velocity=0, time=32)\n",
      "Message('note_on', channel=0, note=79, velocity=0, time=109)\n",
      "Message('note_on', channel=0, note=81, velocity=78, time=3)\n",
      "Message('note_on', channel=0, note=55, velocity=75, time=2)\n",
      "Message('note_on', channel=0, note=55, velocity=0, time=30)\n",
      "Message('note_on', channel=0, note=81, velocity=0, time=6)\n",
      "Message('note_on', channel=0, note=83, velocity=85, time=106)\n",
      "Message('note_on', channel=0, note=54, velocity=80, time=1)\n",
      "Message('note_on', channel=0, note=54, velocity=0, time=33)\n",
      "Message('note_on', channel=0, note=83, velocity=0, time=7)\n",
      "Message('note_on', channel=0, note=81, velocity=72, time=12)\n",
      "Message('control_change', channel=0, control=64, value=69, time=6)\n",
      "Message('control_change', channel=0, control=64, value=72, time=23)\n",
      "Message('note_on', channel=0, note=83, velocity=78, time=10)\n",
      "Message('control_change', channel=0, control=64, value=0, time=8)\n",
      "Message('note_on', channel=0, note=81, velocity=0, time=17)\n",
      "Message('note_on', channel=0, note=60, velocity=72, time=18)\n",
      "Message('note_on', channel=0, note=81, velocity=82, time=16)\n",
      "Message('note_on', channel=0, note=83, velocity=0, time=3)\n",
      "Message('note_on', channel=0, note=60, velocity=0, time=16)\n",
      "Message('note_on', channel=0, note=81, velocity=0, time=115)\n",
      "Message('note_on', channel=0, note=81, velocity=49, time=0)\n",
      "Message('note_on', channel=0, note=57, velocity=75, time=12)\n",
      "Message('note_on', channel=0, note=57, velocity=0, time=29)\n",
      "Message('note_on', channel=0, note=81, velocity=0, time=82)\n",
      "Message('note_on', channel=0, note=79, velocity=79, time=40)\n",
      "Message('note_on', channel=0, note=54, velocity=70, time=1)\n",
      "Message('note_on', channel=0, note=54, velocity=0, time=32)\n",
      "Message('note_on', channel=0, note=79, velocity=0, time=16)\n",
      "Message('note_on', channel=0, note=81, velocity=82, time=9)\n",
      "Message('note_on', channel=0, note=83, velocity=93, time=58)\n",
      "Message('note_on', channel=0, note=55, velocity=81, time=9)\n",
      "Message('note_on', channel=0, note=81, velocity=0, time=29)\n",
      "Message('note_on', channel=0, note=55, velocity=0, time=13)\n",
      "Message('note_on', channel=0, note=59, velocity=72, time=106)\n",
      "Message('note_on', channel=0, note=59, velocity=0, time=31)\n",
      "Message('note_on', channel=0, note=55, velocity=66, time=119)\n",
      "Message('note_on', channel=0, note=83, velocity=0, time=3)\n",
      "Message('note_on', channel=0, note=81, velocity=80, time=2)\n",
      "Message('note_on', channel=0, note=55, velocity=0, time=26)\n",
      "Message('note_on', channel=0, note=81, velocity=0, time=24)\n",
      "Message('note_on', channel=0, note=50, velocity=75, time=75)\n",
      "Message('note_on', channel=0, note=83, velocity=85, time=6)\n",
      "Message('note_on', channel=0, note=50, velocity=0, time=30)\n",
      "Message('note_on', channel=0, note=83, velocity=0, time=13)\n",
      "Message('note_on', channel=0, note=47, velocity=79, time=99)\n",
      "Message('control_change', channel=0, control=64, value=33, time=4)\n",
      "Message('note_on', channel=0, note=79, velocity=87, time=1)\n",
      "Message('control_change', channel=0, control=64, value=62, time=20)\n",
      "Message('note_on', channel=0, note=47, velocity=0, time=23)\n",
      "Message('control_change', channel=0, control=64, value=69, time=9)\n",
      "Message('control_change', channel=0, control=64, value=73, time=19)\n",
      "Message('control_change', channel=0, control=64, value=75, time=20)\n",
      "Message('control_change', channel=0, control=64, value=79, time=36)\n",
      "Message('control_change', channel=0, control=64, value=83, time=19)\n",
      "Message('note_on', channel=0, note=55, velocity=89, time=9)\n",
      "Message('control_change', channel=0, control=64, value=91, time=8)\n",
      "Message('control_change', channel=0, control=64, value=103, time=21)\n",
      "Message('control_change', channel=0, control=67, value=63, time=2)\n",
      "Message('note_on', channel=0, note=55, velocity=0, time=13)\n",
      "Message('control_change', channel=0, control=64, value=116, time=3)\n",
      "Message('control_change', channel=0, control=64, value=126, time=21)\n",
      "Message('note_on', channel=0, note=50, velocity=82, time=70)\n",
      "Message('control_change', channel=0, control=64, value=94, time=4)\n",
      "Message('note_on', channel=0, note=81, velocity=86, time=17)\n",
      "Message('control_change', channel=0, control=64, value=25, time=3)\n",
      "Message('control_change', channel=0, control=67, value=67, time=3)\n",
      "Message('note_on', channel=0, note=50, velocity=0, time=7)\n",
      "Message('control_change', channel=0, control=64, value=0, time=8)\n",
      "Message('note_on', channel=0, note=79, velocity=0, time=0)\n",
      "Message('note_on', channel=0, note=81, velocity=0, time=29)\n",
      "Message('control_change', channel=0, control=67, value=72, time=47)\n",
      "Message('note_on', channel=0, note=47, velocity=81, time=25)\n",
      "Message('note_on', channel=0, note=84, velocity=86, time=19)\n",
      "Message('note_on', channel=0, note=47, velocity=0, time=11)\n",
      "Message('note_on', channel=0, note=84, velocity=0, time=37)\n",
      "Message('note_on', channel=0, note=43, velocity=77, time=79)\n",
      "Message('note_on', channel=0, note=83, velocity=84, time=15)\n",
      "Message('note_on', channel=0, note=43, velocity=0, time=30)\n",
      "Message('note_on', channel=0, note=47, velocity=76, time=105)\n",
      "Message('note_on', channel=0, note=47, velocity=0, time=29)\n",
      "Message('note_on', channel=0, note=49, velocity=74, time=116)\n",
      "Message('note_on', channel=0, note=76, velocity=79, time=12)\n",
      "Message('note_on', channel=0, note=83, velocity=0, time=15)\n",
      "Message('note_on', channel=0, note=49, velocity=0, time=10)\n",
      "Message('note_on', channel=0, note=76, velocity=0, time=9)\n",
      "Message('note_on', channel=0, note=52, velocity=71, time=117)\n",
      "Message('note_on', channel=0, note=79, velocity=78, time=0)\n",
      "Message('note_on', channel=0, note=79, velocity=0, time=34)\n",
      "Message('note_on', channel=0, note=52, velocity=0, time=1)\n",
      "Message('note_on', channel=0, note=81, velocity=74, time=111)\n",
      "Message('note_on', channel=0, note=42, velocity=73, time=6)\n",
      "Message('control_change', channel=0, control=64, value=22, time=30)\n",
      "Message('note_on', channel=0, note=42, velocity=0, time=5)\n",
      "Message('control_change', channel=0, control=64, value=34, time=10)\n",
      "Message('control_change', channel=0, control=64, value=22, time=20)\n",
      "Message('control_change', channel=0, control=64, value=0, time=18)\n",
      "Message('note_on', channel=0, note=45, velocity=75, time=56)\n",
      "Message('note_on', channel=0, note=45, velocity=0, time=30)\n",
      "Message('note_on', channel=0, note=50, velocity=69, time=122)\n",
      "Message('note_on', channel=0, note=71, velocity=78, time=9)\n",
      "Message('note_on', channel=0, note=81, velocity=0, time=23)\n",
      "Message('note_on', channel=0, note=71, velocity=0, time=5)\n",
      "Message('note_on', channel=0, note=74, velocity=82, time=108)\n",
      "Message('note_on', channel=0, note=74, velocity=0, time=48)\n",
      "Message('note_on', channel=0, note=50, velocity=0, time=41)\n",
      "Message('note_on', channel=0, note=79, velocity=83, time=68)\n",
      "Message('note_on', channel=0, note=40, velocity=70, time=3)\n",
      "Message('note_on', channel=0, note=40, velocity=0, time=42)\n",
      "Message('note_on', channel=0, note=43, velocity=75, time=82)\n",
      "Message('note_on', channel=0, note=43, velocity=0, time=78)\n",
      "Message('note_on', channel=0, note=45, velocity=79, time=95)\n",
      "Message('note_on', channel=0, note=73, velocity=84, time=6)\n",
      "Message('note_on', channel=0, note=79, velocity=0, time=25)\n",
      "Message('note_on', channel=0, note=45, velocity=0, time=10)\n",
      "Message('note_on', channel=0, note=73, velocity=0, time=19)\n",
      "Message('note_on', channel=0, note=76, velocity=88, time=84)\n",
      "Message('note_on', channel=0, note=49, velocity=85, time=3)\n",
      "Message('note_on', channel=0, note=49, velocity=0, time=40)\n",
      "Message('note_on', channel=0, note=76, velocity=0, time=1)\n",
      "Message('note_on', channel=0, note=50, velocity=79, time=112)\n",
      "Message('note_on', channel=0, note=78, velocity=89, time=0)\n",
      "Message('control_change', channel=0, control=64, value=36, time=36)\n",
      "Message('control_change', channel=0, control=64, value=57, time=18)\n",
      "Message('note_on', channel=0, note=50, velocity=0, time=1)\n",
      "Message('control_change', channel=0, control=64, value=63, time=17)\n",
      "Message('control_change', channel=0, control=64, value=61, time=39)\n",
      "Message('note_on', channel=0, note=52, velocity=86, time=20)\n",
      "Message('note_on', channel=0, note=52, velocity=0, time=33)\n",
      "Message('control_change', channel=0, control=64, value=62, time=22)\n",
      "Message('note_on', channel=0, note=78, velocity=0, time=78)\n",
      "Message('note_on', channel=0, note=74, velocity=87, time=26)\n",
      "Message('note_on', channel=0, note=54, velocity=74, time=3)\n",
      "Message('note_on', channel=0, note=54, velocity=0, time=30)\n",
      "Message('note_on', channel=0, note=74, velocity=0, time=7)\n",
      "Message('control_change', channel=0, control=64, value=59, time=44)\n",
      "Message('control_change', channel=0, control=64, value=50, time=20)\n",
      "Message('note_on', channel=0, note=50, velocity=83, time=13)\n",
      "Message('control_change', channel=0, control=64, value=18, time=6)\n",
      "Message('note_on', channel=0, note=78, velocity=89, time=16)\n",
      "Message('control_change', channel=0, control=64, value=0, time=3)\n",
      "Message('note_on', channel=0, note=50, velocity=0, time=14)\n",
      "Message('note_on', channel=0, note=78, velocity=0, time=37)\n",
      "Message('note_on', channel=0, note=55, velocity=79, time=99)\n",
      "Message('note_on', channel=0, note=83, velocity=89, time=11)\n",
      "Message('note_on', channel=0, note=55, velocity=0, time=22)\n",
      "Message('note_on', channel=0, note=83, velocity=0, time=20)\n",
      "Message('note_on', channel=0, note=52, velocity=74, time=99)\n",
      "Message('note_on', channel=0, note=52, velocity=0, time=36)\n",
      "Message('note_on', channel=0, note=54, velocity=72, time=120)\n",
      "Message('note_on', channel=0, note=81, velocity=86, time=10)\n",
      "Message('note_on', channel=0, note=54, velocity=0, time=27)\n",
      "Message('note_on', channel=0, note=81, velocity=0, time=23)\n",
      "Message('note_on', channel=0, note=50, velocity=70, time=89)\n",
      "Message('note_on', channel=0, note=50, velocity=0, time=35)\n",
      "Message('note_on', channel=0, note=57, velocity=79, time=122)\n",
      "Message('note_on', channel=0, note=79, velocity=79, time=4)\n",
      "Message('note_on', channel=0, note=57, velocity=0, time=26)\n",
      "Message('note_on', channel=0, note=79, velocity=0, time=13)\n",
      "Message('note_on', channel=0, note=78, velocity=74, time=105)\n",
      "Message('note_on', channel=0, note=78, velocity=0, time=34)\n",
      "Message('note_on', channel=0, note=79, velocity=78, time=130)\n",
      "Message('note_on', channel=0, note=45, velocity=73, time=2)\n",
      "Message('note_on', channel=0, note=79, velocity=0, time=31)\n",
      "Message('note_on', channel=0, note=45, velocity=0, time=7)\n",
      "Message('note_on', channel=0, note=76, velocity=76, time=99)\n",
      "Message('note_on', channel=0, note=76, velocity=0, time=29)\n",
      "Message('note_on', channel=0, note=50, velocity=60, time=136)\n",
      "Message('note_on', channel=0, note=74, velocity=66, time=3)\n",
      "Message('note_on', channel=0, note=50, velocity=0, time=36)\n",
      "Message('note_on', channel=0, note=45, velocity=62, time=108)\n",
      "Message('note_on', channel=0, note=45, velocity=0, time=36)\n",
      "Message('note_on', channel=0, note=42, velocity=62, time=105)\n",
      "Message('note_on', channel=0, note=42, velocity=0, time=37)\n",
      "Message('note_on', channel=0, note=45, velocity=65, time=114)\n",
      "Message('note_on', channel=0, note=45, velocity=0, time=32)\n",
      "Message('control_change', channel=0, control=64, value=50, time=143)\n",
      "Message('control_change', channel=0, control=64, value=64, time=33)\n",
      "Message('note_on', channel=0, note=38, velocity=50, time=6)\n",
      "Message('control_change', channel=0, control=64, value=72, time=13)\n",
      "Message('control_change', channel=0, control=64, value=81, time=20)\n",
      "Message('control_change', channel=0, control=64, value=92, time=19)\n",
      "Message('control_change', channel=0, control=64, value=104, time=17)\n",
      "Message('note_on', channel=0, note=74, velocity=0, time=15)\n",
      "Message('control_change', channel=0, control=64, value=115, time=3)\n",
      "Message('note_on', channel=0, note=38, velocity=0, time=12)\n",
      "Message('control_change', channel=0, control=64, value=123, time=8)\n",
      "Message('control_change', channel=0, control=64, value=127, time=18)\n",
      "Message('control_change', channel=0, control=67, value=76, time=20)\n",
      "Message('control_change', channel=0, control=67, value=81, time=114)\n",
      "Message('control_change', channel=0, control=64, value=112, time=74)\n",
      "Message('control_change', channel=0, control=64, value=74, time=19)\n",
      "Message('control_change', channel=0, control=64, value=0, time=19)\n",
      "Message('control_change', channel=0, control=67, value=85, time=2)\n",
      "Message('note_on', channel=0, note=81, velocity=86, time=5)\n",
      "Message('note_on', channel=0, note=81, velocity=0, time=42)\n",
      "Message('note_on', channel=0, note=78, velocity=82, time=105)\n",
      "Message('note_on', channel=0, note=78, velocity=0, time=21)\n",
      "Message('note_on', channel=0, note=74, velocity=82, time=128)\n",
      "Message('control_change', channel=0, control=64, value=46, time=20)\n",
      "Message('control_change', channel=0, control=64, value=65, time=17)\n",
      "Message('control_change', channel=0, control=64, value=55, time=18)\n",
      "Message('control_change', channel=0, control=64, value=40, time=22)\n",
      "Message('control_change', channel=0, control=64, value=29, time=18)\n",
      "Message('control_change', channel=0, control=64, value=46, time=36)\n",
      "Message('control_change', channel=0, control=64, value=53, time=20)\n",
      "Message('note_on', channel=0, note=62, velocity=60, time=0)\n",
      "Message('control_change', channel=0, control=64, value=51, time=37)\n",
      "Message('note_on', channel=0, note=62, velocity=0, time=6)\n",
      "Message('note_on', channel=0, note=57, velocity=65, time=93)\n",
      "Message('note_on', channel=0, note=57, velocity=0, time=37)\n",
      "Message('note_on', channel=0, note=74, velocity=0, time=98)\n",
      "Message('note_on', channel=0, note=54, velocity=67, time=13)\n",
      "Message('note_on', channel=0, note=76, velocity=66, time=15)\n",
      "Message('control_change', channel=0, control=64, value=55, time=16)\n",
      "Message('note_on', channel=0, note=54, velocity=0, time=2)\n",
      "Message('control_change', channel=0, control=64, value=61, time=17)\n",
      "Message('note_on', channel=0, note=76, velocity=0, time=1)\n",
      "Message('control_change', channel=0, control=64, value=68, time=18)\n",
      "Message('note_on', channel=0, note=78, velocity=77, time=7)\n",
      "Message('control_change', channel=0, control=64, value=71, time=13)\n",
      "Message('control_change', channel=0, control=67, value=81, time=0)\n",
      "Message('control_change', channel=0, control=64, value=65, time=18)\n",
      "Message('control_change', channel=0, control=64, value=0, time=20)\n",
      "Message('note_on', channel=0, note=78, velocity=0, time=3)\n",
      "Message('note_on', channel=0, note=50, velocity=71, time=5)\n",
      "Message('note_on', channel=0, note=79, velocity=83, time=9)\n",
      "Message('note_on', channel=0, note=50, velocity=0, time=26)\n",
      "Message('note_on', channel=0, note=79, velocity=0, time=40)\n",
      "Message('note_on', channel=0, note=78, velocity=83, time=3)\n",
      "Message('note_on', channel=0, note=57, velocity=79, time=52)\n",
      "Message('note_on', channel=0, note=78, velocity=0, time=8)\n",
      "Message('note_on', channel=0, note=79, velocity=78, time=1)\n",
      "Message('note_on', channel=0, note=57, velocity=0, time=26)\n",
      "Message('note_on', channel=0, note=78, velocity=80, time=28)\n",
      "Message('note_on', channel=0, note=79, velocity=0, time=20)\n",
      "Message('note_on', channel=0, note=54, velocity=82, time=45)\n",
      "Message('note_on', channel=0, note=54, velocity=0, time=28)\n",
      "Message('note_on', channel=0, note=50, velocity=74, time=125)\n",
      "Message('note_on', channel=0, note=76, velocity=75, time=17)\n",
      "Message('note_on', channel=0, note=78, velocity=0, time=0)\n",
      "Message('note_on', channel=0, note=50, velocity=0, time=17)\n",
      "Message('note_on', channel=0, note=76, velocity=0, time=42)\n",
      "Message('note_on', channel=0, note=78, velocity=85, time=10)\n",
      "Message('note_on', channel=0, note=47, velocity=82, time=49)\n",
      "Message('note_on', channel=0, note=78, velocity=0, time=3)\n",
      "Message('note_on', channel=0, note=79, velocity=83, time=19)\n",
      "Message('note_on', channel=0, note=47, velocity=0, time=33)\n",
      "Message('note_on', channel=0, note=59, velocity=73, time=109)\n",
      "Message('note_on', channel=0, note=59, velocity=0, time=31)\n",
      "Message('note_on', channel=0, note=55, velocity=45, time=128)\n",
      "Message('note_on', channel=0, note=53, velocity=50, time=4)\n",
      "Message('note_on', channel=0, note=55, velocity=0, time=31)\n",
      "Message('note_on', channel=0, note=53, velocity=0, time=5)\n",
      "Message('note_on', channel=0, note=50, velocity=65, time=80)\n",
      "Message('note_on', channel=0, note=50, velocity=0, time=40)\n",
      "Message('note_on', channel=0, note=47, velocity=71, time=103)\n",
      "Message('note_on', channel=0, note=47, velocity=0, time=40)\n",
      "Message('note_on', channel=0, note=50, velocity=76, time=98)\n",
      "Message('note_on', channel=0, note=50, velocity=0, time=39)\n",
      "Message('note_on', channel=0, note=79, velocity=0, time=77)\n",
      "Message('note_on', channel=0, note=47, velocity=68, time=26)\n",
      "Message('note_on', channel=0, note=74, velocity=80, time=3)\n",
      "Message('note_on', channel=0, note=47, velocity=0, time=30)\n",
      "Message('note_on', channel=0, note=74, velocity=0, time=6)\n",
      "Message('note_on', channel=0, note=43, velocity=75, time=99)\n",
      "Message('note_on', channel=0, note=79, velocity=82, time=14)\n",
      "Message('note_on', channel=0, note=43, velocity=0, time=29)\n",
      "Message('note_on', channel=0, note=79, velocity=0, time=1)\n",
      "Message('control_change', channel=0, control=64, value=62, time=126)\n",
      "Message('note_on', channel=0, note=45, velocity=76, time=3)\n",
      "Message('note_on', channel=0, note=84, velocity=81, time=9)\n",
      "Message('control_change', channel=0, control=64, value=76, time=6)\n",
      "Message('note_on', channel=0, note=45, velocity=0, time=20)\n",
      "Message('note_on', channel=0, note=48, velocity=68, time=112)\n",
      "Message('note_on', channel=0, note=48, velocity=0, time=47)\n",
      "Message('control_change', channel=0, control=64, value=68, time=48)\n",
      "Message('control_change', channel=0, control=64, value=44, time=21)\n",
      "Message('control_change', channel=0, control=64, value=0, time=17)\n",
      "Message('note_on', channel=0, note=45, velocity=73, time=12)\n",
      "Message('note_on', channel=0, note=75, velocity=82, time=17)\n",
      "Message('note_on', channel=0, note=84, velocity=0, time=0)\n",
      "Message('note_on', channel=0, note=45, velocity=0, time=22)\n",
      "Message('note_on', channel=0, note=75, velocity=0, time=27)\n",
      "Message('note_on', channel=0, note=42, velocity=72, time=79)\n",
      "Message('note_on', channel=0, note=78, velocity=85, time=7)\n",
      "Message('note_on', channel=0, note=42, velocity=0, time=31)\n",
      "Message('note_on', channel=0, note=78, velocity=0, time=9)\n",
      "Message('note_on', channel=0, note=43, velocity=75, time=100)\n",
      "Message('note_on', channel=0, note=83, velocity=82, time=18)\n",
      "Message('control_change', channel=0, control=64, value=26, time=19)\n",
      "Message('note_on', channel=0, note=43, velocity=0, time=3)\n",
      "Message('control_change', channel=0, control=64, value=68, time=16)\n",
      "Message('control_change', channel=0, control=64, value=71, time=19)\n",
      "Message('control_change', channel=0, control=64, value=69, time=37)\n",
      "Message('note_on', channel=0, note=47, velocity=58, time=54)\n",
      "Message('note_on', channel=0, note=47, velocity=0, time=41)\n",
      "Message('note_on', channel=0, note=43, velocity=71, time=110)\n",
      "Message('control_change', channel=0, control=64, value=67, time=19)\n",
      "Message('note_on', channel=0, note=76, velocity=78, time=0)\n",
      "Message('note_on', channel=0, note=83, velocity=0, time=0)\n",
      "Message('control_change', channel=0, control=64, value=61, time=19)\n",
      "Message('note_on', channel=0, note=43, velocity=0, time=1)\n",
      "Message('note_on', channel=0, note=76, velocity=0, time=14)\n",
      "Message('control_change', channel=0, control=64, value=30, time=2)\n",
      "Message('control_change', channel=0, control=64, value=0, time=18)\n",
      "Message('note_on', channel=0, note=40, velocity=57, time=81)\n",
      "Message('note_on', channel=0, note=79, velocity=73, time=1)\n",
      "Message('note_on', channel=0, note=79, velocity=0, time=36)\n",
      "Message('note_on', channel=0, note=40, velocity=0, time=1)\n",
      "Message('note_on', channel=0, note=78, velocity=76, time=104)\n",
      "Message('note_on', channel=0, note=47, velocity=71, time=7)\n",
      "Message('note_on', channel=0, note=47, velocity=0, time=32)\n",
      "Message('note_on', channel=0, note=78, velocity=0, time=13)\n",
      "Message('note_on', channel=0, note=76, velocity=72, time=93)\n",
      "Message('note_on', channel=0, note=76, velocity=0, time=39)\n",
      "Message('note_on', channel=0, note=49, velocity=73, time=114)\n",
      "Message('note_on', channel=0, note=75, velocity=78, time=1)\n",
      "Message('note_on', channel=0, note=49, velocity=0, time=39)\n",
      "Message('note_on', channel=0, note=75, velocity=0, time=6)\n",
      "Message('note_on', channel=0, note=73, velocity=76, time=101)\n",
      "Message('note_on', channel=0, note=73, velocity=0, time=33)\n",
      "Message('note_on', channel=0, note=51, velocity=71, time=129)\n",
      "Message('control_change', channel=0, control=64, value=16, time=20)\n",
      "Message('note_on', channel=0, note=71, velocity=72, time=0)\n",
      "Message('control_change', channel=0, control=64, value=54, time=19)\n",
      "Message('note_on', channel=0, note=51, velocity=0, time=11)\n",
      "Message('control_change', channel=0, control=64, value=61, time=6)\n",
      "Message('control_change', channel=0, control=64, value=62, time=22)\n",
      "Message('control_change', channel=0, control=67, value=77, time=1)\n",
      "Message('control_change', channel=0, control=64, value=63, time=17)\n",
      "Message('control_change', channel=0, control=64, value=65, time=18)\n",
      "Message('control_change', channel=0, control=64, value=66, time=19)\n",
      "Message('control_change', channel=0, control=67, value=73, time=1)\n",
      "Message('control_change', channel=0, control=64, value=68, time=19)\n",
      "Message('note_on', channel=0, note=54, velocity=68, time=7)\n",
      "Message('note_on', channel=0, note=54, velocity=0, time=35)\n",
      "Message('control_change', channel=0, control=64, value=65, time=69)\n",
      "Message('control_change', channel=0, control=64, value=47, time=21)\n",
      "Message('control_change', channel=0, control=64, value=0, time=18)\n",
      "Message('note_on', channel=0, note=59, velocity=68, time=6)\n",
      "Message('note_on', channel=0, note=81, velocity=80, time=8)\n",
      "Message('note_on', channel=0, note=71, velocity=0, time=20)\n",
      "Message('note_on', channel=0, note=59, velocity=0, time=7)\n",
      "Message('note_on', channel=0, note=81, velocity=0, time=20)\n",
      "Message('note_on', channel=0, note=51, velocity=75, time=88)\n",
      "Message('note_on', channel=0, note=78, velocity=77, time=6)\n",
      "Message('note_on', channel=0, note=51, velocity=0, time=31)\n",
      "Message('note_on', channel=0, note=78, velocity=0, time=21)\n",
      "Message('note_on', channel=0, note=52, velocity=78, time=97)\n",
      "Message('note_on', channel=0, note=71, velocity=70, time=16)\n",
      "Message('note_on', channel=0, note=52, velocity=0, time=34)\n",
      "Message('control_change', channel=0, control=64, value=58, time=3)\n",
      "Message('control_change', channel=0, control=64, value=65, time=20)\n",
      "Message('note_on', channel=0, note=56, velocity=70, time=85)\n",
      "Message('note_on', channel=0, note=56, velocity=0, time=35)\n",
      "Message('control_change', channel=0, control=64, value=60, time=31)\n",
      "Message('control_change', channel=0, control=64, value=52, time=19)\n",
      "Message('control_change', channel=0, control=64, value=42, time=20)\n",
      "Message('note_on', channel=0, note=71, velocity=0, time=2)\n",
      "Message('control_change', channel=0, control=64, value=36, time=15)\n",
      "Message('control_change', channel=0, control=64, value=9, time=19)\n",
      "Message('note_on', channel=0, note=59, velocity=66, time=10)\n",
      "Message('note_on', channel=0, note=80, velocity=77, time=1)\n",
      "Message('control_change', channel=0, control=64, value=0, time=8)\n",
      "Message('note_on', channel=0, note=59, velocity=0, time=26)\n",
      "Message('note_on', channel=0, note=80, velocity=0, time=29)\n",
      "Message('note_on', channel=0, note=50, velocity=71, time=82)\n",
      "Message('note_on', channel=0, note=76, velocity=78, time=8)\n",
      "Message('note_on', channel=0, note=50, velocity=0, time=50)\n",
      "Message('note_on', channel=0, note=76, velocity=0, time=9)\n",
      "Message('control_change', channel=0, control=67, value=77, time=37)\n",
      "Message('note_on', channel=0, note=49, velocity=80, time=50)\n",
      "Message('control_change', channel=0, control=64, value=61, time=7)\n",
      "Message('note_on', channel=0, note=70, velocity=80, time=8)\n",
      "Message('control_change', channel=0, control=64, value=65, time=12)\n",
      "Message('control_change', channel=0, control=64, value=60, time=19)\n",
      "Message('note_on', channel=0, note=49, velocity=0, time=4)\n",
      "Message('control_change', channel=0, control=64, value=57, time=15)\n",
      "Message('control_change', channel=0, control=64, value=59, time=75)\n",
      "Message('note_on', channel=0, note=52, velocity=51, time=26)\n",
      "Message('note_on', channel=0, note=52, velocity=0, time=34)\n",
      "Message('control_change', channel=0, control=64, value=57, time=53)\n",
      "Message('control_change', channel=0, control=64, value=54, time=20)\n",
      "Message('control_change', channel=0, control=64, value=50, time=19)\n",
      "Message('control_change', channel=0, control=64, value=48, time=19)\n",
      "Message('note_on', channel=0, note=58, velocity=74, time=6)\n",
      "Message('note_on', channel=0, note=79, velocity=78, time=7)\n",
      "Message('note_on', channel=0, note=70, velocity=0, time=1)\n",
      "Message('control_change', channel=0, control=64, value=46, time=3)\n",
      "Message('control_change', channel=0, control=64, value=31, time=20)\n",
      "Message('note_on', channel=0, note=78, velocity=20, time=14)\n",
      "Message('control_change', channel=0, control=64, value=0, time=3)\n",
      "Message('note_on', channel=0, note=78, velocity=0, time=9)\n",
      "Message('note_on', channel=0, note=79, velocity=0, time=2)\n",
      "Message('note_on', channel=0, note=58, velocity=0, time=8)\n",
      "Message('note_on', channel=0, note=76, velocity=74, time=80)\n",
      "Message('note_on', channel=0, note=49, velocity=75, time=7)\n",
      "Message('note_on', channel=0, note=49, velocity=0, time=44)\n",
      "Message('note_on', channel=0, note=76, velocity=0, time=3)\n",
      "Message('note_on', channel=0, note=51, velocity=68, time=108)\n",
      "Message('note_on', channel=0, note=69, velocity=78, time=2)\n",
      "Message('control_change', channel=0, control=64, value=48, time=20)\n",
      "Message('note_on', channel=0, note=51, velocity=0, time=12)\n",
      "Message('control_change', channel=0, control=64, value=62, time=7)\n",
      "Message('control_change', channel=0, control=64, value=60, time=19)\n",
      "Message('note_on', channel=0, note=54, velocity=72, time=88)\n",
      "Message('note_on', channel=0, note=54, velocity=0, time=30)\n",
      "Message('control_change', channel=0, control=64, value=57, time=86)\n",
      "Message('control_change', channel=0, control=64, value=52, time=38)\n",
      "Message('note_on', channel=0, note=57, velocity=70, time=13)\n",
      "Message('note_on', channel=0, note=78, velocity=79, time=5)\n",
      "Message('control_change', channel=0, control=64, value=48, time=1)\n",
      "Message('note_on', channel=0, note=69, velocity=0, time=14)\n",
      "Message('control_change', channel=0, control=64, value=40, time=4)\n",
      "Message('note_on', channel=0, note=57, velocity=0, time=9)\n",
      "Message('control_change', channel=0, control=64, value=30, time=11)\n",
      "Message('note_on', channel=0, note=78, velocity=0, time=15)\n",
      "Message('control_change', channel=0, control=64, value=19, time=4)\n",
      "Message('control_change', channel=0, control=64, value=11, time=21)\n",
      "Message('control_change', channel=0, control=64, value=0, time=15)\n",
      "Message('note_on', channel=0, note=75, velocity=80, time=42)\n",
      "Message('note_on', channel=0, note=60, velocity=69, time=9)\n",
      "Message('note_on', channel=0, note=75, velocity=0, time=18)\n",
      "Message('note_on', channel=0, note=60, velocity=0, time=15)\n",
      "Message('note_on', channel=0, note=59, velocity=71, time=101)\n",
      "Message('note_on', channel=0, note=68, velocity=84, time=16)\n",
      "Message('note_on', channel=0, note=59, velocity=0, time=20)\n",
      "Message('control_change', channel=0, control=64, value=52, time=7)\n",
      "Message('control_change', channel=0, control=64, value=58, time=19)\n",
      "Message('control_change', channel=0, control=67, value=73, time=74)\n",
      "Message('note_on', channel=0, note=52, velocity=78, time=10)\n",
      "Message('note_on', channel=0, note=52, velocity=0, time=46)\n",
      "Message('control_change', channel=0, control=64, value=56, time=96)\n",
      "Message('note_on', channel=0, note=68, velocity=0, time=7)\n",
      "Message('note_on', channel=0, note=56, velocity=77, time=1)\n",
      "Message('control_change', channel=0, control=64, value=46, time=12)\n",
      "Message('note_on', channel=0, note=77, velocity=80, time=5)\n",
      "Message('control_change', channel=0, control=64, value=0, time=13)\n",
      "Message('note_on', channel=0, note=56, velocity=0, time=14)\n",
      "Message('note_on', channel=0, note=77, velocity=0, time=25)\n",
      "Message('note_on', channel=0, note=59, velocity=79, time=100)\n",
      "Message('note_on', channel=0, note=75, velocity=84, time=6)\n",
      "Message('note_on', channel=0, note=59, velocity=0, time=24)\n",
      "Message('note_on', channel=0, note=75, velocity=0, time=32)\n",
      "Message('note_on', channel=0, note=60, velocity=80, time=86)\n",
      "Message('note_on', channel=0, note=76, velocity=88, time=4)\n",
      "Message('note_on', channel=0, note=60, velocity=0, time=27)\n",
      "Message('note_on', channel=0, note=76, velocity=0, time=5)\n",
      "Message('note_on', channel=0, note=64, velocity=64, time=122)\n",
      "Message('note_on', channel=0, note=64, velocity=0, time=34)\n",
      "Message('note_on', channel=0, note=78, velocity=83, time=118)\n",
      "Message('note_on', channel=0, note=60, velocity=63, time=2)\n",
      "Message('note_on', channel=0, note=60, velocity=0, time=33)\n",
      "Message('note_on', channel=0, note=78, velocity=0, time=15)\n",
      "Message('note_on', channel=0, note=57, velocity=61, time=98)\n",
      "Message('note_on', channel=0, note=57, velocity=0, time=36)\n",
      "Message('note_on', channel=0, note=71, velocity=80, time=112)\n",
      "Message('note_on', channel=0, note=59, velocity=74, time=12)\n",
      "Message('note_on', channel=0, note=71, velocity=0, time=23)\n",
      "Message('note_on', channel=0, note=59, velocity=0, time=3)\n",
      "Message('note_on', channel=0, note=75, velocity=77, time=294)\n",
      "Message('note_on', channel=0, note=47, velocity=63, time=19)\n",
      "Message('note_on', channel=0, note=48, velocity=58, time=4)\n",
      "Message('note_on', channel=0, note=75, velocity=0, time=26)\n",
      "Message('note_on', channel=0, note=47, velocity=0, time=8)\n",
      "Message('note_on', channel=0, note=48, velocity=0, time=0)\n",
      "Message('note_on', channel=0, note=76, velocity=76, time=263)\n",
      "Message('note_on', channel=0, note=52, velocity=55, time=3)\n",
      "Message('note_on', channel=0, note=52, velocity=0, time=42)\n",
      "Message('note_on', channel=0, note=47, velocity=71, time=103)\n",
      "Message('note_on', channel=0, note=47, velocity=0, time=35)\n",
      "Message('note_on', channel=0, note=43, velocity=67, time=113)\n",
      "Message('note_on', channel=0, note=43, velocity=0, time=33)\n",
      "Message('note_on', channel=0, note=47, velocity=68, time=105)\n",
      "Message('note_on', channel=0, note=47, velocity=0, time=38)\n",
      "Message('note_on', channel=0, note=40, velocity=53, time=167)\n",
      "Message('control_change', channel=0, control=64, value=54, time=14)\n",
      "Message('control_change', channel=0, control=64, value=72, time=18)\n",
      "Message('note_on', channel=0, note=76, velocity=0, time=11)\n",
      "Message('control_change', channel=0, control=64, value=82, time=8)\n",
      "Message('control_change', channel=0, control=64, value=91, time=19)\n",
      "Message('control_change', channel=0, control=64, value=99, time=19)\n",
      "Message('control_change', channel=0, control=64, value=103, time=20)\n",
      "Message('note_on', channel=0, note=40, velocity=0, time=122)\n",
      "Message('control_change', channel=0, control=67, value=77, time=46)\n",
      "Message('control_change', channel=0, control=64, value=90, time=19)\n",
      "Message('control_change', channel=0, control=64, value=60, time=20)\n",
      "Message('control_change', channel=0, control=64, value=0, time=19)\n",
      "Message('note_on', channel=0, note=79, velocity=84, time=15)\n",
      "Message('note_on', channel=0, note=79, velocity=0, time=49)\n",
      "Message('note_on', channel=0, note=76, velocity=82, time=102)\n",
      "Message('note_on', channel=0, note=76, velocity=0, time=32)\n",
      "Message('note_on', channel=0, note=71, velocity=80, time=121)\n",
      "Message('control_change', channel=0, control=64, value=52, time=2)\n",
      "Message('control_change', channel=0, control=64, value=50, time=19)\n",
      "Message('control_change', channel=0, control=64, value=44, time=18)\n",
      "Message('control_change', channel=0, control=64, value=41, time=19)\n",
      "Message('control_change', channel=0, control=64, value=44, time=57)\n",
      "Message('note_on', channel=0, note=64, velocity=65, time=31)\n",
      "Message('note_on', channel=0, note=64, velocity=0, time=54)\n",
      "Message('control_change', channel=0, control=64, value=48, time=78)\n",
      "Message('control_change', channel=0, control=64, value=51, time=19)\n",
      "Message('note_on', channel=0, note=59, velocity=62, time=5)\n",
      "Message('control_change', channel=0, control=64, value=54, time=14)\n",
      "Message('control_change', channel=0, control=64, value=58, time=20)\n",
      "Message('note_on', channel=0, note=59, velocity=0, time=3)\n",
      "Message('control_change', channel=0, control=64, value=61, time=14)\n",
      "Message('control_change', channel=0, control=64, value=63, time=19)\n",
      "Message('control_change', channel=0, control=64, value=65, time=20)\n",
      "Message('control_change', channel=0, control=64, value=67, time=19)\n",
      "Message('note_on', channel=0, note=55, velocity=63, time=30)\n",
      "Message('control_change', channel=0, control=64, value=69, time=7)\n",
      "Message('note_on', channel=0, note=72, velocity=80, time=3)\n",
      "Message('note_on', channel=0, note=71, velocity=0, time=4)\n",
      "Message('note_on', channel=0, note=55, velocity=0, time=21)\n",
      "Message('note_on', channel=0, note=72, velocity=0, time=5)\n",
      "Message('control_change', channel=0, control=64, value=71, time=23)\n",
      "Message('control_change', channel=0, control=64, value=76, time=39)\n",
      "Message('control_change', channel=0, control=64, value=81, time=19)\n",
      "Message('control_change', channel=0, control=64, value=85, time=17)\n",
      "Message('note_on', channel=0, note=52, velocity=76, time=14)\n",
      "Message('control_change', channel=0, control=64, value=77, time=3)\n",
      "Message('note_on', channel=0, note=74, velocity=80, time=5)\n",
      "Message('control_change', channel=0, control=64, value=26, time=17)\n",
      "Message('note_on', channel=0, note=74, velocity=0, time=10)\n",
      "Message('note_on', channel=0, note=52, velocity=0, time=4)\n",
      "Message('control_change', channel=0, control=64, value=0, time=4)\n",
      "Message('note_on', channel=0, note=72, velocity=74, time=16)\n",
      "Message('note_on', channel=0, note=74, velocity=80, time=47)\n",
      "Message('note_on', channel=0, note=72, velocity=0, time=24)\n",
      "Message('note_on', channel=0, note=55, velocity=76, time=16)\n",
      "Message('note_on', channel=0, note=72, velocity=77, time=15)\n",
      "Message('note_on', channel=0, note=74, velocity=0, time=18)\n",
      "Message('note_on', channel=0, note=55, velocity=0, time=2)\n",
      "Message('note_on', channel=0, note=48, velocity=70, time=100)\n",
      "Message('note_on', channel=0, note=48, velocity=0, time=38)\n",
      "Message('note_on', channel=0, note=72, velocity=0, time=94)\n",
      "Message('note_on', channel=0, note=52, velocity=71, time=22)\n",
      "Message('note_on', channel=0, note=71, velocity=77, time=10)\n",
      "Message('note_on', channel=0, note=52, velocity=0, time=20)\n",
      "Message('note_on', channel=0, note=71, velocity=0, time=10)\n",
      "Message('note_on', channel=0, note=72, velocity=77, time=17)\n",
      "Message('control_change', channel=0, control=64, value=39, time=5)\n",
      "Message('control_change', channel=0, control=64, value=26, time=18)\n",
      "Message('control_change', channel=0, control=64, value=0, time=35)\n",
      "Message('note_on', channel=0, note=47, velocity=80, time=25)\n",
      "Message('note_on', channel=0, note=74, velocity=88, time=3)\n",
      "Message('note_on', channel=0, note=72, velocity=0, time=3)\n",
      "Message('note_on', channel=0, note=47, velocity=0, time=41)\n",
      "Message('note_on', channel=0, note=59, velocity=68, time=112)\n",
      "Message('note_on', channel=0, note=59, velocity=0, time=34)\n",
      "Message('note_on', channel=0, note=74, velocity=0, time=99)\n",
      "Message('note_on', channel=0, note=55, velocity=67, time=10)\n",
      "Message('note_on', channel=0, note=71, velocity=78, time=15)\n",
      "Message('note_on', channel=0, note=55, velocity=0, time=23)\n",
      "Message('note_on', channel=0, note=71, velocity=0, time=13)\n",
      "Message('note_on', channel=0, note=50, velocity=69, time=87)\n",
      "Message('note_on', channel=0, note=74, velocity=71, time=23)\n",
      "Message('note_on', channel=0, note=50, velocity=0, time=12)\n",
      "Message('note_on', channel=0, note=72, velocity=49, time=11)\n",
      "Message('note_on', channel=0, note=74, velocity=0, time=8)\n",
      "Message('note_on', channel=0, note=72, velocity=0, time=25)\n",
      "Message('note_on', channel=0, note=47, velocity=73, time=61)\n",
      "Message('note_on', channel=0, note=79, velocity=80, time=20)\n",
      "Message('control_change', channel=0, control=64, value=49, time=15)\n",
      "Message('note_on', channel=0, note=47, velocity=0, time=0)\n",
      "Message('control_change', channel=0, control=64, value=74, time=20)\n",
      "Message('control_change', channel=0, control=64, value=69, time=20)\n",
      "Message('control_change', channel=0, control=64, value=43, time=18)\n",
      "Message('control_change', channel=0, control=64, value=0, time=19)\n",
      "Message('note_on', channel=0, note=50, velocity=75, time=48)\n",
      "Message('note_on', channel=0, note=50, velocity=0, time=31)\n",
      "Message('note_on', channel=0, note=83, velocity=77, time=130)\n",
      "Message('note_on', channel=0, note=43, velocity=51, time=6)\n",
      "Message('note_on', channel=0, note=79, velocity=0, time=20)\n",
      "Message('note_on', channel=0, note=41, velocity=50, time=3)\n",
      "Message('note_on', channel=0, note=83, velocity=0, time=25)\n",
      "Message('note_on', channel=0, note=43, velocity=0, time=3)\n",
      "Message('note_on', channel=0, note=41, velocity=0, time=14)\n",
      "Message('note_on', channel=0, note=47, velocity=71, time=80)\n",
      "Message('note_on', channel=0, note=79, velocity=83, time=3)\n",
      "Message('note_on', channel=0, note=47, velocity=0, time=31)\n",
      "Message('note_on', channel=0, note=79, velocity=0, time=13)\n",
      "Message('note_on', channel=0, note=48, velocity=77, time=97)\n",
      "Message('note_on', channel=0, note=76, velocity=76, time=15)\n",
      "Message('note_on', channel=0, note=48, velocity=0, time=18)\n",
      "Message('control_change', channel=0, control=64, value=50, time=7)\n",
      "Message('control_change', channel=0, control=64, value=55, time=19)\n",
      "Message('control_change', channel=0, control=64, value=38, time=19)\n",
      "Message('control_change', channel=0, control=67, value=81, time=1)\n",
      "Message('control_change', channel=0, control=64, value=0, time=17)\n",
      "Message('note_on', channel=0, note=52, velocity=80, time=50)\n",
      "Message('note_on', channel=0, note=52, velocity=0, time=33)\n",
      "Message('note_on', channel=0, note=53, velocity=70, time=136)\n",
      "Message('note_on', channel=0, note=69, velocity=76, time=15)\n",
      "Message('note_on', channel=0, note=76, velocity=0, time=5)\n",
      "Message('note_on', channel=0, note=69, velocity=0, time=22)\n",
      "Message('control_change', channel=0, control=67, value=86, time=22)\n",
      "Message('note_on', channel=0, note=72, velocity=80, time=94)\n",
      "Message('note_on', channel=0, note=72, velocity=0, time=39)\n",
      "Message('note_on', channel=0, note=53, velocity=0, time=11)\n",
      "Message('note_on', channel=0, note=47, velocity=73, time=96)\n",
      "Message('note_on', channel=0, note=74, velocity=77, time=16)\n",
      "Message('note_on', channel=0, note=47, velocity=0, time=23)\n",
      "Message('note_on', channel=0, note=50, velocity=67, time=136)\n",
      "Message('note_on', channel=0, note=50, velocity=0, time=27)\n",
      "Message('note_on', channel=0, note=68, velocity=74, time=136)\n",
      "Message('note_on', channel=0, note=52, velocity=67, time=4)\n",
      "Message('note_on', channel=0, note=74, velocity=0, time=37)\n",
      "Message('note_on', channel=0, note=68, velocity=0, time=3)\n",
      "Message('note_on', channel=0, note=71, velocity=79, time=94)\n",
      "Message('note_on', channel=0, note=71, velocity=0, time=46)\n",
      "Message('note_on', channel=0, note=52, velocity=0, time=55)\n",
      "Message('note_on', channel=0, note=45, velocity=69, time=63)\n",
      "Message('note_on', channel=0, note=72, velocity=73, time=2)\n",
      "Message('control_change', channel=0, control=64, value=39, time=21)\n",
      "Message('control_change', channel=0, control=64, value=54, time=20)\n",
      "Message('note_on', channel=0, note=45, velocity=0, time=23)\n",
      "Message('control_change', channel=0, control=64, value=52, time=13)\n",
      "Message('control_change', channel=0, control=64, value=49, time=18)\n",
      "Message('note_on', channel=0, note=48, velocity=62, time=42)\n",
      "Message('control_change', channel=0, control=64, value=53, time=16)\n",
      "Message('note_on', channel=0, note=48, velocity=0, time=47)\n",
      "Message('control_change', channel=0, control=64, value=50, time=28)\n",
      "Message('control_change', channel=0, control=64, value=40, time=18)\n",
      "Message('control_change', channel=0, control=64, value=0, time=21)\n",
      "Message('note_on', channel=0, note=71, velocity=72, time=18)\n",
      "Message('note_on', channel=0, note=72, velocity=0, time=6)\n",
      "Message('note_on', channel=0, note=52, velocity=67, time=1)\n",
      "Message('note_on', channel=0, note=71, velocity=0, time=28)\n",
      "Message('note_on', channel=0, note=52, velocity=0, time=8)\n",
      "Message('note_on', channel=0, note=72, velocity=73, time=125)\n",
      "Message('note_on', channel=0, note=55, velocity=63, time=7)\n",
      "Message('note_on', channel=0, note=72, velocity=0, time=24)\n",
      "Message('note_on', channel=0, note=55, velocity=0, time=11)\n",
      "Message('note_on', channel=0, note=54, velocity=56, time=111)\n",
      "Message('control_change', channel=0, control=64, value=25, time=14)\n",
      "Message('note_on', channel=0, note=69, velocity=64, time=4)\n",
      "Message('note_on', channel=0, note=54, velocity=0, time=20)\n",
      "Message('control_change', channel=0, control=64, value=40, time=14)\n",
      "Message('control_change', channel=0, control=64, value=54, time=21)\n",
      "Message('control_change', channel=0, control=64, value=62, time=18)\n",
      "Message('control_change', channel=0, control=64, value=66, time=19)\n",
      "Message('note_on', channel=0, note=57, velocity=62, time=45)\n",
      "Message('note_on', channel=0, note=57, velocity=0, time=41)\n",
      "Message('control_change', channel=0, control=64, value=63, time=65)\n",
      "Message('control_change', channel=0, control=64, value=58, time=18)\n",
      "Message('control_change', channel=0, control=64, value=47, time=19)\n",
      "Message('control_change', channel=0, control=64, value=0, time=19)\n",
      "Message('note_on', channel=0, note=74, velocity=72, time=2)\n",
      "Message('note_on', channel=0, note=54, velocity=61, time=1)\n",
      "Message('note_on', channel=0, note=69, velocity=0, time=17)\n",
      "Message('note_on', channel=0, note=74, velocity=0, time=15)\n",
      "Message('note_on', channel=0, note=54, velocity=0, time=5)\n",
      "Message('note_on', channel=0, note=50, velocity=60, time=98)\n",
      "Message('note_on', channel=0, note=69, velocity=76, time=10)\n",
      "Message('control_change', channel=0, control=67, value=82, time=22)\n",
      "Message('note_on', channel=0, note=69, velocity=0, time=5)\n",
      "Message('note_on', channel=0, note=50, velocity=0, time=2)\n",
      "Message('control_change', channel=0, control=64, value=36, time=105)\n",
      "Message('note_on', channel=0, note=55, velocity=67, time=12)\n",
      "Message('control_change', channel=0, control=64, value=61, time=7)\n",
      "Message('note_on', channel=0, note=71, velocity=73, time=14)\n",
      "Message('control_change', channel=0, control=64, value=66, time=6)\n",
      "Message('note_on', channel=0, note=55, velocity=0, time=11)\n",
      "Message('control_change', channel=0, control=64, value=68, time=5)\n",
      "Message('control_change', channel=0, control=64, value=71, time=21)\n",
      "Message('control_change', channel=0, control=64, value=73, time=18)\n",
      "Message('note_on', channel=0, note=71, velocity=0, time=18)\n",
      "Message('control_change', channel=0, control=64, value=75, time=2)\n",
      "Message('note_on', channel=0, note=50, velocity=59, time=61)\n",
      "Message('note_on', channel=0, note=71, velocity=41, time=14)\n",
      "Message('note_on', channel=0, note=50, velocity=0, time=28)\n",
      "Message('control_change', channel=0, control=64, value=72, time=63)\n",
      "Message('control_change', channel=0, control=67, value=86, time=2)\n",
      "Message('control_change', channel=0, control=64, value=68, time=15)\n",
      "Message('note_on', channel=0, note=47, velocity=67, time=15)\n",
      "Message('control_change', channel=0, control=64, value=61, time=4)\n",
      "Message('control_change', channel=0, control=64, value=58, time=20)\n",
      "Message('note_on', channel=0, note=71, velocity=0, time=6)\n",
      "Message('note_on', channel=0, note=67, velocity=70, time=10)\n",
      "Message('control_change', channel=0, control=64, value=56, time=2)\n",
      "Message('note_on', channel=0, note=47, velocity=0, time=2)\n",
      "Message('control_change', channel=0, control=64, value=47, time=18)\n",
      "Message('note_on', channel=0, note=67, velocity=0, time=9)\n",
      "Message('control_change', channel=0, control=64, value=0, time=11)\n",
      "Message('note_on', channel=0, note=71, velocity=81, time=89)\n",
      "Message('note_on', channel=0, note=50, velocity=68, time=6)\n",
      "Message('note_on', channel=0, note=71, velocity=0, time=29)\n",
      "Message('note_on', channel=0, note=50, velocity=0, time=5)\n",
      "Message('note_on', channel=0, note=43, velocity=80, time=105)\n",
      "Message('note_on', channel=0, note=76, velocity=82, time=10)\n",
      "Message('note_on', channel=0, note=43, velocity=0, time=37)\n",
      "Message('control_change', channel=0, control=64, value=61, time=2)\n",
      "Message('control_change', channel=0, control=64, value=71, time=18)\n",
      "Message('control_change', channel=0, control=67, value=82, time=74)\n",
      "Message('note_on', channel=0, note=47, velocity=57, time=18)\n",
      "Message('note_on', channel=0, note=48, velocity=52, time=16)\n",
      "Message('note_on', channel=0, note=47, velocity=0, time=19)\n",
      "Message('note_on', channel=0, note=48, velocity=0, time=16)\n",
      "Message('control_change', channel=0, control=64, value=69, time=28)\n",
      "Message('control_change', channel=0, control=64, value=62, time=18)\n",
      "Message('control_change', channel=0, control=64, value=46, time=21)\n",
      "Message('control_change', channel=0, control=67, value=77, time=1)\n",
      "Message('control_change', channel=0, control=64, value=0, time=17)\n",
      "Message('control_change', channel=0, control=67, value=73, time=1)\n",
      "Message('note_on', channel=0, note=52, velocity=72, time=4)\n",
      "Message('note_on', channel=0, note=79, velocity=79, time=10)\n",
      "Message('note_on', channel=0, note=76, velocity=0, time=9)\n",
      "Message('note_on', channel=0, note=52, velocity=0, time=14)\n",
      "Message('note_on', channel=0, note=79, velocity=0, time=23)\n",
      "Message('note_on', channel=0, note=55, velocity=73, time=94)\n",
      "Message('note_on', channel=0, note=71, velocity=83, time=21)\n",
      "Message('note_on', channel=0, note=55, velocity=0, time=23)\n",
      "Message('note_on', channel=0, note=71, velocity=0, time=1)\n",
      "Message('control_change', channel=0, control=67, value=69, time=59)\n",
      "Message('control_change', channel=0, control=64, value=53, time=73)\n",
      "Message('note_on', channel=0, note=57, velocity=73, time=0)\n",
      "Message('note_on', channel=0, note=72, velocity=82, time=18)\n",
      "Message('control_change', channel=0, control=64, value=73, time=3)\n",
      "Message('control_change', channel=0, control=67, value=62, time=1)\n",
      "Message('control_change', channel=0, control=64, value=77, time=18)\n",
      "Message('note_on', channel=0, note=57, velocity=0, time=9)\n",
      "Message('control_change', channel=0, control=67, value=56, time=68)\n",
      "Message('control_change', channel=0, control=67, value=52, time=19)\n",
      "Message('control_change', channel=0, control=67, value=44, time=19)\n",
      "Message('note_on', channel=0, note=52, velocity=64, time=3)\n",
      "Message('control_change', channel=0, control=67, value=38, time=14)\n",
      "Message('note_on', channel=0, note=52, velocity=0, time=20)\n",
      "Message('control_change', channel=0, control=67, value=34, time=19)\n",
      "Message('control_change', channel=0, control=67, value=26, time=37)\n",
      "Message('control_change', channel=0, control=67, value=19, time=18)\n",
      "Message('control_change', channel=0, control=64, value=74, time=38)\n",
      "Message('note_on', channel=0, note=72, velocity=0, time=2)\n",
      "Message('note_on', channel=0, note=69, velocity=83, time=7)\n",
      "Message('note_on', channel=0, note=48, velocity=52, time=5)\n",
      "Message('note_on', channel=0, note=47, velocity=50, time=3)\n",
      "Message('control_change', channel=0, control=64, value=70, time=2)\n",
      "Message('control_change', channel=0, control=64, value=65, time=20)\n",
      "Message('note_on', channel=0, note=69, velocity=0, time=9)\n",
      "Message('note_on', channel=0, note=48, velocity=0, time=4)\n",
      "Message('note_on', channel=0, note=47, velocity=0, time=4)\n",
      "Message('control_change', channel=0, control=64, value=54, time=1)\n",
      "Message('control_change', channel=0, control=64, value=34, time=21)\n",
      "Message('control_change', channel=0, control=67, value=15, time=1)\n",
      "Message('control_change', channel=0, control=64, value=20, time=16)\n",
      "Message('control_change', channel=0, control=64, value=0, time=19)\n",
      "Message('note_on', channel=0, note=52, velocity=73, time=31)\n",
      "Message('note_on', channel=0, note=72, velocity=86, time=2)\n",
      "Message('note_on', channel=0, note=52, velocity=0, time=31)\n",
      "Message('note_on', channel=0, note=72, velocity=0, time=15)\n",
      "Message('note_on', channel=0, note=45, velocity=80, time=96)\n",
      "Message('note_on', channel=0, note=78, velocity=87, time=9)\n",
      "Message('control_change', channel=0, control=64, value=48, time=24)\n",
      "Message('control_change', channel=0, control=64, value=60, time=17)\n",
      "Message('note_on', channel=0, note=45, velocity=0, time=0)\n",
      "Message('control_change', channel=0, control=67, value=19, time=4)\n",
      "Message('control_change', channel=0, control=64, value=65, time=17)\n",
      "Message('control_change', channel=0, control=64, value=68, time=18)\n",
      "Message('control_change', channel=0, control=67, value=23, time=20)\n",
      "Message('control_change', channel=0, control=64, value=70, time=18)\n",
      "Message('note_on', channel=0, note=48, velocity=79, time=22)\n",
      "Message('control_change', channel=0, control=64, value=72, time=16)\n",
      "Message('note_on', channel=0, note=48, velocity=0, time=20)\n",
      "Message('control_change', channel=0, control=67, value=28, time=70)\n",
      "Message('control_change', channel=0, control=64, value=67, time=38)\n",
      "Message('note_on', channel=0, note=54, velocity=77, time=16)\n",
      "Message('control_change', channel=0, control=64, value=55, time=2)\n",
      "Message('note_on', channel=0, note=81, velocity=82, time=10)\n",
      "Message('control_change', channel=0, control=64, value=0, time=10)\n",
      "Message('note_on', channel=0, note=78, velocity=0, time=0)\n",
      "Message('note_on', channel=0, note=54, velocity=0, time=15)\n",
      "Message('note_on', channel=0, note=81, velocity=0, time=28)\n",
      "Message('note_on', channel=0, note=57, velocity=72, time=90)\n",
      "Message('note_on', channel=0, note=72, velocity=88, time=5)\n",
      "Message('note_on', channel=0, note=57, velocity=0, time=29)\n",
      "Message('note_on', channel=0, note=72, velocity=0, time=3)\n",
      "Message('note_on', channel=0, note=59, velocity=78, time=130)\n",
      "Message('note_on', channel=0, note=74, velocity=92, time=5)\n",
      "Message('control_change', channel=0, control=64, value=70, time=15)\n",
      "Message('control_change', channel=0, control=64, value=83, time=19)\n",
      "Message('control_change', channel=0, control=67, value=33, time=1)\n",
      "Message('note_on', channel=0, note=59, velocity=0, time=10)\n",
      "Message('control_change', channel=0, control=64, value=89, time=6)\n",
      "Message('note_on', channel=0, note=55, velocity=74, time=77)\n",
      "Message('note_on', channel=0, note=55, velocity=0, time=36)\n",
      "Message('control_change', channel=0, control=67, value=29, time=77)\n",
      "Message('note_on', channel=0, note=50, velocity=79, time=36)\n",
      "Message('note_on', channel=0, note=74, velocity=0, time=9)\n",
      "Message('control_change', channel=0, control=64, value=84, time=12)\n",
      "Message('note_on', channel=0, note=71, velocity=84, time=7)\n",
      "Message('control_change', channel=0, control=64, value=63, time=11)\n",
      "Message('note_on', channel=0, note=50, velocity=0, time=6)\n",
      "Message('control_change', channel=0, control=64, value=0, time=12)\n",
      "Message('note_on', channel=0, note=71, velocity=0, time=11)\n",
      "Message('note_on', channel=0, note=55, velocity=79, time=96)\n",
      "Message('note_on', channel=0, note=74, velocity=88, time=3)\n",
      "Message('note_on', channel=0, note=55, velocity=0, time=26)\n",
      "Message('note_on', channel=0, note=74, velocity=0, time=16)\n",
      "Message('note_on', channel=0, note=47, velocity=86, time=114)\n",
      "Message('note_on', channel=0, note=79, velocity=88, time=18)\n",
      "Message('control_change', channel=0, control=64, value=36, time=17)\n",
      "Message('control_change', channel=0, control=64, value=67, time=19)\n",
      "Message('control_change', channel=0, control=67, value=24, time=3)\n",
      "Message('note_on', channel=0, note=47, velocity=0, time=0)\n",
      "Message('control_change', channel=0, control=64, value=71, time=16)\n",
      "Message('control_change', channel=0, control=64, value=74, time=36)\n",
      "Message('control_change', channel=0, control=67, value=28, time=1)\n",
      "Message('note_on', channel=0, note=50, velocity=79, time=46)\n",
      "Message('control_change', channel=0, control=67, value=24, time=11)\n",
      "Message('note_on', channel=0, note=50, velocity=0, time=23)\n",
      "Message('control_change', channel=0, control=64, value=77, time=14)\n",
      "Message('control_change', channel=0, control=64, value=79, time=37)\n",
      "Message('note_on', channel=0, note=55, velocity=79, time=56)\n",
      "Message('note_on', channel=0, note=83, velocity=86, time=10)\n",
      "Message('control_change', channel=0, control=64, value=69, time=11)\n",
      "Message('note_on', channel=0, note=79, velocity=0, time=5)\n",
      "Message('note_on', channel=0, note=55, velocity=0, time=6)\n",
      "Message('control_change', channel=0, control=64, value=31, time=6)\n",
      "Message('control_change', channel=0, control=64, value=0, time=19)\n",
      "Message('note_on', channel=0, note=83, velocity=0, time=4)\n",
      "Message('control_change', channel=0, control=67, value=31, time=52)\n",
      "Message('note_on', channel=0, note=79, velocity=87, time=38)\n",
      "Message('note_on', channel=0, note=59, velocity=79, time=1)\n",
      "Message('note_on', channel=0, note=59, velocity=0, time=29)\n",
      "Message('note_on', channel=0, note=79, velocity=0, time=16)\n",
      "Message('control_change', channel=0, control=67, value=37, time=32)\n",
      "Message('control_change', channel=0, control=67, value=43, time=18)\n",
      "Message('note_on', channel=0, note=62, velocity=82, time=62)\n",
      "Message('note_on', channel=0, note=81, velocity=85, time=9)\n",
      "Message('control_change', channel=0, control=64, value=53, time=5)\n",
      "Message('control_change', channel=0, control=67, value=39, time=1)\n",
      "Message('control_change', channel=0, control=64, value=76, time=18)\n",
      "Message('control_change', channel=0, control=64, value=82, time=19)\n",
      "Message('control_change', channel=0, control=67, value=45, time=1)\n",
      "Message('note_on', channel=0, note=62, velocity=0, time=89)\n",
      "Message('control_change', channel=0, control=64, value=80, time=4)\n",
      "Message('control_change', channel=0, control=67, value=40, time=0)\n",
      "Message('note_on', channel=0, note=79, velocity=80, time=5)\n",
      "Message('note_on', channel=0, note=81, velocity=0, time=2)\n",
      "Message('note_on', channel=0, note=64, velocity=76, time=5)\n",
      "Message('control_change', channel=0, control=64, value=69, time=27)\n",
      "Message('control_change', channel=0, control=64, value=33, time=16)\n",
      "Message('note_on', channel=0, note=64, velocity=0, time=2)\n",
      "Message('note_on', channel=0, note=79, velocity=0, time=5)\n",
      "Message('control_change', channel=0, control=64, value=0, time=13)\n",
      "Message('control_change', channel=0, control=67, value=45, time=2)\n",
      "Message('control_change', channel=0, control=67, value=41, time=69)\n",
      "Message('note_on', channel=0, note=62, velocity=78, time=20)\n",
      "Message('note_on', channel=0, note=78, velocity=82, time=9)\n",
      "Message('note_on', channel=0, note=62, velocity=0, time=21)\n",
      "Message('note_on', channel=0, note=78, velocity=0, time=20)\n",
      "Message('note_on', channel=0, note=60, velocity=79, time=87)\n",
      "Message('note_on', channel=0, note=76, velocity=88, time=14)\n",
      "Message('note_on', channel=0, note=60, velocity=0, time=23)\n",
      "Message('note_on', channel=0, note=76, velocity=0, time=9)\n",
      "Message('note_on', channel=0, note=59, velocity=81, time=109)\n",
      "Message('note_on', channel=0, note=74, velocity=85, time=14)\n",
      "Message('control_change', channel=0, control=64, value=42, time=15)\n",
      "Message('note_on', channel=0, note=59, velocity=0, time=5)\n",
      "Message('control_change', channel=0, control=64, value=67, time=15)\n",
      "Message('control_change', channel=0, control=64, value=69, time=19)\n",
      "Message('control_change', channel=0, control=64, value=68, time=36)\n",
      "Message('note_on', channel=0, note=62, velocity=81, time=50)\n",
      "Message('note_on', channel=0, note=62, velocity=0, time=33)\n",
      "Message('control_change', channel=0, control=64, value=66, time=11)\n",
      "Message('control_change', channel=0, control=64, value=62, time=19)\n",
      "Message('control_change', channel=0, control=64, value=55, time=19)\n",
      "Message('control_change', channel=0, control=64, value=43, time=20)\n",
      "Message('note_on', channel=0, note=74, velocity=0, time=16)\n",
      "Message('control_change', channel=0, control=64, value=23, time=1)\n",
      "Message('control_change', channel=0, control=64, value=0, time=21)\n",
      "Message('note_on', channel=0, note=59, velocity=77, time=6)\n",
      "Message('note_on', channel=0, note=79, velocity=78, time=6)\n",
      "Message('note_on', channel=0, note=59, velocity=0, time=27)\n",
      "Message('note_on', channel=0, note=79, velocity=0, time=4)\n",
      "Message('note_on', channel=0, note=55, velocity=79, time=103)\n",
      "Message('note_on', channel=0, note=74, velocity=86, time=8)\n",
      "Message('note_on', channel=0, note=55, velocity=0, time=25)\n",
      "Message('note_on', channel=0, note=74, velocity=0, time=19)\n",
      "Message('control_change', channel=0, control=64, value=49, time=102)\n",
      "Message('note_on', channel=0, note=48, velocity=80, time=7)\n",
      "Message('note_on', channel=0, note=76, velocity=87, time=3)\n",
      "Message('control_change', channel=0, control=64, value=76, time=10)\n",
      "Message('control_change', channel=0, control=64, value=78, time=34)\n",
      "Message('note_on', channel=0, note=48, velocity=0, time=10)\n",
      "Message('control_change', channel=0, control=64, value=75, time=6)\n",
      "Message('control_change', channel=0, control=67, value=45, time=1)\n",
      "Message('control_change', channel=0, control=64, value=70, time=20)\n",
      "Message('control_change', channel=0, control=64, value=65, time=16)\n",
      "Message('control_change', channel=0, control=64, value=63, time=20)\n",
      "Message('control_change', channel=0, control=67, value=41, time=18)\n",
      "Message('note_on', channel=0, note=52, velocity=82, time=17)\n",
      "Message('control_change', channel=0, control=64, value=57, time=3)\n",
      "Message('control_change', channel=0, control=64, value=40, time=21)\n",
      "Message('note_on', channel=0, note=52, velocity=0, time=11)\n",
      "Message('control_change', channel=0, control=64, value=0, time=6)\n",
      "Message('control_change', channel=0, control=67, value=45, time=0)\n",
      "Message('note_on', channel=0, note=54, velocity=81, time=110)\n",
      "Message('note_on', channel=0, note=69, velocity=80, time=5)\n",
      "Message('note_on', channel=0, note=76, velocity=0, time=2)\n",
      "Message('note_on', channel=0, note=69, velocity=0, time=27)\n",
      "Message('note_on', channel=0, note=54, velocity=0, time=2)\n",
      "Message('note_on', channel=0, note=57, velocity=74, time=117)\n",
      "Message('note_on', channel=0, note=72, velocity=83, time=1)\n",
      "Message('note_on', channel=0, note=72, velocity=0, time=29)\n",
      "Message('note_on', channel=0, note=57, velocity=0, time=5)\n",
      "Message('note_on', channel=0, note=74, velocity=87, time=123)\n",
      "Message('note_on', channel=0, note=45, velocity=57, time=9)\n",
      "Message('note_on', channel=0, note=47, velocity=57, time=4)\n",
      "Message('control_change', channel=0, control=64, value=28, time=20)\n",
      "Message('note_on', channel=0, note=45, velocity=0, time=13)\n",
      "Message('note_on', channel=0, note=47, velocity=0, time=3)\n",
      "Message('control_change', channel=0, control=64, value=51, time=2)\n",
      "Message('control_change', channel=0, control=64, value=46, time=18)\n",
      "Message('control_change', channel=0, control=64, value=34, time=18)\n",
      "Message('control_change', channel=0, control=64, value=11, time=20)\n",
      "Message('control_change', channel=0, control=64, value=0, time=18)\n",
      "Message('note_on', channel=0, note=50, velocity=82, time=14)\n",
      "Message('note_on', channel=0, note=50, velocity=0, time=31)\n",
      "Message('note_on', channel=0, note=55, velocity=84, time=128)\n",
      "Message('note_on', channel=0, note=64, velocity=80, time=9)\n",
      "Message('note_on', channel=0, note=74, velocity=0, time=21)\n",
      "Message('note_on', channel=0, note=64, velocity=0, time=7)\n",
      "Message('note_on', channel=0, note=67, velocity=84, time=129)\n",
      "Message('note_on', channel=0, note=67, velocity=0, time=29)\n",
      "Message('note_on', channel=0, note=55, velocity=0, time=41)\n",
      "Message('control_change', channel=0, control=67, value=49, time=40)\n",
      "Message('control_change', channel=0, control=64, value=54, time=39)\n",
      "Message('note_on', channel=0, note=45, velocity=75, time=6)\n",
      "Message('note_on', channel=0, note=72, velocity=82, time=8)\n",
      "Message('control_change', channel=0, control=64, value=52, time=3)\n",
      "Message('control_change', channel=0, control=64, value=23, time=19)\n",
      "Message('note_on', channel=0, note=45, velocity=0, time=13)\n",
      "Message('control_change', channel=0, control=64, value=0, time=5)\n",
      "Message('note_on', channel=0, note=48, velocity=74, time=98)\n",
      "Message('note_on', channel=0, note=48, velocity=0, time=36)\n",
      "Message('note_on', channel=0, note=50, velocity=76, time=127)\n",
      "Message('note_on', channel=0, note=66, velocity=82, time=3)\n",
      "Message('note_on', channel=0, note=72, velocity=0, time=11)\n",
      "Message('note_on', channel=0, note=50, velocity=0, time=22)\n",
      "Message('note_on', channel=0, note=66, velocity=0, time=14)\n",
      "Message('note_on', channel=0, note=69, velocity=84, time=99)\n",
      "Message('note_on', channel=0, note=54, velocity=79, time=3)\n",
      "Message('note_on', channel=0, note=69, velocity=0, time=28)\n",
      "Message('note_on', channel=0, note=54, velocity=0, time=1)\n",
      "Message('note_on', channel=0, note=55, velocity=77, time=122)\n",
      "Message('control_change', channel=0, control=67, value=43, time=4)\n",
      "Message('note_on', channel=0, note=71, velocity=84, time=1)\n",
      "Message('control_change', channel=0, control=64, value=55, time=16)\n",
      "Message('control_change', channel=0, control=64, value=77, time=21)\n",
      "Message('note_on', channel=0, note=55, velocity=0, time=1)\n",
      "Message('control_change', channel=0, control=64, value=88, time=17)\n",
      "Message('control_change', channel=0, control=64, value=92, time=20)\n",
      "Message('control_change', channel=0, control=67, value=39, time=71)\n",
      "Message('note_on', channel=0, note=50, velocity=64, time=13)\n",
      "Message('control_change', channel=0, control=64, value=97, time=5)\n",
      "Message('note_on', channel=0, note=50, velocity=0, time=28)\n",
      "Message('control_change', channel=0, control=64, value=102, time=30)\n",
      "Message('control_change', channel=0, control=64, value=106, time=41)\n",
      "Message('note_on', channel=0, note=71, velocity=0, time=18)\n",
      "Message('note_on', channel=0, note=47, velocity=73, time=23)\n",
      "Message('note_on', channel=0, note=67, velocity=83, time=3)\n",
      "Message('control_change', channel=0, control=64, value=94, time=29)\n",
      "Message('note_on', channel=0, note=67, velocity=0, time=3)\n",
      "Message('note_on', channel=0, note=47, velocity=0, time=3)\n",
      "Message('control_change', channel=0, control=64, value=66, time=11)\n",
      "Message('control_change', channel=0, control=67, value=43, time=4)\n",
      "Message('control_change', channel=0, control=64, value=0, time=14)\n",
      "Message('note_on', channel=0, note=71, velocity=81, time=81)\n",
      "Message('note_on', channel=0, note=50, velocity=72, time=1)\n",
      "Message('note_on', channel=0, note=71, velocity=0, time=31)\n",
      "Message('note_on', channel=0, note=50, velocity=0, time=2)\n",
      "Message('note_on', channel=0, note=55, velocity=74, time=110)\n",
      "Message('note_on', channel=0, note=74, velocity=67, time=2)\n",
      "Message('note_on', channel=0, note=72, velocity=72, time=11)\n",
      "Message('note_on', channel=0, note=74, velocity=0, time=22)\n",
      "Message('note_on', channel=0, note=72, velocity=0, time=2)\n",
      "Message('note_on', channel=0, note=55, velocity=0, time=2)\n",
      "Message('control_change', channel=0, control=67, value=47, time=1)\n",
      "Message('control_change', channel=0, control=67, value=43, time=95)\n",
      "Message('note_on', channel=0, note=50, velocity=73, time=0)\n",
      "Message('note_on', channel=0, note=71, velocity=82, time=12)\n",
      "Message('note_on', channel=0, note=50, velocity=0, time=17)\n",
      "Message('note_on', channel=0, note=71, velocity=0, time=5)\n",
      "Message('control_change', channel=0, control=67, value=47, time=23)\n",
      "Message('control_change', channel=0, control=67, value=43, time=56)\n",
      "Message('note_on', channel=0, note=47, velocity=81, time=26)\n",
      "Message('note_on', channel=0, note=79, velocity=88, time=18)\n",
      "Message('note_on', channel=0, note=47, velocity=0, time=14)\n",
      "Message('note_on', channel=0, note=79, velocity=0, time=16)\n",
      "Message('control_change', channel=0, control=64, value=66, time=21)\n",
      "Message('control_change', channel=0, control=67, value=47, time=1)\n",
      "Message('control_change', channel=0, control=64, value=88, time=19)\n",
      "Message('control_change', channel=0, control=64, value=111, time=16)\n",
      "Message('control_change', channel=0, control=64, value=127, time=21)\n",
      "Message('note_on', channel=0, note=43, velocity=81, time=30)\n",
      "Message('note_on', channel=0, note=43, velocity=0, time=47)\n",
      "Message('note_on', channel=0, note=50, velocity=82, time=118)\n",
      "Message('note_on', channel=0, note=72, velocity=92, time=0)\n",
      "Message('note_on', channel=0, note=72, velocity=0, time=35)\n",
      "Message('note_on', channel=0, note=71, velocity=80, time=17)\n",
      "Message('control_change', channel=0, control=64, value=110, time=13)\n",
      "Message('control_change', channel=0, control=64, value=61, time=20)\n",
      "Message('note_on', channel=0, note=72, velocity=34, time=11)\n",
      "Message('control_change', channel=0, control=64, value=0, time=7)\n",
      "Message('control_change', channel=0, control=67, value=52, time=56)\n",
      "Message('note_on', channel=0, note=72, velocity=0, time=34)\n",
      "Message('control_change', channel=0, control=67, value=48, time=43)\n",
      "Message('note_on', channel=0, note=50, velocity=0, time=91)\n",
      "Message('note_on', channel=0, note=71, velocity=0, time=5)\n",
      "Message('note_on', channel=0, note=69, velocity=83, time=1)\n",
      "Message('note_on', channel=0, note=38, velocity=79, time=16)\n",
      "Message('note_on', channel=0, note=69, velocity=0, time=28)\n",
      "Message('note_on', channel=0, note=38, velocity=0, time=4)\n",
      "Message('control_change', channel=0, control=67, value=52, time=23)\n",
      "Message('control_change', channel=0, control=67, value=46, time=78)\n",
      "Message('note_on', channel=0, note=67, velocity=88, time=29)\n",
      "Message('control_change', channel=0, control=67, value=51, time=25)\n",
      "Message('note_on', channel=0, note=67, velocity=0, time=15)\n",
      "Message('control_change', channel=0, control=67, value=47, time=42)\n",
      "Message('note_on', channel=0, note=67, velocity=86, time=107)\n",
      "Message('note_on', channel=0, note=43, velocity=72, time=6)\n",
      "Message('control_change', channel=0, control=67, value=42, time=167)\n",
      "Message('control_change', channel=0, control=67, value=37, time=114)\n",
      "Message('control_change', channel=0, control=67, value=33, time=20)\n",
      "Message('control_change', channel=0, control=67, value=29, time=73)\n",
      "Message('note_on', channel=0, note=47, velocity=72, time=15)\n",
      "Message('control_change', channel=0, control=67, value=24, time=3)\n",
      "Message('control_change', channel=0, control=67, value=19, time=20)\n",
      "Message('note_on', channel=0, note=47, velocity=0, time=17)\n",
      "Message('control_change', channel=0, control=67, value=15, time=22)\n",
      "Message('control_change', channel=0, control=67, value=0, time=112)\n",
      "Message('note_on', channel=0, note=50, velocity=70, time=16)\n",
      "Message('note_on', channel=0, note=50, velocity=0, time=37)\n",
      "Message('control_change', channel=0, control=64, value=42, time=194)\n",
      "Message('note_on', channel=0, note=55, velocity=71, time=10)\n",
      "Message('control_change', channel=0, control=64, value=66, time=7)\n",
      "Message('note_on', channel=0, note=43, velocity=0, time=3)\n",
      "Message('control_change', channel=0, control=64, value=77, time=16)\n",
      "Message('note_on', channel=0, note=55, velocity=0, time=4)\n",
      "Message('control_change', channel=0, control=64, value=90, time=15)\n",
      "Message('note_on', channel=0, note=67, velocity=0, time=3)\n",
      "Message('control_change', channel=0, control=64, value=110, time=15)\n",
      "Message('control_change', channel=0, control=64, value=127, time=19)\n",
      "Message('control_change', channel=0, control=64, value=92, time=338)\n",
      "Message('note_on', channel=0, note=81, velocity=88, time=10)\n",
      "Message('control_change', channel=0, control=64, value=34, time=7)\n",
      "Message('control_change', channel=0, control=64, value=0, time=19)\n",
      "Message('note_on', channel=0, note=81, velocity=0, time=22)\n",
      "Message('note_on', channel=0, note=78, velocity=89, time=128)\n",
      "Message('note_on', channel=0, note=78, velocity=0, time=39)\n",
      "Message('note_on', channel=0, note=74, velocity=83, time=146)\n",
      "Message('control_change', channel=0, control=64, value=31, time=24)\n",
      "Message('control_change', channel=0, control=64, value=71, time=19)\n",
      "Message('control_change', channel=0, control=64, value=76, time=19)\n",
      "Message('control_change', channel=0, control=64, value=73, time=56)\n",
      "Message('note_on', channel=0, note=62, velocity=72, time=23)\n",
      "Message('note_on', channel=0, note=62, velocity=0, time=42)\n",
      "Message('control_change', channel=0, control=64, value=71, time=49)\n",
      "Message('note_on', channel=0, note=57, velocity=63, time=49)\n",
      "Message('control_change', channel=0, control=64, value=69, time=8)\n",
      "Message('note_on', channel=0, note=57, velocity=0, time=24)\n",
      "Message('note_on', channel=0, note=74, velocity=0, time=129)\n",
      "Message('note_on', channel=0, note=54, velocity=63, time=7)\n",
      "Message('note_on', channel=0, note=76, velocity=68, time=6)\n",
      "Message('note_on', channel=0, note=54, velocity=0, time=30)\n",
      "Message('control_change', channel=0, control=64, value=74, time=6)\n",
      "Message('note_on', channel=0, note=76, velocity=0, time=15)\n",
      "Message('control_change', channel=0, control=64, value=77, time=6)\n",
      "Message('note_on', channel=0, note=78, velocity=79, time=8)\n",
      "Message('control_change', channel=0, control=64, value=68, time=30)\n",
      "Message('control_change', channel=0, control=64, value=0, time=19)\n",
      "Message('note_on', channel=0, note=50, velocity=75, time=13)\n",
      "Message('note_on', channel=0, note=78, velocity=0, time=3)\n",
      "Message('note_on', channel=0, note=79, velocity=80, time=10)\n",
      "Message('note_on', channel=0, note=50, velocity=0, time=26)\n",
      "Message('note_on', channel=0, note=78, velocity=80, time=40)\n",
      "Message('note_on', channel=0, note=79, velocity=0, time=1)\n",
      "Message('control_change', channel=0, control=67, value=8, time=20)\n",
      "Message('note_on', channel=0, note=57, velocity=78, time=29)\n",
      "Message('note_on', channel=0, note=78, velocity=0, time=18)\n",
      "Message('note_on', channel=0, note=79, velocity=76, time=12)\n",
      "Message('note_on', channel=0, note=57, velocity=0, time=4)\n",
      "Message('note_on', channel=0, note=78, velocity=77, time=44)\n",
      "Message('note_on', channel=0, note=79, velocity=0, time=11)\n",
      "Message('note_on', channel=0, note=54, velocity=81, time=38)\n",
      "Message('note_on', channel=0, note=79, velocity=78, time=20)\n",
      "Message('note_on', channel=0, note=78, velocity=0, time=1)\n",
      "Message('note_on', channel=0, note=54, velocity=0, time=8)\n",
      "Message('control_change', channel=0, control=64, value=22, time=1)\n",
      "Message('control_change', channel=0, control=64, value=44, time=23)\n",
      "Message('control_change', channel=0, control=67, value=12, time=1)\n",
      "Message('control_change', channel=0, control=64, value=55, time=16)\n",
      "Message('note_on', channel=0, note=79, velocity=0, time=18)\n",
      "Message('note_on', channel=0, note=78, velocity=71, time=4)\n",
      "Message('control_change', channel=0, control=64, value=49, time=14)\n",
      "Message('control_change', channel=0, control=67, value=16, time=2)\n",
      "Message('control_change', channel=0, control=64, value=54, time=37)\n",
      "Message('note_on', channel=0, note=50, velocity=67, time=17)\n",
      "Message('control_change', channel=0, control=64, value=60, time=1)\n",
      "Message('note_on', channel=0, note=76, velocity=67, time=8)\n",
      "Message('control_change', channel=0, control=64, value=66, time=12)\n",
      "Message('control_change', channel=0, control=64, value=65, time=20)\n",
      "Message('note_on', channel=0, note=50, velocity=0, time=9)\n",
      "Message('control_change', channel=0, control=64, value=47, time=10)\n",
      "Message('control_change', channel=0, control=64, value=0, time=17)\n",
      "Message('note_on', channel=0, note=76, velocity=0, time=4)\n",
      "Message('note_on', channel=0, note=79, velocity=79, time=31)\n",
      "Message('note_on', channel=0, note=78, velocity=0, time=9)\n",
      "Message('note_on', channel=0, note=47, velocity=80, time=9)\n",
      "Message('note_on', channel=0, note=47, velocity=0, time=48)\n",
      "Message('control_change', channel=0, control=67, value=21, time=12)\n",
      "Message('note_on', channel=0, note=59, velocity=72, time=80)\n",
      "Message('note_on', channel=0, note=59, velocity=0, time=35)\n",
      "Message('control_change', channel=0, control=67, value=26, time=37)\n",
      "Message('note_on', channel=0, note=55, velocity=74, time=79)\n",
      "Message('note_on', channel=0, note=55, velocity=0, time=38)\n",
      "Message('note_on', channel=0, note=50, velocity=60, time=114)\n",
      "Message('note_on', channel=0, note=50, velocity=0, time=33)\n",
      "Message('note_on', channel=0, note=47, velocity=69, time=106)\n",
      "Message('control_change', channel=0, control=64, value=62, time=23)\n",
      "Message('note_on', channel=0, note=47, velocity=0, time=17)\n",
      "Message('control_change', channel=0, control=64, value=66, time=1)\n",
      "Message('control_change', channel=0, control=64, value=48, time=21)\n",
      "Message('control_change', channel=0, control=64, value=0, time=18)\n",
      "Message('note_on', channel=0, note=50, velocity=70, time=71)\n",
      "Message('note_on', channel=0, note=50, velocity=0, time=34)\n",
      "Message('note_on', channel=0, note=79, velocity=0, time=76)\n",
      "Message('note_on', channel=0, note=47, velocity=65, time=32)\n",
      "Message('note_on', channel=0, note=74, velocity=81, time=5)\n",
      "Message('note_on', channel=0, note=47, velocity=0, time=26)\n",
      "Message('note_on', channel=0, note=74, velocity=0, time=7)\n",
      "Message('note_on', channel=0, note=43, velocity=74, time=99)\n",
      "Message('note_on', channel=0, note=79, velocity=83, time=9)\n",
      "Message('note_on', channel=0, note=79, velocity=0, time=32)\n",
      "Message('note_on', channel=0, note=43, velocity=0, time=1)\n",
      "Message('control_change', channel=0, control=67, value=30, time=2)\n",
      "Message('note_on', channel=0, note=45, velocity=75, time=110)\n",
      "Message('note_on', channel=0, note=84, velocity=85, time=16)\n",
      "Message('control_change', channel=0, control=64, value=64, time=8)\n",
      "Message('note_on', channel=0, note=45, velocity=0, time=13)\n",
      "Message('control_change', channel=0, control=64, value=81, time=5)\n",
      "Message('control_change', channel=0, control=64, value=93, time=34)\n",
      "Message('control_change', channel=0, control=64, value=103, time=18)\n",
      "Message('control_change', channel=0, control=64, value=107, time=20)\n",
      "Message('note_on', channel=0, note=48, velocity=72, time=53)\n",
      "Message('note_on', channel=0, note=48, velocity=0, time=43)\n",
      "Message('note_on', channel=0, note=84, velocity=0, time=94)\n",
      "Message('note_on', channel=0, note=45, velocity=75, time=5)\n",
      "Message('control_change', channel=0, control=64, value=101, time=13)\n",
      "Message('note_on', channel=0, note=75, velocity=81, time=3)\n",
      "Message('control_change', channel=0, control=64, value=75, time=16)\n",
      "Message('note_on', channel=0, note=45, velocity=0, time=8)\n",
      "Message('note_on', channel=0, note=75, velocity=0, time=6)\n",
      "Message('control_change', channel=0, control=64, value=0, time=4)\n",
      "Message('note_on', channel=0, note=78, velocity=82, time=91)\n",
      "Message('note_on', channel=0, note=42, velocity=67, time=4)\n",
      "Message('note_on', channel=0, note=42, velocity=0, time=35)\n",
      "Message('note_on', channel=0, note=78, velocity=0, time=3)\n",
      "Message('note_on', channel=0, note=43, velocity=71, time=108)\n",
      "Message('note_on', channel=0, note=83, velocity=80, time=12)\n",
      "Message('note_on', channel=0, note=43, velocity=0, time=23)\n",
      "Message('control_change', channel=0, control=64, value=47, time=6)\n",
      "Message('control_change', channel=0, control=64, value=70, time=22)\n",
      "Message('control_change', channel=0, control=64, value=73, time=18)\n",
      "Message('control_change', channel=0, control=64, value=75, time=56)\n",
      "Message('note_on', channel=0, note=47, velocity=68, time=17)\n",
      "Message('note_on', channel=0, note=47, velocity=0, time=39)\n",
      "Message('note_on', channel=0, note=43, velocity=72, time=95)\n",
      "Message('control_change', channel=0, control=67, value=34, time=1)\n",
      "Message('note_on', channel=0, note=83, velocity=0, time=12)\n",
      "Message('note_on', channel=0, note=76, velocity=76, time=6)\n",
      "Message('note_on', channel=0, note=43, velocity=0, time=12)\n",
      "Message('note_on', channel=0, note=76, velocity=0, time=21)\n",
      "Message('control_change', channel=0, control=67, value=30, time=24)\n",
      "Message('control_change', channel=0, control=67, value=34, time=71)\n",
      "Message('note_on', channel=0, note=40, velocity=73, time=7)\n",
      "Message('note_on', channel=0, note=79, velocity=81, time=12)\n",
      "Message('note_on', channel=0, note=40, velocity=0, time=28)\n",
      "Message('note_on', channel=0, note=79, velocity=0, time=1)\n",
      "Message('control_change', channel=0, control=64, value=68, time=7)\n",
      "Message('control_change', channel=0, control=64, value=27, time=21)\n",
      "Message('control_change', channel=0, control=64, value=0, time=19)\n",
      "Message('note_on', channel=0, note=78, velocity=79, time=71)\n",
      "Message('note_on', channel=0, note=47, velocity=75, time=3)\n",
      "Message('control_change', channel=0, control=64, value=29, time=21)\n",
      "Message('control_change', channel=0, control=64, value=54, time=18)\n",
      "Message('control_change', channel=0, control=64, value=59, time=19)\n",
      "Message('control_change', channel=0, control=64, value=62, time=18)\n",
      "Message('note_on', channel=0, note=79, velocity=72, time=4)\n",
      "Message('note_on', channel=0, note=78, velocity=0, time=2)\n",
      "Message('note_on', channel=0, note=47, velocity=0, time=61)\n",
      "Message('note_on', channel=0, note=78, velocity=83, time=16)\n",
      "Message('control_change', channel=0, control=64, value=63, time=12)\n",
      "Message('note_on', channel=0, note=79, velocity=0, time=8)\n",
      "Message('control_change', channel=0, control=64, value=64, time=12)\n",
      "Message('control_change', channel=0, control=64, value=66, time=20)\n",
      "Message('note_on', channel=0, note=78, velocity=0, time=13)\n",
      "Message('control_change', channel=0, control=64, value=71, time=3)\n",
      "Message('note_on', channel=0, note=76, velocity=61, time=0)\n",
      "Message('control_change', channel=0, control=64, value=75, time=18)\n",
      "Message('control_change', channel=0, control=67, value=38, time=21)\n",
      "Message('control_change', channel=0, control=64, value=66, time=18)\n",
      "Message('control_change', channel=0, control=64, value=0, time=19)\n",
      "Message('note_on', channel=0, note=49, velocity=78, time=0)\n",
      "Message('note_on', channel=0, note=75, velocity=80, time=2)\n",
      "Message('note_on', channel=0, note=76, velocity=0, time=2)\n",
      "Message('note_on', channel=0, note=49, velocity=0, time=29)\n",
      "Message('control_change', channel=0, control=64, value=57, time=44)\n",
      "Message('note_on', channel=0, note=76, velocity=71, time=8)\n",
      "Message('note_on', channel=0, note=75, velocity=0, time=2)\n",
      "Message('control_change', channel=0, control=64, value=75, time=6)\n",
      "Message('control_change', channel=0, control=64, value=77, time=22)\n",
      "Message('control_change', channel=0, control=67, value=46, time=1)\n",
      "Message('control_change', channel=0, control=64, value=71, time=18)\n",
      "Message('control_change', channel=0, control=64, value=65, time=16)\n",
      "Message('note_on', channel=0, note=75, velocity=74, time=7)\n",
      "Message('control_change', channel=0, control=64, value=60, time=13)\n",
      "Message('control_change', channel=0, control=64, value=65, time=18)\n",
      "Message('note_on', channel=0, note=76, velocity=0, time=0)\n",
      "Message('control_change', channel=0, control=64, value=70, time=21)\n",
      "Message('note_on', channel=0, note=73, velocity=70, time=20)\n",
      "Message('note_on', channel=0, note=75, velocity=0, time=3)\n",
      "Message('control_change', channel=0, control=64, value=65, time=13)\n",
      "Message('control_change', channel=0, control=64, value=40, time=19)\n",
      "Message('control_change', channel=0, control=64, value=0, time=20)\n",
      "Message('note_on', channel=0, note=73, velocity=0, time=23)\n",
      "Message('note_on', channel=0, note=71, velocity=76, time=2)\n",
      "Message('note_on', channel=0, note=51, velocity=65, time=12)\n",
      "Message('control_change', channel=0, control=64, value=39, time=20)\n",
      "Message('note_on', channel=0, note=51, velocity=0, time=14)\n",
      "Message('control_change', channel=0, control=64, value=60, time=6)\n",
      "Message('control_change', channel=0, control=64, value=66, time=18)\n",
      "Message('control_change', channel=0, control=64, value=63, time=17)\n",
      "Message('control_change', channel=0, control=64, value=59, time=20)\n",
      "Message('control_change', channel=0, control=64, value=60, time=20)\n",
      "Message('control_change', channel=0, control=64, value=64, time=18)\n",
      "Message('note_on', channel=0, note=54, velocity=64, time=28)\n",
      "Message('control_change', channel=0, control=64, value=68, time=5)\n",
      "Message('control_change', channel=0, control=64, value=70, time=18)\n",
      "Message('note_on', channel=0, note=54, velocity=0, time=10)\n",
      "Message('control_change', channel=0, control=64, value=68, time=28)\n",
      "Message('control_change', channel=0, control=64, value=66, time=20)\n",
      "Message('control_change', channel=0, control=64, value=65, time=19)\n",
      "Message('control_change', channel=0, control=64, value=66, time=39)\n",
      "Message('note_on', channel=0, note=59, velocity=57, time=14)\n",
      "Message('control_change', channel=0, control=64, value=64, time=4)\n",
      "Message('note_on', channel=0, note=81, velocity=75, time=0)\n",
      "Message('control_change', channel=0, control=64, value=55, time=18)\n",
      "Message('note_on', channel=0, note=71, velocity=0, time=4)\n",
      "Message('note_on', channel=0, note=59, velocity=0, time=13)\n",
      "Message('note_on', channel=0, note=81, velocity=0, time=11)\n",
      "Message('control_change', channel=0, control=64, value=0, time=10)\n",
      "Message('note_on', channel=0, note=51, velocity=64, time=78)\n",
      "Message('note_on', channel=0, note=78, velocity=74, time=8)\n",
      "Message('note_on', channel=0, note=51, velocity=0, time=32)\n",
      "Message('note_on', channel=0, note=78, velocity=0, time=24)\n",
      "Message('note_on', channel=0, note=52, velocity=66, time=100)\n",
      "Message('control_change', channel=0, control=64, value=36, time=3)\n",
      "Message('control_change', channel=0, control=64, value=52, time=17)\n",
      "Message('note_on', channel=0, note=71, velocity=66, time=0)\n",
      "Message('control_change', channel=0, control=64, value=62, time=20)\n",
      "Message('note_on', channel=0, note=52, velocity=0, time=6)\n",
      "Message('control_change', channel=0, control=64, value=70, time=14)\n",
      "Message('control_change', channel=0, control=64, value=76, time=18)\n",
      "Message('control_change', channel=0, control=64, value=82, time=19)\n",
      "Message('control_change', channel=0, control=64, value=87, time=18)\n",
      "Message('control_change', channel=0, control=64, value=92, time=20)\n",
      "Message('note_on', channel=0, note=56, velocity=57, time=31)\n",
      "Message('control_change', channel=0, control=64, value=96, time=5)\n",
      "Message('note_on', channel=0, note=56, velocity=0, time=37)\n",
      "Message('note_on', channel=0, note=71, velocity=0, time=82)\n",
      "Message('control_change', channel=0, control=64, value=92, time=16)\n",
      "Message('note_on', channel=0, note=59, velocity=60, time=10)\n",
      "Message('note_on', channel=0, note=80, velocity=76, time=9)\n",
      "Message('control_change', channel=0, control=64, value=86, time=19)\n",
      "Message('note_on', channel=0, note=59, velocity=0, time=12)\n",
      "Message('control_change', channel=0, control=64, value=79, time=4)\n",
      "Message('control_change', channel=0, control=64, value=66, time=22)\n",
      "Message('note_on', channel=0, note=80, velocity=0, time=4)\n",
      "Message('control_change', channel=0, control=64, value=46, time=15)\n",
      "Message('control_change', channel=0, control=64, value=0, time=17)\n",
      "Message('note_on', channel=0, note=50, velocity=66, time=35)\n",
      "Message('note_on', channel=0, note=76, velocity=74, time=7)\n",
      "Message('note_on', channel=0, note=50, velocity=0, time=82)\n",
      "Message('note_on', channel=0, note=76, velocity=0, time=47)\n",
      "Message('note_on', channel=0, note=70, velocity=77, time=49)\n",
      "Message('note_on', channel=0, note=49, velocity=69, time=2)\n",
      "Message('control_change', channel=0, control=64, value=22, time=38)\n",
      "Message('control_change', channel=0, control=64, value=43, time=21)\n",
      "Message('note_on', channel=0, note=49, velocity=0, time=6)\n",
      "Message('control_change', channel=0, control=64, value=46, time=11)\n",
      "Message('control_change', channel=0, control=64, value=48, time=21)\n",
      "Message('control_change', channel=0, control=64, value=50, time=17)\n",
      "Message('control_change', channel=0, control=64, value=54, time=19)\n",
      "Message('note_on', channel=0, note=52, velocity=63, time=4)\n",
      "Message('control_change', channel=0, control=64, value=58, time=14)\n",
      "Message('control_change', channel=0, control=64, value=61, time=20)\n",
      "Message('note_on', channel=0, note=52, velocity=0, time=9)\n",
      "Message('control_change', channel=0, control=64, value=60, time=86)\n",
      "Message('note_on', channel=0, note=58, velocity=73, time=31)\n",
      "Message('note_on', channel=0, note=79, velocity=76, time=16)\n",
      "Message('note_on', channel=0, note=70, velocity=0, time=23)\n",
      "Message('control_change', channel=0, control=64, value=58, time=4)\n",
      "Message('note_on', channel=0, note=58, velocity=0, time=5)\n",
      "Message('note_on', channel=0, note=79, velocity=0, time=15)\n",
      "Message('note_on', channel=0, note=78, velocity=21, time=24)\n",
      "Message('note_on', channel=0, note=78, velocity=0, time=1)\n",
      "Message('control_change', channel=0, control=64, value=56, time=33)\n",
      "Message('note_on', channel=0, note=76, velocity=79, time=28)\n",
      "Message('note_on', channel=0, note=49, velocity=70, time=7)\n",
      "Message('control_change', channel=0, control=64, value=54, time=22)\n",
      "Message('control_change', channel=0, control=64, value=51, time=18)\n",
      "Message('control_change', channel=0, control=64, value=43, time=17)\n",
      "Message('note_on', channel=0, note=49, velocity=0, time=2)\n",
      "Message('note_on', channel=0, note=76, velocity=0, time=7)\n",
      "Message('control_change', channel=0, control=64, value=0, time=10)\n",
      "Message('note_on', channel=0, note=51, velocity=66, time=82)\n",
      "Message('note_on', channel=0, note=69, velocity=75, time=9)\n",
      "Message('note_on', channel=0, note=51, velocity=0, time=42)\n",
      "Message('control_change', channel=0, control=64, value=27, time=39)\n",
      "Message('control_change', channel=0, control=64, value=44, time=18)\n",
      "Message('control_change', channel=0, control=64, value=52, time=18)\n",
      "Message('control_change', channel=0, control=64, value=55, time=18)\n",
      "Message('note_on', channel=0, note=54, velocity=68, time=3)\n",
      "Message('note_on', channel=0, note=54, velocity=0, time=39)\n",
      "Message('note_on', channel=0, note=57, velocity=66, time=148)\n",
      "Message('note_on', channel=0, note=78, velocity=73, time=0)\n",
      "Message('note_on', channel=0, note=69, velocity=0, time=23)\n",
      "Message('note_on', channel=0, note=57, velocity=0, time=13)\n",
      "Message('note_on', channel=0, note=78, velocity=0, time=3)\n",
      "Message('control_change', channel=0, control=64, value=53, time=13)\n",
      "Message('control_change', channel=0, control=64, value=50, time=76)\n",
      "Message('note_on', channel=0, note=75, velocity=75, time=10)\n",
      "Message('note_on', channel=0, note=60, velocity=60, time=13)\n",
      "Message('control_change', channel=0, control=64, value=44, time=15)\n",
      "Message('note_on', channel=0, note=75, velocity=0, time=12)\n",
      "Message('control_change', channel=0, control=64, value=31, time=4)\n",
      "Message('note_on', channel=0, note=60, velocity=0, time=8)\n",
      "Message('control_change', channel=0, control=64, value=0, time=14)\n",
      "Message('note_on', channel=0, note=59, velocity=58, time=90)\n",
      "Message('note_on', channel=0, note=68, velocity=73, time=13)\n",
      "Message('note_on', channel=0, note=59, velocity=0, time=15)\n",
      "Message('control_change', channel=0, control=64, value=40, time=14)\n",
      "Message('control_change', channel=0, control=64, value=57, time=18)\n",
      "Message('control_change', channel=0, control=64, value=67, time=19)\n",
      "Message('control_change', channel=0, control=64, value=71, time=19)\n",
      "Message('note_on', channel=0, note=52, velocity=61, time=56)\n",
      "Message('note_on', channel=0, note=52, velocity=0, time=49)\n",
      "Message('note_on', channel=0, note=77, velocity=75, time=106)\n",
      "Message('note_on', channel=0, note=56, velocity=64, time=6)\n",
      "Message('note_on', channel=0, note=68, velocity=0, time=2)\n",
      "Message('control_change', channel=0, control=64, value=68, time=7)\n",
      "Message('control_change', channel=0, control=64, value=67, time=19)\n",
      "Message('note_on', channel=0, note=56, velocity=0, time=2)\n",
      "Message('note_on', channel=0, note=77, velocity=0, time=21)\n",
      "Message('control_change', channel=0, control=64, value=66, time=14)\n",
      "Message('control_change', channel=0, control=64, value=65, time=20)\n",
      "Message('control_change', channel=0, control=64, value=63, time=18)\n",
      "Message('control_change', channel=0, control=64, value=60, time=20)\n",
      "Message('note_on', channel=0, note=59, velocity=67, time=11)\n",
      "Message('note_on', channel=0, note=75, velocity=75, time=2)\n",
      "Message('control_change', channel=0, control=64, value=56, time=6)\n",
      "Message('control_change', channel=0, control=64, value=52, time=19)\n",
      "Message('note_on', channel=0, note=59, velocity=0, time=4)\n",
      "Message('control_change', channel=0, control=64, value=44, time=16)\n",
      "Message('note_on', channel=0, note=75, velocity=0, time=6)\n",
      "Message('control_change', channel=0, control=64, value=0, time=12)\n",
      "Message('note_on', channel=0, note=60, velocity=70, time=103)\n",
      "Message('note_on', channel=0, note=76, velocity=77, time=5)\n",
      "Message('control_change', channel=0, control=64, value=32, time=21)\n",
      "Message('control_change', channel=0, control=67, value=51, time=2)\n",
      "Message('note_on', channel=0, note=60, velocity=0, time=4)\n",
      "Message('note_on', channel=0, note=76, velocity=0, time=9)\n",
      "Message('control_change', channel=0, control=64, value=55, time=5)\n",
      "Message('control_change', channel=0, control=64, value=67, time=18)\n",
      "Message('control_change', channel=0, control=64, value=73, time=20)\n",
      "Message('note_on', channel=0, note=64, velocity=70, time=63)\n",
      "Message('control_change', channel=0, control=64, value=70, time=29)\n",
      "Message('note_on', channel=0, note=64, velocity=0, time=6)\n",
      "Message('control_change', channel=0, control=64, value=67, time=32)\n",
      "Message('control_change', channel=0, control=64, value=66, time=18)\n",
      "Message('control_change', channel=0, control=64, value=65, time=21)\n",
      "Message('control_change', channel=0, control=64, value=63, time=18)\n",
      "Message('control_change', channel=0, control=64, value=57, time=20)\n",
      "Message('note_on', channel=0, note=60, velocity=64, time=1)\n",
      "Message('note_on', channel=0, note=78, velocity=79, time=9)\n",
      "Message('control_change', channel=0, control=64, value=39, time=8)\n",
      "Message('note_on', channel=0, note=60, velocity=0, time=13)\n",
      "Message('control_change', channel=0, control=64, value=0, time=4)\n",
      "Message('note_on', channel=0, note=78, velocity=0, time=17)\n",
      "Message('note_on', channel=0, note=57, velocity=72, time=89)\n",
      "Message('note_on', channel=0, note=57, velocity=0, time=31)\n",
      "Message('note_on', channel=0, note=59, velocity=77, time=113)\n",
      "Message('note_on', channel=0, note=71, velocity=69, time=4)\n",
      "Message('control_change', channel=0, control=64, value=56, time=12)\n",
      "Message('note_on', channel=0, note=59, velocity=0, time=16)\n",
      "Message('control_change', channel=0, control=64, value=67, time=2)\n",
      "Message('note_on', channel=0, note=71, velocity=0, time=5)\n",
      "Message('control_change', channel=0, control=64, value=66, time=70)\n",
      "Message('note_on', channel=0, note=73, velocity=70, time=74)\n",
      "Message('control_change', channel=0, control=64, value=65, time=40)\n",
      "Message('note_on', channel=0, note=73, velocity=0, time=0)\n",
      "Message('control_change', channel=0, control=64, value=60, time=18)\n",
      "Message('note_on', channel=0, note=75, velocity=74, time=0)\n",
      "Message('control_change', channel=0, control=64, value=32, time=20)\n",
      "Message('control_change', channel=0, control=64, value=0, time=21)\n",
      "Message('note_on', channel=0, note=75, velocity=0, time=45)\n",
      "Message('note_on', channel=0, note=47, velocity=56, time=2)\n",
      "Message('note_on', channel=0, note=76, velocity=74, time=3)\n",
      "Message('note_on', channel=0, note=47, velocity=0, time=33)\n",
      "Message('note_on', channel=0, note=76, velocity=0, time=46)\n",
      "Message('note_on', channel=0, note=75, velocity=77, time=1)\n",
      "Message('control_change', channel=0, control=67, value=58, time=33)\n",
      "Message('note_on', channel=0, note=73, velocity=76, time=48)\n",
      "Message('note_on', channel=0, note=75, velocity=0, time=2)\n",
      "Message('note_on', channel=0, note=73, velocity=0, time=54)\n",
      "Message('note_on', channel=0, note=75, velocity=64, time=1)\n",
      "Message('note_on', channel=0, note=76, velocity=81, time=77)\n",
      "Message('note_on', channel=0, note=52, velocity=63, time=1)\n",
      "Message('note_on', channel=0, note=75, velocity=0, time=1)\n",
      "Message('note_on', channel=0, note=52, velocity=0, time=40)\n",
      "Message('note_on', channel=0, note=47, velocity=66, time=115)\n",
      "Message('note_on', channel=0, note=47, velocity=0, time=32)\n",
      "Message('note_on', channel=0, note=43, velocity=56, time=130)\n",
      "Message('note_on', channel=0, note=43, velocity=0, time=35)\n",
      "Message('note_on', channel=0, note=47, velocity=50, time=113)\n",
      "Message('note_on', channel=0, note=47, velocity=0, time=38)\n",
      "Message('control_change', channel=0, control=67, value=62, time=178)\n",
      "Message('note_on', channel=0, note=40, velocity=51, time=23)\n",
      "Message('control_change', channel=0, control=64, value=39, time=15)\n",
      "Message('control_change', channel=0, control=64, value=57, time=17)\n",
      "Message('control_change', channel=0, control=64, value=65, time=20)\n",
      "Message('control_change', channel=0, control=64, value=70, time=19)\n",
      "Message('note_on', channel=0, note=76, velocity=0, time=16)\n",
      "Message('control_change', channel=0, control=64, value=74, time=4)\n",
      "Message('control_change', channel=0, control=64, value=80, time=19)\n",
      "Message('control_change', channel=0, control=64, value=87, time=18)\n",
      "Message('control_change', channel=0, control=64, value=94, time=20)\n",
      "Message('control_change', channel=0, control=64, value=100, time=20)\n",
      "Message('control_change', channel=0, control=64, value=106, time=16)\n",
      "Message('control_change', channel=0, control=64, value=113, time=18)\n",
      "Message('control_change', channel=0, control=64, value=119, time=21)\n",
      "Message('note_on', channel=0, note=40, velocity=0, time=61)\n",
      "Message('control_change', channel=0, control=64, value=107, time=51)\n",
      "Message('control_change', channel=0, control=64, value=88, time=20)\n",
      "Message('control_change', channel=0, control=64, value=57, time=20)\n",
      "Message('control_change', channel=0, control=64, value=0, time=17)\n",
      "Message('note_on', channel=0, note=79, velocity=72, time=21)\n",
      "Message('note_on', channel=0, note=79, velocity=0, time=34)\n",
      "Message('note_on', channel=0, note=76, velocity=71, time=119)\n",
      "Message('note_on', channel=0, note=76, velocity=0, time=35)\n",
      "Message('note_on', channel=0, note=71, velocity=69, time=126)\n",
      "Message('note_on', channel=0, note=64, velocity=59, time=150)\n",
      "Message('note_on', channel=0, note=64, velocity=0, time=51)\n",
      "Message('note_on', channel=0, note=59, velocity=60, time=99)\n",
      "Message('note_on', channel=0, note=59, velocity=0, time=25)\n",
      "Message('note_on', channel=0, note=55, velocity=59, time=116)\n",
      "Message('note_on', channel=0, note=72, velocity=67, time=1)\n",
      "Message('note_on', channel=0, note=71, velocity=0, time=3)\n",
      "Message('note_on', channel=0, note=72, velocity=0, time=30)\n",
      "Message('note_on', channel=0, note=55, velocity=0, time=2)\n",
      "Message('control_change', channel=0, control=64, value=28, time=32)\n",
      "Message('control_change', channel=0, control=64, value=44, time=21)\n",
      "Message('control_change', channel=0, control=64, value=55, time=18)\n",
      "Message('control_change', channel=0, control=64, value=61, time=20)\n",
      "Message('control_change', channel=0, control=64, value=58, time=18)\n",
      "Message('note_on', channel=0, note=74, velocity=71, time=5)\n",
      "Message('note_on', channel=0, note=52, velocity=50, time=10)\n",
      "Message('control_change', channel=0, control=64, value=0, time=3)\n",
      "Message('note_on', channel=0, note=74, velocity=0, time=22)\n",
      "Message('note_on', channel=0, note=52, velocity=0, time=15)\n",
      "Message('note_on', channel=0, note=72, velocity=71, time=3)\n",
      "Message('note_on', channel=0, note=74, velocity=67, time=45)\n",
      "Message('note_on', channel=0, note=72, velocity=0, time=9)\n",
      "Message('note_on', channel=0, note=55, velocity=64, time=39)\n",
      "Message('note_on', channel=0, note=72, velocity=76, time=1)\n",
      "Message('note_on', channel=0, note=74, velocity=0, time=14)\n",
      "Message('control_change', channel=0, control=67, value=58, time=21)\n",
      "Message('note_on', channel=0, note=55, velocity=0, time=0)\n",
      "Message('note_on', channel=0, note=72, velocity=0, time=40)\n",
      "Message('control_change', channel=0, control=67, value=62, time=19)\n",
      "Message('note_on', channel=0, note=72, velocity=61, time=38)\n",
      "Message('note_on', channel=0, note=48, velocity=70, time=1)\n",
      "Message('note_on', channel=0, note=48, velocity=0, time=34)\n",
      "Message('control_change', channel=0, control=67, value=58, time=2)\n",
      "Message('control_change', channel=0, control=67, value=62, time=58)\n",
      "Message('note_on', channel=0, note=72, velocity=0, time=51)\n",
      "Message('note_on', channel=0, note=52, velocity=70, time=8)\n",
      "Message('note_on', channel=0, note=71, velocity=72, time=11)\n",
      "Message('note_on', channel=0, note=52, velocity=0, time=23)\n",
      "Message('note_on', channel=0, note=71, velocity=0, time=3)\n",
      "Message('note_on', channel=0, note=72, velocity=71, time=10)\n",
      "Message('control_change', channel=0, control=64, value=30, time=46)\n",
      "Message('control_change', channel=0, control=64, value=0, time=31)\n",
      "Message('note_on', channel=0, note=72, velocity=0, time=14)\n",
      "Message('note_on', channel=0, note=74, velocity=84, time=3)\n",
      "Message('note_on', channel=0, note=47, velocity=76, time=9)\n",
      "Message('note_on', channel=0, note=47, velocity=0, time=51)\n",
      "Message('note_on', channel=0, note=59, velocity=66, time=107)\n",
      "Message('note_on', channel=0, note=59, velocity=0, time=36)\n",
      "Message('note_on', channel=0, note=74, velocity=0, time=72)\n",
      "Message('note_on', channel=0, note=55, velocity=68, time=23)\n",
      "Message('control_change', channel=0, control=67, value=58, time=5)\n",
      "Message('note_on', channel=0, note=71, velocity=84, time=6)\n",
      "Message('note_on', channel=0, note=55, velocity=0, time=22)\n",
      "Message('note_on', channel=0, note=71, velocity=0, time=19)\n",
      "Message('note_on', channel=0, note=50, velocity=71, time=92)\n",
      "Message('note_on', channel=0, note=74, velocity=88, time=8)\n",
      "Message('note_on', channel=0, note=50, velocity=0, time=31)\n",
      "Message('note_on', channel=0, note=74, velocity=0, time=13)\n",
      "Message('note_on', channel=0, note=47, velocity=73, time=92)\n",
      "Message('note_on', channel=0, note=79, velocity=82, time=19)\n",
      "Message('control_change', channel=0, control=64, value=43, time=21)\n",
      "Message('note_on', channel=0, note=47, velocity=0, time=7)\n",
      "Message('control_change', channel=0, control=64, value=67, time=12)\n",
      "Message('control_change', channel=0, control=64, value=65, time=20)\n",
      "Message('control_change', channel=0, control=64, value=60, time=17)\n",
      "Message('control_change', channel=0, control=64, value=54, time=18)\n",
      "Message('control_change', channel=0, control=64, value=49, time=21)\n",
      "Message('control_change', channel=0, control=64, value=51, time=17)\n",
      "Message('note_on', channel=0, note=50, velocity=74, time=6)\n",
      "Message('control_change', channel=0, control=64, value=56, time=12)\n",
      "Message('note_on', channel=0, note=50, velocity=0, time=21)\n",
      "Message('control_change', channel=0, control=64, value=54, time=36)\n",
      "Message('note_on', channel=0, note=83, velocity=80, time=81)\n",
      "Message('note_on', channel=0, note=79, velocity=0, time=10)\n",
      "Message('control_change', channel=0, control=64, value=50, time=4)\n",
      "Message('note_on', channel=0, note=43, velocity=45, time=20)\n",
      "Message('note_on', channel=0, note=41, velocity=42, time=12)\n",
      "Message('control_change', channel=0, control=64, value=45, time=2)\n",
      "Message('note_on', channel=0, note=83, velocity=0, time=12)\n",
      "Message('control_change', channel=0, control=64, value=36, time=8)\n",
      "Message('note_on', channel=0, note=43, velocity=0, time=9)\n",
      "Message('control_change', channel=0, control=64, value=32, time=8)\n",
      "Message('note_on', channel=0, note=41, velocity=0, time=20)\n",
      "Message('control_change', channel=0, control=64, value=0, time=37)\n",
      "Message('note_on', channel=0, note=47, velocity=64, time=19)\n",
      "Message('note_on', channel=0, note=79, velocity=73, time=2)\n",
      "Message('note_on', channel=0, note=77, velocity=74, time=15)\n",
      "Message('note_on', channel=0, note=47, velocity=0, time=15)\n",
      "Message('note_on', channel=0, note=77, velocity=0, time=6)\n",
      "Message('note_on', channel=0, note=79, velocity=0, time=1)\n",
      "Message('note_on', channel=0, note=48, velocity=54, time=119)\n",
      "Message('note_on', channel=0, note=76, velocity=66, time=4)\n",
      "Message('control_change', channel=0, control=64, value=52, time=9)\n",
      "Message('note_on', channel=0, note=77, velocity=55, time=0)\n",
      "Message('control_change', channel=0, control=64, value=65, time=17)\n",
      "Message('note_on', channel=0, note=48, velocity=0, time=7)\n",
      "Message('control_change', channel=0, control=67, value=63, time=12)\n",
      "Message('note_on', channel=0, note=77, velocity=0, time=11)\n",
      "Message('control_change', channel=0, control=64, value=62, time=7)\n",
      "Message('control_change', channel=0, control=64, value=59, time=21)\n",
      "Message('note_on', channel=0, note=52, velocity=80, time=54)\n",
      "Message('control_change', channel=0, control=64, value=60, time=2)\n",
      "Message('control_change', channel=0, control=67, value=58, time=2)\n",
      "Message('note_on', channel=0, note=52, velocity=0, time=27)\n",
      "Message('control_change', channel=0, control=67, value=62, time=11)\n",
      "Message('control_change', channel=0, control=64, value=57, time=92)\n",
      "Message('control_change', channel=0, control=64, value=42, time=19)\n",
      "Message('note_on', channel=0, note=69, velocity=78, time=6)\n",
      "Message('note_on', channel=0, note=53, velocity=68, time=6)\n",
      "Message('control_change', channel=0, control=64, value=0, time=7)\n",
      "Message('note_on', channel=0, note=76, velocity=0, time=6)\n",
      "Message('note_on', channel=0, note=69, velocity=0, time=13)\n",
      "Message('note_on', channel=0, note=72, velocity=80, time=119)\n",
      "Message('note_on', channel=0, note=53, velocity=0, time=32)\n",
      "Message('note_on', channel=0, note=72, velocity=0, time=2)\n",
      "Message('note_on', channel=0, note=47, velocity=73, time=111)\n",
      "Message('control_change', channel=0, control=64, value=22, time=1)\n",
      "Message('note_on', channel=0, note=74, velocity=79, time=11)\n",
      "Message('control_change', channel=0, control=64, value=39, time=7)\n",
      "Message('control_change', channel=0, control=64, value=31, time=21)\n",
      "Message('note_on', channel=0, note=47, velocity=0, time=4)\n",
      "Message('control_change', channel=0, control=64, value=25, time=14)\n",
      "Message('note_on', channel=0, note=50, velocity=71, time=114)\n",
      "Message('note_on', channel=0, note=50, velocity=0, time=34)\n",
      "Message('control_change', channel=0, control=64, value=0, time=130)\n",
      "Message('note_on', channel=0, note=52, velocity=76, time=2)\n",
      "Message('note_on', channel=0, note=68, velocity=79, time=1)\n",
      "Message('note_on', channel=0, note=74, velocity=0, time=10)\n",
      "Message('note_on', channel=0, note=68, velocity=0, time=22)\n",
      "Message('note_on', channel=0, note=71, velocity=72, time=126)\n",
      "Message('note_on', channel=0, note=71, velocity=0, time=32)\n",
      "Message('note_on', channel=0, note=45, velocity=73, time=131)\n",
      "Message('note_on', channel=0, note=74, velocity=81, time=0)\n",
      "Message('note_on', channel=0, note=52, velocity=0, time=18)\n",
      "Message('note_on', channel=0, note=45, velocity=0, time=78)\n",
      "Message('note_on', channel=0, note=48, velocity=63, time=51)\n",
      "Message('note_on', channel=0, note=72, velocity=76, time=14)\n",
      "Message('note_on', channel=0, note=74, velocity=0, time=5)\n",
      "Message('note_on', channel=0, note=48, velocity=0, time=32)\n",
      "Message('note_on', channel=0, note=72, velocity=0, time=2)\n",
      "Message('note_on', channel=0, note=52, velocity=59, time=107)\n",
      "Message('note_on', channel=0, note=71, velocity=75, time=2)\n",
      "Message('note_on', channel=0, note=71, velocity=0, time=33)\n",
      "Message('note_on', channel=0, note=52, velocity=0, time=7)\n",
      "Message('note_on', channel=0, note=72, velocity=79, time=114)\n",
      "Message('note_on', channel=0, note=55, velocity=60, time=12)\n",
      "Message('note_on', channel=0, note=72, velocity=0, time=18)\n",
      "Message('note_on', channel=0, note=55, velocity=0, time=20)\n",
      "Message('control_change', channel=0, control=67, value=57, time=87)\n",
      "Message('note_on', channel=0, note=54, velocity=69, time=13)\n",
      "Message('note_on', channel=0, note=69, velocity=76, time=5)\n",
      "Message('note_on', channel=0, note=54, velocity=0, time=29)\n",
      "Message('control_change', channel=0, control=64, value=60, time=7)\n",
      "Message('control_change', channel=0, control=64, value=70, time=19)\n",
      "Message('control_change', channel=0, control=64, value=72, time=19)\n",
      "Message('control_change', channel=0, control=67, value=53, time=57)\n",
      "Message('note_on', channel=0, note=57, velocity=72, time=12)\n",
      "Message('note_on', channel=0, note=57, velocity=0, time=42)\n",
      "Message('note_on', channel=0, note=54, velocity=75, time=105)\n",
      "Message('control_change', channel=0, control=64, value=70, time=12)\n",
      "Message('note_on', channel=0, note=74, velocity=74, time=5)\n",
      "Message('note_on', channel=0, note=69, velocity=0, time=10)\n",
      "Message('control_change', channel=0, control=64, value=60, time=2)\n",
      "Message('note_on', channel=0, note=54, velocity=0, time=5)\n",
      "Message('control_change', channel=0, control=64, value=0, time=13)\n",
      "Message('note_on', channel=0, note=74, velocity=0, time=4)\n",
      "Message('note_on', channel=0, note=50, velocity=64, time=101)\n",
      "Message('note_on', channel=0, note=69, velocity=82, time=8)\n",
      "Message('note_on', channel=0, note=69, velocity=0, time=25)\n",
      "Message('note_on', channel=0, note=50, velocity=0, time=4)\n",
      "Message('note_on', channel=0, note=55, velocity=77, time=109)\n",
      "Message('note_on', channel=0, note=71, velocity=80, time=13)\n",
      "Message('control_change', channel=0, control=64, value=66, time=1)\n",
      "Message('control_change', channel=0, control=67, value=57, time=1)\n",
      "Message('control_change', channel=0, control=64, value=77, time=19)\n",
      "Message('note_on', channel=0, note=71, velocity=0, time=9)\n",
      "Message('note_on', channel=0, note=55, velocity=0, time=8)\n",
      "Message('control_change', channel=0, control=64, value=82, time=4)\n",
      "Message('control_change', channel=0, control=64, value=84, time=17)\n",
      "Message('control_change', channel=0, control=64, value=87, time=20)\n",
      "Message('control_change', channel=0, control=64, value=93, time=51)\n",
      "Message('note_on', channel=0, note=50, velocity=75, time=15)\n",
      "Message('note_on', channel=0, note=50, velocity=0, time=34)\n",
      "Message('note_on', channel=0, note=47, velocity=79, time=98)\n",
      "Message('control_change', channel=0, control=67, value=61, time=22)\n",
      "Message('note_on', channel=0, note=67, velocity=72, time=15)\n",
      "Message('note_on', channel=0, note=47, velocity=0, time=5)\n",
      "Message('note_on', channel=0, note=69, velocity=83, time=24)\n",
      "Message('note_on', channel=0, note=67, velocity=0, time=1)\n",
      "Message('note_on', channel=0, note=69, velocity=0, time=28)\n",
      "Message('control_change', channel=0, control=64, value=79, time=2)\n",
      "Message('note_on', channel=0, note=71, velocity=82, time=30)\n",
      "Message('control_change', channel=0, control=64, value=0, time=9)\n",
      "Message('note_on', channel=0, note=71, velocity=0, time=20)\n",
      "Message('note_on', channel=0, note=50, velocity=58, time=14)\n",
      "Message('note_on', channel=0, note=50, velocity=0, time=32)\n",
      "Message('note_on', channel=0, note=72, velocity=80, time=4)\n",
      "Message('note_on', channel=0, note=72, velocity=0, time=55)\n",
      "Message('note_on', channel=0, note=74, velocity=80, time=3)\n",
      "Message('control_change', channel=0, control=64, value=13, time=27)\n",
      "Message('note_on', channel=0, note=43, velocity=77, time=2)\n",
      "Message('control_change', channel=0, control=64, value=49, time=14)\n",
      "Message('control_change', channel=0, control=67, value=65, time=0)\n",
      "Message('note_on', channel=0, note=76, velocity=93, time=4)\n",
      "Message('note_on', channel=0, note=74, velocity=0, time=11)\n",
      "Message('control_change', channel=0, control=64, value=32, time=1)\n",
      "Message('note_on', channel=0, note=43, velocity=0, time=14)\n",
      "Message('control_change', channel=0, control=64, value=26, time=6)\n",
      "Message('control_change', channel=0, control=64, value=30, time=21)\n",
      "Message('control_change', channel=0, control=64, value=41, time=18)\n",
      "Message('control_change', channel=0, control=64, value=52, time=18)\n",
      "Message('control_change', channel=0, control=64, value=58, time=18)\n",
      "Message('note_on', channel=0, note=47, velocity=62, time=35)\n",
      "Message('note_on', channel=0, note=47, velocity=0, time=34)\n",
      "Message('control_change', channel=0, control=64, value=50, time=83)\n",
      "Message('control_change', channel=0, control=64, value=0, time=18)\n",
      "Message('note_on', channel=0, note=52, velocity=61, time=18)\n",
      "Message('note_on', channel=0, note=76, velocity=0, time=1)\n",
      "Message('note_on', channel=0, note=79, velocity=78, time=8)\n",
      "Message('note_on', channel=0, note=52, velocity=0, time=25)\n",
      "Message('note_on', channel=0, note=79, velocity=0, time=5)\n",
      "Message('note_on', channel=0, note=55, velocity=61, time=105)\n",
      "Message('note_on', channel=0, note=71, velocity=84, time=3)\n",
      "Message('note_on', channel=0, note=71, velocity=0, time=22)\n",
      "Message('note_on', channel=0, note=55, velocity=0, time=10)\n",
      "Message('note_on', channel=0, note=57, velocity=75, time=125)\n",
      "Message('note_on', channel=0, note=72, velocity=94, time=16)\n",
      "Message('control_change', channel=0, control=64, value=60, time=18)\n",
      "Message('note_on', channel=0, note=57, velocity=0, time=11)\n",
      "Message('note_on', channel=0, note=72, velocity=0, time=7)\n",
      "Message('control_change', channel=0, control=64, value=78, time=1)\n",
      "Message('control_change', channel=0, control=64, value=86, time=19)\n",
      "Message('control_change', channel=0, control=64, value=91, time=20)\n",
      "Message('control_change', channel=0, control=64, value=96, time=18)\n",
      "Message('note_on', channel=0, note=52, velocity=73, time=32)\n",
      "Message('control_change', channel=0, control=64, value=102, time=4)\n",
      "Message('note_on', channel=0, note=52, velocity=0, time=32)\n",
      "Message('note_on', channel=0, note=48, velocity=82, time=99)\n",
      "Message('note_on', channel=0, note=69, velocity=73, time=30)\n",
      "Message('note_on', channel=0, note=48, velocity=0, time=11)\n",
      "Message('note_on', channel=0, note=71, velocity=86, time=13)\n",
      "Message('note_on', channel=0, note=69, velocity=0, time=6)\n",
      "Message('note_on', channel=0, note=71, velocity=0, time=48)\n",
      "Message('control_change', channel=0, control=64, value=93, time=7)\n",
      "Message('note_on', channel=0, note=72, velocity=84, time=7)\n",
      "Message('control_change', channel=0, control=64, value=60, time=14)\n",
      "Message('note_on', channel=0, note=72, velocity=0, time=15)\n",
      "Message('control_change', channel=0, control=64, value=0, time=2)\n",
      "Message('note_on', channel=0, note=74, velocity=48, time=4)\n",
      "Message('note_on', channel=0, note=52, velocity=73, time=7)\n",
      "Message('note_on', channel=0, note=52, velocity=0, time=33)\n",
      "Message('note_on', channel=0, note=76, velocity=60, time=13)\n",
      "Message('control_change', channel=0, control=67, value=71, time=19)\n",
      "Message('note_on', channel=0, note=74, velocity=0, time=28)\n",
      "Message('note_on', channel=0, note=76, velocity=0, time=29)\n",
      "Message('note_on', channel=0, note=76, velocity=10, time=0)\n",
      "Message('note_on', channel=0, note=45, velocity=83, time=11)\n",
      "Message('note_on', channel=0, note=78, velocity=92, time=3)\n",
      "Message('control_change', channel=0, control=64, value=65, time=5)\n",
      "Message('control_change', channel=0, control=64, value=83, time=17)\n",
      "Message('note_on', channel=0, note=76, velocity=0, time=11)\n",
      "Message('control_change', channel=0, control=64, value=90, time=8)\n",
      "Message('note_on', channel=0, note=45, velocity=0, time=8)\n",
      "Message('control_change', channel=0, control=67, value=77, time=12)\n",
      "Message('control_change', channel=0, control=64, value=87, time=19)\n",
      "Message('control_change', channel=0, control=67, value=82, time=18)\n",
      "Message('control_change', channel=0, control=67, value=77, time=57)\n",
      "Message('note_on', channel=0, note=48, velocity=72, time=0)\n",
      "Message('note_on', channel=0, note=48, velocity=0, time=37)\n",
      "Message('control_change', channel=0, control=64, value=77, time=111)\n",
      "Message('note_on', channel=0, note=54, velocity=71, time=1)\n",
      "Message('note_on', channel=0, note=81, velocity=80, time=11)\n",
      "Message('note_on', channel=0, note=78, velocity=0, time=5)\n",
      "Message('control_change', channel=0, control=64, value=50, time=1)\n",
      "Message('control_change', channel=0, control=64, value=0, time=19)\n",
      "Message('note_on', channel=0, note=54, velocity=0, time=4)\n",
      "Message('note_on', channel=0, note=81, velocity=0, time=8)\n",
      "Message('note_on', channel=0, note=57, velocity=67, time=102)\n",
      "Message('note_on', channel=0, note=72, velocity=86, time=6)\n",
      "Message('note_on', channel=0, note=72, velocity=0, time=28)\n",
      "Message('note_on', channel=0, note=57, velocity=0, time=2)\n",
      "Message('note_on', channel=0, note=59, velocity=75, time=120)\n",
      "Message('note_on', channel=0, note=74, velocity=96, time=10)\n",
      "Message('control_change', channel=0, control=64, value=60, time=22)\n",
      "Message('note_on', channel=0, note=59, velocity=0, time=15)\n",
      "Message('note_on', channel=0, note=74, velocity=0, time=1)\n",
      "Message('control_change', channel=0, control=64, value=82, time=6)\n",
      "Message('control_change', channel=0, control=64, value=95, time=16)\n",
      "Message('control_change', channel=0, control=64, value=105, time=19)\n",
      "Message('control_change', channel=0, control=64, value=111, time=20)\n",
      "Message('note_on', channel=0, note=55, velocity=79, time=31)\n",
      "Message('note_on', channel=0, note=55, velocity=0, time=34)\n",
      "Message('note_on', channel=0, note=50, velocity=81, time=98)\n",
      "Message('note_on', channel=0, note=71, velocity=66, time=43)\n",
      "Message('note_on', channel=0, note=50, velocity=0, time=5)\n",
      "Message('note_on', channel=0, note=72, velocity=88, time=8)\n",
      "Message('note_on', channel=0, note=71, velocity=0, time=22)\n",
      "Message('note_on', channel=0, note=72, velocity=0, time=32)\n",
      "Message('note_on', channel=0, note=74, velocity=80, time=11)\n",
      "Message('note_on', channel=0, note=74, velocity=0, time=28)\n",
      "Message('note_on', channel=0, note=55, velocity=72, time=12)\n",
      "Message('control_change', channel=0, control=64, value=107, time=14)\n",
      "Message('note_on', channel=0, note=76, velocity=77, time=15)\n",
      "Message('control_change', channel=0, control=64, value=83, time=3)\n",
      "Message('note_on', channel=0, note=55, velocity=0, time=2)\n",
      "Message('control_change', channel=0, control=64, value=0, time=18)\n",
      "Message('note_on', channel=0, note=78, velocity=80, time=35)\n",
      "Message('note_on', channel=0, note=76, velocity=0, time=7)\n",
      "Message('note_on', channel=0, note=47, velocity=87, time=50)\n",
      "Message('control_change', channel=0, control=64, value=51, time=3)\n",
      "Message('control_change', channel=0, control=67, value=81, time=1)\n",
      "Message('note_on', channel=0, note=79, velocity=91, time=1)\n",
      "Message('control_change', channel=0, control=64, value=66, time=18)\n",
      "Message('note_on', channel=0, note=78, velocity=0, time=4)\n",
      "Message('control_change', channel=0, control=64, value=74, time=28)\n",
      "Message('note_on', channel=0, note=47, velocity=0, time=8)\n",
      "Message('control_change', channel=0, control=64, value=78, time=12)\n",
      "Message('control_change', channel=0, control=64, value=80, time=55)\n",
      "Message('note_on', channel=0, note=50, velocity=74, time=49)\n",
      "Message('note_on', channel=0, note=50, velocity=0, time=38)\n",
      "Message('note_on', channel=0, note=83, velocity=79, time=98)\n",
      "Message('control_change', channel=0, control=64, value=71, time=3)\n",
      "Message('note_on', channel=0, note=79, velocity=0, time=0)\n",
      "Message('note_on', channel=0, note=55, velocity=68, time=4)\n",
      "Message('control_change', channel=0, control=64, value=26, time=18)\n",
      "Message('note_on', channel=0, note=83, velocity=0, time=10)\n",
      "Message('note_on', channel=0, note=55, velocity=0, time=4)\n",
      "Message('control_change', channel=0, control=64, value=0, time=3)\n",
      "Message('note_on', channel=0, note=79, velocity=86, time=108)\n",
      "Message('note_on', channel=0, note=59, velocity=71, time=4)\n",
      "Message('note_on', channel=0, note=79, velocity=0, time=27)\n",
      "Message('note_on', channel=0, note=59, velocity=0, time=2)\n",
      "Message('control_change', channel=0, control=64, value=36, time=122)\n",
      "Message('note_on', channel=0, note=62, velocity=74, time=2)\n",
      "Message('note_on', channel=0, note=81, velocity=87, time=10)\n",
      "Message('control_change', channel=0, control=64, value=72, time=8)\n",
      "Message('control_change', channel=0, control=64, value=77, time=19)\n",
      "Message('control_change', channel=0, control=64, value=79, time=78)\n",
      "Message('note_on', channel=0, note=62, velocity=0, time=19)\n",
      "Message('control_change', channel=0, control=64, value=82, time=17)\n",
      "Message('note_on', channel=0, note=64, velocity=70, time=5)\n",
      "Message('control_change', channel=0, control=64, value=84, time=14)\n",
      "Message('note_on', channel=0, note=79, velocity=74, time=8)\n",
      "Message('control_change', channel=0, control=64, value=87, time=11)\n",
      "Message('note_on', channel=0, note=81, velocity=0, time=7)\n",
      "Message('note_on', channel=0, note=64, velocity=0, time=7)\n",
      "Message('note_on', channel=0, note=79, velocity=0, time=7)\n",
      "Message('control_change', channel=0, control=64, value=77, time=17)\n",
      "Message('control_change', channel=0, control=64, value=40, time=17)\n",
      "Message('control_change', channel=0, control=64, value=0, time=21)\n",
      "Message('note_on', channel=0, note=62, velocity=72, time=26)\n",
      "Message('note_on', channel=0, note=78, velocity=87, time=18)\n",
      "Message('note_on', channel=0, note=62, velocity=0, time=25)\n",
      "Message('note_on', channel=0, note=78, velocity=0, time=26)\n",
      "Message('note_on', channel=0, note=60, velocity=73, time=98)\n",
      "Message('note_on', channel=0, note=76, velocity=89, time=14)\n",
      "Message('note_on', channel=0, note=60, velocity=0, time=20)\n",
      "Message('note_on', channel=0, note=76, velocity=0, time=13)\n",
      "Message('note_on', channel=0, note=59, velocity=78, time=101)\n",
      "Message('note_on', channel=0, note=74, velocity=88, time=15)\n",
      "Message('control_change', channel=0, control=64, value=33, time=17)\n",
      "Message('note_on', channel=0, note=59, velocity=0, time=3)\n",
      "Message('control_change', channel=0, control=64, value=54, time=17)\n",
      "Message('control_change', channel=0, control=64, value=61, time=18)\n",
      "Message('control_change', channel=0, control=64, value=67, time=19)\n",
      "Message('control_change', channel=0, control=64, value=70, time=19)\n",
      "Message('control_change', channel=0, control=64, value=72, time=37)\n",
      "Message('note_on', channel=0, note=62, velocity=80, time=10)\n",
      "Message('control_change', channel=0, control=67, value=77, time=7)\n",
      "Message('control_change', channel=0, control=64, value=74, time=21)\n",
      "Message('note_on', channel=0, note=62, velocity=0, time=17)\n",
      "Message('control_change', channel=0, control=64, value=77, time=22)\n",
      "Message('control_change', channel=0, control=64, value=79, time=37)\n",
      "Message('note_on', channel=0, note=74, velocity=0, time=30)\n",
      "Message('control_change', channel=0, control=64, value=82, time=7)\n",
      "Message('note_on', channel=0, note=59, velocity=74, time=1)\n",
      "Message('control_change', channel=0, control=64, value=85, time=21)\n",
      "Message('note_on', channel=0, note=79, velocity=87, time=4)\n",
      "Message('note_on', channel=0, note=59, velocity=0, time=15)\n",
      "Message('control_change', channel=0, control=64, value=74, time=15)\n",
      "Message('note_on', channel=0, note=79, velocity=0, time=18)\n",
      "Message('control_change', channel=0, control=64, value=32, time=2)\n",
      "Message('control_change', channel=0, control=64, value=0, time=18)\n",
      "Message('note_on', channel=0, note=55, velocity=74, time=64)\n",
      "Message('note_on', channel=0, note=74, velocity=95, time=8)\n",
      "Message('note_on', channel=0, note=55, velocity=0, time=25)\n",
      "Message('note_on', channel=0, note=74, velocity=0, time=13)\n",
      "Message('control_change', channel=0, control=67, value=73, time=60)\n",
      "Message('control_change', channel=0, control=67, value=66, time=18)\n",
      "Message('control_change', channel=0, control=67, value=60, time=18)\n",
      "Message('note_on', channel=0, note=76, velocity=92, time=17)\n",
      "Message('note_on', channel=0, note=48, velocity=77, time=2)\n",
      "Message('control_change', channel=0, control=64, value=70, time=20)\n",
      "Message('control_change', channel=0, control=64, value=85, time=20)\n",
      "Message('note_on', channel=0, note=48, velocity=0, time=9)\n",
      "Message('control_change', channel=0, control=64, value=91, time=11)\n",
      "Message('control_change', channel=0, control=67, value=54, time=2)\n",
      "Message('control_change', channel=0, control=67, value=43, time=17)\n",
      "Message('control_change', channel=0, control=67, value=28, time=18)\n",
      "Message('control_change', channel=0, control=67, value=15, time=33)\n",
      "Message('note_on', channel=0, note=52, velocity=82, time=30)\n",
      "Message('control_change', channel=0, control=67, value=11, time=27)\n",
      "Message('note_on', channel=0, note=52, velocity=0, time=7)\n",
      "Message('control_change', channel=0, control=64, value=83, time=50)\n",
      "Message('control_change', channel=0, control=64, value=75, time=18)\n",
      "Message('control_change', channel=0, control=64, value=65, time=17)\n",
      "Message('control_change', channel=0, control=64, value=52, time=20)\n",
      "Message('note_on', channel=0, note=54, velocity=79, time=7)\n",
      "Message('note_on', channel=0, note=69, velocity=86, time=1)\n",
      "Message('control_change', channel=0, control=64, value=27, time=10)\n",
      "Message('note_on', channel=0, note=76, velocity=0, time=4)\n",
      "Message('control_change', channel=0, control=64, value=0, time=16)\n",
      "Message('note_on', channel=0, note=54, velocity=0, time=0)\n",
      "Message('note_on', channel=0, note=69, velocity=0, time=13)\n",
      "Message('note_on', channel=0, note=57, velocity=75, time=103)\n",
      "Message('note_on', channel=0, note=72, velocity=80, time=15)\n",
      "Message('note_on', channel=0, note=57, velocity=0, time=17)\n",
      "Message('note_on', channel=0, note=72, velocity=0, time=10)\n",
      "Message('note_on', channel=0, note=71, velocity=55, time=2)\n",
      "Message('note_on', channel=0, note=71, velocity=0, time=33)\n",
      "Message('control_change', channel=0, control=64, value=31, time=72)\n",
      "Message('note_on', channel=0, note=47, velocity=75, time=1)\n",
      "Message('control_change', channel=0, control=64, value=69, time=18)\n",
      "Message('note_on', channel=0, note=74, velocity=80, time=3)\n",
      "Message('control_change', channel=0, control=64, value=79, time=16)\n",
      "Message('note_on', channel=0, note=47, velocity=0, time=3)\n",
      "Message('control_change', channel=0, control=64, value=87, time=17)\n",
      "Message('control_change', channel=0, control=64, value=92, time=17)\n",
      "Message('note_on', channel=0, note=50, velocity=85, time=76)\n",
      "Message('note_on', channel=0, note=50, velocity=0, time=29)\n",
      "Message('control_change', channel=0, control=64, value=88, time=105)\n",
      "Message('control_change', channel=0, control=64, value=66, time=18)\n",
      "Message('note_on', channel=0, note=55, velocity=86, time=4)\n",
      "Message('note_on', channel=0, note=64, velocity=79, time=9)\n",
      "Message('control_change', channel=0, control=64, value=0, time=4)\n",
      "Message('note_on', channel=0, note=74, velocity=0, time=15)\n",
      "Message('note_on', channel=0, note=64, velocity=0, time=15)\n",
      "Message('note_on', channel=0, note=67, velocity=83, time=137)\n",
      "Message('note_on', channel=0, note=67, velocity=0, time=25)\n",
      "Message('note_on', channel=0, note=55, velocity=0, time=38)\n",
      "Message('control_change', channel=0, control=64, value=50, time=69)\n",
      "Message('control_change', channel=0, control=64, value=65, time=18)\n",
      "Message('note_on', channel=0, note=45, velocity=78, time=0)\n",
      "Message('note_on', channel=0, note=72, velocity=83, time=3)\n",
      "Message('control_change', channel=0, control=64, value=63, time=17)\n",
      "Message('control_change', channel=0, control=64, value=61, time=19)\n",
      "Message('note_on', channel=0, note=45, velocity=0, time=7)\n",
      "Message('control_change', channel=0, control=64, value=60, time=87)\n",
      "Message('note_on', channel=0, note=48, velocity=79, time=7)\n",
      "Message('note_on', channel=0, note=48, velocity=0, time=44)\n",
      "Message('control_change', channel=0, control=64, value=58, time=82)\n",
      "Message('control_change', channel=0, control=64, value=56, time=20)\n",
      "Message('note_on', channel=0, note=50, velocity=76, time=10)\n",
      "Message('note_on', channel=0, note=66, velocity=84, time=4)\n",
      "Message('control_change', channel=0, control=64, value=53, time=4)\n",
      "Message('note_on', channel=0, note=72, velocity=0, time=11)\n",
      "Message('control_change', channel=0, control=64, value=49, time=6)\n",
      "Message('note_on', channel=0, note=50, velocity=0, time=11)\n",
      "Message('control_change', channel=0, control=64, value=41, time=9)\n",
      "Message('note_on', channel=0, note=66, velocity=0, time=1)\n",
      "Message('control_change', channel=0, control=64, value=0, time=18)\n",
      "Message('note_on', channel=0, note=54, velocity=82, time=88)\n",
      "Message('note_on', channel=0, note=69, velocity=87, time=7)\n",
      "Message('note_on', channel=0, note=54, velocity=0, time=25)\n",
      "Message('note_on', channel=0, note=69, velocity=0, time=15)\n",
      "Message('note_on', channel=0, note=55, velocity=77, time=112)\n",
      "Message('note_on', channel=0, note=71, velocity=78, time=9)\n",
      "Message('control_change', channel=0, control=64, value=57, time=8)\n",
      "Message('note_on', channel=0, note=72, velocity=74, time=6)\n",
      "Message('control_change', channel=0, control=64, value=83, time=13)\n",
      "Message('note_on', channel=0, note=55, velocity=0, time=9)\n",
      "Message('note_on', channel=0, note=72, velocity=0, time=4)\n",
      "Message('control_change', channel=0, control=64, value=100, time=3)\n",
      "Message('control_change', channel=0, control=64, value=113, time=21)\n",
      "Message('control_change', channel=0, control=64, value=120, time=20)\n",
      "Message('note_on', channel=0, note=50, velocity=79, time=54)\n",
      "Message('note_on', channel=0, note=50, velocity=0, time=52)\n",
      "Message('note_on', channel=0, note=71, velocity=0, time=85)\n",
      "Message('note_on', channel=0, note=47, velocity=77, time=28)\n",
      "Message('note_on', channel=0, note=67, velocity=85, time=8)\n",
      "Message('control_change', channel=0, control=64, value=109, time=14)\n",
      "Message('control_change', channel=0, control=64, value=77, time=19)\n",
      "Message('note_on', channel=0, note=47, velocity=0, time=3)\n",
      "Message('note_on', channel=0, note=67, velocity=0, time=3)\n",
      "Message('control_change', channel=0, control=64, value=0, time=13)\n",
      "Message('note_on', channel=0, note=50, velocity=80, time=91)\n",
      "Message('note_on', channel=0, note=71, velocity=88, time=10)\n",
      "Message('note_on', channel=0, note=50, velocity=0, time=20)\n",
      "Message('note_on', channel=0, note=71, velocity=0, time=18)\n",
      "Message('note_on', channel=0, note=55, velocity=74, time=104)\n",
      "Message('note_on', channel=0, note=74, velocity=88, time=10)\n",
      "Message('note_on', channel=0, note=55, velocity=0, time=31)\n",
      "Message('note_on', channel=0, note=74, velocity=0, time=18)\n",
      "Message('note_on', channel=0, note=50, velocity=78, time=81)\n",
      "Message('note_on', channel=0, note=71, velocity=87, time=14)\n",
      "Message('note_on', channel=0, note=50, velocity=0, time=20)\n",
      "Message('note_on', channel=0, note=71, velocity=0, time=23)\n",
      "Message('note_on', channel=0, note=47, velocity=82, time=97)\n",
      "Message('note_on', channel=0, note=79, velocity=88, time=17)\n",
      "Message('note_on', channel=0, note=47, velocity=0, time=17)\n",
      "Message('control_change', channel=0, control=64, value=51, time=20)\n",
      "Message('note_on', channel=0, note=79, velocity=0, time=8)\n",
      "Message('control_change', channel=0, control=64, value=71, time=12)\n",
      "Message('control_change', channel=0, control=64, value=80, time=16)\n",
      "Message('control_change', channel=0, control=64, value=88, time=21)\n",
      "Message('control_change', channel=0, control=64, value=96, time=17)\n",
      "Message('control_change', channel=0, control=64, value=103, time=21)\n",
      "Message('note_on', channel=0, note=43, velocity=87, time=10)\n",
      "Message('control_change', channel=0, control=64, value=107, time=5)\n",
      "Message('note_on', channel=0, note=43, velocity=0, time=32)\n",
      "Message('control_change', channel=0, control=64, value=112, time=80)\n",
      "Message('control_change', channel=0, control=64, value=117, time=19)\n",
      "Message('control_change', channel=0, control=64, value=124, time=20)\n",
      "Message('note_on', channel=0, note=72, velocity=92, time=19)\n",
      "Message('note_on', channel=0, note=50, velocity=85, time=4)\n",
      "Message('note_on', channel=0, note=72, velocity=0, time=49)\n",
      "Message('control_change', channel=0, control=64, value=99, time=3)\n",
      "Message('note_on', channel=0, note=71, velocity=82, time=13)\n",
      "Message('control_change', channel=0, control=64, value=32, time=5)\n",
      "Message('control_change', channel=0, control=64, value=0, time=18)\n",
      "Message('note_on', channel=0, note=72, velocity=82, time=24)\n",
      "Message('note_on', channel=0, note=72, velocity=0, time=75)\n",
      "Message('note_on', channel=0, note=38, velocity=82, time=189)\n",
      "Message('note_on', channel=0, note=69, velocity=76, time=6)\n",
      "Message('note_on', channel=0, note=71, velocity=0, time=4)\n",
      "Message('note_on', channel=0, note=67, velocity=78, time=1)\n",
      "Message('note_on', channel=0, note=50, velocity=0, time=11)\n",
      "Message('note_on', channel=0, note=67, velocity=0, time=15)\n",
      "Message('note_on', channel=0, note=69, velocity=0, time=0)\n",
      "Message('note_on', channel=0, note=38, velocity=0, time=1)\n",
      "Message('control_change', channel=0, control=67, value=0, time=165)\n",
      "Message('note_on', channel=0, note=67, velocity=91, time=9)\n",
      "Message('note_on', channel=0, note=67, velocity=0, time=40)\n",
      "Message('note_on', channel=0, note=43, velocity=77, time=220)\n",
      "Message('note_on', channel=0, note=67, velocity=86, time=33)\n",
      "Message('note_on', channel=0, note=47, velocity=76, time=518)\n",
      "Message('note_on', channel=0, note=47, velocity=0, time=52)\n",
      "Message('note_on', channel=0, note=50, velocity=79, time=288)\n",
      "Message('note_on', channel=0, note=50, velocity=0, time=49)\n",
      "Message('note_on', channel=0, note=55, velocity=67, time=482)\n",
      "Message('control_change', channel=0, control=64, value=35, time=152)\n",
      "Message('control_change', channel=0, control=64, value=47, time=18)\n",
      "Message('control_change', channel=0, control=64, value=53, time=20)\n",
      "Message('control_change', channel=0, control=64, value=57, time=18)\n",
      "Message('control_change', channel=0, control=64, value=62, time=19)\n",
      "Message('control_change', channel=0, control=64, value=68, time=19)\n",
      "Message('control_change', channel=0, control=64, value=73, time=19)\n",
      "Message('control_change', channel=0, control=64, value=79, time=20)\n",
      "Message('control_change', channel=0, control=64, value=85, time=19)\n",
      "Message('control_change', channel=0, control=64, value=94, time=18)\n",
      "Message('control_change', channel=0, control=64, value=104, time=20)\n",
      "Message('control_change', channel=0, control=64, value=115, time=17)\n",
      "Message('control_change', channel=0, control=64, value=126, time=19)\n",
      "Message('note_on', channel=0, note=43, velocity=0, time=1361)\n",
      "Message('control_change', channel=0, control=64, value=120, time=332)\n",
      "Message('control_change', channel=0, control=64, value=114, time=37)\n",
      "Message('note_on', channel=0, note=55, velocity=0, time=33)\n",
      "Message('control_change', channel=0, control=64, value=105, time=3)\n",
      "Message('control_change', channel=0, control=64, value=98, time=19)\n",
      "Message('note_on', channel=0, note=67, velocity=0, time=4)\n",
      "Message('control_change', channel=0, control=64, value=90, time=17)\n",
      "Message('control_change', channel=0, control=64, value=83, time=18)\n",
      "Message('control_change', channel=0, control=64, value=78, time=20)\n",
      "Message('control_change', channel=0, control=64, value=73, time=19)\n",
      "Message('control_change', channel=0, control=64, value=70, time=18)\n",
      "Message('control_change', channel=0, control=64, value=68, time=92)\n",
      "Message('control_change', channel=0, control=64, value=67, time=20)\n",
      "Message('control_change', channel=0, control=67, value=8, time=1)\n",
      "Message('control_change', channel=0, control=64, value=65, time=37)\n",
      "Message('control_change', channel=0, control=64, value=63, time=19)\n",
      "Message('control_change', channel=0, control=64, value=62, time=35)\n",
      "Message('control_change', channel=0, control=64, value=61, time=18)\n",
      "Message('control_change', channel=0, control=64, value=57, time=39)\n",
      "Message('control_change', channel=0, control=64, value=55, time=18)\n",
      "Message('control_change', channel=0, control=64, value=53, time=39)\n",
      "Message('control_change', channel=0, control=64, value=50, time=55)\n",
      "Message('control_change', channel=0, control=64, value=48, time=38)\n",
      "Message('control_change', channel=0, control=64, value=46, time=19)\n",
      "Message('control_change', channel=0, control=64, value=43, time=19)\n",
      "Message('control_change', channel=0, control=64, value=36, time=19)\n",
      "Message('control_change', channel=0, control=64, value=27, time=20)\n",
      "Message('control_change', channel=0, control=64, value=22, time=16)\n",
      "Message('control_change', channel=0, control=64, value=18, time=20)\n",
      "Message('control_change', channel=0, control=64, value=13, time=19)\n",
      "Message('control_change', channel=0, control=64, value=9, time=20)\n",
      "Message('control_change', channel=0, control=64, value=0, time=16)\n",
      "Message('control_change', channel=0, control=64, value=9, time=602)\n",
      "Message('control_change', channel=0, control=64, value=15, time=39)\n",
      "Message('control_change', channel=0, control=64, value=19, time=37)\n",
      "Message('control_change', channel=0, control=64, value=23, time=150)\n",
      "Message('note_on', channel=0, note=74, velocity=54, time=597)\n",
      "Message('control_change', channel=0, control=64, value=18, time=208)\n",
      "Message('control_change', channel=0, control=64, value=11, time=19)\n",
      "Message('control_change', channel=0, control=64, value=0, time=20)\n",
      "Message('note_on', channel=0, note=71, velocity=59, time=57)\n",
      "Message('note_on', channel=0, note=74, velocity=0, time=6)\n",
      "Message('control_change', channel=0, control=64, value=28, time=163)\n",
      "Message('control_change', channel=0, control=64, value=52, time=19)\n",
      "Message('note_on', channel=0, note=71, velocity=0, time=15)\n",
      "Message('control_change', channel=0, control=64, value=66, time=2)\n",
      "Message('control_change', channel=0, control=64, value=74, time=19)\n",
      "Message('control_change', channel=0, control=64, value=80, time=21)\n",
      "Message('control_change', channel=0, control=64, value=84, time=18)\n",
      "Message('control_change', channel=0, control=64, value=87, time=19)\n",
      "Message('control_change', channel=0, control=64, value=92, time=40)\n",
      "Message('control_change', channel=0, control=64, value=97, time=17)\n",
      "Message('control_change', channel=0, control=64, value=101, time=17)\n",
      "Message('note_on', channel=0, note=69, velocity=61, time=260)\n",
      "Message('control_change', channel=0, control=64, value=92, time=26)\n",
      "Message('control_change', channel=0, control=64, value=77, time=17)\n",
      "Message('control_change', channel=0, control=64, value=61, time=17)\n",
      "Message('control_change', channel=0, control=64, value=40, time=22)\n",
      "Message('control_change', channel=0, control=64, value=23, time=16)\n",
      "Message('note_on', channel=0, note=67, velocity=48, time=240)\n",
      "Message('note_on', channel=0, note=69, velocity=0, time=5)\n",
      "Message('control_change', channel=0, control=64, value=27, time=205)\n",
      "Message('control_change', channel=0, control=64, value=32, time=115)\n",
      "Message('note_on', channel=0, note=62, velocity=54, time=326)\n",
      "Message('control_change', channel=0, control=64, value=26, time=255)\n",
      "Message('note_on', channel=0, note=62, velocity=0, time=47)\n",
      "Message('control_change', channel=0, control=64, value=9, time=7)\n",
      "Message('control_change', channel=0, control=64, value=0, time=21)\n",
      "Message('note_on', channel=0, note=59, velocity=60, time=16)\n",
      "Message('control_change', channel=0, control=64, value=34, time=117)\n",
      "Message('control_change', channel=0, control=64, value=55, time=19)\n",
      "Message('control_change', channel=0, control=64, value=67, time=19)\n",
      "Message('control_change', channel=0, control=64, value=75, time=17)\n",
      "Message('note_on', channel=0, note=59, velocity=0, time=2)\n",
      "Message('control_change', channel=0, control=64, value=82, time=18)\n",
      "Message('control_change', channel=0, control=64, value=88, time=19)\n",
      "Message('control_change', channel=0, control=64, value=92, time=19)\n",
      "Message('control_change', channel=0, control=64, value=88, time=58)\n",
      "Message('control_change', channel=0, control=64, value=85, time=19)\n",
      "Message('control_change', channel=0, control=64, value=81, time=17)\n",
      "Message('control_change', channel=0, control=64, value=78, time=38)\n",
      "Message('control_change', channel=0, control=64, value=76, time=19)\n",
      "Message('control_change', channel=0, control=64, value=73, time=17)\n",
      "Message('control_change', channel=0, control=64, value=70, time=19)\n",
      "Message('control_change', channel=0, control=64, value=68, time=20)\n",
      "Message('control_change', channel=0, control=64, value=67, time=37)\n",
      "Message('control_change', channel=0, control=64, value=65, time=40)\n",
      "Message('control_change', channel=0, control=64, value=63, time=18)\n",
      "Message('control_change', channel=0, control=64, value=62, time=20)\n",
      "Message('control_change', channel=0, control=64, value=61, time=17)\n",
      "Message('control_change', channel=0, control=64, value=60, time=21)\n",
      "Message('control_change', channel=0, control=64, value=57, time=37)\n",
      "Message('control_change', channel=0, control=64, value=55, time=16)\n",
      "Message('note_on', channel=0, note=57, velocity=46, time=8)\n",
      "Message('control_change', channel=0, control=64, value=53, time=12)\n",
      "Message('control_change', channel=0, control=64, value=50, time=19)\n",
      "Message('control_change', channel=0, control=64, value=48, time=19)\n",
      "Message('control_change', channel=0, control=64, value=44, time=35)\n",
      "Message('control_change', channel=0, control=64, value=42, time=19)\n",
      "Message('control_change', channel=0, control=64, value=40, time=76)\n",
      "Message('note_on', channel=0, note=57, velocity=0, time=199)\n",
      "Message('note_on', channel=0, note=55, velocity=45, time=14)\n",
      "Message('control_change', channel=0, control=64, value=36, time=162)\n",
      "Message('control_change', channel=0, control=64, value=29, time=95)\n",
      "Message('control_change', channel=0, control=64, value=11, time=20)\n",
      "Message('control_change', channel=0, control=64, value=0, time=19)\n",
      "Message('control_change', channel=0, control=64, value=11, time=95)\n",
      "Message('control_change', channel=0, control=64, value=33, time=18)\n",
      "Message('control_change', channel=0, control=64, value=46, time=20)\n",
      "Message('control_change', channel=0, control=64, value=56, time=19)\n",
      "Message('control_change', channel=0, control=64, value=62, time=19)\n",
      "Message('control_change', channel=0, control=64, value=67, time=16)\n",
      "Message('control_change', channel=0, control=64, value=69, time=21)\n",
      "Message('note_on', channel=0, note=69, velocity=64, time=142)\n",
      "Message('note_on', channel=0, note=54, velocity=56, time=14)\n",
      "Message('note_on', channel=0, note=55, velocity=0, time=15)\n",
      "Message('note_on', channel=0, note=67, velocity=0, time=46)\n",
      "Message('control_change', channel=0, control=64, value=72, time=4)\n",
      "Message('control_change', channel=0, control=64, value=75, time=37)\n",
      "Message('note_on', channel=0, note=54, velocity=0, time=19)\n",
      "Message('control_change', channel=0, control=64, value=78, time=2)\n",
      "Message('control_change', channel=0, control=64, value=81, time=17)\n",
      "Message('control_change', channel=0, control=64, value=84, time=20)\n",
      "Message('control_change', channel=0, control=64, value=88, time=19)\n",
      "Message('control_change', channel=0, control=64, value=93, time=38)\n",
      "Message('note_on', channel=0, note=71, velocity=72, time=89)\n",
      "Message('note_on', channel=0, note=69, velocity=0, time=23)\n",
      "Message('control_change', channel=0, control=64, value=80, time=1)\n",
      "Message('note_on', channel=0, note=55, velocity=57, time=3)\n",
      "Message('control_change', channel=0, control=64, value=66, time=17)\n",
      "Message('control_change', channel=0, control=64, value=50, time=18)\n",
      "Message('control_change', channel=0, control=64, value=41, time=19)\n",
      "Message('note_on', channel=0, note=55, velocity=0, time=68)\n",
      "Message('note_on', channel=0, note=59, velocity=56, time=2)\n",
      "Message('note_on', channel=0, note=59, velocity=0, time=110)\n",
      "Message('note_on', channel=0, note=62, velocity=59, time=20)\n",
      "Message('note_on', channel=0, note=62, velocity=0, time=123)\n",
      "Message('note_on', channel=0, note=67, velocity=49, time=21)\n",
      "Message('note_on', channel=0, note=67, velocity=0, time=72)\n",
      "Message('note_on', channel=0, note=71, velocity=0, time=62)\n",
      "Message('note_on', channel=0, note=69, velocity=59, time=32)\n",
      "Message('note_on', channel=0, note=66, velocity=52, time=5)\n",
      "Message('control_change', channel=0, control=67, value=12, time=104)\n",
      "Message('control_change', channel=0, control=67, value=16, time=170)\n",
      "Message('control_change', channel=0, control=67, value=20, time=113)\n",
      "Message('control_change', channel=0, control=67, value=24, time=94)\n",
      "Message('control_change', channel=0, control=64, value=43, time=38)\n",
      "Message('control_change', channel=0, control=67, value=28, time=95)\n",
      "Message('note_on', channel=0, note=45, velocity=53, time=286)\n",
      "Message('note_on', channel=0, note=45, velocity=0, time=322)\n",
      "Message('note_on', channel=0, note=42, velocity=60, time=40)\n",
      "Message('control_change', channel=0, control=64, value=40, time=9)\n",
      "Message('control_change', channel=0, control=64, value=29, time=20)\n",
      "Message('control_change', channel=0, control=64, value=0, time=18)\n",
      "Message('note_on', channel=0, note=42, velocity=0, time=146)\n",
      "Message('control_change', channel=0, control=64, value=32, time=3)\n",
      "Message('control_change', channel=0, control=64, value=55, time=20)\n",
      "Message('control_change', channel=0, control=64, value=65, time=19)\n",
      "Message('control_change', channel=0, control=64, value=71, time=19)\n",
      "Message('control_change', channel=0, control=64, value=73, time=20)\n",
      "Message('control_change', channel=0, control=64, value=71, time=76)\n",
      "Message('control_change', channel=0, control=64, value=69, time=75)\n",
      "Message('control_change', channel=0, control=64, value=68, time=73)\n",
      "Message('control_change', channel=0, control=64, value=67, time=57)\n",
      "Message('control_change', channel=0, control=64, value=66, time=75)\n",
      "Message('note_on', channel=0, note=40, velocity=43, time=15)\n",
      "Message('control_change', channel=0, control=64, value=65, time=4)\n",
      "Message('control_change', channel=0, control=64, value=63, time=19)\n",
      "Message('control_change', channel=0, control=64, value=62, time=32)\n",
      "Message('control_change', channel=0, control=64, value=61, time=20)\n",
      "Message('control_change', channel=0, control=64, value=60, time=19)\n",
      "Message('control_change', channel=0, control=64, value=58, time=36)\n",
      "Message('control_change', channel=0, control=64, value=55, time=39)\n",
      "Message('control_change', channel=0, control=64, value=53, time=18)\n",
      "Message('control_change', channel=0, control=64, value=50, time=37)\n",
      "Message('control_change', channel=0, control=64, value=48, time=19)\n",
      "Message('control_change', channel=0, control=64, value=44, time=19)\n",
      "Message('control_change', channel=0, control=64, value=36, time=19)\n",
      "Message('control_change', channel=0, control=64, value=19, time=20)\n",
      "Message('control_change', channel=0, control=64, value=0, time=19)\n",
      "Message('note_on', channel=0, note=38, velocity=34, time=116)\n",
      "Message('note_on', channel=0, note=40, velocity=0, time=11)\n",
      "Message('control_change', channel=0, control=64, value=28, time=83)\n",
      "Message('control_change', channel=0, control=64, value=48, time=16)\n",
      "Message('control_change', channel=0, control=64, value=62, time=20)\n",
      "Message('control_change', channel=0, control=64, value=72, time=18)\n",
      "Message('control_change', channel=0, control=64, value=81, time=18)\n",
      "Message('control_change', channel=0, control=64, value=89, time=19)\n",
      "Message('control_change', channel=0, control=64, value=96, time=19)\n",
      "Message('note_on', channel=0, note=66, velocity=0, time=2)\n",
      "Message('note_on', channel=0, note=69, velocity=0, time=1)\n",
      "Message('control_change', channel=0, control=64, value=101, time=17)\n",
      "Message('control_change', channel=0, control=64, value=105, time=18)\n",
      "Message('control_change', channel=0, control=64, value=110, time=37)\n",
      "Message('control_change', channel=0, control=64, value=106, time=297)\n",
      "Message('control_change', channel=0, control=64, value=100, time=39)\n",
      "Message('control_change', channel=0, control=64, value=94, time=19)\n",
      "Message('note_on', channel=0, note=71, velocity=66, time=1)\n",
      "Message('note_on', channel=0, note=38, velocity=0, time=4)\n",
      "Message('control_change', channel=0, control=64, value=88, time=15)\n",
      "Message('note_on', channel=0, note=50, velocity=48, time=16)\n",
      "Message('note_on', channel=0, note=67, velocity=48, time=1)\n",
      "Message('control_change', channel=0, control=64, value=82, time=1)\n",
      "Message('control_change', channel=0, control=64, value=77, time=20)\n",
      "Message('control_change', channel=0, control=64, value=74, time=19)\n",
      "Message('control_change', channel=0, control=64, value=71, time=19)\n",
      "Message('control_change', channel=0, control=64, value=68, time=36)\n",
      "Message('control_change', channel=0, control=64, value=66, time=20)\n",
      "Message('control_change', channel=0, control=64, value=65, time=76)\n",
      "Message('control_change', channel=0, control=64, value=63, time=37)\n",
      "Message('control_change', channel=0, control=64, value=61, time=19)\n",
      "Message('note_on', channel=0, note=67, velocity=0, time=3)\n",
      "Message('control_change', channel=0, control=64, value=59, time=16)\n",
      "Message('control_change', channel=0, control=64, value=56, time=18)\n",
      "Message('note_on', channel=0, note=50, velocity=0, time=8)\n",
      "Message('control_change', channel=0, control=64, value=46, time=12)\n",
      "Message('note_on', channel=0, note=72, velocity=73, time=4)\n",
      "Message('note_on', channel=0, note=71, velocity=0, time=4)\n",
      "Message('note_on', channel=0, note=48, velocity=50, time=8)\n",
      "Message('control_change', channel=0, control=64, value=11, time=3)\n",
      "Message('note_on', channel=0, note=69, velocity=61, time=0)\n",
      "Message('control_change', channel=0, control=64, value=0, time=18)\n",
      "Message('control_change', channel=0, control=64, value=18, time=150)\n",
      "Message('control_change', channel=0, control=64, value=32, time=21)\n",
      "Message('control_change', channel=0, control=64, value=43, time=19)\n",
      "Message('control_change', channel=0, control=64, value=49, time=17)\n",
      "Message('control_change', channel=0, control=64, value=52, time=19)\n",
      "Message('control_change', channel=0, control=64, value=55, time=39)\n",
      "Message('control_change', channel=0, control=64, value=48, time=336)\n",
      "Message('note_on', channel=0, note=47, velocity=53, time=7)\n",
      "Message('note_on', channel=0, note=74, velocity=71, time=5)\n",
      "Message('control_change', channel=0, control=64, value=25, time=7)\n",
      "Message('note_on', channel=0, note=72, velocity=0, time=6)\n",
      "Message('control_change', channel=0, control=64, value=0, time=14)\n",
      "Message('note_on', channel=0, note=48, velocity=0, time=1)\n",
      "Message('control_change', channel=0, control=64, value=38, time=147)\n",
      "Message('control_change', channel=0, control=64, value=54, time=20)\n",
      "Message('control_change', channel=0, control=64, value=62, time=18)\n",
      "Message('control_change', channel=0, control=64, value=68, time=20)\n",
      "Message('control_change', channel=0, control=64, value=70, time=19)\n",
      "Message('control_change', channel=0, control=64, value=74, time=38)\n",
      "Message('control_change', channel=0, control=64, value=77, time=36)\n",
      "Message('control_change', channel=0, control=64, value=79, time=38)\n",
      "Message('control_change', channel=0, control=64, value=82, time=39)\n",
      "Message('control_change', channel=0, control=64, value=84, time=19)\n",
      "Message('control_change', channel=0, control=64, value=87, time=37)\n",
      "Message('control_change', channel=0, control=64, value=85, time=112)\n",
      "Message('control_change', channel=0, control=64, value=76, time=20)\n",
      "Message('control_change', channel=0, control=64, value=60, time=19)\n",
      "Message('control_change', channel=0, control=64, value=0, time=20)\n",
      "Message('note_on', channel=0, note=52, velocity=55, time=5)\n",
      "Message('note_on', channel=0, note=67, velocity=67, time=23)\n",
      "Message('note_on', channel=0, note=69, velocity=0, time=13)\n",
      "Message('note_on', channel=0, note=74, velocity=0, time=22)\n",
      "Message('control_change', channel=0, control=64, value=38, time=12)\n",
      "Message('control_change', channel=0, control=64, value=56, time=18)\n",
      "Message('control_change', channel=0, control=64, value=66, time=21)\n",
      "Message('control_change', channel=0, control=64, value=73, time=18)\n",
      "Message('control_change', channel=0, control=64, value=78, time=17)\n",
      "Message('control_change', channel=0, control=64, value=82, time=20)\n",
      "Message('control_change', channel=0, control=64, value=86, time=18)\n",
      "Message('note_on', channel=0, note=47, velocity=0, time=29)\n",
      "Message('control_change', channel=0, control=64, value=91, time=23)\n",
      "Message('control_change', channel=0, control=64, value=95, time=77)\n",
      "Message('note_on', channel=0, note=79, velocity=78, time=25)\n",
      "Message('control_change', channel=0, control=64, value=91, time=314)\n",
      "Message('note_on', channel=0, note=76, velocity=71, time=12)\n",
      "Message('control_change', channel=0, control=64, value=83, time=9)\n",
      "Message('note_on', channel=0, note=48, velocity=52, time=0)\n",
      "Message('note_on', channel=0, note=79, velocity=0, time=0)\n",
      "Message('control_change', channel=0, control=64, value=63, time=18)\n",
      "Message('note_on', channel=0, note=52, velocity=0, time=15)\n",
      "Message('control_change', channel=0, control=64, value=0, time=2)\n",
      "Message('control_change', channel=0, control=64, value=26, time=76)\n",
      "Message('control_change', channel=0, control=64, value=58, time=20)\n",
      "Message('control_change', channel=0, control=64, value=72, time=19)\n",
      "Message('control_change', channel=0, control=64, value=82, time=19)\n",
      "Message('control_change', channel=0, control=64, value=92, time=19)\n",
      "Message('control_change', channel=0, control=64, value=101, time=19)\n",
      "Message('control_change', channel=0, control=64, value=110, time=17)\n",
      "Message('control_change', channel=0, control=64, value=115, time=20)\n",
      "Message('control_change', channel=0, control=64, value=119, time=279)\n",
      "Message('note_on', channel=0, note=74, velocity=68, time=100)\n",
      "Message('note_on', channel=0, note=45, velocity=54, time=4)\n",
      "Message('note_on', channel=0, note=76, velocity=0, time=7)\n",
      "Message('control_change', channel=0, control=64, value=105, time=22)\n",
      "Message('note_on', channel=0, note=48, velocity=0, time=8)\n",
      "Message('control_change', channel=0, control=64, value=81, time=11)\n",
      "Message('control_change', channel=0, control=67, value=32, time=3)\n",
      "Message('note_on', channel=0, note=74, velocity=0, time=11)\n",
      "Message('control_change', channel=0, control=64, value=53, time=3)\n",
      "Message('note_on', channel=0, note=72, velocity=65, time=18)\n",
      "Message('control_change', channel=0, control=64, value=18, time=1)\n",
      "Message('note_on', channel=0, note=45, velocity=0, time=12)\n",
      "Message('note_on', channel=0, note=48, velocity=34, time=25)\n",
      "Message('control_change', channel=0, control=64, value=29, time=1)\n",
      "Message('control_change', channel=0, control=64, value=34, time=18)\n",
      "Message('note_on', channel=0, note=74, velocity=70, time=3)\n",
      "Message('note_on', channel=0, note=72, velocity=0, time=4)\n",
      "Message('note_on', channel=0, note=72, velocity=54, time=59)\n",
      "Message('note_on', channel=0, note=74, velocity=0, time=5)\n",
      "Message('note_on', channel=0, note=47, velocity=59, time=51)\n",
      "Message('note_on', channel=0, note=48, velocity=0, time=9)\n",
      "Message('note_on', channel=0, note=47, velocity=0, time=131)\n",
      "Message('note_on', channel=0, note=45, velocity=54, time=5)\n",
      "Message('note_on', channel=0, note=45, velocity=0, time=119)\n",
      "Message('control_change', channel=0, control=67, value=36, time=12)\n",
      "Message('note_on', channel=0, note=67, velocity=0, time=4)\n",
      "Message('note_on', channel=0, note=66, velocity=63, time=24)\n",
      "Message('note_on', channel=0, note=50, velocity=39, time=19)\n",
      "Message('note_on', channel=0, note=71, velocity=64, time=312)\n",
      "Message('note_on', channel=0, note=72, velocity=0, time=2)\n",
      "Message('control_change', channel=0, control=64, value=28, time=316)\n",
      "Message('note_on', channel=0, note=71, velocity=0, time=10)\n",
      "Message('note_on', channel=0, note=72, velocity=59, time=4)\n",
      "Message('note_on', channel=0, note=50, velocity=0, time=1)\n",
      "Message('control_change', channel=0, control=64, value=13, time=4)\n",
      "Message('note_on', channel=0, note=38, velocity=41, time=3)\n",
      "Message('control_change', channel=0, control=64, value=0, time=14)\n",
      "Message('note_on', channel=0, note=72, velocity=0, time=95)\n",
      "Message('note_on', channel=0, note=69, velocity=66, time=10)\n",
      "Message('control_change', channel=0, control=67, value=40, time=65)\n",
      "Message('control_change', channel=0, control=64, value=15, time=57)\n",
      "Message('control_change', channel=0, control=64, value=45, time=20)\n",
      "Message('control_change', channel=0, control=64, value=61, time=17)\n",
      "Message('note_on', channel=0, note=71, velocity=65, time=2)\n",
      "Message('control_change', channel=0, control=64, value=72, time=18)\n",
      "Message('control_change', channel=0, control=64, value=80, time=18)\n",
      "Message('note_on', channel=0, note=69, velocity=0, time=8)\n",
      "Message('control_change', channel=0, control=64, value=90, time=10)\n",
      "Message('note_on', channel=0, note=66, velocity=0, time=14)\n",
      "Message('control_change', channel=0, control=64, value=99, time=5)\n",
      "Message('control_change', channel=0, control=64, value=107, time=19)\n",
      "Message('control_change', channel=0, control=67, value=44, time=0)\n",
      "Message('note_on', channel=0, note=71, velocity=0, time=8)\n",
      "Message('control_change', channel=0, control=64, value=113, time=11)\n",
      "Message('control_change', channel=0, control=64, value=118, time=39)\n",
      "Message('note_on', channel=0, note=38, velocity=0, time=202)\n",
      "Message('control_change', channel=0, control=64, value=110, time=1)\n",
      "Message('note_on', channel=0, note=72, velocity=69, time=0)\n",
      "Message('note_on', channel=0, note=43, velocity=58, time=4)\n",
      "Message('control_change', channel=0, control=64, value=90, time=15)\n",
      "Message('note_on', channel=0, note=67, velocity=42, time=9)\n",
      "Message('control_change', channel=0, control=64, value=66, time=11)\n",
      "Message('control_change', channel=0, control=64, value=33, time=19)\n",
      "Message('control_change', channel=0, control=64, value=25, time=20)\n",
      "Message('control_change', channel=0, control=64, value=34, time=18)\n",
      "Message('control_change', channel=0, control=64, value=43, time=17)\n",
      "Message('control_change', channel=0, control=64, value=50, time=19)\n",
      "Message('control_change', channel=0, control=64, value=52, time=20)\n",
      "Message('note_on', channel=0, note=72, velocity=0, time=6)\n",
      "Message('note_on', channel=0, note=71, velocity=55, time=40)\n",
      "Message('note_on', channel=0, note=71, velocity=0, time=48)\n",
      "Message('note_on', channel=0, note=72, velocity=63, time=28)\n",
      "Message('control_change', channel=0, control=64, value=50, time=31)\n",
      "Message('note_on', channel=0, note=72, velocity=0, time=3)\n",
      "Message('note_on', channel=0, note=71, velocity=72, time=5)\n",
      "Message('control_change', channel=0, control=64, value=48, time=81)\n",
      "Message('control_change', channel=0, control=64, value=45, time=36)\n",
      "Message('control_change', channel=0, control=64, value=42, time=21)\n",
      "Message('control_change', channel=0, control=64, value=34, time=37)\n",
      "Message('control_change', channel=0, control=64, value=28, time=19)\n",
      "Message('control_change', channel=0, control=64, value=19, time=20)\n",
      "Message('control_change', channel=0, control=64, value=0, time=18)\n",
      "Message('note_on', channel=0, note=47, velocity=56, time=82)\n",
      "Message('note_on', channel=0, note=43, velocity=0, time=39)\n",
      "Message('control_change', channel=0, control=64, value=18, time=11)\n",
      "Message('control_change', channel=0, control=64, value=36, time=18)\n",
      "Message('control_change', channel=0, control=64, value=48, time=20)\n",
      "Message('control_change', channel=0, control=64, value=55, time=19)\n",
      "Message('note_on', channel=0, note=47, velocity=0, time=6)\n",
      "Message('control_change', channel=0, control=64, value=58, time=13)\n",
      "Message('control_change', channel=0, control=64, value=62, time=20)\n",
      "Message('control_change', channel=0, control=64, value=65, time=18)\n",
      "Message('control_change', channel=0, control=64, value=66, time=17)\n",
      "Message('control_change', channel=0, control=64, value=67, time=20)\n",
      "Message('note_on', channel=0, note=71, velocity=0, time=160)\n",
      "Message('note_on', channel=0, note=69, velocity=57, time=2)\n",
      "Message('note_on', channel=0, note=67, velocity=0, time=10)\n",
      "Message('control_change', channel=0, control=64, value=66, time=127)\n",
      "Message('control_change', channel=0, control=64, value=65, time=152)\n",
      "Message('control_change', channel=0, control=64, value=62, time=18)\n",
      "Message('control_change', channel=0, control=64, value=55, time=18)\n",
      "Message('control_change', channel=0, control=64, value=32, time=19)\n",
      "Message('note_on', channel=0, note=50, velocity=45, time=19)\n",
      "Message('control_change', channel=0, control=64, value=0, time=1)\n",
      "Message('note_on', channel=0, note=69, velocity=0, time=0)\n",
      "Message('note_on', channel=0, note=67, velocity=48, time=8)\n",
      "Message('control_change', channel=0, control=64, value=33, time=104)\n",
      "Message('control_change', channel=0, control=64, value=59, time=20)\n",
      "Message('control_change', channel=0, control=64, value=71, time=19)\n",
      "Message('note_on', channel=0, note=50, velocity=0, time=8)\n",
      "Message('control_change', channel=0, control=64, value=81, time=11)\n",
      "Message('control_change', channel=0, control=64, value=91, time=18)\n",
      "Message('control_change', channel=0, control=64, value=102, time=18)\n",
      "Message('note_on', channel=0, note=67, velocity=0, time=13)\n",
      "Message('control_change', channel=0, control=64, value=111, time=7)\n",
      "Message('control_change', channel=0, control=64, value=117, time=18)\n",
      "Message('control_change', channel=0, control=64, value=123, time=37)\n",
      "Message('note_on', channel=0, note=59, velocity=39, time=452)\n",
      "Message('note_on', channel=0, note=55, velocity=37, time=50)\n",
      "Message('note_on', channel=0, note=62, velocity=50, time=21)\n",
      "Message('control_change', channel=0, control=64, value=118, time=2)\n",
      "Message('control_change', channel=0, control=64, value=110, time=38)\n",
      "Message('control_change', channel=0, control=64, value=103, time=22)\n",
      "Message('control_change', channel=0, control=64, value=95, time=17)\n",
      "Message('note_on', channel=0, note=67, velocity=51, time=3)\n",
      "Message('control_change', channel=0, control=64, value=83, time=16)\n",
      "Message('control_change', channel=0, control=64, value=68, time=18)\n",
      "Message('control_change', channel=0, control=64, value=47, time=19)\n",
      "Message('control_change', channel=0, control=64, value=9, time=20)\n",
      "Message('control_change', channel=0, control=64, value=0, time=18)\n",
      "Message('control_change', channel=0, control=64, value=9, time=74)\n",
      "Message('control_change', channel=0, control=64, value=30, time=21)\n",
      "Message('control_change', channel=0, control=64, value=47, time=18)\n",
      "Message('control_change', channel=0, control=64, value=60, time=20)\n",
      "Message('control_change', channel=0, control=64, value=68, time=18)\n",
      "Message('control_change', channel=0, control=64, value=74, time=18)\n",
      "Message('control_change', channel=0, control=64, value=79, time=19)\n",
      "Message('control_change', channel=0, control=64, value=83, time=21)\n",
      "Message('control_change', channel=0, control=64, value=88, time=17)\n",
      "Message('note_on', channel=0, note=59, velocity=0, time=9)\n",
      "Message('control_change', channel=0, control=64, value=93, time=9)\n",
      "Message('control_change', channel=0, control=64, value=97, time=20)\n",
      "Message('control_change', channel=0, control=64, value=102, time=19)\n",
      "Message('control_change', channel=0, control=64, value=106, time=17)\n",
      "Message('control_change', channel=0, control=64, value=110, time=21)\n",
      "Message('note_on', channel=0, note=62, velocity=0, time=8)\n",
      "Message('note_on', channel=0, note=67, velocity=0, time=9)\n",
      "Message('control_change', channel=0, control=64, value=116, time=21)\n",
      "Message('note_on', channel=0, note=55, velocity=0, time=449)\n",
      "Message('control_change', channel=0, control=64, value=112, time=113)\n",
      "Message('control_change', channel=0, control=64, value=102, time=20)\n",
      "Message('control_change', channel=0, control=64, value=90, time=18)\n",
      "Message('note_on', channel=0, note=71, velocity=75, time=10)\n",
      "Message('control_change', channel=0, control=64, value=83, time=7)\n",
      "Message('control_change', channel=0, control=64, value=86, time=40)\n",
      "Message('control_change', channel=0, control=64, value=93, time=38)\n",
      "Message('control_change', channel=0, control=64, value=97, time=18)\n",
      "Message('control_change', channel=0, control=64, value=102, time=38)\n",
      "Message('note_on', channel=0, note=71, velocity=0, time=86)\n",
      "Message('control_change', channel=0, control=64, value=107, time=45)\n",
      "Message('note_on', channel=0, note=74, velocity=82, time=65)\n",
      "Message('control_change', channel=0, control=64, value=96, time=13)\n",
      "Message('control_change', channel=0, control=64, value=76, time=17)\n",
      "Message('control_change', channel=0, control=64, value=48, time=19)\n",
      "Message('control_change', channel=0, control=64, value=27, time=19)\n",
      "Message('control_change', channel=0, control=67, value=40, time=1)\n",
      "Message('control_change', channel=0, control=64, value=37, time=17)\n",
      "Message('control_change', channel=0, control=64, value=56, time=20)\n",
      "Message('control_change', channel=0, control=64, value=69, time=19)\n",
      "Message('control_change', channel=0, control=64, value=80, time=33)\n",
      "Message('control_change', channel=0, control=64, value=93, time=19)\n",
      "Message('control_change', channel=0, control=64, value=108, time=19)\n",
      "Message('control_change', channel=0, control=64, value=122, time=19)\n",
      "Message('control_change', channel=0, control=64, value=127, time=19)\n",
      "Message('note_on', channel=0, note=74, velocity=0, time=19)\n",
      "Message('note_on', channel=0, note=79, velocity=80, time=396)\n",
      "Message('control_change', channel=0, control=64, value=114, time=38)\n",
      "Message('control_change', channel=0, control=64, value=80, time=19)\n",
      "Message('note_on', channel=0, note=78, velocity=82, time=10)\n",
      "Message('note_on', channel=0, note=79, velocity=0, time=2)\n",
      "Message('control_change', channel=0, control=64, value=36, time=6)\n",
      "Message('control_change', channel=0, control=64, value=0, time=20)\n",
      "Message('control_change', channel=0, control=64, value=23, time=19)\n",
      "Message('note_on', channel=0, note=78, velocity=0, time=13)\n",
      "Message('control_change', channel=0, control=64, value=50, time=3)\n",
      "Message('note_on', channel=0, note=79, velocity=80, time=16)\n",
      "Message('control_change', channel=0, control=64, value=65, time=3)\n",
      "Message('control_change', channel=0, control=64, value=74, time=22)\n",
      "Message('control_change', channel=0, control=64, value=80, time=18)\n",
      "Message('note_on', channel=0, note=43, velocity=58, time=68)\n",
      "Message('note_on', channel=0, note=45, velocity=66, time=146)\n",
      "Message('note_on', channel=0, note=43, velocity=0, time=3)\n",
      "Message('control_change', channel=0, control=64, value=78, time=61)\n",
      "Message('control_change', channel=0, control=64, value=74, time=38)\n",
      "Message('control_change', channel=0, control=64, value=71, time=20)\n",
      "Message('control_change', channel=0, control=64, value=69, time=19)\n",
      "Message('note_on', channel=0, note=47, velocity=62, time=10)\n",
      "Message('note_on', channel=0, note=45, velocity=0, time=6)\n",
      "Message('control_change', channel=0, control=64, value=68, time=78)\n",
      "Message('control_change', channel=0, control=64, value=67, time=19)\n",
      "Message('note_on', channel=0, note=47, velocity=0, time=46)\n",
      "Message('note_on', channel=0, note=48, velocity=66, time=2)\n",
      "Message('note_on', channel=0, note=48, velocity=0, time=113)\n",
      "Message('note_on', channel=0, note=50, velocity=69, time=28)\n",
      "Message('note_on', channel=0, note=52, velocity=72, time=142)\n",
      "Message('note_on', channel=0, note=81, velocity=78, time=8)\n",
      "Message('note_on', channel=0, note=50, velocity=0, time=18)\n",
      "Message('note_on', channel=0, note=79, velocity=0, time=16)\n",
      "Message('control_change', channel=0, control=64, value=65, time=100)\n",
      "Message('note_on', channel=0, note=54, velocity=64, time=13)\n",
      "Message('control_change', channel=0, control=64, value=64, time=5)\n",
      "Message('note_on', channel=0, note=52, velocity=0, time=5)\n",
      "Message('control_change', channel=0, control=64, value=62, time=12)\n",
      "Message('control_change', channel=0, control=64, value=60, time=19)\n",
      "Message('control_change', channel=0, control=64, value=56, time=21)\n",
      "Message('control_change', channel=0, control=64, value=51, time=18)\n",
      "Message('control_change', channel=0, control=64, value=43, time=19)\n",
      "Message('control_change', channel=0, control=64, value=29, time=19)\n",
      "Message('control_change', channel=0, control=64, value=0, time=19)\n",
      "Message('note_on', channel=0, note=55, velocity=67, time=23)\n",
      "Message('note_on', channel=0, note=54, velocity=0, time=22)\n",
      "Message('note_on', channel=0, note=83, velocity=72, time=6)\n",
      "Message('note_on', channel=0, note=81, velocity=0, time=40)\n",
      "Message('note_on', channel=0, note=55, velocity=0, time=93)\n",
      "Message('note_on', channel=0, note=59, velocity=59, time=10)\n",
      "Message('control_change', channel=0, control=64, value=40, time=49)\n",
      "Message('control_change', channel=0, control=64, value=62, time=18)\n",
      "Message('control_change', channel=0, control=64, value=76, time=18)\n",
      "Message('note_on', channel=0, note=83, velocity=0, time=13)\n",
      "Message('control_change', channel=0, control=64, value=88, time=5)\n",
      "Message('control_change', channel=0, control=64, value=104, time=20)\n",
      "Message('note_on', channel=0, note=59, velocity=0, time=15)\n",
      "Message('control_change', channel=0, control=64, value=118, time=3)\n",
      "Message('note_on', channel=0, note=57, velocity=68, time=1)\n",
      "Message('control_change', channel=0, control=64, value=127, time=19)\n",
      "Message('note_on', channel=0, note=57, velocity=0, time=62)\n",
      "Message('note_on', channel=0, note=55, velocity=71, time=77)\n",
      "Message('note_on', channel=0, note=55, velocity=0, time=51)\n",
      "Message('note_on', channel=0, note=55, velocity=63, time=197)\n",
      "Message('control_change', channel=0, control=64, value=118, time=9)\n",
      "Message('note_on', channel=0, note=74, velocity=75, time=1)\n",
      "Message('control_change', channel=0, control=64, value=101, time=17)\n",
      "Message('note_on', channel=0, note=69, velocity=66, time=5)\n",
      "Message('note_on', channel=0, note=64, velocity=65, time=5)\n",
      "Message('control_change', channel=0, control=64, value=79, time=8)\n",
      "Message('control_change', channel=0, control=64, value=56, time=21)\n",
      "Message('control_change', channel=0, control=64, value=0, time=35)\n",
      "Message('note_on', channel=0, note=73, velocity=69, time=360)\n",
      "Message('note_on', channel=0, note=74, velocity=0, time=0)\n",
      "Message('control_change', channel=0, control=64, value=13, time=129)\n",
      "Message('control_change', channel=0, control=64, value=52, time=19)\n",
      "Message('note_on', channel=0, note=64, velocity=0, time=14)\n",
      "Message('control_change', channel=0, control=64, value=69, time=5)\n",
      "Message('note_on', channel=0, note=69, velocity=0, time=0)\n",
      "Message('control_change', channel=0, control=64, value=82, time=19)\n",
      "Message('control_change', channel=0, control=64, value=96, time=19)\n",
      "Message('control_change', channel=0, control=64, value=110, time=19)\n",
      "Message('note_on', channel=0, note=73, velocity=0, time=10)\n",
      "Message('control_change', channel=0, control=64, value=121, time=8)\n",
      "Message('control_change', channel=0, control=64, value=127, time=20)\n",
      "Message('note_on', channel=0, note=55, velocity=0, time=202)\n",
      "Message('note_on', channel=0, note=59, velocity=57, time=35)\n",
      "Message('control_change', channel=0, control=64, value=123, time=8)\n",
      "Message('control_change', channel=0, control=64, value=115, time=19)\n",
      "Message('control_change', channel=0, control=64, value=102, time=18)\n",
      "Message('control_change', channel=0, control=64, value=90, time=20)\n",
      "Message('control_change', channel=0, control=64, value=82, time=19)\n",
      "Message('control_change', channel=0, control=64, value=79, time=17)\n",
      "Message('note_on', channel=0, note=76, velocity=77, time=31)\n",
      "Message('note_on', channel=0, note=57, velocity=63, time=1)\n",
      "Message('note_on', channel=0, note=59, velocity=0, time=0)\n",
      "Message('control_change', channel=0, control=64, value=82, time=6)\n",
      "Message('control_change', channel=0, control=64, value=84, time=58)\n",
      "Message('control_change', channel=0, control=64, value=86, time=39)\n",
      "Message('note_on', channel=0, note=55, velocity=69, time=44)\n",
      "Message('note_on', channel=0, note=57, velocity=0, time=11)\n",
      "Message('note_on', channel=0, note=55, velocity=0, time=158)\n",
      "Message('control_change', channel=0, control=64, value=79, time=9)\n",
      "Message('note_on', channel=0, note=54, velocity=64, time=2)\n",
      "Message('note_on', channel=0, note=81, velocity=78, time=3)\n",
      "Message('control_change', channel=0, control=64, value=59, time=14)\n",
      "Message('note_on', channel=0, note=76, velocity=0, time=8)\n",
      "Message('control_change', channel=0, control=64, value=0, time=10)\n",
      "Message('note_on', channel=0, note=54, velocity=0, time=99)\n",
      "Message('note_on', channel=0, note=55, velocity=63, time=29)\n",
      "Message('control_change', channel=0, control=64, value=29, time=3)\n",
      "Message('control_change', channel=0, control=64, value=52, time=19)\n",
      "Message('control_change', channel=0, control=64, value=62, time=20)\n",
      "Message('control_change', channel=0, control=64, value=69, time=17)\n",
      "Message('control_change', channel=0, control=64, value=73, time=19)\n",
      "Message('control_change', channel=0, control=64, value=76, time=19)\n",
      "Message('control_change', channel=0, control=64, value=78, time=19)\n",
      "Message('note_on', channel=0, note=52, velocity=63, time=36)\n",
      "Message('control_change', channel=0, control=64, value=81, time=1)\n",
      "Message('control_change', channel=0, control=64, value=83, time=21)\n",
      "Message('note_on', channel=0, note=55, velocity=0, time=21)\n",
      "Message('control_change', channel=0, control=64, value=87, time=17)\n",
      "Message('control_change', channel=0, control=64, value=91, time=37)\n",
      "Message('note_on', channel=0, note=52, velocity=0, time=61)\n",
      "Message('control_change', channel=0, control=64, value=95, time=53)\n",
      "Message('control_change', channel=0, control=64, value=87, time=131)\n",
      "Message('control_change', channel=0, control=64, value=71, time=19)\n",
      "Message('control_change', channel=0, control=64, value=0, time=19)\n",
      "Message('note_on', channel=0, note=54, velocity=59, time=11)\n",
      "Message('note_on', channel=0, note=75, velocity=69, time=10)\n",
      "Message('note_on', channel=0, note=81, velocity=0, time=69)\n",
      "Message('control_change', channel=0, control=64, value=13, time=76)\n",
      "Message('note_on', channel=0, note=75, velocity=0, time=16)\n",
      "Message('control_change', channel=0, control=64, value=39, time=1)\n",
      "Message('control_change', channel=0, control=64, value=51, time=22)\n",
      "Message('note_on', channel=0, note=76, velocity=76, time=0)\n",
      "Message('control_change', channel=0, control=64, value=59, time=17)\n",
      "Message('control_change', channel=0, control=64, value=63, time=20)\n",
      "Message('control_change', channel=0, control=64, value=65, time=19)\n",
      "Message('control_change', channel=0, control=64, value=66, time=38)\n",
      "Message('note_on', channel=0, note=76, velocity=0, time=13)\n",
      "Message('control_change', channel=0, control=64, value=67, time=24)\n",
      "Message('note_on', channel=0, note=54, velocity=0, time=8)\n",
      "Message('note_on', channel=0, note=78, velocity=77, time=1)\n",
      "Message('control_change', channel=0, control=64, value=68, time=11)\n",
      "Message('note_on', channel=0, note=78, velocity=0, time=107)\n",
      "Message('note_on', channel=0, note=79, velocity=81, time=7)\n",
      "Message('control_change', channel=0, control=64, value=70, time=36)\n",
      "Message('control_change', channel=0, control=64, value=65, time=114)\n",
      "Message('note_on', channel=0, note=79, velocity=0, time=14)\n",
      "Message('control_change', channel=0, control=64, value=54, time=4)\n",
      "Message('note_on', channel=0, note=81, velocity=80, time=3)\n",
      "Message('note_on', channel=0, note=51, velocity=60, time=1)\n",
      "Message('control_change', channel=0, control=64, value=0, time=14)\n",
      "Message('note_on', channel=0, note=84, velocity=74, time=138)\n",
      "Message('note_on', channel=0, note=81, velocity=0, time=9)\n",
      "Message('control_change', channel=0, control=64, value=25, time=4)\n",
      "Message('control_change', channel=0, control=64, value=45, time=22)\n",
      "Message('control_change', channel=0, control=64, value=55, time=17)\n",
      "Message('control_change', channel=0, control=64, value=62, time=20)\n",
      "Message('control_change', channel=0, control=64, value=66, time=16)\n",
      "Message('control_change', channel=0, control=64, value=68, time=19)\n",
      "Message('note_on', channel=0, note=51, velocity=0, time=1)\n",
      "Message('note_on', channel=0, note=83, velocity=73, time=55)\n",
      "Message('note_on', channel=0, note=84, velocity=0, time=12)\n",
      "Message('note_on', channel=0, note=81, velocity=73, time=120)\n",
      "Message('note_on', channel=0, note=83, velocity=0, time=5)\n",
      "Message('control_change', channel=0, control=64, value=65, time=126)\n",
      "Message('control_change', channel=0, control=64, value=58, time=21)\n",
      "Message('note_on', channel=0, note=81, velocity=0, time=14)\n",
      "Message('control_change', channel=0, control=64, value=32, time=1)\n",
      "Message('note_on', channel=0, note=79, velocity=69, time=16)\n",
      "Message('control_change', channel=0, control=64, value=0, time=7)\n",
      "Message('note_on', channel=0, note=47, velocity=50, time=9)\n",
      "Message('note_on', channel=0, note=79, velocity=0, time=111)\n",
      "Message('control_change', channel=0, control=64, value=39, time=8)\n",
      "Message('note_on', channel=0, note=81, velocity=67, time=7)\n",
      "Message('control_change', channel=0, control=64, value=53, time=14)\n",
      "Message('control_change', channel=0, control=64, value=61, time=18)\n",
      "Message('control_change', channel=0, control=64, value=65, time=20)\n",
      "Message('control_change', channel=0, control=64, value=67, time=18)\n",
      "Message('control_change', channel=0, control=64, value=68, time=20)\n",
      "Message('note_on', channel=0, note=81, velocity=0, time=69)\n",
      "Message('note_on', channel=0, note=78, velocity=68, time=7)\n",
      "Message('control_change', channel=0, control=64, value=67, time=55)\n",
      "Message('control_change', channel=0, control=64, value=66, time=36)\n",
      "Message('note_on', channel=0, note=47, velocity=0, time=13)\n",
      "Message('control_change', channel=0, control=64, value=65, time=5)\n",
      "Message('control_change', channel=0, control=64, value=63, time=39)\n",
      "Message('control_change', channel=0, control=64, value=62, time=172)\n",
      "Message('control_change', channel=0, control=64, value=61, time=37)\n",
      "Message('note_on', channel=0, note=79, velocity=66, time=18)\n",
      "Message('control_change', channel=0, control=64, value=60, time=3)\n",
      "Message('note_on', channel=0, note=78, velocity=0, time=4)\n",
      "Message('control_change', channel=0, control=64, value=58, time=14)\n",
      "Message('control_change', channel=0, control=64, value=55, time=17)\n",
      "Message('control_change', channel=0, control=64, value=51, time=20)\n",
      "Message('control_change', channel=0, control=64, value=45, time=19)\n",
      "Message('control_change', channel=0, control=64, value=38, time=19)\n",
      "Message('control_change', channel=0, control=64, value=33, time=32)\n",
      "Message('note_on', channel=0, note=52, velocity=45, time=44)\n",
      "Message('control_change', channel=0, control=64, value=42, time=14)\n",
      "Message('control_change', channel=0, control=64, value=50, time=19)\n",
      "Message('control_change', channel=0, control=64, value=55, time=20)\n",
      "Message('control_change', channel=0, control=64, value=58, time=19)\n",
      "Message('note_on', channel=0, note=52, velocity=0, time=70)\n",
      "Message('note_on', channel=0, note=55, velocity=48, time=24)\n",
      "Message('note_on', channel=0, note=55, velocity=0, time=119)\n",
      "Message('note_on', channel=0, note=54, velocity=60, time=13)\n",
      "Message('note_on', channel=0, note=54, velocity=0, time=139)\n",
      "Message('note_on', channel=0, note=52, velocity=63, time=5)\n",
      "Message('note_on', channel=0, note=50, velocity=64, time=146)\n",
      "Message('note_on', channel=0, note=52, velocity=0, time=0)\n",
      "Message('note_on', channel=0, note=50, velocity=0, time=153)\n",
      "Message('note_on', channel=0, note=49, velocity=60, time=1)\n",
      "Message('note_on', channel=0, note=76, velocity=64, time=8)\n",
      "Message('note_on', channel=0, note=76, velocity=0, time=91)\n",
      "Message('note_on', channel=0, note=50, velocity=64, time=70)\n",
      "Message('note_on', channel=0, note=49, velocity=0, time=23)\n",
      "Message('control_change', channel=0, control=64, value=56, time=115)\n",
      "Message('note_on', channel=0, note=50, velocity=0, time=16)\n",
      "Message('control_change', channel=0, control=64, value=50, time=2)\n",
      "Message('note_on', channel=0, note=52, velocity=55, time=13)\n",
      "Message('control_change', channel=0, control=64, value=39, time=5)\n",
      "Message('note_on', channel=0, note=73, velocity=60, time=10)\n",
      "Message('control_change', channel=0, control=64, value=0, time=10)\n",
      "Message('control_change', channel=0, control=64, value=25, time=95)\n",
      "Message('control_change', channel=0, control=64, value=46, time=17)\n",
      "Message('note_on', channel=0, note=73, velocity=0, time=6)\n",
      "Message('control_change', channel=0, control=64, value=59, time=14)\n",
      "Message('note_on', channel=0, note=49, velocity=59, time=0)\n",
      "Message('note_on', channel=0, note=52, velocity=0, time=6)\n",
      "Message('control_change', channel=0, control=64, value=66, time=14)\n",
      "Message('control_change', channel=0, control=64, value=69, time=18)\n",
      "Message('note_on', channel=0, note=50, velocity=61, time=99)\n",
      "Message('note_on', channel=0, note=49, velocity=0, time=28)\n",
      "Message('note_on', channel=0, note=50, velocity=0, time=108)\n",
      "Message('note_on', channel=0, note=52, velocity=63, time=14)\n",
      "Message('control_change', channel=0, control=64, value=68, time=147)\n",
      "Message('control_change', channel=0, control=64, value=66, time=18)\n",
      "Message('control_change', channel=0, control=64, value=64, time=19)\n",
      "Message('note_on', channel=0, note=42, velocity=49, time=10)\n",
      "Message('note_on', channel=0, note=71, velocity=54, time=4)\n",
      "Message('control_change', channel=0, control=64, value=62, time=3)\n",
      "Message('control_change', channel=0, control=64, value=60, time=21)\n",
      "Message('control_change', channel=0, control=64, value=56, time=19)\n",
      "Message('control_change', channel=0, control=64, value=48, time=20)\n",
      "Message('note_on', channel=0, note=52, velocity=0, time=6)\n",
      "Message('control_change', channel=0, control=64, value=37, time=12)\n",
      "Message('control_change', channel=0, control=64, value=33, time=19)\n",
      "Message('note_on', channel=0, note=45, velocity=54, time=256)\n",
      "Message('note_on', channel=0, note=69, velocity=53, time=1)\n",
      "Message('note_on', channel=0, note=71, velocity=0, time=14)\n",
      "Message('note_on', channel=0, note=45, velocity=0, time=70)\n",
      "Message('control_change', channel=0, control=64, value=37, time=165)\n",
      "Message('note_on', channel=0, note=47, velocity=62, time=72)\n",
      "Message('note_on', channel=0, note=47, velocity=0, time=75)\n",
      "Message('note_on', channel=0, note=76, velocity=67, time=240)\n",
      "Message('note_on', channel=0, note=79, velocity=0, time=9)\n",
      "Message('note_on', channel=0, note=49, velocity=50, time=13)\n",
      "Message('control_change', channel=0, control=64, value=40, time=25)\n",
      "Message('note_on', channel=0, note=76, velocity=0, time=42)\n",
      "Message('note_on', channel=0, note=49, velocity=0, time=7)\n",
      "Message('control_change', channel=0, control=64, value=35, time=192)\n",
      "Message('control_change', channel=0, control=64, value=30, time=39)\n",
      "Message('control_change', channel=0, control=64, value=25, time=36)\n",
      "Message('note_on', channel=0, note=78, velocity=63, time=11)\n",
      "Message('note_on', channel=0, note=50, velocity=33, time=22)\n",
      "Message('control_change', channel=0, control=64, value=36, time=43)\n",
      "Message('control_change', channel=0, control=64, value=49, time=18)\n",
      "Message('control_change', channel=0, control=64, value=60, time=19)\n",
      "Message('control_change', channel=0, control=64, value=68, time=19)\n",
      "Message('control_change', channel=0, control=64, value=73, time=19)\n",
      "Message('control_change', channel=0, control=64, value=79, time=20)\n",
      "Message('note_on', channel=0, note=69, velocity=0, time=5)\n",
      "Message('note_on', channel=0, note=78, velocity=0, time=1)\n",
      "Message('control_change', channel=0, control=64, value=84, time=14)\n",
      "Message('control_change', channel=0, control=64, value=90, time=17)\n",
      "Message('control_change', channel=0, control=64, value=98, time=19)\n",
      "Message('control_change', channel=0, control=64, value=108, time=19)\n",
      "Message('control_change', channel=0, control=64, value=118, time=20)\n",
      "Message('control_change', channel=0, control=64, value=126, time=18)\n",
      "Message('note_on', channel=0, note=50, velocity=0, time=33)\n",
      "Message('note_on', channel=0, note=52, velocity=57, time=11)\n",
      "Message('note_on', channel=0, note=52, velocity=0, time=270)\n",
      "Message('control_change', channel=0, control=64, value=116, time=102)\n",
      "Message('note_on', channel=0, note=69, velocity=57, time=22)\n",
      "Message('control_change', channel=0, control=64, value=99, time=11)\n",
      "Message('note_on', channel=0, note=67, velocity=54, time=6)\n",
      "Message('note_on', channel=0, note=54, velocity=44, time=3)\n",
      "Message('control_change', channel=0, control=64, value=80, time=11)\n",
      "Message('control_change', channel=0, control=64, value=65, time=18)\n",
      "Message('control_change', channel=0, control=64, value=57, time=20)\n",
      "Message('note_on', channel=0, note=69, velocity=0, time=91)\n",
      "Message('note_on', channel=0, note=67, velocity=0, time=18)\n",
      "Message('note_on', channel=0, note=54, velocity=0, time=5)\n",
      "Message('note_on', channel=0, note=42, velocity=0, time=11)\n",
      "Message('control_change', channel=0, control=64, value=55, time=402)\n",
      "Message('control_change', channel=0, control=64, value=48, time=39)\n",
      "Message('control_change', channel=0, control=64, value=33, time=18)\n",
      "Message('control_change', channel=0, control=64, value=0, time=21)\n",
      "Message('note_on', channel=0, note=43, velocity=45, time=37)\n",
      "Message('note_on', channel=0, note=71, velocity=51, time=9)\n",
      "Message('note_on', channel=0, note=66, velocity=53, time=8)\n",
      "Message('control_change', channel=0, control=64, value=38, time=113)\n",
      "Message('control_change', channel=0, control=64, value=60, time=21)\n",
      "Message('note_on', channel=0, note=43, velocity=0, time=14)\n",
      "Message('control_change', channel=0, control=64, value=71, time=3)\n",
      "Message('note_on', channel=0, note=66, velocity=0, time=7)\n",
      "Message('note_on', channel=0, note=71, velocity=0, time=8)\n",
      "Message('control_change', channel=0, control=64, value=77, time=3)\n",
      "Message('control_change', channel=0, control=64, value=69, time=54)\n",
      "Message('control_change', channel=0, control=64, value=55, time=18)\n",
      "Message('control_change', channel=0, control=64, value=9, time=20)\n",
      "Message('control_change', channel=0, control=64, value=0, time=21)\n",
      "Message('note_on', channel=0, note=73, velocity=50, time=449)\n",
      "Message('note_on', channel=0, note=45, velocity=44, time=27)\n",
      "Message('note_on', channel=0, note=64, velocity=37, time=3)\n",
      "Message('control_change', channel=0, control=64, value=42, time=143)\n",
      "Message('note_on', channel=0, note=45, velocity=0, time=11)\n",
      "Message('note_on', channel=0, note=64, velocity=0, time=4)\n",
      "Message('control_change', channel=0, control=64, value=61, time=1)\n",
      "Message('note_on', channel=0, note=73, velocity=0, time=4)\n",
      "Message('control_change', channel=0, control=64, value=70, time=16)\n",
      "Message('control_change', channel=0, control=64, value=73, time=20)\n",
      "Message('control_change', channel=0, control=64, value=70, time=19)\n",
      "Message('control_change', channel=0, control=64, value=65, time=18)\n",
      "Message('control_change', channel=0, control=64, value=58, time=18)\n",
      "Message('control_change', channel=0, control=64, value=54, time=19)\n",
      "Message('control_change', channel=0, control=64, value=52, time=166)\n",
      "Message('control_change', channel=0, control=64, value=50, time=94)\n",
      "Message('control_change', channel=0, control=64, value=48, time=38)\n",
      "Message('control_change', channel=0, control=64, value=46, time=78)\n",
      "Message('control_change', channel=0, control=64, value=48, time=131)\n",
      "Message('control_change', channel=0, control=64, value=51, time=18)\n",
      "Message('control_change', channel=0, control=64, value=55, time=19)\n",
      "Message('note_on', channel=0, note=74, velocity=51, time=3)\n",
      "Message('control_change', channel=0, control=64, value=60, time=16)\n",
      "Message('note_on', channel=0, note=69, velocity=43, time=1)\n",
      "Message('note_on', channel=0, note=66, velocity=39, time=5)\n",
      "Message('note_on', channel=0, note=50, velocity=43, time=4)\n",
      "Message('control_change', channel=0, control=64, value=66, time=10)\n",
      "Message('control_change', channel=0, control=64, value=70, time=19)\n",
      "Message('control_change', channel=0, control=64, value=74, time=20)\n",
      "Message('control_change', channel=0, control=64, value=80, time=16)\n",
      "Message('control_change', channel=0, control=64, value=88, time=20)\n",
      "Message('control_change', channel=0, control=64, value=99, time=20)\n",
      "Message('control_change', channel=0, control=64, value=112, time=17)\n",
      "Message('control_change', channel=0, control=64, value=125, time=17)\n",
      "Message('note_on', channel=0, note=50, velocity=0, time=55)\n",
      "Message('control_change', channel=0, control=64, value=119, time=624)\n",
      "Message('control_change', channel=0, control=64, value=111, time=37)\n",
      "Message('control_change', channel=0, control=64, value=104, time=17)\n",
      "Message('control_change', channel=0, control=64, value=94, time=22)\n",
      "Message('control_change', channel=0, control=64, value=83, time=17)\n",
      "Message('control_change', channel=0, control=64, value=71, time=20)\n",
      "Message('control_change', channel=0, control=64, value=62, time=18)\n",
      "Message('control_change', channel=0, control=64, value=58, time=20)\n",
      "Message('control_change', channel=0, control=64, value=56, time=94)\n",
      "Message('note_on', channel=0, note=45, velocity=52, time=3)\n",
      "Message('note_on', channel=0, note=45, velocity=0, time=98)\n",
      "Message('note_on', channel=0, note=42, velocity=38, time=342)\n",
      "Message('control_change', channel=0, control=64, value=58, time=137)\n",
      "Message('note_on', channel=0, note=42, velocity=0, time=50)\n",
      "Message('control_change', channel=0, control=64, value=56, time=27)\n",
      "Message('note_on', channel=0, note=38, velocity=31, time=715)\n",
      "Message('control_change', channel=0, control=64, value=58, time=129)\n",
      "Message('control_change', channel=0, control=64, value=60, time=58)\n",
      "Message('control_change', channel=0, control=64, value=62, time=18)\n",
      "Message('control_change', channel=0, control=64, value=65, time=20)\n",
      "Message('control_change', channel=0, control=64, value=69, time=18)\n",
      "Message('control_change', channel=0, control=64, value=71, time=20)\n",
      "Message('control_change', channel=0, control=64, value=74, time=17)\n",
      "Message('control_change', channel=0, control=64, value=78, time=20)\n",
      "Message('control_change', channel=0, control=64, value=82, time=19)\n",
      "Message('control_change', channel=0, control=64, value=87, time=18)\n",
      "Message('control_change', channel=0, control=64, value=93, time=18)\n",
      "Message('control_change', channel=0, control=64, value=99, time=22)\n",
      "Message('control_change', channel=0, control=64, value=106, time=17)\n",
      "Message('control_change', channel=0, control=64, value=113, time=19)\n",
      "Message('control_change', channel=0, control=64, value=117, time=19)\n",
      "Message('control_change', channel=0, control=64, value=122, time=39)\n",
      "Message('note_on', channel=0, note=66, velocity=0, time=14)\n",
      "Message('note_on', channel=0, note=69, velocity=0, time=82)\n",
      "Message('note_on', channel=0, note=74, velocity=0, time=8)\n",
      "Message('note_on', channel=0, note=38, velocity=0, time=31)\n",
      "Message('control_change', channel=0, control=64, value=118, time=318)\n",
      "Message('control_change', channel=0, control=64, value=114, time=90)\n",
      "Message('control_change', channel=0, control=64, value=108, time=55)\n",
      "Message('control_change', channel=0, control=64, value=104, time=39)\n",
      "Message('control_change', channel=0, control=64, value=100, time=38)\n",
      "Message('control_change', channel=0, control=64, value=95, time=38)\n",
      "Message('control_change', channel=0, control=64, value=88, time=37)\n",
      "Message('control_change', channel=0, control=64, value=84, time=18)\n",
      "Message('control_change', channel=0, control=64, value=80, time=20)\n",
      "Message('control_change', channel=0, control=64, value=75, time=20)\n",
      "Message('control_change', channel=0, control=64, value=70, time=17)\n",
      "Message('control_change', channel=0, control=64, value=67, time=19)\n",
      "Message('control_change', channel=0, control=64, value=66, time=18)\n",
      "Message('note_on', channel=0, note=74, velocity=63, time=11)\n",
      "Message('control_change', channel=0, control=64, value=65, time=46)\n",
      "Message('control_change', channel=0, control=64, value=63, time=39)\n",
      "Message('control_change', channel=0, control=64, value=61, time=20)\n",
      "Message('control_change', channel=0, control=64, value=59, time=36)\n",
      "Message('control_change', channel=0, control=64, value=55, time=38)\n",
      "Message('control_change', channel=0, control=64, value=53, time=18)\n",
      "Message('control_change', channel=0, control=64, value=50, time=39)\n",
      "Message('control_change', channel=0, control=64, value=48, time=18)\n",
      "Message('control_change', channel=0, control=64, value=44, time=19)\n",
      "Message('control_change', channel=0, control=64, value=40, time=19)\n",
      "Message('control_change', channel=0, control=64, value=36, time=20)\n",
      "Message('control_change', channel=0, control=64, value=32, time=19)\n",
      "Message('control_change', channel=0, control=64, value=25, time=17)\n",
      "Message('note_on', channel=0, note=71, velocity=65, time=15)\n",
      "Message('control_change', channel=0, control=64, value=0, time=2)\n",
      "Message('note_on', channel=0, note=74, velocity=0, time=11)\n",
      "Message('control_change', channel=0, control=64, value=13, time=144)\n",
      "Message('control_change', channel=0, control=64, value=52, time=18)\n",
      "Message('control_change', channel=0, control=64, value=68, time=18)\n",
      "Message('note_on', channel=0, note=71, velocity=0, time=15)\n",
      "Message('control_change', channel=0, control=64, value=81, time=4)\n",
      "Message('control_change', channel=0, control=64, value=93, time=34)\n",
      "Message('control_change', channel=0, control=64, value=104, time=21)\n",
      "Message('control_change', channel=0, control=64, value=113, time=17)\n",
      "Message('control_change', channel=0, control=64, value=118, time=21)\n",
      "Message('note_on', channel=0, note=69, velocity=62, time=445)\n",
      "Message('control_change', channel=0, control=64, value=113, time=6)\n",
      "Message('control_change', channel=0, control=64, value=104, time=20)\n",
      "Message('control_change', channel=0, control=64, value=91, time=17)\n",
      "Message('control_change', channel=0, control=64, value=77, time=18)\n",
      "Message('control_change', channel=0, control=64, value=67, time=20)\n",
      "Message('control_change', channel=0, control=64, value=61, time=20)\n",
      "Message('control_change', channel=0, control=64, value=60, time=207)\n",
      "Message('control_change', channel=0, control=64, value=58, time=317)\n",
      "Message('control_change', channel=0, control=64, value=55, time=75)\n",
      "Message('note_on', channel=0, note=67, velocity=52, time=8)\n",
      "Message('note_on', channel=0, note=69, velocity=0, time=2)\n",
      "Message('control_change', channel=0, control=64, value=49, time=8)\n",
      "Message('control_change', channel=0, control=64, value=40, time=20)\n",
      "Message('control_change', channel=0, control=64, value=33, time=21)\n",
      "Message('note_on', channel=0, note=62, velocity=61, time=264)\n",
      "Message('note_on', channel=0, note=59, velocity=66, time=349)\n",
      "Message('note_on', channel=0, note=62, velocity=0, time=22)\n",
      "Message('control_change', channel=0, control=64, value=28, time=62)\n",
      "Message('note_on', channel=0, note=59, velocity=0, time=96)\n",
      "Message('control_change', channel=0, control=64, value=23, time=16)\n",
      "Message('control_change', channel=0, control=64, value=19, time=57)\n",
      "Message('control_change', channel=0, control=64, value=15, time=37)\n",
      "Message('control_change', channel=0, control=64, value=11, time=189)\n",
      "Message('note_on', channel=0, note=57, velocity=49, time=254)\n",
      "Message('note_on', channel=0, note=57, velocity=0, time=669)\n",
      "Message('note_on', channel=0, note=55, velocity=45, time=29)\n",
      "Message('control_change', channel=0, control=67, value=36, time=234)\n",
      "Message('control_change', channel=0, control=64, value=0, time=19)\n",
      "Message('note_on', channel=0, note=69, velocity=73, time=60)\n",
      "Message('note_on', channel=0, note=54, velocity=51, time=23)\n",
      "Message('note_on', channel=0, note=67, velocity=0, time=11)\n",
      "Message('note_on', channel=0, note=55, velocity=0, time=41)\n",
      "Message('control_change', channel=0, control=64, value=11, time=16)\n",
      "Message('control_change', channel=0, control=64, value=43, time=18)\n",
      "Message('control_change', channel=0, control=64, value=60, time=17)\n",
      "Message('control_change', channel=0, control=64, value=71, time=19)\n",
      "Message('control_change', channel=0, control=64, value=80, time=18)\n",
      "Message('control_change', channel=0, control=64, value=89, time=22)\n",
      "Message('note_on', channel=0, note=54, velocity=0, time=7)\n",
      "Message('control_change', channel=0, control=64, value=98, time=26)\n",
      "Message('control_change', channel=0, control=64, value=102, time=18)\n",
      "Message('note_on', channel=0, note=71, velocity=70, time=136)\n",
      "Message('control_change', channel=0, control=64, value=96, time=14)\n",
      "Message('note_on', channel=0, note=55, velocity=55, time=5)\n",
      "Message('note_on', channel=0, note=69, velocity=0, time=2)\n",
      "Message('control_change', channel=0, control=64, value=89, time=14)\n",
      "Message('control_change', channel=0, control=64, value=81, time=18)\n",
      "Message('control_change', channel=0, control=64, value=73, time=19)\n",
      "Message('control_change', channel=0, control=64, value=66, time=20)\n",
      "Message('control_change', channel=0, control=64, value=59, time=18)\n",
      "Message('control_change', channel=0, control=64, value=55, time=20)\n",
      "Message('note_on', channel=0, note=59, velocity=54, time=10)\n",
      "Message('note_on', channel=0, note=55, velocity=0, time=2)\n",
      "Message('control_change', channel=0, control=64, value=53, time=99)\n",
      "Message('note_on', channel=0, note=59, velocity=0, time=28)\n",
      "Message('note_on', channel=0, note=62, velocity=58, time=1)\n",
      "Message('control_change', channel=0, control=64, value=51, time=30)\n",
      "Message('note_on', channel=0, note=62, velocity=0, time=106)\n",
      "Message('note_on', channel=0, note=67, velocity=53, time=21)\n",
      "Message('note_on', channel=0, note=67, velocity=0, time=71)\n",
      "Message('note_on', channel=0, note=71, velocity=0, time=87)\n",
      "Message('note_on', channel=0, note=69, velocity=61, time=29)\n",
      "Message('note_on', channel=0, note=66, velocity=50, time=6)\n",
      "Message('control_change', channel=0, control=64, value=49, time=17)\n",
      "Message('control_change', channel=0, control=64, value=47, time=136)\n",
      "Message('control_change', channel=0, control=64, value=45, time=144)\n",
      "Message('note_on', channel=0, note=45, velocity=45, time=696)\n",
      "Message('note_on', channel=0, note=45, velocity=0, time=329)\n",
      "Message('note_on', channel=0, note=42, velocity=49, time=35)\n",
      "Message('control_change', channel=0, control=64, value=42, time=14)\n",
      "Message('control_change', channel=0, control=64, value=35, time=37)\n",
      "Message('note_on', channel=0, note=42, velocity=0, time=155)\n",
      "Message('note_on', channel=0, note=40, velocity=44, time=490)\n",
      "Message('control_change', channel=0, control=64, value=40, time=481)\n",
      "Message('control_change', channel=0, control=64, value=45, time=18)\n",
      "Message('control_change', channel=0, control=64, value=50, time=20)\n",
      "Message('control_change', channel=0, control=64, value=56, time=18)\n",
      "Message('control_change', channel=0, control=64, value=61, time=20)\n",
      "Message('control_change', channel=0, control=64, value=64, time=18)\n",
      "Message('control_change', channel=0, control=64, value=66, time=18)\n",
      "Message('note_on', channel=0, note=66, velocity=0, time=14)\n",
      "Message('control_change', channel=0, control=64, value=68, time=5)\n",
      "Message('control_change', channel=0, control=64, value=70, time=19)\n",
      "Message('note_on', channel=0, note=69, velocity=0, time=9)\n",
      "Message('control_change', channel=0, control=64, value=73, time=11)\n",
      "Message('control_change', channel=0, control=64, value=77, time=19)\n",
      "Message('control_change', channel=0, control=64, value=80, time=18)\n",
      "Message('control_change', channel=0, control=64, value=84, time=19)\n",
      "Message('control_change', channel=0, control=64, value=87, time=19)\n",
      "Message('note_on', channel=0, note=38, velocity=39, time=8)\n",
      "Message('note_on', channel=0, note=40, velocity=0, time=19)\n",
      "Message('control_change', channel=0, control=64, value=93, time=10)\n",
      "Message('control_change', channel=0, control=64, value=99, time=40)\n",
      "Message('control_change', channel=0, control=64, value=93, time=222)\n",
      "Message('note_on', channel=0, note=71, velocity=63, time=12)\n",
      "Message('control_change', channel=0, control=64, value=88, time=5)\n",
      "Message('note_on', channel=0, note=38, velocity=0, time=7)\n",
      "Message('note_on', channel=0, note=50, velocity=52, time=5)\n",
      "Message('control_change', channel=0, control=64, value=83, time=8)\n",
      "Message('note_on', channel=0, note=67, velocity=48, time=0)\n",
      "Message('control_change', channel=0, control=64, value=78, time=19)\n",
      "Message('control_change', channel=0, control=64, value=73, time=18)\n",
      "Message('control_change', channel=0, control=64, value=69, time=20)\n",
      "Message('control_change', channel=0, control=64, value=67, time=19)\n",
      "Message('control_change', channel=0, control=64, value=66, time=19)\n",
      "Message('control_change', channel=0, control=64, value=65, time=36)\n",
      "Message('control_change', channel=0, control=64, value=64, time=38)\n",
      "Message('control_change', channel=0, control=64, value=63, time=20)\n",
      "Message('control_change', channel=0, control=64, value=62, time=39)\n",
      "Message('control_change', channel=0, control=64, value=61, time=36)\n",
      "Message('control_change', channel=0, control=64, value=60, time=19)\n",
      "Message('control_change', channel=0, control=64, value=57, time=20)\n",
      "Message('control_change', channel=0, control=64, value=52, time=18)\n",
      "Message('note_on', channel=0, note=67, velocity=0, time=2)\n",
      "Message('note_on', channel=0, note=72, velocity=73, time=12)\n",
      "Message('control_change', channel=0, control=64, value=41, time=3)\n",
      "Message('note_on', channel=0, note=48, velocity=48, time=4)\n",
      "Message('note_on', channel=0, note=69, velocity=62, time=1)\n",
      "Message('note_on', channel=0, note=50, velocity=0, time=1)\n",
      "Message('note_on', channel=0, note=71, velocity=0, time=10)\n",
      "Message('control_change', channel=0, control=64, value=20, time=3)\n",
      "Message('control_change', channel=0, control=64, value=0, time=20)\n",
      "Message('control_change', channel=0, control=64, value=9, time=170)\n",
      "Message('control_change', channel=0, control=64, value=22, time=19)\n",
      "Message('control_change', channel=0, control=64, value=28, time=37)\n",
      "Message('control_change', channel=0, control=64, value=36, time=39)\n",
      "Message('control_change', channel=0, control=64, value=42, time=38)\n",
      "Message('control_change', channel=0, control=64, value=45, time=38)\n",
      "Message('control_change', channel=0, control=64, value=43, time=241)\n",
      "Message('control_change', channel=0, control=64, value=38, time=21)\n",
      "Message('note_on', channel=0, note=47, velocity=57, time=11)\n",
      "Message('control_change', channel=0, control=64, value=25, time=5)\n",
      "Message('note_on', channel=0, note=48, velocity=0, time=14)\n",
      "Message('note_on', channel=0, note=74, velocity=71, time=3)\n",
      "Message('control_change', channel=0, control=64, value=0, time=1)\n",
      "Message('note_on', channel=0, note=72, velocity=0, time=9)\n",
      "Message('control_change', channel=0, control=64, value=25, time=201)\n",
      "Message('control_change', channel=0, control=64, value=38, time=19)\n",
      "Message('control_change', channel=0, control=64, value=47, time=18)\n",
      "Message('control_change', channel=0, control=64, value=54, time=19)\n",
      "Message('control_change', channel=0, control=64, value=58, time=17)\n",
      "Message('control_change', channel=0, control=64, value=62, time=19)\n",
      "Message('control_change', channel=0, control=64, value=65, time=20)\n",
      "Message('control_change', channel=0, control=64, value=66, time=19)\n",
      "Message('control_change', channel=0, control=64, value=67, time=38)\n",
      "Message('control_change', channel=0, control=64, value=69, time=75)\n",
      "Message('control_change', channel=0, control=64, value=62, time=132)\n",
      "Message('control_change', channel=0, control=64, value=46, time=20)\n",
      "Message('control_change', channel=0, control=64, value=0, time=19)\n",
      "Message('note_on', channel=0, note=52, velocity=55, time=16)\n",
      "Message('note_on', channel=0, note=74, velocity=0, time=34)\n",
      "Message('control_change', channel=0, control=64, value=23, time=5)\n",
      "Message('note_on', channel=0, note=67, velocity=74, time=0)\n",
      "Message('note_on', channel=0, note=69, velocity=0, time=2)\n",
      "Message('control_change', channel=0, control=64, value=50, time=18)\n",
      "Message('control_change', channel=0, control=64, value=65, time=19)\n",
      "Message('note_on', channel=0, note=47, velocity=0, time=17)\n",
      "Message('control_change', channel=0, control=64, value=74, time=2)\n",
      "Message('control_change', channel=0, control=64, value=81, time=17)\n",
      "Message('control_change', channel=0, control=64, value=88, time=20)\n",
      "Message('control_change', channel=0, control=64, value=95, time=18)\n",
      "Message('control_change', channel=0, control=64, value=102, time=21)\n",
      "Message('control_change', channel=0, control=64, value=106, time=18)\n",
      "Message('note_on', channel=0, note=79, velocity=81, time=168)\n",
      "Message('control_change', channel=0, control=64, value=101, time=226)\n",
      "Message('control_change', channel=0, control=64, value=96, time=36)\n",
      "Message('control_change', channel=0, control=64, value=92, time=19)\n",
      "Message('control_change', channel=0, control=64, value=85, time=20)\n",
      "Message('control_change', channel=0, control=64, value=68, time=17)\n",
      "Message('control_change', channel=0, control=64, value=19, time=21)\n",
      "Message('note_on', channel=0, note=52, velocity=0, time=9)\n",
      "Message('note_on', channel=0, note=48, velocity=55, time=6)\n",
      "Message('control_change', channel=0, control=64, value=0, time=1)\n",
      "Message('note_on', channel=0, note=76, velocity=76, time=2)\n",
      "Message('note_on', channel=0, note=79, velocity=0, time=35)\n",
      "Message('control_change', channel=0, control=64, value=29, time=78)\n",
      "Message('control_change', channel=0, control=64, value=55, time=19)\n",
      "Message('control_change', channel=0, control=64, value=67, time=18)\n",
      "Message('control_change', channel=0, control=64, value=76, time=19)\n",
      "Message('control_change', channel=0, control=64, value=82, time=19)\n",
      "Message('control_change', channel=0, control=64, value=88, time=20)\n",
      "Message('control_change', channel=0, control=64, value=93, time=18)\n",
      "Message('control_change', channel=0, control=64, value=97, time=20)\n",
      "Message('control_change', channel=0, control=64, value=101, time=18)\n",
      "Message('control_change', channel=0, control=64, value=105, time=19)\n",
      "Message('control_change', channel=0, control=64, value=109, time=151)\n",
      "Message('control_change', channel=0, control=64, value=114, time=147)\n",
      "Message('control_change', channel=0, control=64, value=118, time=37)\n",
      "Message('control_change', channel=0, control=64, value=109, time=39)\n",
      "Message('note_on', channel=0, note=74, velocity=70, time=15)\n",
      "Message('control_change', channel=0, control=64, value=88, time=3)\n",
      "Message('note_on', channel=0, note=45, velocity=52, time=14)\n",
      "Message('note_on', channel=0, note=76, velocity=0, time=2)\n",
      "Message('control_change', channel=0, control=64, value=57, time=3)\n",
      "Message('control_change', channel=0, control=64, value=0, time=19)\n",
      "Message('note_on', channel=0, note=48, velocity=0, time=10)\n",
      "Message('note_on', channel=0, note=74, velocity=0, time=26)\n",
      "Message('note_on', channel=0, note=72, velocity=58, time=15)\n",
      "Message('note_on', channel=0, note=45, velocity=0, time=34)\n",
      "Message('note_on', channel=0, note=48, velocity=36, time=20)\n",
      "Message('note_on', channel=0, note=74, velocity=64, time=1)\n",
      "Message('note_on', channel=0, note=72, velocity=0, time=4)\n",
      "Message('note_on', channel=0, note=72, velocity=70, time=81)\n",
      "Message('note_on', channel=0, note=74, velocity=0, time=8)\n",
      "Message('note_on', channel=0, note=48, velocity=0, time=38)\n",
      "Message('note_on', channel=0, note=47, velocity=66, time=2)\n",
      "Message('note_on', channel=0, note=45, velocity=60, time=131)\n",
      "Message('note_on', channel=0, note=47, velocity=0, time=3)\n",
      "Message('note_on', channel=0, note=45, velocity=0, time=137)\n",
      "Message('note_on', channel=0, note=67, velocity=0, time=5)\n",
      "Message('note_on', channel=0, note=66, velocity=62, time=16)\n",
      "Message('note_on', channel=0, note=50, velocity=54, time=18)\n",
      "Message('note_on', channel=0, note=72, velocity=0, time=321)\n",
      "Message('note_on', channel=0, note=71, velocity=66, time=8)\n",
      "Message('note_on', channel=0, note=38, velocity=47, time=347)\n",
      "Message('note_on', channel=0, note=71, velocity=0, time=3)\n",
      "Message('note_on', channel=0, note=72, velocity=62, time=3)\n",
      "Message('note_on', channel=0, note=50, velocity=0, time=22)\n",
      "Message('note_on', channel=0, note=72, velocity=0, time=104)\n",
      "Message('note_on', channel=0, note=69, velocity=61, time=14)\n",
      "Message('note_on', channel=0, note=71, velocity=68, time=151)\n",
      "Message('control_change', channel=0, control=64, value=18, time=2)\n",
      "Message('control_change', channel=0, control=64, value=56, time=20)\n",
      "Message('control_change', channel=0, control=64, value=71, time=19)\n",
      "Message('note_on', channel=0, note=69, velocity=0, time=1)\n",
      "Message('control_change', channel=0, control=64, value=82, time=17)\n",
      "Message('control_change', channel=0, control=64, value=92, time=20)\n",
      "Message('note_on', channel=0, note=66, velocity=0, time=4)\n",
      "Message('control_change', channel=0, control=64, value=102, time=14)\n",
      "Message('control_change', channel=0, control=64, value=110, time=19)\n",
      "Message('note_on', channel=0, note=71, velocity=0, time=24)\n",
      "Message('control_change', channel=0, control=64, value=117, time=11)\n",
      "Message('control_change', channel=0, control=64, value=121, time=19)\n",
      "Message('control_change', channel=0, control=67, value=40, time=19)\n",
      "Message('control_change', channel=0, control=64, value=126, time=20)\n",
      "Message('note_on', channel=0, note=38, velocity=0, time=136)\n",
      "Message('note_on', channel=0, note=72, velocity=73, time=12)\n",
      "Message('control_change', channel=0, control=64, value=110, time=1)\n",
      "Message('note_on', channel=0, note=43, velocity=51, time=14)\n",
      "Message('control_change', channel=0, control=64, value=86, time=6)\n",
      "Message('note_on', channel=0, note=67, velocity=46, time=1)\n",
      "Message('control_change', channel=0, control=64, value=62, time=17)\n",
      "Message('control_change', channel=0, control=64, value=44, time=20)\n",
      "Message('control_change', channel=0, control=64, value=53, time=37)\n",
      "Message('control_change', channel=0, control=64, value=59, time=18)\n",
      "Message('control_change', channel=0, control=64, value=61, time=21)\n",
      "Message('note_on', channel=0, note=72, velocity=0, time=46)\n",
      "Message('note_on', channel=0, note=71, velocity=60, time=26)\n",
      "Message('note_on', channel=0, note=71, velocity=0, time=55)\n",
      "Message('note_on', channel=0, note=72, velocity=68, time=19)\n",
      "Message('control_change', channel=0, control=64, value=58, time=2)\n",
      "Message('control_change', channel=0, control=64, value=56, time=21)\n",
      "Message('note_on', channel=0, note=72, velocity=0, time=31)\n",
      "Message('note_on', channel=0, note=71, velocity=68, time=3)\n",
      "Message('control_change', channel=0, control=64, value=54, time=1)\n",
      "Message('control_change', channel=0, control=64, value=52, time=20)\n",
      "Message('control_change', channel=0, control=64, value=48, time=20)\n",
      "Message('control_change', channel=0, control=64, value=46, time=93)\n",
      "Message('control_change', channel=0, control=64, value=42, time=60)\n",
      "Message('control_change', channel=0, control=64, value=29, time=17)\n",
      "Message('control_change', channel=0, control=64, value=0, time=18)\n",
      "Message('note_on', channel=0, note=47, velocity=51, time=97)\n",
      "Message('note_on', channel=0, note=43, velocity=0, time=20)\n",
      "Message('control_change', channel=0, control=64, value=23, time=15)\n",
      "Message('control_change', channel=0, control=64, value=51, time=20)\n",
      "Message('control_change', channel=0, control=64, value=65, time=34)\n",
      "Message('control_change', channel=0, control=64, value=70, time=19)\n",
      "Message('note_on', channel=0, note=47, velocity=0, time=35)\n",
      "Message('note_on', channel=0, note=67, velocity=0, time=204)\n",
      "Message('note_on', channel=0, note=69, velocity=63, time=7)\n",
      "Message('note_on', channel=0, note=71, velocity=0, time=17)\n",
      "Message('control_change', channel=0, control=64, value=67, time=303)\n",
      "Message('control_change', channel=0, control=64, value=59, time=19)\n",
      "Message('control_change', channel=0, control=64, value=37, time=17)\n",
      "Message('note_on', channel=0, note=50, velocity=49, time=9)\n",
      "Message('control_change', channel=0, control=64, value=0, time=12)\n",
      "Message('note_on', channel=0, note=69, velocity=0, time=3)\n",
      "Message('note_on', channel=0, note=67, velocity=56, time=8)\n",
      "Message('control_change', channel=0, control=64, value=30, time=64)\n",
      "Message('control_change', channel=0, control=64, value=56, time=19)\n",
      "Message('control_change', channel=0, control=67, value=46, time=2)\n",
      "Message('control_change', channel=0, control=64, value=71, time=17)\n",
      "Message('control_change', channel=0, control=67, value=50, time=1)\n",
      "Message('control_change', channel=0, control=64, value=82, time=17)\n",
      "Message('control_change', channel=0, control=64, value=93, time=19)\n",
      "Message('control_change', channel=0, control=67, value=56, time=2)\n",
      "Message('note_on', channel=0, note=50, velocity=0, time=13)\n",
      "Message('control_change', channel=0, control=64, value=104, time=3)\n",
      "Message('control_change', channel=0, control=64, value=113, time=20)\n",
      "Message('control_change', channel=0, control=64, value=118, time=20)\n",
      "Message('control_change', channel=0, control=67, value=60, time=17)\n",
      "Message('note_on', channel=0, note=67, velocity=0, time=33)\n",
      "Message('control_change', channel=0, control=64, value=122, time=5)\n",
      "Message('control_change', channel=0, control=67, value=64, time=19)\n",
      "Message('note_on', channel=0, note=55, velocity=48, time=488)\n",
      "Message('note_on', channel=0, note=67, velocity=56, time=136)\n",
      "Message('control_change', channel=0, control=64, value=117, time=16)\n",
      "Message('control_change', channel=0, control=64, value=111, time=34)\n",
      "Message('control_change', channel=0, control=64, value=105, time=41)\n",
      "Message('note_on', channel=0, note=59, velocity=48, time=13)\n",
      "Message('note_on', channel=0, note=67, velocity=0, time=16)\n",
      "Message('control_change', channel=0, control=64, value=101, time=28)\n",
      "Message('note_on', channel=0, note=60, velocity=54, time=34)\n",
      "Message('control_change', channel=0, control=64, value=94, time=21)\n",
      "Message('control_change', channel=0, control=64, value=87, time=38)\n",
      "Message('control_change', channel=0, control=64, value=83, time=18)\n",
      "Message('note_on', channel=0, note=62, velocity=62, time=17)\n",
      "Message('control_change', channel=0, control=64, value=79, time=1)\n",
      "Message('note_on', channel=0, note=60, velocity=0, time=5)\n",
      "Message('control_change', channel=0, control=64, value=74, time=15)\n",
      "Message('control_change', channel=0, control=64, value=69, time=19)\n",
      "Message('control_change', channel=0, control=64, value=66, time=19)\n",
      "Message('note_on', channel=0, note=67, velocity=60, time=26)\n",
      "Message('control_change', channel=0, control=64, value=64, time=8)\n",
      "Message('control_change', channel=0, control=64, value=62, time=21)\n",
      "Message('control_change', channel=0, control=64, value=57, time=17)\n",
      "Message('control_change', channel=0, control=64, value=48, time=19)\n",
      "Message('control_change', channel=0, control=64, value=36, time=18)\n",
      "Message('control_change', channel=0, control=64, value=15, time=19)\n",
      "Message('control_change', channel=0, control=64, value=0, time=19)\n",
      "Message('control_change', channel=0, control=64, value=9, time=58)\n",
      "Message('control_change', channel=0, control=64, value=37, time=17)\n",
      "Message('control_change', channel=0, control=64, value=55, time=19)\n",
      "Message('control_change', channel=0, control=64, value=65, time=20)\n",
      "Message('control_change', channel=0, control=64, value=73, time=19)\n",
      "Message('control_change', channel=0, control=64, value=80, time=19)\n",
      "Message('control_change', channel=0, control=64, value=87, time=19)\n",
      "Message('note_on', channel=0, note=59, velocity=0, time=10)\n",
      "Message('control_change', channel=0, control=64, value=95, time=9)\n",
      "Message('control_change', channel=0, control=64, value=103, time=18)\n",
      "Message('control_change', channel=0, control=64, value=110, time=18)\n",
      "Message('control_change', channel=0, control=64, value=116, time=20)\n",
      "Message('note_on', channel=0, note=62, velocity=0, time=7)\n",
      "Message('control_change', channel=0, control=64, value=121, time=13)\n",
      "Message('control_change', channel=0, control=64, value=125, time=17)\n",
      "Message('note_on', channel=0, note=67, velocity=0, time=16)\n",
      "Message('note_on', channel=0, note=55, velocity=0, time=363)\n",
      "Message('note_on', channel=0, note=71, velocity=75, time=69)\n",
      "Message('control_change', channel=0, control=67, value=60, time=81)\n",
      "Message('note_on', channel=0, note=71, velocity=0, time=87)\n",
      "Message('control_change', channel=0, control=67, value=56, time=3)\n",
      "Message('control_change', channel=0, control=67, value=51, time=38)\n",
      "Message('control_change', channel=0, control=67, value=43, time=39)\n",
      "Message('control_change', channel=0, control=67, value=38, time=37)\n",
      "Message('control_change', channel=0, control=67, value=34, time=37)\n",
      "Message('control_change', channel=0, control=64, value=102, time=20)\n",
      "Message('note_on', channel=0, note=74, velocity=83, time=9)\n",
      "Message('control_change', channel=0, control=64, value=72, time=9)\n",
      "Message('control_change', channel=0, control=64, value=52, time=20)\n",
      "Message('control_change', channel=0, control=64, value=56, time=19)\n",
      "Message('control_change', channel=0, control=67, value=29, time=1)\n",
      "Message('control_change', channel=0, control=64, value=67, time=18)\n",
      "Message('control_change', channel=0, control=64, value=79, time=18)\n",
      "Message('control_change', channel=0, control=64, value=97, time=19)\n",
      "Message('control_change', channel=0, control=64, value=122, time=19)\n",
      "Message('control_change', channel=0, control=64, value=127, time=19)\n",
      "Message('control_change', channel=0, control=67, value=24, time=37)\n",
      "Message('note_on', channel=0, note=74, velocity=0, time=16)\n",
      "Message('control_change', channel=0, control=67, value=20, time=79)\n",
      "Message('control_change', channel=0, control=67, value=16, time=56)\n",
      "Message('control_change', channel=0, control=67, value=11, time=57)\n",
      "Message('note_on', channel=0, note=79, velocity=58, time=253)\n",
      "Message('note_on', channel=0, note=78, velocity=50, time=14)\n",
      "Message('note_on', channel=0, note=77, velocity=65, time=4)\n",
      "Message('control_change', channel=0, control=64, value=97, time=12)\n",
      "Message('note_on', channel=0, note=77, velocity=0, time=12)\n",
      "Message('control_change', channel=0, control=64, value=58, time=6)\n",
      "Message('control_change', channel=0, control=64, value=0, time=34)\n",
      "Message('note_on', channel=0, note=78, velocity=0, time=0)\n",
      "Message('note_on', channel=0, note=78, velocity=43, time=0)\n",
      "Message('note_on', channel=0, note=79, velocity=0, time=3)\n",
      "Message('control_change', channel=0, control=64, value=47, time=55)\n",
      "Message('control_change', channel=0, control=64, value=64, time=18)\n",
      "Message('note_on', channel=0, note=79, velocity=79, time=9)\n",
      "Message('note_on', channel=0, note=78, velocity=0, time=7)\n",
      "Message('control_change', channel=0, control=64, value=72, time=2)\n",
      "Message('control_change', channel=0, control=64, value=74, time=20)\n",
      "Message('note_on', channel=0, note=43, velocity=59, time=73)\n",
      "Message('note_on', channel=0, note=43, velocity=0, time=143)\n",
      "Message('note_on', channel=0, note=45, velocity=59, time=2)\n",
      "Message('control_change', channel=0, control=64, value=72, time=65)\n",
      "Message('note_on', channel=0, note=47, velocity=62, time=67)\n",
      "Message('note_on', channel=0, note=45, velocity=0, time=2)\n",
      "Message('control_change', channel=0, control=64, value=70, time=82)\n",
      "Message('note_on', channel=0, note=48, velocity=66, time=73)\n",
      "Message('note_on', channel=0, note=47, velocity=0, time=4)\n",
      "Message('note_on', channel=0, note=48, velocity=0, time=109)\n",
      "Message('note_on', channel=0, note=50, velocity=68, time=26)\n",
      "Message('note_on', channel=0, note=52, velocity=66, time=143)\n",
      "Message('note_on', channel=0, note=50, velocity=0, time=22)\n",
      "Message('control_change', channel=0, control=64, value=68, time=34)\n",
      "Message('control_change', channel=0, control=64, value=67, time=94)\n",
      "Message('note_on', channel=0, note=81, velocity=78, time=20)\n",
      "Message('note_on', channel=0, note=54, velocity=62, time=1)\n",
      "Message('note_on', channel=0, note=79, velocity=0, time=6)\n",
      "Message('note_on', channel=0, note=52, velocity=0, time=9)\n",
      "Message('control_change', channel=0, control=64, value=65, time=4)\n",
      "Message('control_change', channel=0, control=64, value=63, time=17)\n",
      "Message('control_change', channel=0, control=64, value=61, time=19)\n",
      "Message('control_change', channel=0, control=64, value=57, time=20)\n",
      "Message('control_change', channel=0, control=64, value=52, time=18)\n",
      "Message('control_change', channel=0, control=64, value=36, time=19)\n",
      "Message('control_change', channel=0, control=64, value=0, time=20)\n",
      "Message('note_on', channel=0, note=55, velocity=73, time=19)\n",
      "Message('note_on', channel=0, note=83, velocity=78, time=27)\n",
      "Message('note_on', channel=0, note=54, velocity=0, time=2)\n",
      "Message('note_on', channel=0, note=81, velocity=0, time=41)\n",
      "Message('control_change', channel=0, control=64, value=32, time=42)\n",
      "Message('control_change', channel=0, control=64, value=59, time=19)\n",
      "Message('note_on', channel=0, note=55, velocity=0, time=6)\n",
      "Message('note_on', channel=0, note=59, velocity=61, time=6)\n",
      "Message('control_change', channel=0, control=64, value=74, time=7)\n",
      "Message('control_change', channel=0, control=64, value=85, time=18)\n",
      "Message('control_change', channel=0, control=64, value=98, time=19)\n",
      "Message('control_change', channel=0, control=64, value=110, time=21)\n",
      "Message('control_change', channel=0, control=64, value=118, time=17)\n",
      "Message('note_on', channel=0, note=83, velocity=0, time=0)\n",
      "Message('control_change', channel=0, control=64, value=122, time=21)\n",
      "Message('note_on', channel=0, note=59, velocity=0, time=9)\n",
      "Message('note_on', channel=0, note=57, velocity=72, time=30)\n",
      "Message('note_on', channel=0, note=57, velocity=0, time=113)\n",
      "Message('note_on', channel=0, note=55, velocity=63, time=24)\n",
      "Message('note_on', channel=0, note=55, velocity=0, time=40)\n",
      "Message('control_change', channel=0, control=64, value=110, time=179)\n",
      "Message('control_change', channel=0, control=64, value=89, time=19)\n",
      "Message('note_on', channel=0, note=55, velocity=60, time=5)\n",
      "Message('note_on', channel=0, note=74, velocity=79, time=3)\n",
      "Message('note_on', channel=0, note=69, velocity=66, time=22)\n",
      "Message('control_change', channel=0, control=64, value=64, time=1)\n",
      "Message('note_on', channel=0, note=64, velocity=59, time=5)\n",
      "Message('control_change', channel=0, control=64, value=0, time=14)\n",
      "Message('note_on', channel=0, note=73, velocity=66, time=379)\n",
      "Message('note_on', channel=0, note=74, velocity=0, time=13)\n",
      "Message('note_on', channel=0, note=64, velocity=0, time=98)\n",
      "Message('control_change', channel=0, control=64, value=52, time=23)\n",
      "Message('control_change', channel=0, control=64, value=69, time=19)\n",
      "Message('note_on', channel=0, note=69, velocity=0, time=7)\n",
      "Message('control_change', channel=0, control=64, value=83, time=11)\n",
      "Message('control_change', channel=0, control=64, value=98, time=20)\n",
      "Message('control_change', channel=0, control=64, value=112, time=18)\n",
      "Message('control_change', channel=0, control=64, value=125, time=16)\n",
      "Message('note_on', channel=0, note=73, velocity=0, time=0)\n",
      "Message('note_on', channel=0, note=59, velocity=57, time=243)\n",
      "Message('note_on', channel=0, note=55, velocity=0, time=3)\n",
      "Message('note_on', channel=0, note=57, velocity=61, time=167)\n",
      "Message('note_on', channel=0, note=59, velocity=0, time=7)\n",
      "Message('note_on', channel=0, note=76, velocity=83, time=117)\n",
      "Message('note_on', channel=0, note=55, velocity=68, time=25)\n",
      "Message('note_on', channel=0, note=57, velocity=0, time=20)\n",
      "Message('control_change', channel=0, control=64, value=120, time=40)\n",
      "Message('control_change', channel=0, control=64, value=115, time=75)\n",
      "Message('note_on', channel=0, note=54, velocity=68, time=14)\n",
      "Message('note_on', channel=0, note=55, velocity=0, time=4)\n",
      "Message('control_change', channel=0, control=64, value=99, time=2)\n",
      "Message('note_on', channel=0, note=81, velocity=82, time=10)\n",
      "Message('control_change', channel=0, control=64, value=65, time=6)\n",
      "Message('control_change', channel=0, control=64, value=0, time=20)\n",
      "Message('note_on', channel=0, note=76, velocity=0, time=13)\n",
      "Message('control_change', channel=0, control=64, value=28, time=63)\n",
      "Message('note_on', channel=0, note=54, velocity=0, time=11)\n",
      "Message('control_change', channel=0, control=64, value=57, time=9)\n",
      "Message('control_change', channel=0, control=64, value=69, time=19)\n",
      "Message('note_on', channel=0, note=55, velocity=62, time=0)\n",
      "Message('control_change', channel=0, control=64, value=75, time=18)\n",
      "Message('control_change', channel=0, control=64, value=79, time=19)\n",
      "Message('control_change', channel=0, control=64, value=82, time=18)\n",
      "Message('control_change', channel=0, control=64, value=85, time=20)\n",
      "Message('control_change', channel=0, control=64, value=92, time=37)\n",
      "Message('control_change', channel=0, control=64, value=96, time=17)\n",
      "Message('note_on', channel=0, note=52, velocity=71, time=25)\n",
      "Message('control_change', channel=0, control=64, value=100, time=14)\n",
      "Message('note_on', channel=0, note=55, velocity=0, time=5)\n",
      "Message('note_on', channel=0, note=52, velocity=0, time=155)\n",
      "Message('control_change', channel=0, control=64, value=95, time=196)\n",
      "Message('note_on', channel=0, note=54, velocity=62, time=17)\n",
      "Message('control_change', channel=0, control=64, value=76, time=3)\n",
      "Message('note_on', channel=0, note=75, velocity=69, time=13)\n",
      "Message('control_change', channel=0, control=64, value=0, time=3)\n",
      "Message('control_change', channel=0, control=64, value=9, time=95)\n",
      "Message('note_on', channel=0, note=81, velocity=0, time=7)\n",
      "Message('control_change', channel=0, control=64, value=47, time=12)\n",
      "Message('control_change', channel=0, control=64, value=60, time=18)\n",
      "Message('note_on', channel=0, note=75, velocity=0, time=17)\n",
      "Message('control_change', channel=0, control=64, value=67, time=3)\n",
      "Message('note_on', channel=0, note=76, velocity=75, time=13)\n",
      "Message('control_change', channel=0, control=64, value=70, time=5)\n",
      "Message('control_change', channel=0, control=64, value=72, time=20)\n",
      "Message('control_change', channel=0, control=64, value=74, time=19)\n",
      "Message('control_change', channel=0, control=64, value=76, time=19)\n",
      "Message('control_change', channel=0, control=64, value=78, time=18)\n",
      "Message('control_change', channel=0, control=64, value=81, time=19)\n",
      "Message('control_change', channel=0, control=64, value=83, time=18)\n",
      "Message('note_on', channel=0, note=76, velocity=0, time=0)\n",
      "Message('control_change', channel=0, control=64, value=86, time=20)\n",
      "Message('note_on', channel=0, note=78, velocity=81, time=9)\n",
      "Message('note_on', channel=0, note=54, velocity=0, time=6)\n",
      "Message('note_on', channel=0, note=78, velocity=0, time=115)\n",
      "Message('note_on', channel=0, note=79, velocity=75, time=19)\n",
      "Message('note_on', channel=0, note=81, velocity=46, time=35)\n",
      "Message('note_on', channel=0, note=81, velocity=0, time=40)\n",
      "Message('control_change', channel=0, control=64, value=88, time=61)\n",
      "Message('note_on', channel=0, note=79, velocity=0, time=9)\n",
      "Message('note_on', channel=0, note=81, velocity=82, time=26)\n",
      "Message('control_change', channel=0, control=64, value=82, time=3)\n",
      "Message('note_on', channel=0, note=51, velocity=63, time=2)\n",
      "Message('control_change', channel=0, control=64, value=67, time=17)\n",
      "Message('control_change', channel=0, control=64, value=0, time=17)\n",
      "Message('control_change', channel=0, control=64, value=11, time=93)\n",
      "Message('note_on', channel=0, note=84, velocity=75, time=14)\n",
      "Message('control_change', channel=0, control=64, value=48, time=4)\n",
      "Message('note_on', channel=0, note=81, velocity=0, time=12)\n",
      "Message('control_change', channel=0, control=64, value=62, time=9)\n",
      "Message('control_change', channel=0, control=64, value=69, time=34)\n",
      "Message('control_change', channel=0, control=64, value=73, time=17)\n",
      "Message('control_change', channel=0, control=64, value=75, time=20)\n",
      "Message('note_on', channel=0, note=51, velocity=0, time=26)\n",
      "Message('note_on', channel=0, note=83, velocity=75, time=48)\n",
      "Message('note_on', channel=0, note=84, velocity=0, time=23)\n",
      "Message('note_on', channel=0, note=81, velocity=73, time=113)\n",
      "Message('note_on', channel=0, note=83, velocity=0, time=8)\n",
      "Message('note_on', channel=0, note=81, velocity=0, time=135)\n",
      "Message('control_change', channel=0, control=64, value=71, time=5)\n",
      "Message('note_on', channel=0, note=79, velocity=72, time=10)\n",
      "Message('control_change', channel=0, control=64, value=57, time=9)\n",
      "Message('control_change', channel=0, control=64, value=0, time=20)\n",
      "Message('note_on', channel=0, note=47, velocity=55, time=0)\n",
      "Message('control_change', channel=0, control=64, value=30, time=94)\n",
      "Message('control_change', channel=0, control=64, value=48, time=18)\n",
      "Message('note_on', channel=0, note=79, velocity=0, time=2)\n",
      "Message('note_on', channel=0, note=81, velocity=69, time=7)\n",
      "Message('control_change', channel=0, control=64, value=55, time=11)\n",
      "Message('control_change', channel=0, control=64, value=59, time=19)\n",
      "Message('control_change', channel=0, control=64, value=61, time=19)\n",
      "Message('control_change', channel=0, control=64, value=62, time=37)\n",
      "Message('note_on', channel=0, note=81, velocity=0, time=77)\n",
      "Message('note_on', channel=0, note=78, velocity=69, time=10)\n",
      "Message('note_on', channel=0, note=47, velocity=0, time=162)\n",
      "Message('control_change', channel=0, control=64, value=61, time=183)\n",
      "Message('control_change', channel=0, control=64, value=57, time=19)\n",
      "Message('note_on', channel=0, note=79, velocity=73, time=12)\n",
      "Message('control_change', channel=0, control=64, value=46, time=7)\n",
      "Message('note_on', channel=0, note=78, velocity=0, time=0)\n",
      "Message('control_change', channel=0, control=64, value=0, time=17)\n",
      "Message('control_change', channel=0, control=64, value=30, time=93)\n",
      "Message('control_change', channel=0, control=64, value=50, time=22)\n",
      "Message('control_change', channel=0, control=64, value=61, time=17)\n",
      "Message('note_on', channel=0, note=52, velocity=56, time=0)\n",
      "Message('control_change', channel=0, control=64, value=67, time=20)\n",
      "Message('control_change', channel=0, control=64, value=69, time=18)\n",
      "Message('note_on', channel=0, note=52, velocity=0, time=110)\n",
      "Message('note_on', channel=0, note=55, velocity=54, time=16)\n",
      "Message('note_on', channel=0, note=55, velocity=0, time=121)\n",
      "Message('note_on', channel=0, note=54, velocity=61, time=13)\n",
      "Message('note_on', channel=0, note=54, velocity=0, time=145)\n",
      "Message('note_on', channel=0, note=52, velocity=62, time=15)\n",
      "Message('control_change', channel=0, control=64, value=68, time=34)\n",
      "Message('control_change', channel=0, control=64, value=67, time=39)\n",
      "Message('control_change', channel=0, control=64, value=65, time=54)\n",
      "Message('note_on', channel=0, note=52, velocity=0, time=3)\n",
      "Message('note_on', channel=0, note=50, velocity=61, time=10)\n",
      "Message('note_on', channel=0, note=49, velocity=62, time=170)\n",
      "Message('note_on', channel=0, note=50, velocity=0, time=0)\n",
      "Message('control_change', channel=0, control=64, value=64, time=43)\n",
      "Message('control_change', channel=0, control=64, value=63, time=90)\n",
      "Message('control_change', channel=0, control=64, value=56, time=19)\n",
      "Message('note_on', channel=0, note=76, velocity=66, time=3)\n",
      "Message('note_on', channel=0, note=50, velocity=64, time=1)\n",
      "Message('control_change', channel=0, control=64, value=18, time=17)\n",
      "Message('note_on', channel=0, note=49, velocity=0, time=6)\n",
      "Message('control_change', channel=0, control=64, value=0, time=12)\n",
      "Message('note_on', channel=0, note=76, velocity=0, time=45)\n",
      "Message('control_change', channel=0, control=64, value=23, time=31)\n",
      "Message('control_change', channel=0, control=64, value=42, time=18)\n",
      "Message('control_change', channel=0, control=64, value=51, time=19)\n",
      "Message('note_on', channel=0, note=50, velocity=0, time=3)\n",
      "Message('note_on', channel=0, note=52, velocity=64, time=6)\n",
      "Message('control_change', channel=0, control=64, value=54, time=10)\n",
      "Message('note_on', channel=0, note=73, velocity=66, time=6)\n",
      "Message('note_on', channel=0, note=73, velocity=0, time=36)\n",
      "Message('note_on', channel=0, note=49, velocity=74, time=97)\n",
      "Message('note_on', channel=0, note=52, velocity=0, time=28)\n",
      "Message('note_on', channel=0, note=50, velocity=64, time=123)\n",
      "Message('note_on', channel=0, note=49, velocity=0, time=52)\n",
      "Message('note_on', channel=0, note=50, velocity=0, time=71)\n",
      "Message('note_on', channel=0, note=52, velocity=62, time=30)\n",
      "Message('control_change', channel=0, control=64, value=52, time=83)\n",
      "Message('control_change', channel=0, control=64, value=49, time=36)\n",
      "Message('control_change', channel=0, control=64, value=46, time=39)\n",
      "Message('control_change', channel=0, control=64, value=44, time=19)\n",
      "Message('note_on', channel=0, note=42, velocity=61, time=27)\n",
      "Message('note_on', channel=0, note=71, velocity=57, time=2)\n",
      "Message('control_change', channel=0, control=64, value=41, time=10)\n",
      "Message('note_on', channel=0, note=52, velocity=0, time=27)\n",
      "Message('control_change', channel=0, control=64, value=37, time=28)\n",
      "Message('control_change', channel=0, control=64, value=33, time=55)\n",
      "Message('control_change', channel=0, control=64, value=29, time=190)\n",
      "Message('note_on', channel=0, note=45, velocity=51, time=29)\n",
      "Message('note_on', channel=0, note=69, velocity=55, time=1)\n",
      "Message('note_on', channel=0, note=71, velocity=0, time=5)\n",
      "Message('note_on', channel=0, note=45, velocity=0, time=64)\n",
      "Message('control_change', channel=0, control=64, value=25, time=33)\n",
      "Message('note_on', channel=0, note=47, velocity=54, time=217)\n",
      "Message('note_on', channel=0, note=47, velocity=0, time=75)\n",
      "Message('control_change', channel=0, control=64, value=31, time=178)\n",
      "Message('control_change', channel=0, control=64, value=35, time=75)\n",
      "Message('note_on', channel=0, note=49, velocity=56, time=9)\n",
      "Message('control_change', channel=0, control=64, value=39, time=27)\n",
      "Message('control_change', channel=0, control=64, value=41, time=20)\n",
      "Message('note_on', channel=0, note=49, velocity=0, time=28)\n",
      "Message('control_change', channel=0, control=64, value=43, time=27)\n",
      "Message('note_on', channel=0, note=79, velocity=0, time=50)\n",
      "Message('note_on', channel=0, note=76, velocity=64, time=5)\n",
      "Message('note_on', channel=0, note=76, velocity=0, time=61)\n",
      "Message('control_change', channel=0, control=64, value=39, time=57)\n",
      "Message('control_change', channel=0, control=64, value=28, time=18)\n",
      "Message('control_change', channel=0, control=64, value=0, time=36)\n",
      "Message('note_on', channel=0, note=78, velocity=57, time=25)\n",
      "Message('note_on', channel=0, note=50, velocity=44, time=1)\n",
      "Message('control_change', channel=0, control=64, value=28, time=70)\n",
      "Message('control_change', channel=0, control=64, value=48, time=19)\n",
      "Message('control_change', channel=0, control=64, value=61, time=19)\n",
      "Message('control_change', channel=0, control=64, value=69, time=17)\n",
      "Message('note_on', channel=0, note=78, velocity=0, time=9)\n",
      "Message('control_change', channel=0, control=64, value=74, time=11)\n",
      "Message('note_on', channel=0, note=69, velocity=0, time=3)\n",
      "Message('control_change', channel=0, control=64, value=79, time=16)\n",
      "Message('control_change', channel=0, control=64, value=84, time=18)\n",
      "Message('control_change', channel=0, control=64, value=90, time=19)\n",
      "Message('control_change', channel=0, control=64, value=98, time=18)\n",
      "Message('control_change', channel=0, control=64, value=105, time=20)\n",
      "Message('control_change', channel=0, control=64, value=112, time=18)\n",
      "Message('control_change', channel=0, control=64, value=116, time=19)\n",
      "Message('note_on', channel=0, note=50, velocity=0, time=18)\n",
      "Message('note_on', channel=0, note=52, velocity=45, time=35)\n",
      "Message('control_change', channel=0, control=64, value=112, time=341)\n",
      "Message('control_change', channel=0, control=64, value=102, time=18)\n",
      "Message('control_change', channel=0, control=64, value=87, time=18)\n",
      "Message('note_on', channel=0, note=69, velocity=58, time=2)\n",
      "Message('note_on', channel=0, note=54, velocity=48, time=1)\n",
      "Message('control_change', channel=0, control=64, value=71, time=17)\n",
      "Message('note_on', channel=0, note=67, velocity=49, time=3)\n",
      "Message('note_on', channel=0, note=52, velocity=0, time=9)\n",
      "Message('control_change', channel=0, control=64, value=59, time=6)\n",
      "Message('control_change', channel=0, control=64, value=56, time=20)\n",
      "Message('note_on', channel=0, note=42, velocity=0, time=76)\n",
      "Message('note_on', channel=0, note=67, velocity=0, time=2)\n",
      "Message('note_on', channel=0, note=69, velocity=0, time=0)\n",
      "Message('note_on', channel=0, note=54, velocity=0, time=20)\n",
      "Message('control_change', channel=0, control=64, value=54, time=258)\n",
      "Message('control_change', channel=0, control=64, value=50, time=132)\n",
      "Message('control_change', channel=0, control=64, value=46, time=20)\n",
      "Message('control_change', channel=0, control=64, value=41, time=18)\n",
      "Message('control_change', channel=0, control=64, value=36, time=19)\n",
      "Message('control_change', channel=0, control=64, value=28, time=18)\n",
      "Message('control_change', channel=0, control=64, value=0, time=38)\n",
      "Message('note_on', channel=0, note=71, velocity=52, time=67)\n",
      "Message('note_on', channel=0, note=43, velocity=45, time=5)\n",
      "Message('note_on', channel=0, note=66, velocity=43, time=20)\n",
      "Message('control_change', channel=0, control=64, value=23, time=95)\n",
      "Message('note_on', channel=0, note=66, velocity=0, time=2)\n",
      "Message('control_change', channel=0, control=64, value=37, time=15)\n",
      "Message('note_on', channel=0, note=43, velocity=0, time=2)\n",
      "Message('note_on', channel=0, note=71, velocity=0, time=11)\n",
      "Message('control_change', channel=0, control=64, value=46, time=6)\n",
      "Message('control_change', channel=0, control=64, value=50, time=19)\n",
      "Message('control_change', channel=0, control=64, value=43, time=54)\n",
      "Message('control_change', channel=0, control=64, value=0, time=21)\n",
      "Message('note_on', channel=0, note=73, velocity=54, time=490)\n",
      "Message('note_on', channel=0, note=45, velocity=44, time=16)\n",
      "Message('note_on', channel=0, note=64, velocity=44, time=0)\n",
      "Message('note_on', channel=0, note=64, velocity=0, time=91)\n",
      "Message('note_on', channel=0, note=73, velocity=0, time=3)\n",
      "Message('note_on', channel=0, note=45, velocity=0, time=21)\n",
      "Message('note_on', channel=0, note=74, velocity=55, time=784)\n",
      "Message('note_on', channel=0, note=69, velocity=48, time=16)\n",
      "Message('note_on', channel=0, note=66, velocity=42, time=13)\n",
      "Message('note_on', channel=0, note=50, velocity=36, time=9)\n",
      "Message('control_change', channel=0, control=64, value=28, time=6)\n",
      "Message('control_change', channel=0, control=64, value=53, time=20)\n",
      "Message('control_change', channel=0, control=64, value=66, time=19)\n",
      "Message('control_change', channel=0, control=64, value=76, time=20)\n",
      "Message('control_change', channel=0, control=64, value=86, time=20)\n",
      "Message('control_change', channel=0, control=64, value=98, time=18)\n",
      "Message('control_change', channel=0, control=64, value=112, time=16)\n",
      "Message('control_change', channel=0, control=64, value=125, time=20)\n",
      "Message('note_on', channel=0, note=50, velocity=0, time=80)\n",
      "Message('control_change', channel=0, control=64, value=120, time=689)\n",
      "Message('control_change', channel=0, control=64, value=113, time=19)\n",
      "Message('control_change', channel=0, control=64, value=104, time=20)\n",
      "Message('control_change', channel=0, control=64, value=94, time=18)\n",
      "Message('control_change', channel=0, control=64, value=81, time=21)\n",
      "Message('control_change', channel=0, control=64, value=68, time=18)\n",
      "Message('control_change', channel=0, control=64, value=57, time=18)\n",
      "Message('control_change', channel=0, control=64, value=52, time=20)\n",
      "Message('note_on', channel=0, note=45, velocity=47, time=51)\n",
      "Message('control_change', channel=0, control=64, value=49, time=23)\n",
      "Message('control_change', channel=0, control=64, value=47, time=52)\n",
      "Message('note_on', channel=0, note=45, velocity=0, time=10)\n",
      "Message('note_on', channel=0, note=42, velocity=43, time=313)\n",
      "Message('note_on', channel=0, note=42, velocity=0, time=128)\n",
      "Message('control_change', channel=0, control=67, value=15, time=679)\n",
      "Message('note_on', channel=0, note=38, velocity=29, time=72)\n",
      "Message('control_change', channel=0, control=67, value=20, time=2)\n",
      "Message('control_change', channel=0, control=67, value=24, time=96)\n",
      "Message('control_change', channel=0, control=64, value=50, time=40)\n",
      "Message('control_change', channel=0, control=64, value=53, time=16)\n",
      "Message('control_change', channel=0, control=64, value=57, time=20)\n",
      "Message('control_change', channel=0, control=67, value=28, time=2)\n",
      "Message('control_change', channel=0, control=64, value=61, time=17)\n",
      "Message('control_change', channel=0, control=64, value=65, time=18)\n",
      "Message('control_change', channel=0, control=64, value=69, time=19)\n",
      "Message('control_change', channel=0, control=67, value=33, time=1)\n",
      "Message('control_change', channel=0, control=64, value=72, time=16)\n",
      "Message('control_change', channel=0, control=64, value=77, time=20)\n",
      "Message('control_change', channel=0, control=64, value=83, time=20)\n",
      "Message('control_change', channel=0, control=67, value=38, time=1)\n",
      "Message('control_change', channel=0, control=64, value=91, time=18)\n",
      "Message('control_change', channel=0, control=64, value=101, time=19)\n",
      "Message('control_change', channel=0, control=67, value=43, time=1)\n",
      "Message('control_change', channel=0, control=64, value=110, time=18)\n",
      "Message('control_change', channel=0, control=64, value=117, time=19)\n",
      "Message('control_change', channel=0, control=67, value=47, time=2)\n",
      "Message('control_change', channel=0, control=64, value=121, time=16)\n",
      "Message('control_change', channel=0, control=67, value=51, time=18)\n",
      "Message('note_on', channel=0, note=74, velocity=0, time=32)\n",
      "Message('note_on', channel=0, note=66, velocity=0, time=2)\n",
      "Message('control_change', channel=0, control=64, value=126, time=3)\n",
      "Message('note_on', channel=0, note=69, velocity=0, time=30)\n",
      "Message('note_on', channel=0, note=38, velocity=0, time=116)\n",
      "Message('control_change', channel=0, control=64, value=122, time=343)\n",
      "Message('control_change', channel=0, control=64, value=116, time=37)\n",
      "Message('control_change', channel=0, control=64, value=110, time=38)\n",
      "Message('control_change', channel=0, control=64, value=106, time=19)\n",
      "Message('control_change', channel=0, control=64, value=100, time=20)\n",
      "Message('control_change', channel=0, control=64, value=94, time=18)\n",
      "Message('control_change', channel=0, control=64, value=88, time=20)\n",
      "Message('control_change', channel=0, control=64, value=82, time=19)\n",
      "Message('control_change', channel=0, control=64, value=77, time=18)\n",
      "Message('control_change', channel=0, control=64, value=72, time=18)\n",
      "Message('control_change', channel=0, control=64, value=68, time=19)\n",
      "Message('control_change', channel=0, control=64, value=65, time=20)\n",
      "Message('control_change', channel=0, control=64, value=64, time=17)\n",
      "Message('control_change', channel=0, control=64, value=63, time=18)\n",
      "Message('control_change', channel=0, control=64, value=62, time=40)\n",
      "Message('note_on', channel=0, note=81, velocity=72, time=0)\n",
      "Message('control_change', channel=0, control=64, value=60, time=19)\n",
      "Message('control_change', channel=0, control=64, value=56, time=18)\n",
      "Message('control_change', channel=0, control=64, value=53, time=20)\n",
      "Message('control_change', channel=0, control=64, value=50, time=19)\n",
      "Message('control_change', channel=0, control=64, value=48, time=18)\n",
      "Message('control_change', channel=0, control=64, value=45, time=18)\n",
      "Message('control_change', channel=0, control=64, value=39, time=21)\n",
      "Message('control_change', channel=0, control=64, value=27, time=18)\n",
      "Message('control_change', channel=0, control=64, value=18, time=19)\n",
      "Message('control_change', channel=0, control=64, value=13, time=17)\n",
      "Message('control_change', channel=0, control=64, value=0, time=18)\n",
      "Message('note_on', channel=0, note=81, velocity=0, time=142)\n",
      "Message('note_on', channel=0, note=78, velocity=72, time=4)\n",
      "Message('control_change', channel=0, control=64, value=25, time=116)\n",
      "Message('control_change', channel=0, control=64, value=52, time=19)\n",
      "Message('control_change', channel=0, control=64, value=67, time=19)\n",
      "Message('control_change', channel=0, control=64, value=77, time=21)\n",
      "Message('control_change', channel=0, control=64, value=86, time=18)\n",
      "Message('control_change', channel=0, control=64, value=95, time=19)\n",
      "Message('note_on', channel=0, note=78, velocity=0, time=5)\n",
      "Message('control_change', channel=0, control=64, value=103, time=13)\n",
      "Message('control_change', channel=0, control=64, value=109, time=18)\n",
      "Message('control_change', channel=0, control=64, value=114, time=39)\n",
      "Message('control_change', channel=0, control=67, value=47, time=357)\n",
      "Message('control_change', channel=0, control=64, value=106, time=58)\n",
      "Message('control_change', channel=0, control=64, value=93, time=18)\n",
      "Message('note_on', channel=0, note=76, velocity=71, time=3)\n",
      "Message('control_change', channel=0, control=64, value=74, time=17)\n",
      "Message('control_change', channel=0, control=64, value=56, time=19)\n",
      "Message('control_change', channel=0, control=64, value=46, time=20)\n",
      "Message('control_change', channel=0, control=64, value=48, time=278)\n",
      "Message('note_on', channel=0, note=76, velocity=0, time=34)\n",
      "Message('note_on', channel=0, note=74, velocity=55, time=18)\n",
      "Message('note_on', channel=0, note=69, velocity=59, time=632)\n",
      "Message('control_change', channel=0, control=67, value=43, time=165)\n",
      "Message('control_change', channel=0, control=67, value=39, time=145)\n",
      "Message('note_on', channel=0, note=66, velocity=61, time=62)\n",
      "Message('note_on', channel=0, note=60, velocity=55, time=858)\n",
      "Message('control_change', channel=0, control=64, value=50, time=77)\n",
      "Message('control_change', channel=0, control=64, value=53, time=19)\n",
      "Message('control_change', channel=0, control=64, value=56, time=20)\n",
      "Message('control_change', channel=0, control=64, value=59, time=18)\n",
      "Message('control_change', channel=0, control=64, value=63, time=17)\n",
      "Message('control_change', channel=0, control=64, value=66, time=20)\n",
      "Message('control_change', channel=0, control=64, value=68, time=19)\n",
      "Message('control_change', channel=0, control=64, value=71, time=19)\n",
      "Message('control_change', channel=0, control=64, value=75, time=17)\n",
      "Message('control_change', channel=0, control=64, value=80, time=20)\n",
      "Message('control_change', channel=0, control=64, value=86, time=19)\n",
      "Message('control_change', channel=0, control=64, value=94, time=19)\n",
      "Message('control_change', channel=0, control=64, value=102, time=18)\n",
      "Message('control_change', channel=0, control=64, value=110, time=19)\n",
      "Message('control_change', channel=0, control=64, value=115, time=19)\n",
      "Message('note_on', channel=0, note=66, velocity=0, time=10)\n",
      "Message('note_on', channel=0, note=69, velocity=0, time=7)\n",
      "Message('control_change', channel=0, control=64, value=121, time=21)\n",
      "Message('note_on', channel=0, note=74, velocity=0, time=86)\n",
      "Message('control_change', channel=0, control=64, value=125, time=346)\n",
      "Message('control_change', channel=0, control=64, value=120, time=205)\n",
      "Message('note_on', channel=0, note=76, velocity=71, time=14)\n",
      "Message('note_on', channel=0, note=67, velocity=59, time=18)\n",
      "Message('control_change', channel=0, control=64, value=115, time=4)\n",
      "Message('note_on', channel=0, note=67, velocity=0, time=43)\n",
      "Message('note_on', channel=0, note=76, velocity=0, time=37)\n",
      "Message('control_change', channel=0, control=64, value=120, time=17)\n",
      "Message('control_change', channel=0, control=64, value=124, time=95)\n",
      "Message('note_on', channel=0, note=78, velocity=81, time=130)\n",
      "Message('note_on', channel=0, note=69, velocity=67, time=15)\n",
      "Message('control_change', channel=0, control=64, value=118, time=5)\n",
      "Message('control_change', channel=0, control=64, value=106, time=18)\n",
      "Message('control_change', channel=0, control=64, value=87, time=21)\n",
      "Message('control_change', channel=0, control=64, value=72, time=19)\n",
      "Message('control_change', channel=0, control=64, value=70, time=17)\n",
      "Message('control_change', channel=0, control=64, value=74, time=20)\n",
      "Message('control_change', channel=0, control=64, value=82, time=17)\n",
      "Message('control_change', channel=0, control=64, value=91, time=20)\n",
      "Message('control_change', channel=0, control=64, value=100, time=19)\n",
      "Message('control_change', channel=0, control=64, value=108, time=19)\n",
      "Message('control_change', channel=0, control=64, value=113, time=20)\n",
      "Message('note_on', channel=0, note=78, velocity=0, time=31)\n",
      "Message('control_change', channel=0, control=64, value=119, time=5)\n",
      "Message('control_change', channel=0, control=64, value=123, time=132)\n",
      "Message('control_change', channel=0, control=64, value=118, time=300)\n",
      "Message('control_change', channel=0, control=64, value=113, time=18)\n",
      "Message('control_change', channel=0, control=64, value=101, time=19)\n",
      "Message('note_on', channel=0, note=60, velocity=0, time=2)\n",
      "Message('note_on', channel=0, note=79, velocity=78, time=5)\n",
      "Message('note_on', channel=0, note=59, velocity=48, time=5)\n",
      "Message('control_change', channel=0, control=64, value=82, time=8)\n",
      "Message('note_on', channel=0, note=62, velocity=52, time=1)\n",
      "Message('control_change', channel=0, control=64, value=59, time=18)\n",
      "Message('control_change', channel=0, control=64, value=0, time=16)\n",
      "Message('note_on', channel=0, note=69, velocity=0, time=26)\n",
      "Message('control_change', channel=0, control=64, value=20, time=146)\n",
      "Message('control_change', channel=0, control=64, value=40, time=19)\n",
      "Message('control_change', channel=0, control=64, value=54, time=17)\n",
      "Message('control_change', channel=0, control=64, value=62, time=20)\n",
      "Message('control_change', channel=0, control=64, value=67, time=18)\n",
      "Message('control_change', channel=0, control=64, value=70, time=20)\n",
      "Message('note_on', channel=0, note=62, velocity=0, time=14)\n",
      "Message('note_on', channel=0, note=74, velocity=51, time=0)\n",
      "Message('control_change', channel=0, control=64, value=72, time=3)\n",
      "Message('control_change', channel=0, control=64, value=74, time=21)\n",
      "Message('control_change', channel=0, control=64, value=76, time=17)\n",
      "Message('control_change', channel=0, control=64, value=79, time=21)\n",
      "Message('control_change', channel=0, control=64, value=83, time=17)\n",
      "Message('control_change', channel=0, control=64, value=88, time=21)\n",
      "Message('control_change', channel=0, control=64, value=93, time=18)\n",
      "Message('control_change', channel=0, control=64, value=97, time=20)\n",
      "Message('control_change', channel=0, control=64, value=102, time=37)\n",
      "Message('note_on', channel=0, note=71, velocity=52, time=154)\n",
      "Message('control_change', channel=0, control=64, value=95, time=296)\n",
      "Message('note_on', channel=0, note=67, velocity=56, time=12)\n",
      "Message('control_change', channel=0, control=64, value=86, time=5)\n",
      "Message('note_on', channel=0, note=59, velocity=0, time=5)\n",
      "Message('note_on', channel=0, note=62, velocity=54, time=8)\n",
      "Message('control_change', channel=0, control=64, value=79, time=8)\n",
      "Message('control_change', channel=0, control=64, value=82, time=55)\n",
      "Message('control_change', channel=0, control=64, value=86, time=20)\n",
      "Message('control_change', channel=0, control=64, value=91, time=36)\n",
      "Message('control_change', channel=0, control=67, value=35, time=79)\n",
      "Message('note_on', channel=0, note=59, velocity=65, time=134)\n",
      "Message('note_on', channel=0, note=62, velocity=0, time=6)\n",
      "Message('control_change', channel=0, control=64, value=83, time=48)\n",
      "Message('control_change', channel=0, control=64, value=78, time=19)\n",
      "Message('control_change', channel=0, control=64, value=82, time=58)\n",
      "Message('control_change', channel=0, control=64, value=85, time=19)\n",
      "Message('control_change', channel=0, control=64, value=91, time=37)\n",
      "Message('control_change', channel=0, control=64, value=83, time=560)\n",
      "Message('note_on', channel=0, note=53, velocity=59, time=16)\n",
      "Message('control_change', channel=0, control=64, value=74, time=4)\n",
      "Message('control_change', channel=0, control=64, value=62, time=20)\n",
      "Message('control_change', channel=0, control=64, value=45, time=18)\n",
      "Message('control_change', channel=0, control=64, value=19, time=20)\n",
      "Message('control_change', channel=0, control=64, value=0, time=19)\n",
      "Message('note_on', channel=0, note=67, velocity=0, time=12)\n",
      "Message('control_change', channel=0, control=64, value=11, time=43)\n",
      "Message('control_change', channel=0, control=64, value=30, time=20)\n",
      "Message('control_change', channel=0, control=64, value=43, time=19)\n",
      "Message('control_change', channel=0, control=64, value=56, time=19)\n",
      "Message('control_change', channel=0, control=64, value=65, time=17)\n",
      "Message('control_change', channel=0, control=64, value=72, time=19)\n",
      "Message('control_change', channel=0, control=64, value=79, time=20)\n",
      "Message('control_change', channel=0, control=64, value=86, time=18)\n",
      "Message('control_change', channel=0, control=64, value=94, time=21)\n",
      "Message('control_change', channel=0, control=64, value=102, time=18)\n",
      "Message('control_change', channel=0, control=64, value=110, time=19)\n",
      "Message('control_change', channel=0, control=64, value=117, time=20)\n",
      "Message('control_change', channel=0, control=64, value=121, time=17)\n",
      "Message('note_on', channel=0, note=71, velocity=0, time=51)\n",
      "Message('control_change', channel=0, control=64, value=125, time=5)\n",
      "Message('note_on', channel=0, note=74, velocity=0, time=30)\n",
      "Message('note_on', channel=0, note=79, velocity=0, time=108)\n",
      "Message('note_on', channel=0, note=59, velocity=0, time=427)\n",
      "Message('note_on', channel=0, note=81, velocity=80, time=1)\n",
      "Message('note_on', channel=0, note=60, velocity=68, time=2)\n",
      "Message('note_on', channel=0, note=60, velocity=0, time=67)\n",
      "Message('note_on', channel=0, note=81, velocity=0, time=39)\n",
      "Message('control_change', channel=0, control=64, value=111, time=229)\n",
      "Message('control_change', channel=0, control=64, value=91, time=19)\n",
      "Message('note_on', channel=0, note=62, velocity=64, time=4)\n",
      "Message('note_on', channel=0, note=83, velocity=85, time=3)\n",
      "Message('control_change', channel=0, control=64, value=70, time=13)\n",
      "Message('control_change', channel=0, control=64, value=55, time=18)\n",
      "Message('control_change', channel=0, control=64, value=61, time=37)\n",
      "Message('control_change', channel=0, control=64, value=67, time=20)\n",
      "Message('control_change', channel=0, control=64, value=73, time=18)\n",
      "Message('control_change', channel=0, control=64, value=79, time=20)\n",
      "Message('control_change', channel=0, control=64, value=87, time=20)\n",
      "Message('control_change', channel=0, control=64, value=95, time=17)\n",
      "Message('control_change', channel=0, control=64, value=103, time=20)\n",
      "Message('control_change', channel=0, control=64, value=110, time=21)\n",
      "Message('control_change', channel=0, control=64, value=115, time=31)\n",
      "Message('control_change', channel=0, control=64, value=119, time=18)\n",
      "Message('control_change', channel=0, control=64, value=124, time=40)\n",
      "Message('note_on', channel=0, note=83, velocity=0, time=337)\n",
      "Message('note_on', channel=0, note=52, velocity=63, time=16)\n",
      "Message('control_change', channel=0, control=64, value=120, time=3)\n",
      "Message('control_change', channel=0, control=64, value=106, time=22)\n",
      "Message('control_change', channel=0, control=64, value=83, time=18)\n",
      "Message('control_change', channel=0, control=64, value=57, time=19)\n",
      "Message('note_on', channel=0, note=84, velocity=72, time=2)\n",
      "Message('note_on', channel=0, note=53, velocity=0, time=13)\n",
      "Message('control_change', channel=0, control=64, value=42, time=1)\n",
      "Message('control_change', channel=0, control=64, value=47, time=21)\n",
      "Message('control_change', channel=0, control=64, value=58, time=18)\n",
      "Message('control_change', channel=0, control=64, value=67, time=18)\n",
      "Message('control_change', channel=0, control=64, value=73, time=19)\n",
      "Message('control_change', channel=0, control=64, value=79, time=20)\n",
      "Message('control_change', channel=0, control=64, value=84, time=18)\n",
      "Message('control_change', channel=0, control=64, value=89, time=20)\n",
      "Message('note_on', channel=0, note=83, velocity=84, time=9)\n",
      "Message('control_change', channel=0, control=64, value=94, time=10)\n",
      "Message('note_on', channel=0, note=84, velocity=0, time=7)\n",
      "Message('control_change', channel=0, control=64, value=99, time=12)\n",
      "Message('control_change', channel=0, control=64, value=103, time=20)\n",
      "Message('note_on', channel=0, note=52, velocity=0, time=16)\n",
      "Message('control_change', channel=0, control=64, value=109, time=20)\n",
      "Message('note_on', channel=0, note=81, velocity=78, time=50)\n",
      "Message('note_on', channel=0, note=83, velocity=0, time=31)\n",
      "Message('note_on', channel=0, note=81, velocity=0, time=101)\n",
      "Message('note_on', channel=0, note=80, velocity=80, time=1)\n",
      "Message('note_on', channel=0, note=80, velocity=0, time=141)\n",
      "Message('control_change', channel=0, control=64, value=99, time=12)\n",
      "Message('note_on', channel=0, note=62, velocity=0, time=0)\n",
      "Message('note_on', channel=0, note=60, velocity=60, time=11)\n",
      "Message('note_on', channel=0, note=81, velocity=80, time=4)\n",
      "Message('control_change', channel=0, control=64, value=79, time=3)\n",
      "Message('note_on', channel=0, note=53, velocity=55, time=1)\n",
      "Message('control_change', channel=0, control=64, value=43, time=20)\n",
      "Message('control_change', channel=0, control=64, value=0, time=18)\n",
      "Message('control_change', channel=0, control=64, value=41, time=75)\n",
      "Message('control_change', channel=0, control=64, value=59, time=18)\n",
      "Message('control_change', channel=0, control=64, value=69, time=20)\n",
      "Message('control_change', channel=0, control=64, value=75, time=19)\n",
      "Message('control_change', channel=0, control=64, value=80, time=18)\n",
      "Message('note_on', channel=0, note=53, velocity=0, time=3)\n",
      "Message('note_on', channel=0, note=81, velocity=0, time=6)\n",
      "Message('control_change', channel=0, control=64, value=87, time=10)\n",
      "Message('control_change', channel=0, control=64, value=94, time=19)\n",
      "Message('control_change', channel=0, control=64, value=102, time=19)\n",
      "Message('control_change', channel=0, control=64, value=108, time=20)\n",
      "Message('control_change', channel=0, control=64, value=113, time=19)\n",
      "Message('note_on', channel=0, note=76, velocity=76, time=207)\n",
      "Message('control_change', channel=0, control=64, value=105, time=151)\n",
      "Message('note_on', channel=0, note=76, velocity=0, time=14)\n",
      "Message('control_change', channel=0, control=64, value=89, time=3)\n",
      "Message('note_on', channel=0, note=59, velocity=53, time=12)\n",
      "Message('note_on', channel=0, note=77, velocity=74, time=3)\n",
      "Message('control_change', channel=0, control=64, value=66, time=6)\n",
      "Message('note_on', channel=0, note=60, velocity=0, time=1)\n",
      "Message('note_on', channel=0, note=69, velocity=64, time=3)\n",
      "Message('note_on', channel=0, note=50, velocity=50, time=1)\n",
      "Message('control_change', channel=0, control=64, value=0, time=14)\n",
      "Message('control_change', channel=0, control=64, value=39, time=113)\n",
      "Message('control_change', channel=0, control=64, value=58, time=34)\n",
      "Message('control_change', channel=0, control=64, value=69, time=19)\n",
      "Message('control_change', channel=0, control=64, value=77, time=19)\n",
      "Message('control_change', channel=0, control=64, value=86, time=19)\n",
      "Message('note_on', channel=0, note=50, velocity=0, time=3)\n",
      "Message('control_change', channel=0, control=64, value=95, time=15)\n",
      "Message('control_change', channel=0, control=64, value=105, time=19)\n",
      "Message('control_change', channel=0, control=64, value=111, time=19)\n",
      "Message('control_change', channel=0, control=64, value=116, time=39)\n",
      "Message('control_change', channel=0, control=64, value=112, time=358)\n",
      "Message('note_on', channel=0, note=77, velocity=0, time=8)\n",
      "Message('note_on', channel=0, note=72, velocity=63, time=4)\n",
      "Message('control_change', channel=0, control=64, value=98, time=7)\n",
      "Message('control_change', channel=0, control=64, value=74, time=18)\n",
      "Message('note_on', channel=0, note=52, velocity=47, time=6)\n",
      "Message('control_change', channel=0, control=64, value=31, time=11)\n",
      "Message('control_change', channel=0, control=64, value=0, time=21)\n",
      "Message('note_on', channel=0, note=59, velocity=0, time=53)\n",
      "Message('control_change', channel=0, control=64, value=34, time=3)\n",
      "Message('control_change', channel=0, control=64, value=55, time=20)\n",
      "Message('control_change', channel=0, control=64, value=66, time=19)\n",
      "Message('control_change', channel=0, control=64, value=72, time=17)\n",
      "Message('control_change', channel=0, control=64, value=77, time=19)\n",
      "Message('control_change', channel=0, control=64, value=80, time=22)\n",
      "Message('control_change', channel=0, control=64, value=83, time=16)\n",
      "Message('control_change', channel=0, control=64, value=87, time=19)\n",
      "Message('control_change', channel=0, control=64, value=93, time=38)\n",
      "Message('control_change', channel=0, control=64, value=99, time=37)\n",
      "Message('note_on', channel=0, note=71, velocity=64, time=30)\n",
      "Message('note_on', channel=0, note=72, velocity=0, time=5)\n",
      "Message('control_change', channel=0, control=64, value=104, time=3)\n",
      "Message('control_change', channel=0, control=64, value=109, time=73)\n",
      "Message('control_change', channel=0, control=64, value=113, time=57)\n",
      "Message('note_on', channel=0, note=59, velocity=63, time=197)\n",
      "Message('control_change', channel=0, control=64, value=99, time=10)\n",
      "Message('control_change', channel=0, control=64, value=81, time=19)\n",
      "Message('control_change', channel=0, control=64, value=62, time=18)\n",
      "Message('control_change', channel=0, control=64, value=56, time=19)\n",
      "Message('control_change', channel=0, control=64, value=61, time=20)\n",
      "Message('control_change', channel=0, control=64, value=67, time=18)\n",
      "Message('control_change', channel=0, control=64, value=73, time=20)\n",
      "Message('control_change', channel=0, control=64, value=79, time=18)\n",
      "Message('control_change', channel=0, control=64, value=86, time=20)\n",
      "Message('control_change', channel=0, control=64, value=93, time=19)\n",
      "Message('control_change', channel=0, control=64, value=99, time=20)\n",
      "Message('note_on', channel=0, note=59, velocity=0, time=6)\n",
      "Message('control_change', channel=0, control=64, value=103, time=10)\n",
      "Message('control_change', channel=0, control=64, value=107, time=39)\n",
      "Message('note_on', channel=0, note=69, velocity=0, time=3)\n",
      "Message('note_on', channel=0, note=77, velocity=64, time=70)\n",
      "Message('note_on', channel=0, note=71, velocity=0, time=43)\n",
      "Message('control_change', channel=0, control=64, value=100, time=262)\n",
      "Message('control_change', channel=0, control=64, value=86, time=19)\n",
      "Message('note_on', channel=0, note=77, velocity=0, time=9)\n",
      "Message('note_on', channel=0, note=76, velocity=63, time=6)\n",
      "Message('control_change', channel=0, control=64, value=65, time=3)\n",
      "Message('note_on', channel=0, note=64, velocity=42, time=3)\n",
      "Message('note_on', channel=0, note=68, velocity=51, time=27)\n",
      "Message('control_change', channel=0, control=64, value=0, time=2)\n",
      "Message('control_change', channel=0, control=64, value=11, time=114)\n",
      "Message('control_change', channel=0, control=64, value=46, time=19)\n",
      "Message('control_change', channel=0, control=64, value=62, time=20)\n",
      "Message('control_change', channel=0, control=64, value=73, time=19)\n",
      "Message('control_change', channel=0, control=64, value=82, time=19)\n",
      "Message('note_on', channel=0, note=52, velocity=0, time=17)\n",
      "Message('control_change', channel=0, control=64, value=93, time=2)\n",
      "Message('note_on', channel=0, note=64, velocity=0, time=3)\n",
      "Message('control_change', channel=0, control=64, value=106, time=15)\n",
      "Message('note_on', channel=0, note=68, velocity=0, time=3)\n",
      "Message('control_change', channel=0, control=64, value=115, time=15)\n",
      "Message('control_change', channel=0, control=64, value=120, time=20)\n",
      "Message('control_change', channel=0, control=64, value=124, time=153)\n",
      "Message('note_on', channel=0, note=76, velocity=0, time=44)\n",
      "Message('control_change', channel=0, control=64, value=105, time=200)\n",
      "Message('note_on', channel=0, note=57, velocity=51, time=14)\n",
      "Message('note_on', channel=0, note=74, velocity=70, time=0)\n",
      "Message('control_change', channel=0, control=64, value=80, time=5)\n",
      "Message('control_change', channel=0, control=64, value=57, time=18)\n",
      "Message('note_on', channel=0, note=69, velocity=45, time=5)\n",
      "Message('control_change', channel=0, control=64, value=52, time=13)\n",
      "Message('control_change', channel=0, control=64, value=56, time=20)\n",
      "Message('control_change', channel=0, control=64, value=62, time=19)\n",
      "Message('control_change', channel=0, control=64, value=66, time=18)\n",
      "Message('control_change', channel=0, control=64, value=68, time=18)\n",
      "Message('note_on', channel=0, note=74, velocity=0, time=92)\n",
      "Message('note_on', channel=0, note=72, velocity=57, time=24)\n",
      "Message('note_on', channel=0, note=72, velocity=0, time=72)\n",
      "Message('note_on', channel=0, note=74, velocity=60, time=5)\n",
      "Message('control_change', channel=0, control=64, value=67, time=30)\n",
      "Message('control_change', channel=0, control=64, value=65, time=16)\n",
      "Message('control_change', channel=0, control=64, value=63, time=19)\n",
      "Message('note_on', channel=0, note=72, velocity=69, time=0)\n",
      "Message('note_on', channel=0, note=74, velocity=0, time=1)\n",
      "Message('control_change', channel=0, control=64, value=62, time=18)\n",
      "Message('control_change', channel=0, control=64, value=59, time=20)\n",
      "Message('control_change', channel=0, control=64, value=57, time=18)\n",
      "Message('control_change', channel=0, control=64, value=54, time=38)\n",
      "Message('control_change', channel=0, control=64, value=52, time=56)\n",
      "Message('control_change', channel=0, control=64, value=43, time=39)\n",
      "Message('control_change', channel=0, control=64, value=23, time=20)\n",
      "Message('control_change', channel=0, control=64, value=0, time=16)\n",
      "Message('note_on', channel=0, note=52, velocity=55, time=70)\n",
      "Message('control_change', channel=0, control=64, value=34, time=101)\n",
      "Message('control_change', channel=0, control=64, value=50, time=19)\n",
      "Message('control_change', channel=0, control=64, value=58, time=21)\n",
      "Message('note_on', channel=0, note=52, velocity=0, time=15)\n",
      "Message('control_change', channel=0, control=64, value=62, time=1)\n",
      "Message('control_change', channel=0, control=64, value=64, time=18)\n",
      "Message('control_change', channel=0, control=64, value=63, time=116)\n",
      "Message('control_change', channel=0, control=64, value=62, time=18)\n",
      "Message('control_change', channel=0, control=64, value=61, time=18)\n",
      "Message('note_on', channel=0, note=71, velocity=64, time=12)\n",
      "Message('control_change', channel=0, control=64, value=60, time=8)\n",
      "Message('note_on', channel=0, note=72, velocity=0, time=10)\n",
      "Message('note_on', channel=0, note=69, velocity=0, time=26)\n",
      "Message('control_change', channel=0, control=64, value=57, time=19)\n",
      "Message('control_change', channel=0, control=64, value=55, time=40)\n",
      "Message('control_change', channel=0, control=64, value=53, time=55)\n",
      "Message('control_change', channel=0, control=64, value=51, time=111)\n",
      "Message('control_change', channel=0, control=64, value=48, time=35)\n",
      "Message('control_change', channel=0, control=64, value=44, time=20)\n",
      "Message('control_change', channel=0, control=64, value=38, time=19)\n",
      "Message('control_change', channel=0, control=64, value=0, time=19)\n",
      "Message('note_on', channel=0, note=71, velocity=0, time=5)\n",
      "Message('note_on', channel=0, note=48, velocity=44, time=3)\n",
      "Message('note_on', channel=0, note=69, velocity=59, time=6)\n",
      "Message('control_change', channel=0, control=64, value=18, time=119)\n",
      "Message('control_change', channel=0, control=64, value=51, time=18)\n",
      "Message('control_change', channel=0, control=64, value=67, time=20)\n",
      "Message('control_change', channel=0, control=64, value=77, time=19)\n",
      "Message('note_on', channel=0, note=48, velocity=0, time=8)\n",
      "Message('control_change', channel=0, control=64, value=88, time=9)\n",
      "Message('control_change', channel=0, control=64, value=100, time=19)\n",
      "Message('control_change', channel=0, control=64, value=111, time=20)\n",
      "Message('control_change', channel=0, control=64, value=118, time=19)\n",
      "Message('note_on', channel=0, note=69, velocity=0, time=7)\n",
      "Message('control_change', channel=0, control=64, value=110, time=484)\n",
      "Message('control_change', channel=0, control=64, value=91, time=19)\n",
      "Message('note_on', channel=0, note=45, velocity=50, time=10)\n",
      "Message('control_change', channel=0, control=64, value=67, time=9)\n",
      "Message('note_on', channel=0, note=69, velocity=65, time=8)\n",
      "Message('control_change', channel=0, control=64, value=41, time=25)\n",
      "Message('control_change', channel=0, control=64, value=34, time=19)\n",
      "Message('control_change', channel=0, control=64, value=44, time=38)\n",
      "Message('control_change', channel=0, control=64, value=49, time=19)\n",
      "Message('control_change', channel=0, control=64, value=53, time=18)\n",
      "Message('note_on', channel=0, note=57, velocity=0, time=14)\n",
      "Message('control_change', channel=0, control=64, value=55, time=80)\n",
      "Message('control_change', channel=0, control=64, value=57, time=58)\n",
      "Message('note_on', channel=0, note=45, velocity=0, time=435)\n",
      "Message('note_on', channel=0, note=47, velocity=47, time=13)\n",
      "Message('note_on', channel=0, note=72, velocity=63, time=151)\n",
      "Message('note_on', channel=0, note=69, velocity=0, time=7)\n",
      "Message('note_on', channel=0, note=72, velocity=0, time=170)\n",
      "Message('note_on', channel=0, note=71, velocity=67, time=3)\n",
      "Message('note_on', channel=0, note=71, velocity=0, time=124)\n",
      "Message('note_on', channel=0, note=69, velocity=56, time=33)\n",
      "Message('control_change', channel=0, control=64, value=55, time=3)\n",
      "Message('control_change', channel=0, control=64, value=53, time=38)\n",
      "Message('control_change', channel=0, control=64, value=50, time=20)\n",
      "Message('control_change', channel=0, control=64, value=46, time=18)\n",
      "Message('control_change', channel=0, control=64, value=37, time=18)\n",
      "Message('control_change', channel=0, control=64, value=22, time=20)\n",
      "Message('note_on', channel=0, note=69, velocity=0, time=15)\n",
      "Message('control_change', channel=0, control=64, value=0, time=2)\n",
      "Message('note_on', channel=0, note=47, velocity=0, time=20)\n",
      "Message('note_on', channel=0, note=76, velocity=63, time=20)\n",
      "Message('note_on', channel=0, note=48, velocity=45, time=4)\n",
      "Message('control_change', channel=0, control=64, value=36, time=127)\n",
      "Message('control_change', channel=0, control=64, value=60, time=19)\n",
      "Message('control_change', channel=0, control=64, value=73, time=18)\n",
      "Message('control_change', channel=0, control=64, value=85, time=19)\n",
      "Message('control_change', channel=0, control=64, value=99, time=21)\n",
      "Message('control_change', channel=0, control=64, value=113, time=18)\n",
      "Message('control_change', channel=0, control=64, value=126, time=19)\n",
      "Message('control_change', channel=0, control=64, value=104, time=542)\n",
      "Message('control_change', channel=0, control=64, value=74, time=20)\n",
      "Message('note_on', channel=0, note=66, velocity=59, time=5)\n",
      "Message('note_on', channel=0, note=38, velocity=43, time=10)\n",
      "Message('control_change', channel=0, control=64, value=0, time=23)\n",
      "Message('note_on', channel=0, note=48, velocity=0, time=15)\n",
      "Message('control_change', channel=0, control=64, value=43, time=41)\n",
      "Message('control_change', channel=0, control=64, value=59, time=19)\n",
      "Message('note_on', channel=0, note=76, velocity=0, time=16)\n",
      "Message('control_change', channel=0, control=64, value=67, time=3)\n",
      "Message('control_change', channel=0, control=64, value=71, time=18)\n",
      "Message('control_change', channel=0, control=64, value=73, time=38)\n",
      "Message('control_change', channel=0, control=64, value=75, time=95)\n",
      "Message('note_on', channel=0, note=45, velocity=62, time=53)\n",
      "Message('note_on', channel=0, note=38, velocity=0, time=279)\n",
      "Message('control_change', channel=0, control=64, value=73, time=8)\n",
      "Message('control_change', channel=0, control=64, value=68, time=19)\n",
      "Message('control_change', channel=0, control=64, value=60, time=20)\n",
      "Message('note_on', channel=0, note=50, velocity=68, time=6)\n",
      "Message('note_on', channel=0, note=45, velocity=0, time=1)\n",
      "Message('control_change', channel=0, control=64, value=52, time=12)\n",
      "Message('control_change', channel=0, control=64, value=58, time=52)\n",
      "Message('control_change', channel=0, control=64, value=66, time=18)\n",
      "Message('control_change', channel=0, control=64, value=71, time=21)\n",
      "Message('control_change', channel=0, control=64, value=76, time=16)\n",
      "Message('control_change', channel=0, control=64, value=79, time=19)\n",
      "Message('control_change', channel=0, control=64, value=82, time=39)\n",
      "Message('control_change', channel=0, control=64, value=84, time=20)\n",
      "Message('control_change', channel=0, control=64, value=87, time=16)\n",
      "Message('control_change', channel=0, control=64, value=91, time=39)\n",
      "Message('note_on', channel=0, note=52, velocity=55, time=52)\n",
      "Message('note_on', channel=0, note=69, velocity=67, time=34)\n",
      "Message('note_on', channel=0, note=50, velocity=0, time=10)\n",
      "Message('note_on', channel=0, note=66, velocity=0, time=7)\n",
      "Message('control_change', channel=0, control=64, value=79, time=8)\n",
      "Message('control_change', channel=0, control=64, value=69, time=21)\n",
      "Message('control_change', channel=0, control=64, value=67, time=19)\n",
      "Message('control_change', channel=0, control=64, value=71, time=36)\n",
      "Message('note_on', channel=0, note=54, velocity=62, time=24)\n",
      "Message('note_on', channel=0, note=52, velocity=0, time=15)\n",
      "Message('control_change', channel=0, control=64, value=66, time=113)\n",
      "Message('control_change', channel=0, control=64, value=58, time=19)\n",
      "Message('control_change', channel=0, control=64, value=32, time=19)\n",
      "Message('note_on', channel=0, note=54, velocity=0, time=3)\n",
      "Message('note_on', channel=0, note=52, velocity=60, time=7)\n",
      "Message('control_change', channel=0, control=64, value=0, time=8)\n",
      "Message('note_on', channel=0, note=69, velocity=0, time=8)\n",
      "Message('note_on', channel=0, note=72, velocity=67, time=2)\n",
      "Message('control_change', channel=0, control=64, value=23, time=106)\n",
      "Message('control_change', channel=0, control=64, value=33, time=18)\n",
      "Message('control_change', channel=0, control=64, value=44, time=19)\n",
      "Message('control_change', channel=0, control=64, value=54, time=21)\n",
      "Message('control_change', channel=0, control=64, value=62, time=16)\n",
      "Message('control_change', channel=0, control=64, value=68, time=18)\n",
      "Message('control_change', channel=0, control=64, value=71, time=20)\n",
      "Message('control_change', channel=0, control=64, value=74, time=38)\n",
      "Message('control_change', channel=0, control=64, value=77, time=19)\n",
      "Message('control_change', channel=0, control=64, value=80, time=20)\n",
      "Message('control_change', channel=0, control=64, value=85, time=19)\n",
      "Message('control_change', channel=0, control=64, value=91, time=33)\n",
      "Message('control_change', channel=0, control=64, value=97, time=18)\n",
      "Message('note_on', channel=0, note=54, velocity=60, time=4)\n",
      "Message('control_change', channel=0, control=64, value=101, time=16)\n",
      "Message('control_change', channel=0, control=64, value=106, time=37)\n",
      "Message('note_on', channel=0, note=52, velocity=0, time=5)\n",
      "Message('control_change', channel=0, control=64, value=110, time=51)\n",
      "Message('note_on', channel=0, note=55, velocity=60, time=25)\n",
      "Message('note_on', channel=0, note=54, velocity=0, time=24)\n",
      "Message('control_change', channel=0, control=64, value=115, time=6)\n",
      "Message('note_on', channel=0, note=55, velocity=0, time=39)\n",
      "Message('control_change', channel=0, control=64, value=109, time=58)\n",
      "Message('control_change', channel=0, control=64, value=90, time=20)\n",
      "Message('note_on', channel=0, note=62, velocity=66, time=8)\n",
      "Message('note_on', channel=0, note=54, velocity=64, time=6)\n",
      "Message('control_change', channel=0, control=64, value=62, time=1)\n",
      "Message('control_change', channel=0, control=64, value=0, time=21)\n",
      "Message('control_change', channel=0, control=64, value=16, time=55)\n",
      "Message('control_change', channel=0, control=64, value=44, time=20)\n",
      "Message('control_change', channel=0, control=64, value=56, time=19)\n",
      "Message('control_change', channel=0, control=64, value=58, time=18)\n",
      "Message('note_on', channel=0, note=55, velocity=59, time=215)\n",
      "Message('note_on', channel=0, note=54, velocity=0, time=37)\n",
      "Message('note_on', channel=0, note=55, velocity=0, time=88)\n",
      "Message('note_on', channel=0, note=57, velocity=60, time=16)\n",
      "Message('note_on', channel=0, note=50, velocity=62, time=187)\n",
      "Message('note_on', channel=0, note=57, velocity=0, time=26)\n",
      "Message('control_change', channel=0, control=64, value=56, time=14)\n",
      "Message('note_on', channel=0, note=66, velocity=62, time=125)\n",
      "Message('note_on', channel=0, note=72, velocity=0, time=24)\n",
      "Message('note_on', channel=0, note=62, velocity=0, time=8)\n",
      "Message('note_on', channel=0, note=54, velocity=62, time=115)\n",
      "Message('note_on', channel=0, note=64, velocity=66, time=8)\n",
      "Message('note_on', channel=0, note=50, velocity=0, time=4)\n",
      "Message('note_on', channel=0, note=66, velocity=0, time=36)\n",
      "Message('note_on', channel=0, note=64, velocity=0, time=97)\n",
      "Message('note_on', channel=0, note=62, velocity=67, time=3)\n",
      "Message('control_change', channel=0, control=64, value=53, time=90)\n",
      "Message('control_change', channel=0, control=64, value=50, time=17)\n",
      "Message('control_change', channel=0, control=64, value=44, time=21)\n",
      "Message('control_change', channel=0, control=64, value=33, time=16)\n",
      "Message('control_change', channel=0, control=64, value=0, time=21)\n",
      "Message('note_on', channel=0, note=71, velocity=70, time=4)\n",
      "Message('note_on', channel=0, note=55, velocity=57, time=9)\n",
      "Message('note_on', channel=0, note=62, velocity=0, time=17)\n",
      "Message('note_on', channel=0, note=54, velocity=0, time=28)\n",
      "Message('control_change', channel=0, control=64, value=34, time=299)\n",
      "Message('note_on', channel=0, note=59, velocity=65, time=13)\n",
      "Message('control_change', channel=0, control=64, value=54, time=4)\n",
      "Message('control_change', channel=0, control=64, value=65, time=18)\n",
      "Message('control_change', channel=0, control=64, value=71, time=19)\n",
      "Message('control_change', channel=0, control=64, value=77, time=20)\n",
      "Message('control_change', channel=0, control=64, value=81, time=19)\n",
      "Message('control_change', channel=0, control=64, value=86, time=17)\n",
      "Message('control_change', channel=0, control=64, value=90, time=19)\n",
      "Message('control_change', channel=0, control=64, value=95, time=19)\n",
      "Message('control_change', channel=0, control=64, value=99, time=20)\n",
      "Message('note_on', channel=0, note=59, velocity=0, time=1)\n",
      "Message('control_change', channel=0, control=64, value=103, time=17)\n",
      "Message('control_change', channel=0, control=64, value=93, time=169)\n",
      "Message('control_change', channel=0, control=64, value=74, time=22)\n",
      "Message('note_on', channel=0, note=69, velocity=70, time=7)\n",
      "Message('control_change', channel=0, control=64, value=44, time=9)\n",
      "Message('note_on', channel=0, note=60, velocity=57, time=3)\n",
      "Message('note_on', channel=0, note=71, velocity=0, time=16)\n",
      "Message('control_change', channel=0, control=64, value=0, time=2)\n",
      "Message('note_on', channel=0, note=55, velocity=0, time=34)\n",
      "Message('control_change', channel=0, control=64, value=23, time=78)\n",
      "Message('control_change', channel=0, control=64, value=39, time=19)\n",
      "Message('control_change', channel=0, control=64, value=50, time=19)\n",
      "Message('control_change', channel=0, control=64, value=57, time=17)\n",
      "Message('control_change', channel=0, control=64, value=61, time=20)\n",
      "Message('control_change', channel=0, control=64, value=63, time=18)\n",
      "Message('control_change', channel=0, control=64, value=65, time=21)\n",
      "Message('control_change', channel=0, control=64, value=66, time=18)\n",
      "Message('note_on', channel=0, note=55, velocity=47, time=74)\n",
      "Message('control_change', channel=0, control=64, value=67, time=20)\n",
      "Message('note_on', channel=0, note=54, velocity=54, time=302)\n",
      "Message('note_on', channel=0, note=55, velocity=0, time=36)\n",
      "Message('control_change', channel=0, control=64, value=69, time=17)\n",
      "Message('control_change', channel=0, control=64, value=66, time=170)\n",
      "Message('control_change', channel=0, control=64, value=65, time=18)\n",
      "Message('note_on', channel=0, note=54, velocity=0, time=53)\n",
      "Message('note_on', channel=0, note=52, velocity=55, time=3)\n",
      "Message('note_on', channel=0, note=76, velocity=75, time=6)\n",
      "Message('control_change', channel=0, control=64, value=66, time=15)\n",
      "Message('control_change', channel=0, control=64, value=67, time=57)\n",
      "Message('control_change', channel=0, control=64, value=68, time=37)\n",
      "Message('note_on', channel=0, note=76, velocity=0, time=18)\n",
      "Message('control_change', channel=0, control=64, value=66, time=171)\n",
      "Message('control_change', channel=0, control=64, value=65, time=19)\n",
      "Message('note_on', channel=0, note=52, velocity=0, time=12)\n",
      "Message('control_change', channel=0, control=64, value=61, time=6)\n",
      "Message('note_on', channel=0, note=51, velocity=59, time=12)\n",
      "Message('note_on', channel=0, note=81, velocity=75, time=4)\n",
      "Message('control_change', channel=0, control=64, value=49, time=1)\n",
      "Message('control_change', channel=0, control=64, value=0, time=20)\n",
      "Message('control_change', channel=0, control=64, value=28, time=149)\n",
      "Message('control_change', channel=0, control=64, value=48, time=20)\n",
      "Message('control_change', channel=0, control=64, value=61, time=17)\n",
      "Message('control_change', channel=0, control=64, value=69, time=21)\n",
      "Message('control_change', channel=0, control=64, value=74, time=16)\n",
      "Message('control_change', channel=0, control=64, value=79, time=20)\n",
      "Message('control_change', channel=0, control=64, value=82, time=18)\n",
      "Message('note_on', channel=0, note=69, velocity=0, time=2)\n",
      "Message('control_change', channel=0, control=64, value=86, time=19)\n",
      "Message('control_change', channel=0, control=64, value=94, time=36)\n",
      "Message('control_change', channel=0, control=64, value=99, time=18)\n",
      "Message('note_on', channel=0, note=52, velocity=56, time=4)\n",
      "Message('control_change', channel=0, control=64, value=103, time=17)\n",
      "Message('control_change', channel=0, control=64, value=108, time=38)\n",
      "Message('control_change', channel=0, control=64, value=112, time=55)\n",
      "Message('note_on', channel=0, note=51, velocity=0, time=39)\n",
      "Message('control_change', channel=0, control=64, value=116, time=54)\n",
      "Message('control_change', channel=0, control=64, value=106, time=135)\n",
      "Message('control_change', channel=0, control=64, value=87, time=17)\n",
      "Message('note_on', channel=0, note=51, velocity=54, time=16)\n",
      "Message('note_on', channel=0, note=71, velocity=68, time=0)\n",
      "Message('control_change', channel=0, control=64, value=61, time=4)\n",
      "Message('note_on', channel=0, note=81, velocity=0, time=2)\n",
      "Message('note_on', channel=0, note=52, velocity=0, time=13)\n",
      "Message('control_change', channel=0, control=64, value=0, time=5)\n",
      "Message('note_on', channel=0, note=60, velocity=0, time=29)\n",
      "Message('control_change', channel=0, control=64, value=13, time=83)\n",
      "Message('control_change', channel=0, control=64, value=19, time=19)\n",
      "Message('control_change', channel=0, control=64, value=25, time=19)\n",
      "Message('control_change', channel=0, control=64, value=31, time=38)\n",
      "Message('control_change', channel=0, control=64, value=36, time=17)\n",
      "Message('control_change', channel=0, control=64, value=41, time=20)\n",
      "Message('control_change', channel=0, control=64, value=44, time=18)\n",
      "Message('control_change', channel=0, control=64, value=46, time=19)\n",
      "Message('control_change', channel=0, control=64, value=48, time=38)\n",
      "Message('note_on', channel=0, note=51, velocity=0, time=62)\n",
      "Message('note_on', channel=0, note=52, velocity=55, time=0)\n",
      "Message('control_change', channel=0, control=64, value=50, time=29)\n",
      "Message('note_on', channel=0, note=52, velocity=0, time=121)\n",
      "Message('note_on', channel=0, note=54, velocity=57, time=1)\n",
      "Message('note_on', channel=0, note=47, velocity=55, time=159)\n",
      "Message('note_on', channel=0, note=54, velocity=0, time=3)\n",
      "Message('control_change', channel=0, control=64, value=48, time=18)\n",
      "Message('control_change', channel=0, control=64, value=44, time=19)\n",
      "Message('control_change', channel=0, control=64, value=47, time=94)\n",
      "Message('note_on', channel=0, note=81, velocity=69, time=31)\n",
      "Message('control_change', channel=0, control=64, value=49, time=6)\n",
      "Message('note_on', channel=0, note=47, velocity=0, time=141)\n",
      "Message('note_on', channel=0, note=81, velocity=0, time=2)\n",
      "Message('note_on', channel=0, note=79, velocity=61, time=5)\n",
      "Message('note_on', channel=0, note=51, velocity=57, time=7)\n",
      "Message('note_on', channel=0, note=78, velocity=68, time=138)\n",
      "Message('note_on', channel=0, note=79, velocity=0, time=2)\n",
      "Message('control_change', channel=0, control=64, value=44, time=101)\n",
      "Message('note_on', channel=0, note=51, velocity=0, time=13)\n",
      "Message('control_change', channel=0, control=64, value=34, time=4)\n",
      "Message('control_change', channel=0, control=64, value=0, time=18)\n",
      "Message('note_on', channel=0, note=52, velocity=51, time=44)\n",
      "Message('note_on', channel=0, note=78, velocity=0, time=16)\n",
      "Message('note_on', channel=0, note=79, velocity=68, time=1)\n",
      "Message('control_change', channel=0, control=64, value=19, time=143)\n",
      "Message('control_change', channel=0, control=64, value=44, time=19)\n",
      "Message('control_change', channel=0, control=64, value=59, time=19)\n",
      "Message('control_change', channel=0, control=64, value=67, time=20)\n",
      "Message('control_change', channel=0, control=64, value=72, time=19)\n",
      "Message('note_on', channel=0, note=79, velocity=0, time=3)\n",
      "Message('note_on', channel=0, note=71, velocity=0, time=7)\n",
      "Message('control_change', channel=0, control=64, value=77, time=9)\n",
      "Message('control_change', channel=0, control=64, value=81, time=19)\n",
      "Message('control_change', channel=0, control=64, value=87, time=20)\n",
      "Message('control_change', channel=0, control=64, value=93, time=18)\n",
      "Message('control_change', channel=0, control=64, value=99, time=18)\n",
      "Message('control_change', channel=0, control=64, value=104, time=19)\n",
      "Message('note_on', channel=0, note=54, velocity=56, time=24)\n",
      "Message('note_on', channel=0, note=55, velocity=56, time=173)\n",
      "Message('note_on', channel=0, note=52, velocity=0, time=11)\n",
      "Message('note_on', channel=0, note=54, velocity=0, time=0)\n",
      "Message('control_change', channel=0, control=64, value=97, time=112)\n",
      "Message('control_change', channel=0, control=64, value=86, time=20)\n",
      "Message('note_on', channel=0, note=57, velocity=57, time=5)\n",
      "Message('control_change', channel=0, control=64, value=74, time=13)\n",
      "Message('note_on', channel=0, note=72, velocity=74, time=5)\n",
      "Message('note_on', channel=0, note=55, velocity=0, time=1)\n",
      "Message('control_change', channel=0, control=64, value=64, time=14)\n",
      "Message('control_change', channel=0, control=64, value=61, time=20)\n",
      "Message('note_on', channel=0, note=71, velocity=72, time=113)\n",
      "Message('note_on', channel=0, note=72, velocity=0, time=138)\n",
      "Message('note_on', channel=0, note=69, velocity=75, time=17)\n",
      "Message('note_on', channel=0, note=71, velocity=0, time=9)\n",
      "Message('control_change', channel=0, control=64, value=62, time=19)\n",
      "Message('note_on', channel=0, note=69, velocity=0, time=93)\n",
      "Message('note_on', channel=0, note=67, velocity=70, time=25)\n",
      "Message('note_on', channel=0, note=67, velocity=0, time=126)\n",
      "Message('note_on', channel=0, note=66, velocity=71, time=46)\n",
      "Message('note_on', channel=0, note=76, velocity=64, time=150)\n",
      "Message('note_on', channel=0, note=66, velocity=0, time=12)\n",
      "Message('control_change', channel=0, control=64, value=61, time=59)\n",
      "Message('control_change', channel=0, control=64, value=60, time=55)\n",
      "Message('note_on', channel=0, note=76, velocity=0, time=29)\n",
      "Message('control_change', channel=0, control=64, value=57, time=9)\n",
      "Message('note_on', channel=0, note=54, velocity=60, time=5)\n",
      "Message('note_on', channel=0, note=74, velocity=66, time=6)\n",
      "Message('control_change', channel=0, control=64, value=53, time=7)\n",
      "Message('control_change', channel=0, control=64, value=46, time=21)\n",
      "Message('control_change', channel=0, control=64, value=37, time=20)\n",
      "Message('control_change', channel=0, control=64, value=28, time=17)\n",
      "Message('note_on', channel=0, note=54, velocity=0, time=1)\n",
      "Message('control_change', channel=0, control=64, value=23, time=36)\n",
      "Message('note_on', channel=0, note=74, velocity=0, time=36)\n",
      "Message('control_change', channel=0, control=64, value=15, time=2)\n",
      "Message('note_on', channel=0, note=72, velocity=65, time=17)\n",
      "Message('control_change', channel=0, control=64, value=0, time=2)\n",
      "Message('note_on', channel=0, note=72, velocity=0, time=234)\n",
      "Message('note_on', channel=0, note=74, velocity=57, time=17)\n",
      "Message('note_on', channel=0, note=48, velocity=40, time=14)\n",
      "Message('control_change', channel=0, control=64, value=37, time=108)\n",
      "Message('control_change', channel=0, control=64, value=59, time=20)\n",
      "Message('control_change', channel=0, control=64, value=72, time=20)\n",
      "Message('control_change', channel=0, control=64, value=82, time=18)\n",
      "Message('note_on', channel=0, note=74, velocity=0, time=11)\n",
      "Message('control_change', channel=0, control=64, value=94, time=6)\n",
      "Message('control_change', channel=0, control=64, value=105, time=21)\n",
      "Message('control_change', channel=0, control=64, value=113, time=20)\n",
      "Message('control_change', channel=0, control=64, value=108, time=226)\n",
      "Message('control_change', channel=0, control=64, value=102, time=36)\n",
      "Message('control_change', channel=0, control=64, value=98, time=19)\n",
      "Message('control_change', channel=0, control=64, value=94, time=20)\n",
      "Message('control_change', channel=0, control=67, value=39, time=2)\n",
      "Message('control_change', channel=0, control=64, value=90, time=55)\n",
      "Message('control_change', channel=0, control=64, value=87, time=55)\n",
      "Message('control_change', channel=0, control=64, value=83, time=20)\n",
      "Message('control_change', channel=0, control=64, value=79, time=19)\n",
      "Message('control_change', channel=0, control=64, value=74, time=19)\n",
      "Message('control_change', channel=0, control=64, value=67, time=17)\n",
      "Message('control_change', channel=0, control=67, value=43, time=0)\n",
      "Message('control_change', channel=0, control=64, value=59, time=19)\n",
      "Message('control_change', channel=0, control=64, value=44, time=20)\n",
      "Message('control_change', channel=0, control=64, value=0, time=18)\n",
      "Message('note_on', channel=0, note=62, velocity=47, time=6)\n",
      "Message('note_on', channel=0, note=48, velocity=0, time=17)\n",
      "Message('note_on', channel=0, note=47, velocity=46, time=3)\n",
      "Message('note_on', channel=0, note=60, velocity=42, time=9)\n",
      "Message('control_change', channel=0, control=67, value=47, time=20)\n",
      "Message('control_change', channel=0, control=67, value=51, time=39)\n",
      "Message('control_change', channel=0, control=64, value=39, time=35)\n",
      "Message('control_change', channel=0, control=67, value=57, time=1)\n",
      "Message('control_change', channel=0, control=64, value=57, time=19)\n",
      "Message('control_change', channel=0, control=64, value=65, time=19)\n",
      "Message('control_change', channel=0, control=64, value=69, time=17)\n",
      "Message('control_change', channel=0, control=67, value=62, time=2)\n",
      "Message('note_on', channel=0, note=60, velocity=0, time=9)\n",
      "Message('note_on', channel=0, note=62, velocity=0, time=3)\n",
      "Message('note_on', channel=0, note=47, velocity=0, time=2)\n",
      "Message('control_change', channel=0, control=64, value=65, time=21)\n",
      "Message('control_change', channel=0, control=64, value=57, time=21)\n",
      "Message('note_on', channel=0, note=57, velocity=0, time=17)\n",
      "Message('control_change', channel=0, control=64, value=47, time=1)\n",
      "Message('control_change', channel=0, control=64, value=41, time=20)\n",
      "Message('control_change', channel=0, control=67, value=66, time=19)\n",
      "Message('control_change', channel=0, control=67, value=70, time=74)\n",
      "Message('control_change', channel=0, control=64, value=36, time=302)\n",
      "Message('control_change', channel=0, control=64, value=25, time=20)\n",
      "Message('control_change', channel=0, control=64, value=0, time=18)\n",
      "Message('note_on', channel=0, note=64, velocity=48, time=46)\n",
      "Message('note_on', channel=0, note=59, velocity=41, time=16)\n",
      "Message('note_on', channel=0, note=48, velocity=42, time=2)\n",
      "Message('note_on', channel=0, note=55, velocity=40, time=4)\n",
      "Message('control_change', channel=0, control=64, value=28, time=83)\n",
      "Message('control_change', channel=0, control=64, value=52, time=20)\n",
      "Message('note_on', channel=0, note=55, velocity=0, time=9)\n",
      "Message('note_on', channel=0, note=59, velocity=0, time=2)\n",
      "Message('control_change', channel=0, control=64, value=64, time=4)\n",
      "Message('note_on', channel=0, note=48, velocity=0, time=7)\n",
      "Message('control_change', channel=0, control=64, value=70, time=15)\n",
      "Message('note_on', channel=0, note=64, velocity=0, time=2)\n",
      "Message('control_change', channel=0, control=64, value=72, time=16)\n",
      "Message('control_change', channel=0, control=64, value=69, time=20)\n",
      "Message('control_change', channel=0, control=64, value=64, time=34)\n",
      "Message('control_change', channel=0, control=64, value=56, time=19)\n",
      "Message('control_change', channel=0, control=64, value=51, time=20)\n",
      "Message('control_change', channel=0, control=64, value=48, time=74)\n",
      "Message('control_change', channel=0, control=64, value=45, time=20)\n",
      "Message('control_change', channel=0, control=64, value=43, time=74)\n",
      "Message('control_change', channel=0, control=64, value=41, time=207)\n",
      "Message('control_change', channel=0, control=64, value=32, time=96)\n",
      "Message('control_change', channel=0, control=64, value=0, time=19)\n",
      "Message('note_on', channel=0, note=66, velocity=50, time=58)\n",
      "Message('note_on', channel=0, note=50, velocity=43, time=11)\n",
      "Message('note_on', channel=0, note=57, velocity=46, time=8)\n",
      "Message('control_change', channel=0, control=64, value=38, time=128)\n",
      "Message('note_on', channel=0, note=57, velocity=0, time=12)\n",
      "Message('control_change', channel=0, control=64, value=57, time=7)\n",
      "Message('note_on', channel=0, note=50, velocity=0, time=9)\n",
      "Message('control_change', channel=0, control=64, value=66, time=11)\n",
      "Message('note_on', channel=0, note=66, velocity=0, time=3)\n",
      "Message('control_change', channel=0, control=64, value=64, time=37)\n",
      "Message('control_change', channel=0, control=64, value=62, time=17)\n",
      "Message('control_change', channel=0, control=64, value=61, time=19)\n",
      "Message('control_change', channel=0, control=64, value=60, time=57)\n",
      "Message('control_change', channel=0, control=64, value=58, time=186)\n",
      "Message('control_change', channel=0, control=64, value=55, time=55)\n",
      "Message('control_change', channel=0, control=64, value=53, time=76)\n",
      "Message('control_change', channel=0, control=64, value=50, time=21)\n",
      "Message('control_change', channel=0, control=64, value=47, time=18)\n",
      "Message('control_change', channel=0, control=67, value=66, time=150)\n",
      "Message('control_change', channel=0, control=64, value=44, time=186)\n",
      "Message('note_on', channel=0, note=62, velocity=41, time=25)\n",
      "Message('note_on', channel=0, note=43, velocity=40, time=8)\n",
      "Message('note_on', channel=0, note=59, velocity=42, time=1)\n",
      "Message('note_on', channel=0, note=67, velocity=44, time=0)\n",
      "Message('control_change', channel=0, control=64, value=40, time=25)\n",
      "Message('control_change', channel=0, control=64, value=33, time=18)\n",
      "Message('control_change', channel=0, control=64, value=18, time=21)\n",
      "Message('control_change', channel=0, control=64, value=23, time=130)\n",
      "Message('control_change', channel=0, control=64, value=40, time=19)\n",
      "Message('control_change', channel=0, control=64, value=55, time=21)\n",
      "Message('control_change', channel=0, control=64, value=66, time=18)\n",
      "Message('control_change', channel=0, control=64, value=73, time=34)\n",
      "Message('control_change', channel=0, control=64, value=81, time=19)\n",
      "Message('control_change', channel=0, control=64, value=91, time=20)\n",
      "Message('control_change', channel=0, control=64, value=103, time=18)\n",
      "Message('control_change', channel=0, control=64, value=116, time=17)\n",
      "Message('control_change', channel=0, control=64, value=126, time=20)\n",
      "Message('note_on', channel=0, note=43, velocity=0, time=126)\n",
      "Message('control_change', channel=0, control=64, value=120, time=309)\n",
      "Message('control_change', channel=0, control=64, value=114, time=21)\n",
      "Message('control_change', channel=0, control=64, value=110, time=18)\n",
      "Message('control_change', channel=0, control=64, value=105, time=38)\n",
      "Message('control_change', channel=0, control=64, value=97, time=37)\n",
      "Message('control_change', channel=0, control=64, value=90, time=20)\n",
      "Message('control_change', channel=0, control=64, value=82, time=18)\n",
      "Message('control_change', channel=0, control=64, value=74, time=21)\n",
      "Message('control_change', channel=0, control=64, value=67, time=18)\n",
      "Message('control_change', channel=0, control=64, value=65, time=19)\n",
      "Message('control_change', channel=0, control=64, value=63, time=55)\n",
      "Message('control_change', channel=0, control=64, value=61, time=19)\n",
      "Message('control_change', channel=0, control=64, value=58, time=20)\n",
      "Message('control_change', channel=0, control=64, value=55, time=19)\n",
      "Message('note_on', channel=0, note=47, velocity=50, time=8)\n",
      "Message('note_on', channel=0, note=47, velocity=0, time=128)\n",
      "Message('control_change', channel=0, control=64, value=53, time=9)\n",
      "Message('control_change', channel=0, control=64, value=51, time=267)\n",
      "Message('control_change', channel=0, control=64, value=49, time=17)\n",
      "Message('note_on', channel=0, note=50, velocity=45, time=7)\n",
      "Message('control_change', channel=0, control=64, value=47, time=14)\n",
      "Message('control_change', channel=0, control=64, value=43, time=17)\n",
      "Message('control_change', channel=0, control=64, value=39, time=20)\n",
      "Message('control_change', channel=0, control=64, value=42, time=74)\n",
      "Message('control_change', channel=0, control=64, value=46, time=21)\n",
      "Message('note_on', channel=0, note=50, velocity=0, time=51)\n",
      "Message('note_on', channel=0, note=55, velocity=34, time=726)\n",
      "Message('control_change', channel=0, control=64, value=48, time=164)\n",
      "Message('control_change', channel=0, control=64, value=51, time=17)\n",
      "Message('control_change', channel=0, control=64, value=56, time=20)\n",
      "Message('control_change', channel=0, control=64, value=61, time=18)\n",
      "Message('control_change', channel=0, control=64, value=66, time=20)\n",
      "Message('control_change', channel=0, control=64, value=70, time=17)\n",
      "Message('control_change', channel=0, control=64, value=75, time=19)\n",
      "Message('control_change', channel=0, control=64, value=81, time=19)\n",
      "Message('control_change', channel=0, control=64, value=88, time=20)\n",
      "Message('control_change', channel=0, control=64, value=96, time=19)\n",
      "Message('control_change', channel=0, control=64, value=101, time=17)\n",
      "Message('control_change', channel=0, control=64, value=106, time=19)\n",
      "Message('control_change', channel=0, control=64, value=110, time=19)\n",
      "Message('control_change', channel=0, control=64, value=114, time=19)\n",
      "Message('control_change', channel=0, control=64, value=118, time=18)\n",
      "Message('note_on', channel=0, note=59, velocity=0, time=6)\n",
      "Message('control_change', channel=0, control=64, value=124, time=32)\n",
      "Message('note_on', channel=0, note=62, velocity=0, time=51)\n",
      "Message('note_on', channel=0, note=67, velocity=0, time=22)\n",
      "Message('note_on', channel=0, note=55, velocity=0, time=64)\n",
      "Message('control_change', channel=0, control=64, value=120, time=256)\n",
      "Message('control_change', channel=0, control=64, value=116, time=38)\n",
      "Message('control_change', channel=0, control=64, value=110, time=38)\n",
      "Message('control_change', channel=0, control=64, value=105, time=37)\n",
      "Message('control_change', channel=0, control=64, value=101, time=39)\n",
      "Message('control_change', channel=0, control=64, value=95, time=38)\n",
      "Message('control_change', channel=0, control=64, value=89, time=17)\n",
      "Message('control_change', channel=0, control=64, value=82, time=19)\n",
      "Message('control_change', channel=0, control=64, value=75, time=20)\n",
      "Message('control_change', channel=0, control=64, value=68, time=17)\n",
      "Message('control_change', channel=0, control=64, value=64, time=21)\n",
      "Message('control_change', channel=0, control=64, value=63, time=19)\n",
      "Message('control_change', channel=0, control=64, value=62, time=37)\n",
      "Message('control_change', channel=0, control=64, value=60, time=38)\n",
      "Message('control_change', channel=0, control=64, value=57, time=19)\n",
      "Message('control_change', channel=0, control=64, value=55, time=19)\n",
      "Message('note_on', channel=0, note=81, velocity=68, time=17)\n",
      "Message('control_change', channel=0, control=64, value=52, time=1)\n",
      "Message('control_change', channel=0, control=64, value=50, time=38)\n",
      "Message('control_change', channel=0, control=64, value=48, time=56)\n",
      "Message('control_change', channel=0, control=64, value=46, time=18)\n",
      "Message('control_change', channel=0, control=64, value=44, time=20)\n",
      "Message('control_change', channel=0, control=64, value=42, time=113)\n",
      "Message('control_change', channel=0, control=64, value=40, time=58)\n",
      "Message('control_change', channel=0, control=64, value=36, time=50)\n",
      "Message('note_on', channel=0, note=78, velocity=74, time=18)\n",
      "Message('control_change', channel=0, control=64, value=31, time=1)\n",
      "Message('note_on', channel=0, note=81, velocity=0, time=11)\n",
      "Message('control_change', channel=0, control=64, value=19, time=8)\n",
      "Message('control_change', channel=0, control=64, value=0, time=21)\n",
      "Message('control_change', channel=0, control=64, value=33, time=93)\n",
      "Message('control_change', channel=0, control=64, value=57, time=20)\n",
      "Message('control_change', channel=0, control=64, value=70, time=19)\n",
      "Message('control_change', channel=0, control=64, value=80, time=19)\n",
      "Message('note_on', channel=0, note=78, velocity=0, time=11)\n",
      "Message('control_change', channel=0, control=64, value=90, time=6)\n",
      "Message('control_change', channel=0, control=64, value=100, time=19)\n",
      "Message('control_change', channel=0, control=64, value=109, time=20)\n",
      "Message('control_change', channel=0, control=64, value=115, time=18)\n",
      "Message('control_change', channel=0, control=64, value=119, time=59)\n",
      "Message('control_change', channel=0, control=67, value=62, time=19)\n",
      "Message('control_change', channel=0, control=64, value=106, time=433)\n",
      "Message('note_on', channel=0, note=76, velocity=71, time=14)\n",
      "Message('control_change', channel=0, control=64, value=90, time=5)\n",
      "Message('control_change', channel=0, control=64, value=75, time=19)\n",
      "Message('control_change', channel=0, control=64, value=64, time=19)\n",
      "Message('control_change', channel=0, control=64, value=61, time=17)\n",
      "Message('note_on', channel=0, note=76, velocity=0, time=669)\n",
      "Message('note_on', channel=0, note=74, velocity=58, time=12)\n",
      "Message('note_on', channel=0, note=69, velocity=51, time=332)\n",
      "Message('control_change', channel=0, control=64, value=60, time=75)\n",
      "Message('control_change', channel=0, control=64, value=58, time=285)\n",
      "Message('note_on', channel=0, note=66, velocity=58, time=15)\n",
      "Message('control_change', channel=0, control=64, value=56, time=678)\n",
      "Message('control_change', channel=0, control=64, value=54, time=40)\n",
      "Message('control_change', channel=0, control=64, value=52, time=18)\n",
      "Message('control_change', channel=0, control=64, value=48, time=19)\n",
      "Message('control_change', channel=0, control=64, value=43, time=17)\n",
      "Message('note_on', channel=0, note=60, velocity=58, time=8)\n",
      "Message('control_change', channel=0, control=64, value=39, time=12)\n",
      "Message('control_change', channel=0, control=64, value=34, time=18)\n",
      "Message('control_change', channel=0, control=64, value=38, time=133)\n",
      "Message('control_change', channel=0, control=64, value=46, time=19)\n",
      "Message('control_change', channel=0, control=64, value=54, time=20)\n",
      "Message('control_change', channel=0, control=64, value=61, time=16)\n",
      "Message('control_change', channel=0, control=64, value=66, time=20)\n",
      "Message('control_change', channel=0, control=64, value=70, time=20)\n",
      "Message('control_change', channel=0, control=64, value=73, time=19)\n",
      "Message('control_change', channel=0, control=64, value=77, time=18)\n",
      "Message('control_change', channel=0, control=64, value=82, time=17)\n",
      "Message('control_change', channel=0, control=64, value=87, time=20)\n",
      "Message('control_change', channel=0, control=64, value=91, time=19)\n",
      "Message('note_on', channel=0, note=69, velocity=0, time=6)\n",
      "Message('control_change', channel=0, control=64, value=98, time=32)\n",
      "Message('control_change', channel=0, control=64, value=102, time=19)\n",
      "Message('control_change', channel=0, control=64, value=106, time=19)\n",
      "Message('note_on', channel=0, note=66, velocity=0, time=5)\n",
      "Message('control_change', channel=0, control=64, value=112, time=15)\n",
      "Message('control_change', channel=0, control=64, value=116, time=17)\n",
      "Message('control_change', channel=0, control=64, value=120, time=38)\n",
      "Message('note_on', channel=0, note=74, velocity=0, time=110)\n",
      "Message('note_on', channel=0, note=76, velocity=74, time=404)\n",
      "Message('note_on', channel=0, note=67, velocity=61, time=14)\n",
      "Message('note_on', channel=0, note=67, velocity=0, time=47)\n",
      "Message('note_on', channel=0, note=76, velocity=0, time=25)\n",
      "Message('note_on', channel=0, note=78, velocity=79, time=268)\n",
      "Message('note_on', channel=0, note=69, velocity=69, time=13)\n",
      "Message('control_change', channel=0, control=64, value=112, time=3)\n",
      "Message('control_change', channel=0, control=64, value=96, time=20)\n",
      "Message('control_change', channel=0, control=64, value=73, time=18)\n",
      "Message('control_change', channel=0, control=64, value=60, time=18)\n",
      "Message('control_change', channel=0, control=64, value=62, time=20)\n",
      "Message('control_change', channel=0, control=64, value=69, time=17)\n",
      "Message('control_change', channel=0, control=64, value=77, time=19)\n",
      "Message('control_change', channel=0, control=64, value=85, time=18)\n",
      "Message('control_change', channel=0, control=64, value=96, time=21)\n",
      "Message('control_change', channel=0, control=64, value=106, time=17)\n",
      "Message('control_change', channel=0, control=64, value=114, time=21)\n",
      "Message('control_change', channel=0, control=64, value=119, time=20)\n",
      "Message('note_on', channel=0, note=78, velocity=0, time=31)\n",
      "Message('control_change', channel=0, control=64, value=123, time=132)\n",
      "Message('control_change', channel=0, control=64, value=113, time=304)\n",
      "Message('control_change', channel=0, control=64, value=100, time=17)\n",
      "Message('note_on', channel=0, note=62, velocity=57, time=1)\n",
      "Message('note_on', channel=0, note=59, velocity=52, time=3)\n",
      "Message('note_on', channel=0, note=79, velocity=77, time=10)\n",
      "Message('control_change', channel=0, control=64, value=78, time=5)\n",
      "Message('control_change', channel=0, control=64, value=49, time=21)\n",
      "Message('note_on', channel=0, note=60, velocity=0, time=12)\n",
      "Message('control_change', channel=0, control=64, value=0, time=5)\n",
      "Message('note_on', channel=0, note=69, velocity=0, time=98)\n",
      "Message('control_change', channel=0, control=64, value=16, time=94)\n",
      "Message('control_change', channel=0, control=64, value=38, time=18)\n",
      "Message('control_change', channel=0, control=64, value=52, time=19)\n",
      "Message('control_change', channel=0, control=64, value=61, time=17)\n",
      "Message('control_change', channel=0, control=64, value=66, time=18)\n",
      "Message('control_change', channel=0, control=64, value=69, time=21)\n",
      "Message('control_change', channel=0, control=64, value=72, time=17)\n",
      "Message('note_on', channel=0, note=74, velocity=59, time=1)\n",
      "Message('control_change', channel=0, control=64, value=74, time=37)\n",
      "Message('control_change', channel=0, control=64, value=78, time=37)\n",
      "Message('control_change', channel=0, control=64, value=82, time=22)\n",
      "Message('control_change', channel=0, control=64, value=85, time=17)\n",
      "Message('control_change', channel=0, control=64, value=89, time=20)\n",
      "Message('control_change', channel=0, control=64, value=95, time=37)\n",
      "Message('note_on', channel=0, note=62, velocity=0, time=138)\n",
      "Message('note_on', channel=0, note=71, velocity=66, time=13)\n",
      "Message('control_change', channel=0, control=64, value=99, time=34)\n",
      "Message('control_change', channel=0, control=67, value=58, time=94)\n",
      "Message('note_on', channel=0, note=67, velocity=69, time=180)\n",
      "Message('note_on', channel=0, note=62, velocity=62, time=7)\n",
      "Message('note_on', channel=0, note=59, velocity=0, time=29)\n",
      "Message('control_change', channel=0, control=67, value=54, time=105)\n",
      "Message('note_on', channel=0, note=59, velocity=76, time=206)\n",
      "Message('note_on', channel=0, note=62, velocity=0, time=72)\n",
      "Message('control_change', channel=0, control=64, value=88, time=660)\n",
      "Message('control_change', channel=0, control=64, value=72, time=21)\n",
      "Message('note_on', channel=0, note=53, velocity=72, time=10)\n",
      "Message('control_change', channel=0, control=64, value=37, time=8)\n",
      "Message('control_change', channel=0, control=64, value=0, time=20)\n",
      "Message('control_change', channel=0, control=64, value=33, time=76)\n",
      "Message('control_change', channel=0, control=64, value=52, time=17)\n",
      "Message('control_change', channel=0, control=64, value=62, time=20)\n",
      "Message('control_change', channel=0, control=64, value=68, time=19)\n",
      "Message('control_change', channel=0, control=64, value=72, time=18)\n",
      "Message('control_change', channel=0, control=64, value=76, time=18)\n",
      "Message('control_change', channel=0, control=64, value=79, time=18)\n",
      "Message('control_change', channel=0, control=64, value=82, time=21)\n",
      "Message('control_change', channel=0, control=64, value=87, time=19)\n",
      "Message('control_change', channel=0, control=64, value=92, time=18)\n",
      "Message('control_change', channel=0, control=64, value=99, time=20)\n",
      "Message('control_change', channel=0, control=64, value=107, time=19)\n",
      "Message('control_change', channel=0, control=64, value=112, time=19)\n",
      "Message('note_on', channel=0, note=67, velocity=0, time=15)\n",
      "Message('control_change', channel=0, control=64, value=117, time=22)\n",
      "Message('control_change', channel=0, control=64, value=121, time=57)\n",
      "Message('note_on', channel=0, note=71, velocity=0, time=4)\n",
      "Message('note_on', channel=0, note=74, velocity=0, time=30)\n",
      "Message('control_change', channel=0, control=64, value=126, time=36)\n",
      "Message('control_change', channel=0, control=67, value=50, time=60)\n",
      "Message('note_on', channel=0, note=79, velocity=0, time=30)\n",
      "Message('note_on', channel=0, note=59, velocity=0, time=321)\n",
      "Message('note_on', channel=0, note=81, velocity=85, time=54)\n",
      "Message('note_on', channel=0, note=60, velocity=70, time=4)\n",
      "Message('note_on', channel=0, note=81, velocity=0, time=114)\n",
      "Message('note_on', channel=0, note=60, velocity=0, time=5)\n",
      "Message('control_change', channel=0, control=64, value=113, time=188)\n",
      "Message('control_change', channel=0, control=64, value=91, time=20)\n",
      "Message('control_change', channel=0, control=64, value=62, time=19)\n",
      "Message('note_on', channel=0, note=83, velocity=85, time=4)\n",
      "Message('note_on', channel=0, note=62, velocity=72, time=6)\n",
      "Message('control_change', channel=0, control=64, value=35, time=6)\n",
      "Message('control_change', channel=0, control=67, value=46, time=2)\n",
      "Message('control_change', channel=0, control=64, value=39, time=18)\n",
      "Message('control_change', channel=0, control=64, value=53, time=19)\n",
      "Message('control_change', channel=0, control=64, value=64, time=19)\n",
      "Message('control_change', channel=0, control=67, value=42, time=1)\n",
      "Message('control_change', channel=0, control=64, value=71, time=32)\n",
      "Message('control_change', channel=0, control=64, value=77, time=19)\n",
      "Message('control_change', channel=0, control=64, value=83, time=19)\n",
      "Message('control_change', channel=0, control=67, value=37, time=1)\n",
      "Message('control_change', channel=0, control=64, value=89, time=19)\n",
      "Message('control_change', channel=0, control=67, value=33, time=2)\n",
      "Message('control_change', channel=0, control=64, value=95, time=16)\n",
      "Message('control_change', channel=0, control=67, value=28, time=2)\n",
      "Message('control_change', channel=0, control=64, value=100, time=20)\n",
      "Message('control_change', channel=0, control=67, value=23, time=0)\n",
      "Message('note_on', channel=0, note=53, velocity=0, time=1)\n",
      "Message('control_change', channel=0, control=64, value=104, time=16)\n",
      "Message('control_change', channel=0, control=67, value=19, time=19)\n",
      "Message('control_change', channel=0, control=64, value=109, time=18)\n",
      "Message('control_change', channel=0, control=64, value=115, time=37)\n",
      "Message('control_change', channel=0, control=64, value=120, time=19)\n",
      "Message('control_change', channel=0, control=67, value=14, time=4)\n",
      "Message('control_change', channel=0, control=64, value=124, time=14)\n",
      "Message('control_change', channel=0, control=67, value=10, time=37)\n",
      "Message('note_on', channel=0, note=83, velocity=0, time=315)\n",
      "Message('note_on', channel=0, note=52, velocity=63, time=16)\n",
      "Message('control_change', channel=0, control=64, value=91, time=12)\n",
      "Message('control_change', channel=0, control=64, value=57, time=17)\n",
      "Message('control_change', channel=0, control=64, value=28, time=20)\n",
      "Message('note_on', channel=0, note=84, velocity=80, time=1)\n",
      "Message('control_change', channel=0, control=64, value=36, time=18)\n",
      "Message('control_change', channel=0, control=67, value=0, time=1)\n",
      "Message('control_change', channel=0, control=64, value=52, time=17)\n",
      "Message('control_change', channel=0, control=64, value=65, time=18)\n",
      "Message('control_change', channel=0, control=64, value=74, time=18)\n",
      "Message('control_change', channel=0, control=64, value=82, time=21)\n",
      "Message('control_change', channel=0, control=64, value=91, time=19)\n",
      "Message('control_change', channel=0, control=64, value=98, time=18)\n",
      "Message('control_change', channel=0, control=64, value=105, time=20)\n",
      "Message('control_change', channel=0, control=64, value=109, time=19)\n",
      "Message('note_on', channel=0, note=84, velocity=0, time=27)\n",
      "Message('note_on', channel=0, note=52, velocity=0, time=19)\n",
      "Message('control_change', channel=0, control=64, value=113, time=8)\n",
      "Message('control_change', channel=0, control=64, value=117, time=91)\n",
      "Message('note_on', channel=0, note=83, velocity=65, time=122)\n",
      "Message('note_on', channel=0, note=81, velocity=71, time=62)\n",
      "Message('note_on', channel=0, note=83, velocity=0, time=0)\n",
      "Message('note_on', channel=0, note=81, velocity=0, time=66)\n",
      "Message('note_on', channel=0, note=80, velocity=78, time=26)\n",
      "Message('note_on', channel=0, note=80, velocity=0, time=59)\n",
      "Message('control_change', channel=0, control=64, value=110, time=25)\n",
      "Message('note_on', channel=0, note=62, velocity=0, time=0)\n",
      "Message('note_on', channel=0, note=60, velocity=64, time=8)\n",
      "Message('note_on', channel=0, note=81, velocity=87, time=0)\n",
      "Message('control_change', channel=0, control=64, value=87, time=13)\n",
      "Message('note_on', channel=0, note=53, velocity=57, time=3)\n",
      "Message('control_change', channel=0, control=64, value=51, time=14)\n",
      "Message('control_change', channel=0, control=64, value=0, time=18)\n",
      "Message('control_change', channel=0, control=64, value=19, time=40)\n",
      "Message('control_change', channel=0, control=64, value=56, time=17)\n",
      "Message('control_change', channel=0, control=64, value=71, time=18)\n",
      "Message('control_change', channel=0, control=64, value=83, time=20)\n",
      "Message('control_change', channel=0, control=64, value=95, time=20)\n",
      "Message('note_on', channel=0, note=53, velocity=0, time=10)\n",
      "Message('control_change', channel=0, control=64, value=104, time=8)\n",
      "Message('control_change', channel=0, control=64, value=110, time=18)\n",
      "Message('control_change', channel=0, control=64, value=114, time=95)\n",
      "Message('note_on', channel=0, note=81, velocity=0, time=26)\n",
      "Message('control_change', channel=0, control=64, value=118, time=30)\n",
      "Message('note_on', channel=0, note=76, velocity=80, time=178)\n",
      "Message('control_change', channel=0, control=64, value=109, time=160)\n",
      "Message('note_on', channel=0, note=76, velocity=0, time=14)\n",
      "Message('control_change', channel=0, control=64, value=91, time=4)\n",
      "Message('note_on', channel=0, note=77, velocity=78, time=10)\n",
      "Message('note_on', channel=0, note=59, velocity=60, time=1)\n",
      "Message('note_on', channel=0, note=50, velocity=59, time=7)\n",
      "Message('control_change', channel=0, control=64, value=60, time=2)\n",
      "Message('note_on', channel=0, note=69, velocity=69, time=1)\n",
      "Message('note_on', channel=0, note=60, velocity=0, time=14)\n",
      "Message('control_change', channel=0, control=64, value=0, time=1)\n",
      "Message('control_change', channel=0, control=64, value=25, time=76)\n",
      "Message('control_change', channel=0, control=64, value=52, time=19)\n",
      "Message('control_change', channel=0, control=64, value=65, time=20)\n",
      "Message('control_change', channel=0, control=64, value=73, time=18)\n",
      "Message('control_change', channel=0, control=64, value=80, time=20)\n",
      "Message('control_change', channel=0, control=64, value=87, time=20)\n",
      "Message('control_change', channel=0, control=64, value=95, time=18)\n",
      "Message('control_change', channel=0, control=64, value=102, time=18)\n",
      "Message('control_change', channel=0, control=64, value=108, time=22)\n",
      "Message('note_on', channel=0, note=50, velocity=0, time=24)\n",
      "Message('control_change', channel=0, control=64, value=114, time=10)\n",
      "Message('control_change', channel=0, control=64, value=118, time=56)\n",
      "Message('control_change', channel=0, control=64, value=122, time=78)\n",
      "Message('control_change', channel=0, control=64, value=126, time=113)\n",
      "Message('control_change', channel=0, control=64, value=119, time=131)\n",
      "Message('control_change', channel=0, control=64, value=99, time=19)\n",
      "Message('note_on', channel=0, note=77, velocity=0, time=8)\n",
      "Message('note_on', channel=0, note=72, velocity=77, time=5)\n",
      "Message('control_change', channel=0, control=64, value=69, time=7)\n",
      "Message('note_on', channel=0, note=52, velocity=55, time=2)\n",
      "Message('control_change', channel=0, control=64, value=0, time=16)\n",
      "Message('control_change', channel=0, control=64, value=23, time=56)\n",
      "Message('control_change', channel=0, control=64, value=50, time=19)\n",
      "Message('control_change', channel=0, control=64, value=62, time=32)\n",
      "Message('control_change', channel=0, control=64, value=69, time=21)\n",
      "Message('note_on', channel=0, note=59, velocity=0, time=3)\n",
      "Message('control_change', channel=0, control=64, value=74, time=16)\n",
      "Message('control_change', channel=0, control=64, value=78, time=19)\n",
      "Message('control_change', channel=0, control=64, value=80, time=19)\n",
      "Message('control_change', channel=0, control=64, value=84, time=39)\n",
      "Message('control_change', channel=0, control=64, value=87, time=18)\n",
      "Message('control_change', channel=0, control=64, value=95, time=37)\n",
      "Message('control_change', channel=0, control=64, value=99, time=20)\n",
      "Message('control_change', channel=0, control=64, value=104, time=37)\n",
      "Message('note_on', channel=0, note=71, velocity=79, time=12)\n",
      "Message('note_on', channel=0, note=72, velocity=0, time=31)\n",
      "Message('control_change', channel=0, control=64, value=109, time=52)\n",
      "Message('control_change', channel=0, control=64, value=113, time=58)\n",
      "Message('control_change', channel=0, control=64, value=107, time=185)\n",
      "Message('control_change', channel=0, control=64, value=92, time=19)\n",
      "Message('control_change', channel=0, control=64, value=70, time=19)\n",
      "Message('note_on', channel=0, note=59, velocity=59, time=3)\n",
      "Message('control_change', channel=0, control=64, value=50, time=17)\n",
      "Message('control_change', channel=0, control=64, value=57, time=38)\n",
      "Message('control_change', channel=0, control=64, value=65, time=19)\n",
      "Message('control_change', channel=0, control=64, value=70, time=20)\n",
      "Message('control_change', channel=0, control=64, value=74, time=16)\n",
      "Message('control_change', channel=0, control=64, value=76, time=20)\n",
      "Message('control_change', channel=0, control=64, value=79, time=19)\n",
      "Message('control_change', channel=0, control=64, value=82, time=20)\n",
      "Message('control_change', channel=0, control=64, value=85, time=18)\n",
      "Message('note_on', channel=0, note=59, velocity=0, time=12)\n",
      "Message('control_change', channel=0, control=64, value=93, time=27)\n",
      "Message('control_change', channel=0, control=64, value=98, time=36)\n",
      "Message('control_change', channel=0, control=64, value=102, time=38)\n",
      "Message('note_on', channel=0, note=69, velocity=0, time=8)\n",
      "Message('note_on', channel=0, note=77, velocity=66, time=47)\n",
      "Message('control_change', channel=0, control=64, value=107, time=92)\n",
      "Message('note_on', channel=0, note=71, velocity=0, time=96)\n",
      "Message('note_on', channel=0, note=77, velocity=0, time=152)\n",
      "Message('control_change', channel=0, control=64, value=96, time=15)\n",
      "Message('note_on', channel=0, note=76, velocity=65, time=6)\n",
      "Message('control_change', channel=0, control=64, value=76, time=15)\n",
      "Message('note_on', channel=0, note=68, velocity=52, time=9)\n",
      "Message('note_on', channel=0, note=64, velocity=44, time=3)\n",
      "Message('control_change', channel=0, control=64, value=43, time=5)\n",
      "Message('note_on', channel=0, note=52, velocity=0, time=3)\n",
      "Message('control_change', channel=0, control=64, value=0, time=18)\n",
      "Message('control_change', channel=0, control=64, value=25, time=93)\n",
      "Message('control_change', channel=0, control=64, value=55, time=20)\n",
      "Message('control_change', channel=0, control=64, value=67, time=17)\n",
      "Message('control_change', channel=0, control=64, value=75, time=20)\n",
      "Message('control_change', channel=0, control=64, value=82, time=18)\n",
      "Message('control_change', channel=0, control=64, value=89, time=20)\n",
      "Message('note_on', channel=0, note=68, velocity=0, time=6)\n",
      "Message('control_change', channel=0, control=64, value=98, time=13)\n",
      "Message('note_on', channel=0, note=64, velocity=0, time=16)\n",
      "Message('control_change', channel=0, control=64, value=105, time=1)\n",
      "Message('control_change', channel=0, control=64, value=110, time=20)\n",
      "Message('control_change', channel=0, control=64, value=115, time=20)\n",
      "Message('control_change', channel=0, control=64, value=120, time=114)\n",
      "Message('note_on', channel=0, note=76, velocity=0, time=28)\n",
      "Message('control_change', channel=0, control=64, value=124, time=135)\n",
      "Message('control_change', channel=0, control=64, value=120, time=97)\n",
      "Message('control_change', channel=0, control=64, value=108, time=19)\n",
      "Message('control_change', channel=0, control=64, value=87, time=19)\n",
      "Message('note_on', channel=0, note=74, velocity=67, time=17)\n",
      "Message('control_change', channel=0, control=64, value=66, time=1)\n",
      "Message('note_on', channel=0, note=57, velocity=48, time=3)\n",
      "Message('control_change', channel=0, control=64, value=59, time=15)\n",
      "Message('note_on', channel=0, note=69, velocity=48, time=6)\n",
      "Message('control_change', channel=0, control=64, value=62, time=14)\n",
      "Message('control_change', channel=0, control=64, value=67, time=19)\n",
      "Message('control_change', channel=0, control=64, value=70, time=19)\n",
      "Message('control_change', channel=0, control=64, value=72, time=18)\n",
      "Message('control_change', channel=0, control=64, value=74, time=38)\n",
      "Message('note_on', channel=0, note=74, velocity=0, time=83)\n",
      "Message('note_on', channel=0, note=72, velocity=63, time=21)\n",
      "Message('note_on', channel=0, note=72, velocity=0, time=61)\n",
      "Message('note_on', channel=0, note=74, velocity=61, time=13)\n",
      "Message('control_change', channel=0, control=64, value=71, time=30)\n",
      "Message('control_change', channel=0, control=64, value=69, time=18)\n",
      "Message('note_on', channel=0, note=72, velocity=56, time=2)\n",
      "Message('note_on', channel=0, note=74, velocity=0, time=5)\n",
      "Message('control_change', channel=0, control=64, value=66, time=12)\n",
      "Message('control_change', channel=0, control=64, value=63, time=19)\n",
      "Message('control_change', channel=0, control=64, value=61, time=18)\n",
      "Message('control_change', channel=0, control=64, value=59, time=18)\n",
      "Message('control_change', channel=0, control=64, value=55, time=96)\n",
      "Message('control_change', channel=0, control=64, value=48, time=21)\n",
      "Message('control_change', channel=0, control=64, value=36, time=16)\n",
      "Message('control_change', channel=0, control=64, value=25, time=19)\n",
      "Message('control_change', channel=0, control=64, value=13, time=19)\n",
      "Message('control_change', channel=0, control=64, value=0, time=22)\n",
      "Message('note_on', channel=0, note=52, velocity=58, time=42)\n",
      "Message('control_change', channel=0, control=64, value=16, time=34)\n",
      "Message('control_change', channel=0, control=64, value=27, time=19)\n",
      "Message('control_change', channel=0, control=64, value=32, time=19)\n",
      "Message('control_change', channel=0, control=64, value=36, time=71)\n",
      "Message('note_on', channel=0, note=52, velocity=0, time=46)\n",
      "Message('note_on', channel=0, note=71, velocity=64, time=196)\n",
      "Message('note_on', channel=0, note=72, velocity=0, time=22)\n",
      "Message('note_on', channel=0, note=69, velocity=0, time=142)\n",
      "Message('note_on', channel=0, note=71, velocity=0, time=194)\n",
      "Message('control_change', channel=0, control=64, value=23, time=2)\n",
      "Message('note_on', channel=0, note=48, velocity=37, time=11)\n",
      "Message('control_change', channel=0, control=64, value=0, time=8)\n",
      "Message('note_on', channel=0, note=69, velocity=56, time=1)\n",
      "Message('control_change', channel=0, control=64, value=34, time=133)\n",
      "Message('control_change', channel=0, control=64, value=60, time=21)\n",
      "Message('control_change', channel=0, control=64, value=74, time=16)\n",
      "Message('control_change', channel=0, control=64, value=87, time=18)\n",
      "Message('control_change', channel=0, control=64, value=100, time=21)\n",
      "Message('note_on', channel=0, note=48, velocity=0, time=2)\n",
      "Message('control_change', channel=0, control=64, value=111, time=16)\n",
      "Message('note_on', channel=0, note=69, velocity=0, time=16)\n",
      "Message('control_change', channel=0, control=64, value=118, time=4)\n",
      "Message('control_change', channel=0, control=64, value=122, time=37)\n",
      "Message('note_on', channel=0, note=57, velocity=0, time=126)\n",
      "Message('control_change', channel=0, control=64, value=126, time=22)\n",
      "Message('control_change', channel=0, control=64, value=112, time=359)\n",
      "Message('note_on', channel=0, note=45, velocity=45, time=4)\n",
      "Message('note_on', channel=0, note=69, velocity=61, time=5)\n",
      "Message('control_change', channel=0, control=64, value=91, time=9)\n",
      "Message('control_change', channel=0, control=64, value=67, time=20)\n",
      "Message('control_change', channel=0, control=64, value=46, time=19)\n",
      "Message('control_change', channel=0, control=64, value=44, time=17)\n",
      "Message('control_change', channel=0, control=64, value=50, time=19)\n",
      "Message('control_change', channel=0, control=64, value=55, time=18)\n",
      "Message('control_change', channel=0, control=64, value=59, time=19)\n",
      "Message('control_change', channel=0, control=64, value=62, time=19)\n",
      "Message('control_change', channel=0, control=67, value=8, time=208)\n",
      "Message('note_on', channel=0, note=45, velocity=0, time=360)\n",
      "Message('note_on', channel=0, note=47, velocity=47, time=28)\n",
      "Message('note_on', channel=0, note=69, velocity=0, time=198)\n",
      "Message('note_on', channel=0, note=71, velocity=46, time=4)\n",
      "Message('note_on', channel=0, note=71, velocity=0, time=53)\n",
      "Message('note_on', channel=0, note=72, velocity=65, time=12)\n",
      "Message('note_on', channel=0, note=72, velocity=0, time=56)\n",
      "Message('note_on', channel=0, note=71, velocity=64, time=32)\n",
      "Message('note_on', channel=0, note=71, velocity=0, time=132)\n",
      "Message('note_on', channel=0, note=69, velocity=60, time=34)\n",
      "Message('control_change', channel=0, control=64, value=60, time=107)\n",
      "Message('control_change', channel=0, control=64, value=55, time=38)\n",
      "Message('note_on', channel=0, note=69, velocity=0, time=12)\n",
      "Message('control_change', channel=0, control=64, value=48, time=7)\n",
      "Message('control_change', channel=0, control=64, value=32, time=34)\n",
      "Message('note_on', channel=0, note=76, velocity=66, time=14)\n",
      "Message('note_on', channel=0, note=47, velocity=0, time=1)\n",
      "Message('control_change', channel=0, control=64, value=0, time=3)\n",
      "Message('note_on', channel=0, note=48, velocity=45, time=29)\n",
      "Message('control_change', channel=0, control=64, value=32, time=85)\n",
      "Message('control_change', channel=0, control=64, value=55, time=19)\n",
      "Message('control_change', channel=0, control=64, value=69, time=19)\n",
      "Message('control_change', channel=0, control=64, value=80, time=18)\n",
      "Message('control_change', channel=0, control=64, value=94, time=21)\n",
      "Message('control_change', channel=0, control=64, value=110, time=19)\n",
      "Message('control_change', channel=0, control=64, value=126, time=17)\n",
      "Message('note_on', channel=0, note=48, velocity=0, time=467)\n",
      "Message('control_change', channel=0, control=67, value=12, time=23)\n",
      "Message('control_change', channel=0, control=64, value=117, time=56)\n",
      "Message('control_change', channel=0, control=64, value=93, time=20)\n",
      "Message('note_on', channel=0, note=38, velocity=45, time=10)\n",
      "Message('note_on', channel=0, note=66, velocity=57, time=5)\n",
      "Message('control_change', channel=0, control=64, value=64, time=3)\n",
      "Message('control_change', channel=0, control=64, value=0, time=19)\n",
      "Message('note_on', channel=0, note=76, velocity=0, time=11)\n",
      "Message('control_change', channel=0, control=64, value=28, time=67)\n",
      "Message('control_change', channel=0, control=64, value=48, time=18)\n",
      "Message('control_change', channel=0, control=64, value=57, time=33)\n",
      "Message('control_change', channel=0, control=64, value=63, time=20)\n",
      "Message('control_change', channel=0, control=64, value=67, time=18)\n",
      "Message('control_change', channel=0, control=64, value=70, time=21)\n",
      "Message('control_change', channel=0, control=64, value=72, time=16)\n",
      "Message('control_change', channel=0, control=64, value=75, time=38)\n",
      "Message('control_change', channel=0, control=64, value=77, time=97)\n",
      "Message('note_on', channel=0, note=45, velocity=54, time=10)\n",
      "Message('note_on', channel=0, note=38, velocity=0, time=142)\n",
      "Message('control_change', channel=0, control=64, value=79, time=34)\n",
      "Message('control_change', channel=0, control=64, value=81, time=40)\n",
      "Message('control_change', channel=0, control=64, value=83, time=36)\n",
      "Message('control_change', channel=0, control=64, value=78, time=39)\n",
      "Message('control_change', channel=0, control=64, value=71, time=17)\n",
      "Message('note_on', channel=0, note=45, velocity=0, time=14)\n",
      "Message('note_on', channel=0, note=50, velocity=63, time=2)\n",
      "Message('control_change', channel=0, control=64, value=67, time=1)\n",
      "Message('control_change', channel=0, control=64, value=68, time=21)\n",
      "Message('control_change', channel=0, control=64, value=71, time=19)\n",
      "Message('control_change', channel=0, control=64, value=74, time=20)\n",
      "Message('control_change', channel=0, control=64, value=77, time=18)\n",
      "Message('control_change', channel=0, control=64, value=80, time=20)\n",
      "Message('control_change', channel=0, control=64, value=83, time=37)\n",
      "Message('control_change', channel=0, control=64, value=85, time=18)\n",
      "Message('control_change', channel=0, control=64, value=88, time=20)\n",
      "Message('control_change', channel=0, control=64, value=94, time=38)\n",
      "Message('control_change', channel=0, control=64, value=99, time=36)\n",
      "Message('note_on', channel=0, note=52, velocity=61, time=73)\n",
      "Message('control_change', channel=0, control=64, value=92, time=2)\n",
      "Message('note_on', channel=0, note=69, velocity=73, time=5)\n",
      "Message('control_change', channel=0, control=64, value=81, time=16)\n",
      "Message('control_change', channel=0, control=64, value=69, time=17)\n",
      "Message('note_on', channel=0, note=50, velocity=0, time=0)\n",
      "Message('control_change', channel=0, control=64, value=66, time=22)\n",
      "Message('note_on', channel=0, note=66, velocity=0, time=18)\n",
      "Message('control_change', channel=0, control=64, value=69, time=15)\n",
      "Message('control_change', channel=0, control=64, value=72, time=18)\n",
      "Message('control_change', channel=0, control=64, value=74, time=21)\n",
      "Message('control_change', channel=0, control=64, value=77, time=18)\n",
      "Message('note_on', channel=0, note=54, velocity=61, time=8)\n",
      "Message('note_on', channel=0, note=52, velocity=0, time=6)\n",
      "Message('control_change', channel=0, control=64, value=79, time=21)\n",
      "Message('note_on', channel=0, note=54, velocity=0, time=145)\n",
      "Message('control_change', channel=0, control=64, value=72, time=6)\n",
      "Message('note_on', channel=0, note=52, velocity=50, time=2)\n",
      "Message('control_change', channel=0, control=64, value=58, time=19)\n",
      "Message('note_on', channel=0, note=69, velocity=0, time=8)\n",
      "Message('note_on', channel=0, note=72, velocity=72, time=4)\n",
      "Message('control_change', channel=0, control=64, value=0, time=8)\n",
      "Message('control_change', channel=0, control=64, value=11, time=74)\n",
      "Message('control_change', channel=0, control=64, value=37, time=18)\n",
      "Message('control_change', channel=0, control=64, value=53, time=20)\n",
      "Message('control_change', channel=0, control=64, value=63, time=19)\n",
      "Message('control_change', channel=0, control=64, value=70, time=19)\n",
      "Message('control_change', channel=0, control=64, value=74, time=20)\n",
      "Message('control_change', channel=0, control=64, value=76, time=16)\n",
      "Message('control_change', channel=0, control=64, value=78, time=20)\n",
      "Message('control_change', channel=0, control=64, value=80, time=19)\n",
      "Message('control_change', channel=0, control=64, value=83, time=19)\n",
      "Message('control_change', channel=0, control=64, value=88, time=17)\n",
      "Message('control_change', channel=0, control=64, value=94, time=20)\n",
      "Message('control_change', channel=0, control=64, value=100, time=19)\n",
      "Message('control_change', channel=0, control=64, value=104, time=19)\n",
      "Message('note_on', channel=0, note=54, velocity=64, time=31)\n",
      "Message('control_change', channel=0, control=64, value=109, time=7)\n",
      "Message('control_change', channel=0, control=64, value=115, time=56)\n",
      "Message('note_on', channel=0, note=52, velocity=0, time=1)\n",
      "Message('control_change', channel=0, control=64, value=120, time=38)\n",
      "Message('note_on', channel=0, note=55, velocity=65, time=31)\n",
      "Message('control_change', channel=0, control=64, value=124, time=4)\n",
      "Message('note_on', channel=0, note=54, velocity=0, time=17)\n",
      "Message('note_on', channel=0, note=55, velocity=0, time=34)\n",
      "Message('control_change', channel=0, control=64, value=117, time=85)\n",
      "Message('control_change', channel=0, control=64, value=93, time=16)\n",
      "Message('note_on', channel=0, note=62, velocity=68, time=20)\n",
      "Message('note_on', channel=0, note=54, velocity=68, time=1)\n",
      "Message('control_change', channel=0, control=64, value=61, time=12)\n",
      "Message('note_on', channel=0, note=55, velocity=52, time=0)\n",
      "Message('control_change', channel=0, control=64, value=0, time=18)\n",
      "Message('control_change', channel=0, control=64, value=15, time=56)\n",
      "Message('control_change', channel=0, control=64, value=42, time=19)\n",
      "Message('control_change', channel=0, control=64, value=53, time=19)\n",
      "Message('note_on', channel=0, note=55, velocity=0, time=18)\n",
      "Message('control_change', channel=0, control=64, value=55, time=1)\n",
      "Message('note_on', channel=0, note=55, velocity=58, time=220)\n",
      "Message('note_on', channel=0, note=54, velocity=0, time=25)\n",
      "Message('control_change', channel=0, control=64, value=53, time=115)\n",
      "Message('note_on', channel=0, note=55, velocity=0, time=17)\n",
      "Message('note_on', channel=0, note=57, velocity=54, time=8)\n",
      "Message('control_change', channel=0, control=64, value=51, time=48)\n",
      "Message('note_on', channel=0, note=50, velocity=58, time=124)\n",
      "Message('note_on', channel=0, note=57, velocity=0, time=16)\n",
      "Message('control_change', channel=0, control=64, value=49, time=50)\n",
      "Message('note_on', channel=0, note=66, velocity=60, time=89)\n",
      "Message('note_on', channel=0, note=62, velocity=0, time=7)\n",
      "Message('note_on', channel=0, note=72, velocity=0, time=11)\n",
      "Message('note_on', channel=0, note=54, velocity=55, time=157)\n",
      "Message('note_on', channel=0, note=64, velocity=70, time=0)\n",
      "Message('note_on', channel=0, note=50, velocity=0, time=2)\n",
      "Message('note_on', channel=0, note=66, velocity=0, time=34)\n",
      "Message('note_on', channel=0, note=64, velocity=0, time=103)\n",
      "Message('note_on', channel=0, note=62, velocity=65, time=6)\n",
      "Message('control_change', channel=0, control=64, value=47, time=113)\n",
      "Message('control_change', channel=0, control=64, value=44, time=18)\n",
      "Message('control_change', channel=0, control=64, value=34, time=19)\n",
      "Message('control_change', channel=0, control=64, value=16, time=20)\n",
      "Message('note_on', channel=0, note=71, velocity=69, time=15)\n",
      "Message('control_change', channel=0, control=64, value=0, time=3)\n",
      "Message('note_on', channel=0, note=55, velocity=51, time=3)\n",
      "Message('note_on', channel=0, note=62, velocity=0, time=4)\n",
      "Message('note_on', channel=0, note=54, velocity=0, time=43)\n",
      "Message('control_change', channel=0, control=64, value=9, time=139)\n",
      "Message('control_change', channel=0, control=64, value=28, time=20)\n",
      "Message('control_change', channel=0, control=64, value=40, time=18)\n",
      "Message('control_change', channel=0, control=64, value=48, time=21)\n",
      "Message('control_change', channel=0, control=64, value=52, time=17)\n",
      "Message('control_change', channel=0, control=64, value=57, time=20)\n",
      "Message('control_change', channel=0, control=64, value=61, time=17)\n",
      "Message('control_change', channel=0, control=64, value=65, time=19)\n",
      "Message('control_change', channel=0, control=64, value=69, time=20)\n",
      "Message('control_change', channel=0, control=64, value=72, time=18)\n",
      "Message('note_on', channel=0, note=59, velocity=57, time=10)\n",
      "Message('control_change', channel=0, control=64, value=75, time=8)\n",
      "Message('control_change', channel=0, control=64, value=78, time=19)\n",
      "Message('control_change', channel=0, control=64, value=81, time=20)\n",
      "Message('control_change', channel=0, control=64, value=83, time=19)\n",
      "Message('control_change', channel=0, control=64, value=88, time=20)\n",
      "Message('control_change', channel=0, control=64, value=93, time=18)\n",
      "Message('control_change', channel=0, control=64, value=98, time=20)\n",
      "Message('note_on', channel=0, note=59, velocity=0, time=15)\n",
      "Message('control_change', channel=0, control=64, value=102, time=1)\n",
      "Message('control_change', channel=0, control=64, value=96, time=225)\n",
      "Message('note_on', channel=0, note=69, velocity=72, time=14)\n",
      "Message('control_change', channel=0, control=64, value=82, time=5)\n",
      "Message('note_on', channel=0, note=60, velocity=54, time=4)\n",
      "Message('note_on', channel=0, note=71, velocity=0, time=9)\n",
      "Message('control_change', channel=0, control=64, value=63, time=8)\n",
      "Message('control_change', channel=0, control=64, value=39, time=16)\n",
      "Message('note_on', channel=0, note=55, velocity=0, time=3)\n",
      "Message('control_change', channel=0, control=64, value=16, time=16)\n",
      "Message('control_change', channel=0, control=64, value=0, time=18)\n",
      "Message('control_change', channel=0, control=64, value=20, time=76)\n",
      "Message('control_change', channel=0, control=64, value=35, time=18)\n",
      "Message('control_change', channel=0, control=64, value=46, time=21)\n",
      "Message('control_change', channel=0, control=64, value=55, time=17)\n",
      "Message('control_change', channel=0, control=64, value=60, time=21)\n",
      "Message('control_change', channel=0, control=64, value=65, time=18)\n",
      "Message('control_change', channel=0, control=64, value=67, time=21)\n",
      "Message('control_change', channel=0, control=64, value=69, time=15)\n",
      "Message('control_change', channel=0, control=64, value=71, time=59)\n",
      "Message('control_change', channel=0, control=64, value=73, time=36)\n",
      "Message('note_on', channel=0, note=55, velocity=50, time=1)\n",
      "Message('control_change', channel=0, control=64, value=75, time=18)\n",
      "Message('control_change', channel=0, control=64, value=77, time=20)\n",
      "Message('control_change', channel=0, control=64, value=80, time=38)\n",
      "Message('note_on', channel=0, note=54, velocity=45, time=245)\n",
      "Message('note_on', channel=0, note=55, velocity=0, time=13)\n",
      "Message('control_change', channel=0, control=64, value=78, time=284)\n",
      "Message('control_change', channel=0, control=64, value=75, time=38)\n",
      "Message('note_on', channel=0, note=54, velocity=0, time=8)\n",
      "Message('control_change', channel=0, control=64, value=72, time=13)\n",
      "Message('note_on', channel=0, note=52, velocity=51, time=3)\n",
      "Message('note_on', channel=0, note=76, velocity=65, time=2)\n",
      "Message('control_change', channel=0, control=64, value=70, time=30)\n",
      "Message('note_on', channel=0, note=76, velocity=0, time=38)\n",
      "Message('control_change', channel=0, control=64, value=68, time=20)\n",
      "Message('control_change', channel=0, control=64, value=67, time=93)\n",
      "Message('control_change', channel=0, control=64, value=65, time=95)\n",
      "Message('control_change', channel=0, control=64, value=62, time=19)\n",
      "Message('control_change', channel=0, control=64, value=58, time=20)\n",
      "Message('control_change', channel=0, control=64, value=49, time=17)\n",
      "Message('note_on', channel=0, note=52, velocity=0, time=2)\n",
      "Message('note_on', channel=0, note=81, velocity=64, time=8)\n",
      "Message('note_on', channel=0, note=51, velocity=58, time=5)\n",
      "Message('control_change', channel=0, control=64, value=27, time=3)\n",
      "Message('control_change', channel=0, control=64, value=0, time=21)\n",
      "Message('control_change', channel=0, control=64, value=23, time=112)\n",
      "Message('control_change', channel=0, control=64, value=43, time=18)\n",
      "Message('control_change', channel=0, control=64, value=57, time=21)\n",
      "Message('control_change', channel=0, control=64, value=65, time=18)\n",
      "Message('control_change', channel=0, control=64, value=69, time=20)\n",
      "Message('control_change', channel=0, control=64, value=72, time=18)\n",
      "Message('control_change', channel=0, control=64, value=75, time=21)\n",
      "Message('control_change', channel=0, control=64, value=78, time=17)\n",
      "Message('control_change', channel=0, control=64, value=81, time=22)\n",
      "Message('note_on', channel=0, note=69, velocity=0, time=2)\n",
      "Message('control_change', channel=0, control=64, value=83, time=28)\n",
      "Message('control_change', channel=0, control=64, value=86, time=20)\n",
      "Message('note_on', channel=0, note=52, velocity=57, time=31)\n",
      "Message('control_change', channel=0, control=64, value=93, time=7)\n",
      "Message('control_change', channel=0, control=64, value=97, time=37)\n",
      "Message('note_on', channel=0, note=51, velocity=0, time=16)\n",
      "Message('note_on', channel=0, note=81, velocity=0, time=202)\n",
      "Message('control_change', channel=0, control=64, value=90, time=65)\n",
      "Message('control_change', channel=0, control=64, value=76, time=20)\n",
      "Message('note_on', channel=0, note=51, velocity=54, time=13)\n",
      "Message('control_change', channel=0, control=64, value=58, time=7)\n",
      "Message('note_on', channel=0, note=71, velocity=69, time=1)\n",
      "Message('note_on', channel=0, note=52, velocity=0, time=9)\n",
      "Message('control_change', channel=0, control=64, value=40, time=7)\n",
      "Message('note_on', channel=0, note=60, velocity=0, time=97)\n",
      "Message('control_change', channel=0, control=64, value=42, time=167)\n",
      "Message('note_on', channel=0, note=52, velocity=49, time=88)\n",
      "Message('control_change', channel=0, control=64, value=44, time=44)\n",
      "Message('note_on', channel=0, note=51, velocity=0, time=27)\n",
      "Message('note_on', channel=0, note=54, velocity=62, time=101)\n",
      "Message('note_on', channel=0, note=52, velocity=0, time=24)\n",
      "Message('note_on', channel=0, note=54, velocity=0, time=163)\n",
      "Message('note_on', channel=0, note=47, velocity=56, time=3)\n",
      "Message('note_on', channel=0, note=81, velocity=69, time=134)\n",
      "Message('note_on', channel=0, note=47, velocity=0, time=160)\n",
      "Message('note_on', channel=0, note=81, velocity=0, time=9)\n",
      "Message('note_on', channel=0, note=51, velocity=61, time=2)\n",
      "Message('note_on', channel=0, note=79, velocity=70, time=0)\n",
      "Message('note_on', channel=0, note=79, velocity=0, time=132)\n",
      "Message('note_on', channel=0, note=78, velocity=69, time=22)\n",
      "Message('control_change', channel=0, control=64, value=41, time=69)\n",
      "Message('control_change', channel=0, control=64, value=34, time=57)\n",
      "Message('control_change', channel=0, control=64, value=26, time=17)\n",
      "Message('control_change', channel=0, control=64, value=0, time=20)\n",
      "Message('note_on', channel=0, note=51, velocity=0, time=1)\n",
      "Message('note_on', channel=0, note=52, velocity=57, time=20)\n",
      "Message('note_on', channel=0, note=78, velocity=0, time=9)\n",
      "Message('note_on', channel=0, note=79, velocity=60, time=2)\n",
      "Message('control_change', channel=0, control=64, value=29, time=190)\n",
      "Message('control_change', channel=0, control=64, value=51, time=20)\n",
      "Message('control_change', channel=0, control=64, value=63, time=19)\n",
      "Message('note_on', channel=0, note=79, velocity=0, time=8)\n",
      "Message('note_on', channel=0, note=71, velocity=0, time=3)\n",
      "Message('control_change', channel=0, control=64, value=70, time=8)\n",
      "Message('control_change', channel=0, control=64, value=74, time=16)\n",
      "Message('control_change', channel=0, control=64, value=78, time=22)\n",
      "Message('control_change', channel=0, control=64, value=80, time=17)\n",
      "Message('control_change', channel=0, control=64, value=82, time=38)\n",
      "Message('note_on', channel=0, note=54, velocity=55, time=36)\n",
      "Message('control_change', channel=0, control=64, value=84, time=58)\n",
      "Message('note_on', channel=0, note=55, velocity=60, time=98)\n",
      "Message('note_on', channel=0, note=54, velocity=0, time=27)\n",
      "Message('note_on', channel=0, note=52, velocity=0, time=19)\n",
      "Message('control_change', channel=0, control=64, value=79, time=83)\n",
      "Message('control_change', channel=0, control=64, value=71, time=20)\n",
      "Message('control_change', channel=0, control=64, value=59, time=18)\n",
      "Message('note_on', channel=0, note=55, velocity=0, time=4)\n",
      "Message('note_on', channel=0, note=57, velocity=56, time=4)\n",
      "Message('control_change', channel=0, control=64, value=48, time=11)\n",
      "Message('note_on', channel=0, note=72, velocity=49, time=18)\n",
      "Message('control_change', channel=0, control=64, value=44, time=1)\n",
      "Message('note_on', channel=0, note=74, velocity=27, time=34)\n",
      "Message('note_on', channel=0, note=74, velocity=0, time=53)\n",
      "Message('note_on', channel=0, note=71, velocity=70, time=50)\n",
      "Message('note_on', channel=0, note=72, velocity=0, time=14)\n",
      "Message('note_on', channel=0, note=71, velocity=0, time=125)\n",
      "Message('note_on', channel=0, note=69, velocity=69, time=7)\n",
      "Message('note_on', channel=0, note=69, velocity=0, time=135)\n",
      "Message('note_on', channel=0, note=67, velocity=68, time=36)\n",
      "Message('note_on', channel=0, note=67, velocity=0, time=119)\n",
      "Message('control_change', channel=0, control=64, value=38, time=25)\n",
      "Message('note_on', channel=0, note=66, velocity=69, time=8)\n",
      "Message('control_change', channel=0, control=64, value=22, time=12)\n",
      "Message('control_change', channel=0, control=64, value=0, time=19)\n",
      "Message('note_on', channel=0, note=66, velocity=0, time=129)\n",
      "Message('note_on', channel=0, note=76, velocity=69, time=7)\n",
      "Message('note_on', channel=0, note=76, velocity=0, time=142)\n",
      "Message('note_on', channel=0, note=74, velocity=65, time=19)\n",
      "Message('note_on', channel=0, note=54, velocity=53, time=19)\n",
      "Message('note_on', channel=0, note=54, velocity=0, time=52)\n",
      "Message('note_on', channel=0, note=74, velocity=0, time=40)\n",
      "Message('note_on', channel=0, note=72, velocity=48, time=68)\n",
      "Message('control_change', channel=0, control=67, value=16, time=50)\n",
      "Message('control_change', channel=0, control=67, value=21, time=78)\n",
      "Message('note_on', channel=0, note=72, velocity=0, time=23)\n",
      "Message('control_change', channel=0, control=67, value=26, time=47)\n",
      "Message('note_on', channel=0, note=74, velocity=47, time=30)\n",
      "Message('note_on', channel=0, note=48, velocity=49, time=2)\n",
      "Message('control_change', channel=0, control=67, value=32, time=23)\n",
      "Message('control_change', channel=0, control=67, value=37, time=40)\n",
      "Message('control_change', channel=0, control=64, value=23, time=35)\n",
      "Message('control_change', channel=0, control=67, value=43, time=1)\n",
      "Message('control_change', channel=0, control=64, value=55, time=21)\n",
      "Message('control_change', channel=0, control=67, value=48, time=1)\n",
      "Message('control_change', channel=0, control=64, value=69, time=17)\n",
      "Message('control_change', channel=0, control=67, value=56, time=1)\n",
      "Message('control_change', channel=0, control=64, value=80, time=18)\n",
      "Message('control_change', channel=0, control=67, value=64, time=1)\n",
      "Message('note_on', channel=0, note=74, velocity=0, time=2)\n",
      "Message('control_change', channel=0, control=64, value=91, time=15)\n",
      "Message('control_change', channel=0, control=67, value=70, time=2)\n",
      "Message('control_change', channel=0, control=64, value=101, time=18)\n",
      "Message('control_change', channel=0, control=67, value=75, time=2)\n",
      "Message('control_change', channel=0, control=64, value=109, time=18)\n",
      "Message('control_change', channel=0, control=67, value=79, time=37)\n",
      "Message('control_change', channel=0, control=64, value=104, time=168)\n",
      "Message('control_change', channel=0, control=64, value=99, time=38)\n",
      "Message('control_change', channel=0, control=64, value=94, time=40)\n",
      "Message('control_change', channel=0, control=64, value=89, time=36)\n",
      "Message('control_change', channel=0, control=64, value=86, time=20)\n",
      "Message('control_change', channel=0, control=64, value=83, time=19)\n",
      "Message('control_change', channel=0, control=64, value=80, time=19)\n",
      "Message('control_change', channel=0, control=64, value=76, time=18)\n",
      "Message('control_change', channel=0, control=64, value=74, time=21)\n",
      "Message('note_on', channel=0, note=48, velocity=0, time=3)\n",
      "Message('control_change', channel=0, control=64, value=71, time=15)\n",
      "Message('control_change', channel=0, control=64, value=69, time=17)\n",
      "Message('control_change', channel=0, control=64, value=67, time=19)\n",
      "Message('control_change', channel=0, control=64, value=61, time=19)\n",
      "Message('control_change', channel=0, control=64, value=42, time=20)\n",
      "Message('control_change', channel=0, control=64, value=0, time=17)\n",
      "Message('note_on', channel=0, note=62, velocity=54, time=22)\n",
      "Message('note_on', channel=0, note=47, velocity=43, time=10)\n",
      "Message('note_on', channel=0, note=60, velocity=50, time=1)\n",
      "Message('control_change', channel=0, control=64, value=13, time=82)\n",
      "Message('control_change', channel=0, control=64, value=44, time=18)\n",
      "Message('control_change', channel=0, control=64, value=59, time=33)\n",
      "Message('control_change', channel=0, control=64, value=66, time=21)\n",
      "Message('note_on', channel=0, note=60, velocity=0, time=8)\n",
      "Message('note_on', channel=0, note=62, velocity=0, time=3)\n",
      "Message('control_change', channel=0, control=64, value=69, time=6)\n",
      "Message('note_on', channel=0, note=47, velocity=0, time=11)\n",
      "Message('control_change', channel=0, control=64, value=67, time=26)\n",
      "Message('control_change', channel=0, control=64, value=63, time=20)\n",
      "Message('control_change', channel=0, control=64, value=57, time=19)\n",
      "Message('control_change', channel=0, control=64, value=52, time=20)\n",
      "Message('note_on', channel=0, note=57, velocity=0, time=4)\n",
      "Message('control_change', channel=0, control=64, value=49, time=51)\n",
      "Message('control_change', channel=0, control=64, value=47, time=342)\n",
      "Message('control_change', channel=0, control=64, value=43, time=16)\n",
      "Message('control_change', channel=0, control=64, value=33, time=22)\n",
      "Message('control_change', channel=0, control=64, value=0, time=16)\n",
      "Message('note_on', channel=0, note=64, velocity=50, time=70)\n",
      "Message('note_on', channel=0, note=59, velocity=39, time=12)\n",
      "Message('note_on', channel=0, note=48, velocity=40, time=14)\n",
      "Message('note_on', channel=0, note=55, velocity=36, time=2)\n",
      "Message('control_change', channel=0, control=64, value=39, time=55)\n",
      "Message('control_change', channel=0, control=64, value=59, time=18)\n",
      "Message('control_change', channel=0, control=64, value=68, time=21)\n",
      "Message('control_change', channel=0, control=64, value=74, time=16)\n",
      "Message('note_on', channel=0, note=59, velocity=0, time=18)\n",
      "Message('control_change', channel=0, control=64, value=78, time=1)\n",
      "Message('control_change', channel=0, control=64, value=82, time=20)\n",
      "Message('control_change', channel=0, control=64, value=87, time=19)\n",
      "Message('note_on', channel=0, note=48, velocity=0, time=3)\n",
      "Message('note_on', channel=0, note=64, velocity=0, time=4)\n",
      "Message('note_on', channel=0, note=55, velocity=0, time=34)\n",
      "Message('control_change', channel=0, control=64, value=83, time=16)\n",
      "Message('control_change', channel=0, control=64, value=75, time=20)\n",
      "Message('control_change', channel=0, control=64, value=68, time=32)\n",
      "Message('control_change', channel=0, control=64, value=63, time=19)\n",
      "Message('control_change', channel=0, control=64, value=62, time=19)\n",
      "Message('control_change', channel=0, control=64, value=61, time=113)\n",
      "Message('control_change', channel=0, control=64, value=60, time=57)\n",
      "Message('control_change', channel=0, control=64, value=57, time=377)\n",
      "Message('note_on', channel=0, note=50, velocity=46, time=16)\n",
      "Message('control_change', channel=0, control=64, value=54, time=2)\n",
      "Message('note_on', channel=0, note=66, velocity=47, time=5)\n",
      "Message('note_on', channel=0, note=57, velocity=38, time=13)\n",
      "Message('control_change', channel=0, control=64, value=48, time=2)\n",
      "Message('control_change', channel=0, control=64, value=34, time=17)\n",
      "Message('control_change', channel=0, control=64, value=0, time=20)\n",
      "Message('control_change', channel=0, control=64, value=31, time=95)\n",
      "Message('control_change', channel=0, control=64, value=53, time=19)\n",
      "Message('control_change', channel=0, control=64, value=66, time=18)\n",
      "Message('control_change', channel=0, control=64, value=75, time=18)\n",
      "Message('note_on', channel=0, note=50, velocity=0, time=3)\n",
      "Message('control_change', channel=0, control=64, value=80, time=17)\n",
      "Message('note_on', channel=0, note=57, velocity=0, time=5)\n",
      "Message('note_on', channel=0, note=66, velocity=0, time=25)\n",
      "Message('control_change', channel=0, control=64, value=77, time=27)\n",
      "Message('control_change', channel=0, control=64, value=75, time=20)\n",
      "Message('control_change', channel=0, control=64, value=73, time=19)\n",
      "Message('control_change', channel=0, control=64, value=71, time=33)\n",
      "Message('control_change', channel=0, control=64, value=68, time=38)\n",
      "Message('control_change', channel=0, control=64, value=67, time=37)\n",
      "Message('control_change', channel=0, control=64, value=66, time=18)\n",
      "Message('control_change', channel=0, control=64, value=65, time=20)\n",
      "Message('control_change', channel=0, control=64, value=64, time=19)\n",
      "Message('control_change', channel=0, control=64, value=62, time=19)\n",
      "Message('control_change', channel=0, control=64, value=61, time=19)\n",
      "Message('control_change', channel=0, control=64, value=59, time=19)\n",
      "Message('control_change', channel=0, control=64, value=57, time=39)\n",
      "Message('control_change', channel=0, control=64, value=55, time=37)\n",
      "Message('control_change', channel=0, control=64, value=53, time=55)\n",
      "Message('note_on', channel=0, note=66, velocity=42, time=574)\n",
      "Message('note_on', channel=0, note=43, velocity=38, time=7)\n",
      "Message('note_on', channel=0, note=59, velocity=41, time=0)\n",
      "Message('note_on', channel=0, note=62, velocity=45, time=4)\n",
      "Message('note_on', channel=0, note=67, velocity=39, time=734)\n",
      "Message('note_on', channel=0, note=66, velocity=0, time=25)\n",
      "Message('control_change', channel=0, control=64, value=51, time=87)\n",
      "Message('control_change', channel=0, control=64, value=49, time=74)\n",
      "Message('control_change', channel=0, control=64, value=54, time=93)\n",
      "Message('control_change', channel=0, control=64, value=58, time=18)\n",
      "Message('control_change', channel=0, control=64, value=63, time=19)\n",
      "Message('control_change', channel=0, control=64, value=68, time=20)\n",
      "Message('control_change', channel=0, control=64, value=73, time=19)\n",
      "Message('control_change', channel=0, control=64, value=78, time=17)\n",
      "Message('control_change', channel=0, control=64, value=83, time=19)\n",
      "Message('control_change', channel=0, control=64, value=89, time=21)\n",
      "Message('control_change', channel=0, control=64, value=96, time=19)\n",
      "Message('control_change', channel=0, control=64, value=103, time=17)\n",
      "Message('control_change', channel=0, control=64, value=111, time=18)\n",
      "Message('control_change', channel=0, control=64, value=117, time=21)\n",
      "Message('note_on', channel=0, note=43, velocity=0, time=9)\n",
      "Message('control_change', channel=0, control=64, value=122, time=28)\n",
      "Message('control_change', channel=0, control=64, value=117, time=284)\n",
      "Message('control_change', channel=0, control=64, value=112, time=36)\n",
      "Message('control_change', channel=0, control=64, value=107, time=19)\n",
      "Message('control_change', channel=0, control=64, value=101, time=19)\n",
      "Message('control_change', channel=0, control=64, value=95, time=19)\n",
      "Message('control_change', channel=0, control=64, value=88, time=18)\n",
      "Message('note_on', channel=0, note=47, velocity=36, time=8)\n",
      "Message('control_change', channel=0, control=64, value=81, time=12)\n",
      "Message('control_change', channel=0, control=64, value=74, time=18)\n",
      "Message('control_change', channel=0, control=64, value=67, time=20)\n",
      "Message('control_change', channel=0, control=64, value=62, time=18)\n",
      "Message('note_on', channel=0, note=47, velocity=0, time=16)\n",
      "Message('control_change', channel=0, control=64, value=60, time=5)\n",
      "Message('control_change', channel=0, control=64, value=58, time=129)\n",
      "Message('note_on', channel=0, note=50, velocity=37, time=262)\n",
      "Message('note_on', channel=0, note=50, velocity=0, time=170)\n",
      "Message('note_on', channel=0, note=55, velocity=27, time=1098)\n",
      "Message('control_change', channel=0, control=64, value=60, time=295)\n",
      "Message('control_change', channel=0, control=64, value=61, time=57)\n",
      "Message('control_change', channel=0, control=64, value=62, time=36)\n",
      "Message('control_change', channel=0, control=64, value=64, time=38)\n",
      "Message('control_change', channel=0, control=64, value=65, time=19)\n",
      "Message('control_change', channel=0, control=64, value=66, time=20)\n",
      "Message('control_change', channel=0, control=64, value=68, time=52)\n",
      "Message('control_change', channel=0, control=64, value=71, time=39)\n",
      "Message('control_change', channel=0, control=64, value=74, time=36)\n",
      "Message('control_change', channel=0, control=64, value=76, time=40)\n",
      "Message('control_change', channel=0, control=64, value=79, time=54)\n",
      "Message('control_change', channel=0, control=64, value=81, time=40)\n",
      "Message('control_change', channel=0, control=64, value=83, time=19)\n",
      "Message('control_change', channel=0, control=64, value=85, time=19)\n",
      "Message('control_change', channel=0, control=64, value=87, time=20)\n",
      "Message('control_change', channel=0, control=64, value=93, time=37)\n",
      "Message('control_change', channel=0, control=64, value=99, time=37)\n",
      "Message('control_change', channel=0, control=64, value=104, time=56)\n",
      "Message('control_change', channel=0, control=64, value=109, time=95)\n",
      "Message('control_change', channel=0, control=64, value=113, time=75)\n",
      "Message('control_change', channel=0, control=64, value=118, time=75)\n",
      "Message('control_change', channel=0, control=64, value=123, time=113)\n",
      "Message('note_on', channel=0, note=55, velocity=0, time=124)\n",
      "Message('note_on', channel=0, note=59, velocity=0, time=129)\n",
      "Message('note_on', channel=0, note=62, velocity=0, time=21)\n",
      "Message('note_on', channel=0, note=67, velocity=0, time=111)\n",
      "Message('control_change', channel=0, control=64, value=119, time=178)\n",
      "Message('control_change', channel=0, control=64, value=114, time=132)\n",
      "Message('control_change', channel=0, control=64, value=109, time=57)\n",
      "Message('control_change', channel=0, control=64, value=104, time=38)\n",
      "Message('control_change', channel=0, control=64, value=99, time=56)\n",
      "Message('control_change', channel=0, control=64, value=95, time=58)\n",
      "Message('control_change', channel=0, control=64, value=90, time=55)\n",
      "Message('control_change', channel=0, control=64, value=88, time=38)\n",
      "Message('control_change', channel=0, control=64, value=86, time=18)\n",
      "Message('control_change', channel=0, control=64, value=84, time=21)\n",
      "Message('control_change', channel=0, control=64, value=82, time=17)\n",
      "Message('control_change', channel=0, control=64, value=79, time=20)\n",
      "Message('control_change', channel=0, control=64, value=77, time=18)\n",
      "Message('control_change', channel=0, control=64, value=75, time=55)\n",
      "Message('control_change', channel=0, control=64, value=73, time=39)\n",
      "Message('control_change', channel=0, control=64, value=71, time=72)\n",
      "Message('control_change', channel=0, control=64, value=69, time=58)\n",
      "Message('control_change', channel=0, control=64, value=68, time=94)\n",
      "Message('control_change', channel=0, control=64, value=67, time=150)\n",
      "Message('control_change', channel=0, control=64, value=66, time=132)\n",
      "Message('control_change', channel=0, control=64, value=65, time=39)\n",
      "Message('control_change', channel=0, control=64, value=64, time=524)\n",
      "Message('control_change', channel=0, control=64, value=63, time=57)\n",
      "Message('control_change', channel=0, control=64, value=62, time=188)\n",
      "Message('note_on', channel=0, note=74, velocity=52, time=17)\n",
      "Message('control_change', channel=0, control=64, value=61, time=41)\n",
      "Message('control_change', channel=0, control=64, value=60, time=18)\n",
      "Message('note_on', channel=0, note=79, velocity=61, time=67)\n",
      "Message('note_on', channel=0, note=74, velocity=0, time=3)\n",
      "Message('control_change', channel=0, control=64, value=57, time=5)\n",
      "Message('control_change', channel=0, control=64, value=55, time=20)\n",
      "Message('control_change', channel=0, control=64, value=51, time=18)\n",
      "Message('control_change', channel=0, control=64, value=48, time=21)\n",
      "Message('control_change', channel=0, control=64, value=44, time=36)\n",
      "Message('note_on', channel=0, note=79, velocity=0, time=21)\n",
      "Message('note_on', channel=0, note=83, velocity=56, time=2)\n",
      "Message('note_on', channel=0, note=83, velocity=0, time=97)\n",
      "Message('note_on', channel=0, note=78, velocity=65, time=13)\n",
      "Message('control_change', channel=0, control=67, value=75, time=17)\n",
      "Message('control_change', channel=0, control=64, value=42, time=40)\n",
      "Message('note_on', channel=0, note=79, velocity=67, time=69)\n",
      "Message('note_on', channel=0, note=78, velocity=0, time=8)\n",
      "Message('note_on', channel=0, note=79, velocity=0, time=109)\n",
      "Message('note_on', channel=0, note=83, velocity=64, time=22)\n",
      "Message('note_on', channel=0, note=83, velocity=0, time=109)\n",
      "Message('note_on', channel=0, note=74, velocity=69, time=7)\n",
      "Message('note_on', channel=0, note=74, velocity=0, time=125)\n",
      "Message('note_on', channel=0, note=79, velocity=72, time=3)\n",
      "Message('note_on', channel=0, note=79, velocity=0, time=115)\n",
      "Message('note_on', channel=0, note=83, velocity=71, time=7)\n",
      "Message('note_on', channel=0, note=83, velocity=0, time=106)\n",
      "Message('note_on', channel=0, note=78, velocity=70, time=17)\n",
      "Message('note_on', channel=0, note=78, velocity=0, time=74)\n",
      "Message('note_on', channel=0, note=79, velocity=70, time=53)\n",
      "Message('note_on', channel=0, note=79, velocity=0, time=87)\n",
      "Message('note_on', channel=0, note=83, velocity=75, time=18)\n",
      "Message('note_on', channel=0, note=83, velocity=0, time=77)\n",
      "Message('note_on', channel=0, note=74, velocity=74, time=42)\n",
      "Message('note_on', channel=0, note=74, velocity=0, time=99)\n",
      "Message('note_on', channel=0, note=76, velocity=75, time=48)\n",
      "Message('note_on', channel=0, note=72, velocity=72, time=114)\n",
      "Message('note_on', channel=0, note=76, velocity=0, time=3)\n",
      "Message('control_change', channel=0, control=64, value=38, time=78)\n",
      "Message('control_change', channel=0, control=64, value=33, time=18)\n",
      "Message('note_on', channel=0, note=72, velocity=0, time=0)\n",
      "Message('control_change', channel=0, control=64, value=16, time=18)\n",
      "Message('control_change', channel=0, control=64, value=0, time=19)\n",
      "Message('note_on', channel=0, note=67, velocity=66, time=3)\n",
      "Message('note_on', channel=0, note=67, velocity=0, time=56)\n",
      "Message('control_change', channel=0, control=64, value=28, time=35)\n",
      "Message('control_change', channel=0, control=64, value=57, time=19)\n",
      "Message('note_on', channel=0, note=79, velocity=65, time=15)\n",
      "Message('control_change', channel=0, control=64, value=71, time=4)\n",
      "Message('control_change', channel=0, control=64, value=82, time=19)\n",
      "Message('control_change', channel=0, control=64, value=94, time=21)\n",
      "Message('control_change', channel=0, control=64, value=104, time=16)\n",
      "Message('control_change', channel=0, control=64, value=110, time=19)\n",
      "Message('control_change', channel=0, control=64, value=102, time=188)\n",
      "Message('note_on', channel=0, note=72, velocity=70, time=5)\n",
      "Message('note_on', channel=0, note=79, velocity=0, time=7)\n",
      "Message('control_change', channel=0, control=64, value=88, time=8)\n",
      "Message('control_change', channel=0, control=64, value=68, time=19)\n",
      "Message('control_change', channel=0, control=64, value=39, time=20)\n",
      "Message('control_change', channel=0, control=64, value=11, time=18)\n",
      "Message('note_on', channel=0, note=72, velocity=0, time=18)\n",
      "Message('note_on', channel=0, note=74, velocity=74, time=33)\n",
      "Message('note_on', channel=0, note=71, velocity=75, time=139)\n",
      "Message('note_on', channel=0, note=74, velocity=0, time=1)\n",
      "Message('note_on', channel=0, note=71, velocity=0, time=98)\n",
      "Message('note_on', channel=0, note=67, velocity=70, time=24)\n",
      "Message('control_change', channel=0, control=64, value=0, time=3)\n",
      "Message('note_on', channel=0, note=67, velocity=0, time=84)\n",
      "Message('note_on', channel=0, note=79, velocity=66, time=62)\n",
      "Message('control_change', channel=0, control=64, value=35, time=44)\n",
      "Message('control_change', channel=0, control=64, value=58, time=17)\n",
      "Message('control_change', channel=0, control=64, value=71, time=20)\n",
      "Message('control_change', channel=0, control=64, value=80, time=17)\n",
      "Message('control_change', channel=0, control=64, value=85, time=22)\n",
      "Message('control_change', channel=0, control=64, value=87, time=18)\n",
      "Message('control_change', channel=0, control=64, value=85, time=94)\n",
      "Message('control_change', channel=0, control=64, value=82, time=19)\n",
      "Message('note_on', channel=0, note=79, velocity=0, time=10)\n",
      "Message('control_change', channel=0, control=64, value=78, time=10)\n",
      "Message('note_on', channel=0, note=71, velocity=60, time=4)\n",
      "Message('control_change', channel=0, control=64, value=72, time=13)\n",
      "Message('control_change', channel=0, control=64, value=69, time=18)\n",
      "Message('control_change', channel=0, control=64, value=67, time=21)\n",
      "Message('control_change', channel=0, control=64, value=65, time=17)\n",
      "Message('control_change', channel=0, control=64, value=63, time=21)\n",
      "Message('note_on', channel=0, note=71, velocity=0, time=15)\n",
      "Message('control_change', channel=0, control=64, value=61, time=1)\n",
      "Message('note_on', channel=0, note=72, velocity=68, time=19)\n",
      "Message('control_change', channel=0, control=64, value=58, time=22)\n",
      "Message('control_change', channel=0, control=64, value=55, time=35)\n",
      "Message('control_change', channel=0, control=64, value=53, time=21)\n",
      "Message('control_change', channel=0, control=64, value=51, time=38)\n",
      "Message('note_on', channel=0, note=74, velocity=72, time=0)\n",
      "Message('note_on', channel=0, note=72, velocity=0, time=28)\n",
      "Message('control_change', channel=0, control=64, value=48, time=27)\n",
      "Message('control_change', channel=0, control=64, value=46, time=20)\n",
      "Message('control_change', channel=0, control=64, value=43, time=33)\n",
      "Message('control_change', channel=0, control=64, value=41, time=21)\n",
      "Message('note_on', channel=0, note=76, velocity=76, time=6)\n",
      "Message('note_on', channel=0, note=74, velocity=0, time=16)\n",
      "Message('control_change', channel=0, control=64, value=36, time=16)\n",
      "Message('control_change', channel=0, control=64, value=29, time=37)\n",
      "Message('control_change', channel=0, control=64, value=25, time=18)\n",
      "Message('control_change', channel=0, control=64, value=19, time=36)\n",
      "Message('note_on', channel=0, note=74, velocity=77, time=6)\n",
      "Message('note_on', channel=0, note=76, velocity=0, time=7)\n",
      "Message('control_change', channel=0, control=64, value=15, time=26)\n",
      "Message('control_change', channel=0, control=64, value=9, time=20)\n",
      "Message('control_change', channel=0, control=64, value=0, time=18)\n",
      "Message('note_on', channel=0, note=76, velocity=73, time=55)\n",
      "Message('note_on', channel=0, note=74, velocity=0, time=8)\n",
      "Message('note_on', channel=0, note=76, velocity=0, time=114)\n",
      "Message('note_on', channel=0, note=72, velocity=76, time=2)\n",
      "Message('note_on', channel=0, note=72, velocity=0, time=126)\n",
      "Message('note_on', channel=0, note=71, velocity=73, time=11)\n",
      "Message('control_change', channel=0, control=64, value=16, time=62)\n",
      "Message('control_change', channel=0, control=64, value=44, time=18)\n",
      "Message('control_change', channel=0, control=64, value=59, time=19)\n",
      "Message('note_on', channel=0, note=71, velocity=0, time=10)\n",
      "Message('control_change', channel=0, control=64, value=68, time=8)\n",
      "Message('note_on', channel=0, note=74, velocity=72, time=4)\n",
      "Message('control_change', channel=0, control=64, value=71, time=18)\n",
      "Message('control_change', channel=0, control=64, value=73, time=34)\n",
      "Message('note_on', channel=0, note=74, velocity=0, time=64)\n",
      "Message('note_on', channel=0, note=79, velocity=76, time=12)\n",
      "Message('note_on', channel=0, note=83, velocity=78, time=123)\n",
      "Message('note_on', channel=0, note=79, velocity=0, time=2)\n",
      "Message('control_change', channel=0, control=64, value=71, time=62)\n",
      "Message('note_on', channel=0, note=81, velocity=81, time=65)\n",
      "Message('note_on', channel=0, note=83, velocity=0, time=2)\n",
      "Message('note_on', channel=0, note=81, velocity=0, time=80)\n",
      "Message('note_on', channel=0, note=67, velocity=60, time=45)\n",
      "Message('note_on', channel=0, note=79, velocity=81, time=6)\n",
      "Message('control_change', channel=0, control=64, value=60, time=47)\n",
      "Message('note_on', channel=0, note=79, velocity=0, time=6)\n",
      "Message('control_change', channel=0, control=64, value=0, time=14)\n",
      "Message('note_on', channel=0, note=67, velocity=0, time=15)\n",
      "Message('note_on', channel=0, note=74, velocity=69, time=23)\n",
      "Message('note_on', channel=0, note=81, velocity=80, time=20)\n",
      "Message('note_on', channel=0, note=81, velocity=0, time=29)\n",
      "Message('note_on', channel=0, note=74, velocity=0, time=65)\n",
      "Message('note_on', channel=0, note=78, velocity=53, time=33)\n",
      "Message('note_on', channel=0, note=81, velocity=75, time=127)\n",
      "Message('note_on', channel=0, note=78, velocity=0, time=1)\n",
      "Message('note_on', channel=0, note=73, velocity=62, time=12)\n",
      "Message('note_on', channel=0, note=81, velocity=0, time=23)\n",
      "Message('note_on', channel=0, note=73, velocity=0, time=98)\n",
      "Message('note_on', channel=0, note=74, velocity=67, time=5)\n",
      "Message('note_on', channel=0, note=81, velocity=68, time=0)\n",
      "Message('note_on', channel=0, note=81, velocity=0, time=30)\n",
      "Message('note_on', channel=0, note=74, velocity=0, time=56)\n",
      "Message('note_on', channel=0, note=78, velocity=57, time=39)\n",
      "Message('note_on', channel=0, note=78, velocity=0, time=65)\n",
      "Message('note_on', channel=0, note=81, velocity=73, time=84)\n",
      "Message('note_on', channel=0, note=69, velocity=66, time=1)\n",
      "Message('note_on', channel=0, note=81, velocity=0, time=30)\n",
      "Message('note_on', channel=0, note=69, velocity=0, time=62)\n",
      "Message('note_on', channel=0, note=74, velocity=69, time=25)\n",
      "Message('note_on', channel=0, note=81, velocity=76, time=20)\n",
      "Message('note_on', channel=0, note=81, velocity=0, time=26)\n",
      "Message('note_on', channel=0, note=74, velocity=0, time=25)\n",
      "Message('note_on', channel=0, note=78, velocity=55, time=56)\n",
      "Message('note_on', channel=0, note=78, velocity=0, time=56)\n",
      "Message('note_on', channel=0, note=73, velocity=61, time=80)\n",
      "Message('note_on', channel=0, note=81, velocity=75, time=7)\n",
      "Message('note_on', channel=0, note=81, velocity=0, time=36)\n",
      "Message('note_on', channel=0, note=73, velocity=0, time=66)\n",
      "Message('note_on', channel=0, note=74, velocity=66, time=9)\n",
      "Message('note_on', channel=0, note=81, velocity=63, time=37)\n",
      "Message('note_on', channel=0, note=81, velocity=0, time=25)\n",
      "Message('note_on', channel=0, note=74, velocity=0, time=14)\n",
      "Message('note_on', channel=0, note=78, velocity=58, time=52)\n",
      "Message('note_on', channel=0, note=78, velocity=0, time=41)\n",
      "Message('note_on', channel=0, note=69, velocity=63, time=101)\n",
      "Message('note_on', channel=0, note=81, velocity=64, time=9)\n",
      "Message('note_on', channel=0, note=69, velocity=0, time=30)\n",
      "Message('note_on', channel=0, note=81, velocity=0, time=13)\n",
      "Message('note_on', channel=0, note=74, velocity=67, time=88)\n",
      "Message('note_on', channel=0, note=71, velocity=62, time=6)\n",
      "Message('note_on', channel=0, note=71, velocity=0, time=65)\n",
      "Message('note_on', channel=0, note=74, velocity=0, time=1)\n",
      "Message('note_on', channel=0, note=67, velocity=65, time=44)\n",
      "Message('note_on', channel=0, note=79, velocity=63, time=4)\n",
      "Message('note_on', channel=0, note=79, velocity=0, time=53)\n",
      "Message('note_on', channel=0, note=67, velocity=0, time=18)\n",
      "Message('note_on', channel=0, note=62, velocity=72, time=38)\n",
      "Message('note_on', channel=0, note=83, velocity=67, time=16)\n",
      "Message('control_change', channel=0, control=67, value=71, time=17)\n",
      "Message('note_on', channel=0, note=83, velocity=0, time=13)\n",
      "Message('control_change', channel=0, control=64, value=13, time=45)\n",
      "Message('note_on', channel=0, note=62, velocity=0, time=18)\n",
      "Message('control_change', channel=0, control=64, value=60, time=2)\n",
      "Message('control_change', channel=0, control=64, value=78, time=19)\n",
      "Message('note_on', channel=0, note=74, velocity=77, time=10)\n",
      "Message('note_on', channel=0, note=83, velocity=78, time=0)\n",
      "Message('control_change', channel=0, control=64, value=92, time=8)\n",
      "Message('control_change', channel=0, control=64, value=106, time=17)\n",
      "Message('control_change', channel=0, control=64, value=115, time=21)\n",
      "Message('note_on', channel=0, note=74, velocity=0, time=5)\n",
      "Message('note_on', channel=0, note=83, velocity=0, time=0)\n",
      "Message('control_change', channel=0, control=64, value=120, time=13)\n",
      "Message('note_on', channel=0, note=79, velocity=69, time=45)\n",
      "Message('note_on', channel=0, note=79, velocity=0, time=54)\n",
      "Message('control_change', channel=0, control=64, value=116, time=72)\n",
      "Message('control_change', channel=0, control=64, value=99, time=18)\n",
      "Message('note_on', channel=0, note=74, velocity=77, time=0)\n",
      "Message('note_on', channel=0, note=67, velocity=80, time=3)\n",
      "Message('control_change', channel=0, control=64, value=68, time=15)\n",
      "Message('control_change', channel=0, control=64, value=0, time=19)\n",
      "Message('note_on', channel=0, note=74, velocity=0, time=10)\n",
      "Message('note_on', channel=0, note=67, velocity=0, time=36)\n",
      "Message('note_on', channel=0, note=74, velocity=72, time=50)\n",
      "Message('note_on', channel=0, note=69, velocity=73, time=9)\n",
      "Message('note_on', channel=0, note=69, velocity=0, time=81)\n",
      "Message('note_on', channel=0, note=74, velocity=0, time=7)\n",
      "Message('note_on', channel=0, note=66, velocity=73, time=23)\n",
      "Message('note_on', channel=0, note=78, velocity=77, time=2)\n",
      "Message('note_on', channel=0, note=78, velocity=0, time=91)\n",
      "Message('note_on', channel=0, note=62, velocity=77, time=39)\n",
      "Message('note_on', channel=0, note=81, velocity=76, time=16)\n",
      "Message('note_on', channel=0, note=66, velocity=0, time=2)\n",
      "Message('note_on', channel=0, note=81, velocity=0, time=39)\n",
      "Message('note_on', channel=0, note=62, velocity=0, time=50)\n",
      "Message('control_change', channel=0, control=64, value=36, time=13)\n",
      "Message('note_on', channel=0, note=74, velocity=79, time=12)\n",
      "Message('note_on', channel=0, note=81, velocity=80, time=5)\n",
      "Message('control_change', channel=0, control=64, value=57, time=3)\n",
      "Message('control_change', channel=0, control=64, value=68, time=19)\n",
      "Message('control_change', channel=0, control=64, value=76, time=19)\n",
      "Message('note_on', channel=0, note=74, velocity=0, time=7)\n",
      "Message('control_change', channel=0, control=64, value=81, time=8)\n",
      "Message('control_change', channel=0, control=64, value=86, time=21)\n",
      "Message('control_change', channel=0, control=64, value=91, time=20)\n",
      "Message('note_on', channel=0, note=78, velocity=79, time=16)\n",
      "Message('control_change', channel=0, control=64, value=96, time=22)\n",
      "Message('note_on', channel=0, note=80, velocity=47, time=6)\n",
      "Message('note_on', channel=0, note=81, velocity=0, time=17)\n",
      "Message('note_on', channel=0, note=80, velocity=0, time=14)\n",
      "Message('note_on', channel=0, note=78, velocity=0, time=15)\n",
      "Message('note_on', channel=0, note=74, velocity=87, time=67)\n",
      "Message('note_on', channel=0, note=66, velocity=76, time=4)\n",
      "Message('control_change', channel=0, control=64, value=92, time=8)\n",
      "Message('control_change', channel=0, control=64, value=78, time=18)\n",
      "Message('control_change', channel=0, control=64, value=47, time=20)\n",
      "Message('note_on', channel=0, note=74, velocity=0, time=8)\n",
      "Message('control_change', channel=0, control=64, value=0, time=10)\n",
      "Message('note_on', channel=0, note=67, velocity=74, time=63)\n",
      "Message('note_on', channel=0, note=74, velocity=80, time=2)\n",
      "Message('note_on', channel=0, note=66, velocity=0, time=1)\n",
      "Message('note_on', channel=0, note=67, velocity=0, time=97)\n",
      "Message('note_on', channel=0, note=69, velocity=78, time=22)\n",
      "Message('note_on', channel=0, note=69, velocity=0, time=66)\n",
      "Message('note_on', channel=0, note=71, velocity=68, time=69)\n",
      "Message('note_on', channel=0, note=71, velocity=0, time=103)\n",
      "Message('note_on', channel=0, note=74, velocity=0, time=26)\n",
      "Message('note_on', channel=0, note=69, velocity=66, time=18)\n",
      "Message('note_on', channel=0, note=73, velocity=72, time=13)\n",
      "Message('note_on', channel=0, note=69, velocity=0, time=77)\n",
      "Message('note_on', channel=0, note=71, velocity=60, time=46)\n",
      "Message('note_on', channel=0, note=71, velocity=0, time=105)\n",
      "Message('note_on', channel=0, note=67, velocity=65, time=15)\n",
      "Message('note_on', channel=0, note=66, velocity=68, time=130)\n",
      "Message('note_on', channel=0, note=67, velocity=0, time=13)\n",
      "Message('note_on', channel=0, note=74, velocity=75, time=1)\n",
      "Message('note_on', channel=0, note=73, velocity=0, time=5)\n",
      "Message('note_on', channel=0, note=69, velocity=70, time=104)\n",
      "Message('note_on', channel=0, note=66, velocity=0, time=19)\n",
      "Message('note_on', channel=0, note=69, velocity=0, time=95)\n",
      "Message('control_change', channel=0, control=64, value=26, time=21)\n",
      "Message('note_on', channel=0, note=74, velocity=0, time=0)\n",
      "Message('note_on', channel=0, note=72, velocity=66, time=5)\n",
      "Message('control_change', channel=0, control=64, value=44, time=14)\n",
      "Message('note_on', channel=0, note=72, velocity=0, time=14)\n",
      "Message('control_change', channel=0, control=64, value=56, time=5)\n",
      "Message('control_change', channel=0, control=64, value=64, time=17)\n",
      "Message('control_change', channel=0, control=64, value=70, time=20)\n",
      "Message('control_change', channel=0, control=64, value=75, time=19)\n",
      "Message('control_change', channel=0, control=64, value=79, time=19)\n",
      "Message('note_on', channel=0, note=76, velocity=84, time=13)\n",
      "Message('note_on', channel=0, note=78, velocity=80, time=3)\n",
      "Message('control_change', channel=0, control=64, value=83, time=2)\n",
      "Message('control_change', channel=0, control=64, value=88, time=21)\n",
      "Message('control_change', channel=0, control=64, value=94, time=18)\n",
      "Message('control_change', channel=0, control=64, value=99, time=21)\n",
      "Message('control_change', channel=0, control=64, value=104, time=16)\n",
      "Message('note_on', channel=0, note=76, velocity=0, time=14)\n",
      "Message('control_change', channel=0, control=64, value=108, time=24)\n",
      "Message('note_on', channel=0, note=74, velocity=74, time=5)\n",
      "Message('note_on', channel=0, note=78, velocity=0, time=101)\n",
      "Message('note_on', channel=0, note=74, velocity=0, time=9)\n",
      "Message('note_on', channel=0, note=62, velocity=68, time=30)\n",
      "Message('note_on', channel=0, note=72, velocity=77, time=11)\n",
      "Message('note_on', channel=0, note=72, velocity=0, time=58)\n",
      "Message('control_change', channel=0, control=64, value=92, time=48)\n",
      "Message('note_on', channel=0, note=62, velocity=0, time=15)\n",
      "Message('control_change', channel=0, control=64, value=56, time=2)\n",
      "Message('note_on', channel=0, note=67, velocity=65, time=1)\n",
      "Message('note_on', channel=0, note=79, velocity=78, time=10)\n",
      "Message('control_change', channel=0, control=64, value=0, time=6)\n",
      "Message('note_on', channel=0, note=71, velocity=55, time=11)\n",
      "Message('note_on', channel=0, note=79, velocity=0, time=14)\n",
      "Message('note_on', channel=0, note=71, velocity=0, time=12)\n",
      "Message('note_on', channel=0, note=67, velocity=0, time=3)\n",
      "Message('note_on', channel=0, note=71, velocity=58, time=88)\n",
      "Message('note_on', channel=0, note=71, velocity=0, time=59)\n",
      "Message('note_on', channel=0, note=81, velocity=76, time=70)\n",
      "Message('note_on', channel=0, note=66, velocity=59, time=3)\n",
      "Message('note_on', channel=0, note=74, velocity=67, time=7)\n",
      "Message('note_on', channel=0, note=81, velocity=0, time=23)\n",
      "Message('note_on', channel=0, note=74, velocity=0, time=9)\n",
      "Message('control_change', channel=0, control=64, value=19, time=63)\n",
      "Message('control_change', channel=0, control=64, value=0, time=20)\n",
      "Message('note_on', channel=0, note=83, velocity=83, time=1)\n",
      "Message('note_on', channel=0, note=67, velocity=66, time=1)\n",
      "Message('note_on', channel=0, note=74, velocity=74, time=5)\n",
      "Message('note_on', channel=0, note=66, velocity=0, time=5)\n",
      "Message('note_on', channel=0, note=83, velocity=0, time=18)\n",
      "Message('note_on', channel=0, note=74, velocity=0, time=4)\n",
      "Message('note_on', channel=0, note=67, velocity=0, time=20)\n",
      "Message('note_on', channel=0, note=71, velocity=55, time=77)\n",
      "Message('note_on', channel=0, note=84, velocity=81, time=125)\n",
      "Message('note_on', channel=0, note=62, velocity=63, time=11)\n",
      "Message('note_on', channel=0, note=74, velocity=71, time=4)\n",
      "Message('note_on', channel=0, note=71, velocity=0, time=16)\n",
      "Message('note_on', channel=0, note=74, velocity=0, time=14)\n",
      "Message('note_on', channel=0, note=84, velocity=0, time=4)\n",
      "Message('note_on', channel=0, note=62, velocity=0, time=93)\n",
      "Message('note_on', channel=0, note=67, velocity=65, time=1)\n",
      "Message('note_on', channel=0, note=83, velocity=80, time=8)\n",
      "Message('note_on', channel=0, note=74, velocity=74, time=3)\n",
      "Message('note_on', channel=0, note=83, velocity=0, time=25)\n",
      "Message('note_on', channel=0, note=74, velocity=0, time=4)\n",
      "Message('note_on', channel=0, note=67, velocity=0, time=41)\n",
      "Message('note_on', channel=0, note=71, velocity=54, time=67)\n",
      "Message('note_on', channel=0, note=71, velocity=0, time=102)\n",
      "Message('note_on', channel=0, note=74, velocity=74, time=12)\n",
      "Message('note_on', channel=0, note=81, velocity=75, time=6)\n",
      "Message('note_on', channel=0, note=66, velocity=60, time=8)\n",
      "Message('note_on', channel=0, note=81, velocity=0, time=24)\n",
      "Message('note_on', channel=0, note=74, velocity=0, time=8)\n",
      "Message('note_on', channel=0, note=66, velocity=0, time=57)\n",
      "Message('note_on', channel=0, note=79, velocity=79, time=18)\n",
      "Message('note_on', channel=0, note=67, velocity=65, time=8)\n",
      "Message('control_change', channel=0, control=64, value=57, time=35)\n",
      "Message('note_on', channel=0, note=67, velocity=0, time=2)\n",
      "Message('note_on', channel=0, note=79, velocity=0, time=13)\n",
      "Message('control_change', channel=0, control=64, value=74, time=2)\n",
      "Message('note_on', channel=0, note=74, velocity=58, time=16)\n",
      "Message('note_on', channel=0, note=71, velocity=55, time=52)\n",
      "Message('note_on', channel=0, note=71, velocity=0, time=52)\n",
      "Message('note_on', channel=0, note=74, velocity=0, time=3)\n",
      "Message('note_on', channel=0, note=79, velocity=31, time=0)\n",
      "Message('note_on', channel=0, note=71, velocity=61, time=68)\n",
      "Message('note_on', channel=0, note=62, velocity=64, time=10)\n",
      "Message('control_change', channel=0, control=64, value=72, time=7)\n",
      "Message('control_change', channel=0, control=64, value=70, time=22)\n",
      "Message('note_on', channel=0, note=62, velocity=0, time=13)\n",
      "Message('control_change', channel=0, control=64, value=67, time=3)\n",
      "Message('note_on', channel=0, note=71, velocity=0, time=17)\n",
      "Message('control_change', channel=0, control=64, value=61, time=3)\n",
      "Message('control_change', channel=0, control=64, value=56, time=19)\n",
      "Message('control_change', channel=0, control=64, value=53, time=20)\n",
      "Message('note_on', channel=0, note=64, velocity=66, time=32)\n",
      "Message('note_on', channel=0, note=67, velocity=71, time=2)\n",
      "Message('control_change', channel=0, control=64, value=51, time=21)\n",
      "Message('control_change', channel=0, control=64, value=46, time=20)\n",
      "Message('note_on', channel=0, note=67, velocity=0, time=16)\n",
      "Message('control_change', channel=0, control=64, value=39, time=2)\n",
      "Message('note_on', channel=0, note=64, velocity=0, time=0)\n",
      "Message('control_change', channel=0, control=64, value=30, time=19)\n",
      "Message('control_change', channel=0, control=64, value=25, time=19)\n",
      "Message('note_on', channel=0, note=60, velocity=69, time=22)\n",
      "Message('control_change', channel=0, control=64, value=20, time=12)\n",
      "Message('note_on', channel=0, note=72, velocity=74, time=2)\n",
      "Message('control_change', channel=0, control=64, value=0, time=37)\n",
      "Message('note_on', channel=0, note=72, velocity=0, time=6)\n",
      "Message('note_on', channel=0, note=60, velocity=0, time=41)\n",
      "Message('note_on', channel=0, note=55, velocity=74, time=24)\n",
      "Message('note_on', channel=0, note=76, velocity=73, time=17)\n",
      "Message('note_on', channel=0, note=76, velocity=0, time=40)\n",
      "Message('control_change', channel=0, control=64, value=32, time=41)\n",
      "Message('note_on', channel=0, note=55, velocity=0, time=3)\n",
      "Message('control_change', channel=0, control=64, value=57, time=15)\n",
      "Message('control_change', channel=0, control=64, value=71, time=17)\n",
      "Message('note_on', channel=0, note=67, velocity=77, time=0)\n",
      "Message('note_on', channel=0, note=76, velocity=79, time=6)\n",
      "Message('control_change', channel=0, control=64, value=80, time=14)\n",
      "Message('control_change', channel=0, control=64, value=88, time=21)\n",
      "Message('note_on', channel=0, note=67, velocity=0, time=8)\n",
      "Message('control_change', channel=0, control=64, value=94, time=10)\n",
      "Message('note_on', channel=0, note=72, velocity=76, time=69)\n",
      "Message('note_on', channel=0, note=72, velocity=0, time=56)\n",
      "Message('note_on', channel=0, note=76, velocity=0, time=6)\n",
      "Message('note_on', channel=0, note=60, velocity=75, time=54)\n",
      "Message('note_on', channel=0, note=67, velocity=80, time=15)\n",
      "Message('control_change', channel=0, control=64, value=79, time=26)\n",
      "Message('control_change', channel=0, control=64, value=57, time=19)\n",
      "Message('note_on', channel=0, note=67, velocity=0, time=3)\n",
      "Message('note_on', channel=0, note=60, velocity=0, time=7)\n",
      "Message('control_change', channel=0, control=64, value=0, time=11)\n",
      "Message('note_on', channel=0, note=62, velocity=73, time=47)\n",
      "Message('note_on', channel=0, note=67, velocity=78, time=18)\n",
      "Message('note_on', channel=0, note=62, velocity=0, time=61)\n",
      "Message('note_on', channel=0, note=67, velocity=0, time=12)\n",
      "Message('note_on', channel=0, note=71, velocity=78, time=31)\n",
      "Message('note_on', channel=0, note=59, velocity=61, time=21)\n",
      "Message('note_on', channel=0, note=71, velocity=0, time=39)\n",
      "Message('note_on', channel=0, note=74, velocity=77, time=59)\n",
      "Message('note_on', channel=0, note=59, velocity=0, time=35)\n",
      "Message('note_on', channel=0, note=74, velocity=0, time=20)\n",
      "Message('note_on', channel=0, note=55, velocity=55, time=10)\n",
      "Message('note_on', channel=0, note=67, velocity=77, time=20)\n",
      "Message('control_change', channel=0, control=64, value=23, time=57)\n",
      "Message('note_on', channel=0, note=74, velocity=74, time=11)\n",
      "Message('control_change', channel=0, control=64, value=50, time=6)\n",
      "Message('note_on', channel=0, note=55, velocity=0, time=16)\n",
      "Message('control_change', channel=0, control=64, value=61, time=3)\n",
      "Message('control_change', channel=0, control=64, value=66, time=20)\n",
      "Message('control_change', channel=0, control=64, value=68, time=19)\n",
      "Message('control_change', channel=0, control=64, value=71, time=36)\n",
      "Message('note_on', channel=0, note=67, velocity=0, time=18)\n",
      "Message('note_on', channel=0, note=71, velocity=77, time=15)\n",
      "Message('control_change', channel=0, control=64, value=74, time=4)\n",
      "Message('note_on', channel=0, note=74, velocity=0, time=11)\n",
      "Message('control_change', channel=0, control=64, value=76, time=47)\n",
      "Message('note_on', channel=0, note=71, velocity=0, time=14)\n",
      "Message('note_on', channel=0, note=67, velocity=69, time=64)\n",
      "Message('note_on', channel=0, note=59, velocity=59, time=5)\n",
      "Message('note_on', channel=0, note=60, velocity=58, time=3)\n",
      "Message('control_change', channel=0, control=64, value=68, time=7)\n",
      "Message('control_change', channel=0, control=64, value=55, time=22)\n",
      "Message('control_change', channel=0, control=64, value=23, time=18)\n",
      "Message('control_change', channel=0, control=64, value=0, time=18)\n",
      "Message('note_on', channel=0, note=59, velocity=0, time=7)\n",
      "Message('note_on', channel=0, note=67, velocity=0, time=1)\n",
      "Message('control_change', channel=0, control=64, value=18, time=31)\n",
      "Message('note_on', channel=0, note=69, velocity=78, time=8)\n",
      "Message('note_on', channel=0, note=62, velocity=63, time=8)\n",
      "Message('note_on', channel=0, note=60, velocity=0, time=20)\n",
      "Message('note_on', channel=0, note=60, velocity=29, time=0)\n",
      "Message('note_on', channel=0, note=62, velocity=0, time=22)\n",
      "Message('note_on', channel=0, note=60, velocity=0, time=6)\n",
      "Message('control_change', channel=0, control=64, value=23, time=29)\n",
      "Message('control_change', channel=0, control=64, value=27, time=19)\n",
      "Message('note_on', channel=0, note=64, velocity=62, time=31)\n",
      "Message('control_change', channel=0, control=64, value=32, time=83)\n",
      "Message('note_on', channel=0, note=64, velocity=0, time=8)\n",
      "Message('note_on', channel=0, note=62, velocity=60, time=12)\n",
      "Message('note_on', channel=0, note=62, velocity=0, time=86)\n",
      "Message('note_on', channel=0, note=64, velocity=67, time=43)\n",
      "Message('note_on', channel=0, note=79, velocity=0, time=18)\n",
      "Message('note_on', channel=0, note=78, velocity=72, time=11)\n",
      "Message('control_change', channel=0, control=64, value=36, time=10)\n",
      "Message('control_change', channel=0, control=64, value=47, time=18)\n",
      "Message('control_change', channel=0, control=64, value=58, time=21)\n",
      "Message('control_change', channel=0, control=64, value=64, time=17)\n",
      "Message('note_on', channel=0, note=64, velocity=0, time=56)\n",
      "Message('note_on', channel=0, note=60, velocity=51, time=15)\n",
      "Message('control_change', channel=0, control=64, value=65, time=21)\n",
      "Message('control_change', channel=0, control=64, value=69, time=18)\n",
      "Message('control_change', channel=0, control=64, value=74, time=20)\n",
      "Message('note_on', channel=0, note=60, velocity=0, time=3)\n",
      "Message('control_change', channel=0, control=64, value=80, time=15)\n",
      "Message('control_change', channel=0, control=64, value=83, time=19)\n",
      "Message('note_on', channel=0, note=69, velocity=0, time=9)\n",
      "Message('note_on', channel=0, note=64, velocity=56, time=29)\n",
      "Message('control_change', channel=0, control=64, value=86, time=37)\n",
      "Message('note_on', channel=0, note=64, velocity=0, time=2)\n",
      "Message('control_change', channel=0, control=64, value=92, time=35)\n",
      "Message('control_change', channel=0, control=64, value=88, time=19)\n",
      "Message('note_on', channel=0, note=59, velocity=72, time=9)\n",
      "Message('control_change', channel=0, control=64, value=74, time=10)\n",
      "Message('note_on', channel=0, note=79, velocity=73, time=12)\n",
      "Message('control_change', channel=0, control=64, value=51, time=9)\n",
      "Message('note_on', channel=0, note=67, velocity=67, time=1)\n",
      "Message('control_change', channel=0, control=64, value=16, time=17)\n",
      "Message('control_change', channel=0, control=64, value=27, time=19)\n",
      "Message('note_on', channel=0, note=78, velocity=0, time=3)\n",
      "Message('control_change', channel=0, control=64, value=48, time=15)\n",
      "Message('control_change', channel=0, control=64, value=61, time=21)\n",
      "Message('control_change', channel=0, control=64, value=64, time=18)\n",
      "Message('control_change', channel=0, control=64, value=63, time=18)\n",
      "Message('note_on', channel=0, note=59, velocity=0, time=4)\n",
      "Message('control_change', channel=0, control=64, value=62, time=15)\n",
      "Message('note_on', channel=0, note=62, velocity=60, time=26)\n",
      "Message('control_change', channel=0, control=64, value=63, time=29)\n",
      "Message('note_on', channel=0, note=62, velocity=0, time=13)\n",
      "Message('note_on', channel=0, note=57, velocity=61, time=55)\n",
      "Message('control_change', channel=0, control=64, value=61, time=103)\n",
      "Message('note_on', channel=0, note=57, velocity=0, time=0)\n",
      "Message('note_on', channel=0, note=59, velocity=67, time=6)\n",
      "Message('control_change', channel=0, control=64, value=60, time=108)\n",
      "Message('control_change', channel=0, control=64, value=58, time=18)\n",
      "Message('note_on', channel=0, note=59, velocity=0, time=14)\n",
      "Message('control_change', channel=0, control=64, value=56, time=5)\n",
      "Message('note_on', channel=0, note=60, velocity=38, time=21)\n",
      "Message('note_on', channel=0, note=60, velocity=0, time=37)\n",
      "Message('control_change', channel=0, control=64, value=44, time=37)\n",
      "Message('control_change', channel=0, control=64, value=0, time=20)\n",
      "Message('note_on', channel=0, note=55, velocity=67, time=10)\n",
      "Message('note_on', channel=0, note=74, velocity=80, time=2)\n",
      "Message('note_on', channel=0, note=67, velocity=0, time=29)\n",
      "Message('note_on', channel=0, note=79, velocity=0, time=32)\n",
      "Message('control_change', channel=0, control=64, value=33, time=16)\n",
      "Message('control_change', channel=0, control=64, value=57, time=19)\n",
      "Message('note_on', channel=0, note=55, velocity=0, time=5)\n",
      "Message('control_change', channel=0, control=64, value=62, time=15)\n",
      "Message('note_on', channel=0, note=60, velocity=65, time=15)\n",
      "Message('control_change', channel=0, control=64, value=61, time=3)\n",
      "Message('note_on', channel=0, note=76, velocity=78, time=11)\n",
      "Message('note_on', channel=0, note=60, velocity=0, time=29)\n",
      "Message('note_on', channel=0, note=74, velocity=0, time=3)\n",
      "Message('note_on', channel=0, note=74, velocity=26, time=21)\n",
      "Message('note_on', channel=0, note=74, velocity=0, time=1)\n",
      "Message('control_change', channel=0, control=64, value=56, time=29)\n",
      "Message('control_change', channel=0, control=64, value=32, time=20)\n",
      "Message('control_change', channel=0, control=64, value=0, time=17)\n",
      "Message('note_on', channel=0, note=79, velocity=68, time=18)\n",
      "Message('note_on', channel=0, note=76, velocity=0, time=4)\n",
      "Message('note_on', channel=0, note=79, velocity=0, time=109)\n",
      "Message('note_on', channel=0, note=74, velocity=73, time=5)\n",
      "Message('note_on', channel=0, note=59, velocity=62, time=5)\n",
      "Message('note_on', channel=0, note=59, velocity=0, time=112)\n",
      "Message('note_on', channel=0, note=76, velocity=74, time=10)\n",
      "Message('note_on', channel=0, note=74, velocity=0, time=2)\n",
      "Message('note_on', channel=0, note=60, velocity=65, time=1)\n",
      "Message('note_on', channel=0, note=60, velocity=0, time=32)\n",
      "Message('note_on', channel=0, note=76, velocity=0, time=83)\n",
      "Message('note_on', channel=0, note=79, velocity=69, time=9)\n",
      "Message('note_on', channel=0, note=71, velocity=69, time=129)\n",
      "Message('note_on', channel=0, note=55, velocity=66, time=4)\n",
      "Message('note_on', channel=0, note=79, velocity=0, time=25)\n",
      "Message('note_on', channel=0, note=71, velocity=0, time=76)\n",
      "Message('note_on', channel=0, note=72, velocity=66, time=33)\n",
      "Message('note_on', channel=0, note=57, velocity=64, time=1)\n",
      "Message('note_on', channel=0, note=55, velocity=0, time=2)\n",
      "Message('note_on', channel=0, note=57, velocity=0, time=95)\n",
      "Message('note_on', channel=0, note=60, velocity=55, time=57)\n",
      "Message('note_on', channel=0, note=60, velocity=0, time=132)\n",
      "Message('note_on', channel=0, note=55, velocity=63, time=1)\n",
      "Message('note_on', channel=0, note=57, velocity=66, time=123)\n",
      "Message('note_on', channel=0, note=55, velocity=0, time=19)\n",
      "Message('note_on', channel=0, note=57, velocity=0, time=46)\n",
      "Message('note_on', channel=0, note=60, velocity=59, time=61)\n",
      "Message('note_on', channel=0, note=60, velocity=0, time=87)\n",
      "Message('note_on', channel=0, note=72, velocity=0, time=36)\n",
      "Message('note_on', channel=0, note=79, velocity=69, time=8)\n",
      "Message('note_on', channel=0, note=52, velocity=68, time=6)\n",
      "Message('note_on', channel=0, note=52, velocity=0, time=105)\n",
      "Message('note_on', channel=0, note=81, velocity=75, time=18)\n",
      "Message('note_on', channel=0, note=54, velocity=70, time=9)\n",
      "Message('note_on', channel=0, note=79, velocity=0, time=10)\n",
      "Message('note_on', channel=0, note=54, velocity=0, time=26)\n",
      "Message('note_on', channel=0, note=81, velocity=0, time=88)\n",
      "Message('note_on', channel=0, note=84, velocity=69, time=0)\n",
      "Message('note_on', channel=0, note=84, velocity=0, time=108)\n",
      "Message('note_on', channel=0, note=52, velocity=69, time=30)\n",
      "Message('note_on', channel=0, note=79, velocity=73, time=3)\n",
      "Message('note_on', channel=0, note=52, velocity=0, time=126)\n",
      "Message('note_on', channel=0, note=81, velocity=78, time=5)\n",
      "Message('note_on', channel=0, note=54, velocity=72, time=8)\n",
      "Message('note_on', channel=0, note=79, velocity=0, time=9)\n",
      "Message('note_on', channel=0, note=54, velocity=0, time=25)\n",
      "Message('note_on', channel=0, note=81, velocity=0, time=60)\n",
      "Message('note_on', channel=0, note=84, velocity=70, time=29)\n",
      "Message('note_on', channel=0, note=84, velocity=0, time=123)\n",
      "Message('note_on', channel=0, note=57, velocity=65, time=26)\n",
      "Message('note_on', channel=0, note=76, velocity=57, time=0)\n",
      "Message('note_on', channel=0, note=77, velocity=62, time=10)\n",
      "Message('control_change', channel=0, control=67, value=67, time=33)\n",
      "Message('note_on', channel=0, note=77, velocity=0, time=19)\n",
      "Message('note_on', channel=0, note=76, velocity=0, time=10)\n",
      "Message('note_on', channel=0, note=57, velocity=0, time=16)\n",
      "Message('note_on', channel=0, note=62, velocity=66, time=27)\n",
      "Message('note_on', channel=0, note=78, velocity=71, time=11)\n",
      "Message('note_on', channel=0, note=62, velocity=0, time=92)\n",
      "Message('note_on', channel=0, note=66, velocity=61, time=33)\n",
      "Message('note_on', channel=0, note=81, velocity=69, time=3)\n",
      "Message('note_on', channel=0, note=78, velocity=0, time=14)\n",
      "Message('note_on', channel=0, note=66, velocity=0, time=88)\n",
      "Message('note_on', channel=0, note=61, velocity=69, time=11)\n",
      "Message('note_on', channel=0, note=81, velocity=0, time=1)\n",
      "Message('note_on', channel=0, note=76, velocity=76, time=8)\n",
      "Message('note_on', channel=0, note=61, velocity=0, time=130)\n",
      "Message('note_on', channel=0, note=62, velocity=66, time=0)\n",
      "Message('note_on', channel=0, note=78, velocity=76, time=17)\n",
      "Message('note_on', channel=0, note=76, velocity=0, time=26)\n",
      "Message('note_on', channel=0, note=62, velocity=0, time=75)\n",
      "Message('note_on', channel=0, note=66, velocity=64, time=17)\n",
      "Message('note_on', channel=0, note=81, velocity=74, time=9)\n",
      "Message('note_on', channel=0, note=78, velocity=0, time=6)\n",
      "Message('note_on', channel=0, note=66, velocity=0, time=24)\n",
      "Message('note_on', channel=0, note=81, velocity=0, time=81)\n",
      "Message('note_on', channel=0, note=73, velocity=76, time=18)\n",
      "Message('note_on', channel=0, note=57, velocity=52, time=8)\n",
      "Message('note_on', channel=0, note=73, velocity=0, time=110)\n",
      "Message('note_on', channel=0, note=74, velocity=80, time=11)\n",
      "Message('note_on', channel=0, note=57, velocity=0, time=2)\n",
      "Message('note_on', channel=0, note=59, velocity=67, time=4)\n",
      "Message('note_on', channel=0, note=59, velocity=0, time=56)\n",
      "Message('note_on', channel=0, note=74, velocity=0, time=32)\n",
      "Message('note_on', channel=0, note=78, velocity=76, time=32)\n",
      "Message('note_on', channel=0, note=62, velocity=63, time=12)\n",
      "Message('note_on', channel=0, note=62, velocity=0, time=76)\n",
      "Message('note_on', channel=0, note=78, velocity=0, time=18)\n",
      "Message('note_on', channel=0, note=73, velocity=76, time=16)\n",
      "Message('note_on', channel=0, note=57, velocity=61, time=13)\n",
      "Message('note_on', channel=0, note=59, velocity=65, time=121)\n",
      "Message('note_on', channel=0, note=73, velocity=0, time=6)\n",
      "Message('note_on', channel=0, note=74, velocity=74, time=0)\n",
      "Message('control_change', channel=0, control=64, value=33, time=8)\n",
      "Message('control_change', channel=0, control=64, value=42, time=20)\n",
      "Message('note_on', channel=0, note=57, velocity=0, time=0)\n",
      "Message('control_change', channel=0, control=64, value=50, time=19)\n",
      "Message('control_change', channel=0, control=64, value=56, time=21)\n",
      "Message('note_on', channel=0, note=59, velocity=0, time=7)\n",
      "Message('control_change', channel=0, control=64, value=58, time=9)\n",
      "Message('note_on', channel=0, note=62, velocity=67, time=29)\n",
      "Message('note_on', channel=0, note=78, velocity=76, time=6)\n",
      "Message('control_change', channel=0, control=64, value=60, time=2)\n",
      "Message('note_on', channel=0, note=74, velocity=0, time=2)\n",
      "Message('control_change', channel=0, control=64, value=61, time=18)\n",
      "Message('note_on', channel=0, note=62, velocity=0, time=9)\n",
      "Message('control_change', channel=0, control=64, value=62, time=43)\n",
      "Message('note_on', channel=0, note=78, velocity=0, time=49)\n",
      "Message('control_change', channel=0, control=64, value=61, time=8)\n",
      "Message('note_on', channel=0, note=69, velocity=76, time=16)\n",
      "Message('control_change', channel=0, control=64, value=54, time=3)\n",
      "Message('control_change', channel=0, control=64, value=28, time=21)\n",
      "Message('control_change', channel=0, control=64, value=0, time=18)\n",
      "Message('note_on', channel=0, note=54, velocity=59, time=9)\n",
      "Message('note_on', channel=0, note=69, velocity=0, time=50)\n",
      "Message('note_on', channel=0, note=71, velocity=73, time=30)\n",
      "Message('note_on', channel=0, note=55, velocity=67, time=23)\n",
      "Message('note_on', channel=0, note=54, velocity=0, time=5)\n",
      "Message('note_on', channel=0, note=71, velocity=0, time=51)\n",
      "Message('note_on', channel=0, note=55, velocity=0, time=2)\n",
      "Message('note_on', channel=0, note=74, velocity=71, time=48)\n",
      "Message('control_change', channel=0, control=67, value=71, time=7)\n",
      "Message('note_on', channel=0, note=73, velocity=72, time=115)\n",
      "Message('note_on', channel=0, note=74, velocity=0, time=2)\n",
      "Message('note_on', channel=0, note=52, velocity=72, time=20)\n",
      "Message('note_on', channel=0, note=73, velocity=0, time=94)\n",
      "Message('note_on', channel=0, note=74, velocity=76, time=18)\n",
      "Message('note_on', channel=0, note=54, velocity=70, time=21)\n",
      "Message('note_on', channel=0, note=52, velocity=0, time=7)\n",
      "Message('note_on', channel=0, note=54, velocity=0, time=34)\n",
      "Message('note_on', channel=0, note=76, velocity=76, time=58)\n",
      "Message('note_on', channel=0, note=74, velocity=0, time=27)\n",
      "Message('note_on', channel=0, note=76, velocity=0, time=73)\n",
      "Message('note_on', channel=0, note=71, velocity=76, time=32)\n",
      "Message('note_on', channel=0, note=55, velocity=80, time=3)\n",
      "Message('note_on', channel=0, note=55, velocity=0, time=107)\n",
      "Message('note_on', channel=0, note=71, velocity=0, time=19)\n",
      "Message('note_on', channel=0, note=57, velocity=82, time=17)\n",
      "Message('control_change', channel=0, control=64, value=38, time=7)\n",
      "Message('note_on', channel=0, note=73, velocity=79, time=0)\n",
      "Message('control_change', channel=0, control=64, value=0, time=19)\n",
      "Message('note_on', channel=0, note=57, velocity=0, time=8)\n",
      "Message('note_on', channel=0, note=76, velocity=77, time=82)\n",
      "Message('note_on', channel=0, note=73, velocity=0, time=1)\n",
      "Message('note_on', channel=0, note=76, velocity=0, time=126)\n",
      "Message('note_on', channel=0, note=74, velocity=75, time=16)\n",
      "Message('note_on', channel=0, note=54, velocity=75, time=4)\n",
      "Message('note_on', channel=0, note=74, velocity=0, time=119)\n",
      "Message('note_on', channel=0, note=55, velocity=77, time=14)\n",
      "Message('note_on', channel=0, note=76, velocity=80, time=1)\n",
      "Message('note_on', channel=0, note=54, velocity=0, time=1)\n",
      "Message('note_on', channel=0, note=55, velocity=0, time=47)\n",
      "Message('note_on', channel=0, note=78, velocity=81, time=69)\n",
      "Message('note_on', channel=0, note=76, velocity=0, time=21)\n",
      "Message('note_on', channel=0, note=57, velocity=74, time=115)\n",
      "Message('note_on', channel=0, note=73, velocity=80, time=4)\n",
      "Message('note_on', channel=0, note=78, velocity=0, time=55)\n",
      "Message('note_on', channel=0, note=73, velocity=0, time=30)\n",
      "Message('note_on', channel=0, note=74, velocity=80, time=39)\n",
      "Message('note_on', channel=0, note=59, velocity=60, time=2)\n",
      "Message('note_on', channel=0, note=57, velocity=0, time=31)\n",
      "Message('control_change', channel=0, control=64, value=50, time=6)\n",
      "Message('note_on', channel=0, note=59, velocity=0, time=14)\n",
      "Message('control_change', channel=0, control=64, value=34, time=6)\n",
      "Message('control_change', channel=0, control=64, value=0, time=20)\n",
      "Message('note_on', channel=0, note=74, velocity=0, time=28)\n",
      "Message('control_change', channel=0, control=67, value=75, time=23)\n",
      "Message('note_on', channel=0, note=78, velocity=81, time=12)\n",
      "Message('note_on', channel=0, note=78, velocity=0, time=128)\n",
      "Message('note_on', channel=0, note=61, velocity=80, time=1)\n",
      "Message('note_on', channel=0, note=76, velocity=81, time=3)\n",
      "Message('note_on', channel=0, note=76, velocity=0, time=94)\n",
      "Message('note_on', channel=0, note=78, velocity=82, time=32)\n",
      "Message('note_on', channel=0, note=62, velocity=79, time=5)\n",
      "Message('note_on', channel=0, note=61, velocity=0, time=9)\n",
      "Message('note_on', channel=0, note=62, velocity=0, time=20)\n",
      "Message('note_on', channel=0, note=81, velocity=83, time=89)\n",
      "Message('note_on', channel=0, note=78, velocity=0, time=12)\n",
      "Message('note_on', channel=0, note=81, velocity=0, time=70)\n",
      "Message('note_on', channel=0, note=79, velocity=87, time=46)\n",
      "Message('note_on', channel=0, note=57, velocity=61, time=31)\n",
      "Message('note_on', channel=0, note=59, velocity=62, time=1)\n",
      "Message('control_change', channel=0, control=67, value=69, time=17)\n",
      "Message('control_change', channel=0, control=67, value=60, time=37)\n",
      "Message('note_on', channel=0, note=57, velocity=0, time=16)\n",
      "Message('control_change', channel=0, control=67, value=55, time=1)\n",
      "Message('note_on', channel=0, note=59, velocity=0, time=5)\n",
      "Message('control_change', channel=0, control=67, value=51, time=15)\n",
      "Message('note_on', channel=0, note=61, velocity=83, time=2)\n",
      "Message('note_on', channel=0, note=81, velocity=85, time=11)\n",
      "Message('control_change', channel=0, control=67, value=45, time=4)\n",
      "Message('note_on', channel=0, note=79, velocity=0, time=9)\n",
      "Message('control_change', channel=0, control=67, value=35, time=12)\n",
      "Message('control_change', channel=0, control=67, value=22, time=19)\n",
      "Message('control_change', channel=0, control=67, value=11, time=18)\n",
      "Message('control_change', channel=0, control=64, value=35, time=18)\n",
      "Message('control_change', channel=0, control=64, value=61, time=20)\n",
      "Message('note_on', channel=0, note=64, velocity=76, time=3)\n",
      "Message('control_change', channel=0, control=64, value=74, time=17)\n",
      "Message('note_on', channel=0, note=61, velocity=0, time=6)\n",
      "Message('control_change', channel=0, control=64, value=85, time=9)\n",
      "Message('control_change', channel=0, control=64, value=98, time=20)\n",
      "Message('control_change', channel=0, control=64, value=112, time=20)\n",
      "Message('control_change', channel=0, control=64, value=126, time=19)\n",
      "Message('note_on', channel=0, note=64, velocity=0, time=18)\n",
      "Message('note_on', channel=0, note=69, velocity=78, time=30)\n",
      "Message('note_on', channel=0, note=69, velocity=0, time=28)\n",
      "Message('note_on', channel=0, note=73, velocity=88, time=122)\n",
      "Message('note_on', channel=0, note=81, velocity=0, time=13)\n",
      "Message('control_change', channel=0, control=67, value=0, time=13)\n",
      "Message('note_on', channel=0, note=73, velocity=0, time=55)\n",
      "Message('note_on', channel=0, note=76, velocity=85, time=38)\n",
      "Message('note_on', channel=0, note=76, velocity=0, time=72)\n",
      "Message('note_on', channel=0, note=79, velocity=87, time=62)\n",
      "Message('note_on', channel=0, note=45, velocity=79, time=2)\n",
      "Message('note_on', channel=0, note=79, velocity=0, time=47)\n",
      "Message('control_change', channel=0, control=64, value=120, time=7)\n",
      "Message('control_change', channel=0, control=64, value=78, time=18)\n",
      "Message('control_change', channel=0, control=64, value=0, time=18)\n",
      "Message('note_on', channel=0, note=45, velocity=0, time=17)\n",
      "Message('note_on', channel=0, note=50, velocity=78, time=14)\n",
      "Message('note_on', channel=0, note=78, velocity=90, time=5)\n",
      "Message('note_on', channel=0, note=78, velocity=0, time=28)\n",
      "Message('note_on', channel=0, note=50, velocity=0, time=71)\n",
      "Message('note_on', channel=0, note=54, velocity=64, time=21)\n",
      "Message('note_on', channel=0, note=49, velocity=60, time=135)\n",
      "Message('note_on', channel=0, note=54, velocity=0, time=14)\n",
      "Message('note_on', channel=0, note=76, velocity=76, time=3)\n",
      "Message('note_on', channel=0, note=69, velocity=66, time=11)\n",
      "Message('note_on', channel=0, note=76, velocity=0, time=25)\n",
      "Message('note_on', channel=0, note=69, velocity=0, time=7)\n",
      "Message('note_on', channel=0, note=50, velocity=70, time=66)\n",
      "Message('note_on', channel=0, note=49, velocity=0, time=2)\n",
      "Message('note_on', channel=0, note=78, velocity=88, time=13)\n",
      "Message('note_on', channel=0, note=69, velocity=78, time=10)\n",
      "Message('note_on', channel=0, note=78, velocity=0, time=18)\n",
      "Message('note_on', channel=0, note=69, velocity=0, time=7)\n",
      "Message('note_on', channel=0, note=50, velocity=0, time=35)\n",
      "Message('control_change', channel=0, control=67, value=8, time=22)\n",
      "Message('note_on', channel=0, note=54, velocity=63, time=37)\n",
      "Message('note_on', channel=0, note=54, velocity=0, time=114)\n",
      "Message('note_on', channel=0, note=45, velocity=69, time=32)\n",
      "Message('note_on', channel=0, note=79, velocity=80, time=2)\n",
      "Message('note_on', channel=0, note=69, velocity=74, time=11)\n",
      "Message('note_on', channel=0, note=79, velocity=0, time=26)\n",
      "Message('note_on', channel=0, note=69, velocity=0, time=4)\n",
      "Message('note_on', channel=0, note=45, velocity=0, time=63)\n",
      "Message('note_on', channel=0, note=50, velocity=69, time=9)\n",
      "Message('note_on', channel=0, note=78, velocity=87, time=19)\n",
      "Message('note_on', channel=0, note=69, velocity=78, time=7)\n",
      "Message('note_on', channel=0, note=78, velocity=0, time=17)\n",
      "Message('note_on', channel=0, note=69, velocity=0, time=7)\n",
      "Message('control_change', channel=0, control=64, value=33, time=12)\n",
      "Message('control_change', channel=0, control=64, value=0, time=18)\n",
      "Message('control_change', channel=0, control=67, value=14, time=19)\n",
      "Message('note_on', channel=0, note=50, velocity=0, time=4)\n",
      "Message('note_on', channel=0, note=54, velocity=65, time=29)\n",
      "Message('note_on', channel=0, note=49, velocity=69, time=132)\n",
      "Message('note_on', channel=0, note=54, velocity=0, time=3)\n",
      "Message('note_on', channel=0, note=76, velocity=80, time=12)\n",
      "Message('note_on', channel=0, note=69, velocity=75, time=2)\n",
      "Message('note_on', channel=0, note=76, velocity=0, time=33)\n",
      "Message('note_on', channel=0, note=69, velocity=0, time=2)\n",
      "Message('control_change', channel=0, control=67, value=9, time=9)\n",
      "Message('note_on', channel=0, note=50, velocity=73, time=54)\n",
      "Message('note_on', channel=0, note=74, velocity=88, time=22)\n",
      "Message('note_on', channel=0, note=49, velocity=0, time=9)\n",
      "Message('control_change', channel=0, control=64, value=43, time=9)\n",
      "Message('note_on', channel=0, note=69, velocity=70, time=5)\n",
      "Message('control_change', channel=0, control=64, value=85, time=15)\n",
      "Message('note_on', channel=0, note=74, velocity=0, time=10)\n",
      "Message('control_change', channel=0, control=64, value=96, time=7)\n",
      "Message('control_change', channel=0, control=67, value=14, time=1)\n",
      "Message('note_on', channel=0, note=50, velocity=0, time=12)\n",
      "Message('note_on', channel=0, note=54, velocity=72, time=23)\n",
      "Message('note_on', channel=0, note=74, velocity=72, time=52)\n",
      "Message('note_on', channel=0, note=69, velocity=0, time=10)\n",
      "Message('note_on', channel=0, note=54, velocity=0, time=16)\n",
      "Message('note_on', channel=0, note=45, velocity=76, time=87)\n",
      "Message('note_on', channel=0, note=66, velocity=82, time=1)\n",
      "Message('control_change', channel=0, control=64, value=80, time=39)\n",
      "Message('note_on', channel=0, note=45, velocity=0, time=9)\n",
      "Message('control_change', channel=0, control=64, value=51, time=9)\n",
      "Message('note_on', channel=0, note=66, velocity=0, time=0)\n",
      "Message('control_change', channel=0, control=64, value=0, time=19)\n",
      "Message('note_on', channel=0, note=47, velocity=77, time=50)\n",
      "Message('note_on', channel=0, note=62, velocity=80, time=2)\n",
      "Message('note_on', channel=0, note=62, velocity=0, time=65)\n",
      "Message('note_on', channel=0, note=47, velocity=0, time=34)\n",
      "Message('note_on', channel=0, note=43, velocity=77, time=11)\n",
      "Message('note_on', channel=0, note=67, velocity=80, time=13)\n",
      "Message('note_on', channel=0, note=67, velocity=0, time=47)\n",
      "Message('note_on', channel=0, note=43, velocity=0, time=36)\n",
      "Message('note_on', channel=0, note=38, velocity=80, time=32)\n",
      "Message('note_on', channel=0, note=71, velocity=80, time=11)\n",
      "Message('note_on', channel=0, note=71, velocity=0, time=51)\n",
      "Message('note_on', channel=0, note=38, velocity=0, time=69)\n",
      "Message('note_on', channel=0, note=50, velocity=88, time=0)\n",
      "Message('note_on', channel=0, note=71, velocity=73, time=10)\n",
      "Message('control_change', channel=0, control=64, value=67, time=3)\n",
      "Message('control_change', channel=0, control=64, value=96, time=20)\n",
      "Message('note_on', channel=0, note=50, velocity=0, time=10)\n",
      "Message('control_change', channel=0, control=64, value=121, time=7)\n",
      "Message('control_change', channel=0, control=64, value=127, time=20)\n",
      "Message('note_on', channel=0, note=67, velocity=75, time=56)\n",
      "Message('note_on', channel=0, note=71, velocity=0, time=36)\n",
      "Message('note_on', channel=0, note=67, velocity=0, time=27)\n",
      "Message('note_on', channel=0, note=43, velocity=86, time=76)\n",
      "Message('note_on', channel=0, note=62, velocity=80, time=12)\n",
      "Message('control_change', channel=0, control=64, value=109, time=21)\n",
      "Message('note_on', channel=0, note=62, velocity=0, time=17)\n",
      "Message('control_change', channel=0, control=64, value=68, time=3)\n",
      "Message('note_on', channel=0, note=43, velocity=0, time=9)\n",
      "Message('control_change', channel=0, control=64, value=0, time=8)\n",
      "Message('note_on', channel=0, note=45, velocity=80, time=61)\n",
      "Message('note_on', channel=0, note=62, velocity=83, time=8)\n",
      "Message('note_on', channel=0, note=62, velocity=0, time=65)\n",
      "Message('note_on', channel=0, note=42, velocity=80, time=56)\n",
      "Message('note_on', channel=0, note=45, velocity=0, time=3)\n",
      "Message('note_on', channel=0, note=66, velocity=82, time=6)\n",
      "Message('note_on', channel=0, note=66, velocity=0, time=51)\n",
      "Message('note_on', channel=0, note=42, velocity=0, time=62)\n",
      "Message('note_on', channel=0, note=38, velocity=79, time=5)\n",
      "Message('note_on', channel=0, note=69, velocity=82, time=1)\n",
      "Message('note_on', channel=0, note=69, velocity=0, time=52)\n",
      "Message('note_on', channel=0, note=38, velocity=0, time=50)\n",
      "Message('note_on', channel=0, note=50, velocity=87, time=22)\n",
      "Message('control_change', channel=0, control=64, value=62, time=7)\n",
      "Message('note_on', channel=0, note=69, velocity=75, time=10)\n",
      "Message('control_change', channel=0, control=64, value=77, time=12)\n",
      "Message('control_change', channel=0, control=64, value=83, time=18)\n",
      "Message('note_on', channel=0, note=50, velocity=0, time=5)\n",
      "Message('control_change', channel=0, control=64, value=87, time=14)\n",
      "Message('control_change', channel=0, control=67, value=18, time=18)\n",
      "Message('note_on', channel=0, note=66, velocity=73, time=57)\n",
      "Message('note_on', channel=0, note=69, velocity=0, time=3)\n",
      "Message('note_on', channel=0, note=66, velocity=0, time=94)\n",
      "Message('note_on', channel=0, note=42, velocity=77, time=23)\n",
      "Message('control_change', channel=0, control=64, value=79, time=13)\n",
      "Message('note_on', channel=0, note=62, velocity=73, time=1)\n",
      "Message('control_change', channel=0, control=64, value=65, time=19)\n",
      "Message('control_change', channel=0, control=64, value=39, time=17)\n",
      "Message('note_on', channel=0, note=74, velocity=0, time=6)\n",
      "Message('control_change', channel=0, control=64, value=0, time=15)\n",
      "Message('note_on', channel=0, note=42, velocity=0, time=38)\n",
      "Message('note_on', channel=0, note=62, velocity=0, time=15)\n",
      "Message('note_on', channel=0, note=43, velocity=66, time=2)\n",
      "Message('note_on', channel=0, note=64, velocity=74, time=24)\n",
      "Message('note_on', channel=0, note=45, velocity=68, time=87)\n",
      "Message('note_on', channel=0, note=43, velocity=0, time=7)\n",
      "Message('note_on', channel=0, note=45, velocity=0, time=114)\n",
      "Message('note_on', channel=0, note=47, velocity=56, time=45)\n",
      "Message('note_on', channel=0, note=74, velocity=65, time=29)\n",
      "Message('note_on', channel=0, note=47, velocity=0, time=98)\n",
      "Message('note_on', channel=0, note=45, velocity=59, time=5)\n",
      "Message('control_change', channel=0, control=67, value=22, time=2)\n",
      "Message('note_on', channel=0, note=74, velocity=0, time=9)\n",
      "Message('note_on', channel=0, note=73, velocity=67, time=10)\n",
      "Message('note_on', channel=0, note=45, velocity=0, time=92)\n",
      "Message('note_on', channel=0, note=47, velocity=56, time=37)\n",
      "Message('control_change', channel=0, control=67, value=26, time=2)\n",
      "Message('note_on', channel=0, note=43, velocity=61, time=127)\n",
      "Message('note_on', channel=0, note=73, velocity=0, time=0)\n",
      "Message('note_on', channel=0, note=47, velocity=0, time=2)\n",
      "Message('note_on', channel=0, note=71, velocity=62, time=5)\n",
      "Message('note_on', channel=0, note=43, velocity=0, time=91)\n",
      "Message('note_on', channel=0, note=42, velocity=63, time=29)\n",
      "Message('note_on', channel=0, note=64, velocity=0, time=4)\n",
      "Message('note_on', channel=0, note=71, velocity=0, time=2)\n",
      "Message('note_on', channel=0, note=69, velocity=64, time=9)\n",
      "Message('note_on', channel=0, note=42, velocity=0, time=82)\n",
      "Message('note_on', channel=0, note=43, velocity=63, time=9)\n",
      "Message('control_change', channel=0, control=67, value=30, time=1)\n",
      "Message('note_on', channel=0, note=43, velocity=0, time=97)\n",
      "Message('note_on', channel=0, note=45, velocity=57, time=56)\n",
      "Message('note_on', channel=0, note=62, velocity=62, time=16)\n",
      "Message('note_on', channel=0, note=45, velocity=0, time=104)\n",
      "Message('note_on', channel=0, note=43, velocity=61, time=5)\n",
      "Message('note_on', channel=0, note=71, velocity=68, time=48)\n",
      "Message('note_on', channel=0, note=69, velocity=0, time=6)\n",
      "Message('note_on', channel=0, note=43, velocity=0, time=73)\n",
      "Message('note_on', channel=0, note=45, velocity=57, time=37)\n",
      "Message('note_on', channel=0, note=71, velocity=0, time=120)\n",
      "Message('note_on', channel=0, note=42, velocity=57, time=14)\n",
      "Message('note_on', channel=0, note=45, velocity=0, time=5)\n",
      "Message('note_on', channel=0, note=69, velocity=53, time=8)\n",
      "Message('note_on', channel=0, note=42, velocity=0, time=72)\n",
      "Message('note_on', channel=0, note=40, velocity=63, time=42)\n",
      "Message('note_on', channel=0, note=69, velocity=0, time=0)\n",
      "Message('note_on', channel=0, note=67, velocity=69, time=14)\n",
      "Message('note_on', channel=0, note=40, velocity=0, time=77)\n",
      "Message('control_change', channel=0, control=67, value=34, time=32)\n",
      "Message('note_on', channel=0, note=42, velocity=63, time=6)\n",
      "Message('note_on', channel=0, note=67, velocity=0, time=11)\n",
      "Message('note_on', channel=0, note=67, velocity=28, time=0)\n",
      "Message('note_on', channel=0, note=42, velocity=0, time=49)\n",
      "Message('note_on', channel=0, note=62, velocity=0, time=65)\n",
      "Message('note_on', channel=0, note=61, velocity=67, time=8)\n",
      "Message('note_on', channel=0, note=43, velocity=60, time=9)\n",
      "Message('note_on', channel=0, note=43, velocity=0, time=89)\n",
      "Message('note_on', channel=0, note=67, velocity=0, time=21)\n",
      "Message('note_on', channel=0, note=42, velocity=60, time=10)\n",
      "Message('note_on', channel=0, note=69, velocity=61, time=15)\n",
      "Message('note_on', channel=0, note=42, velocity=0, time=45)\n",
      "Message('note_on', channel=0, note=43, velocity=57, time=78)\n",
      "Message('note_on', channel=0, note=43, velocity=0, time=85)\n",
      "Message('note_on', channel=0, note=61, velocity=0, time=71)\n",
      "Message('note_on', channel=0, note=69, velocity=0, time=2)\n",
      "Message('note_on', channel=0, note=67, velocity=57, time=18)\n",
      "Message('note_on', channel=0, note=40, velocity=50, time=1)\n",
      "Message('note_on', channel=0, note=40, velocity=0, time=69)\n",
      "Message('note_on', channel=0, note=67, velocity=0, time=47)\n",
      "Message('note_on', channel=0, note=66, velocity=65, time=7)\n",
      "Message('note_on', channel=0, note=38, velocity=66, time=3)\n",
      "Message('control_change', channel=0, control=64, value=61, time=10)\n",
      "Message('control_change', channel=0, control=64, value=71, time=20)\n",
      "Message('control_change', channel=0, control=67, value=38, time=1)\n",
      "Message('control_change', channel=0, control=64, value=64, time=16)\n",
      "Message('control_change', channel=0, control=64, value=50, time=19)\n",
      "Message('control_change', channel=0, control=64, value=0, time=19)\n",
      "Message('note_on', channel=0, note=66, velocity=0, time=24)\n",
      "Message('note_on', channel=0, note=62, velocity=60, time=14)\n",
      "Message('control_change', channel=0, control=64, value=23, time=19)\n",
      "Message('control_change', channel=0, control=64, value=39, time=21)\n",
      "Message('control_change', channel=0, control=67, value=42, time=1)\n",
      "Message('note_on', channel=0, note=62, velocity=0, time=36)\n",
      "Message('note_on', channel=0, note=38, velocity=0, time=43)\n",
      "Message('note_on', channel=0, note=40, velocity=60, time=10)\n",
      "Message('note_on', channel=0, note=67, velocity=59, time=7)\n",
      "Message('control_change', channel=0, control=64, value=33, time=32)\n",
      "Message('control_change', channel=0, control=64, value=28, time=19)\n",
      "Message('note_on', channel=0, note=42, velocity=67, time=72)\n",
      "Message('note_on', channel=0, note=69, velocity=62, time=2)\n",
      "Message('note_on', channel=0, note=40, velocity=0, time=6)\n",
      "Message('note_on', channel=0, note=67, velocity=0, time=12)\n",
      "Message('control_change', channel=0, control=64, value=22, time=23)\n",
      "Message('note_on', channel=0, note=69, velocity=0, time=29)\n",
      "Message('note_on', channel=0, note=62, velocity=61, time=42)\n",
      "Message('control_change', channel=0, control=64, value=15, time=21)\n",
      "Message('control_change', channel=0, control=64, value=0, time=19)\n",
      "Message('note_on', channel=0, note=62, velocity=0, time=78)\n",
      "Message('note_on', channel=0, note=43, velocity=68, time=41)\n",
      "Message('note_on', channel=0, note=71, velocity=69, time=1)\n",
      "Message('note_on', channel=0, note=42, velocity=0, time=45)\n",
      "Message('note_on', channel=0, note=43, velocity=0, time=80)\n",
      "Message('note_on', channel=0, note=71, velocity=0, time=1)\n",
      "Message('note_on', channel=0, note=61, velocity=73, time=11)\n",
      "Message('note_on', channel=0, note=45, velocity=73, time=2)\n",
      "Message('note_on', channel=0, note=61, velocity=0, time=65)\n",
      "Message('note_on', channel=0, note=57, velocity=58, time=64)\n",
      "Message('note_on', channel=0, note=57, velocity=0, time=77)\n",
      "Message('note_on', channel=0, note=62, velocity=66, time=49)\n",
      "Message('note_on', channel=0, note=47, velocity=71, time=2)\n",
      "Message('note_on', channel=0, note=45, velocity=0, time=16)\n",
      "Message('note_on', channel=0, note=62, velocity=0, time=93)\n",
      "Message('note_on', channel=0, note=64, velocity=67, time=22)\n",
      "Message('note_on', channel=0, note=49, velocity=69, time=5)\n",
      "Message('note_on', channel=0, note=47, velocity=0, time=2)\n",
      "Message('note_on', channel=0, note=64, velocity=0, time=50)\n",
      "Message('control_change', channel=0, control=64, value=11, time=8)\n",
      "Message('control_change', channel=0, control=64, value=36, time=21)\n",
      "Message('control_change', channel=0, control=64, value=50, time=20)\n",
      "Message('control_change', channel=0, control=64, value=55, time=19)\n",
      "Message('note_on', channel=0, note=57, velocity=52, time=10)\n",
      "Message('note_on', channel=0, note=57, velocity=0, time=52)\n",
      "Message('control_change', channel=0, control=64, value=58, time=14)\n",
      "Message('control_change', channel=0, control=64, value=60, time=17)\n",
      "Message('control_change', channel=0, control=64, value=62, time=20)\n",
      "Message('control_change', channel=0, control=64, value=65, time=18)\n",
      "Message('note_on', channel=0, note=66, velocity=73, time=0)\n",
      "Message('note_on', channel=0, note=50, velocity=81, time=11)\n",
      "Message('note_on', channel=0, note=49, velocity=0, time=6)\n",
      "Message('control_change', channel=0, control=64, value=66, time=3)\n",
      "Message('control_change', channel=0, control=64, value=68, time=17)\n",
      "Message('note_on', channel=0, note=66, velocity=0, time=1)\n",
      "Message('control_change', channel=0, control=64, value=70, time=18)\n",
      "Message('control_change', channel=0, control=64, value=74, time=20)\n",
      "Message('note_on', channel=0, note=50, velocity=0, time=3)\n",
      "Message('control_change', channel=0, control=64, value=80, time=15)\n",
      "Message('control_change', channel=0, control=64, value=90, time=20)\n",
      "Message('control_change', channel=0, control=64, value=101, time=20)\n",
      "Message('note_on', channel=0, note=40, velocity=83, time=9)\n",
      "Message('note_on', channel=0, note=67, velocity=80, time=6)\n",
      "Message('control_change', channel=0, control=64, value=79, time=23)\n",
      "Message('control_change', channel=0, control=64, value=0, time=19)\n",
      "Message('note_on', channel=0, note=67, velocity=0, time=17)\n",
      "Message('note_on', channel=0, note=64, velocity=70, time=62)\n",
      "Message('note_on', channel=0, note=64, velocity=0, time=82)\n",
      "Message('note_on', channel=0, note=69, velocity=78, time=62)\n",
      "Message('note_on', channel=0, note=42, velocity=74, time=8)\n",
      "Message('note_on', channel=0, note=40, velocity=0, time=3)\n",
      "Message('note_on', channel=0, note=42, velocity=0, time=115)\n",
      "Message('control_change', channel=0, control=64, value=15, time=1)\n",
      "Message('note_on', channel=0, note=71, velocity=76, time=1)\n",
      "Message('note_on', channel=0, note=43, velocity=77, time=7)\n",
      "Message('note_on', channel=0, note=69, velocity=0, time=6)\n",
      "Message('control_change', channel=0, control=64, value=30, time=3)\n",
      "Message('control_change', channel=0, control=64, value=0, time=21)\n",
      "Message('note_on', channel=0, note=71, velocity=0, time=43)\n",
      "Message('note_on', channel=0, note=64, velocity=62, time=54)\n",
      "Message('note_on', channel=0, note=64, velocity=0, time=105)\n",
      "Message('note_on', channel=0, note=45, velocity=78, time=29)\n",
      "Message('note_on', channel=0, note=73, velocity=74, time=16)\n",
      "Message('note_on', channel=0, note=43, velocity=0, time=6)\n",
      "Message('note_on', channel=0, note=73, velocity=0, time=51)\n",
      "Message('note_on', channel=0, note=45, velocity=0, time=48)\n",
      "Message('note_on', channel=0, note=47, velocity=76, time=14)\n",
      "Message('note_on', channel=0, note=62, velocity=79, time=1)\n",
      "Message('note_on', channel=0, note=62, velocity=0, time=115)\n",
      "Message('note_on', channel=0, note=59, velocity=69, time=20)\n",
      "Message('note_on', channel=0, note=59, velocity=0, time=86)\n",
      "Message('note_on', channel=0, note=49, velocity=73, time=56)\n",
      "Message('note_on', channel=0, note=64, velocity=71, time=4)\n",
      "Message('note_on', channel=0, note=47, velocity=0, time=5)\n",
      "Message('note_on', channel=0, note=50, velocity=82, time=114)\n",
      "Message('note_on', channel=0, note=66, velocity=79, time=1)\n",
      "Message('note_on', channel=0, note=64, velocity=0, time=23)\n",
      "Message('note_on', channel=0, note=49, velocity=0, time=16)\n",
      "Message('note_on', channel=0, note=66, velocity=0, time=57)\n",
      "Message('note_on', channel=0, note=59, velocity=74, time=25)\n",
      "Message('note_on', channel=0, note=59, velocity=0, time=86)\n",
      "Message('note_on', channel=0, note=67, velocity=80, time=54)\n",
      "Message('note_on', channel=0, note=52, velocity=73, time=3)\n",
      "Message('note_on', channel=0, note=50, velocity=0, time=7)\n",
      "Message('note_on', channel=0, note=67, velocity=0, time=98)\n",
      "Message('note_on', channel=0, note=69, velocity=80, time=35)\n",
      "Message('note_on', channel=0, note=54, velocity=84, time=3)\n",
      "Message('note_on', channel=0, note=52, velocity=0, time=24)\n",
      "Message('note_on', channel=0, note=54, velocity=0, time=3)\n",
      "Message('note_on', channel=0, note=66, velocity=61, time=118)\n",
      "Message('note_on', channel=0, note=55, velocity=82, time=121)\n",
      "Message('note_on', channel=0, note=61, velocity=72, time=6)\n",
      "Message('control_change', channel=0, control=67, value=38, time=23)\n",
      "Message('note_on', channel=0, note=66, velocity=0, time=41)\n",
      "Message('note_on', channel=0, note=55, velocity=0, time=16)\n",
      "Message('note_on', channel=0, note=54, velocity=82, time=60)\n",
      "Message('note_on', channel=0, note=61, velocity=0, time=0)\n",
      "Message('note_on', channel=0, note=62, velocity=76, time=16)\n",
      "Message('note_on', channel=0, note=54, velocity=0, time=13)\n",
      "Message('note_on', channel=0, note=62, velocity=0, time=46)\n",
      "Message('control_change', channel=0, control=67, value=43, time=9)\n",
      "Message('note_on', channel=0, note=66, velocity=69, time=60)\n",
      "Message('note_on', channel=0, note=52, velocity=82, time=125)\n",
      "Message('note_on', channel=0, note=57, velocity=75, time=3)\n",
      "Message('note_on', channel=0, note=66, velocity=0, time=24)\n",
      "Message('control_change', channel=0, control=67, value=38, time=15)\n",
      "Message('note_on', channel=0, note=57, velocity=0, time=59)\n",
      "Message('note_on', channel=0, note=54, velocity=86, time=33)\n",
      "Message('note_on', channel=0, note=62, velocity=80, time=3)\n",
      "Message('note_on', channel=0, note=52, velocity=0, time=6)\n",
      "Message('note_on', channel=0, note=54, velocity=0, time=19)\n",
      "Message('control_change', channel=0, control=67, value=43, time=32)\n",
      "Message('note_on', channel=0, note=62, velocity=0, time=0)\n",
      "Message('control_change', channel=0, control=67, value=47, time=55)\n",
      "Message('note_on', channel=0, note=66, velocity=74, time=21)\n",
      "Message('note_on', channel=0, note=55, velocity=82, time=134)\n",
      "Message('note_on', channel=0, note=61, velocity=71, time=10)\n",
      "Message('control_change', channel=0, control=67, value=42, time=25)\n",
      "Message('note_on', channel=0, note=66, velocity=0, time=52)\n",
      "Message('note_on', channel=0, note=61, velocity=0, time=28)\n",
      "Message('control_change', channel=0, control=64, value=41, time=15)\n",
      "Message('note_on', channel=0, note=55, velocity=0, time=1)\n",
      "Message('note_on', channel=0, note=54, velocity=83, time=1)\n",
      "Message('note_on', channel=0, note=62, velocity=75, time=0)\n",
      "Message('control_change', channel=0, control=64, value=0, time=36)\n",
      "Message('note_on', channel=0, note=54, velocity=0, time=3)\n",
      "Message('note_on', channel=0, note=62, velocity=0, time=31)\n",
      "Message('control_change', channel=0, control=67, value=48, time=4)\n",
      "Message('control_change', channel=0, control=67, value=54, time=51)\n",
      "Message('note_on', channel=0, note=66, velocity=75, time=16)\n",
      "Message('control_change', channel=0, control=64, value=9, time=4)\n",
      "Message('control_change', channel=0, control=64, value=0, time=19)\n",
      "Message('note_on', channel=0, note=66, velocity=0, time=111)\n",
      "Message('note_on', channel=0, note=52, velocity=83, time=4)\n",
      "Message('note_on', channel=0, note=57, velocity=86, time=0)\n",
      "Message('note_on', channel=0, note=57, velocity=0, time=57)\n",
      "Message('control_change', channel=0, control=64, value=37, time=16)\n",
      "Message('control_change', channel=0, control=64, value=52, time=20)\n",
      "Message('control_change', channel=0, control=64, value=49, time=18)\n",
      "Message('note_on', channel=0, note=50, velocity=81, time=14)\n",
      "Message('note_on', channel=0, note=69, velocity=0, time=1)\n",
      "Message('note_on', channel=0, note=69, velocity=13, time=0)\n",
      "Message('control_change', channel=0, control=64, value=41, time=5)\n",
      "Message('note_on', channel=0, note=59, velocity=86, time=5)\n",
      "Message('control_change', channel=0, control=64, value=33, time=13)\n",
      "Message('note_on', channel=0, note=52, velocity=0, time=0)\n",
      "Message('note_on', channel=0, note=69, velocity=0, time=37)\n",
      "Message('control_change', channel=0, control=64, value=40, time=19)\n",
      "Message('note_on', channel=0, note=59, velocity=0, time=10)\n",
      "Message('control_change', channel=0, control=64, value=43, time=9)\n",
      "Message('note_on', channel=0, note=55, velocity=77, time=28)\n",
      "Message('note_on', channel=0, note=67, velocity=80, time=3)\n",
      "Message('control_change', channel=0, control=64, value=39, time=7)\n",
      "Message('note_on', channel=0, note=50, velocity=0, time=1)\n",
      "Message('note_on', channel=0, note=55, velocity=0, time=53)\n",
      "Message('control_change', channel=0, control=64, value=42, time=22)\n",
      "Message('note_on', channel=0, note=67, velocity=0, time=24)\n",
      "Message('note_on', channel=0, note=59, velocity=80, time=7)\n",
      "Message('note_on', channel=0, note=62, velocity=87, time=5)\n",
      "Message('control_change', channel=0, control=64, value=13, time=19)\n",
      "Message('control_change', channel=0, control=64, value=0, time=20)\n",
      "Message('note_on', channel=0, note=59, velocity=0, time=2)\n",
      "Message('note_on', channel=0, note=62, velocity=0, time=23)\n",
      "Message('note_on', channel=0, note=59, velocity=88, time=67)\n",
      "Message('note_on', channel=0, note=74, velocity=86, time=11)\n",
      "Message('control_change', channel=0, control=64, value=25, time=29)\n",
      "Message('control_change', channel=0, control=64, value=57, time=18)\n",
      "Message('note_on', channel=0, note=59, velocity=0, time=15)\n",
      "Message('control_change', channel=0, control=64, value=69, time=5)\n",
      "Message('control_change', channel=0, control=64, value=75, time=19)\n",
      "Message('note_on', channel=0, note=59, velocity=44, time=32)\n",
      "Message('note_on', channel=0, note=55, velocity=74, time=1)\n",
      "Message('note_on', channel=0, note=59, velocity=0, time=40)\n",
      "Message('note_on', channel=0, note=55, velocity=0, time=4)\n",
      "Message('note_on', channel=0, note=50, velocity=74, time=82)\n",
      "Message('note_on', channel=0, note=67, velocity=81, time=9)\n",
      "Message('control_change', channel=0, control=64, value=69, time=35)\n",
      "Message('note_on', channel=0, note=50, velocity=0, time=18)\n",
      "Message('control_change', channel=0, control=64, value=44, time=1)\n",
      "Message('control_change', channel=0, control=64, value=0, time=20)\n",
      "Message('note_on', channel=0, note=67, velocity=0, time=17)\n",
      "Message('note_on', channel=0, note=74, velocity=0, time=13)\n",
      "Message('note_on', channel=0, note=50, velocity=87, time=29)\n",
      "Message('note_on', channel=0, note=69, velocity=82, time=15)\n",
      "Message('control_change', channel=0, control=64, value=19, time=39)\n",
      "Message('control_change', channel=0, control=64, value=49, time=20)\n",
      "Message('note_on', channel=0, note=50, velocity=0, time=5)\n",
      "Message('control_change', channel=0, control=64, value=57, time=13)\n",
      "Message('note_on', channel=0, note=69, velocity=0, time=42)\n",
      "Message('note_on', channel=0, note=54, velocity=82, time=5)\n",
      "Message('note_on', channel=0, note=66, velocity=84, time=3)\n",
      "Message('note_on', channel=0, note=54, velocity=0, time=52)\n",
      "Message('control_change', channel=0, control=64, value=55, time=12)\n",
      "Message('note_on', channel=0, note=66, velocity=0, time=13)\n",
      "Message('control_change', channel=0, control=64, value=51, time=4)\n",
      "Message('control_change', channel=0, control=64, value=32, time=19)\n",
      "Message('control_change', channel=0, control=64, value=0, time=19)\n",
      "Message('note_on', channel=0, note=57, velocity=81, time=5)\n",
      "Message('note_on', channel=0, note=62, velocity=85, time=2)\n",
      "Message('note_on', channel=0, note=57, velocity=0, time=40)\n",
      "Message('note_on', channel=0, note=62, velocity=0, time=23)\n",
      "Message('note_on', channel=0, note=57, velocity=78, time=63)\n",
      "Message('note_on', channel=0, note=74, velocity=77, time=18)\n",
      "Message('control_change', channel=0, control=64, value=62, time=75)\n",
      "Message('control_change', channel=0, control=64, value=72, time=21)\n",
      "Message('note_on', channel=0, note=54, velocity=75, time=13)\n",
      "Message('note_on', channel=0, note=57, velocity=0, time=26)\n",
      "Message('note_on', channel=0, note=54, velocity=0, time=58)\n",
      "Message('note_on', channel=0, note=50, velocity=78, time=43)\n",
      "Message('note_on', channel=0, note=66, velocity=81, time=14)\n",
      "Message('control_change', channel=0, control=64, value=70, time=16)\n",
      "Message('note_on', channel=0, note=50, velocity=0, time=4)\n",
      "Message('control_change', channel=0, control=64, value=61, time=12)\n",
      "Message('control_change', channel=0, control=64, value=0, time=20)\n",
      "Message('note_on', channel=0, note=66, velocity=0, time=23)\n",
      "Message('note_on', channel=0, note=52, velocity=82, time=43)\n",
      "Message('note_on', channel=0, note=50, velocity=79, time=7)\n",
      "Message('note_on', channel=0, note=67, velocity=81, time=9)\n",
      "Message('note_on', channel=0, note=74, velocity=0, time=9)\n",
      "Message('note_on', channel=0, note=69, velocity=81, time=122)\n",
      "Message('note_on', channel=0, note=67, velocity=0, time=6)\n",
      "Message('note_on', channel=0, note=71, velocity=79, time=122)\n",
      "Message('note_on', channel=0, note=69, velocity=0, time=13)\n",
      "Message('note_on', channel=0, note=69, velocity=78, time=120)\n",
      "Message('note_on', channel=0, note=49, velocity=71, time=8)\n",
      "Message('note_on', channel=0, note=71, velocity=0, time=2)\n",
      "Message('note_on', channel=0, note=50, velocity=0, time=8)\n",
      "Message('note_on', channel=0, note=71, velocity=76, time=102)\n",
      "Message('control_change', channel=0, control=64, value=27, time=8)\n",
      "Message('note_on', channel=0, note=69, velocity=0, time=2)\n",
      "Message('control_change', channel=0, control=64, value=49, time=16)\n",
      "Message('control_change', channel=0, control=64, value=61, time=18)\n",
      "Message('note_on', channel=0, note=49, velocity=0, time=0)\n",
      "Message('control_change', channel=0, control=64, value=66, time=20)\n",
      "Message('note_on', channel=0, note=67, velocity=75, time=58)\n",
      "Message('control_change', channel=0, control=64, value=67, time=17)\n",
      "Message('control_change', channel=0, control=64, value=69, time=56)\n",
      "Message('note_on', channel=0, note=71, velocity=0, time=5)\n",
      "Message('control_change', channel=0, control=64, value=72, time=15)\n",
      "Message('note_on', channel=0, note=67, velocity=0, time=6)\n",
      "Message('control_change', channel=0, control=64, value=78, time=14)\n",
      "Message('note_on', channel=0, note=50, velocity=83, time=9)\n",
      "Message('control_change', channel=0, control=64, value=87, time=9)\n",
      "Message('note_on', channel=0, note=66, velocity=83, time=2)\n",
      "Message('note_on', channel=0, note=52, velocity=0, time=5)\n",
      "Message('control_change', channel=0, control=64, value=91, time=10)\n",
      "Message('control_change', channel=0, control=64, value=77, time=20)\n",
      "Message('control_change', channel=0, control=64, value=0, time=18)\n",
      "Message('note_on', channel=0, note=66, velocity=0, time=23)\n",
      "Message('note_on', channel=0, note=69, velocity=78, time=54)\n",
      "Message('note_on', channel=0, note=69, velocity=0, time=86)\n",
      "Message('note_on', channel=0, note=67, velocity=83, time=52)\n",
      "Message('note_on', channel=0, note=52, velocity=82, time=7)\n",
      "Message('note_on', channel=0, note=50, velocity=0, time=18)\n",
      "Message('note_on', channel=0, note=67, velocity=0, time=66)\n",
      "Message('note_on', channel=0, note=54, velocity=80, time=35)\n",
      "Message('note_on', channel=0, note=69, velocity=85, time=12)\n",
      "Message('note_on', channel=0, note=52, velocity=0, time=8)\n",
      "Message('note_on', channel=0, note=69, velocity=0, time=105)\n",
      "Message('note_on', channel=0, note=73, velocity=82, time=10)\n",
      "Message('note_on', channel=0, note=73, velocity=0, time=102)\n",
      "Message('note_on', channel=0, note=71, velocity=86, time=26)\n",
      "Message('note_on', channel=0, note=55, velocity=85, time=9)\n",
      "Message('note_on', channel=0, note=54, velocity=0, time=42)\n",
      "Message('note_on', channel=0, note=55, velocity=0, time=46)\n",
      "Message('note_on', channel=0, note=57, velocity=82, time=39)\n",
      "Message('note_on', channel=0, note=73, velocity=88, time=3)\n",
      "Message('note_on', channel=0, note=71, velocity=0, time=13)\n",
      "Message('note_on', channel=0, note=61, velocity=87, time=115)\n",
      "Message('note_on', channel=0, note=76, velocity=87, time=4)\n",
      "Message('note_on', channel=0, note=73, velocity=0, time=2)\n",
      "Message('note_on', channel=0, note=57, velocity=0, time=5)\n",
      "Message('note_on', channel=0, note=76, velocity=0, time=61)\n",
      "Message('note_on', channel=0, note=61, velocity=0, time=10)\n",
      "Message('note_on', channel=0, note=57, velocity=86, time=34)\n",
      "Message('note_on', channel=0, note=79, velocity=89, time=13)\n",
      "Message('note_on', channel=0, note=79, velocity=0, time=56)\n",
      "Message('note_on', channel=0, note=79, velocity=94, time=76)\n",
      "Message('note_on', channel=0, note=52, velocity=77, time=2)\n",
      "Message('note_on', channel=0, note=57, velocity=0, time=29)\n",
      "Message('control_change', channel=0, control=64, value=61, time=59)\n",
      "Message('control_change', channel=0, control=64, value=68, time=16)\n",
      "Message('control_change', channel=0, control=64, value=63, time=16)\n",
      "Message('note_on', channel=0, note=52, velocity=0, time=6)\n",
      "Message('control_change', channel=0, control=64, value=60, time=14)\n",
      "Message('note_on', channel=0, note=57, velocity=75, time=5)\n",
      "Message('note_on', channel=0, note=76, velocity=81, time=3)\n",
      "Message('note_on', channel=0, note=79, velocity=0, time=26)\n",
      "Message('control_change', channel=0, control=64, value=61, time=2)\n",
      "Message('control_change', channel=0, control=64, value=62, time=22)\n",
      "Message('note_on', channel=0, note=57, velocity=0, time=54)\n",
      "Message('note_on', channel=0, note=52, velocity=79, time=12)\n",
      "Message('control_change', channel=0, control=64, value=64, time=7)\n",
      "Message('note_on', channel=0, note=73, velocity=88, time=7)\n",
      "Message('control_change', channel=0, control=64, value=65, time=14)\n",
      "Message('note_on', channel=0, note=76, velocity=0, time=3)\n",
      "Message('control_change', channel=0, control=64, value=66, time=16)\n",
      "Message('control_change', channel=0, control=64, value=64, time=55)\n",
      "Message('control_change', channel=0, control=64, value=50, time=19)\n",
      "Message('note_on', channel=0, note=49, velocity=80, time=12)\n",
      "Message('note_on', channel=0, note=73, velocity=0, time=3)\n",
      "Message('note_on', channel=0, note=69, velocity=88, time=1)\n",
      "Message('control_change', channel=0, control=64, value=0, time=3)\n",
      "Message('note_on', channel=0, note=52, velocity=0, time=10)\n",
      "Message('note_on', channel=0, note=69, velocity=0, time=65)\n",
      "Message('control_change', channel=0, control=64, value=20, time=20)\n",
      "Message('note_on', channel=0, note=52, velocity=79, time=27)\n",
      "Message('note_on', channel=0, note=73, velocity=89, time=1)\n",
      "Message('control_change', channel=0, control=64, value=0, time=9)\n",
      "Message('note_on', channel=0, note=49, velocity=0, time=5)\n",
      "Message('control_change', channel=0, control=64, value=18, time=52)\n",
      "Message('control_change', channel=0, control=64, value=28, time=18)\n",
      "Message('control_change', channel=0, control=64, value=33, time=19)\n",
      "Message('note_on', channel=0, note=76, velocity=87, time=20)\n",
      "Message('note_on', channel=0, note=49, velocity=83, time=3)\n",
      "Message('note_on', channel=0, note=52, velocity=0, time=16)\n",
      "Message('note_on', channel=0, note=73, velocity=0, time=5)\n",
      "Message('control_change', channel=0, control=64, value=39, time=53)\n",
      "Message('control_change', channel=0, control=64, value=42, time=17)\n",
      "Message('note_on', channel=0, note=45, velocity=86, time=23)\n",
      "Message('note_on', channel=0, note=49, velocity=0, time=8)\n",
      "Message('note_on', channel=0, note=79, velocity=84, time=1)\n",
      "Message('control_change', channel=0, control=64, value=35, time=5)\n",
      "Message('note_on', channel=0, note=76, velocity=0, time=7)\n",
      "Message('control_change', channel=0, control=64, value=0, time=14)\n",
      "Message('note_on', channel=0, note=78, velocity=70, time=81)\n",
      "Message('note_on', channel=0, note=47, velocity=86, time=9)\n",
      "Message('control_change', channel=0, control=64, value=18, time=2)\n",
      "Message('note_on', channel=0, note=79, velocity=0, time=5)\n",
      "Message('note_on', channel=0, note=45, velocity=0, time=11)\n",
      "Message('control_change', channel=0, control=64, value=13, time=4)\n",
      "Message('control_change', channel=0, control=64, value=0, time=19)\n",
      "Message('note_on', channel=0, note=76, velocity=79, time=111)\n",
      "Message('note_on', channel=0, note=49, velocity=87, time=1)\n",
      "Message('note_on', channel=0, note=78, velocity=0, time=14)\n",
      "Message('note_on', channel=0, note=47, velocity=0, time=8)\n",
      "Message('control_change', channel=0, control=67, value=50, time=12)\n",
      "Message('note_on', channel=0, note=49, velocity=0, time=34)\n",
      "Message('control_change', channel=0, control=67, value=46, time=23)\n",
      "Message('control_change', channel=0, control=64, value=43, time=19)\n",
      "Message('note_on', channel=0, note=78, velocity=86, time=5)\n",
      "Message('note_on', channel=0, note=50, velocity=92, time=8)\n",
      "Message('control_change', channel=0, control=64, value=60, time=5)\n",
      "Message('note_on', channel=0, note=76, velocity=0, time=2)\n",
      "Message('control_change', channel=0, control=64, value=56, time=18)\n",
      "Message('note_on', channel=0, note=50, velocity=0, time=3)\n",
      "Message('control_change', channel=0, control=64, value=48, time=16)\n",
      "Message('control_change', channel=0, control=64, value=20, time=20)\n",
      "Message('control_change', channel=0, control=64, value=0, time=18)\n",
      "Message('control_change', channel=0, control=67, value=50, time=20)\n",
      "Message('note_on', channel=0, note=76, velocity=73, time=36)\n",
      "Message('note_on', channel=0, note=78, velocity=0, time=4)\n",
      "Message('note_on', channel=0, note=74, velocity=77, time=107)\n",
      "Message('note_on', channel=0, note=76, velocity=0, time=1)\n",
      "Message('note_on', channel=0, note=55, velocity=88, time=6)\n",
      "Message('note_on', channel=0, note=71, velocity=69, time=5)\n",
      "Message('note_on', channel=0, note=72, velocity=44, time=21)\n",
      "Message('note_on', channel=0, note=74, velocity=0, time=1)\n",
      "Message('note_on', channel=0, note=71, velocity=0, time=9)\n",
      "Message('control_change', channel=0, control=67, value=45, time=17)\n",
      "Message('note_on', channel=0, note=55, velocity=0, time=1)\n",
      "Message('note_on', channel=0, note=72, velocity=0, time=12)\n",
      "Message('control_change', channel=0, control=67, value=40, time=25)\n",
      "Message('note_on', channel=0, note=69, velocity=90, time=27)\n",
      "Message('note_on', channel=0, note=57, velocity=86, time=8)\n",
      "Message('note_on', channel=0, note=74, velocity=87, time=0)\n",
      "Message('control_change', channel=0, control=64, value=55, time=1)\n",
      "Message('control_change', channel=0, control=64, value=77, time=19)\n",
      "Message('control_change', channel=0, control=67, value=44, time=2)\n",
      "Message('note_on', channel=0, note=57, velocity=0, time=5)\n",
      "Message('control_change', channel=0, control=64, value=80, time=13)\n",
      "Message('note_on', channel=0, note=69, velocity=0, time=9)\n",
      "Message('note_on', channel=0, note=76, velocity=81, time=76)\n",
      "Message('control_change', channel=0, control=64, value=78, time=8)\n",
      "Message('note_on', channel=0, note=74, velocity=0, time=6)\n",
      "Message('control_change', channel=0, control=64, value=74, time=16)\n",
      "Message('control_change', channel=0, control=64, value=68, time=16)\n",
      "Message('control_change', channel=0, control=64, value=64, time=20)\n",
      "Message('note_on', channel=0, note=76, velocity=0, time=50)\n",
      "Message('control_change', channel=0, control=64, value=60, time=5)\n",
      "Message('control_change', channel=0, control=67, value=48, time=1)\n",
      "Message('note_on', channel=0, note=45, velocity=79, time=18)\n",
      "Message('note_on', channel=0, note=67, velocity=82, time=0)\n",
      "Message('control_change', channel=0, control=64, value=40, time=1)\n",
      "Message('note_on', channel=0, note=73, velocity=80, time=2)\n",
      "Message('control_change', channel=0, control=64, value=0, time=18)\n",
      "Message('note_on', channel=0, note=45, velocity=0, time=53)\n",
      "Message('note_on', channel=0, note=73, velocity=0, time=12)\n",
      "Message('note_on', channel=0, note=67, velocity=0, time=20)\n",
      "Message('note_on', channel=0, note=38, velocity=80, time=35)\n",
      "Message('note_on', channel=0, note=74, velocity=88, time=14)\n",
      "Message('note_on', channel=0, note=69, velocity=82, time=125)\n",
      "Message('note_on', channel=0, note=42, velocity=77, time=4)\n",
      "Message('note_on', channel=0, note=69, velocity=0, time=43)\n",
      "Message('note_on', channel=0, note=42, velocity=0, time=54)\n",
      "Message('note_on', channel=0, note=45, velocity=80, time=38)\n",
      "Message('note_on', channel=0, note=66, velocity=79, time=3)\n",
      "Message('note_on', channel=0, note=66, velocity=0, time=28)\n",
      "Message('control_change', channel=0, control=64, value=50, time=57)\n",
      "Message('note_on', channel=0, note=45, velocity=0, time=10)\n",
      "Message('control_change', channel=0, control=64, value=62, time=5)\n",
      "Message('note_on', channel=0, note=38, velocity=0, time=5)\n",
      "Message('control_change', channel=0, control=64, value=63, time=16)\n",
      "Message('note_on', channel=0, note=50, velocity=83, time=16)\n",
      "Message('control_change', channel=0, control=64, value=69, time=3)\n",
      "Message('control_change', channel=0, control=67, value=52, time=1)\n",
      "Message('note_on', channel=0, note=62, velocity=81, time=4)\n",
      "Message('control_change', channel=0, control=64, value=82, time=16)\n",
      "Message('control_change', channel=0, control=67, value=61, time=2)\n",
      "Message('note_on', channel=0, note=74, velocity=0, time=0)\n",
      "Message('note_on', channel=0, note=50, velocity=0, time=5)\n",
      "Message('note_on', channel=0, note=62, velocity=0, time=8)\n",
      "Message('control_change', channel=0, control=64, value=99, time=5)\n",
      "Message('control_change', channel=0, control=67, value=74, time=3)\n",
      "Message('control_change', channel=0, control=64, value=115, time=15)\n",
      "Message('control_change', channel=0, control=67, value=84, time=1)\n",
      "Message('control_change', channel=0, control=64, value=127, time=17)\n",
      "Message('control_change', channel=0, control=67, value=91, time=2)\n",
      "Message('control_change', channel=0, control=67, value=98, time=20)\n",
      "Message('control_change', channel=0, control=67, value=102, time=18)\n",
      "Message('control_change', channel=0, control=67, value=107, time=38)\n",
      "Message('control_change', channel=0, control=64, value=109, time=151)\n",
      "Message('control_change', channel=0, control=64, value=93, time=20)\n",
      "Message('note_on', channel=0, note=74, velocity=71, time=8)\n",
      "Message('control_change', channel=0, control=64, value=79, time=13)\n",
      "Message('control_change', channel=0, control=64, value=65, time=15)\n",
      "Message('control_change', channel=0, control=64, value=50, time=20)\n",
      "Message('control_change', channel=0, control=64, value=34, time=18)\n",
      "Message('control_change', channel=0, control=64, value=18, time=21)\n",
      "Message('control_change', channel=0, control=64, value=0, time=16)\n",
      "Message('note_on', channel=0, note=79, velocity=76, time=18)\n",
      "Message('note_on', channel=0, note=74, velocity=0, time=9)\n",
      "Message('note_on', channel=0, note=79, velocity=0, time=117)\n",
      "Message('note_on', channel=0, note=83, velocity=64, time=31)\n",
      "Message('note_on', channel=0, note=83, velocity=0, time=106)\n",
      "Message('note_on', channel=0, note=78, velocity=69, time=11)\n",
      "Message('note_on', channel=0, note=79, velocity=72, time=126)\n",
      "Message('note_on', channel=0, note=78, velocity=0, time=21)\n",
      "Message('note_on', channel=0, note=79, velocity=0, time=75)\n",
      "Message('note_on', channel=0, note=83, velocity=66, time=43)\n",
      "Message('note_on', channel=0, note=83, velocity=0, time=107)\n",
      "Message('note_on', channel=0, note=74, velocity=68, time=9)\n",
      "Message('note_on', channel=0, note=79, velocity=74, time=125)\n",
      "Message('note_on', channel=0, note=74, velocity=0, time=5)\n",
      "Message('note_on', channel=0, note=83, velocity=71, time=126)\n",
      "Message('note_on', channel=0, note=79, velocity=0, time=2)\n",
      "Message('control_change', channel=0, control=67, value=103, time=30)\n",
      "Message('control_change', channel=0, control=67, value=99, time=38)\n",
      "Message('control_change', channel=0, control=67, value=94, time=52)\n",
      "Message('note_on', channel=0, note=78, velocity=79, time=15)\n",
      "Message('note_on', channel=0, note=83, velocity=0, time=1)\n",
      "Message('control_change', channel=0, control=67, value=90, time=22)\n",
      "Message('control_change', channel=0, control=67, value=82, time=37)\n",
      "Message('note_on', channel=0, note=78, velocity=0, time=12)\n",
      "Message('control_change', channel=0, control=67, value=76, time=7)\n",
      "Message('control_change', channel=0, control=67, value=72, time=19)\n",
      "Message('note_on', channel=0, note=79, velocity=78, time=24)\n",
      "Message('control_change', channel=0, control=67, value=67, time=30)\n",
      "Message('control_change', channel=0, control=67, value=60, time=39)\n",
      "Message('note_on', channel=0, note=79, velocity=0, time=36)\n",
      "Message('control_change', channel=0, control=67, value=56, time=2)\n",
      "Message('note_on', channel=0, note=83, velocity=77, time=26)\n",
      "Message('note_on', channel=0, note=83, velocity=0, time=82)\n",
      "Message('note_on', channel=0, note=74, velocity=79, time=33)\n",
      "Message('note_on', channel=0, note=74, velocity=0, time=91)\n",
      "Message('note_on', channel=0, note=76, velocity=79, time=46)\n",
      "Message('note_on', channel=0, note=72, velocity=76, time=110)\n",
      "Message('note_on', channel=0, note=76, velocity=0, time=22)\n",
      "Message('note_on', channel=0, note=72, velocity=0, time=61)\n",
      "Message('note_on', channel=0, note=67, velocity=77, time=52)\n",
      "Message('note_on', channel=0, note=67, velocity=0, time=60)\n",
      "Message('control_change', channel=0, control=64, value=37, time=78)\n",
      "Message('note_on', channel=0, note=79, velocity=76, time=12)\n",
      "Message('control_change', channel=0, control=64, value=57, time=6)\n",
      "Message('control_change', channel=0, control=64, value=67, time=36)\n",
      "Message('control_change', channel=0, control=64, value=75, time=19)\n",
      "Message('control_change', channel=0, control=64, value=83, time=18)\n",
      "Message('control_change', channel=0, control=64, value=91, time=22)\n",
      "Message('control_change', channel=0, control=64, value=100, time=17)\n",
      "Message('control_change', channel=0, control=64, value=106, time=18)\n",
      "Message('control_change', channel=0, control=67, value=60, time=57)\n",
      "Message('control_change', channel=0, control=64, value=97, time=94)\n",
      "Message('control_change', channel=0, control=64, value=82, time=19)\n",
      "Message('note_on', channel=0, note=79, velocity=0, time=3)\n",
      "Message('note_on', channel=0, note=72, velocity=60, time=4)\n",
      "Message('control_change', channel=0, control=64, value=67, time=12)\n",
      "Message('control_change', channel=0, control=64, value=55, time=20)\n",
      "Message('control_change', channel=0, control=64, value=49, time=16)\n",
      "Message('control_change', channel=0, control=64, value=43, time=20)\n",
      "Message('control_change', channel=0, control=64, value=33, time=19)\n",
      "Message('note_on', channel=0, note=72, velocity=0, time=14)\n",
      "Message('note_on', channel=0, note=74, velocity=77, time=16)\n",
      "Message('control_change', channel=0, control=64, value=26, time=65)\n",
      "Message('control_change', channel=0, control=64, value=20, time=37)\n",
      "Message('note_on', channel=0, note=71, velocity=75, time=23)\n",
      "Message('note_on', channel=0, note=74, velocity=0, time=2)\n",
      "Message('note_on', channel=0, note=71, velocity=0, time=109)\n",
      "Message('note_on', channel=0, note=67, velocity=75, time=20)\n",
      "Message('control_change', channel=0, control=64, value=15, time=16)\n",
      "Message('control_change', channel=0, control=64, value=0, time=18)\n",
      "Message('note_on', channel=0, note=67, velocity=0, time=51)\n",
      "Message('note_on', channel=0, note=79, velocity=74, time=61)\n",
      "Message('control_change', channel=0, control=64, value=18, time=57)\n",
      "Message('control_change', channel=0, control=64, value=52, time=17)\n",
      "Message('control_change', channel=0, control=64, value=68, time=20)\n",
      "Message('control_change', channel=0, control=64, value=77, time=17)\n",
      "Message('control_change', channel=0, control=64, value=82, time=21)\n",
      "Message('control_change', channel=0, control=64, value=80, time=167)\n",
      "Message('note_on', channel=0, note=71, velocity=65, time=9)\n",
      "Message('control_change', channel=0, control=64, value=78, time=9)\n",
      "Message('control_change', channel=0, control=64, value=74, time=18)\n",
      "Message('note_on', channel=0, note=79, velocity=0, time=16)\n",
      "Message('control_change', channel=0, control=64, value=70, time=1)\n",
      "Message('control_change', channel=0, control=64, value=68, time=21)\n",
      "Message('control_change', channel=0, control=64, value=67, time=20)\n",
      "Message('control_change', channel=0, control=64, value=65, time=19)\n",
      "Message('control_change', channel=0, control=64, value=60, time=19)\n",
      "Message('note_on', channel=0, note=72, velocity=70, time=6)\n",
      "Message('note_on', channel=0, note=71, velocity=0, time=2)\n",
      "Message('control_change', channel=0, control=64, value=55, time=10)\n",
      "Message('control_change', channel=0, control=64, value=50, time=20)\n",
      "Message('control_change', channel=0, control=64, value=46, time=16)\n",
      "Message('control_change', channel=0, control=64, value=43, time=75)\n",
      "Message('note_on', channel=0, note=74, velocity=76, time=1)\n",
      "Message('note_on', channel=0, note=72, velocity=0, time=28)\n",
      "Message('control_change', channel=0, control=64, value=35, time=8)\n",
      "Message('note_on', channel=0, note=76, velocity=77, time=95)\n",
      "Message('note_on', channel=0, note=74, velocity=0, time=19)\n",
      "Message('control_change', channel=0, control=64, value=31, time=40)\n",
      "Message('note_on', channel=0, note=74, velocity=76, time=80)\n",
      "Message('note_on', channel=0, note=76, velocity=0, time=7)\n",
      "Message('note_on', channel=0, note=76, velocity=78, time=116)\n",
      "Message('note_on', channel=0, note=74, velocity=0, time=4)\n",
      "Message('control_change', channel=0, control=64, value=23, time=113)\n",
      "Message('note_on', channel=0, note=76, velocity=0, time=15)\n",
      "Message('note_on', channel=0, note=72, velocity=77, time=1)\n",
      "Message('control_change', channel=0, control=64, value=0, time=6)\n",
      "Message('note_on', channel=0, note=72, velocity=0, time=116)\n",
      "Message('control_change', channel=0, control=64, value=15, time=9)\n",
      "Message('note_on', channel=0, note=71, velocity=79, time=22)\n",
      "Message('note_on', channel=0, note=71, velocity=0, time=96)\n",
      "Message('note_on', channel=0, note=74, velocity=79, time=23)\n",
      "Message('control_change', channel=0, control=67, value=64, time=29)\n",
      "Message('control_change', channel=0, control=64, value=22, time=20)\n",
      "Message('control_change', channel=0, control=64, value=28, time=37)\n",
      "Message('control_change', channel=0, control=67, value=68, time=38)\n",
      "Message('note_on', channel=0, note=79, velocity=75, time=5)\n",
      "Message('note_on', channel=0, note=74, velocity=0, time=5)\n",
      "Message('control_change', channel=0, control=64, value=0, time=9)\n",
      "Message('control_change', channel=0, control=64, value=22, time=75)\n",
      "Message('note_on', channel=0, note=79, velocity=0, time=15)\n",
      "Message('control_change', channel=0, control=64, value=60, time=3)\n",
      "Message('control_change', channel=0, control=64, value=79, time=20)\n",
      "Message('note_on', channel=0, note=83, velocity=80, time=1)\n",
      "Message('control_change', channel=0, control=64, value=95, time=19)\n",
      "Message('control_change', channel=0, control=64, value=108, time=19)\n",
      "Message('control_change', channel=0, control=64, value=113, time=19)\n",
      "Message('note_on', channel=0, note=83, velocity=0, time=43)\n",
      "Message('note_on', channel=0, note=81, velocity=80, time=15)\n",
      "Message('note_on', channel=0, note=81, velocity=0, time=74)\n",
      "Message('control_change', channel=0, control=64, value=117, time=56)\n",
      "Message('control_change', channel=0, control=64, value=122, time=20)\n",
      "Message('control_change', channel=0, control=64, value=127, time=17)\n",
      "Message('note_on', channel=0, note=67, velocity=77, time=3)\n",
      "Message('control_change', channel=0, control=64, value=105, time=35)\n",
      "Message('control_change', channel=0, control=64, value=67, time=20)\n",
      "Message('control_change', channel=0, control=64, value=0, time=19)\n",
      "Message('note_on', channel=0, note=67, velocity=0, time=6)\n",
      "Message('note_on', channel=0, note=81, velocity=81, time=11)\n",
      "Message('note_on', channel=0, note=74, velocity=72, time=10)\n",
      "Message('note_on', channel=0, note=81, velocity=0, time=29)\n",
      "Message('note_on', channel=0, note=74, velocity=0, time=72)\n",
      "Message('note_on', channel=0, note=78, velocity=59, time=62)\n",
      "Message('note_on', channel=0, note=78, velocity=0, time=109)\n",
      "Message('note_on', channel=0, note=73, velocity=61, time=19)\n",
      "Message('note_on', channel=0, note=81, velocity=69, time=6)\n",
      "Message('note_on', channel=0, note=81, velocity=0, time=39)\n",
      "Message('note_on', channel=0, note=73, velocity=0, time=83)\n",
      "Message('note_on', channel=0, note=74, velocity=69, time=0)\n",
      "Message('note_on', channel=0, note=81, velocity=70, time=15)\n",
      "Message('note_on', channel=0, note=81, velocity=0, time=30)\n",
      "Message('note_on', channel=0, note=74, velocity=0, time=41)\n",
      "Message('note_on', channel=0, note=78, velocity=59, time=35)\n",
      "Message('note_on', channel=0, note=78, velocity=0, time=95)\n",
      "Message('note_on', channel=0, note=69, velocity=76, time=47)\n",
      "Message('note_on', channel=0, note=81, velocity=77, time=7)\n",
      "Message('note_on', channel=0, note=81, velocity=0, time=49)\n",
      "Message('note_on', channel=0, note=69, velocity=0, time=37)\n",
      "Message('note_on', channel=0, note=74, velocity=76, time=37)\n",
      "Message('note_on', channel=0, note=81, velocity=70, time=22)\n",
      "Message('note_on', channel=0, note=81, velocity=0, time=29)\n",
      "Message('note_on', channel=0, note=74, velocity=0, time=31)\n",
      "Message('note_on', channel=0, note=78, velocity=64, time=49)\n",
      "Message('note_on', channel=0, note=78, velocity=0, time=101)\n",
      "Message('note_on', channel=0, note=73, velocity=64, time=52)\n",
      "Message('note_on', channel=0, note=81, velocity=80, time=8)\n",
      "Message('note_on', channel=0, note=81, velocity=0, time=50)\n",
      "Message('note_on', channel=0, note=73, velocity=0, time=62)\n",
      "Message('note_on', channel=0, note=74, velocity=70, time=2)\n",
      "Message('note_on', channel=0, note=81, velocity=78, time=20)\n",
      "Message('control_change', channel=0, control=64, value=30, time=8)\n",
      "Message('control_change', channel=0, control=64, value=56, time=20)\n",
      "Message('note_on', channel=0, note=81, velocity=0, time=7)\n",
      "Message('note_on', channel=0, note=74, velocity=0, time=28)\n",
      "Message('note_on', channel=0, note=78, velocity=62, time=44)\n",
      "Message('note_on', channel=0, note=78, velocity=0, time=51)\n",
      "Message('control_change', channel=0, control=64, value=51, time=77)\n",
      "Message('note_on', channel=0, note=81, velocity=76, time=11)\n",
      "Message('control_change', channel=0, control=64, value=33, time=9)\n",
      "Message('note_on', channel=0, note=69, velocity=66, time=2)\n",
      "Message('control_change', channel=0, control=64, value=0, time=17)\n",
      "Message('note_on', channel=0, note=81, velocity=0, time=19)\n",
      "Message('note_on', channel=0, note=69, velocity=0, time=9)\n",
      "Message('control_change', channel=0, control=64, value=9, time=66)\n",
      "Message('note_on', channel=0, note=71, velocity=71, time=13)\n",
      "Message('note_on', channel=0, note=74, velocity=69, time=0)\n",
      "Message('control_change', channel=0, control=64, value=28, time=5)\n",
      "Message('control_change', channel=0, control=64, value=37, time=20)\n",
      "Message('control_change', channel=0, control=64, value=43, time=20)\n",
      "Message('note_on', channel=0, note=74, velocity=0, time=10)\n",
      "Message('control_change', channel=0, control=64, value=46, time=5)\n",
      "Message('note_on', channel=0, note=71, velocity=0, time=15)\n",
      "Message('note_on', channel=0, note=67, velocity=74, time=38)\n",
      "Message('note_on', channel=0, note=79, velocity=67, time=7)\n",
      "Message('note_on', channel=0, note=79, velocity=0, time=48)\n",
      "Message('note_on', channel=0, note=67, velocity=0, time=23)\n",
      "Message('control_change', channel=0, control=64, value=36, time=41)\n",
      "Message('note_on', channel=0, note=62, velocity=79, time=7)\n",
      "Message('note_on', channel=0, note=83, velocity=72, time=6)\n",
      "Message('control_change', channel=0, control=64, value=0, time=6)\n",
      "Message('note_on', channel=0, note=83, velocity=0, time=31)\n",
      "Message('note_on', channel=0, note=62, velocity=0, time=103)\n",
      "Message('note_on', channel=0, note=74, velocity=83, time=8)\n",
      "Message('note_on', channel=0, note=83, velocity=75, time=4)\n",
      "Message('control_change', channel=0, control=64, value=49, time=2)\n",
      "Message('control_change', channel=0, control=64, value=68, time=20)\n",
      "Message('control_change', channel=0, control=64, value=80, time=18)\n",
      "Message('control_change', channel=0, control=64, value=92, time=20)\n",
      "Message('note_on', channel=0, note=74, velocity=0, time=3)\n",
      "Message('control_change', channel=0, control=64, value=104, time=15)\n",
      "Message('note_on', channel=0, note=83, velocity=0, time=13)\n",
      "Message('note_on', channel=0, note=83, velocity=45, time=0)\n",
      "Message('control_change', channel=0, control=64, value=113, time=4)\n",
      "Message('control_change', channel=0, control=64, value=118, time=21)\n",
      "Message('note_on', channel=0, note=79, velocity=64, time=9)\n",
      "Message('note_on', channel=0, note=83, velocity=0, time=16)\n",
      "Message('note_on', channel=0, note=79, velocity=0, time=44)\n",
      "Message('note_on', channel=0, note=67, velocity=77, time=86)\n",
      "Message('note_on', channel=0, note=74, velocity=74, time=11)\n",
      "Message('control_change', channel=0, control=64, value=110, time=3)\n",
      "Message('control_change', channel=0, control=64, value=87, time=19)\n",
      "Message('note_on', channel=0, note=74, velocity=0, time=17)\n",
      "Message('control_change', channel=0, control=64, value=43, time=3)\n",
      "Message('control_change', channel=0, control=64, value=0, time=17)\n",
      "Message('note_on', channel=0, note=67, velocity=0, time=5)\n",
      "Message('note_on', channel=0, note=69, velocity=80, time=56)\n",
      "Message('note_on', channel=0, note=74, velocity=77, time=11)\n",
      "Message('note_on', channel=0, note=74, velocity=0, time=69)\n",
      "Message('note_on', channel=0, note=66, velocity=79, time=42)\n",
      "Message('note_on', channel=0, note=69, velocity=0, time=4)\n",
      "Message('note_on', channel=0, note=78, velocity=74, time=12)\n",
      "Message('note_on', channel=0, note=78, velocity=0, time=66)\n",
      "Message('note_on', channel=0, note=66, velocity=0, time=35)\n",
      "Message('note_on', channel=0, note=62, velocity=80, time=3)\n",
      "Message('note_on', channel=0, note=81, velocity=73, time=23)\n",
      "Message('note_on', channel=0, note=81, velocity=0, time=40)\n",
      "Message('note_on', channel=0, note=62, velocity=0, time=67)\n",
      "Message('note_on', channel=0, note=74, velocity=82, time=13)\n",
      "Message('note_on', channel=0, note=81, velocity=80, time=6)\n",
      "Message('control_change', channel=0, control=64, value=28, time=1)\n",
      "Message('control_change', channel=0, control=64, value=60, time=20)\n",
      "Message('control_change', channel=0, control=64, value=74, time=19)\n",
      "Message('control_change', channel=0, control=64, value=86, time=19)\n",
      "Message('note_on', channel=0, note=74, velocity=0, time=7)\n",
      "Message('control_change', channel=0, control=64, value=96, time=8)\n",
      "Message('control_change', channel=0, control=64, value=104, time=22)\n",
      "Message('note_on', channel=0, note=81, velocity=0, time=7)\n",
      "Message('note_on', channel=0, note=81, velocity=48, time=0)\n",
      "Message('note_on', channel=0, note=78, velocity=76, time=18)\n",
      "Message('note_on', channel=0, note=81, velocity=0, time=56)\n",
      "Message('note_on', channel=0, note=78, velocity=0, time=45)\n",
      "Message('note_on', channel=0, note=66, velocity=73, time=51)\n",
      "Message('note_on', channel=0, note=74, velocity=84, time=9)\n",
      "Message('control_change', channel=0, control=64, value=95, time=55)\n",
      "Message('note_on', channel=0, note=74, velocity=0, time=1)\n",
      "Message('control_change', channel=0, control=64, value=73, time=18)\n",
      "Message('control_change', channel=0, control=64, value=0, time=19)\n",
      "Message('note_on', channel=0, note=66, velocity=0, time=10)\n",
      "Message('note_on', channel=0, note=67, velocity=71, time=15)\n",
      "Message('note_on', channel=0, note=74, velocity=84, time=12)\n",
      "Message('note_on', channel=0, note=67, velocity=0, time=112)\n",
      "Message('note_on', channel=0, note=69, velocity=72, time=8)\n",
      "Message('note_on', channel=0, note=69, velocity=0, time=115)\n",
      "Message('note_on', channel=0, note=71, velocity=63, time=31)\n",
      "Message('note_on', channel=0, note=71, velocity=0, time=115)\n",
      "Message('note_on', channel=0, note=74, velocity=0, time=5)\n",
      "Message('note_on', channel=0, note=69, velocity=72, time=11)\n",
      "Message('note_on', channel=0, note=73, velocity=78, time=9)\n",
      "Message('note_on', channel=0, note=69, velocity=0, time=80)\n",
      "Message('note_on', channel=0, note=71, velocity=67, time=51)\n",
      "Message('note_on', channel=0, note=71, velocity=0, time=114)\n",
      "Message('note_on', channel=0, note=67, velocity=65, time=7)\n",
      "Message('note_on', channel=0, note=73, velocity=0, time=132)\n",
      "Message('note_on', channel=0, note=74, velocity=79, time=8)\n",
      "Message('note_on', channel=0, note=66, velocity=66, time=12)\n",
      "Message('note_on', channel=0, note=67, velocity=0, time=1)\n",
      "Message('note_on', channel=0, note=69, velocity=72, time=114)\n",
      "Message('note_on', channel=0, note=66, velocity=0, time=49)\n",
      "Message('note_on', channel=0, note=69, velocity=0, time=79)\n",
      "Message('note_on', channel=0, note=72, velocity=72, time=12)\n",
      "Message('note_on', channel=0, note=74, velocity=0, time=6)\n",
      "Message('note_on', channel=0, note=72, velocity=0, time=22)\n",
      "Message('control_change', channel=0, control=64, value=57, time=36)\n",
      "Message('control_change', channel=0, control=64, value=69, time=19)\n",
      "Message('control_change', channel=0, control=64, value=75, time=19)\n",
      "Message('note_on', channel=0, note=78, velocity=82, time=8)\n",
      "Message('note_on', channel=0, note=76, velocity=82, time=2)\n",
      "Message('control_change', channel=0, control=64, value=79, time=6)\n",
      "Message('control_change', channel=0, control=67, value=72, time=1)\n",
      "Message('control_change', channel=0, control=64, value=85, time=20)\n",
      "Message('control_change', channel=0, control=64, value=93, time=18)\n",
      "Message('control_change', channel=0, control=64, value=104, time=21)\n",
      "Message('control_change', channel=0, control=64, value=113, time=18)\n",
      "Message('note_on', channel=0, note=76, velocity=0, time=1)\n",
      "Message('control_change', channel=0, control=64, value=118, time=19)\n",
      "Message('note_on', channel=0, note=74, velocity=69, time=12)\n",
      "Message('note_on', channel=0, note=74, velocity=0, time=106)\n",
      "Message('note_on', channel=0, note=78, velocity=0, time=5)\n",
      "Message('note_on', channel=0, note=62, velocity=80, time=18)\n",
      "Message('note_on', channel=0, note=72, velocity=76, time=2)\n",
      "Message('note_on', channel=0, note=72, velocity=0, time=71)\n",
      "Message('control_change', channel=0, control=64, value=125, time=51)\n",
      "Message('note_on', channel=0, note=62, velocity=0, time=4)\n",
      "Message('note_on', channel=0, note=67, velocity=74, time=9)\n",
      "Message('note_on', channel=0, note=79, velocity=82, time=7)\n",
      "Message('note_on', channel=0, note=71, velocity=73, time=5)\n",
      "Message('control_change', channel=0, control=64, value=105, time=11)\n",
      "Message('note_on', channel=0, note=71, velocity=0, time=10)\n",
      "Message('note_on', channel=0, note=79, velocity=0, time=4)\n",
      "Message('control_change', channel=0, control=64, value=61, time=6)\n",
      "Message('note_on', channel=0, note=67, velocity=0, time=9)\n",
      "Message('control_change', channel=0, control=64, value=0, time=8)\n",
      "Message('note_on', channel=0, note=71, velocity=70, time=72)\n",
      "Message('note_on', channel=0, note=81, velocity=82, time=152)\n",
      "Message('note_on', channel=0, note=66, velocity=62, time=3)\n",
      "Message('note_on', channel=0, note=71, velocity=0, time=1)\n",
      "Message('note_on', channel=0, note=74, velocity=73, time=3)\n",
      "Message('note_on', channel=0, note=74, velocity=0, time=31)\n",
      "Message('note_on', channel=0, note=81, velocity=0, time=14)\n",
      "Message('note_on', channel=0, note=67, velocity=68, time=83)\n",
      "Message('note_on', channel=0, note=83, velocity=82, time=7)\n",
      "Message('note_on', channel=0, note=74, velocity=77, time=7)\n",
      "Message('control_change', channel=0, control=64, value=19, time=5)\n",
      "Message('note_on', channel=0, note=66, velocity=0, time=0)\n",
      "Message('note_on', channel=0, note=83, velocity=0, time=9)\n",
      "Message('control_change', channel=0, control=64, value=0, time=7)\n",
      "Message('note_on', channel=0, note=74, velocity=0, time=5)\n",
      "Message('note_on', channel=0, note=67, velocity=0, time=37)\n",
      "Message('control_change', channel=0, control=67, value=76, time=15)\n",
      "Message('note_on', channel=0, note=71, velocity=59, time=36)\n",
      "Message('note_on', channel=0, note=84, velocity=86, time=132)\n",
      "Message('note_on', channel=0, note=62, velocity=65, time=7)\n",
      "Message('note_on', channel=0, note=74, velocity=74, time=7)\n",
      "Message('note_on', channel=0, note=74, velocity=0, time=29)\n",
      "Message('note_on', channel=0, note=71, velocity=0, time=2)\n",
      "Message('note_on', channel=0, note=84, velocity=0, time=8)\n",
      "Message('note_on', channel=0, note=67, velocity=71, time=75)\n",
      "Message('note_on', channel=0, note=62, velocity=0, time=6)\n",
      "Message('note_on', channel=0, note=83, velocity=86, time=5)\n",
      "Message('note_on', channel=0, note=74, velocity=82, time=3)\n",
      "Message('note_on', channel=0, note=74, velocity=0, time=30)\n",
      "Message('note_on', channel=0, note=83, velocity=0, time=1)\n",
      "Message('note_on', channel=0, note=67, velocity=0, time=15)\n",
      "Message('control_change', channel=0, control=64, value=45, time=1)\n",
      "Message('control_change', channel=0, control=64, value=0, time=20)\n",
      "Message('note_on', channel=0, note=71, velocity=61, time=60)\n",
      "Message('note_on', channel=0, note=71, velocity=0, time=84)\n",
      "Message('note_on', channel=0, note=74, velocity=81, time=53)\n",
      "Message('note_on', channel=0, note=81, velocity=81, time=8)\n",
      "Message('note_on', channel=0, note=66, velocity=63, time=5)\n",
      "Message('note_on', channel=0, note=81, velocity=0, time=46)\n",
      "Message('note_on', channel=0, note=74, velocity=0, time=2)\n",
      "Message('note_on', channel=0, note=66, velocity=0, time=55)\n",
      "Message('note_on', channel=0, note=67, velocity=69, time=13)\n",
      "Message('note_on', channel=0, note=79, velocity=86, time=6)\n",
      "Message('control_change', channel=0, control=64, value=56, time=42)\n",
      "Message('note_on', channel=0, note=67, velocity=0, time=0)\n",
      "Message('note_on', channel=0, note=74, velocity=64, time=12)\n",
      "Message('note_on', channel=0, note=79, velocity=0, time=1)\n",
      "Message('control_change', channel=0, control=64, value=73, time=5)\n",
      "Message('control_change', channel=0, control=64, value=79, time=21)\n",
      "Message('note_on', channel=0, note=71, velocity=60, time=34)\n",
      "Message('note_on', channel=0, note=74, velocity=0, time=58)\n",
      "Message('note_on', channel=0, note=79, velocity=50, time=2)\n",
      "Message('note_on', channel=0, note=71, velocity=0, time=8)\n",
      "Message('note_on', channel=0, note=71, velocity=60, time=56)\n",
      "Message('control_change', channel=0, control=64, value=76, time=8)\n",
      "Message('note_on', channel=0, note=62, velocity=72, time=7)\n",
      "Message('control_change', channel=0, control=64, value=69, time=15)\n",
      "Message('control_change', channel=0, control=64, value=62, time=17)\n",
      "Message('control_change', channel=0, control=64, value=58, time=21)\n",
      "Message('note_on', channel=0, note=62, velocity=0, time=2)\n",
      "Message('note_on', channel=0, note=71, velocity=0, time=6)\n",
      "Message('control_change', channel=0, control=64, value=56, time=10)\n",
      "Message('control_change', channel=0, control=64, value=48, time=19)\n",
      "Message('control_change', channel=0, control=64, value=34, time=19)\n",
      "Message('control_change', channel=0, control=64, value=29, time=20)\n",
      "Message('note_on', channel=0, note=64, velocity=73, time=9)\n",
      "Message('note_on', channel=0, note=67, velocity=70, time=13)\n",
      "Message('note_on', channel=0, note=67, velocity=0, time=56)\n",
      "Message('note_on', channel=0, note=64, velocity=0, time=4)\n",
      "Message('control_change', channel=0, control=64, value=0, time=10)\n",
      "Message('note_on', channel=0, note=60, velocity=75, time=24)\n",
      "Message('note_on', channel=0, note=72, velocity=79, time=17)\n",
      "Message('note_on', channel=0, note=72, velocity=0, time=42)\n",
      "Message('note_on', channel=0, note=60, velocity=0, time=36)\n",
      "Message('note_on', channel=0, note=55, velocity=79, time=30)\n",
      "Message('note_on', channel=0, note=76, velocity=80, time=9)\n",
      "Message('note_on', channel=0, note=76, velocity=0, time=57)\n",
      "Message('note_on', channel=0, note=55, velocity=0, time=46)\n",
      "Message('control_change', channel=0, control=64, value=44, time=4)\n",
      "Message('note_on', channel=0, note=67, velocity=82, time=17)\n",
      "Message('control_change', channel=0, control=64, value=69, time=2)\n",
      "Message('note_on', channel=0, note=76, velocity=76, time=6)\n",
      "Message('control_change', channel=0, control=64, value=79, time=14)\n",
      "Message('control_change', channel=0, control=64, value=86, time=33)\n",
      "Message('note_on', channel=0, note=67, velocity=0, time=18)\n",
      "Message('control_change', channel=0, control=64, value=92, time=1)\n",
      "Message('control_change', channel=0, control=64, value=96, time=38)\n",
      "Message('note_on', channel=0, note=72, velocity=74, time=37)\n",
      "Message('note_on', channel=0, note=76, velocity=0, time=47)\n",
      "Message('note_on', channel=0, note=72, velocity=0, time=25)\n",
      "Message('note_on', channel=0, note=60, velocity=78, time=48)\n",
      "Message('note_on', channel=0, note=67, velocity=84, time=14)\n",
      "Message('control_change', channel=0, control=64, value=91, time=18)\n",
      "Message('control_change', channel=0, control=64, value=72, time=20)\n",
      "Message('control_change', channel=0, control=64, value=0, time=18)\n",
      "Message('note_on', channel=0, note=60, velocity=0, time=1)\n",
      "Message('note_on', channel=0, note=67, velocity=0, time=1)\n",
      "Message('note_on', channel=0, note=62, velocity=73, time=58)\n",
      "Message('note_on', channel=0, note=67, velocity=80, time=12)\n",
      "Message('note_on', channel=0, note=67, velocity=0, time=65)\n",
      "Message('note_on', channel=0, note=62, velocity=0, time=36)\n",
      "Message('note_on', channel=0, note=59, velocity=72, time=5)\n",
      "Message('note_on', channel=0, note=71, velocity=82, time=4)\n",
      "Message('note_on', channel=0, note=71, velocity=0, time=54)\n",
      "Message('note_on', channel=0, note=59, velocity=0, time=24)\n",
      "Message('note_on', channel=0, note=55, velocity=77, time=47)\n",
      "Message('note_on', channel=0, note=74, velocity=82, time=4)\n",
      "Message('note_on', channel=0, note=74, velocity=0, time=55)\n",
      "Message('note_on', channel=0, note=55, velocity=0, time=58)\n",
      "Message('control_change', channel=0, control=64, value=25, time=7)\n",
      "Message('note_on', channel=0, note=67, velocity=77, time=16)\n",
      "Message('control_change', channel=0, control=64, value=58, time=3)\n",
      "Message('note_on', channel=0, note=74, velocity=80, time=0)\n",
      "Message('control_change', channel=0, control=64, value=72, time=19)\n",
      "Message('control_change', channel=0, control=64, value=85, time=21)\n",
      "Message('control_change', channel=0, control=64, value=98, time=17)\n",
      "Message('note_on', channel=0, note=67, velocity=0, time=0)\n",
      "Message('control_change', channel=0, control=64, value=109, time=20)\n",
      "Message('control_change', channel=0, control=64, value=114, time=20)\n",
      "Message('note_on', channel=0, note=74, velocity=0, time=28)\n",
      "Message('note_on', channel=0, note=71, velocity=80, time=2)\n",
      "Message('note_on', channel=0, note=71, velocity=0, time=111)\n",
      "Message('note_on', channel=0, note=59, velocity=71, time=34)\n",
      "Message('note_on', channel=0, note=67, velocity=80, time=7)\n",
      "Message('control_change', channel=0, control=64, value=93, time=21)\n",
      "Message('control_change', channel=0, control=64, value=60, time=19)\n",
      "Message('control_change', channel=0, control=64, value=0, time=20)\n",
      "Message('note_on', channel=0, note=67, velocity=0, time=34)\n",
      "Message('note_on', channel=0, note=59, velocity=0, time=16)\n",
      "Message('note_on', channel=0, note=60, velocity=66, time=5)\n",
      "Message('note_on', channel=0, note=69, velocity=80, time=12)\n",
      "Message('note_on', channel=0, note=62, velocity=69, time=125)\n",
      "Message('note_on', channel=0, note=60, velocity=0, time=7)\n",
      "Message('note_on', channel=0, note=62, velocity=0, time=96)\n",
      "Message('note_on', channel=0, note=64, velocity=64, time=34)\n",
      "Message('note_on', channel=0, note=64, velocity=0, time=90)\n",
      "Message('note_on', channel=0, note=79, velocity=0, time=3)\n",
      "Message('note_on', channel=0, note=62, velocity=67, time=25)\n",
      "Message('note_on', channel=0, note=78, velocity=70, time=10)\n",
      "Message('control_change', channel=0, control=64, value=33, time=50)\n",
      "Message('note_on', channel=0, note=62, velocity=0, time=16)\n",
      "Message('control_change', channel=0, control=64, value=58, time=4)\n",
      "Message('control_change', channel=0, control=64, value=68, time=18)\n",
      "Message('note_on', channel=0, note=69, velocity=0, time=4)\n",
      "Message('control_change', channel=0, control=64, value=72, time=17)\n",
      "Message('note_on', channel=0, note=64, velocity=55, time=17)\n",
      "Message('note_on', channel=0, note=64, velocity=0, time=103)\n",
      "Message('note_on', channel=0, note=60, velocity=62, time=16)\n",
      "Message('control_change', channel=0, control=64, value=69, time=141)\n",
      "Message('note_on', channel=0, note=60, velocity=0, time=10)\n",
      "Message('note_on', channel=0, note=59, velocity=68, time=5)\n",
      "Message('control_change', channel=0, control=64, value=58, time=3)\n",
      "Message('control_change', channel=0, control=64, value=0, time=20)\n",
      "Message('note_on', channel=0, note=79, velocity=70, time=5)\n",
      "Message('note_on', channel=0, note=67, velocity=69, time=2)\n",
      "Message('note_on', channel=0, note=78, velocity=0, time=37)\n",
      "Message('note_on', channel=0, note=59, velocity=0, time=6)\n",
      "Message('note_on', channel=0, note=62, velocity=65, time=64)\n",
      "Message('note_on', channel=0, note=57, velocity=65, time=136)\n",
      "Message('note_on', channel=0, note=62, velocity=0, time=5)\n",
      "Message('note_on', channel=0, note=57, velocity=0, time=116)\n",
      "Message('note_on', channel=0, note=59, velocity=64, time=2)\n",
      "Message('note_on', channel=0, note=59, velocity=0, time=91)\n",
      "Message('note_on', channel=0, note=62, velocity=60, time=45)\n",
      "Message('note_on', channel=0, note=67, velocity=0, time=70)\n",
      "Message('note_on', channel=0, note=62, velocity=0, time=2)\n",
      "Message('note_on', channel=0, note=79, velocity=0, time=51)\n",
      "Message('note_on', channel=0, note=55, velocity=59, time=17)\n",
      "Message('note_on', channel=0, note=74, velocity=66, time=1)\n",
      "Message('note_on', channel=0, note=76, velocity=71, time=135)\n",
      "Message('note_on', channel=0, note=60, velocity=66, time=2)\n",
      "Message('note_on', channel=0, note=55, velocity=0, time=6)\n",
      "Message('note_on', channel=0, note=74, velocity=0, time=12)\n",
      "Message('note_on', channel=0, note=60, velocity=0, time=19)\n",
      "Message('note_on', channel=0, note=76, velocity=0, time=75)\n",
      "Message('note_on', channel=0, note=79, velocity=68, time=16)\n",
      "Message('note_on', channel=0, note=79, velocity=0, time=127)\n",
      "Message('note_on', channel=0, note=59, velocity=71, time=7)\n",
      "Message('note_on', channel=0, note=74, velocity=73, time=1)\n",
      "Message('note_on', channel=0, note=76, velocity=77, time=137)\n",
      "Message('note_on', channel=0, note=59, velocity=0, time=2)\n",
      "Message('note_on', channel=0, note=60, velocity=72, time=1)\n",
      "Message('note_on', channel=0, note=74, velocity=0, time=15)\n",
      "Message('note_on', channel=0, note=60, velocity=0, time=16)\n",
      "Message('control_change', channel=0, control=64, value=53, time=23)\n",
      "Message('control_change', channel=0, control=64, value=62, time=18)\n",
      "Message('control_change', channel=0, control=64, value=61, time=20)\n",
      "Message('control_change', channel=0, control=64, value=59, time=19)\n",
      "Message('note_on', channel=0, note=79, velocity=72, time=9)\n",
      "Message('note_on', channel=0, note=76, velocity=0, time=1)\n",
      "Message('control_change', channel=0, control=64, value=62, time=46)\n",
      "Message('control_change', channel=0, control=64, value=63, time=18)\n",
      "Message('control_change', channel=0, control=64, value=61, time=20)\n",
      "Message('control_change', channel=0, control=64, value=56, time=20)\n",
      "Message('control_change', channel=0, control=64, value=49, time=18)\n",
      "Message('note_on', channel=0, note=71, velocity=70, time=16)\n",
      "Message('control_change', channel=0, control=64, value=42, time=2)\n",
      "Message('note_on', channel=0, note=55, velocity=67, time=1)\n",
      "Message('note_on', channel=0, note=79, velocity=0, time=25)\n",
      "Message('control_change', channel=0, control=64, value=0, time=31)\n",
      "Message('note_on', channel=0, note=71, velocity=0, time=54)\n",
      "Message('note_on', channel=0, note=55, velocity=0, time=32)\n",
      "Message('note_on', channel=0, note=57, velocity=66, time=3)\n",
      "Message('note_on', channel=0, note=72, velocity=72, time=1)\n",
      "Message('control_change', channel=0, control=67, value=80, time=4)\n",
      "Message('note_on', channel=0, note=57, velocity=0, time=69)\n",
      "Message('note_on', channel=0, note=60, velocity=64, time=50)\n",
      "Message('note_on', channel=0, note=60, velocity=0, time=132)\n",
      "Message('note_on', channel=0, note=55, velocity=66, time=1)\n",
      "Message('note_on', channel=0, note=57, velocity=70, time=147)\n",
      "Message('note_on', channel=0, note=55, velocity=0, time=21)\n",
      "Message('note_on', channel=0, note=57, velocity=0, time=55)\n",
      "Message('note_on', channel=0, note=72, velocity=0, time=12)\n",
      "Message('note_on', channel=0, note=60, velocity=69, time=33)\n",
      "Message('note_on', channel=0, note=52, velocity=72, time=138)\n",
      "Message('note_on', channel=0, note=79, velocity=69, time=2)\n",
      "Message('note_on', channel=0, note=60, velocity=0, time=23)\n",
      "Message('note_on', channel=0, note=81, velocity=75, time=104)\n",
      "Message('note_on', channel=0, note=52, velocity=0, time=4)\n",
      "Message('note_on', channel=0, note=54, velocity=77, time=2)\n",
      "Message('note_on', channel=0, note=79, velocity=0, time=7)\n",
      "Message('control_change', channel=0, control=67, value=85, time=6)\n",
      "Message('note_on', channel=0, note=54, velocity=0, time=17)\n",
      "Message('control_change', channel=0, control=67, value=94, time=22)\n",
      "Message('control_change', channel=0, control=67, value=101, time=21)\n",
      "Message('control_change', channel=0, control=67, value=109, time=18)\n",
      "Message('control_change', channel=0, control=67, value=114, time=19)\n",
      "Message('note_on', channel=0, note=81, velocity=0, time=6)\n",
      "Message('note_on', channel=0, note=84, velocity=68, time=8)\n",
      "Message('control_change', channel=0, control=67, value=119, time=23)\n",
      "Message('note_on', channel=0, note=84, velocity=0, time=92)\n",
      "Message('note_on', channel=0, note=52, velocity=78, time=8)\n",
      "Message('note_on', channel=0, note=79, velocity=70, time=7)\n",
      "Message('control_change', channel=0, control=67, value=114, time=44)\n",
      "Message('note_on', channel=0, note=81, velocity=73, time=87)\n",
      "Message('note_on', channel=0, note=52, velocity=0, time=4)\n",
      "Message('note_on', channel=0, note=54, velocity=80, time=1)\n",
      "Message('note_on', channel=0, note=79, velocity=0, time=16)\n",
      "Message('note_on', channel=0, note=54, velocity=0, time=16)\n",
      "Message('note_on', channel=0, note=81, velocity=0, time=80)\n",
      "Message('control_change', channel=0, control=67, value=118, time=20)\n",
      "Message('note_on', channel=0, note=84, velocity=71, time=13)\n",
      "Message('note_on', channel=0, note=84, velocity=0, time=131)\n",
      "Message('note_on', channel=0, note=76, velocity=71, time=17)\n",
      "Message('note_on', channel=0, note=57, velocity=61, time=4)\n",
      "Message('note_on', channel=0, note=55, velocity=67, time=14)\n",
      "Message('control_change', channel=0, control=67, value=114, time=6)\n",
      "Message('note_on', channel=0, note=55, velocity=0, time=32)\n",
      "Message('note_on', channel=0, note=76, velocity=0, time=45)\n",
      "Message('note_on', channel=0, note=57, velocity=0, time=17)\n",
      "Message('note_on', channel=0, note=62, velocity=65, time=2)\n",
      "Message('note_on', channel=0, note=78, velocity=70, time=21)\n",
      "Message('note_on', channel=0, note=62, velocity=0, time=80)\n",
      "Message('note_on', channel=0, note=66, velocity=64, time=26)\n",
      "Message('note_on', channel=0, note=78, velocity=0, time=15)\n",
      "Message('note_on', channel=0, note=81, velocity=69, time=0)\n",
      "Message('note_on', channel=0, note=66, velocity=0, time=102)\n",
      "Message('note_on', channel=0, note=61, velocity=72, time=3)\n",
      "Message('note_on', channel=0, note=81, velocity=0, time=3)\n",
      "Message('note_on', channel=0, note=76, velocity=76, time=16)\n",
      "Message('control_change', channel=0, control=67, value=109, time=16)\n",
      "Message('control_change', channel=0, control=67, value=105, time=38)\n",
      "Message('note_on', channel=0, note=62, velocity=69, time=55)\n",
      "Message('note_on', channel=0, note=61, velocity=0, time=22)\n",
      "Message('note_on', channel=0, note=78, velocity=77, time=1)\n",
      "Message('note_on', channel=0, note=76, velocity=0, time=27)\n",
      "Message('note_on', channel=0, note=62, velocity=0, time=79)\n",
      "Message('note_on', channel=0, note=66, velocity=69, time=6)\n",
      "Message('note_on', channel=0, note=81, velocity=78, time=9)\n",
      "Message('note_on', channel=0, note=78, velocity=0, time=5)\n",
      "Message('note_on', channel=0, note=66, velocity=0, time=48)\n",
      "Message('note_on', channel=0, note=81, velocity=0, time=74)\n",
      "Message('note_on', channel=0, note=73, velocity=79, time=16)\n",
      "Message('note_on', channel=0, note=57, velocity=72, time=1)\n",
      "Message('control_change', channel=0, control=67, value=100, time=33)\n",
      "Message('note_on', channel=0, note=57, velocity=0, time=75)\n",
      "Message('note_on', channel=0, note=73, velocity=0, time=13)\n",
      "Message('note_on', channel=0, note=74, velocity=79, time=9)\n",
      "Message('note_on', channel=0, note=59, velocity=70, time=4)\n",
      "Message('note_on', channel=0, note=59, velocity=0, time=63)\n",
      "Message('note_on', channel=0, note=74, velocity=0, time=30)\n",
      "Message('note_on', channel=0, note=78, velocity=72, time=31)\n",
      "Message('note_on', channel=0, note=62, velocity=63, time=10)\n",
      "Message('note_on', channel=0, note=62, velocity=0, time=64)\n",
      "Message('note_on', channel=0, note=78, velocity=0, time=33)\n",
      "Message('note_on', channel=0, note=73, velocity=76, time=27)\n",
      "Message('note_on', channel=0, note=57, velocity=67, time=5)\n",
      "Message('note_on', channel=0, note=73, velocity=0, time=84)\n",
      "Message('note_on', channel=0, note=74, velocity=75, time=36)\n",
      "Message('note_on', channel=0, note=59, velocity=67, time=3)\n",
      "Message('note_on', channel=0, note=57, velocity=0, time=20)\n",
      "Message('control_change', channel=0, control=64, value=25, time=40)\n",
      "Message('note_on', channel=0, note=59, velocity=0, time=9)\n",
      "Message('control_change', channel=0, control=64, value=41, time=8)\n",
      "Message('note_on', channel=0, note=74, velocity=0, time=26)\n",
      "Message('note_on', channel=0, note=62, velocity=64, time=23)\n",
      "Message('note_on', channel=0, note=78, velocity=77, time=3)\n",
      "Message('control_change', channel=0, control=64, value=43, time=5)\n",
      "Message('control_change', channel=0, control=64, value=0, time=96)\n",
      "Message('note_on', channel=0, note=78, velocity=0, time=2)\n",
      "Message('note_on', channel=0, note=69, velocity=80, time=27)\n",
      "Message('note_on', channel=0, note=54, velocity=67, time=7)\n",
      "Message('note_on', channel=0, note=62, velocity=0, time=10)\n",
      "Message('note_on', channel=0, note=69, velocity=0, time=81)\n",
      "Message('note_on', channel=0, note=54, velocity=0, time=32)\n",
      "Message('note_on', channel=0, note=55, velocity=77, time=20)\n",
      "Message('note_on', channel=0, note=71, velocity=78, time=6)\n",
      "Message('note_on', channel=0, note=55, velocity=0, time=41)\n",
      "Message('note_on', channel=0, note=71, velocity=0, time=33)\n",
      "Message('note_on', channel=0, note=74, velocity=74, time=59)\n",
      "Message('note_on', channel=0, note=73, velocity=77, time=129)\n",
      "Message('note_on', channel=0, note=74, velocity=0, time=3)\n",
      "Message('note_on', channel=0, note=52, velocity=72, time=2)\n",
      "Message('note_on', channel=0, note=73, velocity=0, time=90)\n",
      "Message('note_on', channel=0, note=74, velocity=79, time=39)\n",
      "Message('note_on', channel=0, note=54, velocity=79, time=7)\n",
      "Message('note_on', channel=0, note=52, velocity=0, time=14)\n",
      "Message('note_on', channel=0, note=54, velocity=0, time=21)\n",
      "Message('note_on', channel=0, note=76, velocity=77, time=78)\n",
      "Message('note_on', channel=0, note=74, velocity=0, time=33)\n",
      "Message('note_on', channel=0, note=76, velocity=0, time=55)\n",
      "Message('note_on', channel=0, note=71, velocity=75, time=44)\n",
      "Message('note_on', channel=0, note=55, velocity=83, time=9)\n",
      "Message('control_change', channel=0, control=67, value=96, time=75)\n",
      "Message('note_on', channel=0, note=71, velocity=0, time=28)\n",
      "Message('note_on', channel=0, note=55, velocity=0, time=19)\n",
      "Message('note_on', channel=0, note=57, velocity=81, time=7)\n",
      "Message('note_on', channel=0, note=73, velocity=78, time=7)\n",
      "Message('note_on', channel=0, note=57, velocity=0, time=29)\n",
      "Message('control_change', channel=0, control=64, value=50, time=3)\n",
      "Message('control_change', channel=0, control=64, value=53, time=21)\n",
      "Message('control_change', channel=0, control=64, value=0, time=18)\n",
      "Message('note_on', channel=0, note=73, velocity=0, time=13)\n",
      "Message('control_change', channel=0, control=67, value=100, time=6)\n",
      "Message('note_on', channel=0, note=76, velocity=80, time=41)\n",
      "Message('note_on', channel=0, note=76, velocity=0, time=104)\n",
      "Message('note_on', channel=0, note=74, velocity=79, time=34)\n",
      "Message('note_on', channel=0, note=54, velocity=76, time=15)\n",
      "Message('note_on', channel=0, note=74, velocity=0, time=110)\n",
      "Message('note_on', channel=0, note=55, velocity=82, time=12)\n",
      "Message('note_on', channel=0, note=76, velocity=77, time=6)\n",
      "Message('note_on', channel=0, note=54, velocity=0, time=22)\n",
      "Message('note_on', channel=0, note=55, velocity=0, time=30)\n",
      "Message('note_on', channel=0, note=78, velocity=77, time=66)\n",
      "Message('note_on', channel=0, note=76, velocity=0, time=16)\n",
      "Message('note_on', channel=0, note=57, velocity=86, time=125)\n",
      "Message('note_on', channel=0, note=73, velocity=74, time=5)\n",
      "Message('note_on', channel=0, note=78, velocity=0, time=51)\n",
      "Message('note_on', channel=0, note=73, velocity=0, time=55)\n",
      "Message('note_on', channel=0, note=74, velocity=80, time=18)\n",
      "Message('note_on', channel=0, note=59, velocity=88, time=10)\n",
      "Message('note_on', channel=0, note=57, velocity=0, time=24)\n",
      "Message('note_on', channel=0, note=59, velocity=0, time=18)\n",
      "Message('note_on', channel=0, note=74, velocity=0, time=58)\n",
      "Message('note_on', channel=0, note=78, velocity=79, time=26)\n",
      "Message('note_on', channel=0, note=76, velocity=82, time=132)\n",
      "Message('note_on', channel=0, note=61, velocity=84, time=16)\n",
      "Message('note_on', channel=0, note=78, velocity=0, time=4)\n",
      "Message('control_change', channel=0, control=64, value=16, time=33)\n",
      "Message('control_change', channel=0, control=64, value=0, time=18)\n",
      "Message('note_on', channel=0, note=76, velocity=0, time=49)\n",
      "Message('note_on', channel=0, note=78, velocity=87, time=23)\n",
      "Message('note_on', channel=0, note=62, velocity=87, time=6)\n",
      "Message('note_on', channel=0, note=61, velocity=0, time=9)\n",
      "Message('note_on', channel=0, note=62, velocity=0, time=15)\n",
      "Message('note_on', channel=0, note=78, velocity=0, time=94)\n",
      "Message('note_on', channel=0, note=81, velocity=85, time=4)\n",
      "Message('note_on', channel=0, note=81, velocity=0, time=95)\n",
      "Message('note_on', channel=0, note=79, velocity=87, time=40)\n",
      "Message('note_on', channel=0, note=57, velocity=82, time=21)\n",
      "Message('control_change', channel=0, control=67, value=96, time=22)\n",
      "Message('control_change', channel=0, control=67, value=84, time=39)\n",
      "Message('note_on', channel=0, note=79, velocity=0, time=6)\n",
      "Message('control_change', channel=0, control=67, value=75, time=10)\n",
      "Message('control_change', channel=0, control=67, value=68, time=20)\n",
      "Message('note_on', channel=0, note=81, velocity=87, time=17)\n",
      "Message('note_on', channel=0, note=61, velocity=82, time=4)\n",
      "Message('control_change', channel=0, control=67, value=63, time=18)\n",
      "Message('note_on', channel=0, note=57, velocity=0, time=1)\n",
      "Message('control_change', channel=0, control=67, value=50, time=37)\n",
      "Message('control_change', channel=0, control=64, value=56, time=20)\n",
      "Message('control_change', channel=0, control=67, value=35, time=1)\n",
      "Message('control_change', channel=0, control=64, value=78, time=18)\n",
      "Message('control_change', channel=0, control=67, value=21, time=1)\n",
      "Message('control_change', channel=0, control=67, value=12, time=16)\n",
      "Message('control_change', channel=0, control=64, value=76, time=18)\n",
      "Message('control_change', channel=0, control=67, value=8, time=1)\n",
      "Message('note_on', channel=0, note=64, velocity=74, time=6)\n",
      "Message('note_on', channel=0, note=61, velocity=0, time=15)\n",
      "Message('control_change', channel=0, control=64, value=82, time=17)\n",
      "Message('control_change', channel=0, control=64, value=92, time=16)\n",
      "Message('control_change', channel=0, control=64, value=102, time=21)\n",
      "Message('control_change', channel=0, control=64, value=110, time=19)\n",
      "Message('control_change', channel=0, control=67, value=0, time=1)\n",
      "Message('note_on', channel=0, note=64, velocity=0, time=16)\n",
      "Message('control_change', channel=0, control=64, value=115, time=22)\n",
      "Message('note_on', channel=0, note=69, velocity=86, time=5)\n",
      "Message('note_on', channel=0, note=69, velocity=0, time=30)\n",
      "Message('control_change', channel=0, control=64, value=123, time=2)\n",
      "Message('control_change', channel=0, control=64, value=127, time=94)\n",
      "Message('note_on', channel=0, note=73, velocity=90, time=7)\n",
      "Message('note_on', channel=0, note=81, velocity=0, time=34)\n",
      "Message('note_on', channel=0, note=73, velocity=0, time=62)\n",
      "Message('note_on', channel=0, note=76, velocity=90, time=35)\n",
      "Message('note_on', channel=0, note=76, velocity=0, time=69)\n",
      "Message('note_on', channel=0, note=79, velocity=89, time=62)\n",
      "Message('note_on', channel=0, note=45, velocity=80, time=1)\n",
      "Message('note_on', channel=0, note=79, velocity=0, time=50)\n",
      "Message('control_change', channel=0, control=64, value=92, time=16)\n",
      "Message('control_change', channel=0, control=64, value=0, time=21)\n",
      "Message('note_on', channel=0, note=45, velocity=0, time=18)\n",
      "Message('note_on', channel=0, note=50, velocity=76, time=8)\n",
      "Message('note_on', channel=0, note=78, velocity=88, time=19)\n",
      "Message('note_on', channel=0, note=78, velocity=0, time=26)\n",
      "Message('note_on', channel=0, note=50, velocity=0, time=53)\n",
      "Message('control_change', channel=0, control=67, value=8, time=6)\n",
      "Message('note_on', channel=0, note=54, velocity=66, time=33)\n",
      "Message('note_on', channel=0, note=54, velocity=0, time=123)\n",
      "Message('note_on', channel=0, note=49, velocity=66, time=15)\n",
      "Message('note_on', channel=0, note=76, velocity=84, time=11)\n",
      "Message('note_on', channel=0, note=69, velocity=73, time=4)\n",
      "Message('note_on', channel=0, note=76, velocity=0, time=28)\n",
      "Message('note_on', channel=0, note=69, velocity=0, time=5)\n",
      "Message('note_on', channel=0, note=50, velocity=72, time=79)\n",
      "Message('note_on', channel=0, note=49, velocity=0, time=8)\n",
      "Message('note_on', channel=0, note=69, velocity=75, time=14)\n",
      "Message('note_on', channel=0, note=78, velocity=54, time=5)\n",
      "Message('note_on', channel=0, note=79, velocity=63, time=8)\n",
      "Message('note_on', channel=0, note=69, velocity=0, time=19)\n",
      "Message('note_on', channel=0, note=78, velocity=0, time=1)\n",
      "Message('control_change', channel=0, control=67, value=12, time=7)\n",
      "Message('note_on', channel=0, note=79, velocity=0, time=0)\n",
      "Message('note_on', channel=0, note=50, velocity=0, time=17)\n",
      "Message('note_on', channel=0, note=54, velocity=71, time=43)\n",
      "Message('note_on', channel=0, note=54, velocity=0, time=110)\n",
      "Message('note_on', channel=0, note=79, velocity=79, time=41)\n",
      "Message('note_on', channel=0, note=69, velocity=78, time=5)\n",
      "Message('note_on', channel=0, note=45, velocity=75, time=1)\n",
      "Message('note_on', channel=0, note=69, velocity=0, time=30)\n",
      "Message('note_on', channel=0, note=79, velocity=0, time=11)\n",
      "Message('control_change', channel=0, control=67, value=8, time=1)\n",
      "Message('note_on', channel=0, note=50, velocity=76, time=59)\n",
      "Message('note_on', channel=0, note=45, velocity=0, time=19)\n",
      "Message('note_on', channel=0, note=78, velocity=89, time=8)\n",
      "Message('note_on', channel=0, note=69, velocity=82, time=6)\n",
      "Message('control_change', channel=0, control=64, value=66, time=22)\n",
      "Message('control_change', channel=0, control=67, value=12, time=2)\n",
      "Message('note_on', channel=0, note=69, velocity=0, time=1)\n",
      "Message('note_on', channel=0, note=78, velocity=0, time=3)\n",
      "Message('control_change', channel=0, control=64, value=50, time=12)\n",
      "Message('control_change', channel=0, control=64, value=0, time=21)\n",
      "Message('control_change', channel=0, control=67, value=16, time=1)\n",
      "Message('note_on', channel=0, note=50, velocity=0, time=25)\n",
      "Message('control_change', channel=0, control=67, value=21, time=10)\n",
      "Message('note_on', channel=0, note=54, velocity=72, time=16)\n",
      "Message('note_on', channel=0, note=54, velocity=0, time=118)\n",
      "Message('note_on', channel=0, note=49, velocity=67, time=19)\n",
      "Message('note_on', channel=0, note=76, velocity=74, time=12)\n",
      "Message('note_on', channel=0, note=69, velocity=74, time=1)\n",
      "Message('control_change', channel=0, control=67, value=17, time=22)\n",
      "Message('note_on', channel=0, note=76, velocity=0, time=13)\n",
      "Message('note_on', channel=0, note=69, velocity=0, time=8)\n",
      "Message('note_on', channel=0, note=50, velocity=70, time=71)\n",
      "Message('note_on', channel=0, note=74, velocity=88, time=2)\n",
      "Message('note_on', channel=0, note=49, velocity=0, time=15)\n",
      "Message('control_change', channel=0, control=64, value=50, time=6)\n",
      "Message('note_on', channel=0, note=69, velocity=67, time=9)\n",
      "Message('control_change', channel=0, control=64, value=87, time=9)\n",
      "Message('note_on', channel=0, note=74, velocity=0, time=8)\n",
      "Message('control_change', channel=0, control=64, value=104, time=10)\n",
      "Message('control_change', channel=0, control=64, value=113, time=20)\n",
      "Message('control_change', channel=0, control=67, value=21, time=1)\n",
      "Message('note_on', channel=0, note=50, velocity=0, time=5)\n",
      "Message('note_on', channel=0, note=54, velocity=79, time=31)\n",
      "Message('note_on', channel=0, note=74, velocity=63, time=29)\n",
      "Message('note_on', channel=0, note=69, velocity=0, time=6)\n",
      "Message('note_on', channel=0, note=54, velocity=0, time=36)\n",
      "Message('note_on', channel=0, note=66, velocity=84, time=68)\n",
      "Message('note_on', channel=0, note=45, velocity=76, time=9)\n",
      "Message('control_change', channel=0, control=64, value=106, time=24)\n",
      "Message('control_change', channel=0, control=64, value=87, time=17)\n",
      "Message('note_on', channel=0, note=45, velocity=0, time=2)\n",
      "Message('note_on', channel=0, note=66, velocity=0, time=10)\n",
      "Message('control_change', channel=0, control=64, value=55, time=7)\n",
      "Message('control_change', channel=0, control=64, value=0, time=20)\n",
      "Message('note_on', channel=0, note=62, velocity=78, time=56)\n",
      "Message('note_on', channel=0, note=47, velocity=80, time=4)\n",
      "Message('note_on', channel=0, note=62, velocity=0, time=74)\n",
      "Message('note_on', channel=0, note=47, velocity=0, time=30)\n",
      "Message('note_on', channel=0, note=43, velocity=80, time=4)\n",
      "Message('note_on', channel=0, note=67, velocity=74, time=20)\n",
      "Message('note_on', channel=0, note=67, velocity=0, time=53)\n",
      "Message('note_on', channel=0, note=43, velocity=0, time=12)\n",
      "Message('note_on', channel=0, note=38, velocity=82, time=38)\n",
      "Message('note_on', channel=0, note=71, velocity=80, time=16)\n",
      "Message('note_on', channel=0, note=71, velocity=0, time=54)\n",
      "Message('note_on', channel=0, note=38, velocity=0, time=64)\n",
      "Message('control_change', channel=0, control=64, value=22, time=5)\n",
      "Message('note_on', channel=0, note=50, velocity=89, time=2)\n",
      "Message('note_on', channel=0, note=71, velocity=75, time=8)\n",
      "Message('control_change', channel=0, control=64, value=82, time=8)\n",
      "Message('control_change', channel=0, control=64, value=109, time=18)\n",
      "Message('note_on', channel=0, note=50, velocity=0, time=5)\n",
      "Message('control_change', channel=0, control=64, value=127, time=15)\n",
      "Message('note_on', channel=0, note=67, velocity=77, time=76)\n",
      "Message('note_on', channel=0, note=71, velocity=0, time=35)\n",
      "Message('note_on', channel=0, note=67, velocity=0, time=30)\n",
      "Message('note_on', channel=0, note=43, velocity=88, time=64)\n",
      "Message('note_on', channel=0, note=62, velocity=79, time=16)\n",
      "Message('control_change', channel=0, control=64, value=123, time=9)\n",
      "Message('control_change', channel=0, control=64, value=83, time=19)\n",
      "Message('note_on', channel=0, note=62, velocity=0, time=12)\n",
      "Message('control_change', channel=0, control=64, value=0, time=5)\n",
      "Message('note_on', channel=0, note=43, velocity=0, time=3)\n",
      "Message('note_on', channel=0, note=45, velocity=84, time=67)\n",
      "Message('note_on', channel=0, note=62, velocity=86, time=16)\n",
      "Message('note_on', channel=0, note=62, velocity=0, time=57)\n",
      "Message('note_on', channel=0, note=42, velocity=82, time=40)\n",
      "Message('note_on', channel=0, note=45, velocity=0, time=13)\n",
      "Message('note_on', channel=0, note=66, velocity=82, time=3)\n",
      "Message('note_on', channel=0, note=66, velocity=0, time=71)\n",
      "Message('note_on', channel=0, note=38, velocity=79, time=60)\n",
      "Message('note_on', channel=0, note=42, velocity=0, time=2)\n",
      "Message('note_on', channel=0, note=69, velocity=83, time=1)\n",
      "Message('note_on', channel=0, note=69, velocity=0, time=55)\n",
      "Message('note_on', channel=0, note=38, velocity=0, time=64)\n",
      "Message('note_on', channel=0, note=50, velocity=87, time=13)\n",
      "Message('control_change', channel=0, control=64, value=70, time=4)\n",
      "Message('note_on', channel=0, note=69, velocity=80, time=5)\n",
      "Message('control_change', channel=0, control=64, value=91, time=13)\n",
      "Message('note_on', channel=0, note=50, velocity=0, time=16)\n",
      "Message('control_change', channel=0, control=64, value=108, time=2)\n",
      "Message('control_change', channel=0, control=64, value=112, time=20)\n",
      "Message('note_on', channel=0, note=69, velocity=0, time=85)\n",
      "Message('note_on', channel=0, note=66, velocity=73, time=1)\n",
      "Message('note_on', channel=0, note=66, velocity=0, time=104)\n",
      "Message('note_on', channel=0, note=42, velocity=77, time=11)\n",
      "Message('note_on', channel=0, note=62, velocity=78, time=20)\n",
      "Message('control_change', channel=0, control=64, value=99, time=5)\n",
      "Message('control_change', channel=0, control=64, value=64, time=20)\n",
      "Message('note_on', channel=0, note=74, velocity=0, time=2)\n",
      "Message('control_change', channel=0, control=64, value=0, time=17)\n",
      "Message('note_on', channel=0, note=43, velocity=67, time=57)\n",
      "Message('note_on', channel=0, note=42, velocity=0, time=7)\n",
      "Message('note_on', channel=0, note=64, velocity=80, time=31)\n",
      "Message('note_on', channel=0, note=62, velocity=0, time=5)\n",
      "Message('note_on', channel=0, note=45, velocity=69, time=78)\n",
      "Message('note_on', channel=0, note=43, velocity=0, time=9)\n",
      "Message('note_on', channel=0, note=45, velocity=0, time=71)\n",
      "Message('note_on', channel=0, note=47, velocity=73, time=67)\n",
      "Message('note_on', channel=0, note=74, velocity=74, time=32)\n",
      "Message('control_change', channel=0, control=67, value=25, time=92)\n",
      "Message('note_on', channel=0, note=47, velocity=0, time=22)\n",
      "Message('note_on', channel=0, note=45, velocity=73, time=1)\n",
      "Message('note_on', channel=0, note=73, velocity=74, time=29)\n",
      "Message('note_on', channel=0, note=74, velocity=0, time=7)\n",
      "Message('note_on', channel=0, note=45, velocity=0, time=53)\n",
      "Message('note_on', channel=0, note=47, velocity=65, time=51)\n",
      "Message('note_on', channel=0, note=43, velocity=56, time=131)\n",
      "Message('note_on', channel=0, note=73, velocity=0, time=10)\n",
      "Message('note_on', channel=0, note=47, velocity=0, time=11)\n",
      "Message('note_on', channel=0, note=71, velocity=67, time=6)\n",
      "Message('note_on', channel=0, note=43, velocity=0, time=105)\n",
      "Message('note_on', channel=0, note=42, velocity=72, time=1)\n",
      "Message('note_on', channel=0, note=69, velocity=72, time=14)\n",
      "Message('note_on', channel=0, note=71, velocity=0, time=24)\n",
      "Message('note_on', channel=0, note=64, velocity=0, time=15)\n",
      "Message('control_change', channel=0, control=64, value=49, time=30)\n",
      "Message('control_change', channel=0, control=64, value=40, time=20)\n",
      "Message('control_change', channel=0, control=64, value=0, time=18)\n",
      "Message('note_on', channel=0, note=43, velocity=68, time=3)\n",
      "Message('note_on', channel=0, note=42, velocity=0, time=14)\n",
      "Message('note_on', channel=0, note=43, velocity=0, time=62)\n",
      "Message('note_on', channel=0, note=45, velocity=68, time=62)\n",
      "Message('note_on', channel=0, note=62, velocity=69, time=22)\n",
      "Message('note_on', channel=0, note=45, velocity=0, time=99)\n",
      "Message('note_on', channel=0, note=43, velocity=67, time=8)\n",
      "Message('note_on', channel=0, note=71, velocity=70, time=35)\n",
      "Message('note_on', channel=0, note=69, velocity=0, time=17)\n",
      "Message('note_on', channel=0, note=43, velocity=0, time=29)\n",
      "Message('control_change', channel=0, control=67, value=29, time=7)\n",
      "Message('note_on', channel=0, note=45, velocity=58, time=66)\n",
      "Message('note_on', channel=0, note=42, velocity=63, time=130)\n",
      "Message('note_on', channel=0, note=45, velocity=0, time=1)\n",
      "Message('note_on', channel=0, note=71, velocity=0, time=13)\n",
      "Message('note_on', channel=0, note=69, velocity=64, time=3)\n",
      "Message('note_on', channel=0, note=42, velocity=0, time=60)\n",
      "Message('note_on', channel=0, note=69, velocity=0, time=3)\n",
      "Message('note_on', channel=0, note=40, velocity=67, time=44)\n",
      "Message('note_on', channel=0, note=67, velocity=69, time=24)\n",
      "Message('note_on', channel=0, note=67, velocity=0, time=105)\n",
      "Message('note_on', channel=0, note=67, velocity=42, time=0)\n",
      "Message('note_on', channel=0, note=42, velocity=63, time=3)\n",
      "Message('note_on', channel=0, note=40, velocity=0, time=3)\n",
      "Message('note_on', channel=0, note=42, velocity=0, time=67)\n",
      "Message('note_on', channel=0, note=62, velocity=0, time=63)\n",
      "Message('note_on', channel=0, note=61, velocity=72, time=1)\n",
      "Message('note_on', channel=0, note=43, velocity=62, time=7)\n",
      "Message('note_on', channel=0, note=43, velocity=0, time=100)\n",
      "Message('note_on', channel=0, note=42, velocity=60, time=17)\n",
      "Message('note_on', channel=0, note=69, velocity=61, time=19)\n",
      "Message('note_on', channel=0, note=67, velocity=0, time=21)\n",
      "Message('note_on', channel=0, note=42, velocity=0, time=10)\n",
      "Message('control_change', channel=0, control=67, value=33, time=26)\n",
      "Message('control_change', channel=0, control=64, value=46, time=55)\n",
      "Message('note_on', channel=0, note=43, velocity=56, time=5)\n",
      "Message('control_change', channel=0, control=64, value=55, time=16)\n",
      "Message('control_change', channel=0, control=64, value=49, time=19)\n",
      "Message('control_change', channel=0, control=64, value=39, time=17)\n",
      "Message('control_change', channel=0, control=64, value=27, time=22)\n",
      "Message('note_on', channel=0, note=43, velocity=0, time=24)\n",
      "Message('control_change', channel=0, control=64, value=42, time=13)\n",
      "Message('control_change', channel=0, control=64, value=53, time=32)\n",
      "Message('note_on', channel=0, note=69, velocity=0, time=16)\n",
      "Message('control_change', channel=0, control=64, value=57, time=3)\n",
      "Message('note_on', channel=0, note=67, velocity=67, time=5)\n",
      "Message('control_change', channel=0, control=64, value=44, time=13)\n",
      "Message('note_on', channel=0, note=40, velocity=49, time=0)\n",
      "Message('note_on', channel=0, note=61, velocity=0, time=15)\n",
      "Message('control_change', channel=0, control=64, value=0, time=7)\n",
      "Message('note_on', channel=0, note=40, velocity=0, time=65)\n",
      "Message('control_change', channel=0, control=64, value=20, time=9)\n",
      "Message('control_change', channel=0, control=67, value=37, time=1)\n",
      "Message('control_change', channel=0, control=64, value=55, time=18)\n",
      "Message('note_on', channel=0, note=66, velocity=65, time=3)\n",
      "Message('note_on', channel=0, note=67, velocity=0, time=4)\n",
      "Message('note_on', channel=0, note=38, velocity=64, time=4)\n",
      "Message('control_change', channel=0, control=64, value=59, time=8)\n",
      "Message('control_change', channel=0, control=64, value=60, time=75)\n",
      "Message('note_on', channel=0, note=66, velocity=0, time=10)\n",
      "Message('control_change', channel=0, control=64, value=62, time=8)\n",
      "Message('control_change', channel=0, control=67, value=41, time=1)\n",
      "Message('note_on', channel=0, note=62, velocity=65, time=5)\n",
      "Message('control_change', channel=0, control=64, value=60, time=14)\n",
      "Message('control_change', channel=0, control=64, value=57, time=19)\n",
      "Message('note_on', channel=0, note=62, velocity=0, time=55)\n",
      "Message('control_change', channel=0, control=64, value=59, time=3)\n",
      "Message('control_change', channel=0, control=64, value=60, time=19)\n",
      "Message('control_change', channel=0, control=64, value=56, time=18)\n",
      "Message('note_on', channel=0, note=38, velocity=0, time=2)\n",
      "Message('note_on', channel=0, note=67, velocity=60, time=11)\n",
      "Message('note_on', channel=0, note=40, velocity=63, time=1)\n",
      "Message('control_change', channel=0, control=64, value=39, time=6)\n",
      "Message('control_change', channel=0, control=64, value=0, time=18)\n",
      "Message('control_change', channel=0, control=64, value=51, time=56)\n",
      "Message('control_change', channel=0, control=64, value=66, time=18)\n",
      "Message('control_change', channel=0, control=64, value=70, time=19)\n",
      "Message('note_on', channel=0, note=69, velocity=67, time=11)\n",
      "Message('control_change', channel=0, control=64, value=66, time=5)\n",
      "Message('note_on', channel=0, note=67, velocity=0, time=0)\n",
      "Message('note_on', channel=0, note=42, velocity=64, time=8)\n",
      "Message('note_on', channel=0, note=40, velocity=0, time=4)\n",
      "Message('control_change', channel=0, control=64, value=55, time=8)\n",
      "Message('control_change', channel=0, control=64, value=36, time=20)\n",
      "Message('control_change', channel=0, control=64, value=53, time=39)\n",
      "Message('control_change', channel=0, control=64, value=63, time=19)\n",
      "Message('note_on', channel=0, note=69, velocity=0, time=2)\n",
      "Message('control_change', channel=0, control=64, value=68, time=17)\n",
      "Message('note_on', channel=0, note=62, velocity=59, time=12)\n",
      "Message('control_change', channel=0, control=64, value=67, time=27)\n",
      "Message('control_change', channel=0, control=64, value=65, time=17)\n",
      "Message('control_change', channel=0, control=64, value=67, time=18)\n",
      "Message('note_on', channel=0, note=62, velocity=0, time=13)\n",
      "Message('control_change', channel=0, control=64, value=70, time=27)\n",
      "Message('control_change', channel=0, control=64, value=68, time=39)\n",
      "Message('note_on', channel=0, note=71, velocity=75, time=3)\n",
      "Message('note_on', channel=0, note=43, velocity=66, time=2)\n",
      "Message('control_change', channel=0, control=64, value=51, time=12)\n",
      "Message('note_on', channel=0, note=42, velocity=0, time=0)\n",
      "Message('control_change', channel=0, control=64, value=0, time=20)\n",
      "Message('note_on', channel=0, note=71, velocity=0, time=37)\n",
      "Message('note_on', channel=0, note=43, velocity=0, time=37)\n",
      "Message('control_change', channel=0, control=64, value=28, time=4)\n",
      "Message('note_on', channel=0, note=45, velocity=72, time=9)\n",
      "Message('note_on', channel=0, note=61, velocity=76, time=19)\n",
      "Message('control_change', channel=0, control=64, value=45, time=3)\n",
      "Message('control_change', channel=0, control=67, value=45, time=1)\n",
      "Message('note_on', channel=0, note=61, velocity=0, time=82)\n",
      "Message('control_change', channel=0, control=64, value=48, time=33)\n",
      "Message('note_on', channel=0, note=57, velocity=65, time=9)\n",
      "Message('control_change', channel=0, control=64, value=50, time=66)\n",
      "Message('control_change', channel=0, control=64, value=52, time=19)\n",
      "Message('note_on', channel=0, note=57, velocity=0, time=29)\n",
      "Message('note_on', channel=0, note=62, velocity=68, time=17)\n",
      "Message('note_on', channel=0, note=47, velocity=63, time=7)\n",
      "Message('control_change', channel=0, control=64, value=48, time=1)\n",
      "Message('note_on', channel=0, note=45, velocity=0, time=6)\n",
      "Message('control_change', channel=0, control=64, value=0, time=15)\n",
      "Message('note_on', channel=0, note=62, velocity=0, time=98)\n",
      "Message('note_on', channel=0, note=64, velocity=64, time=3)\n",
      "Message('control_change', channel=0, control=64, value=20, time=12)\n",
      "Message('note_on', channel=0, note=49, velocity=67, time=1)\n",
      "Message('note_on', channel=0, note=47, velocity=0, time=2)\n",
      "Message('control_change', channel=0, control=64, value=49, time=16)\n",
      "Message('control_change', channel=0, control=64, value=61, time=19)\n",
      "Message('control_change', channel=0, control=64, value=66, time=19)\n",
      "Message('note_on', channel=0, note=64, velocity=0, time=10)\n",
      "Message('control_change', channel=0, control=64, value=68, time=6)\n",
      "Message('note_on', channel=0, note=57, velocity=55, time=45)\n",
      "Message('control_change', channel=0, control=64, value=71, time=32)\n",
      "Message('note_on', channel=0, note=57, velocity=0, time=15)\n",
      "Message('control_change', channel=0, control=64, value=73, time=3)\n",
      "Message('control_change', channel=0, control=64, value=76, time=20)\n",
      "Message('control_change', channel=0, control=64, value=80, time=19)\n",
      "Message('control_change', channel=0, control=64, value=83, time=20)\n",
      "Message('note_on', channel=0, note=66, velocity=76, time=13)\n",
      "Message('control_change', channel=0, control=64, value=88, time=5)\n",
      "Message('note_on', channel=0, note=50, velocity=78, time=3)\n",
      "Message('note_on', channel=0, note=49, velocity=0, time=3)\n",
      "Message('control_change', channel=0, control=64, value=93, time=13)\n",
      "Message('control_change', channel=0, control=64, value=99, time=19)\n",
      "Message('note_on', channel=0, note=66, velocity=0, time=11)\n",
      "Message('control_change', channel=0, control=64, value=107, time=8)\n",
      "Message('control_change', channel=0, control=64, value=118, time=18)\n",
      "Message('note_on', channel=0, note=50, velocity=0, time=11)\n",
      "Message('control_change', channel=0, control=64, value=127, time=11)\n",
      "Message('note_on', channel=0, note=40, velocity=84, time=32)\n",
      "Message('note_on', channel=0, note=67, velocity=80, time=11)\n",
      "Message('control_change', channel=0, control=64, value=119, time=13)\n",
      "Message('control_change', channel=0, control=64, value=80, time=19)\n",
      "Message('control_change', channel=0, control=64, value=0, time=19)\n",
      "Message('note_on', channel=0, note=67, velocity=0, time=29)\n",
      "Message('note_on', channel=0, note=64, velocity=67, time=38)\n",
      "Message('note_on', channel=0, note=64, velocity=0, time=120)\n",
      "Message('note_on', channel=0, note=69, velocity=78, time=46)\n",
      "Message('note_on', channel=0, note=42, velocity=77, time=6)\n",
      "Message('note_on', channel=0, note=40, velocity=0, time=12)\n",
      "Message('note_on', channel=0, note=71, velocity=79, time=107)\n",
      "Message('note_on', channel=0, note=43, velocity=80, time=15)\n",
      "Message('note_on', channel=0, note=42, velocity=0, time=5)\n",
      "Message('note_on', channel=0, note=69, velocity=0, time=2)\n",
      "Message('note_on', channel=0, note=71, velocity=0, time=57)\n",
      "Message('note_on', channel=0, note=64, velocity=70, time=50)\n",
      "Message('note_on', channel=0, note=64, velocity=0, time=91)\n",
      "Message('note_on', channel=0, note=45, velocity=80, time=48)\n",
      "Message('note_on', channel=0, note=73, velocity=80, time=1)\n",
      "Message('control_change', channel=0, control=64, value=36, time=31)\n",
      "Message('note_on', channel=0, note=43, velocity=0, time=2)\n",
      "Message('control_change', channel=0, control=64, value=43, time=15)\n",
      "Message('control_change', channel=0, control=64, value=28, time=20)\n",
      "Message('control_change', channel=0, control=64, value=0, time=19)\n",
      "Message('note_on', channel=0, note=73, velocity=0, time=12)\n",
      "Message('note_on', channel=0, note=45, velocity=0, time=25)\n",
      "Message('note_on', channel=0, note=62, velocity=80, time=4)\n",
      "Message('note_on', channel=0, note=47, velocity=80, time=1)\n",
      "Message('note_on', channel=0, note=62, velocity=0, time=119)\n",
      "Message('note_on', channel=0, note=59, velocity=74, time=6)\n",
      "Message('note_on', channel=0, note=59, velocity=0, time=91)\n",
      "Message('note_on', channel=0, note=64, velocity=76, time=43)\n",
      "Message('note_on', channel=0, note=49, velocity=74, time=2)\n",
      "Message('note_on', channel=0, note=47, velocity=0, time=18)\n",
      "Message('control_change', channel=0, control=64, value=20, time=21)\n",
      "Message('control_change', channel=0, control=64, value=0, time=50)\n",
      "Message('note_on', channel=0, note=66, velocity=82, time=49)\n",
      "Message('note_on', channel=0, note=50, velocity=83, time=8)\n",
      "Message('note_on', channel=0, note=64, velocity=0, time=14)\n",
      "Message('control_change', channel=0, control=64, value=30, time=7)\n",
      "Message('control_change', channel=0, control=64, value=44, time=18)\n",
      "Message('note_on', channel=0, note=49, velocity=0, time=5)\n",
      "Message('control_change', channel=0, control=64, value=31, time=16)\n",
      "Message('control_change', channel=0, control=64, value=0, time=17)\n",
      "Message('note_on', channel=0, note=66, velocity=0, time=7)\n",
      "Message('note_on', channel=0, note=59, velocity=75, time=36)\n",
      "Message('control_change', channel=0, control=64, value=28, time=33)\n",
      "Message('control_change', channel=0, control=64, value=48, time=16)\n",
      "Message('control_change', channel=0, control=64, value=36, time=20)\n",
      "Message('control_change', channel=0, control=64, value=0, time=21)\n",
      "Message('note_on', channel=0, note=59, velocity=0, time=7)\n",
      "Message('note_on', channel=0, note=67, velocity=82, time=38)\n",
      "Message('note_on', channel=0, note=52, velocity=78, time=4)\n",
      "Message('note_on', channel=0, note=50, velocity=0, time=9)\n",
      "Message('control_change', channel=0, control=64, value=31, time=14)\n",
      "Message('control_change', channel=0, control=64, value=56, time=19)\n",
      "Message('control_change', channel=0, control=64, value=60, time=17)\n",
      "Message('control_change', channel=0, control=64, value=54, time=20)\n",
      "Message('control_change', channel=0, control=64, value=48, time=19)\n",
      "Message('control_change', channel=0, control=64, value=50, time=17)\n",
      "Message('note_on', channel=0, note=67, velocity=0, time=0)\n",
      "Message('note_on', channel=0, note=69, velocity=78, time=14)\n",
      "Message('control_change', channel=0, control=64, value=61, time=4)\n",
      "Message('note_on', channel=0, note=54, velocity=84, time=16)\n",
      "Message('control_change', channel=0, control=64, value=69, time=4)\n",
      "Message('note_on', channel=0, note=52, velocity=0, time=6)\n",
      "Message('control_change', channel=0, control=64, value=66, time=14)\n",
      "Message('note_on', channel=0, note=54, velocity=0, time=7)\n",
      "Message('control_change', channel=0, control=64, value=0, time=13)\n",
      "Message('note_on', channel=0, note=66, velocity=69, time=80)\n",
      "Message('note_on', channel=0, note=55, velocity=86, time=128)\n",
      "Message('note_on', channel=0, note=61, velocity=67, time=0)\n",
      "Message('note_on', channel=0, note=66, velocity=0, time=73)\n",
      "Message('control_change', channel=0, control=64, value=54, time=18)\n",
      "Message('control_change', channel=0, control=67, value=41, time=2)\n",
      "Message('control_change', channel=0, control=64, value=16, time=19)\n",
      "Message('note_on', channel=0, note=61, velocity=0, time=6)\n",
      "Message('control_change', channel=0, control=64, value=0, time=12)\n",
      "Message('note_on', channel=0, note=54, velocity=84, time=0)\n",
      "Message('note_on', channel=0, note=55, velocity=0, time=1)\n",
      "Message('note_on', channel=0, note=62, velocity=74, time=1)\n",
      "Message('note_on', channel=0, note=54, velocity=0, time=27)\n",
      "Message('note_on', channel=0, note=62, velocity=0, time=42)\n",
      "Message('note_on', channel=0, note=66, velocity=68, time=61)\n",
      "Message('note_on', channel=0, note=57, velocity=75, time=146)\n",
      "Message('note_on', channel=0, note=52, velocity=82, time=3)\n",
      "Message('note_on', channel=0, note=66, velocity=0, time=22)\n",
      "Message('note_on', channel=0, note=57, velocity=0, time=76)\n",
      "Message('note_on', channel=0, note=54, velocity=88, time=35)\n",
      "Message('note_on', channel=0, note=62, velocity=74, time=4)\n",
      "Message('note_on', channel=0, note=52, velocity=0, time=7)\n",
      "Message('control_change', channel=0, control=64, value=25, time=5)\n",
      "Message('control_change', channel=0, control=64, value=0, time=19)\n",
      "Message('note_on', channel=0, note=54, velocity=0, time=5)\n",
      "Message('control_change', channel=0, control=67, value=45, time=33)\n",
      "Message('note_on', channel=0, note=62, velocity=0, time=12)\n",
      "Message('note_on', channel=0, note=66, velocity=70, time=59)\n",
      "Message('note_on', channel=0, note=55, velocity=84, time=135)\n",
      "Message('note_on', channel=0, note=61, velocity=70, time=0)\n",
      "Message('note_on', channel=0, note=66, velocity=0, time=88)\n",
      "Message('note_on', channel=0, note=61, velocity=0, time=19)\n",
      "Message('control_change', channel=0, control=64, value=52, time=6)\n",
      "Message('note_on', channel=0, note=54, velocity=86, time=0)\n",
      "Message('note_on', channel=0, note=62, velocity=78, time=7)\n",
      "Message('note_on', channel=0, note=55, velocity=0, time=7)\n",
      "Message('control_change', channel=0, control=64, value=58, time=6)\n",
      "Message('control_change', channel=0, control=64, value=0, time=19)\n",
      "Message('note_on', channel=0, note=54, velocity=0, time=6)\n",
      "Message('note_on', channel=0, note=62, velocity=0, time=36)\n",
      "Message('control_change', channel=0, control=67, value=49, time=33)\n",
      "Message('note_on', channel=0, note=66, velocity=75, time=19)\n",
      "Message('note_on', channel=0, note=57, velocity=84, time=151)\n",
      "Message('note_on', channel=0, note=52, velocity=81, time=8)\n",
      "Message('note_on', channel=0, note=66, velocity=0, time=2)\n",
      "Message('note_on', channel=0, note=57, velocity=0, time=29)\n",
      "Message('note_on', channel=0, note=50, velocity=83, time=89)\n",
      "Message('note_on', channel=0, note=52, velocity=0, time=6)\n",
      "Message('note_on', channel=0, note=52, velocity=23, time=0)\n",
      "Message('note_on', channel=0, note=59, velocity=87, time=4)\n",
      "Message('note_on', channel=0, note=52, velocity=0, time=26)\n",
      "Message('control_change', channel=0, control=64, value=77, time=24)\n",
      "Message('control_change', channel=0, control=64, value=96, time=19)\n",
      "Message('note_on', channel=0, note=69, velocity=0, time=1)\n",
      "Message('note_on', channel=0, note=59, velocity=0, time=22)\n",
      "Message('control_change', channel=0, control=64, value=92, time=14)\n",
      "Message('note_on', channel=0, note=55, velocity=79, time=13)\n",
      "Message('control_change', channel=0, control=64, value=84, time=6)\n",
      "Message('note_on', channel=0, note=67, velocity=81, time=1)\n",
      "Message('control_change', channel=0, control=64, value=77, time=15)\n",
      "Message('note_on', channel=0, note=50, velocity=0, time=3)\n",
      "Message('control_change', channel=0, control=64, value=75, time=17)\n",
      "Message('note_on', channel=0, note=55, velocity=0, time=28)\n",
      "Message('control_change', channel=0, control=64, value=70, time=29)\n",
      "Message('note_on', channel=0, note=67, velocity=0, time=13)\n",
      "Message('control_change', channel=0, control=64, value=55, time=6)\n",
      "Message('note_on', channel=0, note=59, velocity=78, time=3)\n",
      "Message('note_on', channel=0, note=62, velocity=88, time=7)\n",
      "Message('control_change', channel=0, control=64, value=0, time=8)\n",
      "Message('note_on', channel=0, note=59, velocity=0, time=32)\n",
      "Message('note_on', channel=0, note=62, velocity=0, time=14)\n",
      "Message('note_on', channel=0, note=59, velocity=85, time=76)\n",
      "Message('note_on', channel=0, note=74, velocity=86, time=8)\n",
      "Message('control_change', channel=0, control=64, value=66, time=40)\n",
      "Message('control_change', channel=0, control=64, value=77, time=19)\n",
      "Message('control_change', channel=0, control=64, value=79, time=20)\n",
      "Message('note_on', channel=0, note=55, velocity=70, time=46)\n",
      "Message('note_on', channel=0, note=59, velocity=0, time=26)\n",
      "Message('note_on', channel=0, note=55, velocity=0, time=12)\n",
      "Message('note_on', channel=0, note=50, velocity=82, time=80)\n",
      "Message('note_on', channel=0, note=67, velocity=82, time=17)\n",
      "Message('control_change', channel=0, control=64, value=74, time=6)\n",
      "Message('control_change', channel=0, control=64, value=51, time=21)\n",
      "Message('note_on', channel=0, note=50, velocity=0, time=1)\n",
      "Message('control_change', channel=0, control=64, value=0, time=18)\n",
      "Message('note_on', channel=0, note=67, velocity=0, time=35)\n",
      "Message('note_on', channel=0, note=50, velocity=88, time=38)\n",
      "Message('note_on', channel=0, note=69, velocity=82, time=36)\n",
      "Message('note_on', channel=0, note=74, velocity=0, time=11)\n",
      "Message('control_change', channel=0, control=64, value=65, time=27)\n",
      "Message('control_change', channel=0, control=64, value=74, time=20)\n",
      "Message('control_change', channel=0, control=64, value=76, time=17)\n",
      "Message('control_change', channel=0, control=64, value=74, time=18)\n",
      "Message('note_on', channel=0, note=69, velocity=0, time=6)\n",
      "Message('control_change', channel=0, control=64, value=71, time=14)\n",
      "Message('note_on', channel=0, note=54, velocity=82, time=3)\n",
      "Message('note_on', channel=0, note=66, velocity=86, time=7)\n",
      "Message('note_on', channel=0, note=50, velocity=0, time=2)\n",
      "Message('control_change', channel=0, control=64, value=68, time=7)\n",
      "Message('control_change', channel=0, control=64, value=66, time=38)\n",
      "Message('note_on', channel=0, note=54, velocity=0, time=5)\n",
      "Message('control_change', channel=0, control=64, value=53, time=14)\n",
      "Message('note_on', channel=0, note=66, velocity=0, time=12)\n",
      "Message('control_change', channel=0, control=64, value=0, time=7)\n",
      "Message('note_on', channel=0, note=57, velocity=82, time=31)\n",
      "Message('note_on', channel=0, note=62, velocity=86, time=12)\n",
      "Message('note_on', channel=0, note=57, velocity=0, time=43)\n",
      "Message('note_on', channel=0, note=62, velocity=0, time=20)\n",
      "Message('note_on', channel=0, note=74, velocity=86, time=68)\n",
      "Message('note_on', channel=0, note=57, velocity=86, time=2)\n",
      "Message('control_change', channel=0, control=64, value=52, time=51)\n",
      "Message('control_change', channel=0, control=64, value=72, time=16)\n",
      "Message('note_on', channel=0, note=57, velocity=0, time=8)\n",
      "Message('control_change', channel=0, control=64, value=76, time=13)\n",
      "Message('note_on', channel=0, note=57, velocity=65, time=23)\n",
      "Message('note_on', channel=0, note=54, velocity=79, time=15)\n",
      "Message('note_on', channel=0, note=57, velocity=0, time=40)\n",
      "Message('note_on', channel=0, note=54, velocity=0, time=5)\n",
      "Message('note_on', channel=0, note=50, velocity=88, time=69)\n",
      "Message('note_on', channel=0, note=66, velocity=87, time=12)\n",
      "Message('note_on', channel=0, note=50, velocity=0, time=29)\n",
      "Message('control_change', channel=0, control=64, value=74, time=15)\n",
      "Message('control_change', channel=0, control=64, value=69, time=17)\n",
      "Message('note_on', channel=0, note=66, velocity=0, time=8)\n",
      "Message('control_change', channel=0, control=64, value=45, time=13)\n",
      "Message('control_change', channel=0, control=64, value=0, time=17)\n",
      "Message('note_on', channel=0, note=50, velocity=86, time=35)\n",
      "Message('note_on', channel=0, note=52, velocity=87, time=0)\n",
      "Message('note_on', channel=0, note=67, velocity=87, time=2)\n",
      "Message('note_on', channel=0, note=74, velocity=0, time=4)\n",
      "Message('note_on', channel=0, note=67, velocity=0, time=94)\n",
      "Message('note_on', channel=0, note=69, velocity=80, time=34)\n",
      "Message('note_on', channel=0, note=71, velocity=78, time=146)\n",
      "Message('note_on', channel=0, note=69, velocity=0, time=13)\n",
      "Message('note_on', channel=0, note=49, velocity=81, time=104)\n",
      "Message('note_on', channel=0, note=69, velocity=82, time=13)\n",
      "Message('note_on', channel=0, note=50, velocity=0, time=8)\n",
      "Message('note_on', channel=0, note=71, velocity=0, time=1)\n",
      "Message('control_change', channel=0, control=64, value=61, time=33)\n",
      "Message('control_change', channel=0, control=64, value=81, time=21)\n",
      "Message('note_on', channel=0, note=69, velocity=0, time=32)\n",
      "Message('control_change', channel=0, control=64, value=79, time=3)\n",
      "Message('note_on', channel=0, note=71, velocity=78, time=15)\n",
      "Message('control_change', channel=0, control=64, value=76, time=25)\n",
      "Message('note_on', channel=0, note=49, velocity=0, time=79)\n",
      "Message('note_on', channel=0, note=67, velocity=77, time=31)\n",
      "Message('control_change', channel=0, control=64, value=79, time=58)\n",
      "Message('note_on', channel=0, note=71, velocity=0, time=0)\n",
      "Message('control_change', channel=0, control=64, value=82, time=18)\n",
      "Message('control_change', channel=0, control=64, value=90, time=20)\n",
      "Message('note_on', channel=0, note=67, velocity=0, time=1)\n",
      "Message('control_change', channel=0, control=64, value=101, time=18)\n",
      "Message('note_on', channel=0, note=50, velocity=88, time=15)\n",
      "Message('control_change', channel=0, control=64, value=105, time=4)\n",
      "Message('note_on', channel=0, note=52, velocity=0, time=2)\n",
      "Message('note_on', channel=0, note=66, velocity=84, time=2)\n",
      "Message('control_change', channel=0, control=64, value=82, time=15)\n",
      "Message('control_change', channel=0, control=64, value=0, time=20)\n",
      "Message('note_on', channel=0, note=66, velocity=0, time=57)\n",
      "Message('note_on', channel=0, note=69, velocity=80, time=23)\n",
      "Message('note_on', channel=0, note=69, velocity=0, time=100)\n",
      "Message('note_on', channel=0, note=52, velocity=85, time=43)\n",
      "Message('note_on', channel=0, note=67, velocity=82, time=4)\n",
      "Message('note_on', channel=0, note=50, velocity=0, time=5)\n",
      "Message('note_on', channel=0, note=67, velocity=0, time=98)\n",
      "Message('control_change', channel=0, control=64, value=50, time=25)\n",
      "Message('note_on', channel=0, note=54, velocity=87, time=11)\n",
      "Message('note_on', channel=0, note=69, velocity=86, time=3)\n",
      "Message('control_change', channel=0, control=64, value=59, time=2)\n",
      "Message('control_change', channel=0, control=64, value=0, time=20)\n",
      "Message('note_on', channel=0, note=52, velocity=0, time=3)\n",
      "Message('note_on', channel=0, note=73, velocity=80, time=103)\n",
      "Message('note_on', channel=0, note=69, velocity=0, time=2)\n",
      "Message('note_on', channel=0, note=73, velocity=0, time=85)\n",
      "Message('note_on', channel=0, note=71, velocity=80, time=39)\n",
      "Message('note_on', channel=0, note=55, velocity=85, time=19)\n",
      "Message('note_on', channel=0, note=54, velocity=0, time=21)\n",
      "Message('note_on', channel=0, note=55, velocity=0, time=58)\n",
      "Message('note_on', channel=0, note=71, velocity=0, time=11)\n",
      "Message('note_on', channel=0, note=57, velocity=84, time=36)\n",
      "Message('note_on', channel=0, note=73, velocity=85, time=0)\n",
      "Message('control_change', channel=0, control=64, value=61, time=59)\n",
      "Message('control_change', channel=0, control=64, value=66, time=18)\n",
      "Message('note_on', channel=0, note=73, velocity=0, time=2)\n",
      "Message('control_change', channel=0, control=64, value=0, time=15)\n",
      "Message('note_on', channel=0, note=61, velocity=85, time=22)\n",
      "Message('note_on', channel=0, note=76, velocity=85, time=5)\n",
      "Message('note_on', channel=0, note=57, velocity=0, time=1)\n",
      "Message('note_on', channel=0, note=76, velocity=0, time=54)\n",
      "Message('note_on', channel=0, note=61, velocity=0, time=10)\n",
      "Message('note_on', channel=0, note=57, velocity=85, time=55)\n",
      "Message('note_on', channel=0, note=79, velocity=86, time=15)\n",
      "Message('note_on', channel=0, note=79, velocity=0, time=49)\n",
      "Message('note_on', channel=0, note=52, velocity=81, time=71)\n",
      "Message('note_on', channel=0, note=79, velocity=92, time=13)\n",
      "Message('note_on', channel=0, note=57, velocity=0, time=11)\n",
      "Message('control_change', channel=0, control=64, value=61, time=55)\n",
      "Message('control_change', channel=0, control=64, value=82, time=20)\n",
      "Message('note_on', channel=0, note=57, velocity=76, time=55)\n",
      "Message('note_on', channel=0, note=76, velocity=82, time=6)\n",
      "Message('note_on', channel=0, note=52, velocity=0, time=2)\n",
      "Message('control_change', channel=0, control=64, value=78, time=7)\n",
      "Message('note_on', channel=0, note=79, velocity=0, time=0)\n",
      "Message('note_on', channel=0, note=76, velocity=0, time=93)\n",
      "Message('note_on', channel=0, note=52, velocity=81, time=15)\n",
      "Message('note_on', channel=0, note=73, velocity=87, time=6)\n",
      "Message('note_on', channel=0, note=57, velocity=0, time=2)\n",
      "Message('control_change', channel=0, control=64, value=80, time=13)\n",
      "Message('control_change', channel=0, control=64, value=84, time=21)\n",
      "Message('control_change', channel=0, control=64, value=91, time=18)\n",
      "Message('note_on', channel=0, note=73, velocity=0, time=2)\n",
      "Message('control_change', channel=0, control=64, value=102, time=17)\n",
      "Message('control_change', channel=0, control=64, value=117, time=18)\n",
      "Message('control_change', channel=0, control=64, value=121, time=19)\n",
      "Message('control_change', channel=0, control=64, value=97, time=22)\n",
      "Message('note_on', channel=0, note=49, velocity=80, time=1)\n",
      "Message('note_on', channel=0, note=69, velocity=83, time=8)\n",
      "Message('control_change', channel=0, control=64, value=0, time=5)\n",
      "Message('note_on', channel=0, note=52, velocity=0, time=7)\n",
      "Message('note_on', channel=0, note=69, velocity=0, time=37)\n",
      "Message('note_on', channel=0, note=71, velocity=70, time=2)\n",
      "Message('control_change', channel=0, control=67, value=53, time=31)\n",
      "Message('note_on', channel=0, note=52, velocity=64, time=21)\n",
      "Message('note_on', channel=0, note=73, velocity=85, time=16)\n",
      "Message('note_on', channel=0, note=49, velocity=0, time=3)\n",
      "Message('note_on', channel=0, note=71, velocity=0, time=4)\n",
      "Message('note_on', channel=0, note=73, velocity=0, time=50)\n",
      "Message('note_on', channel=0, note=74, velocity=83, time=25)\n",
      "Message('note_on', channel=0, note=49, velocity=80, time=45)\n",
      "Message('note_on', channel=0, note=52, velocity=0, time=15)\n",
      "Message('note_on', channel=0, note=76, velocity=81, time=9)\n",
      "Message('note_on', channel=0, note=74, velocity=0, time=2)\n",
      "Message('note_on', channel=0, note=78, velocity=81, time=49)\n",
      "Message('note_on', channel=0, note=76, velocity=0, time=17)\n",
      "Message('note_on', channel=0, note=49, velocity=0, time=10)\n",
      "Message('note_on', channel=0, note=45, velocity=84, time=15)\n",
      "Message('control_change', channel=0, control=64, value=64, time=3)\n",
      "Message('note_on', channel=0, note=79, velocity=90, time=11)\n",
      "Message('control_change', channel=0, control=64, value=0, time=7)\n",
      "Message('control_change', channel=0, control=67, value=49, time=2)\n",
      "Message('note_on', channel=0, note=78, velocity=0, time=24)\n",
      "Message('note_on', channel=0, note=79, velocity=0, time=20)\n",
      "Message('note_on', channel=0, note=45, velocity=0, time=4)\n",
      "Message('note_on', channel=0, note=47, velocity=81, time=69)\n",
      "Message('note_on', channel=0, note=78, velocity=86, time=9)\n",
      "Message('note_on', channel=0, note=47, velocity=0, time=37)\n",
      "Message('note_on', channel=0, note=78, velocity=0, time=3)\n",
      "Message('note_on', channel=0, note=49, velocity=83, time=79)\n",
      "Message('note_on', channel=0, note=76, velocity=87, time=20)\n",
      "Message('note_on', channel=0, note=49, velocity=0, time=38)\n",
      "Message('note_on', channel=0, note=76, velocity=0, time=7)\n",
      "Message('note_on', channel=0, note=78, velocity=89, time=78)\n",
      "Message('note_on', channel=0, note=50, velocity=88, time=4)\n",
      "Message('control_change', channel=0, control=64, value=62, time=18)\n",
      "Message('note_on', channel=0, note=50, velocity=0, time=9)\n",
      "Message('control_change', channel=0, control=64, value=103, time=10)\n",
      "Message('control_change', channel=0, control=64, value=127, time=18)\n",
      "Message('note_on', channel=0, note=76, velocity=83, time=73)\n",
      "Message('note_on', channel=0, note=78, velocity=0, time=5)\n",
      "Message('note_on', channel=0, note=78, velocity=35, time=0)\n",
      "Message('note_on', channel=0, note=78, velocity=0, time=20)\n",
      "Message('note_on', channel=0, note=76, velocity=0, time=32)\n",
      "Message('control_change', channel=0, control=64, value=101, time=58)\n",
      "Message('note_on', channel=0, note=55, velocity=89, time=16)\n",
      "Message('control_change', channel=0, control=64, value=54, time=2)\n",
      "Message('note_on', channel=0, note=74, velocity=87, time=4)\n",
      "Message('control_change', channel=0, control=64, value=0, time=18)\n",
      "Message('note_on', channel=0, note=71, velocity=68, time=3)\n",
      "Message('note_on', channel=0, note=55, velocity=0, time=10)\n",
      "Message('note_on', channel=0, note=69, velocity=51, time=3)\n",
      "Message('note_on', channel=0, note=74, velocity=0, time=13)\n",
      "Message('note_on', channel=0, note=71, velocity=0, time=7)\n",
      "Message('note_on', channel=0, note=69, velocity=0, time=11)\n",
      "Message('control_change', channel=0, control=67, value=45, time=45)\n",
      "Message('control_change', channel=0, control=64, value=52, time=21)\n",
      "Message('note_on', channel=0, note=57, velocity=87, time=2)\n",
      "Message('note_on', channel=0, note=74, velocity=70, time=3)\n",
      "Message('note_on', channel=0, note=69, velocity=86, time=6)\n",
      "Message('control_change', channel=0, control=64, value=92, time=8)\n",
      "Message('control_change', channel=0, control=67, value=39, time=1)\n",
      "Message('note_on', channel=0, note=57, velocity=0, time=7)\n",
      "Message('control_change', channel=0, control=64, value=120, time=9)\n",
      "Message('control_change', channel=0, control=64, value=127, time=18)\n",
      "Message('note_on', channel=0, note=74, velocity=0, time=0)\n",
      "Message('control_change', channel=0, control=67, value=45, time=2)\n",
      "Message('note_on', channel=0, note=69, velocity=0, time=14)\n",
      "Message('note_on', channel=0, note=76, velocity=70, time=59)\n",
      "Message('control_change', channel=0, control=67, value=41, time=2)\n",
      "Message('note_on', channel=0, note=77, velocity=65, time=12)\n",
      "Message('note_on', channel=0, note=77, velocity=0, time=27)\n",
      "Message('control_change', channel=0, control=67, value=46, time=16)\n",
      "Message('note_on', channel=0, note=76, velocity=0, time=49)\n",
      "Message('note_on', channel=0, note=67, velocity=87, time=19)\n",
      "Message('note_on', channel=0, note=45, velocity=85, time=1)\n",
      "Message('note_on', channel=0, note=73, velocity=84, time=6)\n",
      "Message('control_change', channel=0, control=64, value=94, time=39)\n",
      "Message('note_on', channel=0, note=45, velocity=0, time=4)\n",
      "Message('note_on', channel=0, note=67, velocity=0, time=7)\n",
      "Message('control_change', channel=0, control=64, value=0, time=9)\n",
      "Message('note_on', channel=0, note=73, velocity=0, time=3)\n",
      "Message('control_change', channel=0, control=67, value=40, time=34)\n",
      "Message('note_on', channel=0, note=38, velocity=82, time=12)\n",
      "Message('note_on', channel=0, note=74, velocity=82, time=25)\n",
      "Message('note_on', channel=0, note=76, velocity=58, time=43)\n",
      "Message('note_on', channel=0, note=76, velocity=0, time=30)\n",
      "Message('note_on', channel=0, note=69, velocity=81, time=64)\n",
      "Message('note_on', channel=0, note=42, velocity=72, time=12)\n",
      "Message('note_on', channel=0, note=69, velocity=0, time=31)\n",
      "Message('note_on', channel=0, note=42, velocity=0, time=66)\n",
      "Message('note_on', channel=0, note=45, velocity=82, time=28)\n",
      "Message('note_on', channel=0, note=66, velocity=81, time=2)\n",
      "Message('note_on', channel=0, note=66, velocity=0, time=34)\n",
      "Message('note_on', channel=0, note=45, velocity=0, time=42)\n",
      "Message('note_on', channel=0, note=38, velocity=0, time=47)\n",
      "Message('control_change', channel=0, control=64, value=33, time=11)\n",
      "Message('control_change', channel=0, control=67, value=45, time=1)\n",
      "Message('control_change', channel=0, control=64, value=69, time=18)\n",
      "Message('note_on', channel=0, note=50, velocity=84, time=0)\n",
      "Message('note_on', channel=0, note=62, velocity=87, time=4)\n",
      "Message('control_change', channel=0, control=64, value=77, time=15)\n",
      "Message('control_change', channel=0, control=67, value=50, time=1)\n",
      "Message('note_on', channel=0, note=74, velocity=0, time=7)\n",
      "Message('note_on', channel=0, note=50, velocity=0, time=2)\n",
      "Message('note_on', channel=0, note=62, velocity=0, time=6)\n",
      "Message('control_change', channel=0, control=64, value=83, time=3)\n",
      "Message('control_change', channel=0, control=64, value=93, time=20)\n",
      "Message('control_change', channel=0, control=64, value=113, time=19)\n",
      "Message('control_change', channel=0, control=67, value=54, time=1)\n",
      "Message('control_change', channel=0, control=64, value=127, time=16)\n",
      "Message('control_change', channel=0, control=67, value=59, time=0)\n",
      "Message('control_change', channel=0, control=67, value=65, time=19)\n",
      "Message('control_change', channel=0, control=67, value=69, time=39)\n",
      "Message('control_change', channel=0, control=67, value=76, time=74)\n",
      "Message('control_change', channel=0, control=64, value=109, time=38)\n",
      "Message('control_change', channel=0, control=64, value=85, time=20)\n",
      "Message('control_change', channel=0, control=64, value=58, time=19)\n",
      "Message('control_change', channel=0, control=64, value=0, time=15)\n",
      "Message('note_on', channel=0, note=57, velocity=62, time=39)\n",
      "Message('note_on', channel=0, note=54, velocity=63, time=135)\n",
      "Message('note_on', channel=0, note=57, velocity=0, time=8)\n",
      "Message('note_on', channel=0, note=54, velocity=0, time=121)\n",
      "Message('note_on', channel=0, note=50, velocity=59, time=12)\n",
      "Message('note_on', channel=0, note=50, velocity=0, time=127)\n",
      "Message('note_on', channel=0, note=55, velocity=61, time=11)\n",
      "Message('note_on', channel=0, note=54, velocity=67, time=133)\n",
      "Message('note_on', channel=0, note=55, velocity=0, time=8)\n",
      "Message('note_on', channel=0, note=54, velocity=0, time=113)\n",
      "Message('note_on', channel=0, note=50, velocity=67, time=2)\n",
      "Message('note_on', channel=0, note=50, velocity=0, time=113)\n",
      "Message('note_on', channel=0, note=57, velocity=68, time=15)\n",
      "Message('control_change', channel=0, control=67, value=72, time=30)\n",
      "Message('note_on', channel=0, note=54, velocity=68, time=109)\n",
      "Message('note_on', channel=0, note=57, velocity=0, time=15)\n",
      "Message('note_on', channel=0, note=54, velocity=0, time=66)\n",
      "Message('note_on', channel=0, note=50, velocity=71, time=30)\n",
      "Message('note_on', channel=0, note=50, velocity=0, time=137)\n",
      "Message('note_on', channel=0, note=55, velocity=75, time=13)\n",
      "Message('note_on', channel=0, note=54, velocity=77, time=143)\n",
      "Message('note_on', channel=0, note=55, velocity=0, time=14)\n",
      "Message('note_on', channel=0, note=54, velocity=0, time=67)\n",
      "Message('note_on', channel=0, note=50, velocity=81, time=38)\n",
      "Message('note_on', channel=0, note=50, velocity=0, time=77)\n",
      "Message('note_on', channel=0, note=57, velocity=85, time=59)\n",
      "Message('control_change', channel=0, control=67, value=68, time=58)\n",
      "Message('note_on', channel=0, note=57, velocity=0, time=27)\n",
      "Message('note_on', channel=0, note=54, velocity=82, time=50)\n",
      "Message('control_change', channel=0, control=67, value=61, time=56)\n",
      "Message('note_on', channel=0, note=57, velocity=83, time=60)\n",
      "Message('note_on', channel=0, note=54, velocity=0, time=13)\n",
      "Message('note_on', channel=0, note=57, velocity=0, time=59)\n",
      "Message('note_on', channel=0, note=60, velocity=80, time=56)\n",
      "Message('note_on', channel=0, note=60, velocity=0, time=71)\n",
      "Message('note_on', channel=0, note=50, velocity=79, time=91)\n",
      "Message('control_change', channel=0, control=64, value=53, time=4)\n",
      "Message('control_change', channel=0, control=64, value=82, time=20)\n",
      "Message('note_on', channel=0, note=50, velocity=0, time=10)\n",
      "Message('control_change', channel=0, control=64, value=105, time=9)\n",
      "Message('control_change', channel=0, control=64, value=125, time=19)\n",
      "Message('control_change', channel=0, control=64, value=120, time=208)\n",
      "Message('control_change', channel=0, control=64, value=91, time=18)\n",
      "Message('note_on', channel=0, note=59, velocity=80, time=6)\n",
      "Message('control_change', channel=0, control=64, value=29, time=15)\n",
      "Message('control_change', channel=0, control=64, value=0, time=16)\n",
      "Message('note_on', channel=0, note=59, velocity=0, time=62)\n",
      "Message('note_on', channel=0, note=55, velocity=77, time=47)\n",
      "Message('note_on', channel=0, note=59, velocity=77, time=114)\n",
      "Message('control_change', channel=0, control=64, value=31, time=4)\n",
      "Message('note_on', channel=0, note=55, velocity=0, time=11)\n",
      "Message('control_change', channel=0, control=64, value=41, time=6)\n",
      "Message('control_change', channel=0, control=64, value=44, time=20)\n",
      "Message('note_on', channel=0, note=59, velocity=0, time=14)\n",
      "Message('note_on', channel=0, note=62, velocity=81, time=71)\n",
      "Message('control_change', channel=0, control=64, value=42, time=32)\n",
      "Message('control_change', channel=0, control=64, value=23, time=18)\n",
      "Message('note_on', channel=0, note=62, velocity=0, time=6)\n",
      "Message('control_change', channel=0, control=64, value=0, time=14)\n",
      "Message('note_on', channel=0, note=52, velocity=84, time=68)\n",
      "Message('control_change', channel=0, control=64, value=25, time=27)\n",
      "Message('note_on', channel=0, note=52, velocity=0, time=12)\n",
      "Message('control_change', channel=0, control=64, value=68, time=5)\n",
      "Message('control_change', channel=0, control=64, value=86, time=20)\n",
      "Message('control_change', channel=0, control=64, value=106, time=20)\n",
      "Message('control_change', channel=0, control=64, value=125, time=19)\n",
      "Message('control_change', channel=0, control=67, value=66, time=1)\n",
      "Message('note_on', channel=0, note=60, velocity=84, time=190)\n",
      "Message('control_change', channel=0, control=64, value=118, time=10)\n",
      "Message('control_change', channel=0, control=64, value=90, time=19)\n",
      "Message('control_change', channel=0, control=64, value=52, time=20)\n",
      "Message('control_change', channel=0, control=64, value=0, time=17)\n",
      "Message('note_on', channel=0, note=60, velocity=0, time=0)\n",
      "Message('note_on', channel=0, note=57, velocity=76, time=73)\n",
      "Message('control_change', channel=0, control=64, value=23, time=61)\n",
      "Message('control_change', channel=0, control=64, value=44, time=18)\n",
      "Message('control_change', channel=0, control=64, value=52, time=20)\n",
      "Message('note_on', channel=0, note=57, velocity=0, time=19)\n",
      "Message('note_on', channel=0, note=60, velocity=76, time=1)\n",
      "Message('control_change', channel=0, control=64, value=54, time=18)\n",
      "Message('note_on', channel=0, note=60, velocity=0, time=39)\n",
      "Message('note_on', channel=0, note=64, velocity=76, time=72)\n",
      "Message('control_change', channel=0, control=64, value=56, time=3)\n",
      "Message('note_on', channel=0, note=64, velocity=0, time=44)\n",
      "Message('control_change', channel=0, control=64, value=43, time=70)\n",
      "Message('control_change', channel=0, control=64, value=0, time=16)\n",
      "Message('note_on', channel=0, note=54, velocity=79, time=0)\n",
      "Message('control_change', channel=0, control=64, value=52, time=96)\n",
      "Message('note_on', channel=0, note=54, velocity=0, time=2)\n",
      "Message('control_change', channel=0, control=67, value=62, time=1)\n",
      "Message('control_change', channel=0, control=64, value=69, time=16)\n",
      "Message('note_on', channel=0, note=62, velocity=73, time=9)\n",
      "Message('control_change', channel=0, control=64, value=78, time=8)\n",
      "Message('control_change', channel=0, control=64, value=83, time=19)\n",
      "Message('note_on', channel=0, note=62, velocity=0, time=66)\n",
      "Message('note_on', channel=0, note=60, velocity=81, time=28)\n",
      "Message('note_on', channel=0, note=60, velocity=0, time=51)\n",
      "Message('control_change', channel=0, control=64, value=79, time=23)\n",
      "Message('control_change', channel=0, control=64, value=60, time=19)\n",
      "Message('control_change', channel=0, control=64, value=0, time=19)\n",
      "Message('note_on', channel=0, note=59, velocity=79, time=39)\n",
      "Message('control_change', channel=0, control=64, value=53, time=35)\n",
      "Message('control_change', channel=0, control=64, value=69, time=17)\n",
      "Message('control_change', channel=0, control=64, value=78, time=22)\n",
      "Message('control_change', channel=0, control=64, value=81, time=17)\n",
      "Message('note_on', channel=0, note=59, velocity=0, time=3)\n",
      "Message('note_on', channel=0, note=55, velocity=64, time=35)\n",
      "Message('note_on', channel=0, note=55, velocity=0, time=43)\n",
      "Message('note_on', channel=0, note=50, velocity=72, time=79)\n",
      "Message('control_change', channel=0, control=64, value=74, time=50)\n",
      "Message('note_on', channel=0, note=50, velocity=0, time=12)\n",
      "Message('control_change', channel=0, control=64, value=64, time=6)\n",
      "Message('control_change', channel=0, control=64, value=48, time=20)\n",
      "Message('control_change', channel=0, control=64, value=41, time=19)\n",
      "Message('note_on', channel=0, note=55, velocity=76, time=23)\n",
      "Message('control_change', channel=0, control=64, value=23, time=32)\n",
      "Message('control_change', channel=0, control=64, value=0, time=19)\n",
      "Message('note_on', channel=0, note=55, velocity=0, time=34)\n",
      "Message('note_on', channel=0, note=50, velocity=68, time=38)\n",
      "Message('note_on', channel=0, note=50, velocity=0, time=53)\n",
      "Message('note_on', channel=0, note=62, velocity=69, time=84)\n",
      "Message('note_on', channel=0, note=45, velocity=51, time=8)\n",
      "Message('note_on', channel=0, note=47, velocity=50, time=25)\n",
      "Message('note_on', channel=0, note=47, velocity=0, time=37)\n",
      "Message('note_on', channel=0, note=45, velocity=0, time=2)\n",
      "Message('note_on', channel=0, note=43, velocity=70, time=60)\n",
      "Message('note_on', channel=0, note=59, velocity=70, time=3)\n",
      "Message('note_on', channel=0, note=62, velocity=0, time=11)\n",
      "Message('control_change', channel=0, control=67, value=66, time=75)\n",
      "Message('note_on', channel=0, note=55, velocity=61, time=59)\n",
      "Message('note_on', channel=0, note=59, velocity=0, time=2)\n",
      "Message('note_on', channel=0, note=55, velocity=0, time=72)\n",
      "Message('note_on', channel=0, note=60, velocity=63, time=62)\n",
      "Message('note_on', channel=0, note=52, velocity=56, time=4)\n",
      "Message('note_on', channel=0, note=52, velocity=0, time=115)\n",
      "Message('note_on', channel=0, note=59, velocity=63, time=19)\n",
      "Message('note_on', channel=0, note=60, velocity=0, time=1)\n",
      "Message('note_on', channel=0, note=50, velocity=52, time=14)\n",
      "Message('note_on', channel=0, note=59, velocity=0, time=63)\n",
      "Message('note_on', channel=0, note=55, velocity=53, time=43)\n",
      "Message('note_on', channel=0, note=55, velocity=0, time=62)\n",
      "Message('note_on', channel=0, note=43, velocity=0, time=80)\n",
      "Message('note_on', channel=0, note=62, velocity=58, time=6)\n",
      "Message('note_on', channel=0, note=42, velocity=64, time=9)\n",
      "Message('note_on', channel=0, note=62, velocity=0, time=64)\n",
      "Message('note_on', channel=0, note=42, velocity=0, time=28)\n",
      "Message('note_on', channel=0, note=59, velocity=55, time=39)\n",
      "Message('note_on', channel=0, note=43, velocity=61, time=8)\n",
      "Message('note_on', channel=0, note=59, velocity=0, time=79)\n",
      "Message('note_on', channel=0, note=55, velocity=43, time=54)\n",
      "Message('note_on', channel=0, note=55, velocity=0, time=108)\n",
      "Message('note_on', channel=0, note=50, velocity=0, time=18)\n",
      "Message('note_on', channel=0, note=60, velocity=55, time=20)\n",
      "Message('note_on', channel=0, note=52, velocity=55, time=5)\n",
      "Message('note_on', channel=0, note=52, velocity=0, time=104)\n",
      "Message('note_on', channel=0, note=60, velocity=0, time=17)\n",
      "Message('note_on', channel=0, note=59, velocity=57, time=6)\n",
      "Message('note_on', channel=0, note=50, velocity=52, time=1)\n",
      "Message('note_on', channel=0, note=59, velocity=0, time=88)\n",
      "Message('note_on', channel=0, note=55, velocity=55, time=47)\n",
      "Message('note_on', channel=0, note=43, velocity=0, time=130)\n",
      "Message('note_on', channel=0, note=42, velocity=60, time=4)\n",
      "Message('note_on', channel=0, note=62, velocity=67, time=6)\n",
      "Message('note_on', channel=0, note=55, velocity=0, time=18)\n",
      "Message('note_on', channel=0, note=42, velocity=0, time=44)\n",
      "Message('note_on', channel=0, note=43, velocity=64, time=62)\n",
      "Message('note_on', channel=0, note=62, velocity=0, time=8)\n",
      "Message('note_on', channel=0, note=59, velocity=69, time=5)\n",
      "Message('note_on', channel=0, note=50, velocity=0, time=34)\n",
      "Message('control_change', channel=0, control=67, value=62, time=29)\n",
      "Message('note_on', channel=0, note=43, velocity=0, time=60)\n",
      "Message('note_on', channel=0, note=59, velocity=0, time=11)\n",
      "Message('note_on', channel=0, note=47, velocity=61, time=1)\n",
      "Message('note_on', channel=0, note=62, velocity=68, time=2)\n",
      "Message('note_on', channel=0, note=47, velocity=0, time=107)\n",
      "Message('note_on', channel=0, note=62, velocity=0, time=1)\n",
      "Message('control_change', channel=0, control=67, value=58, time=8)\n",
      "Message('note_on', channel=0, note=65, velocity=68, time=12)\n",
      "Message('note_on', channel=0, note=50, velocity=60, time=1)\n",
      "Message('note_on', channel=0, note=65, velocity=0, time=99)\n",
      "Message('control_change', channel=0, control=64, value=39, time=17)\n",
      "Message('control_change', channel=0, control=67, value=54, time=1)\n",
      "Message('control_change', channel=0, control=64, value=55, time=19)\n",
      "Message('note_on', channel=0, note=47, velocity=62, time=4)\n",
      "Message('note_on', channel=0, note=55, velocity=73, time=1)\n",
      "Message('note_on', channel=0, note=50, velocity=0, time=1)\n",
      "Message('control_change', channel=0, control=64, value=50, time=12)\n",
      "Message('control_change', channel=0, control=64, value=48, time=17)\n",
      "Message('control_change', channel=0, control=64, value=46, time=20)\n",
      "Message('control_change', channel=0, control=64, value=48, time=37)\n",
      "Message('note_on', channel=0, note=47, velocity=0, time=21)\n",
      "Message('note_on', channel=0, note=43, velocity=62, time=15)\n",
      "Message('control_change', channel=0, control=64, value=46, time=21)\n",
      "Message('control_change', channel=0, control=64, value=39, time=94)\n",
      "Message('note_on', channel=0, note=43, velocity=0, time=9)\n",
      "Message('control_change', channel=0, control=64, value=28, time=9)\n",
      "Message('note_on', channel=0, note=48, velocity=65, time=7)\n",
      "Message('control_change', channel=0, control=64, value=19, time=13)\n",
      "Message('note_on', channel=0, note=64, velocity=69, time=12)\n",
      "Message('note_on', channel=0, note=55, velocity=0, time=35)\n",
      "Message('control_change', channel=0, control=64, value=13, time=8)\n",
      "Message('control_change', channel=0, control=64, value=0, time=20)\n",
      "Message('note_on', channel=0, note=48, velocity=0, time=42)\n",
      "Message('note_on', channel=0, note=45, velocity=69, time=15)\n",
      "Message('note_on', channel=0, note=60, velocity=73, time=12)\n",
      "Message('note_on', channel=0, note=64, velocity=0, time=12)\n",
      "Message('control_change', channel=0, control=67, value=49, time=15)\n",
      "Message('note_on', channel=0, note=48, velocity=69, time=87)\n",
      "Message('note_on', channel=0, note=45, velocity=0, time=4)\n",
      "Message('note_on', channel=0, note=64, velocity=74, time=11)\n",
      "Message('note_on', channel=0, note=60, velocity=0, time=3)\n",
      "Message('note_on', channel=0, note=48, velocity=0, time=92)\n",
      "Message('note_on', channel=0, note=64, velocity=0, time=15)\n",
      "Message('note_on', channel=0, note=67, velocity=77, time=13)\n",
      "Message('note_on', channel=0, note=52, velocity=62, time=10)\n",
      "Message('note_on', channel=0, note=52, velocity=0, time=89)\n",
      "Message('note_on', channel=0, note=67, velocity=0, time=0)\n",
      "Message('note_on', channel=0, note=48, velocity=65, time=23)\n",
      "Message('control_change', channel=0, control=67, value=45, time=9)\n",
      "Message('note_on', channel=0, note=57, velocity=78, time=0)\n",
      "Message('control_change', channel=0, control=64, value=27, time=20)\n",
      "Message('control_change', channel=0, control=64, value=31, time=18)\n",
      "Message('control_change', channel=0, control=64, value=45, time=20)\n",
      "Message('note_on', channel=0, note=48, velocity=0, time=3)\n",
      "Message('control_change', channel=0, control=64, value=54, time=32)\n",
      "Message('note_on', channel=0, note=45, velocity=65, time=45)\n",
      "Message('control_change', channel=0, control=64, value=51, time=106)\n",
      "Message('note_on', channel=0, note=45, velocity=0, time=13)\n",
      "Message('control_change', channel=0, control=64, value=48, time=23)\n",
      "Message('note_on', channel=0, note=50, velocity=66, time=2)\n",
      "Message('note_on', channel=0, note=65, velocity=77, time=9)\n",
      "Message('control_change', channel=0, control=64, value=45, time=28)\n",
      "Message('note_on', channel=0, note=57, velocity=0, time=11)\n",
      "Message('control_change', channel=0, control=64, value=42, time=8)\n",
      "Message('control_change', channel=0, control=64, value=38, time=19)\n",
      "Message('control_change', channel=0, control=64, value=33, time=37)\n",
      "Message('note_on', channel=0, note=50, velocity=0, time=1)\n",
      "Message('note_on', channel=0, note=47, velocity=65, time=19)\n",
      "Message('note_on', channel=0, note=62, velocity=82, time=8)\n",
      "Message('note_on', channel=0, note=65, velocity=0, time=10)\n",
      "Message('note_on', channel=0, note=50, velocity=68, time=113)\n",
      "Message('note_on', channel=0, note=65, velocity=80, time=6)\n",
      "Message('note_on', channel=0, note=62, velocity=0, time=4)\n",
      "Message('note_on', channel=0, note=47, velocity=0, time=9)\n",
      "Message('note_on', channel=0, note=50, velocity=0, time=94)\n",
      "Message('note_on', channel=0, note=65, velocity=0, time=21)\n",
      "Message('note_on', channel=0, note=53, velocity=65, time=3)\n",
      "Message('note_on', channel=0, note=69, velocity=80, time=4)\n",
      "Message('note_on', channel=0, note=69, velocity=0, time=95)\n",
      "Message('note_on', channel=0, note=50, velocity=65, time=30)\n",
      "Message('note_on', channel=0, note=53, velocity=0, time=1)\n",
      "Message('note_on', channel=0, note=59, velocity=73, time=4)\n",
      "Message('note_on', channel=0, note=47, velocity=66, time=120)\n",
      "Message('note_on', channel=0, note=50, velocity=0, time=3)\n",
      "Message('note_on', channel=0, note=67, velocity=77, time=4)\n",
      "Message('note_on', channel=0, note=59, velocity=0, time=2)\n",
      "Message('control_change', channel=0, control=64, value=28, time=125)\n",
      "Message('note_on', channel=0, note=67, velocity=0, time=8)\n",
      "Message('note_on', channel=0, note=65, velocity=76, time=4)\n",
      "Message('note_on', channel=0, note=47, velocity=0, time=9)\n",
      "Message('note_on', channel=0, note=50, velocity=71, time=3)\n",
      "Message('control_change', channel=0, control=64, value=13, time=15)\n",
      "Message('control_change', channel=0, control=67, value=49, time=1)\n",
      "Message('control_change', channel=0, control=64, value=0, time=17)\n",
      "Message('note_on', channel=0, note=50, velocity=0, time=64)\n",
      "Message('note_on', channel=0, note=64, velocity=70, time=22)\n",
      "Message('note_on', channel=0, note=65, velocity=0, time=5)\n",
      "Message('note_on', channel=0, note=48, velocity=70, time=11)\n",
      "Message('control_change', channel=0, control=64, value=23, time=87)\n",
      "Message('control_change', channel=0, control=64, value=41, time=20)\n",
      "Message('control_change', channel=0, control=64, value=47, time=18)\n",
      "Message('note_on', channel=0, note=52, velocity=60, time=9)\n",
      "Message('note_on', channel=0, note=64, velocity=0, time=4)\n",
      "Message('control_change', channel=0, control=64, value=51, time=2)\n",
      "Message('note_on', channel=0, note=48, velocity=0, time=2)\n",
      "Message('note_on', channel=0, note=52, velocity=0, time=67)\n",
      "Message('note_on', channel=0, note=55, velocity=66, time=39)\n",
      "Message('control_change', channel=0, control=64, value=48, time=27)\n",
      "Message('control_change', channel=0, control=64, value=44, time=19)\n",
      "Message('control_change', channel=0, control=64, value=41, time=19)\n",
      "Message('note_on', channel=0, note=55, velocity=0, time=32)\n",
      "Message('control_change', channel=0, control=64, value=36, time=25)\n",
      "Message('note_on', channel=0, note=52, velocity=64, time=1)\n",
      "Message('control_change', channel=0, control=64, value=30, time=36)\n",
      "Message('control_change', channel=0, control=64, value=26, time=57)\n",
      "Message('note_on', channel=0, note=52, velocity=0, time=17)\n",
      "Message('note_on', channel=0, note=48, velocity=58, time=15)\n",
      "Message('control_change', channel=0, control=64, value=22, time=24)\n",
      "Message('control_change', channel=0, control=64, value=16, time=77)\n",
      "Message('note_on', channel=0, note=48, velocity=0, time=10)\n",
      "Message('note_on', channel=0, note=60, velocity=68, time=19)\n",
      "Message('note_on', channel=0, note=52, velocity=66, time=2)\n",
      "Message('control_change', channel=0, control=64, value=9, time=44)\n",
      "Message('control_change', channel=0, control=64, value=0, time=18)\n",
      "Message('note_on', channel=0, note=52, velocity=0, time=1)\n",
      "Message('note_on', channel=0, note=57, velocity=73, time=95)\n",
      "Message('note_on', channel=0, note=42, velocity=72, time=9)\n",
      "Message('note_on', channel=0, note=60, velocity=0, time=1)\n",
      "Message('control_change', channel=0, control=64, value=32, time=62)\n",
      "Message('note_on', channel=0, note=57, velocity=0, time=7)\n",
      "Message('note_on', channel=0, note=60, velocity=76, time=41)\n",
      "Message('note_on', channel=0, note=64, velocity=76, time=135)\n",
      "Message('note_on', channel=0, note=60, velocity=0, time=11)\n",
      "Message('note_on', channel=0, note=42, velocity=0, time=70)\n",
      "Message('note_on', channel=0, note=64, velocity=0, time=49)\n",
      "Message('note_on', channel=0, note=60, velocity=78, time=1)\n",
      "Message('control_change', channel=0, control=64, value=37, time=42)\n",
      "Message('control_change', channel=0, control=64, value=40, time=58)\n",
      "Message('note_on', channel=0, note=57, velocity=81, time=14)\n",
      "Message('control_change', channel=0, control=64, value=42, time=5)\n",
      "Message('note_on', channel=0, note=60, velocity=0, time=4)\n",
      "Message('control_change', channel=0, control=64, value=45, time=16)\n",
      "Message('control_change', channel=0, control=64, value=49, time=18)\n",
      "Message('control_change', channel=0, control=64, value=54, time=18)\n",
      "Message('note_on', channel=0, note=57, velocity=0, time=15)\n",
      "Message('control_change', channel=0, control=64, value=57, time=3)\n",
      "Message('control_change', channel=0, control=64, value=54, time=39)\n",
      "Message('note_on', channel=0, note=60, velocity=83, time=7)\n",
      "Message('note_on', channel=0, note=45, velocity=73, time=3)\n",
      "Message('control_change', channel=0, control=64, value=0, time=6)\n",
      "Message('note_on', channel=0, note=60, velocity=0, time=79)\n",
      "Message('note_on', channel=0, note=45, velocity=0, time=33)\n",
      "Message('note_on', channel=0, note=47, velocity=71, time=0)\n",
      "Message('control_change', channel=0, control=64, value=27, time=4)\n",
      "Message('control_change', channel=0, control=64, value=39, time=19)\n",
      "Message('note_on', channel=0, note=54, velocity=74, time=3)\n",
      "Message('note_on', channel=0, note=54, velocity=0, time=31)\n",
      "Message('control_change', channel=0, control=64, value=29, time=3)\n",
      "Message('control_change', channel=0, control=67, value=53, time=1)\n",
      "Message('control_change', channel=0, control=67, value=59, time=38)\n",
      "Message('note_on', channel=0, note=47, velocity=0, time=38)\n",
      "Message('note_on', channel=0, note=50, velocity=66, time=1)\n",
      "Message('control_change', channel=0, control=67, value=63, time=108)\n",
      "Message('note_on', channel=0, note=50, velocity=0, time=19)\n",
      "Message('note_on', channel=0, note=62, velocity=83, time=32)\n",
      "Message('control_change', channel=0, control=64, value=23, time=6)\n",
      "Message('note_on', channel=0, note=54, velocity=68, time=0)\n",
      "Message('note_on', channel=0, note=62, velocity=0, time=22)\n",
      "Message('note_on', channel=0, note=54, velocity=0, time=24)\n",
      "Message('control_change', channel=0, control=64, value=18, time=28)\n",
      "Message('control_change', channel=0, control=64, value=0, time=19)\n",
      "Message('note_on', channel=0, note=50, velocity=72, time=22)\n",
      "Message('note_on', channel=0, note=60, velocity=80, time=11)\n",
      "Message('note_on', channel=0, note=59, velocity=68, time=26)\n",
      "Message('note_on', channel=0, note=60, velocity=0, time=7)\n",
      "Message('control_change', channel=0, control=64, value=23, time=31)\n",
      "Message('control_change', channel=0, control=64, value=57, time=18)\n",
      "Message('note_on', channel=0, note=60, velocity=61, time=12)\n",
      "Message('control_change', channel=0, control=64, value=55, time=5)\n",
      "Message('note_on', channel=0, note=47, velocity=73, time=5)\n",
      "Message('note_on', channel=0, note=59, velocity=0, time=9)\n",
      "Message('control_change', channel=0, control=64, value=48, time=4)\n",
      "Message('note_on', channel=0, note=50, velocity=0, time=9)\n",
      "Message('control_change', channel=0, control=64, value=28, time=11)\n",
      "Message('control_change', channel=0, control=64, value=0, time=21)\n",
      "Message('note_on', channel=0, note=59, velocity=58, time=13)\n",
      "Message('control_change', channel=0, control=64, value=13, time=3)\n",
      "Message('note_on', channel=0, note=60, velocity=0, time=10)\n",
      "Message('control_change', channel=0, control=64, value=36, time=8)\n",
      "Message('control_change', channel=0, control=64, value=43, time=19)\n",
      "Message('note_on', channel=0, note=47, velocity=0, time=28)\n",
      "Message('control_change', channel=0, control=64, value=28, time=12)\n",
      "Message('note_on', channel=0, note=59, velocity=0, time=8)\n",
      "Message('note_on', channel=0, note=50, velocity=63, time=3)\n",
      "Message('note_on', channel=0, note=57, velocity=80, time=7)\n",
      "Message('control_change', channel=0, control=64, value=0, time=2)\n",
      "Message('note_on', channel=0, note=50, velocity=0, time=45)\n",
      "Message('note_on', channel=0, note=40, velocity=76, time=53)\n",
      "Message('note_on', channel=0, note=55, velocity=75, time=38)\n",
      "Message('note_on', channel=0, note=57, velocity=0, time=1)\n",
      "Message('control_change', channel=0, control=64, value=11, time=13)\n",
      "Message('control_change', channel=0, control=64, value=48, time=18)\n",
      "Message('control_change', channel=0, control=64, value=42, time=38)\n",
      "Message('control_change', channel=0, control=64, value=36, time=18)\n",
      "Message('note_on', channel=0, note=55, velocity=0, time=0)\n",
      "Message('note_on', channel=0, note=59, velocity=80, time=30)\n",
      "Message('control_change', channel=0, control=64, value=50, time=9)\n",
      "Message('control_change', channel=0, control=64, value=58, time=20)\n",
      "Message('control_change', channel=0, control=64, value=60, time=16)\n",
      "Message('control_change', channel=0, control=64, value=50, time=21)\n",
      "Message('control_change', channel=0, control=64, value=0, time=18)\n",
      "Message('note_on', channel=0, note=59, velocity=0, time=49)\n",
      "Message('control_change', channel=0, control=64, value=33, time=7)\n",
      "Message('note_on', channel=0, note=62, velocity=78, time=0)\n",
      "Message('control_change', channel=0, control=64, value=57, time=19)\n",
      "Message('control_change', channel=0, control=64, value=66, time=20)\n",
      "Message('control_change', channel=0, control=64, value=65, time=19)\n",
      "Message('note_on', channel=0, note=62, velocity=0, time=21)\n",
      "Message('note_on', channel=0, note=40, velocity=0, time=3)\n",
      "Message('control_change', channel=0, control=64, value=61, time=10)\n",
      "Message('control_change', channel=0, control=64, value=54, time=18)\n",
      "Message('note_on', channel=0, note=59, velocity=79, time=29)\n",
      "Message('control_change', channel=0, control=64, value=61, time=10)\n",
      "Message('control_change', channel=0, control=64, value=65, time=18)\n",
      "Message('note_on', channel=0, note=59, velocity=0, time=44)\n",
      "Message('control_change', channel=0, control=64, value=62, time=13)\n",
      "Message('control_change', channel=0, control=64, value=60, time=20)\n",
      "Message('note_on', channel=0, note=55, velocity=80, time=8)\n",
      "Message('control_change', channel=0, control=64, value=62, time=29)\n",
      "Message('note_on', channel=0, note=55, velocity=0, time=23)\n",
      "Message('control_change', channel=0, control=64, value=65, time=71)\n",
      "Message('note_on', channel=0, note=43, velocity=69, time=0)\n",
      "Message('note_on', channel=0, note=59, velocity=74, time=11)\n",
      "Message('control_change', channel=0, control=64, value=66, time=7)\n",
      "Message('control_change', channel=0, control=64, value=58, time=38)\n",
      "Message('control_change', channel=0, control=64, value=0, time=19)\n",
      "Message('note_on', channel=0, note=59, velocity=0, time=0)\n",
      "Message('note_on', channel=0, note=43, velocity=0, time=49)\n",
      "Message('note_on', channel=0, note=45, velocity=68, time=4)\n",
      "Message('note_on', channel=0, note=52, velocity=71, time=13)\n",
      "Message('note_on', channel=0, note=52, velocity=0, time=38)\n",
      "Message('control_change', channel=0, control=67, value=67, time=49)\n",
      "Message('note_on', channel=0, note=45, velocity=0, time=33)\n",
      "Message('note_on', channel=0, note=48, velocity=61, time=10)\n",
      "Message('control_change', channel=0, control=67, value=71, time=106)\n",
      "Message('note_on', channel=0, note=48, velocity=0, time=1)\n",
      "Message('note_on', channel=0, note=60, velocity=74, time=30)\n",
      "Message('note_on', channel=0, note=52, velocity=56, time=1)\n",
      "Message('note_on', channel=0, note=60, velocity=0, time=123)\n",
      "Message('note_on', channel=0, note=52, velocity=0, time=5)\n",
      "Message('note_on', channel=0, note=48, velocity=55, time=7)\n",
      "Message('note_on', channel=0, note=57, velocity=72, time=8)\n",
      "Message('control_change', channel=0, control=64, value=48, time=52)\n",
      "Message('control_change', channel=0, control=67, value=75, time=0)\n",
      "Message('control_change', channel=0, control=64, value=61, time=19)\n",
      "Message('control_change', channel=0, control=64, value=65, time=18)\n",
      "Message('control_change', channel=0, control=64, value=66, time=35)\n",
      "Message('control_change', channel=0, control=64, value=69, time=18)\n",
      "Message('note_on', channel=0, note=48, velocity=0, time=9)\n",
      "Message('note_on', channel=0, note=45, velocity=49, time=9)\n",
      "Message('control_change', channel=0, control=64, value=74, time=2)\n",
      "Message('control_change', channel=0, control=64, value=80, time=17)\n",
      "Message('control_change', channel=0, control=64, value=84, time=20)\n",
      "Message('control_change', channel=0, control=64, value=87, time=15)\n",
      "Message('control_change', channel=0, control=64, value=95, time=39)\n",
      "Message('control_change', channel=0, control=64, value=101, time=17)\n",
      "Message('note_on', channel=0, note=57, velocity=0, time=14)\n",
      "Message('note_on', channel=0, note=67, velocity=75, time=0)\n",
      "Message('control_change', channel=0, control=64, value=106, time=5)\n",
      "Message('note_on', channel=0, note=48, velocity=65, time=7)\n",
      "Message('control_change', channel=0, control=64, value=102, time=8)\n",
      "Message('note_on', channel=0, note=45, velocity=0, time=12)\n",
      "Message('control_change', channel=0, control=64, value=84, time=8)\n",
      "Message('control_change', channel=0, control=64, value=51, time=22)\n",
      "Message('control_change', channel=0, control=64, value=0, time=17)\n",
      "Message('note_on', channel=0, note=67, velocity=0, time=39)\n",
      "Message('note_on', channel=0, note=48, velocity=0, time=4)\n",
      "Message('note_on', channel=0, note=66, velocity=66, time=6)\n",
      "Message('note_on', channel=0, note=50, velocity=70, time=16)\n",
      "Message('note_on', channel=0, note=50, velocity=0, time=85)\n",
      "Message('note_on', channel=0, note=50, velocity=52, time=0)\n",
      "Message('note_on', channel=0, note=66, velocity=0, time=24)\n",
      "Message('note_on', channel=0, note=62, velocity=63, time=14)\n",
      "Message('note_on', channel=0, note=62, velocity=0, time=63)\n",
      "Message('note_on', channel=0, note=59, velocity=74, time=62)\n",
      "Message('note_on', channel=0, note=67, velocity=66, time=3)\n",
      "Message('note_on', channel=0, note=67, velocity=0, time=60)\n",
      "Message('note_on', channel=0, note=59, velocity=0, time=59)\n",
      "Message('note_on', channel=0, note=66, velocity=64, time=15)\n",
      "Message('note_on', channel=0, note=57, velocity=62, time=4)\n",
      "Message('note_on', channel=0, note=66, velocity=0, time=90)\n",
      "Message('note_on', channel=0, note=62, velocity=56, time=32)\n",
      "Message('note_on', channel=0, note=62, velocity=0, time=68)\n",
      "Message('note_on', channel=0, note=50, velocity=0, time=74)\n",
      "Message('note_on', channel=0, note=49, velocity=73, time=7)\n",
      "Message('note_on', channel=0, note=69, velocity=68, time=1)\n",
      "Message('note_on', channel=0, note=49, velocity=0, time=86)\n",
      "Message('note_on', channel=0, note=69, velocity=0, time=15)\n",
      "Message('note_on', channel=0, note=66, velocity=63, time=36)\n",
      "Message('note_on', channel=0, note=50, velocity=60, time=10)\n",
      "Message('note_on', channel=0, note=66, velocity=0, time=94)\n",
      "Message('note_on', channel=0, note=62, velocity=60, time=27)\n",
      "Message('note_on', channel=0, note=62, velocity=0, time=56)\n",
      "Message('note_on', channel=0, note=57, velocity=0, time=67)\n",
      "Message('note_on', channel=0, note=59, velocity=63, time=9)\n",
      "Message('note_on', channel=0, note=67, velocity=66, time=5)\n",
      "Message('note_on', channel=0, note=59, velocity=0, time=121)\n",
      "Message('note_on', channel=0, note=67, velocity=0, time=7)\n",
      "Message('note_on', channel=0, note=66, velocity=66, time=2)\n",
      "Message('note_on', channel=0, note=57, velocity=67, time=9)\n",
      "Message('note_on', channel=0, note=66, velocity=0, time=82)\n",
      "Message('note_on', channel=0, note=62, velocity=62, time=39)\n",
      "Message('note_on', channel=0, note=62, velocity=0, time=122)\n",
      "Message('note_on', channel=0, note=49, velocity=68, time=21)\n",
      "Message('note_on', channel=0, note=69, velocity=71, time=3)\n",
      "Message('note_on', channel=0, note=50, velocity=0, time=2)\n",
      "Message('note_on', channel=0, note=49, velocity=0, time=63)\n",
      "Message('note_on', channel=0, note=50, velocity=71, time=90)\n",
      "Message('note_on', channel=0, note=69, velocity=0, time=2)\n",
      "Message('note_on', channel=0, note=66, velocity=73, time=5)\n",
      "Message('note_on', channel=0, note=57, velocity=0, time=99)\n",
      "Message('note_on', channel=0, note=54, velocity=68, time=17)\n",
      "Message('note_on', channel=0, note=50, velocity=0, time=5)\n",
      "Message('note_on', channel=0, note=69, velocity=80, time=2)\n",
      "Message('note_on', channel=0, note=66, velocity=0, time=5)\n",
      "Message('note_on', channel=0, note=69, velocity=0, time=83)\n",
      "Message('note_on', channel=0, note=54, velocity=0, time=29)\n",
      "Message('note_on', channel=0, note=57, velocity=65, time=9)\n",
      "Message('note_on', channel=0, note=72, velocity=77, time=2)\n",
      "Message('note_on', channel=0, note=72, velocity=0, time=95)\n",
      "Message('note_on', channel=0, note=54, velocity=67, time=28)\n",
      "Message('note_on', channel=0, note=57, velocity=0, time=1)\n",
      "Message('note_on', channel=0, note=62, velocity=79, time=12)\n",
      "Message('control_change', channel=0, control=64, value=9, time=20)\n",
      "Message('control_change', channel=0, control=64, value=20, time=21)\n",
      "Message('note_on', channel=0, note=54, velocity=0, time=12)\n",
      "Message('control_change', channel=0, control=64, value=26, time=5)\n",
      "Message('note_on', channel=0, note=50, velocity=70, time=60)\n",
      "Message('note_on', channel=0, note=50, velocity=0, time=75)\n",
      "Message('note_on', channel=0, note=55, velocity=64, time=69)\n",
      "Message('note_on', channel=0, note=71, velocity=79, time=9)\n",
      "Message('control_change', channel=0, control=67, value=71, time=14)\n",
      "Message('note_on', channel=0, note=62, velocity=0, time=33)\n",
      "Message('control_change', channel=0, control=64, value=16, time=42)\n",
      "Message('control_change', channel=0, control=64, value=0, time=18)\n",
      "Message('note_on', channel=0, note=55, velocity=0, time=9)\n",
      "Message('note_on', channel=0, note=71, velocity=0, time=11)\n",
      "Message('note_on', channel=0, note=52, velocity=70, time=2)\n",
      "Message('note_on', channel=0, note=67, velocity=83, time=7)\n",
      "Message('control_change', channel=0, control=67, value=67, time=29)\n",
      "Message('note_on', channel=0, note=67, velocity=0, time=54)\n",
      "Message('note_on', channel=0, note=55, velocity=71, time=48)\n",
      "Message('note_on', channel=0, note=52, velocity=0, time=5)\n",
      "Message('note_on', channel=0, note=71, velocity=84, time=1)\n",
      "Message('note_on', channel=0, note=71, velocity=0, time=89)\n",
      "Message('note_on', channel=0, note=55, velocity=0, time=25)\n",
      "Message('note_on', channel=0, note=74, velocity=81, time=15)\n",
      "Message('note_on', channel=0, note=59, velocity=67, time=10)\n",
      "Message('note_on', channel=0, note=74, velocity=0, time=76)\n",
      "Message('note_on', channel=0, note=59, velocity=0, time=29)\n",
      "Message('note_on', channel=0, note=55, velocity=69, time=6)\n",
      "Message('note_on', channel=0, note=64, velocity=77, time=14)\n",
      "Message('control_change', channel=0, control=64, value=23, time=41)\n",
      "Message('control_change', channel=0, control=64, value=34, time=17)\n",
      "Message('control_change', channel=0, control=64, value=39, time=19)\n",
      "Message('note_on', channel=0, note=55, velocity=0, time=11)\n",
      "Message('note_on', channel=0, note=52, velocity=71, time=27)\n",
      "Message('note_on', channel=0, note=52, velocity=0, time=133)\n",
      "Message('note_on', channel=0, note=57, velocity=70, time=5)\n",
      "Message('note_on', channel=0, note=72, velocity=81, time=9)\n",
      "Message('note_on', channel=0, note=64, velocity=0, time=19)\n",
      "Message('note_on', channel=0, note=57, velocity=0, time=87)\n",
      "Message('note_on', channel=0, note=54, velocity=72, time=17)\n",
      "Message('note_on', channel=0, note=69, velocity=84, time=5)\n",
      "Message('note_on', channel=0, note=72, velocity=0, time=6)\n",
      "Message('control_change', channel=0, control=64, value=0, time=1)\n",
      "Message('note_on', channel=0, note=57, velocity=68, time=116)\n",
      "Message('note_on', channel=0, note=72, velocity=84, time=7)\n",
      "Message('note_on', channel=0, note=69, velocity=0, time=1)\n",
      "Message('control_change', channel=0, control=64, value=18, time=7)\n",
      "Message('note_on', channel=0, note=54, velocity=0, time=11)\n",
      "Message('control_change', channel=0, control=64, value=0, time=29)\n",
      "Message('note_on', channel=0, note=57, velocity=0, time=45)\n",
      "Message('control_change', channel=0, control=64, value=20, time=11)\n",
      "Message('note_on', channel=0, note=72, velocity=0, time=12)\n",
      "Message('control_change', channel=0, control=64, value=30, time=6)\n",
      "Message('note_on', channel=0, note=60, velocity=69, time=5)\n",
      "Message('note_on', channel=0, note=76, velocity=82, time=0)\n",
      "Message('control_change', channel=0, control=64, value=0, time=49)\n",
      "Message('note_on', channel=0, note=76, velocity=0, time=81)\n",
      "Message('note_on', channel=0, note=57, velocity=73, time=3)\n",
      "Message('note_on', channel=0, note=60, velocity=0, time=14)\n",
      "Message('note_on', channel=0, note=66, velocity=82, time=6)\n",
      "Message('control_change', channel=0, control=64, value=34, time=9)\n",
      "Message('control_change', channel=0, control=67, value=71, time=1)\n",
      "Message('control_change', channel=0, control=64, value=49, time=18)\n",
      "Message('note_on', channel=0, note=66, velocity=0, time=47)\n",
      "Message('note_on', channel=0, note=57, velocity=0, time=5)\n",
      "Message('note_on', channel=0, note=54, velocity=69, time=33)\n",
      "Message('note_on', channel=0, note=74, velocity=79, time=8)\n",
      "Message('control_change', channel=0, control=64, value=53, time=2)\n",
      "Message('control_change', channel=0, control=64, value=56, time=19)\n",
      "Message('control_change', channel=0, control=64, value=58, time=19)\n",
      "Message('control_change', channel=0, control=64, value=61, time=56)\n",
      "Message('note_on', channel=0, note=57, velocity=76, time=17)\n",
      "Message('control_change', channel=0, control=64, value=62, time=2)\n",
      "Message('note_on', channel=0, note=54, velocity=0, time=8)\n",
      "Message('note_on', channel=0, note=72, velocity=80, time=5)\n",
      "Message('control_change', channel=0, control=64, value=63, time=6)\n",
      "Message('note_on', channel=0, note=74, velocity=0, time=10)\n",
      "Message('control_change', channel=0, control=64, value=61, time=8)\n",
      "Message('note_on', channel=0, note=57, velocity=0, time=9)\n",
      "Message('control_change', channel=0, control=64, value=27, time=10)\n",
      "Message('control_change', channel=0, control=64, value=0, time=19)\n",
      "Message('note_on', channel=0, note=72, velocity=0, time=26)\n",
      "Message('note_on', channel=0, note=55, velocity=85, time=33)\n",
      "Message('note_on', channel=0, note=71, velocity=82, time=10)\n",
      "Message('control_change', channel=0, control=64, value=23, time=5)\n",
      "Message('control_change', channel=0, control=64, value=61, time=22)\n",
      "Message('control_change', channel=0, control=64, value=69, time=20)\n",
      "Message('control_change', channel=0, control=64, value=68, time=56)\n",
      "Message('note_on', channel=0, note=71, velocity=0, time=6)\n",
      "Message('note_on', channel=0, note=59, velocity=73, time=8)\n",
      "Message('note_on', channel=0, note=74, velocity=82, time=11)\n",
      "Message('note_on', channel=0, note=55, velocity=0, time=5)\n",
      "Message('note_on', channel=0, note=59, velocity=0, time=84)\n",
      "Message('control_change', channel=0, control=64, value=70, time=17)\n",
      "Message('note_on', channel=0, note=62, velocity=76, time=11)\n",
      "Message('note_on', channel=0, note=79, velocity=76, time=13)\n",
      "Message('note_on', channel=0, note=74, velocity=0, time=7)\n",
      "Message('note_on', channel=0, note=62, velocity=0, time=27)\n",
      "Message('control_change', channel=0, control=64, value=50, time=16)\n",
      "Message('control_change', channel=0, control=64, value=0, time=19)\n",
      "Message('note_on', channel=0, note=79, velocity=0, time=11)\n",
      "Message('note_on', channel=0, note=59, velocity=83, time=27)\n",
      "Message('note_on', channel=0, note=74, velocity=89, time=20)\n",
      "Message('control_change', channel=0, control=64, value=59, time=39)\n",
      "Message('control_change', channel=0, control=64, value=70, time=16)\n",
      "Message('control_change', channel=0, control=64, value=72, time=35)\n",
      "Message('note_on', channel=0, note=62, velocity=78, time=35)\n",
      "Message('control_change', channel=0, control=64, value=70, time=5)\n",
      "Message('note_on', channel=0, note=59, velocity=0, time=8)\n",
      "Message('note_on', channel=0, note=74, velocity=0, time=4)\n",
      "Message('note_on', channel=0, note=79, velocity=64, time=3)\n",
      "Message('note_on', channel=0, note=77, velocity=70, time=16)\n",
      "Message('note_on', channel=0, note=62, velocity=0, time=49)\n",
      "Message('note_on', channel=0, note=77, velocity=0, time=5)\n",
      "Message('control_change', channel=0, control=64, value=72, time=25)\n",
      "Message('note_on', channel=0, note=67, velocity=74, time=16)\n",
      "Message('note_on', channel=0, note=84, velocity=61, time=10)\n",
      "Message('note_on', channel=0, note=83, velocity=67, time=5)\n",
      "Message('note_on', channel=0, note=79, velocity=0, time=1)\n",
      "Message('control_change', channel=0, control=64, value=74, time=24)\n",
      "Message('note_on', channel=0, note=83, velocity=0, time=7)\n",
      "Message('note_on', channel=0, note=84, velocity=0, time=0)\n",
      "Message('note_on', channel=0, note=67, velocity=0, time=3)\n",
      "Message('control_change', channel=0, control=64, value=69, time=49)\n",
      "Message('control_change', channel=0, control=64, value=32, time=18)\n",
      "Message('note_on', channel=0, note=60, velocity=76, time=17)\n",
      "Message('note_on', channel=0, note=76, velocity=83, time=1)\n",
      "Message('control_change', channel=0, control=64, value=0, time=2)\n",
      "Message('control_change', channel=0, control=64, value=16, time=75)\n",
      "Message('note_on', channel=0, note=76, velocity=0, time=12)\n",
      "Message('control_change', channel=0, control=64, value=44, time=7)\n",
      "Message('control_change', channel=0, control=64, value=56, time=18)\n",
      "Message('control_change', channel=0, control=64, value=59, time=18)\n",
      "Message('note_on', channel=0, note=64, velocity=66, time=0)\n",
      "Message('note_on', channel=0, note=60, velocity=0, time=12)\n",
      "Message('note_on', channel=0, note=79, velocity=57, time=6)\n",
      "Message('note_on', channel=0, note=81, velocity=53, time=6)\n",
      "Message('note_on', channel=0, note=81, velocity=0, time=30)\n",
      "Message('control_change', channel=0, control=64, value=61, time=4)\n",
      "Message('note_on', channel=0, note=79, velocity=0, time=10)\n",
      "Message('note_on', channel=0, note=64, velocity=0, time=6)\n",
      "Message('control_change', channel=0, control=64, value=63, time=3)\n",
      "Message('control_change', channel=0, control=64, value=64, time=37)\n",
      "Message('note_on', channel=0, note=71, velocity=70, time=8)\n",
      "Message('note_on', channel=0, note=67, velocity=65, time=20)\n",
      "Message('note_on', channel=0, note=67, velocity=0, time=43)\n",
      "Message('note_on', channel=0, note=71, velocity=0, time=2)\n",
      "Message('control_change', channel=0, control=64, value=63, time=2)\n",
      "Message('control_change', channel=0, control=64, value=47, time=19)\n",
      "Message('control_change', channel=0, control=64, value=0, time=19)\n",
      "Message('note_on', channel=0, note=72, velocity=76, time=23)\n",
      "Message('note_on', channel=0, note=64, velocity=70, time=8)\n",
      "Message('control_change', channel=0, control=64, value=19, time=44)\n",
      "Message('note_on', channel=0, note=64, velocity=0, time=13)\n",
      "Message('note_on', channel=0, note=72, velocity=0, time=1)\n",
      "Message('control_change', channel=0, control=64, value=52, time=4)\n",
      "Message('control_change', channel=0, control=64, value=65, time=20)\n",
      "Message('control_change', channel=0, control=64, value=68, time=19)\n",
      "Message('note_on', channel=0, note=76, velocity=76, time=19)\n",
      "Message('note_on', channel=0, note=60, velocity=76, time=7)\n",
      "Message('control_change', channel=0, control=64, value=70, time=32)\n",
      "Message('note_on', channel=0, note=76, velocity=0, time=19)\n",
      "Message('note_on', channel=0, note=60, velocity=0, time=19)\n",
      "Message('control_change', channel=0, control=64, value=72, time=37)\n",
      "Message('note_on', channel=0, note=64, velocity=78, time=4)\n",
      "Message('note_on', channel=0, note=67, velocity=78, time=25)\n",
      "Message('control_change', channel=0, control=64, value=74, time=4)\n",
      "Message('note_on', channel=0, note=64, velocity=0, time=14)\n",
      "Message('control_change', channel=0, control=64, value=77, time=5)\n",
      "Message('note_on', channel=0, note=67, velocity=0, time=7)\n",
      "Message('control_change', channel=0, control=64, value=65, time=33)\n",
      "Message('control_change', channel=0, control=64, value=0, time=17)\n",
      "Message('control_change', channel=0, control=67, value=76, time=1)\n",
      "Message('note_on', channel=0, note=54, velocity=82, time=36)\n",
      "Message('note_on', channel=0, note=69, velocity=90, time=9)\n",
      "Message('control_change', channel=0, control=64, value=27, time=29)\n",
      "Message('control_change', channel=0, control=64, value=62, time=19)\n",
      "Message('control_change', channel=0, control=64, value=75, time=20)\n",
      "Message('control_change', channel=0, control=64, value=79, time=18)\n",
      "Message('control_change', channel=0, control=67, value=81, time=1)\n",
      "Message('control_change', channel=0, control=64, value=76, time=19)\n",
      "Message('note_on', channel=0, note=69, velocity=0, time=5)\n",
      "Message('note_on', channel=0, note=57, velocity=72, time=5)\n",
      "Message('control_change', channel=0, control=64, value=74, time=9)\n",
      "Message('note_on', channel=0, note=54, velocity=0, time=12)\n",
      "Message('note_on', channel=0, note=72, velocity=79, time=1)\n",
      "Message('control_change', channel=0, control=64, value=76, time=62)\n",
      "Message('note_on', channel=0, note=57, velocity=0, time=11)\n",
      "Message('note_on', channel=0, note=72, velocity=0, time=26)\n",
      "Message('note_on', channel=0, note=60, velocity=76, time=10)\n",
      "Message('note_on', channel=0, note=78, velocity=77, time=13)\n",
      "Message('note_on', channel=0, note=60, velocity=0, time=26)\n",
      "Message('control_change', channel=0, control=64, value=71, time=26)\n",
      "Message('control_change', channel=0, control=64, value=38, time=20)\n",
      "Message('note_on', channel=0, note=78, velocity=0, time=0)\n",
      "Message('control_change', channel=0, control=64, value=0, time=20)\n",
      "Message('note_on', channel=0, note=57, velocity=82, time=24)\n",
      "Message('note_on', channel=0, note=72, velocity=88, time=9)\n",
      "Message('control_change', channel=0, control=64, value=36, time=42)\n",
      "Message('control_change', channel=0, control=64, value=65, time=18)\n",
      "Message('control_change', channel=0, control=64, value=73, time=19)\n",
      "Message('note_on', channel=0, note=72, velocity=0, time=26)\n",
      "Message('note_on', channel=0, note=60, velocity=72, time=3)\n",
      "Message('note_on', channel=0, note=57, velocity=0, time=8)\n",
      "Message('note_on', channel=0, note=78, velocity=77, time=18)\n",
      "Message('note_on', channel=0, note=60, velocity=0, time=74)\n",
      "Message('note_on', channel=0, note=66, velocity=64, time=40)\n",
      "Message('control_change', channel=0, control=64, value=76, time=1)\n",
      "Message('note_on', channel=0, note=78, velocity=0, time=6)\n",
      "Message('note_on', channel=0, note=81, velocity=78, time=4)\n",
      "Message('control_change', channel=0, control=64, value=78, time=8)\n",
      "Message('note_on', channel=0, note=66, velocity=0, time=26)\n",
      "Message('note_on', channel=0, note=81, velocity=0, time=26)\n",
      "Message('control_change', channel=0, control=64, value=66, time=6)\n",
      "Message('control_change', channel=0, control=64, value=0, time=18)\n",
      "Message('note_on', channel=0, note=59, velocity=68, time=37)\n",
      "Message('note_on', channel=0, note=75, velocity=81, time=5)\n",
      "Message('control_change', channel=0, control=64, value=36, time=67)\n",
      "Message('note_on', channel=0, note=75, velocity=0, time=12)\n",
      "Message('control_change', channel=0, control=64, value=65, time=8)\n",
      "Message('control_change', channel=0, control=64, value=67, time=19)\n",
      "Message('note_on', channel=0, note=59, velocity=0, time=5)\n",
      "Message('control_change', channel=0, control=64, value=65, time=14)\n",
      "Message('note_on', channel=0, note=78, velocity=73, time=14)\n",
      "Message('note_on', channel=0, note=63, velocity=61, time=1)\n",
      "Message('control_change', channel=0, control=64, value=63, time=3)\n",
      "Message('control_change', channel=0, control=64, value=64, time=18)\n",
      "Message('control_change', channel=0, control=64, value=65, time=21)\n",
      "Message('note_on', channel=0, note=63, velocity=0, time=4)\n",
      "Message('control_change', channel=0, control=64, value=66, time=14)\n",
      "Message('note_on', channel=0, note=78, velocity=0, time=8)\n",
      "Message('control_change', channel=0, control=64, value=68, time=28)\n",
      "Message('note_on', channel=0, note=66, velocity=58, time=32)\n",
      "Message('note_on', channel=0, note=69, velocity=73, time=4)\n",
      "Message('control_change', channel=0, control=64, value=70, time=24)\n",
      "Message('note_on', channel=0, note=66, velocity=0, time=13)\n",
      "Message('note_on', channel=0, note=69, velocity=0, time=19)\n",
      "Message('control_change', channel=0, control=64, value=68, time=23)\n",
      "Message('control_change', channel=0, control=64, value=54, time=20)\n",
      "Message('control_change', channel=0, control=64, value=0, time=17)\n",
      "Message('note_on', channel=0, note=63, velocity=58, time=10)\n",
      "Message('note_on', channel=0, note=71, velocity=75, time=5)\n",
      "Message('note_on', channel=0, note=63, velocity=0, time=55)\n",
      "Message('note_on', channel=0, note=71, velocity=0, time=15)\n",
      "Message('control_change', channel=0, control=64, value=28, time=8)\n",
      "Message('control_change', channel=0, control=64, value=48, time=20)\n",
      "Message('note_on', channel=0, note=75, velocity=82, time=17)\n",
      "Message('control_change', channel=0, control=64, value=56, time=1)\n",
      "Message('note_on', channel=0, note=59, velocity=67, time=3)\n",
      "Message('control_change', channel=0, control=64, value=60, time=18)\n",
      "Message('control_change', channel=0, control=64, value=61, time=19)\n",
      "Message('control_change', channel=0, control=64, value=63, time=19)\n",
      "Message('note_on', channel=0, note=59, velocity=0, time=9)\n",
      "Message('control_change', channel=0, control=64, value=66, time=11)\n",
      "Message('note_on', channel=0, note=75, velocity=0, time=3)\n",
      "Message('control_change', channel=0, control=64, value=67, time=14)\n",
      "Message('note_on', channel=0, note=63, velocity=78, time=16)\n",
      "Message('note_on', channel=0, note=66, velocity=81, time=16)\n",
      "Message('note_on', channel=0, note=63, velocity=0, time=13)\n",
      "Message('control_change', channel=0, control=64, value=61, time=30)\n",
      "Message('control_change', channel=0, control=64, value=0, time=18)\n",
      "Message('note_on', channel=0, note=66, velocity=0, time=2)\n",
      "Message('note_on', channel=0, note=52, velocity=88, time=50)\n",
      "Message('note_on', channel=0, note=67, velocity=80, time=10)\n",
      "Message('control_change', channel=0, control=67, value=76, time=33)\n",
      "Message('control_change', channel=0, control=64, value=59, time=19)\n",
      "Message('control_change', channel=0, control=64, value=69, time=19)\n",
      "Message('note_on', channel=0, note=67, velocity=0, time=16)\n",
      "Message('control_change', channel=0, control=64, value=68, time=22)\n",
      "Message('note_on', channel=0, note=55, velocity=75, time=10)\n",
      "Message('note_on', channel=0, note=52, velocity=0, time=1)\n",
      "Message('note_on', channel=0, note=71, velocity=80, time=7)\n",
      "Message('control_change', channel=0, control=67, value=72, time=38)\n",
      "Message('note_on', channel=0, note=55, velocity=0, time=44)\n",
      "Message('note_on', channel=0, note=71, velocity=0, time=6)\n",
      "Message('note_on', channel=0, note=59, velocity=72, time=49)\n",
      "Message('note_on', channel=0, note=76, velocity=81, time=0)\n",
      "Message('control_change', channel=0, control=64, value=70, time=9)\n",
      "Message('note_on', channel=0, note=59, velocity=0, time=30)\n",
      "Message('control_change', channel=0, control=64, value=65, time=9)\n",
      "Message('note_on', channel=0, note=76, velocity=0, time=4)\n",
      "Message('control_change', channel=0, control=64, value=0, time=15)\n",
      "Message('note_on', channel=0, note=55, velocity=81, time=59)\n",
      "Message('note_on', channel=0, note=71, velocity=88, time=2)\n",
      "Message('control_change', channel=0, control=64, value=64, time=53)\n",
      "Message('control_change', channel=0, control=64, value=76, time=20)\n",
      "Message('note_on', channel=0, note=55, velocity=0, time=40)\n",
      "Message('note_on', channel=0, note=59, velocity=71, time=1)\n",
      "Message('note_on', channel=0, note=71, velocity=0, time=0)\n",
      "Message('note_on', channel=0, note=76, velocity=85, time=9)\n",
      "Message('note_on', channel=0, note=59, velocity=0, time=73)\n",
      "Message('note_on', channel=0, note=76, velocity=0, time=40)\n",
      "Message('note_on', channel=0, note=64, velocity=74, time=5)\n",
      "Message('note_on', channel=0, note=79, velocity=84, time=12)\n",
      "Message('note_on', channel=0, note=64, velocity=0, time=32)\n",
      "Message('note_on', channel=0, note=79, velocity=0, time=27)\n",
      "Message('control_change', channel=0, control=64, value=65, time=5)\n",
      "Message('control_change', channel=0, control=64, value=0, time=20)\n",
      "Message('control_change', channel=0, control=67, value=68, time=37)\n",
      "Message('note_on', channel=0, note=57, velocity=77, time=7)\n",
      "Message('note_on', channel=0, note=72, velocity=88, time=8)\n",
      "Message('control_change', channel=0, control=64, value=29, time=42)\n",
      "Message('control_change', channel=0, control=67, value=72, time=2)\n",
      "Message('control_change', channel=0, control=64, value=66, time=17)\n",
      "Message('note_on', channel=0, note=57, velocity=0, time=14)\n",
      "Message('control_change', channel=0, control=64, value=70, time=4)\n",
      "Message('note_on', channel=0, note=72, velocity=0, time=1)\n",
      "Message('control_change', channel=0, control=64, value=67, time=18)\n",
      "Message('note_on', channel=0, note=60, velocity=69, time=15)\n",
      "Message('control_change', channel=0, control=64, value=65, time=3)\n",
      "Message('note_on', channel=0, note=76, velocity=77, time=15)\n",
      "Message('note_on', channel=0, note=60, velocity=0, time=57)\n",
      "Message('control_change', channel=0, control=64, value=66, time=3)\n",
      "Message('note_on', channel=0, note=64, velocity=64, time=66)\n",
      "Message('note_on', channel=0, note=68, velocity=82, time=1)\n",
      "Message('note_on', channel=0, note=76, velocity=0, time=4)\n",
      "Message('note_on', channel=0, note=64, velocity=0, time=42)\n",
      "Message('control_change', channel=0, control=64, value=65, time=23)\n",
      "Message('note_on', channel=0, note=68, velocity=0, time=12)\n",
      "Message('control_change', channel=0, control=64, value=63, time=23)\n",
      "Message('note_on', channel=0, note=60, velocity=69, time=15)\n",
      "Message('control_change', channel=0, control=67, value=67, time=3)\n",
      "Message('note_on', channel=0, note=69, velocity=85, time=6)\n",
      "Message('control_change', channel=0, control=64, value=62, time=47)\n",
      "Message('note_on', channel=0, note=60, velocity=0, time=40)\n",
      "Message('note_on', channel=0, note=69, velocity=0, time=21)\n",
      "Message('control_change', channel=0, control=64, value=61, time=15)\n",
      "Message('note_on', channel=0, note=57, velocity=71, time=9)\n",
      "Message('control_change', channel=0, control=64, value=60, time=11)\n",
      "Message('note_on', channel=0, note=72, velocity=89, time=2)\n",
      "Message('control_change', channel=0, control=67, value=62, time=17)\n",
      "Message('control_change', channel=0, control=64, value=58, time=36)\n",
      "Message('control_change', channel=0, control=64, value=54, time=58)\n",
      "Message('note_on', channel=0, note=76, velocity=88, time=3)\n",
      "Message('note_on', channel=0, note=60, velocity=74, time=1)\n",
      "Message('note_on', channel=0, note=57, velocity=0, time=11)\n",
      "Message('control_change', channel=0, control=64, value=45, time=2)\n",
      "Message('note_on', channel=0, note=72, velocity=0, time=2)\n",
      "Message('control_change', channel=0, control=64, value=0, time=17)\n",
      "Message('control_change', channel=0, control=67, value=58, time=21)\n",
      "Message('note_on', channel=0, note=60, velocity=0, time=86)\n",
      "Message('note_on', channel=0, note=81, velocity=89, time=1)\n",
      "Message('note_on', channel=0, note=76, velocity=0, time=3)\n",
      "Message('note_on', channel=0, note=64, velocity=74, time=1)\n",
      "Message('control_change', channel=0, control=67, value=51, time=3)\n",
      "Message('control_change', channel=0, control=67, value=47, time=19)\n",
      "Message('note_on', channel=0, note=77, velocity=32, time=12)\n",
      "Message('control_change', channel=0, control=64, value=56, time=44)\n",
      "Message('note_on', channel=0, note=77, velocity=0, time=1)\n",
      "Message('control_change', channel=0, control=64, value=75, time=18)\n",
      "Message('note_on', channel=0, note=64, velocity=0, time=3)\n",
      "Message('control_change', channel=0, control=64, value=77, time=16)\n",
      "Message('control_change', channel=0, control=67, value=43, time=18)\n",
      "Message('note_on', channel=0, note=69, velocity=73, time=0)\n",
      "Message('control_change', channel=0, control=64, value=79, time=77)\n",
      "Message('control_change', channel=0, control=67, value=37, time=19)\n",
      "Message('control_change', channel=0, control=67, value=28, time=19)\n",
      "Message('note_on', channel=0, note=69, velocity=0, time=9)\n",
      "Message('control_change', channel=0, control=67, value=21, time=10)\n",
      "Message('note_on', channel=0, note=72, velocity=76, time=0)\n",
      "Message('control_change', channel=0, control=64, value=81, time=20)\n",
      "Message('note_on', channel=0, note=81, velocity=0, time=19)\n",
      "Message('control_change', channel=0, control=67, value=15, time=38)\n",
      "Message('note_on', channel=0, note=72, velocity=0, time=27)\n",
      "Message('note_on', channel=0, note=69, velocity=84, time=25)\n",
      "Message('control_change', channel=0, control=67, value=11, time=80)\n",
      "Message('note_on', channel=0, note=69, velocity=0, time=17)\n",
      "Message('note_on', channel=0, note=66, velocity=84, time=30)\n",
      "Message('control_change', channel=0, control=64, value=83, time=98)\n",
      "Message('note_on', channel=0, note=66, velocity=0, time=5)\n",
      "Message('control_change', channel=0, control=64, value=77, time=37)\n",
      "Message('note_on', channel=0, note=52, velocity=90, time=7)\n",
      "Message('note_on', channel=0, note=69, velocity=80, time=5)\n",
      "Message('control_change', channel=0, control=64, value=53, time=3)\n",
      "Message('note_on', channel=0, note=67, velocity=70, time=12)\n",
      "Message('control_change', channel=0, control=64, value=0, time=7)\n",
      "Message('note_on', channel=0, note=67, velocity=0, time=20)\n",
      "Message('note_on', channel=0, note=69, velocity=0, time=77)\n",
      "Message('note_on', channel=0, note=51, velocity=76, time=3)\n",
      "Message('note_on', channel=0, note=52, velocity=0, time=19)\n",
      "Message('note_on', channel=0, note=71, velocity=85, time=3)\n",
      "Message('note_on', channel=0, note=51, velocity=0, time=103)\n",
      "Message('note_on', channel=0, note=47, velocity=72, time=2)\n",
      "Message('note_on', channel=0, note=47, velocity=0, time=82)\n",
      "Message('note_on', channel=0, note=52, velocity=78, time=52)\n",
      "Message('note_on', channel=0, note=79, velocity=82, time=38)\n",
      "Message('note_on', channel=0, note=51, velocity=74, time=107)\n",
      "Message('control_change', channel=0, control=64, value=36, time=4)\n",
      "Message('note_on', channel=0, note=52, velocity=0, time=3)\n",
      "Message('note_on', channel=0, note=78, velocity=87, time=16)\n",
      "Message('control_change', channel=0, control=64, value=22, time=3)\n",
      "Message('note_on', channel=0, note=79, velocity=0, time=3)\n",
      "Message('control_change', channel=0, control=64, value=0, time=13)\n",
      "Message('control_change', channel=0, control=67, value=15, time=59)\n",
      "Message('control_change', channel=0, control=67, value=19, time=16)\n",
      "Message('note_on', channel=0, note=51, velocity=0, time=1)\n",
      "Message('note_on', channel=0, note=47, velocity=71, time=9)\n",
      "Message('control_change', channel=0, control=67, value=23, time=8)\n",
      "Message('note_on', channel=0, note=47, velocity=0, time=117)\n",
      "Message('note_on', channel=0, note=54, velocity=80, time=11)\n",
      "Message('note_on', channel=0, note=69, velocity=84, time=6)\n",
      "Message('note_on', channel=0, note=71, velocity=0, time=32)\n",
      "Message('note_on', channel=0, note=78, velocity=0, time=24)\n",
      "Message('note_on', channel=0, note=54, velocity=0, time=44)\n",
      "Message('note_on', channel=0, note=51, velocity=76, time=41)\n",
      "Message('note_on', channel=0, note=71, velocity=88, time=23)\n",
      "Message('control_change', channel=0, control=64, value=15, time=2)\n",
      "Message('note_on', channel=0, note=69, velocity=0, time=1)\n",
      "Message('control_change', channel=0, control=64, value=0, time=18)\n",
      "Message('note_on', channel=0, note=51, velocity=0, time=40)\n",
      "Message('control_change', channel=0, control=67, value=28, time=17)\n",
      "Message('note_on', channel=0, note=47, velocity=75, time=31)\n",
      "Message('note_on', channel=0, note=47, velocity=0, time=77)\n",
      "Message('note_on', channel=0, note=52, velocity=72, time=71)\n",
      "Message('note_on', channel=0, note=79, velocity=80, time=3)\n",
      "Message('note_on', channel=0, note=71, velocity=0, time=65)\n",
      "Message('note_on', channel=0, note=52, velocity=0, time=11)\n",
      "Message('note_on', channel=0, note=71, velocity=61, time=44)\n",
      "Message('note_on', channel=0, note=51, velocity=76, time=10)\n",
      "Message('note_on', channel=0, note=78, velocity=81, time=6)\n",
      "Message('note_on', channel=0, note=79, velocity=0, time=11)\n",
      "Message('control_change', channel=0, control=64, value=38, time=7)\n",
      "Message('control_change', channel=0, control=64, value=65, time=23)\n",
      "Message('control_change', channel=0, control=64, value=50, time=17)\n",
      "Message('note_on', channel=0, note=51, velocity=0, time=15)\n",
      "Message('control_change', channel=0, control=64, value=0, time=4)\n",
      "Message('note_on', channel=0, note=47, velocity=73, time=36)\n",
      "Message('note_on', channel=0, note=47, velocity=0, time=111)\n",
      "Message('note_on', channel=0, note=69, velocity=80, time=33)\n",
      "Message('note_on', channel=0, note=54, velocity=74, time=22)\n",
      "Message('note_on', channel=0, note=71, velocity=0, time=14)\n",
      "Message('note_on', channel=0, note=78, velocity=0, time=16)\n",
      "Message('note_on', channel=0, note=69, velocity=0, time=27)\n",
      "Message('note_on', channel=0, note=54, velocity=0, time=12)\n",
      "Message('note_on', channel=0, note=51, velocity=68, time=42)\n",
      "Message('note_on', channel=0, note=54, velocity=75, time=125)\n",
      "Message('note_on', channel=0, note=75, velocity=85, time=2)\n",
      "Message('note_on', channel=0, note=51, velocity=0, time=14)\n",
      "Message('note_on', channel=0, note=54, velocity=0, time=58)\n",
      "Message('note_on', channel=0, note=75, velocity=0, time=6)\n",
      "Message('control_change', channel=0, control=67, value=32, time=8)\n",
      "Message('note_on', channel=0, note=57, velocity=75, time=37)\n",
      "Message('note_on', channel=0, note=78, velocity=88, time=3)\n",
      "Message('control_change', channel=0, control=67, value=28, time=36)\n",
      "Message('note_on', channel=0, note=78, velocity=0, time=26)\n",
      "Message('note_on', channel=0, note=57, velocity=0, time=10)\n",
      "Message('control_change', channel=0, control=67, value=33, time=19)\n",
      "Message('note_on', channel=0, note=79, velocity=86, time=38)\n",
      "Message('note_on', channel=0, note=47, velocity=86, time=1)\n",
      "Message('control_change', channel=0, control=64, value=72, time=19)\n",
      "Message('note_on', channel=0, note=75, velocity=74, time=15)\n",
      "Message('control_change', channel=0, control=64, value=91, time=4)\n",
      "Message('note_on', channel=0, note=47, velocity=0, time=4)\n",
      "Message('control_change', channel=0, control=64, value=112, time=15)\n",
      "Message('control_change', channel=0, control=64, value=127, time=20)\n",
      "Message('control_change', channel=0, control=67, value=37, time=17)\n",
      "Message('note_on', channel=0, note=71, velocity=75, time=57)\n",
      "Message('note_on', channel=0, note=75, velocity=0, time=15)\n",
      "Message('control_change', channel=0, control=67, value=42, time=39)\n",
      "Message('note_on', channel=0, note=71, velocity=0, time=10)\n",
      "Message('control_change', channel=0, control=64, value=118, time=49)\n",
      "Message('note_on', channel=0, note=76, velocity=80, time=16)\n",
      "Message('control_change', channel=0, control=64, value=91, time=2)\n",
      "Message('note_on', channel=0, note=55, velocity=76, time=1)\n",
      "Message('control_change', channel=0, control=64, value=54, time=20)\n",
      "Message('control_change', channel=0, control=64, value=0, time=18)\n",
      "Message('note_on', channel=0, note=55, velocity=0, time=48)\n",
      "Message('note_on', channel=0, note=79, velocity=0, time=14)\n",
      "Message('note_on', channel=0, note=76, velocity=0, time=10)\n",
      "Message('note_on', channel=0, note=52, velocity=72, time=15)\n",
      "Message('note_on', channel=0, note=73, velocity=81, time=4)\n",
      "Message('note_on', channel=0, note=73, velocity=0, time=55)\n",
      "Message('note_on', channel=0, note=52, velocity=0, time=55)\n",
      "Message('note_on', channel=0, note=55, velocity=76, time=2)\n",
      "Message('note_on', channel=0, note=76, velocity=81, time=9)\n",
      "Message('note_on', channel=0, note=75, velocity=45, time=24)\n",
      "Message('note_on', channel=0, note=55, velocity=0, time=17)\n",
      "Message('note_on', channel=0, note=75, velocity=0, time=17)\n",
      "Message('note_on', channel=0, note=59, velocity=78, time=52)\n",
      "Message('note_on', channel=0, note=79, velocity=87, time=8)\n",
      "Message('note_on', channel=0, note=76, velocity=0, time=34)\n",
      "Message('note_on', channel=0, note=59, velocity=0, time=34)\n",
      "Message('control_change', channel=0, control=67, value=46, time=70)\n",
      "Message('note_on', channel=0, note=49, velocity=90, time=4)\n",
      "Message('note_on', channel=0, note=81, velocity=90, time=4)\n",
      "Message('note_on', channel=0, note=76, velocity=88, time=12)\n",
      "Message('note_on', channel=0, note=79, velocity=0, time=12)\n",
      "Message('control_change', channel=0, control=64, value=64, time=6)\n",
      "Message('note_on', channel=0, note=49, velocity=0, time=2)\n",
      "Message('control_change', channel=0, control=64, value=91, time=15)\n",
      "Message('control_change', channel=0, control=64, value=112, time=20)\n",
      "Message('control_change', channel=0, control=64, value=124, time=19)\n",
      "Message('control_change', channel=0, control=67, value=54, time=1)\n",
      "Message('control_change', channel=0, control=67, value=58, time=19)\n",
      "Message('note_on', channel=0, note=76, velocity=0, time=12)\n",
      "Message('note_on', channel=0, note=73, velocity=80, time=25)\n",
      "Message('note_on', channel=0, note=73, velocity=0, time=61)\n",
      "Message('note_on', channel=0, note=57, velocity=80, time=69)\n",
      "Message('control_change', channel=0, control=64, value=114, time=2)\n",
      "Message('note_on', channel=0, note=78, velocity=77, time=0)\n",
      "Message('control_change', channel=0, control=64, value=89, time=18)\n",
      "Message('control_change', channel=0, control=64, value=50, time=21)\n",
      "Message('note_on', channel=0, note=57, velocity=0, time=15)\n",
      "Message('control_change', channel=0, control=64, value=0, time=2)\n",
      "Message('note_on', channel=0, note=78, velocity=0, time=36)\n",
      "Message('note_on', channel=0, note=54, velocity=74, time=27)\n",
      "Message('note_on', channel=0, note=75, velocity=85, time=10)\n",
      "Message('note_on', channel=0, note=81, velocity=0, time=53)\n",
      "Message('note_on', channel=0, note=75, velocity=0, time=24)\n",
      "Message('note_on', channel=0, note=54, velocity=0, time=31)\n",
      "Message('note_on', channel=0, note=57, velocity=73, time=0)\n",
      "Message('note_on', channel=0, note=78, velocity=84, time=13)\n",
      "Message('note_on', channel=0, note=57, velocity=0, time=61)\n",
      "Message('note_on', channel=0, note=78, velocity=0, time=24)\n",
      "Message('note_on', channel=0, note=60, velocity=76, time=33)\n",
      "Message('note_on', channel=0, note=81, velocity=83, time=10)\n",
      "Message('note_on', channel=0, note=60, velocity=0, time=55)\n",
      "Message('note_on', channel=0, note=51, velocity=86, time=64)\n",
      "Message('note_on', channel=0, note=83, velocity=86, time=14)\n",
      "Message('note_on', channel=0, note=78, velocity=85, time=4)\n",
      "Message('note_on', channel=0, note=81, velocity=0, time=1)\n",
      "Message('control_change', channel=0, control=64, value=65, time=45)\n",
      "Message('control_change', channel=0, control=64, value=84, time=20)\n",
      "Message('note_on', channel=0, note=51, velocity=0, time=10)\n",
      "Message('note_on', channel=0, note=78, velocity=0, time=3)\n",
      "Message('control_change', channel=0, control=64, value=95, time=5)\n",
      "Message('note_on', channel=0, note=59, velocity=77, time=45)\n",
      "Message('note_on', channel=0, note=75, velocity=83, time=8)\n",
      "Message('note_on', channel=0, note=59, velocity=0, time=66)\n",
      "Message('note_on', channel=0, note=75, velocity=0, time=7)\n",
      "Message('note_on', channel=0, note=57, velocity=86, time=41)\n",
      "Message('note_on', channel=0, note=78, velocity=77, time=12)\n",
      "Message('note_on', channel=0, note=57, velocity=0, time=21)\n",
      "Message('control_change', channel=0, control=64, value=88, time=46)\n",
      "Message('control_change', channel=0, control=64, value=63, time=22)\n",
      "Message('control_change', channel=0, control=64, value=0, time=16)\n",
      "Message('note_on', channel=0, note=78, velocity=0, time=2)\n",
      "Message('note_on', channel=0, note=55, velocity=88, time=14)\n",
      "Message('note_on', channel=0, note=76, velocity=82, time=17)\n",
      "Message('control_change', channel=0, control=67, value=62, time=5)\n",
      "Message('control_change', channel=0, control=64, value=30, time=38)\n",
      "Message('control_change', channel=0, control=64, value=63, time=18)\n",
      "Message('note_on', channel=0, note=55, velocity=0, time=19)\n",
      "Message('control_change', channel=0, control=64, value=72, time=1)\n",
      "Message('note_on', channel=0, note=76, velocity=0, time=4)\n",
      "Message('control_change', channel=0, control=64, value=75, time=15)\n",
      "Message('note_on', channel=0, note=52, velocity=81, time=8)\n",
      "Message('note_on', channel=0, note=79, velocity=76, time=16)\n",
      "Message('note_on', channel=0, note=52, velocity=0, time=36)\n",
      "Message('note_on', channel=0, note=47, velocity=83, time=73)\n",
      "Message('note_on', channel=0, note=79, velocity=0, time=6)\n",
      "Message('note_on', channel=0, note=75, velocity=85, time=5)\n",
      "Message('control_change', channel=0, control=64, value=73, time=27)\n",
      "Message('note_on', channel=0, note=47, velocity=0, time=6)\n",
      "Message('control_change', channel=0, control=64, value=68, time=10)\n",
      "Message('control_change', channel=0, control=64, value=11, time=21)\n",
      "Message('note_on', channel=0, note=75, velocity=0, time=8)\n",
      "Message('control_change', channel=0, control=64, value=0, time=9)\n",
      "Message('note_on', channel=0, note=52, velocity=85, time=44)\n",
      "Message('note_on', channel=0, note=76, velocity=85, time=5)\n",
      "Message('control_change', channel=0, control=64, value=61, time=45)\n",
      "Message('control_change', channel=0, control=64, value=77, time=21)\n",
      "Message('note_on', channel=0, note=76, velocity=0, time=14)\n",
      "Message('control_change', channel=0, control=64, value=82, time=3)\n",
      "Message('note_on', channel=0, note=52, velocity=0, time=16)\n",
      "Message('control_change', channel=0, control=64, value=78, time=24)\n",
      "Message('note_on', channel=0, note=79, velocity=79, time=6)\n",
      "Message('note_on', channel=0, note=47, velocity=65, time=8)\n",
      "Message('note_on', channel=0, note=45, velocity=63, time=6)\n",
      "Message('note_on', channel=0, note=47, velocity=0, time=31)\n",
      "Message('note_on', channel=0, note=45, velocity=0, time=5)\n",
      "Message('note_on', channel=0, note=43, velocity=89, time=83)\n",
      "Message('note_on', channel=0, note=75, velocity=83, time=5)\n",
      "Message('note_on', channel=0, note=79, velocity=0, time=12)\n",
      "Message('control_change', channel=0, control=64, value=80, time=8)\n",
      "Message('note_on', channel=0, note=43, velocity=0, time=22)\n",
      "Message('control_change', channel=0, control=64, value=68, time=36)\n",
      "Message('note_on', channel=0, note=75, velocity=0, time=4)\n",
      "Message('control_change', channel=0, control=64, value=0, time=16)\n",
      "Message('note_on', channel=0, note=48, velocity=94, time=43)\n",
      "Message('note_on', channel=0, note=76, velocity=82, time=7)\n",
      "Message('note_on', channel=0, note=83, velocity=0, time=28)\n",
      "Message('control_change', channel=0, control=64, value=30, time=16)\n",
      "Message('control_change', channel=0, control=64, value=58, time=17)\n",
      "Message('control_change', channel=0, control=64, value=47, time=18)\n",
      "Message('note_on', channel=0, note=76, velocity=0, time=0)\n",
      "Message('control_change', channel=0, control=67, value=69, time=1)\n",
      "Message('control_change', channel=0, control=64, value=0, time=20)\n",
      "Message('control_change', channel=0, control=67, value=73, time=1)\n",
      "Message('note_on', channel=0, note=80, velocity=74, time=30)\n",
      "Message('note_on', channel=0, note=80, velocity=0, time=82)\n",
      "Message('note_on', channel=0, note=81, velocity=80, time=49)\n",
      "Message('note_on', channel=0, note=77, velocity=78, time=119)\n",
      "Message('note_on', channel=0, note=81, velocity=0, time=22)\n",
      "Message('note_on', channel=0, note=75, velocity=78, time=111)\n",
      "Message('note_on', channel=0, note=47, velocity=71, time=1)\n",
      "Message('note_on', channel=0, note=48, velocity=0, time=5)\n",
      "Message('note_on', channel=0, note=77, velocity=0, time=7)\n",
      "Message('note_on', channel=0, note=75, velocity=0, time=57)\n",
      "Message('note_on', channel=0, note=76, velocity=74, time=45)\n",
      "Message('note_on', channel=0, note=48, velocity=79, time=14)\n",
      "Message('note_on', channel=0, note=47, velocity=0, time=5)\n",
      "Message('note_on', channel=0, note=76, velocity=0, time=71)\n",
      "Message('control_change', channel=0, control=67, value=69, time=4)\n",
      "Message('note_on', channel=0, note=45, velocity=81, time=56)\n",
      "Message('note_on', channel=0, note=72, velocity=77, time=2)\n",
      "Message('note_on', channel=0, note=48, velocity=0, time=22)\n",
      "Message('note_on', channel=0, note=47, velocity=82, time=94)\n",
      "Message('note_on', channel=0, note=72, velocity=0, time=4)\n",
      "Message('note_on', channel=0, note=68, velocity=72, time=16)\n",
      "Message('note_on', channel=0, note=45, velocity=0, time=23)\n",
      "Message('note_on', channel=0, note=47, velocity=0, time=35)\n",
      "Message('note_on', channel=0, note=68, velocity=0, time=48)\n",
      "Message('note_on', channel=0, note=48, velocity=85, time=4)\n",
      "Message('note_on', channel=0, note=69, velocity=75, time=0)\n",
      "Message('note_on', channel=0, note=48, velocity=0, time=60)\n",
      "Message('note_on', channel=0, note=69, velocity=0, time=43)\n",
      "Message('note_on', channel=0, note=45, velocity=86, time=21)\n",
      "Message('note_on', channel=0, note=65, velocity=83, time=18)\n",
      "Message('control_change', channel=0, control=64, value=30, time=42)\n",
      "Message('control_change', channel=0, control=64, value=43, time=18)\n",
      "Message('control_change', channel=0, control=64, value=37, time=20)\n",
      "Message('note_on', channel=0, note=65, velocity=0, time=9)\n",
      "Message('control_change', channel=0, control=64, value=23, time=7)\n",
      "Message('note_on', channel=0, note=47, velocity=84, time=0)\n",
      "Message('control_change', channel=0, control=64, value=0, time=19)\n",
      "Message('note_on', channel=0, note=63, velocity=82, time=8)\n",
      "Message('control_change', channel=0, control=64, value=29, time=31)\n",
      "Message('control_change', channel=0, control=64, value=43, time=19)\n",
      "Message('note_on', channel=0, note=47, velocity=0, time=3)\n",
      "Message('note_on', channel=0, note=45, velocity=0, time=6)\n",
      "Message('control_change', channel=0, control=64, value=38, time=9)\n",
      "Message('control_change', channel=0, control=64, value=0, time=21)\n",
      "Message('note_on', channel=0, note=48, velocity=81, time=10)\n",
      "Message('note_on', channel=0, note=64, velocity=79, time=17)\n",
      "Message('note_on', channel=0, note=63, velocity=0, time=4)\n",
      "Message('note_on', channel=0, note=48, velocity=0, time=44)\n",
      "Message('note_on', channel=0, note=64, velocity=0, time=31)\n",
      "Message('control_change', channel=0, control=67, value=74, time=4)\n",
      "Message('note_on', channel=0, note=42, velocity=79, time=35)\n",
      "Message('note_on', channel=0, note=63, velocity=88, time=14)\n",
      "Message('control_change', channel=0, control=64, value=38, time=48)\n",
      "Message('note_on', channel=0, note=63, velocity=0, time=30)\n",
      "Message('control_change', channel=0, control=64, value=34, time=7)\n",
      "Message('note_on', channel=0, note=45, velocity=75, time=20)\n",
      "Message('note_on', channel=0, note=66, velocity=83, time=8)\n",
      "Message('note_on', channel=0, note=42, velocity=0, time=5)\n",
      "Message('control_change', channel=0, control=64, value=42, time=43)\n",
      "Message('control_change', channel=0, control=64, value=46, time=18)\n",
      "Message('note_on', channel=0, note=45, velocity=0, time=28)\n",
      "Message('control_change', channel=0, control=64, value=42, time=24)\n",
      "Message('note_on', channel=0, note=48, velocity=72, time=9)\n",
      "Message('note_on', channel=0, note=66, velocity=0, time=0)\n",
      "Message('note_on', channel=0, note=69, velocity=86, time=13)\n",
      "Message('control_change', channel=0, control=64, value=44, time=75)\n",
      "Message('note_on', channel=0, note=69, velocity=0, time=33)\n",
      "Message('control_change', channel=0, control=64, value=38, time=1)\n",
      "Message('note_on', channel=0, note=72, velocity=80, time=7)\n",
      "Message('control_change', channel=0, control=64, value=33, time=14)\n",
      "Message('note_on', channel=0, note=51, velocity=73, time=6)\n",
      "Message('note_on', channel=0, note=48, velocity=0, time=8)\n",
      "Message('note_on', channel=0, note=72, velocity=0, time=36)\n",
      "Message('control_change', channel=0, control=64, value=42, time=5)\n",
      "Message('control_change', channel=0, control=64, value=47, time=19)\n",
      "Message('control_change', channel=0, control=64, value=49, time=21)\n",
      "Message('note_on', channel=0, note=54, velocity=74, time=7)\n",
      "Message('note_on', channel=0, note=71, velocity=72, time=12)\n",
      "Message('note_on', channel=0, note=51, velocity=0, time=9)\n",
      "Message('control_change', channel=0, control=64, value=46, time=9)\n",
      "Message('note_on', channel=0, note=71, velocity=0, time=17)\n",
      "Message('control_change', channel=0, control=64, value=50, time=42)\n",
      "Message('control_change', channel=0, control=64, value=54, time=19)\n",
      "Message('control_change', channel=0, control=64, value=51, time=16)\n",
      "Message('note_on', channel=0, note=57, velocity=69, time=10)\n",
      "Message('control_change', channel=0, control=64, value=0, time=9)\n",
      "Message('note_on', channel=0, note=75, velocity=87, time=4)\n",
      "Message('note_on', channel=0, note=54, velocity=0, time=15)\n",
      "Message('note_on', channel=0, note=57, velocity=0, time=69)\n",
      "Message('control_change', channel=0, control=64, value=19, time=6)\n",
      "Message('note_on', channel=0, note=55, velocity=71, time=11)\n",
      "Message('control_change', channel=0, control=64, value=48, time=7)\n",
      "Message('note_on', channel=0, note=76, velocity=82, time=20)\n",
      "Message('control_change', channel=0, control=64, value=39, time=1)\n",
      "Message('control_change', channel=0, control=64, value=0, time=18)\n",
      "Message('note_on', channel=0, note=75, velocity=0, time=3)\n",
      "Message('control_change', channel=0, control=64, value=11, time=73)\n",
      "Message('note_on', channel=0, note=55, velocity=0, time=16)\n",
      "Message('note_on', channel=0, note=54, velocity=74, time=2)\n",
      "Message('control_change', channel=0, control=64, value=39, time=2)\n",
      "Message('note_on', channel=0, note=78, velocity=82, time=10)\n",
      "Message('control_change', channel=0, control=64, value=44, time=7)\n",
      "Message('note_on', channel=0, note=76, velocity=0, time=10)\n",
      "Message('control_change', channel=0, control=64, value=40, time=9)\n",
      "Message('control_change', channel=0, control=64, value=36, time=39)\n",
      "Message('control_change', channel=0, control=64, value=44, time=38)\n",
      "Message('note_on', channel=0, note=52, velocity=76, time=8)\n",
      "Message('note_on', channel=0, note=54, velocity=0, time=6)\n",
      "Message('control_change', channel=0, control=64, value=46, time=5)\n",
      "Message('note_on', channel=0, note=79, velocity=80, time=15)\n",
      "Message('control_change', channel=0, control=64, value=48, time=22)\n",
      "Message('note_on', channel=0, note=78, velocity=0, time=1)\n",
      "Message('control_change', channel=0, control=64, value=50, time=20)\n",
      "Message('note_on', channel=0, note=79, velocity=0, time=6)\n",
      "Message('control_change', channel=0, control=64, value=56, time=9)\n",
      "Message('note_on', channel=0, note=52, velocity=0, time=14)\n",
      "Message('control_change', channel=0, control=64, value=62, time=6)\n",
      "Message('control_change', channel=0, control=64, value=64, time=19)\n",
      "Message('note_on', channel=0, note=59, velocity=82, time=6)\n",
      "Message('note_on', channel=0, note=71, velocity=88, time=3)\n",
      "Message('control_change', channel=0, control=64, value=58, time=11)\n",
      "Message('control_change', channel=0, control=64, value=0, time=33)\n",
      "Message('note_on', channel=0, note=71, velocity=0, time=29)\n",
      "Message('control_change', channel=0, control=67, value=78, time=28)\n",
      "Message('control_change', channel=0, control=67, value=82, time=40)\n",
      "Message('note_on', channel=0, note=76, velocity=82, time=8)\n",
      "Message('note_on', channel=0, note=76, velocity=0, time=72)\n",
      "Message('control_change', channel=0, control=67, value=88, time=31)\n",
      "Message('note_on', channel=0, note=47, velocity=72, time=7)\n",
      "Message('note_on', channel=0, note=75, velocity=84, time=7)\n",
      "Message('note_on', channel=0, note=59, velocity=0, time=5)\n",
      "Message('note_on', channel=0, note=69, velocity=75, time=9)\n",
      "Message('note_on', channel=0, note=69, velocity=0, time=38)\n",
      "Message('note_on', channel=0, note=52, velocity=76, time=79)\n",
      "Message('note_on', channel=0, note=75, velocity=0, time=0)\n",
      "Message('note_on', channel=0, note=47, velocity=0, time=2)\n",
      "Message('note_on', channel=0, note=77, velocity=62, time=5)\n",
      "Message('note_on', channel=0, note=76, velocity=68, time=17)\n",
      "Message('note_on', channel=0, note=67, velocity=60, time=1)\n",
      "Message('note_on', channel=0, note=69, velocity=67, time=4)\n",
      "Message('note_on', channel=0, note=76, velocity=0, time=30)\n",
      "Message('note_on', channel=0, note=69, velocity=0, time=3)\n",
      "Message('note_on', channel=0, note=67, velocity=0, time=4)\n",
      "Message('note_on', channel=0, note=77, velocity=0, time=78)\n",
      "Message('note_on', channel=0, note=77, velocity=30, time=0)\n",
      "Message('note_on', channel=0, note=76, velocity=26, time=8)\n",
      "Message('note_on', channel=0, note=64, velocity=21, time=19)\n",
      "Message('note_on', channel=0, note=77, velocity=0, time=19)\n",
      "Message('note_on', channel=0, note=64, velocity=0, time=29)\n",
      "Message('note_on', channel=0, note=69, velocity=62, time=67)\n",
      "Message('note_on', channel=0, note=60, velocity=67, time=5)\n",
      "Message('note_on', channel=0, note=69, velocity=0, time=98)\n",
      "Message('control_change', channel=0, control=67, value=92, time=12)\n",
      "Message('note_on', channel=0, note=60, velocity=0, time=7)\n",
      "Message('note_on', channel=0, note=67, velocity=64, time=0)\n",
      "Message('note_on', channel=0, note=59, velocity=64, time=15)\n",
      "Message('note_on', channel=0, note=67, velocity=0, time=23)\n",
      "Message('note_on', channel=0, note=64, velocity=48, time=103)\n",
      "Message('note_on', channel=0, note=64, velocity=0, time=76)\n",
      "Message('note_on', channel=0, note=52, velocity=0, time=77)\n",
      "Message('note_on', channel=0, note=51, velocity=68, time=11)\n",
      "Message('note_on', channel=0, note=71, velocity=58, time=1)\n",
      "Message('note_on', channel=0, note=51, velocity=0, time=90)\n",
      "Message('note_on', channel=0, note=71, velocity=0, time=36)\n",
      "Message('note_on', channel=0, note=52, velocity=65, time=6)\n",
      "Message('note_on', channel=0, note=67, velocity=60, time=3)\n",
      "Message('note_on', channel=0, note=67, velocity=0, time=53)\n",
      "Message('note_on', channel=0, note=64, velocity=49, time=82)\n",
      "Message('note_on', channel=0, note=64, velocity=0, time=56)\n",
      "Message('note_on', channel=0, note=59, velocity=0, time=61)\n",
      "Message('note_on', channel=0, note=69, velocity=58, time=10)\n",
      "Message('note_on', channel=0, note=60, velocity=57, time=6)\n",
      "Message('note_on', channel=0, note=69, velocity=0, time=75)\n",
      "Message('note_on', channel=0, note=67, velocity=58, time=61)\n",
      "Message('note_on', channel=0, note=59, velocity=56, time=12)\n",
      "Message('note_on', channel=0, note=60, velocity=0, time=2)\n",
      "Message('note_on', channel=0, note=67, velocity=0, time=49)\n",
      "Message('note_on', channel=0, note=64, velocity=51, time=70)\n",
      "Message('note_on', channel=0, note=64, velocity=0, time=62)\n",
      "Message('note_on', channel=0, note=52, velocity=0, time=69)\n",
      "Message('note_on', channel=0, note=51, velocity=62, time=12)\n",
      "Message('note_on', channel=0, note=71, velocity=56, time=24)\n",
      "Message('note_on', channel=0, note=51, velocity=0, time=48)\n",
      "Message('note_on', channel=0, note=52, velocity=64, time=87)\n",
      "Message('note_on', channel=0, note=71, velocity=0, time=6)\n",
      "Message('note_on', channel=0, note=68, velocity=66, time=2)\n",
      "Message('note_on', channel=0, note=76, velocity=0, time=21)\n",
      "Message('note_on', channel=0, note=59, velocity=0, time=66)\n",
      "Message('note_on', channel=0, note=56, velocity=66, time=17)\n",
      "Message('note_on', channel=0, note=52, velocity=0, time=8)\n",
      "Message('note_on', channel=0, note=68, velocity=0, time=16)\n",
      "Message('note_on', channel=0, note=71, velocity=69, time=4)\n",
      "Message('note_on', channel=0, note=71, velocity=0, time=90)\n",
      "Message('note_on', channel=0, note=56, velocity=0, time=4)\n",
      "Message('note_on', channel=0, note=59, velocity=65, time=14)\n",
      "Message('note_on', channel=0, note=74, velocity=76, time=15)\n",
      "Message('note_on', channel=0, note=74, velocity=0, time=94)\n",
      "Message('note_on', channel=0, note=56, velocity=65, time=21)\n",
      "Message('note_on', channel=0, note=59, velocity=0, time=2)\n",
      "Message('note_on', channel=0, note=64, velocity=78, time=15)\n",
      "Message('note_on', channel=0, note=56, velocity=0, time=108)\n",
      "Message('note_on', channel=0, note=52, velocity=63, time=4)\n",
      "Message('control_change', channel=0, control=64, value=9, time=12)\n",
      "Message('note_on', channel=0, note=72, velocity=81, time=131)\n",
      "Message('note_on', channel=0, note=57, velocity=63, time=3)\n",
      "Message('note_on', channel=0, note=52, velocity=0, time=2)\n",
      "Message('note_on', channel=0, note=64, velocity=0, time=41)\n",
      "Message('note_on', channel=0, note=57, velocity=0, time=66)\n",
      "Message('note_on', channel=0, note=54, velocity=68, time=18)\n",
      "Message('note_on', channel=0, note=69, velocity=84, time=2)\n",
      "Message('note_on', channel=0, note=72, velocity=0, time=11)\n",
      "Message('note_on', channel=0, note=69, velocity=0, time=120)\n",
      "Message('note_on', channel=0, note=72, velocity=80, time=2)\n",
      "Message('note_on', channel=0, note=57, velocity=72, time=3)\n",
      "Message('control_change', channel=0, control=64, value=0, time=11)\n",
      "Message('note_on', channel=0, note=54, velocity=0, time=23)\n",
      "Message('note_on', channel=0, note=57, velocity=0, time=78)\n",
      "Message('note_on', channel=0, note=72, velocity=0, time=9)\n",
      "Message('note_on', channel=0, note=76, velocity=84, time=3)\n",
      "Message('note_on', channel=0, note=60, velocity=67, time=8)\n",
      "Message('control_change', channel=0, control=64, value=11, time=86)\n",
      "Message('note_on', channel=0, note=76, velocity=0, time=6)\n",
      "Message('control_change', channel=0, control=64, value=23, time=13)\n",
      "Message('note_on', channel=0, note=57, velocity=70, time=17)\n",
      "Message('note_on', channel=0, note=66, velocity=84, time=3)\n",
      "Message('note_on', channel=0, note=60, velocity=0, time=1)\n",
      "Message('control_change', channel=0, control=64, value=19, time=17)\n",
      "Message('control_change', channel=0, control=64, value=25, time=74)\n",
      "Message('note_on', channel=0, note=57, velocity=0, time=27)\n",
      "Message('note_on', channel=0, note=54, velocity=69, time=5)\n",
      "Message('note_on', channel=0, note=66, velocity=0, time=102)\n",
      "Message('note_on', channel=0, note=54, velocity=0, time=18)\n",
      "Message('note_on', channel=0, note=59, velocity=68, time=7)\n",
      "Message('note_on', channel=0, note=74, velocity=83, time=7)\n",
      "Message('control_change', channel=0, control=64, value=0, time=22)\n",
      "Message('note_on', channel=0, note=56, velocity=71, time=93)\n",
      "Message('note_on', channel=0, note=59, velocity=0, time=8)\n",
      "Message('note_on', channel=0, note=71, velocity=86, time=4)\n",
      "Message('note_on', channel=0, note=74, velocity=0, time=7)\n",
      "Message('note_on', channel=0, note=59, velocity=74, time=114)\n",
      "Message('note_on', channel=0, note=56, velocity=0, time=5)\n",
      "Message('note_on', channel=0, note=74, velocity=86, time=2)\n",
      "Message('note_on', channel=0, note=71, velocity=0, time=2)\n",
      "Message('note_on', channel=0, note=59, velocity=0, time=115)\n",
      "Message('note_on', channel=0, note=74, velocity=0, time=19)\n",
      "Message('note_on', channel=0, note=62, velocity=75, time=1)\n",
      "Message('note_on', channel=0, note=77, velocity=85, time=3)\n",
      "Message('note_on', channel=0, note=77, velocity=0, time=92)\n",
      "Message('control_change', channel=0, control=64, value=60, time=23)\n",
      "Message('note_on', channel=0, note=59, velocity=79, time=4)\n",
      "Message('note_on', channel=0, note=62, velocity=0, time=11)\n",
      "Message('control_change', channel=0, control=64, value=69, time=4)\n",
      "Message('control_change', channel=0, control=67, value=88, time=1)\n",
      "Message('note_on', channel=0, note=68, velocity=88, time=6)\n",
      "Message('control_change', channel=0, control=64, value=66, time=11)\n",
      "Message('control_change', channel=0, control=64, value=62, time=21)\n",
      "Message('control_change', channel=0, control=64, value=57, time=16)\n",
      "Message('control_change', channel=0, control=64, value=55, time=19)\n",
      "Message('control_change', channel=0, control=64, value=59, time=20)\n",
      "Message('control_change', channel=0, control=64, value=63, time=18)\n",
      "Message('note_on', channel=0, note=56, velocity=80, time=9)\n",
      "Message('note_on', channel=0, note=68, velocity=0, time=1)\n",
      "Message('note_on', channel=0, note=76, velocity=81, time=7)\n",
      "Message('control_change', channel=0, control=64, value=66, time=4)\n",
      "Message('control_change', channel=0, control=67, value=81, time=1)\n",
      "Message('note_on', channel=0, note=59, velocity=0, time=2)\n",
      "Message('control_change', channel=0, control=67, value=73, time=15)\n",
      "Message('control_change', channel=0, control=64, value=65, time=20)\n",
      "Message('control_change', channel=0, control=67, value=65, time=2)\n",
      "Message('control_change', channel=0, control=64, value=66, time=54)\n",
      "Message('control_change', channel=0, control=67, value=59, time=18)\n",
      "Message('note_on', channel=0, note=74, velocity=81, time=1)\n",
      "Message('note_on', channel=0, note=59, velocity=82, time=1)\n",
      "Message('note_on', channel=0, note=76, velocity=0, time=12)\n",
      "Message('note_on', channel=0, note=56, velocity=0, time=1)\n",
      "Message('control_change', channel=0, control=64, value=67, time=4)\n",
      "Message('control_change', channel=0, control=67, value=47, time=1)\n",
      "Message('control_change', channel=0, control=67, value=29, time=20)\n",
      "Message('control_change', channel=0, control=67, value=12, time=16)\n",
      "Message('control_change', channel=0, control=64, value=65, time=18)\n",
      "Message('control_change', channel=0, control=64, value=19, time=20)\n",
      "Message('note_on', channel=0, note=59, velocity=0, time=9)\n",
      "Message('control_change', channel=0, control=64, value=0, time=9)\n",
      "Message('note_on', channel=0, note=57, velocity=87, time=16)\n",
      "Message('note_on', channel=0, note=72, velocity=79, time=11)\n",
      "Message('note_on', channel=0, note=74, velocity=0, time=25)\n",
      "Message('note_on', channel=0, note=72, velocity=0, time=108)\n",
      "Message('note_on', channel=0, note=69, velocity=69, time=1)\n",
      "Message('note_on', channel=0, note=65, velocity=65, time=149)\n",
      "Message('note_on', channel=0, note=74, velocity=76, time=0)\n",
      "Message('note_on', channel=0, note=69, velocity=0, time=9)\n",
      "Message('control_change', channel=0, control=67, value=8, time=41)\n",
      "Message('note_on', channel=0, note=64, velocity=71, time=69)\n",
      "Message('note_on', channel=0, note=65, velocity=0, time=1)\n",
      "Message('note_on', channel=0, note=72, velocity=76, time=26)\n",
      "Message('note_on', channel=0, note=74, velocity=0, time=13)\n",
      "Message('note_on', channel=0, note=72, velocity=0, time=94)\n",
      "Message('note_on', channel=0, note=69, velocity=66, time=20)\n",
      "Message('note_on', channel=0, note=56, velocity=74, time=122)\n",
      "Message('note_on', channel=0, note=57, velocity=0, time=2)\n",
      "Message('note_on', channel=0, note=76, velocity=80, time=14)\n",
      "Message('note_on', channel=0, note=69, velocity=0, time=17)\n",
      "Message('note_on', channel=0, note=56, velocity=0, time=47)\n",
      "Message('note_on', channel=0, note=57, velocity=70, time=67)\n",
      "Message('note_on', channel=0, note=76, velocity=0, time=5)\n",
      "Message('note_on', channel=0, note=72, velocity=74, time=1)\n",
      "Message('note_on', channel=0, note=72, velocity=0, time=113)\n",
      "Message('note_on', channel=0, note=69, velocity=67, time=13)\n",
      "Message('note_on', channel=0, note=69, velocity=0, time=89)\n",
      "Message('note_on', channel=0, note=74, velocity=74, time=40)\n",
      "Message('note_on', channel=0, note=65, velocity=68, time=8)\n",
      "Message('note_on', channel=0, note=64, velocity=0, time=1)\n",
      "Message('note_on', channel=0, note=65, velocity=0, time=119)\n",
      "Message('note_on', channel=0, note=72, velocity=73, time=7)\n",
      "Message('note_on', channel=0, note=64, velocity=73, time=4)\n",
      "Message('note_on', channel=0, note=74, velocity=0, time=4)\n",
      "Message('note_on', channel=0, note=72, velocity=0, time=81)\n",
      "Message('note_on', channel=0, note=69, velocity=72, time=49)\n",
      "Message('control_change', channel=0, control=64, value=20, time=2)\n",
      "Message('control_change', channel=0, control=67, value=12, time=1)\n",
      "Message('control_change', channel=0, control=64, value=27, time=21)\n",
      "Message('control_change', channel=0, control=67, value=16, time=2)\n",
      "Message('control_change', channel=0, control=64, value=32, time=17)\n",
      "Message('control_change', channel=0, control=67, value=21, time=1)\n",
      "Message('control_change', channel=0, control=64, value=38, time=17)\n",
      "Message('control_change', channel=0, control=64, value=44, time=20)\n",
      "Message('control_change', channel=0, control=64, value=48, time=19)\n",
      "Message('control_change', channel=0, control=64, value=50, time=38)\n",
      "Message('note_on', channel=0, note=57, velocity=0, time=3)\n",
      "Message('note_on', channel=0, note=56, velocity=68, time=3)\n",
      "Message('note_on', channel=0, note=76, velocity=81, time=3)\n",
      "Message('note_on', channel=0, note=69, velocity=0, time=6)\n",
      "Message('control_change', channel=0, control=64, value=52, time=59)\n",
      "Message('note_on', channel=0, note=56, velocity=0, time=8)\n",
      "Message('control_change', channel=0, control=64, value=45, time=49)\n",
      "Message('note_on', channel=0, note=57, velocity=76, time=11)\n",
      "Message('note_on', channel=0, note=73, velocity=82, time=5)\n",
      "Message('control_change', channel=0, control=64, value=26, time=1)\n",
      "Message('note_on', channel=0, note=76, velocity=0, time=5)\n",
      "Message('control_change', channel=0, control=64, value=0, time=17)\n",
      "Message('note_on', channel=0, note=64, velocity=0, time=18)\n",
      "Message('note_on', channel=0, note=61, velocity=76, time=72)\n",
      "Message('note_on', channel=0, note=76, velocity=87, time=9)\n",
      "Message('note_on', channel=0, note=57, velocity=0, time=5)\n",
      "Message('note_on', channel=0, note=73, velocity=0, time=9)\n",
      "Message('note_on', channel=0, note=76, velocity=0, time=88)\n",
      "Message('note_on', channel=0, note=64, velocity=71, time=10)\n",
      "Message('note_on', channel=0, note=61, velocity=0, time=2)\n",
      "Message('note_on', channel=0, note=79, velocity=84, time=17)\n",
      "Message('note_on', channel=0, note=79, velocity=0, time=97)\n",
      "Message('note_on', channel=0, note=61, velocity=76, time=20)\n",
      "Message('note_on', channel=0, note=64, velocity=0, time=18)\n",
      "Message('note_on', channel=0, note=69, velocity=83, time=2)\n",
      "Message('control_change', channel=0, control=67, value=25, time=46)\n",
      "Message('control_change', channel=0, control=64, value=28, time=20)\n",
      "Message('control_change', channel=0, control=64, value=44, time=18)\n",
      "Message('control_change', channel=0, control=64, value=51, time=21)\n",
      "Message('note_on', channel=0, note=57, velocity=73, time=4)\n",
      "Message('note_on', channel=0, note=61, velocity=0, time=4)\n",
      "Message('control_change', channel=0, control=64, value=53, time=46)\n",
      "Message('control_change', channel=0, control=64, value=55, time=38)\n",
      "Message('note_on', channel=0, note=57, velocity=0, time=42)\n",
      "Message('note_on', channel=0, note=62, velocity=72, time=11)\n",
      "Message('note_on', channel=0, note=78, velocity=82, time=16)\n",
      "Message('note_on', channel=0, note=69, velocity=0, time=67)\n",
      "Message('note_on', channel=0, note=62, velocity=0, time=64)\n",
      "Message('note_on', channel=0, note=59, velocity=75, time=8)\n",
      "Message('note_on', channel=0, note=74, velocity=87, time=4)\n",
      "Message('note_on', channel=0, note=78, velocity=0, time=5)\n",
      "Message('control_change', channel=0, control=64, value=51, time=8)\n",
      "Message('control_change', channel=0, control=64, value=41, time=18)\n",
      "Message('control_change', channel=0, control=64, value=30, time=20)\n",
      "Message('control_change', channel=0, control=67, value=29, time=18)\n",
      "Message('control_change', channel=0, control=64, value=11, time=38)\n",
      "Message('note_on', channel=0, note=62, velocity=75, time=7)\n",
      "Message('note_on', channel=0, note=59, velocity=0, time=1)\n",
      "Message('control_change', channel=0, control=64, value=0, time=9)\n",
      "Message('note_on', channel=0, note=78, velocity=89, time=2)\n",
      "Message('note_on', channel=0, note=74, velocity=0, time=17)\n",
      "Message('note_on', channel=0, note=81, velocity=88, time=113)\n",
      "Message('note_on', channel=0, note=66, velocity=69, time=7)\n",
      "Message('note_on', channel=0, note=62, velocity=0, time=4)\n",
      "Message('note_on', channel=0, note=78, velocity=0, time=1)\n",
      "Message('note_on', channel=0, note=81, velocity=0, time=96)\n",
      "Message('note_on', channel=0, note=62, velocity=66, time=16)\n",
      "Message('note_on', channel=0, note=66, velocity=0, time=5)\n",
      "Message('note_on', channel=0, note=71, velocity=84, time=2)\n",
      "Message('control_change', channel=0, control=64, value=44, time=20)\n",
      "Message('control_change', channel=0, control=64, value=57, time=18)\n",
      "Message('control_change', channel=0, control=64, value=61, time=19)\n",
      "Message('note_on', channel=0, note=59, velocity=69, time=74)\n",
      "Message('note_on', channel=0, note=62, velocity=0, time=0)\n",
      "Message('note_on', channel=0, note=64, velocity=69, time=134)\n",
      "Message('control_change', channel=0, control=64, value=60, time=3)\n",
      "Message('note_on', channel=0, note=59, velocity=0, time=0)\n",
      "Message('note_on', channel=0, note=79, velocity=81, time=4)\n",
      "Message('note_on', channel=0, note=71, velocity=0, time=26)\n",
      "Message('control_change', channel=0, control=64, value=57, time=5)\n",
      "Message('control_change', channel=0, control=64, value=55, time=19)\n",
      "Message('control_change', channel=0, control=64, value=52, time=19)\n",
      "Message('control_change', channel=0, control=64, value=49, time=19)\n",
      "Message('note_on', channel=0, note=64, velocity=0, time=34)\n",
      "Message('note_on', channel=0, note=61, velocity=74, time=1)\n",
      "Message('control_change', channel=0, control=64, value=45, time=4)\n",
      "Message('note_on', channel=0, note=76, velocity=88, time=6)\n",
      "Message('note_on', channel=0, note=79, velocity=0, time=5)\n",
      "Message('control_change', channel=0, control=64, value=42, time=7)\n",
      "Message('control_change', channel=0, control=64, value=40, time=34)\n",
      "Message('note_on', channel=0, note=64, velocity=73, time=89)\n",
      "Message('note_on', channel=0, note=79, velocity=86, time=1)\n",
      "Message('note_on', channel=0, note=76, velocity=0, time=5)\n",
      "Message('note_on', channel=0, note=61, velocity=0, time=31)\n",
      "Message('control_change', channel=0, control=64, value=36, time=25)\n",
      "Message('note_on', channel=0, note=64, velocity=0, time=43)\n",
      "Message('note_on', channel=0, note=79, velocity=0, time=5)\n",
      "Message('control_change', channel=0, control=64, value=29, time=9)\n",
      "Message('note_on', channel=0, note=67, velocity=74, time=11)\n",
      "Message('note_on', channel=0, note=83, velocity=83, time=2)\n",
      "Message('control_change', channel=0, control=64, value=0, time=5)\n",
      "Message('control_change', channel=0, control=67, value=34, time=1)\n",
      "Message('note_on', channel=0, note=83, velocity=0, time=76)\n",
      "Message('note_on', channel=0, note=64, velocity=76, time=36)\n",
      "Message('note_on', channel=0, note=67, velocity=0, time=2)\n",
      "Message('note_on', channel=0, note=73, velocity=88, time=15)\n",
      "Message('control_change', channel=0, control=67, value=38, time=23)\n",
      "Message('control_change', channel=0, control=64, value=28, time=38)\n",
      "Message('note_on', channel=0, note=73, velocity=0, time=16)\n",
      "Message('control_change', channel=0, control=64, value=45, time=3)\n",
      "Message('control_change', channel=0, control=64, value=54, time=18)\n",
      "Message('note_on', channel=0, note=61, velocity=82, time=12)\n",
      "Message('control_change', channel=0, control=64, value=57, time=5)\n",
      "Message('note_on', channel=0, note=81, velocity=83, time=1)\n",
      "Message('note_on', channel=0, note=64, velocity=0, time=6)\n",
      "Message('control_change', channel=0, control=64, value=59, time=88)\n",
      "Message('note_on', channel=0, note=64, velocity=79, time=29)\n",
      "Message('note_on', channel=0, note=79, velocity=84, time=5)\n",
      "Message('note_on', channel=0, note=61, velocity=0, time=2)\n",
      "Message('control_change', channel=0, control=64, value=61, time=1)\n",
      "Message('note_on', channel=0, note=81, velocity=0, time=11)\n",
      "Message('control_change', channel=0, control=64, value=62, time=9)\n",
      "Message('control_change', channel=0, control=64, value=67, time=19)\n",
      "Message('control_change', channel=0, control=64, value=71, time=19)\n",
      "Message('control_change', channel=0, control=64, value=74, time=19)\n",
      "Message('control_change', channel=0, control=64, value=69, time=20)\n",
      "Message('note_on', channel=0, note=64, velocity=0, time=9)\n",
      "Message('control_change', channel=0, control=64, value=18, time=7)\n",
      "Message('note_on', channel=0, note=62, velocity=88, time=5)\n",
      "Message('note_on', channel=0, note=78, velocity=82, time=5)\n",
      "Message('control_change', channel=0, control=64, value=0, time=9)\n",
      "Message('note_on', channel=0, note=79, velocity=0, time=13)\n",
      "Message('note_on', channel=0, note=74, velocity=71, time=104)\n",
      "Message('note_on', channel=0, note=78, velocity=0, time=12)\n",
      "Message('note_on', channel=0, note=74, velocity=0, time=135)\n",
      "Message('note_on', channel=0, note=71, velocity=82, time=19)\n",
      "Message('note_on', channel=0, note=79, velocity=73, time=1)\n",
      "Message('control_change', channel=0, control=64, value=23, time=53)\n",
      "Message('control_change', channel=0, control=67, value=42, time=1)\n",
      "Message('control_change', channel=0, control=64, value=0, time=19)\n",
      "Message('note_on', channel=0, note=78, velocity=74, time=61)\n",
      "Message('note_on', channel=0, note=71, velocity=0, time=5)\n",
      "Message('note_on', channel=0, note=69, velocity=66, time=7)\n",
      "Message('note_on', channel=0, note=79, velocity=0, time=4)\n",
      "Message('control_change', channel=0, control=67, value=46, time=34)\n",
      "Message('note_on', channel=0, note=78, velocity=0, time=62)\n",
      "Message('note_on', channel=0, note=74, velocity=68, time=12)\n",
      "Message('note_on', channel=0, note=74, velocity=0, time=86)\n",
      "Message('note_on', channel=0, note=62, velocity=0, time=44)\n",
      "Message('note_on', channel=0, note=61, velocity=72, time=7)\n",
      "Message('note_on', channel=0, note=81, velocity=75, time=7)\n",
      "Message('control_change', channel=0, control=67, value=51, time=48)\n",
      "Message('note_on', channel=0, note=61, velocity=0, time=11)\n",
      "Message('note_on', channel=0, note=81, velocity=0, time=59)\n",
      "Message('note_on', channel=0, note=62, velocity=69, time=5)\n",
      "Message('note_on', channel=0, note=78, velocity=73, time=7)\n",
      "Message('note_on', channel=0, note=78, velocity=0, time=104)\n",
      "Message('note_on', channel=0, note=74, velocity=66, time=25)\n",
      "Message('note_on', channel=0, note=74, velocity=0, time=80)\n",
      "Message('note_on', channel=0, note=69, velocity=0, time=24)\n",
      "Message('note_on', channel=0, note=79, velocity=74, time=29)\n",
      "Message('note_on', channel=0, note=71, velocity=68, time=3)\n",
      "Message('note_on', channel=0, note=78, velocity=77, time=131)\n",
      "Message('note_on', channel=0, note=69, velocity=76, time=3)\n",
      "Message('note_on', channel=0, note=71, velocity=0, time=2)\n",
      "Message('note_on', channel=0, note=79, velocity=0, time=6)\n",
      "Message('note_on', channel=0, note=78, velocity=0, time=60)\n",
      "Message('note_on', channel=0, note=74, velocity=76, time=56)\n",
      "Message('control_change', channel=0, control=67, value=55, time=71)\n",
      "Message('note_on', channel=0, note=74, velocity=0, time=20)\n",
      "Message('note_on', channel=0, note=81, velocity=83, time=44)\n",
      "Message('note_on', channel=0, note=62, velocity=0, time=10)\n",
      "Message('note_on', channel=0, note=61, velocity=72, time=4)\n",
      "Message('note_on', channel=0, note=61, velocity=0, time=73)\n",
      "Message('note_on', channel=0, note=78, velocity=87, time=52)\n",
      "Message('note_on', channel=0, note=62, velocity=76, time=12)\n",
      "Message('note_on', channel=0, note=81, velocity=0, time=5)\n",
      "Message('control_change', channel=0, control=64, value=22, time=7)\n",
      "Message('control_change', channel=0, control=64, value=0, time=17)\n",
      "Message('note_on', channel=0, note=69, velocity=0, time=19)\n",
      "Message('note_on', channel=0, note=78, velocity=0, time=48)\n",
      "Message('note_on', channel=0, note=81, velocity=88, time=11)\n",
      "Message('note_on', channel=0, note=66, velocity=76, time=11)\n",
      "Message('note_on', channel=0, note=62, velocity=0, time=12)\n",
      "Message('note_on', channel=0, note=81, velocity=0, time=75)\n",
      "Message('note_on', channel=0, note=84, velocity=88, time=30)\n",
      "Message('note_on', channel=0, note=66, velocity=0, time=9)\n",
      "Message('note_on', channel=0, note=69, velocity=75, time=0)\n",
      "Message('note_on', channel=0, note=84, velocity=0, time=75)\n",
      "Message('note_on', channel=0, note=66, velocity=74, time=47)\n",
      "Message('control_change', channel=0, control=64, value=48, time=2)\n",
      "Message('note_on', channel=0, note=74, velocity=87, time=6)\n",
      "Message('note_on', channel=0, note=69, velocity=0, time=5)\n",
      "Message('control_change', channel=0, control=64, value=65, time=8)\n",
      "Message('control_change', channel=0, control=64, value=69, time=20)\n",
      "Message('note_on', channel=0, note=66, velocity=0, time=26)\n",
      "Message('note_on', channel=0, note=62, velocity=72, time=51)\n",
      "Message('note_on', channel=0, note=62, velocity=0, time=95)\n",
      "Message('control_change', channel=0, control=67, value=59, time=30)\n",
      "Message('note_on', channel=0, note=67, velocity=77, time=25)\n",
      "Message('note_on', channel=0, note=83, velocity=85, time=12)\n",
      "Message('control_change', channel=0, control=64, value=68, time=40)\n",
      "Message('note_on', channel=0, note=74, velocity=0, time=15)\n",
      "Message('control_change', channel=0, control=64, value=64, time=5)\n",
      "Message('control_change', channel=0, control=64, value=48, time=19)\n",
      "Message('control_change', channel=0, control=64, value=0, time=19)\n",
      "Message('note_on', channel=0, note=60, velocity=76, time=25)\n",
      "Message('note_on', channel=0, note=76, velocity=90, time=7)\n",
      "Message('note_on', channel=0, note=83, velocity=0, time=8)\n",
      "Message('note_on', channel=0, note=67, velocity=0, time=9)\n",
      "Message('control_change', channel=0, control=64, value=38, time=83)\n",
      "Message('note_on', channel=0, note=64, velocity=71, time=8)\n",
      "Message('note_on', channel=0, note=79, velocity=87, time=8)\n",
      "Message('control_change', channel=0, control=64, value=41, time=2)\n",
      "Message('note_on', channel=0, note=76, velocity=0, time=10)\n",
      "Message('note_on', channel=0, note=60, velocity=0, time=4)\n",
      "Message('control_change', channel=0, control=64, value=33, time=26)\n",
      "Message('note_on', channel=0, note=64, velocity=0, time=32)\n",
      "Message('control_change', channel=0, control=64, value=39, time=22)\n",
      "Message('note_on', channel=0, note=79, velocity=0, time=9)\n",
      "Message('note_on', channel=0, note=67, velocity=74, time=19)\n",
      "Message('control_change', channel=0, control=64, value=28, time=9)\n",
      "Message('note_on', channel=0, note=83, velocity=84, time=4)\n",
      "Message('control_change', channel=0, control=64, value=0, time=15)\n",
      "Message('note_on', channel=0, note=83, velocity=0, time=84)\n",
      "Message('note_on', channel=0, note=64, velocity=73, time=7)\n",
      "Message('note_on', channel=0, note=67, velocity=0, time=10)\n",
      "Message('note_on', channel=0, note=72, velocity=82, time=10)\n",
      "Message('note_on', channel=0, note=64, velocity=0, time=53)\n",
      "Message('control_change', channel=0, control=64, value=39, time=9)\n",
      "Message('control_change', channel=0, control=64, value=50, time=16)\n",
      "Message('note_on', channel=0, note=60, velocity=78, time=26)\n",
      "Message('control_change', channel=0, control=64, value=52, time=68)\n",
      "Message('note_on', channel=0, note=60, velocity=0, time=9)\n",
      "Message('control_change', channel=0, control=64, value=55, time=10)\n",
      "Message('control_change', channel=0, control=64, value=57, time=19)\n",
      "Message('note_on', channel=0, note=66, velocity=78, time=39)\n",
      "Message('note_on', channel=0, note=81, velocity=83, time=9)\n",
      "Message('control_change', channel=0, control=64, value=59, time=11)\n",
      "Message('note_on', channel=0, note=72, velocity=0, time=53)\n",
      "Message('control_change', channel=0, control=64, value=48, time=36)\n",
      "Message('control_change', channel=0, control=64, value=0, time=20)\n",
      "Message('note_on', channel=0, note=59, velocity=80, time=16)\n",
      "Message('note_on', channel=0, note=74, velocity=88, time=4)\n",
      "Message('note_on', channel=0, note=81, velocity=0, time=21)\n",
      "Message('note_on', channel=0, note=66, velocity=0, time=2)\n",
      "Message('control_change', channel=0, control=64, value=34, time=51)\n",
      "Message('control_change', channel=0, control=64, value=52, time=17)\n",
      "Message('control_change', channel=0, control=64, value=58, time=21)\n",
      "Message('note_on', channel=0, note=59, velocity=0, time=9)\n",
      "Message('note_on', channel=0, note=62, velocity=74, time=0)\n",
      "Message('note_on', channel=0, note=78, velocity=83, time=7)\n",
      "Message('note_on', channel=0, note=74, velocity=0, time=18)\n",
      "Message('note_on', channel=0, note=66, velocity=75, time=105)\n",
      "Message('note_on', channel=0, note=62, velocity=0, time=9)\n",
      "Message('note_on', channel=0, note=81, velocity=82, time=1)\n",
      "Message('note_on', channel=0, note=78, velocity=0, time=9)\n",
      "Message('control_change', channel=0, control=64, value=56, time=11)\n",
      "Message('control_change', channel=0, control=64, value=42, time=20)\n",
      "Message('control_change', channel=0, control=64, value=0, time=18)\n",
      "Message('note_on', channel=0, note=81, velocity=0, time=40)\n",
      "Message('note_on', channel=0, note=62, velocity=75, time=22)\n",
      "Message('note_on', channel=0, note=66, velocity=0, time=3)\n",
      "Message('note_on', channel=0, note=71, velocity=77, time=7)\n",
      "Message('control_change', channel=0, control=64, value=23, time=41)\n",
      "Message('control_change', channel=0, control=64, value=42, time=18)\n",
      "Message('control_change', channel=0, control=64, value=50, time=20)\n",
      "Message('control_change', channel=0, control=64, value=52, time=17)\n",
      "Message('note_on', channel=0, note=59, velocity=72, time=33)\n",
      "Message('note_on', channel=0, note=62, velocity=0, time=3)\n",
      "Message('control_change', channel=0, control=64, value=54, time=22)\n",
      "Message('note_on', channel=0, note=59, velocity=0, time=55)\n",
      "Message('control_change', channel=0, control=64, value=56, time=39)\n",
      "Message('note_on', channel=0, note=64, velocity=69, time=14)\n",
      "Message('note_on', channel=0, note=79, velocity=80, time=8)\n",
      "Message('note_on', channel=0, note=71, velocity=0, time=51)\n",
      "Message('note_on', channel=0, note=79, velocity=0, time=77)\n",
      "Message('note_on', channel=0, note=57, velocity=72, time=1)\n",
      "Message('note_on', channel=0, note=72, velocity=87, time=0)\n",
      "Message('note_on', channel=0, note=64, velocity=0, time=13)\n",
      "Message('control_change', channel=0, control=64, value=39, time=5)\n",
      "Message('control_change', channel=0, control=64, value=0, time=21)\n",
      "Message('control_change', channel=0, control=64, value=23, time=90)\n",
      "Message('note_on', channel=0, note=60, velocity=69, time=11)\n",
      "Message('note_on', channel=0, note=76, velocity=77, time=1)\n",
      "Message('note_on', channel=0, note=57, velocity=0, time=4)\n",
      "Message('control_change', channel=0, control=64, value=51, time=2)\n",
      "Message('note_on', channel=0, note=72, velocity=0, time=10)\n",
      "Message('control_change', channel=0, control=64, value=63, time=10)\n",
      "Message('control_change', channel=0, control=64, value=67, time=18)\n",
      "Message('note_on', channel=0, note=60, velocity=0, time=40)\n",
      "Message('note_on', channel=0, note=76, velocity=0, time=34)\n",
      "Message('note_on', channel=0, note=79, velocity=81, time=14)\n",
      "Message('note_on', channel=0, note=64, velocity=70, time=3)\n",
      "Message('control_change', channel=0, control=64, value=66, time=44)\n",
      "Message('control_change', channel=0, control=64, value=65, time=15)\n",
      "Message('control_change', channel=0, control=64, value=56, time=21)\n",
      "Message('note_on', channel=0, note=79, velocity=0, time=0)\n",
      "Message('control_change', channel=0, control=64, value=0, time=18)\n",
      "Message('note_on', channel=0, note=64, velocity=0, time=23)\n",
      "Message('note_on', channel=0, note=60, velocity=73, time=2)\n",
      "Message('note_on', channel=0, note=69, velocity=86, time=5)\n",
      "Message('control_change', channel=0, control=64, value=16, time=45)\n",
      "Message('control_change', channel=0, control=64, value=48, time=21)\n",
      "Message('control_change', channel=0, control=64, value=61, time=17)\n",
      "Message('note_on', channel=0, note=60, velocity=0, time=2)\n",
      "Message('note_on', channel=0, note=69, velocity=0, time=12)\n",
      "Message('control_change', channel=0, control=64, value=65, time=5)\n",
      "Message('note_on', channel=0, note=57, velocity=73, time=19)\n",
      "Message('note_on', channel=0, note=72, velocity=83, time=6)\n",
      "Message('control_change', channel=0, control=64, value=66, time=89)\n",
      "Message('note_on', channel=0, note=60, velocity=78, time=30)\n",
      "Message('note_on', channel=0, note=72, velocity=0, time=0)\n",
      "Message('note_on', channel=0, note=76, velocity=70, time=12)\n",
      "Message('note_on', channel=0, note=74, velocity=74, time=12)\n",
      "Message('control_change', channel=0, control=64, value=56, time=1)\n",
      "Message('control_change', channel=0, control=64, value=0, time=20)\n",
      "Message('note_on', channel=0, note=57, velocity=0, time=0)\n",
      "Message('note_on', channel=0, note=60, velocity=0, time=32)\n",
      "Message('note_on', channel=0, note=74, velocity=0, time=12)\n",
      "Message('note_on', channel=0, note=76, velocity=0, time=3)\n",
      "Message('control_change', channel=0, control=64, value=23, time=29)\n",
      "Message('note_on', channel=0, note=62, velocity=78, time=12)\n",
      "Message('note_on', channel=0, note=66, velocity=86, time=2)\n",
      "Message('control_change', channel=0, control=64, value=59, time=5)\n",
      "Message('control_change', channel=0, control=64, value=72, time=18)\n",
      "Message('control_change', channel=0, control=64, value=74, time=19)\n",
      "Message('control_change', channel=0, control=64, value=72, time=19)\n",
      "Message('control_change', channel=0, control=64, value=70, time=19)\n",
      "Message('note_on', channel=0, note=66, velocity=0, time=8)\n",
      "Message('note_on', channel=0, note=69, velocity=79, time=17)\n",
      "Message('control_change', channel=0, control=64, value=72, time=12)\n",
      "Message('note_on', channel=0, note=57, velocity=76, time=1)\n",
      "Message('control_change', channel=0, control=67, value=55, time=2)\n",
      "Message('note_on', channel=0, note=62, velocity=0, time=0)\n",
      "Message('control_change', channel=0, control=64, value=69, time=74)\n",
      "Message('control_change', channel=0, control=67, value=48, time=18)\n",
      "Message('control_change', channel=0, control=67, value=43, time=20)\n",
      "Message('control_change', channel=0, control=67, value=37, time=20)\n",
      "Message('note_on', channel=0, note=54, velocity=75, time=13)\n",
      "Message('note_on', channel=0, note=72, velocity=84, time=3)\n",
      "Message('note_on', channel=0, note=57, velocity=0, time=8)\n",
      "Message('note_on', channel=0, note=69, velocity=0, time=1)\n",
      "Message('control_change', channel=0, control=64, value=62, time=7)\n",
      "Message('control_change', channel=0, control=67, value=33, time=1)\n",
      "Message('control_change', channel=0, control=64, value=0, time=18)\n",
      "Message('control_change', channel=0, control=67, value=27, time=18)\n",
      "Message('control_change', channel=0, control=67, value=23, time=21)\n",
      "Message('control_change', channel=0, control=67, value=18, time=16)\n",
      "Message('note_on', channel=0, note=54, velocity=0, time=12)\n",
      "Message('note_on', channel=0, note=50, velocity=83, time=9)\n",
      "Message('note_on', channel=0, note=62, velocity=84, time=11)\n",
      "Message('control_change', channel=0, control=64, value=69, time=6)\n",
      "Message('note_on', channel=0, note=50, velocity=0, time=15)\n",
      "Message('control_change', channel=0, control=64, value=87, time=5)\n",
      "Message('control_change', channel=0, control=64, value=99, time=19)\n",
      "Message('note_on', channel=0, note=66, velocity=83, time=85)\n",
      "Message('control_change', channel=0, control=64, value=85, time=48)\n",
      "Message('control_change', channel=0, control=64, value=73, time=18)\n",
      "Message('control_change', channel=0, control=64, value=68, time=19)\n",
      "Message('note_on', channel=0, note=72, velocity=0, time=3)\n",
      "Message('note_on', channel=0, note=45, velocity=90, time=33)\n",
      "Message('control_change', channel=0, control=64, value=61, time=1)\n",
      "Message('note_on', channel=0, note=69, velocity=84, time=15)\n",
      "Message('control_change', channel=0, control=64, value=0, time=3)\n",
      "Message('control_change', channel=0, control=67, value=22, time=1)\n",
      "Message('note_on', channel=0, note=66, velocity=0, time=25)\n",
      "Message('note_on', channel=0, note=42, velocity=81, time=91)\n",
      "Message('note_on', channel=0, note=72, velocity=81, time=15)\n",
      "Message('control_change', channel=0, control=67, value=28, time=20)\n",
      "Message('note_on', channel=0, note=69, velocity=0, time=0)\n",
      "Message('control_change', channel=0, control=67, value=33, time=18)\n",
      "Message('note_on', channel=0, note=45, velocity=0, time=5)\n",
      "Message('note_on', channel=0, note=42, velocity=0, time=19)\n",
      "Message('note_on', channel=0, note=38, velocity=72, time=57)\n",
      "Message('note_on', channel=0, note=38, velocity=0, time=64)\n",
      "Message('note_on', channel=0, note=43, velocity=69, time=77)\n",
      "Message('note_on', channel=0, note=71, velocity=78, time=10)\n",
      "Message('note_on', channel=0, note=72, velocity=0, time=40)\n",
      "Message('control_change', channel=0, control=64, value=50, time=70)\n",
      "Message('note_on', channel=0, note=42, velocity=70, time=12)\n",
      "Message('note_on', channel=0, note=43, velocity=0, time=2)\n",
      "Message('control_change', channel=0, control=64, value=66, time=3)\n",
      "Message('note_on', channel=0, note=69, velocity=80, time=12)\n",
      "Message('control_change', channel=0, control=64, value=0, time=8)\n",
      "Message('control_change', channel=0, control=67, value=38, time=2)\n",
      "Message('note_on', channel=0, note=71, velocity=0, time=0)\n",
      "Message('note_on', channel=0, note=62, velocity=0, time=57)\n",
      "Message('note_on', channel=0, note=42, velocity=0, time=8)\n",
      "Message('note_on', channel=0, note=38, velocity=69, time=41)\n",
      "Message('control_change', channel=0, control=67, value=43, time=38)\n",
      "Message('note_on', channel=0, note=38, velocity=0, time=80)\n",
      "Message('note_on', channel=0, note=45, velocity=77, time=31)\n",
      "Message('note_on', channel=0, note=72, velocity=82, time=9)\n",
      "Message('note_on', channel=0, note=69, velocity=0, time=19)\n",
      "Message('note_on', channel=0, note=42, velocity=71, time=112)\n",
      "Message('note_on', channel=0, note=62, velocity=71, time=8)\n",
      "Message('note_on', channel=0, note=45, velocity=0, time=10)\n",
      "Message('control_change', channel=0, control=64, value=50, time=112)\n",
      "Message('control_change', channel=0, control=67, value=47, time=1)\n",
      "Message('note_on', channel=0, note=38, velocity=69, time=0)\n",
      "Message('note_on', channel=0, note=42, velocity=0, time=3)\n",
      "Message('control_change', channel=0, control=64, value=37, time=13)\n",
      "Message('control_change', channel=0, control=64, value=0, time=19)\n",
      "Message('note_on', channel=0, note=38, velocity=0, time=64)\n",
      "Message('note_on', channel=0, note=43, velocity=75, time=49)\n",
      "Message('note_on', channel=0, note=71, velocity=73, time=9)\n",
      "Message('note_on', channel=0, note=72, velocity=0, time=44)\n",
      "Message('note_on', channel=0, note=62, velocity=0, time=53)\n",
      "Message('note_on', channel=0, note=42, velocity=75, time=22)\n",
      "Message('note_on', channel=0, note=43, velocity=0, time=9)\n",
      "Message('note_on', channel=0, note=69, velocity=80, time=7)\n",
      "Message('note_on', channel=0, note=71, velocity=0, time=18)\n",
      "Message('note_on', channel=0, note=42, velocity=0, time=62)\n",
      "Message('control_change', channel=0, control=64, value=13, time=1)\n",
      "Message('note_on', channel=0, note=38, velocity=76, time=25)\n",
      "Message('control_change', channel=0, control=64, value=9, time=14)\n",
      "Message('control_change', channel=0, control=64, value=0, time=110)\n",
      "Message('note_on', channel=0, note=38, velocity=0, time=3)\n",
      "Message('note_on', channel=0, note=45, velocity=83, time=27)\n",
      "Message('note_on', channel=0, note=72, velocity=84, time=11)\n",
      "Message('note_on', channel=0, note=71, velocity=42, time=41)\n",
      "Message('note_on', channel=0, note=69, velocity=0, time=4)\n",
      "Message('note_on', channel=0, note=45, velocity=0, time=25)\n",
      "Message('note_on', channel=0, note=71, velocity=0, time=4)\n",
      "Message('note_on', channel=0, note=42, velocity=70, time=51)\n",
      "Message('note_on', channel=0, note=62, velocity=72, time=10)\n",
      "Message('note_on', channel=0, note=62, velocity=0, time=80)\n",
      "Message('note_on', channel=0, note=45, velocity=73, time=29)\n",
      "Message('note_on', channel=0, note=42, velocity=0, time=7)\n",
      "Message('note_on', channel=0, note=66, velocity=69, time=3)\n",
      "Message('note_on', channel=0, note=45, velocity=0, time=71)\n",
      "Message('note_on', channel=0, note=66, velocity=0, time=36)\n",
      "Message('note_on', channel=0, note=69, velocity=69, time=11)\n",
      "Message('note_on', channel=0, note=48, velocity=73, time=3)\n",
      "Message('note_on', channel=0, note=48, velocity=0, time=56)\n",
      "Message('note_on', channel=0, note=69, velocity=0, time=37)\n",
      "Message('control_change', channel=0, control=64, value=55, time=19)\n",
      "Message('note_on', channel=0, note=72, velocity=0, time=3)\n",
      "Message('note_on', channel=0, note=38, velocity=82, time=12)\n",
      "Message('control_change', channel=0, control=64, value=68, time=3)\n",
      "Message('note_on', channel=0, note=66, velocity=83, time=1)\n",
      "Message('control_change', channel=0, control=64, value=76, time=19)\n",
      "Message('control_change', channel=0, control=67, value=51, time=1)\n",
      "Message('note_on', channel=0, note=38, velocity=0, time=9)\n",
      "Message('control_change', channel=0, control=64, value=84, time=10)\n",
      "Message('control_change', channel=0, control=64, value=90, time=20)\n",
      "Message('note_on', channel=0, note=66, velocity=0, time=7)\n",
      "Message('control_change', channel=0, control=64, value=97, time=9)\n",
      "Message('control_change', channel=0, control=64, value=101, time=18)\n",
      "Message('note_on', channel=0, note=69, velocity=77, time=30)\n",
      "Message('control_change', channel=0, control=64, value=108, time=101)\n",
      "Message('note_on', channel=0, note=69, velocity=0, time=2)\n",
      "Message('note_on', channel=0, note=47, velocity=88, time=29)\n",
      "Message('note_on', channel=0, note=74, velocity=87, time=1)\n",
      "Message('control_change', channel=0, control=64, value=88, time=28)\n",
      "Message('control_change', channel=0, control=64, value=46, time=18)\n",
      "Message('control_change', channel=0, control=64, value=0, time=22)\n",
      "Message('control_change', channel=0, control=64, value=20, time=68)\n",
      "Message('note_on', channel=0, note=43, velocity=72, time=11)\n",
      "Message('note_on', channel=0, note=47, velocity=0, time=2)\n",
      "Message('note_on', channel=0, note=64, velocity=76, time=4)\n",
      "Message('control_change', channel=0, control=64, value=45, time=3)\n",
      "Message('control_change', channel=0, control=64, value=40, time=37)\n",
      "Message('note_on', channel=0, note=64, velocity=0, time=32)\n",
      "Message('control_change', channel=0, control=64, value=43, time=44)\n",
      "Message('note_on', channel=0, note=43, velocity=0, time=3)\n",
      "Message('note_on', channel=0, note=47, velocity=73, time=1)\n",
      "Message('note_on', channel=0, note=67, velocity=77, time=13)\n",
      "Message('note_on', channel=0, note=47, velocity=0, time=36)\n",
      "Message('note_on', channel=0, note=67, velocity=0, time=39)\n",
      "Message('note_on', channel=0, note=50, velocity=76, time=32)\n",
      "Message('note_on', channel=0, note=71, velocity=82, time=22)\n",
      "Message('control_change', channel=0, control=64, value=27, time=3)\n",
      "Message('control_change', channel=0, control=64, value=0, time=20)\n",
      "Message('note_on', channel=0, note=50, velocity=0, time=17)\n",
      "Message('note_on', channel=0, note=71, velocity=0, time=34)\n",
      "Message('note_on', channel=0, note=40, velocity=87, time=26)\n",
      "Message('note_on', channel=0, note=67, velocity=82, time=29)\n",
      "Message('control_change', channel=0, control=64, value=54, time=8)\n",
      "Message('control_change', channel=0, control=67, value=56, time=1)\n",
      "Message('note_on', channel=0, note=74, velocity=0, time=0)\n",
      "Message('note_on', channel=0, note=40, velocity=0, time=1)\n",
      "Message('control_change', channel=0, control=64, value=77, time=15)\n",
      "Message('control_change', channel=0, control=64, value=90, time=21)\n",
      "Message('control_change', channel=0, control=67, value=60, time=3)\n",
      "Message('control_change', channel=0, control=64, value=103, time=15)\n",
      "Message('control_change', channel=0, control=64, value=108, time=20)\n",
      "Message('note_on', channel=0, note=71, velocity=80, time=40)\n",
      "Message('note_on', channel=0, note=67, velocity=0, time=16)\n",
      "Message('control_change', channel=0, control=67, value=65, time=20)\n",
      "Message('control_change', channel=0, control=67, value=70, time=17)\n",
      "Message('note_on', channel=0, note=48, velocity=88, time=73)\n",
      "Message('note_on', channel=0, note=71, velocity=0, time=5)\n",
      "Message('note_on', channel=0, note=76, velocity=89, time=4)\n",
      "Message('control_change', channel=0, control=64, value=100, time=13)\n",
      "Message('control_change', channel=0, control=64, value=76, time=19)\n",
      "Message('control_change', channel=0, control=64, value=0, time=18)\n",
      "Message('note_on', channel=0, note=48, velocity=0, time=10)\n",
      "Message('note_on', channel=0, note=45, velocity=79, time=54)\n",
      "Message('note_on', channel=0, note=66, velocity=82, time=17)\n",
      "Message('note_on', channel=0, note=45, velocity=0, time=44)\n",
      "Message('note_on', channel=0, note=66, velocity=0, time=30)\n",
      "Message('note_on', channel=0, note=48, velocity=68, time=53)\n",
      "Message('note_on', channel=0, note=69, velocity=70, time=17)\n",
      "Message('note_on', channel=0, note=48, velocity=0, time=23)\n",
      "Message('control_change', channel=0, control=64, value=9, time=52)\n",
      "Message('note_on', channel=0, note=69, velocity=0, time=13)\n",
      "Message('note_on', channel=0, note=52, velocity=78, time=12)\n",
      "Message('note_on', channel=0, note=72, velocity=82, time=17)\n",
      "Message('control_change', channel=0, control=64, value=0, time=13)\n",
      "Message('note_on', channel=0, note=52, velocity=0, time=16)\n",
      "Message('note_on', channel=0, note=72, velocity=0, time=50)\n",
      "Message('note_on', channel=0, note=42, velocity=86, time=39)\n",
      "Message('note_on', channel=0, note=76, velocity=0, time=6)\n",
      "Message('note_on', channel=0, note=69, velocity=84, time=10)\n",
      "Message('note_on', channel=0, note=42, velocity=0, time=44)\n",
      "Message('control_change', channel=0, control=64, value=62, time=4)\n",
      "Message('control_change', channel=0, control=64, value=74, time=19)\n",
      "Message('control_change', channel=0, control=64, value=78, time=20)\n",
      "Message('note_on', channel=0, note=50, velocity=79, time=34)\n",
      "Message('note_on', channel=0, note=72, velocity=81, time=0)\n",
      "Message('note_on', channel=0, note=50, velocity=0, time=43)\n",
      "Message('note_on', channel=0, note=48, velocity=79, time=74)\n",
      "Message('note_on', channel=0, note=78, velocity=83, time=8)\n",
      "Message('note_on', channel=0, note=72, velocity=0, time=5)\n",
      "Message('note_on', channel=0, note=48, velocity=0, time=21)\n",
      "Message('control_change', channel=0, control=64, value=75, time=22)\n",
      "Message('note_on', channel=0, note=75, velocity=9, time=8)\n",
      "Message('control_change', channel=0, control=64, value=65, time=11)\n",
      "Message('note_on', channel=0, note=75, velocity=0, time=11)\n",
      "Message('control_change', channel=0, control=64, value=0, time=8)\n",
      "Message('note_on', channel=0, note=78, velocity=0, time=36)\n",
      "Message('note_on', channel=0, note=47, velocity=83, time=6)\n",
      "Message('note_on', channel=0, note=79, velocity=86, time=12)\n",
      "Message('note_on', channel=0, note=69, velocity=0, time=1)\n",
      "Message('note_on', channel=0, note=69, velocity=51, time=0)\n",
      "Message('control_change', channel=0, control=64, value=53, time=39)\n",
      "Message('control_change', channel=0, control=64, value=68, time=20)\n",
      "Message('note_on', channel=0, note=69, velocity=0, time=3)\n",
      "Message('control_change', channel=0, control=64, value=75, time=16)\n",
      "Message('control_change', channel=0, control=64, value=77, time=19)\n",
      "Message('control_change', channel=0, control=67, value=74, time=19)\n",
      "Message('note_on', channel=0, note=47, velocity=0, time=6)\n",
      "Message('note_on', channel=0, note=50, velocity=60, time=8)\n",
      "Message('control_change', channel=0, control=64, value=75, time=4)\n",
      "Message('note_on', channel=0, note=74, velocity=71, time=4)\n",
      "Message('note_on', channel=0, note=48, velocity=59, time=1)\n",
      "Message('note_on', channel=0, note=48, velocity=0, time=104)\n",
      "Message('note_on', channel=0, note=71, velocity=78, time=16)\n",
      "Message('note_on', channel=0, note=79, velocity=0, time=4)\n",
      "Message('note_on', channel=0, note=50, velocity=0, time=2)\n",
      "Message('note_on', channel=0, note=74, velocity=0, time=0)\n",
      "Message('note_on', channel=0, note=55, velocity=70, time=27)\n",
      "Message('control_change', channel=0, control=64, value=71, time=7)\n",
      "Message('control_change', channel=0, control=64, value=46, time=21)\n",
      "Message('control_change', channel=0, control=64, value=0, time=17)\n",
      "Message('control_change', channel=0, control=67, value=69, time=21)\n",
      "Message('note_on', channel=0, note=55, velocity=0, time=10)\n",
      "Message('note_on', channel=0, note=71, velocity=0, time=17)\n",
      "Message('note_on', channel=0, note=59, velocity=77, time=22)\n",
      "Message('note_on', channel=0, note=67, velocity=88, time=0)\n",
      "Message('control_change', channel=0, control=64, value=36, time=5)\n",
      "Message('control_change', channel=0, control=64, value=58, time=22)\n",
      "Message('control_change', channel=0, control=64, value=65, time=17)\n",
      "Message('control_change', channel=0, control=64, value=63, time=21)\n",
      "Message('control_change', channel=0, control=64, value=61, time=17)\n",
      "Message('note_on', channel=0, note=59, velocity=0, time=1)\n",
      "Message('note_on', channel=0, note=67, velocity=0, time=14)\n",
      "Message('note_on', channel=0, note=77, velocity=88, time=32)\n",
      "Message('note_on', channel=0, note=55, velocity=63, time=16)\n",
      "Message('note_on', channel=0, note=53, velocity=66, time=6)\n",
      "Message('control_change', channel=0, control=64, value=62, time=46)\n",
      "Message('note_on', channel=0, note=53, velocity=0, time=3)\n",
      "Message('note_on', channel=0, note=77, velocity=0, time=38)\n",
      "Message('note_on', channel=0, note=59, velocity=68, time=15)\n",
      "Message('note_on', channel=0, note=55, velocity=0, time=8)\n",
      "Message('note_on', channel=0, note=74, velocity=89, time=0)\n",
      "Message('note_on', channel=0, note=57, velocity=61, time=8)\n",
      "Message('note_on', channel=0, note=57, velocity=0, time=28)\n",
      "Message('control_change', channel=0, control=64, value=53, time=12)\n",
      "Message('note_on', channel=0, note=59, velocity=0, time=5)\n",
      "Message('control_change', channel=0, control=64, value=0, time=14)\n",
      "Message('note_on', channel=0, note=74, velocity=0, time=23)\n",
      "Message('note_on', channel=0, note=60, velocity=79, time=27)\n",
      "Message('note_on', channel=0, note=76, velocity=86, time=18)\n",
      "Message('control_change', channel=0, control=64, value=28, time=27)\n",
      "Message('control_change', channel=0, control=64, value=47, time=17)\n",
      "Message('control_change', channel=0, control=64, value=52, time=18)\n",
      "Message('note_on', channel=0, note=57, velocity=62, time=56)\n",
      "Message('note_on', channel=0, note=60, velocity=0, time=13)\n",
      "Message('note_on', channel=0, note=72, velocity=61, time=8)\n",
      "Message('note_on', channel=0, note=71, velocity=70, time=9)\n",
      "Message('control_change', channel=0, control=64, value=54, time=10)\n",
      "Message('control_change', channel=0, control=64, value=56, time=20)\n",
      "Message('note_on', channel=0, note=72, velocity=0, time=63)\n",
      "Message('note_on', channel=0, note=71, velocity=0, time=8)\n",
      "Message('note_on', channel=0, note=69, velocity=76, time=3)\n",
      "Message('note_on', channel=0, note=54, velocity=64, time=2)\n",
      "Message('note_on', channel=0, note=57, velocity=0, time=1)\n",
      "Message('control_change', channel=0, control=64, value=54, time=16)\n",
      "Message('note_on', channel=0, note=76, velocity=0, time=0)\n",
      "Message('control_change', channel=0, control=64, value=39, time=19)\n",
      "Message('control_change', channel=0, control=64, value=0, time=18)\n",
      "Message('note_on', channel=0, note=54, velocity=0, time=45)\n",
      "Message('control_change', channel=0, control=64, value=44, time=10)\n",
      "Message('note_on', channel=0, note=69, velocity=0, time=4)\n",
      "Message('note_on', channel=0, note=50, velocity=76, time=2)\n",
      "Message('control_change', channel=0, control=64, value=62, time=13)\n",
      "Message('note_on', channel=0, note=66, velocity=82, time=4)\n",
      "Message('control_change', channel=0, control=64, value=68, time=17)\n",
      "Message('control_change', channel=0, control=64, value=66, time=17)\n",
      "Message('control_change', channel=0, control=64, value=62, time=37)\n",
      "Message('control_change', channel=0, control=64, value=59, time=19)\n",
      "Message('control_change', channel=0, control=67, value=74, time=2)\n",
      "Message('note_on', channel=0, note=66, velocity=0, time=0)\n",
      "Message('control_change', channel=0, control=64, value=63, time=35)\n",
      "Message('note_on', channel=0, note=69, velocity=78, time=5)\n",
      "Message('note_on', channel=0, note=54, velocity=74, time=9)\n",
      "Message('control_change', channel=0, control=64, value=65, time=3)\n",
      "Message('note_on', channel=0, note=50, velocity=0, time=10)\n",
      "Message('control_change', channel=0, control=64, value=62, time=48)\n",
      "Message('control_change', channel=0, control=64, value=61, time=17)\n",
      "Message('control_change', channel=0, control=64, value=63, time=21)\n",
      "Message('control_change', channel=0, control=64, value=65, time=18)\n",
      "Message('note_on', channel=0, note=72, velocity=82, time=13)\n",
      "Message('note_on', channel=0, note=57, velocity=81, time=2)\n",
      "Message('note_on', channel=0, note=54, velocity=0, time=1)\n",
      "Message('note_on', channel=0, note=69, velocity=0, time=7)\n",
      "Message('control_change', channel=0, control=64, value=57, time=15)\n",
      "Message('control_change', channel=0, control=64, value=0, time=19)\n",
      "Message('control_change', channel=0, control=67, value=70, time=1)\n",
      "Message('note_on', channel=0, note=57, velocity=0, time=59)\n",
      "Message('note_on', channel=0, note=55, velocity=85, time=3)\n",
      "Message('control_change', channel=0, control=67, value=74, time=12)\n",
      "Message('note_on', channel=0, note=71, velocity=82, time=4)\n",
      "Message('note_on', channel=0, note=72, velocity=0, time=8)\n",
      "Message('control_change', channel=0, control=64, value=61, time=7)\n",
      "Message('control_change', channel=0, control=64, value=74, time=19)\n",
      "Message('note_on', channel=0, note=55, velocity=0, time=6)\n",
      "Message('control_change', channel=0, control=64, value=77, time=14)\n",
      "Message('control_change', channel=0, control=64, value=75, time=19)\n",
      "Message('note_on', channel=0, note=71, velocity=0, time=9)\n",
      "Message('note_on', channel=0, note=55, velocity=70, time=3)\n",
      "Message('control_change', channel=0, control=64, value=72, time=6)\n",
      "Message('note_on', channel=0, note=69, velocity=81, time=40)\n",
      "Message('control_change', channel=0, control=64, value=74, time=17)\n",
      "Message('note_on', channel=0, note=69, velocity=0, time=38)\n",
      "Message('control_change', channel=0, control=64, value=76, time=19)\n",
      "Message('control_change', channel=0, control=64, value=78, time=18)\n",
      "Message('control_change', channel=0, control=64, value=81, time=18)\n",
      "Message('note_on', channel=0, note=48, velocity=77, time=10)\n",
      "Message('note_on', channel=0, note=64, velocity=87, time=4)\n",
      "Message('note_on', channel=0, note=67, velocity=84, time=0)\n",
      "Message('note_on', channel=0, note=55, velocity=0, time=9)\n",
      "Message('control_change', channel=0, control=64, value=65, time=16)\n",
      "Message('control_change', channel=0, control=64, value=0, time=20)\n",
      "Message('note_on', channel=0, note=67, velocity=0, time=7)\n",
      "Message('note_on', channel=0, note=64, velocity=0, time=7)\n",
      "Message('note_on', channel=0, note=50, velocity=82, time=62)\n",
      "Message('note_on', channel=0, note=48, velocity=0, time=7)\n",
      "Message('note_on', channel=0, note=67, velocity=83, time=4)\n",
      "Message('note_on', channel=0, note=62, velocity=87, time=8)\n",
      "Message('note_on', channel=0, note=67, velocity=0, time=57)\n",
      "Message('control_change', channel=0, control=64, value=44, time=36)\n",
      "Message('control_change', channel=0, control=64, value=65, time=19)\n",
      "Message('control_change', channel=0, control=64, value=71, time=18)\n",
      "Message('note_on', channel=0, note=69, velocity=80, time=3)\n",
      "Message('note_on', channel=0, note=62, velocity=0, time=10)\n",
      "Message('control_change', channel=0, control=64, value=68, time=6)\n",
      "Message('control_change', channel=0, control=67, value=78, time=1)\n",
      "Message('control_change', channel=0, control=64, value=62, time=20)\n",
      "Message('control_change', channel=0, control=64, value=69, time=36)\n",
      "Message('control_change', channel=0, control=64, value=77, time=33)\n",
      "Message('note_on', channel=0, note=38, velocity=78, time=17)\n",
      "Message('control_change', channel=0, control=64, value=85, time=2)\n",
      "Message('note_on', channel=0, note=60, velocity=82, time=25)\n",
      "Message('note_on', channel=0, note=66, velocity=83, time=3)\n",
      "Message('note_on', channel=0, note=69, velocity=0, time=0)\n",
      "Message('control_change', channel=0, control=64, value=79, time=12)\n",
      "Message('note_on', channel=0, note=38, velocity=0, time=0)\n",
      "Message('control_change', channel=0, control=64, value=48, time=17)\n",
      "Message('control_change', channel=0, control=64, value=0, time=19)\n",
      "Message('note_on', channel=0, note=66, velocity=0, time=51)\n",
      "Message('note_on', channel=0, note=50, velocity=0, time=17)\n",
      "Message('note_on', channel=0, note=43, velocity=81, time=10)\n",
      "Message('note_on', channel=0, note=67, velocity=85, time=19)\n",
      "Message('note_on', channel=0, note=60, velocity=0, time=36)\n",
      "Message('control_change', channel=0, control=67, value=74, time=38)\n",
      "Message('note_on', channel=0, note=47, velocity=72, time=58)\n",
      "Message('note_on', channel=0, note=62, velocity=84, time=0)\n",
      "Message('control_change', channel=0, control=67, value=66, time=35)\n",
      "Message('note_on', channel=0, note=62, velocity=0, time=17)\n",
      "Message('control_change', channel=0, control=67, value=49, time=3)\n",
      "Message('note_on', channel=0, note=47, velocity=0, time=1)\n",
      "Message('control_change', channel=0, control=67, value=24, time=18)\n",
      "Message('note_on', channel=0, note=59, velocity=83, time=67)\n",
      "Message('note_on', channel=0, note=50, velocity=77, time=2)\n",
      "Message('control_change', channel=0, control=67, value=0, time=4)\n",
      "Message('note_on', channel=0, note=59, velocity=0, time=22)\n",
      "Message('note_on', channel=0, note=50, velocity=0, time=20)\n",
      "Message('control_change', channel=0, control=64, value=23, time=129)\n",
      "Message('control_change', channel=0, control=64, value=80, time=21)\n",
      "Message('note_on', channel=0, note=55, velocity=84, time=9)\n",
      "Message('note_on', channel=0, note=43, velocity=0, time=2)\n",
      "Message('control_change', channel=0, control=64, value=97, time=6)\n",
      "Message('control_change', channel=0, control=64, value=107, time=21)\n",
      "Message('note_on', channel=0, note=55, velocity=0, time=0)\n",
      "Message('control_change', channel=0, control=64, value=118, time=37)\n",
      "Message('control_change', channel=0, control=64, value=127, time=18)\n",
      "Message('note_on', channel=0, note=67, velocity=0, time=37)\n",
      "Message('control_change', channel=0, control=64, value=97, time=241)\n",
      "Message('control_change', channel=0, control=64, value=41, time=20)\n",
      "Message('note_on', channel=0, note=57, velocity=76, time=4)\n",
      "Message('control_change', channel=0, control=64, value=0, time=14)\n",
      "Message('note_on', channel=0, note=57, velocity=0, time=45)\n",
      "Message('note_on', channel=0, note=54, velocity=77, time=85)\n",
      "Message('control_change', channel=0, control=64, value=56, time=61)\n",
      "Message('control_change', channel=0, control=67, value=14, time=1)\n",
      "Message('control_change', channel=0, control=64, value=63, time=16)\n",
      "Message('control_change', channel=0, control=67, value=18, time=1)\n",
      "Message('control_change', channel=0, control=64, value=0, time=19)\n",
      "Message('note_on', channel=0, note=54, velocity=0, time=20)\n",
      "Message('note_on', channel=0, note=50, velocity=69, time=7)\n",
      "Message('control_change', channel=0, control=67, value=22, time=27)\n",
      "Message('control_change', channel=0, control=67, value=27, time=58)\n",
      "Message('note_on', channel=0, note=50, velocity=0, time=48)\n",
      "Message('note_on', channel=0, note=55, velocity=65, time=10)\n",
      "Message('control_change', channel=0, control=67, value=31, time=36)\n",
      "Message('note_on', channel=0, note=55, velocity=0, time=62)\n",
      "Message('note_on', channel=0, note=54, velocity=68, time=33)\n",
      "Message('note_on', channel=0, note=54, velocity=0, time=75)\n",
      "Message('note_on', channel=0, note=50, velocity=69, time=44)\n",
      "Message('note_on', channel=0, note=50, velocity=0, time=82)\n",
      "Message('note_on', channel=0, note=57, velocity=72, time=51)\n",
      "Message('note_on', channel=0, note=54, velocity=72, time=168)\n",
      "Message('note_on', channel=0, note=57, velocity=0, time=8)\n",
      "Message('note_on', channel=0, note=54, velocity=0, time=42)\n",
      "Message('control_change', channel=0, control=67, value=37, time=15)\n",
      "Message('control_change', channel=0, control=67, value=41, time=39)\n",
      "Message('note_on', channel=0, note=50, velocity=71, time=0)\n",
      "Message('control_change', channel=0, control=67, value=46, time=114)\n",
      "Message('note_on', channel=0, note=50, velocity=0, time=43)\n",
      "Message('note_on', channel=0, note=55, velocity=63, time=5)\n",
      "Message('note_on', channel=0, note=50, velocity=25, time=17)\n",
      "Message('note_on', channel=0, note=50, velocity=0, time=1)\n",
      "Message('note_on', channel=0, note=55, velocity=0, time=112)\n",
      "Message('note_on', channel=0, note=54, velocity=69, time=17)\n",
      "Message('note_on', channel=0, note=54, velocity=0, time=63)\n",
      "Message('control_change', channel=0, control=67, value=51, time=5)\n",
      "Message('note_on', channel=0, note=50, velocity=69, time=50)\n",
      "Message('control_change', channel=0, control=67, value=56, time=65)\n",
      "Message('control_change', channel=0, control=67, value=60, time=37)\n",
      "Message('note_on', channel=0, note=50, velocity=0, time=2)\n",
      "Message('note_on', channel=0, note=57, velocity=75, time=35)\n",
      "Message('note_on', channel=0, note=57, velocity=0, time=103)\n",
      "Message('note_on', channel=0, note=54, velocity=72, time=32)\n",
      "Message('note_on', channel=0, note=57, velocity=77, time=130)\n",
      "Message('note_on', channel=0, note=54, velocity=0, time=11)\n",
      "Message('note_on', channel=0, note=57, velocity=0, time=41)\n",
      "Message('note_on', channel=0, note=60, velocity=73, time=75)\n",
      "Message('note_on', channel=0, note=60, velocity=0, time=77)\n",
      "Message('note_on', channel=0, note=50, velocity=83, time=61)\n",
      "Message('control_change', channel=0, control=64, value=58, time=14)\n",
      "Message('control_change', channel=0, control=64, value=79, time=19)\n",
      "Message('note_on', channel=0, note=50, velocity=0, time=0)\n",
      "Message('control_change', channel=0, control=64, value=99, time=18)\n",
      "Message('control_change', channel=0, control=64, value=123, time=22)\n",
      "Message('control_change', channel=0, control=64, value=127, time=17)\n",
      "Message('control_change', channel=0, control=67, value=64, time=1)\n",
      "Message('control_change', channel=0, control=67, value=68, time=17)\n",
      "Message('control_change', channel=0, control=64, value=120, time=172)\n",
      "Message('note_on', channel=0, note=59, velocity=80, time=5)\n",
      "Message('control_change', channel=0, control=64, value=87, time=12)\n",
      "Message('control_change', channel=0, control=64, value=29, time=18)\n",
      "Message('control_change', channel=0, control=64, value=0, time=19)\n",
      "Message('note_on', channel=0, note=59, velocity=0, time=12)\n",
      "Message('note_on', channel=0, note=55, velocity=76, time=71)\n",
      "Message('control_change', channel=0, control=64, value=34, time=50)\n",
      "Message('control_change', channel=0, control=64, value=40, time=19)\n",
      "Message('note_on', channel=0, note=55, velocity=0, time=47)\n",
      "Message('note_on', channel=0, note=59, velocity=71, time=6)\n",
      "Message('note_on', channel=0, note=59, velocity=0, time=43)\n",
      "Message('control_change', channel=0, control=64, value=42, time=33)\n",
      "Message('note_on', channel=0, note=62, velocity=76, time=73)\n",
      "Message('control_change', channel=0, control=64, value=38, time=40)\n",
      "Message('note_on', channel=0, note=62, velocity=0, time=0)\n",
      "Message('control_change', channel=0, control=64, value=0, time=19)\n",
      "Message('note_on', channel=0, note=52, velocity=68, time=95)\n",
      "Message('control_change', channel=0, control=64, value=60, time=18)\n",
      "Message('note_on', channel=0, note=52, velocity=0, time=15)\n",
      "Message('control_change', channel=0, control=64, value=77, time=5)\n",
      "Message('control_change', channel=0, control=64, value=93, time=19)\n",
      "Message('control_change', channel=0, control=64, value=110, time=19)\n",
      "Message('control_change', channel=0, control=64, value=120, time=17)\n",
      "Message('note_on', channel=0, note=60, velocity=79, time=175)\n",
      "Message('control_change', channel=0, control=64, value=116, time=15)\n",
      "Message('control_change', channel=0, control=64, value=104, time=19)\n",
      "Message('control_change', channel=0, control=64, value=84, time=20)\n",
      "Message('note_on', channel=0, note=60, velocity=0, time=7)\n",
      "Message('control_change', channel=0, control=64, value=63, time=9)\n",
      "Message('control_change', channel=0, control=67, value=64, time=2)\n",
      "Message('control_change', channel=0, control=64, value=39, time=18)\n",
      "Message('control_change', channel=0, control=64, value=32, time=18)\n",
      "Message('note_on', channel=0, note=57, velocity=73, time=27)\n",
      "Message('control_change', channel=0, control=64, value=36, time=68)\n",
      "Message('note_on', channel=0, note=57, velocity=0, time=52)\n",
      "Message('note_on', channel=0, note=60, velocity=75, time=1)\n",
      "Message('note_on', channel=0, note=60, velocity=0, time=68)\n",
      "Message('control_change', channel=0, control=64, value=40, time=48)\n",
      "Message('note_on', channel=0, note=64, velocity=71, time=26)\n",
      "Message('control_change', channel=0, control=67, value=68, time=12)\n",
      "Message('control_change', channel=0, control=64, value=36, time=54)\n",
      "Message('note_on', channel=0, note=64, velocity=0, time=7)\n",
      "Message('control_change', channel=0, control=64, value=0, time=12)\n",
      "Message('note_on', channel=0, note=54, velocity=79, time=53)\n",
      "Message('note_on', channel=0, note=54, velocity=0, time=65)\n",
      "Message('control_change', channel=0, control=64, value=48, time=11)\n",
      "Message('control_change', channel=0, control=64, value=61, time=18)\n",
      "Message('control_change', channel=0, control=64, value=68, time=18)\n",
      "Message('note_on', channel=0, note=62, velocity=71, time=17)\n",
      "Message('control_change', channel=0, control=64, value=70, time=4)\n",
      "Message('note_on', channel=0, note=62, velocity=0, time=63)\n",
      "Message('note_on', channel=0, note=60, velocity=79, time=53)\n",
      "Message('note_on', channel=0, note=60, velocity=0, time=33)\n",
      "Message('control_change', channel=0, control=64, value=58, time=78)\n",
      "Message('control_change', channel=0, control=64, value=0, time=17)\n",
      "Message('note_on', channel=0, note=59, velocity=79, time=14)\n",
      "Message('control_change', channel=0, control=64, value=13, time=27)\n",
      "Message('control_change', channel=0, control=64, value=48, time=18)\n",
      "Message('control_change', channel=0, control=64, value=64, time=18)\n",
      "Message('note_on', channel=0, note=59, velocity=0, time=9)\n",
      "Message('control_change', channel=0, control=64, value=72, time=11)\n",
      "Message('control_change', channel=0, control=64, value=68, time=37)\n",
      "Message('note_on', channel=0, note=55, velocity=69, time=0)\n",
      "Message('control_change', channel=0, control=64, value=66, time=17)\n",
      "Message('control_change', channel=0, control=64, value=68, time=21)\n",
      "Message('note_on', channel=0, note=55, velocity=0, time=6)\n",
      "Message('note_on', channel=0, note=50, velocity=67, time=83)\n",
      "Message('note_on', channel=0, note=50, velocity=0, time=80)\n",
      "Message('control_change', channel=0, control=64, value=66, time=38)\n",
      "Message('control_change', channel=0, control=64, value=65, time=19)\n",
      "Message('note_on', channel=0, note=55, velocity=63, time=8)\n",
      "Message('control_change', channel=0, control=64, value=60, time=49)\n",
      "Message('control_change', channel=0, control=64, value=41, time=19)\n",
      "Message('control_change', channel=0, control=64, value=0, time=33)\n",
      "Message('note_on', channel=0, note=55, velocity=0, time=12)\n",
      "Message('note_on', channel=0, note=50, velocity=59, time=16)\n",
      "Message('note_on', channel=0, note=50, velocity=0, time=112)\n",
      "Message('control_change', channel=0, control=67, value=72, time=12)\n",
      "Message('note_on', channel=0, note=62, velocity=71, time=21)\n",
      "Message('note_on', channel=0, note=45, velocity=19, time=60)\n",
      "Message('note_on', channel=0, note=47, velocity=11, time=7)\n",
      "Message('note_on', channel=0, note=45, velocity=0, time=51)\n",
      "Message('note_on', channel=0, note=47, velocity=0, time=20)\n",
      "Message('note_on', channel=0, note=43, velocity=65, time=1)\n",
      "Message('note_on', channel=0, note=59, velocity=70, time=0)\n",
      "Message('note_on', channel=0, note=62, velocity=0, time=8)\n",
      "Message('note_on', channel=0, note=55, velocity=59, time=123)\n",
      "Message('note_on', channel=0, note=59, velocity=0, time=7)\n",
      "Message('note_on', channel=0, note=55, velocity=0, time=76)\n",
      "Message('note_on', channel=0, note=60, velocity=65, time=54)\n",
      "Message('note_on', channel=0, note=52, velocity=54, time=7)\n",
      "Message('note_on', channel=0, note=52, velocity=0, time=108)\n",
      "Message('note_on', channel=0, note=59, velocity=64, time=24)\n",
      "Message('note_on', channel=0, note=50, velocity=53, time=3)\n",
      "Message('note_on', channel=0, note=60, velocity=0, time=9)\n",
      "Message('note_on', channel=0, note=59, velocity=0, time=75)\n",
      "Message('note_on', channel=0, note=55, velocity=57, time=35)\n",
      "Message('note_on', channel=0, note=43, velocity=0, time=161)\n",
      "Message('note_on', channel=0, note=62, velocity=65, time=7)\n",
      "Message('note_on', channel=0, note=42, velocity=63, time=6)\n",
      "Message('note_on', channel=0, note=55, velocity=0, time=1)\n",
      "Message('note_on', channel=0, note=42, velocity=0, time=74)\n",
      "Message('note_on', channel=0, note=59, velocity=63, time=58)\n",
      "Message('note_on', channel=0, note=43, velocity=56, time=5)\n",
      "Message('note_on', channel=0, note=62, velocity=0, time=58)\n",
      "Message('note_on', channel=0, note=59, velocity=0, time=31)\n",
      "Message('note_on', channel=0, note=55, velocity=56, time=37)\n",
      "Message('note_on', channel=0, note=55, velocity=0, time=88)\n",
      "Message('note_on', channel=0, note=50, velocity=0, time=17)\n",
      "Message('note_on', channel=0, note=52, velocity=49, time=25)\n",
      "Message('note_on', channel=0, note=60, velocity=61, time=3)\n",
      "Message('note_on', channel=0, note=59, velocity=62, time=126)\n",
      "Message('note_on', channel=0, note=60, velocity=0, time=14)\n",
      "Message('note_on', channel=0, note=52, velocity=0, time=3)\n",
      "Message('note_on', channel=0, note=50, velocity=59, time=7)\n",
      "Message('note_on', channel=0, note=59, velocity=0, time=61)\n",
      "Message('note_on', channel=0, note=55, velocity=59, time=50)\n",
      "Message('note_on', channel=0, note=55, velocity=0, time=141)\n",
      "Message('note_on', channel=0, note=62, velocity=68, time=7)\n",
      "Message('note_on', channel=0, note=43, velocity=0, time=4)\n",
      "Message('note_on', channel=0, note=42, velocity=57, time=9)\n",
      "Message('note_on', channel=0, note=42, velocity=0, time=58)\n",
      "Message('note_on', channel=0, note=62, velocity=0, time=90)\n",
      "Message('note_on', channel=0, note=59, velocity=70, time=2)\n",
      "Message('note_on', channel=0, note=43, velocity=62, time=4)\n",
      "Message('note_on', channel=0, note=50, velocity=0, time=81)\n",
      "Message('note_on', channel=0, note=43, velocity=0, time=37)\n",
      "Message('note_on', channel=0, note=47, velocity=64, time=0)\n",
      "Message('note_on', channel=0, note=59, velocity=0, time=1)\n",
      "Message('note_on', channel=0, note=62, velocity=73, time=6)\n",
      "Message('note_on', channel=0, note=62, velocity=0, time=90)\n",
      "Message('note_on', channel=0, note=50, velocity=64, time=29)\n",
      "Message('note_on', channel=0, note=47, velocity=0, time=1)\n",
      "Message('note_on', channel=0, note=65, velocity=74, time=4)\n",
      "Message('control_change', channel=0, control=67, value=68, time=22)\n",
      "Message('note_on', channel=0, note=65, velocity=0, time=65)\n",
      "Message('control_change', channel=0, control=67, value=64, time=8)\n",
      "Message('control_change', channel=0, control=67, value=57, time=19)\n",
      "Message('note_on', channel=0, note=50, velocity=0, time=11)\n",
      "Message('control_change', channel=0, control=67, value=49, time=10)\n",
      "Message('note_on', channel=0, note=47, velocity=61, time=0)\n",
      "Message('note_on', channel=0, note=55, velocity=71, time=6)\n",
      "Message('control_change', channel=0, control=67, value=44, time=12)\n",
      "Message('note_on', channel=0, note=47, velocity=0, time=60)\n",
      "Message('control_change', channel=0, control=64, value=19, time=17)\n",
      "Message('control_change', channel=0, control=64, value=31, time=17)\n",
      "Message('control_change', channel=0, control=67, value=38, time=1)\n",
      "Message('control_change', channel=0, control=64, value=39, time=18)\n",
      "Message('note_on', channel=0, note=43, velocity=58, time=0)\n",
      "Message('control_change', channel=0, control=64, value=42, time=20)\n",
      "Message('control_change', channel=0, control=67, value=34, time=0)\n",
      "Message('note_on', channel=0, note=43, velocity=0, time=91)\n",
      "Message('note_on', channel=0, note=48, velocity=60, time=25)\n",
      "Message('note_on', channel=0, note=64, velocity=73, time=3)\n",
      "Message('control_change', channel=0, control=67, value=30, time=32)\n",
      "Message('note_on', channel=0, note=55, velocity=0, time=0)\n",
      "Message('control_change', channel=0, control=64, value=35, time=37)\n",
      "Message('control_change', channel=0, control=64, value=20, time=19)\n",
      "Message('control_change', channel=0, control=64, value=0, time=19)\n",
      "Message('note_on', channel=0, note=48, velocity=0, time=9)\n",
      "Message('note_on', channel=0, note=60, velocity=81, time=15)\n",
      "Message('note_on', channel=0, note=45, velocity=72, time=2)\n",
      "Message('note_on', channel=0, note=64, velocity=0, time=12)\n",
      "Message('note_on', channel=0, note=45, velocity=0, time=128)\n",
      "Message('note_on', channel=0, note=60, velocity=0, time=3)\n",
      "Message('note_on', channel=0, note=48, velocity=65, time=4)\n",
      "Message('note_on', channel=0, note=64, velocity=78, time=0)\n",
      "Message('note_on', channel=0, note=48, velocity=0, time=91)\n",
      "Message('note_on', channel=0, note=64, velocity=0, time=10)\n",
      "Message('note_on', channel=0, note=52, velocity=65, time=23)\n",
      "Message('note_on', channel=0, note=67, velocity=75, time=1)\n",
      "Message('note_on', channel=0, note=52, velocity=0, time=92)\n",
      "Message('note_on', channel=0, note=67, velocity=0, time=15)\n",
      "Message('note_on', channel=0, note=48, velocity=65, time=18)\n",
      "Message('note_on', channel=0, note=57, velocity=76, time=16)\n",
      "Message('control_change', channel=0, control=64, value=11, time=49)\n",
      "Message('control_change', channel=0, control=64, value=29, time=19)\n",
      "Message('control_change', channel=0, control=64, value=42, time=16)\n",
      "Message('control_change', channel=0, control=64, value=54, time=21)\n",
      "Message('note_on', channel=0, note=45, velocity=62, time=12)\n",
      "Message('control_change', channel=0, control=64, value=60, time=6)\n",
      "Message('note_on', channel=0, note=48, velocity=0, time=5)\n",
      "Message('control_change', channel=0, control=64, value=63, time=14)\n",
      "Message('note_on', channel=0, note=45, velocity=0, time=95)\n",
      "Message('note_on', channel=0, note=50, velocity=63, time=27)\n",
      "Message('note_on', channel=0, note=65, velocity=79, time=13)\n",
      "Message('control_change', channel=0, control=64, value=62, time=16)\n",
      "Message('note_on', channel=0, note=57, velocity=0, time=15)\n",
      "Message('control_change', channel=0, control=64, value=60, time=21)\n",
      "Message('control_change', channel=0, control=64, value=56, time=39)\n",
      "Message('note_on', channel=0, note=50, velocity=0, time=1)\n",
      "Message('control_change', channel=0, control=64, value=51, time=19)\n",
      "Message('note_on', channel=0, note=47, velocity=65, time=5)\n",
      "Message('control_change', channel=0, control=64, value=44, time=13)\n",
      "Message('note_on', channel=0, note=62, velocity=82, time=3)\n",
      "Message('note_on', channel=0, note=65, velocity=0, time=9)\n",
      "Message('control_change', channel=0, control=64, value=38, time=7)\n",
      "Message('control_change', channel=0, control=64, value=34, time=20)\n",
      "Message('note_on', channel=0, note=50, velocity=66, time=80)\n",
      "Message('note_on', channel=0, note=65, velocity=82, time=9)\n",
      "Message('note_on', channel=0, note=62, velocity=0, time=1)\n",
      "Message('note_on', channel=0, note=47, velocity=0, time=21)\n",
      "Message('note_on', channel=0, note=50, velocity=0, time=65)\n",
      "Message('note_on', channel=0, note=53, velocity=64, time=55)\n",
      "Message('note_on', channel=0, note=65, velocity=0, time=5)\n",
      "Message('note_on', channel=0, note=69, velocity=80, time=0)\n",
      "Message('note_on', channel=0, note=69, velocity=0, time=102)\n",
      "Message('note_on', channel=0, note=53, velocity=0, time=4)\n",
      "Message('note_on', channel=0, note=50, velocity=60, time=13)\n",
      "Message('note_on', channel=0, note=59, velocity=77, time=8)\n",
      "Message('note_on', channel=0, note=59, velocity=0, time=111)\n",
      "Message('note_on', channel=0, note=47, velocity=65, time=5)\n",
      "Message('note_on', channel=0, note=67, velocity=77, time=13)\n",
      "Message('note_on', channel=0, note=50, velocity=0, time=1)\n",
      "Message('note_on', channel=0, note=65, velocity=77, time=124)\n",
      "Message('note_on', channel=0, note=67, velocity=0, time=5)\n",
      "Message('note_on', channel=0, note=47, velocity=0, time=1)\n",
      "Message('note_on', channel=0, note=50, velocity=69, time=9)\n",
      "Message('control_change', channel=0, control=64, value=26, time=5)\n",
      "Message('control_change', channel=0, control=64, value=0, time=19)\n",
      "Message('note_on', channel=0, note=50, velocity=0, time=48)\n",
      "Message('note_on', channel=0, note=65, velocity=0, time=52)\n",
      "Message('note_on', channel=0, note=48, velocity=66, time=10)\n",
      "Message('note_on', channel=0, note=64, velocity=64, time=1)\n",
      "Message('control_change', channel=0, control=64, value=13, time=77)\n",
      "Message('control_change', channel=0, control=67, value=34, time=1)\n",
      "Message('control_change', channel=0, control=64, value=42, time=19)\n",
      "Message('control_change', channel=0, control=64, value=52, time=19)\n",
      "Message('note_on', channel=0, note=64, velocity=0, time=4)\n",
      "Message('control_change', channel=0, control=64, value=61, time=15)\n",
      "Message('note_on', channel=0, note=52, velocity=66, time=1)\n",
      "Message('control_change', channel=0, control=64, value=65, time=17)\n",
      "Message('note_on', channel=0, note=48, velocity=0, time=4)\n",
      "Message('note_on', channel=0, note=52, velocity=0, time=72)\n",
      "Message('note_on', channel=0, note=55, velocity=63, time=38)\n",
      "Message('control_change', channel=0, control=64, value=63, time=18)\n",
      "Message('control_change', channel=0, control=64, value=61, time=18)\n",
      "Message('control_change', channel=0, control=64, value=59, time=19)\n",
      "Message('note_on', channel=0, note=55, velocity=0, time=19)\n",
      "Message('control_change', channel=0, control=64, value=57, time=39)\n",
      "Message('note_on', channel=0, note=52, velocity=67, time=22)\n",
      "Message('control_change', channel=0, control=64, value=53, time=31)\n",
      "Message('control_change', channel=0, control=64, value=50, time=20)\n",
      "Message('control_change', channel=0, control=64, value=48, time=37)\n",
      "Message('note_on', channel=0, note=52, velocity=0, time=32)\n",
      "Message('note_on', channel=0, note=48, velocity=63, time=2)\n",
      "Message('note_on', channel=0, note=48, velocity=0, time=116)\n",
      "Message('note_on', channel=0, note=52, velocity=70, time=21)\n",
      "Message('note_on', channel=0, note=60, velocity=72, time=1)\n",
      "Message('control_change', channel=0, control=64, value=41, time=18)\n",
      "Message('control_change', channel=0, control=64, value=0, time=18)\n",
      "Message('note_on', channel=0, note=52, velocity=0, time=14)\n",
      "Message('note_on', channel=0, note=42, velocity=75, time=77)\n",
      "Message('note_on', channel=0, note=57, velocity=72, time=2)\n",
      "Message('note_on', channel=0, note=60, velocity=0, time=21)\n",
      "Message('control_change', channel=0, control=64, value=36, time=17)\n",
      "Message('control_change', channel=0, control=64, value=45, time=38)\n",
      "Message('note_on', channel=0, note=57, velocity=0, time=8)\n",
      "Message('control_change', channel=0, control=64, value=51, time=10)\n",
      "Message('control_change', channel=0, control=64, value=54, time=20)\n",
      "Message('note_on', channel=0, note=60, velocity=72, time=21)\n",
      "Message('control_change', channel=0, control=64, value=56, time=18)\n",
      "Message('note_on', channel=0, note=60, velocity=0, time=72)\n",
      "Message('note_on', channel=0, note=64, velocity=74, time=39)\n",
      "Message('note_on', channel=0, note=42, velocity=0, time=78)\n",
      "Message('note_on', channel=0, note=64, velocity=0, time=12)\n",
      "Message('note_on', channel=0, note=60, velocity=75, time=37)\n",
      "Message('note_on', channel=0, note=60, velocity=0, time=108)\n",
      "Message('note_on', channel=0, note=57, velocity=79, time=8)\n",
      "Message('note_on', channel=0, note=57, velocity=0, time=87)\n",
      "Message('note_on', channel=0, note=60, velocity=81, time=52)\n",
      "Message('note_on', channel=0, note=45, velocity=72, time=6)\n",
      "Message('control_change', channel=0, control=64, value=50, time=4)\n",
      "Message('control_change', channel=0, control=64, value=0, time=20)\n",
      "Message('note_on', channel=0, note=60, velocity=0, time=49)\n",
      "Message('note_on', channel=0, note=47, velocity=72, time=41)\n",
      "Message('note_on', channel=0, note=45, velocity=0, time=1)\n",
      "Message('control_change', channel=0, control=64, value=39, time=2)\n",
      "Message('note_on', channel=0, note=54, velocity=74, time=17)\n",
      "Message('control_change', channel=0, control=64, value=58, time=3)\n",
      "Message('control_change', channel=0, control=64, value=60, time=20)\n",
      "Message('note_on', channel=0, note=54, velocity=0, time=10)\n",
      "Message('control_change', channel=0, control=64, value=56, time=7)\n",
      "Message('control_change', channel=0, control=67, value=38, time=1)\n",
      "Message('control_change', channel=0, control=64, value=50, time=19)\n",
      "Message('control_change', channel=0, control=64, value=48, time=22)\n",
      "Message('control_change', channel=0, control=67, value=42, time=2)\n",
      "Message('note_on', channel=0, note=50, velocity=70, time=20)\n",
      "Message('note_on', channel=0, note=47, velocity=0, time=14)\n",
      "Message('control_change', channel=0, control=64, value=33, time=17)\n",
      "Message('control_change', channel=0, control=64, value=0, time=20)\n",
      "Message('control_change', channel=0, control=67, value=46, time=2)\n",
      "Message('note_on', channel=0, note=50, velocity=0, time=73)\n",
      "Message('note_on', channel=0, note=54, velocity=63, time=35)\n",
      "Message('note_on', channel=0, note=62, velocity=83, time=0)\n",
      "Message('note_on', channel=0, note=62, velocity=0, time=28)\n",
      "Message('note_on', channel=0, note=54, velocity=0, time=22)\n",
      "Message('note_on', channel=0, note=50, velocity=74, time=70)\n",
      "Message('note_on', channel=0, note=60, velocity=87, time=10)\n",
      "Message('note_on', channel=0, note=59, velocity=68, time=21)\n",
      "Message('note_on', channel=0, note=60, velocity=0, time=12)\n",
      "Message('control_change', channel=0, control=67, value=50, time=8)\n",
      "Message('control_change', channel=0, control=64, value=55, time=19)\n",
      "Message('note_on', channel=0, note=50, velocity=0, time=6)\n",
      "Message('control_change', channel=0, control=64, value=44, time=14)\n",
      "Message('note_on', channel=0, note=60, velocity=70, time=0)\n",
      "Message('control_change', channel=0, control=64, value=0, time=19)\n",
      "Message('note_on', channel=0, note=47, velocity=75, time=9)\n",
      "Message('note_on', channel=0, note=59, velocity=0, time=7)\n",
      "Message('note_on', channel=0, note=59, velocity=69, time=64)\n",
      "Message('note_on', channel=0, note=60, velocity=0, time=10)\n",
      "Message('note_on', channel=0, note=59, velocity=0, time=56)\n",
      "Message('note_on', channel=0, note=50, velocity=68, time=7)\n",
      "Message('note_on', channel=0, note=47, velocity=0, time=3)\n",
      "Message('note_on', channel=0, note=57, velocity=83, time=18)\n",
      "Message('note_on', channel=0, note=50, velocity=0, time=48)\n",
      "Message('note_on', channel=0, note=57, velocity=0, time=48)\n",
      "Message('note_on', channel=0, note=40, velocity=76, time=35)\n",
      "Message('note_on', channel=0, note=55, velocity=82, time=16)\n",
      "Message('note_on', channel=0, note=55, velocity=0, time=70)\n",
      "Message('control_change', channel=0, control=64, value=11, time=2)\n",
      "Message('control_change', channel=0, control=67, value=54, time=1)\n",
      "Message('control_change', channel=0, control=64, value=37, time=16)\n",
      "Message('note_on', channel=0, note=59, velocity=77, time=25)\n",
      "Message('note_on', channel=0, note=59, velocity=0, time=86)\n",
      "Message('note_on', channel=0, note=62, velocity=76, time=34)\n",
      "Message('note_on', channel=0, note=62, velocity=0, time=79)\n",
      "Message('note_on', channel=0, note=59, velocity=74, time=47)\n",
      "Message('note_on', channel=0, note=40, velocity=0, time=10)\n",
      "Message('control_change', channel=0, control=67, value=58, time=99)\n",
      "Message('note_on', channel=0, note=55, velocity=79, time=17)\n",
      "Message('note_on', channel=0, note=59, velocity=0, time=4)\n",
      "Message('note_on', channel=0, note=55, velocity=0, time=52)\n",
      "Message('note_on', channel=0, note=43, velocity=62, time=66)\n",
      "Message('note_on', channel=0, note=60, velocity=69, time=11)\n",
      "Message('control_change', channel=0, control=64, value=40, time=18)\n",
      "Message('control_change', channel=0, control=64, value=34, time=20)\n",
      "Message('note_on', channel=0, note=60, velocity=0, time=13)\n",
      "Message('control_change', channel=0, control=64, value=0, time=7)\n",
      "Message('control_change', channel=0, control=67, value=65, time=75)\n",
      "Message('note_on', channel=0, note=45, velocity=64, time=1)\n",
      "Message('note_on', channel=0, note=52, velocity=71, time=2)\n",
      "Message('note_on', channel=0, note=43, velocity=0, time=1)\n",
      "Message('note_on', channel=0, note=52, velocity=0, time=32)\n",
      "Message('control_change', channel=0, control=67, value=72, time=112)\n",
      "Message('note_on', channel=0, note=48, velocity=59, time=8)\n",
      "Message('note_on', channel=0, note=45, velocity=0, time=11)\n",
      "Message('note_on', channel=0, note=48, velocity=0, time=95)\n",
      "Message('control_change', channel=0, control=67, value=77, time=17)\n",
      "Message('note_on', channel=0, note=60, velocity=72, time=11)\n",
      "Message('note_on', channel=0, note=52, velocity=59, time=5)\n",
      "Message('note_on', channel=0, note=52, velocity=0, time=107)\n",
      "Message('note_on', channel=0, note=48, velocity=65, time=20)\n",
      "Message('note_on', channel=0, note=60, velocity=0, time=4)\n",
      "Message('note_on', channel=0, note=57, velocity=58, time=20)\n",
      "Message('note_on', channel=0, note=55, velocity=67, time=10)\n",
      "Message('control_change', channel=0, control=64, value=34, time=31)\n",
      "Message('note_on', channel=0, note=55, velocity=0, time=8)\n",
      "Message('control_change', channel=0, control=64, value=56, time=9)\n",
      "Message('control_change', channel=0, control=64, value=67, time=21)\n",
      "Message('control_change', channel=0, control=64, value=75, time=17)\n",
      "Message('note_on', channel=0, note=57, velocity=0, time=2)\n",
      "Message('note_on', channel=0, note=57, velocity=50, time=0)\n",
      "Message('note_on', channel=0, note=45, velocity=61, time=15)\n",
      "Message('control_change', channel=0, control=64, value=82, time=1)\n",
      "Message('control_change', channel=0, control=67, value=81, time=2)\n",
      "Message('note_on', channel=0, note=48, velocity=0, time=12)\n",
      "Message('control_change', channel=0, control=64, value=88, time=4)\n",
      "Message('control_change', channel=0, control=64, value=93, time=22)\n",
      "Message('control_change', channel=0, control=64, value=97, time=38)\n",
      "Message('note_on', channel=0, note=67, velocity=71, time=70)\n",
      "Message('note_on', channel=0, note=48, velocity=72, time=16)\n",
      "Message('control_change', channel=0, control=64, value=82, time=8)\n",
      "Message('note_on', channel=0, note=45, velocity=0, time=9)\n",
      "Message('note_on', channel=0, note=57, velocity=0, time=3)\n",
      "Message('control_change', channel=0, control=64, value=52, time=8)\n",
      "Message('control_change', channel=0, control=64, value=0, time=16)\n",
      "Message('note_on', channel=0, note=48, velocity=0, time=54)\n",
      "Message('note_on', channel=0, note=67, velocity=0, time=4)\n",
      "Message('note_on', channel=0, note=66, velocity=66, time=9)\n",
      "Message('note_on', channel=0, note=50, velocity=72, time=8)\n",
      "Message('control_change', channel=0, control=67, value=85, time=76)\n",
      "Message('note_on', channel=0, note=66, velocity=0, time=39)\n",
      "Message('note_on', channel=0, note=62, velocity=62, time=9)\n",
      "Message('note_on', channel=0, note=62, velocity=0, time=90)\n",
      "Message('control_change', channel=0, control=67, value=81, time=49)\n",
      "Message('note_on', channel=0, note=59, velocity=72, time=22)\n",
      "Message('note_on', channel=0, note=67, velocity=62, time=1)\n",
      "Message('note_on', channel=0, note=59, velocity=0, time=85)\n",
      "Message('note_on', channel=0, note=67, velocity=0, time=41)\n",
      "Message('note_on', channel=0, note=57, velocity=68, time=11)\n",
      "Message('note_on', channel=0, note=66, velocity=58, time=1)\n",
      "Message('control_change', channel=0, control=67, value=86, time=26)\n",
      "Message('note_on', channel=0, note=66, velocity=0, time=61)\n",
      "Message('note_on', channel=0, note=62, velocity=53, time=39)\n",
      "Message('note_on', channel=0, note=62, velocity=0, time=84)\n",
      "Message('note_on', channel=0, note=50, velocity=0, time=56)\n",
      "Message('note_on', channel=0, note=69, velocity=63, time=1)\n",
      "Message('note_on', channel=0, note=49, velocity=75, time=1)\n",
      "Message('note_on', channel=0, note=69, velocity=0, time=89)\n",
      "Message('note_on', channel=0, note=49, velocity=0, time=21)\n",
      "Message('note_on', channel=0, note=66, velocity=62, time=32)\n",
      "Message('note_on', channel=0, note=50, velocity=45, time=14)\n",
      "Message('note_on', channel=0, note=66, velocity=0, time=102)\n",
      "Message('note_on', channel=0, note=62, velocity=57, time=11)\n",
      "Message('note_on', channel=0, note=62, velocity=0, time=70)\n",
      "Message('note_on', channel=0, note=57, velocity=0, time=46)\n",
      "Message('note_on', channel=0, note=59, velocity=59, time=15)\n",
      "Message('note_on', channel=0, note=67, velocity=62, time=13)\n",
      "Message('note_on', channel=0, note=59, velocity=0, time=135)\n",
      "Message('note_on', channel=0, note=67, velocity=0, time=1)\n",
      "Message('note_on', channel=0, note=66, velocity=68, time=5)\n",
      "Message('note_on', channel=0, note=57, velocity=64, time=1)\n",
      "Message('control_change', channel=0, control=64, value=28, time=68)\n",
      "Message('note_on', channel=0, note=66, velocity=0, time=15)\n",
      "Message('control_change', channel=0, control=64, value=41, time=4)\n",
      "Message('control_change', channel=0, control=64, value=50, time=19)\n",
      "Message('control_change', channel=0, control=64, value=55, time=18)\n",
      "Message('note_on', channel=0, note=62, velocity=59, time=12)\n",
      "Message('control_change', channel=0, control=64, value=57, time=7)\n",
      "Message('control_change', channel=0, control=64, value=60, time=77)\n",
      "Message('control_change', channel=0, control=64, value=61, time=39)\n",
      "Message('note_on', channel=0, note=62, velocity=0, time=5)\n",
      "Message('note_on', channel=0, note=50, velocity=0, time=5)\n",
      "Message('note_on', channel=0, note=69, velocity=73, time=0)\n",
      "Message('note_on', channel=0, note=49, velocity=69, time=1)\n",
      "Message('note_on', channel=0, note=49, velocity=0, time=73)\n",
      "Message('control_change', channel=0, control=64, value=56, time=45)\n",
      "Message('note_on', channel=0, note=66, velocity=76, time=17)\n",
      "Message('control_change', channel=0, control=64, value=49, time=1)\n",
      "Message('note_on', channel=0, note=50, velocity=72, time=5)\n",
      "Message('note_on', channel=0, note=69, velocity=0, time=2)\n",
      "Message('control_change', channel=0, control=64, value=37, time=14)\n",
      "Message('control_change', channel=0, control=64, value=15, time=20)\n",
      "Message('control_change', channel=0, control=64, value=0, time=18)\n",
      "Message('note_on', channel=0, note=57, velocity=0, time=26)\n",
      "Message('note_on', channel=0, note=69, velocity=75, time=39)\n",
      "Message('note_on', channel=0, note=54, velocity=69, time=7)\n",
      "Message('note_on', channel=0, note=50, velocity=0, time=6)\n",
      "Message('note_on', channel=0, note=66, velocity=0, time=1)\n",
      "Message('note_on', channel=0, note=69, velocity=0, time=81)\n",
      "Message('note_on', channel=0, note=57, velocity=66, time=33)\n",
      "Message('note_on', channel=0, note=72, velocity=79, time=5)\n",
      "Message('note_on', channel=0, note=54, velocity=0, time=3)\n",
      "Message('note_on', channel=0, note=72, velocity=0, time=94)\n",
      "Message('control_change', channel=0, control=64, value=33, time=26)\n",
      "Message('note_on', channel=0, note=57, velocity=0, time=4)\n",
      "Message('note_on', channel=0, note=54, velocity=67, time=7)\n",
      "Message('note_on', channel=0, note=62, velocity=75, time=3)\n",
      "Message('control_change', channel=0, control=64, value=45, time=4)\n",
      "Message('control_change', channel=0, control=64, value=49, time=21)\n",
      "Message('control_change', channel=0, control=64, value=51, time=36)\n",
      "Message('note_on', channel=0, note=50, velocity=69, time=78)\n",
      "Message('note_on', channel=0, note=54, velocity=0, time=3)\n",
      "Message('control_change', channel=0, control=64, value=49, time=104)\n",
      "Message('note_on', channel=0, note=50, velocity=0, time=16)\n",
      "Message('note_on', channel=0, note=55, velocity=72, time=23)\n",
      "Message('note_on', channel=0, note=71, velocity=80, time=0)\n",
      "Message('control_change', channel=0, control=64, value=46, time=36)\n",
      "Message('note_on', channel=0, note=62, velocity=0, time=18)\n",
      "Message('control_change', channel=0, control=64, value=43, time=1)\n",
      "Message('control_change', channel=0, control=64, value=41, time=19)\n",
      "Message('note_on', channel=0, note=55, velocity=0, time=32)\n",
      "Message('control_change', channel=0, control=64, value=34, time=6)\n",
      "Message('control_change', channel=0, control=64, value=27, time=20)\n",
      "Message('note_on', channel=0, note=67, velocity=84, time=1)\n",
      "Message('note_on', channel=0, note=71, velocity=0, time=3)\n",
      "Message('note_on', channel=0, note=52, velocity=68, time=7)\n",
      "Message('control_change', channel=0, control=64, value=0, time=25)\n",
      "Message('note_on', channel=0, note=55, velocity=80, time=74)\n",
      "Message('note_on', channel=0, note=67, velocity=0, time=0)\n",
      "Message('note_on', channel=0, note=52, velocity=0, time=9)\n",
      "Message('note_on', channel=0, note=71, velocity=79, time=12)\n",
      "Message('note_on', channel=0, note=55, velocity=0, time=62)\n",
      "Message('note_on', channel=0, note=71, velocity=0, time=29)\n",
      "Message('note_on', channel=0, note=74, velocity=81, time=27)\n",
      "Message('note_on', channel=0, note=59, velocity=73, time=10)\n",
      "Message('note_on', channel=0, note=74, velocity=0, time=69)\n",
      "Message('note_on', channel=0, note=59, velocity=0, time=32)\n",
      "Message('note_on', channel=0, note=55, velocity=71, time=14)\n",
      "Message('control_change', channel=0, control=64, value=43, time=22)\n",
      "Message('note_on', channel=0, note=64, velocity=69, time=5)\n",
      "Message('control_change', channel=0, control=64, value=55, time=14)\n",
      "Message('control_change', channel=0, control=64, value=57, time=18)\n",
      "Message('control_change', channel=0, control=64, value=59, time=21)\n",
      "Message('note_on', channel=0, note=55, velocity=0, time=12)\n",
      "Message('control_change', channel=0, control=64, value=61, time=6)\n",
      "Message('control_change', channel=0, control=64, value=63, time=19)\n",
      "Message('control_change', channel=0, control=64, value=65, time=16)\n",
      "Message('note_on', channel=0, note=52, velocity=75, time=0)\n",
      "Message('note_on', channel=0, note=52, velocity=0, time=134)\n",
      "Message('note_on', channel=0, note=57, velocity=72, time=9)\n",
      "Message('note_on', channel=0, note=72, velocity=72, time=31)\n",
      "Message('note_on', channel=0, note=64, velocity=0, time=8)\n",
      "Message('control_change', channel=0, control=64, value=63, time=61)\n",
      "Message('note_on', channel=0, note=57, velocity=0, time=18)\n",
      "Message('control_change', channel=0, control=64, value=60, time=1)\n",
      "Message('control_change', channel=0, control=64, value=47, time=22)\n",
      "Message('note_on', channel=0, note=54, velocity=74, time=1)\n",
      "Message('note_on', channel=0, note=69, velocity=84, time=13)\n",
      "Message('control_change', channel=0, control=64, value=0, time=1)\n",
      "Message('note_on', channel=0, note=72, velocity=0, time=8)\n",
      "Message('note_on', channel=0, note=57, velocity=73, time=102)\n",
      "Message('note_on', channel=0, note=72, velocity=83, time=13)\n",
      "Message('note_on', channel=0, note=69, velocity=0, time=5)\n",
      "Message('note_on', channel=0, note=54, velocity=0, time=5)\n",
      "Message('note_on', channel=0, note=57, velocity=0, time=66)\n",
      "Message('note_on', channel=0, note=72, velocity=0, time=53)\n",
      "Message('note_on', channel=0, note=76, velocity=82, time=1)\n",
      "Message('note_on', channel=0, note=60, velocity=69, time=1)\n",
      "Message('note_on', channel=0, note=60, velocity=0, time=117)\n",
      "Message('note_on', channel=0, note=57, velocity=73, time=1)\n",
      "Message('note_on', channel=0, note=76, velocity=0, time=11)\n",
      "Message('note_on', channel=0, note=66, velocity=83, time=2)\n",
      "Message('control_change', channel=0, control=64, value=32, time=50)\n",
      "Message('control_change', channel=0, control=64, value=50, time=17)\n",
      "Message('note_on', channel=0, note=57, velocity=0, time=0)\n",
      "Message('control_change', channel=0, control=64, value=60, time=21)\n",
      "Message('note_on', channel=0, note=66, velocity=0, time=1)\n",
      "Message('control_change', channel=0, control=64, value=65, time=17)\n",
      "Message('note_on', channel=0, note=54, velocity=67, time=17)\n",
      "Message('control_change', channel=0, control=64, value=68, time=1)\n",
      "Message('note_on', channel=0, note=74, velocity=76, time=2)\n",
      "Message('control_change', channel=0, control=64, value=70, time=37)\n",
      "Message('control_change', channel=0, control=64, value=72, time=58)\n",
      "Message('note_on', channel=0, note=57, velocity=75, time=9)\n",
      "Message('note_on', channel=0, note=54, velocity=0, time=13)\n",
      "Message('note_on', channel=0, note=72, velocity=80, time=5)\n",
      "Message('control_change', channel=0, control=64, value=74, time=12)\n",
      "Message('note_on', channel=0, note=74, velocity=0, time=9)\n",
      "Message('note_on', channel=0, note=57, velocity=0, time=31)\n",
      "Message('control_change', channel=0, control=64, value=69, time=14)\n",
      "Message('control_change', channel=0, control=64, value=46, time=21)\n",
      "Message('note_on', channel=0, note=72, velocity=0, time=8)\n",
      "Message('control_change', channel=0, control=64, value=0, time=7)\n",
      "Message('note_on', channel=0, note=55, velocity=84, time=25)\n",
      "Message('note_on', channel=0, note=71, velocity=86, time=5)\n",
      "Message('control_change', channel=0, control=64, value=32, time=61)\n",
      "Message('control_change', channel=0, control=64, value=59, time=19)\n",
      "Message('control_change', channel=0, control=64, value=70, time=19)\n",
      "Message('control_change', channel=0, control=64, value=75, time=21)\n",
      "Message('note_on', channel=0, note=71, velocity=0, time=3)\n",
      "Message('note_on', channel=0, note=59, velocity=71, time=21)\n",
      "Message('note_on', channel=0, note=74, velocity=85, time=0)\n",
      "Message('note_on', channel=0, note=55, velocity=0, time=17)\n",
      "Message('control_change', channel=0, control=64, value=77, time=52)\n",
      "Message('note_on', channel=0, note=59, velocity=0, time=44)\n",
      "Message('control_change', channel=0, control=64, value=79, time=13)\n",
      "Message('note_on', channel=0, note=79, velocity=80, time=4)\n",
      "Message('note_on', channel=0, note=62, velocity=72, time=4)\n",
      "Message('note_on', channel=0, note=74, velocity=0, time=4)\n",
      "Message('note_on', channel=0, note=62, velocity=0, time=42)\n",
      "Message('control_change', channel=0, control=64, value=74, time=21)\n",
      "Message('note_on', channel=0, note=79, velocity=0, time=12)\n",
      "Message('control_change', channel=0, control=64, value=34, time=6)\n",
      "Message('control_change', channel=0, control=64, value=0, time=20)\n",
      "Message('note_on', channel=0, note=59, velocity=82, time=9)\n",
      "Message('note_on', channel=0, note=74, velocity=93, time=13)\n",
      "Message('control_change', channel=0, control=64, value=51, time=53)\n",
      "Message('control_change', channel=0, control=64, value=70, time=20)\n",
      "Message('control_change', channel=0, control=64, value=80, time=19)\n",
      "Message('control_change', channel=0, control=64, value=86, time=19)\n",
      "Message('note_on', channel=0, note=62, velocity=75, time=6)\n",
      "Message('note_on', channel=0, note=59, velocity=0, time=4)\n",
      "Message('note_on', channel=0, note=79, velocity=64, time=6)\n",
      "Message('note_on', channel=0, note=74, velocity=0, time=8)\n",
      "Message('note_on', channel=0, note=77, velocity=69, time=12)\n",
      "Message('note_on', channel=0, note=62, velocity=0, time=79)\n",
      "Message('note_on', channel=0, note=83, velocity=79, time=24)\n",
      "Message('note_on', channel=0, note=67, velocity=74, time=4)\n",
      "Message('note_on', channel=0, note=77, velocity=0, time=9)\n",
      "Message('note_on', channel=0, note=79, velocity=0, time=3)\n",
      "Message('control_change', channel=0, control=64, value=91, time=16)\n",
      "Message('note_on', channel=0, note=67, velocity=0, time=25)\n",
      "Message('note_on', channel=0, note=83, velocity=0, time=7)\n",
      "Message('control_change', channel=0, control=64, value=80, time=59)\n",
      "Message('note_on', channel=0, note=60, velocity=79, time=2)\n",
      "Message('note_on', channel=0, note=76, velocity=84, time=13)\n",
      "Message('control_change', channel=0, control=64, value=31, time=4)\n",
      "Message('control_change', channel=0, control=64, value=0, time=19)\n",
      "Message('note_on', channel=0, note=76, velocity=0, time=60)\n",
      "Message('control_change', channel=0, control=64, value=44, time=17)\n",
      "Message('control_change', channel=0, control=64, value=61, time=22)\n",
      "Message('note_on', channel=0, note=64, velocity=71, time=5)\n",
      "Message('note_on', channel=0, note=60, velocity=0, time=3)\n",
      "Message('note_on', channel=0, note=79, velocity=78, time=3)\n",
      "Message('control_change', channel=0, control=64, value=68, time=5)\n",
      "Message('note_on', channel=0, note=64, velocity=0, time=40)\n",
      "Message('note_on', channel=0, note=79, velocity=0, time=19)\n",
      "Message('control_change', channel=0, control=64, value=71, time=30)\n",
      "Message('note_on', channel=0, note=71, velocity=72, time=45)\n",
      "Message('note_on', channel=0, note=67, velocity=65, time=9)\n",
      "Message('note_on', channel=0, note=71, velocity=0, time=51)\n",
      "Message('note_on', channel=0, note=67, velocity=0, time=2)\n",
      "Message('control_change', channel=0, control=64, value=68, time=9)\n",
      "Message('control_change', channel=0, control=64, value=47, time=19)\n",
      "Message('control_change', channel=0, control=64, value=0, time=18)\n",
      "Message('note_on', channel=0, note=72, velocity=77, time=23)\n",
      "Message('note_on', channel=0, note=64, velocity=65, time=7)\n",
      "Message('control_change', channel=0, control=64, value=34, time=44)\n",
      "Message('note_on', channel=0, note=72, velocity=0, time=6)\n",
      "Message('control_change', channel=0, control=64, value=58, time=12)\n",
      "Message('note_on', channel=0, note=64, velocity=0, time=5)\n",
      "Message('control_change', channel=0, control=64, value=67, time=16)\n",
      "Message('control_change', channel=0, control=64, value=70, time=18)\n",
      "Message('note_on', channel=0, note=76, velocity=63, time=18)\n",
      "Message('note_on', channel=0, note=60, velocity=65, time=14)\n",
      "Message('note_on', channel=0, note=76, velocity=0, time=55)\n",
      "Message('note_on', channel=0, note=60, velocity=0, time=7)\n",
      "Message('control_change', channel=0, control=64, value=72, time=39)\n",
      "Message('note_on', channel=0, note=64, velocity=77, time=2)\n",
      "Message('note_on', channel=0, note=67, velocity=77, time=8)\n",
      "Message('note_on', channel=0, note=64, velocity=0, time=18)\n",
      "Message('note_on', channel=0, note=67, velocity=0, time=18)\n",
      "Message('control_change', channel=0, control=64, value=68, time=9)\n",
      "Message('control_change', channel=0, control=64, value=37, time=20)\n",
      "Message('control_change', channel=0, control=64, value=0, time=18)\n",
      "Message('control_change', channel=0, control=67, value=91, time=19)\n",
      "Message('note_on', channel=0, note=54, velocity=82, time=24)\n",
      "Message('note_on', channel=0, note=69, velocity=90, time=5)\n",
      "Message('control_change', channel=0, control=64, value=46, time=28)\n",
      "Message('control_change', channel=0, control=64, value=68, time=19)\n",
      "Message('control_change', channel=0, control=64, value=80, time=20)\n",
      "Message('control_change', channel=0, control=64, value=89, time=18)\n",
      "Message('note_on', channel=0, note=69, velocity=0, time=13)\n",
      "Message('control_change', channel=0, control=67, value=96, time=26)\n",
      "Message('note_on', channel=0, note=57, velocity=72, time=3)\n",
      "Message('note_on', channel=0, note=72, velocity=79, time=6)\n",
      "Message('note_on', channel=0, note=54, velocity=0, time=7)\n",
      "Message('note_on', channel=0, note=72, velocity=0, time=60)\n",
      "Message('note_on', channel=0, note=57, velocity=0, time=17)\n",
      "Message('note_on', channel=0, note=60, velocity=76, time=37)\n",
      "Message('note_on', channel=0, note=78, velocity=79, time=7)\n",
      "Message('note_on', channel=0, note=60, velocity=0, time=33)\n",
      "Message('note_on', channel=0, note=78, velocity=0, time=33)\n",
      "Message('control_change', channel=0, control=64, value=72, time=22)\n",
      "Message('control_change', channel=0, control=64, value=0, time=19)\n",
      "Message('note_on', channel=0, note=57, velocity=84, time=11)\n",
      "Message('note_on', channel=0, note=72, velocity=89, time=22)\n",
      "Message('control_change', channel=0, control=64, value=25, time=57)\n",
      "Message('control_change', channel=0, control=64, value=61, time=19)\n",
      "Message('control_change', channel=0, control=64, value=73, time=19)\n",
      "Message('note_on', channel=0, note=72, velocity=0, time=6)\n",
      "Message('control_change', channel=0, control=64, value=80, time=13)\n",
      "Message('note_on', channel=0, note=60, velocity=73, time=0)\n",
      "Message('note_on', channel=0, note=57, velocity=0, time=8)\n",
      "Message('control_change', channel=0, control=64, value=83, time=13)\n",
      "Message('note_on', channel=0, note=78, velocity=76, time=8)\n",
      "Message('control_change', channel=0, control=64, value=85, time=68)\n",
      "Message('note_on', channel=0, note=60, velocity=0, time=12)\n",
      "Message('control_change', channel=0, control=64, value=87, time=4)\n",
      "Message('note_on', channel=0, note=78, velocity=0, time=38)\n",
      "Message('note_on', channel=0, note=81, velocity=78, time=2)\n",
      "Message('note_on', channel=0, note=66, velocity=70, time=4)\n",
      "Message('control_change', channel=0, control=64, value=93, time=13)\n",
      "Message('note_on', channel=0, note=66, velocity=0, time=25)\n",
      "Message('control_change', channel=0, control=64, value=98, time=13)\n",
      "Message('note_on', channel=0, note=81, velocity=0, time=8)\n",
      "Message('control_change', channel=0, control=64, value=85, time=31)\n",
      "Message('control_change', channel=0, control=64, value=36, time=19)\n",
      "Message('note_on', channel=0, note=75, velocity=84, time=14)\n",
      "Message('control_change', channel=0, control=64, value=0, time=2)\n",
      "Message('note_on', channel=0, note=59, velocity=66, time=13)\n",
      "Message('note_on', channel=0, note=75, velocity=0, time=46)\n",
      "Message('control_change', channel=0, control=64, value=55, time=17)\n",
      "Message('control_change', channel=0, control=64, value=69, time=19)\n",
      "Message('note_on', channel=0, note=59, velocity=0, time=7)\n",
      "Message('control_change', channel=0, control=64, value=73, time=13)\n",
      "Message('note_on', channel=0, note=78, velocity=72, time=9)\n",
      "Message('note_on', channel=0, note=63, velocity=61, time=20)\n",
      "Message('note_on', channel=0, note=63, velocity=0, time=50)\n",
      "Message('note_on', channel=0, note=78, velocity=0, time=10)\n",
      "Message('note_on', channel=0, note=69, velocity=67, time=63)\n",
      "Message('note_on', channel=0, note=66, velocity=56, time=14)\n",
      "Message('control_change', channel=0, control=64, value=75, time=2)\n",
      "Message('note_on', channel=0, note=69, velocity=0, time=28)\n",
      "Message('note_on', channel=0, note=66, velocity=0, time=8)\n",
      "Message('control_change', channel=0, control=64, value=72, time=21)\n",
      "Message('control_change', channel=0, control=64, value=57, time=19)\n",
      "Message('control_change', channel=0, control=64, value=0, time=20)\n",
      "Message('note_on', channel=0, note=71, velocity=73, time=17)\n",
      "Message('note_on', channel=0, note=63, velocity=56, time=8)\n",
      "Message('note_on', channel=0, note=71, velocity=0, time=47)\n",
      "Message('control_change', channel=0, control=64, value=39, time=4)\n",
      "Message('control_change', channel=0, control=64, value=59, time=18)\n",
      "Message('note_on', channel=0, note=63, velocity=0, time=5)\n",
      "Message('control_change', channel=0, control=64, value=68, time=13)\n",
      "Message('control_change', channel=0, control=64, value=70, time=20)\n",
      "Message('note_on', channel=0, note=75, velocity=79, time=7)\n",
      "Message('note_on', channel=0, note=59, velocity=57, time=9)\n",
      "Message('note_on', channel=0, note=75, velocity=0, time=81)\n",
      "Message('note_on', channel=0, note=59, velocity=0, time=3)\n",
      "Message('control_change', channel=0, control=64, value=73, time=10)\n",
      "Message('note_on', channel=0, note=63, velocity=71, time=25)\n",
      "Message('note_on', channel=0, note=66, velocity=81, time=9)\n",
      "Message('control_change', channel=0, control=64, value=75, time=3)\n",
      "Message('note_on', channel=0, note=63, velocity=0, time=16)\n",
      "Message('note_on', channel=0, note=66, velocity=0, time=33)\n",
      "Message('control_change', channel=0, control=64, value=73, time=8)\n",
      "Message('control_change', channel=0, control=64, value=47, time=18)\n",
      "Message('control_change', channel=0, control=64, value=0, time=19)\n",
      "Message('note_on', channel=0, note=52, velocity=90, time=27)\n",
      "Message('note_on', channel=0, note=67, velocity=91, time=1)\n",
      "Message('control_change', channel=0, control=64, value=20, time=47)\n",
      "Message('control_change', channel=0, control=67, value=92, time=1)\n",
      "Message('control_change', channel=0, control=64, value=67, time=18)\n",
      "Message('control_change', channel=0, control=64, value=79, time=19)\n",
      "Message('note_on', channel=0, note=67, velocity=0, time=3)\n",
      "Message('control_change', channel=0, control=64, value=86, time=16)\n",
      "Message('note_on', channel=0, note=71, velocity=80, time=28)\n",
      "Message('note_on', channel=0, note=55, velocity=67, time=1)\n",
      "Message('note_on', channel=0, note=52, velocity=0, time=4)\n",
      "Message('note_on', channel=0, note=55, velocity=0, time=87)\n",
      "Message('note_on', channel=0, note=71, velocity=0, time=3)\n",
      "Message('note_on', channel=0, note=59, velocity=69, time=29)\n",
      "Message('note_on', channel=0, note=76, velocity=82, time=6)\n",
      "Message('control_change', channel=0, control=64, value=90, time=12)\n",
      "Message('note_on', channel=0, note=59, velocity=0, time=18)\n",
      "Message('note_on', channel=0, note=76, velocity=0, time=31)\n",
      "Message('control_change', channel=0, control=64, value=87, time=7)\n",
      "Message('control_change', channel=0, control=64, value=65, time=20)\n",
      "Message('control_change', channel=0, control=64, value=0, time=20)\n",
      "Message('note_on', channel=0, note=55, velocity=82, time=12)\n",
      "Message('note_on', channel=0, note=71, velocity=88, time=7)\n",
      "Message('control_change', channel=0, control=64, value=34, time=56)\n",
      "Message('control_change', channel=0, control=64, value=69, time=19)\n",
      "Message('control_change', channel=0, control=64, value=80, time=19)\n",
      "Message('note_on', channel=0, note=71, velocity=0, time=8)\n",
      "Message('control_change', channel=0, control=64, value=85, time=7)\n",
      "Message('note_on', channel=0, note=59, velocity=76, time=7)\n",
      "Message('note_on', channel=0, note=55, velocity=0, time=2)\n",
      "Message('note_on', channel=0, note=76, velocity=87, time=3)\n",
      "Message('note_on', channel=0, note=59, velocity=0, time=78)\n",
      "Message('note_on', channel=0, note=76, velocity=0, time=22)\n",
      "Message('note_on', channel=0, note=79, velocity=83, time=26)\n",
      "Message('note_on', channel=0, note=64, velocity=73, time=4)\n",
      "Message('control_change', channel=0, control=64, value=87, time=30)\n",
      "Message('note_on', channel=0, note=64, velocity=0, time=15)\n",
      "Message('note_on', channel=0, note=79, velocity=0, time=9)\n",
      "Message('control_change', channel=0, control=64, value=77, time=67)\n",
      "Message('control_change', channel=0, control=64, value=0, time=18)\n",
      "Message('note_on', channel=0, note=57, velocity=77, time=6)\n",
      "Message('note_on', channel=0, note=72, velocity=84, time=4)\n",
      "Message('control_change', channel=0, control=67, value=96, time=67)\n",
      "Message('note_on', channel=0, note=72, velocity=0, time=15)\n",
      "Message('control_change', channel=0, control=64, value=47, time=4)\n",
      "Message('note_on', channel=0, note=57, velocity=0, time=5)\n",
      "Message('control_change', channel=0, control=64, value=62, time=15)\n",
      "Message('control_change', channel=0, control=64, value=65, time=17)\n",
      "Message('note_on', channel=0, note=60, velocity=72, time=6)\n",
      "Message('note_on', channel=0, note=76, velocity=77, time=7)\n",
      "Message('control_change', channel=0, control=64, value=64, time=26)\n",
      "Message('note_on', channel=0, note=60, velocity=0, time=38)\n",
      "Message('control_change', channel=0, control=64, value=65, time=18)\n",
      "Message('control_change', channel=0, control=64, value=63, time=19)\n",
      "Message('control_change', channel=0, control=64, value=54, time=19)\n",
      "Message('note_on', channel=0, note=76, velocity=0, time=6)\n",
      "Message('note_on', channel=0, note=64, velocity=66, time=6)\n",
      "Message('note_on', channel=0, note=68, velocity=74, time=0)\n",
      "Message('control_change', channel=0, control=64, value=29, time=7)\n",
      "Message('control_change', channel=0, control=64, value=16, time=19)\n",
      "Message('control_change', channel=0, control=64, value=31, time=19)\n",
      "Message('note_on', channel=0, note=64, velocity=0, time=9)\n",
      "Message('note_on', channel=0, note=68, velocity=0, time=9)\n",
      "Message('control_change', channel=0, control=64, value=42, time=1)\n",
      "Message('control_change', channel=0, control=64, value=49, time=17)\n",
      "Message('control_change', channel=0, control=64, value=55, time=20)\n",
      "Message('note_on', channel=0, note=60, velocity=70, time=17)\n",
      "Message('control_change', channel=0, control=64, value=58, time=1)\n",
      "Message('note_on', channel=0, note=69, velocity=84, time=5)\n",
      "Message('control_change', channel=0, control=64, value=61, time=15)\n",
      "Message('control_change', channel=0, control=64, value=62, time=17)\n",
      "Message('control_change', channel=0, control=67, value=92, time=2)\n",
      "Message('control_change', channel=0, control=64, value=65, time=17)\n",
      "Message('control_change', channel=0, control=64, value=66, time=21)\n",
      "Message('note_on', channel=0, note=60, velocity=0, time=8)\n",
      "Message('control_change', channel=0, control=64, value=68, time=9)\n",
      "Message('note_on', channel=0, note=69, velocity=0, time=7)\n",
      "Message('note_on', channel=0, note=57, velocity=73, time=23)\n",
      "Message('note_on', channel=0, note=72, velocity=87, time=5)\n",
      "Message('control_change', channel=0, control=64, value=70, time=62)\n",
      "Message('control_change', channel=0, control=64, value=72, time=37)\n",
      "Message('note_on', channel=0, note=72, velocity=0, time=10)\n",
      "Message('note_on', channel=0, note=76, velocity=91, time=10)\n",
      "Message('note_on', channel=0, note=60, velocity=76, time=6)\n",
      "Message('control_change', channel=0, control=64, value=74, time=12)\n",
      "Message('note_on', channel=0, note=57, velocity=0, time=2)\n",
      "Message('control_change', channel=0, control=67, value=87, time=15)\n",
      "Message('control_change', channel=0, control=64, value=76, time=20)\n",
      "Message('control_change', channel=0, control=64, value=63, time=56)\n",
      "Message('control_change', channel=0, control=64, value=0, time=21)\n",
      "Message('note_on', channel=0, note=64, velocity=80, time=8)\n",
      "Message('note_on', channel=0, note=60, velocity=0, time=1)\n",
      "Message('note_on', channel=0, note=81, velocity=90, time=0)\n",
      "Message('control_change', channel=0, control=67, value=83, time=7)\n",
      "Message('note_on', channel=0, note=76, velocity=0, time=14)\n",
      "Message('note_on', channel=0, note=77, velocity=51, time=4)\n",
      "Message('control_change', channel=0, control=67, value=77, time=21)\n",
      "Message('note_on', channel=0, note=77, velocity=0, time=8)\n",
      "Message('note_on', channel=0, note=64, velocity=0, time=11)\n",
      "Message('control_change', channel=0, control=64, value=56, time=20)\n",
      "Message('control_change', channel=0, control=64, value=73, time=17)\n",
      "Message('control_change', channel=0, control=64, value=79, time=34)\n",
      "Message('control_change', channel=0, control=67, value=71, time=38)\n",
      "Message('note_on', channel=0, note=69, velocity=68, time=3)\n",
      "Message('control_change', channel=0, control=64, value=83, time=37)\n",
      "Message('control_change', channel=0, control=67, value=61, time=56)\n",
      "Message('note_on', channel=0, note=69, velocity=0, time=5)\n",
      "Message('control_change', channel=0, control=67, value=45, time=15)\n",
      "Message('note_on', channel=0, note=72, velocity=76, time=12)\n",
      "Message('control_change', channel=0, control=64, value=85, time=4)\n",
      "Message('control_change', channel=0, control=67, value=32, time=1)\n",
      "Message('control_change', channel=0, control=64, value=87, time=18)\n",
      "Message('control_change', channel=0, control=64, value=91, time=39)\n",
      "Message('control_change', channel=0, control=67, value=26, time=1)\n",
      "Message('note_on', channel=0, note=81, velocity=0, time=8)\n",
      "Message('control_change', channel=0, control=67, value=19, time=7)\n",
      "Message('note_on', channel=0, note=72, velocity=0, time=15)\n",
      "Message('control_change', channel=0, control=64, value=97, time=4)\n",
      "Message('note_on', channel=0, note=69, velocity=78, time=32)\n",
      "Message('control_change', channel=0, control=64, value=102, time=8)\n",
      "Message('control_change', channel=0, control=67, value=0, time=1)\n",
      "Message('control_change', channel=0, control=64, value=106, time=55)\n",
      "Message('control_change', channel=0, control=64, value=111, time=38)\n",
      "Message('note_on', channel=0, note=69, velocity=0, time=4)\n",
      "Message('note_on', channel=0, note=66, velocity=84, time=21)\n",
      "Message('control_change', channel=0, control=64, value=116, time=67)\n",
      "Message('note_on', channel=0, note=66, velocity=0, time=15)\n",
      "Message('control_change', channel=0, control=64, value=94, time=24)\n",
      "Message('note_on', channel=0, note=52, velocity=89, time=16)\n",
      "Message('control_change', channel=0, control=64, value=48, time=2)\n",
      "Message('note_on', channel=0, note=69, velocity=82, time=1)\n",
      "Message('control_change', channel=0, control=64, value=0, time=19)\n",
      "Message('control_change', channel=0, control=64, value=28, time=58)\n",
      "Message('note_on', channel=0, note=52, velocity=0, time=3)\n",
      "Message('control_change', channel=0, control=64, value=57, time=15)\n",
      "Message('control_change', channel=0, control=64, value=60, time=20)\n",
      "Message('note_on', channel=0, note=69, velocity=0, time=13)\n",
      "Message('note_on', channel=0, note=51, velocity=75, time=1)\n",
      "Message('control_change', channel=0, control=64, value=54, time=3)\n",
      "Message('control_change', channel=0, control=64, value=50, time=20)\n",
      "Message('note_on', channel=0, note=71, velocity=80, time=2)\n",
      "Message('control_change', channel=0, control=64, value=53, time=15)\n",
      "Message('control_change', channel=0, control=64, value=59, time=20)\n",
      "Message('control_change', channel=0, control=64, value=64, time=18)\n",
      "Message('note_on', channel=0, note=51, velocity=0, time=5)\n",
      "Message('control_change', channel=0, control=64, value=60, time=34)\n",
      "Message('control_change', channel=0, control=64, value=56, time=21)\n",
      "Message('note_on', channel=0, note=47, velocity=64, time=1)\n",
      "Message('control_change', channel=0, control=64, value=59, time=36)\n",
      "Message('control_change', channel=0, control=64, value=61, time=17)\n",
      "Message('control_change', channel=0, control=64, value=60, time=20)\n",
      "Message('note_on', channel=0, note=47, velocity=0, time=7)\n",
      "Message('control_change', channel=0, control=64, value=53, time=11)\n",
      "Message('control_change', channel=0, control=64, value=31, time=19)\n",
      "Message('control_change', channel=0, control=64, value=0, time=20)\n",
      "Message('note_on', channel=0, note=52, velocity=67, time=29)\n",
      "Message('note_on', channel=0, note=79, velocity=79, time=5)\n",
      "Message('control_change', channel=0, control=64, value=22, time=114)\n",
      "Message('note_on', channel=0, note=52, velocity=0, time=5)\n",
      "Message('note_on', channel=0, note=51, velocity=72, time=12)\n",
      "Message('control_change', channel=0, control=64, value=44, time=2)\n",
      "Message('note_on', channel=0, note=78, velocity=83, time=0)\n",
      "Message('note_on', channel=0, note=79, velocity=0, time=6)\n",
      "Message('control_change', channel=0, control=64, value=51, time=11)\n",
      "Message('control_change', channel=0, control=67, value=11, time=57)\n",
      "Message('control_change', channel=0, control=64, value=53, time=18)\n",
      "Message('control_change', channel=0, control=67, value=15, time=0)\n",
      "Message('note_on', channel=0, note=51, velocity=0, time=12)\n",
      "Message('control_change', channel=0, control=64, value=58, time=7)\n",
      "Message('note_on', channel=0, note=47, velocity=68, time=4)\n",
      "Message('control_change', channel=0, control=64, value=60, time=14)\n",
      "Message('control_change', channel=0, control=64, value=61, time=97)\n",
      "Message('control_change', channel=0, control=67, value=22, time=1)\n",
      "Message('note_on', channel=0, note=54, velocity=77, time=23)\n",
      "Message('note_on', channel=0, note=69, velocity=89, time=11)\n",
      "Message('note_on', channel=0, note=47, velocity=0, time=2)\n",
      "Message('control_change', channel=0, control=64, value=60, time=19)\n",
      "Message('note_on', channel=0, note=71, velocity=0, time=7)\n",
      "Message('control_change', channel=0, control=64, value=48, time=13)\n",
      "Message('control_change', channel=0, control=67, value=17, time=1)\n",
      "Message('note_on', channel=0, note=78, velocity=0, time=10)\n",
      "Message('control_change', channel=0, control=64, value=0, time=5)\n",
      "Message('note_on', channel=0, note=54, velocity=0, time=30)\n",
      "Message('control_change', channel=0, control=67, value=21, time=7)\n",
      "Message('note_on', channel=0, note=51, velocity=72, time=31)\n",
      "Message('note_on', channel=0, note=69, velocity=0, time=5)\n",
      "Message('note_on', channel=0, note=71, velocity=89, time=17)\n",
      "Message('control_change', channel=0, control=67, value=17, time=4)\n",
      "Message('control_change', channel=0, control=67, value=22, time=59)\n",
      "Message('note_on', channel=0, note=51, velocity=0, time=4)\n",
      "Message('note_on', channel=0, note=47, velocity=68, time=51)\n",
      "Message('control_change', channel=0, control=64, value=16, time=37)\n",
      "Message('control_change', channel=0, control=64, value=25, time=20)\n",
      "Message('note_on', channel=0, note=47, velocity=0, time=25)\n",
      "Message('control_change', channel=0, control=64, value=33, time=51)\n",
      "Message('control_change', channel=0, control=64, value=37, time=18)\n",
      "Message('note_on', channel=0, note=79, velocity=86, time=0)\n",
      "Message('note_on', channel=0, note=52, velocity=70, time=4)\n",
      "Message('control_change', channel=0, control=64, value=32, time=36)\n",
      "Message('control_change', channel=0, control=64, value=0, time=17)\n",
      "Message('note_on', channel=0, note=71, velocity=0, time=11)\n",
      "Message('note_on', channel=0, note=71, velocity=64, time=64)\n",
      "Message('note_on', channel=0, note=78, velocity=87, time=15)\n",
      "Message('note_on', channel=0, note=52, velocity=0, time=3)\n",
      "Message('note_on', channel=0, note=51, velocity=78, time=2)\n",
      "Message('note_on', channel=0, note=79, velocity=0, time=12)\n",
      "Message('control_change', channel=0, control=64, value=9, time=1)\n",
      "Message('control_change', channel=0, control=64, value=43, time=21)\n",
      "Message('control_change', channel=0, control=64, value=54, time=18)\n",
      "Message('control_change', channel=0, control=64, value=56, time=21)\n",
      "Message('note_on', channel=0, note=51, velocity=0, time=10)\n",
      "Message('note_on', channel=0, note=47, velocity=75, time=37)\n",
      "Message('control_change', channel=0, control=67, value=18, time=24)\n",
      "Message('control_change', channel=0, control=67, value=23, time=75)\n",
      "Message('note_on', channel=0, note=47, velocity=0, time=22)\n",
      "Message('note_on', channel=0, note=69, velocity=83, time=9)\n",
      "Message('note_on', channel=0, note=54, velocity=75, time=20)\n",
      "Message('control_change', channel=0, control=67, value=19, time=25)\n",
      "Message('note_on', channel=0, note=71, velocity=0, time=0)\n",
      "Message('note_on', channel=0, note=78, velocity=0, time=0)\n",
      "Message('note_on', channel=0, note=69, velocity=0, time=27)\n",
      "Message('note_on', channel=0, note=54, velocity=0, time=26)\n",
      "Message('control_change', channel=0, control=67, value=23, time=4)\n",
      "Message('control_change', channel=0, control=64, value=54, time=20)\n",
      "Message('note_on', channel=0, note=51, velocity=71, time=14)\n",
      "Message('note_on', channel=0, note=71, velocity=86, time=0)\n",
      "Message('note_on', channel=0, note=71, velocity=0, time=75)\n",
      "Message('note_on', channel=0, note=51, velocity=0, time=6)\n",
      "Message('note_on', channel=0, note=54, velocity=80, time=25)\n",
      "Message('note_on', channel=0, note=75, velocity=88, time=14)\n",
      "Message('note_on', channel=0, note=54, velocity=0, time=54)\n",
      "Message('note_on', channel=0, note=75, velocity=0, time=14)\n",
      "Message('control_change', channel=0, control=64, value=52, time=25)\n",
      "Message('control_change', channel=0, control=64, value=46, time=16)\n",
      "Message('note_on', channel=0, note=57, velocity=76, time=4)\n",
      "Message('note_on', channel=0, note=78, velocity=90, time=8)\n",
      "Message('control_change', channel=0, control=64, value=0, time=7)\n",
      "Message('control_change', channel=0, control=67, value=19, time=39)\n",
      "Message('note_on', channel=0, note=78, velocity=0, time=19)\n",
      "Message('note_on', channel=0, note=57, velocity=0, time=5)\n",
      "Message('control_change', channel=0, control=64, value=37, time=52)\n",
      "Message('control_change', channel=0, control=67, value=25, time=1)\n",
      "Message('note_on', channel=0, note=47, velocity=88, time=9)\n",
      "Message('note_on', channel=0, note=79, velocity=91, time=1)\n",
      "Message('control_change', channel=0, control=64, value=71, time=8)\n",
      "Message('control_change', channel=0, control=67, value=30, time=1)\n",
      "Message('note_on', channel=0, note=75, velocity=87, time=8)\n",
      "Message('control_change', channel=0, control=64, value=84, time=10)\n",
      "Message('note_on', channel=0, note=47, velocity=0, time=3)\n",
      "Message('control_change', channel=0, control=64, value=99, time=15)\n",
      "Message('control_change', channel=0, control=64, value=112, time=21)\n",
      "Message('control_change', channel=0, control=64, value=118, time=18)\n",
      "Message('control_change', channel=0, control=67, value=34, time=55)\n",
      "Message('note_on', channel=0, note=71, velocity=76, time=13)\n",
      "Message('note_on', channel=0, note=75, velocity=0, time=10)\n",
      "Message('note_on', channel=0, note=71, velocity=0, time=56)\n",
      "Message('control_change', channel=0, control=64, value=112, time=69)\n",
      "Message('note_on', channel=0, note=55, velocity=81, time=7)\n",
      "Message('control_change', channel=0, control=64, value=104, time=13)\n",
      "Message('note_on', channel=0, note=76, velocity=71, time=8)\n",
      "Message('control_change', channel=0, control=64, value=92, time=10)\n",
      "Message('note_on', channel=0, note=77, velocity=51, time=10)\n",
      "Message('control_change', channel=0, control=64, value=80, time=9)\n",
      "Message('note_on', channel=0, note=79, velocity=0, time=17)\n",
      "Message('note_on', channel=0, note=55, velocity=0, time=2)\n",
      "Message('control_change', channel=0, control=64, value=70, time=1)\n",
      "Message('control_change', channel=0, control=67, value=30, time=2)\n",
      "Message('note_on', channel=0, note=77, velocity=0, time=9)\n",
      "Message('control_change', channel=0, control=64, value=65, time=8)\n",
      "Message('note_on', channel=0, note=76, velocity=0, time=10)\n",
      "Message('control_change', channel=0, control=64, value=63, time=7)\n",
      "Message('note_on', channel=0, note=52, velocity=76, time=21)\n",
      "Message('note_on', channel=0, note=73, velocity=86, time=11)\n",
      "Message('control_change', channel=0, control=64, value=62, time=63)\n",
      "Message('note_on', channel=0, note=73, velocity=0, time=3)\n",
      "Message('note_on', channel=0, note=52, velocity=0, time=23)\n",
      "Message('note_on', channel=0, note=55, velocity=77, time=20)\n",
      "Message('note_on', channel=0, note=76, velocity=81, time=15)\n",
      "Message('note_on', channel=0, note=75, velocity=51, time=16)\n",
      "Message('note_on', channel=0, note=55, velocity=0, time=22)\n",
      "Message('note_on', channel=0, note=75, velocity=0, time=18)\n",
      "Message('note_on', channel=0, note=76, velocity=0, time=22)\n",
      "Message('control_change', channel=0, control=64, value=61, time=11)\n",
      "Message('control_change', channel=0, control=64, value=58, time=18)\n",
      "Message('note_on', channel=0, note=59, velocity=77, time=8)\n",
      "Message('note_on', channel=0, note=79, velocity=89, time=4)\n",
      "Message('control_change', channel=0, control=64, value=44, time=7)\n",
      "Message('control_change', channel=0, control=64, value=0, time=20)\n",
      "Message('note_on', channel=0, note=59, velocity=0, time=18)\n",
      "Message('note_on', channel=0, note=79, velocity=0, time=48)\n",
      "Message('note_on', channel=0, note=49, velocity=89, time=37)\n",
      "Message('note_on', channel=0, note=81, velocity=88, time=3)\n",
      "Message('control_change', channel=0, control=67, value=35, time=4)\n",
      "Message('note_on', channel=0, note=76, velocity=87, time=3)\n",
      "Message('control_change', channel=0, control=64, value=86, time=37)\n",
      "Message('note_on', channel=0, note=49, velocity=0, time=0)\n",
      "Message('control_change', channel=0, control=67, value=39, time=3)\n",
      "Message('control_change', channel=0, control=64, value=116, time=18)\n",
      "Message('control_change', channel=0, control=64, value=127, time=16)\n",
      "Message('note_on', channel=0, note=76, velocity=0, time=39)\n",
      "Message('note_on', channel=0, note=73, velocity=80, time=22)\n",
      "Message('control_change', channel=0, control=67, value=46, time=16)\n",
      "Message('note_on', channel=0, note=73, velocity=0, time=48)\n",
      "Message('note_on', channel=0, note=78, velocity=79, time=69)\n",
      "Message('note_on', channel=0, note=57, velocity=83, time=1)\n",
      "Message('control_change', channel=0, control=64, value=110, time=14)\n",
      "Message('control_change', channel=0, control=64, value=90, time=20)\n",
      "Message('control_change', channel=0, control=64, value=67, time=33)\n",
      "Message('note_on', channel=0, note=57, velocity=0, time=4)\n",
      "Message('control_change', channel=0, control=64, value=44, time=14)\n",
      "Message('control_change', channel=0, control=64, value=41, time=20)\n",
      "Message('note_on', channel=0, note=78, velocity=0, time=11)\n",
      "Message('control_change', channel=0, control=64, value=43, time=6)\n",
      "Message('control_change', channel=0, control=64, value=45, time=23)\n",
      "Message('note_on', channel=0, note=75, velocity=85, time=4)\n",
      "Message('note_on', channel=0, note=54, velocity=71, time=7)\n",
      "Message('note_on', channel=0, note=81, velocity=0, time=39)\n",
      "Message('note_on', channel=0, note=75, velocity=0, time=27)\n",
      "Message('note_on', channel=0, note=54, velocity=0, time=18)\n",
      "Message('control_change', channel=0, control=67, value=42, time=17)\n",
      "Message('note_on', channel=0, note=57, velocity=73, time=10)\n",
      "Message('note_on', channel=0, note=78, velocity=81, time=4)\n",
      "Message('note_on', channel=0, note=57, velocity=0, time=76)\n",
      "Message('note_on', channel=0, note=78, velocity=0, time=7)\n",
      "Message('note_on', channel=0, note=60, velocity=77, time=44)\n",
      "Message('note_on', channel=0, note=81, velocity=85, time=3)\n",
      "Message('control_change', channel=0, control=64, value=37, time=6)\n",
      "Message('control_change', channel=0, control=64, value=0, time=20)\n",
      "Message('note_on', channel=0, note=60, velocity=0, time=20)\n",
      "Message('note_on', channel=0, note=51, velocity=91, time=75)\n",
      "Message('note_on', channel=0, note=83, velocity=72, time=3)\n",
      "Message('note_on', channel=0, note=78, velocity=86, time=4)\n",
      "Message('note_on', channel=0, note=81, velocity=0, time=2)\n",
      "Message('control_change', channel=0, control=64, value=43, time=26)\n",
      "Message('control_change', channel=0, control=64, value=83, time=20)\n",
      "Message('control_change', channel=0, control=67, value=46, time=1)\n",
      "Message('note_on', channel=0, note=51, velocity=0, time=9)\n",
      "Message('control_change', channel=0, control=64, value=99, time=8)\n",
      "Message('note_on', channel=0, note=78, velocity=0, time=11)\n",
      "Message('control_change', channel=0, control=64, value=107, time=7)\n",
      "Message('control_change', channel=0, control=64, value=102, time=40)\n",
      "Message('note_on', channel=0, note=75, velocity=84, time=6)\n",
      "Message('note_on', channel=0, note=59, velocity=79, time=4)\n",
      "Message('note_on', channel=0, note=59, velocity=0, time=62)\n",
      "Message('note_on', channel=0, note=75, velocity=0, time=5)\n",
      "Message('control_change', channel=0, control=64, value=98, time=33)\n",
      "Message('note_on', channel=0, note=57, velocity=81, time=17)\n",
      "Message('note_on', channel=0, note=78, velocity=79, time=3)\n",
      "Message('control_change', channel=0, control=64, value=79, time=20)\n",
      "Message('note_on', channel=0, note=57, velocity=0, time=7)\n",
      "Message('control_change', channel=0, control=64, value=0, time=12)\n",
      "Message('note_on', channel=0, note=83, velocity=0, time=59)\n",
      "Message('note_on', channel=0, note=83, velocity=26, time=0)\n",
      "Message('note_on', channel=0, note=78, velocity=0, time=29)\n",
      "Message('note_on', channel=0, note=55, velocity=88, time=2)\n",
      "Message('note_on', channel=0, note=76, velocity=82, time=5)\n",
      "Message('control_change', channel=0, control=64, value=64, time=37)\n",
      "Message('control_change', channel=0, control=64, value=79, time=20)\n",
      "Message('control_change', channel=0, control=67, value=42, time=1)\n",
      "Message('note_on', channel=0, note=76, velocity=0, time=14)\n",
      "Message('control_change', channel=0, control=64, value=82, time=2)\n",
      "Message('note_on', channel=0, note=55, velocity=0, time=2)\n",
      "Message('control_change', channel=0, control=67, value=46, time=32)\n",
      "Message('control_change', channel=0, control=64, value=79, time=20)\n",
      "Message('note_on', channel=0, note=52, velocity=73, time=8)\n",
      "Message('note_on', channel=0, note=79, velocity=74, time=9)\n",
      "Message('note_on', channel=0, note=52, velocity=0, time=33)\n",
      "Message('control_change', channel=0, control=67, value=42, time=26)\n",
      "Message('note_on', channel=0, note=79, velocity=0, time=32)\n",
      "Message('control_change', channel=0, control=67, value=46, time=6)\n",
      "Message('note_on', channel=0, note=47, velocity=82, time=9)\n",
      "Message('note_on', channel=0, note=75, velocity=84, time=12)\n",
      "Message('note_on', channel=0, note=47, velocity=0, time=35)\n",
      "Message('control_change', channel=0, control=64, value=70, time=19)\n",
      "Message('control_change', channel=0, control=64, value=0, time=18)\n",
      "Message('note_on', channel=0, note=75, velocity=0, time=3)\n",
      "Message('note_on', channel=0, note=52, velocity=92, time=59)\n",
      "Message('note_on', channel=0, note=76, velocity=83, time=10)\n",
      "Message('control_change', channel=0, control=64, value=54, time=42)\n",
      "Message('control_change', channel=0, control=64, value=81, time=19)\n",
      "Message('control_change', channel=0, control=64, value=90, time=20)\n",
      "Message('note_on', channel=0, note=76, velocity=0, time=3)\n",
      "Message('control_change', channel=0, control=64, value=86, time=33)\n",
      "Message('note_on', channel=0, note=47, velocity=81, time=0)\n",
      "Message('note_on', channel=0, note=52, velocity=0, time=8)\n",
      "Message('note_on', channel=0, note=79, velocity=78, time=3)\n",
      "Message('control_change', channel=0, control=64, value=82, time=8)\n",
      "Message('note_on', channel=0, note=47, velocity=0, time=24)\n",
      "Message('note_on', channel=0, note=79, velocity=0, time=74)\n",
      "Message('note_on', channel=0, note=43, velocity=90, time=4)\n",
      "Message('note_on', channel=0, note=75, velocity=87, time=11)\n",
      "Message('control_change', channel=0, control=64, value=76, time=20)\n",
      "Message('control_change', channel=0, control=64, value=28, time=18)\n",
      "Message('note_on', channel=0, note=43, velocity=0, time=0)\n",
      "Message('control_change', channel=0, control=64, value=0, time=20)\n",
      "Message('note_on', channel=0, note=75, velocity=0, time=9)\n",
      "Message('note_on', channel=0, note=48, velocity=95, time=77)\n",
      "Message('note_on', channel=0, note=76, velocity=82, time=2)\n",
      "Message('control_change', channel=0, control=67, value=50, time=2)\n",
      "Message('control_change', channel=0, control=64, value=39, time=23)\n",
      "Message('note_on', channel=0, note=83, velocity=0, time=1)\n",
      "Message('control_change', channel=0, control=64, value=79, time=16)\n",
      "Message('control_change', channel=0, control=67, value=56, time=2)\n",
      "Message('control_change', channel=0, control=64, value=83, time=19)\n",
      "Message('note_on', channel=0, note=76, velocity=0, time=15)\n",
      "Message('control_change', channel=0, control=64, value=78, time=2)\n",
      "Message('control_change', channel=0, control=64, value=68, time=20)\n",
      "Message('control_change', channel=0, control=64, value=60, time=19)\n",
      "Message('note_on', channel=0, note=80, velocity=77, time=4)\n",
      "Message('control_change', channel=0, control=64, value=62, time=34)\n",
      "Message('note_on', channel=0, note=80, velocity=0, time=46)\n",
      "Message('note_on', channel=0, note=81, velocity=82, time=64)\n",
      "Message('control_change', channel=0, control=64, value=61, time=17)\n",
      "Message('control_change', channel=0, control=64, value=59, time=20)\n",
      "Message('control_change', channel=0, control=64, value=55, time=18)\n",
      "Message('control_change', channel=0, control=64, value=43, time=20)\n",
      "Message('control_change', channel=0, control=64, value=13, time=20)\n",
      "Message('control_change', channel=0, control=64, value=0, time=18)\n",
      "Message('note_on', channel=0, note=77, velocity=79, time=13)\n",
      "Message('note_on', channel=0, note=81, velocity=0, time=19)\n",
      "Message('note_on', channel=0, note=75, velocity=82, time=113)\n",
      "Message('note_on', channel=0, note=47, velocity=75, time=1)\n",
      "Message('note_on', channel=0, note=48, velocity=0, time=7)\n",
      "Message('note_on', channel=0, note=77, velocity=0, time=10)\n",
      "Message('note_on', channel=0, note=75, velocity=0, time=63)\n",
      "Message('note_on', channel=0, note=48, velocity=81, time=46)\n",
      "Message('note_on', channel=0, note=76, velocity=80, time=1)\n",
      "Message('note_on', channel=0, note=47, velocity=0, time=5)\n",
      "Message('note_on', channel=0, note=76, velocity=0, time=88)\n",
      "Message('note_on', channel=0, note=45, velocity=79, time=28)\n",
      "Message('note_on', channel=0, note=72, velocity=79, time=13)\n",
      "Message('note_on', channel=0, note=48, velocity=0, time=2)\n",
      "Message('note_on', channel=0, note=45, velocity=0, time=61)\n",
      "Message('note_on', channel=0, note=72, velocity=0, time=16)\n",
      "Message('note_on', channel=0, note=47, velocity=79, time=29)\n",
      "Message('note_on', channel=0, note=68, velocity=70, time=21)\n",
      "Message('note_on', channel=0, note=47, velocity=0, time=54)\n",
      "Message('note_on', channel=0, note=48, velocity=81, time=59)\n",
      "Message('note_on', channel=0, note=69, velocity=70, time=22)\n",
      "Message('note_on', channel=0, note=68, velocity=0, time=1)\n",
      "Message('note_on', channel=0, note=48, velocity=0, time=41)\n",
      "Message('note_on', channel=0, note=69, velocity=0, time=56)\n",
      "Message('note_on', channel=0, note=45, velocity=81, time=7)\n",
      "Message('note_on', channel=0, note=65, velocity=80, time=18)\n",
      "Message('control_change', channel=0, control=64, value=54, time=69)\n",
      "Message('control_change', channel=0, control=64, value=72, time=19)\n",
      "Message('note_on', channel=0, note=65, velocity=0, time=14)\n",
      "Message('control_change', channel=0, control=64, value=57, time=4)\n",
      "Message('note_on', channel=0, note=47, velocity=80, time=5)\n",
      "Message('control_change', channel=0, control=64, value=0, time=16)\n",
      "Message('note_on', channel=0, note=63, velocity=79, time=10)\n",
      "Message('note_on', channel=0, note=45, velocity=0, time=4)\n",
      "Message('note_on', channel=0, note=47, velocity=0, time=75)\n",
      "Message('note_on', channel=0, note=48, velocity=81, time=19)\n",
      "Message('note_on', channel=0, note=64, velocity=74, time=7)\n",
      "Message('note_on', channel=0, note=63, velocity=0, time=36)\n",
      "Message('note_on', channel=0, note=48, velocity=0, time=11)\n",
      "Message('note_on', channel=0, note=64, velocity=0, time=38)\n",
      "Message('note_on', channel=0, note=42, velocity=75, time=52)\n",
      "Message('note_on', channel=0, note=63, velocity=84, time=11)\n",
      "Message('control_change', channel=0, control=64, value=55, time=21)\n",
      "Message('control_change', channel=0, control=67, value=60, time=1)\n",
      "Message('control_change', channel=0, control=64, value=73, time=18)\n",
      "Message('control_change', channel=0, control=64, value=69, time=17)\n",
      "Message('control_change', channel=0, control=64, value=62, time=19)\n",
      "Message('note_on', channel=0, note=63, velocity=0, time=2)\n",
      "Message('control_change', channel=0, control=64, value=58, time=17)\n",
      "Message('note_on', channel=0, note=66, velocity=80, time=12)\n",
      "Message('note_on', channel=0, note=45, velocity=69, time=7)\n",
      "Message('control_change', channel=0, control=64, value=61, time=17)\n",
      "Message('note_on', channel=0, note=42, velocity=0, time=1)\n",
      "Message('note_on', channel=0, note=45, velocity=0, time=69)\n",
      "Message('note_on', channel=0, note=66, velocity=0, time=9)\n",
      "Message('note_on', channel=0, note=69, velocity=80, time=15)\n",
      "Message('note_on', channel=0, note=48, velocity=58, time=16)\n",
      "Message('control_change', channel=0, control=64, value=57, time=22)\n",
      "Message('note_on', channel=0, note=50, velocity=36, time=13)\n",
      "Message('control_change', channel=0, control=64, value=30, time=4)\n",
      "Message('control_change', channel=0, control=64, value=0, time=19)\n",
      "Message('note_on', channel=0, note=69, velocity=0, time=24)\n",
      "Message('note_on', channel=0, note=72, velocity=77, time=17)\n",
      "Message('note_on', channel=0, note=50, velocity=0, time=28)\n",
      "Message('control_change', channel=0, control=64, value=25, time=5)\n",
      "Message('note_on', channel=0, note=48, velocity=0, time=6)\n",
      "Message('note_on', channel=0, note=51, velocity=73, time=2)\n",
      "Message('control_change', channel=0, control=64, value=48, time=12)\n",
      "Message('control_change', channel=0, control=64, value=55, time=20)\n",
      "Message('note_on', channel=0, note=72, velocity=0, time=7)\n",
      "Message('note_on', channel=0, note=69, velocity=57, time=70)\n",
      "Message('note_on', channel=0, note=54, velocity=74, time=1)\n",
      "Message('note_on', channel=0, note=71, velocity=65, time=7)\n",
      "Message('note_on', channel=0, note=51, velocity=0, time=5)\n",
      "Message('note_on', channel=0, note=69, velocity=0, time=23)\n",
      "Message('note_on', channel=0, note=71, velocity=0, time=2)\n",
      "Message('control_change', channel=0, control=64, value=58, time=55)\n",
      "Message('control_change', channel=0, control=64, value=62, time=34)\n",
      "Message('control_change', channel=0, control=67, value=64, time=2)\n",
      "Message('note_on', channel=0, note=57, velocity=60, time=8)\n",
      "Message('control_change', channel=0, control=64, value=65, time=9)\n",
      "Message('note_on', channel=0, note=75, velocity=56, time=18)\n",
      "Message('control_change', channel=0, control=64, value=67, time=1)\n",
      "Message('note_on', channel=0, note=54, velocity=0, time=5)\n",
      "Message('note_on', channel=0, note=75, velocity=0, time=19)\n",
      "Message('control_change', channel=0, control=64, value=63, time=14)\n",
      "Message('control_change', channel=0, control=64, value=32, time=19)\n",
      "Message('control_change', channel=0, control=64, value=0, time=19)\n",
      "Message('note_on', channel=0, note=57, velocity=0, time=0)\n",
      "Message('control_change', channel=0, control=67, value=68, time=18)\n",
      "Message('note_on', channel=0, note=55, velocity=74, time=9)\n",
      "Message('note_on', channel=0, note=76, velocity=87, time=7)\n",
      "Message('note_on', channel=0, note=78, velocity=82, time=51)\n",
      "Message('note_on', channel=0, note=76, velocity=0, time=19)\n",
      "Message('note_on', channel=0, note=54, velocity=75, time=40)\n",
      "Message('control_change', channel=0, control=67, value=72, time=5)\n",
      "Message('note_on', channel=0, note=55, velocity=0, time=8)\n",
      "Message('note_on', channel=0, note=79, velocity=86, time=7)\n",
      "Message('note_on', channel=0, note=78, velocity=0, time=22)\n",
      "Message('note_on', channel=0, note=79, velocity=0, time=24)\n",
      "Message('note_on', channel=0, note=54, velocity=0, time=15)\n",
      "Message('note_on', channel=0, note=52, velocity=73, time=57)\n",
      "Message('note_on', channel=0, note=76, velocity=82, time=20)\n",
      "Message('note_on', channel=0, note=74, velocity=81, time=7)\n",
      "Message('note_on', channel=0, note=76, velocity=0, time=22)\n",
      "Message('note_on', channel=0, note=74, velocity=0, time=5)\n",
      "Message('note_on', channel=0, note=52, velocity=0, time=29)\n",
      "Message('note_on', channel=0, note=59, velocity=79, time=48)\n",
      "Message('control_change', channel=0, control=64, value=23, time=1)\n",
      "Message('control_change', channel=0, control=67, value=79, time=1)\n",
      "Message('control_change', channel=0, control=64, value=56, time=17)\n",
      "Message('note_on', channel=0, note=71, velocity=78, time=0)\n",
      "Message('note_on', channel=0, note=72, velocity=69, time=16)\n",
      "Message('control_change', channel=0, control=67, value=83, time=2)\n",
      "Message('control_change', channel=0, control=64, value=51, time=19)\n",
      "Message('note_on', channel=0, note=72, velocity=0, time=0)\n",
      "Message('note_on', channel=0, note=71, velocity=0, time=8)\n",
      "Message('control_change', channel=0, control=64, value=45, time=12)\n",
      "Message('control_change', channel=0, control=64, value=51, time=38)\n",
      "Message('control_change', channel=0, control=64, value=60, time=19)\n",
      "Message('control_change', channel=0, control=67, value=88, time=1)\n",
      "Message('note_on', channel=0, note=76, velocity=82, time=3)\n",
      "Message('control_change', channel=0, control=64, value=63, time=16)\n",
      "Message('control_change', channel=0, control=64, value=62, time=18)\n",
      "Message('note_on', channel=0, note=76, velocity=0, time=12)\n",
      "Message('control_change', channel=0, control=64, value=60, time=6)\n",
      "Message('note_on', channel=0, note=47, velocity=66, time=54)\n",
      "Message('control_change', channel=0, control=64, value=61, time=3)\n",
      "Message('control_change', channel=0, control=67, value=94, time=1)\n",
      "Message('note_on', channel=0, note=69, velocity=82, time=9)\n",
      "Message('note_on', channel=0, note=75, velocity=84, time=6)\n",
      "Message('note_on', channel=0, note=59, velocity=0, time=2)\n",
      "Message('control_change', channel=0, control=67, value=98, time=2)\n",
      "Message('control_change', channel=0, control=64, value=60, time=39)\n",
      "Message('note_on', channel=0, note=69, velocity=0, time=2)\n",
      "Message('note_on', channel=0, note=75, velocity=0, time=6)\n",
      "Message('control_change', channel=0, control=64, value=61, time=46)\n",
      "Message('control_change', channel=0, control=67, value=102, time=21)\n",
      "Message('note_on', channel=0, note=76, velocity=82, time=7)\n",
      "Message('note_on', channel=0, note=47, velocity=0, time=4)\n",
      "Message('control_change', channel=0, control=64, value=58, time=6)\n",
      "Message('note_on', channel=0, note=52, velocity=74, time=0)\n",
      "Message('note_on', channel=0, note=67, velocity=78, time=8)\n",
      "Message('control_change', channel=0, control=64, value=25, time=25)\n",
      "Message('control_change', channel=0, control=64, value=0, time=19)\n",
      "Message('note_on', channel=0, note=67, velocity=0, time=63)\n",
      "Message('note_on', channel=0, note=64, velocity=48, time=46)\n",
      "Message('note_on', channel=0, note=64, velocity=0, time=67)\n",
      "Message('note_on', channel=0, note=69, velocity=57, time=66)\n",
      "Message('note_on', channel=0, note=60, velocity=69, time=5)\n",
      "Message('note_on', channel=0, note=69, velocity=0, time=87)\n",
      "Message('note_on', channel=0, note=67, velocity=65, time=37)\n",
      "Message('note_on', channel=0, note=60, velocity=0, time=7)\n",
      "Message('note_on', channel=0, note=59, velocity=66, time=7)\n",
      "Message('note_on', channel=0, note=67, velocity=0, time=24)\n",
      "Message('note_on', channel=0, note=64, velocity=59, time=84)\n",
      "Message('note_on', channel=0, note=64, velocity=0, time=57)\n",
      "Message('note_on', channel=0, note=51, velocity=79, time=97)\n",
      "Message('note_on', channel=0, note=52, velocity=0, time=2)\n",
      "Message('note_on', channel=0, note=71, velocity=58, time=6)\n",
      "Message('note_on', channel=0, note=51, velocity=0, time=92)\n",
      "Message('note_on', channel=0, note=52, velocity=69, time=35)\n",
      "Message('note_on', channel=0, note=71, velocity=0, time=6)\n",
      "Message('note_on', channel=0, note=67, velocity=59, time=13)\n",
      "Message('note_on', channel=0, note=67, velocity=0, time=56)\n",
      "Message('note_on', channel=0, note=64, velocity=46, time=87)\n",
      "Message('note_on', channel=0, note=64, velocity=0, time=71)\n",
      "Message('note_on', channel=0, note=59, velocity=0, time=33)\n",
      "Message('note_on', channel=0, note=60, velocity=59, time=22)\n",
      "Message('note_on', channel=0, note=69, velocity=60, time=3)\n",
      "Message('note_on', channel=0, note=69, velocity=0, time=50)\n",
      "Message('note_on', channel=0, note=59, velocity=65, time=82)\n",
      "Message('note_on', channel=0, note=60, velocity=0, time=2)\n",
      "Message('note_on', channel=0, note=67, velocity=58, time=2)\n",
      "Message('note_on', channel=0, note=67, velocity=0, time=62)\n",
      "Message('note_on', channel=0, note=64, velocity=50, time=77)\n",
      "Message('note_on', channel=0, note=64, velocity=0, time=84)\n",
      "Message('note_on', channel=0, note=52, velocity=0, time=47)\n",
      "Message('note_on', channel=0, note=51, velocity=63, time=11)\n",
      "Message('note_on', channel=0, note=71, velocity=54, time=9)\n",
      "Message('note_on', channel=0, note=51, velocity=0, time=60)\n",
      "Message('note_on', channel=0, note=52, velocity=72, time=68)\n",
      "Message('note_on', channel=0, note=71, velocity=0, time=4)\n",
      "Message('note_on', channel=0, note=68, velocity=56, time=17)\n",
      "Message('note_on', channel=0, note=59, velocity=0, time=34)\n",
      "Message('note_on', channel=0, note=76, velocity=0, time=22)\n",
      "Message('note_on', channel=0, note=56, velocity=73, time=46)\n",
      "Message('note_on', channel=0, note=68, velocity=0, time=11)\n",
      "Message('note_on', channel=0, note=52, velocity=0, time=9)\n",
      "Message('note_on', channel=0, note=71, velocity=66, time=13)\n",
      "Message('note_on', channel=0, note=71, velocity=0, time=69)\n",
      "Message('note_on', channel=0, note=59, velocity=67, time=25)\n",
      "Message('note_on', channel=0, note=56, velocity=0, time=27)\n",
      "Message('note_on', channel=0, note=74, velocity=77, time=5)\n",
      "Message('note_on', channel=0, note=74, velocity=0, time=112)\n",
      "Message('note_on', channel=0, note=59, velocity=0, time=12)\n",
      "Message('note_on', channel=0, note=56, velocity=67, time=4)\n",
      "Message('note_on', channel=0, note=62, velocity=63, time=30)\n",
      "Message('control_change', channel=0, control=64, value=30, time=6)\n",
      "Message('note_on', channel=0, note=64, velocity=63, time=0)\n",
      "Message('control_change', channel=0, control=64, value=41, time=19)\n",
      "Message('note_on', channel=0, note=62, velocity=0, time=16)\n",
      "Message('control_change', channel=0, control=64, value=43, time=3)\n",
      "Message('note_on', channel=0, note=56, velocity=0, time=49)\n",
      "Message('note_on', channel=0, note=52, velocity=70, time=1)\n",
      "Message('control_change', channel=0, control=64, value=48, time=5)\n",
      "Message('control_change', channel=0, control=64, value=50, time=20)\n",
      "Message('note_on', channel=0, note=57, velocity=72, time=114)\n",
      "Message('note_on', channel=0, note=72, velocity=77, time=13)\n",
      "Message('note_on', channel=0, note=52, velocity=0, time=3)\n",
      "Message('control_change', channel=0, control=64, value=52, time=2)\n",
      "Message('note_on', channel=0, note=64, velocity=0, time=44)\n",
      "Message('note_on', channel=0, note=54, velocity=75, time=75)\n",
      "Message('note_on', channel=0, note=69, velocity=80, time=0)\n",
      "Message('note_on', channel=0, note=57, velocity=0, time=1)\n",
      "Message('control_change', channel=0, control=64, value=13, time=10)\n",
      "Message('note_on', channel=0, note=72, velocity=0, time=2)\n",
      "Message('control_change', channel=0, control=64, value=0, time=19)\n",
      "Message('control_change', channel=0, control=64, value=32, time=94)\n",
      "Message('note_on', channel=0, note=57, velocity=72, time=0)\n",
      "Message('note_on', channel=0, note=72, velocity=79, time=4)\n",
      "Message('note_on', channel=0, note=69, velocity=0, time=6)\n",
      "Message('note_on', channel=0, note=54, velocity=0, time=24)\n",
      "Message('control_change', channel=0, control=64, value=26, time=5)\n",
      "Message('control_change', channel=0, control=64, value=9, time=17)\n",
      "Message('control_change', channel=0, control=64, value=20, time=38)\n",
      "Message('control_change', channel=0, control=64, value=34, time=21)\n",
      "Message('note_on', channel=0, note=57, velocity=0, time=3)\n",
      "Message('note_on', channel=0, note=72, velocity=0, time=5)\n",
      "Message('note_on', channel=0, note=76, velocity=81, time=1)\n",
      "Message('note_on', channel=0, note=60, velocity=68, time=3)\n",
      "Message('control_change', channel=0, control=64, value=0, time=23)\n",
      "Message('note_on', channel=0, note=76, velocity=0, time=91)\n",
      "Message('control_change', channel=0, control=64, value=43, time=6)\n",
      "Message('note_on', channel=0, note=57, velocity=73, time=5)\n",
      "Message('note_on', channel=0, note=60, velocity=0, time=7)\n",
      "Message('control_change', channel=0, control=64, value=62, time=7)\n",
      "Message('note_on', channel=0, note=66, velocity=83, time=1)\n",
      "Message('control_change', channel=0, control=64, value=66, time=30)\n",
      "Message('control_change', channel=0, control=64, value=62, time=19)\n",
      "Message('control_change', channel=0, control=64, value=58, time=20)\n",
      "Message('control_change', channel=0, control=64, value=61, time=36)\n",
      "Message('note_on', channel=0, note=57, velocity=0, time=10)\n",
      "Message('control_change', channel=0, control=64, value=65, time=8)\n",
      "Message('note_on', channel=0, note=54, velocity=70, time=4)\n",
      "Message('control_change', channel=0, control=64, value=68, time=18)\n",
      "Message('control_change', channel=0, control=64, value=67, time=19)\n",
      "Message('control_change', channel=0, control=64, value=65, time=18)\n",
      "Message('control_change', channel=0, control=64, value=62, time=20)\n",
      "Message('note_on', channel=0, note=66, velocity=0, time=16)\n",
      "Message('control_change', channel=0, control=64, value=63, time=2)\n",
      "Message('control_change', channel=0, control=64, value=66, time=21)\n",
      "Message('control_change', channel=0, control=64, value=68, time=19)\n",
      "Message('control_change', channel=0, control=67, value=106, time=2)\n",
      "Message('note_on', channel=0, note=54, velocity=0, time=1)\n",
      "Message('note_on', channel=0, note=59, velocity=71, time=4)\n",
      "Message('note_on', channel=0, note=74, velocity=86, time=1)\n",
      "Message('control_change', channel=0, control=64, value=65, time=28)\n",
      "Message('control_change', channel=0, control=64, value=49, time=19)\n",
      "Message('control_change', channel=0, control=64, value=0, time=19)\n",
      "Message('note_on', channel=0, note=56, velocity=76, time=60)\n",
      "Message('note_on', channel=0, note=59, velocity=0, time=5)\n",
      "Message('note_on', channel=0, note=71, velocity=87, time=1)\n",
      "Message('note_on', channel=0, note=74, velocity=0, time=5)\n",
      "Message('note_on', channel=0, note=59, velocity=77, time=116)\n",
      "Message('note_on', channel=0, note=74, velocity=88, time=1)\n",
      "Message('note_on', channel=0, note=71, velocity=0, time=3)\n",
      "Message('note_on', channel=0, note=56, velocity=0, time=37)\n",
      "Message('note_on', channel=0, note=74, velocity=0, time=74)\n",
      "Message('note_on', channel=0, note=59, velocity=0, time=9)\n",
      "Message('note_on', channel=0, note=62, velocity=80, time=8)\n",
      "Message('note_on', channel=0, note=77, velocity=85, time=1)\n",
      "Message('note_on', channel=0, note=77, velocity=0, time=80)\n",
      "Message('control_change', channel=0, control=64, value=38, time=14)\n",
      "Message('control_change', channel=0, control=64, value=50, time=19)\n",
      "Message('note_on', channel=0, note=59, velocity=82, time=8)\n",
      "Message('note_on', channel=0, note=62, velocity=0, time=10)\n",
      "Message('note_on', channel=0, note=68, velocity=90, time=1)\n",
      "Message('control_change', channel=0, control=67, value=100, time=55)\n",
      "Message('control_change', channel=0, control=64, value=52, time=20)\n",
      "Message('control_change', channel=0, control=64, value=56, time=20)\n",
      "Message('control_change', channel=0, control=67, value=96, time=3)\n",
      "Message('note_on', channel=0, note=68, velocity=0, time=3)\n",
      "Message('control_change', channel=0, control=64, value=58, time=12)\n",
      "Message('note_on', channel=0, note=76, velocity=81, time=11)\n",
      "Message('note_on', channel=0, note=56, velocity=81, time=2)\n",
      "Message('note_on', channel=0, note=59, velocity=0, time=14)\n",
      "Message('control_change', channel=0, control=64, value=61, time=64)\n",
      "Message('control_change', channel=0, control=67, value=87, time=0)\n",
      "Message('control_change', channel=0, control=67, value=75, time=19)\n",
      "Message('control_change', channel=0, control=64, value=62, time=18)\n",
      "Message('control_change', channel=0, control=67, value=65, time=1)\n",
      "Message('note_on', channel=0, note=59, velocity=81, time=14)\n",
      "Message('note_on', channel=0, note=74, velocity=82, time=6)\n",
      "Message('note_on', channel=0, note=56, velocity=0, time=3)\n",
      "Message('note_on', channel=0, note=76, velocity=0, time=1)\n",
      "Message('control_change', channel=0, control=67, value=56, time=32)\n",
      "Message('control_change', channel=0, control=64, value=57, time=19)\n",
      "Message('control_change', channel=0, control=67, value=39, time=0)\n",
      "Message('control_change', channel=0, control=64, value=0, time=20)\n",
      "Message('control_change', channel=0, control=67, value=14, time=1)\n",
      "Message('control_change', channel=0, control=67, value=0, time=16)\n",
      "Message('note_on', channel=0, note=59, velocity=0, time=25)\n",
      "Message('note_on', channel=0, note=57, velocity=88, time=8)\n",
      "Message('note_on', channel=0, note=72, velocity=77, time=12)\n",
      "Message('note_on', channel=0, note=74, velocity=0, time=13)\n",
      "Message('note_on', channel=0, note=72, velocity=0, time=111)\n",
      "Message('note_on', channel=0, note=69, velocity=68, time=1)\n",
      "Message('note_on', channel=0, note=69, velocity=0, time=113)\n",
      "Message('note_on', channel=0, note=65, velocity=83, time=33)\n",
      "Message('note_on', channel=0, note=74, velocity=76, time=12)\n",
      "Message('control_change', channel=0, control=64, value=48, time=50)\n",
      "Message('control_change', channel=0, control=64, value=0, time=20)\n",
      "Message('note_on', channel=0, note=65, velocity=0, time=42)\n",
      "Message('note_on', channel=0, note=64, velocity=79, time=3)\n",
      "Message('note_on', channel=0, note=72, velocity=72, time=25)\n",
      "Message('note_on', channel=0, note=74, velocity=0, time=29)\n",
      "Message('note_on', channel=0, note=72, velocity=0, time=68)\n",
      "Message('note_on', channel=0, note=69, velocity=64, time=30)\n",
      "Message('note_on', channel=0, note=69, velocity=0, time=80)\n",
      "Message('note_on', channel=0, note=56, velocity=79, time=43)\n",
      "Message('note_on', channel=0, note=57, velocity=0, time=1)\n",
      "Message('note_on', channel=0, note=76, velocity=62, time=17)\n",
      "Message('control_change', channel=0, control=67, value=8, time=91)\n",
      "Message('note_on', channel=0, note=56, velocity=0, time=13)\n",
      "Message('note_on', channel=0, note=76, velocity=0, time=24)\n",
      "Message('note_on', channel=0, note=72, velocity=65, time=10)\n",
      "Message('note_on', channel=0, note=57, velocity=72, time=3)\n",
      "Message('note_on', channel=0, note=72, velocity=0, time=101)\n",
      "Message('note_on', channel=0, note=69, velocity=60, time=34)\n",
      "Message('note_on', channel=0, note=69, velocity=0, time=58)\n",
      "Message('note_on', channel=0, note=64, velocity=0, time=68)\n",
      "Message('note_on', channel=0, note=74, velocity=69, time=4)\n",
      "Message('note_on', channel=0, note=65, velocity=77, time=8)\n",
      "Message('control_change', channel=0, control=64, value=37, time=95)\n",
      "Message('note_on', channel=0, note=65, velocity=0, time=11)\n",
      "Message('control_change', channel=0, control=64, value=44, time=6)\n",
      "Message('note_on', channel=0, note=74, velocity=0, time=16)\n",
      "Message('note_on', channel=0, note=64, velocity=73, time=3)\n",
      "Message('note_on', channel=0, note=72, velocity=70, time=0)\n",
      "Message('control_change', channel=0, control=64, value=38, time=2)\n",
      "Message('control_change', channel=0, control=64, value=30, time=20)\n",
      "Message('control_change', channel=0, control=67, value=12, time=19)\n",
      "Message('control_change', channel=0, control=64, value=34, time=19)\n",
      "Message('note_on', channel=0, note=72, velocity=0, time=10)\n",
      "Message('control_change', channel=0, control=64, value=46, time=8)\n",
      "Message('control_change', channel=0, control=64, value=54, time=18)\n",
      "Message('control_change', channel=0, control=64, value=59, time=19)\n",
      "Message('note_on', channel=0, note=69, velocity=72, time=9)\n",
      "Message('control_change', channel=0, control=67, value=17, time=68)\n",
      "Message('control_change', channel=0, control=64, value=60, time=19)\n",
      "Message('control_change', channel=0, control=67, value=12, time=36)\n",
      "Message('note_on', channel=0, note=69, velocity=0, time=7)\n",
      "Message('note_on', channel=0, note=56, velocity=72, time=4)\n",
      "Message('note_on', channel=0, note=57, velocity=0, time=2)\n",
      "Message('note_on', channel=0, note=76, velocity=85, time=6)\n",
      "Message('note_on', channel=0, note=56, velocity=0, time=70)\n",
      "Message('note_on', channel=0, note=57, velocity=79, time=57)\n",
      "Message('note_on', channel=0, note=73, velocity=85, time=7)\n",
      "Message('note_on', channel=0, note=76, velocity=0, time=16)\n",
      "Message('note_on', channel=0, note=64, velocity=0, time=29)\n",
      "Message('control_change', channel=0, control=64, value=55, time=65)\n",
      "Message('control_change', channel=0, control=64, value=40, time=17)\n",
      "Message('note_on', channel=0, note=61, velocity=78, time=10)\n",
      "Message('note_on', channel=0, note=76, velocity=86, time=2)\n",
      "Message('control_change', channel=0, control=64, value=0, time=7)\n",
      "Message('note_on', channel=0, note=73, velocity=0, time=8)\n",
      "Message('note_on', channel=0, note=57, velocity=0, time=11)\n",
      "Message('note_on', channel=0, note=76, velocity=0, time=72)\n",
      "Message('note_on', channel=0, note=64, velocity=70, time=28)\n",
      "Message('note_on', channel=0, note=61, velocity=0, time=5)\n",
      "Message('note_on', channel=0, note=79, velocity=85, time=2)\n",
      "Message('note_on', channel=0, note=79, velocity=0, time=106)\n",
      "Message('note_on', channel=0, note=64, velocity=0, time=25)\n",
      "Message('note_on', channel=0, note=61, velocity=75, time=3)\n",
      "Message('note_on', channel=0, note=69, velocity=84, time=1)\n",
      "Message('control_change', channel=0, control=64, value=28, time=22)\n",
      "Message('control_change', channel=0, control=64, value=40, time=18)\n",
      "Message('control_change', channel=0, control=64, value=50, time=21)\n",
      "Message('control_change', channel=0, control=64, value=59, time=18)\n",
      "Message('control_change', channel=0, control=64, value=65, time=20)\n",
      "Message('control_change', channel=0, control=64, value=67, time=19)\n",
      "Message('note_on', channel=0, note=57, velocity=73, time=9)\n",
      "Message('note_on', channel=0, note=61, velocity=0, time=8)\n",
      "Message('control_change', channel=0, control=67, value=8, time=112)\n",
      "Message('note_on', channel=0, note=57, velocity=0, time=4)\n",
      "Message('note_on', channel=0, note=62, velocity=75, time=14)\n",
      "Message('note_on', channel=0, note=78, velocity=82, time=7)\n",
      "Message('note_on', channel=0, note=69, velocity=0, time=52)\n",
      "Message('note_on', channel=0, note=59, velocity=81, time=69)\n",
      "Message('note_on', channel=0, note=62, velocity=0, time=1)\n",
      "Message('note_on', channel=0, note=74, velocity=88, time=1)\n",
      "Message('note_on', channel=0, note=78, velocity=0, time=8)\n",
      "Message('control_change', channel=0, control=64, value=65, time=16)\n",
      "Message('control_change', channel=0, control=64, value=63, time=19)\n",
      "Message('control_change', channel=0, control=64, value=61, time=19)\n",
      "Message('control_change', channel=0, control=64, value=60, time=17)\n",
      "Message('control_change', channel=0, control=64, value=55, time=38)\n",
      "Message('note_on', channel=0, note=59, velocity=0, time=2)\n",
      "Message('note_on', channel=0, note=62, velocity=77, time=4)\n",
      "Message('note_on', channel=0, note=78, velocity=90, time=8)\n",
      "Message('control_change', channel=0, control=64, value=47, time=3)\n",
      "Message('note_on', channel=0, note=74, velocity=0, time=17)\n",
      "Message('control_change', channel=0, control=64, value=34, time=4)\n",
      "Message('control_change', channel=0, control=64, value=27, time=20)\n",
      "Message('control_change', channel=0, control=64, value=20, time=38)\n",
      "Message('control_change', channel=0, control=64, value=0, time=20)\n",
      "Message('note_on', channel=0, note=66, velocity=74, time=43)\n",
      "Message('note_on', channel=0, note=81, velocity=87, time=1)\n",
      "Message('note_on', channel=0, note=62, velocity=0, time=18)\n",
      "Message('note_on', channel=0, note=78, velocity=0, time=2)\n",
      "Message('note_on', channel=0, note=81, velocity=0, time=78)\n",
      "Message('note_on', channel=0, note=62, velocity=75, time=31)\n",
      "Message('note_on', channel=0, note=71, velocity=86, time=5)\n",
      "Message('note_on', channel=0, note=66, velocity=0, time=4)\n",
      "Message('control_change', channel=0, control=64, value=20, time=21)\n",
      "Message('control_change', channel=0, control=64, value=44, time=18)\n",
      "Message('control_change', channel=0, control=64, value=55, time=21)\n",
      "Message('control_change', channel=0, control=64, value=58, time=15)\n",
      "Message('note_on', channel=0, note=59, velocity=77, time=42)\n",
      "Message('note_on', channel=0, note=62, velocity=0, time=9)\n",
      "Message('note_on', channel=0, note=64, velocity=76, time=133)\n",
      "Message('note_on', channel=0, note=79, velocity=86, time=3)\n",
      "Message('note_on', channel=0, note=59, velocity=0, time=29)\n",
      "Message('note_on', channel=0, note=71, velocity=0, time=13)\n",
      "Message('note_on', channel=0, note=61, velocity=82, time=81)\n",
      "Message('note_on', channel=0, note=76, velocity=91, time=8)\n",
      "Message('note_on', channel=0, note=64, velocity=0, time=8)\n",
      "Message('note_on', channel=0, note=79, velocity=0, time=8)\n",
      "Message('note_on', channel=0, note=64, velocity=71, time=104)\n",
      "Message('note_on', channel=0, note=79, velocity=87, time=3)\n",
      "Message('note_on', channel=0, note=76, velocity=0, time=18)\n",
      "Message('note_on', channel=0, note=61, velocity=0, time=14)\n",
      "Message('note_on', channel=0, note=64, velocity=0, time=77)\n",
      "Message('note_on', channel=0, note=79, velocity=0, time=13)\n",
      "Message('control_change', channel=0, control=64, value=56, time=3)\n",
      "Message('note_on', channel=0, note=67, velocity=77, time=0)\n",
      "Message('note_on', channel=0, note=83, velocity=88, time=11)\n",
      "Message('control_change', channel=0, control=64, value=49, time=9)\n",
      "Message('control_change', channel=0, control=64, value=23, time=19)\n",
      "Message('control_change', channel=0, control=64, value=0, time=20)\n",
      "Message('note_on', channel=0, note=83, velocity=0, time=37)\n",
      "Message('control_change', channel=0, control=64, value=15, time=20)\n",
      "Message('note_on', channel=0, note=64, velocity=83, time=0)\n",
      "Message('control_change', channel=0, control=67, value=12, time=1)\n",
      "Message('note_on', channel=0, note=67, velocity=0, time=12)\n",
      "Message('control_change', channel=0, control=64, value=37, time=8)\n",
      "Message('note_on', channel=0, note=73, velocity=89, time=24)\n",
      "Message('control_change', channel=0, control=64, value=49, time=7)\n",
      "Message('control_change', channel=0, control=64, value=54, time=19)\n",
      "Message('control_change', channel=0, control=67, value=8, time=19)\n",
      "Message('note_on', channel=0, note=73, velocity=0, time=33)\n",
      "Message('control_change', channel=0, control=67, value=13, time=23)\n",
      "Message('note_on', channel=0, note=61, velocity=83, time=9)\n",
      "Message('note_on', channel=0, note=81, velocity=82, time=2)\n",
      "Message('note_on', channel=0, note=64, velocity=0, time=11)\n",
      "Message('control_change', channel=0, control=67, value=8, time=93)\n",
      "Message('note_on', channel=0, note=64, velocity=80, time=11)\n",
      "Message('note_on', channel=0, note=61, velocity=0, time=8)\n",
      "Message('note_on', channel=0, note=79, velocity=83, time=3)\n",
      "Message('note_on', channel=0, note=81, velocity=0, time=19)\n",
      "Message('control_change', channel=0, control=64, value=40, time=51)\n",
      "Message('control_change', channel=0, control=64, value=0, time=20)\n",
      "Message('note_on', channel=0, note=64, velocity=0, time=18)\n",
      "Message('note_on', channel=0, note=62, velocity=89, time=18)\n",
      "Message('note_on', channel=0, note=78, velocity=79, time=7)\n",
      "Message('note_on', channel=0, note=79, velocity=0, time=21)\n",
      "Message('control_change', channel=0, control=64, value=42, time=31)\n",
      "Message('control_change', channel=0, control=64, value=61, time=19)\n",
      "Message('control_change', channel=0, control=64, value=68, time=19)\n",
      "Message('note_on', channel=0, note=74, velocity=74, time=32)\n",
      "Message('note_on', channel=0, note=78, velocity=0, time=9)\n",
      "Message('control_change', channel=0, control=67, value=14, time=15)\n",
      "Message('control_change', channel=0, control=67, value=10, time=57)\n",
      "Message('note_on', channel=0, note=74, velocity=0, time=3)\n",
      "Message('note_on', channel=0, note=71, velocity=82, time=73)\n",
      "Message('note_on', channel=0, note=79, velocity=76, time=0)\n",
      "Message('control_change', channel=0, control=64, value=58, time=38)\n",
      "Message('control_change', channel=0, control=64, value=0, time=16)\n",
      "Message('note_on', channel=0, note=71, velocity=0, time=66)\n",
      "Message('note_on', channel=0, note=69, velocity=85, time=4)\n",
      "Message('control_change', channel=0, control=64, value=33, time=5)\n",
      "Message('note_on', channel=0, note=78, velocity=77, time=5)\n",
      "Message('control_change', channel=0, control=64, value=54, time=15)\n",
      "Message('note_on', channel=0, note=79, velocity=0, time=8)\n",
      "Message('control_change', channel=0, control=64, value=62, time=11)\n",
      "Message('note_on', channel=0, note=78, velocity=0, time=90)\n",
      "Message('note_on', channel=0, note=74, velocity=72, time=5)\n",
      "Message('control_change', channel=0, control=64, value=63, time=111)\n",
      "Message('note_on', channel=0, note=74, velocity=0, time=8)\n",
      "Message('control_change', channel=0, control=64, value=64, time=7)\n",
      "Message('note_on', channel=0, note=61, velocity=80, time=9)\n",
      "Message('note_on', channel=0, note=62, velocity=0, time=1)\n",
      "Message('note_on', channel=0, note=81, velocity=80, time=18)\n",
      "Message('control_change', channel=0, control=64, value=63, time=12)\n",
      "Message('control_change', channel=0, control=64, value=61, time=19)\n",
      "Message('control_change', channel=0, control=64, value=59, time=20)\n",
      "Message('note_on', channel=0, note=61, velocity=0, time=32)\n",
      "Message('note_on', channel=0, note=62, velocity=80, time=36)\n",
      "Message('note_on', channel=0, note=81, velocity=0, time=5)\n",
      "Message('note_on', channel=0, note=78, velocity=76, time=1)\n",
      "Message('control_change', channel=0, control=64, value=56, time=38)\n",
      "Message('control_change', channel=0, control=64, value=54, time=37)\n",
      "Message('note_on', channel=0, note=74, velocity=74, time=51)\n",
      "Message('note_on', channel=0, note=78, velocity=0, time=7)\n",
      "Message('control_change', channel=0, control=64, value=51, time=57)\n",
      "Message('control_change', channel=0, control=64, value=49, time=19)\n",
      "Message('note_on', channel=0, note=74, velocity=0, time=3)\n",
      "Message('control_change', channel=0, control=64, value=43, time=17)\n",
      "Message('control_change', channel=0, control=64, value=28, time=16)\n",
      "Message('note_on', channel=0, note=71, velocity=84, time=13)\n",
      "Message('note_on', channel=0, note=79, velocity=80, time=1)\n",
      "Message('control_change', channel=0, control=64, value=11, time=6)\n",
      "Message('note_on', channel=0, note=69, velocity=0, time=2)\n",
      "Message('control_change', channel=0, control=64, value=19, time=53)\n",
      "Message('control_change', channel=0, control=64, value=28, time=20)\n",
      "Message('note_on', channel=0, note=71, velocity=0, time=45)\n",
      "Message('note_on', channel=0, note=69, velocity=83, time=4)\n",
      "Message('note_on', channel=0, note=78, velocity=82, time=3)\n",
      "Message('control_change', channel=0, control=64, value=32, time=3)\n",
      "Message('note_on', channel=0, note=79, velocity=0, time=11)\n",
      "Message('control_change', channel=0, control=64, value=37, time=30)\n",
      "Message('control_change', channel=0, control=64, value=40, time=35)\n",
      "Message('control_change', channel=0, control=64, value=43, time=21)\n",
      "Message('note_on', channel=0, note=78, velocity=0, time=13)\n",
      "Message('control_change', channel=0, control=64, value=46, time=5)\n",
      "Message('note_on', channel=0, note=74, velocity=82, time=1)\n",
      "Message('control_change', channel=0, control=64, value=50, time=17)\n",
      "Message('control_change', channel=0, control=64, value=54, time=20)\n",
      "Message('control_change', channel=0, control=64, value=57, time=17)\n",
      "Message('note_on', channel=0, note=61, velocity=75, time=80)\n",
      "Message('note_on', channel=0, note=81, velocity=89, time=4)\n",
      "Message('note_on', channel=0, note=62, velocity=0, time=11)\n",
      "Message('note_on', channel=0, note=74, velocity=0, time=12)\n",
      "Message('note_on', channel=0, note=61, velocity=0, time=56)\n",
      "Message('control_change', channel=0, control=64, value=54, time=1)\n",
      "Message('note_on', channel=0, note=62, velocity=81, time=69)\n",
      "Message('note_on', channel=0, note=78, velocity=89, time=2)\n",
      "Message('note_on', channel=0, note=81, velocity=0, time=22)\n",
      "Message('note_on', channel=0, note=81, velocity=87, time=108)\n",
      "Message('note_on', channel=0, note=69, velocity=0, time=2)\n",
      "Message('note_on', channel=0, note=66, velocity=70, time=3)\n",
      "Message('note_on', channel=0, note=62, velocity=0, time=13)\n",
      "Message('note_on', channel=0, note=78, velocity=0, time=8)\n",
      "Message('control_change', channel=0, control=64, value=46, time=76)\n",
      "Message('control_change', channel=0, control=64, value=0, time=20)\n",
      "Message('note_on', channel=0, note=66, velocity=0, time=9)\n",
      "Message('note_on', channel=0, note=84, velocity=84, time=2)\n",
      "Message('note_on', channel=0, note=69, velocity=75, time=2)\n",
      "Message('note_on', channel=0, note=81, velocity=0, time=12)\n",
      "Message('note_on', channel=0, note=83, velocity=19, time=29)\n",
      "Message('control_change', channel=0, control=64, value=18, time=60)\n",
      "Message('note_on', channel=0, note=83, velocity=0, time=3)\n",
      "Message('note_on', channel=0, note=84, velocity=0, time=9)\n",
      "Message('control_change', channel=0, control=64, value=44, time=8)\n",
      "Message('note_on', channel=0, note=74, velocity=84, time=6)\n",
      "Message('note_on', channel=0, note=66, velocity=70, time=3)\n",
      "Message('control_change', channel=0, control=64, value=61, time=8)\n",
      "Message('note_on', channel=0, note=69, velocity=0, time=11)\n",
      "Message('control_change', channel=0, control=64, value=70, time=7)\n",
      "Message('control_change', channel=0, control=64, value=73, time=20)\n",
      "Message('note_on', channel=0, note=62, velocity=74, time=76)\n",
      "Message('note_on', channel=0, note=66, velocity=0, time=9)\n",
      "Message('note_on', channel=0, note=62, velocity=0, time=102)\n",
      "Message('control_change', channel=0, control=64, value=75, time=21)\n",
      "Message('note_on', channel=0, note=67, velocity=74, time=9)\n",
      "Message('note_on', channel=0, note=83, velocity=85, time=11)\n",
      "Message('note_on', channel=0, note=74, velocity=0, time=50)\n",
      "Message('control_change', channel=0, control=64, value=72, time=42)\n",
      "Message('control_change', channel=0, control=64, value=62, time=20)\n",
      "Message('note_on', channel=0, note=76, velocity=92, time=12)\n",
      "Message('control_change', channel=0, control=64, value=0, time=4)\n",
      "Message('note_on', channel=0, note=60, velocity=77, time=4)\n",
      "Message('note_on', channel=0, note=83, velocity=0, time=3)\n",
      "Message('note_on', channel=0, note=67, velocity=0, time=16)\n",
      "Message('control_change', channel=0, control=64, value=27, time=70)\n",
      "Message('control_change', channel=0, control=64, value=60, time=19)\n",
      "Message('control_change', channel=0, control=64, value=75, time=18)\n",
      "Message('note_on', channel=0, note=64, velocity=68, time=12)\n",
      "Message('control_change', channel=0, control=64, value=86, time=7)\n",
      "Message('note_on', channel=0, note=79, velocity=81, time=2)\n",
      "Message('note_on', channel=0, note=76, velocity=0, time=5)\n",
      "Message('note_on', channel=0, note=60, velocity=0, time=3)\n",
      "Message('control_change', channel=0, control=64, value=91, time=7)\n",
      "Message('note_on', channel=0, note=64, velocity=0, time=105)\n",
      "Message('note_on', channel=0, note=67, velocity=68, time=12)\n",
      "Message('note_on', channel=0, note=83, velocity=79, time=1)\n",
      "Message('note_on', channel=0, note=79, velocity=0, time=13)\n",
      "Message('control_change', channel=0, control=64, value=76, time=61)\n",
      "Message('control_change', channel=0, control=64, value=44, time=19)\n",
      "Message('note_on', channel=0, note=83, velocity=0, time=6)\n",
      "Message('control_change', channel=0, control=64, value=0, time=10)\n",
      "Message('note_on', channel=0, note=72, velocity=79, time=16)\n",
      "Message('note_on', channel=0, note=64, velocity=67, time=1)\n",
      "Message('note_on', channel=0, note=67, velocity=0, time=7)\n",
      "Message('control_change', channel=0, control=64, value=37, time=34)\n",
      "Message('control_change', channel=0, control=64, value=58, time=19)\n",
      "Message('control_change', channel=0, control=64, value=68, time=19)\n",
      "Message('control_change', channel=0, control=64, value=71, time=21)\n",
      "Message('note_on', channel=0, note=60, velocity=69, time=37)\n",
      "Message('note_on', channel=0, note=64, velocity=0, time=6)\n",
      "Message('note_on', channel=0, note=60, velocity=0, time=87)\n",
      "Message('control_change', channel=0, control=64, value=73, time=38)\n",
      "Message('note_on', channel=0, note=81, velocity=83, time=4)\n",
      "Message('note_on', channel=0, note=66, velocity=73, time=4)\n",
      "Message('note_on', channel=0, note=72, velocity=0, time=50)\n",
      "Message('control_change', channel=0, control=64, value=70, time=36)\n",
      "Message('control_change', channel=0, control=64, value=55, time=18)\n",
      "Message('control_change', channel=0, control=64, value=0, time=19)\n",
      "Message('note_on', channel=0, note=59, velocity=80, time=0)\n",
      "Message('note_on', channel=0, note=74, velocity=89, time=6)\n",
      "Message('note_on', channel=0, note=81, velocity=0, time=16)\n",
      "Message('note_on', channel=0, note=66, velocity=0, time=8)\n",
      "Message('control_change', channel=0, control=64, value=46, time=45)\n",
      "Message('control_change', channel=0, control=64, value=68, time=20)\n",
      "Message('control_change', channel=0, control=64, value=80, time=18)\n",
      "Message('note_on', channel=0, note=59, velocity=0, time=1)\n",
      "Message('note_on', channel=0, note=62, velocity=72, time=5)\n",
      "Message('control_change', channel=0, control=64, value=87, time=15)\n",
      "Message('note_on', channel=0, note=74, velocity=0, time=9)\n",
      "Message('note_on', channel=0, note=78, velocity=79, time=2)\n",
      "Message('note_on', channel=0, note=62, velocity=0, time=56)\n",
      "Message('note_on', channel=0, note=66, velocity=64, time=77)\n",
      "Message('note_on', channel=0, note=81, velocity=80, time=17)\n",
      "Message('note_on', channel=0, note=78, velocity=0, time=19)\n",
      "Message('control_change', channel=0, control=64, value=79, time=41)\n",
      "Message('control_change', channel=0, control=64, value=55, time=19)\n",
      "Message('note_on', channel=0, note=81, velocity=0, time=0)\n",
      "Message('control_change', channel=0, control=64, value=0, time=19)\n",
      "Message('note_on', channel=0, note=62, velocity=60, time=18)\n",
      "Message('note_on', channel=0, note=71, velocity=76, time=16)\n",
      "Message('note_on', channel=0, note=66, velocity=0, time=1)\n",
      "Message('control_change', channel=0, control=64, value=9, time=5)\n",
      "Message('control_change', channel=0, control=64, value=55, time=19)\n",
      "Message('control_change', channel=0, control=64, value=71, time=16)\n",
      "Message('control_change', channel=0, control=64, value=80, time=21)\n",
      "Message('control_change', channel=0, control=64, value=84, time=19)\n",
      "Message('note_on', channel=0, note=62, velocity=0, time=40)\n",
      "Message('note_on', channel=0, note=59, velocity=60, time=4)\n",
      "Message('control_change', channel=0, control=64, value=86, time=86)\n",
      "Message('note_on', channel=0, note=59, velocity=0, time=16)\n",
      "Message('control_change', channel=0, control=64, value=94, time=23)\n",
      "Message('note_on', channel=0, note=79, velocity=84, time=14)\n",
      "Message('control_change', channel=0, control=64, value=101, time=5)\n",
      "Message('note_on', channel=0, note=64, velocity=67, time=1)\n",
      "Message('control_change', channel=0, control=64, value=107, time=17)\n",
      "Message('note_on', channel=0, note=71, velocity=0, time=41)\n",
      "Message('control_change', channel=0, control=64, value=86, time=19)\n",
      "Message('control_change', channel=0, control=64, value=56, time=14)\n",
      "Message('control_change', channel=0, control=64, value=0, time=20)\n",
      "Message('note_on', channel=0, note=72, velocity=87, time=13)\n",
      "Message('note_on', channel=0, note=64, velocity=0, time=3)\n",
      "Message('note_on', channel=0, note=57, velocity=76, time=5)\n",
      "Message('note_on', channel=0, note=79, velocity=0, time=2)\n",
      "Message('control_change', channel=0, control=64, value=42, time=16)\n",
      "Message('control_change', channel=0, control=64, value=62, time=19)\n",
      "Message('control_change', channel=0, control=64, value=73, time=18)\n",
      "Message('control_change', channel=0, control=64, value=77, time=20)\n",
      "Message('note_on', channel=0, note=57, velocity=0, time=16)\n",
      "Message('note_on', channel=0, note=76, velocity=77, time=27)\n",
      "Message('note_on', channel=0, note=60, velocity=75, time=2)\n",
      "Message('note_on', channel=0, note=72, velocity=0, time=0)\n",
      "Message('control_change', channel=0, control=64, value=80, time=49)\n",
      "Message('note_on', channel=0, note=60, velocity=0, time=17)\n",
      "Message('control_change', channel=0, control=64, value=82, time=19)\n",
      "Message('note_on', channel=0, note=76, velocity=0, time=26)\n",
      "Message('control_change', channel=0, control=64, value=86, time=13)\n",
      "Message('note_on', channel=0, note=79, velocity=80, time=7)\n",
      "Message('note_on', channel=0, note=64, velocity=75, time=2)\n",
      "Message('control_change', channel=0, control=64, value=91, time=9)\n",
      "Message('control_change', channel=0, control=64, value=96, time=20)\n",
      "Message('control_change', channel=0, control=64, value=89, time=58)\n",
      "Message('note_on', channel=0, note=64, velocity=0, time=6)\n",
      "Message('control_change', channel=0, control=64, value=66, time=26)\n",
      "Message('note_on', channel=0, note=79, velocity=0, time=0)\n",
      "Message('note_on', channel=0, note=60, velocity=76, time=11)\n",
      "Message('control_change', channel=0, control=64, value=0, time=8)\n",
      "Message('note_on', channel=0, note=69, velocity=90, time=5)\n",
      "Message('note_on', channel=0, note=60, velocity=0, time=48)\n",
      "Message('control_change', channel=0, control=64, value=37, time=1)\n",
      "Message('control_change', channel=0, control=64, value=61, time=21)\n",
      "Message('control_change', channel=0, control=64, value=74, time=19)\n",
      "Message('note_on', channel=0, note=69, velocity=0, time=6)\n",
      "Message('control_change', channel=0, control=64, value=79, time=13)\n",
      "Message('note_on', channel=0, note=57, velocity=72, time=21)\n",
      "Message('note_on', channel=0, note=60, velocity=53, time=3)\n",
      "Message('note_on', channel=0, note=72, velocity=74, time=1)\n",
      "Message('note_on', channel=0, note=60, velocity=0, time=37)\n",
      "Message('control_change', channel=0, control=64, value=81, time=15)\n",
      "Message('control_change', channel=0, control=64, value=83, time=37)\n",
      "Message('control_change', channel=0, control=64, value=85, time=19)\n",
      "Message('note_on', channel=0, note=72, velocity=0, time=17)\n",
      "Message('control_change', channel=0, control=64, value=87, time=1)\n",
      "Message('note_on', channel=0, note=76, velocity=65, time=6)\n",
      "Message('note_on', channel=0, note=60, velocity=68, time=2)\n",
      "Message('note_on', channel=0, note=74, velocity=77, time=8)\n",
      "Message('note_on', channel=0, note=57, velocity=0, time=2)\n",
      "Message('control_change', channel=0, control=64, value=93, time=1)\n",
      "Message('control_change', channel=0, control=64, value=101, time=18)\n",
      "Message('control_change', channel=0, control=64, value=107, time=22)\n",
      "Message('control_change', channel=0, control=64, value=95, time=39)\n",
      "Message('note_on', channel=0, note=60, velocity=0, time=8)\n",
      "Message('note_on', channel=0, note=74, velocity=0, time=6)\n",
      "Message('control_change', channel=0, control=64, value=68, time=5)\n",
      "Message('note_on', channel=0, note=76, velocity=0, time=0)\n",
      "Message('note_on', channel=0, note=62, velocity=80, time=13)\n",
      "Message('note_on', channel=0, note=66, velocity=91, time=3)\n",
      "Message('control_change', channel=0, control=64, value=0, time=3)\n",
      "Message('control_change', channel=0, control=64, value=38, time=40)\n",
      "Message('control_change', channel=0, control=64, value=67, time=16)\n",
      "Message('note_on', channel=0, note=66, velocity=0, time=8)\n",
      "Message('control_change', channel=0, control=64, value=83, time=11)\n",
      "Message('control_change', channel=0, control=64, value=99, time=20)\n",
      "Message('note_on', channel=0, note=69, velocity=80, time=12)\n",
      "Message('control_change', channel=0, control=64, value=106, time=5)\n",
      "Message('note_on', channel=0, note=57, velocity=79, time=3)\n",
      "Message('note_on', channel=0, note=62, velocity=0, time=9)\n",
      "Message('note_on', channel=0, note=54, velocity=81, time=126)\n",
      "Message('note_on', channel=0, note=72, velocity=84, time=1)\n",
      "Message('note_on', channel=0, note=57, velocity=0, time=4)\n",
      "Message('control_change', channel=0, control=64, value=93, time=27)\n",
      "Message('note_on', channel=0, note=69, velocity=0, time=9)\n",
      "Message('control_change', channel=0, control=64, value=64, time=11)\n",
      "Message('control_change', channel=0, control=64, value=0, time=20)\n",
      "Message('note_on', channel=0, note=54, velocity=0, time=3)\n",
      "Message('note_on', channel=0, note=50, velocity=84, time=44)\n",
      "Message('note_on', channel=0, note=62, velocity=84, time=5)\n",
      "Message('control_change', channel=0, control=64, value=62, time=1)\n",
      "Message('control_change', channel=0, control=64, value=88, time=22)\n",
      "Message('note_on', channel=0, note=50, velocity=0, time=2)\n",
      "Message('control_change', channel=0, control=64, value=116, time=16)\n",
      "Message('control_change', channel=0, control=64, value=127, time=18)\n",
      "Message('note_on', channel=0, note=66, velocity=81, time=68)\n",
      "Message('control_change', channel=0, control=67, value=14, time=41)\n",
      "Message('note_on', channel=0, note=72, velocity=0, time=52)\n",
      "Message('note_on', channel=0, note=45, velocity=90, time=54)\n",
      "Message('note_on', channel=0, note=69, velocity=85, time=5)\n",
      "Message('control_change', channel=0, control=67, value=18, time=3)\n",
      "Message('note_on', channel=0, note=66, velocity=0, time=14)\n",
      "Message('control_change', channel=0, control=64, value=117, time=3)\n",
      "Message('control_change', channel=0, control=64, value=70, time=19)\n",
      "Message('control_change', channel=0, control=64, value=0, time=20)\n",
      "Message('note_on', channel=0, note=42, velocity=79, time=65)\n",
      "Message('note_on', channel=0, note=45, velocity=0, time=14)\n",
      "Message('note_on', channel=0, note=72, velocity=83, time=0)\n",
      "Message('control_change', channel=0, control=67, value=23, time=16)\n",
      "Message('note_on', channel=0, note=69, velocity=0, time=2)\n",
      "Message('note_on', channel=0, note=42, velocity=0, time=92)\n",
      "Message('note_on', channel=0, note=38, velocity=70, time=7)\n",
      "Message('note_on', channel=0, note=38, velocity=0, time=60)\n",
      "Message('note_on', channel=0, note=43, velocity=75, time=78)\n",
      "Message('note_on', channel=0, note=71, velocity=80, time=19)\n",
      "Message('note_on', channel=0, note=72, velocity=0, time=41)\n",
      "Message('note_on', channel=0, note=43, velocity=0, time=19)\n",
      "Message('control_change', channel=0, control=64, value=32, time=22)\n",
      "Message('control_change', channel=0, control=64, value=60, time=19)\n",
      "Message('note_on', channel=0, note=42, velocity=75, time=12)\n",
      "Message('control_change', channel=0, control=64, value=0, time=6)\n",
      "Message('note_on', channel=0, note=62, velocity=0, time=7)\n",
      "Message('note_on', channel=0, note=69, velocity=82, time=7)\n",
      "Message('note_on', channel=0, note=71, velocity=0, time=9)\n",
      "Message('note_on', channel=0, note=42, velocity=0, time=46)\n",
      "Message('note_on', channel=0, note=38, velocity=74, time=54)\n",
      "Message('note_on', channel=0, note=38, velocity=0, time=109)\n",
      "Message('note_on', channel=0, note=45, velocity=79, time=41)\n",
      "Message('note_on', channel=0, note=72, velocity=87, time=3)\n",
      "Message('note_on', channel=0, note=69, velocity=0, time=38)\n",
      "Message('note_on', channel=0, note=62, velocity=75, time=111)\n",
      "Message('note_on', channel=0, note=42, velocity=69, time=2)\n",
      "Message('note_on', channel=0, note=45, velocity=0, time=19)\n",
      "Message('note_on', channel=0, note=42, velocity=0, time=76)\n",
      "Message('note_on', channel=0, note=38, velocity=65, time=42)\n",
      "Message('note_on', channel=0, note=38, velocity=0, time=103)\n",
      "Message('note_on', channel=0, note=71, velocity=76, time=34)\n",
      "Message('note_on', channel=0, note=43, velocity=77, time=5)\n",
      "Message('control_change', channel=0, control=64, value=40, time=8)\n",
      "Message('control_change', channel=0, control=64, value=62, time=20)\n",
      "Message('note_on', channel=0, note=72, velocity=0, time=13)\n",
      "Message('note_on', channel=0, note=43, velocity=0, time=30)\n",
      "Message('note_on', channel=0, note=62, velocity=0, time=3)\n",
      "Message('control_change', channel=0, control=64, value=64, time=10)\n",
      "Message('control_change', channel=0, control=64, value=68, time=19)\n",
      "Message('control_change', channel=0, control=64, value=73, time=19)\n",
      "Message('note_on', channel=0, note=42, velocity=79, time=2)\n",
      "Message('note_on', channel=0, note=69, velocity=80, time=8)\n",
      "Message('control_change', channel=0, control=64, value=79, time=8)\n",
      "Message('note_on', channel=0, note=71, velocity=0, time=4)\n",
      "Message('control_change', channel=0, control=64, value=84, time=16)\n",
      "Message('control_change', channel=0, control=64, value=91, time=17)\n",
      "Message('control_change', channel=0, control=64, value=100, time=20)\n",
      "Message('note_on', channel=0, note=42, velocity=0, time=4)\n",
      "Message('control_change', channel=0, control=64, value=110, time=15)\n",
      "Message('control_change', channel=0, control=67, value=27, time=1)\n",
      "Message('note_on', channel=0, note=38, velocity=77, time=22)\n",
      "Message('control_change', channel=0, control=64, value=104, time=14)\n",
      "Message('control_change', channel=0, control=64, value=75, time=21)\n",
      "Message('control_change', channel=0, control=64, value=0, time=19)\n",
      "Message('control_change', channel=0, control=67, value=31, time=55)\n",
      "Message('note_on', channel=0, note=38, velocity=0, time=23)\n",
      "Message('note_on', channel=0, note=45, velocity=82, time=13)\n",
      "Message('note_on', channel=0, note=72, velocity=89, time=1)\n",
      "Message('note_on', channel=0, note=69, velocity=0, time=35)\n",
      "Message('control_change', channel=0, control=67, value=36, time=22)\n",
      "Message('note_on', channel=0, note=42, velocity=72, time=75)\n",
      "Message('note_on', channel=0, note=45, velocity=0, time=2)\n",
      "Message('note_on', channel=0, note=62, velocity=73, time=2)\n",
      "Message('control_change', channel=0, control=67, value=41, time=88)\n",
      "Message('note_on', channel=0, note=62, velocity=0, time=8)\n",
      "Message('note_on', channel=0, note=45, velocity=73, time=34)\n",
      "Message('note_on', channel=0, note=66, velocity=69, time=8)\n",
      "Message('note_on', channel=0, note=42, velocity=0, time=10)\n",
      "Message('note_on', channel=0, note=45, velocity=0, time=45)\n",
      "Message('control_change', channel=0, control=67, value=45, time=5)\n",
      "Message('note_on', channel=0, note=66, velocity=0, time=36)\n",
      "Message('note_on', channel=0, note=48, velocity=70, time=25)\n",
      "Message('note_on', channel=0, note=69, velocity=75, time=9)\n",
      "Message('note_on', channel=0, note=48, velocity=0, time=51)\n",
      "Message('note_on', channel=0, note=69, velocity=0, time=37)\n",
      "Message('control_change', channel=0, control=64, value=28, time=14)\n",
      "Message('control_change', channel=0, control=64, value=70, time=20)\n",
      "Message('note_on', channel=0, note=38, velocity=83, time=3)\n",
      "Message('note_on', channel=0, note=66, velocity=77, time=8)\n",
      "Message('control_change', channel=0, control=64, value=80, time=8)\n",
      "Message('note_on', channel=0, note=72, velocity=0, time=2)\n",
      "Message('note_on', channel=0, note=38, velocity=0, time=16)\n",
      "Message('control_change', channel=0, control=64, value=87, time=1)\n",
      "Message('control_change', channel=0, control=67, value=52, time=3)\n",
      "Message('note_on', channel=0, note=66, velocity=0, time=4)\n",
      "Message('control_change', channel=0, control=64, value=92, time=10)\n",
      "Message('control_change', channel=0, control=67, value=58, time=2)\n",
      "Message('control_change', channel=0, control=64, value=99, time=16)\n",
      "Message('control_change', channel=0, control=64, value=106, time=20)\n",
      "Message('control_change', channel=0, control=67, value=62, time=2)\n",
      "Message('control_change', channel=0, control=64, value=112, time=17)\n",
      "Message('note_on', channel=0, note=69, velocity=82, time=13)\n",
      "Message('note_on', channel=0, note=69, velocity=0, time=108)\n",
      "Message('note_on', channel=0, note=47, velocity=82, time=26)\n",
      "Message('note_on', channel=0, note=74, velocity=87, time=2)\n",
      "Message('control_change', channel=0, control=64, value=95, time=2)\n",
      "Message('control_change', channel=0, control=64, value=64, time=21)\n",
      "Message('control_change', channel=0, control=64, value=0, time=17)\n",
      "Message('note_on', channel=0, note=47, velocity=0, time=47)\n",
      "Message('control_change', channel=0, control=64, value=20, time=29)\n",
      "Message('note_on', channel=0, note=43, velocity=71, time=8)\n",
      "Message('note_on', channel=0, note=64, velocity=76, time=6)\n",
      "Message('note_on', channel=0, note=64, velocity=0, time=59)\n",
      "Message('note_on', channel=0, note=43, velocity=0, time=8)\n",
      "Message('control_change', channel=0, control=64, value=25, time=12)\n",
      "Message('control_change', channel=0, control=64, value=31, time=20)\n",
      "Message('note_on', channel=0, note=47, velocity=70, time=21)\n",
      "Message('note_on', channel=0, note=67, velocity=74, time=9)\n",
      "Message('note_on', channel=0, note=47, velocity=0, time=35)\n",
      "Message('note_on', channel=0, note=67, velocity=0, time=14)\n",
      "Message('control_change', channel=0, control=64, value=20, time=69)\n",
      "Message('note_on', channel=0, note=50, velocity=72, time=14)\n",
      "Message('control_change', channel=0, control=64, value=0, time=4)\n",
      "Message('note_on', channel=0, note=71, velocity=76, time=6)\n",
      "Message('note_on', channel=0, note=50, velocity=0, time=36)\n",
      "Message('note_on', channel=0, note=71, velocity=0, time=23)\n",
      "Message('note_on', channel=0, note=74, velocity=0, time=36)\n",
      "Message('note_on', channel=0, note=40, velocity=87, time=22)\n",
      "Message('note_on', channel=0, note=67, velocity=83, time=10)\n",
      "Message('control_change', channel=0, control=64, value=60, time=17)\n",
      "Message('note_on', channel=0, note=40, velocity=0, time=7)\n",
      "Message('control_change', channel=0, control=64, value=87, time=12)\n",
      "Message('control_change', channel=0, control=64, value=109, time=19)\n",
      "Message('control_change', channel=0, control=64, value=125, time=19)\n",
      "Message('note_on', channel=0, note=67, velocity=0, time=9)\n",
      "Message('control_change', channel=0, control=67, value=67, time=12)\n",
      "Message('note_on', channel=0, note=71, velocity=73, time=47)\n",
      "Message('note_on', channel=0, note=72, velocity=76, time=1)\n",
      "Message('note_on', channel=0, note=72, velocity=0, time=61)\n",
      "Message('note_on', channel=0, note=71, velocity=0, time=20)\n",
      "Message('note_on', channel=0, note=76, velocity=85, time=27)\n",
      "Message('note_on', channel=0, note=48, velocity=86, time=10)\n",
      "Message('control_change', channel=0, control=64, value=102, time=22)\n",
      "Message('control_change', channel=0, control=64, value=68, time=18)\n",
      "Message('control_change', channel=0, control=64, value=0, time=19)\n",
      "Message('note_on', channel=0, note=48, velocity=0, time=18)\n",
      "Message('note_on', channel=0, note=66, velocity=87, time=52)\n",
      "Message('note_on', channel=0, note=45, velocity=75, time=2)\n",
      "Message('note_on', channel=0, note=45, velocity=0, time=54)\n",
      "Message('note_on', channel=0, note=66, velocity=0, time=4)\n",
      "Message('control_change', channel=0, control=67, value=71, time=21)\n",
      "Message('note_on', channel=0, note=48, velocity=79, time=40)\n",
      "Message('note_on', channel=0, note=69, velocity=76, time=15)\n",
      "Message('note_on', channel=0, note=48, velocity=0, time=36)\n",
      "Message('note_on', channel=0, note=69, velocity=0, time=48)\n",
      "Message('note_on', channel=0, note=52, velocity=78, time=25)\n",
      "Message('note_on', channel=0, note=72, velocity=80, time=8)\n",
      "Message('note_on', channel=0, note=52, velocity=0, time=37)\n",
      "Message('note_on', channel=0, note=72, velocity=0, time=50)\n",
      "Message('control_change', channel=0, control=67, value=75, time=26)\n",
      "Message('note_on', channel=0, note=76, velocity=0, time=0)\n",
      "Message('note_on', channel=0, note=42, velocity=87, time=8)\n",
      "Message('note_on', channel=0, note=69, velocity=85, time=30)\n",
      "Message('note_on', channel=0, note=42, velocity=0, time=29)\n",
      "Message('control_change', channel=0, control=64, value=71, time=23)\n",
      "Message('control_change', channel=0, control=64, value=88, time=17)\n",
      "Message('control_change', channel=0, control=64, value=101, time=19)\n",
      "Message('note_on', channel=0, note=50, velocity=84, time=24)\n",
      "Message('note_on', channel=0, note=72, velocity=85, time=8)\n",
      "Message('note_on', channel=0, note=50, velocity=0, time=37)\n",
      "Message('note_on', channel=0, note=48, velocity=85, time=75)\n",
      "Message('note_on', channel=0, note=78, velocity=83, time=12)\n",
      "Message('note_on', channel=0, note=72, velocity=0, time=14)\n",
      "Message('note_on', channel=0, note=48, velocity=0, time=4)\n",
      "Message('note_on', channel=0, note=75, velocity=40, time=21)\n",
      "Message('control_change', channel=0, control=64, value=82, time=32)\n",
      "Message('note_on', channel=0, note=75, velocity=0, time=5)\n",
      "Message('control_change', channel=0, control=64, value=0, time=15)\n",
      "Message('note_on', channel=0, note=69, velocity=0, time=1)\n",
      "Message('note_on', channel=0, note=78, velocity=0, time=9)\n",
      "Message('control_change', channel=0, control=67, value=79, time=7)\n",
      "Message('note_on', channel=0, note=79, velocity=88, time=29)\n",
      "Message('note_on', channel=0, note=47, velocity=68, time=6)\n",
      "Message('note_on', channel=0, note=69, velocity=32, time=16)\n",
      "Message('control_change', channel=0, control=64, value=46, time=4)\n",
      "Message('note_on', channel=0, note=48, velocity=64, time=1)\n",
      "Message('control_change', channel=0, control=64, value=71, time=19)\n",
      "Message('note_on', channel=0, note=69, velocity=0, time=14)\n",
      "Message('control_change', channel=0, control=64, value=86, time=4)\n",
      "Message('control_change', channel=0, control=64, value=96, time=22)\n",
      "Message('control_change', channel=0, control=64, value=91, time=39)\n",
      "Message('note_on', channel=0, note=50, velocity=72, time=9)\n",
      "Message('note_on', channel=0, note=74, velocity=81, time=3)\n",
      "Message('note_on', channel=0, note=47, velocity=0, time=3)\n",
      "Message('note_on', channel=0, note=79, velocity=0, time=40)\n",
      "Message('note_on', channel=0, note=48, velocity=0, time=25)\n",
      "Message('note_on', channel=0, note=74, velocity=0, time=30)\n",
      "Message('control_change', channel=0, control=67, value=84, time=1)\n",
      "Message('note_on', channel=0, note=71, velocity=82, time=19)\n",
      "Message('note_on', channel=0, note=50, velocity=0, time=19)\n",
      "Message('note_on', channel=0, note=55, velocity=66, time=1)\n",
      "Message('note_on', channel=0, note=57, velocity=31, time=35)\n",
      "Message('control_change', channel=0, control=64, value=83, time=1)\n",
      "Message('control_change', channel=0, control=64, value=61, time=20)\n",
      "Message('control_change', channel=0, control=64, value=0, time=17)\n",
      "Message('note_on', channel=0, note=55, velocity=0, time=0)\n",
      "Message('note_on', channel=0, note=57, velocity=0, time=3)\n",
      "Message('note_on', channel=0, note=71, velocity=0, time=2)\n",
      "Message('control_change', channel=0, control=64, value=11, time=35)\n",
      "Message('note_on', channel=0, note=59, velocity=82, time=8)\n",
      "Message('note_on', channel=0, note=67, velocity=78, time=2)\n",
      "Message('control_change', channel=0, control=64, value=58, time=8)\n",
      "Message('note_on', channel=0, note=69, velocity=57, time=15)\n",
      "Message('control_change', channel=0, control=64, value=74, time=2)\n",
      "Message('control_change', channel=0, control=64, value=84, time=21)\n",
      "Message('note_on', channel=0, note=69, velocity=0, time=10)\n",
      "Message('note_on', channel=0, note=59, velocity=0, time=6)\n",
      "Message('note_on', channel=0, note=67, velocity=0, time=8)\n",
      "Message('control_change', channel=0, control=64, value=77, time=15)\n",
      "Message('control_change', channel=0, control=64, value=72, time=18)\n",
      "Message('note_on', channel=0, note=55, velocity=77, time=24)\n",
      "Message('note_on', channel=0, note=77, velocity=87, time=1)\n",
      "Message('control_change', channel=0, control=64, value=76, time=14)\n",
      "Message('control_change', channel=0, control=64, value=78, time=33)\n",
      "Message('note_on', channel=0, note=77, velocity=0, time=65)\n",
      "Message('note_on', channel=0, note=59, velocity=78, time=18)\n",
      "Message('control_change', channel=0, control=64, value=80, time=9)\n",
      "Message('note_on', channel=0, note=55, velocity=0, time=0)\n",
      "Message('note_on', channel=0, note=74, velocity=83, time=6)\n",
      "Message('control_change', channel=0, control=64, value=77, time=34)\n",
      "Message('control_change', channel=0, control=64, value=57, time=19)\n",
      "Message('note_on', channel=0, note=59, velocity=0, time=12)\n",
      "Message('control_change', channel=0, control=64, value=0, time=3)\n",
      "Message('note_on', channel=0, note=74, velocity=0, time=20)\n",
      "Message('note_on', channel=0, note=76, velocity=70, time=30)\n",
      "Message('note_on', channel=0, note=60, velocity=78, time=4)\n",
      "Message('control_change', channel=0, control=64, value=22, time=4)\n",
      "Message('control_change', channel=0, control=67, value=89, time=1)\n",
      "Message('control_change', channel=0, control=64, value=60, time=20)\n",
      "Message('control_change', channel=0, control=64, value=75, time=20)\n",
      "Message('control_change', channel=0, control=64, value=83, time=18)\n",
      "Message('control_change', channel=0, control=64, value=85, time=57)\n",
      "Message('note_on', channel=0, note=57, velocity=72, time=6)\n",
      "Message('note_on', channel=0, note=60, velocity=0, time=9)\n",
      "Message('note_on', channel=0, note=72, velocity=77, time=18)\n",
      "Message('control_change', channel=0, control=67, value=93, time=4)\n",
      "Message('control_change', channel=0, control=64, value=80, time=37)\n",
      "Message('control_change', channel=0, control=64, value=69, time=19)\n",
      "Message('note_on', channel=0, note=76, velocity=0, time=4)\n",
      "Message('control_change', channel=0, control=64, value=61, time=14)\n",
      "Message('control_change', channel=0, control=64, value=62, time=20)\n",
      "Message('note_on', channel=0, note=54, velocity=72, time=13)\n",
      "Message('control_change', channel=0, control=64, value=61, time=6)\n",
      "Message('note_on', channel=0, note=69, velocity=80, time=6)\n",
      "Message('note_on', channel=0, note=57, velocity=0, time=8)\n",
      "Message('control_change', channel=0, control=64, value=41, time=6)\n",
      "Message('note_on', channel=0, note=72, velocity=0, time=15)\n",
      "Message('control_change', channel=0, control=64, value=0, time=3)\n",
      "Message('note_on', channel=0, note=69, velocity=0, time=38)\n",
      "Message('control_change', channel=0, control=64, value=50, time=18)\n",
      "Message('note_on', channel=0, note=54, velocity=0, time=11)\n",
      "Message('control_change', channel=0, control=64, value=77, time=7)\n",
      "Message('note_on', channel=0, note=50, velocity=76, time=8)\n",
      "Message('control_change', channel=0, control=64, value=99, time=13)\n",
      "Message('note_on', channel=0, note=66, velocity=86, time=1)\n",
      "Message('control_change', channel=0, control=64, value=123, time=16)\n",
      "Message('control_change', channel=0, control=67, value=102, time=3)\n",
      "Message('control_change', channel=0, control=64, value=127, time=15)\n",
      "Message('control_change', channel=0, control=67, value=108, time=2)\n",
      "Message('note_on', channel=0, note=66, velocity=0, time=3)\n",
      "Message('note_on', channel=0, note=54, velocity=70, time=120)\n",
      "Message('note_on', channel=0, note=69, velocity=84, time=0)\n",
      "Message('note_on', channel=0, note=50, velocity=0, time=2)\n",
      "Message('note_on', channel=0, note=71, velocity=83, time=37)\n",
      "Message('note_on', channel=0, note=69, velocity=0, time=19)\n",
      "Message('control_change', channel=0, control=64, value=95, time=26)\n",
      "Message('control_change', channel=0, control=64, value=0, time=17)\n",
      "Message('note_on', channel=0, note=72, velocity=90, time=9)\n",
      "Message('note_on', channel=0, note=57, velocity=73, time=8)\n",
      "Message('note_on', channel=0, note=54, velocity=0, time=17)\n",
      "Message('note_on', channel=0, note=71, velocity=0, time=9)\n",
      "Message('note_on', channel=0, note=71, velocity=87, time=140)\n",
      "Message('note_on', channel=0, note=57, velocity=0, time=7)\n",
      "Message('note_on', channel=0, note=55, velocity=69, time=5)\n",
      "Message('note_on', channel=0, note=72, velocity=0, time=5)\n",
      "Message('control_change', channel=0, control=64, value=35, time=5)\n",
      "Message('control_change', channel=0, control=64, value=78, time=20)\n",
      "Message('control_change', channel=0, control=64, value=96, time=18)\n",
      "Message('control_change', channel=0, control=64, value=103, time=19)\n",
      "Message('control_change', channel=0, control=64, value=98, time=19)\n",
      "Message('control_change', channel=0, control=64, value=90, time=19)\n",
      "Message('control_change', channel=0, control=64, value=81, time=19)\n",
      "Message('note_on', channel=0, note=69, velocity=73, time=33)\n",
      "Message('control_change', channel=0, control=64, value=83, time=27)\n",
      "Message('note_on', channel=0, note=71, velocity=0, time=6)\n",
      "Message('control_change', channel=0, control=67, value=104, time=28)\n",
      "Message('note_on', channel=0, note=69, velocity=0, time=11)\n",
      "Message('control_change', channel=0, control=64, value=86, time=45)\n",
      "Message('note_on', channel=0, note=48, velocity=57, time=33)\n",
      "Message('note_on', channel=0, note=64, velocity=81, time=4)\n",
      "Message('note_on', channel=0, note=55, velocity=0, time=2)\n",
      "Message('note_on', channel=0, note=67, velocity=80, time=5)\n",
      "Message('note_on', channel=0, note=50, velocity=64, time=6)\n",
      "Message('control_change', channel=0, control=64, value=79, time=7)\n",
      "Message('control_change', channel=0, control=67, value=100, time=2)\n",
      "Message('control_change', channel=0, control=64, value=41, time=18)\n",
      "Message('control_change', channel=0, control=67, value=92, time=1)\n",
      "Message('note_on', channel=0, note=67, velocity=0, time=0)\n",
      "Message('control_change', channel=0, control=64, value=0, time=18)\n",
      "Message('note_on', channel=0, note=64, velocity=0, time=3)\n",
      "Message('control_change', channel=0, control=67, value=88, time=54)\n",
      "Message('note_on', channel=0, note=50, velocity=0, time=15)\n",
      "Message('note_on', channel=0, note=50, velocity=37, time=0)\n",
      "Message('control_change', channel=0, control=67, value=80, time=3)\n",
      "Message('note_on', channel=0, note=67, velocity=86, time=17)\n",
      "Message('note_on', channel=0, note=48, velocity=0, time=1)\n",
      "Message('control_change', channel=0, control=67, value=59, time=1)\n",
      "Message('note_on', channel=0, note=62, velocity=82, time=1)\n",
      "Message('control_change', channel=0, control=67, value=28, time=17)\n",
      "Message('control_change', channel=0, control=67, value=0, time=37)\n",
      "Message('note_on', channel=0, note=62, velocity=0, time=73)\n",
      "Message('note_on', channel=0, note=69, velocity=80, time=31)\n",
      "Message('note_on', channel=0, note=67, velocity=0, time=1)\n",
      "Message('note_on', channel=0, note=38, velocity=74, time=165)\n",
      "Message('note_on', channel=0, note=66, velocity=85, time=6)\n",
      "Message('note_on', channel=0, note=60, velocity=79, time=1)\n",
      "Message('note_on', channel=0, note=69, velocity=0, time=7)\n",
      "Message('note_on', channel=0, note=38, velocity=0, time=58)\n",
      "Message('note_on', channel=0, note=43, velocity=81, time=151)\n",
      "Message('note_on', channel=0, note=66, velocity=0, time=8)\n",
      "Message('note_on', channel=0, note=67, velocity=79, time=11)\n",
      "Message('note_on', channel=0, note=50, velocity=0, time=4)\n",
      "Message('note_on', channel=0, note=47, velocity=76, time=196)\n",
      "Message('note_on', channel=0, note=62, velocity=76, time=8)\n",
      "Message('note_on', channel=0, note=60, velocity=0, time=26)\n",
      "Message('note_on', channel=0, note=47, velocity=0, time=17)\n",
      "Message('note_on', channel=0, note=50, velocity=73, time=248)\n",
      "Message('note_on', channel=0, note=59, velocity=68, time=0)\n",
      "Message('note_on', channel=0, note=50, velocity=0, time=36)\n",
      "Message('note_on', channel=0, note=55, velocity=71, time=428)\n",
      "Message('control_change', channel=0, control=64, value=23, time=258)\n",
      "Message('control_change', channel=0, control=64, value=40, time=18)\n",
      "Message('control_change', channel=0, control=64, value=52, time=22)\n",
      "Message('control_change', channel=0, control=64, value=58, time=17)\n",
      "Message('control_change', channel=0, control=64, value=61, time=19)\n",
      "Message('control_change', channel=0, control=64, value=62, time=19)\n",
      "Message('control_change', channel=0, control=64, value=64, time=37)\n",
      "Message('control_change', channel=0, control=64, value=66, time=20)\n",
      "Message('control_change', channel=0, control=64, value=68, time=18)\n",
      "Message('control_change', channel=0, control=64, value=70, time=18)\n",
      "Message('control_change', channel=0, control=64, value=72, time=19)\n",
      "Message('control_change', channel=0, control=64, value=74, time=38)\n",
      "Message('control_change', channel=0, control=64, value=78, time=39)\n",
      "Message('control_change', channel=0, control=64, value=82, time=20)\n",
      "Message('control_change', channel=0, control=64, value=86, time=18)\n",
      "Message('control_change', channel=0, control=64, value=91, time=17)\n",
      "Message('control_change', channel=0, control=64, value=96, time=20)\n",
      "Message('control_change', channel=0, control=64, value=100, time=18)\n",
      "Message('control_change', channel=0, control=64, value=106, time=36)\n",
      "Message('control_change', channel=0, control=64, value=110, time=39)\n",
      "Message('control_change', channel=0, control=64, value=114, time=38)\n",
      "Message('control_change', channel=0, control=64, value=118, time=55)\n",
      "Message('control_change', channel=0, control=64, value=123, time=55)\n",
      "Message('control_change', channel=0, control=64, value=127, time=39)\n",
      "Message('note_on', channel=0, note=43, velocity=0, time=1030)\n",
      "Message('note_on', channel=0, note=55, velocity=0, time=101)\n",
      "Message('note_on', channel=0, note=67, velocity=0, time=28)\n",
      "Message('note_on', channel=0, note=59, velocity=0, time=15)\n",
      "Message('note_on', channel=0, note=62, velocity=0, time=46)\n",
      "Message('control_change', channel=0, control=64, value=120, time=247)\n",
      "Message('control_change', channel=0, control=64, value=107, time=19)\n",
      "Message('control_change', channel=0, control=64, value=91, time=19)\n",
      "Message('control_change', channel=0, control=64, value=76, time=21)\n",
      "Message('control_change', channel=0, control=64, value=66, time=18)\n",
      "Message('control_change', channel=0, control=64, value=63, time=19)\n",
      "Message('control_change', channel=0, control=64, value=62, time=54)\n",
      "Message('control_change', channel=0, control=64, value=61, time=21)\n",
      "Message('control_change', channel=0, control=64, value=60, time=18)\n",
      "Message('control_change', channel=0, control=64, value=56, time=57)\n",
      "Message('control_change', channel=0, control=64, value=51, time=18)\n",
      "Message('control_change', channel=0, control=64, value=49, time=20)\n",
      "Message('control_change', channel=0, control=64, value=44, time=91)\n",
      "Message('control_change', channel=0, control=64, value=40, time=20)\n",
      "Message('control_change', channel=0, control=64, value=36, time=92)\n",
      "MetaMessage('end_of_track', time=1)\n"
     ]
    }
   ],
   "source": [
    "midi_path = \"/media/nova/Datasets/maestro/midi/2004/MIDI-Unprocessed_SMF_02_R1_2004_01-05_ORIG_MID--AUDIO_02_R1_2004_05_Track05_wav.midi\"\n",
    "mido.MidiFile(midi_path).print_tracks()"
   ]
  },
  {
   "cell_type": "code",
   "execution_count": 3,
   "metadata": {},
   "outputs": [
    {
     "data": {
      "text/html": [
       "<iframe srcdoc=\"&lt;script src=&quot;https://cdn.jsdelivr.net/combine/npm/tone@14.7.58,npm/@magenta/music@1.23.1/es6/core.js,npm/focus-visible@5,npm/html-midi-player@1.5.0&quot;&gt;&lt;/script&gt;\n",
       "\n",
       "&lt;style&gt;\n",
       "/* Custom player style */\n",
       "p { \n",
       "  margin:0; \n",
       "  color: #c4c4c4; /* mid-lightness text color for title, intended for dark backgrounds */\n",
       "}\n",
       "\n",
       "#section489 midi-player {\n",
       "  display: block;\n",
       "  width: inherit;\n",
       "  margin: 4px;\n",
       "  margin-bottom: 0;\n",
       "  color: #d4d4d4; /* Lighter text color for better readability */\n",
       "}\n",
       "#section489 midi-player::part(control-panel) {\n",
       "  background: #222; /* Dark background */\n",
       "  border: 2px solid #888; /* Lightened border color for contrast */\n",
       "  border-radius: 10px 10px 0 0;\n",
       "}\n",
       "#section489 midi-player::part(play-button) {\n",
       "  color: #ffffff; /* White text for visibility */\n",
       "  border: 2px solid currentColor;\n",
       "  background-color: #6c7a89; \n",
       "  border-radius: 20px;\n",
       "  transition: all 0.2s;\n",
       "  content: &#x27;hello&#x27;;\n",
       "}\n",
       "#section489 midi-player::part(play-button):hover {\n",
       "  color: #00a; \n",
       "  background-color: #9fafc9; \n",
       "  border-radius: 10px;\n",
       "}\n",
       "#section489 midi-player::part(time) {\n",
       "  font-family: monospace; /* Monospace font for time */\n",
       "}\n",
       "\n",
       "/* Custom visualizer style */\n",
       "#section489 midi-visualizer .piano-roll-visualizer {\n",
       "  background: #333; /* Dark background for visualizer */\n",
       "  border: 2px solid #505050; /* Dark border for subtle appearance */\n",
       "  border-top: none;\n",
       "  border-radius: 0 0 10px 10px;\n",
       "  margin: 4px;\n",
       "  width: inherit;\n",
       "  margin-top: 0;\n",
       "  overflow: auto;\n",
       "}\n",
       "#section489 midi-visualizer svg rect.note {\n",
       "  opacity: 0.9; \n",
       "  stroke-width: 1; /* Stroke width for note clarity */\n",
       "}\n",
       "\n",
       "/* Different instrument colors */\n",
       "#section489 midi-visualizer svg rect.note[data-instrument=&quot;0&quot;]{\n",
       "  fill: #7aa6ed; /*  blue for Instrument 0 */\n",
       "  stroke: #444; \n",
       "}\n",
       "#section489 midi-visualizer svg rect.note[data-instrument=&quot;2&quot;]{\n",
       "  fill: #d586d0; /* purple for Instrument 2 for consistency */\n",
       "  stroke: #444; /* White stroke for visibility */\n",
       "}\n",
       "#section489 midi-visualizer svg rect.note[data-is-drum=&quot;true&quot;]{\n",
       "  fill: brightorange; \n",
       "  stroke: #bbb;\n",
       "}\n",
       "#section489 midi-visualizer svg rect.note.active {\n",
       "  opacity: 0.9; /* Highlight active notes */\n",
       "  stroke: #ddd; /* White stroke for maximum contrast */\n",
       "  stroke-width: 2; /* Thicker stroke for active notes */\n",
       "}\n",
       "&lt;/style&gt;\n",
       "\n",
       "          &lt;section id=&quot;section489&quot;&gt;&lt;p style=&quot;text-align:left;font-family:Arial;&quot;&gt;&amp;nbsp;&lt;span style=&quot;float:right;&quot;&gt;&lt;a href=&quot;data:audio/midi;base64,TVRoZAAAAAYAAQACAeBNVHJrAAAAEwD/UQMHoSAA/1gEBAIYCAH/LwBNVHJrAAGGcQDAAACwQG4AQ3WDakByXkB2S0N5ggZAeoEAkEc8JbBDdTdDcQGQRwApsEBvE0BdEUBMCZA3LAlHNgGwQEEBQ2wTQDwmQEIBQ2cTQEwTQFkSQGcSQHETQHgPkDs3BbBAfQFDYxqQNwAvsENeUpA7AAI+NDGwQ1pCkD4AIEhMB0cACUM4GEgAgRU5PQBKRA2wQGMDkEMADrBAQRFAAAWQSE06SgAASjMISAApSDwWQzkKSgBeQwAuQjqBLkIACkgAAzkAAEdEIkAjHkcAAUgvUEgABUpEIDsyMUAAdz4/gTlCPyA+AIEDQzoWQgB/sEAtDpA7AAawQEISQE4DkEoABUdCDbBAWhJAZxNAchJAeTlAfRKQRwARSk6BGLBAbhSQTk0BsEBXBpBKAAE7OguwQDsTQAAoQCMSQDgTQEMhQEoNkDsABbBAUBRAVQCQT0kUsEBbDJBOAASwQGEUQGUTQGlgQGMCkExMCTw2BrBAUAuQTwAJsEAyEkAAOEApFEA7EkBFB5A8AAlMAAKwQEsEkE9ED7BATSdAURJAUxRAViVAWyKQSkYCsEBVAJBPAAM7OxOwQEQRQABNQC4UQD4RQEYEkEoADE8/A7BASQWQOwCBALBAQxNAMBNAAA+QSEYETwAVOS+BDkgACkdIWLBDVlWQRwANSEkGQj0cOQAUQwBsUUkKSACBHUIAEkhGATdDAVEAgRtIAA1HRoE2RwAGRUIKOz4tOwBhRQAKQ0CBMDcAB0dFEj45BEMAgSE2OUE+AGY2AAJDQAE0Mx9DAFM0ABoyPoFNRwACMgABMToMQECBKExFOkAAb0wAA0VGBDRCLjQAekUAEUxCgSQ5MwpDPwtMAB4xAHRDABFCQYElQgAEMTwIQ0VgMQBBTEcDQwCBNkNDAkwAATJAgRtCRgJDAIFGQEQINjsVOQASQgBCNgAzPkUAQACBO0BGCDIAATk7Hz4AeUJJJUAAgQ9DSQIwPCJCADawQCoRQDwTQEQAkDAAN0JMJ0MAgQdCABYvNwEyOgBDRxywQEIRQD8AkDkAFbBAOxFANhVAMBJAKhNAHBNAAAKQQwAGRUmBK0NKDzdAA0UAMbBAMAaQLwAPsEBED0BQE0BdFEBsE0B3BpBFTAuwQH0AkEMAKkUAeEdFEC0+DbBAYgGQMgASsEA4AJBFSwhHAAmwQAA3kEUAAkc4OEU9H0cAgR02NwI3AIEoQ0EJRQBAQwANRUE8RQAVNgAIR0EFLQADNzOBMSs4gR8vOBArAAM3AIEvMjIILwCBCDIAHDc2H0cAgRVHSoEgRwARTEIHOTAuOx4uOwAxS1IDOQADOzUETAASNwAvsENSXENOF5A8RAFLAAY7AANMUyuwQDgBQ0oSQEYTQE8TQFgCQ0YPQGAGkDwADLBAZg6QTAAGsEBsAUNBBpBOUAywQHABQz0TQHQDQzkkQzU3QHkmQH8IkDdGAkBFAUxQBU4AKbBAcBJAXxRAUyRAVRuQTAAMsEMxAZBOTIEVsEBeDZBOAAewQGUIkE9OGzcAArBAVgWQOT4QsEAuE0AAApBPAAdOQi9PSAdOAC1OQANPAIEvOQAOQAAOOywOPzEEsEAXFEA3FEBDEUBIFUBKJ0BNEUBPDJBOAAewQFEWkExCSLBATgOQTkYITAAJsEBLEkBGCJA/AAQ7AAiwQEENkE4AAkA0A7BAPA2QT0sGsEA4JkA2OEA0JkAyKJA7NV2wQDA2kDsAFjcwgSI3ABA7NVKwQC4SQCsSQB0TQAAukDsACTQ6PbBAIhBANBVAPBFAPxVAQR+QTkcnNAADsEBCDpBPAApAAA+wQEM5QEUlQEIHkDc6AkxKAk4AB7BANhVAAEtAJBJANBRAOBSQTAAISkoMNwAPsEA8FEA+E0BBEkBCE0BEWkA+CJBJTAZKAAWwQCsBkDk5FLBAAIESkExEC0kAgS07OQJHPAVMAFY7AFZMPyJHAHZMAB09PQVFRTE5AAmwQCoTQD0TQEcTQE0SQFISQFUQkE9JBLBAVzZAXAFDLSZAYEtAWwFDJw6QOUEDsEBSAJBOTxOwQEgCQyIAkE8AB0UACbBAQidDHSZDGT2QTE8oTgAMsEMUNJA5ACmwQEEDQxARQDcVQAAJkD42Aj0AAk5NFTIkAUwAgRJRRR9OAIEIUQANMgAETD4CNDpHNAB5UTcNTACBGlEAEzYuAEo6fTYAIEhFF0oAgSBHSQwyOxdIAC2wQA0SQBwSQCIBkDIAErBAJhNAKBRALAWQRUkMsEAwApBHABOwQDQTQDcjQDooQDwhQD0mQDsKkDc5AEUAA0dEBLBAKhZAAIESkEo6AkcAgStFQgRKAAc8ODI+AGJFAApKPwY8AIEnSgAJQ0EMOzSBBTsAE0MAAkpCIbBACR9AEBVAFxJAHTpACRJAABmQQkEASgAKOT0WsEANEkA2FUBHEUBSFUBXPJA3AAA5AAJKRFRCAFRKAA+wQFIIkDc+A0BHCLBARRNAKxFAAHqQSkiBCUAALElKCDRHGEoAgQQ3ABdHSyFJAIEdLUYGSUojRwAfsEAdEkAwEkA5EkA8FUA9EkA+BpBMTQ6wQD8EkEkAD7BAQSZAQkqQTAAVsEA/D5BFTgOwQDAKkC0ABzFHA7BAAIEHkDQADk9OAbBAJBNALxJAMjhANEdALxNAABCQTk8DMk4LMQAMTwAkRQBwTEwcTgCBD05LCCtDMLBANAGQTAASsEA9EkBDFUBJEkBOAUMUEkBSDJArAANKSgKwQFUBkDIABjRKEk4AIbBAWV2QSgATsEBeDJBJRhE2TQQtRBZJAAKwQEsAkDQAC0pCB7BAGRRAACSQSgADsEMYB5BJPR2wQx0YkEo+PUoAebBDIWqQNz0hLQAUNgAcsEAXE0AwFEA+E0BHEEBMFUBQEkBUE5BKQwGwQFkQQGAVQGcTQGwCkEkAOkoAfTcAFrBAYwmQNjICSj0GMi8DsEBbEUBQFkBFEUA+E0A9J0A8JUA6P5A+Og02AIEFMgAPPgAJNC4BNzaBEjcAHD46KrBAOG9ANg6QPgAFsEMdBZA5NQU2L0I0AGFOSwI5AAM+ORE2ADKwQDQNkEoABrBAMRRAKRNAGhNAEhyQNjoAUVEJsEAZBZAyMQE+AA6wQCgEkE4ADrBANBNAOyBAPhZAQBBAQRVAQhiQVFABMgAOPj4HNgAGUQAEsEBDgQNAQhRAQRNAPQCQNzsNPgACU0sEsEA3BJBUAA6wQC8UQCQTQBAUQABxkD4xgQo3ABU+AAM5NYEnUwAFUUcKPjKBPD4ABE9ICDszFVEAZzkAIE5LBz49FE8AgQY7AA1MSgdOAAE3Qw4+ACmwQBMUQDITQEEUQEsRQFEUQFMDkDcACEpSAj5CIUwACbBAVRVAVwmQSgAtsEBbRZA0PgZMTAKwQGAekD4AGk5KAbBAVRVAQwOQTAAOsEAlEkAALJBPRxhOABY+OoElNAAENjUTPgCBIT46Ak5EEk8AgSJOAAU+AAU3NQFMPQw2AIEPTAAHPjkHSkaBLD4ABkoAAUlDEbBAExmQNCQHsEAlEkA2E0BBE0BHCpA3AAiwQEkmkDQAGD40A0dFBEkAgQqwQEcWQEQSQD8GkDk6CElFBLBAOwSQRwAQsEA2C5A+AAewQDASQC4mQCwmQCoQkEkADEVCEj03EzkAMbBAKDhAHhNAFBCQPQAARQADsEALAJBKRQE7O0uwQBsTQCITQCYTQCgEkEoAEbBAKhFALQaQPjcARUALsEAvOkAxWJBFABWwQCYOkD08AExCAT4ABbBAAAmQOwBVsEAUEkAkFEAtB5BMAAQ9AAawQDIKkEAxEEU5C7BANHNANjCQOTQIQAACsEAuA5BPQA+wQBYRQAA6QBATQCUTQDELkE8ABrBANxWQTDsBPTUIOQAbsEA5R5BFADA9AA6wQDcOkD4zBrBAJwmQTT4CTAAHsEAAgRNAHRJAJhRAKQaQRTQMsEArKEAuBZA+AA2wQDAnQDIlQDASQC0FkDw1CUo6F0UAFk0ASbBALyVAMROQTD8dPAAPSgAgsEA0JkA2JkA0EkAkD5BNSgSwQAAFkDo8DkwAXbBADxRAHxJAKAWQOgACTQAOsEAtBJBKPw6wQDATQDInQDRLQCsfQCELkDlAA05IBrBAHAmQSgAwsEAhR5A5AAawQCUkkEpAOU4ATLBAEhNAAAyQSgAQOj8FT08+sEAtE0A/EUBIFUBMCpBPAAWwQE8IkDoAD7BAUQiQSkwKsEBUE0BWOUBbN0BSFUBHEEA6FEAyApBSUAk3ODxKADM3ABhSACNRRymwQDA5QC0TQCITQAA8kDQ7AlBAClEAKrBADxRAIBBAKwiQNAAMsEAyEkA3FEA6E0A9FEA+CJBKPAqwQEAUQEElQEISQEEUQDkQQA0OkEoABbBAABqQUAADOTMCSUAbsEAwFUBFEUBRFEBbE0BhApA5AEpPR4EXsEBWE0BGC5A+OwmwQDcCkE5BA08AC7BAMAeQSQCBGUhBgRlIAAVOABtHQwc3MYECPgAcNwAKTEoRQzWBGEcADkI3CUU9CUMACDkfgRdMAAdKTIE5RQAGQgADQDkQQzuBBUoAMklHgQM5ABCwQC5OkEAACz4yA0pGBUMAKkkADLBALIEFQCoGkEMogSpDAA1FPIE/QDcNsEAogTOQQAAAQkCBMz4AAT0zgQGwQyEbkD0AEj43gU45LYE2sEMlS0MpX5AyKRGwQCIUQy0SQB4nQBkkQBQAQzE6QBAkQzUmQAAlQzpgQz85Q0MlQAkTQB0UQCgSQDIVQDgBQ0gRQD4RQEIUQEUSQEgTQEoUQE0dkEUABLBATxRAUhJAVxNAXBFAZBJAbBRAdBNAeRGQSgAVsEB+A5BCAIEKOQAPMgAoPgCBELBDTyVDVTlDWihAehFAcwJDXxJAaxJAYhNAVxRASxFAPhJANBNAMkmQRz8DsEAwFUAuW5BHACWwQDARQDIkkEc8AbBANQqQNy4LsEA3EkA6FEA9EkBAFUBBaZA7KQewQD4UQDsTQDg3QDsUQD4QkDcAAbBAQhJARQmQPjQHOwAEsEBKE0BPE0BVEkBbE0BhFEBmEkBtD5A+AASwQHISkEhGArBAdgaQRwABQzUaSABPsEB6SJA5QwFKSw5DAAawQGYVQEcFkEoADrBAAASQSEhHSAAJSkM5SEACSgACQzlyQwA3QjoBsEAcAJBIAABIBxWwQCOBIpA5AABCAAFIAAhHOw9AMyiwQB4AkEg6A0cAJLBAGhiQSAAfsEAWAZBKQSWwQBAIkDs0BUAAgSY+OYFCQj0bPgCBCkNBKDsAB0IAJLBAAF+QSgAdR0MFsEAcFUA0E0A/EEBFFUBIEkBKJUBNE0BQAJBKRxOwQFIOkEcABrBAVRNAWhNAXhRAYxJAZ0KQSgAEOz4BTkwEsEBeEkBMEkA3JkA/FUBHEkBPFUBXEUBdD5BPSAk7ABywQGMCkE4AJLBAaTlAbUSQPEACTEgGsEBiAJBPABOwQEwUQCURQAAmQC8TQEAUQEoQQFEUQFUEkDwABk9GAkwAB7BAVzpAWydAYhBAZjKQTwAHOz4ASkwCsEBOEEAAYEAuFEA7EUA+HJBKAAVPSmOwQD8mQDsOkDsABbBAKQWQTwAPsEAABpBISgY5PUdKRwFIADZKAAVIQUVHSQBIAIEnSE0ERwABQj8hOQAcQwA8sEASFUAnEEA0BpBRTA2wQDsBkEgAErBAPktAQCdAOhNAHQuQQgAGSEoBsEAAA5A3QgdRAEKwQDUTQEUTQE0RQFEbkEgADLBAUwiQR0gesEBVWkBYOkBSDJBFSQNHAAKwQEMDkDs9ELBAJCZAGQmQOwALsEAsFUA6EUBBE0BCH5BFAAlDRjewQEMkQEQmQEIUQD0AkDcAE7BANAWQQwALR0UBsEAmB5A+Oh+wQC0VQDgRQD4UQEJakDYzCkUxIkUATT4AJDYAD7BAQQWQNDEBQ0gPsEA+EkA5EZBDAAGwQDNTkDQALzI4GkI2HLBAMQmQQgAesEAsFEAjEkAJFUAAK5AxOAQyAANHABdAPTqwQCcRQDsUQEUSQEoVQE0qkExEDrBAUCVAVBNAVydAXSVAWASQTAACQAAMsEBKApA0PgRFPQ6wQDITQAAikDQAArBAHBVALBNANhJAOTSQTEQDRQACsEA7EUA9FEA+E0BAE0BCE0BEJ0BCEkA9IUAyBJA5PAtDRQSwQComQDMMkEwABLBAOQyQMQAIsEA9FUA/NZBDAAOwQEAGkEJANLBAQRFAQkxAPhNANQ+QMUMAQgAEsEAsApBDRjewQDUUQD0TQD8FkDEADLBAQDpAQQWQTEYEQwBVsEBCJkBEJkBBEUA3BJAyPRCwQBkCkENHC0wABbBAADlACxNAGRNAIi2QQwAHQkmBQTY/CkBJMzkAEEIAWrBDWwaQQAAGPkUZsEAeTEAZAENXAJA2ABawQABLkEBJEjk4CD4AAjIAG7BAFxRAKBJAMBVANRFAORVAPBJAPQWQQkgvQAAEsEA/E0BBFUBCIkBDJ0BBE0A2AJBDSgMwOhGwQBoNkEIABLBAABVAHyBAOBRARxGQMAABsEBQFEBVMpBCSQ1DAFiwQFglQGAQkEIABLBAZhCQQ0cQLzsFsEBYA5AyNw+wQDoTQAAAkDkAF0MAC0VIUUNGAUUAPkMAHEJLSkIAHjc7AENHOC8AV7BAHRRANAqQQwAARUYJsEBAEkBKBJBFABCwQFQSQGEVQG0SQHUgQHonQH8ZkEdDDC0+ErBAewiQMgALsEBiAZBHAAhFTAuwQEETQAAVkEUACEc9NUVCB0cAeUUAAEUjQTcAFTYzgQpFABZDOz9DAB9FS1FFAAU2ABVHPAo3KwMtAIE/KziBHisABC83GDcAgSIyNQcvAIEMMgAjNzIBRwAksEAqE0A6E0BCE0BEN0BGFpBHQxGwQEglQEppkEcAGUxGHDksCbBARRNAPxNAPhNAPxFAQRRAQiqQOQADOzcCS0sbTAAQNwACsEBDT0BCEkA5EEAABpBLAAs8Pw5MSRQ7ADCwQDISQEEEkEwABE5FC7BASQuQPAAEsEBOFUBREJBMRiZOAD5LUAhMAEOwQEYIkEsABjc+AEAsBbBAGQWQTFIIQTMDsEAAAUNSHZBBAAewQ0oVQ0QkQ0AnQCITQDMKkEwAB05QArBAOwJDNxJAQAJDMhBARBRDLiBARjpAShFATg2QTgAGsEBWBJA3AAVPTwmwQGIDkDlEErBAaRBAYAJDKRRARQSQTwABTk8LsEAAOpBOAAZPSzJOTQNPAIETOQAhOy4HsEAnApBAAAw/NgSwQEIVQE4RQFgUQGADkE4AD7BAaBNAbxRAdUOQTEU+TkMNTAAHsEBrAUMtEkBfFUBSD5BOAAKwQEUGkDsABE9FC7BAOQWQPwAHQDYFsEA0W0AxE0AuTZA7NiWwQCx6kDsACDcygQ83ABw7M3CwQCgVQAAzkDsAHDQhIbBAFxRAMBNAPBJAQhRARC+QTkMHsEBHKEBKCpBPAAiwQEwUQE4TQFAFkDQADrBAUiJAVBeQQAAfTEYCTgABsEBLAZA3NBCwQDMUQABJQBcUQCsTQDIJkEwACrBANgmQSkoJsEA7FEA/FUBCD0BEKEBGRpA3AASwQD4DkEoAAzlBAUlJDLBAFhNAAE5ALBBAPRVAQyKQTEMJSQALsEBEOkBGJ0BIN0BFCJBHQAFMAAI7PwiwQDsSQBkUQAAlQCUSQDgVQEIEkDsADrBARS2QTD4yRwAisEBEEkBCFUA7EEAuApBMABOwQCEgkD0/AUVGBLBAJxNALhNANBRAORNAPASQOQANsEA+E0BBFEBDE0BEDZBPShawQEY7QEg4QEUUQDwPkDlBAbBAJwSQTk8RsEAWBZBPAAJFAAywQB8UQDQQQEQKkDkACrBATxNAWRNAYBJAZR2QTFAKsEBqGpBOAIEePQAEsEBiApA+QwFOTSGwQFEAkDI7A0wADrBANBNAAGBADxBAFxSQUUA2TgCBBDIABrBAHAKQNDoFUQABTEAIsEAlEUAuE0A1FEA5I5A0AAOwQDsmQDwVQD0PQD4CkFEyE7BAPweQTAAMsEBBI0BCOkA/E0A6FEA3EJBRAAQ2LgRKNw2wQDoSQD0TQEEUQEIikDYABLBDMRFAQyuQSEMOSgA2sEBFJ0BHN0BBFUAzDpBHRAGwQAAKkDI7FUgAHLBACxNALBNAOQ2QMgAFsEA8RJBFRRZHAAWwQD0lQD4mQEEUQEI5QEERkEdDAbBAOwKQNzAPRQABsEAsFEAAN0AfEkAvFUA5EkA8EpBKNgGwQD0FkEcAIrBAPxNAQCRAQiZAQxuQSgAKsEA+CJBFOw2wQDgIkDw3CbBANhRAOSVAPRFAQhJARACQPgA8SjgPsEBGBZBFABE8ACKwQEg6QEs6QEMGkEoAC7BANACQQz8IOzUKsEASJ0AqFEA6EEBDFEBJIZA7ABNKQQSwQEsjkEMAGLBAThJAUCZAUzZATBRAQwSQQkQBOToBSgAOsEA9BpA3AAywQD8TQEUUQEsSQFEUQFYxkDkADUpHHbBAWidAYAWQQgAxsEBnFEBsN0BbBZBKAAc3QgFARwewQEMRQBcWQBIPQC4VQD0SQEUUQEkwkEpJL7BATBFAThNAUQ6QQAAGsEBTE0BWN0BNBZA0SAdJSwiwQD4FkEoADbBAKilAOhJARhBAThRAUQeQNwAMsEBPFUBNAUM1B5BHSxNJAAewQE8oQFISQFVeQEwUQD4GkC04AUlRDLBAIhJAAACQRwASsEAeFEA2E0BCE0BHOJBJABpKRQqwQEoRQE0SQFAlQEwQQEICkExJErBAMgeQSgANsEAhEkAAEJBMAAgxRwtFTwMtAAQ0ACOwQBwUQDQRQDpnkE9QarBAPDdANhRAKwCQTk8EMkwHTwAFsEAkAJBFABExACqwQCsSQC85QDEXkExPIE4AOrBAJxJAAFGQTlQDK0QWTAAZsEAmEEA7FUBEEkBIFEBMEEBQFUBSDJBKUAErAAAyAAhOAAU0Rx+wQFQlQFcUQzk3QFwPkEoAHUlJDbBAVQeQLUEANkQMsEBBEkAADpBKTAJJAAc0ADlJRQJKAA6wQz0xkEkAFEosJEoAAklDGLBDQoEvkDc4RDYAFbBALCRAPgGQLQASsEBIE0BPE0BVEEBbFUBiEkBoDJBKRQiwQGwVkEkAIrBAcBiQSgCBEbBAahVAYQeQNwAJsEBVAJA2MwIyLRBKOgOwQEcTQDsSQDKBM5A+NQg2AHSwQDAikDIADD4AATc5AjQxZ7BALlOQPj0CNwApsEAsgQmQPgAKNjgKOTU9NABWSgAGNgAETEgDOQAKPj1UTAALTkUwTgARNjkDMjMLT0wFPgA0TwAdsEAwAZBRSygyABpTSwNRAAk2AAs+OT2wQDIBkFMAAVRQJLBALA9AJhVAFxJAEwWQPgAENz4MVAAEU0t7sEAeJ0AiLJA+Nx+wQCsTQDEUQDZXkDcACz4ACjk2GLBAOIEFQDwkkD40BVFFAVMARrBAPRJAQBJAQUWQOzkHPgAHT0sgUQBIOQA6sEBCAJA+OghOTxdPACc7AE+wQEMSQEIVQD4HkExPAjdBAE4AB7BAOAqQPgAKsEA0J0A3EUA9FEBDJ0BFF5A3AAVKTQc+QRSwQEgGkEwADbBATBRATzGQSgAFsEBSKEBUE0BXE5BMRwI0Pgs+AASwQE8VQEERQDQHkE5IC0wATbBAMQmQT0kJsEAuCZA+PAhOAAGwQCxekDQAUDY1Gj4AgQqwQC4skE5BAT40Fk8ARTYAD7BAMTpALQiQNzYKsEAqCJBMRQhOAAI+AEqwQC06QDESQDYAkEwAAj47FLBAOgKQSkhZsEA8FUA/EkBCEkA/CZA0QAlJSAGwQDgCkD4AELBAMgKQSgAjsEA2FEA7E0BBAJA3ABSwQEIdkDQAHT43BEdMG0kAF7BARSdAREhAQhRAQRCQOUIJSU0LsEBAE5BHAAGwQD8akD4AQ7BAQSlAQBCQPUABsEA+AJBFSQFJABKwQD0LkDkALbBAPiZAPRBAOhVAMgmQRQAJsEArEZA7OgFKSAE9ADqwQC5DkEoAC7BAMBJANBaQRUMCPjkzsEAxOUA0HZBFACRMRgc9QQc+ACo7AB2wQDc5kEwADrBANB6QPQABQDEERUIrsEA2TEA0QJA5OQRAAAJPRoEKsEA3EpBPAA09OwVMQhA5AAGwQDR0QDEFkEUADbBAJBNAAAKQPQAQPjQDTUcYTABFsEAZE0AqEkA1E0A9FEBDIJBFPDA+AA+wQEUjQEo2kEUABLBARiFAQgSQPDYASkAPsEBAFEBCDJBNAECwQEM3QEcHkDwADbBASgKQTEcmSgBvsEBEFEBAD5BNSAM6QgtMABqwQEITQENvkEo9CU0ADbBARQyQOgAqsEBDFkBCEEBBNZBKABROTQI5RE2wQEIUQEQlkDkAKkpCQ7BARxKQTgA6sEBCFEA6DpBKAAawQDYSkE9QATpFN7BAOxFAPRNAPxRAQxNARg+QTwAfSkwYOgAGsEBIEkBKEkBMOkBKEUBFFEBBJZBSUQE3PiiwQEMPkEoAArBARTlARxJASgaQNwAJUgAeUUtXsEBMFEBJEkA/E0ArE0AcG5A0PgRQTgRRAAGwQCsVQDUiQDoRQD0nQD4UQEESQEYUQEoIkDQABEo9Y7BATSZARxRAQQyQSgAcsEBEAZBQAAJJRgc5OQawQEcWQEwPQE83kDkAOrBAUwKQSQAFT0pasENGEkBVWJA+QQdOSQhPAAewQFIWQEwSQEQTQDsHkExGKU4AHUwADEpIAbBAPTiQSgA5SEkksEA8MJBIAAM3ORNHSCywQD1hkD4AGTcAEUxGAUM5CEcAgS05LwRCNQ2wQDwGkEMADkU9TbBAPTWQTAABsEA8HpBKQhZFABiwQD07QDxMkEM7A0A4D7BAPQCQQgBZsEA6OkA8DJBKACBJQx6wQDofkEMALLBAPEyQOQAXQAACSkYDPjokSQCBD0M2gSJDABhFOYEdsEA6IZBANoFUQjcGQAAbsEA4EUA2b5A+AAk9OQ6wQDSBG5A9AB4+OzywQDEUQC9uQCwHkDk0DbBAKnJAIRRAHUpAEyJAAFSQMi6DY7BAEhRAHxNAKhBAMBZANBFAOBNAPBFAQRJARRVASRJATRNATxRAURRAVRJAWwmQQgALsEBjEUBsFEByHpBKAEpFABY+AAKwQHYlkDkAKLBDSg6QMgCBBrBDToE9QHIrkE5TgQhOAFewQGwSQF8EkE5MD7BASgeQRSkBSigDMjEIsEAuFEAAJkAgEEA1FkBCEUBLE0BTIkBXDpA2NhIyAAFFABdKABOwQFsUQGASQGU6QGkSkDk4FLBAcBJAdBSQNgBWOQAGsEB5D5A8OwZPTB9OABdPAEuwQH0tkDwABztBD1FWC7BAbxNAUhNAIAOQUQAOsEAAAZBPSTJRThRPACRPSwg7AAFRAAE5QYEvO0QHOQA4sEAPc0ATBZBPABJORAY7AAw3KjJOAApPT0o3AApPAAGwQA8HkFFQBjY3B7BAAIE9kDk1gSc5AB08MoEKPAAkQDiBSz46FUAAQLBAJRJAOBCQPgACsEBDAUNJEkBIG5BRAAY2AAxISQ6wQEomQE8BQ0UPQFMVQFgSQF4TQGI0kEgAA7BAVwSQOTYASlABNjUPsEBIE0A6FUA9EUBEFUBLEkBSEkBcEkBkC5A2AAewQGgNkEVUDTkADLBAbAFDQQiQSgAdsEByFEB3EkB9LZBFAB83RwlHTwmwQF4UQDQUQAABQzuBF5BLTSKwQAkQQBQIkEcAC7BAHG2QMDYANwADTE0CND0QSwA9MAAAMB1cT0gMTAAZsEAXTUALFEAAIpAwABRPAAUtOABORDSwQBsUQDISQD0UQEIRQEMUQEQtkEhBC04AWbBAQxVAQBJAPCGQLQABSAAVLzQEsEA+AJBHPgEzNg40AAOwQEAUQEMSQEZeQEgSQEoPkFFDBLBATBKQRwAiLwAZsEBOJEBQOUBJBpAzAApRAAGwQEADkDQzBk9ADLBANQiQKCoKsEAyYUAwLJBPAANLSj6wQCwAkCgAd0xNATQAA0sAgTtPTgVMAHewQz9OkEhIHU8AGUgAF0dBM7BAKiCQRwAUSEwCNEh1sEAoOJBIAAY2QAo0AD2wQCFKQB0ekDI7AkhIBbBAABGQNgAXSACBLDc5ATIABkg3YrBAHBRAKgaQNwANsEAuGpBFPDpIADGwQCoTQCElQAAYkEUABis4Ckc8NrBAHBJAKhRANRJAPhJARRNASAiQRwACKwATTDxDsEBLcUBGEpBFRgKwQD8SQDYJkEwACrBAJASQRQAOsEAAGJBDPERDACsxQgJFQYE+M0cQMQAQRQCBGy85D0VICDMAJ0UAgQmwQBIGkDQ9A0VDAS8ACrBACRNAAEaQNAAEsEANJkAAIJBFAAFCO4EwQgAhKDQFQzsisEANEkAXJ0AhE0AtEUA5B5BDAA2wQEEHkCgADbBARAKQSDpIsEBGJkBDE0A+BpBIAABICA6wQDgPQDUrQDABkEgAAUE6DrBAKRJAJAqQQQAcsEAeCpBAMBuwQBMSQAsJkEAAJUE5BS05LrBAAIEOkC0AAS85JUEAgRsrNhFBPBYvAB5BAIEZQToOKwAEMDcbsEAkDkA2E0A8V5AwABM/PBywQDoBkEEAXLBAOCdANg6QPwAKQD4CMTeBCzEAFUAAA0U9EbBANIFKkDJBCUNCFkUAeDIADEMAD0A+gShAAA4zRwFCQoEKMwAmQgANRzIlSCYVsEAwE0AqApBIABGwQA0SQABMkDQ+CEVGCLBAEw2QRwAHsEA1E0BEFUBMEkBUFEBcEkBkFUBpF5A0ABpCQhWwQG4JkEUAe7BAZhNAXQSQQgAQsEBTApAoPwFDSA2wQEgUQD4SQDc7kCgAELBANRVAMhJALgmQSEoJsEAsBZBDAFywQCoRQCg4kCpCEkdOEUgAfioADEcADkNMYbBAIRRAAF2QNkoBQwAARVAOsEASFEAwEkA9EkBCE0BEN5A2ABWwQEYMkEpHBEUAdLBAQhJAPBNANBZAJxFAFwSQN0EASEwISgAtsEAiFEAsEEA2FEA6J0A9EEBBC5BFSAmwQEQDkEgAELBARxRASSZASzdARRRANQCQRQATsEAAA5BHTAYrQRywQBISQDcUQEwSQF8TQHQUQH8okEpQCysAB0cAIEoAQjcAak9RNrBAexRAZwKQTlIETwANsEBNE0AzEkAADpBOABVPUhc0Q4EzN0UYNAAEsEAXFEArEkA4E0A/E0BDCJBPAAuwQEYTQEkRQE0SQFMDkDtDBE9SAzcADbBAWhBAYBRAZQ2QTwAYsEBqJkBxE0B1MpBPUQewQG8YkDBBBDsABbBAYBRAShNAMhJAJDlAKBJAKjCQRz6BFEcAFjc7AUg7HLBALCeQNwB9TDoCSAA7sEAnE0AgE0AZOEAgEkAxA5BMAAQ8PgdFQgawQD4PkE8AA7BASBCQMAAEsEBREkBbFEBkE0BrEkBvJ0B1FpBPT4E1sEBwDpA5RAWwQGEJkE5PC7BASgmQTwAJsEAyE0AnAZA8ABOwQCsTQDYRQD8TQEMVQEYRQEoRkE4AAbBATQKQUUsRsEBPJ0BRJUBTFkBWCpBRAECwQFMBkDs+ATkACEtHBbBATBRARRRAPwWQRQAOsEA9OkA/E0BAN0A/BpBFPiCwQD5LQD0TQDoVQDISQCATQAACkEM8FzQ5BjsATLBAHQKQSwASsEAwE0A+BJBDAA+wQEYSQEsIkExLH7BATRGQRQAosEBQSUBNFEBKEkBFAZA7OwRCRgg0AAiwQEMTQEEhkEwAY7BAQASQRUUNsEA+FUA9XkA8FkA2EEAsEUAmCZAvOQRMSRdCABA7ABiwQB4TQBc/kEwAIEtIGkUAgTkvAAdMQxI0MRhLAIEaRzaBN0MwgUM7MXw0AGc7AAdAN4EuPUUEQACBPj5IEj0AgSE7QA4+AC2wQBNQkEwALDsADz07O0cAgSNFOAFDAIE2R0IVRQCBGENGB0cAgT5MPxJDAAewQBmBEJA5PgewQB4ykD0ABLBAGmJAHx+QOQAUO0QgQzwhRRkvRQBSPUUKOwCBIUMAGj4+A0JFCT0AIEwAgRawQBkEkEIAAUBCN7BAHklAFi6QQkwNsEAcA5BAAIEVsEAiKZBFSR6wQB6BAUALE0AACpBITIE1sEAcBpA5PguwQCsVQDQSQDoPkEIAA7BAPhJAQRVARRJASE+QRQACNkMVOQALsEBLgQyQMkEINgAVPgBgsEBJE0BFFUBBIEA+DJAyABE3Pi6wQD0SQDsSQDcVQDM0kEgAHUVBILBAMYEfkEdGFkUAFUgqAUgAULBALzKQSk8MRwCBOE1ODkoAArBALIExkDk4A0g/AzcAgS9IAANKRgQ7OBc5AIEPSgAMNzQBR0cLOwCBSDw/AEcABzcAAEM+arBAKhFAJRRAFxFAAA6QR0kHQwBKsEAUEkAeE0AmE0AvE0A5E0A/IJBITwOwQEEikEcAA7BAPxRAPQSQTQBJsEBAG5BMUghIADmwQEITQENKQD8LkEwACLBAPA2QTlIrsEA+FEBBJkBCE0BDFEBGEkBICpBKSBo5PRWwQEIAkDwAE7BAOhNAOCdAPBFAPgqQSgAMsEA/D0BCFEBEAZBPUws7QxqwQEcRQEoEkDkAIrBATDqQOwAbTwAFPkACSkoCTgBKsEBOJ0BSEUBVOkBNEUBECZBRTgE2QwiwQD0JkEoACU86FbBAPwqQTwACPgAHsEBBE0BCFEBDN0BHCZA2AAM5PwawQEoFkEpMCVEABrBATF5ASRNAQhNAMhRAABiQSgAEN0MCOQAAU1IGsEASFEAjFEAyEUA+FkBEEUBHL5A3ABywQEkAkDtDA1MABkpGgQ+wQEcKkEoABrBARBZAQQuQMD8DTEs5OwBKsEA+FEA8G5AwABQ0NgNHP4EhRwAINAAULS4ESEMjTAArsEA9W5BRSxWwQD4GkDA6DbBAQBiQLQBGsEA/FEA+EkA8FUA2BJBPSwxRAAGwQCIBkDJCCjAAB7BAACZAEhRAJRJANRRAPhNAQBJAPwSQTwAWTEAusEBBE0BDX0BAFEA7EUA4EUAyAJBMAAUmJARIAAFOOgqwQC0TQ0MTQDASkDIAAbBANhNAPBRAQhFAQxNDRyeQRT03sEBEJ0BDOkBCCpBFABiwQD8AkCs4DUdBB7BAPA+QTgAEsEA5OJArABSwQD06QDwfkENBI0cAVLBAOVOQQwAPMTUHTEIFsEAwFEAAJZAxADqwQB8QQDMTQD4SQEMQkEwAF7BARgSQQzoQsEBIgQWQQwAHJgA7MjYIsEBGBpBCPDSwQEQSQEERQD5fQD0XkD49CEIABDIAA7BAOYEFQDYekDQ3Az4ABUNCgQCwQDQ9kDdEBEMABT47IjQALrBAMWGQPgADRUYVNkEBNwBEsEAzE0A1N5BFAAGwQDIRkDk3CDYAAj48MrBANUlAMkGQOQABMjUCSEEHsEA0epBIAC1FPgU2NgUyAIEhsEAtFEAcCJA2AAiwQAALkDczAT4AFEY5BEUAYbBAFxNAJBRALRFAMBRAMgCQPjEmsEA0DJA3ABqwQDhMQDURQDIIkD4ADjU1BENAPUYAQbBANBFANi2QRUQLNQAXQwBusEAwFEArHpBGSQYzPRSwQC4JkEUACrBAMW9ANBJANxCQRgADsEA8BpBDPgQzAGawQD0nQDoTQDMTQCoNkEdMBDI9BUMAIrBAMBRANxNAOjqQMgAyQzsHsEA+EEA/E5BHAHCwQDwUQDUTQCwAkEhMBzNCEUMADrBALhRANBNAOxJAQRFAQiiQSAAdQ0IGsEBDD5AzABiwQEhvQEY5QEMPkEtOAbBAQgmQMDJEsEBDC5BDADBLAAYwAAywQEIXkEpPNLBAQzZAQBNAPRRAODuQSUcESgACLTcdsEA6OkA9EEA/FEBBF5AtABFDPE2wQEMRQEQQQEIWQD8RQDgUQCwJkEMABrBAKQOQSQAQQj8DMjwTsEAsEkAxJEA3EkA7JZAyAAKwQD0QQEAUQEITkEhBI0IAO7BAQ2BAQRJAPwOQNzcDSAACR0OBIrBAQBmQQT0esEA/TEBBHpBBABuwQD8IkEA5DjAxN7BAQEtAPxuQMAAONwAJRwAFRUkPPDMEsEBAHJBAAC6wQD9KQEAekDwAATs0DD4+CDItBLBAPxRAPU1APjKQRQAYsEA9AJBDQTmwQD4ikD4AO7BAPTGQOTYFPDoCOwADsEA+XUA9OkA+BpBDAB9CQiWwQD2BKEA8JJA5AAUyAAg3MxJDQAI8AAOwQD0SkEIAOrBAPDdAPTuQPC0ksEA7dZA8ACE+NoE4OS+BUDkAAjsxgUc3AAY2M4ErNgAmNzKBRDIugimwQDkmQDUGkCsoC7BAMBRAKhVAIQ9AGxJAFhRAEBNAAIE7QAsQQBcUQBwTQCETQCYTQCsTQDIUQDcSQDoSQD0TQD4VQD8RQEETQEQSQEcVQEoRQE4UQFITQFYSQFsVQGISQGoTQHIRQHkUQH6BKpA7AEA+ABpDABwyABorADqwQ04TQ1IVkDcAErBDWSZDXiVDY4FikE5SUE4AI7BDZwuQRUlOSkIYsEB2FEBmEUBRDZAyNAawQDsAkE5PE7BAKzdAMhCQRQABsEA+FUBHFUBOAZBKABGwQFUSQF0VQGMOkDY8ArBAahRAcQ+QMgACsEB4NkB8VpA5PSg2AG85ABFPUAY8PCVOAA5PAH08AAY7PwywQHgBkFFUErBAXRNAQQaQUQALT04DsEAoOZBRUAxPADRPTwVRAAk5PRE7ABCwQCsTQC8UQDETQDMTQDYTQDgRQDsYkDkAAztCMLBAPIEKkDc1BzsAA08ADU5NGbBAOSWQTgAXT1A3sEA3BZA3AA2wQDQBkDY5CU8AAFFRCLBALhJAK2JAJRJAHC6QOT6BPzxAAjkABbBDY4EQkDwAH0A0gQCwQBYUQAA1kEAABj49MbBDXzlAEBJAHw2QPgAFsEAmFUAqAUNaDZBRAASwQC8IkEhDAzYAB7BANBNAORNAPRRAPxJAQQFDVhNAQjZAPhGQSAADsEA4AJA2MAE5OQRKTA6wQDAmQDMTQDkSQD4VQEMRQEUnQEgEkDYAADkAD0VQJrBAShCQSgACsEBNE0BQE0BTEUBXE0BcFZBFAB83QASwQFIJkEdQDbBAQRJAKhRAIjdAKGOQS006RwByNwAGNEMMTE8GMD4BSwA7sEAjcpBPRwFMABGwQB9zQBkSQBAVkDAAEk8AAk5FBS07gTFIRxVOAGktAB2wQAATkEgAHzM/AUdBCS8yEjQAH7BAHxNAOhRARRNASwOQLwAOsEBNJkBQCZBRQQYzAAOwQFQTQFcckEcAfLBAUhJARAaQUQAENDcIsEAtApBPPhKwQBYAkCglTLBADxFAAECQS0oCTwA7KABENAA0TE8DSwCBGUwAJU9MgVJIRitPAA9IABRHPklHAA00Pw5IRYEkSAANNkQENACBPjI6AkhFEDYAHUgAgSZIRwUyAAo3NXc3ADlFPgRIAIElRQAVKzsFRzwwsEAcEkAoE0AyFEA6E0BAEkBDB5ArAAdHABhMPAGwQEVLQEdMQEQSQEITQD8LkEVBCLBAPBRAOA2QTAAEsEAwD5BFAASwQBwTQAAHkEM7SEMADzFBFUVAgS4zQQExACNFAIEeLzkERUU7MwADRQCBBS8AD0VGATQ7DrBAJhRAORNAPEtAPhRAPxJAQASQQj8QRQACNABJsEBBEkNSJkA+IkAyCJBCAAqwQAANkEM7Byg0TbBAOBRARxFATxJAVRKQQwACsEBaCZAoAAiwQF8VkEg9gQWwQFgSQFETQEcRQD0LkEgABkFAArBAJRNAACGQQQAiQDY0QAAoLToBQTuBQy0AA7BDTgGQLzUnsENJD5BBACqwQ0Q0QzoRQzIUQy0SkCsvCC8ADUE9JbBDKQ2QQQBSsEMkQZArABJBOgkwLE6wQA0SQCISQC8UQDYTQDgakD86ETAAEEEAgQg/ABZAOQUxNoEjMQANRUAIQACBRjI6DkM9AkUAgQ5DABkyAAFAPTmwQDY5QDQBQygRQDAUQCoSQB8PkEJGBjNCH0AAZbBAJAuQMwAmQgAAR0NlsEAdEkAAXJA0KwdFQA6wQCYKkEcACbBAOQSQMiIPsEBCIUBHD5AyAASwQEpekEJAI0UAUbBASBJARRJAQxJAQROQQgAEKEAGQ0YKsEA+E0A7E0A3E0A1GZA0ABEoACKwQDIRQC8OkEhBBrBALA6QQwCBMSpIB0dHEUgAcioAEUcAFENHILBAMChAMzNANiZAMhJAJxRAAAWQRUsNNkQcQwALsEAZEkA3E0BFE0BPFEBUEUBXJJA2AAFKTB9FAIEOsEBREEBEBpA3QwFITAlKAAKwQBkUQAAnQCQUQD0TQEoTQFIVQFchkEVOP0gADbBDJCdAWyZAVBRAQQCQRQATsEAAAZBHUQMrSTKwQCAVQEEeQFIVQGISQG0UQHEIkEcAGCsAA0pKHUg0DEoAEUgAgQ9PUi+wQGkCkDcAELBAWBCQTk0ATwACsEBBFEAiFUAQJJBOAAGwQAAJkDQ/AE9Te7BAFBRAJRNAMRNAOhFAPgaQN0EQsEBCEUBEAJA0ABGwQEgTQEwMkE8ABrBATxVAUiZAVRNAVw+QT1IHO0EJNwAEsEBdRZBPAIEOT1AQsEBQBJAwPAqwQEYAkDsAErBAPxRAPDdAPRRAPhNAPxiQRz4hsEA+S0A/SZBIQQFHAAI3OBGwQEAnQEEAkDcAcrBAQg2QSAACTEY8sEBBJ0BAJkA+EkA7FkA3B5BMAAewQDUCkEVIBzxAAU8AEjAAC7BAOxVAQSBARxJASU5ASxNATQOQT0wRsEBREUBUb0BSFkBKD0A9AJA5PglOTA2wQDcHkE8ADbBAORJAPhGQPAABsEBDEkBIFEBLUZBRUAJOAB2wQE1rkFEALbBASQyQOzsHsEBEAJBLSwY5AA6wQD8ekEUALbBAQRNAQidAQSiQRT4jsEBCWUBBE0A9E0A3FEAwDpBDQQw7AAg0PiiwQDQTQDcAkEUABksADLBAORNAPQOQQwAPsEBBFUBCJZBMQTqwQEMSQEUAQyhJQEMVQD8EkDQADrBAPQKQOzoLQkQXTAAnsEA+TUBBH5BFPVKwQywlQEISQEEUQD0UQDAGkC86G0w/BLBAABKQOwACsEAJEkAiIUAsE0AvS5BMAAtLRQuwQDcSQDpCkEUADUIANbBAMhJAHwSQLwAPsEAAAJA0PQZMQSZLAFqwQB0RQCcjkEc+ArBALBRANRJAOxNAPhJAQCZAQRVARRJAShRATxJAUgKQQz4RsEBUJEBYFUBdEkBiSkBmBJA0AAs7PxewQGsgkDsATrBAcRVAdSVAeS6QQEMJsEByFEBhE0BKE0A0D5BAAAE+PwOwQCtekD1IHT4AgRI9AB8+P0k+ACI9RDo9AA87Q4EisEMwMJA7ABw9PIFLQwAARTkORwAzTAB7sEAoA5BHPQRFAH6wQCESQBkRQAAPkEcAAkNGgQewQBYUQDMRQEIOkEVLBbBASBaQPQABQwCBArBARReQOUISQkgLsEBEB5BFAEWwQEMRQEEUQD4TQD0akDkACjs+CEIAAkNHCbBAPjdAPXeQTEECOwAEPT0IsEA8FpBDAIEYPQAFPkUMQ0ULTABksEA6TZBDAAFAQoFEQAAIQkWBL0VDDLBAOG9AMhRAFxJAACdADwKQSEkRsEAhE0AqFEAvE0A0EEA4FEA8AUM0EkBBEkBEApA+AB05PQawQEEUQD0SQDoQkDkAT7BANxNAMxVAMBiQNj0yNgBcRQBDMjgBQgAnMgBPsEAuFUAqEUAfFUAaJkArC5A3NAWwQDkVQEQTQEoTQE0lQFAnQFMJkEgAJEU9gT1HRhFFAESwQFEnQE4SQEwtkEpRD0cAN7BASYEakE1NFUoAB7BAS0WQOQ0UNwAzOQAAOSAPSD0jsEBII5A5AAKwQEUVQERckEgABEpMCzkzBbBAQ0tARBOQOQASsEBDFEBCApA7OwpKAAawQEEPkEdFULBAPxNAPQiQOwAJsEAzFUAgDpA3NQOwQBkykENAA0cAOTxKCDcAI7BAI3SQQwAGR0QZsEArEkAvgQVAMSKQSD8FRwALSj0asEAvS5BKADBIAAZMSidNAAGwQDMUQDkRQDx9kEwAA05QgTZKSBU5QBA8ACCwQD1sQDwBkEoAErBAOA+QT1AEsEA0A5A7OxCwQCwTQCULkDkAG7BALhRAMxRAORFAQAiQOwALsEBFE0BIAZBPAA0+QQWwQzgCkEpFAE4ASLBASk5ARBJAPBJAOgGQUVEDNkIQsEA8EkA+ApBKAAo+AAawQEESQENgkDYADzk/BkpJDFEAPrBARSRARydAQRNAMxNADwmQU1IDNz8COQAGsEALE0AdBJBKAA6wQDAhQDwTQEImQEMSQEQGkDcAG1MABrBARwqQSkkDOz4FsEBKgQRARxRARAaQSgAOsEA/CpBMSgEwPBo7ADqwQEAlQD8tkDAAEDQ7FEdBDbBAQV5AQCVAQQyQNAADRwAXSEYSLSUCKyUnTAAjsEBDJ0BFA5ArADFRTAEwOgwtAD6wQEdeQEUTQD4TQDcKkDI/AE9LATAABVEAA7BAKxNAGSdAKhRAMhBAORRAPxJAQx6QTwADTEo9sEBFFEBIS0BEEkA8EpBMAAKwQDcGkCZCAU5HAUgAHDIAAbBAORJAOxRAPxNAQjtARBJARx+QRUU/sEBFS0BDE0A/B5BFAAuwQDsXkCs8AkdBLU4AOysAakNACLBAORGQRwBzsEAyEkAcEUAAA5BDAB1MQgoxNTewQCMPkDEABLBANxJAQxNASxNAURNAVCWQTAAXQziBOUMAErBAUQGQJgASsEBPE0BMAJBCPgoyOAmwQEo7QEcSQEUhQEMSQEJRkDYyDrBAQQCQPj0LMgAIQgAUsEBAXUA/L5A0OgM2ABA+AAFDP4EyPjoAQwAHNzINsEA+JpA0AHQ+ABJFPQc2NAo3AIEbRQALOTMGNgAHPjeBSDIzCjkABEhCgQpIABs2OwkyAANFOoEQsEA6EUAZE0AABZA2AAE+AAU3OgZGQgFFAHOwQBAUQCcRQDAWQDUQQDcAkD45ObBAOwiQNwALsEA+EkBAJkBCJkA+CpA+AAmwQDUCkENBBTU7DrBAJBJAGTKQRgABsEAoFEA0E0A7EkA/EkBBLpBFRhk1AASwQEIJkEMAHbBARF9AQBNAMw2QRlAFsEAJC5AzQQiwQAAPkEUAGLBACxJAKRNANhRAOxJAPSZAPgCQRgAJQz4FMwAZsEA/EkBAEkBCE0BDTUBAE0A6EkA3BJBHTAVDAAMyPhqwQDkTQD4RQEIUQEQ4kDIAG0M7TUcABbBARmBAQRJAMxNAAA6QSEwDM0EJQwAMsEATE0A0EkBFFEBPEkBYFUBhC5BIAAWwQGYskENEKTMAfrBAXRFAShVAMQOQS1ANsEAmAZAwOBKwQC4TQDgTQD8AkEMAE7BAQiyQSwAHMAAqSkwVsEBEJUBHX0BEEkA9FUAxCpAtNwBJRQRKAASwQCM0QDAUQDoTQEERQEgTQEpFkEM7GbBATBRATw6QLQAssEBML5BDABuwQE8DkEkAEkI4BzI8G7BAURRAVAiQMgALsEBZE0BfEkBkPpBCAABISoFBSAAWR0YHsEBYAZA3OxKwQEYSQDAUQCwHkEVFCUcAArBAMRNANDqQRQAVQ0VRQwAZQUNeQQALMDcCQEYZsEM8gROQMAAFNwAJQAAGRUYOPDWBNjwABDs2CrBANgGQPjsEMjNGsEAzSpBFAAKwQDYhkEM/GLBANEtANlaQPgAasEA0GpA8PAU5NgI7AIEZQwAkQj6BeTkABTIABTwAB0M/CjcxHEIAgSs8L4FGPAADPjiBXDk2gWE5ABM7MoFrNi4DNwCCBzYAKTcyglAyKIUSKyuDUrBANoEoQDgnQDo6QDwRQD0nQD4SQD8kQEAmQEE4QEImQERcQEY5QEg5QEonQEwkQE8nQFMQQFUnQF0UQGERQGYVQGsTQG8kQHUnQHskQH+BXpA7ACxDABErABo+AHIyABuwQzgQkDcAY7BAeBJAYgFDMhJAShJAOxVANSRAM0pAMBRAJhNAITlAHBNAAAiQT08lTwA6T1IONzwGSkUFRz8WsEAUE0A4FEBDE0BKE0BQE0BXEUBdFEBiNZBHAAVKAAJORwRPAFOwQFkRkDcAAbBATgGQTE0TsEBED5BOAAOwQD4TQD0UQDsTQDQDkEwACEpQB7BAJRJAFyGQSgAYsEAJCZBIRQuwQAA9kEgAHUdLAT5KIj4AHEcAFkVQOUUAPUdRA0NNHkMAIEcAI0pMXUoADUVRA0JMG0IAFEUAOUhSNUgAQkNKB0dYF0cAgSJDACZDUwdCQiFCAApDADBAQ2c+SAdAAABHUhlHAC0+ACc8RltKUgM8AAk7SBZKADs7AB45RWBPUAU7TQQ5AAawQzYNkE8AHjsAQT5FVD4ABTlLNE0sJ00ACzkACjxGLDwANDtOD09QGjsAIU8AKFFFbzdPAlEAAFNGITcAJFMAD09LXE8AFztLDkpQGjsAJUoAKU1Ic0xRAk0ABDlDEjc9EzkADDcAFEwAD0pSOUoANzxSBUxSHjwAMkwAE7BADQuQUVNDUQAfOVIDsEAaA5BTVBs5ADlTAA9UUh+wQCInQCYWkFQAFz5JAU5QCbBAIg+QTgBlsEAcWpBKTRE+AAI8QAxKAB2wQBRKkDtHEbBAGwSQPAA0sEAXE0ASEZA5Swo7ACU5AAmwQBYpkExJDjdLBbBADTZACQeQTAAPsEATDJBKSBg3AAQ2RR1KAASwQAAkkEhNFDYABzRGKUgAMjQAATJHAUdMRDIABUcAGkpKATZKQDYAD0oAG0VLBDBPLUUAIjAAFUpMETZNSkoAAzYAJC9TA0NRJi8ADEMAOkpBXkoAEy1OBUJMKS0AA0IAQEpKO0oALi9LCENNIS8AJUMAIkpJWEoACytRDkhJHysAGLBAJxNAABiQSAAPR0YvRwAuLVIfRUEVQzoELQASRQACQwA9Qz4xQwAqL1IEQU0gLwAOQQA7Sk1QSgAeMFkCQFIeMAAFsEA1E0AAB5BAAC5KTVRKACQ+TgMvRCUvAA4+ADZKR0hKAChATwMwQiEwAB5AADZKTFxKAAwtTgdITx4tAEVIAAxHTENHABcvUBdFThMvACVFAClDUEhDAB1FUAowWh8wABiwQDMGkEUAC7BAABGQSE+BBjJZAUJSBkgAJrBANBJAPBNAORFANwaQQgADQExAsEA6HZBAACUyAAA+TgUwSQWwQDUSQDIVQDASQCwUQBoFkD4ABC9MCLBAAAmQQEcEMABKQAALLUwIQlQCLwA1LQAUQgAcQ1IHK01IQwAcRVAIKk0eKwA2RQAFR1EKKgAJKEs6KAAgJkoCSFYFsEAlCpBHAAawQABEkEgABSYACSpAA0VVPEUAHSoABC1FEUpSNS0ALEoADDJHDEVROUUANDIAAys7AUdPdUNGXkJGFEMAFisABUIANEBCQ0AANj5DKD4AOjxAaDtAATwAUDsAEDlDWEcAEDkAFzdGMTcAPTtGWzsAHDY+CUc/JUcAFTYAKTk4UjkAIkw+DDc6JjcAQU5FCkwAVE4AFjRJAU9JKDQAT0xKA08AckwABzc5BEdMHDcALUcAJExMF7BDMkKQNEMMTk8KTAAkNAAsTgAST09xO0MJS1IATwAaOwAvSwAxUT4IUzobUwA6L08AUQABT1IkLwBDTwAHTlJxNEACT1YJTgAfTwAnNAAeNk06NgAzN00QTFAdTABENwABNEddNAAcMT8GT00dTwAhMQAkNz5UNwAVL0gESk8aSgAbLwBBN0ZSNwAcLU8ASVAYSQAYLQBLN0hYNwARNkMQUUsZUQAssEMuEpA0SQI2AEE0ADk2TwRKTxk2AENKAA1MR3IyTgJOSgpMABYyAEtKTApOADlKACY2UQRFUCI2ACFFAC9ITW0yUgdHUQRIABYyADhHAAewQyoJkEVSMUUAOjdOBEdRGjcANkcAHExRVkwAE05UBDRLHTQALk4AHE9QPk8AOElSBDlGE0kAgUY5ABU3QQJFTiRFAEk2Sg83ADI2AD40QSIyJTI0AAYyAAAyIGMyABZFTggxRilFAAsxACQvPg9HRD9HACItTgIvAAZJTzItABRJAB40TgFKUVw0AARKABErVQVMUCwrAChMACBJUAM0TkFJABc0AA1KVAgqViAqADhKAAxMT0ZMADdFUQEoUCkoAChFABpJTElJACBKUA8qSCEqAASwQy4lkEoAF0xGTEwAIi1PAkVOHi0AH0UAKEpGVEoAODJOAEJRITIACEIAOkpHcCpUBEVRAkoAIioAEUUAOExKZ0wABbBAJQGQK1kGSlINsEAuFEAADJArAC1KABhMT2VMABItUQNHSyotACJHACBJSQiwQypNkEkAJC9MAkpNHC8APEoAFExJTEwAJitIA0dLISsADEcAPkpMBbBDJEOQSgAfKEwIQ1AEsEMfH5AoABZDADBKTQ+wQxklQxU6kEoAAStSCkdSFSsAJEcALEpRdy1UAUlUB0oAMi0AJUkAGEpSaEoACkxNAi9JJi8AQEwAA0lMW0kAGjE8AkNNIjEAC0MAPkdJazJCAUcADEVBEzIAJEUAH0NATUMAHy1JBEJJNi0ABkIAOkpMSEoAJTdGCkBKIjcAG0AAJ0lKbzY/CkkABEpNJ7BDGYEYQx1DkEoABDI2BklGAjYAX0kAA0dDOEcAKUVLFjYuCUUALzYAGUNGS0MANUJAGDk2BkIAGDkAOUA7OUAAFbBDIi6QPjtFsEAxAUMoEUBBEkBJE0BNEkBSFUBbEUBlE0BtBZAyAA+wQHERQyRSkD4ANE9SHk8APEdPBbBAaBNAVhRAJwWQSjsMsEAAE0MoH5A3QANPVSRKABOwQCMUQDYBQy0SQD0BQzQSQEICQzsQQEcWQE4RQFYVQGAAQz8SQGsQQHUBQ0UTQHwkkEcAAE5ICE8AGTcAQExPFE4AN7BAcRNAZw2QTAAFsEBeAZBKUhOwQFcQQFAUQEYUQD0NkEoABbBAOBCQSEopsEA0AUM/EUAnDJBIAAewQAAJkD5YHEdLObBDOxuQRwASRU0/RQAOPgAXQ0sRR08HQwA1RwA2SkxRSgARQkYXRUsFQgAWRQAJsEM/QZBIUC5IADxDQAFHUh1HAIElQwAkQkAIQ00qQgAGQwAxQD9iPkoEQAAQR0kURwATPgAxPEV/O0gGSlYBPABZOwAROUNbSgAHsEAJFEAPBZBPTwM7RgY5ABNPAAWwQAAUkDsAPj49Tz4ABjlDEU5KGk4AOjkAEzxBJzwARztIBk9JGDsAI08AKFE6ezdNBFEAClNCHDcAIlMAH08/UE8AIjtPBUpIHTsAHkoAM01FYUxKAU0ACDdKHDcAI0wAF0pRNUoARzxODUxDEU1CATwAFE0AHEwAGlFQWVEABlNQFTlJIDkAC1MAK1RSMbBAFgaQVAAQsEAcI0AACZBOVxI+VwywQ0MDkE4ABU8wL05RBE8AAE8eIk8Aa0o/Az4ABDxDCk4APUoAKTs/BjwAaDlGBTsAKTkASDdHBExPSbBDPyGQSk0DNwABTAACNkgxSgA1SE4BNgADNEU6SAANNAAYMkcTR0w5RwAEMgAoNkQASko2NgAOSgAhRU4FMEwnRQAYMAArSkwNNko1SgAPsEAkBJA2AA2wQEIMkC9YA0NRBLBARSZDRB2QQwAusEBHAJBKSAGwQ0AnQEwTQFISQF0HkC8ADLBAaQOQSgAQsEBlBpBCRgItUwuwQEwSQAAFkEIADy0AQEpHS0oAOUNKCC9EJC8AC0MALUpIcitSA0oADEhKHysAP0gACkdGL0cAOy1VAUVOIC0ACUUAQ0NJOEMAMy9ZAUFPGS8ACUEAQkpMZEoAGkBNAzBSCLBAKRZALzNANAOQQAAQsEA7FkA/ApBKSg2wQEAlQD0VQC8KkEoAB7BAABaQPk4CL00KMAAcLwAIPgA8SkpCSgArQE4PMD4UMi8NMAATQAAJMgAaSkdXSgAZSE8DLU8rLQA8SAANR0svRwAzL1QKRU4dLwAaRQA/Q009QwAsRVEMMFcgMAAJRQAzSE9VsENED5BIABIyWwdCUCEyAAGwQFYVQGsSQHATQGsAkEIAD0BQBLBAZyRAbSaQQAAmsEBmAkNKCpA+TgQwTQSwQFcTQD0TQAARkD4AJS9KBTAAAEBKVkAADkJTBy1RAS8AO0IAAS0AJENSEitQQkMAKUVSECpPASsANioABUUAG0dTEChNRSgAGUhSASZHDUcAWiYAA0VWAUgABSpMMkUAKCoADS1PA0pSOS0AEEoAJjJHAEVQN0UAIDIAErBDUQiQK04CR051Q0VmQkAPsENVGJBDAA1CAAkrADZAP0xAAC0+QDY+ADk8Pkw8ACQ7PwawQ1EpkDsAMDlCCEcAQDkAIDdENjcAQjtAXTsAEjY9PDYATDk0RzkAKUw6Djc7HzcASU5AAUwAZTRGBE4ACE8/ITQAXkxFAE8AS0wACTdGJTcADEcxB0gsIEcAAEgALExGaDQ+AbBDTAKQTkkKTAAhNAAuTgAMT054sENIBJA7RwlPAANLThU7AEBLACJTOgNRQEVTAA5PTwRRAAkvSCwvAD5OTwFPAGo0RwxOAAFPSyBPADI0AAk2Qzs2AC43QwtMVGg0RBM3AFo0ABFPTAcxRQFMABdPAB4xADM3Pko3AB4vQwNKTxpKABkvAD43Qlo3ABFJUAwtTAtJACUtADo3RlQ3ABM2RQdRSxlRAEw2AAI0SEA0AD1KTQI2Si42ACxKABhMR3VOTQMySxBMABYyAEdKRhNOADxKABo2SwRFUCI2ACZFACRISGIySRVHTBUyAC5IABtHAAhFUDZFACQ3TSA3AANHT1RHACNMSlg0SwhOTQlMABI0ADtOABNPTguwQAsUQCAKkE8ACLBAKSdAAA+QSVkBOVUhSjQXSQAuSUIdSgBNOQAbN0AARVAWSQAcRQA9NkMKNwBGNgApNEltNAAIMkV2MgAFMUQCRUw6MQADRQAdL0IQR0tILwAcLVAGRwABSVM5LQAISQAjSlYHNE9fNAABSgATK1gCTFIzKwAhTAAWNFMBSVBOSQAfNAAHSlAJKloSsEA9E0BEEUBCEkBBIJBMTwewQEIHkEoADrBARQBDTBFARziQTAAgsEBLBpBFTAQoUgQqAAWwQE4UQEkTQC8FkCgADLBAAAFDSAuQRQAgSU1ESQAnSlAIKlElKgAnSgAhTE1mLVIQRVABTAAQLQBHRQAGSkREsENECZBKAC5CUgkyTAuwQ0gckDIAB0IAGbBDQxKQSklyKlYBRVIGSgA6KgAEsENHCZBFACFMTBCwQ0NokEwACUpSAytaIrBAPBFAQkWQTE8MSgA1sEBDJUBBDZAtUAQrAAKwQBYBkEdOCUwACbBAABaQLQAkRwAfSUpKSQAbSlITL0kbMCEELwAsMAAPSgAJTFBbTAAdK1EGR04eKwAYRwBFSkMrsEM/JkNDCpBKAAwoTxBDUB4oABqwQz8KkEMAJkpQaitVDkoABUdVCSsABrBDQymQRwAksEM/CJBKTzGwQ0RHkC1YA0lXB0oADbBALgFDQBFAURJAUxRATAJDRBFAQwOQSQALSlMFsEA9E0BBFEBFAkM/D0BIJUNEB5BMUAEvTQMtAAiwQEEKkEoACLBAABuQLwAuSVAFTABgSQAoQ1AlMRoNMCUDQwApMQAIMAACsENAB5BHTEawQ0QhkEcAA0VMAzJLGzIACbBDQCVDRAWQRQAaQ0dTQwAaLU4GQkoZsEAuEkBEFEBCDZBCAASwQD4UQDwIkEpMHrBAPhJAQCOQSgADsEBBFEBCAJAtAAk3RQVAShiwQD8PkDcAArBALBNAAA+QQAAWSU9vsENKGJA2SAZKUwpJAFqwQ0+BCENTL5BKAAJJTAIyQA42AFtHSQpJAC9HAC02QQFFTCdFABM2AChDRUFDAC9CRwc5Qh1CAAGwQ08FkDkAPUBIYkAAJD5MLLBAKBJAORVARRJAThJAVBJAWCpAXyZAZUaQMgAtPgAisEBbE0BOE0A1BZBOWw+wQAAfkE4ANU5YDUVNB0pKAT5DZ7BAIxFAMxRAOxNAQhRASBJATxRAVQKQRQAPsEBbEpA8QQKwQGEBkEoABz4ACrBAZUuQO0gNPAA8sEBfEkBaFUBUCZA5TgA7AAiwQE4TQEkUQEUMkDkACLBAQhJAPRJANQyQN0oIsEAtE0ApOEAgEkANBJA3AAQ2SgFOAAhKUASwQABNkDYABUoAC0xOBDRJVDQADzJOCE5SH0wAITIAGk4AEU9SBjlGVTkAGTBNBFFRE08ALTAAGFEADk5SEzlORTkAIU4ABE9SCS9YMC8AgUgyPwSwQ1MGkE5HCk8AETIAPLBDTwKQTEwfTgBNTAACSlQEN0chNwAeSgAySEpLSAAUOUQIR1EoOQAsRwAURVJORQAcO0kJQ1AxOwA2QwAMR1BtRwACN0QESkwwNwBASgACTUtiTQANTEgLPDUPPjEZPAAKPgA6SkIJTABXSgADSEUJQD8pQAAaSAAZR0dRRwAhRU4EPEYqPAAZRQA1TlFUTgAWT1YEsEAJCpA7Sh47AENRVQdPAGw8TgNPUgJRAB08AEVPAAFOTVpOABFPTgM5QyQ5AChPABFMTTNMAAWwQBI4kEtSArBACw+QO0QDsEAABZBLAIFcOwAQOTwFR0kdRwBJNz0MOQBYNkYBNwBCNgBBND1ANAAkM0kAU1BjMwAFMUQLUVECUwApMQAhL0glT1AaUQAXLwAnTwAENkoLTk0EsENLMZA2ABROABMtTwVMUDktADE2SgFMAAtLTiCwQAkPkEsAAjYAJbBAAAiQKUIOK0QDTFYbTAABKwAHKQBJLUYOK0EZsENQCZArAD4qTRFOUAEtACwqADBLUwItPxJOACxLABgtAAgrUQSwQ1QIkExXH7BAMgaQTAAMsEAnBZArABCwQAAvkC1JWC0ADypID05TNyoAPS1HAUtUBE4AQ0sAFi0ADCtHA0xVNisARS9DZkdJAihDBC8AFUcAPygAFStEbysABC1IAUhQH0gAEi0AOy9AYy8AEEpNAitDOysAIUoABEdOFi9EIUcAOkhSAS8ADy1IEkgAIS0AOS9BZUpMBi8ABitFQCsADkdRFEwABUoAAS9EI7BADweQRwAMsEAAF5AvAANIVhMtUAxIADQtACwwSVsqUgEwAAJRWANIUhlIAANRAE4tTiIqADQtAB6wQBkDkEdVAS9QAE9SHrBALAFDWAaQRwAHTwAGsEAAgTyQMUoJLwACTlMJRU02RQAhM0wQMQAIsENRFENHE0NCEUNGAZAzACM0TgxDUQiwQ0AVQzcVQys1kDZGBzQAM7BDIhSQQwAFN0sZTFAFTgAENgA2sEMcE5A5UgY3AFM5AAewQxcVkEwAAztVDkJQIjsAS0IAC0VJLLBDGzaQRQAEL00JTE8cLwBQTAACS01FsEMfHZBJGgFJAAI0QgewQyQTkExMCUsAgUE0AAU2PBFIRy5IACo2AAI3OVo3AAw5RhxHRRY5AAlHADs7R287AAc9RAJFRCBFAEg/SAQ9AEQ/AClARwRMAARDTRawQyAFkEMAK0AAHz1HUT0AHrBDJACQPlAJTFUdTAAyPgATO019PU8IRVUCsEMgApA7ACWwQyQWkD0AKT5HH7BDICdDJAmQPgA4PUgCRQAOR0Q/PQAkSUoGRwAEO0RDSQATOwAIOUkJSkxYSgAGOQAFN0YGTEdfNwAENk0ITk0JTABINgAGTgAST08FNEtvNksAUUwDTwAXNAAxUQACNgAXTk0LPk4vsEMqNJBOAANPTgw0RgiwQyUDkD4AQ7BDKxyQTwAFTEsCPUgHNAA2sEMnA5BMAAg9ABmwQysNkD5OA05PT7BDJR+QT04ETgAXsEMqSkMkBZAyTQw+AABOUxRPABSwQykwkDIABDRLA0xWFLBDJAeQTgA0sEMpA5BMAB02RAVKVxU0ABCwQyU3kEoAArBDKQiQN0sGTFMHNgA7NwAOsEMlEpBOVANMAAU5Sx6wQyklkE4AHE9TAzkACLBDJRWQO01DTwAbUVMSPEgQOwBHU1UHPlQLPAAHUQAvPgAkVFYFUwABQExXQAARUVUBVAACQlBBsEMpA5BRAAlCABlTUgFDXCWwQyQCkEMAIVMAGLBDKRWQTktUTgAZT08CO1ItOwAYTwAoSkozSgBRTE8IPFInPAABTAA4R0kxRwBLSFABQE0hQAAPSAAvQ0c8QwA1PEkHRU4XPAAoRQArSE09SAAqOUsPQEwQOQAbQABKQ0kvQwAjsEAjE0A7A5A+VAtCSQawQD0CQy0VkD4ACbBAPBOQQgAmsEA9FEA8A5BFTBCwQDcBQykRQDITkEUAArBDLjZAKQqQPEkAPkcKsEAAEUMqIJA+AAWwQy8PkDwAGDtCCEBHOkAAGTsAAjlJFkJOErBDNA+QOQAgQgAIsEMvFJA3SQhDTjKwQzQOkEMAIzcABrBDMAKQNkYLRUtINgAERQARR0YBNEdGRwAONAASSEwDMkg3SAABMgBCOUQMSkY7SgAOOQAbMEcITEcfMAATTAASsEM0JpBOTAY5PzOwQy8HkDkABE4AG7BDNAyQL1UKT0dcsEALBZBPABFRSQ2wQAA+kFEAD7BAEgKQLwASsEAACJAtSQVKRiQtAAWwQzgakEoAI05BIbBDMy2QTgAOsEM4GJBPRQIvSiEvABGwQzQgkE8AHFFCD7BDODeQUQAjsEMzIJAyPwJKOxawQzgMkDIAC0oANrBDMwiQTzw/TwABsEM3M5BHRAc3QhWwQzMRkDcAA0cAI7BDNxyQTz5DsEMyJ0M2ApAvRwBPAAdKSSYvAA1KACCwQzIUkFFIKLBDNzuQUQAOsEAjAEMyDJBPTAewQEIAkDBRFLBAPhNANAFDNxJAEBNAABGQTwAFUU0isEATAUMyEkAbNEAAAUM3CJBRABkwAAMyTwNMRh8yABiwQzMVkEwAJLBDOAiQTkJLTgAdNEsLT0wdNABTTwACUUtNUQAoMEUCTEseMAAQTAA5T0lEsEAXAkM0BJBPAAywQAAOkC1IE0hNBbBDOBeQLQAfSAAoT0oDsEMzN0M4PZBPAA0wTAhMUBkwAAGwQzQdkEwAH7BDOBGQT05NsEAhJUAXBpAySwVOTwdPABSwQBInQBwQkE4AFbBDNAWQT05qsEAUA5BRTgJPAAUyAAQ0RwawQAAikDQAF7BDOB+QUQAETkxLTgAxSE0FNkYiNgALSAA7TEaBB0pKATdGAUwAMDcACEoAKUhFJDccGEgANjcAC0dJBDJKQkcALE9FV08AEjIAATxAEkVIIzwAEkUALE5HeDs8Dk4AAk9FgiA7AAI3OwdPAAFORHNMQQJOADZMACI7NQFKSiVKAAs7AEBIRDlIACY+PgxHPBg+AApHAEBFQDZFAExDQSWwQzw6QCoTQD0TQEcUQE4TQFMRQFcTQzgUQF0zQGEKkEMATjcAKE5YH04AH7BAXRNATwKQRVcRsEAnEUAAC5BKQQmwQzwPkD5HKE5ZKbBALgiQSgALsEBCEUBOEJBFAAOwQFsCQ0IRQGoUQHkRQH8TQz5ekD4AATxDFbBDOSNAeyOQO0oDsEBzFEBrAJA8ABGwQGIBQzQSQFcUQFETQE8MkDlNBDsAAbBDORZATRJASRRARgFDNAGQOQAxN08ZsEBBAEM5IEA8EkA3FEA1AUM0EkAyEJBOAAGwQCQAkEpWATZPATcAErBAAFaQNFEHTFIFNgAASgA0sEM5J5AyTwI0AANOVg6wQzQGkEwAMjIAFbBDOQSQTgAGT1cFOUk7sEM0KpA5AA6wQzsCkDBPAlFSD08AObBDNgyQMAATUQAETlAVsEM7ApA5TCSwQz8ykE9PAjkAAS9WAU4AAbBDOzeQLwADsENDXUM/J0NENENIFJAyRAZOSQZPAAiwQ0QQkDIARU4AB0xFTrBDQAqQTAAMN0oASlAPsENED5A3ACFKACpITEtIAB85UAJHUBywQBkTQEEBQ0ATQFMDkEcADbBAYwJDRBFAageQRVAzsEBlFEBgAUNABpBFAAywQE4SQAANkDtNAENJAzkABLBDRROQOwAcQwAnR05HRwAqSkoQN0cLsENBI5A3ACOwQ0UQkEoACE1JSbBDQR6QTQAGsENFCZBMRwI8TgiwQBwTQCIHkDwADLBAAEmQSkEBTABQSgAMSEUTQEchQAAVSAAjR0I7RwA2RUsFPEYjPAAZRQApTk5KTgAgT1QCO1AiOwAlTwAGsENKNZBRUSawQ0VCkDxQC7BDSgGQUQACT1ATPAA1sENFG5BPAAFOTVxOAAdPUAo5TQ+wQAsLkDkAB7BAHBRAKRJAMBNANAiQTwADTEkGsEA4FkA9DZBMAAKwQD8TQDoEkDkaELBAAACQOQANS1gEO1IBsENJC5BMPW1MAFg7ABo5PQZLABtILRFHIQ5IABtHAAY3PQk5AG82Swo3AEA2ADk0S1hTVwI0AAkzTw6wQBAUQABBkDMAAlFQAVMABjFKQjEAGS9CFk9MElEAJy8AFE8ABU5RCjZPIE4AMjYADkxKEC1QBrBDTQCQSjwcSgAJLQARTAATS1EMNk0asENJC5BLABM2AAewQ1ApkExWAStFFyk9BUwAGisABCkAQi1MArBDVm2QKkwJTlIDLQAgsENaCJAqAAFOACFMSRYtSAiwQ1UGkEtQDUwAFrBDWguQSwAGsEAdFkA8B5ArUwAtAABMVQqwQAAekEwABrBDVRaQKwARsENaKZAtRVItAA0qRgxOUC5OABEqABNMNwtNLQEtQQ9LUQlMAAdNAClLAA4tABErSgBMWQywQDYVQC8CQ1UPQAATQ1oAkCsAOS8/KLBDVkdDWgWQLwADR0sBKEsbRwAmsENWHZAoAA0rRVgrABQtTxJITRWwQCYGkEgACS0AA7BAAAJDWi2QL0MxsENWJkNaDJAvABYrSBFKQyqwQ1YGkEhMBCsAC0oAEbBDWhGQL0YISAAMR0kfRwAaSFECsENWB5AvAAUtRyBIAAywQ1sOkC0ALy9FH7BDVydDWxiQLwAPK0oQSkA0SE8HTAAHKwAYSgAVL0cNR08BSAAbRwAcLwARSFUILU8OSAADsEApFUAAAUNfHpAtAC8wR0SwQ2MSkCpPBDAACVFYDUhCE1EAA0gAC7BDXDaQLUwhKgA1LQAiT1cBR1cDL04WRwAATwBSsEAfJkAAEENhRpAxRwFOVghFSwYvAA2wQA0BQ10RQAkUQAAQkEUAHzNOIDEANDMAITRSDENSLbBDWBVDVB2QNk0NNABMN0oLNgAAQwAQTE0VTgBCOVMLNwA5sEALFEAQCJA5ABBMAAc7VwSwQBYOkEJSGDsAFLBAACOQQgAaRUZWRQATL1ABTE8fLwBLTAAHS0pLsENZMpA0SwVLAAVMTIFxNjgASEURNAAUSABCNz0LNgBfNwAGOUQER0MfRwAjOQAlO0MqsENVQ5A7AAU9RQNFQSNFAD8/SAo9AEs/ACVAThBDTAdMABdDADxAAAk9Umg9AAk+VRRMVCZMACU7VBY+ABCwQ1ojkDsAMzs4Az1ZF0VYBzsART0AGD5UIbBDViZDWwuQPgAkPVQCRQAKR0YjsENWNZA9AAGwQ1sMkElPCUcAATtNOLBDVQ6QSQAfSlADOwAFOUtjSgAEOQAGN0wPTE1jNk0ENwAITlEHTABNTgAGNgAMT1ICNEx3UVABNlQITwAGsENZEZA0ACE2ABewQ1UBkFEADU5RDT5MH7BDWkeQT1MMNFAMsENVB5A+AAFOADGwQ1sVkExSBz1TDzQACE8AKrBDVQOQTAAIPQAasENaCJBOUgc+VIEAT1IaTgBXMk8CTlIDsENVEZA+AApPAEtMVgc0TggyAAlOAAewQ0kUQ0IckEwAHkpZCDZFFzQAF7BDPRKQSgAkTFcCN00XNgAyNwAcTlgDOVIPTABATgAdT1UOO1QQOQA0TwAYUVQNPEseOwBFU1MOPlcIUQADPABNPgAZVFUEQFYJUwAMsENBOEM9A5BUAAlAAAdRURdCVyOwQ0IJkFEAIEIAClNOE0NbIkMALrBDTAeQUwACTk1VsEAQAUNIE0AyDZBPUAJOAAOwQDoBQ00CkDtZR7BDSAmQTwAMsEA9CJBKTAqwQEACQ0QSQEMTQEYBQ0kQkEoABLBAShFAUhFAXQ2QOwADPFgCsEBhBpBMUBCwQE8SQAAHkDwAEEwAM0dLMkcAPLBDTRaQQFEGSE0VQAAdSAAxQ0Y1QwAdsENJFJA8Vg5FTA88AAawQ00gkEUAM0hMDLBDSCdDTAqQSAAtOU8HQEwaOQAUQABEQ0grQwBBsENRCZBCTQE+VgmwQDcPQEUAkD4AFLBASwKQQgARsEBPLpBFTh2wQFEgkEUAQbBASQeQPkYWPE8DsEAwE0AADZA+ABY8ADBARwE7TTVAABCwQ1UNkDsAFkJMBTlPNTkACUIAJUNNDTdNL0MALzcADjZKAkVLOkUAAjYAKTRLCEdJF7BDWSKQNAAQRwAgMkkGSEomSAAcMgAxOUUBSkctSgAdOQAYsENdCZAwRgVMRiVMAAowAFpOSgY5PxNOAD85AExPRAQvOBGwQBkTQDoTQEQTQEclQEoJkFFBCbBATQCQTwAUsEBPE0BSFEBUFZBRABGwQE4SQDkAkC05AEpDDy8AA7BAABuQLQATSgAkTkEgsENiNJBOACBPRA8vPCYvABtPAChRQC9RAERKQQMyQjUyAAVKADpPPlFPAChHRAE3QSg3AA1HAENPNkhPACMvQAJKQiAvAAdKAExRPBGwQ15OkFEAEbBALwyQT0ACMEMFsEBBFEBHAkNYIUBKJ0BNB5BRQQuwQ1QDkE8AELBATwFDTjlARgGQUQARsEAqC5AwAAEyTABMQQawQAACQ0kTQ0QGkDIAPUwAHk4+T04AIk9KAjRMCLBDQBiQNAAPsEM4PJBPAAhRSFdRAB9MTQ4wPB5MAAYwAEJPRU5PACUtQARITw6wQzwdkC0AG0gAIU9JbTBHCUxQBE8AEDAAREwAHk9QZ7BDOAiQMkgLTlMHTwBaTgAOT1RxMgAHUVABNEgETwAjNABJTk8LUQBZTgATNkQBSE1KSAAlTEJnsEAcAUM8A5BKUAw3SAOwQCMMkDYABEwAF7BAExJAABCQSgALSEiBB0gAFrBACwKQMkgGR0sDNwAasEAAPJBHAB9PQRmwQA8SQAASQ0ESQ0UmkE8AAbBAIAeQPD0JsEA1AZBFQROwQD8TQEAUQD0SQDsCQ0sTQD0CkEUADjIAAbBAQQWQTkMPsEBEFEBGJUA+EkA3AUNRE0A1CJA8AAewQDcPkE9BCE4AAzs6DrBAMhNAHRRAABNDVhJAEhRAJRBALidAKidDWxRALIEDkDsABTc4A08AB046f0w5BE4AakwADjs0DbBDYAiQSjgbOwAnSgATsEAqFkNlBJBINwywQ2tTkEgAH7BDcQKQPjQNRzkDsEN1KJA+AAhHAESwQ3kbkEU5LrBAKDpDfoEBkEUAPUMtDrBAJCZAHxNAFxJAAIJUQA0VQBMSQBcQQBwUQCETQCYTQCsSQC8TQDIUQDQkQDgnQDsUQD0QQD4UQD8TQEETQEIRQEMnQEVKQEglQEslQE4mQFIVQFQQQFcmQF0nQGJwQGaBOpA3AC9DAIEksEBhJEBcFUBYEkBSE0BNE0BKEkBIJkBFE0BEI0BDEkBCFEBBE0A+E0A8EUA4FEA1gghANzhAOk5APCRAPSdAPklAPyZAQExAQSdAQiZARDhARjRASCdASjdATCZATiVAUSdAVDlAVl5AWoVWkEdDEiswGbBAWBRAVhJAUg6QRwAFsEBMBpBFPw6wQEUSQD4VQDoikEUAA7BANxFAMgyQRz8IsEAmE0ASEkANgRdAFxNAHCdAICRAJDlAKXJAK4FyQCglQCQlQB8NkDczCLBAFydAAGmQKwAssEAXEkAkEUAuFUA1EkA6FUA+EkBCFEBFE0BHEkBJEkBLE0BOFEBRC5BIQQSwQFUVQFoNkEcABbBAYBRAZxNAbhRAcxNAeCdAfIIWQHMTQGMGkDQ3DLBATRJAOAKQR0cRsEAsJkAwAZBIABSwQDUSQDoRQD4VQEAEkEcAEEVBNkUAAbBAPweQR0MLsEA+E0A9EkA8CJBFQQFHAAuwQDoTQDUVQC8RQCqBF0AvEUAygSGQRQARQztXsEAwNkAsFUAoC5AvMQWwQCEAkEMAAUpDDTQABLBACxRAAIE+QBcTQDESQD8SQEcUQE0TQFMSQFsSQGITQGgUQGwmQHInQ3oQQHY6QHoLkEoAQLBAfoEFQHoQkC8ABLBAcAaQSk8LsEBhD5AwNAGwQFQVQE4nQFIjQFcSQFsUQF8ykDcALEoABUxFUkwACUpGEbBAUhNARRJAORRALgGQSgAQsEAXBpA3MwBMSQ2wQACBDpA3AIEgsEAJXJA5NAOwQA0nQBKBApA5AIEpsEAAXEATDJA7OgSwQCgXQDgTQEIUQEoSQFERQFkVQGMRQGwIkDAAC7BAcwGQOwASsEB4JkB8DZBMAIIfsEB1AJA8LQQ5LRCwQGgFkENAD7BAWRJAShJAOxRALBNAKIMAkEMABEI4dbBAKyGQOQAFsEAuOkAwgVOQOTMOsEAuBJA2Lhg8AIMAsEAsEkAlA5BIShKwQBMRQAADkEIASrBAHRJANxNARBNAThRAVhFAXxNAZxRAbTlAcSyQSAB1NzQYNgACsEBpBJBIPw+wQFkEkDkAD7BARhFANgOQSAALR0EHsEArE0AnGJBHAAxIR0FIAA1HPW2wQCMmQBqBBEAhEkAoFEAwE0A2E0A5E0A7JUA8OEA9V5BFPS9HABtFAGewQDwTQDoTQDgNkEVCCbBANQiQMjEIsEAxFEAtE0ArXEAjgiOQNDhlNwAxNACCFTY1gQs2AIIuOTeBBzkAgXawQBkUQAA9kD4wNbBAGRNAKBJANhNAPgaQMgANsEBDEEBHFUBJEUBNFUBREkBXFUBeEkBlFEBrEUBwOkB1NEB5bpAyMwSwQG0UQGARQFcUkEUAJbBAXRJAYxNAaRNAbTqQMgBdsEBxgg1AaBBAXQ2QPgACMDQEsEBPE0BCAJBORxSwQDgTQDM5kE4AAkxJIrBAMDuQTAAQTlCEcbBALBFAJRRACxJAAC6QOTCBDrBAFhNAJBNALxNANxRAPCBAQRNARRNASBRASxNAThNAUg6QMAAFsEBWFUBcEEBjE0BrE0BxFUB2AZBPTAhOABqwQHpNQH+CO5AwNwSwQHAUQFUWQDUEkE5ICrBAAChAGQiQTwAIsEAuFkA5CJBOAAqwQD4OkExHM05FAUwACLBAPztAOwGQTEcTTgAMsEA1E0AvgQVAMRJANExANydAOjhAPBRAPU+QSkUHTABTsEA4E0AwE0AbFEAADJBPSQZKAAgvNAMwADE5AFmwQB0UQDQTQD4UQEQSQEcUQEoRQEwUQE9aQEoSQEclQEsPkDIzA7BAUA2QLwAHsEBXE0BhEEBsFEB4EkB/JpBPADsyAIF1sEB6CpBISQWwQGkAkDQzADczFrBAVxRARxGQSAABsEA+EUA8B5BHSE5HAB9IQ4JzsEA5JkA2JUAyFUAtEUAngWiQMCk6NACCeko7LkgAgSZMQR1KAIEzMAAgRTsETAAEsEAgBpAyLBGwQBcPQACBCEAJEEAmFEA2EkBAFUBGEEBKEkBNFEBQE0BTFEBXJ0BfEkBkFEBoJUBtgnVAYxRAVwqQNi4ASjkIsEBHEJA3AASwQDQJkEUACLBAHzlAJhRAMBFAOhJAQBRARAuQSgAHsEBHFEBKFEBMEkBQFUBTEEBYFEBcEkBgJkBlM5A0MTI2AIEaSEVQsEBgKEBZE0BSEUBJFEBBE0A8FEA5C5BIAAFHOgE0AAo2KAywQDcUQDUSQDIUQC4TQCkSQCQoQCCBFkAcggZAIBVAKhJANBRAPQCQSDwQsEBEFEBIFUBMBpBHAAywQFAgQFQUQFkFkEgADrBAXhNAYxJAaCdAbCVAaBRAXxJAURRARAqQNy0IsEA9BZBIPQ6wQDwekDYAgTtIABlHOAQyACtHABRIOEtIAAlHNAOwQDgSQDYoQDQ3QDJxQDBtQC4nQCsTQCknQCMmQBwikDIrAbBAFhRACRVAAIEAQBsVQCwCkDIAELBANxRAPRJAPyVAPhRAPRJAPIEckEUzGEcAC7BAOoN4QDglQDYoQDMHkEMlBishCEUAD7BAMBVALBJAJxNAInBALhRAOBRAQRJARxRATRRAVRBAXxJAahRAdRNAfSuQKwAcQwBZNwCCf7BAdhNAchFAbhRAaRJAZBRAXxJAWRVAUxJATBRARBBAPhRAPCdAORBANRVALAiQU0kKsEAfDZA3LQSwQA0VQACBBEAXFEAiEUAqE0AwFEA0E0A3JkA6E0A8FEA9IUA/EkBBE0BCFEBEGJA7Mw+wQEYTQEgmQEwRQE4BkDsAEbBAURVAVBFAWCVAXyZAZSdAaoEWQF8QkEA4BLBAURNAQxJAOyZAPhFAQRRARRNASRRATBJATyVAUhRAVSZAXBFAYRRAZhJAaidAbzhAcwCQT0wwUwAYsEB4DJBPAIEvT0MrTwAUTkchsEBtCZBOAAtPQgGwQFYSQDgOkD46BLBAAA2QTkgDQAAETwAlsEAaE0AuEUA4FEA9EkA/FEBBE0BDEUBFFEBIEkBLFEBPE0BSFEBWEkBaFEBfEUBjFEBoEkBtJ0ByTJBOAIEWTEaBFLBAbRRAZQyQPgACsEBWFUBDBpA3AAVRSAE9NwewQCoUQAAHkEwAVrBADxVAFxJAHBNAIRFAJhRAKhNAMBRANBNANiVAOVyQNy8CsEA7FEA9EEA/FkBBEEBDFUBGEEBKFUBOCZA3AAiwQFEWQFOBAEBREkBPJkBLE0BIEUBFFUBEFJBKQw02LxewQEMUQEIKkFEACLBAQRJAPyqQPQA2sEA+gXNAPQSQOTNSOQAJsEA6JkA4OkA2JEA0JUAwFEAuE0ArE0AndpA+NAywQC4RQDUSQD0UQEITQEcTQEwTQFIUQFoTQGMRQG4TQHcAkD4AE7BAfYFVkExFL0oAgQlORyFMAHWwQHQTQGgTQFoUQE0SQEEUQDYJkEdBCTcrAbBAMheQTgABNgCBDbBANSVAN4EpQDlOkDYogQc2AIIZNDCBKzQAGUo6TUcAgQFJQQgyNQlKAAiwQDuBF5AyAA5HSA5JAIE1TEoKMTQ2RwBQMQAqT00QTACBB7BAOBJAMxFAIRRAAAiQLzUCTkgBTwBUsEAcCZAvAA2wQDQPQEIUQEoSQFIUQFkHkExKCrBAYBRAZxJAaweQTgAgsEBwOUB2JUB8AJBMAB1KSgewQHgBkC04FbBAZxBATAmQNwALsEAfCpBKAAiwQAAHkElDOEkAAko8M0oAEUk6gRiwQAk5kDQ5bLBADS+QNABnsEATX0AXSpA5NBewQBx0kDkAILBAIIFtkEc+CTcwKEkAYjcAgiWwQBYCkEcACEU2CLBAAAOQNisMLQCBUrBAFBJAHBJAJBNALBRANBJAOhRAQBNARBRARxFAShNAThRAUhRAWQGQMi8QsEBhE0BqEkByFUB4EUB8CZBFABE2AAwyAIFSRUApRQAONDkJQ0EHsEBqE0BVDpBDAASwQEQIkEVFCrBAOydAPAaQQ0MDRQAbsEA9YZBCTAhDAIEIQgAOQ0wFMj+BATIAQLBAPIEFQDkiQDYSQDIVQC8RQCwYkExHDbBAKASQMTgwNAABQwAEsEAkO0AfgiSQNDd3NABisEAaEkAUE0AAgSpAFwyQOTkVsEAuFEA8E0BEE0BKBpAxAAuwQFAUQFcSQF4TQGYVQG0SQHImQHaBA0ByE0BuFEBoE0BiCJAvOQqwQFsHkEpHDbBAVBNATA+QTAACsEBGFEBDGZAvAA6wQEI2QEEikElMBLBAPw6QSgAssEA+JUA8OUA6JEA4IJBPUAMtPQOwQDYVkEkAJ7BAMxJAMSFALhJALCdAKSRAJBRAHBNACRNAAIEYQA0RQDIHkDJADbBAQgmQOQAIsEBMFEBWE0BgFEBqEUBxBpAyAA+wQHZokE5PAU8ANU4AK0xHBrBAZhRAVhJARRJAOBJAMSCQUVAJLQAAMToATACBN7BALzlAKQ9AGhVAAF5AHxNANBNAQQWQKzcOsEBKFEBRE0BYE0BfEkBlAZArABGwQGlckE5JRVEAaLBAYxNAXRVAUxFARxVAOwCQMjcATEEIKjILsEA0B5AxAAmwQDICkE4AOLBAMIJakDIABDQ3Bko9AkwAXzQAgRKwQC4lQCw6QCpyQC8BkDYrErBAMhFANhVAORNAPQKQKgAPsEBAE0BCEkBDJkBGJkBJE0BLJEBOJ0BRXUBNEUBGE0BDFEBFAJArKwFHPRGwQEoTQFEEkEoADbBAWxNAaBRAdRNAfwGQKwA6NgAIRwCCGDQ6DLBAbwOQLTEQsEBbBJBKSA+wQEkUQD4TQD2BOZBKAA5JNjZJAB1KPUQ2OgSwQDwYkDQABUlFAkoAJTYAP7BAOnJAOExANl1AMzlAMQ6QNy0+sEAvcEAtgQZAKzhAKBRAJBNAFyBAACWQSkQmsEAeE0A2CpAtAABJAAqwQEQUQE4RQFgSQGQMkEoACLBAcBNAeIJBQG0TQGAAkEo6BzIuC7BAUxRARxNAPRFAOIMkkDYvFzcAgSo0NAk2AG0yAGw0AA42L4NOsEA2FEAxE0AdA5AyMQ6wQAByQCwPkDIABLBAPxNAShNAVBRAXRJAZxFAbhNAc0qQNgCBUrBAbiZAZRJAXhNAVhNATQuQJikIsEBFFEBAE0A9JkA4EkAzE0ApEkAaE0APJkAJE0AAgTlACRFAHBVAKhJANxVAPhFARBRARxRASxBATxRAUxJAWhVAYhJAaxJAdRJAfg+QJgAWSgCCMbBAeSVAcyVAbCZAZiVAYDdAXCZAVxJAUxNATxJAShNARxNARRJARCZAQyhAQhFAQRNAQBRAPzmQKy8lsEA+EZBHQSewQD00kEcAA7BAOgmQRUNMRQALsEA4DZBHRHiwQDaBKUA0J0AxNUAvgQJALYJCQCsgkDcrGrBAJBBAHxNAFxVAEyJACRRAAG2QKwCBMLBAEiJAHQmQSEYJsEAkFEAqFEAxEUA3BZBHAA6wQDwTQD8TQEERQEImQEOBUUBBE0A9EkA6FEA3ApA0Mw5HRgKwQDVOkEgAgQJHAA5FPzRFAAuwQDMCkEc/ELBALRJAIBNAAAiQRUACRwCBMLBAEBJAJxNANhJAPhVARBFARxJATBRAUBJAVhRAWxJAYAmQRQAMsEBlBZBDRg2wQGoTQG4lQHUmkEMAE7BAeUxAbg+QLzMEsEBkE0BZEZBDOgGwQE8VQEcCkDQADrBAQRNAP15APQ6QSkEEQwAUsEA8J0A5FUA1EUAwE0AqEkAgE0AAXUAwJEBDFEBQEkBdE0BqEUB0FEB4epBKAHqwQHMUQGoSQFkEkC8AD7BARwyQSkcFsEA5BZAwMhGwQDY4QDiBIJBKAA83AA1MRU9MAA1KSSmwQ3YlQ3IAkEoAAjc5DUxMPbBDbFtDaAuQNwAasENkJkNgOENaE0NTE0NJFEM/E0M1E0MsE0MlEkMhEZA5OhWwQxslQxMnQw9YkDkAgR2wQDYTQDMTQC4SQCsnQC4GkDs5C7BANQFDCxJAPBRAQhNARxFASxNATxRAVRJAXCNAYwaQOwAOsEBrFEByEJAwAAGwQHkRQH1jkEwAgQKwQHcSQG8HkDwxAjkwCEM9ArBAYxJAVxRASRJAPRNAOIJpQDoOkEI7BEMADrBAPChAPQ9APg2QOQAbsEBASkBBJEBCgWNAQQaQOSwINiwGsEA+EUA7B5A8AAuwQDkmQDeBdUA0E0AyEkAoFEAQE0AAFpBIQTWwQCEUQDURQEEAkEIAFbBAShJAURJAWRRAYhJAaBRAbUlAcQ+QSACBBrBAbRNAYA+QSD8CNy4BsEBNApA5AAo2AAiwQD0UQDcSQDkUQDsRQD17kEgAC0c/QEcAGkg1Q0gAC0c3gWSwQD4DkEVAH0cAArBAQSdAQjWQRQBrMjALRTofsEA/E0A8FUA5gnGQNDOBMbBAO0tAPF9AOiCQNwAENAAoNjmBATYAgko5MYEHOQCBVrBAOIE1kD4sFrBAOxVAPhJAQRNARBFARhNASAOQMgARsEBKE0BNE0BRFEBWEkBbE0BhEUBmFEBrE0BvE0BzJUB5OUB9B5BFAHgyLIEHMgCDHbBAdhVAbgeQMDAHTkgEsEBkEUBcE0BWFEBPEkBIAJA+AAlOAAmwQEQAkExGW0wAC05KDLBAQ4QgQEInQEETQD8SQDwTQDcUQDNDkDkvGrBANxNAOxFAPhRAQRRARCVARxRAShNATBBAUBZAVQKQMAAPsEBaFEBhE0BmEUBrJ0BwTUB0FJBPRRlOAIFDUUcdTwCBM7BAbhCQMDQBsEBgDpBPRAawQEsHkFEADbBAMRNAHiZAJRJALhRANxBAPBRAPxZAQgGQTkwQsEBEE0BGCJBPAAuwQEgUQEoQQE0UQFASQFMWQFciQF0BkExNJbBAY0uQTgBDSlAXTABUSgCBSbBAWgiQSkYBLzAJsEBQE0BEEpAwAAKwQDwTQDlbkEoABE9EXDkAOrBANxRAMxRAJBFAAC6QMjEdsEASEkAxE0BBFEBMEkBWFEBhCJAvAAywQGoLkDIAB7BAcSRAdoFSQG8QQGUUQFgEkEg+DTQtADcuArBATQOQTwARsEBDEkA8PJBIABBHPkxHADNIOIQlsEA6gSmQMCwlNACDPEo1JUgAgSxMORRKAIEsMAAVsEA3EJBMAAGwQDMPkEU3A7BALAOQMicSsEAkgQBALRVANhFAPhRARBNARxJAShNATRJAURRAVhFAWxRAYBFAZRVAajhAboMyQGgVQGQQkEo5AbBAWw+QNigFsEBOD5A3AAOwQEETQDcMkEUAG7BAOhFAPyJARRJASRVATRJATxNAURRAVBRAVgyQSgAXsEBbgRaQNgA2NCqBFEg8gS+wQFcSQFMRQE4LkEgABUcyATYwArBARhVAPQuQNAAGsEAxFUAgEkAAgTlAFxJAKBVANhJAPhRAQxJARhNASCZATBNAUBJAVBJAWRRAXSZAYyVDD0tDFCdDGQqQSDsasEMgJ0MnC5BHABhIAAGwQy0pQzQRQzgUQF4BQzwSQFITQD0CQ0MRQAAHkDcwBEg7GLBDRxmQNgAhsEAXFEAnE0AwE0A1EUA3FJAyAFFIAAiwQDkWkEc2N0cAGUg5H7BANiqQSAAQsEAzE5BHLRGwQDFgQC+BA0NDgQVDP0xDOgGQMieBHzIAgiNFLiRHAIQisEAtB5BDKQgrHw1FAAywQCsRQCgTQCQUQCAkQBxZQCcVQDISQDsUQEITQEgTQE0TQFMLkEMACbBAXBFAZRGQKwABsEBuFEB1FEB5JEB+gRGQNwAFsEM+gWVDQjhAeCRAciZAbhRDRidAaTdAZCdAXyBAWhNAVRRATxJASBRAQhJAPhVAPRJAOhRANgyQU0YEsEAsEJA3KAWwQBkTQACBA0AaFEAnE0AwEUA3E0A7E0A+E0BBEkBCJkBEJUBGJkBIJ0BKBJA7KjSwQE1MQFAXkDsAELBAUktAVIE5QFITQEsLkEApB7BAQhZAPCNAPhNAQRRAQxBARSdAR11ASUxAS3CQUTwcUwCBI09EOLBATQKQUQCBIU8AAbBASwCQPjoBTkUUsEBHE0BAD5BAAAOwQDkUQDcnQDoTQD4QQEEVQEQakE9IBk4ABrBAR0tASSdATCVATiVAUBCQTEwKTwAdsEBSOkBUOEBWgWJAUhNARw+QUUYDPgABsEAuBJBMABCwQAABkDcACT00MLBAFiFAMRBAPhVARRJARyZASilATRJATxBAURVAUxRAVkpAWhOQUQAiNzOBe088cU5BBU8ADLBAUxJATBNAQxFAPRNAOgCQTgAHNi4ATEEINwCDMT0AEEo7BzknEEwANTkAgS+wQDiBPUA6E0A9AZA+KxKwQEERQEUUQEkSQE0UQFQUQF0SQGkSQHUUQH81kD4AgUxKACNMQ4FKTkMUTAAxsEB2EkBvEkBmE0BZFEBKE0A6E0AqEkAoHJBHQQY2AAA3MAVOAFywQC4UQDMTQDgUQD0RQEAVQEKBepA2OoEtNgCBcTQzCrBAQYEvkDQACEpBWkcAgQUyOAJJRgJKAIE0MgANR0sOSQApsEBAX0A/PpBMSw0xMBhHAHIxACpPSQ5MAA6wQD5MQDwRQDkTQDESQB0UQAAWkE5HAk8ABy8yLLBAFxRALhNAPSFARxRATBJAUQKQLwASsEBVE5BMSRKwQFomkE4AcbBAXjmQTAAFLTYKSkYWsEBUEkBHFEA6BZA3AA6wQDUSkEoAFUlCP0kADUpATEoACEk+gRA0O4EENACCRjkxYjkAgktHOxE3LRpJAFo3AIJhNioDRTQBRwAsLQAVsEAzX0AxTEA0E0A3EkA5EkA9FEBCE0BHEkBKE0BPFEBUEkBbE0BkE0BuFEB4C5AyMAiwQH9vkEUAHjIAFDYAgRlFPSRFACmwQHYEkEM4DrBAYhVATAmQQwACRUkDNC8FsEA+EkA5FpBFABFDQ4EOQwAOQkuBKUIAFENLDTI3bTIAKbBAO4ItkExKCjE7GbBAOSKQNAABQwA8sEA3OEA1gXGQNDtwNACBQbBAMhVALRJAHxNACVpAJw2QOTYFsEA5FUBECJAxAAqwQEwRQFMUQFwVQGURQG0UQHMnQHiBOkBzJ0BrEJAvNQOwQGYNkEpJBLBAYBVAXBaQTAAQsEBVEkBSE0BQEkBOE0BMN5BJSgKwQEoFkEoANbBARyWQLwAmsEBFEUBDE0BBFUA/GEA8C5BPTAewQDgDkC07DEkABbBAMBNAJBNAGyFAFxNAExRACxJAAIIJQC8NkDJFA7BAQAyQOQAHsEBKFEBSE0BZFEBfEkBjJUBqBpAyACCwQG8qkE5KDE8AIk4ANExNIbBAahJAYBFAUhNARRJAOxKQTAACsEA2ApAxNActAAJRTYEtsEA0J0AyE0AuEUAnE0AdFEAJE0AAOkAXEkArE0A7CZArOAmwQEQUQEoSQFAUQFYQQFwDkCsAEbBAYhJAZhRAaydAcCGQTkZhUQBysEBjFUBUDpBMQgSwQEUDkCorADIzDrBAOw2QMQAFTgADsEA4gw6QMgALNDIHSjoDTABYNACBKLBANoEDQDgTQDoUQD0HkDYzDbBAQhJARRNASBNASxNATxFAUwKQKgASsEBZFEBgEEBnFEBtEkBxOkB2gSVAahNAXAeQRz8CKzQLsEBNC5BKAAawQEYTQEkTQE8VQFkFkCsAC7BAZBSQNgADsEBwEEB5BJBHABCwQH6CD5AtNwywQHAMkDQ1BLBAXwKQSkUUsEBPEkBEE0BCOkBDaZBJPwJKAFBJABNKQBOwQEI0QEEZkEoACTY4AUlBF7BAPw2QNAAGsEA+EkA9BZA2AA+wQDxxQDk4QDYSQDQTQDI5QDAUQC4UQCojQCU5QB8AkDcqJrBAGyVAF3FAE4EGQA8mQACBBJBKQDSwQCYBkEkAE7BAOhNARQuQLQAFsEBNFEBTBZBKAA6wQFoUQGITQGoSQG8nQHWCGkBsBpBKOgMyLAmwQGATQFMSQEcTQD4TQDyDHJA2LA03AIEuNDkNNgAoMgCBMjYwEDQAg2WwQDkTQDUMkDIvB7BAKxNAGRJAAExAGxNAMQyQMgAHsEA/FkBID0BOFEBUFEBbEkBhEEBlgTaQNgCBMrBAYBRAXBFAVQmQJiIJsEBNFEBGFUBAEEA8FEA5E0A2E0AxE0ApI0AdE0ASE0ANFEAJEUAAcUAaE0AmE0AwE0A5E0A/FEBDEEBGFEBIEkBLFUBOEEBTFEBaE0BiE0BqE0BxBZBKAAImAA2wQHgSQH2CdkB4JkBxNkBqE0BmE0BiFEBdEUBZEkBUFEBPEkBJE0BFEkBCO0BBEUA9FkA5EUA2gjKQMjEJTj9UTgAQTEJZTAAVTkKFObBDQjpANA+QPjGBCLBANhJAOABDPhRAOhNAPBNAPxNAQhBARBVARxJASQmQMgALsEBMIkBPFEBREkBTFUBWJEBbIJBPSAWwQGEikE4AA7BAZSdDOiZAaYEVQzaBB0BiEUBYD5BRQgOwQEoIkDwsDbBAOQuQTwAHsEAkEUAfOkAtFEA4EkBBFkBFEEBIAZBRABKwQEwTQE8SQFMUQFkSQF8TQGMmQGiCUpBOP4EUsEBjFUBeEUBUBJBKRQ88AAOwQEcDkDswBE4AC7BAMAWQPgAOsEAAbkAaFkAqEUA1E0A8E0A/E0BBFEBCJEBDJ0BEUpA+OQywQEZIQEglQEolQE0mQE85QFGBLEBNBJA7AA2wQEYAkE9IATw4EbBAOAOQSgARsEASB5A+AAuwQAA7QBsSQCkSQDMSQDkVQDsSQD0SQD4nQD8SQEEmQEJwkDs5GTwAgluwQD8TQD0TQDsKkDk9L7BAPBRAPRJAPiZAQDhAQRiQOwAPsEBCb0BBEUA9FUA6MJA3OQVRSwlPAA+wQD0OkDkABbBAPxNAQCVAQSVAQjmQU04SsEBDCpBRAIEcsEBBE0A/EkA9FUA6EUA3CZBMRAywQDQDkFMACDw1B7BAMQuQNwCCbbBANhNAPA+QMDAEsEBCFEBGFEBJEkBNFEBQE0BSFEBUFpAwAIF/sEBQE0BJEkBCEZAyLwKwQD6BBUA/JkBAS0BBYEA+SUBACpBKQgE7LgmwQEICkDwAE7BARQWQTAALsEBJEkBMFEBPEkBSBpAyAA+wQFUSQFgmQF8kQGaBUZA7ABGwQF4IkEg/BzkwArBAVgeQSgAOsEBOEUBJEkBGJUBEJkBDTUBCJUBBcEBAKUA/EkA9EkA6BZA4LA+wQDcGkDkAC7BANTpANxNAPBJAQRJARRRAShNAUBBAVgSQRz4QsEBdEEBjFUBpDpBIAAOwQG44kEcAA7BAcm1AaQ6QSkECOToCsEBdA5A4ABGwQE8UQEQQQEE7QEJgkEoAHEg8OEgAH0o9PEoACbBAQRKQNDQGSDVlNAAbsEBAE0A/J0A+S0A9EUA8gQqQLS+BbS0AgVRHNQhIAAYvKXgvAII+MCMQRTETsEA6BZBHAIEMsEA8FUA9CJAwADCwQD6BK0A8JkA5OJA0KBOwQDwRQEEUQEYTQEwTQFAHkDQACUUAA7BAVhRAXBNAZBVAaxFAcxJAeBeQOQCCJ7BAcxRAbhNAZiJAXhJAUwaQOSsIVEQDsEBHF0A9EkA5JkA2gnaQPCeBAzwAF7BAODlDMoEFQy0lQD0SQEIUQEYSQEkGkEIrG7BATBRAURJAWBVAXxJAZxRAbgWQOQAOsEBygXqQOTcdU0ECVACBM1FGBlMAY7BAaxNAZRNAWhVATA+QOQACsEA6FEAhCZBRAAZTQwKwQBkLkDcwAUIALbBAJhRANBFAPhNARQSQUwAPsEBKFEBPIUBVEkBbFEBhE0BmgVmQOyWBBDcAJkxFakwAbrBAXRdAUwiQTEUDNioIsEBJEUBEE0BDMZA7AFpMAA5LPYFZOS48OQCBdbBAQRBAPxRAPRVAORFANBNAKxRAJiWQPC0SsEAyFEA7E0BCE0BGE0BKFEBNDpA2AAWwQFESQFQSQFcmQFwlQGCBOkBWE0BNB5A0LgdMQQFLAAOwQEkVQEsQQE4UQFISQFcwkDQAHEwAME47gUSwQFMWQE4RQEYUQD4OkE4ABLBAOBVAMQ+QRzIBsEAnAZA2HAk8AAIzKwewQBQUQACBPEAkEkA4FUBDEUBKFEBQIkBVEkBbE0BgDJA2AAMzAAOwQGQnQGqBK5BHABKwQGQUQF4SQFkVkFFFgSewQFcTQFMUQEcSQCwKkFEAAjQ3CLBAAAOQTzxbsEAPC5BPAAOwQDAVQD4UQEYSQEsVQE8SQFMVQFcRQFslQGImQGZbQFwTQFYWkC0yATY0NrBAXCeQLQAWNAAPsEBgL5BOQ4ELsEBkS0BSFEA4BpAvMQ2wQAAIkExGDk4AN7BAGRNALhFANxNAPBRAPg2QNgAEsEBBJUBCHZBMAApLP0VLAApMOxGwQD8RQD0UQDsTQDkSQDYAkEwAFUtCDLBAMQ2QNzcGsEAuE0ArFUApJJA3ACiwQCQmQB+CH5A5KYIWsEAZJUAJE0AAZJBMPg6wQBYLkEsACLBALiBAPRRARhJATAGQTAAUsEBSEkBaFEBiB5AvAAuwQGgUQG4lQHKBdEBnCZBMPQU0KQSwQFkWQEgQQDwTQDiDDZA5ABE3LYFBNwAPNitBNACBMjYADDcqg2CwQDUSQC8KkDQqCLBAJ0hDMRNALBNANxRAQBNARhNASgSQNAAOsEBNFEM2b0BLOkBJS0BHOEBFFEBEJkBDJkBBEkBAFEA+EUA9E0A8BpA3AAgoHAOwQDkVQDYUQDEQQCkVQB8SQBcmQBNyQBcSQCIhQCwUQDcTQD8TQEUTQEoUQE8TQFYTQF4QQGYVQGwdkEwACbBAciRAdh+QKAAFsEB7ggxAdTlAcDdAaidAZCRAXyhAWhFAVxRAVBNAUBRATBFASBJARlpARChAQyZAQQeQNCoONyQDRz0OsEA/JUA+B5BHAB6wQD0FkEU8ILBAPBSQRQAiRzSCILBAOhJAOCVANCZAMRRALhFAKhNAJRNAICdAGxNAFxNAEBVACUlAAIEhkDIsNjQAgxVIOwhHAC+wQBsTQC0TQDsUQEQRQEkTQEwSQE4VQFAmQFIpQFRHQFZtQFEVQEgIkDAqBEc6B7BAPgOQMgAQsEA6DJBIABewQD0VQEESQEIMkEcAFkU0OkclF7BAPxJAOhNAMAWQRwAOsEAZJUAAb0AJJkATFEAhEkAwFEA8E0BEE0BIEkBLFkBPD0BUFEBZEkBfFUBkCJBDPQuwQGkSQG4JkEUAGUMABLBAdIFNQGsSQGEFkC8vD7BAVgKQMAABTTgQsEBLEEBCBpBMJQ+wQD0KkE0AUkwAAbBAPBiQTUQOsEA4FEA1FEAtEUAgEkAZgQRAKRRANxBAQhRASRNATxNAVxRAYBNAaRNAcRNAeCVAfWeQTQCBGS8AGLBAbg2QTUMHsEBeDZAwKwWwQE8UQEY2QEkUQEwSQE4lQFCBUkBOEUBLE0BHFEBDEkBAAJBMPwk0LQuwQD0RkE0AEzcAJ7BAPGeQNABVsEMygSaQNTeBFTUAgUCwQDgUQDEQQB0VQAAakDc4HLBAIhRAOAJDLhFARRJATxVAWBBAYxVAbQiQMAAJsEBzF5A3ABGwQHgTQyqBUEByCpA1NAFKSgI5NgSwQGYUQFcFkEwADrBASiFAQRRAP4EDQyZxQEBekDkAArBDIgWQO0IPsEBBgQCQOwA3SgARSEhGSAAaR0kpsEA/JkA+AZBHACOwQD0DkFFJATwzI7BAOl9AOIJAkDUAGzczgSM3ADJPPDtRAIEFOTAFTUc5TwA6OQBITEkaTQCBKUwAEDU1BkpDZDUAQUoAG0g7gTywQDYckEgACbBAMxJALAmQTCMLsEAXCJA3IgqwQABzQBwRQDAUQD0RQEQVQEgRQEsUQE8TQFMUQFkTQGATQGkgQHAUQHUqkEwAIbBAeiVAfoESkEw1KUwAH0ozHLBAeQeQSgAMsEB1FUBuBpBMMwywQGYRQFwAkEwAFLBAUgSQSj8PsEBHAZA8ABKwQD4IkDsrC7BAPRiQSgAgsEA8JUMmFUA5EJA7AAA7CjBINQiwQyoXkEgAEbBANwOQOwAOsEMuJ0A0E0AyFEAsEkAlFEAfEkMzDJBKNTywQCsBQzcRQDkUQEQLkDcABbBATAFDOxNAUw+QSgADsEBaFUBhEkBoFUBtEUBxAUM/JUB1ghxAcB+QSC8EsEBnDpA8JwewQGAJkDAlCbBAWRVAUBFARBNAOhRAMhJALhJAKhNAI0tAJxRAMRNAORNAQBJARBVARw+QSAACsEBLFkBOH0BSFEBXEkBcDJA8AAewQGISQGgTQG0mQHGESUBtJ0BlCpA2LwmwQFsLkEdBBbBATxZAQxJAOxNAOWuQMACCMEU8AjQyAEcAgQs0AIIWMjeBCTIAgWmwQDUUQDAUQCYRQCEAkEdDAjAyH0UAGbBAKxJAOBNAQhNASBFAThNAVBNAWSdAXj2QMACBErBAWBKQRUABsEBOB5AvLAtHAAGwQEMUQD0GkEUAG0NAMUMADEU/NkUAEEM5P7BAPCRAOSFANBVAKhJAExNAAACQLwAlLTEmsEAhEkAzFUA/E0BHE0BME0BQEUBUA5AtABGwQFgTQFwEkEJKBzYAAkMAF7BAYl9DOzlAXhJAVxRATgiQSkcGNzgELzACsEBEAJBCABCwQDsTQDUTQDAUQCsTQCUUQBwTQAkSQAABQzeBAkMyJ0AjEkA3FEBCE0BKEZAvAAKwQFIAQy0dkEoAATJAAbBAXBZAZhJAcBRAdzdAe0qQMgCBKrBAcRVAZhJAWwqQMDQBSkwJsEBSE0BLE0BHgUqQTEQESgAZMAAfsEBFD5BMAAOwQEQRkEpDBLBAQhRAPxFAOxNANAmQSgAGLzUDsEAsCZBMRgqwQCiBD5AvAIIoLTl+sEAqHpAtAIFqsEAiPpArMA+wQCwSQDsUQEYTQFAOkEwABrBAWhJAZgmQKwAJsEByFEB8gnZAdQiQNwAEKjUGsEBqEkBiApA+OxOwQFoSQFIUQEwSQEddQEUvkEA7Dz4AgTVCQgEtOBFAADctAGxCABuwQEQAkENESrBAQxNAQhNAQRNAPhVAPBJANxRAMBBAJg+QRUIEMjUCsEAgDJBDAFkqADGwQCQwkEc/KkUAdrBAIB6QKisCSEEYsEAkDZBHAAewQDESQD0SQEUTQEoVQE4NkCoAArBAURRAUyGQSAAMRTwNsEBVgTlAUxJATQiQKzMLsEBGDpBFAAWwQEMDkEc5gQxFQwZHAHVFAAFDQ2YwNwY0OQ5DABBFRgqwQEIxkDIAG7BAQSKQRQACQ0UWsEA/EUA+E0A9CJArAAuwQDokQDYAkEMADUI/B7BANBNALxNAJxRAGhNACxJAACOQQgAkMAABNAAHQzsIMjSBLbBAIhRANxJAQRRARhNASRFATBRATxFAUhVAVhNAWhBAXihAYy2QOzVHQwCCUkM9E7BAXwqQOTEJsEBTApA7AARDABuwQEYRQDwFkEI5D7BAOSGQQgAKQzwrQwAjQi2BELBANhJAMhJAKhRAHRNAEAyQOQAFsEALL5A3KYFAQgACQC+BdDYqAj4zAUAACzIAIDcAg08wLQOwQBsUQCsTQDoTQEQUQEsTQFECkD4AEbBAWBBAYBRAaAWQMAAOsEBuE0Bzg0FAbhRAYwGQLzAGSkMMsEBVEkBIDpA2AAOwQD4TQDkAkEoAFUhCR0gAEko+BbBAN4I2kDI7NTIAgjqwQDMSQC4UQCoykDctGbBALhFANRJAPRVAQhNARwmQLwAKsEBKEkBMFEBPE0BSEkBXEkBbFEBgE0BlE0BqJEBwOUB1KEB5HZAvMwBMQA5KACCwQH6BBZAvAHtMAHawQHYSQGsEkEpDBi0xCbBAYRNAWQeQSgALsEBSFEBKA5BIQhCwQEUTQEQIkEgACkpBL0oAB7BAQwOQSEEksEBBJ0A+E0A7EUA2FUAyEkAwSZAtACMrMwWwQDYWQDwRQEITQEURQEcnQEokQE0jkEgAA0dCJ7BAUHBATRVASRFAQxCQRwAEsEA8AZArAAJMTQEwOg6wQDYSQCoUQAAdkDcAgS6wQBcTQCoUQDgTQEESQEcUQEsUQFAJkEwACLBAVRNAWxNAYguQNDYHsEBpFkBvEEBzJkB4M5A0AC2wQHyBYkBwDpA5OgWwQF4SQEsTQEEHkExJH7BARBJARxNASRNAS0GQTAAgTkJETgATT0wCsEBNGpAwACotMwZORwGwQEkAkE8AE7BARBNAPg2QTgAGsEA2BZBPTA6wQCsTQBwSQAAJkE5QAE8AghgtABIyOUawQA1eQBIUQBdfQB4RQCokQDcTQEETQEcTQE4PQFUTQF4GkE4ACDA/BLBAZwJDKRJAcAuQMgAFsEB3FUB7JkB/FEMlXJA5ABlMSlxOUwNMADSwQGsTQE8HkE4ADrBAMA6QMAABsEALDJAvPgFPUy2wQBBwQBlLQCAUQCUUQCoSQC5LQDEiQDMVQDYGkDI7gTEyABewQDiBO0A2FEAyEpAxRAKwQDAVkC8Ag0E0LwNRRTlPAE40AElTSB5RAHKwQDI2kFFGCzk5GlMAgRlORQNRAIEWsEAuE0AoFEANE0AABJAtNAFPRgFOAAIxAFSwQCkSQDwVQEcKkDkAB7BAUSVAXBNAaBJAdRRAfRCQTwCBLk9FEi0ADjIzA7BAbhRAXAWQTwAPsEBKApBOOw+wQEATQD4RkE4AEU9AMU8AFU47ggQ5M4EdOQBPsEA/gWSQPi+BBD4Agh1MPAI8LDZOAEo8AIJITAAGSjYNOyaBHTsAObBAQF9AQUtAPjlAQRJARQCQOS0TsEBME0BUEkBeFkBoD0BuAJBKAA45ABmwQHMZkDIAWUo9IkoAOkg4HEgAGko7A7BAZQWQNzwLsEBNAZA0MwdKAAuwQCwEkEhNErBAACRAEBFAKBVANRJAOhRAPBJAPRRAPgGQSAAXR0kOsEBAEkBBJkBCYZBHAA+wQD0UQDARkEhKAbBAHg+QMjcYsEAqBpA0AAywQDsSQEYOkDcABLBATRZAVBBAWxRAYxJAahRAbyuQMgCBD0gAKLBAayFAYBNATRKQTkYCsEA2AEMpEUAABpA5LgEwJlmwQBQSQCEUQC4TQDgTQDwTQD4UQEASQEIUQEMlQEVJQEMVQDwRQDITQC8BkC80GzAACbBANxNAPxRARBNARxRAShJATRVAUBFAVQeQLwAMsEBaEkBeFEBiJkBocUBkEkBXEkBCFEAPDpAtNwSwQAA1QCITQDcTQEEUQEcSQEoTQE0QkC0AA7BAUBRAUxFAVRRAV4FhQFMFkCs4Bk4ABU9CA7BARwCQOQATsEAuFEAAOUASE0AwEkA+E0BGE0BKFEBMBJArACCwQE4EkFFINrBAUB2QTwAtsEBTA5BRAFuwQE4OkCouBbBARAyQUUQGsEAzIkAhJkAnE0AyFEA5EkA8J0A9CZBTRwuwQyUkQD4oQD8kQEAHkFRLFVEACbBAQg2QUwAbsEBDBZBUADGwQD4WQDIEkFRECSYvA7BAGRRAEgKQKgAPsEAWE0AnFEAzE0A6E0A8G5BTTS1UAAOwQD0oQD4WkFFQD7BAPxBAQAGQUwATsEBBGJBRAComAAqwQD8PkFFDAyg8AbBANxRAIAFDIRBAADtAIBJALyBANxNAOQWQT0sjsEA8AZBRABGwQD0TQD4UQD8TQEEGkE5PGE8ABbBAQjKQTgA0KAANsEA7EZBORwEqMgGwQCAIkC0qCLBAAGJAJRJANBNAPAKQTEYOsEA/EJBOAASwQEETQEJNQEMMkEpEBkwAJrBARR+QSgANKgAMsEBITUBEAZAvMAErMhGwQDkCkC0ACUpACLBAAEpACRRAIBNAKB9AKxSQU0MbSgAfsEAtSJBTAARRRXCwQCgGkC8ACSsAAi07CTAzAk9IF1EAbk5HBU8AZ04AIUxCJbBAIBFAGRNACRRAADuQSj4LTAAELQABMjMSLyoRMAAosEAZE0A0EkBCFEBLApBIQwUvAAFKAAqwQFEAkDIAE7BAVXSQR0ADSABVsEBSE0BQE0BMFEBIEEBDAJBHAA5MQQM3OgOwQD8NkDAeBLBAPShAOiZANhVANBWQSkADTAANsEAwcUAuCJBKAANIPi2wQCxLQComQCIDkEgACjAAADI7BLBAHQSQRz8jsEAZcEAfggZAFxNACRJAADqQNC83RwABsEArE0A9FEBHE0BNEkBREUBVJ0BbJEBgA0MlgU9DKSVAWQJDLQyQRzkEsEBNA5A0AAc2LwmwQD0AQzEUQC8CkEcAEbBALAmQNwAFRT4YsEM2EJBFABpHOg6wQzohkEcAJkVCJbBDPkqQRQAARR48sEAqAUNCJUAZEkAAOkNHDJA8Ngc2ACWwQ0wVQB0SQDQQQD8UQEUUQEgTQEpBkEM5HLBDUCdATBeQRQATQwB/sEBKE0BDC5BDOQI3MAIyAAOwQDgUQCUTQBmDR5A8AAM7K4FDOwAMOTKBfTswBDkAITcAgzOwQBAlQAAkkDcsFLBAIRNANBJAQQeQOwAOsEBIEEBNFEBQEkBTFUBWJUBbgy9AVyZAUhNATxJAShNAQxJAPQiQKycLsEA2E0AuE0AkEUAWAJA3ABSwQACBPUAcFUAtEEA6FEBCE0BHFEBLEkBPFUBSEUBWJUBeEkBkFEBpE0BtCpBDACwrABawQHGDCEBsJEBlFUBhEkBdJkBZJ0BWE0BUE0BRE0BNEkBKEkBHFEBFJUBEEkBCFEBBE0BAE0A+J0A9EUA8EkNMTEA5RJAyLQewQDcGkE4+NbBANA2QTgAMTEIMsEAxUJBMABVORxuwQC9NQ0g3Q0M4Qz9yQztfQzeBUEMzcEMvBZA+MEmwQDIAQyokQDUTQDcBQyUSQDkgQDsTQD4UQD8TQEESQyEnQEI4QEMBQx0NkDIABbBARFCQT0UhsEMZCpBOAB2wQEYRQxU5QxE5QwuBPEBDFEA/E0A5EkArB5BRQQo8KwGwQAACkE8Ac7BAJg9AOBRAQxVASgSQUQAOsEBQIEBWE0BbE0BiFEBnJkBsgnuQTkOBF7BAYhBAUxKQOy0BPAACsEA9C5BKQgawQAAQkE4AET4AZLBAGRRAKBRAMhBAOBRAOxJAPBJAPV1APlKQPjqBW7BAP4EBkDsAObBAOwSQPDIET0wCSgAJsEAzDpA+AAawQB0TQABMQA8UQBdeQByBA0AhS5A7MxU8AFuwQCZKQCgmQCuBKkAtNJA5OQOwQC89kDsASLBAMl9ANHBALBRAJjWQNzUDsEAtBJBRRRCwQDQEkE8ABjkAFrBAOBRAOxNAPBNAPSdAPxJAQCKQU0kxUQALsEBBX0BAEEA+FEA8E0A6JUA4AJBNRBSwQDYDkDw3BlMAC7BAMxaQNwCCPbBAMBJALRRAJhJAGgyQTDsGsEAAA5BNABQwJVewQCAUQDITQD0AkDAAE7BAQxNARhNASCdASoEpQEgQQEULkDItCLBAQzpAQRRAQBNAPiNAPTtAPBJAOidAOCdANBBAMUxANw+QPAAEsEA8BJA7Lw1KPwGwQEEVQEQOkDIAAbBARhRASQaQTAANsEBME0BPFUBTEkBWJkBeIkBiJkBmgS+QOwAPsEBgD5A0MQGwQFsAkDkuEEg8A7BAVAyQSgAGsEBOFkBKEUBFFUBAEkA9TEA7JEA3EkA1OkAzEkAxE0AsE0AnE0AiE0AZFEAAGJA5AAU4Li6wQBATQCoTQDkRQEMTQEkOkDQABbBAThNAUxRAVxCQRz0WsEBdHZBIABiwQGE5QGVXkEcADEpFDbBAXQSQOTUCOAAPsEBOEkA/FEA7EEA8FEA+gQGQSgAZSDwySAAbSjQuSgAFsEA9E0A8C5BIOQU0LCmwQDpDkDQACbBANxJANHFDD4FPkC0wZi0AgkVHLgEvKBVIAEIvAIIUsEAxOUAvJ5BHAAJFLwywQCwEkDAUgROwQC8mQDGBFUAvYUA0E0A5CZA0KgewQD4VQEMHkDAAC7BASBRATQeQRQAIsEBSEZA0AASwQFoTQGITQGwTQHUVQHsSQH8okDkAgjqwQHcRQG4GkDkwB1RLB7BAZBJAWBVASxNAQQGQVAAEU0QOsEA9NZBTAAKwQDwMkFRKGrBAOoIVkDwsbDwAgQ6wQDgnQDZgQDwgQEEUQEQLkEIvBrBARxVASRBATACQOQAVsEBQEkBUFEBXJ0BdJkBhgVqQOSohVAAJU0KBJFFJBVMAgQewQFsSQFAVQDsRkEIAArBAAA+QUQALU0AMNzEHOQAesEAZFEA3H0BEFUBMEkBUEZBTAAOwQF0RQGcUQHATQHWBfZA7LUhRQC83AB5RAAhPRCpPACJOSjpOABRMQyVMAAGwQG0VQFsUQEMLkDYzBrBAFwOQTEYPsEAAEZA7ADuwQBCBAkAWSkAagSSQTAASSzwIOSpJOQCBLLBAFBJAEBRACRNAADlACxNAJRNANxFAQhNASgCQPDIUsEBQE0BVEEBaDZA2AAWwQF8VQGMmQGmCPZA0LwGwQF8LkEsAB7BAUAmQTDwLsEA/FEA1I0A8FEBDE0BJE0BOFEBUAkMVEEBaA5BMABCwQF8OkE48ATQAULBDGSRDHSdDIUtAWBVAUA9ARxRAPwFDJQ2QNiQFsEA6ApAzLBtOAAdIMhSwQDcAQykOkDwABrBAMxRALhFAKwFDLiZDNBRAKR9DOCdAJRRAHQFDPA9AEBRAAFGQRyclSAA1sEASEkAnFEA2EUA/E0BGE0BLE0BPFEBTFEBXJ0BdD5A2AEEzAGmwQzhLkFFFFLBAVgFDMxJAURVASwGQRwAPsEBHAEMuE0BCFUA8AUMqEUAzEUAiEkAAU5A0MgZPOwOwQyYNkFEAP7BAJQuQTwAHsEA6FUBFEUBKFUBOEkBRFEBVE0BZJEBgJkBlJUBpf5A2NhEtMxuwQGATQFMTQEoxkC0AAjQAA7BAThVAUBNAUw2QTkUZsEBVOEBXX0BbOUBSE0BFBJAvKgNMRQ6wQDQFkE4AGbBALiZAMQiQNgANsEA0EEA2fZBMAAdLQ0pLAA5MP0CwQDQVkEwABUtDD7BAMAGQNzJRNwAIsEAtFEArJUAlgStAICZAHDhAFydADQqQOSwHsEAAgxxAHRNAMhNAPgCQTEENSwAFsEBGFEBLFEBPE0BTFEBZEEBhCJAvAAFMAAqwQGoUQHESQHeCU0BxEUBoAJBMQQM0MBGwQFwVQE8hQEETQDcUQDSCdJA5ABo3LYE9NwADNjJANACBMDYABzcrhAKwQDITQC8OkDQtBLBAJhVAFgNDKg9AAExAFxFAKxRAOBFAQQiQNAAMsEBGE0BKE0BNAUMuE0BPFEBSJUBVOEMyYEBTWkBQFEBOEEBME0BJJkBGJUBDFEBCE0BBEUA/AJAoJBSwQD0WQDkSQDIQQCIUQAACkDcAgU6wQB8SQDITQD0SQEQUQEgRQE0UQFMTQFsTQGMTQGsUQHAvkEwAHLBDNhNAdCGQKACCMbBAcF5AayRAZiZAYXJAXCZAVxNAVRJAUhJATwuQNCoIsEBKEpA3LAGwQEYRQEITQD8OkEc9BbBAPidAPRiQRwAOsEA5CZBFQgqwQDcSQDQUQDISkEUAH0c+GrBAMCVALoUUkDIrNTQAgj+wQCwmQCkrkEhBKkcACLBAMBNANxJAPRRAQhNARRNARxNASiVATSZATyRAUYEIQE0SQEUPkDAxAbBAOA+QR0QFsEAkKZAyAA6wQC0VQDYSQDsNkEgABrBAPChAPQyQRwAdRUApRQAMsEA3CpBHNwawQB8VQAASkEcADkU8dbBAHxJANRNAQRJARxRATBJAUBNAVBJAWhJAYRNAZxRAay+QRQALsEBvI5BDPDNDABmwQHQnQHkTQH1MQGkHkDAACbBAUwKQLy4BQzkSsEA/E0A2EpBDACawQDgFkEVDPEUAK0dCJkcAOEhCJEgAUEo9ObBANROQSgAITEEJsEAzE0AwFEAkEEAAGpBMAAlNQ1GwQCEUQDcRQEMTQEwUQFMTQFkDkE0AD7BAXjeQLwAZMC0NsEBYBpBNPQ+wQFATQEkTQEWCUUBEI5BMOAOwQEIEkDQuELBAPwaQTQAcsEA9FEA6EkA4ApA3ADewQDZckDQAgVI1OoEFsEMyLpA1AIE1sEA0E0AqEEALFEAAHZA3OAewQCASQDcVQEUSQE8UQFkiQGMUQGsTQHELkDAACLBAdQuQNwAasEB7gU9AcBRAYxCQNTkAOT4BSkcBsEBXE0BNBpBMAA2wQEUSQEASQD9NQD4TQDwUQDpcQDwSQD0UQD8UQEESQEIUQEM5Qy4KkDs+QTkAgSFKABRIQjg7AAWwQD4IkEgACbBAOAyQR0kGsEAyFUAwAUMqJUAuFJBHABKwQCwTQCoEkFFOD7BAJRCQPDYUsEAgFUAcOEAUJUAQgkFDJguQNQAGsEAUB5A3LYFmT0MoUQAtNwBvTUkTOSoXTwCBAzkAFExKIk0AgRSwQAALkEwABjUzA0pGJrBAFxJAIhRAKRNALBRALyCQNQAjSgATSD+BZbBAKxJAJAaQTDgFSAAIsEAZB5A3MA2wQACBPkALEEApFUA6EUBEAkMqE0BKEkBOFEBSAUMwEkBXFUBbAkM0DUBgFEBkEkM5FEBoEZBMABSwQz45Q0NNQ0dAkEwyG7BDTBCQTAAlSjo8sEBkA5BKABZMQQywQF0RQFUUQEoAkEwAArBDUAOQSj4DPAAJOywBsEA9FEAsEEAAFENWJ0NaOUNfE5BKADJIOgawQ2N9kEgAUDcACko6DLBAFgFDZxFALxRAPg6QOwACsEBGFkBMEUBPE0BSFUBVEEBZEkBdFEBhJ0BlAJBKAIIYsEBgI0BYFEBSBpBIMg6wQEsQkDAkATwgA7BAQhFANxRAKxNAIRRAFxJAAIEpQB4UQDATQDsTQEESQEUTQEkRQEwAkDwABUgAEbBATxFAUxNAWBJAXBJAYDhAZYNEQGFxQF0nQFkQQFIOkDYtBrBARxNAOhNALAWQR0gNsEAlNpAwAIMGRT4FNDIKRwCBATQAgj8yNFuwQCkTQCwTQC8HkDIAC7BAMhRANRJAOBRAOiVAPBFAPSdAPl5AOBRALhNAIwaQMC0BR0MdRQABsEAqEkA2FEBAIEBGE0BLE0BQFEBWE0BbA5AwACOwQF8ikEcAdLBAY2BAVwSQLzIMRUYCsEBKEkA+FUA6C5BFAB5DPy9DABNFPC5DPwNFAGqwQDcVQCwQQAAZkC8ARC0qO7BALBRAPhNASBJATyFAUwCQLQAUsEBXBZBDABE2ABCwQFsAkEJEJrBAYCdAZG5AYBNAVxNASQCQLzICSkQFQgABNzgNsEA8EkAzE0AvFEAsOEAnEkAiX0AdOUASEkAAAkNjS5AvAB8yND6wQC8TQEIHkEoADbBATRJAVxRAYRFAaRRAbxJAcyGQMgASsEB5gSxAcAFDXxFAYhNAUgaQMDYISkYGsEBFEUBCE0BEE0BIFUBNEUBSFUBVCZBKABkwACiwQFdBkEw6JkwAKEpEHLBAUxNARxNALAGQSgAELzECTEQKsEAAX0AQE0AmFEAzEUA6BJAvABGwQD0RQD4VQD8QQEATQEIUQEOBAUA/E0A3E0AsE0AqA5AtJxCwQCwSQDYSQD4TQEMUQEUlQEkJkC0AHbBATCZATylAUTVAUzhASxJAPhRAKhJAIxRALAeQKzAMsEA8FEBIAZBMABGwQFITQFsTQGMSQGkRkCsAArBAbSZAc1OQNwCBV7BAaxVAZRFAXxVAWhJAVQuQKi8FsEBSEJA+OwOwQE8UQE0lQEomQEhykEBAET4AKbBARnBARBqQLToFQkQSQAAHsEBDHpAtABywQEJVkEIACLBAQRmQQ0EhsEBAEUA/J0A8E0A4EUAyFUAlIEAAPZBFQwIyPxNDABMqADOwQB0TQDMTQD4UQEURQEoTQE0JkEdCHrBAUAeQRQAMsEBSEkBVE0BZFEBfAUNbEkBjJEBnKEBeCJAqNgVIQQKwQFEPkEcABbBARBRAQBNARBJASRVATxJAUwSQKgBHSAABRUUTsEBVgQRAVyVAUxJASgJDVxJAPhJANgOQKx0ALSoNRz4CRQA2sEA4DJArAGBFSQ5HAHFDRwdFAHwyAAs0PAJFTAFDAAYwOgItAAewQDZ4kEUAEEM0ZUMACbBANAqQQkIbsEAwE0ArFEAkE0AWEkAAHZAwAAtCAAtDPgI0AAQyOYEnsEASE0ArFUA4EUA/E0BEE0BHJkBKEkBNE0BQEkBTE0BVJkBTFEBPDpA7PASwQEoTQEwUQFITQFsLkEMACLBAZxFAcYJEkDsABUNACTk7FbBAYg6QQwAFsEBOCpBCPQiwQDoVQC8ekEIAA0NAOkMAHEI1gTKwQCsSQCAWQAAwkDkAKTctgUxANxRCAIFQNwAFMgAHNi4OPjQBQACDaTAwNLBAGxNAMRRAQBBAShRAVRJAXwKQPgAKMAAIsEBpEkBvJkB0glVAbxFAaRRAYAuQLzMHsEBVFEBLAJA2ACCwQEIDkEpEErBAPBJAORiQSgARSEURsEA3E0A0EkAwEkAuA5BIAA5KQ4JCMjprMgCBRbBALBJAKhRAIRNAAGmQNzQWsEAcE0AyE0A+E0BFFEBKE0BNE0BPC5AvABuwQFMRQFgTQF4TQGQSQGkTQG0mQHFeQGwVQGMRQFsIkExJAy82IEoAD7BAYCZAZUxAaoEBQG51QGYPQFYSkC06AbBAQRKQLwACsEAsCpBKRylMAAGwQDQTQDoTQD4AkEoAE0hDPEpMCUgACLBAPxFAQBqQSgAKSDgXsEA9EkA4EkArE0AAR5AtABewQCITQDYMkCszBrBAQBVARhJASxRATxBAUhVAVRNAVyVAYBZAZRFAag2QR0smSACBDysADbBAWwSQRwAMTEkBMDcCsEBHE0AeFUAAEpA3AIFMsEAjE0A0EkA9EkBDE0BIFUBMEUBRE0BXBpBMAAywQF0UQGMSQGkTQG8FkDQ+DrBAdhNAe0tAf4IbQGsSQEoAkDk/AjQAEbBAACiQTEsSsEASFEAzAUNTE0BBEEBIFEBKRkBNDZBMAAWwQ00VQFAEkE5HELBAUwJDRw9AVxRAWxNAYAOQTgARsENDDZBPSgSwQGUWkDAAJLBDPw+QTwABLUELTkYJsEBbE0BLE0A5A5BOAA5PRQKwQDQSQDkVQD4JkE8ACbBAQwKQTkQRsEBEI5BOABVPSS1PAAuwQEYAkE5IME4AEU9LHrBASBaQTk0BTwAMLQAQMjwZsEBCEkA1FUAQEEAAJkAfFUAwEkA1gUtAOBRAPhNARBNASBNATwmQMEIMsEBYEUBjB5AyAAmwQGsKkE4ACrBAcCZAdXBAeR2QTEwdsEB9C5A5AChOSgRMADqwQG8TQFICkE4AELBAKguQT1IDMAADsEAAA5AvPoE7sEANFUAXOEAcE0AhEkAoFEAtEkAwFUAzH0A2FEA5J0A7EkA8BJAyPBCwQD0SQD8UQEEUQEIQQEM6QEYkQEkGkDIAIbBATCdATxJAURRAVRFAWhNAYBRAZCNAXRRATxNAPwOQMUYRsEA1I0A3A5AvACOwQDqBK0A8gT+QNDgIUUwnTwCBDDQAElNQMVEAF7BAORRANRBALBVAExJAAD2QOTkNUU4CsEASFUAfEEAlAJBTABSwQCkTQC4UQDISQDURQDc7QDkGkE5KDlEAbrBAOzlAOBNALAqQLTcAT0sEMQAFsEAAApBOAEqwQCEiQDcTQEMSQEoUQFAUQFUSQFsHkExJCrBAYhVAaAyQTwAEsEBtFkBxJ0B1NkB7J0B/HJAtAAVMAA8yPAiwQG4OkE9OBrBAVQmQOQAJsEA8E0ArJ0A0D0A4gReQTkgQTwA4TgAITzg2sEA2FEAzDZBOSQKwQDAGkDk3Ak8ADbBALBNAJhJAH1WQOQCBV7BAJxNALBVALyNAMRNANACQPjYTsEA3EkA6JkA8OkA9D5A+ACmwQD6BUEA5FEA2AkM7CpBMRASwQDMGkDwzHU4AF7BANhFAOCdAOiZAPAWQPAAOsEA9W0A+JkA/JUBATEA9E0A2E0ArGJBMAAI7MABKOh2wQDQUQD4TQEQSQEcSQEkUQEsTQE0UQE8YkDsADrBAUiZAVSVAV4EDQFUWQEsRQD0TQDImQDwDkDkpD7BARRNATBFAUhNAWCOQOQACsEBeLJAyAAJKAHuwQGMfkEo0HEoAH0g/J0gAFbBAXASQSkcRsEBJD5A3MwKwQCACkEhJAUoABzQwCbBAACZAEhJAMBNAPRNARBNARjCQSAAIsEBJCZBHRi6wQEwqQE8iQFInQFQCkEcAErBAUhJAShCQSEwDsEA6BpAyPA6wQBATkDQAEbBAIRNANgCQNwAUsEBDE0BKEUBPEkBSFUBUApAyABCwQFkTQF8UQGSBSkBbFUBNE0A8C5BIAAewQCgDkEJCAzAsCjkmPLBAKhJALCVALiZAMhNANRRANyZAOTdAOztAORBANz2QLzEPsEA7FkA9EUA+BJAwADWwQEAnQEEjQEI1kC8AF7BAQ4EVQD4QQDQUQCQRkC05AbBAGidAKxRAOBFAQRVARRBASBVATBFATw2QLQAHsEBSE0BVJUBbX0BfcUBQDpArMQOwQDwNkEM7B7BAACCQQgAusEAoE0A5EUBBCJArAAqwQEUnQEcfkEVADTkADbBASgSQQwBbsEBMR0BOXUBLEJBFAAIqLwGwQEMQkD46A7BANxVAJRJAIEpAJYErQCglQCuBUJAwKwVAOgs+ADMqAHxCPhZAAHywQCkvkEIAB7BAKxRAMQeQLzAEQ0IIsEA4FUA9DJAwAAawQEAUQEESQEITQEMmQEYlQEkEkEMABEVIHbBATDpATydAUTdAShNAPgKQLTwHLwACR0wCKjUEsEAyA5BFABCwQDATQDIUQDcUQDsSQD1ZkEcAA7BAPhqQSE8PsEA/SkBAPpAqAFawQD0DkC0AErBAMwKQKy4ELzcGSkUKSAANsEAAgQVACRNAFhNAHSuQT0ENsEAJEkAAFpBKACOwQBsUQCUTQC4TQDYRQDoUQD0SQD4DkC8AB05GCS05BTA2AU8ACCsAArBAPxVAQBBAQhNAQzpARSmQLQAcTEY0TgCBELBAPiBAKhNAAAmQLzQDMjUFSkYSTAAIMABEsEAdE0AyDZBKAAawQD0UQEIEkEhCDrBARAiQLwAKMgATsEBIJ0BLKJBIAANHSWywQEkUQEckQEQTQEMEkDc2CTAuBrBAQRJAQA6QTEIGsEA/EUA+DJBHABuwQD1RkEwADbBAPACQSjoosEM/XZBIPwBKADmwQDo0QDcSQDMOkDAABrBAKBNACQaQMi8MsEAAApBIAAtHO3ewQ0OBd0AJEkAuE0A/ApBHABGwQEgSQEwTQFAOkDQnBLBAVxJAYxVAbxJAeE5AfII8QHcSQHASQGIUQFIKkDYqAzQABLBAQwKQRyoSsEA6F5BHAB5FOQY3AClFABNHNDFHABhFOIEUsEA4JkA2EkAyE0AoEkAAY5A2AAU8KkSwQBAUQCMRQDATQDgTQDsTQD0UQD4lQEAUQEELkEM4FbBAQidAQzSQRQAoQwAUsEBFU5AyAB+wQEQTQD8AkDcsD0M2ArBANhRAKxNAJINnkDwAFTsygWGwQz8QkDsAHTkofTcAS7BAIBJAHCVAFzaQOQAAOy9isEAbTkAfSUAkgwpAHDGQNyUGsENDJkApE0A0FEA9E0BDEEBHAJA7ABSwQEoUQE8TQFQRQFoTQF8UQGUTQGsmQHGFJEBtJUBoEkBjFUBeDpArKQOwQFgSQFIUQEsUQEUTQEIRQEETQD8UQD0SQDkVQDQRQDAUQCwmQColQCiDZkAsFEAxE0A2E0A6FEA9E0A+E0BBEUBDE0BGFEBIE0BMEUBOE0BQJ0BVEUBZFEBfEUBmFUBtEUBxJpArACo3AB1DAIUXsEBtOEBnJkBhJUBdTUBZOEBWJUBTJkBQJEBNFUBLEUBJFUBHSkBFFEBDE0BCSkBBJkA+JEA9SkA8gSpAOktAOCZANSdAMjhAMDpALm9ALGBDP15AJRNAAAGQUzwBSjkMNyUMSgAQUwAINwCCPk8/A0MyEkcsE08AAkMADEcAgiNKRQ5FOgNCLQKwQDcRkEoAAbBASRNAVRCQRQAEQgABsEBgEUBpE0BwJkB0gTSQTEQIsEBvAJA2NDQ2AAGwQGkAkEwAKLBAZSRAXw2QTkoGsEBZFEBOBZBOAAywQDwTQABPkE9FBTQ2EUc2Ek8ABjQABEcAgghMRw1ANwFDPhdMAAlDAAVAAIIMR0ISQjYEPjYVsEAdIZA+AAGwQDUUQEAUQEYSQEwSQFITQFoTQGENkEIABLBAZidAbVWQRwABMjwwMgCBdLBAUhJAAAKQMDkCTEINQ0ASMAAFTAALQwCCCkhEBTw6AUU8G0gAB0UAAzwAgiuwQBsPkD43AEVCA7BAMAKQQj4TsEA+EUBIApA+AA+wQFAVQFkSQGESQGcPkEIAAEIbF7BAa4EdkEIABDk/DEdDHkUACDkAU0cACUhIS7BAZhRAXhNARhBAABOQSkMDRUEGNj8KSAA3sEAXCZA2AAiwQDYVQEISQEcUkEoADUc/BLBASQKQRQBwsEBDE0A4FUAoAZAyNwFIQg1HABWwQCwNkDIABrBANBJAN0SQRT8PSAALsEA5JkA2FUApEUAAM5BFAAawQB0GkDczBUhCBkMzAbBALhNAORRAPQGQNwAMQwADsEBAE0BCOpBHQwJIADmwQD4SQDUSQC4SQDEVQDsQkEcAAbBARQGQRUMEMjkOsEBNE0BXCJAyAAywQF8SQGMIkEUASUNENEMAD7BAaBNAbhFAdxNAfhOQK0sBsEB4DpBTSwNKTAKwQFUSQAAAkEoAA1MAazI+CisAfDIAFU9IAkdIAzRDG0cABU8AazZEEDQAgRRMSQU3QwJJSRY2ABewQDYQQEMTQEkUQE4TQFIiQFYGkDlDAjcAC7BAXBRAYxJAaQaQSQAJTABjOQABNz4ZTEcGST0XSQAQTAA8sEBkBJBOUAY2QAewQE0AkEpLCTcADLBAAA2QSgAITgBcNgABNEMATE0BT0waTAACTwBlMkUJNACBCjIACDREA0xNC0lIG0kABUwAYzY+BjQAgSdJSwM3RAJFSAuwQDYIkDYAC7BARxJATCZATxJAUQeQNwAMsEBVA5A5QRCwQFoLkEkACbBAXiZAYluQO0gHOQAFSkpWsEM7KpA9TAtMTAE7AB5KAFM9ABSwQFAJkE5PAj5SCLBAABKQTAABsEM3C5A+AGdKShpOAHmwQzMMkD1VBE9OEEoADT0AC7BDL1KQTwARTEqBET5SCk5MGD4ABbBAMgWQTAAPsEBBEUBEEJBFAAOwQEcUQEkPkEpPFU4AAbBASw6QSgAasEBPEkBREUBTFEBVEkBXJJA2TQRRUgZKUAywQE4SQDYSQAAskDYAHzdHgQo3ABQ5Sys5AApPTBVRABFKAF1OShFPAHEtSgtMTAhJRwxOAAstAB1MAEROShhJACJOAHpKSgsyQgewQBcRkEoAA7BARwBDNAOQMgAQsEBWEkBjAkM5EUBwFEB7AkM/EEB/EkNGJkNKXkNPLJBMQUNMABBOTDywQHsbkE4AEE8+HFFCH08AO1EAAFNHCLBAdQGQN0IBSkwUsEBbDJBKAAM3AAOwQAACkFMAgg5PRA5HPgtDLxVPAANHAAJDAIIDsEAcAJBCQAhKOQNFOQiwQCoRkEIAAUoAArBANyFAQxNATBRAUxNAXBNAZRNAbA6QRQAARQkGsEByA5BMQjFMAAGwQGUSkEpBAbBATxVAPhCQSgACsEBBBZA2Nw+wQEkBkExJELBAURZAWRFAXlOQTk8ETAA8RQAETgAVNgA3NEcJT0kKsEBQBpBHPwywQAAGkDQAAU8AAkcAghFMRgpDRgRAMRhMAAJDAAdAAIFEsENLN0NHJ0NDBpBIQxY+MQlCLSo+AA+wQz8oQzsFkEgACEc5ULBDNzpAIBGQMjgCsEA6E0BGEUBRD5AyAASwQGEUQHUSQH8tkEIAgRtHACNMSgmwQFsAkDBAAENGFLBAAAOQTAAHQwAHsEMzAJAwAIImSEoFRUYDPEMaRQACSAAIPACCG7BAMAqQPjsBRUkIsEA7AJBCSBSwQD4SQEUSQEwGkD4ADbBAVBRAXxJAaBRAcBNAdCZAeGqQQgAFsEBuEkBkDpA5PgJHRgWwQGAkkEUAEjkAVkhQB0cAcbBAXBNARxJAAASQSkoDRUgCSAAENj8tsEAnE0A+E0BIFEBOIZBKAAGwQFADkEdEBkUAILBAUxFAVjSQNgAFsEBSEkBBFEAACZBIRQoyPwRHACsyAAiwQCATQDYVQDslQD0BkEVBA0gADbBAPxRAQSZAPhNAKhNAAC+QNzgERQAFSEEEQzoPsEAcE0A0B5A3AAywQDkBkEMAWbBAPACQSAAORz8FsEA+FEA9E0AvE0AAS0AnB5BHAAhFRgKwQEEKkDI+CLBATRVAVwaQMgANsEBgFEBnC5BFAAawQGs4kEM/J7BAcwmQQwAKsEB6E0B/SpArUApTSgFKTAqwQFkSQAAAkEoAClMAaDJDDisAczIAHE9JATRIBUdGGU8ABEcAeTZIJzQAgQM3SgVMUANJUic2AAiwQDwUQEkVQFERQFkVQGAQkDlGA7BAZhRAbgCQNwARsEB4EkB/B5BJAAxMAF83RQtMSQg5AAFJQRxJAAVMACmwQHISQEoUQAAAkE5ICzZCB0pDEjcADUoAB04AZDRHAk9KAUxKCDYAFkwAAE8AczJKBTQAgRcyAAM0RwtMTgpJSh1JAARMAGk2RRs0AHqwQCAMkEVOBElMArBARAmQN1AMsEBKBpA2AAywQE0TQFEVQFQSQFgfkDcADEkABDlTgR07UQRKTxs5AGawQFYVkD1YAkxPCbBAVAaQOwABSgAesEBQFUBNE0BEE0AjFEAACpA9AA5OTwE+WB5MAAw+AAewQy9dkEpQHk4Adj1VB09QFD0AAEoAZk8AAkxLgSQ+UgJOUBg+AAKwQDMMkEwACLBAShRAUBNAUyVAVwCQRQADSlAQsEBeDJBOAAawQGYCQzMBkEoAEbBAbjNAdCdAezSQSloFsEBxAZBRVwE2RRGwQFYVQC4QQAA6QA8gkDdFBbBACwCQNgASsEAAZpA3ACE5SBBPTg45AAJRACxKAE9OTAtPAIEHLUYETEoKSUQITgARLQASTAA6sEM3JpBORRdJAAxOAIEqMjQPSjuBB7BALhJAQRNASxRAVBJAXBRAZhJAcgaQSgAPsEB/CpAyAFGwQzMTQy8TQykUQGgBQyUSQFATQD4UQDQTQCwSQCkBQx4QQxcVQB4CQw8RQABBkEVHBUJMBz5AFkIAAkUAC7BDAAOQPgCCLzlJBEpPAUI0CUU+EDkAC0IACUUAAkoAgiA3PAROSQNFSwBKRIENNkMLNwCBATRAPDYAUDQABjJGgQgyACs5RglPRwdKAApOAAU5AH1OSglPAHtMRgQ8RglOAAVFAA6wQDQCkDwAD7BAQRJAPxRAPiOQTAAEsEBBDZBKOwWwQEIUQEQYkEoAH7BASAKQQ0YSsEBME0BRGZBKSAE7QghDAAGwQEYLkE9TCLBAAA+QSgAFTwBeOwAXPDyBGzwAEjs8B0pQHkoAZzk9BzsAdDkAADkxKFNQBDdKAjkAA0pMHEoAClMAXjcABTk3gRs5AAw7PgRPTApHRhVPAAdHADKwQwgckDsAEzdBgTBMSQlDRwY3AAOwQCkRQDIAkDwmBTsuEbBAPBNARBRASwiQOwAHsEBSEZA8AASwQFkRkD5CArBAXwKQQwASsEBkApBMAA6wQGoUQG9DkD4ADTxAFE5NCEVMBrBAaRNAVwGQTgAGRQALsEA9E0AAMJA8AAE7QwtPUgpHSxpHAABPAGBRUg07AABIRwI5QhBIAARRAEmwQw0xkDkAEzs1gRY7AAFORwxFQwY8NhVOAAlFAA6wQxFbkDwABLBDFRaQOTI4sEMZVJA5AAtLPxFCOAc7NB+wQx0YkDsAILBDIV1DJYEDkEIAES8uBLBAMBVAQw9ATRJAVxRAYRRAaRFAbjlAcwSQLwASSwAQsEB7FEB/bUBxFkBKApBHRg6wQABlkEcAMEkzekkADUs+AUJFHkIAVEsAH0w6gQ5MABVORAg/PyQ/AFtPRBJOAIEkP0YATkBfTwAjPwABQEMATEIcTgBaTAASQAAOS0IEQkweQgBkSwAHTEF3TAA3P1ACTkMgPwBdTgAGT0SBFE8AIztPBFFJLDsAHbBAExFAHxRAJRNAKBGQU0cBsEArFJBRABSwQC5vQCsQkFFLAjtNA7BAKSiQUwBgT0oCPU8LUQADOwBqTwASPQADTkkBP1QmPwBSTgART0iBE08AD1FOCDtIHzsAcVNKK1EAcFRMCDdLGVMAalFLAlQAAjZFA7BAIRRAGQKQNwASsEANEkAAYJBTSwE3RwZRAAI2ABZTAASwQCATQCozkDcAGDlATbBAKEGQOQARO0gETEkDQ0McOwAGQwAHTACBOrBAHhNAAFGQL0QNTkYJRUIVLwAgRQBDTgAKS0GBHzQ6CExDEUM7DksAZTQAEC8+FLBAFBFAIxRAKxNALyqQTAARsEAxG5BDAAMrPQIvABiwQDM7QDZHQDgFkCsAAC9DMrBAOxJAPRRAQRJARBVAQwCQLwASsEA0AZAoQg5HRgJDRQOwQAAgkEMAAUcAdCgAASo/gRFMRwErPwFHSQYqABdHAAdMAHErAAQtP4EcLQAFT0QDLz8ISkUTsEAoEkBAE0A+E0A8J0A6OJAwOgwvAIENMkACMACBDDRGFjIAJbBAOE6QNAADSgASNT4KSEdcTwAtSAAHR0gPNz4SNQBwOUMINwADRwADRUZ7RQAHO0kbOQATQ0ozsEA2KJA7ACE8PBZNSyhDADSwQDAVQBkJkDwABT5CA7BAAAeQTQAGSkeBDz4ABUxJCTxFFEoAFUwAXzwAATtHgRs5Qws7AARCRmE5AB5CAAM3QwhDRoEoNkMBQwAFRUkONwCBBTQ+AEdLDTYAC0UAgQAyRwdITAI0ABpHADwyACxIAAkwPwlFUHhFABEwAAUvQQhHT4EMLUUCSE0KLwAfRwBwLQAOSk8CK0gcSABbsEAgCpAtRQkrAAtITQhKAHkvRQwtAAJKTxtIAGwwRAlMTQdKAAIvAAuwQBkRQABVkDAABkwAHjJFBUVRB0JJJbBAFBVARAFDHxJASwBDGxFDFRNDDwyQLU4FsEBNAUMIDJAyAAawQE8QkEIAA7BAUxVAWgJDAAKQRQAPsEBjFUBtEUB1IkB5C5AqSRYtAH8tSQoqAIEFsEBwBpAtAAuwQEQCkCZPD1RUArBAABiQVABuJgACKEeBGCpKDVFTB0pNCCgAE1EAAkoAbitKGioAgRMrAAYtSw1OVARIUA+wQDkSQEZskC9LES0AGU4AcC8AAS1MBE5UQU4ABkgAQk9WAitPB0gpDy0ABbBASAyQSAALTwAisEBDE0ApE0AAEpAqTwFRVARITwYrABFIAAxRAHgrPQ0qAIEPLUwBTk8GRU4DKwAlRQATTgBGLQAVL0mBKzBICEpTBEJNCy8AHbBARCVAQkCQMkYHMAAFsEBDK5BKAHAwRg4yABJKTQOwQEICkEIAcy9JC0xQA7BAQwSQSgADMABLTAAgsEA5EpAvAAKwQAADkC1REkhPAE5UVrBAIhNANBJAOBKQL0kATgAET1EBLQCBEzBKD1FOBi8ADE8AaTJMETAABE5RBlEAJkgAPLBAHgeQTgALsEAABZA0TAEyAA9PVwpHUgw0ACKwQCMRQD0VQEcEkEcADrBASh+QTFAFsEBIDpBPAC6wQEQPQCkKkEwACbBAADOQMFQPUVMGSFABsEAwBJAwABKwQEgUQFQiQGATQGgUQG0hkEgAD1EAGrBAcSZAeBFAfkmQMlQAT1sPRU8RMgAJTkcDsEBSBZBFAAhPAAewQAArkE4AB0UxB09MKk5QJU8AgRImUSUmAHpPVQ9OABBFAAxPAIFVT0wDK0IFR0iBL7BAExJANxVARhJAURRAXhJAbQFDChFAeQFDEhJAfwFDGRRDHRFDIQCQKwAGTwAOsEMnEUMzAJBHABSwQ0QTQ1YSQ2IUQ2oSQ3ESQ3cTQ3xNQHkTQG4TQGEUQFQRQEoUQEESQDYVQCcQQABEkEU+B0I9Aj4zIEUAAkIACz4AghtKRAg5OANCNwtFMBlCAAVFAAk5AABKAIIbSjoBNzMBTkMIRTZ+NkMJNwCBEjQ3CTYAgQA0AAoySyxKAGAyABJPSQM5SRVOAA45AHFORxZPAHhMSAk8QwewQCQBQ3gTQDcAkE4ABjwADbBAPhJAQgSQRQAPsEBGFEBJDZBMAAhKOR5KACywQEwkQE4AkENAFLBATAmQSj4IsEBEEpA7NgGwQDITQAAskE9FVrBAHBNANRNAPxNARA6QPDcDOwABsEBHEkBKD5BKAAOwQExNQE4ZkDwAAE8ADLBARgWQOzoESk0FQwAEsEAwFUAABpBKAGk7AAI5PYEXN0QAUz4DOQAESkEeUSkESgALUwADTw0VUQA3TwAENwAGOUKBJ09CBDs9BDkABUdDHE8AAkcAYDsAFTdCgSmwQBkGkExJAzw+BDcABkNEArBAMgFDcxFAOhNAPgFDbxJAPxNAQxFARw6QPAAAQwAGsEBKAUNrEpBMAAI+OxKwQ2MjQ15OQEgNkD4AATxBBE5NA0VLELBARhNAQwCQRQABsENZApBOAA+wQD8TQDoTQDYTQDMSQDACkDtGAk9QBDwAAkdGCrBAIQ+QTwABsEAAApBHACs7ADw5RQdRSwZIRxtRAAZIAGU7PAM5AIEZOwAfTkEHPDYURUAiRQAKTgBaPAAIOTqBJLBDXieQOykLTDoOOQAJQiw8sENiMJA7ABJMABJLOwqwQ2ZeQ2qBJ0AmDJAvKAWwQDYVQEETQEkDkEIAD7BAUBNAVhJAXBVAYhBAZxRAbBRAcGKQLwBGsEBgEkBRDJBHQgBLAAiwQEsmQE8mQFIVQFQSQFcbkEcAIkkxDrBAWyRAX05ATwqQQkQJsEA3AZBLQQhJAAiwQC0UQDkSQEUUQE0SQFEMkEIAFEsAGkw4EbBAVhJAXRVAZFGQTAAKsEBYEkBEA5A/SwFOQw+wQCUnQDQQQEIVQEkIkD8ACLBASzWQTzoITgCBAbBARxJAPgaQTkEHP0oGsEAtFUALFpBPAFFAPwE/AABMRQ5BRQpOACiwQABBkEwABkEAF0AAAEs+AUJROEIAT0sADUxCgRNMACY/UAVORi4/AFNOAApPSR6wQAk4QABCkE8AGTtMAlFEJ7BAIBNAMhNAPAOQOwAQsEBBFEBCH5BTNBFRABuwQER8kFFCAjtKA7BAQRZAPBNANQGQUwASsEAyTZBPSAs9TASwQDAJkDsAAVEAHLBALkqQTwAlP1IGTkcIPQAYPwBgTgAOT0Y7sEArFEAlE0AAJ5BPABY7UQRRTCE7AHFTTiFRAH5UTgs3RxtTAHBRTgJUAAk2QB43AHw3SgFRAAhTSw02AA5TAFw3AA45RoEeO0sGTEoEOQACQ0YTOwAJQwABTACCFy9FFE5MBkVLEy8ABrBADSuQRQAdTgAaS0klsEASNkAAU5A0QgRMShFDRAJLAD6wQBcSQCcTQDASQDUSQDkAkDQAAi9EErBAPBJAPhVAQBJAQRRDZgmQTAANQwAqK0gNLwAQsEBCS0NiJkBDCpAvSRIrAAuwQ14UQEcQQEsTQFAWQFULkC8ABLBATw+QKEoEsEAyD5BHUgOwQAADkENOIEMAB0cAWipIHigAeSoACitLHUxVAkdPHEcACkwAaC1JGisAgSZPUQEtAAEvRQNKTG6wQBkTQB8ekDA4B7BAJReQLwCBADJHEzAAObBAIUWQNEsDsEAaAkNaE5AyABOwQBZtkEoAAbBAEgJDVQSQNAACNUcKSEofTwAIsENROUNLIpBIABNHTgc3RBw1ABqwQ0dRkDlJBkVQCEcACDcAdTtLAUUAEENJCjkAcDsAGDxDB01PIUMAHbBAFkxACQGQPAADPkYDTQADSkwIsEAAgRKQPgABTEwFPEgkSgAYTABhO0oBPACBITlCB0JKEjsATTkAKEIAAjdGA0NLgRk2SAJDAAJFTAg3AIEENEUHR04GNgAbRQAEsENCJUM7FUM1NpAyRgVITwY0AAmwQzEMkEcAUjIALjBEBUVQA0gAgQJFAA4wAAQvRAGwQy0CkEdQgQ9ITQItQw8vABhHAGlKTQMtAAErSyFIAGwtRQUrAAJITAtKAIECL0UESlQLLQADSAASsEALFEAZE0AgWZAwSAFMTQJKABIvADiwQAA1kEwAEjAAHTJDDEJCAkdAfkVGE0cAAS0+DjIACLBAFhZALBBAPBRARwmQQgAKsEBSFEBeE0BrA5BFAAgqSActAAGwQHYSQH8CQyUPQyBMQxwNkC1PCSoAJbBDFzZDEy6QJlIHLQAOVFYJUUgUsEBoBJBRAABUAA2wQBMUQABVkChMAiYAgR8qTg1RWAhKTQooABxKAAFRADCwQw8skCtKIyoAgQArAAktTghOVgKwQAkDkEhNELBATxRAXgGQRzYSsEBnCJBHAEUvTxctACBOAGVIAABIJQ0tSwtOUwEvAD5OAFQrUANPUg9IAABIEwctABpIAAFPAFiwQFUFkCpSBlFRBrBAAACQSFIMKwAOSAAGUQBkK0oFKgCBHC1MBE5OB0VQCysAFUUAEU4APC0AHi9DgS0wShJKUAJCUAYvABWwQDITQFQRQF0TQxM1kDJMFDAALkoAczBGFEIAAkpQATIAgQMvSwFKAAUwAAJMUUiwQFgBkEwAE7BATxJALxJAAAiQLwAELVAMTlQBSE8zsEAhE0A5FEBDE0BFD5BOAAcvSQJPUAMtAFWwQEQTQD8SQDYTQCoDkEgAAEghBjBNA1FREi8ACbBAMAGQTwAKSAAHsEA1FEA5N0A7EZAyTgNRAAFOUBEwAAGwQDwhQD05QDsFkE4ABTIACbBAIRJAABeQNFAAT1YGR04bNAAUsEArFEBKE0BaFEBkHpBMTwlHAAhPADJMAA6wQFwVQEESQAASQw8bkDBTC7BAGgCQUVMCSFIQsEBFAJAwABSwQFgSQG8UQH8BQwpPkEgAEFEAI7BDAIEEkE9aAzJODEVTB7BAdgmQTlICMgAGsEBCBpBPAA2wQABGkE4AAk9UPU5QJE8AgRYmWSMmAIE1T1ERRQAOTgAPTwCCHStGB09OA0dLgR6wQwgQQDIUQD8iQEQRQEcUQEsCQw0RQFEBQxESQFgSQGEUQGoTQHIRQHkTQH6BTZBPABpHACYrAIJjsEMNgSZAehFATAJDCBJAADpDAAeQR08oRwB0SkUhSgBxT1UwTlAATwASsEBABJBOABGwQEMLkE9IBrBAADKQPkcrPgBOO0MeOwBYTwATNz8NUVEXNwADUQB9NkUFU1AdNgACsEAXAJBTAAtRRQawQEoUQDMSQAAKkFNQEzxFAFEAKFFRBDwACFMAYDlFBVEAAFESGjkAW1EAITY4Bk9MFTYAHU8AA1FSNzdLBrBAOgKQU1wOUQADsEAAEpA3ACawQwhZkDsxIDsAXDdBA1FJDFMAFTcAAFEAbzI3AVNOIzIABVMAWS9BDk9PArBATRNASQaQLSUALwALsEAqFEAAA5BPAAotACpPPg0ySCQyAGQvRBFKSQJPABQvAAdKAFYrRxhHUA0rABBHAGAwSwtMUg6wQDYJkDAACrBATSdASBNARBNAQhWQK0UjsEBBApArABGwQD4hQDsTQDcSQC0UQAAIkEhPAjRMAUwAHUgADDQAXzBIAEVUHjAAC0UATLBDDBCQMlULQlIMsEA0D5AyAAOwQEgSQEITQDAWQAAnkC1RLC0AWUIACjZPE0o/DDYAG0oARzJMBrBDEAyQRVAQMgAMsEMLBpBFAFewQw8OkDdMA7BAJwmQSEoMsEA/IUA8AJBIABWwQCcAQwkRQAAUQw40kEdMH0cAC7BDCidDDjOQNwALRU4CMkwbsEMIAJBFAAYyAEmwQw0YkEdPG0cAA7BDCGBDDBGQL0kIQ1UNsEAWDZAvAAWwQDENkEMABrBAABRDCEWQRVoeRQAzsEMMJkMQFpBHXQQyRguwQwwXkDIAAUcASLBDESiQSlwesEMNBJBKAEmwQxMpkCtPAk9ZHrBAFwKQKwATsEBGApBOSQxPAAGwQD8OkE4ABrBAAAJDGRJDHi+QPlAesEMYCZA+AB6wQxxLkDwnAzsvDrBDFRBDEACQOwACPAAnsEMXJkMbD5A3RQRRURSwQxYLkDcABlEAE7BDESdDFymQU1EFNkocsEMRAJBTAAM2AAxRSwWwQB0SQEEVQBcBQxgJkFNQBVQ/A7BAAAqQUQAHsEMdApA8SwZUAAxRUAZTAAk8AAOwQxcUQxNIQxglkDlCJ7BDEQGQOQA1sEMWDZBRACdPTgI2OB42AAqwQxAAkE8ADlFYGrBDFSaQU1wCUQACN0siNwAmsEMPJ0MUJ5A7QyI7ABOwQxA5QxQekDdDBVFQA1MAFjcAFlEADbBDEDdDFQKQMksJU1kbMgAaUwBXL0wKT1kJsEAmFEBGBpAvAC+wQEMUQD8RQD0dkDdQKjcAF7BAPEWQMkwGsEA4CZBRWAuwQDYIkDIACbBANAKQTwAbUQALsEAyQJAvSwpUWwGwQDATQCwCkC8AEbBAGwiQVAAKsEAAVZArSgqwQxkBkFNXHysALbBDFTuQL0UjLwBoMUkQTFUWMQABUwASTABsNEMGT1YgNAAITwBpKkQAUVQcsEAcBJAqABCwQCcSQClAkC1RIy0AbbBAJAuQMk4IR08TsEAaApBRABCwQBACkEcAJLBAADWQSlItSgAjMgBKKEwGT08sKABTK001KwB4LUkDSVAYTwAKLQAMSQBVTFUBMVEjMQAFTABAsEMZJpAyTwROVw+wQCARQDEGkDIADrBAOhJAPkmQNEEmNABNsEA9FEA7B5BOAAhKVgM2OwKwQDYTQCwTQCEBkDYAAEoAI7BAGRJAACKQMjkITlUfMgAJTgB2N0cEU1gbUwADNwBuNEMhNAB2NkMEUVYhNgAQUQBiMjwkMgBvT04DOUghOQADTwBvTkokTgBhT1IMLUAUTwATLQBqTFAcTACBAzI6ArBDFQSQSkcgMgABsEMLYJAtPSUtAGgqQCQqAGktPictAG6wQBQNkCZDBrBAQhNAUgqQJgAJsEBkFUB2AEMQEkB/VpBKAIE1R04MsEB1EJBHAAOwQEcSQABFkEpPGUoAgQNPRiNOUARPAAGwQBcBQxUSQCcBQxkSQAAFkE4AFj43Kz4AK7BDHSGQO0ohOwBnN00YUVIINwAXUQBxU1AENkoYUwAGNgANUUgDsEBFFEA9FUAAAUMkB5BTUhNRABM8SBRRSwuwQx4HkDwAB1MAFrBDIxmQUQAMsEMrAJBTUhw5TxpRNgI5AAtTAAmwQyYmQy05kE9QAlEABTZLGzYAAbBDJheQUU4CTwAPsEMsFEAZAUMxEEA3AUM1BJBTXAg3TwWwQAAGkFEAGzcABbBDLBVDJhNDKhJDLxRDMyCQO0MWsEMtDZA7AAawQyYnQys1kFFOAjdBAlMAIjcAArBDIgmQUQAMsEMdE0MiIkMmEUMqEZBTVQMyPySwQyIBkDIAC1MAQrBDJyGQT1AEsEBEDZAvJg8tGgiwQDkDQyERQBkDkC8AELBAABCQLQADsEMlEUATDpAyShqwQAkIkDIAC7BAAAFDIDdACRRDJQyQL0kEsEAAEJBKTQhPAAQvAA5KABKwQx82QyQWkCtJFEdPDSsADUcAHLBDHSVDIiSQMEwSTFICsEA7DpAwAAWwQFMUQF0ekEwALrBAYwFDJgKQK0sRsEBoDpArAASwQGw0QHIBQyERQHYVQH4BQyUlkDRRCUxOG7BAbwWQNAAOsEBBB5BMAAywQAAJkEpPHrBDKQOQSEwFSgAZSAABMDoTMjEHR1IHMAAcRwABMgAisEApBpBFWQywQD0GkDJPD7BAAAFDLRGQMgB3MiwlMgAPRQA9SlIeNkoaSgAHNgBQRVQiRQAEsEMxapA3TAZITQSwQDAUQE8ZkEgABrBDNhRARRVAPxJAQRNARgFDMQuQR1ADsEBMFkBOFEBMApBHABCwQEo6QE0ZkDcABTJOAEVHBrBARRNAAAaQRQADMgBoR0YdRwB1L08LQ08VLwAKQwBfRVUfRQBzR1gBMkkfMgAMRwBoSlgeSgB7T1QCK1AhTwACKwADsEA9AJBOTwKwQzYTQDoGkE4AC7BAABKQT1I3PlAVsEM7FZA+AFI7TSA7AG1PAANRTgI3Sx43AAZRAGpTVQE2UCE2AAdTAAxRSAawQEUXQEgKkFNOCLBAABGQUQASPEgQUVIDUwAQPABzUQAAUTEMOUsdOQBSUQAoT08BNkYgNgAQTwAJUVI6U10JN1EdUQANNwBqO0gfOwB3N0IDUwACUVAaNwAYUQBLMksGU1UeMgANUwBjL08EsEAhAZBPVxSwQD4XkC8ACbBARRNASRRASyRATxNAUwmQN1kIsEBbFUBnAkM/DZA3AAOwQHQVQH5GkDJSBLBAXhGQUVYDsEAZA0NDB5AyAAiwQAAAkE8AHVEAL7BDSBmQL1ETVFYLLwAlVABPK00PU1QeKwBpL0wdLwB0MUoMTE8PUwAKMQAJTAB1NEcAT04iTwABNABvUUoGKkkesEAWBZAqAAqwQCIUQBYSQAA4kC1LHi0AejJFCUdOF1EABUcAbEpSMEoAKTIARE9TAyhGKigAUitLTisAXy1PBklUGU8ACi0AE0kAVExYAzFVKDEAAUwAcDJPAE5ZJLBAJBJAOQGQMgARsEA/J0A9FJA0ViE0ABawQD5OkE4AGkpXAzZKHjYAB0oALLBAOxRAMg2QMlMGsEASEJBOWQOwQAAOkDIAJU4AYzdPC1NZFjcAFFMAYzRKJDQAeDZIClFWGzYAF1EAWTJGIzIAejlPBE9PGjkADU8AaU5KIk4AgQJPTgItSR9PAActAGNMTB1MAIEIMjwDSkIkMgBsLT4kLQBpKj4lKgByLUEgLQCBD7BAMiFAQAaQJjINsEBIFEBRE0BcEUBoD5BKAAOwQHMMkCYACLBAexJAfxRDTHJDUUpAcBNAShNAAAJDVQWQUVYqUQBpTlIVTgCBAEpSFLBALhFAQRJANxZAKBJAHSRALhRANQCQPjwlsEAzBpA+AF05QSU5AGJKAA02Qw9MQhCwQDcCkDYAEbBAPQGQTAASsEBEB5BOTQ2wQEcAQ1ESQEEUQAADkE4ABTJHCU9TGjIAKE8AA05TNDlPCE4AAU9OGjkAHE5QFE8ALTZSHDYAfTJKEUxLAE4AETIAKkwACk5VMS9SA04AE09TIS8AbTtJHzsAgQA3LQQ1Mh83AAU1AFAyQSgyAGcvRygvAGIyTCcyAE1PABovRANKUB4vAAZKAGMrSw5PUh0rAAFPAH6wQD4DkC1MCVRRBrBATBSQLQBwMEQvMAAwsEBEFUAsEUAADJAtSRFLUgBUABYtABtLAE8qSAdOVR8qAAlOAGQrSxJTUhOwQBoDkCsAELBARBNARyVARTaQLzopLwBuK0cTsEBDAJBMTgBTABOwQD0BkCsADkwAArBAHhJAAFGQKDkBT0kkTwABKABoTkwHL0cgLwANTgBdTEgnTAByMUkBS04nMQAGSwBlSUwhSQCBATNHFLBAEACQR0gTsEA2C5AzAAawQD0WQD4BQ00RQD8SQEETQEIBQ0kTQEQHkDZEIzYARbBAQRVALxJAAAaQO0QIUVAURwAHOwAUUQBYM0sGTk0fMwAVTgBhNE4QR0YiNAADsEA6FEBBVZA4RiM4AB+wQDwTQDQUQCoCkEcAD7BAJBNACQqQO0IBUE0IsEAAGpA7AB1QAFIyRwhMTjIyAAlMACWwQ00ykDFQB7BAPQiQRlAMsEBBE0A8BJAxAA+wQDlLQDsakDQzIjQANbBAORRANhNAMhNAMAaQOkoHT04BRgADsEAuFEAfDpBOFAOwQAAJkE4AAk8ACDoAUExKBzFLLDEAA0wAbDNEAkVOFLBAMAyQMwAHsEA+E0A8WJA2SB42AFawQDkmQDQNkDlGBU5PAbBAMA6QRQAEsEAoCZA5AAuwQB4PkE4ABLBAExVACw9AACqQS1AJPEUSSwAPPABlO0cQRFQUOwAHsEA0E0A6SkNJCpA0Ti40AGCwQDgHkEQAAThNDLBALgWQTVANsEAADpA4ABlNAGQ7TwZLVBg7ACBLAFY8UARMWBs8AAVMAHpAQCJAAHZOUwI8PyE8AA9OAGI5PSQ5AHBHUAw7ShdHAAM7AIImS00TLz8EMDoaSwAILwAAMACCB0xMAzQ3KjQAZy9HIy8AcStDISsAaS9EJi8AgScoNQ6wQDYSQEgLkEwACLBAUhNAWxNAYxRAZ3qQKAAusENNE0BaFEA8E0AAD5BPVDFPAGZMUiBMAHlHUAKwQDQTQDISQCwTQCk5QCwfkEBBNkAATrBAMBNAMwWQOz4OsEA2FEA6A5A7AA6wQD0TQD8UQEETQEMekDc/B7BARQOQSFAERwAVNwAFSAAXsEBHJ0BME0BREUBVDpA0TAOwQE0FkEpQEbBAGgqQSgAENAAEsEAAEJBISi9KUBhIABA3TA9ITRJKAAI3AGQwRiYwAF5IABY0RwpHTRQ0AApHABFITQWwQCcSQBojQAAZkC9QA0pYA0gAKS8AcDtEIjsAY0oACjdDD0dOFzcADUcAVzJFF0pHDDIAC0gxCEoAGUgAPS9JFE9QD7BAMQCQLwAUsEBKFEBFEkArE0AAMJAySx8yAIECU00GKzMUTwADKTIZUwADKwAOKQBQL0cDT1MfLwANTwBhME0PTEwSMAAHsEAyE0A3E0AmAUNREUAAMpA0UCE0AIEINUYPRUwFTAAWRQAWsENWXpBIUCdIAAs1AGAvSRBKTRcvAIEIMkMbMgCBCERKBDRDJUoAA0QAXkdPLkcANzQAPy1FAkhJFbBAJxRANheQLQANsEA0EkAxKpAwPhCwQDUvkDAAHLBAMhJAKBVAABKQR0gGSAABNEMcRwAINAB9SEkHNz8YSAALNwBvNjgOsEAZBJBFQBQ2AA6wQCgVQDYSQD4TQEItkDk+KTkAQbBAPxJAOhNALxNAAAKQSkgBNj0RRQAPSgAFNgBiMjwKRUwWsENSBZBFAAIyAGmwQCQMkDdDB7BAPQ6QR0kGsEBCC5A3AAWwQEQVQEcSQEkSkEcAArBASz2QMjsORykcMgA/sEBIAkNWD0BED5AvQwSwQD0UQDoGkEcACkNGArBAOAKQLwASsEAvCZBDAAuwQABZkEdRBjJEHUcABTIAaStQCkxSJSsAArBAPRJAR0pDUhKQLzkQMDQTLwAQMAAcsEBFEkA+FUAuAUNNEUAAAUNJBJA0SApPTwlMAA40ABdPAF43SRVHUxc3AAFHADuwQ0VJQDUAkDlJEkhSA7BASQFDPhJATQmQOQBEsEM4E0M0E0MsA5A0QA6wQyYUkDQAE7BDIiVDGhJDEyZASgKQSAAHRVMFMDQDLzICsEBGFEBBCZBFAAQwAAQvAAGwQDYVQCIBQw8QQBQTQAAfkDRJAkhWHzQAD0gAYC1QCU5XGLBAMBFAPACQLQAEsEMTEUBBEkBEFEMXEkBGFpAwTxCwQEgUkDAARrBDHCZAQxCQNk0CsEA3CpBRUgqwQAAAkE4ADzYAHFEAWjlIBUhYHTkAA0gAgQI7TgVKXA+wQEYTQFMBQyEKkDsABrBAWU2QN0okNwBNsEMdJJAyTwlKAAywQFQHkEdUC7BAPwaQMgAMsEAAC5BHAGA3TwNKWBo3ABBKAHIvVhJPWBGwQCQTQEMDQxgAkC8AELBARyRASgFDHC6QMk8LsEMYF5AyAA6wQE0lQE84kDdPClNWC7BARQWQTwAGNwAGsEAfE0AABJBTADSwQx8mkE9XATtPHTsAEE8AILBDJRJDKz6QPlIJUVUFsEA1AUMnEkBME0BSAUMtWZA+AASwQFAAQygFkE9QAlEABUBMG7BARRBAIQKQQAAFTwANsEAAAkMtRUMpFJA+TglOUhU+ABROAFc8Tw5MWBc8AAlMAG07UQ5KVQ+wQCoFkDsAD7BAQxNARSRARDKQPlEhPgALsEBCE0A+E0A3FEArEJBKAAGwQBcVQAAGkDtNBk9OGzsABE8AZzdPCEpWGTcAE0oAZrBAMQeQMFADTFcKsEBMIkBOCpAwAAawQEsBQy0UQEYQQEEUQD8SQykRkDRSA7BAORVAKAuQNAAGsEAAAEMtbpA2UQVFUAJMABtFAAI2AHU5SgFIUx1IAAU5AHtKVwktOQQvORSwQBwNkC0AAy8AArBAMxJALhJAIhRACxJAAA6QMlIfMgCBADdUCUBQFUoAB0AAgQFDVB1DACk3ACiwQzEnQDYGkC1LCEhSA7BANBNAFw2QLQAFsEAAYpAwSiQwAH8yTANCUgtIABYyAA5CAGNFVAM2TxxFAAE2AHo3TQSwQysBkEdUELBANxVATQGQNwARsEBYFEBcR0MnDZAyQAWwQGEckDIAHrBAZilAahKQRwAXL0kDQ1MdsEBeA5BDAAMvAAuwQEIEQysOQABRkEdRATJIH0cAAjIAbjdKAkpDC0hIFkoAAkgAAjcAAbBDL19DKwCQMkkMR1IRMgAFRwAXsEMvOEMrGpAvURJPWA4vABBPABWwQEIBQy8TQFgQQG8VQH8ekCtRLysAdjJSAEhcI0gAEUdQDbBAbhRAPQuQSCIHsEAAOEM0IpBIACuwQzBbkDIABUcAAUVTECZPHEUABCYAF7BDNE5DLh2QQ1gZsEMzD5BDACqwQy9rkENWBitIgSewQypyQyUUQyFJQx0PkC9IA7BDGBRDExGQLwAWsEMPcEMAEJAyRiUyAIFCsEAqCpA3RwewQEIDkCsAELBATQSQNwAPsEBaA5BDAA+wQG4TQH+CUkBcCpBRWAewQCITQAAWkFEAgQBOWSdOAIESSlMYsEAfE0BHE0BMOEBJF5A+SCo+ADGwQEcxkDk/CLBARRiQOQCBAUoABzY/BkxEHjYABrBASg+QTAAGsEBNCJBOTx6wQEQTQAANkDJLA04ACk9QGjIAKE5QAU8AFLBDCB2QOU4STgAMT0wEOQAsTk0LTwAmNlEUT04BTgAINgABsEAWF0AsAUMMEEA3EpBPAARORw6wQDECQxAlQDYRkDJDAbBAPAiQTEMMsEBCFEBBCZAyAAqwQC8RQAAEkEwAH09PCU4ACS9QMC8ADLBDFVCQO0gjOwAlsEMaT5A3SiY3AHIyPCEyAGovRRewQD4RkC8AAbBAQhVAMBJAAEeQMkYiMgBMTwAgL0EFSlEaLwAHSgBjK0oJT1MgTwABKwACsEMebpAtSxBUVQiwQEANkC0ABbBAUSJAXRJAZxRAazWQMEgrMABeVAAFLUsNsEBlA5BLURCwQEsIkC0ABksABLBAAFuQTlIEKkMjKgADTgBsK0cMU1AXKwAGsEAvFkBGEkBJOEBLEZAvRCcvAF8rSAGwQyIMkFMABkxMDCsAFUwAGLBDHkdDIgeQKEkMT1EcKAABTwAHsEBEFUAbE0AAR5BOTwMvSxWwQB0SQDYTQDsSQD4EkE9IAk4APS8AEE5TDLBAPwiQTwAMsEBAFEBCDZBOAAOwQEcAkEw9ErBASxVDJhJAQhNAAACQMU4CS1ACTAAdMQAssEA5CJBMRwJLAAawQEsWQE0BQy4SQEcQQEEHkEtKDbBAPBJAQQCQTAAVsEBGFJBJRgNLAA2wQEETQCgUQAAXkEkAAkdMDDNBFLBAJw6QMwAGsEA8EkBCEUA/FEA7FEA8EkBAHJA2QAWwQEQSQEYKkDYAHLBARBRAQhNAQSdAQg6QOzkEsEBAAJBRSxKwQDcEkEcADTsAC1EACrBAAE6QM0AITkogMwAYTgBkNEIDsEAkEUA0AJBHQhSwQD4GkDQADrBARhJATBNAUhJAVxRAXB+QODkFsEBgJZA4AFJHABCwQFwKkDs8CVBME7BAVgyQOwAEsEBPFkBCBJBQAA+wQC4RQAAjkDJCB0xKUjIAL0wAMUZNAjFFJrBAFhVAKwaQMQALsEAuFUAwEUAyE0A2BJA0Pw6wQDoUQD0JkDQAVrBAPB+QOkkQT0wXRgAEsEA6BZA6AA9PABhOFQFOACGwQDgckExPBzFGFrBANhJAMxFAKwKQMQAHTAAKsEAAUpAzQglFSyozACewQBsSQCwSQDQSQDcDkDZEJzYAgRQ5QgBOSRdFAA05AANOAA2wQDVMQDIKkEtLDTw8D7BALAyQSwAEsEAfCJA8AA6wQABakDs6DURJDzsADrBAKBJAORNAQxNARziQND0xNABqTUsGOEACRAAHsEBEE0BDApA4ABVNAA6wQEIUQEESQD8UQDwLkDtDAktLBrBAOBNANASQOwAQsEAsBpBLAAywQABnkDxGBUxNFbBAIAJDMwSQPAAJTAAFsEA3EkBDFEBJP5BARh2wQEYGkEAAILBAQxJAQhVAQRJAPxRAOQGQPEAJTk8IsEAnDZA8AASwQAARkE4AWTlIHzkAcTtNBEdFDLBAOBCQOwACsEBDBZBHAEawQEJKkElGKLBAQQCQSQASsEA8AJBLShSwQCAVQAAtkEsAAi84A0xKIS8ALkwAAUtNIbBDOjCQSUwCSwA2SQABS0BNTFEBND8BSwAoNABzL0IgLwCBAis4IysAcS8yJi8AgTKwQz4XkCgzD7BAJxFAORRAQRNARhCQTAAEsEBKE0BQEkBXFEBeFEBkEEBqEkBxFUB3PZAoADOwQGsUQFgUQDkRQAAVkE9IIk8Ad0xHI0wAfkdFgRZAOzNAAGM7PBk7AHQ3OwFIQwNHAB5IAAI3ACCwQBwVQCwSQDcUQD0SQDoFkEpHCjQyA7BAABaQSgAPNAADSEctSkMJSAAnN0ABSEwOSgAVsEM6AJA3AChIABOwQz4mkEg9ATBGIjAAArBDOjpDPjOQSAAINEYLR0gXNAADRwAKSEcusEAeH0AADpBIAANKVAkvTDMvAGs7QiQ7AEhKABc3RAWwQzoGkEdUFjcAE0cAXDJHCEpYHzIADUoAXC9JE09SFbBAKweQLwAMsEBDFEBBEUA8EkA2FUAxEUAzBpAySgywQDgVkDIAJLBANlGQU1AKTwAEsEAyFJArLQwpKgKwQC0MkFMACLBAJAmQKwAIsEAgFJApACWwQAATkC9AAk9JD01KDy8ABk0AAU8AdzA2BExCCbBANACQTTcRsEBBB5AwAAywQz8LkE0AB7BAPhVAOzaQNFACsEA8AkM6G5A0AAuwQz5cQDkTQCoGkEVOBjVEB7BAAAaQTAANRQB3SFAgNQACSABvL0kBsEAWC5BKTwewQCcVQB8EkC8ADrBAGXKQMkciMgCBArBAAAKQNEwBRE8KSgAWRAB+R0ggRwCBAy1JAEpREjQATi0AMzA/DkhMBUoAIDAAAkgAazQ7AkdLIUcABzQAckhPDDc8EkgAFDcAV7BDOQ2QNkUFRUwdNgAHsEA8E0BGE0BIOUM1DJA5SCo5AGk2SwywQEYFkEpKCkUAArBAPAWQNgANsEAABJBKAGUyQAhFUhlFAAQyAG03TQ1HUAGwQEIBQzkTQE0JkEcACDcABLBAUhFAVBRAVzNAXQ+QMksiMgBiL08WsEM9D5BDSAUvABhFUwFDABxFAAKwQE8ekEdSCbBAABSQRwAOMjogMgAESFA3SAADSlAbsEANApArTQ6wQDEAQ0EEkExdC0oAAbBAIA6QKwAGsEAaFUAeEkApEkA0EkA6I5AvPiIvAFOwQDISQAASkDQ9AUwACE9OGTQABU8AaTc9A0dUFkcACjcAfTlLEEheErBAPAuQOQAHSAABsEBOE0BWFEBbEkBgIJA0SQSwQGYgkDQAYzBSHkVJCzAADUdWBkUAMEcAB7BAXQeQSFQOsEA8D5BIAAKwQAAEkEowBzRJITQADUw8E7BDRxyQSgAdTAAATAoLLVMDTlwFsEBBEUBTC5BMAAiwQFoIkC0ADLBDTRNAVxJDUjlDTQCQMEglMABvsEBNAZA2RwtRUAVOAAGwQDITQAAEkDYACFEAZjlDBkhWHEgAAjkAeDtLCkpgFrBAPA+QOwABSgAGsEBSEEBfE0BpFEBvH5A3TyI3AGIyUStHQgUyAAhIWBZHACBIAAtKUBxKAAw3SA6wQGsPkExNA7BAUwKQNwASsEAAI5BOUAdMADIvVwOwQDMBQ1EBkE9bErBAQgSQTgAcsEBKCJAvAAywQE43QFAxkDJKJjIAYlNPA7BARwCQTwAEN0QSsEAaCpBTAAQ3AAOwQABskE9WBDtHG08AAjsAerBAJAKQPkoKUVcIsEBIE0BNTkBPE5A+ABGwQFIFkEBGDrBAVAiQT0oLsEBXB5BRAAdAAAdPABGwQE0RQCgVQAAakD5IEk5XGT4AGk4AYjxJDkxZFDwADUwAZTtOD0pYEbBAIQOQOwARsEA2EkA9E0BDE0BGJUBICpA+UAewQ00VQEoRkD4AFrBATSVATx6QSgAHsEBSAZA7ShWwQFUEkE9XDzsAD7BAShKQTwACsEAgEkAAQJA3SghKXxk3AA1KADywQ0kSQ0ISQzwRkExcAjBNFLBARhRAVQmQMAALsEBbAkM2EUMrEkMcIUMPHpA0UhuwQwsHkDQAMrBAUxJASxFAQRRANAeQNk8BRVYKsEAbBJBMABCwQAAAkDYADUUAZzlLD0hQETkACkgAAkc3IUcASLBAHwGQL0sSsEBFA5BKUBCwQE8DkC8AEbBAVxFAXEyQMlUdMgBpsEBYEkBCBJA3VglATwSwQAAPkEoAD0AAgQlDUxlDACY3AEWwQDISQEEAkC1OA0hTEbBAPxNAPQeQLQBXsEA8B5AwTywwAFKwQDoUQDgKkDJMBEJUBLBANQuQSAAGsEAxC5AyAAmwQCkBkEIAErBAAFiQNlIHRVcZNgAPRQBwN00JR04IsEA5BpBISg2wQFMJkDcABEgAA7BAZBVAcRRAeDaQMk80MgBVRwAcL00IQ1UOsEBtE0BNA5AvAANDAA2wQABbkDJQCkdYFDIAEkcAaDdKCkpYHzcAEkoAUTJODkdXFDIAF0cAYS9SEU9YES8AFLBAMwiQTwAMsEBHEEBQFUBYEUBgFUBnCpArVwWwQGsgkCsAULBAcBNAdRRAfBOQSFwEMlUxSAADsEBjDZBHUgWwQCASQAAYkEhSS0gAgT0mUgZFTARHAAFDTgsyAA9DAABFAAEmAIElsEMACZBDWyhDAIFcK00hQ1aEBi9MNC8AgiAyTzEyAINiN0OBGLBAIxJALxRANRJAORNAPhNARBNASRRATxNAVRJAXhRAaBFAcxNAfopRkCsAgkywQHglQHIhkDcAA7BAaRNAYgSQQwARsEBaEkBTFEBOE0BJEkBGXEBEFEBDAUMIJUBBE0A/I0A+EkA9J0A5EkA3J0A1N0AyJkAwE0AuE0ArE0AkFEAbEEAWFEASE0ANFEAJEEAAhFpACSdADyVAE4EWQBeEVZBKNoFQsEASE0ALFEAAOZBHOwZKAIEjsEAcE0A0D5BHAAKwQEITQEoVQFASQFQTQFcoQFwRQGERQGWCBJBFPRqwQFwRQE0RQD0WQCgQQBeBcJBDMAVFAIFNsEAbc0AggkaQPjaBf7BAGi+QPgAHsEAJFUAAEJA7PHWwQCITQDcTQEMRQEsCkDsAErBAUhNAWBNAXDpAWBNAVRFAUSZAThNATBFASRNARhRARCVAQyhAQRJAPxRAPhFAPRVAPCVAORBANwiQOS4MsEA1E0AyE0AwI0AsE0AqTEAogUeQOQAONy2BIrBAJF9AHRRACxNAAF9ACxJAIRRALhNAOBNAPhBAQxVARYEOkEVADjY4DzcALkMABLBASCVASxOQNgACsEBOEUBRFEBUE0BYJkBdWZBHSBdFAAGwQFADkDc5EbBAQhJAMhNAKUSQNwACOzhuOwAUPjt7PgAVQzFIQwA+RwAgRTsFQjRosEMMgSpDEHFDFF5DGCZAK19DHIIekC01gkItACgqPAmwQCgUQB0SQACBEpAqAAOwQCAUQDcTQEETQEcUQElMQEdLQEVJQEQ5QENLQEIPkCgrBLBAQRNAPyBAPhRAPRNAPCRAOidANxJANSVAMhNAMBNALBNAJBRAExNAAHSQJiILKABTsEAcEEAwFEA+EkBIEkBRE0BZE0BgApBCAAFFABGwQGUSQGklQG6CKUBqJ0BkE0BeAZBHQgQmAA+wQFgQkDIwAUMwAbBAUhRATRNAShNARyRARBRAQkxAQSVAPxNAPQOQQwAQsEA7EkA4CJAyAAywQC4EkEhJBEcACDAyA7BACwCQRT0SsEAAgRZAEhVAIBNAKxFAMRNANCdAN4JQQDAHkC81BUpHB7BAGQaQSAAOsEAAAZAwAIETsEAmFEA2EkA+FEBEE0BGJkBKJEBNJkBPJ0BSE0BUJUBXcEBVFEBME0A8FEAABZA0NxdDQw1FABZKAAywQCYSQDgVQEISQEkRQE4UQFISQFYdkC8AF7BAW01AXxmQT06COrBAWwyQTEcJsEBTAJAwNABPABKwQD8PkDQAArBAAExAGhRAOhNASBNAUhNAXBNAZRFAbhRAc4IXQHdkkEpEBC02B0wAFrBAaQiQMAALsEBRA0MgC5BKAAOwQDUSkEhBAbBAEgyQLQAZMCIBsEAdEkAiA5BKRgRIADtINgVKADMvOwkwAIEDLwAFLTZ3LQAMsEMkBJBDABhCPxMyJ4I4R0ACSACCPLBAHAqQRwAESDsBMgAEsEANA5AmKQ6wQABfkEgACkVCQbBDKDlADxRALRFAPQKQR0ESsEBIEkBQCJBFAAqwQFoOkEIABbBAYxNAawBDLAiQRwALsEBxJ0B2gUqQJgABsEBuAJBIRQQrOg+wQFoJkEMqC7BAQhNAIRRAGRJAIhFAKxNAMhRANAaQSAAoRzcwRwAcSD8fsEAyA5BIAAVHSFGwQDAkQC0VQColQCITQBwUQBMSQABSkC84JysAC7BAEhJAJBRAMBNANwaQLwANsEA6FEA+EkBBEUBCFEBDgSCQRwACRTkKQwB/sEBCgRhAQRJAPhJANxNAIBOQMi0BsEAAAJBFAAhDMGiwQCEUQDsTQEcIkDIAC7BAURJAWxJAZg2QQwAHsEBvEkB1JUB7g0SQOycyNyUVPjICsEB2JkBuFkBnEUBfA5BDMxCwQFMSQEQTQC8UQAkSQABKQAkVQB4SQC8UQDwSQEQSQEoTQE8VQFMRQFgJkDsACbBAXRRAYRNAZhFAahVAbgiQPgAJQwAVsEB0g0GQNwBxsEBwFEBmEkBaCpBHSwewQFMoQFYmQF0SQGEmQGZWkEcALbBAa0GQSlINsEBgEUBME0AwE0AbAUMoEUAlFEA4E0BFIUBQE0BdE0BsE0B6E0B/E5BKAIMMT1AmsEByE0BQCpBOUgJPAAawQCQUQAATQBcNkE4AA7BAMhCQT1ADsEBBFkBKEkBQRJArOoESLUIDKwA9sEBOJkBKFEBHE0BFCpAvPgYtAE6wQEQTQEMukC8AAjBCcTAAHDJFgQ40SAhRThIyABBPAGSwQEENkDZABbBAQAWQNAAMsEA+E0A8FUA4EkAzE0ArE0AdE0AAF5A3QxY2AAZTSChRAF03AAo7OzGwQCgSQD4SQEwNkFMABbBAWBRAaA+QOwADsEB2AZA5RBOwQH8+kDkATTdHMzcAgUU3PwmwQHYBkEpLEbBAZQWQRUIFQEEIsEBPFUA4I0AAgmiQSUUASgCBAbBADRNANA6QQAAFsEBFAJBFABOwQFITQGATQG4KkEkACLBAeRRAf4FKkDcAIzs5CLBAexNAcxJAZhRAWhNAUhFATx+QTE0BOT8AOwAGsEBSOkBUJ0BWLJA3RQs5AIEeNwAJsEBPApA2QANRTg6wQDsIkEwACrBAAGOQNgAdNz8DsEAdE0A0FEA+EUBFE0BJE0BME0BOJJA0PwGwQFEVQFMVkDcAEbBAVyVAWz2QNAA1sEBfgQNAVxNARxNAAAuQNjsKS0VFUQBMsEANEJBLAAGwQCcWQDMAkExMEbBAOxRAPxNAQSZAQg2QTAAYsEBDCJA2AAFOTQuwQERrkE4AB09RJLBARnJAQQ6QTwAEsEA2A5BRUAEzPA6wQACBCpBUSglRAASwQBkWQC0RQDcUQD4QQEITQEQBkDMAN1NJDFQAeFFJBVMAfrBAQRVAOg6QUQABsEAgEJBPRQewQAAJkC8yb08ACLBAJweQUUMOsEA1EkA9FEBBEkBDFEBERZBRAAdORDewQEMkQEINkC8ABbBAQSdAP4EsQD4lQD0SkE9CA7BAPASQTgAOsEA6EUA3FEAzE0AtE0AmIEAhLJA0LQ6wQCoTQDIUQDcTQDpGkDQAGDcwdzcADTY8gQs2AAU0P4ESMkAANACBGTIAATE8CExAW0wARjJAFzEAc7BAOBCQMgACsEAyDZA0NwWwQCcKkEk8CrBAAF9AGRFALgaQSQAOsEA7AJAxOwY0AA6wQEISQEVjkDI9HDEAbDIADjQ/gROwQEQSQEITQEAKkCoxBEc2A7BAPhVAPBNAOBRAMAaQNAAMsEAlE0AhggCQLTYBRTUORwBGLQCBJbBAJUiQLz5LLwCBcExDCU8ADTEyGbBAKCqQTAAHMQCBQLBAIydAHiRAGQuQTj8WMiErsEAkEkAxE0A8E0BEE0BJFEBPBZBFAAFOAA6wQFQRQFoTQGITQGwUQHYSQH4hkDIACzQ5gg40AGawQHQWkEU5C7BAYwaQQzYDNiwLsEBQEkBBFEA5W5BFABJDAAU2AAsqAIMSsEA3J0AwEkAhFUAAJZArLQlHMwhCNXGwQCYVQDwOkCsAA7BARweQQgAIRwADsEBNNkBFEkA3FEAJFUAAg0GQSTIbLSwDQCWBD7BAKguQLQAEQAABsEA9BJBJABCwQEYUQEkTQEYSQEESQDoTQDaBJkA0XkAyJkAwTkAugQNAMBJAMxNANwOQSjMQsEA8AZBFKwVCJwQyKwqwQEITQEYUQEoQQFAUQFgUQGMRQHARQH03kDIAhHCwQHclQG8RQGgWQF4RQFMUQEcSQD4UQDpeQDgDkC00Yi0AglYqJoEJsEA6MpAqABuwQDiFS5AmH4EBsEA6OkA8EkA+FEBBEkBFFEBHEUBKFEBOE0BSEkBXEkBdFkBjEUBqE0BxE0B1J0B6DpBCAFJFAAhKAB8mAII+sEB2WkByN0BsJ0BoJkBkJkBfJUBYEkBUFEBQFEBLEUBGE0BDEkBCC5BKPy6wQEEnQD8UQD0kQDsmQDcSQDUnQDISQDATQCwTQCgUQCQTQCARQBkPkEdBArBAAAuQSgCBELBADRJANBJARA+QRwAEsEBRIkBdFUBoEUBxFUB2gz2QRT4GsEBxFEBoEUBbEkBNFEBDFEA9gU9APII9QDpLQDcIkEM0AkUACLBAMRRAKBVAIYIIkD49gl07QhY+AD6wQBxgkDsAELBAFzlAEyVAD4E9QAuBfpA5MYUdOQAdNy2BarBDJBNAADyQRUkXNjMLQwApNwAQsEALEkArEUA8E0BHEkBQFkBZB5A2ABqwQGISQGaBCJBHRg6wQGAFkDc3AkUADrBAWRJAURNASRRAQhJAOxRANwqQOzYCNwBjsEA1HJA7AAE+Oh6wQDNqkD4AFUM1R0MAV0cAHUU9BkIyEbBAMYEIQC+BEEAthTiQLS2CSS0AIyoxDrBAKiVAI4EbkCoAg2ooLINhsEAoEkAtFEAyEkA4FEA9EkBAEkBCDpBCAAWwQEQTQEYJkEUAC7BASRNATRJAUBNAVBNAVwiQJicTKAAKsEBdKEBjgV5AXQyQRz8FsEBYB5AmAAUyNAiwQFMAkEMwE7BAThJASRRARRNAQxNAQiRAQSZAQBRAPydAPiRAPRNAPBRAORJANAKQQwAMSEkDsEApBJAwMAFFPgEyAApHAAOwQBQUQACBKkAJE0AWJUAcJ0AkJkAqJkAtgXFAKxVAJguQLzkFsEAZDpAwAANKRwGwQAAJkEgAgUmwQBkTQCYSQC8TQDYRQDoTQD4UQEETQEImQENLQEWBBEA+FEAuE0AAEJA0NyJKAAWwQBcAkENKAkUAErBAMhNAQRGQLwACsEBKEUBRFEBYEkBfFUBmEkBqgSiQT1GBYrBAZSRAYBNAXBRAVRFARBVAEwmQNAAGMDcBsEAAApBMTCNPAE6wQB0TQDcSQEMTQEwTQFIUQFgSQF0UQGESQGUTQGmBF0BtgRNAciVAdidAbQ+QSkYDsEBYDpAtNAJMAAOwQDkTQAAKkDAAGkoAD0g6Ii0AFDAkAUpABEgAUUhGCEoAJjAAAi9CgQMtPAMvAIEJLQAFQwAQQj4SMjaCQUgACEdCglsmLwNHAANIPhYyAGhIAA5FPYEXR0QCsEASFEA4E0BHAZBFABGwQFIUQFwEkEIADrBAZhNAbhiQRwALsEB1E0B5E0MoFEB+gQiQJgAMSEkBsEBuDpArMwawQFYBkEMuEbBAPhRALCVANRJAOxVAPS6QSAAaRzw3RwATSEQCsEA6FUA4H5BIAANHRAGwQDYUQDQUQDBdQC48QCoRQB0SQABhkC8zFCsAD7BAFxRAMyJAQRNARiOQLwCBTEMAB0U/EUcAgi+wQEMTQDsRQCUJkDIxDLBAAAOQRQAIQzhAsEAeE0A4AkMuEUBHAUMyEUBSE0BdAkM4DZAyAAOwQGgUQHEUQHYRQzwhkEMABbBAehNDQINokDcwgQhDOBCwQHUiQG8pQGkNkDswEEMAHLBAZSKQPDYVsEBeJkBXEkBTEZA+PgGwQE8FkDwAD7BAShNARRNAQhqQQzwIsEBAFUA+EUA5E0AwEkAkE0APE0AAOkAJEUAlE0A3FEBBE0BJE0BQE0BXCpA7AAmwQF8SQGcSQG4UQHQHkD4ADbBAeRFAfRCQQwCCazcARUdLUbBDPFeQRwADsEM4JkMzJ0MrJUMmJUMiFEBmCZBKUwmwQEgUQDQTQDgBQx0SQEMSQE8TQGETQHoTQH8lQxgQkEoAT7BDFDhDEDlDC4F9kE86Dk4yBE1BDLBAYQyQTQAGsEA6IkAAAJBOAABOKwNPADewQC8SQEAJkE9PB04AArBASBRASkmQKzuBDysAAi07QbBASEOQLz4CLQBSsEBGSZAwQgQvAG0wABoyRIEPNEIWMgAisEBEXkBDFJBRTgE2PgZPAAk0AASwQEERQD8TQD0UQDkSQDQTQCQUQAATkDdJG1NOAjYAKVEAKrBAIBNAOwaQNwAGOz0HsEBKEkBVE0BiFUBuEUB2AJBTABWwQHoJkDsAHjlIcTkAGDc/KDcAgTOwQG4TQFkFkDc8A0pPFkVCAbBAQAWQQDsOsEAAgnuQSUINSgBiQAAXsEA0E0BFB5BFAAuwQFMUQGISQHAQQH0AkEkAgXM7OQM3AIEnOT0HOwB1TFMZN0QUOQAosEB4S0BzDpA2RAQ3AAKwQGMKkFFSBrBAQRRAAA2QTAA/sEAcC5A2AAmwQDkTQEUAkDc+ErBASxNATxJAUhRAVSVAXBFAYBmQNEcOsEBkBZA3AIEbNACBRLBAXxGQNj4DsEBMDZBLRQOwQABfQAkHkFEADLBALxJAPBGQSwADsEBDDZBMSwWwQEYUQEgTQEoTQEwSQE4TQFESQFMAkEwAFLBAVgmQTlEGNgBzTgATT0sjUS4oUQA9sEBYCZBPABpRUgOwQFICkDM/EbBAQxFAAF1ACw6QVEsEsEAwDJBRAAmwQD4iQEURQEkUQEsakDMAMFNLF1QAcVFJCFMAgQdRAAWwQEcKkE9ICbBAORRAAACQLzdesEAeEkAwApBPAAdRRQuwQDcTQDsTQD0lQD5NkFEACk5FgSIvAIE3sEA9E0A5DJBPSQewQC4AkE4AEbBAAF1AHhZAMhFAPQCQNDgUsEBDEkBFbpA0ABA3Nnk3AA02PYERNgAPND4isEBEJ0BDNkBBA5A0AAoyPYEqMT4AMgArsEBAWkA/E0A4A5BMQgEyQBGwQBIGkDEADLBAAC2QTAAfsEAXEkAqE0AzA5AyAAY0QAqwQDYGkElCJEkAYTFKHDQAezJANDEARzIAHjQ+U7BANCRAMSdALhNALBuQKj0CRzkKsEApG5A0ABywQCU3QCGBPkAdHZAtMwFFNwVHAEAtACGwQBmBWZAvNksvAIEysEAfS0AjCZAxOBuwQCcUQCkckDEAG7BAKzKQTwAFTEA9TAA5sEAnEkAcJEAAGZBOOQEyLEawQBwTQDATQD0RQEUJkE4AC7BASgOQRQAQsEBPEkBUE0BaEkBiFEBpEkBwE0B0EpAyACM0LYJVsEBwEkBmEkBXApBFOgE2MBGwQEcDkEMxCTQABrBAOxRAOEyQKgACQwAARQAUNgCCArBANoEEQDIUQC4SQCkTQCQSQBwmQABDkEc0BSstFEIrX7BAFwKQQgAPsEAlApArAAtHAAawQC4TQDI2QCsVQACDapBJNhAtLABALFtAAANJABUtAIYQSjcQRTANQioJMiQGsEAcFEA1E0BCFEBMFEBWEkBiEEBwFEB9UJAyAIUxsEB4E0BxFEBoEkBeFUBREkBEEkA5FEA0M5AtLxewQDE0QC8KkC0AgjkqK4EAKgCFJ7BDD0iQJh0CsEMUYEMYKEAyEEA1FEA5AkMcEUA9EkBBE0BFAUMhEEBIFEBNFEBTAUMmEkBbE0BlAUMrEkBuE0B1AkMvEEB5EkMzIJBKAAJCAAOwQH4ekEUAdCYAglewQHolQHQmQG4TQGoUQGQSQF4UQFgTQFISQE0SQEgTQEQUQEERQEASQD8oQD4AkFFIE7BAPBJAOBRANRNAMhJAMBJALRVAJxJAGxNAEhFADRJAAIEOkFEABE5IdLBAGRNANBNAQxVATRJAVhNAXwWQTgANsEBnEkBtJ0BygmVDLzpAahJAXQOQTEcRsEBKE0A4FEAughZAMCKQTAASSjeEeEU7gSWwQyuBEUMnPpBCPYZaPDdNsEAyE0A1FEA4EkA7EUA/FEBCE0BEE0BHEUBLFEBQE0BWE0BeEkBmE0BuE0BzCpBCAAdFABWwQHlWkEoAglqwQH2BTUB4DpBMRxJDOwSwQHMrkEMAJUwAEbBAeF9AfIECkE5RD0VDBbBAdhJAahVAVxNASBFARhRAShFAUhRAWxNAZBNAbBRAcR+QTgAFsEB3gQRAe4IsQHYSQHETQGUCkDwABU9OBTswCLBAUgGQPjQSsEA7EEAAGpBFAIESsEAUE0AoEUA2FEA+EkBDFEBGDpA+AABKMwOwQEgVQEoRQEwVQE8RQFMVQFgSQF0UQGElQGaBGpBHNIIosEBfDJBDOAWwQFYFkDsACD42CLBATzdAUhRAViRAW09DI4EGkDtBBj4AMLBAUxNATjpAUhNAVSVAW4QwQFMQkDU7BLBAShRAPhJALRRAExNAAAyQQwArsEALFEAeE0ArE0A4EUBBE0BIFEBPEkBWFUBeEkBmE0BuFEB1EUB5M5BHAAWwQH0ekEoAbE8Agys7AAFRUAI8REM8ACdRAIFlsEBvE0BbBJA+QANTVQ2wQEYSQDclQD0UQEMSQEkUQE8UQFcRQF8UQGcVQG4fQHMSQHcoQHyCUZBTABA0PwOwQHgWQGoSQFMTQDkCkFRIDTUAAbBAKhVALxJAOhJAQxNASRRATxJAVBRAWQmQU1QKsEBeB5BUAAywQGMUQGcQkDQAFLBAbTKQUU4fUwBlUQABUFCBDVAADLBAYwCQPgALPDwEUVADsEBPAZA1NxSwQCsSQABLQCkSQDsUQEUTQEsSQFADkDUABlEACrBAVxNAXhNAZhRAbBNAcYFPkExMgRewQGkOkEwAA7BAWQyQOzUDTUoGsEBCAZA8AANFQAEyMg6wQABxQCciQDoTQEUTQE0TQFYDkDIAD7BAXxNAaRNAbydAdIJmQHAIkE0ABEg/B7BAYhJASgaQNC8LsEAfFUAANZA7AAOwQCIUQDcTQEIRQEgTQE0WQFAQQFMTQFcmQF0lQGMekEdABUgAA7BAaElAbTlAcYFFkDs/CrBAYxNAURJAPhNAOBRAPRJAQxRASRJATxRAVhNAXRRAYwaQOwAKsEBnJ0BrA5BFAEZNQCtHAIIGsEBkE0BWCZBNAAZMPwOwQEEDkEAqG0QzArBAAHJACxNALhRAPhNASRNAUhGQNAACsEBdA5BAAA+wQGoDkEQAD7BAcxRAeIEZQHwskEwAgUiwQGkOkDkzAEpGBbBAUBJAOQWQRS0NsEA0FEA4E0A+EkBCEkBEXJBKABhIOUhIAAVKPB6wQEMQQEETQD8AkEhFAUoAErBAPhRAOxJAOSZANjhANCdAKxRAFxBAAEaQNDdlsEAiE0AyFUA6D5A0AAGwQD4SQEB0QD8SQD4SQD0MkEdACLBAPAqQSAAaRQATsEA5KEA3N0A1b0AzI0AwFEAsE0AmE0AABZBHAAMwLAZFO3ewQBISQDMUQEMTQE0IkDAACbBAWBNAZBRAbxNAdgeQRQCDZLBAbhNAWwqQLTIJsEBDCJBFQRmwQCkTQCImQCwTQDESQDUOkDkAULBANzpAOYMzkC0ADS8vgRdIPwdFAIEqSAADR0N8RwAhRTgDsEA3JkA1FEAyEkAuEkAlFEAWD5BFAAKwQAAUkC8AFEw/BDAtf7BAJBNAPBJASRNAVRVAYxJAcRNAfoQeQGgUQEoFkEI7CiYrF7BAAA+QMAApsEArE0A7EJBMAAOwQEMSQEcmQElfQEs1kC0+ghcmAAiwQEkTQEQUQDwGkDJEAS0ADLBANDRAOhJAQhVARxBATBNATydAUhRAVBBAVydAWzSQNDciRUMKMgAHQgAIsEBPFUBFE0BDJEBHGJA2Pg80AHGwQEITQDoTQCADkDYABzQ8CLBAAAiQRQACSENqsEAXEkAhE0AsFUA2EEA+EkBEFEBHJkBKE0BNFEBQE0BVIUBbEkBhBJA2PBCwQGUlQGoFkDQAM7BAbhmQNzwYNgAGsEBzJ5A3ADqwQG0UQFoIkD5CBjZAAbBAPhVAADdAEBRALBNAOBJAOoFXkDc7JTYAWDcAEDk8gTsyPho5AA6wQDh9kEI+GEgACD4AczY+CEBCBDIAJEIAYUAAAz5DWrBANRFAMhVALBBAIRVAAASQR0YJNzkRPgAcNgCCK7BAIg2QO0EEsEA2EkBBE0BHFEBNE0BREUBWE0BaE0BfFEBjAZA7ABGwQGeBKUBdFkBKB5BFRgmwQCwDkDw5EEcAArBAACKQNwBOsEAXE0AnE0AyEUA5FEA9EkA/FUBBEkBCSpA3LxSwQEOCLpA2NiQ3ABGwQEWBKkBCEkBBNZA2AAM0NwZMSw+wQEI5QEMlQEQSkEwAgSuwQEITQEEMkDQABrBAPQyQMzsEUUsBsEAxFEAAgRVAHBRAMBFAPRVARRBAShRATxJAUgKQRQATsEBWJEBeEkBjBJA0OBGwQGcmQGw3QHAnkDMANrBAdIEHQGoRQFcQkDM2AEdEBLBAPQKQUQANNAAFsEAAHZA8AFOwQA0TQBMTQBkmQB8RQCQUQCkSQCwTQC4mQDA+kDMAADQ3HbBAMnmQNAABNjmBHy83AzYAErBAMBNALF5ALx+QUUUGsEAxgQ2QLwACUQAFTz0HMzmBCk5EAk8AZbBALA2QMwAEsEAiEkAALJA0MxBOAAFPRIEPsEATE0AsE0A7FEBDE0BIA5BPAAdHAAmwQE0TQFEUQFcSQF0SQGMTQGgYkDY4gS03OAs0AAA2AHCwQGEUQFYFkDk5DbBASgWQSEoBNwAOsEBAFEA9cZBHSIEKSAARRUsJRwATsEA+XZBFABlDRn5DAC5CR4EWTEAMQgA7sEA9N0A8HZBMAAmwQDkFkDY8BkpCB7BANRVALhRAJRFAHAGQNgAksEAXJJBKAAKwQA8RkEhBArBAAIFqkEgAEUo5DjAobLBAJRRAOxRASBJAUguQSgAGsEBeFUBpFEBxgWJAbCRAZhNAYhRAXgJDJzdAWjdAVxRAUxNATxNAShFAQwBDKxNAOxRALBJAAAaQPi8RMAADLy4JPCoUsEMvJ0MzI0AnAUM5E0A5E0BBEUBFAkM+CZA8AAM+AAIvABWwQEEVQDkRkDkAAbBALxRAKRNDQkpDRoIuQCQUQBkSQAAukEAwEDspAjAqBDcoU7BAHBRANAmQNwACOwAEsEBAB5AwAA+wQEYCkEAAELBASBRARSJAQBNAOBRAM0pAMBRALUpAK4FPQClgQCATQAA6kEIyCzIrCDkugQCwQCYMkDkAB7BAOQmQMgALsEBCA5BCACWwQEARQD4TQD05QDyBOkA6N0A3TEA1FUAyEkAvgRZDQoE6QCwZkD4pCCsoATsqAEMsGbBAKBJAIRVAEoECQBcTQCgVQDcSQEIiQEkTQFEUQFsSQGcRQHQUQH5+kCsAgjWwQHgVQHISQG4mQGklQGEUQFoSQFIVQEoSQEMTQEE3QD8TQD0UQDoTQDcIkC8ygQAvAAmwQDWCC0AzEUAxB5AyLQ6wQC8RQCsUQCdKQCoVQC4zkDIAhVY3IoEksEAwEUAzFEA4EkA9FEBCEUBGE0BLE0BRFEBYE0BgEUBlE0BqE0BuE0ByEkB2BpA7ACCwQHwzkD4AFkMAQDcAggCwQHgmQHQmQG4lQGknQGUmQF8RQFkTQFIUQEsRQEQVQEATQD8lQD4mQDwTQDkTQDcRkFFEAbBANCZAMjhAMBJALhRALHFAKjpAKDJAJBKQTkoBsEAfC5BRAAiwQBMVQABdQCEUQDkTQEYTQFALkE4ABrBAWhNAZBRAbRJAcztAdxNDPoMxQGoOkExHBbBAWhNASxNAQBFAPYUdkEwADEo6gkxFM0uwQDyCHUA6D5BCOoUmsEA4KEA2EkA0E0AwEUArCJA8OgywQCcSQCKBBUAmE0AuFEA2EEA9FEBCFEBGE0BJEkBNEUBSFEBXE0BbBpBFACCwQGITQGYTQGoFkEIAD7BAcBFAdCZAeG6QSgCDFExKDkM9L0MAGUwAggxOTw1FRQOwQHAUQGASQEkSQDwUQD4RQEUTQE0SQFUVQGARQGoVQHIUQHcfkE4AgQSwQHuCMEBxEUBkAZA+OQM7NApPTQWwQE4VQDEMkDwABbBAAGKQRQBesEAQEkAmE0A0EUA9EkBCFUBFEUBIAZBKOyWwQEolQE4WQFIRQFUUQFklQF+BCpA+AA1HQiKwQGNeQzqBNJBDRQc+Ph07AGmwQzaBTpA7TEg+AIUUsEBYFUBICpA1SAiwQCUUQABMQCERQDQUQD4TQEQSQEgSQEwSQE8VQFITQFcSQFwUQGMTQGsTQHAPkEMAFrBAdTlAeQSQRwAeSgAksEB+PEMyHpBPAIJBOwA2UVUEPEZyUQAFPACBPLBAcRRAWxNAPgSQU1UGPkgGsEAjAkMuEkAnE0A1E0BAAUMqIEBHE0BNE0BTAUMlE0BZAkMhEEBfAkMcFEBkAEMXAZA1ABCwQGgTQxMSQG0lQHMTQHgEQw4OQHwlQwqCO5BTABA0PwywQFsRQDkUQBwBkFRQErBAJAFDABFANBJAQRJAShVAUhNAWxJAYhRAaRNAbRuQVAATNAAIsEBxW0B1epBTQT5RRwBTAEJRABpQTjtQABmwQG4AkD4ACDxAAFFXDbBAVwOQNTkOsEAzEkAAKEATEUA4EkBHFEBTFEBfCpA1AAiwQGgSQG5fQHIakFEAHrBAdoEykExQgSCwQG0OkEwABLBAWwqQTU4BOzwHMjsCsEA8AZBFRQ48AAGwQABMQBkTQDQUQEESQEkUQFAUQFcSQF8SQGYWQGwYkDIACrBAcjhAdk5AenFAfoEDQHcTQGMIkE0ABUhNB7BARQKQNDcQsEAAOEAXE0AyIEA+FUBFA5A7ABCwQEoTQE4TQFAnQFQSQFclQF8UQGMlQGgMkEdPH0gANLBAbTpAcYE5QGsTQFwTQEYDkDs7EbBAMiZAORNAQRRARhBAShRATBNATxRAUhJAVQyQOwAbsEBdJEBiJkBmCJBFAC9NQlywQGtgkEcAgRhNAA+wQGAGkExBD7BATAmQRDQDQCwFsEArA5A0ABKwQABdQBkUQDcRQEMUQEsSQFIUQFkGkEQADbBAYhCQQAABsEBpFEBuFEBzckB4HJBMAIEHsEB8YUB4E0BsE0BXEZBKQwGwQEIDkDkwD7BAOwaQRTAOsEA+E0BDE0BGEkBIJkBKU5BKABVIPz1IAA1KPR6wQEcSQEUCkEg4BUoADLBAQhNAPxJAPRJAO2BANxVAMBBAJBNAGRNADRZAACqQNDoisEAQE0AbE0AgR0AkLpA0AIFER0AWSACBDkUAgUJHAAKwQBcLkDAlCLBAAAGQRTiBBbBAIhVAPBBAShJAVxVAZAKQMAAQsEBvEJBFAASwQHYlQHp+kDkAFrBAfoJnQHAEkC0tBUU9CbBAWxRAQxNALhFALBNAMhJANxNAOxNAPoFQQwiCaJAtABwvL4FGRQAERy41RwAMSEE4SAAgR0CBBEcAIkU8a7BAPCZANwyQRQAHsEAwIkAgDpBMQgEvAAOwQAAdkDAtVbBAIBNANxNARRJAUBVAXhNAbhFAfoNTkDAAF7BDDDhAdRRAXQqQJi0FQjkDsEBAE0AAC5BMAEOwQBwSQDAhQDkUQD8SQEMVQEYQQEgmQEthQE0KkC02gQ4mACKwQE8oQFEkQFMnQE4RQEcOkC0AAjI/AbBAQxVARBNARxRAShJATRRAUCVAUxJAVRRAWCZAXiRAY0mQND0CsEBcBZBFSRCwQFERQEUAkDIAFrBAQhKQQgAPsEBFEkBIFUBKEkBNCJA2PQY0ABWwQE+BEZA2AAawQEgCkDQyE7BAOgiQRQAESEgIsEAASkALEkAlFEA1E0A/E0BGFEBKEEBMFEBOE0BQE0BTEUBYFEBeE0BkE0BoH5A2QAewQG04QHMBkDQAJrBAeB+QN0EEsEB8EZA2ACI3AFWwQHUQQF0UkD5EATZEDLBAPQCQNzQSsEAAOEAPE0AqE0A1EpA3AAGwQDeBXJA3Ohk2AHOwQDURkDcACDk2MLBAM3yQMjoQOQAysEAxWZBCPAc+AAtIAIEdNjcAQEYCMgAiQgBnQAAGPkFxsEAvEkAsE0AiFEAQD5BHRQOwQAADkDczBD4AKzYAgQuwQAkUQBwSQCgVQDARQDQUQDkRQD0TQEEUQEUSQEgKkDs5CLBASxNAThRAURNAUxRAWBJAXRRAYg+QOwABsEBmgWFAYA6QRUgFsEBSBJA8NglHAAiwQD8QQCcDkDcAELBAEBJAAExAFBJAIxVALhFANxVAPBJAQRVAQw9ARTtARyRASQGQNzISsEBLFEBNJkBQgXWQNi0NNwCCHLBATiZASwiQNgANsEBIA5A0MwJMQR6wQEYmkEwAFLBARF1AQ19AQRNAPhRAOhFAMQKQNAAIUUAFMzoDsEAbFUAAcEAXEkArFUA5EkBBFEBFEkBIFUBLEUBOFkBRApBFABywQFMUQFYfkDQ5B7BAXSVAYRCQMwCBSlEAQbBAWhRATA2QMzYHsEA6AZBHRQk0AAewQChhkDwAgSewQCpYkDQxLLBALBuQMwBlNj4YNACBIzYAAy84gQZRRYEgLwAJUQACMz0AT0aBBE8AFk5FRbBAKTlAIhFAGhRAAAGQMwAUNDkJTgACTzyBPrBAHRRAMxNAPwiQTwADRwAIsEBGEEBKFkBOEUBQJkBSJJA2NzqwQFRikDc8GzYAEzQAU7BATxRARxJAOwSQNwAEOTgLsEAwEpBIMQGwQCwikEobNUoAMkdGDkgAfUcAB0VFgQdFACRDRHdDABmwQCYIkEJFDLBAFhNAAIEBkEIAB0xFgQ5MABNKQRM2NTQ2AChKAERIMDKwQxBOQxUXkEgAL7BDGh6QSi8CMDEXsEMgKEMlI0AXAUMrFUA3AUMwEUBFAUM4EkBQAUNAApBKAA+wQFsCQ0YSQGUCQ0sSQG0lQ0+BKEBoJkBjKEBeJEBZFEBWE0BTE0BQEkBMFUBKA5AwAA+wQEcRQEUTQEMTQD0UQCoRQAAWkD42Ci8rATwyUrBADRJALCFAOxVAQgiQPAADPgAGsEBFC5AvABqwQEMUQD8TQDkUQDQEkDkAM7BAMYJWQC8QQCsWQCEQQABGkEAyDDsnDjAoAjckN7BAJxJAOxVARBBAShKQOwABsEBOFEBSE0BXA5AwAARAACI3ABCwQFMUQEsgQEQTQD8TQD5xQD05QDyCeUA5EJAyLgKwQDYFkEIvDTkmArBAMBFAIhRAAF9AHxNANRJAQhJASwOQMgARsEBQBZA5ABlCABuwQE0UQEsTQEkhQEcmQEQlQEMSQEIUQEETQEATQD4TQD0TQDsnQDklQDc3QDWEPpBCKgcrJgA7KQQ+LYVeQycZQgBXsEAzSkAxXUA2EkA6E0A/FEBEE0BJEUBOE0BTFUBZE0BgEUBnEkBvFUB1CZArABywQHqCHEB1JEBwE0BrE0BlE0BfEkBYCJAvJAywQFESQEoUQEMSQD4QkC8ABbBAPIEBQDqCBpAyJYEqMgCISjcbgiewQDw5QD0kQD4mQEATQEEUQEI0QEQnQEckQEooQEw2QE8oQFETQFMTQFUUQFclQF0lQGM4QGhfQG1LQHFLQHZxQHt8kDcAgQE7ABU+AG9DAIEysEB3gQRAcjlAbSZAaDhAYzpAXzdAWiZAWBJAVhVAVBFAUhRATxJATTdASydASUhARzpARV5ARIEWQEOBBEBCJ0BBhAxAQDlAP4E8QD4RkEo0KbBAPRJAPEOQTz0DSgAFsEA5FEA3EkAzFUAwJEAsFZBPAAJTOGFTAA1OQRGwQ0soQCpFkE9DCE4AbU8AFlNAbVMAB0pFfUoAA09Ic08AB1NHalMAEU5GSk4ANU9GV08AElNLTVMAKkpKY0oAMExLckhIA0wATrBAJhJAIQCQSAASsEAQE0AAA5BDQjhDACOwQBwTQDkPkE9BBLBARxNAUhVAXhBAaBNAboE8QGYFkEhGB08ACLBAWBNARBRAJxJACxKQSAAhSkqBC0dLAUoAYkcAGENGA7BAAFSQQwA+T0IssEAjEUA6FEBHEUBQFkBVEkBXXkBVE0BSCpBPAAqwQE4EkEc8DbBASBJARRVAQxFAQRVAPw+QRwABsEA9E5BIRBawQDojQDcVQDUmQDMAkEpIHEgAG7BAMBRALiFAKxVAKQaQTEwQSgAQsEAkJUAdEkAZJEATBpBKTQdMABqwQA8UQAkSQAA3kExJCEoAckwAAkhMfkgAC0dJPrBAEBJALBNAOwqQRwAIsEBEBJBKSBKwQEciQElAkEoADE9Me1NOAk8APrBAR0GQUVECUwBQUQAtQzwGT1EvsEA8BpBPAA6wQAAPkEMAF0pFFFFQHVEAQUoAIU41f1FLAU4ADEk+F1EAYkkABUpDAFFEHlEAOEoAJ045QU4AVFFJAUVCHlEAPkUAGUpFFFFMGlEAGUoAOE43OE4AUEk9B1FLJFEAQkkACUpCJVE/GVEADkoANE46KU4AZUU/CVFAHkUADVEAWEpDBkc+QUcAAUoALENBBE8/NU8AEkMAJj5IEFNDEbBDRw2QUwAtsEANEpA+AAKwQDwTQE4KkEpNAFNOCLBAXBFAahVAcwWQSgAAUwANsEB4LZBPRTZPAEiwQHQSQGMAkEpNA0NQD7BARBNAAAqQSgAkQwAySkgJRUlRRQAHSgAXQkkCTk1bTgAnPk0QUUwCQgAnUQAyPgANsEAkDJBKTwVRUAOwQDkTQEQTQEwHkEoACLBAURVAVhRAWxCQTk8WsEBgBpBQLxFRAA5QAA9OAENKVwRCTAiwQFwSQE4UQC8IkEoACrBAAD+QQ0oCSlABQgBhQwAWRU5CRQBFR0RnRwAaSgASRUINSUhNRQAuRzxpRwAPQ0GBAkJEDUMAAUpLBUkAaEVGE0IAX0UAFbBAGgCQSgAFSEIOsEAsDpBIAAWwQDgRQEAUQEYTQEsTQE8NkExUA05QArBAUxVAWBJAXhVAYxBAaA6QTAAYsEBsBZBKSmVOAAlKAB4+RAtITTpIADCwQFwPkD4AArBAOAGQQ0EKT04GsEAAC5BHNw5PAAxHAANDAFhHOjtHAEZRTANCOwdKQxdRAAlKAD+wQBMUQAABkFNTAUNCBUpKBUIAElMABEoAFEMATUc3fVRRCz4/BEpHEEcADkoABFQAXT4AAUNBCFNQA0pKGVMABEoAKUMAQ0c2ZkcADEpKBlFLCEI8GFEACEoAOUIAEk9PCENBI7BAOQKQQwANTwACsEBKEJBKOjRHNzRHAANKAABPH0RHPQo+QAewQEgWQEYNkD4AA7BAQxGQRwADsEA9E0A4FEA1IJBAQgJDRxWwQDMUQC4QkEMAArBAJwCQQAATsEAeE0AZFpA8RQywQBQCkEhKJbBAAAaQSAApPAAYN0oRTEkoTAApsEAgA5A3AA+wQDkRQEcAkENNBkxPDrBAUBVAWAiQQwAKsEBeRZBITDhIAAZMADY8Sw9DUBqwQE8TQDkDkEMABzwAC7BAAC+QPkkSQ049PgAMQwAfR04VOz0nRwA7Sk0jOwAUSgAKNzcUQ005sEAXC5BKSgawQDIQkDcAA7BAPRRAQhNARCRARxKQQwAPR00EsEBKC5BKAC+wQEwOkEcAQENFBTs7Azw6B7BARBZANxJAFxJAAAeQOwABQwAfsEASCJBFTgg+PxQ8AAA8HRY+AAY8AB2wQBcTQBsfkEA+U7BAIAiQQAAMPjxWPgArQEMSTwALTkgKsEAkEkAvFUA6EUBAOJBAAA88MxWwQEESQEUUQEoDkDwAD7BAUBNAUwmQRQAdQDglsEBWApBAACOwQFwTQFgJkDtICrBASgyQT0kJsEAzAZBDQxGwQBATQBsDkE4AD7BAMBVAPRJAQBJAPwSQOwAPsEA+GpA+PB2wQD8NkD4ANzk9Z7BAPQCQOQAGO0NssEA8EkA6DpA7AAWwQDgVkDwmJTwAJbBALBRAAAqQN0MCSlAdQwAgTwAQsEAhE0A5BZA3AA+wQD4PkDxBA7BAPQuQTE4dPAADSgAVShoBSgAdsEA4FEAgEUAAEpBPRARMAG1PAAVKSQU7PnA7AApMSgJKAAE8QSA8AFNMAAlPRYEBR0UEN0IZTwBMRwAhSEIBOUACNwBfOQA5PDeBBDwAATc/ezlCEzcALjkAPTw7VzwAJEgACE9FBjREaTQAElFLCTZGCk8AGjYAWFEAAFRFbFQAHjRFA09JfjQABVFOCDZICU8AGTYAPFEAHVRGe1QAGjlBAEw5Ck0+IbBDQxOQTQAKTAAQOQAbPkILTkdcPgAhQj0DUUUOTgBYQgALPUUBUQAITEyBAj0AAD5CEU5MGkwASz4AEUJACVFKBk4AGEIAUVEAEklMCDk0bkkAC0pQAjkABDtDODsAIEoAIE5MDD4/TD4AEk4AEElMDTk9eTtBBkkAAEpKCLBAIRRAKgCQOQATsEAyFUA4B5A7AAmwQDodkD5DBk5MArBAPAKQSgASsEA9CZA+ACuwQD4xkE4ACLBAPRCQRUwDsEA2FUAcEkAACZA2OzJFAB5HSRc3QwU2ADNHAAI3ADBKRwewQ0dzkElIAkoAFDRIXkkAEkpMFTZGBzQAIjYAOkxMG0oASUwAIEdMAzdQazcAE0cAETlSB7BAJgCQSU8TsEAACJA5AFJMTQFJAH5MABBKSwQ2S3dKAA43TQFMUAE2AC83AEVOURVMAHM5SgRJUDdOAB5JACdKUAI7PB85AAawQDIOkDsABrBAIhRAAByQSgAXsENLDJBOUYEATgABPVADTFFeTAAgTlIFPk8JPQAUPgBZUVMMTgBGUQAuT1cfOT0BOz4RsENFJUM8EJA5AAGwQzcFkDsAD7BDMwKQPVMLUVUEsEMtCZBPAAywQyMTQxYSQwsSQCMUQD0DkEBMEbBASgaQPQAJsEBVFEBiFEBwE0B+EpBAAB5FThxFAHpJWA1RAA2wQwA3kEkAJkxVSEwAPk9XAi1PL08AB7BAeBJAThJAABGQLQAOMk4FTlocTgBHMgAVNkCBBzE8DjYAA0xMC0VCGUwAB0UAQjJGAjEADU5YCkVOEk4AB0UAIzIAFrBDCCWQNj9yNgAgLUUCT1ALRUoaTwAERQA/LQAJMkUTTlcHRU4RTgAHRQAMsEAhEkAAE0MOBJAyAB02QYEEMUUDNgAMTFACRUshTAACRQAJsEMJNpAySRZKWAkxAAmwQCsFkEVGD7BAVQqQSgAHsEBgAUMODJAyABc2SDRKSApFABA2AFctTAFCUiewQFAJkC0ACbBAMwCQQgATsEAAMpAvTQI+UEE+ACIvAAsrTQ1DUC9DACQrACAmUAtHUDNHAEUmAAAyWApHSQOwQEMUQGAKkDIAB7BAeRRAfziQQ0skRwAbQwBMK1YMPlAVsEBtEZA+AAOwQEQJkCsACLBAAD2QLVAIPlNBPgA4KlADLQAGQlIzQgA+KgAFJk8BRVI0RQAyJgAWMlcHsEA+CpBFSwywQE0SQFMFkDIADrBAVxJDEjmQQkkDRQBeQgAXKk0NsEBPAZA+SROwQEERQCcGkEoAD7BAACaQKgAPPgACK0IYQEpXLUQHKwByLQAtLzgdSkFiLwAFLTsCsEMWCZBKAApJQ1wtACUvOAKwQxp/kCs9AEkAAi8ABUc+WysAHSo/BEAAAkcACUVAUioACSs/AbBDHmGQKwA4LTkQPj5oLQAFKz0wR0QGRQBJKwAlLTl4RwAOKjkFLQAIRTVIKgAqKD8ARQAOQ0VNKAAgsEMiBpAqPwtDAABDHDEqAEE+AAg9QwkrPFkrABVDAAoqPA9FPS0qAE4rOVUrAEc9AAJFABJDOQEoMkUoAC9DAAdCQQMmQgqwQD0UQEcBQyYQQEATQDITQAAYkEIADj48E7BAFxVAJwFDKiSQPgArJgAKKDwHQzsgsEAhE0AcSJAqQwJFPgYoAAxDABewQBYdkEUAKj49FbBADxNAAE6QPgApK0QBR0UtKgBQKwABRwALPUkCLUlBPQBAOTpNOQAxPkICL0cQLQBdPgAWQEMFMUUCLwAyQAAIsEALFUAkFEAyE0A3CpA5NDQ5AA6wQDoRQDwUQD4SQEEAkEJJCzJRBjEAA7BAQhFARAGQQgASsEBGFEBKA5AyAA+wQFAUQFoUQGUJkChTBkNQF7BATxNAABGQQwA+QEZSQAA+RU4IKkoDKABzKgABsEAPAZBHTAcrTQZFAAOwQB4VQAArkEcANkA+aUAAHS1OEElKBisAM0kAMC0ADi9MAT5Pcz4AFDtFVjsAODFJBEBHBS8AcjJSAUJPF0AAEDEAOUIAGTtKVjsANkNQAzRJBzIAYkMAI0VQAzZUGDQAAzYAdkI9eTdSBj1IF7BDJimQQgAQNwA8NlIAPQAQPkwNNgAuPgAJsEMrPJBCRX00UgM5SxhCAA+wQyY7kDkAITZWAz5QBjQAEzYAILBDKwCQPgA3sEMvFZBCSoEGN1IKPUcZsEMqNJBCABw9AA+wQCkBkDcAATZTAD5LJLBAAAOQNgAfPgAEsEMwM0M2EJBCSwSwQAkTQABvkEIABDRTADlWOTkAELBAJRRANBJAMQ6QMlEBRQAARQ0FsEApBZA7Vg2wQCEAkDQAJUUAE7BAKAqQOwAJsEArHJA3TQNDUAewQCcBkDIANTcAFrBAKhiQQwAHO1AFPlcTsEANFEAAApA7ABc+AEM7WAtKVh2wQBkSQDkPkDsABbBARRNASyCQOywBN0ooOwAENwBSMkoJQ1EjsEBFEpAyAAGwQCwUQAARkEMADUoAHTJXD0VSJ7BAExRAMQWQMgANsEA5KpBFAAU2UgNCVDQ2AAywQDcNkEIABLBAMxNAIBNAAAWQOVECPlUoOQAXPgA/OU4SSk1LsEA+FUBIDZA2Sxo5ADo2ACsyTg5CURCwQEYEkDIADLBAPRRAABeQQgArNFIHMk8JQ1EJSgB6RVEGQwB6R08NRQB4RU4IMUcCRwAIMgBmR0wIsEAbApBFABCwQDESQD0AkDEAFLBAQjqQQ0sRsEBDOEBFBZBHAA+wQEgGkEMADrBATgmQMlMJsEBXApBCUwU0AAqwQFsUQE0SQAAXkEIANkVOVkUANENTBzRSEjIAQkMAIzZQDEVVCDQAaUUACklSZkkAGkdWCTdVKjYALjcAJzlSA0lYDUcAcz1XBExXAkkABTkAPUwACj0AIjlWDU9ZOE8ATE9eAjRNHTkAO7BAPRBARBBAPwaQNAAOsEA8BZA5SwNMURpPAAKwQD0WQD42kDkADDRPB7BAQAeQSVgOsEBBA5BMABCwQEI3QEATQDIMkDFQA0kAAUVYA7BAAAqQNABBRQAUsEAUG5A0TwFJWQmwQAAFkDEANLBAEhJAHBNAIRSQTFcDMVMQNAAFSQA1sEAnEUAqF5AtVggxAAFPVAWwQCMHkEwADrBAAFGQTkYJL1YCsEASBZBPAAstAASwQA0TQABvkExPATFXDk4ACC8ADLBDMiKQMQAXsEMuE0ArBZBOVggyXAWwQDwCkEwAErBAOAOQMgAQsEAwFEAUEkAAFEMyJJBMSQROAGtKTQFMAAY3WAVHRRVILAFKAAlHABGwQy0BkDcADEgAGbBDKBuQRVoIOVYASlcBsEA3E0BNAkMsBZA5AA2wQFAJkEUATExRCLBATgaQSgAQsEBKEEBEFEBAMpBMAAWwQDwBQzASkC1PAENSAbBAKAKQSVASsEAANZAtAAxJABRDACMmUA5KWH1FUgQqTStFADYqACYtUANCTxxCADmwQDIKkC0ABbBAPgWQJgAQsEA/EJAyUwOwQEUBQzQEkD5RELBAUgJDPQCQSgAFMgAIPgAFsEBjA0NKD0BzAUNUEUB/AkNbFENiEkNmJkNrgRdAbRRAXQiQSkcNsEBPD0BBFEAyEkAiFUASEEAAEpBPTAlKAHVPAB9TQGpTAAtORX5PSBVOAEtPACtTQmtTAAlKRH1PSgVKAH5TRwJPAB6wQ2cmQ2M0Q14PkE5PAVMAFrBDWiVDUgyQTgAHsENME0NIGJBPTh6wQ0MnQzwkkE8AArBDOBqQU01SUwAhSk9bSgAuTE9uSEwWTAA9SAA0Q008QwBOsEAlDJBPTAawQDkkQEMTQEsSQFMWQFsRQGQSQGo5QzxeQGETQFIDkE8ABEg8DLBAQxRANxBAMRRAKxNAIQ6QSAAQSk1BsEAaJUAUF5BHSwJKAG1HABRDSxCwQA8SQAAzkEMAPU9KObBAEhFANBRARBFATRVAUoEnQFAJkEdBCbBAThJAShCQTwABsEBGFUBEFEBDE0BBE0A8BpBIRgJHAAqwQDcUQDIQQC5LQCsBkEpMHEgACLBAI1+QTE0TSgAosEAfUJBKTAdMAHRMTgRKAHGwQBcPkEwAAUhNBrBAAHSQSAAJsEAPFpBHT2BHABdKTx2wQ0AUQBYlQBwmQ0QFkE9LBUoACbBAAEtAFg+QTwADsEA8FEBPAZBTUBOwQF8TQGwTQHErkFMAD1FQSlEAOLBAdRRAehFAfwOQQ00jsEBpFEBDE0AABpBDAAtRUQpKSB1RAEhKAD5OO21OABNJPQZRRSdRAFNJAABKRQ9RRh5RAClKACNOO19OAC9FTAdRTTFRACVFACVKTBZRRh1RAB9KADFOQGVOADRJQAhRUDJRAD5JAAJKRhRRTgiwQB4UQDgHkFEAHEoALE4+M04ATbBAMwuQUUwJsEAhApBFQhGwQAATkFEACUUAQrBACQ2QR0cASkUFsEAcFEAlFEArCpBKAAWwQC4PkEcAJkNKB09DME8AF0MAKbBAJAeQPk8GU0gGsEAAH5BTAGc+AAhKUwRTSwKwQDEUQEQSQFAUQFwDkEoAD7BAaA2QUwAAUy0EsEBxFUB2CZBPQBBTACxPAFZDTQtKSgOwQG4TQFcRkEoAA7BAKxFAAAWQQwA4RVALSk1FSgAqQk8ERQAMTkpCTgAjQgADPlAXUUkoUQBDPgANSlIGUVABsEAcFEA8E0BKE0BWB5BKAAiwQGAWQGgHkFEAAFEwEk5MOFEALU4AM0JJCUpUN7BAXwGQSgASsEBJE0AACpBCAA9DRwxKVHBDAAhFSHNFAB9HP3NHAAVKAAtFSAlJTlBFADNHQ3JHAAdDQYEESQAISk8MQkIBQwByRUgxQgBPRQAMSEgGSgAWSAAksEA5E0BFE0BLCJBOUgJMUgawQE8BQ0gUQFUSQF0VQGgSQHEBkEwAE7BAdgyQSkVqSgAFTgASPlACSExHSAAzsEB9BJA+AAlDSgdPUgVHSQuwQGkKkEcABE8ABrBAPQmQQwAIsEAASJBHRoEYUVIDQj4BRwADSkkfSgAOUQBTQ0QHU1IHSk0FsEATAJBCAAlTAAewQAAFkEoAJUMAD7BDTCSQRzuBBFRWBz5BB0pKHUoAAkcACFQAS0NHBj4ABVNWA0pSHkoAAVMAD0MAAbBALRRAADyQRz1URwA1SlEIUVEFQj8uUQACSgA3QgANQ0UGT1YqsEA4AJBDAAxKQAFPAAWwQEkVQE8ikEc8OkoAAk8yCEcAOEc8CLBATAeQPkgPsEBFEUA+FUA6ApA+AAZHAAqwQDgTQDATQCIUQB0JkEBJDUNGOEMABEAACrBAABiQPEsRSE8qSAAkPAAeN08JTFA5TAAuNwAEsEAsEZBDUgKwQEUGkExMDrBATyFAVhKQQwABsEBcJkBgJZBISi9MABlIADA8Tg5DVBKwQFsUQEgSQAABkDwAAUMAOj5JDENQQUMAJD4ABTtIBEdSNkcAGDsALzdNBEpSN0oAOjcAB7BAGRCQQ00DsEA6AJBKUBOwQEgVQFURQGIAkEMAFLBAbRRAchyQSgACR1BvRwAiO0cHQ1AVsEBdE0A8FEAAIpBDABA7AAU8QgxFUH0+RQc8AGA+ACJAQFpAAANPABk+QwpORjKwQCEQkD4ABLBAOhJARASQRQARsEBIEZBAN2dAABA8PoENsEBFCpA8AAU7RAOwQDoUQAAFkE9GAkNFJU4ABjsAQD5BgQg5QQU+AHQ5AAI7QFs7AC0+PEZDAAI+ADNPABE3OwFKQoEHTEcCPEIGNwAMSgATPABLTAAQT0R/TwAHO0cBSkmBCUxNAjsAATxID0oAEDwAF7BANRJAPhRAPRNAOwmQT0gBTAAusEA+EkA/FEA9FEA4EkAxEJBHRgKwQCoBkDdDGU8AH7BAADaQRwAgNwADOUIBSEgEsENQRZA5ADI8QIEEPAABN0KBEzlGFTcANzkADEgAITxFgQo0SAJPRRc8AGhRSwQ0AAI2TQdPAAawQ1URkDYAFrBDXhVDZRJDbRNDcgaQUQAIVEQXsEN3XJBUAAg0TgdPRiywQ3JXkFFJBDQAATZQEE8AEDYAUFEAFLBDdg2QVEeBA1QAEUxHBDk9DjdDBrBDciCQNwAtTAAROQACPkEVTkZQPgAaQkAPTgAAUUVmQgADPUgDUQAQTEwQsENtJkNpN5A+RRY9AAFOTRtMAE8+AAZCRQlRTgVOADBCAEpRABBJTwE5SCGwQ2RLkDkADUkACUpPBDtGPzsAHkoAH05ICj4/QD4AIU4AG0lMBTlDVEkAJEpLAztDFDkAKLBAGQmQOwAIsEApGpBKABc+QANOTQWwQCtgQAACkE4AG0VQBzZDCj4AUUUAIDYAFDdNBkdOKTcAIUcAO0pKgQFJTQNKAAI0SFpJACdKTwc2Tw40ABU2AE5MTSFKADdMACxHSwk3U0uwQ2AckEcAEzcABzlRB0lOHTkAA7BAMhVANRJAAA2QSQAGsENkKZBMUGhMACJKTw82TG5KAAw3UgZMTRY2AB43AEJOTRBMAH05VgVJSjNOADdJABJKUAo7WBg5ABI7ADpKABpOT4EETFIQPVQETgAhsEAQEkAAMZBMABdOVwY+Vwk9AA8+AF5OAARRVV9RAChPVxU5UhawQ2AnQ1QGkE8ACrBDSxRDRBGQUVcEPVISsEM/AZA5ACWwQzIUQDgBQyMSQE4BQxUQQwwSQEwBQwgGkEBKDz0AEbBAUhBAXBVAZhNAbgFDABCQQAAWsEBzBZBFVh5FAAKwQHteQH8HkElaIlEAPkkAI0xaRUwAPk9ZAS1QMk8AELBAXBVAABKQLQAIMkwTTlgaTgA1MgAGsEMIIZA2Qns2AA8xQgtMVARFSRxMAAVFAE8ySAgxAA5FSwVONghPPxNFAAFOAAewQwwAkE8AETIAKzZHbjYAKU9PBUVOAS1LHkUAC08AAbBDCDuQMkwTLQAITlkGRVIWsEBCAkMMAZBFAANOAAywQDIVQAABQxAZkDIACrBDFRCQNkh2NgATMUMMTEoBRUoWsEMRDZBMAAhFAEcyRgJKWA8xAAawQDIJkEVDCbBAVwiQSgAKsEBoFEBxAUMVBZAyAB82Tx1KPwZFACQ2AERCVAktTBiwQGoRQFcCkC0ACkIAB7BANxRAADiQPk4EL1BKPgAeLwAEK1AUQ0o1QwAMKwAmJlIQR1A2RwBAJgAFsEAWApAyWQhHSwiwQFISQG0FkDIAD7BAf0yQQ00jRwAeQwBAK1gQPk8JsEB7E0BTDJA+AAWwQAADkCsAQy1UED5WOT4AKCpSDS0AA0JSR0IAPCZPAioAAUVTN0UAQCYADTJXBLBARgWQRVANsEBbEJAyAAKwQGwUQHBVkEUAAUJJaEIACypNFD5OBbBAYxRAQAKQSgARsEAAOZArQwcqAB9AUAU+AE4tRQkrAEctAEMvSSBKSlywQxkWkC8AAS1JHUlKB0oANS0AMy9BgQMrOApJAAsvAAZHQ2krAAEqSA5FSBhHAA9AAB6wQDEUQCgSQAADkCtEDioAPisAPi1EFj5FYy0ACCtDI0dGEUUAHSsAB7BDHUKQLTqBAio/AS0ADUcAA0VAPCoAA0UALChDGENFaUMAAEMqAyo/AygAQyoAPz4AAT1IBys+ZCsAESo8E0U9FUMACioAGrBDITdALgWQKzgQsEA3E0AxEUAnFkAbGJArAA2wQCogQDUQkEUAA7BAOQWQQ0MNsEAsAJAoMQ89AAewQABBkCgACbBAFAFDJRJANwOQQkEEQwAEJkAIsEA7S0A8CpBCAAiwQD4BQykFkD5BDrBAPBNAOTeQPgADsEA7E0A8EkA4ApAmAAtDPAEoPwawQCcSQAA4QDMSQEITQEYLkEVDBbBAQgCQQwAIKkAEKAAIsEA3FEAkJ0A1E0A/ApBFABGwQEQMkD47G7BAQxFAQRJAQw2QPgAbsEBGJ0BEA5BHSwIrQgywQDMAkCoAFLBAACWQRwAlKwAEsEAcCZAtSBM9TAOwQC0BQy1SkD0AIbBAMAmQOUFCsEAyE0A0HZA5ABE+RAcvPwGwQDAGkC0AD7BAAGKQPgADQEAMsEAUAZAxQwIvABCwQDETQD0TQEIKkEAABrBARC2QOTcgsEBHD5A5AAOwQEkUQEwTQFAUQFMNkEJMBbBAWAOQMk4DMQANsEBdE0BjC5BCAAiwQGsSQHYLkDIAC7BAfyCQKFQLQ1ANsEB3E0BQE0AAHZBDACZAQ3hAAC5FTgYqTQwoAGtHTw8rUAUqAAJFADlHADJARltAADAtUAFJUB+wQCQCkCsAD7BAKxRAHBNAAAyQSQAZLQAEPlABL1B3PgAGO0pbOwArQEwCMUoSLwAVsEAUMkAAMZBCUggyUw5AAAewQB4SQCwFkDEAELBAHxFAAAeQQgAkO0shsEAcEEAwFEAkFUAAB5A7ACZDUgQ0TgkyAA6wQB8TQDgRQDwUQDYTQDARQDIAkEMADkVOBLBAPRCQNlQEsEBFBpA0AA6wQEIHkDYADbBAAFCQQkWBADdWAD1DSUIAErBANgJDKRNAEAaQPQAMsEAAAJA2VAE3AAE+Shs2ACo+AD1CRIESOUsDNFIWQgBMOQAjNlgEPkoHNAAFsEAZE0AABZA2ACGwQy0MkD4AO0JGgQc3VAA9RlhCABM9AAawQDQAkDZWBz5OBzcABrBAOhNAAAaQNgAkPgAhsEMxE5BCS4EXOVQINFECQgAdOQBZMlMGNAAANBcEO1caNAAYsEBNE0BgAZBFABY7AA6wQFwNkDdPBrBAVAGQQ1EPsEBNA5AyABGwQEsckDcAHbBARg2QQwAGsEA3A5A7Tgc+WAiwQAAgkDsADj4ATDtVCEpWKLBAQhNATRRATy6QN0YaOwAMNwBQMlIRQ1IGsEBKFUAzAZAyABKwQAAjkEMAJjJYJEVSC0oAG7BAQRRAShFATBJASgaQRQAOsEBHA5A2UgdCVgIyAAewQEQmQEIFkDYADrBANQyQQgAHsEAAH5A5Ugw+Vis5ABQ+AERKVgI5VjOwQDQQQEgIkDkADbBATBeQOUEPNk8oOQAFNgBFMlgMQlcdMgAPsEBKEUBFCJBCAA2wQC0RQAAjkDJWADRXAkNXBEoAXkMAIkVQgRJHTg1FAGgxUQ1FUggyAAFHACGwQD0VQFEgkEUAA7BATw+QR04ZsEBMT5AxAB9DTTqwQE8AkEcAErBAUhRAWgGQQwASsEBlD5AyWASwQGkCkDQAAkJUD7BAUhRAADmQQgAXRVBkRQArNFUEQ1IFMgBiQwAZsEAyC5A2VwNFVgKwQDsUQAADkDQAZ0lQAkUAVUkAJ0dQEzdVFTYAOjcAC0cAJDlUAElVO7BAPRJAQgKQSQAPsEAAFpA9VQVMVQE5ADZMAAo9ADc5VQ9PVjFPAEc0UQ1PXAs5ADewQD0UQFI3kDlMBkxSAjQAB7BATgCQTwBdTAAPNFEGSVcCOQANsEBQFUBUEkBbApBJABGwQGYSQHUTQHkWQGEBkDFQCEVTBbBAAAeQNAAlRQACR0YfsEM1FZA0QBBJVQMxAARHADJJABlKUy0xUA80AAlMUQJKADFOURFMAAoxAA8tVAOwQEALkE9aB7BAAAJDMRiQTgAUTwAELQBFL1EJTlYlLwADTgBPMVMUTFcmMQAHTABOTlkEMlgSsEA+CZAyAAqwQGcSQH9JkExTBU4AAE4jFE4AIEwAOrBAZRCQN1kCsEA2BJBKVxKwQAADkEdECjcAA0UzDUoAB0cAC0UALbBDLRVANAKQOVcDSkYGRVYIsEBcAUMnB5A5AAmwQHgSQH8AkEoAArBDLQ6QRQA7TEYCsEMpDJBNQRtNABCwQy4xkEwAE0NXAS1VBklUJ7BAXgSQLQAHQwAJsEAAA5BJACKwQygMkCZSGUpSK0w6HkwAQEVRDCpIH0UAQioAHC1SAkJRIkIAKi0ALyYAC7BAIQFDLRJARQCQMlQEPlcPsEBNAUMyB5BKAAIyAAY+AAOwQFMUQF0TQHEBQzYQQH8AQzsTQ0EnQ0VKQ0wmQG0UQFUTQDoPQAAnkDk+gQc2Pwg5AHk2AAwyO38yAAs3PYEFNkMINwBxNgACMkNxMgAPOUQesENIbZA2RA85AEI2AB4yR4EJMgANN0uBDzZNDjcAQzYAJjJRTTIAOzlVOrBDRBuQOQAyNlI4sEM9PJA5Uw02ADs5ADg8UEc8AFsyTwSwQDUUQFIKkDIACbBAaRNAfYFQQHgSQFsGkDtQD7BAHRBAAD6QOwAvN01yO00EsEAfC5A3AAawQCkUQCwOkDsARz5RILBAKhJAFwaQPgAOsEAARJA0VBuwQBkMkDQABbBARBRAVhRAahNAfQFDQoE+kDxUCrBAdhNAWhRANBFAAACQPABJOUw9sEAXEkAsFEA0E5A5AAE8TBKwQDYnkDwASEBMA7BAOCyQQABGsEArEEAAAJA2T2CwQDQCkDYAAbBDPhBARQmQPkkIsEBOE0BTQpA+ABw8UTM8ABewQE8TQDwTQAAnkDtPI7BANRFARRZAThFAUQOQOwAjN0ArNwBPMkgysEBKDJAyAAawQEAUQDATQCkXkDdMILBAFxNAACKQNwAmMkQ1MgBUPkUILTMZLzIlLwACLQA8K0YDO0YLPgBLsENCO5A3PQI7AEg3AD48PwQ0OHM0ABM7PwE8AA4yND87ACs3NT43AFArAAY+OgkqQEA+ABwqACc7NwgrPU87ADY3K2w3ABIyABQ8NwU0N2g0ABE8AAY7OQEyNFg7AC83N4ECKwAEKjwGPkMSNwAsKgA+K0AIPgAFO0UiMgAdsEM+PJArAAs7AAEvPQI+RGsvAAE+AAiwQzoMkEFEATI8Y0EAEbBAJwFDNhNANwSQLz4BN0kBMgAMsEAyEUAwFEAuJUAwFZAvAA8rPhWwQC5eQCcJkCsACbBAHAeQMEENsEATDJBARSM3AAiwQA0UQAAqkDAADy1FDDxJDEAAD7BDMVeQMEUELQALQEoDPABcMAAPQAANQ00KND5ZNAAAQwAXMEEJsEMtAJA5ThSwQBsSQB8UQC0DkDAAILBANi2QLUFqsEAzDZAtABewQDACkDJCCUFNHLBALQuQOQAIsEAqE0AmJUAhAZAyABMvQQg+UgpBAHEyRAZBUAQ+AAkvAF4yABVBAAM1QQRFUF9FAB4yQQE1AAQ7SXgvQgMyAARDTQI7AH2wQBwIkEMABEFMCS8AAzJHD7BADQFDMRFAAECQMgAWQEYFQQALMEZXsEAXFEApEkAvCZA0PARAAAKwQDMCkDAAQzQAJzdCG7BAMBNALBNAKSCQNwAZsEAkAZA0QCSwQB45QBoRkDQADzA6GLBAFk1AEAqQMAATPEQCNEIssEAJEkAAAZA0AF85SQkqSAE8AD6wQCAHkDkAKTxMgQdATAs8AEYqADFAAAE8TiqwQCU6QCgOkDlRBbBAKgSQPAAQsEAtEkAxEkA2D5A5AAOwQDknQDYHkDxTAy1JBrBAAE+QPAAhLQAAL0cEsEAbE0AnA5A2Sh82AAOwQB0BQzUmQzsmkC8AATJCbLBDPxOQMgAgPlMGsEAXAJA2RBY+ABg2ABywQBITQAAWkDJICzxQGjtEBzwAH7BAFxJAOQyQPD0FsEA3BZAvSQk7AASwQDAJkDIAC7BAHBVAAA2QOzoDsEANCpA8AAiwQCQTQCsckC8ADLBAHAiQOwADMj8HOVACsEAALZAyADUoTCY3SwE5AA2wQAsSQDAmQCoSQCQAkDcAHjtQCbBAMhRAOhBAPBVAMhJAADGQOwAHsEAhAJA+ThOwQDkUQEITQEEVkD4AAygACrBAPRJANh2QO08KsEA9EkBBLJA7AA2wQD4UQDwIkDdQHbBAPheQNwBHsEBBAJArRQs7SgewQEImQDoTQAAAkDsAMSsABC1EDTRHJjQAMbBDQyGQLQAKMD1qsENHAZAwAB48SgE0OHs8AAU0AAcwNwg5SDSwQDAAQ0sTQD0SQEEjQEISQEUJkDAACS0xArBAShFAUBRAVA9AVydAXxFAZQ6QOQAAQ0sFsEBqB5AwQQiwQGYMkC0ACLBAVBZAMxFAACeQQwAEMAAGQkIQMkZVMgAAMjQYQgAOPj8/PgA+O0oDQ0I8QwA7OwAPQkAEOT5aQgAgPjhEPgBKMgAHMUkBRURWMQAPRQAkQj8KMjxeQgAbPjw4PgBDOQAJOz8FQ0J5OwAHQwACQkIJOUNSQgAnPj56PgAVMUQDRUcCMgA/MQBaMkcCRQAFQkljOQARNkQFMgACRVAFQgBTRQAdNgAJOUECSE1fSAAcNkMBOQAMPk8UsEAJFUAUDJA2AAWwQBo8kDJGSzIARTdACUdPDrBDRyGQPgAqsEAQEkAACZA3AAtHAAI0RgdDUx2wQ0M2kEMAMDdHBTQAAUdUWUcAGTcAD0pRCjtDTEoAHTsABjdFDkBNKbBAFxFAIhNAJwuQNwAbNEeBBTQABTlGCUhRE0AAVzkAETZIBUVUBkgAAbBAAHSQOUQHSFQBRQAHsEASC5A2AB2wQAAtkDkAC7BAFAyQSAAGsEAeBZA8RQBMUjGwQABRkEwAAzlJDjwABkJSCbBAIgFDRxJAMS+QQgAFOQAhNkUISk8CsEA1E0A4E0A6OEA9EZA5TAKwQD4IkDYABUhQBrBAPwqQSgAIsEA9CZA5AAqwQBsTQAAakEgAITdVCkdSBbBAFxZAPRRARThARAaQRwAIO0kLSlIFNwBUOwARsEBGC5A+TA1PTAdKABs+ABCwQDITQAALkE8AGztTFEpZJ7BAOxBARiNASCOQPk4FsEBGCJA7AARKAANPQBBNRjE+AAVNABmwQEgQkENKClQ9BVNDAU8AGLBASgeQUwAAVAADQwAxsEBFEkAgEZA8TAFMUwKwQABLQBAMkEwAB7BALBJAOBJAOwCQQEIMPAAGTzkGUTUeUQAEsEA9CpBPAAZAAAOwQD8lQEAIkEdGFENBK0MAAkcAArBAPxNALxNAABeQSEwIQEYssEATDZBAAAFIAASwQDQUQEETQEQTkExMBzxMILBARhOQTAATPAAlsEBIBJBAThlDTgSwQEoOkEAABbBATQeQQwAhsEBBEUAAAUNMJJA2UglFWh2wQBsTQD4UQEsSQE8BQ1ETQEwFkEUABTlICbBASgyQNgABSE8+sEBMC5A5ABpIAAo8TA1OTRo8ABqwQEcUQCYAkE4AFLBAABiQOVIJSFgqsEAkEkBBE0BJGpBIAAM8SAg5ABJOTUo8AChCQAGwQEwGkE4ABFFOCLBAThqQQgAaUQAGsEBCEkAAJZA7RAVLUUOwQCQMkEsACLBAQRNAQwWQOwAOsEBBDpBOSQE/PQOwQD8SQEAVQEEEkD8ADrBAQgiQTgAcsEBEIJBCOgRFSRiwQEYNkEIAE0UAF7BARBRANhFAAAqQPzoFR0s3PwAPRwAIsEAcFEAwEZBLUgGwQDgDkDtDErBAPBNAPRNAPwmQOwALsEBCA5BLAA6wQEMQkD9OEEJRDT8AHrBAPRJAAAKQQgAyNFgKQ1AhsENME0A7E0BFEJBDABawQEQKkDdLATQAB0dQJrBDSCyQNwAGRwAxO0gATFEJsEBGHpA7AAmwQEEEkEwAD7BAADuQN1ECR1g1sEBAFEBMKJA3AAE7RwBHAAlMVUk7AChMAAVASgxPVCBAABtPAAWwQEEUQAAlQ0QHkDlNCEhYKrBAHQJDSBFAQg6QOQAEsEBGAZBIABKwQEMPkDxFA7BAQQ+QTE05PAADsEBCQpBAQAFEUgRMACpAABewQEEMkEQAF7BAPw+QPEUDsENDBpBFVS+wQD4okDwAFUUAD7BAPQmQOUcLsEA8ApBIWRGwQz4kQDo6QDYDkExYATxKCzkAArBALQKQSAARsEAAFUM6VpA8AAFRWQNMAAFASgOwQzMTQy8MkE0gLLBAOAGQTQASsEBLA5BAABCwQE0SQysAkEVJTbBATxNDJRNDHAmQRQAKsEMVAJBITBSwQFETkFEAJrBDDxuQSAAZRVRQsEMLEZBFAB5CVGKwQFMFkEIAJbBATQeQNFoFRVADsEA1DJBDRgewQAAUkEMATUUAAzNMEzQAA0dVZzMAAi9IUi8ANDROJk9SazNKBLBAJAOQNAAQTlcDsEAWA5BPAA2wQAA7Qw8QQxMBkDMACS9HCLBDF3WQLwALNlAGRVQgRwAYTgAsNgApM0wXR1gCsEAPAZBFABKwQAAokDMAEbBDHB+QL0tNLwBHNEgDT1BBRwALNAAsRz0KM0wGTlELTwAHsEAmF0BBEUAyD5AzAASwQAAkkC9Jby8AIUVQFjZKDkcAEE4AG0UADDYAKjNEfTZLAktVDjMAOjYABksACLBDICWQOUsDTlgksEMcGpBOAAo5ABOwQyEmkE9WAS9WE7BASA+QS0oEsEBbBJAvAA+wQHAUQH8RQyU5kEdLD0sAJ7BDKgqQRwAxsEB2EJBMUAKwQFsBkDdMFLBANhJAADCQNwAOTwAKTAAPNEgESVE3SQA3NAACN0wJTFEYSy0RNwARSwA0O04IT1ciTAAiOwBGsEMuBJAxWgRRWgxMWAxPAAawQEACkDEAD7BAWxRAcBNAfAFDNhNDOgyQTAAZSVA9SQBFOVACsEByAJBOTRKwQFkVQDIPkDkAArBAACSQTgAbNkoKS1U1UQAYSwAfNgAAOUkNTlQ9OQAYTgAhPEwKUVM3PABAM1YOU1YETlUBUQAtsEBBFEBUCpAzAANOAAWwQF8tkDtNCEtTQjsAB0sAKTlWDE5NFTkALrBAWBZAPxBAAAKQTgAON1gRTFIFsEM+JkAeEkA/E5A3AAGwQEgEkEwAD7BASwiQNFEQT0wkNABJL1MGTwAFS1UbsEBJBpAvAAqwQEQVQAsIkEsACbBAACyQNFUFTFUtsEA9FUBNDpBMAAOwQFIQkDQAGLBATgaQT08IL0EGLT8fLwAFLQBTK1kFS1MMTwAIsEBQFpArACSwQEQEkEsAELBAACuQMF4HTFIcUwAQsEAeEUA6EkAvAJBMAAGwQ0UUQAABQ0kekFBKUlAAMVFQd01OFlEAb0tOAS9HBTAAB00AOUsALUxKDjBPBS8AR0wABLBDRTiQLVECSE0WMABeL1IESAAQREgXLQAjLwAwRAAEMFUARUs8MAArRQAVLVYSQVMqsEAeEkArFEAlCZBBAAewQBcAkC9UE7BAAAiQP1IfsEAdE0ArA5AvAAYtAAmwQCYVQAAKkDBREUBPBD8ALDAAH0AABLBDSiOQKk8OP1gwsEAmHpA/AAewQCIUkC1LCEJTBSoAK7BAKhJALhyQLQAYsEAqCZAwSABCAA1FVkuwQCwhkEUAAbBAJgeQSFAOsEAhBpAzSQgwACRIAAWwQCoTQC8VQDEHkDZKDEdICTMACbBALhGQRwAqsEAyE0A2EEAzCpA5RQmwQAAEkEtXDzYARTkABrBAEwuQN0cHsEAwFJBMUgGwQCcSQAADkEsASbBACxCQNwACNkoCsEAnCpBOUgewQCwKkEwACbBAKCdAJCZALAiQNEwGNgAFsEAuD5BPUBawQDABkE4AFLBAMgaQTwAJsEA4DpA0AAawQD4TQEAGkDtSA0dYC7BAOiFAAB2QRwAcsENOKENSCJBMUkhMAB+wQ1gHkC9IB0tUBTsACUVLJkUATzRMAEsAAi8ABU0+EUxEAUM8BEVDHkwAA0UABEMATk0AAE0eCEwaE0AVE00AHUAAQ0U+BTxDYkUADLBDXAeQPAAAQ0APO0AXQwBnQDBMQABNNAALM0QBRzpaMwAkRwAGNEEDQzw1QwBSQDE4QAA9OwAKRToGPDlLRQA9QzoMOzgCPAAxQwBGQDM+QABFNAAMMz4YRzgwMwBXNEAGRwACREIVTABCOwAROEIINAAQRAAER0VaRwAEOAAOO0EPSkxeSgAVOEECOwAPQE5sOAAEND8MsEAJgQOQSFEDOT8CNAApQABCOQASNkQCRVQLSAB4RQACSFADOUgLsEAAF5A2AE45AAlIAANMVAg8Q1awQAsGkEwADbBAFxGQOUYDQlQBPAARsEATSkAZG5A5AAU2RWZCABI2AAc7RAdKUxawQABdkDhHCDsABEdWB0oAcjtKBTgAAkpWAkcAczsAE0oAAT5LA01VXE0AF7BAPASQO08LPgAEsEBFAUNYBpBEWAuwQEIVQD4QQDkTQDcUQDsSQD8JkDhQAUQAB0xRBLBAQgFDUQKQOwAPsENJFEBBAkNBNkBCEkM7AZBKUQE7UgxMAAE4AASwQEMBQy8UQx0QQwwSQEEUQBMJkDsACbBAABCQOVcLSE8ZSgBsSAABRUWBFUFBAEpMCUUAKbBDCEWQQEcBQQAaSEwNSgBeSAAURUJ6OEoCOQAOTFARRQAvOABDOUYFTAABSEpxSAANRUNZRQAoSkoIQUQBQAB3QQAHSEkEQEkESgBRSAAxRUgCsEAUAUMMFUAbAkMQEUAgAUMVEUAmFEAsE0AwJkAyA5A5AAM4RANMUQZFADuwQDQIkDgAMbBALQuQOUwFSVIBsEAaBZBMABGwQAASkEAASD1MCUxXBTkACUkAWEwACkBHAj0AEU9UYU8AFD1MEkAAAkVTLrBDGRRAHBJALBVAMwSQOUkEPQAusEA1JkA3KpA5AAs+SBBOUkNFAEA+AAg7SwRKVwVOAAiwQDMSQCkUQB4SQx0mQAsHkD5LATsACbBAAAKQTlkRSgBxUVgHQkUEPgABTgBgUQAQPkIFQgACR1QUsEAsEkA5E0A9SpA7RQA+AIEGQEUDsEA8AJA7AARPURpHAAWwQDkTQDcTQDQTQDEikEAAAT1KBLBALQaQTFgFTwAHsEAqIkAoWZBASQFPVgVMAB89ABmwQCQrkEAABU8ACbBAHQuQQ0oCU1MFsEAAAUMiTJBTACRATAJDAA9JWBewQyYmQBwQkEkAA7BALRJANgyQPVIFsEA5AZBRUwZAAFiwQDsdkEBPBU9UAj0AAbBAPQuQUQAJsEA+E0BDE0BHE0BKFEBFCZBAAAewQBIFkD5YBU5SCbBAAA2QTwBoSkcMTgCBB0oAE0dSAU9JNbBAFwFDKhNAAD2QTkoFRwAHRUIETwAisEMuPpBOAAxKRFZKACw+AAc9SAdRSzCwQzMLkD0AO1EABT5FB05JaE4AGUpCUEoAGEUAHU9KA0dEgQNOTQNFTAJHAAZPADxOADhKTEewQzcUkEoALFFTCj4ABD1IST0ANE5XDD5MBVEAB7BAFhFAABOQRQAwTgALUVgLQkwMPgBLUQAeVFgJQgAARUtLVAAvQkoCsEAwBpBKVwVFAAiwQEEUQEUakEIAMz5IXz4AHrBDOxmQQ00MU1UosEBED5BKAAWwQEATQDATQAAZkDxMB0xaCFMACUMAU7BAJgiQQEcIT1cCsEApCpBMAAQ8ABqwQCEgkEAAFrBAJwmQTwATQ0oJsEAcBJBTVA+wQABUkFMAB0BJCkMACkhSNUAACbBAJxBAMhqQPE5EsEA0CZA8AAqwQDcTQDknkEJOCVFTC7BAOzWQSAAksEAwFEAAEJA7UARKWBVRAAJCADOwQCIRQDQVQDoJkDsAAD5KB05TEkoAaUJLCT4AAVFSCU4AC7BAOBRAKhJAACiQUQAWPksDQgAHR00psEAXEkAqFEAyEUA0IZA7SAM+ABawQDY3kDsAJ7BAOA6QQEUIT1AzRwBNTwABOUgASFcNQAAFsEAnFUAAWkAXC5A8RQFMTQQ5AAKwQDMKkEgACrBAPxJAQyiQPAAiTAAOT1EDQEYssEBCD0BBFUA4AJBPABKwQAAXkEAAAjxJBUVWLbBAEBVAMBFAPQKQPAAMRQAFsEBBE5A5SQZIU1mwQEIekDxOAEgADExGDEpKAbBAOBRAAACQOQAgPAAMSgADTAAdsEAXDJA+TgJCVgWwQDsSQEgTQEoTQEgTQEYIkEIAEUVPDLBASAGQOUwCsEM3AJA+AEqwQEUSQzAUQysUQyUNkDZLA0hUCDkAAUUAB7BAPgFDIRJAABJDGxVDFxBDEgyQNgAJMlMLPlQGsEBFD5AyAAWwQFcTQGNVkEJTMLBAVRJASRNARAOQSAAhLVoBsEA9D5BFVAOwQAABQxYZkEIAWypRD0hRFLBDHACQRQASsEMhBZAtABMqADkmSEAmAE0rRQpHTihIAEawQDIMkCpGAisAA7BAQgyQRVAIsEAAAkMmAJBHADk+AAgqACkmRSawQytQkCYAHy1NCUhSE0UAcCpHCD5HCi0AcLBAMgFDLwCQJkUDKgANsEAlE0AAQJAmADErSwlHSSxIADU+ABYqSwkrAAdFUBJHAD4qAAGwQA0ZkCZMDrBACW5AAAOQJgAbLVMLSFQpRyoERQAZLQAERwAzKkYKPkhQPgAdLUkHKgADQkVHLQAkQgALRUUDMEk4MAAlRQATsEA3A5BIAAwmUgOwQEQBkEJTE7BATAFDMwmQJgAKsEBUFEBaB5BCAAmwQGESQGUekEVNZbBAbAKQRQAdL1gBSlccsEBYEkAuFkAAREAUC5ArSAIvAARATAOwQC0lQCggkEAALLBAKwOQKwABL0kNQ00kLwAnQwAgMkwWR1IDsEAbFEAAEZAyACJHABooVx1DUgiwQDYBQzgAkEoAASgAD7BATRVAWgNDPA9AZxRAbCiQR1AQQwAUsENBEUNGSZAwWAVHAARMWQ2wQGQTQEwSQAAKkDAANi1PEUJSLC0AHkIANTBEEUVGFzAANLBACQ2QRQAMNE4RSFINsEAAEJA0ADJIACcqVgZMAApFVCwqAASwQD4TQEoUQE4ikDJPAEhRKzIASjBPCE5TBUgAFTAAFrBASwiQSwkLsEBBC5BLAAiwQAAkkE4ABi9TDE9WAUUAAEUzJ7BANRRARAOQRQAQsEBLE0BNE0NKBpAvAAgyPASwQEsEkEpHATA7aDAAEEdOBE8AAjIAAEoAGzdGB7BARxVALhFAABVDRQqQNwARRwAWO00AQ1gFsEAkFkA6EUBBFUA/EUA9AZA7AA5DACBNWBA3PwY1Qi6wQD4DkDUAJk0ADztECDcAAEpZCDk9HDkADLBANQWQOwAOsEAAF5BKABs8TxJMVhuwQBwRQC8SQDQ4kDk+DTwACEg9CUdGCrBANhRAOD+QSAAIRwADRUwCNkABOQAQsEA2AJBMABOwQCcSQAAtkDYACrBALASQRQACMkwNsEA+BJBCUhGwQEQRQEIlQD4TQDsCQ0oAkEIAI7BAPwWQRU4JNkoDsEBBCpAyADCwQD4RQD0VQD8SQEENkEhSAjlRATYAB0UAD7BAORNAAAFDRjuQOQADN1UMsENKBJBHUghIAAewQD0TQEoGkDcADrBATRNASwmQRwADN0YGsEBIKJBFURGwQEomkEUAE7BATBJAThJAUQqQME0EQFcAQ1QJNwAQsEBBFEAAB5BDAAdAAD4yUgcwAARDUwg+VzlDACSwQCwTQEESQEcDkEVQCj4ABrBARAFDThRAPiRARSFATRGQJk4CsEBVGZA8UgNCUwBFAAywQE8AkCYAEbBAMBNAADOQQgARMgAKK1ETQ1UkPAAmsENKOpAvSAA+VCOwQ0IRkD4AA7BDMQGQLwASsEMYQ5A7UwIyTQSwQwAWkDsAFDIAgQGwQBcVQFAJkDdUAisABrBAYRVAawCQNwAlsEB2EkB/JZBDAIFxsEBhFEApBJA5TA6wQAAtkDkAVTZNPbBAOAFDDhBAPwFDEhNAABSQNgAHMkUbsEMWOkMbMJAyAAo3QSSwQx8+kDcAITZESzYALDJFUjIAMzlIgSg2SAg5ACo2AA+wQyUnQykAkDJHcrBDLiuQMgAFNz8RMhkBMgBwNwARNkU/NgAFsEMzMpAyRUGwQzglQzwCkDIAIzlLZzkAIDZIgQI5TQs2ACk5AEs8SU08AD0yUw6wQDoTQE8AkDIAErBAYxZAexFAfwFDQBFDRIEsQHgFkDtQDLBAVxJAHRNAAAyQOwBHN0wysEAiE0AoL5A3AAY7Rys7ACGwQCpJkD5MKLBAJgCQPgATsEAAX5A0RBKwQDwPkDQABbBATRNAXRNAbhFAeIEvkDxPD7BAdBNAaBRAVAeQPAAJsEA/AkNAEkAnEkAgG5A5SUSwQCQ0kDkAATxLRDwAMLBAKBqQQEcMsENENkAkB5BAAAywQAA1kDZPQTYAC7BAMBJAPRJARBGQPkcEsEBGP5A+ADU8TyE8AE6wQDoRQAAOkDtPG7BADRJAMBJAQAmQOwALsEBIJUBEAJA3RRGwQEIVQEQGkDcAUzJDUDIAJrBAQhNAQQiQNz8xsEA8E0ApIUAADJA3ABAyO3AyAAywQ0gVkD5HPC0TBy8LMy0AFC8AAStBADtGCD4Aezc7BzsATDcANjxBBzQ2bDQAGDtAAzI1CTwASzsAIzc5gSErAAc+QQYqPwE3AEoqADo7PwUrODo+AB87ACU3OFg3ABEyABk0MQM8PX47Pg48AAM0AAcyOz07ADI3O4ENNwAHPkQEKwAJKjk6KgBaPgACO0YEKz5RMgAlKwAAL0ABOwAGPklaPgAdMkABLwAEQUoWsENEQZBBAAiwQ0ATQzkLkDIACrBDMQCQLz0GN0cMsEMsPJAvABGwQBMRQB8BQyYSQCcAkCs6FLBAKgBDIluQKwAZMDwDQEkgsEMeAJA3ACWwQCMTQBQTQAAJkDAADzxRAi1IDEAAgQAtAAM8AAQwQQBATlswAApAABc0QQFDS1w0AA9DABIwQRA5TDGwQAsTQB0QQCoVQDYMkC0+BrBAPAWQMAAOsEA/X5AtABsyPw1BTxCwQD4PkDkAFbBAPCdAOAGQMgATsEAzBZAvQQ2wQCwDkD5SCUEAB7BAJhRAIlCQMkIJQVIBPgAVLwBBMgA3NUAFQQAARVBmRQAENQANMjwIO01vOwAFL0ENQ00BMgB8QU0FQwABLwAJMkUFsEAaE0AAMJAyADRBAAowQgFAQE2wQA0BQyITQCoTQDQEkEAAD7BAPQGQNEIRsEBBBJAwAEg0ACY3PxKwQD8SQD0TQDsTkDcAJ7BAORaQNEMfsEA1FEAyJUAwIJA0AAIwP3QwABU0RgE8SBKwQCkSQAAOkDQATSpLAjlIFTwAEbBAJCZALQiQOQAKsEAzFEA2FZA8SBKwQDhIkDwAJ0BKTioADEAAJTxLbDwACDlPVzkANDxRBi1IBLBAMhRAADGQPAApL0gBLQACsEAnEZA2SgOwQDoUQDwKkDYAB7BAOAFDJhNAMhZAMAJDKhSQMkYOLwARsEAhFEAAAkMuSZAyACM2PwA+Uxw+ABY2AEYySgo8VxU7RAw8AAiwQzITQDcGkDIADrBALACQPEYTsEAACZAvSwc7AEA7RQo8ADg7AAcyRAMvABI5UzAyADA5ACMoTBA3UkY3AAKwQAsBQzYQQCUZkDtNVjsAIj5MTz4ALztKCigAY7BDOhGQN08EOwA0NwBCKz4LPEUSsEAoFEAiDZA8AAewQABLQ0EBkC1AAjRHASsAIDQAcLBDSAiQMDsLLQBfMAARsENNC5A8SAU0O2s0ABQwQQQ8ABQ5Ogo3Qx+wQCIIkDcACbBAOBVAQxFASwKQOQAAOTIPLT0BsEBSAkNRDJAwAASwQFgWQF0mQGFGkENHEDBICLBAUgmQLQADOQAIsEA0EEAANpAwAARDAAlCQggySEywQ1UnkEIACT4+Wj4AMbBDURaQO0gBQz5VOwApQwALOUQBQjoasENWPZBCACc+NVQ+ADgyAAFFPwExS1lFABUxACBCPg4yLWZCAAs+OUY+AC45AA87Ow1DPoEHOwABQwAFQkQBOUBEsEAcD5BCAASwQCkTQDISQDcMkD47B7BAOU1APCdAPQWQPgAFMgAARUkBMUVJMQAtsEA4EZBCTAGwQDEFkDJIAkUADrBAJRRADxJAABqQOQAnRUsHNkUGMgABQgBRRQAhOUIFSE8DNgBeSAAasEAhBJA5AAc2QwM+SwSwQC0VQDEkQDNOkDJFAzYAaLBAMRCQMgAXN0gAR1AksEAuEpA+AAGwQCsTQCkgkDcABrBAIhRAGwGQQ1QDRwAHNEQZsEAASpA3UABDAAk0AAxHTz43AB1HABtKUQo7SUVKACA7AA43RxawQCsFkEBFDrBANxJAORVAOwyQNwAGsEA9E0A/EEBBAJA0S4EGNAAJOUgfSEgIQAA9sEA/EpA5AAGwQDwWQC8BkDZKDUVUAbBAAAiQSABmOUkNSFMFRQAFNgBCOQA1SAABTFIBPEV1PAABOUkLTAACQlMysEAgEUAyAJA5ABWwQDwBkEIAEbBAQRGQNkMBsEBEApBKTCWwQEY6QEgJkDlLDTYABUhQDLBASgmQSgAfOQAOsEBFFUAuCJBIAAewQAAZkDdUBUdWPbBAIBNAOxNARhVASwOQRwAVO0cASlURNwA0sEBNLJA7AA2wQE8EkE9QBD5IBEoAKj4AFbBASgyQTwAGsEAiFEAACZA7Ug1KXTWwQDMUQEYTQFATQFYGkD5LBDsABk9ACEoADE1FTz4AGFNPBENKCU0AA08AELBAWxmQQwAHUwA7sEBQApA8Tw1MVASwQB8TQAA8kEwAEbBALBZAPQWQQEcDPAADT04FsEBEKJBAABNPAB6wQEctkEdICUNBM0cAAkMACbBARBNALxJAABeQSE0HQEEssEAiBpBIAAywQDoFkEAAELBAQxJARhKQTD8OPEE3TAAHPAAnsEBIApBATQhDTRJAABJDAAmwQEQUQCUSQAATQ1sYkDZSBUVaHLBALhNARBRAUBJAWQ2QRQAasENgA5A5SAZITwc2ADxIABE5ACU8TAdOTyE8ACFOABawQEgTQAALkDlUFkhZObBAGRNAPRNASQaQSAANsEBQAJA8SQg5AA2wQFMIkE5MRLBAVQyQPAAEsEBXJpBOAAJRTgRCRg2wQF0ZkEIADbBAYgiQUQAfsEBVE0AkDpBLVAKwQAANkDtCLksAEbBANxNARQeQOwANsEBJCZBOSBQ/PTI/AApOAD9FQw5COAKwQEsckEUACEIAFbBASBNAORRAABGQR0kIPzgvRwAEsEAnEkA7BZA/AA2wQEQUQEYHkEtPCTs5UUsAAzsACrBASRmQP0cJQlEDsEBLEJA/ACFCAAiwQEkSQC8TQAAbkDRaAUNbL7BAFAFDXBJAQxNATwOQQwAQsEBWHJBHUAE3QwQ0AFc3AANHAB07RQZMUgywQFoSkDsAH0wAB7BAVxRAQRRAAAyQN1IHR1g4sEAiE0BFE0BQCJBHAAewQFUHkDtMAjcAA0xXTjsAFkwAGk9TBEBJHrBAVw+QQAAJTwBDsEBNEkAABpA5TQRIVEOwQ2APkEgABLBALwWQOQAPsEA+EUBBBpA8SAdMTRqwQEAmkDwAErBAQRNAPxNANgaQTAAGQEIAREoHsEAdE0AQE0AfCZBAAAlEAAGwQCoRQDEUQDcRkDxGAbBAOgWQRVQPsEA9EUA+AkNcEUBBFUBCCJA8AAmwQEQHkEUAFzlJBUhXPrBARiVASAqQSAAKTFsGPEwMsEBKApA5AA+wQ1cUQEw4QD8VQAAIkEBQATwAAFFaB7BDUw6QTAAETTMVsENNCJBNAAtAABSwQDgRQEkiQE8mQ0cDkEVEJbBAUzhDPQWQRQAPsEMtDJBITASwQFUBQyASQFcnQFsBQxoIkFEAB7BDEw+QSAAEsEBhIJBFTgiwQGYBQwA3QGomQG8EkEUAFUJUQ7BAdA+QQgAYsEBeEJA0WQKwQDABkEVSE7BAADpAHAOQNAAPsEA5FEA8DZBFAAEzSwOwQDYUQDICkEdQD7BANRRAOxJAQAWQMwAisEA8FUA4AZAvQCSwQDsRQD0UQDwHkC8AC7BANRNAHxRAAB2QNEMFT09ysEAWBZA0AAwzSAKwQCwAkE5TBk8AC7BAMzlDCxJANQBDDwyQMwAHsEA6BJAvRA6wQDxhQD0BQxYXkDZNC0VZAi8AE7BAPAeQRwANsEAwAUMRCpBOAAWwQAAekDYAB7BDFR+QM0gFRQARR1kEsEMRO0MWBJAzADMvRCWwQBAUQBkZkC8AM7BAIRJAJQCQT1YENEYksEAgEUAAC5BHAEBHQA9OVwM0AAIzTgxPAAGwQAkVQCsSQDYVQDgKkDMAJS9LGLBDEktDFxaQLwAJRVMUNksZsEMTAJBHAABOABtFABo2AASwQxcUQDYOkDNHAEdWS0cABjMAGTZQDktYNjYADksAGbBANBBALgSQOUwITloHsEAAJ0MTE5BOAAU5ADSwQCUBQxkJkC9YAU9bCLBARwFDHgiQS1cKsEBUA5AvAA+wQGMVQHASQHY3QyINkEdMCksAOEcARbBAcAeQN1ENsEBoCJBMRwqwQFwKkE0zCbBAUBGQTwACNwABsEBGAkMeCZBNAAiwQEEKkEwAB7BAPxWQNEwLSVY/sEA+A5BJABc0ABQ3TQ9MURBLMxY3ABJLABZMAAuwQD0SQDoIkDtNBE9ZB7BALBRAABKQOwAwTwAlMVkDUVgEsEMjA5BMVyWwQFYAkDEAA7BDJxJAdBBAfyeQTAAWSVAQsEMuMJBJAEVOTwE5Uw6wQG4UQFohQEMEkDkADrBALBRAKQuQTgAGsEArF0AtBJBLVQc2RydRABtLABI2ABGwQyoKkDlJBE5RTDkAB04ALDxNA1FVBrBAJRRAABSQPABLM1sDU0gETlYCUQAasEArFEBTAUMuCZAzAAiwQGMLkE4AB7BAayhAZgaQS1QEO08+OwAFSwAhsEBiEZA5UQNOTxSwQE8HkDkADLBAADuQUwAAUxodTgACN1gFTFIlsEBAFEBPAUMqDpBMAAKwQFICkDcAILBDLhRATwiQNEkJT0ohNAAasEMqIJBPAAawQy4JkC9SDEtUIy8AE7BARhJAAAOQSwA7NFwKTFMqsEA2E0BRFEBaA5BMACGwQFYAkC9RCDQAA09OCLBAUhiQLwBKTwAEK1oLS1cUsEBMEkAcAJArABSwQAAJkEsATTBfAkxSArBDMhdAJwGQUwAQsEBPAkM4E0BTD5BMAAKwQE4UQEQTQDwEkFBNIrBAPi6QUABAUVIRsEA9FEA7EkA3FEArFEANEkAADZBNTxNRAHFLUgEvSwcwAApNAD9LAC4wUQFMUAUvAFhMABwtTw1ITwIwAD0tABBIAB0vTxVERjYvADswURZFRgFEACkwADhFAActURJBUEWwQDYTQEgOkEEABLBAOQWQL1AQsEAACpA/TwQtAEsvABMwUQdASiQ/AAswACZAADQqSws/VBWwQDcBQzwSQEkRQEUTQD4CkD8AEbBAOgyQQlAHLUURsEA9AZAqAEUtAAlCAA9FUBAwOhawQDkNkDIkBLBAHhNAABiQRQARSE0cMgAFsEAZBpAwAAIzSQywQDAUQDcHkEgARkU5ATZKB0dBBTMAF0UAAkcAN7BAOiJAPgJDQAiQOTwJsEBBEpBLOAGwQEMFkDYAE0sADrBAPxNAIBNAAACQOQASsENECZA3SgdMVzNOUhNMACg2SwWwQ0gIkDcAB09WFk4AGE8ADzYAOTRJFExSB0pRFkwABUoAHTQAMDtPAbBAFwFDTxFAOACQR04QSEUCsENTE0AzAJBIAAhHAAywQC0mQDMTQDwBQ1gDkExSELBAPxJAPgyQTAAGsEA8NpAvQgOwQD0BQ14JkEVSBktUAjsAArBDYidAPAKQRQAGSwAusEA9FUNmB5BMUgQvAAawQDoAkDRKCENOGbBAGRNAAD+QQwAuQDBDQABCRTkFPEVXRQAlQ0EHPAAHO0IYQwBUQDs5QABhM08CNAAGRzpcMwAjNEUGRwANQzs4QwBXQC5HQAAhOwAWPDsDRTwyRQBSO0ECPAACQzo+QwBNQDJUQAAvNAALMz8JRzY8MwBENEgERwARRDgiOwAWTAAuOEkLRAAJNAANR0JFRwAZO0MbOAAFSk1wSgAMOwAEOEMePj8GsEAeAJBAPxOwQCkQkD4AA7BAKzGQOAABNEYFsEAwFEAycpA5SA1ITQM0AAKwQDQskEAASzZLAEVQATkACrBADQKQSAATsEAAXkAgAJA5SARITwZFABg2AAWwQBoRQAkmQBQVQCIDkDkABUgAAUxRAzxEF7BAAFuQTAAGsEArBZA5SQc8AAewQD4BkEJTHrBAQhNAPhRAOiRAPQqQOQAIsEBBBJA2RhKwQEQTQEMSQEEUQD4QkEIAArBAPxVAQhNARAJDagGQNgAEO0cBSlYcsEBBE0AxE0AAPJA4TAU7AAFHVwVKAHQ7TQFKWANHACU4AEpKAAk7AAg+UAFNVVBNAA6wQCYTQDIIkDtSCj4AAURaN7BDZBRANBRAOANDYAOQRAAMsEA6C5BMUQI4UQ47AECwQD0AQ1cTQ0sSQD4BQ0EOkDtRBkpSAzgAAUwAILBDOBNAOQBDJxRAAAFDDhBDABmQOwAIOVgMSE0NSgBvSAABRURxRQAhQVMMSkwysEAwFEAAKpBBAANATxlISB1KAERIAB5FQFBFACs4TwE5ABFMPluwQwgNkDgAGEwACkhBAzlIZUgAIkU8OkUAREAABEpFCEFNX7BAJQuQQQAGsEAsEJBKAANASQBIRgKwQCYUQB4TQwwTQCIKkEgACLBALhJANhNAOwmQRUhEsEMRE0A8JEMMB5BFAAQ4SAI5AAZMVUY4ADk5TwdJVRBMAB1AAEGwQDcRQCgKkD1OAkxWB7BAAAiQSQALOQBITAAcQEYFPQACT1VqTwAZQAADPUsBRVQWsEAcEkAoFUAyEkA7FEBBE0BDCZA5SQg9AHCwQwgEkDkADj5LB05SNEUARTtRAT4AAUpYCE4AELBAQRNAPxNAPRFAPCZANwKQOwAEPk0ITloDsEAvEZBKAASwQCIUQBsmQBQUQAArkEJKAVFXEj4AAk4ATlEAHz5LBUdWBEIAFbBAFBJALBVANw9AOiqQO00JPgCBBUBMA09WHTsADUcAUT1SCExbCEAACE8AaEBHA09XEkwADj0ATUAADU8AA7BAOACQQ00LU1gJsEAxE0AXFEAAJZBTABSwQA8AkEBTAbBDDAyQQwAIsEAlGJBJWQewQDETQDYTQwghkEkAF7BDDQmQPVMCUVILQABdsEMIC5BAUAg9AANPUxNRADOwQCgUQAASkEAAEj5ZB05PFU8AH7BAKhNAPRNARCCQSkoJTgAPsEMOOUMKA5BKAElHUgBPTCawQDoQQABCkEcABEVVBbBAIQWQTk0PsEA2CJBPAAuwQD5akE4ABUpIb7BAPwiQSgAHsEBACZA9UAE+ABJRUAywQD8TQD0UQDsgkD0AJD5QBVEAAU5MJrBAOCVANjOQSkoHTgA5sEAzE0AxA5BKABGwQCsQQBwNkEdUAU9QBrBACwKQRQA1sEATFEAcLZBHAARFUwNOUgOwQCALkE8AHrBAJSNAKBVAKw2QTgAFsEAuAZBKUhGwQDIUQDYRQDlQkD1LBFFZCz4ADEoAOD0AAbBANkWQPlECTlkWUQBsUVcCRQADQkYNPgAITgBMsEAuFEAACZBCAAJUVAJFSwxRAB1TEzywQBIDkFMACVQACLBALAaQSlQDQkYIsEA9C5BFAAewQEYUQElMkD5KCUIAZj4AFbBASwmQQ0oLU1UySgAqsEBIFEA+DJBMXASwQAAEkDxNA1MAEEMARrBAGxNAPBJASwyQQEQHsEBWApBPUQVMAAM8AAewQFtpkEAADENEAVNPDU8APbBATBNALAaQUwAKsEAAEJBITwFAQwdDACKwQCUTQDoTQEQVQEclkDxFBkAAVzwAJrBASQSQUVMEQkkySAAksEBGEkA3E0AAAJA7UAZKWRBRAAhCAC2wQC4UQEQSQFABkDsABT5ID7BAVwmQSgACTk84PgBNQkARUVATTgApsEBPE0A3AJBRABOwQAASkD48EEdMAUIABbBACRNANxBARxVAUBNAVCiQPgAEOzxWsEBWEJA7ABewQF4OkE9UBbBAZQGQQEMRsEBrKZBHABOwQFYOQDgUQAANkEhXA0AABTlMAk8AELBAKhNAPhJASRRATRCQOQAbTE0CPEsASAAxsEBQEZA8ABOwQFIakEwADbBAVgeQT1ACQEsJsEBbFEBgOkBZBpBAABqwQEIAkE8ACzxMCLBAAAWQRVowPAABsEAlFUA9E0BKBpBFAA2wQE8VkDlIAzw1AUhKJTwAD7BAUSVAUxNAVRGQSAABsEBXBpBMQQI8RAhKTQI5AAGwQF0SQGUWQGsnQF8IkDwABkoABbBARACQTAANPlADQlsDsEAAKEAmEEBDCJBCAAuwQFMUQGMMkEVQBbBAagOQOU8JPgB+NlEBSFQEOQAbsEBdCZBFAAuwQEAUQAADkDYALDJUBT5UAbBAPhZAWAKQMgAQsEB0EkB/RJBCUSmwQw40kEgANi1aBUVVA7BDEg6QQgADsEB1E0BGFEAAQZAqTw4tAABIUxCwQxcCkEUAXCoAByZGPCYATitLE0dQKUgAEysAFrBAIBNAPAyQKksGsEAAB5A+AAdFUglHAC4qADYmSm0mACktTwNIVyZFAG8+SwIqRRMtAEwqAComQWcmACJHTAUrTQiwQCgUQD4NkEgAHisAAz4ACrBAQBNARBNASQKQKk8IRVAIsEBPBJBHABCwQFQRQFsUQGQEkCoAD7BAbgFDGxaQJk0OsEBoFUBLE0AAN0MfF5AmAA0tUgFIWSNFABawQyRLkCpIAi0AAj5JWLBDKQiQPgAiLUkIQkUKKgAtLQAFsEMtJJBCABkwRglFSzMwACVFAA6wQBwUQEYDkCZTCEJNCLBAUAKQSAAQJgABsEBXA0M0BJBCAAqwQFwCQzoQQGMUQGoCQz4RQHANkEVSbEUAGi9SAkpXArBAXxVAQBFAAC+QLwAdsEAUCJArRwZATDtAAAgrAAywQBkUQB8VkC9GCUNKIy8ADkMARbBAFA6QMkgEsEAABpBHTCQyABdHACRKABYoVwpDUxGwQDwHkCgADLBAVxNAbRNAfQmQQwAMsENDL5BHSQFITD1IABRHABtMVQowVhawQGYSQEQTQAASkDAANEJXAi1LNi0ABEIAFbBDRyiQME8PRUwkMAAwRQAZNE4ISFAlNAAySAAasENLAJBMAAgqVx5FVR0qABewQEcRQFgTQGUYkDJUCEhVJTIASzBVDE5TDkgABDAAFUsoILBAUgWQSwAPsEAAAZBFAAlOAAewQ08dkE9YBi9EEEUgBLBALgGQMEATsEBHDpBFAASwQFYWQGAnQFsJkDJIA0pRAy8AKE8AGTAAHkoAAbBDVBOQR1ITMgABN0IjOR8BsEBTFEA9EUAAAJA3AAM5AAJHACOwQAsIkDtSAkNOCLBAOg+QRTkCsEBKFUBUCpBFAAY7AAhDAA+wQE0SQEgYkDdNAU1XDrBATCFATkGQTQASO04JsEBQAJA3AAZKUyKwQE0TQDkMkDsAA7BAABSQSgAeTEYEPE4EsEAWAUNZFEA8FEBLEkBTOUBVBpA5SAk8ABJITQSwQ10lQFATQEUEkEwADrBAPRRAPg2QNkgGsEA9BpBFUAg5AAawQCkPkEgAA7BAACaQRQASsEAyC5A2AAewQE0IkDJMDbBAYwGQQlYQsEB7A0NmD0B/AkNsA5BCAHg2RgBFVAIyACVHUxNFABqwQF8RQAAJkEhaCDlJETYACUcAgQxHVwc5AAU3RQVIAAWwQCMUQE4SQGATQGcTQGITQFoTQFEhkEVJG7BAUwaQRwAcsENoC5BFAC2wQFYhkDA5BEBRAjcABUNQBjJAB7BATwJDZBJAKQFDXACQQwASsEAAA5BAADawQ1gPkDIAADIlA7BDUBGQQ1YBMAABsEM7AZA+UhGwQxwlQwBJkD4AH0VQAUMAgSUmSgZCVQE8TwdFADomAIEXK1EIQgALQ08EMgCBRC9MCD5MGjwAES8AgXgySQA7RCQyAIMsN0eCArBAFxJAKBZANBFAOhNAPRNAPiVAQBRAQhJARBJARhNASCZASidAThRAUhJAVhFAWxRAYBJAZCRAaidAbiZAcjdAdjdAeydAf4gGkCsAZTcAHEMADzsALj4AgXewQHgTQGsTQFsVQEwSQEITQD82QD4VQD0SQDw5QDgSQDMUQDFbQCwUQChcQCQB/y8A&quot; target=&quot;_blank&quot;&gt;Download MIDI&lt;/a&gt;&lt;br&gt;&lt;/span&gt;&lt;/p&gt;\n",
       "          &lt;midi-player src=data:audio/midi;base64,TVRoZAAAAAYAAQACAeBNVHJrAAAAEwD/UQMHoSAA/1gEBAIYCAH/LwBNVHJrAAGGcQDAAACwQG4AQ3WDakByXkB2S0N5ggZAeoEAkEc8JbBDdTdDcQGQRwApsEBvE0BdEUBMCZA3LAlHNgGwQEEBQ2wTQDwmQEIBQ2cTQEwTQFkSQGcSQHETQHgPkDs3BbBAfQFDYxqQNwAvsENeUpA7AAI+NDGwQ1pCkD4AIEhMB0cACUM4GEgAgRU5PQBKRA2wQGMDkEMADrBAQRFAAAWQSE06SgAASjMISAApSDwWQzkKSgBeQwAuQjqBLkIACkgAAzkAAEdEIkAjHkcAAUgvUEgABUpEIDsyMUAAdz4/gTlCPyA+AIEDQzoWQgB/sEAtDpA7AAawQEISQE4DkEoABUdCDbBAWhJAZxNAchJAeTlAfRKQRwARSk6BGLBAbhSQTk0BsEBXBpBKAAE7OguwQDsTQAAoQCMSQDgTQEMhQEoNkDsABbBAUBRAVQCQT0kUsEBbDJBOAASwQGEUQGUTQGlgQGMCkExMCTw2BrBAUAuQTwAJsEAyEkAAOEApFEA7EkBFB5A8AAlMAAKwQEsEkE9ED7BATSdAURJAUxRAViVAWyKQSkYCsEBVAJBPAAM7OxOwQEQRQABNQC4UQD4RQEYEkEoADE8/A7BASQWQOwCBALBAQxNAMBNAAA+QSEYETwAVOS+BDkgACkdIWLBDVlWQRwANSEkGQj0cOQAUQwBsUUkKSACBHUIAEkhGATdDAVEAgRtIAA1HRoE2RwAGRUIKOz4tOwBhRQAKQ0CBMDcAB0dFEj45BEMAgSE2OUE+AGY2AAJDQAE0Mx9DAFM0ABoyPoFNRwACMgABMToMQECBKExFOkAAb0wAA0VGBDRCLjQAekUAEUxCgSQ5MwpDPwtMAB4xAHRDABFCQYElQgAEMTwIQ0VgMQBBTEcDQwCBNkNDAkwAATJAgRtCRgJDAIFGQEQINjsVOQASQgBCNgAzPkUAQACBO0BGCDIAATk7Hz4AeUJJJUAAgQ9DSQIwPCJCADawQCoRQDwTQEQAkDAAN0JMJ0MAgQdCABYvNwEyOgBDRxywQEIRQD8AkDkAFbBAOxFANhVAMBJAKhNAHBNAAAKQQwAGRUmBK0NKDzdAA0UAMbBAMAaQLwAPsEBED0BQE0BdFEBsE0B3BpBFTAuwQH0AkEMAKkUAeEdFEC0+DbBAYgGQMgASsEA4AJBFSwhHAAmwQAA3kEUAAkc4OEU9H0cAgR02NwI3AIEoQ0EJRQBAQwANRUE8RQAVNgAIR0EFLQADNzOBMSs4gR8vOBArAAM3AIEvMjIILwCBCDIAHDc2H0cAgRVHSoEgRwARTEIHOTAuOx4uOwAxS1IDOQADOzUETAASNwAvsENSXENOF5A8RAFLAAY7AANMUyuwQDgBQ0oSQEYTQE8TQFgCQ0YPQGAGkDwADLBAZg6QTAAGsEBsAUNBBpBOUAywQHABQz0TQHQDQzkkQzU3QHkmQH8IkDdGAkBFAUxQBU4AKbBAcBJAXxRAUyRAVRuQTAAMsEMxAZBOTIEVsEBeDZBOAAewQGUIkE9OGzcAArBAVgWQOT4QsEAuE0AAApBPAAdOQi9PSAdOAC1OQANPAIEvOQAOQAAOOywOPzEEsEAXFEA3FEBDEUBIFUBKJ0BNEUBPDJBOAAewQFEWkExCSLBATgOQTkYITAAJsEBLEkBGCJA/AAQ7AAiwQEENkE4AAkA0A7BAPA2QT0sGsEA4JkA2OEA0JkAyKJA7NV2wQDA2kDsAFjcwgSI3ABA7NVKwQC4SQCsSQB0TQAAukDsACTQ6PbBAIhBANBVAPBFAPxVAQR+QTkcnNAADsEBCDpBPAApAAA+wQEM5QEUlQEIHkDc6AkxKAk4AB7BANhVAAEtAJBJANBRAOBSQTAAISkoMNwAPsEA8FEA+E0BBEkBCE0BEWkA+CJBJTAZKAAWwQCsBkDk5FLBAAIESkExEC0kAgS07OQJHPAVMAFY7AFZMPyJHAHZMAB09PQVFRTE5AAmwQCoTQD0TQEcTQE0SQFISQFUQkE9JBLBAVzZAXAFDLSZAYEtAWwFDJw6QOUEDsEBSAJBOTxOwQEgCQyIAkE8AB0UACbBAQidDHSZDGT2QTE8oTgAMsEMUNJA5ACmwQEEDQxARQDcVQAAJkD42Aj0AAk5NFTIkAUwAgRJRRR9OAIEIUQANMgAETD4CNDpHNAB5UTcNTACBGlEAEzYuAEo6fTYAIEhFF0oAgSBHSQwyOxdIAC2wQA0SQBwSQCIBkDIAErBAJhNAKBRALAWQRUkMsEAwApBHABOwQDQTQDcjQDooQDwhQD0mQDsKkDc5AEUAA0dEBLBAKhZAAIESkEo6AkcAgStFQgRKAAc8ODI+AGJFAApKPwY8AIEnSgAJQ0EMOzSBBTsAE0MAAkpCIbBACR9AEBVAFxJAHTpACRJAABmQQkEASgAKOT0WsEANEkA2FUBHEUBSFUBXPJA3AAA5AAJKRFRCAFRKAA+wQFIIkDc+A0BHCLBARRNAKxFAAHqQSkiBCUAALElKCDRHGEoAgQQ3ABdHSyFJAIEdLUYGSUojRwAfsEAdEkAwEkA5EkA8FUA9EkA+BpBMTQ6wQD8EkEkAD7BAQSZAQkqQTAAVsEA/D5BFTgOwQDAKkC0ABzFHA7BAAIEHkDQADk9OAbBAJBNALxJAMjhANEdALxNAABCQTk8DMk4LMQAMTwAkRQBwTEwcTgCBD05LCCtDMLBANAGQTAASsEA9EkBDFUBJEkBOAUMUEkBSDJArAANKSgKwQFUBkDIABjRKEk4AIbBAWV2QSgATsEBeDJBJRhE2TQQtRBZJAAKwQEsAkDQAC0pCB7BAGRRAACSQSgADsEMYB5BJPR2wQx0YkEo+PUoAebBDIWqQNz0hLQAUNgAcsEAXE0AwFEA+E0BHEEBMFUBQEkBUE5BKQwGwQFkQQGAVQGcTQGwCkEkAOkoAfTcAFrBAYwmQNjICSj0GMi8DsEBbEUBQFkBFEUA+E0A9J0A8JUA6P5A+Og02AIEFMgAPPgAJNC4BNzaBEjcAHD46KrBAOG9ANg6QPgAFsEMdBZA5NQU2L0I0AGFOSwI5AAM+ORE2ADKwQDQNkEoABrBAMRRAKRNAGhNAEhyQNjoAUVEJsEAZBZAyMQE+AA6wQCgEkE4ADrBANBNAOyBAPhZAQBBAQRVAQhiQVFABMgAOPj4HNgAGUQAEsEBDgQNAQhRAQRNAPQCQNzsNPgACU0sEsEA3BJBUAA6wQC8UQCQTQBAUQABxkD4xgQo3ABU+AAM5NYEnUwAFUUcKPjKBPD4ABE9ICDszFVEAZzkAIE5LBz49FE8AgQY7AA1MSgdOAAE3Qw4+ACmwQBMUQDITQEEUQEsRQFEUQFMDkDcACEpSAj5CIUwACbBAVRVAVwmQSgAtsEBbRZA0PgZMTAKwQGAekD4AGk5KAbBAVRVAQwOQTAAOsEAlEkAALJBPRxhOABY+OoElNAAENjUTPgCBIT46Ak5EEk8AgSJOAAU+AAU3NQFMPQw2AIEPTAAHPjkHSkaBLD4ABkoAAUlDEbBAExmQNCQHsEAlEkA2E0BBE0BHCpA3AAiwQEkmkDQAGD40A0dFBEkAgQqwQEcWQEQSQD8GkDk6CElFBLBAOwSQRwAQsEA2C5A+AAewQDASQC4mQCwmQCoQkEkADEVCEj03EzkAMbBAKDhAHhNAFBCQPQAARQADsEALAJBKRQE7O0uwQBsTQCITQCYTQCgEkEoAEbBAKhFALQaQPjcARUALsEAvOkAxWJBFABWwQCYOkD08AExCAT4ABbBAAAmQOwBVsEAUEkAkFEAtB5BMAAQ9AAawQDIKkEAxEEU5C7BANHNANjCQOTQIQAACsEAuA5BPQA+wQBYRQAA6QBATQCUTQDELkE8ABrBANxWQTDsBPTUIOQAbsEA5R5BFADA9AA6wQDcOkD4zBrBAJwmQTT4CTAAHsEAAgRNAHRJAJhRAKQaQRTQMsEArKEAuBZA+AA2wQDAnQDIlQDASQC0FkDw1CUo6F0UAFk0ASbBALyVAMROQTD8dPAAPSgAgsEA0JkA2JkA0EkAkD5BNSgSwQAAFkDo8DkwAXbBADxRAHxJAKAWQOgACTQAOsEAtBJBKPw6wQDATQDInQDRLQCsfQCELkDlAA05IBrBAHAmQSgAwsEAhR5A5AAawQCUkkEpAOU4ATLBAEhNAAAyQSgAQOj8FT08+sEAtE0A/EUBIFUBMCpBPAAWwQE8IkDoAD7BAUQiQSkwKsEBUE0BWOUBbN0BSFUBHEEA6FEAyApBSUAk3ODxKADM3ABhSACNRRymwQDA5QC0TQCITQAA8kDQ7AlBAClEAKrBADxRAIBBAKwiQNAAMsEAyEkA3FEA6E0A9FEA+CJBKPAqwQEAUQEElQEISQEEUQDkQQA0OkEoABbBAABqQUAADOTMCSUAbsEAwFUBFEUBRFEBbE0BhApA5AEpPR4EXsEBWE0BGC5A+OwmwQDcCkE5BA08AC7BAMAeQSQCBGUhBgRlIAAVOABtHQwc3MYECPgAcNwAKTEoRQzWBGEcADkI3CUU9CUMACDkfgRdMAAdKTIE5RQAGQgADQDkQQzuBBUoAMklHgQM5ABCwQC5OkEAACz4yA0pGBUMAKkkADLBALIEFQCoGkEMogSpDAA1FPIE/QDcNsEAogTOQQAAAQkCBMz4AAT0zgQGwQyEbkD0AEj43gU45LYE2sEMlS0MpX5AyKRGwQCIUQy0SQB4nQBkkQBQAQzE6QBAkQzUmQAAlQzpgQz85Q0MlQAkTQB0UQCgSQDIVQDgBQ0gRQD4RQEIUQEUSQEgTQEoUQE0dkEUABLBATxRAUhJAVxNAXBFAZBJAbBRAdBNAeRGQSgAVsEB+A5BCAIEKOQAPMgAoPgCBELBDTyVDVTlDWihAehFAcwJDXxJAaxJAYhNAVxRASxFAPhJANBNAMkmQRz8DsEAwFUAuW5BHACWwQDARQDIkkEc8AbBANQqQNy4LsEA3EkA6FEA9EkBAFUBBaZA7KQewQD4UQDsTQDg3QDsUQD4QkDcAAbBAQhJARQmQPjQHOwAEsEBKE0BPE0BVEkBbE0BhFEBmEkBtD5A+AASwQHISkEhGArBAdgaQRwABQzUaSABPsEB6SJA5QwFKSw5DAAawQGYVQEcFkEoADrBAAASQSEhHSAAJSkM5SEACSgACQzlyQwA3QjoBsEAcAJBIAABIBxWwQCOBIpA5AABCAAFIAAhHOw9AMyiwQB4AkEg6A0cAJLBAGhiQSAAfsEAWAZBKQSWwQBAIkDs0BUAAgSY+OYFCQj0bPgCBCkNBKDsAB0IAJLBAAF+QSgAdR0MFsEAcFUA0E0A/EEBFFUBIEkBKJUBNE0BQAJBKRxOwQFIOkEcABrBAVRNAWhNAXhRAYxJAZ0KQSgAEOz4BTkwEsEBeEkBMEkA3JkA/FUBHEkBPFUBXEUBdD5BPSAk7ABywQGMCkE4AJLBAaTlAbUSQPEACTEgGsEBiAJBPABOwQEwUQCURQAAmQC8TQEAUQEoQQFEUQFUEkDwABk9GAkwAB7BAVzpAWydAYhBAZjKQTwAHOz4ASkwCsEBOEEAAYEAuFEA7EUA+HJBKAAVPSmOwQD8mQDsOkDsABbBAKQWQTwAPsEAABpBISgY5PUdKRwFIADZKAAVIQUVHSQBIAIEnSE0ERwABQj8hOQAcQwA8sEASFUAnEEA0BpBRTA2wQDsBkEgAErBAPktAQCdAOhNAHQuQQgAGSEoBsEAAA5A3QgdRAEKwQDUTQEUTQE0RQFEbkEgADLBAUwiQR0gesEBVWkBYOkBSDJBFSQNHAAKwQEMDkDs9ELBAJCZAGQmQOwALsEAsFUA6EUBBE0BCH5BFAAlDRjewQEMkQEQmQEIUQD0AkDcAE7BANAWQQwALR0UBsEAmB5A+Oh+wQC0VQDgRQD4UQEJakDYzCkUxIkUATT4AJDYAD7BAQQWQNDEBQ0gPsEA+EkA5EZBDAAGwQDNTkDQALzI4GkI2HLBAMQmQQgAesEAsFEAjEkAJFUAAK5AxOAQyAANHABdAPTqwQCcRQDsUQEUSQEoVQE0qkExEDrBAUCVAVBNAVydAXSVAWASQTAACQAAMsEBKApA0PgRFPQ6wQDITQAAikDQAArBAHBVALBNANhJAOTSQTEQDRQACsEA7EUA9FEA+E0BAE0BCE0BEJ0BCEkA9IUAyBJA5PAtDRQSwQComQDMMkEwABLBAOQyQMQAIsEA9FUA/NZBDAAOwQEAGkEJANLBAQRFAQkxAPhNANQ+QMUMAQgAEsEAsApBDRjewQDUUQD0TQD8FkDEADLBAQDpAQQWQTEYEQwBVsEBCJkBEJkBBEUA3BJAyPRCwQBkCkENHC0wABbBAADlACxNAGRNAIi2QQwAHQkmBQTY/CkBJMzkAEEIAWrBDWwaQQAAGPkUZsEAeTEAZAENXAJA2ABawQABLkEBJEjk4CD4AAjIAG7BAFxRAKBJAMBVANRFAORVAPBJAPQWQQkgvQAAEsEA/E0BBFUBCIkBDJ0BBE0A2AJBDSgMwOhGwQBoNkEIABLBAABVAHyBAOBRARxGQMAABsEBQFEBVMpBCSQ1DAFiwQFglQGAQkEIABLBAZhCQQ0cQLzsFsEBYA5AyNw+wQDoTQAAAkDkAF0MAC0VIUUNGAUUAPkMAHEJLSkIAHjc7AENHOC8AV7BAHRRANAqQQwAARUYJsEBAEkBKBJBFABCwQFQSQGEVQG0SQHUgQHonQH8ZkEdDDC0+ErBAewiQMgALsEBiAZBHAAhFTAuwQEETQAAVkEUACEc9NUVCB0cAeUUAAEUjQTcAFTYzgQpFABZDOz9DAB9FS1FFAAU2ABVHPAo3KwMtAIE/KziBHisABC83GDcAgSIyNQcvAIEMMgAjNzIBRwAksEAqE0A6E0BCE0BEN0BGFpBHQxGwQEglQEppkEcAGUxGHDksCbBARRNAPxNAPhNAPxFAQRRAQiqQOQADOzcCS0sbTAAQNwACsEBDT0BCEkA5EEAABpBLAAs8Pw5MSRQ7ADCwQDISQEEEkEwABE5FC7BASQuQPAAEsEBOFUBREJBMRiZOAD5LUAhMAEOwQEYIkEsABjc+AEAsBbBAGQWQTFIIQTMDsEAAAUNSHZBBAAewQ0oVQ0QkQ0AnQCITQDMKkEwAB05QArBAOwJDNxJAQAJDMhBARBRDLiBARjpAShFATg2QTgAGsEBWBJA3AAVPTwmwQGIDkDlEErBAaRBAYAJDKRRARQSQTwABTk8LsEAAOpBOAAZPSzJOTQNPAIETOQAhOy4HsEAnApBAAAw/NgSwQEIVQE4RQFgUQGADkE4AD7BAaBNAbxRAdUOQTEU+TkMNTAAHsEBrAUMtEkBfFUBSD5BOAAKwQEUGkDsABE9FC7BAOQWQPwAHQDYFsEA0W0AxE0AuTZA7NiWwQCx6kDsACDcygQ83ABw7M3CwQCgVQAAzkDsAHDQhIbBAFxRAMBNAPBJAQhRARC+QTkMHsEBHKEBKCpBPAAiwQEwUQE4TQFAFkDQADrBAUiJAVBeQQAAfTEYCTgABsEBLAZA3NBCwQDMUQABJQBcUQCsTQDIJkEwACrBANgmQSkoJsEA7FEA/FUBCD0BEKEBGRpA3AASwQD4DkEoAAzlBAUlJDLBAFhNAAE5ALBBAPRVAQyKQTEMJSQALsEBEOkBGJ0BIN0BFCJBHQAFMAAI7PwiwQDsSQBkUQAAlQCUSQDgVQEIEkDsADrBARS2QTD4yRwAisEBEEkBCFUA7EEAuApBMABOwQCEgkD0/AUVGBLBAJxNALhNANBRAORNAPASQOQANsEA+E0BBFEBDE0BEDZBPShawQEY7QEg4QEUUQDwPkDlBAbBAJwSQTk8RsEAWBZBPAAJFAAywQB8UQDQQQEQKkDkACrBATxNAWRNAYBJAZR2QTFAKsEBqGpBOAIEePQAEsEBiApA+QwFOTSGwQFEAkDI7A0wADrBANBNAAGBADxBAFxSQUUA2TgCBBDIABrBAHAKQNDoFUQABTEAIsEAlEUAuE0A1FEA5I5A0AAOwQDsmQDwVQD0PQD4CkFEyE7BAPweQTAAMsEBBI0BCOkA/E0A6FEA3EJBRAAQ2LgRKNw2wQDoSQD0TQEEUQEIikDYABLBDMRFAQyuQSEMOSgA2sEBFJ0BHN0BBFUAzDpBHRAGwQAAKkDI7FUgAHLBACxNALBNAOQ2QMgAFsEA8RJBFRRZHAAWwQD0lQD4mQEEUQEI5QEERkEdDAbBAOwKQNzAPRQABsEAsFEAAN0AfEkAvFUA5EkA8EpBKNgGwQD0FkEcAIrBAPxNAQCRAQiZAQxuQSgAKsEA+CJBFOw2wQDgIkDw3CbBANhRAOSVAPRFAQhJARACQPgA8SjgPsEBGBZBFABE8ACKwQEg6QEs6QEMGkEoAC7BANACQQz8IOzUKsEASJ0AqFEA6EEBDFEBJIZA7ABNKQQSwQEsjkEMAGLBAThJAUCZAUzZATBRAQwSQQkQBOToBSgAOsEA9BpA3AAywQD8TQEUUQEsSQFEUQFYxkDkADUpHHbBAWidAYAWQQgAxsEBnFEBsN0BbBZBKAAc3QgFARwewQEMRQBcWQBIPQC4VQD0SQEUUQEkwkEpJL7BATBFAThNAUQ6QQAAGsEBTE0BWN0BNBZA0SAdJSwiwQD4FkEoADbBAKilAOhJARhBAThRAUQeQNwAMsEBPFUBNAUM1B5BHSxNJAAewQE8oQFISQFVeQEwUQD4GkC04AUlRDLBAIhJAAACQRwASsEAeFEA2E0BCE0BHOJBJABpKRQqwQEoRQE0SQFAlQEwQQEICkExJErBAMgeQSgANsEAhEkAAEJBMAAgxRwtFTwMtAAQ0ACOwQBwUQDQRQDpnkE9QarBAPDdANhRAKwCQTk8EMkwHTwAFsEAkAJBFABExACqwQCsSQC85QDEXkExPIE4AOrBAJxJAAFGQTlQDK0QWTAAZsEAmEEA7FUBEEkBIFEBMEEBQFUBSDJBKUAErAAAyAAhOAAU0Rx+wQFQlQFcUQzk3QFwPkEoAHUlJDbBAVQeQLUEANkQMsEBBEkAADpBKTAJJAAc0ADlJRQJKAA6wQz0xkEkAFEosJEoAAklDGLBDQoEvkDc4RDYAFbBALCRAPgGQLQASsEBIE0BPE0BVEEBbFUBiEkBoDJBKRQiwQGwVkEkAIrBAcBiQSgCBEbBAahVAYQeQNwAJsEBVAJA2MwIyLRBKOgOwQEcTQDsSQDKBM5A+NQg2AHSwQDAikDIADD4AATc5AjQxZ7BALlOQPj0CNwApsEAsgQmQPgAKNjgKOTU9NABWSgAGNgAETEgDOQAKPj1UTAALTkUwTgARNjkDMjMLT0wFPgA0TwAdsEAwAZBRSygyABpTSwNRAAk2AAs+OT2wQDIBkFMAAVRQJLBALA9AJhVAFxJAEwWQPgAENz4MVAAEU0t7sEAeJ0AiLJA+Nx+wQCsTQDEUQDZXkDcACz4ACjk2GLBAOIEFQDwkkD40BVFFAVMARrBAPRJAQBJAQUWQOzkHPgAHT0sgUQBIOQA6sEBCAJA+OghOTxdPACc7AE+wQEMSQEIVQD4HkExPAjdBAE4AB7BAOAqQPgAKsEA0J0A3EUA9FEBDJ0BFF5A3AAVKTQc+QRSwQEgGkEwADbBATBRATzGQSgAFsEBSKEBUE0BXE5BMRwI0Pgs+AASwQE8VQEERQDQHkE5IC0wATbBAMQmQT0kJsEAuCZA+PAhOAAGwQCxekDQAUDY1Gj4AgQqwQC4skE5BAT40Fk8ARTYAD7BAMTpALQiQNzYKsEAqCJBMRQhOAAI+AEqwQC06QDESQDYAkEwAAj47FLBAOgKQSkhZsEA8FUA/EkBCEkA/CZA0QAlJSAGwQDgCkD4AELBAMgKQSgAjsEA2FEA7E0BBAJA3ABSwQEIdkDQAHT43BEdMG0kAF7BARSdAREhAQhRAQRCQOUIJSU0LsEBAE5BHAAGwQD8akD4AQ7BAQSlAQBCQPUABsEA+AJBFSQFJABKwQD0LkDkALbBAPiZAPRBAOhVAMgmQRQAJsEArEZA7OgFKSAE9ADqwQC5DkEoAC7BAMBJANBaQRUMCPjkzsEAxOUA0HZBFACRMRgc9QQc+ACo7AB2wQDc5kEwADrBANB6QPQABQDEERUIrsEA2TEA0QJA5OQRAAAJPRoEKsEA3EpBPAA09OwVMQhA5AAGwQDR0QDEFkEUADbBAJBNAAAKQPQAQPjQDTUcYTABFsEAZE0AqEkA1E0A9FEBDIJBFPDA+AA+wQEUjQEo2kEUABLBARiFAQgSQPDYASkAPsEBAFEBCDJBNAECwQEM3QEcHkDwADbBASgKQTEcmSgBvsEBEFEBAD5BNSAM6QgtMABqwQEITQENvkEo9CU0ADbBARQyQOgAqsEBDFkBCEEBBNZBKABROTQI5RE2wQEIUQEQlkDkAKkpCQ7BARxKQTgA6sEBCFEA6DpBKAAawQDYSkE9QATpFN7BAOxFAPRNAPxRAQxNARg+QTwAfSkwYOgAGsEBIEkBKEkBMOkBKEUBFFEBBJZBSUQE3PiiwQEMPkEoAArBARTlARxJASgaQNwAJUgAeUUtXsEBMFEBJEkA/E0ArE0AcG5A0PgRQTgRRAAGwQCsVQDUiQDoRQD0nQD4UQEESQEYUQEoIkDQABEo9Y7BATSZARxRAQQyQSgAcsEBEAZBQAAJJRgc5OQawQEcWQEwPQE83kDkAOrBAUwKQSQAFT0pasENGEkBVWJA+QQdOSQhPAAewQFIWQEwSQEQTQDsHkExGKU4AHUwADEpIAbBAPTiQSgA5SEkksEA8MJBIAAM3ORNHSCywQD1hkD4AGTcAEUxGAUM5CEcAgS05LwRCNQ2wQDwGkEMADkU9TbBAPTWQTAABsEA8HpBKQhZFABiwQD07QDxMkEM7A0A4D7BAPQCQQgBZsEA6OkA8DJBKACBJQx6wQDofkEMALLBAPEyQOQAXQAACSkYDPjokSQCBD0M2gSJDABhFOYEdsEA6IZBANoFUQjcGQAAbsEA4EUA2b5A+AAk9OQ6wQDSBG5A9AB4+OzywQDEUQC9uQCwHkDk0DbBAKnJAIRRAHUpAEyJAAFSQMi6DY7BAEhRAHxNAKhBAMBZANBFAOBNAPBFAQRJARRVASRJATRNATxRAURRAVRJAWwmQQgALsEBjEUBsFEByHpBKAEpFABY+AAKwQHYlkDkAKLBDSg6QMgCBBrBDToE9QHIrkE5TgQhOAFewQGwSQF8EkE5MD7BASgeQRSkBSigDMjEIsEAuFEAAJkAgEEA1FkBCEUBLE0BTIkBXDpA2NhIyAAFFABdKABOwQFsUQGASQGU6QGkSkDk4FLBAcBJAdBSQNgBWOQAGsEB5D5A8OwZPTB9OABdPAEuwQH0tkDwABztBD1FWC7BAbxNAUhNAIAOQUQAOsEAAAZBPSTJRThRPACRPSwg7AAFRAAE5QYEvO0QHOQA4sEAPc0ATBZBPABJORAY7AAw3KjJOAApPT0o3AApPAAGwQA8HkFFQBjY3B7BAAIE9kDk1gSc5AB08MoEKPAAkQDiBSz46FUAAQLBAJRJAOBCQPgACsEBDAUNJEkBIG5BRAAY2AAxISQ6wQEomQE8BQ0UPQFMVQFgSQF4TQGI0kEgAA7BAVwSQOTYASlABNjUPsEBIE0A6FUA9EUBEFUBLEkBSEkBcEkBkC5A2AAewQGgNkEVUDTkADLBAbAFDQQiQSgAdsEByFEB3EkB9LZBFAB83RwlHTwmwQF4UQDQUQAABQzuBF5BLTSKwQAkQQBQIkEcAC7BAHG2QMDYANwADTE0CND0QSwA9MAAAMB1cT0gMTAAZsEAXTUALFEAAIpAwABRPAAUtOABORDSwQBsUQDISQD0UQEIRQEMUQEQtkEhBC04AWbBAQxVAQBJAPCGQLQABSAAVLzQEsEA+AJBHPgEzNg40AAOwQEAUQEMSQEZeQEgSQEoPkFFDBLBATBKQRwAiLwAZsEBOJEBQOUBJBpAzAApRAAGwQEADkDQzBk9ADLBANQiQKCoKsEAyYUAwLJBPAANLSj6wQCwAkCgAd0xNATQAA0sAgTtPTgVMAHewQz9OkEhIHU8AGUgAF0dBM7BAKiCQRwAUSEwCNEh1sEAoOJBIAAY2QAo0AD2wQCFKQB0ekDI7AkhIBbBAABGQNgAXSACBLDc5ATIABkg3YrBAHBRAKgaQNwANsEAuGpBFPDpIADGwQCoTQCElQAAYkEUABis4Ckc8NrBAHBJAKhRANRJAPhJARRNASAiQRwACKwATTDxDsEBLcUBGEpBFRgKwQD8SQDYJkEwACrBAJASQRQAOsEAAGJBDPERDACsxQgJFQYE+M0cQMQAQRQCBGy85D0VICDMAJ0UAgQmwQBIGkDQ9A0VDAS8ACrBACRNAAEaQNAAEsEANJkAAIJBFAAFCO4EwQgAhKDQFQzsisEANEkAXJ0AhE0AtEUA5B5BDAA2wQEEHkCgADbBARAKQSDpIsEBGJkBDE0A+BpBIAABICA6wQDgPQDUrQDABkEgAAUE6DrBAKRJAJAqQQQAcsEAeCpBAMBuwQBMSQAsJkEAAJUE5BS05LrBAAIEOkC0AAS85JUEAgRsrNhFBPBYvAB5BAIEZQToOKwAEMDcbsEAkDkA2E0A8V5AwABM/PBywQDoBkEEAXLBAOCdANg6QPwAKQD4CMTeBCzEAFUAAA0U9EbBANIFKkDJBCUNCFkUAeDIADEMAD0A+gShAAA4zRwFCQoEKMwAmQgANRzIlSCYVsEAwE0AqApBIABGwQA0SQABMkDQ+CEVGCLBAEw2QRwAHsEA1E0BEFUBMEkBUFEBcEkBkFUBpF5A0ABpCQhWwQG4JkEUAe7BAZhNAXQSQQgAQsEBTApAoPwFDSA2wQEgUQD4SQDc7kCgAELBANRVAMhJALgmQSEoJsEAsBZBDAFywQCoRQCg4kCpCEkdOEUgAfioADEcADkNMYbBAIRRAAF2QNkoBQwAARVAOsEASFEAwEkA9EkBCE0BEN5A2ABWwQEYMkEpHBEUAdLBAQhJAPBNANBZAJxFAFwSQN0EASEwISgAtsEAiFEAsEEA2FEA6J0A9EEBBC5BFSAmwQEQDkEgAELBARxRASSZASzdARRRANQCQRQATsEAAA5BHTAYrQRywQBISQDcUQEwSQF8TQHQUQH8okEpQCysAB0cAIEoAQjcAak9RNrBAexRAZwKQTlIETwANsEBNE0AzEkAADpBOABVPUhc0Q4EzN0UYNAAEsEAXFEArEkA4E0A/E0BDCJBPAAuwQEYTQEkRQE0SQFMDkDtDBE9SAzcADbBAWhBAYBRAZQ2QTwAYsEBqJkBxE0B1MpBPUQewQG8YkDBBBDsABbBAYBRAShNAMhJAJDlAKBJAKjCQRz6BFEcAFjc7AUg7HLBALCeQNwB9TDoCSAA7sEAnE0AgE0AZOEAgEkAxA5BMAAQ8PgdFQgawQD4PkE8AA7BASBCQMAAEsEBREkBbFEBkE0BrEkBvJ0B1FpBPT4E1sEBwDpA5RAWwQGEJkE5PC7BASgmQTwAJsEAyE0AnAZA8ABOwQCsTQDYRQD8TQEMVQEYRQEoRkE4AAbBATQKQUUsRsEBPJ0BRJUBTFkBWCpBRAECwQFMBkDs+ATkACEtHBbBATBRARRRAPwWQRQAOsEA9OkA/E0BAN0A/BpBFPiCwQD5LQD0TQDoVQDISQCATQAACkEM8FzQ5BjsATLBAHQKQSwASsEAwE0A+BJBDAA+wQEYSQEsIkExLH7BATRGQRQAosEBQSUBNFEBKEkBFAZA7OwRCRgg0AAiwQEMTQEEhkEwAY7BAQASQRUUNsEA+FUA9XkA8FkA2EEAsEUAmCZAvOQRMSRdCABA7ABiwQB4TQBc/kEwAIEtIGkUAgTkvAAdMQxI0MRhLAIEaRzaBN0MwgUM7MXw0AGc7AAdAN4EuPUUEQACBPj5IEj0AgSE7QA4+AC2wQBNQkEwALDsADz07O0cAgSNFOAFDAIE2R0IVRQCBGENGB0cAgT5MPxJDAAewQBmBEJA5PgewQB4ykD0ABLBAGmJAHx+QOQAUO0QgQzwhRRkvRQBSPUUKOwCBIUMAGj4+A0JFCT0AIEwAgRawQBkEkEIAAUBCN7BAHklAFi6QQkwNsEAcA5BAAIEVsEAiKZBFSR6wQB6BAUALE0AACpBITIE1sEAcBpA5PguwQCsVQDQSQDoPkEIAA7BAPhJAQRVARRJASE+QRQACNkMVOQALsEBLgQyQMkEINgAVPgBgsEBJE0BFFUBBIEA+DJAyABE3Pi6wQD0SQDsSQDcVQDM0kEgAHUVBILBAMYEfkEdGFkUAFUgqAUgAULBALzKQSk8MRwCBOE1ODkoAArBALIExkDk4A0g/AzcAgS9IAANKRgQ7OBc5AIEPSgAMNzQBR0cLOwCBSDw/AEcABzcAAEM+arBAKhFAJRRAFxFAAA6QR0kHQwBKsEAUEkAeE0AmE0AvE0A5E0A/IJBITwOwQEEikEcAA7BAPxRAPQSQTQBJsEBAG5BMUghIADmwQEITQENKQD8LkEwACLBAPA2QTlIrsEA+FEBBJkBCE0BDFEBGEkBICpBKSBo5PRWwQEIAkDwAE7BAOhNAOCdAPBFAPgqQSgAMsEA/D0BCFEBEAZBPUws7QxqwQEcRQEoEkDkAIrBATDqQOwAbTwAFPkACSkoCTgBKsEBOJ0BSEUBVOkBNEUBECZBRTgE2QwiwQD0JkEoACU86FbBAPwqQTwACPgAHsEBBE0BCFEBDN0BHCZA2AAM5PwawQEoFkEpMCVEABrBATF5ASRNAQhNAMhRAABiQSgAEN0MCOQAAU1IGsEASFEAjFEAyEUA+FkBEEUBHL5A3ABywQEkAkDtDA1MABkpGgQ+wQEcKkEoABrBARBZAQQuQMD8DTEs5OwBKsEA+FEA8G5AwABQ0NgNHP4EhRwAINAAULS4ESEMjTAArsEA9W5BRSxWwQD4GkDA6DbBAQBiQLQBGsEA/FEA+EkA8FUA2BJBPSwxRAAGwQCIBkDJCCjAAB7BAACZAEhRAJRJANRRAPhNAQBJAPwSQTwAWTEAusEBBE0BDX0BAFEA7EUA4EUAyAJBMAAUmJARIAAFOOgqwQC0TQ0MTQDASkDIAAbBANhNAPBRAQhFAQxNDRyeQRT03sEBEJ0BDOkBCCpBFABiwQD8AkCs4DUdBB7BAPA+QTgAEsEA5OJArABSwQD06QDwfkENBI0cAVLBAOVOQQwAPMTUHTEIFsEAwFEAAJZAxADqwQB8QQDMTQD4SQEMQkEwAF7BARgSQQzoQsEBIgQWQQwAHJgA7MjYIsEBGBpBCPDSwQEQSQEERQD5fQD0XkD49CEIABDIAA7BAOYEFQDYekDQ3Az4ABUNCgQCwQDQ9kDdEBEMABT47IjQALrBAMWGQPgADRUYVNkEBNwBEsEAzE0A1N5BFAAGwQDIRkDk3CDYAAj48MrBANUlAMkGQOQABMjUCSEEHsEA0epBIAC1FPgU2NgUyAIEhsEAtFEAcCJA2AAiwQAALkDczAT4AFEY5BEUAYbBAFxNAJBRALRFAMBRAMgCQPjEmsEA0DJA3ABqwQDhMQDURQDIIkD4ADjU1BENAPUYAQbBANBFANi2QRUQLNQAXQwBusEAwFEArHpBGSQYzPRSwQC4JkEUACrBAMW9ANBJANxCQRgADsEA8BpBDPgQzAGawQD0nQDoTQDMTQCoNkEdMBDI9BUMAIrBAMBRANxNAOjqQMgAyQzsHsEA+EEA/E5BHAHCwQDwUQDUTQCwAkEhMBzNCEUMADrBALhRANBNAOxJAQRFAQiiQSAAdQ0IGsEBDD5AzABiwQEhvQEY5QEMPkEtOAbBAQgmQMDJEsEBDC5BDADBLAAYwAAywQEIXkEpPNLBAQzZAQBNAPRRAODuQSUcESgACLTcdsEA6OkA9EEA/FEBBF5AtABFDPE2wQEMRQEQQQEIWQD8RQDgUQCwJkEMABrBAKQOQSQAQQj8DMjwTsEAsEkAxJEA3EkA7JZAyAAKwQD0QQEAUQEITkEhBI0IAO7BAQ2BAQRJAPwOQNzcDSAACR0OBIrBAQBmQQT0esEA/TEBBHpBBABuwQD8IkEA5DjAxN7BAQEtAPxuQMAAONwAJRwAFRUkPPDMEsEBAHJBAAC6wQD9KQEAekDwAATs0DD4+CDItBLBAPxRAPU1APjKQRQAYsEA9AJBDQTmwQD4ikD4AO7BAPTGQOTYFPDoCOwADsEA+XUA9OkA+BpBDAB9CQiWwQD2BKEA8JJA5AAUyAAg3MxJDQAI8AAOwQD0SkEIAOrBAPDdAPTuQPC0ksEA7dZA8ACE+NoE4OS+BUDkAAjsxgUc3AAY2M4ErNgAmNzKBRDIugimwQDkmQDUGkCsoC7BAMBRAKhVAIQ9AGxJAFhRAEBNAAIE7QAsQQBcUQBwTQCETQCYTQCsTQDIUQDcSQDoSQD0TQD4VQD8RQEETQEQSQEcVQEoRQE4UQFITQFYSQFsVQGISQGoTQHIRQHkUQH6BKpA7AEA+ABpDABwyABorADqwQ04TQ1IVkDcAErBDWSZDXiVDY4FikE5SUE4AI7BDZwuQRUlOSkIYsEB2FEBmEUBRDZAyNAawQDsAkE5PE7BAKzdAMhCQRQABsEA+FUBHFUBOAZBKABGwQFUSQF0VQGMOkDY8ArBAahRAcQ+QMgACsEB4NkB8VpA5PSg2AG85ABFPUAY8PCVOAA5PAH08AAY7PwywQHgBkFFUErBAXRNAQQaQUQALT04DsEAoOZBRUAxPADRPTwVRAAk5PRE7ABCwQCsTQC8UQDETQDMTQDYTQDgRQDsYkDkAAztCMLBAPIEKkDc1BzsAA08ADU5NGbBAOSWQTgAXT1A3sEA3BZA3AA2wQDQBkDY5CU8AAFFRCLBALhJAK2JAJRJAHC6QOT6BPzxAAjkABbBDY4EQkDwAH0A0gQCwQBYUQAA1kEAABj49MbBDXzlAEBJAHw2QPgAFsEAmFUAqAUNaDZBRAASwQC8IkEhDAzYAB7BANBNAORNAPRRAPxJAQQFDVhNAQjZAPhGQSAADsEA4AJA2MAE5OQRKTA6wQDAmQDMTQDkSQD4VQEMRQEUnQEgEkDYAADkAD0VQJrBAShCQSgACsEBNE0BQE0BTEUBXE0BcFZBFAB83QASwQFIJkEdQDbBAQRJAKhRAIjdAKGOQS006RwByNwAGNEMMTE8GMD4BSwA7sEAjcpBPRwFMABGwQB9zQBkSQBAVkDAAEk8AAk5FBS07gTFIRxVOAGktAB2wQAATkEgAHzM/AUdBCS8yEjQAH7BAHxNAOhRARRNASwOQLwAOsEBNJkBQCZBRQQYzAAOwQFQTQFcckEcAfLBAUhJARAaQUQAENDcIsEAtApBPPhKwQBYAkCglTLBADxFAAECQS0oCTwA7KABENAA0TE8DSwCBGUwAJU9MgVJIRitPAA9IABRHPklHAA00Pw5IRYEkSAANNkQENACBPjI6AkhFEDYAHUgAgSZIRwUyAAo3NXc3ADlFPgRIAIElRQAVKzsFRzwwsEAcEkAoE0AyFEA6E0BAEkBDB5ArAAdHABhMPAGwQEVLQEdMQEQSQEITQD8LkEVBCLBAPBRAOA2QTAAEsEAwD5BFAASwQBwTQAAHkEM7SEMADzFBFUVAgS4zQQExACNFAIEeLzkERUU7MwADRQCBBS8AD0VGATQ7DrBAJhRAORNAPEtAPhRAPxJAQASQQj8QRQACNABJsEBBEkNSJkA+IkAyCJBCAAqwQAANkEM7Byg0TbBAOBRARxFATxJAVRKQQwACsEBaCZAoAAiwQF8VkEg9gQWwQFgSQFETQEcRQD0LkEgABkFAArBAJRNAACGQQQAiQDY0QAAoLToBQTuBQy0AA7BDTgGQLzUnsENJD5BBACqwQ0Q0QzoRQzIUQy0SkCsvCC8ADUE9JbBDKQ2QQQBSsEMkQZArABJBOgkwLE6wQA0SQCISQC8UQDYTQDgakD86ETAAEEEAgQg/ABZAOQUxNoEjMQANRUAIQACBRjI6DkM9AkUAgQ5DABkyAAFAPTmwQDY5QDQBQygRQDAUQCoSQB8PkEJGBjNCH0AAZbBAJAuQMwAmQgAAR0NlsEAdEkAAXJA0KwdFQA6wQCYKkEcACbBAOQSQMiIPsEBCIUBHD5AyAASwQEpekEJAI0UAUbBASBJARRJAQxJAQROQQgAEKEAGQ0YKsEA+E0A7E0A3E0A1GZA0ABEoACKwQDIRQC8OkEhBBrBALA6QQwCBMSpIB0dHEUgAcioAEUcAFENHILBAMChAMzNANiZAMhJAJxRAAAWQRUsNNkQcQwALsEAZEkA3E0BFE0BPFEBUEUBXJJA2AAFKTB9FAIEOsEBREEBEBpA3QwFITAlKAAKwQBkUQAAnQCQUQD0TQEoTQFIVQFchkEVOP0gADbBDJCdAWyZAVBRAQQCQRQATsEAAAZBHUQMrSTKwQCAVQEEeQFIVQGISQG0UQHEIkEcAGCsAA0pKHUg0DEoAEUgAgQ9PUi+wQGkCkDcAELBAWBCQTk0ATwACsEBBFEAiFUAQJJBOAAGwQAAJkDQ/AE9Te7BAFBRAJRNAMRNAOhFAPgaQN0EQsEBCEUBEAJA0ABGwQEgTQEwMkE8ABrBATxVAUiZAVRNAVw+QT1IHO0EJNwAEsEBdRZBPAIEOT1AQsEBQBJAwPAqwQEYAkDsAErBAPxRAPDdAPRRAPhNAPxiQRz4hsEA+S0A/SZBIQQFHAAI3OBGwQEAnQEEAkDcAcrBAQg2QSAACTEY8sEBBJ0BAJkA+EkA7FkA3B5BMAAewQDUCkEVIBzxAAU8AEjAAC7BAOxVAQSBARxJASU5ASxNATQOQT0wRsEBREUBUb0BSFkBKD0A9AJA5PglOTA2wQDcHkE8ADbBAORJAPhGQPAABsEBDEkBIFEBLUZBRUAJOAB2wQE1rkFEALbBASQyQOzsHsEBEAJBLSwY5AA6wQD8ekEUALbBAQRNAQidAQSiQRT4jsEBCWUBBE0A9E0A3FEAwDpBDQQw7AAg0PiiwQDQTQDcAkEUABksADLBAORNAPQOQQwAPsEBBFUBCJZBMQTqwQEMSQEUAQyhJQEMVQD8EkDQADrBAPQKQOzoLQkQXTAAnsEA+TUBBH5BFPVKwQywlQEISQEEUQD0UQDAGkC86G0w/BLBAABKQOwACsEAJEkAiIUAsE0AvS5BMAAtLRQuwQDcSQDpCkEUADUIANbBAMhJAHwSQLwAPsEAAAJA0PQZMQSZLAFqwQB0RQCcjkEc+ArBALBRANRJAOxNAPhJAQCZAQRVARRJAShRATxJAUgKQQz4RsEBUJEBYFUBdEkBiSkBmBJA0AAs7PxewQGsgkDsATrBAcRVAdSVAeS6QQEMJsEByFEBhE0BKE0A0D5BAAAE+PwOwQCtekD1IHT4AgRI9AB8+P0k+ACI9RDo9AA87Q4EisEMwMJA7ABw9PIFLQwAARTkORwAzTAB7sEAoA5BHPQRFAH6wQCESQBkRQAAPkEcAAkNGgQewQBYUQDMRQEIOkEVLBbBASBaQPQABQwCBArBARReQOUISQkgLsEBEB5BFAEWwQEMRQEEUQD4TQD0akDkACjs+CEIAAkNHCbBAPjdAPXeQTEECOwAEPT0IsEA8FpBDAIEYPQAFPkUMQ0ULTABksEA6TZBDAAFAQoFEQAAIQkWBL0VDDLBAOG9AMhRAFxJAACdADwKQSEkRsEAhE0AqFEAvE0A0EEA4FEA8AUM0EkBBEkBEApA+AB05PQawQEEUQD0SQDoQkDkAT7BANxNAMxVAMBiQNj0yNgBcRQBDMjgBQgAnMgBPsEAuFUAqEUAfFUAaJkArC5A3NAWwQDkVQEQTQEoTQE0lQFAnQFMJkEgAJEU9gT1HRhFFAESwQFEnQE4SQEwtkEpRD0cAN7BASYEakE1NFUoAB7BAS0WQOQ0UNwAzOQAAOSAPSD0jsEBII5A5AAKwQEUVQERckEgABEpMCzkzBbBAQ0tARBOQOQASsEBDFEBCApA7OwpKAAawQEEPkEdFULBAPxNAPQiQOwAJsEAzFUAgDpA3NQOwQBkykENAA0cAOTxKCDcAI7BAI3SQQwAGR0QZsEArEkAvgQVAMSKQSD8FRwALSj0asEAvS5BKADBIAAZMSidNAAGwQDMUQDkRQDx9kEwAA05QgTZKSBU5QBA8ACCwQD1sQDwBkEoAErBAOA+QT1AEsEA0A5A7OxCwQCwTQCULkDkAG7BALhRAMxRAORFAQAiQOwALsEBFE0BIAZBPAA0+QQWwQzgCkEpFAE4ASLBASk5ARBJAPBJAOgGQUVEDNkIQsEA8EkA+ApBKAAo+AAawQEESQENgkDYADzk/BkpJDFEAPrBARSRARydAQRNAMxNADwmQU1IDNz8COQAGsEALE0AdBJBKAA6wQDAhQDwTQEImQEMSQEQGkDcAG1MABrBARwqQSkkDOz4FsEBKgQRARxRARAaQSgAOsEA/CpBMSgEwPBo7ADqwQEAlQD8tkDAAEDQ7FEdBDbBAQV5AQCVAQQyQNAADRwAXSEYSLSUCKyUnTAAjsEBDJ0BFA5ArADFRTAEwOgwtAD6wQEdeQEUTQD4TQDcKkDI/AE9LATAABVEAA7BAKxNAGSdAKhRAMhBAORRAPxJAQx6QTwADTEo9sEBFFEBIS0BEEkA8EpBMAAKwQDcGkCZCAU5HAUgAHDIAAbBAORJAOxRAPxNAQjtARBJARx+QRUU/sEBFS0BDE0A/B5BFAAuwQDsXkCs8AkdBLU4AOysAakNACLBAORGQRwBzsEAyEkAcEUAAA5BDAB1MQgoxNTewQCMPkDEABLBANxJAQxNASxNAURNAVCWQTAAXQziBOUMAErBAUQGQJgASsEBPE0BMAJBCPgoyOAmwQEo7QEcSQEUhQEMSQEJRkDYyDrBAQQCQPj0LMgAIQgAUsEBAXUA/L5A0OgM2ABA+AAFDP4EyPjoAQwAHNzINsEA+JpA0AHQ+ABJFPQc2NAo3AIEbRQALOTMGNgAHPjeBSDIzCjkABEhCgQpIABs2OwkyAANFOoEQsEA6EUAZE0AABZA2AAE+AAU3OgZGQgFFAHOwQBAUQCcRQDAWQDUQQDcAkD45ObBAOwiQNwALsEA+EkBAJkBCJkA+CpA+AAmwQDUCkENBBTU7DrBAJBJAGTKQRgABsEAoFEA0E0A7EkA/EkBBLpBFRhk1AASwQEIJkEMAHbBARF9AQBNAMw2QRlAFsEAJC5AzQQiwQAAPkEUAGLBACxJAKRNANhRAOxJAPSZAPgCQRgAJQz4FMwAZsEA/EkBAEkBCE0BDTUBAE0A6EkA3BJBHTAVDAAMyPhqwQDkTQD4RQEIUQEQ4kDIAG0M7TUcABbBARmBAQRJAMxNAAA6QSEwDM0EJQwAMsEATE0A0EkBFFEBPEkBYFUBhC5BIAAWwQGYskENEKTMAfrBAXRFAShVAMQOQS1ANsEAmAZAwOBKwQC4TQDgTQD8AkEMAE7BAQiyQSwAHMAAqSkwVsEBEJUBHX0BEEkA9FUAxCpAtNwBJRQRKAASwQCM0QDAUQDoTQEERQEgTQEpFkEM7GbBATBRATw6QLQAssEBML5BDABuwQE8DkEkAEkI4BzI8G7BAURRAVAiQMgALsEBZE0BfEkBkPpBCAABISoFBSAAWR0YHsEBYAZA3OxKwQEYSQDAUQCwHkEVFCUcAArBAMRNANDqQRQAVQ0VRQwAZQUNeQQALMDcCQEYZsEM8gROQMAAFNwAJQAAGRUYOPDWBNjwABDs2CrBANgGQPjsEMjNGsEAzSpBFAAKwQDYhkEM/GLBANEtANlaQPgAasEA0GpA8PAU5NgI7AIEZQwAkQj6BeTkABTIABTwAB0M/CjcxHEIAgSs8L4FGPAADPjiBXDk2gWE5ABM7MoFrNi4DNwCCBzYAKTcyglAyKIUSKyuDUrBANoEoQDgnQDo6QDwRQD0nQD4SQD8kQEAmQEE4QEImQERcQEY5QEg5QEonQEwkQE8nQFMQQFUnQF0UQGERQGYVQGsTQG8kQHUnQHskQH+BXpA7ACxDABErABo+AHIyABuwQzgQkDcAY7BAeBJAYgFDMhJAShJAOxVANSRAM0pAMBRAJhNAITlAHBNAAAiQT08lTwA6T1IONzwGSkUFRz8WsEAUE0A4FEBDE0BKE0BQE0BXEUBdFEBiNZBHAAVKAAJORwRPAFOwQFkRkDcAAbBATgGQTE0TsEBED5BOAAOwQD4TQD0UQDsTQDQDkEwACEpQB7BAJRJAFyGQSgAYsEAJCZBIRQuwQAA9kEgAHUdLAT5KIj4AHEcAFkVQOUUAPUdRA0NNHkMAIEcAI0pMXUoADUVRA0JMG0IAFEUAOUhSNUgAQkNKB0dYF0cAgSJDACZDUwdCQiFCAApDADBAQ2c+SAdAAABHUhlHAC0+ACc8RltKUgM8AAk7SBZKADs7AB45RWBPUAU7TQQ5AAawQzYNkE8AHjsAQT5FVD4ABTlLNE0sJ00ACzkACjxGLDwANDtOD09QGjsAIU8AKFFFbzdPAlEAAFNGITcAJFMAD09LXE8AFztLDkpQGjsAJUoAKU1Ic0xRAk0ABDlDEjc9EzkADDcAFEwAD0pSOUoANzxSBUxSHjwAMkwAE7BADQuQUVNDUQAfOVIDsEAaA5BTVBs5ADlTAA9UUh+wQCInQCYWkFQAFz5JAU5QCbBAIg+QTgBlsEAcWpBKTRE+AAI8QAxKAB2wQBRKkDtHEbBAGwSQPAA0sEAXE0ASEZA5Swo7ACU5AAmwQBYpkExJDjdLBbBADTZACQeQTAAPsEATDJBKSBg3AAQ2RR1KAASwQAAkkEhNFDYABzRGKUgAMjQAATJHAUdMRDIABUcAGkpKATZKQDYAD0oAG0VLBDBPLUUAIjAAFUpMETZNSkoAAzYAJC9TA0NRJi8ADEMAOkpBXkoAEy1OBUJMKS0AA0IAQEpKO0oALi9LCENNIS8AJUMAIkpJWEoACytRDkhJHysAGLBAJxNAABiQSAAPR0YvRwAuLVIfRUEVQzoELQASRQACQwA9Qz4xQwAqL1IEQU0gLwAOQQA7Sk1QSgAeMFkCQFIeMAAFsEA1E0AAB5BAAC5KTVRKACQ+TgMvRCUvAA4+ADZKR0hKAChATwMwQiEwAB5AADZKTFxKAAwtTgdITx4tAEVIAAxHTENHABcvUBdFThMvACVFAClDUEhDAB1FUAowWh8wABiwQDMGkEUAC7BAABGQSE+BBjJZAUJSBkgAJrBANBJAPBNAORFANwaQQgADQExAsEA6HZBAACUyAAA+TgUwSQWwQDUSQDIVQDASQCwUQBoFkD4ABC9MCLBAAAmQQEcEMABKQAALLUwIQlQCLwA1LQAUQgAcQ1IHK01IQwAcRVAIKk0eKwA2RQAFR1EKKgAJKEs6KAAgJkoCSFYFsEAlCpBHAAawQABEkEgABSYACSpAA0VVPEUAHSoABC1FEUpSNS0ALEoADDJHDEVROUUANDIAAys7AUdPdUNGXkJGFEMAFisABUIANEBCQ0AANj5DKD4AOjxAaDtAATwAUDsAEDlDWEcAEDkAFzdGMTcAPTtGWzsAHDY+CUc/JUcAFTYAKTk4UjkAIkw+DDc6JjcAQU5FCkwAVE4AFjRJAU9JKDQAT0xKA08AckwABzc5BEdMHDcALUcAJExMF7BDMkKQNEMMTk8KTAAkNAAsTgAST09xO0MJS1IATwAaOwAvSwAxUT4IUzobUwA6L08AUQABT1IkLwBDTwAHTlJxNEACT1YJTgAfTwAnNAAeNk06NgAzN00QTFAdTABENwABNEddNAAcMT8GT00dTwAhMQAkNz5UNwAVL0gESk8aSgAbLwBBN0ZSNwAcLU8ASVAYSQAYLQBLN0hYNwARNkMQUUsZUQAssEMuEpA0SQI2AEE0ADk2TwRKTxk2AENKAA1MR3IyTgJOSgpMABYyAEtKTApOADlKACY2UQRFUCI2ACFFAC9ITW0yUgdHUQRIABYyADhHAAewQyoJkEVSMUUAOjdOBEdRGjcANkcAHExRVkwAE05UBDRLHTQALk4AHE9QPk8AOElSBDlGE0kAgUY5ABU3QQJFTiRFAEk2Sg83ADI2AD40QSIyJTI0AAYyAAAyIGMyABZFTggxRilFAAsxACQvPg9HRD9HACItTgIvAAZJTzItABRJAB40TgFKUVw0AARKABErVQVMUCwrAChMACBJUAM0TkFJABc0AA1KVAgqViAqADhKAAxMT0ZMADdFUQEoUCkoAChFABpJTElJACBKUA8qSCEqAASwQy4lkEoAF0xGTEwAIi1PAkVOHi0AH0UAKEpGVEoAODJOAEJRITIACEIAOkpHcCpUBEVRAkoAIioAEUUAOExKZ0wABbBAJQGQK1kGSlINsEAuFEAADJArAC1KABhMT2VMABItUQNHSyotACJHACBJSQiwQypNkEkAJC9MAkpNHC8APEoAFExJTEwAJitIA0dLISsADEcAPkpMBbBDJEOQSgAfKEwIQ1AEsEMfH5AoABZDADBKTQ+wQxklQxU6kEoAAStSCkdSFSsAJEcALEpRdy1UAUlUB0oAMi0AJUkAGEpSaEoACkxNAi9JJi8AQEwAA0lMW0kAGjE8AkNNIjEAC0MAPkdJazJCAUcADEVBEzIAJEUAH0NATUMAHy1JBEJJNi0ABkIAOkpMSEoAJTdGCkBKIjcAG0AAJ0lKbzY/CkkABEpNJ7BDGYEYQx1DkEoABDI2BklGAjYAX0kAA0dDOEcAKUVLFjYuCUUALzYAGUNGS0MANUJAGDk2BkIAGDkAOUA7OUAAFbBDIi6QPjtFsEAxAUMoEUBBEkBJE0BNEkBSFUBbEUBlE0BtBZAyAA+wQHERQyRSkD4ANE9SHk8APEdPBbBAaBNAVhRAJwWQSjsMsEAAE0MoH5A3QANPVSRKABOwQCMUQDYBQy0SQD0BQzQSQEICQzsQQEcWQE4RQFYVQGAAQz8SQGsQQHUBQ0UTQHwkkEcAAE5ICE8AGTcAQExPFE4AN7BAcRNAZw2QTAAFsEBeAZBKUhOwQFcQQFAUQEYUQD0NkEoABbBAOBCQSEopsEA0AUM/EUAnDJBIAAewQAAJkD5YHEdLObBDOxuQRwASRU0/RQAOPgAXQ0sRR08HQwA1RwA2SkxRSgARQkYXRUsFQgAWRQAJsEM/QZBIUC5IADxDQAFHUh1HAIElQwAkQkAIQ00qQgAGQwAxQD9iPkoEQAAQR0kURwATPgAxPEV/O0gGSlYBPABZOwAROUNbSgAHsEAJFEAPBZBPTwM7RgY5ABNPAAWwQAAUkDsAPj49Tz4ABjlDEU5KGk4AOjkAEzxBJzwARztIBk9JGDsAI08AKFE6ezdNBFEAClNCHDcAIlMAH08/UE8AIjtPBUpIHTsAHkoAM01FYUxKAU0ACDdKHDcAI0wAF0pRNUoARzxODUxDEU1CATwAFE0AHEwAGlFQWVEABlNQFTlJIDkAC1MAK1RSMbBAFgaQVAAQsEAcI0AACZBOVxI+VwywQ0MDkE4ABU8wL05RBE8AAE8eIk8Aa0o/Az4ABDxDCk4APUoAKTs/BjwAaDlGBTsAKTkASDdHBExPSbBDPyGQSk0DNwABTAACNkgxSgA1SE4BNgADNEU6SAANNAAYMkcTR0w5RwAEMgAoNkQASko2NgAOSgAhRU4FMEwnRQAYMAArSkwNNko1SgAPsEAkBJA2AA2wQEIMkC9YA0NRBLBARSZDRB2QQwAusEBHAJBKSAGwQ0AnQEwTQFISQF0HkC8ADLBAaQOQSgAQsEBlBpBCRgItUwuwQEwSQAAFkEIADy0AQEpHS0oAOUNKCC9EJC8AC0MALUpIcitSA0oADEhKHysAP0gACkdGL0cAOy1VAUVOIC0ACUUAQ0NJOEMAMy9ZAUFPGS8ACUEAQkpMZEoAGkBNAzBSCLBAKRZALzNANAOQQAAQsEA7FkA/ApBKSg2wQEAlQD0VQC8KkEoAB7BAABaQPk4CL00KMAAcLwAIPgA8SkpCSgArQE4PMD4UMi8NMAATQAAJMgAaSkdXSgAZSE8DLU8rLQA8SAANR0svRwAzL1QKRU4dLwAaRQA/Q009QwAsRVEMMFcgMAAJRQAzSE9VsENED5BIABIyWwdCUCEyAAGwQFYVQGsSQHATQGsAkEIAD0BQBLBAZyRAbSaQQAAmsEBmAkNKCpA+TgQwTQSwQFcTQD0TQAARkD4AJS9KBTAAAEBKVkAADkJTBy1RAS8AO0IAAS0AJENSEitQQkMAKUVSECpPASsANioABUUAG0dTEChNRSgAGUhSASZHDUcAWiYAA0VWAUgABSpMMkUAKCoADS1PA0pSOS0AEEoAJjJHAEVQN0UAIDIAErBDUQiQK04CR051Q0VmQkAPsENVGJBDAA1CAAkrADZAP0xAAC0+QDY+ADk8Pkw8ACQ7PwawQ1EpkDsAMDlCCEcAQDkAIDdENjcAQjtAXTsAEjY9PDYATDk0RzkAKUw6Djc7HzcASU5AAUwAZTRGBE4ACE8/ITQAXkxFAE8AS0wACTdGJTcADEcxB0gsIEcAAEgALExGaDQ+AbBDTAKQTkkKTAAhNAAuTgAMT054sENIBJA7RwlPAANLThU7AEBLACJTOgNRQEVTAA5PTwRRAAkvSCwvAD5OTwFPAGo0RwxOAAFPSyBPADI0AAk2Qzs2AC43QwtMVGg0RBM3AFo0ABFPTAcxRQFMABdPAB4xADM3Pko3AB4vQwNKTxpKABkvAD43Qlo3ABFJUAwtTAtJACUtADo3RlQ3ABM2RQdRSxlRAEw2AAI0SEA0AD1KTQI2Si42ACxKABhMR3VOTQMySxBMABYyAEdKRhNOADxKABo2SwRFUCI2ACZFACRISGIySRVHTBUyAC5IABtHAAhFUDZFACQ3TSA3AANHT1RHACNMSlg0SwhOTQlMABI0ADtOABNPTguwQAsUQCAKkE8ACLBAKSdAAA+QSVkBOVUhSjQXSQAuSUIdSgBNOQAbN0AARVAWSQAcRQA9NkMKNwBGNgApNEltNAAIMkV2MgAFMUQCRUw6MQADRQAdL0IQR0tILwAcLVAGRwABSVM5LQAISQAjSlYHNE9fNAABSgATK1gCTFIzKwAhTAAWNFMBSVBOSQAfNAAHSlAJKloSsEA9E0BEEUBCEkBBIJBMTwewQEIHkEoADrBARQBDTBFARziQTAAgsEBLBpBFTAQoUgQqAAWwQE4UQEkTQC8FkCgADLBAAAFDSAuQRQAgSU1ESQAnSlAIKlElKgAnSgAhTE1mLVIQRVABTAAQLQBHRQAGSkREsENECZBKAC5CUgkyTAuwQ0gckDIAB0IAGbBDQxKQSklyKlYBRVIGSgA6KgAEsENHCZBFACFMTBCwQ0NokEwACUpSAytaIrBAPBFAQkWQTE8MSgA1sEBDJUBBDZAtUAQrAAKwQBYBkEdOCUwACbBAABaQLQAkRwAfSUpKSQAbSlITL0kbMCEELwAsMAAPSgAJTFBbTAAdK1EGR04eKwAYRwBFSkMrsEM/JkNDCpBKAAwoTxBDUB4oABqwQz8KkEMAJkpQaitVDkoABUdVCSsABrBDQymQRwAksEM/CJBKTzGwQ0RHkC1YA0lXB0oADbBALgFDQBFAURJAUxRATAJDRBFAQwOQSQALSlMFsEA9E0BBFEBFAkM/D0BIJUNEB5BMUAEvTQMtAAiwQEEKkEoACLBAABuQLwAuSVAFTABgSQAoQ1AlMRoNMCUDQwApMQAIMAACsENAB5BHTEawQ0QhkEcAA0VMAzJLGzIACbBDQCVDRAWQRQAaQ0dTQwAaLU4GQkoZsEAuEkBEFEBCDZBCAASwQD4UQDwIkEpMHrBAPhJAQCOQSgADsEBBFEBCAJAtAAk3RQVAShiwQD8PkDcAArBALBNAAA+QQAAWSU9vsENKGJA2SAZKUwpJAFqwQ0+BCENTL5BKAAJJTAIyQA42AFtHSQpJAC9HAC02QQFFTCdFABM2AChDRUFDAC9CRwc5Qh1CAAGwQ08FkDkAPUBIYkAAJD5MLLBAKBJAORVARRJAThJAVBJAWCpAXyZAZUaQMgAtPgAisEBbE0BOE0A1BZBOWw+wQAAfkE4ANU5YDUVNB0pKAT5DZ7BAIxFAMxRAOxNAQhRASBJATxRAVQKQRQAPsEBbEpA8QQKwQGEBkEoABz4ACrBAZUuQO0gNPAA8sEBfEkBaFUBUCZA5TgA7AAiwQE4TQEkUQEUMkDkACLBAQhJAPRJANQyQN0oIsEAtE0ApOEAgEkANBJA3AAQ2SgFOAAhKUASwQABNkDYABUoAC0xOBDRJVDQADzJOCE5SH0wAITIAGk4AEU9SBjlGVTkAGTBNBFFRE08ALTAAGFEADk5SEzlORTkAIU4ABE9SCS9YMC8AgUgyPwSwQ1MGkE5HCk8AETIAPLBDTwKQTEwfTgBNTAACSlQEN0chNwAeSgAySEpLSAAUOUQIR1EoOQAsRwAURVJORQAcO0kJQ1AxOwA2QwAMR1BtRwACN0QESkwwNwBASgACTUtiTQANTEgLPDUPPjEZPAAKPgA6SkIJTABXSgADSEUJQD8pQAAaSAAZR0dRRwAhRU4EPEYqPAAZRQA1TlFUTgAWT1YEsEAJCpA7Sh47AENRVQdPAGw8TgNPUgJRAB08AEVPAAFOTVpOABFPTgM5QyQ5AChPABFMTTNMAAWwQBI4kEtSArBACw+QO0QDsEAABZBLAIFcOwAQOTwFR0kdRwBJNz0MOQBYNkYBNwBCNgBBND1ANAAkM0kAU1BjMwAFMUQLUVECUwApMQAhL0glT1AaUQAXLwAnTwAENkoLTk0EsENLMZA2ABROABMtTwVMUDktADE2SgFMAAtLTiCwQAkPkEsAAjYAJbBAAAiQKUIOK0QDTFYbTAABKwAHKQBJLUYOK0EZsENQCZArAD4qTRFOUAEtACwqADBLUwItPxJOACxLABgtAAgrUQSwQ1QIkExXH7BAMgaQTAAMsEAnBZArABCwQAAvkC1JWC0ADypID05TNyoAPS1HAUtUBE4AQ0sAFi0ADCtHA0xVNisARS9DZkdJAihDBC8AFUcAPygAFStEbysABC1IAUhQH0gAEi0AOy9AYy8AEEpNAitDOysAIUoABEdOFi9EIUcAOkhSAS8ADy1IEkgAIS0AOS9BZUpMBi8ABitFQCsADkdRFEwABUoAAS9EI7BADweQRwAMsEAAF5AvAANIVhMtUAxIADQtACwwSVsqUgEwAAJRWANIUhlIAANRAE4tTiIqADQtAB6wQBkDkEdVAS9QAE9SHrBALAFDWAaQRwAHTwAGsEAAgTyQMUoJLwACTlMJRU02RQAhM0wQMQAIsENRFENHE0NCEUNGAZAzACM0TgxDUQiwQ0AVQzcVQys1kDZGBzQAM7BDIhSQQwAFN0sZTFAFTgAENgA2sEMcE5A5UgY3AFM5AAewQxcVkEwAAztVDkJQIjsAS0IAC0VJLLBDGzaQRQAEL00JTE8cLwBQTAACS01FsEMfHZBJGgFJAAI0QgewQyQTkExMCUsAgUE0AAU2PBFIRy5IACo2AAI3OVo3AAw5RhxHRRY5AAlHADs7R287AAc9RAJFRCBFAEg/SAQ9AEQ/AClARwRMAARDTRawQyAFkEMAK0AAHz1HUT0AHrBDJACQPlAJTFUdTAAyPgATO019PU8IRVUCsEMgApA7ACWwQyQWkD0AKT5HH7BDICdDJAmQPgA4PUgCRQAOR0Q/PQAkSUoGRwAEO0RDSQATOwAIOUkJSkxYSgAGOQAFN0YGTEdfNwAENk0ITk0JTABINgAGTgAST08FNEtvNksAUUwDTwAXNAAxUQACNgAXTk0LPk4vsEMqNJBOAANPTgw0RgiwQyUDkD4AQ7BDKxyQTwAFTEsCPUgHNAA2sEMnA5BMAAg9ABmwQysNkD5OA05PT7BDJR+QT04ETgAXsEMqSkMkBZAyTQw+AABOUxRPABSwQykwkDIABDRLA0xWFLBDJAeQTgA0sEMpA5BMAB02RAVKVxU0ABCwQyU3kEoAArBDKQiQN0sGTFMHNgA7NwAOsEMlEpBOVANMAAU5Sx6wQyklkE4AHE9TAzkACLBDJRWQO01DTwAbUVMSPEgQOwBHU1UHPlQLPAAHUQAvPgAkVFYFUwABQExXQAARUVUBVAACQlBBsEMpA5BRAAlCABlTUgFDXCWwQyQCkEMAIVMAGLBDKRWQTktUTgAZT08CO1ItOwAYTwAoSkozSgBRTE8IPFInPAABTAA4R0kxRwBLSFABQE0hQAAPSAAvQ0c8QwA1PEkHRU4XPAAoRQArSE09SAAqOUsPQEwQOQAbQABKQ0kvQwAjsEAjE0A7A5A+VAtCSQawQD0CQy0VkD4ACbBAPBOQQgAmsEA9FEA8A5BFTBCwQDcBQykRQDITkEUAArBDLjZAKQqQPEkAPkcKsEAAEUMqIJA+AAWwQy8PkDwAGDtCCEBHOkAAGTsAAjlJFkJOErBDNA+QOQAgQgAIsEMvFJA3SQhDTjKwQzQOkEMAIzcABrBDMAKQNkYLRUtINgAERQARR0YBNEdGRwAONAASSEwDMkg3SAABMgBCOUQMSkY7SgAOOQAbMEcITEcfMAATTAASsEM0JpBOTAY5PzOwQy8HkDkABE4AG7BDNAyQL1UKT0dcsEALBZBPABFRSQ2wQAA+kFEAD7BAEgKQLwASsEAACJAtSQVKRiQtAAWwQzgakEoAI05BIbBDMy2QTgAOsEM4GJBPRQIvSiEvABGwQzQgkE8AHFFCD7BDODeQUQAjsEMzIJAyPwJKOxawQzgMkDIAC0oANrBDMwiQTzw/TwABsEM3M5BHRAc3QhWwQzMRkDcAA0cAI7BDNxyQTz5DsEMyJ0M2ApAvRwBPAAdKSSYvAA1KACCwQzIUkFFIKLBDNzuQUQAOsEAjAEMyDJBPTAewQEIAkDBRFLBAPhNANAFDNxJAEBNAABGQTwAFUU0isEATAUMyEkAbNEAAAUM3CJBRABkwAAMyTwNMRh8yABiwQzMVkEwAJLBDOAiQTkJLTgAdNEsLT0wdNABTTwACUUtNUQAoMEUCTEseMAAQTAA5T0lEsEAXAkM0BJBPAAywQAAOkC1IE0hNBbBDOBeQLQAfSAAoT0oDsEMzN0M4PZBPAA0wTAhMUBkwAAGwQzQdkEwAH7BDOBGQT05NsEAhJUAXBpAySwVOTwdPABSwQBInQBwQkE4AFbBDNAWQT05qsEAUA5BRTgJPAAUyAAQ0RwawQAAikDQAF7BDOB+QUQAETkxLTgAxSE0FNkYiNgALSAA7TEaBB0pKATdGAUwAMDcACEoAKUhFJDccGEgANjcAC0dJBDJKQkcALE9FV08AEjIAATxAEkVIIzwAEkUALE5HeDs8Dk4AAk9FgiA7AAI3OwdPAAFORHNMQQJOADZMACI7NQFKSiVKAAs7AEBIRDlIACY+PgxHPBg+AApHAEBFQDZFAExDQSWwQzw6QCoTQD0TQEcUQE4TQFMRQFcTQzgUQF0zQGEKkEMATjcAKE5YH04AH7BAXRNATwKQRVcRsEAnEUAAC5BKQQmwQzwPkD5HKE5ZKbBALgiQSgALsEBCEUBOEJBFAAOwQFsCQ0IRQGoUQHkRQH8TQz5ekD4AATxDFbBDOSNAeyOQO0oDsEBzFEBrAJA8ABGwQGIBQzQSQFcUQFETQE8MkDlNBDsAAbBDORZATRJASRRARgFDNAGQOQAxN08ZsEBBAEM5IEA8EkA3FEA1AUM0EkAyEJBOAAGwQCQAkEpWATZPATcAErBAAFaQNFEHTFIFNgAASgA0sEM5J5AyTwI0AANOVg6wQzQGkEwAMjIAFbBDOQSQTgAGT1cFOUk7sEM0KpA5AA6wQzsCkDBPAlFSD08AObBDNgyQMAATUQAETlAVsEM7ApA5TCSwQz8ykE9PAjkAAS9WAU4AAbBDOzeQLwADsENDXUM/J0NENENIFJAyRAZOSQZPAAiwQ0QQkDIARU4AB0xFTrBDQAqQTAAMN0oASlAPsENED5A3ACFKACpITEtIAB85UAJHUBywQBkTQEEBQ0ATQFMDkEcADbBAYwJDRBFAageQRVAzsEBlFEBgAUNABpBFAAywQE4SQAANkDtNAENJAzkABLBDRROQOwAcQwAnR05HRwAqSkoQN0cLsENBI5A3ACOwQ0UQkEoACE1JSbBDQR6QTQAGsENFCZBMRwI8TgiwQBwTQCIHkDwADLBAAEmQSkEBTABQSgAMSEUTQEchQAAVSAAjR0I7RwA2RUsFPEYjPAAZRQApTk5KTgAgT1QCO1AiOwAlTwAGsENKNZBRUSawQ0VCkDxQC7BDSgGQUQACT1ATPAA1sENFG5BPAAFOTVxOAAdPUAo5TQ+wQAsLkDkAB7BAHBRAKRJAMBNANAiQTwADTEkGsEA4FkA9DZBMAAKwQD8TQDoEkDkaELBAAACQOQANS1gEO1IBsENJC5BMPW1MAFg7ABo5PQZLABtILRFHIQ5IABtHAAY3PQk5AG82Swo3AEA2ADk0S1hTVwI0AAkzTw6wQBAUQABBkDMAAlFQAVMABjFKQjEAGS9CFk9MElEAJy8AFE8ABU5RCjZPIE4AMjYADkxKEC1QBrBDTQCQSjwcSgAJLQARTAATS1EMNk0asENJC5BLABM2AAewQ1ApkExWAStFFyk9BUwAGisABCkAQi1MArBDVm2QKkwJTlIDLQAgsENaCJAqAAFOACFMSRYtSAiwQ1UGkEtQDUwAFrBDWguQSwAGsEAdFkA8B5ArUwAtAABMVQqwQAAekEwABrBDVRaQKwARsENaKZAtRVItAA0qRgxOUC5OABEqABNMNwtNLQEtQQ9LUQlMAAdNAClLAA4tABErSgBMWQywQDYVQC8CQ1UPQAATQ1oAkCsAOS8/KLBDVkdDWgWQLwADR0sBKEsbRwAmsENWHZAoAA0rRVgrABQtTxJITRWwQCYGkEgACS0AA7BAAAJDWi2QL0MxsENWJkNaDJAvABYrSBFKQyqwQ1YGkEhMBCsAC0oAEbBDWhGQL0YISAAMR0kfRwAaSFECsENWB5AvAAUtRyBIAAywQ1sOkC0ALy9FH7BDVydDWxiQLwAPK0oQSkA0SE8HTAAHKwAYSgAVL0cNR08BSAAbRwAcLwARSFUILU8OSAADsEApFUAAAUNfHpAtAC8wR0SwQ2MSkCpPBDAACVFYDUhCE1EAA0gAC7BDXDaQLUwhKgA1LQAiT1cBR1cDL04WRwAATwBSsEAfJkAAEENhRpAxRwFOVghFSwYvAA2wQA0BQ10RQAkUQAAQkEUAHzNOIDEANDMAITRSDENSLbBDWBVDVB2QNk0NNABMN0oLNgAAQwAQTE0VTgBCOVMLNwA5sEALFEAQCJA5ABBMAAc7VwSwQBYOkEJSGDsAFLBAACOQQgAaRUZWRQATL1ABTE8fLwBLTAAHS0pLsENZMpA0SwVLAAVMTIFxNjgASEURNAAUSABCNz0LNgBfNwAGOUQER0MfRwAjOQAlO0MqsENVQ5A7AAU9RQNFQSNFAD8/SAo9AEs/ACVAThBDTAdMABdDADxAAAk9Umg9AAk+VRRMVCZMACU7VBY+ABCwQ1ojkDsAMzs4Az1ZF0VYBzsART0AGD5UIbBDViZDWwuQPgAkPVQCRQAKR0YjsENWNZA9AAGwQ1sMkElPCUcAATtNOLBDVQ6QSQAfSlADOwAFOUtjSgAEOQAGN0wPTE1jNk0ENwAITlEHTABNTgAGNgAMT1ICNEx3UVABNlQITwAGsENZEZA0ACE2ABewQ1UBkFEADU5RDT5MH7BDWkeQT1MMNFAMsENVB5A+AAFOADGwQ1sVkExSBz1TDzQACE8AKrBDVQOQTAAIPQAasENaCJBOUgc+VIEAT1IaTgBXMk8CTlIDsENVEZA+AApPAEtMVgc0TggyAAlOAAewQ0kUQ0IckEwAHkpZCDZFFzQAF7BDPRKQSgAkTFcCN00XNgAyNwAcTlgDOVIPTABATgAdT1UOO1QQOQA0TwAYUVQNPEseOwBFU1MOPlcIUQADPABNPgAZVFUEQFYJUwAMsENBOEM9A5BUAAlAAAdRURdCVyOwQ0IJkFEAIEIAClNOE0NbIkMALrBDTAeQUwACTk1VsEAQAUNIE0AyDZBPUAJOAAOwQDoBQ00CkDtZR7BDSAmQTwAMsEA9CJBKTAqwQEACQ0QSQEMTQEYBQ0kQkEoABLBAShFAUhFAXQ2QOwADPFgCsEBhBpBMUBCwQE8SQAAHkDwAEEwAM0dLMkcAPLBDTRaQQFEGSE0VQAAdSAAxQ0Y1QwAdsENJFJA8Vg5FTA88AAawQ00gkEUAM0hMDLBDSCdDTAqQSAAtOU8HQEwaOQAUQABEQ0grQwBBsENRCZBCTQE+VgmwQDcPQEUAkD4AFLBASwKQQgARsEBPLpBFTh2wQFEgkEUAQbBASQeQPkYWPE8DsEAwE0AADZA+ABY8ADBARwE7TTVAABCwQ1UNkDsAFkJMBTlPNTkACUIAJUNNDTdNL0MALzcADjZKAkVLOkUAAjYAKTRLCEdJF7BDWSKQNAAQRwAgMkkGSEomSAAcMgAxOUUBSkctSgAdOQAYsENdCZAwRgVMRiVMAAowAFpOSgY5PxNOAD85AExPRAQvOBGwQBkTQDoTQEQTQEclQEoJkFFBCbBATQCQTwAUsEBPE0BSFEBUFZBRABGwQE4SQDkAkC05AEpDDy8AA7BAABuQLQATSgAkTkEgsENiNJBOACBPRA8vPCYvABtPAChRQC9RAERKQQMyQjUyAAVKADpPPlFPAChHRAE3QSg3AA1HAENPNkhPACMvQAJKQiAvAAdKAExRPBGwQ15OkFEAEbBALwyQT0ACMEMFsEBBFEBHAkNYIUBKJ0BNB5BRQQuwQ1QDkE8AELBATwFDTjlARgGQUQARsEAqC5AwAAEyTABMQQawQAACQ0kTQ0QGkDIAPUwAHk4+T04AIk9KAjRMCLBDQBiQNAAPsEM4PJBPAAhRSFdRAB9MTQ4wPB5MAAYwAEJPRU5PACUtQARITw6wQzwdkC0AG0gAIU9JbTBHCUxQBE8AEDAAREwAHk9QZ7BDOAiQMkgLTlMHTwBaTgAOT1RxMgAHUVABNEgETwAjNABJTk8LUQBZTgATNkQBSE1KSAAlTEJnsEAcAUM8A5BKUAw3SAOwQCMMkDYABEwAF7BAExJAABCQSgALSEiBB0gAFrBACwKQMkgGR0sDNwAasEAAPJBHAB9PQRmwQA8SQAASQ0ESQ0UmkE8AAbBAIAeQPD0JsEA1AZBFQROwQD8TQEAUQD0SQDsCQ0sTQD0CkEUADjIAAbBAQQWQTkMPsEBEFEBGJUA+EkA3AUNRE0A1CJA8AAewQDcPkE9BCE4AAzs6DrBAMhNAHRRAABNDVhJAEhRAJRBALidAKidDWxRALIEDkDsABTc4A08AB046f0w5BE4AakwADjs0DbBDYAiQSjgbOwAnSgATsEAqFkNlBJBINwywQ2tTkEgAH7BDcQKQPjQNRzkDsEN1KJA+AAhHAESwQ3kbkEU5LrBAKDpDfoEBkEUAPUMtDrBAJCZAHxNAFxJAAIJUQA0VQBMSQBcQQBwUQCETQCYTQCsSQC8TQDIUQDQkQDgnQDsUQD0QQD4UQD8TQEETQEIRQEMnQEVKQEglQEslQE4mQFIVQFQQQFcmQF0nQGJwQGaBOpA3AC9DAIEksEBhJEBcFUBYEkBSE0BNE0BKEkBIJkBFE0BEI0BDEkBCFEBBE0A+E0A8EUA4FEA1gghANzhAOk5APCRAPSdAPklAPyZAQExAQSdAQiZARDhARjRASCdASjdATCZATiVAUSdAVDlAVl5AWoVWkEdDEiswGbBAWBRAVhJAUg6QRwAFsEBMBpBFPw6wQEUSQD4VQDoikEUAA7BANxFAMgyQRz8IsEAmE0ASEkANgRdAFxNAHCdAICRAJDlAKXJAK4FyQCglQCQlQB8NkDczCLBAFydAAGmQKwAssEAXEkAkEUAuFUA1EkA6FUA+EkBCFEBFE0BHEkBJEkBLE0BOFEBRC5BIQQSwQFUVQFoNkEcABbBAYBRAZxNAbhRAcxNAeCdAfIIWQHMTQGMGkDQ3DLBATRJAOAKQR0cRsEAsJkAwAZBIABSwQDUSQDoRQD4VQEAEkEcAEEVBNkUAAbBAPweQR0MLsEA+E0A9EkA8CJBFQQFHAAuwQDoTQDUVQC8RQCqBF0AvEUAygSGQRQARQztXsEAwNkAsFUAoC5AvMQWwQCEAkEMAAUpDDTQABLBACxRAAIE+QBcTQDESQD8SQEcUQE0TQFMSQFsSQGITQGgUQGwmQHInQ3oQQHY6QHoLkEoAQLBAfoEFQHoQkC8ABLBAcAaQSk8LsEBhD5AwNAGwQFQVQE4nQFIjQFcSQFsUQF8ykDcALEoABUxFUkwACUpGEbBAUhNARRJAORRALgGQSgAQsEAXBpA3MwBMSQ2wQACBDpA3AIEgsEAJXJA5NAOwQA0nQBKBApA5AIEpsEAAXEATDJA7OgSwQCgXQDgTQEIUQEoSQFERQFkVQGMRQGwIkDAAC7BAcwGQOwASsEB4JkB8DZBMAIIfsEB1AJA8LQQ5LRCwQGgFkENAD7BAWRJAShJAOxRALBNAKIMAkEMABEI4dbBAKyGQOQAFsEAuOkAwgVOQOTMOsEAuBJA2Lhg8AIMAsEAsEkAlA5BIShKwQBMRQAADkEIASrBAHRJANxNARBNAThRAVhFAXxNAZxRAbTlAcSyQSAB1NzQYNgACsEBpBJBIPw+wQFkEkDkAD7BARhFANgOQSAALR0EHsEArE0AnGJBHAAxIR0FIAA1HPW2wQCMmQBqBBEAhEkAoFEAwE0A2E0A5E0A7JUA8OEA9V5BFPS9HABtFAGewQDwTQDoTQDgNkEVCCbBANQiQMjEIsEAxFEAtE0ArXEAjgiOQNDhlNwAxNACCFTY1gQs2AIIuOTeBBzkAgXawQBkUQAA9kD4wNbBAGRNAKBJANhNAPgaQMgANsEBDEEBHFUBJEUBNFUBREkBXFUBeEkBlFEBrEUBwOkB1NEB5bpAyMwSwQG0UQGARQFcUkEUAJbBAXRJAYxNAaRNAbTqQMgBdsEBxgg1AaBBAXQ2QPgACMDQEsEBPE0BCAJBORxSwQDgTQDM5kE4AAkxJIrBAMDuQTAAQTlCEcbBALBFAJRRACxJAAC6QOTCBDrBAFhNAJBNALxNANxRAPCBAQRNARRNASBRASxNAThNAUg6QMAAFsEBWFUBcEEBjE0BrE0BxFUB2AZBPTAhOABqwQHpNQH+CO5AwNwSwQHAUQFUWQDUEkE5ICrBAAChAGQiQTwAIsEAuFkA5CJBOAAqwQD4OkExHM05FAUwACLBAPztAOwGQTEcTTgAMsEA1E0AvgQVAMRJANExANydAOjhAPBRAPU+QSkUHTABTsEA4E0AwE0AbFEAADJBPSQZKAAgvNAMwADE5AFmwQB0UQDQTQD4UQEQSQEcUQEoRQEwUQE9aQEoSQEclQEsPkDIzA7BAUA2QLwAHsEBXE0BhEEBsFEB4EkB/JpBPADsyAIF1sEB6CpBISQWwQGkAkDQzADczFrBAVxRARxGQSAABsEA+EUA8B5BHSE5HAB9IQ4JzsEA5JkA2JUAyFUAtEUAngWiQMCk6NACCeko7LkgAgSZMQR1KAIEzMAAgRTsETAAEsEAgBpAyLBGwQBcPQACBCEAJEEAmFEA2EkBAFUBGEEBKEkBNFEBQE0BTFEBXJ0BfEkBkFEBoJUBtgnVAYxRAVwqQNi4ASjkIsEBHEJA3AASwQDQJkEUACLBAHzlAJhRAMBFAOhJAQBRARAuQSgAHsEBHFEBKFEBMEkBQFUBTEEBYFEBcEkBgJkBlM5A0MTI2AIEaSEVQsEBgKEBZE0BSEUBJFEBBE0A8FEA5C5BIAAFHOgE0AAo2KAywQDcUQDUSQDIUQC4TQCkSQCQoQCCBFkAcggZAIBVAKhJANBRAPQCQSDwQsEBEFEBIFUBMBpBHAAywQFAgQFQUQFkFkEgADrBAXhNAYxJAaCdAbCVAaBRAXxJAURRARAqQNy0IsEA9BZBIPQ6wQDwekDYAgTtIABlHOAQyACtHABRIOEtIAAlHNAOwQDgSQDYoQDQ3QDJxQDBtQC4nQCsTQCknQCMmQBwikDIrAbBAFhRACRVAAIEAQBsVQCwCkDIAELBANxRAPRJAPyVAPhRAPRJAPIEckEUzGEcAC7BAOoN4QDglQDYoQDMHkEMlBishCEUAD7BAMBVALBJAJxNAInBALhRAOBRAQRJARxRATRRAVRBAXxJAahRAdRNAfSuQKwAcQwBZNwCCf7BAdhNAchFAbhRAaRJAZBRAXxJAWRVAUxJATBRARBBAPhRAPCdAORBANRVALAiQU0kKsEAfDZA3LQSwQA0VQACBBEAXFEAiEUAqE0AwFEA0E0A3JkA6E0A8FEA9IUA/EkBBE0BCFEBEGJA7Mw+wQEYTQEgmQEwRQE4BkDsAEbBAURVAVBFAWCVAXyZAZSdAaoEWQF8QkEA4BLBAURNAQxJAOyZAPhFAQRRARRNASRRATBJATyVAUhRAVSZAXBFAYRRAZhJAaidAbzhAcwCQT0wwUwAYsEB4DJBPAIEvT0MrTwAUTkchsEBtCZBOAAtPQgGwQFYSQDgOkD46BLBAAA2QTkgDQAAETwAlsEAaE0AuEUA4FEA9EkA/FEBBE0BDEUBFFEBIEkBLFEBPE0BSFEBWEkBaFEBfEUBjFEBoEkBtJ0ByTJBOAIEWTEaBFLBAbRRAZQyQPgACsEBWFUBDBpA3AAVRSAE9NwewQCoUQAAHkEwAVrBADxVAFxJAHBNAIRFAJhRAKhNAMBRANBNANiVAOVyQNy8CsEA7FEA9EEA/FkBBEEBDFUBGEEBKFUBOCZA3AAiwQFEWQFOBAEBREkBPJkBLE0BIEUBFFUBEFJBKQw02LxewQEMUQEIKkFEACLBAQRJAPyqQPQA2sEA+gXNAPQSQOTNSOQAJsEA6JkA4OkA2JEA0JUAwFEAuE0ArE0AndpA+NAywQC4RQDUSQD0UQEITQEcTQEwTQFIUQFoTQGMRQG4TQHcAkD4AE7BAfYFVkExFL0oAgQlORyFMAHWwQHQTQGgTQFoUQE0SQEEUQDYJkEdBCTcrAbBAMheQTgABNgCBDbBANSVAN4EpQDlOkDYogQc2AIIZNDCBKzQAGUo6TUcAgQFJQQgyNQlKAAiwQDuBF5AyAA5HSA5JAIE1TEoKMTQ2RwBQMQAqT00QTACBB7BAOBJAMxFAIRRAAAiQLzUCTkgBTwBUsEAcCZAvAA2wQDQPQEIUQEoSQFIUQFkHkExKCrBAYBRAZxJAaweQTgAgsEBwOUB2JUB8AJBMAB1KSgewQHgBkC04FbBAZxBATAmQNwALsEAfCpBKAAiwQAAHkElDOEkAAko8M0oAEUk6gRiwQAk5kDQ5bLBADS+QNABnsEATX0AXSpA5NBewQBx0kDkAILBAIIFtkEc+CTcwKEkAYjcAgiWwQBYCkEcACEU2CLBAAAOQNisMLQCBUrBAFBJAHBJAJBNALBRANBJAOhRAQBNARBRARxFAShNAThRAUhRAWQGQMi8QsEBhE0BqEkByFUB4EUB8CZBFABE2AAwyAIFSRUApRQAONDkJQ0EHsEBqE0BVDpBDAASwQEQIkEVFCrBAOydAPAaQQ0MDRQAbsEA9YZBCTAhDAIEIQgAOQ0wFMj+BATIAQLBAPIEFQDkiQDYSQDIVQC8RQCwYkExHDbBAKASQMTgwNAABQwAEsEAkO0AfgiSQNDd3NABisEAaEkAUE0AAgSpAFwyQOTkVsEAuFEA8E0BEE0BKBpAxAAuwQFAUQFcSQF4TQGYVQG0SQHImQHaBA0ByE0BuFEBoE0BiCJAvOQqwQFsHkEpHDbBAVBNATA+QTAACsEBGFEBDGZAvAA6wQEI2QEEikElMBLBAPw6QSgAssEA+JUA8OUA6JEA4IJBPUAMtPQOwQDYVkEkAJ7BAMxJAMSFALhJALCdAKSRAJBRAHBNACRNAAIEYQA0RQDIHkDJADbBAQgmQOQAIsEBMFEBWE0BgFEBqEUBxBpAyAA+wQHZokE5PAU8ANU4AK0xHBrBAZhRAVhJARRJAOBJAMSCQUVAJLQAAMToATACBN7BALzlAKQ9AGhVAAF5AHxNANBNAQQWQKzcOsEBKFEBRE0BYE0BfEkBlAZArABGwQGlckE5JRVEAaLBAYxNAXRVAUxFARxVAOwCQMjcATEEIKjILsEA0B5AxAAmwQDICkE4AOLBAMIJakDIABDQ3Bko9AkwAXzQAgRKwQC4lQCw6QCpyQC8BkDYrErBAMhFANhVAORNAPQKQKgAPsEBAE0BCEkBDJkBGJkBJE0BLJEBOJ0BRXUBNEUBGE0BDFEBFAJArKwFHPRGwQEoTQFEEkEoADbBAWxNAaBRAdRNAfwGQKwA6NgAIRwCCGDQ6DLBAbwOQLTEQsEBbBJBKSA+wQEkUQD4TQD2BOZBKAA5JNjZJAB1KPUQ2OgSwQDwYkDQABUlFAkoAJTYAP7BAOnJAOExANl1AMzlAMQ6QNy0+sEAvcEAtgQZAKzhAKBRAJBNAFyBAACWQSkQmsEAeE0A2CpAtAABJAAqwQEQUQE4RQFgSQGQMkEoACLBAcBNAeIJBQG0TQGAAkEo6BzIuC7BAUxRARxNAPRFAOIMkkDYvFzcAgSo0NAk2AG0yAGw0AA42L4NOsEA2FEAxE0AdA5AyMQ6wQAByQCwPkDIABLBAPxNAShNAVBRAXRJAZxFAbhNAc0qQNgCBUrBAbiZAZRJAXhNAVhNATQuQJikIsEBFFEBAE0A9JkA4EkAzE0ApEkAaE0APJkAJE0AAgTlACRFAHBVAKhJANxVAPhFARBRARxRASxBATxRAUxJAWhVAYhJAaxJAdRJAfg+QJgAWSgCCMbBAeSVAcyVAbCZAZiVAYDdAXCZAVxJAUxNATxJAShNARxNARRJARCZAQyhAQhFAQRNAQBRAPzmQKy8lsEA+EZBHQSewQD00kEcAA7BAOgmQRUNMRQALsEA4DZBHRHiwQDaBKUA0J0AxNUAvgQJALYJCQCsgkDcrGrBAJBBAHxNAFxVAEyJACRRAAG2QKwCBMLBAEiJAHQmQSEYJsEAkFEAqFEAxEUA3BZBHAA6wQDwTQD8TQEERQEImQEOBUUBBE0A9EkA6FEA3ApA0Mw5HRgKwQDVOkEgAgQJHAA5FPzRFAAuwQDMCkEc/ELBALRJAIBNAAAiQRUACRwCBMLBAEBJAJxNANhJAPhVARBFARxJATBRAUBJAVhRAWxJAYAmQRQAMsEBlBZBDRg2wQGoTQG4lQHUmkEMAE7BAeUxAbg+QLzMEsEBkE0BZEZBDOgGwQE8VQEcCkDQADrBAQRNAP15APQ6QSkEEQwAUsEA8J0A5FUA1EUAwE0AqEkAgE0AAXUAwJEBDFEBQEkBdE0BqEUB0FEB4epBKAHqwQHMUQGoSQFkEkC8AD7BARwyQSkcFsEA5BZAwMhGwQDY4QDiBIJBKAA83AA1MRU9MAA1KSSmwQ3YlQ3IAkEoAAjc5DUxMPbBDbFtDaAuQNwAasENkJkNgOENaE0NTE0NJFEM/E0M1E0MsE0MlEkMhEZA5OhWwQxslQxMnQw9YkDkAgR2wQDYTQDMTQC4SQCsnQC4GkDs5C7BANQFDCxJAPBRAQhNARxFASxNATxRAVRJAXCNAYwaQOwAOsEBrFEByEJAwAAGwQHkRQH1jkEwAgQKwQHcSQG8HkDwxAjkwCEM9ArBAYxJAVxRASRJAPRNAOIJpQDoOkEI7BEMADrBAPChAPQ9APg2QOQAbsEBASkBBJEBCgWNAQQaQOSwINiwGsEA+EUA7B5A8AAuwQDkmQDeBdUA0E0AyEkAoFEAQE0AAFpBIQTWwQCEUQDURQEEAkEIAFbBAShJAURJAWRRAYhJAaBRAbUlAcQ+QSACBBrBAbRNAYA+QSD8CNy4BsEBNApA5AAo2AAiwQD0UQDcSQDkUQDsRQD17kEgAC0c/QEcAGkg1Q0gAC0c3gWSwQD4DkEVAH0cAArBAQSdAQjWQRQBrMjALRTofsEA/E0A8FUA5gnGQNDOBMbBAO0tAPF9AOiCQNwAENAAoNjmBATYAgko5MYEHOQCBVrBAOIE1kD4sFrBAOxVAPhJAQRNARBFARhNASAOQMgARsEBKE0BNE0BRFEBWEkBbE0BhEUBmFEBrE0BvE0BzJUB5OUB9B5BFAHgyLIEHMgCDHbBAdhVAbgeQMDAHTkgEsEBkEUBcE0BWFEBPEkBIAJA+AAlOAAmwQEQAkExGW0wAC05KDLBAQ4QgQEInQEETQD8SQDwTQDcUQDNDkDkvGrBANxNAOxFAPhRAQRRARCVARxRAShNATBBAUBZAVQKQMAAPsEBaFEBhE0BmEUBrJ0BwTUB0FJBPRRlOAIFDUUcdTwCBM7BAbhCQMDQBsEBgDpBPRAawQEsHkFEADbBAMRNAHiZAJRJALhRANxBAPBRAPxZAQgGQTkwQsEBEE0BGCJBPAAuwQEgUQEoQQE0UQFASQFMWQFciQF0BkExNJbBAY0uQTgBDSlAXTABUSgCBSbBAWgiQSkYBLzAJsEBQE0BEEpAwAAKwQDwTQDlbkEoABE9EXDkAOrBANxRAMxRAJBFAAC6QMjEdsEASEkAxE0BBFEBMEkBWFEBhCJAvAAywQGoLkDIAB7BAcSRAdoFSQG8QQGUUQFgEkEg+DTQtADcuArBATQOQTwARsEBDEkA8PJBIABBHPkxHADNIOIQlsEA6gSmQMCwlNACDPEo1JUgAgSxMORRKAIEsMAAVsEA3EJBMAAGwQDMPkEU3A7BALAOQMicSsEAkgQBALRVANhFAPhRARBNARxJAShNATRJAURRAVhFAWxRAYBFAZRVAajhAboMyQGgVQGQQkEo5AbBAWw+QNigFsEBOD5A3AAOwQEETQDcMkEUAG7BAOhFAPyJARRJASRVATRJATxNAURRAVBRAVgyQSgAXsEBbgRaQNgA2NCqBFEg8gS+wQFcSQFMRQE4LkEgABUcyATYwArBARhVAPQuQNAAGsEAxFUAgEkAAgTlAFxJAKBVANhJAPhRAQxJARhNASCZATBNAUBJAVBJAWRRAXSZAYyVDD0tDFCdDGQqQSDsasEMgJ0MnC5BHABhIAAGwQy0pQzQRQzgUQF4BQzwSQFITQD0CQ0MRQAAHkDcwBEg7GLBDRxmQNgAhsEAXFEAnE0AwE0A1EUA3FJAyAFFIAAiwQDkWkEc2N0cAGUg5H7BANiqQSAAQsEAzE5BHLRGwQDFgQC+BA0NDgQVDP0xDOgGQMieBHzIAgiNFLiRHAIQisEAtB5BDKQgrHw1FAAywQCsRQCgTQCQUQCAkQBxZQCcVQDISQDsUQEITQEgTQE0TQFMLkEMACbBAXBFAZRGQKwABsEBuFEB1FEB5JEB+gRGQNwAFsEM+gWVDQjhAeCRAciZAbhRDRidAaTdAZCdAXyBAWhNAVRRATxJASBRAQhJAPhVAPRJAOhRANgyQU0YEsEAsEJA3KAWwQBkTQACBA0AaFEAnE0AwEUA3E0A7E0A+E0BBEkBCJkBEJUBGJkBIJ0BKBJA7KjSwQE1MQFAXkDsAELBAUktAVIE5QFITQEsLkEApB7BAQhZAPCNAPhNAQRRAQxBARSdAR11ASUxAS3CQUTwcUwCBI09EOLBATQKQUQCBIU8AAbBASwCQPjoBTkUUsEBHE0BAD5BAAAOwQDkUQDcnQDoTQD4QQEEVQEQakE9IBk4ABrBAR0tASSdATCVATiVAUBCQTEwKTwAdsEBSOkBUOEBWgWJAUhNARw+QUUYDPgABsEAuBJBMABCwQAABkDcACT00MLBAFiFAMRBAPhVARRJARyZASilATRJATxBAURVAUxRAVkpAWhOQUQAiNzOBe088cU5BBU8ADLBAUxJATBNAQxFAPRNAOgCQTgAHNi4ATEEINwCDMT0AEEo7BzknEEwANTkAgS+wQDiBPUA6E0A9AZA+KxKwQEERQEUUQEkSQE0UQFQUQF0SQGkSQHUUQH81kD4AgUxKACNMQ4FKTkMUTAAxsEB2EkBvEkBmE0BZFEBKE0A6E0AqEkAoHJBHQQY2AAA3MAVOAFywQC4UQDMTQDgUQD0RQEAVQEKBepA2OoEtNgCBcTQzCrBAQYEvkDQACEpBWkcAgQUyOAJJRgJKAIE0MgANR0sOSQApsEBAX0A/PpBMSw0xMBhHAHIxACpPSQ5MAA6wQD5MQDwRQDkTQDESQB0UQAAWkE5HAk8ABy8yLLBAFxRALhNAPSFARxRATBJAUQKQLwASsEBVE5BMSRKwQFomkE4AcbBAXjmQTAAFLTYKSkYWsEBUEkBHFEA6BZA3AA6wQDUSkEoAFUlCP0kADUpATEoACEk+gRA0O4EENACCRjkxYjkAgktHOxE3LRpJAFo3AIJhNioDRTQBRwAsLQAVsEAzX0AxTEA0E0A3EkA5EkA9FEBCE0BHEkBKE0BPFEBUEkBbE0BkE0BuFEB4C5AyMAiwQH9vkEUAHjIAFDYAgRlFPSRFACmwQHYEkEM4DrBAYhVATAmQQwACRUkDNC8FsEA+EkA5FpBFABFDQ4EOQwAOQkuBKUIAFENLDTI3bTIAKbBAO4ItkExKCjE7GbBAOSKQNAABQwA8sEA3OEA1gXGQNDtwNACBQbBAMhVALRJAHxNACVpAJw2QOTYFsEA5FUBECJAxAAqwQEwRQFMUQFwVQGURQG0UQHMnQHiBOkBzJ0BrEJAvNQOwQGYNkEpJBLBAYBVAXBaQTAAQsEBVEkBSE0BQEkBOE0BMN5BJSgKwQEoFkEoANbBARyWQLwAmsEBFEUBDE0BBFUA/GEA8C5BPTAewQDgDkC07DEkABbBAMBNAJBNAGyFAFxNAExRACxJAAIIJQC8NkDJFA7BAQAyQOQAHsEBKFEBSE0BZFEBfEkBjJUBqBpAyACCwQG8qkE5KDE8AIk4ANExNIbBAahJAYBFAUhNARRJAOxKQTAACsEA2ApAxNActAAJRTYEtsEA0J0AyE0AuEUAnE0AdFEAJE0AAOkAXEkArE0A7CZArOAmwQEQUQEoSQFAUQFYQQFwDkCsAEbBAYhJAZhRAaydAcCGQTkZhUQBysEBjFUBUDpBMQgSwQEUDkCorADIzDrBAOw2QMQAFTgADsEA4gw6QMgALNDIHSjoDTABYNACBKLBANoEDQDgTQDoUQD0HkDYzDbBAQhJARRNASBNASxNATxFAUwKQKgASsEBZFEBgEEBnFEBtEkBxOkB2gSVAahNAXAeQRz8CKzQLsEBNC5BKAAawQEYTQEkTQE8VQFkFkCsAC7BAZBSQNgADsEBwEEB5BJBHABCwQH6CD5AtNwywQHAMkDQ1BLBAXwKQSkUUsEBPEkBEE0BCOkBDaZBJPwJKAFBJABNKQBOwQEI0QEEZkEoACTY4AUlBF7BAPw2QNAAGsEA+EkA9BZA2AA+wQDxxQDk4QDYSQDQTQDI5QDAUQC4UQCojQCU5QB8AkDcqJrBAGyVAF3FAE4EGQA8mQACBBJBKQDSwQCYBkEkAE7BAOhNARQuQLQAFsEBNFEBTBZBKAA6wQFoUQGITQGoSQG8nQHWCGkBsBpBKOgMyLAmwQGATQFMSQEcTQD4TQDyDHJA2LA03AIEuNDkNNgAoMgCBMjYwEDQAg2WwQDkTQDUMkDIvB7BAKxNAGRJAAExAGxNAMQyQMgAHsEA/FkBID0BOFEBUFEBbEkBhEEBlgTaQNgCBMrBAYBRAXBFAVQmQJiIJsEBNFEBGFUBAEEA8FEA5E0A2E0AxE0ApI0AdE0ASE0ANFEAJEUAAcUAaE0AmE0AwE0A5E0A/FEBDEEBGFEBIEkBLFUBOEEBTFEBaE0BiE0BqE0BxBZBKAAImAA2wQHgSQH2CdkB4JkBxNkBqE0BmE0BiFEBdEUBZEkBUFEBPEkBJE0BFEkBCO0BBEUA9FkA5EUA2gjKQMjEJTj9UTgAQTEJZTAAVTkKFObBDQjpANA+QPjGBCLBANhJAOABDPhRAOhNAPBNAPxNAQhBARBVARxJASQmQMgALsEBMIkBPFEBREkBTFUBWJEBbIJBPSAWwQGEikE4AA7BAZSdDOiZAaYEVQzaBB0BiEUBYD5BRQgOwQEoIkDwsDbBAOQuQTwAHsEAkEUAfOkAtFEA4EkBBFkBFEEBIAZBRABKwQEwTQE8SQFMUQFkSQF8TQGMmQGiCUpBOP4EUsEBjFUBeEUBUBJBKRQ88AAOwQEcDkDswBE4AC7BAMAWQPgAOsEAAbkAaFkAqEUA1E0A8E0A/E0BBFEBCJEBDJ0BEUpA+OQywQEZIQEglQEolQE0mQE85QFGBLEBNBJA7AA2wQEYAkE9IATw4EbBAOAOQSgARsEASB5A+AAuwQAA7QBsSQCkSQDMSQDkVQDsSQD0SQD4nQD8SQEEmQEJwkDs5GTwAgluwQD8TQD0TQDsKkDk9L7BAPBRAPRJAPiZAQDhAQRiQOwAPsEBCb0BBEUA9FUA6MJA3OQVRSwlPAA+wQD0OkDkABbBAPxNAQCVAQSVAQjmQU04SsEBDCpBRAIEcsEBBE0A/EkA9FUA6EUA3CZBMRAywQDQDkFMACDw1B7BAMQuQNwCCbbBANhNAPA+QMDAEsEBCFEBGFEBJEkBNFEBQE0BSFEBUFpAwAIF/sEBQE0BJEkBCEZAyLwKwQD6BBUA/JkBAS0BBYEA+SUBACpBKQgE7LgmwQEICkDwAE7BARQWQTAALsEBJEkBMFEBPEkBSBpAyAA+wQFUSQFgmQF8kQGaBUZA7ABGwQF4IkEg/BzkwArBAVgeQSgAOsEBOEUBJEkBGJUBEJkBDTUBCJUBBcEBAKUA/EkA9EkA6BZA4LA+wQDcGkDkAC7BANTpANxNAPBJAQRJARRRAShNAUBBAVgSQRz4QsEBdEEBjFUBpDpBIAAOwQG44kEcAA7BAcm1AaQ6QSkECOToCsEBdA5A4ABGwQE8UQEQQQEE7QEJgkEoAHEg8OEgAH0o9PEoACbBAQRKQNDQGSDVlNAAbsEBAE0A/J0A+S0A9EUA8gQqQLS+BbS0AgVRHNQhIAAYvKXgvAII+MCMQRTETsEA6BZBHAIEMsEA8FUA9CJAwADCwQD6BK0A8JkA5OJA0KBOwQDwRQEEUQEYTQEwTQFAHkDQACUUAA7BAVhRAXBNAZBVAaxFAcxJAeBeQOQCCJ7BAcxRAbhNAZiJAXhJAUwaQOSsIVEQDsEBHF0A9EkA5JkA2gnaQPCeBAzwAF7BAODlDMoEFQy0lQD0SQEIUQEYSQEkGkEIrG7BATBRAURJAWBVAXxJAZxRAbgWQOQAOsEBygXqQOTcdU0ECVACBM1FGBlMAY7BAaxNAZRNAWhVATA+QOQACsEA6FEAhCZBRAAZTQwKwQBkLkDcwAUIALbBAJhRANBFAPhNARQSQUwAPsEBKFEBPIUBVEkBbFEBhE0BmgVmQOyWBBDcAJkxFakwAbrBAXRdAUwiQTEUDNioIsEBJEUBEE0BDMZA7AFpMAA5LPYFZOS48OQCBdbBAQRBAPxRAPRVAORFANBNAKxRAJiWQPC0SsEAyFEA7E0BCE0BGE0BKFEBNDpA2AAWwQFESQFQSQFcmQFwlQGCBOkBWE0BNB5A0LgdMQQFLAAOwQEkVQEsQQE4UQFISQFcwkDQAHEwAME47gUSwQFMWQE4RQEYUQD4OkE4ABLBAOBVAMQ+QRzIBsEAnAZA2HAk8AAIzKwewQBQUQACBPEAkEkA4FUBDEUBKFEBQIkBVEkBbE0BgDJA2AAMzAAOwQGQnQGqBK5BHABKwQGQUQF4SQFkVkFFFgSewQFcTQFMUQEcSQCwKkFEAAjQ3CLBAAAOQTzxbsEAPC5BPAAOwQDAVQD4UQEYSQEsVQE8SQFMVQFcRQFslQGImQGZbQFwTQFYWkC0yATY0NrBAXCeQLQAWNAAPsEBgL5BOQ4ELsEBkS0BSFEA4BpAvMQ2wQAAIkExGDk4AN7BAGRNALhFANxNAPBRAPg2QNgAEsEBBJUBCHZBMAApLP0VLAApMOxGwQD8RQD0UQDsTQDkSQDYAkEwAFUtCDLBAMQ2QNzcGsEAuE0ArFUApJJA3ACiwQCQmQB+CH5A5KYIWsEAZJUAJE0AAZJBMPg6wQBYLkEsACLBALiBAPRRARhJATAGQTAAUsEBSEkBaFEBiB5AvAAuwQGgUQG4lQHKBdEBnCZBMPQU0KQSwQFkWQEgQQDwTQDiDDZA5ABE3LYFBNwAPNitBNACBMjYADDcqg2CwQDUSQC8KkDQqCLBAJ0hDMRNALBNANxRAQBNARhNASgSQNAAOsEBNFEM2b0BLOkBJS0BHOEBFFEBEJkBDJkBBEkBAFEA+EUA9E0A8BpA3AAgoHAOwQDkVQDYUQDEQQCkVQB8SQBcmQBNyQBcSQCIhQCwUQDcTQD8TQEUTQEoUQE8TQFYTQF4QQGYVQGwdkEwACbBAciRAdh+QKAAFsEB7ggxAdTlAcDdAaidAZCRAXyhAWhFAVxRAVBNAUBRATBFASBJARlpARChAQyZAQQeQNCoONyQDRz0OsEA/JUA+B5BHAB6wQD0FkEU8ILBAPBSQRQAiRzSCILBAOhJAOCVANCZAMRRALhFAKhNAJRNAICdAGxNAFxNAEBVACUlAAIEhkDIsNjQAgxVIOwhHAC+wQBsTQC0TQDsUQEQRQEkTQEwSQE4VQFAmQFIpQFRHQFZtQFEVQEgIkDAqBEc6B7BAPgOQMgAQsEA6DJBIABewQD0VQEESQEIMkEcAFkU0OkclF7BAPxJAOhNAMAWQRwAOsEAZJUAAb0AJJkATFEAhEkAwFEA8E0BEE0BIEkBLFkBPD0BUFEBZEkBfFUBkCJBDPQuwQGkSQG4JkEUAGUMABLBAdIFNQGsSQGEFkC8vD7BAVgKQMAABTTgQsEBLEEBCBpBMJQ+wQD0KkE0AUkwAAbBAPBiQTUQOsEA4FEA1FEAtEUAgEkAZgQRAKRRANxBAQhRASRNATxNAVxRAYBNAaRNAcRNAeCVAfWeQTQCBGS8AGLBAbg2QTUMHsEBeDZAwKwWwQE8UQEY2QEkUQEwSQE4lQFCBUkBOEUBLE0BHFEBDEkBAAJBMPwk0LQuwQD0RkE0AEzcAJ7BAPGeQNABVsEMygSaQNTeBFTUAgUCwQDgUQDEQQB0VQAAakDc4HLBAIhRAOAJDLhFARRJATxVAWBBAYxVAbQiQMAAJsEBzF5A3ABGwQHgTQyqBUEByCpA1NAFKSgI5NgSwQGYUQFcFkEwADrBASiFAQRRAP4EDQyZxQEBekDkAArBDIgWQO0IPsEBBgQCQOwA3SgARSEhGSAAaR0kpsEA/JkA+AZBHACOwQD0DkFFJATwzI7BAOl9AOIJAkDUAGzczgSM3ADJPPDtRAIEFOTAFTUc5TwA6OQBITEkaTQCBKUwAEDU1BkpDZDUAQUoAG0g7gTywQDYckEgACbBAMxJALAmQTCMLsEAXCJA3IgqwQABzQBwRQDAUQD0RQEQVQEgRQEsUQE8TQFMUQFkTQGATQGkgQHAUQHUqkEwAIbBAeiVAfoESkEw1KUwAH0ozHLBAeQeQSgAMsEB1FUBuBpBMMwywQGYRQFwAkEwAFLBAUgSQSj8PsEBHAZA8ABKwQD4IkDsrC7BAPRiQSgAgsEA8JUMmFUA5EJA7AAA7CjBINQiwQyoXkEgAEbBANwOQOwAOsEMuJ0A0E0AyFEAsEkAlFEAfEkMzDJBKNTywQCsBQzcRQDkUQEQLkDcABbBATAFDOxNAUw+QSgADsEBaFUBhEkBoFUBtEUBxAUM/JUB1ghxAcB+QSC8EsEBnDpA8JwewQGAJkDAlCbBAWRVAUBFARBNAOhRAMhJALhJAKhNAI0tAJxRAMRNAORNAQBJARBVARw+QSAACsEBLFkBOH0BSFEBXEkBcDJA8AAewQGISQGgTQG0mQHGESUBtJ0BlCpA2LwmwQFsLkEdBBbBATxZAQxJAOxNAOWuQMACCMEU8AjQyAEcAgQs0AIIWMjeBCTIAgWmwQDUUQDAUQCYRQCEAkEdDAjAyH0UAGbBAKxJAOBNAQhNASBFAThNAVBNAWSdAXj2QMACBErBAWBKQRUABsEBOB5AvLAtHAAGwQEMUQD0GkEUAG0NAMUMADEU/NkUAEEM5P7BAPCRAOSFANBVAKhJAExNAAACQLwAlLTEmsEAhEkAzFUA/E0BHE0BME0BQEUBUA5AtABGwQFgTQFwEkEJKBzYAAkMAF7BAYl9DOzlAXhJAVxRATgiQSkcGNzgELzACsEBEAJBCABCwQDsTQDUTQDAUQCsTQCUUQBwTQAkSQAABQzeBAkMyJ0AjEkA3FEBCE0BKEZAvAAKwQFIAQy0dkEoAATJAAbBAXBZAZhJAcBRAdzdAe0qQMgCBKrBAcRVAZhJAWwqQMDQBSkwJsEBSE0BLE0BHgUqQTEQESgAZMAAfsEBFD5BMAAOwQEQRkEpDBLBAQhRAPxFAOxNANAmQSgAGLzUDsEAsCZBMRgqwQCiBD5AvAIIoLTl+sEAqHpAtAIFqsEAiPpArMA+wQCwSQDsUQEYTQFAOkEwABrBAWhJAZgmQKwAJsEByFEB8gnZAdQiQNwAEKjUGsEBqEkBiApA+OxOwQFoSQFIUQEwSQEddQEUvkEA7Dz4AgTVCQgEtOBFAADctAGxCABuwQEQAkENESrBAQxNAQhNAQRNAPhVAPBJANxRAMBBAJg+QRUIEMjUCsEAgDJBDAFkqADGwQCQwkEc/KkUAdrBAIB6QKisCSEEYsEAkDZBHAAewQDESQD0SQEUTQEoVQE4NkCoAArBAURRAUyGQSAAMRTwNsEBVgTlAUxJATQiQKzMLsEBGDpBFAAWwQEMDkEc5gQxFQwZHAHVFAAFDQ2YwNwY0OQ5DABBFRgqwQEIxkDIAG7BAQSKQRQACQ0UWsEA/EUA+E0A9CJArAAuwQDokQDYAkEMADUI/B7BANBNALxNAJxRAGhNACxJAACOQQgAkMAABNAAHQzsIMjSBLbBAIhRANxJAQRRARhNASRFATBRATxFAUhVAVhNAWhBAXihAYy2QOzVHQwCCUkM9E7BAXwqQOTEJsEBTApA7AARDABuwQEYRQDwFkEI5D7BAOSGQQgAKQzwrQwAjQi2BELBANhJAMhJAKhRAHRNAEAyQOQAFsEALL5A3KYFAQgACQC+BdDYqAj4zAUAACzIAIDcAg08wLQOwQBsUQCsTQDoTQEQUQEsTQFECkD4AEbBAWBBAYBRAaAWQMAAOsEBuE0Bzg0FAbhRAYwGQLzAGSkMMsEBVEkBIDpA2AAOwQD4TQDkAkEoAFUhCR0gAEko+BbBAN4I2kDI7NTIAgjqwQDMSQC4UQCoykDctGbBALhFANRJAPRVAQhNARwmQLwAKsEBKEkBMFEBPE0BSEkBXEkBbFEBgE0BlE0BqJEBwOUB1KEB5HZAvMwBMQA5KACCwQH6BBZAvAHtMAHawQHYSQGsEkEpDBi0xCbBAYRNAWQeQSgALsEBSFEBKA5BIQhCwQEUTQEQIkEgACkpBL0oAB7BAQwOQSEEksEBBJ0A+E0A7EUA2FUAyEkAwSZAtACMrMwWwQDYWQDwRQEITQEURQEcnQEokQE0jkEgAA0dCJ7BAUHBATRVASRFAQxCQRwAEsEA8AZArAAJMTQEwOg6wQDYSQCoUQAAdkDcAgS6wQBcTQCoUQDgTQEESQEcUQEsUQFAJkEwACLBAVRNAWxNAYguQNDYHsEBpFkBvEEBzJkB4M5A0AC2wQHyBYkBwDpA5OgWwQF4SQEsTQEEHkExJH7BARBJARxNASRNAS0GQTAAgTkJETgATT0wCsEBNGpAwACotMwZORwGwQEkAkE8AE7BARBNAPg2QTgAGsEA2BZBPTA6wQCsTQBwSQAAJkE5QAE8AghgtABIyOUawQA1eQBIUQBdfQB4RQCokQDcTQEETQEcTQE4PQFUTQF4GkE4ACDA/BLBAZwJDKRJAcAuQMgAFsEB3FUB7JkB/FEMlXJA5ABlMSlxOUwNMADSwQGsTQE8HkE4ADrBAMA6QMAABsEALDJAvPgFPUy2wQBBwQBlLQCAUQCUUQCoSQC5LQDEiQDMVQDYGkDI7gTEyABewQDiBO0A2FEAyEpAxRAKwQDAVkC8Ag0E0LwNRRTlPAE40AElTSB5RAHKwQDI2kFFGCzk5GlMAgRlORQNRAIEWsEAuE0AoFEANE0AABJAtNAFPRgFOAAIxAFSwQCkSQDwVQEcKkDkAB7BAUSVAXBNAaBJAdRRAfRCQTwCBLk9FEi0ADjIzA7BAbhRAXAWQTwAPsEBKApBOOw+wQEATQD4RkE4AEU9AMU8AFU47ggQ5M4EdOQBPsEA/gWSQPi+BBD4Agh1MPAI8LDZOAEo8AIJITAAGSjYNOyaBHTsAObBAQF9AQUtAPjlAQRJARQCQOS0TsEBME0BUEkBeFkBoD0BuAJBKAA45ABmwQHMZkDIAWUo9IkoAOkg4HEgAGko7A7BAZQWQNzwLsEBNAZA0MwdKAAuwQCwEkEhNErBAACRAEBFAKBVANRJAOhRAPBJAPRRAPgGQSAAXR0kOsEBAEkBBJkBCYZBHAA+wQD0UQDARkEhKAbBAHg+QMjcYsEAqBpA0AAywQDsSQEYOkDcABLBATRZAVBBAWxRAYxJAahRAbyuQMgCBD0gAKLBAayFAYBNATRKQTkYCsEA2AEMpEUAABpA5LgEwJlmwQBQSQCEUQC4TQDgTQDwTQD4UQEASQEIUQEMlQEVJQEMVQDwRQDITQC8BkC80GzAACbBANxNAPxRARBNARxRAShJATRVAUBFAVQeQLwAMsEBaEkBeFEBiJkBocUBkEkBXEkBCFEAPDpAtNwSwQAA1QCITQDcTQEEUQEcSQEoTQE0QkC0AA7BAUBRAUxFAVRRAV4FhQFMFkCs4Bk4ABU9CA7BARwCQOQATsEAuFEAAOUASE0AwEkA+E0BGE0BKFEBMBJArACCwQE4EkFFINrBAUB2QTwAtsEBTA5BRAFuwQE4OkCouBbBARAyQUUQGsEAzIkAhJkAnE0AyFEA5EkA8J0A9CZBTRwuwQyUkQD4oQD8kQEAHkFRLFVEACbBAQg2QUwAbsEBDBZBUADGwQD4WQDIEkFRECSYvA7BAGRRAEgKQKgAPsEAWE0AnFEAzE0A6E0A8G5BTTS1UAAOwQD0oQD4WkFFQD7BAPxBAQAGQUwATsEBBGJBRAComAAqwQD8PkFFDAyg8AbBANxRAIAFDIRBAADtAIBJALyBANxNAOQWQT0sjsEA8AZBRABGwQD0TQD4UQD8TQEEGkE5PGE8ABbBAQjKQTgA0KAANsEA7EZBORwEqMgGwQCAIkC0qCLBAAGJAJRJANBNAPAKQTEYOsEA/EJBOAASwQEETQEJNQEMMkEpEBkwAJrBARR+QSgANKgAMsEBITUBEAZAvMAErMhGwQDkCkC0ACUpACLBAAEpACRRAIBNAKB9AKxSQU0MbSgAfsEAtSJBTAARRRXCwQCgGkC8ACSsAAi07CTAzAk9IF1EAbk5HBU8AZ04AIUxCJbBAIBFAGRNACRRAADuQSj4LTAAELQABMjMSLyoRMAAosEAZE0A0EkBCFEBLApBIQwUvAAFKAAqwQFEAkDIAE7BAVXSQR0ADSABVsEBSE0BQE0BMFEBIEEBDAJBHAA5MQQM3OgOwQD8NkDAeBLBAPShAOiZANhVANBWQSkADTAANsEAwcUAuCJBKAANIPi2wQCxLQComQCIDkEgACjAAADI7BLBAHQSQRz8jsEAZcEAfggZAFxNACRJAADqQNC83RwABsEArE0A9FEBHE0BNEkBREUBVJ0BbJEBgA0MlgU9DKSVAWQJDLQyQRzkEsEBNA5A0AAc2LwmwQD0AQzEUQC8CkEcAEbBALAmQNwAFRT4YsEM2EJBFABpHOg6wQzohkEcAJkVCJbBDPkqQRQAARR48sEAqAUNCJUAZEkAAOkNHDJA8Ngc2ACWwQ0wVQB0SQDQQQD8UQEUUQEgTQEpBkEM5HLBDUCdATBeQRQATQwB/sEBKE0BDC5BDOQI3MAIyAAOwQDgUQCUTQBmDR5A8AAM7K4FDOwAMOTKBfTswBDkAITcAgzOwQBAlQAAkkDcsFLBAIRNANBJAQQeQOwAOsEBIEEBNFEBQEkBTFUBWJUBbgy9AVyZAUhNATxJAShNAQxJAPQiQKycLsEA2E0AuE0AkEUAWAJA3ABSwQACBPUAcFUAtEEA6FEBCE0BHFEBLEkBPFUBSEUBWJUBeEkBkFEBpE0BtCpBDACwrABawQHGDCEBsJEBlFUBhEkBdJkBZJ0BWE0BUE0BRE0BNEkBKEkBHFEBFJUBEEkBCFEBBE0BAE0A+J0A9EUA8EkNMTEA5RJAyLQewQDcGkE4+NbBANA2QTgAMTEIMsEAxUJBMABVORxuwQC9NQ0g3Q0M4Qz9yQztfQzeBUEMzcEMvBZA+MEmwQDIAQyokQDUTQDcBQyUSQDkgQDsTQD4UQD8TQEESQyEnQEI4QEMBQx0NkDIABbBARFCQT0UhsEMZCpBOAB2wQEYRQxU5QxE5QwuBPEBDFEA/E0A5EkArB5BRQQo8KwGwQAACkE8Ac7BAJg9AOBRAQxVASgSQUQAOsEBQIEBWE0BbE0BiFEBnJkBsgnuQTkOBF7BAYhBAUxKQOy0BPAACsEA9C5BKQgawQAAQkE4AET4AZLBAGRRAKBRAMhBAOBRAOxJAPBJAPV1APlKQPjqBW7BAP4EBkDsAObBAOwSQPDIET0wCSgAJsEAzDpA+AAawQB0TQABMQA8UQBdeQByBA0AhS5A7MxU8AFuwQCZKQCgmQCuBKkAtNJA5OQOwQC89kDsASLBAMl9ANHBALBRAJjWQNzUDsEAtBJBRRRCwQDQEkE8ABjkAFrBAOBRAOxNAPBNAPSdAPxJAQCKQU0kxUQALsEBBX0BAEEA+FEA8E0A6JUA4AJBNRBSwQDYDkDw3BlMAC7BAMxaQNwCCPbBAMBJALRRAJhJAGgyQTDsGsEAAA5BNABQwJVewQCAUQDITQD0AkDAAE7BAQxNARhNASCdASoEpQEgQQEULkDItCLBAQzpAQRRAQBNAPiNAPTtAPBJAOidAOCdANBBAMUxANw+QPAAEsEA8BJA7Lw1KPwGwQEEVQEQOkDIAAbBARhRASQaQTAANsEBME0BPFUBTEkBWJkBeIkBiJkBmgS+QOwAPsEBgD5A0MQGwQFsAkDkuEEg8A7BAVAyQSgAGsEBOFkBKEUBFFUBAEkA9TEA7JEA3EkA1OkAzEkAxE0AsE0AnE0AiE0AZFEAAGJA5AAU4Li6wQBATQCoTQDkRQEMTQEkOkDQABbBAThNAUxRAVxCQRz0WsEBdHZBIABiwQGE5QGVXkEcADEpFDbBAXQSQOTUCOAAPsEBOEkA/FEA7EEA8FEA+gQGQSgAZSDwySAAbSjQuSgAFsEA9E0A8C5BIOQU0LCmwQDpDkDQACbBANxJANHFDD4FPkC0wZi0AgkVHLgEvKBVIAEIvAIIUsEAxOUAvJ5BHAAJFLwywQCwEkDAUgROwQC8mQDGBFUAvYUA0E0A5CZA0KgewQD4VQEMHkDAAC7BASBRATQeQRQAIsEBSEZA0AASwQFoTQGITQGwTQHUVQHsSQH8okDkAgjqwQHcRQG4GkDkwB1RLB7BAZBJAWBVASxNAQQGQVAAEU0QOsEA9NZBTAAKwQDwMkFRKGrBAOoIVkDwsbDwAgQ6wQDgnQDZgQDwgQEEUQEQLkEIvBrBARxVASRBATACQOQAVsEBQEkBUFEBXJ0BdJkBhgVqQOSohVAAJU0KBJFFJBVMAgQewQFsSQFAVQDsRkEIAArBAAA+QUQALU0AMNzEHOQAesEAZFEA3H0BEFUBMEkBUEZBTAAOwQF0RQGcUQHATQHWBfZA7LUhRQC83AB5RAAhPRCpPACJOSjpOABRMQyVMAAGwQG0VQFsUQEMLkDYzBrBAFwOQTEYPsEAAEZA7ADuwQBCBAkAWSkAagSSQTAASSzwIOSpJOQCBLLBAFBJAEBRACRNAADlACxNAJRNANxFAQhNASgCQPDIUsEBQE0BVEEBaDZA2AAWwQF8VQGMmQGmCPZA0LwGwQF8LkEsAB7BAUAmQTDwLsEA/FEA1I0A8FEBDE0BJE0BOFEBUAkMVEEBaA5BMABCwQF8OkE48ATQAULBDGSRDHSdDIUtAWBVAUA9ARxRAPwFDJQ2QNiQFsEA6ApAzLBtOAAdIMhSwQDcAQykOkDwABrBAMxRALhFAKwFDLiZDNBRAKR9DOCdAJRRAHQFDPA9AEBRAAFGQRyclSAA1sEASEkAnFEA2EUA/E0BGE0BLE0BPFEBTFEBXJ0BdD5A2AEEzAGmwQzhLkFFFFLBAVgFDMxJAURVASwGQRwAPsEBHAEMuE0BCFUA8AUMqEUAzEUAiEkAAU5A0MgZPOwOwQyYNkFEAP7BAJQuQTwAHsEA6FUBFEUBKFUBOEkBRFEBVE0BZJEBgJkBlJUBpf5A2NhEtMxuwQGATQFMTQEoxkC0AAjQAA7BAThVAUBNAUw2QTkUZsEBVOEBXX0BbOUBSE0BFBJAvKgNMRQ6wQDQFkE4AGbBALiZAMQiQNgANsEA0EEA2fZBMAAdLQ0pLAA5MP0CwQDQVkEwABUtDD7BAMAGQNzJRNwAIsEAtFEArJUAlgStAICZAHDhAFydADQqQOSwHsEAAgxxAHRNAMhNAPgCQTEENSwAFsEBGFEBLFEBPE0BTFEBZEEBhCJAvAAFMAAqwQGoUQHESQHeCU0BxEUBoAJBMQQM0MBGwQFwVQE8hQEETQDcUQDSCdJA5ABo3LYE9NwADNjJANACBMDYABzcrhAKwQDITQC8OkDQtBLBAJhVAFgNDKg9AAExAFxFAKxRAOBFAQQiQNAAMsEBGE0BKE0BNAUMuE0BPFEBSJUBVOEMyYEBTWkBQFEBOEEBME0BJJkBGJUBDFEBCE0BBEUA/AJAoJBSwQD0WQDkSQDIQQCIUQAACkDcAgU6wQB8SQDITQD0SQEQUQEgRQE0UQFMTQFsTQGMTQGsUQHAvkEwAHLBDNhNAdCGQKACCMbBAcF5AayRAZiZAYXJAXCZAVxNAVRJAUhJATwuQNCoIsEBKEpA3LAGwQEYRQEITQD8OkEc9BbBAPidAPRiQRwAOsEA5CZBFQgqwQDcSQDQUQDISkEUAH0c+GrBAMCVALoUUkDIrNTQAgj+wQCwmQCkrkEhBKkcACLBAMBNANxJAPRRAQhNARRNARxNASiVATSZATyRAUYEIQE0SQEUPkDAxAbBAOA+QR0QFsEAkKZAyAA6wQC0VQDYSQDsNkEgABrBAPChAPQyQRwAdRUApRQAMsEA3CpBHNwawQB8VQAASkEcADkU8dbBAHxJANRNAQRJARxRATBJAUBNAVBJAWhJAYRNAZxRAay+QRQALsEBvI5BDPDNDABmwQHQnQHkTQH1MQGkHkDAACbBAUwKQLy4BQzkSsEA/E0A2EpBDACawQDgFkEVDPEUAK0dCJkcAOEhCJEgAUEo9ObBANROQSgAITEEJsEAzE0AwFEAkEEAAGpBMAAlNQ1GwQCEUQDcRQEMTQEwUQFMTQFkDkE0AD7BAXjeQLwAZMC0NsEBYBpBNPQ+wQFATQEkTQEWCUUBEI5BMOAOwQEIEkDQuELBAPwaQTQAcsEA9FEA6EkA4ApA3ADewQDZckDQAgVI1OoEFsEMyLpA1AIE1sEA0E0AqEEALFEAAHZA3OAewQCASQDcVQEUSQE8UQFkiQGMUQGsTQHELkDAACLBAdQuQNwAasEB7gU9AcBRAYxCQNTkAOT4BSkcBsEBXE0BNBpBMAA2wQEUSQEASQD9NQD4TQDwUQDpcQDwSQD0UQD8UQEESQEIUQEM5Qy4KkDs+QTkAgSFKABRIQjg7AAWwQD4IkEgACbBAOAyQR0kGsEAyFUAwAUMqJUAuFJBHABKwQCwTQCoEkFFOD7BAJRCQPDYUsEAgFUAcOEAUJUAQgkFDJguQNQAGsEAUB5A3LYFmT0MoUQAtNwBvTUkTOSoXTwCBAzkAFExKIk0AgRSwQAALkEwABjUzA0pGJrBAFxJAIhRAKRNALBRALyCQNQAjSgATSD+BZbBAKxJAJAaQTDgFSAAIsEAZB5A3MA2wQACBPkALEEApFUA6EUBEAkMqE0BKEkBOFEBSAUMwEkBXFUBbAkM0DUBgFEBkEkM5FEBoEZBMABSwQz45Q0NNQ0dAkEwyG7BDTBCQTAAlSjo8sEBkA5BKABZMQQywQF0RQFUUQEoAkEwAArBDUAOQSj4DPAAJOywBsEA9FEAsEEAAFENWJ0NaOUNfE5BKADJIOgawQ2N9kEgAUDcACko6DLBAFgFDZxFALxRAPg6QOwACsEBGFkBMEUBPE0BSFUBVEEBZEkBdFEBhJ0BlAJBKAIIYsEBgI0BYFEBSBpBIMg6wQEsQkDAkATwgA7BAQhFANxRAKxNAIRRAFxJAAIEpQB4UQDATQDsTQEESQEUTQEkRQEwAkDwABUgAEbBATxFAUxNAWBJAXBJAYDhAZYNEQGFxQF0nQFkQQFIOkDYtBrBARxNAOhNALAWQR0gNsEAlNpAwAIMGRT4FNDIKRwCBATQAgj8yNFuwQCkTQCwTQC8HkDIAC7BAMhRANRJAOBRAOiVAPBFAPSdAPl5AOBRALhNAIwaQMC0BR0MdRQABsEAqEkA2FEBAIEBGE0BLE0BQFEBWE0BbA5AwACOwQF8ikEcAdLBAY2BAVwSQLzIMRUYCsEBKEkA+FUA6C5BFAB5DPy9DABNFPC5DPwNFAGqwQDcVQCwQQAAZkC8ARC0qO7BALBRAPhNASBJATyFAUwCQLQAUsEBXBZBDABE2ABCwQFsAkEJEJrBAYCdAZG5AYBNAVxNASQCQLzICSkQFQgABNzgNsEA8EkAzE0AvFEAsOEAnEkAiX0AdOUASEkAAAkNjS5AvAB8yND6wQC8TQEIHkEoADbBATRJAVxRAYRFAaRRAbxJAcyGQMgASsEB5gSxAcAFDXxFAYhNAUgaQMDYISkYGsEBFEUBCE0BEE0BIFUBNEUBSFUBVCZBKABkwACiwQFdBkEw6JkwAKEpEHLBAUxNARxNALAGQSgAELzECTEQKsEAAX0AQE0AmFEAzEUA6BJAvABGwQD0RQD4VQD8QQEATQEIUQEOBAUA/E0A3E0AsE0AqA5AtJxCwQCwSQDYSQD4TQEMUQEUlQEkJkC0AHbBATCZATylAUTVAUzhASxJAPhRAKhJAIxRALAeQKzAMsEA8FEBIAZBMABGwQFITQFsTQGMSQGkRkCsAArBAbSZAc1OQNwCBV7BAaxVAZRFAXxVAWhJAVQuQKi8FsEBSEJA+OwOwQE8UQE0lQEomQEhykEBAET4AKbBARnBARBqQLToFQkQSQAAHsEBDHpAtABywQEJVkEIACLBAQRmQQ0EhsEBAEUA/J0A8E0A4EUAyFUAlIEAAPZBFQwIyPxNDABMqADOwQB0TQDMTQD4UQEURQEoTQE0JkEdCHrBAUAeQRQAMsEBSEkBVE0BZFEBfAUNbEkBjJEBnKEBeCJAqNgVIQQKwQFEPkEcABbBARBRAQBNARBJASRVATxJAUwSQKgBHSAABRUUTsEBVgQRAVyVAUxJASgJDVxJAPhJANgOQKx0ALSoNRz4CRQA2sEA4DJArAGBFSQ5HAHFDRwdFAHwyAAs0PAJFTAFDAAYwOgItAAewQDZ4kEUAEEM0ZUMACbBANAqQQkIbsEAwE0ArFEAkE0AWEkAAHZAwAAtCAAtDPgI0AAQyOYEnsEASE0ArFUA4EUA/E0BEE0BHJkBKEkBNE0BQEkBTE0BVJkBTFEBPDpA7PASwQEoTQEwUQFITQFsLkEMACLBAZxFAcYJEkDsABUNACTk7FbBAYg6QQwAFsEBOCpBCPQiwQDoVQC8ekEIAA0NAOkMAHEI1gTKwQCsSQCAWQAAwkDkAKTctgUxANxRCAIFQNwAFMgAHNi4OPjQBQACDaTAwNLBAGxNAMRRAQBBAShRAVRJAXwKQPgAKMAAIsEBpEkBvJkB0glVAbxFAaRRAYAuQLzMHsEBVFEBLAJA2ACCwQEIDkEpEErBAPBJAORiQSgARSEURsEA3E0A0EkAwEkAuA5BIAA5KQ4JCMjprMgCBRbBALBJAKhRAIRNAAGmQNzQWsEAcE0AyE0A+E0BFFEBKE0BNE0BPC5AvABuwQFMRQFgTQF4TQGQSQGkTQG0mQHFeQGwVQGMRQFsIkExJAy82IEoAD7BAYCZAZUxAaoEBQG51QGYPQFYSkC06AbBAQRKQLwACsEAsCpBKRylMAAGwQDQTQDoTQD4AkEoAE0hDPEpMCUgACLBAPxFAQBqQSgAKSDgXsEA9EkA4EkArE0AAR5AtABewQCITQDYMkCszBrBAQBVARhJASxRATxBAUhVAVRNAVyVAYBZAZRFAag2QR0smSACBDysADbBAWwSQRwAMTEkBMDcCsEBHE0AeFUAAEpA3AIFMsEAjE0A0EkA9EkBDE0BIFUBMEUBRE0BXBpBMAAywQF0UQGMSQGkTQG8FkDQ+DrBAdhNAe0tAf4IbQGsSQEoAkDk/AjQAEbBAACiQTEsSsEASFEAzAUNTE0BBEEBIFEBKRkBNDZBMAAWwQ00VQFAEkE5HELBAUwJDRw9AVxRAWxNAYAOQTgARsENDDZBPSgSwQGUWkDAAJLBDPw+QTwABLUELTkYJsEBbE0BLE0A5A5BOAA5PRQKwQDQSQDkVQD4JkE8ACbBAQwKQTkQRsEBEI5BOABVPSS1PAAuwQEYAkE5IME4AEU9LHrBASBaQTk0BTwAMLQAQMjwZsEBCEkA1FUAQEEAAJkAfFUAwEkA1gUtAOBRAPhNARBNASBNATwmQMEIMsEBYEUBjB5AyAAmwQGsKkE4ACrBAcCZAdXBAeR2QTEwdsEB9C5A5AChOSgRMADqwQG8TQFICkE4AELBAKguQT1IDMAADsEAAA5AvPoE7sEANFUAXOEAcE0AhEkAoFEAtEkAwFUAzH0A2FEA5J0A7EkA8BJAyPBCwQD0SQD8UQEEUQEIQQEM6QEYkQEkGkDIAIbBATCdATxJAURRAVRFAWhNAYBRAZCNAXRRATxNAPwOQMUYRsEA1I0A3A5AvACOwQDqBK0A8gT+QNDgIUUwnTwCBDDQAElNQMVEAF7BAORRANRBALBVAExJAAD2QOTkNUU4CsEASFUAfEEAlAJBTABSwQCkTQC4UQDISQDURQDc7QDkGkE5KDlEAbrBAOzlAOBNALAqQLTcAT0sEMQAFsEAAApBOAEqwQCEiQDcTQEMSQEoUQFAUQFUSQFsHkExJCrBAYhVAaAyQTwAEsEBtFkBxJ0B1NkB7J0B/HJAtAAVMAA8yPAiwQG4OkE9OBrBAVQmQOQAJsEA8E0ArJ0A0D0A4gReQTkgQTwA4TgAITzg2sEA2FEAzDZBOSQKwQDAGkDk3Ak8ADbBALBNAJhJAH1WQOQCBV7BAJxNALBVALyNAMRNANACQPjYTsEA3EkA6JkA8OkA9D5A+ACmwQD6BUEA5FEA2AkM7CpBMRASwQDMGkDwzHU4AF7BANhFAOCdAOiZAPAWQPAAOsEA9W0A+JkA/JUBATEA9E0A2E0ArGJBMAAI7MABKOh2wQDQUQD4TQEQSQEcSQEkUQEsTQE0UQE8YkDsADrBAUiZAVSVAV4EDQFUWQEsRQD0TQDImQDwDkDkpD7BARRNATBFAUhNAWCOQOQACsEBeLJAyAAJKAHuwQGMfkEo0HEoAH0g/J0gAFbBAXASQSkcRsEBJD5A3MwKwQCACkEhJAUoABzQwCbBAACZAEhJAMBNAPRNARBNARjCQSAAIsEBJCZBHRi6wQEwqQE8iQFInQFQCkEcAErBAUhJAShCQSEwDsEA6BpAyPA6wQBATkDQAEbBAIRNANgCQNwAUsEBDE0BKEUBPEkBSFUBUApAyABCwQFkTQF8UQGSBSkBbFUBNE0A8C5BIAAewQCgDkEJCAzAsCjkmPLBAKhJALCVALiZAMhNANRRANyZAOTdAOztAORBANz2QLzEPsEA7FkA9EUA+BJAwADWwQEAnQEEjQEI1kC8AF7BAQ4EVQD4QQDQUQCQRkC05AbBAGidAKxRAOBFAQRVARRBASBVATBFATw2QLQAHsEBSE0BVJUBbX0BfcUBQDpArMQOwQDwNkEM7B7BAACCQQgAusEAoE0A5EUBBCJArAAqwQEUnQEcfkEVADTkADbBASgSQQwBbsEBMR0BOXUBLEJBFAAIqLwGwQEMQkD46A7BANxVAJRJAIEpAJYErQCglQCuBUJAwKwVAOgs+ADMqAHxCPhZAAHywQCkvkEIAB7BAKxRAMQeQLzAEQ0IIsEA4FUA9DJAwAAawQEAUQEESQEITQEMmQEYlQEkEkEMABEVIHbBATDpATydAUTdAShNAPgKQLTwHLwACR0wCKjUEsEAyA5BFABCwQDATQDIUQDcUQDsSQD1ZkEcAA7BAPhqQSE8PsEA/SkBAPpAqAFawQD0DkC0AErBAMwKQKy4ELzcGSkUKSAANsEAAgQVACRNAFhNAHSuQT0ENsEAJEkAAFpBKACOwQBsUQCUTQC4TQDYRQDoUQD0SQD4DkC8AB05GCS05BTA2AU8ACCsAArBAPxVAQBBAQhNAQzpARSmQLQAcTEY0TgCBELBAPiBAKhNAAAmQLzQDMjUFSkYSTAAIMABEsEAdE0AyDZBKAAawQD0UQEIEkEhCDrBARAiQLwAKMgATsEBIJ0BLKJBIAANHSWywQEkUQEckQEQTQEMEkDc2CTAuBrBAQRJAQA6QTEIGsEA/EUA+DJBHABuwQD1RkEwADbBAPACQSjoosEM/XZBIPwBKADmwQDo0QDcSQDMOkDAABrBAKBNACQaQMi8MsEAAApBIAAtHO3ewQ0OBd0AJEkAuE0A/ApBHABGwQEgSQEwTQFAOkDQnBLBAVxJAYxVAbxJAeE5AfII8QHcSQHASQGIUQFIKkDYqAzQABLBAQwKQRyoSsEA6F5BHAB5FOQY3AClFABNHNDFHABhFOIEUsEA4JkA2EkAyE0AoEkAAY5A2AAU8KkSwQBAUQCMRQDATQDgTQDsTQD0UQD4lQEAUQEELkEM4FbBAQidAQzSQRQAoQwAUsEBFU5AyAB+wQEQTQD8AkDcsD0M2ArBANhRAKxNAJINnkDwAFTsygWGwQz8QkDsAHTkofTcAS7BAIBJAHCVAFzaQOQAAOy9isEAbTkAfSUAkgwpAHDGQNyUGsENDJkApE0A0FEA9E0BDEEBHAJA7ABSwQEoUQE8TQFQRQFoTQF8UQGUTQGsmQHGFJEBtJUBoEkBjFUBeDpArKQOwQFgSQFIUQEsUQEUTQEIRQEETQD8UQD0SQDkVQDQRQDAUQCwmQColQCiDZkAsFEAxE0A2E0A6FEA9E0A+E0BBEUBDE0BGFEBIE0BMEUBOE0BQJ0BVEUBZFEBfEUBmFUBtEUBxJpArACo3AB1DAIUXsEBtOEBnJkBhJUBdTUBZOEBWJUBTJkBQJEBNFUBLEUBJFUBHSkBFFEBDE0BCSkBBJkA+JEA9SkA8gSpAOktAOCZANSdAMjhAMDpALm9ALGBDP15AJRNAAAGQUzwBSjkMNyUMSgAQUwAINwCCPk8/A0MyEkcsE08AAkMADEcAgiNKRQ5FOgNCLQKwQDcRkEoAAbBASRNAVRCQRQAEQgABsEBgEUBpE0BwJkB0gTSQTEQIsEBvAJA2NDQ2AAGwQGkAkEwAKLBAZSRAXw2QTkoGsEBZFEBOBZBOAAywQDwTQABPkE9FBTQ2EUc2Ek8ABjQABEcAgghMRw1ANwFDPhdMAAlDAAVAAIIMR0ISQjYEPjYVsEAdIZA+AAGwQDUUQEAUQEYSQEwSQFITQFoTQGENkEIABLBAZidAbVWQRwABMjwwMgCBdLBAUhJAAAKQMDkCTEINQ0ASMAAFTAALQwCCCkhEBTw6AUU8G0gAB0UAAzwAgiuwQBsPkD43AEVCA7BAMAKQQj4TsEA+EUBIApA+AA+wQFAVQFkSQGESQGcPkEIAAEIbF7BAa4EdkEIABDk/DEdDHkUACDkAU0cACUhIS7BAZhRAXhNARhBAABOQSkMDRUEGNj8KSAA3sEAXCZA2AAiwQDYVQEISQEcUkEoADUc/BLBASQKQRQBwsEBDE0A4FUAoAZAyNwFIQg1HABWwQCwNkDIABrBANBJAN0SQRT8PSAALsEA5JkA2FUApEUAAM5BFAAawQB0GkDczBUhCBkMzAbBALhNAORRAPQGQNwAMQwADsEBAE0BCOpBHQwJIADmwQD4SQDUSQC4SQDEVQDsQkEcAAbBARQGQRUMEMjkOsEBNE0BXCJAyAAywQF8SQGMIkEUASUNENEMAD7BAaBNAbhFAdxNAfhOQK0sBsEB4DpBTSwNKTAKwQFUSQAAAkEoAA1MAazI+CisAfDIAFU9IAkdIAzRDG0cABU8AazZEEDQAgRRMSQU3QwJJSRY2ABewQDYQQEMTQEkUQE4TQFIiQFYGkDlDAjcAC7BAXBRAYxJAaQaQSQAJTABjOQABNz4ZTEcGST0XSQAQTAA8sEBkBJBOUAY2QAewQE0AkEpLCTcADLBAAA2QSgAITgBcNgABNEMATE0BT0waTAACTwBlMkUJNACBCjIACDREA0xNC0lIG0kABUwAYzY+BjQAgSdJSwM3RAJFSAuwQDYIkDYAC7BARxJATCZATxJAUQeQNwAMsEBVA5A5QRCwQFoLkEkACbBAXiZAYluQO0gHOQAFSkpWsEM7KpA9TAtMTAE7AB5KAFM9ABSwQFAJkE5PAj5SCLBAABKQTAABsEM3C5A+AGdKShpOAHmwQzMMkD1VBE9OEEoADT0AC7BDL1KQTwARTEqBET5SCk5MGD4ABbBAMgWQTAAPsEBBEUBEEJBFAAOwQEcUQEkPkEpPFU4AAbBASw6QSgAasEBPEkBREUBTFEBVEkBXJJA2TQRRUgZKUAywQE4SQDYSQAAskDYAHzdHgQo3ABQ5Sys5AApPTBVRABFKAF1OShFPAHEtSgtMTAhJRwxOAAstAB1MAEROShhJACJOAHpKSgsyQgewQBcRkEoAA7BARwBDNAOQMgAQsEBWEkBjAkM5EUBwFEB7AkM/EEB/EkNGJkNKXkNPLJBMQUNMABBOTDywQHsbkE4AEE8+HFFCH08AO1EAAFNHCLBAdQGQN0IBSkwUsEBbDJBKAAM3AAOwQAACkFMAgg5PRA5HPgtDLxVPAANHAAJDAIIDsEAcAJBCQAhKOQNFOQiwQCoRkEIAAUoAArBANyFAQxNATBRAUxNAXBNAZRNAbA6QRQAARQkGsEByA5BMQjFMAAGwQGUSkEpBAbBATxVAPhCQSgACsEBBBZA2Nw+wQEkBkExJELBAURZAWRFAXlOQTk8ETAA8RQAETgAVNgA3NEcJT0kKsEBQBpBHPwywQAAGkDQAAU8AAkcAghFMRgpDRgRAMRhMAAJDAAdAAIFEsENLN0NHJ0NDBpBIQxY+MQlCLSo+AA+wQz8oQzsFkEgACEc5ULBDNzpAIBGQMjgCsEA6E0BGEUBRD5AyAASwQGEUQHUSQH8tkEIAgRtHACNMSgmwQFsAkDBAAENGFLBAAAOQTAAHQwAHsEMzAJAwAIImSEoFRUYDPEMaRQACSAAIPACCG7BAMAqQPjsBRUkIsEA7AJBCSBSwQD4SQEUSQEwGkD4ADbBAVBRAXxJAaBRAcBNAdCZAeGqQQgAFsEBuEkBkDpA5PgJHRgWwQGAkkEUAEjkAVkhQB0cAcbBAXBNARxJAAASQSkoDRUgCSAAENj8tsEAnE0A+E0BIFEBOIZBKAAGwQFADkEdEBkUAILBAUxFAVjSQNgAFsEBSEkBBFEAACZBIRQoyPwRHACsyAAiwQCATQDYVQDslQD0BkEVBA0gADbBAPxRAQSZAPhNAKhNAAC+QNzgERQAFSEEEQzoPsEAcE0A0B5A3AAywQDkBkEMAWbBAPACQSAAORz8FsEA+FEA9E0AvE0AAS0AnB5BHAAhFRgKwQEEKkDI+CLBATRVAVwaQMgANsEBgFEBnC5BFAAawQGs4kEM/J7BAcwmQQwAKsEB6E0B/SpArUApTSgFKTAqwQFkSQAAAkEoAClMAaDJDDisAczIAHE9JATRIBUdGGU8ABEcAeTZIJzQAgQM3SgVMUANJUic2AAiwQDwUQEkVQFERQFkVQGAQkDlGA7BAZhRAbgCQNwARsEB4EkB/B5BJAAxMAF83RQtMSQg5AAFJQRxJAAVMACmwQHISQEoUQAAAkE5ICzZCB0pDEjcADUoAB04AZDRHAk9KAUxKCDYAFkwAAE8AczJKBTQAgRcyAAM0RwtMTgpJSh1JAARMAGk2RRs0AHqwQCAMkEVOBElMArBARAmQN1AMsEBKBpA2AAywQE0TQFEVQFQSQFgfkDcADEkABDlTgR07UQRKTxs5AGawQFYVkD1YAkxPCbBAVAaQOwABSgAesEBQFUBNE0BEE0AjFEAACpA9AA5OTwE+WB5MAAw+AAewQy9dkEpQHk4Adj1VB09QFD0AAEoAZk8AAkxLgSQ+UgJOUBg+AAKwQDMMkEwACLBAShRAUBNAUyVAVwCQRQADSlAQsEBeDJBOAAawQGYCQzMBkEoAEbBAbjNAdCdAezSQSloFsEBxAZBRVwE2RRGwQFYVQC4QQAA6QA8gkDdFBbBACwCQNgASsEAAZpA3ACE5SBBPTg45AAJRACxKAE9OTAtPAIEHLUYETEoKSUQITgARLQASTAA6sEM3JpBORRdJAAxOAIEqMjQPSjuBB7BALhJAQRNASxRAVBJAXBRAZhJAcgaQSgAPsEB/CpAyAFGwQzMTQy8TQykUQGgBQyUSQFATQD4UQDQTQCwSQCkBQx4QQxcVQB4CQw8RQABBkEVHBUJMBz5AFkIAAkUAC7BDAAOQPgCCLzlJBEpPAUI0CUU+EDkAC0IACUUAAkoAgiA3PAROSQNFSwBKRIENNkMLNwCBATRAPDYAUDQABjJGgQgyACs5RglPRwdKAApOAAU5AH1OSglPAHtMRgQ8RglOAAVFAA6wQDQCkDwAD7BAQRJAPxRAPiOQTAAEsEBBDZBKOwWwQEIUQEQYkEoAH7BASAKQQ0YSsEBME0BRGZBKSAE7QghDAAGwQEYLkE9TCLBAAA+QSgAFTwBeOwAXPDyBGzwAEjs8B0pQHkoAZzk9BzsAdDkAADkxKFNQBDdKAjkAA0pMHEoAClMAXjcABTk3gRs5AAw7PgRPTApHRhVPAAdHADKwQwgckDsAEzdBgTBMSQlDRwY3AAOwQCkRQDIAkDwmBTsuEbBAPBNARBRASwiQOwAHsEBSEZA8AASwQFkRkD5CArBAXwKQQwASsEBkApBMAA6wQGoUQG9DkD4ADTxAFE5NCEVMBrBAaRNAVwGQTgAGRQALsEA9E0AAMJA8AAE7QwtPUgpHSxpHAABPAGBRUg07AABIRwI5QhBIAARRAEmwQw0xkDkAEzs1gRY7AAFORwxFQwY8NhVOAAlFAA6wQxFbkDwABLBDFRaQOTI4sEMZVJA5AAtLPxFCOAc7NB+wQx0YkDsAILBDIV1DJYEDkEIAES8uBLBAMBVAQw9ATRJAVxRAYRRAaRFAbjlAcwSQLwASSwAQsEB7FEB/bUBxFkBKApBHRg6wQABlkEcAMEkzekkADUs+AUJFHkIAVEsAH0w6gQ5MABVORAg/PyQ/AFtPRBJOAIEkP0YATkBfTwAjPwABQEMATEIcTgBaTAASQAAOS0IEQkweQgBkSwAHTEF3TAA3P1ACTkMgPwBdTgAGT0SBFE8AIztPBFFJLDsAHbBAExFAHxRAJRNAKBGQU0cBsEArFJBRABSwQC5vQCsQkFFLAjtNA7BAKSiQUwBgT0oCPU8LUQADOwBqTwASPQADTkkBP1QmPwBSTgART0iBE08AD1FOCDtIHzsAcVNKK1EAcFRMCDdLGVMAalFLAlQAAjZFA7BAIRRAGQKQNwASsEANEkAAYJBTSwE3RwZRAAI2ABZTAASwQCATQCozkDcAGDlATbBAKEGQOQARO0gETEkDQ0McOwAGQwAHTACBOrBAHhNAAFGQL0QNTkYJRUIVLwAgRQBDTgAKS0GBHzQ6CExDEUM7DksAZTQAEC8+FLBAFBFAIxRAKxNALyqQTAARsEAxG5BDAAMrPQIvABiwQDM7QDZHQDgFkCsAAC9DMrBAOxJAPRRAQRJARBVAQwCQLwASsEA0AZAoQg5HRgJDRQOwQAAgkEMAAUcAdCgAASo/gRFMRwErPwFHSQYqABdHAAdMAHErAAQtP4EcLQAFT0QDLz8ISkUTsEAoEkBAE0A+E0A8J0A6OJAwOgwvAIENMkACMACBDDRGFjIAJbBAOE6QNAADSgASNT4KSEdcTwAtSAAHR0gPNz4SNQBwOUMINwADRwADRUZ7RQAHO0kbOQATQ0ozsEA2KJA7ACE8PBZNSyhDADSwQDAVQBkJkDwABT5CA7BAAAeQTQAGSkeBDz4ABUxJCTxFFEoAFUwAXzwAATtHgRs5Qws7AARCRmE5AB5CAAM3QwhDRoEoNkMBQwAFRUkONwCBBTQ+AEdLDTYAC0UAgQAyRwdITAI0ABpHADwyACxIAAkwPwlFUHhFABEwAAUvQQhHT4EMLUUCSE0KLwAfRwBwLQAOSk8CK0gcSABbsEAgCpAtRQkrAAtITQhKAHkvRQwtAAJKTxtIAGwwRAlMTQdKAAIvAAuwQBkRQABVkDAABkwAHjJFBUVRB0JJJbBAFBVARAFDHxJASwBDGxFDFRNDDwyQLU4FsEBNAUMIDJAyAAawQE8QkEIAA7BAUxVAWgJDAAKQRQAPsEBjFUBtEUB1IkB5C5AqSRYtAH8tSQoqAIEFsEBwBpAtAAuwQEQCkCZPD1RUArBAABiQVABuJgACKEeBGCpKDVFTB0pNCCgAE1EAAkoAbitKGioAgRMrAAYtSw1OVARIUA+wQDkSQEZskC9LES0AGU4AcC8AAS1MBE5UQU4ABkgAQk9WAitPB0gpDy0ABbBASAyQSAALTwAisEBDE0ApE0AAEpAqTwFRVARITwYrABFIAAxRAHgrPQ0qAIEPLUwBTk8GRU4DKwAlRQATTgBGLQAVL0mBKzBICEpTBEJNCy8AHbBARCVAQkCQMkYHMAAFsEBDK5BKAHAwRg4yABJKTQOwQEICkEIAcy9JC0xQA7BAQwSQSgADMABLTAAgsEA5EpAvAAKwQAADkC1REkhPAE5UVrBAIhNANBJAOBKQL0kATgAET1EBLQCBEzBKD1FOBi8ADE8AaTJMETAABE5RBlEAJkgAPLBAHgeQTgALsEAABZA0TAEyAA9PVwpHUgw0ACKwQCMRQD0VQEcEkEcADrBASh+QTFAFsEBIDpBPAC6wQEQPQCkKkEwACbBAADOQMFQPUVMGSFABsEAwBJAwABKwQEgUQFQiQGATQGgUQG0hkEgAD1EAGrBAcSZAeBFAfkmQMlQAT1sPRU8RMgAJTkcDsEBSBZBFAAhPAAewQAArkE4AB0UxB09MKk5QJU8AgRImUSUmAHpPVQ9OABBFAAxPAIFVT0wDK0IFR0iBL7BAExJANxVARhJAURRAXhJAbQFDChFAeQFDEhJAfwFDGRRDHRFDIQCQKwAGTwAOsEMnEUMzAJBHABSwQ0QTQ1YSQ2IUQ2oSQ3ESQ3cTQ3xNQHkTQG4TQGEUQFQRQEoUQEESQDYVQCcQQABEkEU+B0I9Aj4zIEUAAkIACz4AghtKRAg5OANCNwtFMBlCAAVFAAk5AABKAIIbSjoBNzMBTkMIRTZ+NkMJNwCBEjQ3CTYAgQA0AAoySyxKAGAyABJPSQM5SRVOAA45AHFORxZPAHhMSAk8QwewQCQBQ3gTQDcAkE4ABjwADbBAPhJAQgSQRQAPsEBGFEBJDZBMAAhKOR5KACywQEwkQE4AkENAFLBATAmQSj4IsEBEEpA7NgGwQDITQAAskE9FVrBAHBNANRNAPxNARA6QPDcDOwABsEBHEkBKD5BKAAOwQExNQE4ZkDwAAE8ADLBARgWQOzoESk0FQwAEsEAwFUAABpBKAGk7AAI5PYEXN0QAUz4DOQAESkEeUSkESgALUwADTw0VUQA3TwAENwAGOUKBJ09CBDs9BDkABUdDHE8AAkcAYDsAFTdCgSmwQBkGkExJAzw+BDcABkNEArBAMgFDcxFAOhNAPgFDbxJAPxNAQxFARw6QPAAAQwAGsEBKAUNrEpBMAAI+OxKwQ2MjQ15OQEgNkD4AATxBBE5NA0VLELBARhNAQwCQRQABsENZApBOAA+wQD8TQDoTQDYTQDMSQDACkDtGAk9QBDwAAkdGCrBAIQ+QTwABsEAAApBHACs7ADw5RQdRSwZIRxtRAAZIAGU7PAM5AIEZOwAfTkEHPDYURUAiRQAKTgBaPAAIOTqBJLBDXieQOykLTDoOOQAJQiw8sENiMJA7ABJMABJLOwqwQ2ZeQ2qBJ0AmDJAvKAWwQDYVQEETQEkDkEIAD7BAUBNAVhJAXBVAYhBAZxRAbBRAcGKQLwBGsEBgEkBRDJBHQgBLAAiwQEsmQE8mQFIVQFQSQFcbkEcAIkkxDrBAWyRAX05ATwqQQkQJsEA3AZBLQQhJAAiwQC0UQDkSQEUUQE0SQFEMkEIAFEsAGkw4EbBAVhJAXRVAZFGQTAAKsEBYEkBEA5A/SwFOQw+wQCUnQDQQQEIVQEkIkD8ACLBASzWQTzoITgCBAbBARxJAPgaQTkEHP0oGsEAtFUALFpBPAFFAPwE/AABMRQ5BRQpOACiwQABBkEwABkEAF0AAAEs+AUJROEIAT0sADUxCgRNMACY/UAVORi4/AFNOAApPSR6wQAk4QABCkE8AGTtMAlFEJ7BAIBNAMhNAPAOQOwAQsEBBFEBCH5BTNBFRABuwQER8kFFCAjtKA7BAQRZAPBNANQGQUwASsEAyTZBPSAs9TASwQDAJkDsAAVEAHLBALkqQTwAlP1IGTkcIPQAYPwBgTgAOT0Y7sEArFEAlE0AAJ5BPABY7UQRRTCE7AHFTTiFRAH5UTgs3RxtTAHBRTgJUAAk2QB43AHw3SgFRAAhTSw02AA5TAFw3AA45RoEeO0sGTEoEOQACQ0YTOwAJQwABTACCFy9FFE5MBkVLEy8ABrBADSuQRQAdTgAaS0klsEASNkAAU5A0QgRMShFDRAJLAD6wQBcSQCcTQDASQDUSQDkAkDQAAi9EErBAPBJAPhVAQBJAQRRDZgmQTAANQwAqK0gNLwAQsEBCS0NiJkBDCpAvSRIrAAuwQ14UQEcQQEsTQFAWQFULkC8ABLBATw+QKEoEsEAyD5BHUgOwQAADkENOIEMAB0cAWipIHigAeSoACitLHUxVAkdPHEcACkwAaC1JGisAgSZPUQEtAAEvRQNKTG6wQBkTQB8ekDA4B7BAJReQLwCBADJHEzAAObBAIUWQNEsDsEAaAkNaE5AyABOwQBZtkEoAAbBAEgJDVQSQNAACNUcKSEofTwAIsENROUNLIpBIABNHTgc3RBw1ABqwQ0dRkDlJBkVQCEcACDcAdTtLAUUAEENJCjkAcDsAGDxDB01PIUMAHbBAFkxACQGQPAADPkYDTQADSkwIsEAAgRKQPgABTEwFPEgkSgAYTABhO0oBPACBITlCB0JKEjsATTkAKEIAAjdGA0NLgRk2SAJDAAJFTAg3AIEENEUHR04GNgAbRQAEsENCJUM7FUM1NpAyRgVITwY0AAmwQzEMkEcAUjIALjBEBUVQA0gAgQJFAA4wAAQvRAGwQy0CkEdQgQ9ITQItQw8vABhHAGlKTQMtAAErSyFIAGwtRQUrAAJITAtKAIECL0UESlQLLQADSAASsEALFEAZE0AgWZAwSAFMTQJKABIvADiwQAA1kEwAEjAAHTJDDEJCAkdAfkVGE0cAAS0+DjIACLBAFhZALBBAPBRARwmQQgAKsEBSFEBeE0BrA5BFAAgqSActAAGwQHYSQH8CQyUPQyBMQxwNkC1PCSoAJbBDFzZDEy6QJlIHLQAOVFYJUUgUsEBoBJBRAABUAA2wQBMUQABVkChMAiYAgR8qTg1RWAhKTQooABxKAAFRADCwQw8skCtKIyoAgQArAAktTghOVgKwQAkDkEhNELBATxRAXgGQRzYSsEBnCJBHAEUvTxctACBOAGVIAABIJQ0tSwtOUwEvAD5OAFQrUANPUg9IAABIEwctABpIAAFPAFiwQFUFkCpSBlFRBrBAAACQSFIMKwAOSAAGUQBkK0oFKgCBHC1MBE5OB0VQCysAFUUAEU4APC0AHi9DgS0wShJKUAJCUAYvABWwQDITQFQRQF0TQxM1kDJMFDAALkoAczBGFEIAAkpQATIAgQMvSwFKAAUwAAJMUUiwQFgBkEwAE7BATxJALxJAAAiQLwAELVAMTlQBSE8zsEAhE0A5FEBDE0BFD5BOAAcvSQJPUAMtAFWwQEQTQD8SQDYTQCoDkEgAAEghBjBNA1FREi8ACbBAMAGQTwAKSAAHsEA1FEA5N0A7EZAyTgNRAAFOUBEwAAGwQDwhQD05QDsFkE4ABTIACbBAIRJAABeQNFAAT1YGR04bNAAUsEArFEBKE0BaFEBkHpBMTwlHAAhPADJMAA6wQFwVQEESQAASQw8bkDBTC7BAGgCQUVMCSFIQsEBFAJAwABSwQFgSQG8UQH8BQwpPkEgAEFEAI7BDAIEEkE9aAzJODEVTB7BAdgmQTlICMgAGsEBCBpBPAA2wQABGkE4AAk9UPU5QJE8AgRYmWSMmAIE1T1ERRQAOTgAPTwCCHStGB09OA0dLgR6wQwgQQDIUQD8iQEQRQEcUQEsCQw0RQFEBQxESQFgSQGEUQGoTQHIRQHkTQH6BTZBPABpHACYrAIJjsEMNgSZAehFATAJDCBJAADpDAAeQR08oRwB0SkUhSgBxT1UwTlAATwASsEBABJBOABGwQEMLkE9IBrBAADKQPkcrPgBOO0MeOwBYTwATNz8NUVEXNwADUQB9NkUFU1AdNgACsEAXAJBTAAtRRQawQEoUQDMSQAAKkFNQEzxFAFEAKFFRBDwACFMAYDlFBVEAAFESGjkAW1EAITY4Bk9MFTYAHU8AA1FSNzdLBrBAOgKQU1wOUQADsEAAEpA3ACawQwhZkDsxIDsAXDdBA1FJDFMAFTcAAFEAbzI3AVNOIzIABVMAWS9BDk9PArBATRNASQaQLSUALwALsEAqFEAAA5BPAAotACpPPg0ySCQyAGQvRBFKSQJPABQvAAdKAFYrRxhHUA0rABBHAGAwSwtMUg6wQDYJkDAACrBATSdASBNARBNAQhWQK0UjsEBBApArABGwQD4hQDsTQDcSQC0UQAAIkEhPAjRMAUwAHUgADDQAXzBIAEVUHjAAC0UATLBDDBCQMlULQlIMsEA0D5AyAAOwQEgSQEITQDAWQAAnkC1RLC0AWUIACjZPE0o/DDYAG0oARzJMBrBDEAyQRVAQMgAMsEMLBpBFAFewQw8OkDdMA7BAJwmQSEoMsEA/IUA8AJBIABWwQCcAQwkRQAAUQw40kEdMH0cAC7BDCidDDjOQNwALRU4CMkwbsEMIAJBFAAYyAEmwQw0YkEdPG0cAA7BDCGBDDBGQL0kIQ1UNsEAWDZAvAAWwQDENkEMABrBAABRDCEWQRVoeRQAzsEMMJkMQFpBHXQQyRguwQwwXkDIAAUcASLBDESiQSlwesEMNBJBKAEmwQxMpkCtPAk9ZHrBAFwKQKwATsEBGApBOSQxPAAGwQD8OkE4ABrBAAAJDGRJDHi+QPlAesEMYCZA+AB6wQxxLkDwnAzsvDrBDFRBDEACQOwACPAAnsEMXJkMbD5A3RQRRURSwQxYLkDcABlEAE7BDESdDFymQU1EFNkocsEMRAJBTAAM2AAxRSwWwQB0SQEEVQBcBQxgJkFNQBVQ/A7BAAAqQUQAHsEMdApA8SwZUAAxRUAZTAAk8AAOwQxcUQxNIQxglkDlCJ7BDEQGQOQA1sEMWDZBRACdPTgI2OB42AAqwQxAAkE8ADlFYGrBDFSaQU1wCUQACN0siNwAmsEMPJ0MUJ5A7QyI7ABOwQxA5QxQekDdDBVFQA1MAFjcAFlEADbBDEDdDFQKQMksJU1kbMgAaUwBXL0wKT1kJsEAmFEBGBpAvAC+wQEMUQD8RQD0dkDdQKjcAF7BAPEWQMkwGsEA4CZBRWAuwQDYIkDIACbBANAKQTwAbUQALsEAyQJAvSwpUWwGwQDATQCwCkC8AEbBAGwiQVAAKsEAAVZArSgqwQxkBkFNXHysALbBDFTuQL0UjLwBoMUkQTFUWMQABUwASTABsNEMGT1YgNAAITwBpKkQAUVQcsEAcBJAqABCwQCcSQClAkC1RIy0AbbBAJAuQMk4IR08TsEAaApBRABCwQBACkEcAJLBAADWQSlItSgAjMgBKKEwGT08sKABTK001KwB4LUkDSVAYTwAKLQAMSQBVTFUBMVEjMQAFTABAsEMZJpAyTwROVw+wQCARQDEGkDIADrBAOhJAPkmQNEEmNABNsEA9FEA7B5BOAAhKVgM2OwKwQDYTQCwTQCEBkDYAAEoAI7BAGRJAACKQMjkITlUfMgAJTgB2N0cEU1gbUwADNwBuNEMhNAB2NkMEUVYhNgAQUQBiMjwkMgBvT04DOUghOQADTwBvTkokTgBhT1IMLUAUTwATLQBqTFAcTACBAzI6ArBDFQSQSkcgMgABsEMLYJAtPSUtAGgqQCQqAGktPictAG6wQBQNkCZDBrBAQhNAUgqQJgAJsEBkFUB2AEMQEkB/VpBKAIE1R04MsEB1EJBHAAOwQEcSQABFkEpPGUoAgQNPRiNOUARPAAGwQBcBQxUSQCcBQxkSQAAFkE4AFj43Kz4AK7BDHSGQO0ohOwBnN00YUVIINwAXUQBxU1AENkoYUwAGNgANUUgDsEBFFEA9FUAAAUMkB5BTUhNRABM8SBRRSwuwQx4HkDwAB1MAFrBDIxmQUQAMsEMrAJBTUhw5TxpRNgI5AAtTAAmwQyYmQy05kE9QAlEABTZLGzYAAbBDJheQUU4CTwAPsEMsFEAZAUMxEEA3AUM1BJBTXAg3TwWwQAAGkFEAGzcABbBDLBVDJhNDKhJDLxRDMyCQO0MWsEMtDZA7AAawQyYnQys1kFFOAjdBAlMAIjcAArBDIgmQUQAMsEMdE0MiIkMmEUMqEZBTVQMyPySwQyIBkDIAC1MAQrBDJyGQT1AEsEBEDZAvJg8tGgiwQDkDQyERQBkDkC8AELBAABCQLQADsEMlEUATDpAyShqwQAkIkDIAC7BAAAFDIDdACRRDJQyQL0kEsEAAEJBKTQhPAAQvAA5KABKwQx82QyQWkCtJFEdPDSsADUcAHLBDHSVDIiSQMEwSTFICsEA7DpAwAAWwQFMUQF0ekEwALrBAYwFDJgKQK0sRsEBoDpArAASwQGw0QHIBQyERQHYVQH4BQyUlkDRRCUxOG7BAbwWQNAAOsEBBB5BMAAywQAAJkEpPHrBDKQOQSEwFSgAZSAABMDoTMjEHR1IHMAAcRwABMgAisEApBpBFWQywQD0GkDJPD7BAAAFDLRGQMgB3MiwlMgAPRQA9SlIeNkoaSgAHNgBQRVQiRQAEsEMxapA3TAZITQSwQDAUQE8ZkEgABrBDNhRARRVAPxJAQRNARgFDMQuQR1ADsEBMFkBOFEBMApBHABCwQEo6QE0ZkDcABTJOAEVHBrBARRNAAAaQRQADMgBoR0YdRwB1L08LQ08VLwAKQwBfRVUfRQBzR1gBMkkfMgAMRwBoSlgeSgB7T1QCK1AhTwACKwADsEA9AJBOTwKwQzYTQDoGkE4AC7BAABKQT1I3PlAVsEM7FZA+AFI7TSA7AG1PAANRTgI3Sx43AAZRAGpTVQE2UCE2AAdTAAxRSAawQEUXQEgKkFNOCLBAABGQUQASPEgQUVIDUwAQPABzUQAAUTEMOUsdOQBSUQAoT08BNkYgNgAQTwAJUVI6U10JN1EdUQANNwBqO0gfOwB3N0IDUwACUVAaNwAYUQBLMksGU1UeMgANUwBjL08EsEAhAZBPVxSwQD4XkC8ACbBARRNASRRASyRATxNAUwmQN1kIsEBbFUBnAkM/DZA3AAOwQHQVQH5GkDJSBLBAXhGQUVYDsEAZA0NDB5AyAAiwQAAAkE8AHVEAL7BDSBmQL1ETVFYLLwAlVABPK00PU1QeKwBpL0wdLwB0MUoMTE8PUwAKMQAJTAB1NEcAT04iTwABNABvUUoGKkkesEAWBZAqAAqwQCIUQBYSQAA4kC1LHi0AejJFCUdOF1EABUcAbEpSMEoAKTIARE9TAyhGKigAUitLTisAXy1PBklUGU8ACi0AE0kAVExYAzFVKDEAAUwAcDJPAE5ZJLBAJBJAOQGQMgARsEA/J0A9FJA0ViE0ABawQD5OkE4AGkpXAzZKHjYAB0oALLBAOxRAMg2QMlMGsEASEJBOWQOwQAAOkDIAJU4AYzdPC1NZFjcAFFMAYzRKJDQAeDZIClFWGzYAF1EAWTJGIzIAejlPBE9PGjkADU8AaU5KIk4AgQJPTgItSR9PAActAGNMTB1MAIEIMjwDSkIkMgBsLT4kLQBpKj4lKgByLUEgLQCBD7BAMiFAQAaQJjINsEBIFEBRE0BcEUBoD5BKAAOwQHMMkCYACLBAexJAfxRDTHJDUUpAcBNAShNAAAJDVQWQUVYqUQBpTlIVTgCBAEpSFLBALhFAQRJANxZAKBJAHSRALhRANQCQPjwlsEAzBpA+AF05QSU5AGJKAA02Qw9MQhCwQDcCkDYAEbBAPQGQTAASsEBEB5BOTQ2wQEcAQ1ESQEEUQAADkE4ABTJHCU9TGjIAKE8AA05TNDlPCE4AAU9OGjkAHE5QFE8ALTZSHDYAfTJKEUxLAE4AETIAKkwACk5VMS9SA04AE09TIS8AbTtJHzsAgQA3LQQ1Mh83AAU1AFAyQSgyAGcvRygvAGIyTCcyAE1PABovRANKUB4vAAZKAGMrSw5PUh0rAAFPAH6wQD4DkC1MCVRRBrBATBSQLQBwMEQvMAAwsEBEFUAsEUAADJAtSRFLUgBUABYtABtLAE8qSAdOVR8qAAlOAGQrSxJTUhOwQBoDkCsAELBARBNARyVARTaQLzopLwBuK0cTsEBDAJBMTgBTABOwQD0BkCsADkwAArBAHhJAAFGQKDkBT0kkTwABKABoTkwHL0cgLwANTgBdTEgnTAByMUkBS04nMQAGSwBlSUwhSQCBATNHFLBAEACQR0gTsEA2C5AzAAawQD0WQD4BQ00RQD8SQEETQEIBQ0kTQEQHkDZEIzYARbBAQRVALxJAAAaQO0QIUVAURwAHOwAUUQBYM0sGTk0fMwAVTgBhNE4QR0YiNAADsEA6FEBBVZA4RiM4AB+wQDwTQDQUQCoCkEcAD7BAJBNACQqQO0IBUE0IsEAAGpA7AB1QAFIyRwhMTjIyAAlMACWwQ00ykDFQB7BAPQiQRlAMsEBBE0A8BJAxAA+wQDlLQDsakDQzIjQANbBAORRANhNAMhNAMAaQOkoHT04BRgADsEAuFEAfDpBOFAOwQAAJkE4AAk8ACDoAUExKBzFLLDEAA0wAbDNEAkVOFLBAMAyQMwAHsEA+E0A8WJA2SB42AFawQDkmQDQNkDlGBU5PAbBAMA6QRQAEsEAoCZA5AAuwQB4PkE4ABLBAExVACw9AACqQS1AJPEUSSwAPPABlO0cQRFQUOwAHsEA0E0A6SkNJCpA0Ti40AGCwQDgHkEQAAThNDLBALgWQTVANsEAADpA4ABlNAGQ7TwZLVBg7ACBLAFY8UARMWBs8AAVMAHpAQCJAAHZOUwI8PyE8AA9OAGI5PSQ5AHBHUAw7ShdHAAM7AIImS00TLz8EMDoaSwAILwAAMACCB0xMAzQ3KjQAZy9HIy8AcStDISsAaS9EJi8AgScoNQ6wQDYSQEgLkEwACLBAUhNAWxNAYxRAZ3qQKAAusENNE0BaFEA8E0AAD5BPVDFPAGZMUiBMAHlHUAKwQDQTQDISQCwTQCk5QCwfkEBBNkAATrBAMBNAMwWQOz4OsEA2FEA6A5A7AA6wQD0TQD8UQEETQEMekDc/B7BARQOQSFAERwAVNwAFSAAXsEBHJ0BME0BREUBVDpA0TAOwQE0FkEpQEbBAGgqQSgAENAAEsEAAEJBISi9KUBhIABA3TA9ITRJKAAI3AGQwRiYwAF5IABY0RwpHTRQ0AApHABFITQWwQCcSQBojQAAZkC9QA0pYA0gAKS8AcDtEIjsAY0oACjdDD0dOFzcADUcAVzJFF0pHDDIAC0gxCEoAGUgAPS9JFE9QD7BAMQCQLwAUsEBKFEBFEkArE0AAMJAySx8yAIECU00GKzMUTwADKTIZUwADKwAOKQBQL0cDT1MfLwANTwBhME0PTEwSMAAHsEAyE0A3E0AmAUNREUAAMpA0UCE0AIEINUYPRUwFTAAWRQAWsENWXpBIUCdIAAs1AGAvSRBKTRcvAIEIMkMbMgCBCERKBDRDJUoAA0QAXkdPLkcANzQAPy1FAkhJFbBAJxRANheQLQANsEA0EkAxKpAwPhCwQDUvkDAAHLBAMhJAKBVAABKQR0gGSAABNEMcRwAINAB9SEkHNz8YSAALNwBvNjgOsEAZBJBFQBQ2AA6wQCgVQDYSQD4TQEItkDk+KTkAQbBAPxJAOhNALxNAAAKQSkgBNj0RRQAPSgAFNgBiMjwKRUwWsENSBZBFAAIyAGmwQCQMkDdDB7BAPQ6QR0kGsEBCC5A3AAWwQEQVQEcSQEkSkEcAArBASz2QMjsORykcMgA/sEBIAkNWD0BED5AvQwSwQD0UQDoGkEcACkNGArBAOAKQLwASsEAvCZBDAAuwQABZkEdRBjJEHUcABTIAaStQCkxSJSsAArBAPRJAR0pDUhKQLzkQMDQTLwAQMAAcsEBFEkA+FUAuAUNNEUAAAUNJBJA0SApPTwlMAA40ABdPAF43SRVHUxc3AAFHADuwQ0VJQDUAkDlJEkhSA7BASQFDPhJATQmQOQBEsEM4E0M0E0MsA5A0QA6wQyYUkDQAE7BDIiVDGhJDEyZASgKQSAAHRVMFMDQDLzICsEBGFEBBCZBFAAQwAAQvAAGwQDYVQCIBQw8QQBQTQAAfkDRJAkhWHzQAD0gAYC1QCU5XGLBAMBFAPACQLQAEsEMTEUBBEkBEFEMXEkBGFpAwTxCwQEgUkDAARrBDHCZAQxCQNk0CsEA3CpBRUgqwQAAAkE4ADzYAHFEAWjlIBUhYHTkAA0gAgQI7TgVKXA+wQEYTQFMBQyEKkDsABrBAWU2QN0okNwBNsEMdJJAyTwlKAAywQFQHkEdUC7BAPwaQMgAMsEAAC5BHAGA3TwNKWBo3ABBKAHIvVhJPWBGwQCQTQEMDQxgAkC8AELBARyRASgFDHC6QMk8LsEMYF5AyAA6wQE0lQE84kDdPClNWC7BARQWQTwAGNwAGsEAfE0AABJBTADSwQx8mkE9XATtPHTsAEE8AILBDJRJDKz6QPlIJUVUFsEA1AUMnEkBME0BSAUMtWZA+AASwQFAAQygFkE9QAlEABUBMG7BARRBAIQKQQAAFTwANsEAAAkMtRUMpFJA+TglOUhU+ABROAFc8Tw5MWBc8AAlMAG07UQ5KVQ+wQCoFkDsAD7BAQxNARSRARDKQPlEhPgALsEBCE0A+E0A3FEArEJBKAAGwQBcVQAAGkDtNBk9OGzsABE8AZzdPCEpWGTcAE0oAZrBAMQeQMFADTFcKsEBMIkBOCpAwAAawQEsBQy0UQEYQQEEUQD8SQykRkDRSA7BAORVAKAuQNAAGsEAAAEMtbpA2UQVFUAJMABtFAAI2AHU5SgFIUx1IAAU5AHtKVwktOQQvORSwQBwNkC0AAy8AArBAMxJALhJAIhRACxJAAA6QMlIfMgCBADdUCUBQFUoAB0AAgQFDVB1DACk3ACiwQzEnQDYGkC1LCEhSA7BANBNAFw2QLQAFsEAAYpAwSiQwAH8yTANCUgtIABYyAA5CAGNFVAM2TxxFAAE2AHo3TQSwQysBkEdUELBANxVATQGQNwARsEBYFEBcR0MnDZAyQAWwQGEckDIAHrBAZilAahKQRwAXL0kDQ1MdsEBeA5BDAAMvAAuwQEIEQysOQABRkEdRATJIH0cAAjIAbjdKAkpDC0hIFkoAAkgAAjcAAbBDL19DKwCQMkkMR1IRMgAFRwAXsEMvOEMrGpAvURJPWA4vABBPABWwQEIBQy8TQFgQQG8VQH8ekCtRLysAdjJSAEhcI0gAEUdQDbBAbhRAPQuQSCIHsEAAOEM0IpBIACuwQzBbkDIABUcAAUVTECZPHEUABCYAF7BDNE5DLh2QQ1gZsEMzD5BDACqwQy9rkENWBitIgSewQypyQyUUQyFJQx0PkC9IA7BDGBRDExGQLwAWsEMPcEMAEJAyRiUyAIFCsEAqCpA3RwewQEIDkCsAELBATQSQNwAPsEBaA5BDAA+wQG4TQH+CUkBcCpBRWAewQCITQAAWkFEAgQBOWSdOAIESSlMYsEAfE0BHE0BMOEBJF5A+SCo+ADGwQEcxkDk/CLBARRiQOQCBAUoABzY/BkxEHjYABrBASg+QTAAGsEBNCJBOTx6wQEQTQAANkDJLA04ACk9QGjIAKE5QAU8AFLBDCB2QOU4STgAMT0wEOQAsTk0LTwAmNlEUT04BTgAINgABsEAWF0AsAUMMEEA3EpBPAARORw6wQDECQxAlQDYRkDJDAbBAPAiQTEMMsEBCFEBBCZAyAAqwQC8RQAAEkEwAH09PCU4ACS9QMC8ADLBDFVCQO0gjOwAlsEMaT5A3SiY3AHIyPCEyAGovRRewQD4RkC8AAbBAQhVAMBJAAEeQMkYiMgBMTwAgL0EFSlEaLwAHSgBjK0oJT1MgTwABKwACsEMebpAtSxBUVQiwQEANkC0ABbBAUSJAXRJAZxRAazWQMEgrMABeVAAFLUsNsEBlA5BLURCwQEsIkC0ABksABLBAAFuQTlIEKkMjKgADTgBsK0cMU1AXKwAGsEAvFkBGEkBJOEBLEZAvRCcvAF8rSAGwQyIMkFMABkxMDCsAFUwAGLBDHkdDIgeQKEkMT1EcKAABTwAHsEBEFUAbE0AAR5BOTwMvSxWwQB0SQDYTQDsSQD4EkE9IAk4APS8AEE5TDLBAPwiQTwAMsEBAFEBCDZBOAAOwQEcAkEw9ErBASxVDJhJAQhNAAACQMU4CS1ACTAAdMQAssEA5CJBMRwJLAAawQEsWQE0BQy4SQEcQQEEHkEtKDbBAPBJAQQCQTAAVsEBGFJBJRgNLAA2wQEETQCgUQAAXkEkAAkdMDDNBFLBAJw6QMwAGsEA8EkBCEUA/FEA7FEA8EkBAHJA2QAWwQEQSQEYKkDYAHLBARBRAQhNAQSdAQg6QOzkEsEBAAJBRSxKwQDcEkEcADTsAC1EACrBAAE6QM0AITkogMwAYTgBkNEIDsEAkEUA0AJBHQhSwQD4GkDQADrBARhJATBNAUhJAVxRAXB+QODkFsEBgJZA4AFJHABCwQFwKkDs8CVBME7BAVgyQOwAEsEBPFkBCBJBQAA+wQC4RQAAjkDJCB0xKUjIAL0wAMUZNAjFFJrBAFhVAKwaQMQALsEAuFUAwEUAyE0A2BJA0Pw6wQDoUQD0JkDQAVrBAPB+QOkkQT0wXRgAEsEA6BZA6AA9PABhOFQFOACGwQDgckExPBzFGFrBANhJAMxFAKwKQMQAHTAAKsEAAUpAzQglFSyozACewQBsSQCwSQDQSQDcDkDZEJzYAgRQ5QgBOSRdFAA05AANOAA2wQDVMQDIKkEtLDTw8D7BALAyQSwAEsEAfCJA8AA6wQABakDs6DURJDzsADrBAKBJAORNAQxNARziQND0xNABqTUsGOEACRAAHsEBEE0BDApA4ABVNAA6wQEIUQEESQD8UQDwLkDtDAktLBrBAOBNANASQOwAQsEAsBpBLAAywQABnkDxGBUxNFbBAIAJDMwSQPAAJTAAFsEA3EkBDFEBJP5BARh2wQEYGkEAAILBAQxJAQhVAQRJAPxRAOQGQPEAJTk8IsEAnDZA8AASwQAARkE4AWTlIHzkAcTtNBEdFDLBAOBCQOwACsEBDBZBHAEawQEJKkElGKLBAQQCQSQASsEA8AJBLShSwQCAVQAAtkEsAAi84A0xKIS8ALkwAAUtNIbBDOjCQSUwCSwA2SQABS0BNTFEBND8BSwAoNABzL0IgLwCBAis4IysAcS8yJi8AgTKwQz4XkCgzD7BAJxFAORRAQRNARhCQTAAEsEBKE0BQEkBXFEBeFEBkEEBqEkBxFUB3PZAoADOwQGsUQFgUQDkRQAAVkE9IIk8Ad0xHI0wAfkdFgRZAOzNAAGM7PBk7AHQ3OwFIQwNHAB5IAAI3ACCwQBwVQCwSQDcUQD0SQDoFkEpHCjQyA7BAABaQSgAPNAADSEctSkMJSAAnN0ABSEwOSgAVsEM6AJA3AChIABOwQz4mkEg9ATBGIjAAArBDOjpDPjOQSAAINEYLR0gXNAADRwAKSEcusEAeH0AADpBIAANKVAkvTDMvAGs7QiQ7AEhKABc3RAWwQzoGkEdUFjcAE0cAXDJHCEpYHzIADUoAXC9JE09SFbBAKweQLwAMsEBDFEBBEUA8EkA2FUAxEUAzBpAySgywQDgVkDIAJLBANlGQU1AKTwAEsEAyFJArLQwpKgKwQC0MkFMACLBAJAmQKwAIsEAgFJApACWwQAATkC9AAk9JD01KDy8ABk0AAU8AdzA2BExCCbBANACQTTcRsEBBB5AwAAywQz8LkE0AB7BAPhVAOzaQNFACsEA8AkM6G5A0AAuwQz5cQDkTQCoGkEVOBjVEB7BAAAaQTAANRQB3SFAgNQACSABvL0kBsEAWC5BKTwewQCcVQB8EkC8ADrBAGXKQMkciMgCBArBAAAKQNEwBRE8KSgAWRAB+R0ggRwCBAy1JAEpREjQATi0AMzA/DkhMBUoAIDAAAkgAazQ7AkdLIUcABzQAckhPDDc8EkgAFDcAV7BDOQ2QNkUFRUwdNgAHsEA8E0BGE0BIOUM1DJA5SCo5AGk2SwywQEYFkEpKCkUAArBAPAWQNgANsEAABJBKAGUyQAhFUhlFAAQyAG03TQ1HUAGwQEIBQzkTQE0JkEcACDcABLBAUhFAVBRAVzNAXQ+QMksiMgBiL08WsEM9D5BDSAUvABhFUwFDABxFAAKwQE8ekEdSCbBAABSQRwAOMjogMgAESFA3SAADSlAbsEANApArTQ6wQDEAQ0EEkExdC0oAAbBAIA6QKwAGsEAaFUAeEkApEkA0EkA6I5AvPiIvAFOwQDISQAASkDQ9AUwACE9OGTQABU8AaTc9A0dUFkcACjcAfTlLEEheErBAPAuQOQAHSAABsEBOE0BWFEBbEkBgIJA0SQSwQGYgkDQAYzBSHkVJCzAADUdWBkUAMEcAB7BAXQeQSFQOsEA8D5BIAAKwQAAEkEowBzRJITQADUw8E7BDRxyQSgAdTAAATAoLLVMDTlwFsEBBEUBTC5BMAAiwQFoIkC0ADLBDTRNAVxJDUjlDTQCQMEglMABvsEBNAZA2RwtRUAVOAAGwQDITQAAEkDYACFEAZjlDBkhWHEgAAjkAeDtLCkpgFrBAPA+QOwABSgAGsEBSEEBfE0BpFEBvH5A3TyI3AGIyUStHQgUyAAhIWBZHACBIAAtKUBxKAAw3SA6wQGsPkExNA7BAUwKQNwASsEAAI5BOUAdMADIvVwOwQDMBQ1EBkE9bErBAQgSQTgAcsEBKCJAvAAywQE43QFAxkDJKJjIAYlNPA7BARwCQTwAEN0QSsEAaCpBTAAQ3AAOwQABskE9WBDtHG08AAjsAerBAJAKQPkoKUVcIsEBIE0BNTkBPE5A+ABGwQFIFkEBGDrBAVAiQT0oLsEBXB5BRAAdAAAdPABGwQE0RQCgVQAAakD5IEk5XGT4AGk4AYjxJDkxZFDwADUwAZTtOD0pYEbBAIQOQOwARsEA2EkA9E0BDE0BGJUBICpA+UAewQ00VQEoRkD4AFrBATSVATx6QSgAHsEBSAZA7ShWwQFUEkE9XDzsAD7BAShKQTwACsEAgEkAAQJA3SghKXxk3AA1KADywQ0kSQ0ISQzwRkExcAjBNFLBARhRAVQmQMAALsEBbAkM2EUMrEkMcIUMPHpA0UhuwQwsHkDQAMrBAUxJASxFAQRRANAeQNk8BRVYKsEAbBJBMABCwQAAAkDYADUUAZzlLD0hQETkACkgAAkc3IUcASLBAHwGQL0sSsEBFA5BKUBCwQE8DkC8AEbBAVxFAXEyQMlUdMgBpsEBYEkBCBJA3VglATwSwQAAPkEoAD0AAgQlDUxlDACY3AEWwQDISQEEAkC1OA0hTEbBAPxNAPQeQLQBXsEA8B5AwTywwAFKwQDoUQDgKkDJMBEJUBLBANQuQSAAGsEAxC5AyAAmwQCkBkEIAErBAAFiQNlIHRVcZNgAPRQBwN00JR04IsEA5BpBISg2wQFMJkDcABEgAA7BAZBVAcRRAeDaQMk80MgBVRwAcL00IQ1UOsEBtE0BNA5AvAANDAA2wQABbkDJQCkdYFDIAEkcAaDdKCkpYHzcAEkoAUTJODkdXFDIAF0cAYS9SEU9YES8AFLBAMwiQTwAMsEBHEEBQFUBYEUBgFUBnCpArVwWwQGsgkCsAULBAcBNAdRRAfBOQSFwEMlUxSAADsEBjDZBHUgWwQCASQAAYkEhSS0gAgT0mUgZFTARHAAFDTgsyAA9DAABFAAEmAIElsEMACZBDWyhDAIFcK00hQ1aEBi9MNC8AgiAyTzEyAINiN0OBGLBAIxJALxRANRJAORNAPhNARBNASRRATxNAVRJAXhRAaBFAcxNAfopRkCsAgkywQHglQHIhkDcAA7BAaRNAYgSQQwARsEBaEkBTFEBOE0BJEkBGXEBEFEBDAUMIJUBBE0A/I0A+EkA9J0A5EkA3J0A1N0AyJkAwE0AuE0ArE0AkFEAbEEAWFEASE0ANFEAJEEAAhFpACSdADyVAE4EWQBeEVZBKNoFQsEASE0ALFEAAOZBHOwZKAIEjsEAcE0A0D5BHAAKwQEITQEoVQFASQFQTQFcoQFwRQGERQGWCBJBFPRqwQFwRQE0RQD0WQCgQQBeBcJBDMAVFAIFNsEAbc0AggkaQPjaBf7BAGi+QPgAHsEAJFUAAEJA7PHWwQCITQDcTQEMRQEsCkDsAErBAUhNAWBNAXDpAWBNAVRFAUSZAThNATBFASRNARhRARCVAQyhAQRJAPxRAPhFAPRVAPCVAORBANwiQOS4MsEA1E0AyE0AwI0AsE0AqTEAogUeQOQAONy2BIrBAJF9AHRRACxNAAF9ACxJAIRRALhNAOBNAPhBAQxVARYEOkEVADjY4DzcALkMABLBASCVASxOQNgACsEBOEUBRFEBUE0BYJkBdWZBHSBdFAAGwQFADkDc5EbBAQhJAMhNAKUSQNwACOzhuOwAUPjt7PgAVQzFIQwA+RwAgRTsFQjRosEMMgSpDEHFDFF5DGCZAK19DHIIekC01gkItACgqPAmwQCgUQB0SQACBEpAqAAOwQCAUQDcTQEETQEcUQElMQEdLQEVJQEQ5QENLQEIPkCgrBLBAQRNAPyBAPhRAPRNAPCRAOidANxJANSVAMhNAMBNALBNAJBRAExNAAHSQJiILKABTsEAcEEAwFEA+EkBIEkBRE0BZE0BgApBCAAFFABGwQGUSQGklQG6CKUBqJ0BkE0BeAZBHQgQmAA+wQFgQkDIwAUMwAbBAUhRATRNAShNARyRARBRAQkxAQSVAPxNAPQOQQwAQsEA7EkA4CJAyAAywQC4EkEhJBEcACDAyA7BACwCQRT0SsEAAgRZAEhVAIBNAKxFAMRNANCdAN4JQQDAHkC81BUpHB7BAGQaQSAAOsEAAAZAwAIETsEAmFEA2EkA+FEBEE0BGJkBKJEBNJkBPJ0BSE0BUJUBXcEBVFEBME0A8FEAABZA0NxdDQw1FABZKAAywQCYSQDgVQEISQEkRQE4UQFISQFYdkC8AF7BAW01AXxmQT06COrBAWwyQTEcJsEBTAJAwNABPABKwQD8PkDQAArBAAExAGhRAOhNASBNAUhNAXBNAZRFAbhRAc4IXQHdkkEpEBC02B0wAFrBAaQiQMAALsEBRA0MgC5BKAAOwQDUSkEhBAbBAEgyQLQAZMCIBsEAdEkAiA5BKRgRIADtINgVKADMvOwkwAIEDLwAFLTZ3LQAMsEMkBJBDABhCPxMyJ4I4R0ACSACCPLBAHAqQRwAESDsBMgAEsEANA5AmKQ6wQABfkEgACkVCQbBDKDlADxRALRFAPQKQR0ESsEBIEkBQCJBFAAqwQFoOkEIABbBAYxNAawBDLAiQRwALsEBxJ0B2gUqQJgABsEBuAJBIRQQrOg+wQFoJkEMqC7BAQhNAIRRAGRJAIhFAKxNAMhRANAaQSAAoRzcwRwAcSD8fsEAyA5BIAAVHSFGwQDAkQC0VQColQCITQBwUQBMSQABSkC84JysAC7BAEhJAJBRAMBNANwaQLwANsEA6FEA+EkBBEUBCFEBDgSCQRwACRTkKQwB/sEBCgRhAQRJAPhJANxNAIBOQMi0BsEAAAJBFAAhDMGiwQCEUQDsTQEcIkDIAC7BAURJAWxJAZg2QQwAHsEBvEkB1JUB7g0SQOycyNyUVPjICsEB2JkBuFkBnEUBfA5BDMxCwQFMSQEQTQC8UQAkSQABKQAkVQB4SQC8UQDwSQEQSQEoTQE8VQFMRQFgJkDsACbBAXRRAYRNAZhFAahVAbgiQPgAJQwAVsEB0g0GQNwBxsEBwFEBmEkBaCpBHSwewQFMoQFYmQF0SQGEmQGZWkEcALbBAa0GQSlINsEBgEUBME0AwE0AbAUMoEUAlFEA4E0BFIUBQE0BdE0BsE0B6E0B/E5BKAIMMT1AmsEByE0BQCpBOUgJPAAawQCQUQAATQBcNkE4AA7BAMhCQT1ADsEBBFkBKEkBQRJArOoESLUIDKwA9sEBOJkBKFEBHE0BFCpAvPgYtAE6wQEQTQEMukC8AAjBCcTAAHDJFgQ40SAhRThIyABBPAGSwQEENkDZABbBAQAWQNAAMsEA+E0A8FUA4EkAzE0ArE0AdE0AAF5A3QxY2AAZTSChRAF03AAo7OzGwQCgSQD4SQEwNkFMABbBAWBRAaA+QOwADsEB2AZA5RBOwQH8+kDkATTdHMzcAgUU3PwmwQHYBkEpLEbBAZQWQRUIFQEEIsEBPFUA4I0AAgmiQSUUASgCBAbBADRNANA6QQAAFsEBFAJBFABOwQFITQGATQG4KkEkACLBAeRRAf4FKkDcAIzs5CLBAexNAcxJAZhRAWhNAUhFATx+QTE0BOT8AOwAGsEBSOkBUJ0BWLJA3RQs5AIEeNwAJsEBPApA2QANRTg6wQDsIkEwACrBAAGOQNgAdNz8DsEAdE0A0FEA+EUBFE0BJE0BME0BOJJA0PwGwQFEVQFMVkDcAEbBAVyVAWz2QNAA1sEBfgQNAVxNARxNAAAuQNjsKS0VFUQBMsEANEJBLAAGwQCcWQDMAkExMEbBAOxRAPxNAQSZAQg2QTAAYsEBDCJA2AAFOTQuwQERrkE4AB09RJLBARnJAQQ6QTwAEsEA2A5BRUAEzPA6wQACBCpBUSglRAASwQBkWQC0RQDcUQD4QQEITQEQBkDMAN1NJDFQAeFFJBVMAfrBAQRVAOg6QUQABsEAgEJBPRQewQAAJkC8yb08ACLBAJweQUUMOsEA1EkA9FEBBEkBDFEBERZBRAAdORDewQEMkQEINkC8ABbBAQSdAP4EsQD4lQD0SkE9CA7BAPASQTgAOsEA6EUA3FEAzE0AtE0AmIEAhLJA0LQ6wQCoTQDIUQDcTQDpGkDQAGDcwdzcADTY8gQs2AAU0P4ESMkAANACBGTIAATE8CExAW0wARjJAFzEAc7BAOBCQMgACsEAyDZA0NwWwQCcKkEk8CrBAAF9AGRFALgaQSQAOsEA7AJAxOwY0AA6wQEISQEVjkDI9HDEAbDIADjQ/gROwQEQSQEITQEAKkCoxBEc2A7BAPhVAPBNAOBRAMAaQNAAMsEAlE0AhggCQLTYBRTUORwBGLQCBJbBAJUiQLz5LLwCBcExDCU8ADTEyGbBAKCqQTAAHMQCBQLBAIydAHiRAGQuQTj8WMiErsEAkEkAxE0A8E0BEE0BJFEBPBZBFAAFOAA6wQFQRQFoTQGITQGwUQHYSQH4hkDIACzQ5gg40AGawQHQWkEU5C7BAYwaQQzYDNiwLsEBQEkBBFEA5W5BFABJDAAU2AAsqAIMSsEA3J0AwEkAhFUAAJZArLQlHMwhCNXGwQCYVQDwOkCsAA7BARweQQgAIRwADsEBNNkBFEkA3FEAJFUAAg0GQSTIbLSwDQCWBD7BAKguQLQAEQAABsEA9BJBJABCwQEYUQEkTQEYSQEESQDoTQDaBJkA0XkAyJkAwTkAugQNAMBJAMxNANwOQSjMQsEA8AZBFKwVCJwQyKwqwQEITQEYUQEoQQFAUQFgUQGMRQHARQH03kDIAhHCwQHclQG8RQGgWQF4RQFMUQEcSQD4UQDpeQDgDkC00Yi0AglYqJoEJsEA6MpAqABuwQDiFS5AmH4EBsEA6OkA8EkA+FEBBEkBFFEBHEUBKFEBOE0BSEkBXEkBdFkBjEUBqE0BxE0B1J0B6DpBCAFJFAAhKAB8mAII+sEB2WkByN0BsJ0BoJkBkJkBfJUBYEkBUFEBQFEBLEUBGE0BDEkBCC5BKPy6wQEEnQD8UQD0kQDsmQDcSQDUnQDISQDATQCwTQCgUQCQTQCARQBkPkEdBArBAAAuQSgCBELBADRJANBJARA+QRwAEsEBRIkBdFUBoEUBxFUB2gz2QRT4GsEBxFEBoEUBbEkBNFEBDFEA9gU9APII9QDpLQDcIkEM0AkUACLBAMRRAKBVAIYIIkD49gl07QhY+AD6wQBxgkDsAELBAFzlAEyVAD4E9QAuBfpA5MYUdOQAdNy2BarBDJBNAADyQRUkXNjMLQwApNwAQsEALEkArEUA8E0BHEkBQFkBZB5A2ABqwQGISQGaBCJBHRg6wQGAFkDc3AkUADrBAWRJAURNASRRAQhJAOxRANwqQOzYCNwBjsEA1HJA7AAE+Oh6wQDNqkD4AFUM1R0MAV0cAHUU9BkIyEbBAMYEIQC+BEEAthTiQLS2CSS0AIyoxDrBAKiVAI4EbkCoAg2ooLINhsEAoEkAtFEAyEkA4FEA9EkBAEkBCDpBCAAWwQEQTQEYJkEUAC7BASRNATRJAUBNAVBNAVwiQJicTKAAKsEBdKEBjgV5AXQyQRz8FsEBYB5AmAAUyNAiwQFMAkEMwE7BAThJASRRARRNAQxNAQiRAQSZAQBRAPydAPiRAPRNAPBRAORJANAKQQwAMSEkDsEApBJAwMAFFPgEyAApHAAOwQBQUQACBKkAJE0AWJUAcJ0AkJkAqJkAtgXFAKxVAJguQLzkFsEAZDpAwAANKRwGwQAAJkEgAgUmwQBkTQCYSQC8TQDYRQDoTQD4UQEETQEImQENLQEWBBEA+FEAuE0AAEJA0NyJKAAWwQBcAkENKAkUAErBAMhNAQRGQLwACsEBKEUBRFEBYEkBfFUBmEkBqgSiQT1GBYrBAZSRAYBNAXBRAVRFARBVAEwmQNAAGMDcBsEAAApBMTCNPAE6wQB0TQDcSQEMTQEwTQFIUQFgSQF0UQGESQGUTQGmBF0BtgRNAciVAdidAbQ+QSkYDsEBYDpAtNAJMAAOwQDkTQAAKkDAAGkoAD0g6Ii0AFDAkAUpABEgAUUhGCEoAJjAAAi9CgQMtPAMvAIEJLQAFQwAQQj4SMjaCQUgACEdCglsmLwNHAANIPhYyAGhIAA5FPYEXR0QCsEASFEA4E0BHAZBFABGwQFIUQFwEkEIADrBAZhNAbhiQRwALsEB1E0B5E0MoFEB+gQiQJgAMSEkBsEBuDpArMwawQFYBkEMuEbBAPhRALCVANRJAOxVAPS6QSAAaRzw3RwATSEQCsEA6FUA4H5BIAANHRAGwQDYUQDQUQDBdQC48QCoRQB0SQABhkC8zFCsAD7BAFxRAMyJAQRNARiOQLwCBTEMAB0U/EUcAgi+wQEMTQDsRQCUJkDIxDLBAAAOQRQAIQzhAsEAeE0A4AkMuEUBHAUMyEUBSE0BdAkM4DZAyAAOwQGgUQHEUQHYRQzwhkEMABbBAehNDQINokDcwgQhDOBCwQHUiQG8pQGkNkDswEEMAHLBAZSKQPDYVsEBeJkBXEkBTEZA+PgGwQE8FkDwAD7BAShNARRNAQhqQQzwIsEBAFUA+EUA5E0AwEkAkE0APE0AAOkAJEUAlE0A3FEBBE0BJE0BQE0BXCpA7AAmwQF8SQGcSQG4UQHQHkD4ADbBAeRFAfRCQQwCCazcARUdLUbBDPFeQRwADsEM4JkMzJ0MrJUMmJUMiFEBmCZBKUwmwQEgUQDQTQDgBQx0SQEMSQE8TQGETQHoTQH8lQxgQkEoAT7BDFDhDEDlDC4F9kE86Dk4yBE1BDLBAYQyQTQAGsEA6IkAAAJBOAABOKwNPADewQC8SQEAJkE9PB04AArBASBRASkmQKzuBDysAAi07QbBASEOQLz4CLQBSsEBGSZAwQgQvAG0wABoyRIEPNEIWMgAisEBEXkBDFJBRTgE2PgZPAAk0AASwQEERQD8TQD0UQDkSQDQTQCQUQAATkDdJG1NOAjYAKVEAKrBAIBNAOwaQNwAGOz0HsEBKEkBVE0BiFUBuEUB2AJBTABWwQHoJkDsAHjlIcTkAGDc/KDcAgTOwQG4TQFkFkDc8A0pPFkVCAbBAQAWQQDsOsEAAgnuQSUINSgBiQAAXsEA0E0BFB5BFAAuwQFMUQGISQHAQQH0AkEkAgXM7OQM3AIEnOT0HOwB1TFMZN0QUOQAosEB4S0BzDpA2RAQ3AAKwQGMKkFFSBrBAQRRAAA2QTAA/sEAcC5A2AAmwQDkTQEUAkDc+ErBASxNATxJAUhRAVSVAXBFAYBmQNEcOsEBkBZA3AIEbNACBRLBAXxGQNj4DsEBMDZBLRQOwQABfQAkHkFEADLBALxJAPBGQSwADsEBDDZBMSwWwQEYUQEgTQEoTQEwSQE4TQFESQFMAkEwAFLBAVgmQTlEGNgBzTgATT0sjUS4oUQA9sEBYCZBPABpRUgOwQFICkDM/EbBAQxFAAF1ACw6QVEsEsEAwDJBRAAmwQD4iQEURQEkUQEsakDMAMFNLF1QAcVFJCFMAgQdRAAWwQEcKkE9ICbBAORRAAACQLzdesEAeEkAwApBPAAdRRQuwQDcTQDsTQD0lQD5NkFEACk5FgSIvAIE3sEA9E0A5DJBPSQewQC4AkE4AEbBAAF1AHhZAMhFAPQCQNDgUsEBDEkBFbpA0ABA3Nnk3AA02PYERNgAPND4isEBEJ0BDNkBBA5A0AAoyPYEqMT4AMgArsEBAWkA/E0A4A5BMQgEyQBGwQBIGkDEADLBAAC2QTAAfsEAXEkAqE0AzA5AyAAY0QAqwQDYGkElCJEkAYTFKHDQAezJANDEARzIAHjQ+U7BANCRAMSdALhNALBuQKj0CRzkKsEApG5A0ABywQCU3QCGBPkAdHZAtMwFFNwVHAEAtACGwQBmBWZAvNksvAIEysEAfS0AjCZAxOBuwQCcUQCkckDEAG7BAKzKQTwAFTEA9TAA5sEAnEkAcJEAAGZBOOQEyLEawQBwTQDATQD0RQEUJkE4AC7BASgOQRQAQsEBPEkBUE0BaEkBiFEBpEkBwE0B0EpAyACM0LYJVsEBwEkBmEkBXApBFOgE2MBGwQEcDkEMxCTQABrBAOxRAOEyQKgACQwAARQAUNgCCArBANoEEQDIUQC4SQCkTQCQSQBwmQABDkEc0BSstFEIrX7BAFwKQQgAPsEAlApArAAtHAAawQC4TQDI2QCsVQACDapBJNhAtLABALFtAAANJABUtAIYQSjcQRTANQioJMiQGsEAcFEA1E0BCFEBMFEBWEkBiEEBwFEB9UJAyAIUxsEB4E0BxFEBoEkBeFUBREkBEEkA5FEA0M5AtLxewQDE0QC8KkC0AgjkqK4EAKgCFJ7BDD0iQJh0CsEMUYEMYKEAyEEA1FEA5AkMcEUA9EkBBE0BFAUMhEEBIFEBNFEBTAUMmEkBbE0BlAUMrEkBuE0B1AkMvEEB5EkMzIJBKAAJCAAOwQH4ekEUAdCYAglewQHolQHQmQG4TQGoUQGQSQF4UQFgTQFISQE0SQEgTQEQUQEERQEASQD8oQD4AkFFIE7BAPBJAOBRANRNAMhJAMBJALRVAJxJAGxNAEhFADRJAAIEOkFEABE5IdLBAGRNANBNAQxVATRJAVhNAXwWQTgANsEBnEkBtJ0BygmVDLzpAahJAXQOQTEcRsEBKE0A4FEAughZAMCKQTAASSjeEeEU7gSWwQyuBEUMnPpBCPYZaPDdNsEAyE0A1FEA4EkA7EUA/FEBCE0BEE0BHEUBLFEBQE0BWE0BeEkBmE0BuE0BzCpBCAAdFABWwQHlWkEoAglqwQH2BTUB4DpBMRxJDOwSwQHMrkEMAJUwAEbBAeF9AfIECkE5RD0VDBbBAdhJAahVAVxNASBFARhRAShFAUhRAWxNAZBNAbBRAcR+QTgAFsEB3gQRAe4IsQHYSQHETQGUCkDwABU9OBTswCLBAUgGQPjQSsEA7EEAAGpBFAIESsEAUE0AoEUA2FEA+EkBDFEBGDpA+AABKMwOwQEgVQEoRQEwVQE8RQFMVQFgSQF0UQGElQGaBGpBHNIIosEBfDJBDOAWwQFYFkDsACD42CLBATzdAUhRAViRAW09DI4EGkDtBBj4AMLBAUxNATjpAUhNAVSVAW4QwQFMQkDU7BLBAShRAPhJALRRAExNAAAyQQwArsEALFEAeE0ArE0A4EUBBE0BIFEBPEkBWFUBeEkBmE0BuFEB1EUB5M5BHAAWwQH0ekEoAbE8Agys7AAFRUAI8REM8ACdRAIFlsEBvE0BbBJA+QANTVQ2wQEYSQDclQD0UQEMSQEkUQE8UQFcRQF8UQGcVQG4fQHMSQHcoQHyCUZBTABA0PwOwQHgWQGoSQFMTQDkCkFRIDTUAAbBAKhVALxJAOhJAQxNASRRATxJAVBRAWQmQU1QKsEBeB5BUAAywQGMUQGcQkDQAFLBAbTKQUU4fUwBlUQABUFCBDVAADLBAYwCQPgALPDwEUVADsEBPAZA1NxSwQCsSQABLQCkSQDsUQEUTQEsSQFADkDUABlEACrBAVxNAXhNAZhRAbBNAcYFPkExMgRewQGkOkEwAA7BAWQyQOzUDTUoGsEBCAZA8AANFQAEyMg6wQABxQCciQDoTQEUTQE0TQFYDkDIAD7BAXxNAaRNAbydAdIJmQHAIkE0ABEg/B7BAYhJASgaQNC8LsEAfFUAANZA7AAOwQCIUQDcTQEIRQEgTQE0WQFAQQFMTQFcmQF0lQGMekEdABUgAA7BAaElAbTlAcYFFkDs/CrBAYxNAURJAPhNAOBRAPRJAQxRASRJATxRAVhNAXRRAYwaQOwAKsEBnJ0BrA5BFAEZNQCtHAIIGsEBkE0BWCZBNAAZMPwOwQEEDkEAqG0QzArBAAHJACxNALhRAPhNASRNAUhGQNAACsEBdA5BAAA+wQGoDkEQAD7BAcxRAeIEZQHwskEwAgUiwQGkOkDkzAEpGBbBAUBJAOQWQRS0NsEA0FEA4E0A+EkBCEkBEXJBKABhIOUhIAAVKPB6wQEMQQEETQD8AkEhFAUoAErBAPhRAOxJAOSZANjhANCdAKxRAFxBAAEaQNDdlsEAiE0AyFUA6D5A0AAGwQD4SQEB0QD8SQD4SQD0MkEdACLBAPAqQSAAaRQATsEA5KEA3N0A1b0AzI0AwFEAsE0AmE0AABZBHAAMwLAZFO3ewQBISQDMUQEMTQE0IkDAACbBAWBNAZBRAbxNAdgeQRQCDZLBAbhNAWwqQLTIJsEBDCJBFQRmwQCkTQCImQCwTQDESQDUOkDkAULBANzpAOYMzkC0ADS8vgRdIPwdFAIEqSAADR0N8RwAhRTgDsEA3JkA1FEAyEkAuEkAlFEAWD5BFAAKwQAAUkC8AFEw/BDAtf7BAJBNAPBJASRNAVRVAYxJAcRNAfoQeQGgUQEoFkEI7CiYrF7BAAA+QMAApsEArE0A7EJBMAAOwQEMSQEcmQElfQEs1kC0+ghcmAAiwQEkTQEQUQDwGkDJEAS0ADLBANDRAOhJAQhVARxBATBNATydAUhRAVBBAVydAWzSQNDciRUMKMgAHQgAIsEBPFUBFE0BDJEBHGJA2Pg80AHGwQEITQDoTQCADkDYABzQ8CLBAAAiQRQACSENqsEAXEkAhE0AsFUA2EEA+EkBEFEBHJkBKE0BNFEBQE0BVIUBbEkBhBJA2PBCwQGUlQGoFkDQAM7BAbhmQNzwYNgAGsEBzJ5A3ADqwQG0UQFoIkD5CBjZAAbBAPhVAADdAEBRALBNAOBJAOoFXkDc7JTYAWDcAEDk8gTsyPho5AA6wQDh9kEI+GEgACD4AczY+CEBCBDIAJEIAYUAAAz5DWrBANRFAMhVALBBAIRVAAASQR0YJNzkRPgAcNgCCK7BAIg2QO0EEsEA2EkBBE0BHFEBNE0BREUBWE0BaE0BfFEBjAZA7ABGwQGeBKUBdFkBKB5BFRgmwQCwDkDw5EEcAArBAACKQNwBOsEAXE0AnE0AyEUA5FEA9EkA/FUBBEkBCSpA3LxSwQEOCLpA2NiQ3ABGwQEWBKkBCEkBBNZA2AAM0NwZMSw+wQEI5QEMlQEQSkEwAgSuwQEITQEEMkDQABrBAPQyQMzsEUUsBsEAxFEAAgRVAHBRAMBFAPRVARRBAShRATxJAUgKQRQATsEBWJEBeEkBjBJA0OBGwQGcmQGw3QHAnkDMANrBAdIEHQGoRQFcQkDM2AEdEBLBAPQKQUQANNAAFsEAAHZA8AFOwQA0TQBMTQBkmQB8RQCQUQCkSQCwTQC4mQDA+kDMAADQ3HbBAMnmQNAABNjmBHy83AzYAErBAMBNALF5ALx+QUUUGsEAxgQ2QLwACUQAFTz0HMzmBCk5EAk8AZbBALA2QMwAEsEAiEkAALJA0MxBOAAFPRIEPsEATE0AsE0A7FEBDE0BIA5BPAAdHAAmwQE0TQFEUQFcSQF0SQGMTQGgYkDY4gS03OAs0AAA2AHCwQGEUQFYFkDk5DbBASgWQSEoBNwAOsEBAFEA9cZBHSIEKSAARRUsJRwATsEA+XZBFABlDRn5DAC5CR4EWTEAMQgA7sEA9N0A8HZBMAAmwQDkFkDY8BkpCB7BANRVALhRAJRFAHAGQNgAksEAXJJBKAAKwQA8RkEhBArBAAIFqkEgAEUo5DjAobLBAJRRAOxRASBJAUguQSgAGsEBeFUBpFEBxgWJAbCRAZhNAYhRAXgJDJzdAWjdAVxRAUxNATxNAShFAQwBDKxNAOxRALBJAAAaQPi8RMAADLy4JPCoUsEMvJ0MzI0AnAUM5E0A5E0BBEUBFAkM+CZA8AAM+AAIvABWwQEEVQDkRkDkAAbBALxRAKRNDQkpDRoIuQCQUQBkSQAAukEAwEDspAjAqBDcoU7BAHBRANAmQNwACOwAEsEBAB5AwAA+wQEYCkEAAELBASBRARSJAQBNAOBRAM0pAMBRALUpAK4FPQClgQCATQAA6kEIyCzIrCDkugQCwQCYMkDkAB7BAOQmQMgALsEBCA5BCACWwQEARQD4TQD05QDyBOkA6N0A3TEA1FUAyEkAvgRZDQoE6QCwZkD4pCCsoATsqAEMsGbBAKBJAIRVAEoECQBcTQCgVQDcSQEIiQEkTQFEUQFsSQGcRQHQUQH5+kCsAgjWwQHgVQHISQG4mQGklQGEUQFoSQFIVQEoSQEMTQEE3QD8TQD0UQDoTQDcIkC8ygQAvAAmwQDWCC0AzEUAxB5AyLQ6wQC8RQCsUQCdKQCoVQC4zkDIAhVY3IoEksEAwEUAzFEA4EkA9FEBCEUBGE0BLE0BRFEBYE0BgEUBlE0BqE0BuE0ByEkB2BpA7ACCwQHwzkD4AFkMAQDcAggCwQHgmQHQmQG4lQGknQGUmQF8RQFkTQFIUQEsRQEQVQEATQD8lQD4mQDwTQDkTQDcRkFFEAbBANCZAMjhAMBJALhRALHFAKjpAKDJAJBKQTkoBsEAfC5BRAAiwQBMVQABdQCEUQDkTQEYTQFALkE4ABrBAWhNAZBRAbRJAcztAdxNDPoMxQGoOkExHBbBAWhNASxNAQBFAPYUdkEwADEo6gkxFM0uwQDyCHUA6D5BCOoUmsEA4KEA2EkA0E0AwEUArCJA8OgywQCcSQCKBBUAmE0AuFEA2EEA9FEBCFEBGE0BJEkBNEUBSFEBXE0BbBpBFACCwQGITQGYTQGoFkEIAD7BAcBFAdCZAeG6QSgCDFExKDkM9L0MAGUwAggxOTw1FRQOwQHAUQGASQEkSQDwUQD4RQEUTQE0SQFUVQGARQGoVQHIUQHcfkE4AgQSwQHuCMEBxEUBkAZA+OQM7NApPTQWwQE4VQDEMkDwABbBAAGKQRQBesEAQEkAmE0A0EUA9EkBCFUBFEUBIAZBKOyWwQEolQE4WQFIRQFUUQFklQF+BCpA+AA1HQiKwQGNeQzqBNJBDRQc+Ph07AGmwQzaBTpA7TEg+AIUUsEBYFUBICpA1SAiwQCUUQABMQCERQDQUQD4TQEQSQEgSQEwSQE8VQFITQFcSQFwUQGMTQGsTQHAPkEMAFrBAdTlAeQSQRwAeSgAksEB+PEMyHpBPAIJBOwA2UVUEPEZyUQAFPACBPLBAcRRAWxNAPgSQU1UGPkgGsEAjAkMuEkAnE0A1E0BAAUMqIEBHE0BNE0BTAUMlE0BZAkMhEEBfAkMcFEBkAEMXAZA1ABCwQGgTQxMSQG0lQHMTQHgEQw4OQHwlQwqCO5BTABA0PwywQFsRQDkUQBwBkFRQErBAJAFDABFANBJAQRJAShVAUhNAWxJAYhRAaRNAbRuQVAATNAAIsEBxW0B1epBTQT5RRwBTAEJRABpQTjtQABmwQG4AkD4ACDxAAFFXDbBAVwOQNTkOsEAzEkAAKEATEUA4EkBHFEBTFEBfCpA1AAiwQGgSQG5fQHIakFEAHrBAdoEykExQgSCwQG0OkEwABLBAWwqQTU4BOzwHMjsCsEA8AZBFRQ48AAGwQABMQBkTQDQUQEESQEkUQFAUQFcSQF8SQGYWQGwYkDIACrBAcjhAdk5AenFAfoEDQHcTQGMIkE0ABUhNB7BARQKQNDcQsEAAOEAXE0AyIEA+FUBFA5A7ABCwQEoTQE4TQFAnQFQSQFclQF8UQGMlQGgMkEdPH0gANLBAbTpAcYE5QGsTQFwTQEYDkDs7EbBAMiZAORNAQRRARhBAShRATBNATxRAUhJAVQyQOwAbsEBdJEBiJkBmCJBFAC9NQlywQGtgkEcAgRhNAA+wQGAGkExBD7BATAmQRDQDQCwFsEArA5A0ABKwQABdQBkUQDcRQEMUQEsSQFIUQFkGkEQADbBAYhCQQAABsEBpFEBuFEBzckB4HJBMAIEHsEB8YUB4E0BsE0BXEZBKQwGwQEIDkDkwD7BAOwaQRTAOsEA+E0BDE0BGEkBIJkBKU5BKABVIPz1IAA1KPR6wQEcSQEUCkEg4BUoADLBAQhNAPxJAPRJAO2BANxVAMBBAJBNAGRNADRZAACqQNDoisEAQE0AbE0AgR0AkLpA0AIFER0AWSACBDkUAgUJHAAKwQBcLkDAlCLBAAAGQRTiBBbBAIhVAPBBAShJAVxVAZAKQMAAQsEBvEJBFAASwQHYlQHp+kDkAFrBAfoJnQHAEkC0tBUU9CbBAWxRAQxNALhFALBNAMhJANxNAOxNAPoFQQwiCaJAtABwvL4FGRQAERy41RwAMSEE4SAAgR0CBBEcAIkU8a7BAPCZANwyQRQAHsEAwIkAgDpBMQgEvAAOwQAAdkDAtVbBAIBNANxNARRJAUBVAXhNAbhFAfoNTkDAAF7BDDDhAdRRAXQqQJi0FQjkDsEBAE0AAC5BMAEOwQBwSQDAhQDkUQD8SQEMVQEYQQEgmQEthQE0KkC02gQ4mACKwQE8oQFEkQFMnQE4RQEcOkC0AAjI/AbBAQxVARBNARxRAShJATRRAUCVAUxJAVRRAWCZAXiRAY0mQND0CsEBcBZBFSRCwQFERQEUAkDIAFrBAQhKQQgAPsEBFEkBIFUBKEkBNCJA2PQY0ABWwQE+BEZA2AAawQEgCkDQyE7BAOgiQRQAESEgIsEAASkALEkAlFEA1E0A/E0BGFEBKEEBMFEBOE0BQE0BTEUBYFEBeE0BkE0BoH5A2QAewQG04QHMBkDQAJrBAeB+QN0EEsEB8EZA2ACI3AFWwQHUQQF0UkD5EATZEDLBAPQCQNzQSsEAAOEAPE0AqE0A1EpA3AAGwQDeBXJA3Ohk2AHOwQDURkDcACDk2MLBAM3yQMjoQOQAysEAxWZBCPAc+AAtIAIEdNjcAQEYCMgAiQgBnQAAGPkFxsEAvEkAsE0AiFEAQD5BHRQOwQAADkDczBD4AKzYAgQuwQAkUQBwSQCgVQDARQDQUQDkRQD0TQEEUQEUSQEgKkDs5CLBASxNAThRAURNAUxRAWBJAXRRAYg+QOwABsEBmgWFAYA6QRUgFsEBSBJA8NglHAAiwQD8QQCcDkDcAELBAEBJAAExAFBJAIxVALhFANxVAPBJAQRVAQw9ARTtARyRASQGQNzISsEBLFEBNJkBQgXWQNi0NNwCCHLBATiZASwiQNgANsEBIA5A0MwJMQR6wQEYmkEwAFLBARF1AQ19AQRNAPhRAOhFAMQKQNAAIUUAFMzoDsEAbFUAAcEAXEkArFUA5EkBBFEBFEkBIFUBLEUBOFkBRApBFABywQFMUQFYfkDQ5B7BAXSVAYRCQMwCBSlEAQbBAWhRATA2QMzYHsEA6AZBHRQk0AAewQChhkDwAgSewQCpYkDQxLLBALBuQMwBlNj4YNACBIzYAAy84gQZRRYEgLwAJUQACMz0AT0aBBE8AFk5FRbBAKTlAIhFAGhRAAAGQMwAUNDkJTgACTzyBPrBAHRRAMxNAPwiQTwADRwAIsEBGEEBKFkBOEUBQJkBSJJA2NzqwQFRikDc8GzYAEzQAU7BATxRARxJAOwSQNwAEOTgLsEAwEpBIMQGwQCwikEobNUoAMkdGDkgAfUcAB0VFgQdFACRDRHdDABmwQCYIkEJFDLBAFhNAAIEBkEIAB0xFgQ5MABNKQRM2NTQ2AChKAERIMDKwQxBOQxUXkEgAL7BDGh6QSi8CMDEXsEMgKEMlI0AXAUMrFUA3AUMwEUBFAUM4EkBQAUNAApBKAA+wQFsCQ0YSQGUCQ0sSQG0lQ0+BKEBoJkBjKEBeJEBZFEBWE0BTE0BQEkBMFUBKA5AwAA+wQEcRQEUTQEMTQD0UQCoRQAAWkD42Ci8rATwyUrBADRJALCFAOxVAQgiQPAADPgAGsEBFC5AvABqwQEMUQD8TQDkUQDQEkDkAM7BAMYJWQC8QQCsWQCEQQABGkEAyDDsnDjAoAjckN7BAJxJAOxVARBBAShKQOwABsEBOFEBSE0BXA5AwAARAACI3ABCwQFMUQEsgQEQTQD8TQD5xQD05QDyCeUA5EJAyLgKwQDYFkEIvDTkmArBAMBFAIhRAAF9AHxNANRJAQhJASwOQMgARsEBQBZA5ABlCABuwQE0UQEsTQEkhQEcmQEQlQEMSQEIUQEETQEATQD4TQD0TQDsnQDklQDc3QDWEPpBCKgcrJgA7KQQ+LYVeQycZQgBXsEAzSkAxXUA2EkA6E0A/FEBEE0BJEUBOE0BTFUBZE0BgEUBnEkBvFUB1CZArABywQHqCHEB1JEBwE0BrE0BlE0BfEkBYCJAvJAywQFESQEoUQEMSQD4QkC8ABbBAPIEBQDqCBpAyJYEqMgCISjcbgiewQDw5QD0kQD4mQEATQEEUQEI0QEQnQEckQEooQEw2QE8oQFETQFMTQFUUQFclQF0lQGM4QGhfQG1LQHFLQHZxQHt8kDcAgQE7ABU+AG9DAIEysEB3gQRAcjlAbSZAaDhAYzpAXzdAWiZAWBJAVhVAVBFAUhRATxJATTdASydASUhARzpARV5ARIEWQEOBBEBCJ0BBhAxAQDlAP4E8QD4RkEo0KbBAPRJAPEOQTz0DSgAFsEA5FEA3EkAzFUAwJEAsFZBPAAJTOGFTAA1OQRGwQ0soQCpFkE9DCE4AbU8AFlNAbVMAB0pFfUoAA09Ic08AB1NHalMAEU5GSk4ANU9GV08AElNLTVMAKkpKY0oAMExLckhIA0wATrBAJhJAIQCQSAASsEAQE0AAA5BDQjhDACOwQBwTQDkPkE9BBLBARxNAUhVAXhBAaBNAboE8QGYFkEhGB08ACLBAWBNARBRAJxJACxKQSAAhSkqBC0dLAUoAYkcAGENGA7BAAFSQQwA+T0IssEAjEUA6FEBHEUBQFkBVEkBXXkBVE0BSCpBPAAqwQE4EkEc8DbBASBJARRVAQxFAQRVAPw+QRwABsEA9E5BIRBawQDojQDcVQDUmQDMAkEpIHEgAG7BAMBRALiFAKxVAKQaQTEwQSgAQsEAkJUAdEkAZJEATBpBKTQdMABqwQA8UQAkSQAA3kExJCEoAckwAAkhMfkgAC0dJPrBAEBJALBNAOwqQRwAIsEBEBJBKSBKwQEciQElAkEoADE9Me1NOAk8APrBAR0GQUVECUwBQUQAtQzwGT1EvsEA8BpBPAA6wQAAPkEMAF0pFFFFQHVEAQUoAIU41f1FLAU4ADEk+F1EAYkkABUpDAFFEHlEAOEoAJ045QU4AVFFJAUVCHlEAPkUAGUpFFFFMGlEAGUoAOE43OE4AUEk9B1FLJFEAQkkACUpCJVE/GVEADkoANE46KU4AZUU/CVFAHkUADVEAWEpDBkc+QUcAAUoALENBBE8/NU8AEkMAJj5IEFNDEbBDRw2QUwAtsEANEpA+AAKwQDwTQE4KkEpNAFNOCLBAXBFAahVAcwWQSgAAUwANsEB4LZBPRTZPAEiwQHQSQGMAkEpNA0NQD7BARBNAAAqQSgAkQwAySkgJRUlRRQAHSgAXQkkCTk1bTgAnPk0QUUwCQgAnUQAyPgANsEAkDJBKTwVRUAOwQDkTQEQTQEwHkEoACLBAURVAVhRAWxCQTk8WsEBgBpBQLxFRAA5QAA9OAENKVwRCTAiwQFwSQE4UQC8IkEoACrBAAD+QQ0oCSlABQgBhQwAWRU5CRQBFR0RnRwAaSgASRUINSUhNRQAuRzxpRwAPQ0GBAkJEDUMAAUpLBUkAaEVGE0IAX0UAFbBAGgCQSgAFSEIOsEAsDpBIAAWwQDgRQEAUQEYTQEsTQE8NkExUA05QArBAUxVAWBJAXhVAYxBAaA6QTAAYsEBsBZBKSmVOAAlKAB4+RAtITTpIADCwQFwPkD4AArBAOAGQQ0EKT04GsEAAC5BHNw5PAAxHAANDAFhHOjtHAEZRTANCOwdKQxdRAAlKAD+wQBMUQAABkFNTAUNCBUpKBUIAElMABEoAFEMATUc3fVRRCz4/BEpHEEcADkoABFQAXT4AAUNBCFNQA0pKGVMABEoAKUMAQ0c2ZkcADEpKBlFLCEI8GFEACEoAOUIAEk9PCENBI7BAOQKQQwANTwACsEBKEJBKOjRHNzRHAANKAABPH0RHPQo+QAewQEgWQEYNkD4AA7BAQxGQRwADsEA9E0A4FEA1IJBAQgJDRxWwQDMUQC4QkEMAArBAJwCQQAATsEAeE0AZFpA8RQywQBQCkEhKJbBAAAaQSAApPAAYN0oRTEkoTAApsEAgA5A3AA+wQDkRQEcAkENNBkxPDrBAUBVAWAiQQwAKsEBeRZBITDhIAAZMADY8Sw9DUBqwQE8TQDkDkEMABzwAC7BAAC+QPkkSQ049PgAMQwAfR04VOz0nRwA7Sk0jOwAUSgAKNzcUQ005sEAXC5BKSgawQDIQkDcAA7BAPRRAQhNARCRARxKQQwAPR00EsEBKC5BKAC+wQEwOkEcAQENFBTs7Azw6B7BARBZANxJAFxJAAAeQOwABQwAfsEASCJBFTgg+PxQ8AAA8HRY+AAY8AB2wQBcTQBsfkEA+U7BAIAiQQAAMPjxWPgArQEMSTwALTkgKsEAkEkAvFUA6EUBAOJBAAA88MxWwQEESQEUUQEoDkDwAD7BAUBNAUwmQRQAdQDglsEBWApBAACOwQFwTQFgJkDtICrBASgyQT0kJsEAzAZBDQxGwQBATQBsDkE4AD7BAMBVAPRJAQBJAPwSQOwAPsEA+GpA+PB2wQD8NkD4ANzk9Z7BAPQCQOQAGO0NssEA8EkA6DpA7AAWwQDgVkDwmJTwAJbBALBRAAAqQN0MCSlAdQwAgTwAQsEAhE0A5BZA3AA+wQD4PkDxBA7BAPQuQTE4dPAADSgAVShoBSgAdsEA4FEAgEUAAEpBPRARMAG1PAAVKSQU7PnA7AApMSgJKAAE8QSA8AFNMAAlPRYEBR0UEN0IZTwBMRwAhSEIBOUACNwBfOQA5PDeBBDwAATc/ezlCEzcALjkAPTw7VzwAJEgACE9FBjREaTQAElFLCTZGCk8AGjYAWFEAAFRFbFQAHjRFA09JfjQABVFOCDZICU8AGTYAPFEAHVRGe1QAGjlBAEw5Ck0+IbBDQxOQTQAKTAAQOQAbPkILTkdcPgAhQj0DUUUOTgBYQgALPUUBUQAITEyBAj0AAD5CEU5MGkwASz4AEUJACVFKBk4AGEIAUVEAEklMCDk0bkkAC0pQAjkABDtDODsAIEoAIE5MDD4/TD4AEk4AEElMDTk9eTtBBkkAAEpKCLBAIRRAKgCQOQATsEAyFUA4B5A7AAmwQDodkD5DBk5MArBAPAKQSgASsEA9CZA+ACuwQD4xkE4ACLBAPRCQRUwDsEA2FUAcEkAACZA2OzJFAB5HSRc3QwU2ADNHAAI3ADBKRwewQ0dzkElIAkoAFDRIXkkAEkpMFTZGBzQAIjYAOkxMG0oASUwAIEdMAzdQazcAE0cAETlSB7BAJgCQSU8TsEAACJA5AFJMTQFJAH5MABBKSwQ2S3dKAA43TQFMUAE2AC83AEVOURVMAHM5SgRJUDdOAB5JACdKUAI7PB85AAawQDIOkDsABrBAIhRAAByQSgAXsENLDJBOUYEATgABPVADTFFeTAAgTlIFPk8JPQAUPgBZUVMMTgBGUQAuT1cfOT0BOz4RsENFJUM8EJA5AAGwQzcFkDsAD7BDMwKQPVMLUVUEsEMtCZBPAAywQyMTQxYSQwsSQCMUQD0DkEBMEbBASgaQPQAJsEBVFEBiFEBwE0B+EpBAAB5FThxFAHpJWA1RAA2wQwA3kEkAJkxVSEwAPk9XAi1PL08AB7BAeBJAThJAABGQLQAOMk4FTlocTgBHMgAVNkCBBzE8DjYAA0xMC0VCGUwAB0UAQjJGAjEADU5YCkVOEk4AB0UAIzIAFrBDCCWQNj9yNgAgLUUCT1ALRUoaTwAERQA/LQAJMkUTTlcHRU4RTgAHRQAMsEAhEkAAE0MOBJAyAB02QYEEMUUDNgAMTFACRUshTAACRQAJsEMJNpAySRZKWAkxAAmwQCsFkEVGD7BAVQqQSgAHsEBgAUMODJAyABc2SDRKSApFABA2AFctTAFCUiewQFAJkC0ACbBAMwCQQgATsEAAMpAvTQI+UEE+ACIvAAsrTQ1DUC9DACQrACAmUAtHUDNHAEUmAAAyWApHSQOwQEMUQGAKkDIAB7BAeRRAfziQQ0skRwAbQwBMK1YMPlAVsEBtEZA+AAOwQEQJkCsACLBAAD2QLVAIPlNBPgA4KlADLQAGQlIzQgA+KgAFJk8BRVI0RQAyJgAWMlcHsEA+CpBFSwywQE0SQFMFkDIADrBAVxJDEjmQQkkDRQBeQgAXKk0NsEBPAZA+SROwQEERQCcGkEoAD7BAACaQKgAPPgACK0IYQEpXLUQHKwByLQAtLzgdSkFiLwAFLTsCsEMWCZBKAApJQ1wtACUvOAKwQxp/kCs9AEkAAi8ABUc+WysAHSo/BEAAAkcACUVAUioACSs/AbBDHmGQKwA4LTkQPj5oLQAFKz0wR0QGRQBJKwAlLTl4RwAOKjkFLQAIRTVIKgAqKD8ARQAOQ0VNKAAgsEMiBpAqPwtDAABDHDEqAEE+AAg9QwkrPFkrABVDAAoqPA9FPS0qAE4rOVUrAEc9AAJFABJDOQEoMkUoAC9DAAdCQQMmQgqwQD0UQEcBQyYQQEATQDITQAAYkEIADj48E7BAFxVAJwFDKiSQPgArJgAKKDwHQzsgsEAhE0AcSJAqQwJFPgYoAAxDABewQBYdkEUAKj49FbBADxNAAE6QPgApK0QBR0UtKgBQKwABRwALPUkCLUlBPQBAOTpNOQAxPkICL0cQLQBdPgAWQEMFMUUCLwAyQAAIsEALFUAkFEAyE0A3CpA5NDQ5AA6wQDoRQDwUQD4SQEEAkEJJCzJRBjEAA7BAQhFARAGQQgASsEBGFEBKA5AyAA+wQFAUQFoUQGUJkChTBkNQF7BATxNAABGQQwA+QEZSQAA+RU4IKkoDKABzKgABsEAPAZBHTAcrTQZFAAOwQB4VQAArkEcANkA+aUAAHS1OEElKBisAM0kAMC0ADi9MAT5Pcz4AFDtFVjsAODFJBEBHBS8AcjJSAUJPF0AAEDEAOUIAGTtKVjsANkNQAzRJBzIAYkMAI0VQAzZUGDQAAzYAdkI9eTdSBj1IF7BDJimQQgAQNwA8NlIAPQAQPkwNNgAuPgAJsEMrPJBCRX00UgM5SxhCAA+wQyY7kDkAITZWAz5QBjQAEzYAILBDKwCQPgA3sEMvFZBCSoEGN1IKPUcZsEMqNJBCABw9AA+wQCkBkDcAATZTAD5LJLBAAAOQNgAfPgAEsEMwM0M2EJBCSwSwQAkTQABvkEIABDRTADlWOTkAELBAJRRANBJAMQ6QMlEBRQAARQ0FsEApBZA7Vg2wQCEAkDQAJUUAE7BAKAqQOwAJsEArHJA3TQNDUAewQCcBkDIANTcAFrBAKhiQQwAHO1AFPlcTsEANFEAAApA7ABc+AEM7WAtKVh2wQBkSQDkPkDsABbBARRNASyCQOywBN0ooOwAENwBSMkoJQ1EjsEBFEpAyAAGwQCwUQAARkEMADUoAHTJXD0VSJ7BAExRAMQWQMgANsEA5KpBFAAU2UgNCVDQ2AAywQDcNkEIABLBAMxNAIBNAAAWQOVECPlUoOQAXPgA/OU4SSk1LsEA+FUBIDZA2Sxo5ADo2ACsyTg5CURCwQEYEkDIADLBAPRRAABeQQgArNFIHMk8JQ1EJSgB6RVEGQwB6R08NRQB4RU4IMUcCRwAIMgBmR0wIsEAbApBFABCwQDESQD0AkDEAFLBAQjqQQ0sRsEBDOEBFBZBHAA+wQEgGkEMADrBATgmQMlMJsEBXApBCUwU0AAqwQFsUQE0SQAAXkEIANkVOVkUANENTBzRSEjIAQkMAIzZQDEVVCDQAaUUACklSZkkAGkdWCTdVKjYALjcAJzlSA0lYDUcAcz1XBExXAkkABTkAPUwACj0AIjlWDU9ZOE8ATE9eAjRNHTkAO7BAPRBARBBAPwaQNAAOsEA8BZA5SwNMURpPAAKwQD0WQD42kDkADDRPB7BAQAeQSVgOsEBBA5BMABCwQEI3QEATQDIMkDFQA0kAAUVYA7BAAAqQNABBRQAUsEAUG5A0TwFJWQmwQAAFkDEANLBAEhJAHBNAIRSQTFcDMVMQNAAFSQA1sEAnEUAqF5AtVggxAAFPVAWwQCMHkEwADrBAAFGQTkYJL1YCsEASBZBPAAstAASwQA0TQABvkExPATFXDk4ACC8ADLBDMiKQMQAXsEMuE0ArBZBOVggyXAWwQDwCkEwAErBAOAOQMgAQsEAwFEAUEkAAFEMyJJBMSQROAGtKTQFMAAY3WAVHRRVILAFKAAlHABGwQy0BkDcADEgAGbBDKBuQRVoIOVYASlcBsEA3E0BNAkMsBZA5AA2wQFAJkEUATExRCLBATgaQSgAQsEBKEEBEFEBAMpBMAAWwQDwBQzASkC1PAENSAbBAKAKQSVASsEAANZAtAAxJABRDACMmUA5KWH1FUgQqTStFADYqACYtUANCTxxCADmwQDIKkC0ABbBAPgWQJgAQsEA/EJAyUwOwQEUBQzQEkD5RELBAUgJDPQCQSgAFMgAIPgAFsEBjA0NKD0BzAUNUEUB/AkNbFENiEkNmJkNrgRdAbRRAXQiQSkcNsEBPD0BBFEAyEkAiFUASEEAAEpBPTAlKAHVPAB9TQGpTAAtORX5PSBVOAEtPACtTQmtTAAlKRH1PSgVKAH5TRwJPAB6wQ2cmQ2M0Q14PkE5PAVMAFrBDWiVDUgyQTgAHsENME0NIGJBPTh6wQ0MnQzwkkE8AArBDOBqQU01SUwAhSk9bSgAuTE9uSEwWTAA9SAA0Q008QwBOsEAlDJBPTAawQDkkQEMTQEsSQFMWQFsRQGQSQGo5QzxeQGETQFIDkE8ABEg8DLBAQxRANxBAMRRAKxNAIQ6QSAAQSk1BsEAaJUAUF5BHSwJKAG1HABRDSxCwQA8SQAAzkEMAPU9KObBAEhFANBRARBFATRVAUoEnQFAJkEdBCbBAThJAShCQTwABsEBGFUBEFEBDE0BBE0A8BpBIRgJHAAqwQDcUQDIQQC5LQCsBkEpMHEgACLBAI1+QTE0TSgAosEAfUJBKTAdMAHRMTgRKAHGwQBcPkEwAAUhNBrBAAHSQSAAJsEAPFpBHT2BHABdKTx2wQ0AUQBYlQBwmQ0QFkE9LBUoACbBAAEtAFg+QTwADsEA8FEBPAZBTUBOwQF8TQGwTQHErkFMAD1FQSlEAOLBAdRRAehFAfwOQQ00jsEBpFEBDE0AABpBDAAtRUQpKSB1RAEhKAD5OO21OABNJPQZRRSdRAFNJAABKRQ9RRh5RAClKACNOO19OAC9FTAdRTTFRACVFACVKTBZRRh1RAB9KADFOQGVOADRJQAhRUDJRAD5JAAJKRhRRTgiwQB4UQDgHkFEAHEoALE4+M04ATbBAMwuQUUwJsEAhApBFQhGwQAATkFEACUUAQrBACQ2QR0cASkUFsEAcFEAlFEArCpBKAAWwQC4PkEcAJkNKB09DME8AF0MAKbBAJAeQPk8GU0gGsEAAH5BTAGc+AAhKUwRTSwKwQDEUQEQSQFAUQFwDkEoAD7BAaA2QUwAAUy0EsEBxFUB2CZBPQBBTACxPAFZDTQtKSgOwQG4TQFcRkEoAA7BAKxFAAAWQQwA4RVALSk1FSgAqQk8ERQAMTkpCTgAjQgADPlAXUUkoUQBDPgANSlIGUVABsEAcFEA8E0BKE0BWB5BKAAiwQGAWQGgHkFEAAFEwEk5MOFEALU4AM0JJCUpUN7BAXwGQSgASsEBJE0AACpBCAA9DRwxKVHBDAAhFSHNFAB9HP3NHAAVKAAtFSAlJTlBFADNHQ3JHAAdDQYEESQAISk8MQkIBQwByRUgxQgBPRQAMSEgGSgAWSAAksEA5E0BFE0BLCJBOUgJMUgawQE8BQ0gUQFUSQF0VQGgSQHEBkEwAE7BAdgyQSkVqSgAFTgASPlACSExHSAAzsEB9BJA+AAlDSgdPUgVHSQuwQGkKkEcABE8ABrBAPQmQQwAIsEAASJBHRoEYUVIDQj4BRwADSkkfSgAOUQBTQ0QHU1IHSk0FsEATAJBCAAlTAAewQAAFkEoAJUMAD7BDTCSQRzuBBFRWBz5BB0pKHUoAAkcACFQAS0NHBj4ABVNWA0pSHkoAAVMAD0MAAbBALRRAADyQRz1URwA1SlEIUVEFQj8uUQACSgA3QgANQ0UGT1YqsEA4AJBDAAxKQAFPAAWwQEkVQE8ikEc8OkoAAk8yCEcAOEc8CLBATAeQPkgPsEBFEUA+FUA6ApA+AAZHAAqwQDgTQDATQCIUQB0JkEBJDUNGOEMABEAACrBAABiQPEsRSE8qSAAkPAAeN08JTFA5TAAuNwAEsEAsEZBDUgKwQEUGkExMDrBATyFAVhKQQwABsEBcJkBgJZBISi9MABlIADA8Tg5DVBKwQFsUQEgSQAABkDwAAUMAOj5JDENQQUMAJD4ABTtIBEdSNkcAGDsALzdNBEpSN0oAOjcAB7BAGRCQQ00DsEA6AJBKUBOwQEgVQFURQGIAkEMAFLBAbRRAchyQSgACR1BvRwAiO0cHQ1AVsEBdE0A8FEAAIpBDABA7AAU8QgxFUH0+RQc8AGA+ACJAQFpAAANPABk+QwpORjKwQCEQkD4ABLBAOhJARASQRQARsEBIEZBAN2dAABA8PoENsEBFCpA8AAU7RAOwQDoUQAAFkE9GAkNFJU4ABjsAQD5BgQg5QQU+AHQ5AAI7QFs7AC0+PEZDAAI+ADNPABE3OwFKQoEHTEcCPEIGNwAMSgATPABLTAAQT0R/TwAHO0cBSkmBCUxNAjsAATxID0oAEDwAF7BANRJAPhRAPRNAOwmQT0gBTAAusEA+EkA/FEA9FEA4EkAxEJBHRgKwQCoBkDdDGU8AH7BAADaQRwAgNwADOUIBSEgEsENQRZA5ADI8QIEEPAABN0KBEzlGFTcANzkADEgAITxFgQo0SAJPRRc8AGhRSwQ0AAI2TQdPAAawQ1URkDYAFrBDXhVDZRJDbRNDcgaQUQAIVEQXsEN3XJBUAAg0TgdPRiywQ3JXkFFJBDQAATZQEE8AEDYAUFEAFLBDdg2QVEeBA1QAEUxHBDk9DjdDBrBDciCQNwAtTAAROQACPkEVTkZQPgAaQkAPTgAAUUVmQgADPUgDUQAQTEwQsENtJkNpN5A+RRY9AAFOTRtMAE8+AAZCRQlRTgVOADBCAEpRABBJTwE5SCGwQ2RLkDkADUkACUpPBDtGPzsAHkoAH05ICj4/QD4AIU4AG0lMBTlDVEkAJEpLAztDFDkAKLBAGQmQOwAIsEApGpBKABc+QANOTQWwQCtgQAACkE4AG0VQBzZDCj4AUUUAIDYAFDdNBkdOKTcAIUcAO0pKgQFJTQNKAAI0SFpJACdKTwc2Tw40ABU2AE5MTSFKADdMACxHSwk3U0uwQ2AckEcAEzcABzlRB0lOHTkAA7BAMhVANRJAAA2QSQAGsENkKZBMUGhMACJKTw82TG5KAAw3UgZMTRY2AB43AEJOTRBMAH05VgVJSjNOADdJABJKUAo7WBg5ABI7ADpKABpOT4EETFIQPVQETgAhsEAQEkAAMZBMABdOVwY+Vwk9AA8+AF5OAARRVV9RAChPVxU5UhawQ2AnQ1QGkE8ACrBDSxRDRBGQUVcEPVISsEM/AZA5ACWwQzIUQDgBQyMSQE4BQxUQQwwSQEwBQwgGkEBKDz0AEbBAUhBAXBVAZhNAbgFDABCQQAAWsEBzBZBFVh5FAAKwQHteQH8HkElaIlEAPkkAI0xaRUwAPk9ZAS1QMk8AELBAXBVAABKQLQAIMkwTTlgaTgA1MgAGsEMIIZA2Qns2AA8xQgtMVARFSRxMAAVFAE8ySAgxAA5FSwVONghPPxNFAAFOAAewQwwAkE8AETIAKzZHbjYAKU9PBUVOAS1LHkUAC08AAbBDCDuQMkwTLQAITlkGRVIWsEBCAkMMAZBFAANOAAywQDIVQAABQxAZkDIACrBDFRCQNkh2NgATMUMMTEoBRUoWsEMRDZBMAAhFAEcyRgJKWA8xAAawQDIJkEVDCbBAVwiQSgAKsEBoFEBxAUMVBZAyAB82Tx1KPwZFACQ2AERCVAktTBiwQGoRQFcCkC0ACkIAB7BANxRAADiQPk4EL1BKPgAeLwAEK1AUQ0o1QwAMKwAmJlIQR1A2RwBAJgAFsEAWApAyWQhHSwiwQFISQG0FkDIAD7BAf0yQQ00jRwAeQwBAK1gQPk8JsEB7E0BTDJA+AAWwQAADkCsAQy1UED5WOT4AKCpSDS0AA0JSR0IAPCZPAioAAUVTN0UAQCYADTJXBLBARgWQRVANsEBbEJAyAAKwQGwUQHBVkEUAAUJJaEIACypNFD5OBbBAYxRAQAKQSgARsEAAOZArQwcqAB9AUAU+AE4tRQkrAEctAEMvSSBKSlywQxkWkC8AAS1JHUlKB0oANS0AMy9BgQMrOApJAAsvAAZHQ2krAAEqSA5FSBhHAA9AAB6wQDEUQCgSQAADkCtEDioAPisAPi1EFj5FYy0ACCtDI0dGEUUAHSsAB7BDHUKQLTqBAio/AS0ADUcAA0VAPCoAA0UALChDGENFaUMAAEMqAyo/AygAQyoAPz4AAT1IBys+ZCsAESo8E0U9FUMACioAGrBDITdALgWQKzgQsEA3E0AxEUAnFkAbGJArAA2wQCogQDUQkEUAA7BAOQWQQ0MNsEAsAJAoMQ89AAewQABBkCgACbBAFAFDJRJANwOQQkEEQwAEJkAIsEA7S0A8CpBCAAiwQD4BQykFkD5BDrBAPBNAOTeQPgADsEA7E0A8EkA4ApAmAAtDPAEoPwawQCcSQAA4QDMSQEITQEYLkEVDBbBAQgCQQwAIKkAEKAAIsEA3FEAkJ0A1E0A/ApBFABGwQEQMkD47G7BAQxFAQRJAQw2QPgAbsEBGJ0BEA5BHSwIrQgywQDMAkCoAFLBAACWQRwAlKwAEsEAcCZAtSBM9TAOwQC0BQy1SkD0AIbBAMAmQOUFCsEAyE0A0HZA5ABE+RAcvPwGwQDAGkC0AD7BAAGKQPgADQEAMsEAUAZAxQwIvABCwQDETQD0TQEIKkEAABrBARC2QOTcgsEBHD5A5AAOwQEkUQEwTQFAUQFMNkEJMBbBAWAOQMk4DMQANsEBdE0BjC5BCAAiwQGsSQHYLkDIAC7BAfyCQKFQLQ1ANsEB3E0BQE0AAHZBDACZAQ3hAAC5FTgYqTQwoAGtHTw8rUAUqAAJFADlHADJARltAADAtUAFJUB+wQCQCkCsAD7BAKxRAHBNAAAyQSQAZLQAEPlABL1B3PgAGO0pbOwArQEwCMUoSLwAVsEAUMkAAMZBCUggyUw5AAAewQB4SQCwFkDEAELBAHxFAAAeQQgAkO0shsEAcEEAwFEAkFUAAB5A7ACZDUgQ0TgkyAA6wQB8TQDgRQDwUQDYTQDARQDIAkEMADkVOBLBAPRCQNlQEsEBFBpA0AA6wQEIHkDYADbBAAFCQQkWBADdWAD1DSUIAErBANgJDKRNAEAaQPQAMsEAAAJA2VAE3AAE+Shs2ACo+AD1CRIESOUsDNFIWQgBMOQAjNlgEPkoHNAAFsEAZE0AABZA2ACGwQy0MkD4AO0JGgQc3VAA9RlhCABM9AAawQDQAkDZWBz5OBzcABrBAOhNAAAaQNgAkPgAhsEMxE5BCS4EXOVQINFECQgAdOQBZMlMGNAAANBcEO1caNAAYsEBNE0BgAZBFABY7AA6wQFwNkDdPBrBAVAGQQ1EPsEBNA5AyABGwQEsckDcAHbBARg2QQwAGsEA3A5A7Tgc+WAiwQAAgkDsADj4ATDtVCEpWKLBAQhNATRRATy6QN0YaOwAMNwBQMlIRQ1IGsEBKFUAzAZAyABKwQAAjkEMAJjJYJEVSC0oAG7BAQRRAShFATBJASgaQRQAOsEBHA5A2UgdCVgIyAAewQEQmQEIFkDYADrBANQyQQgAHsEAAH5A5Ugw+Vis5ABQ+AERKVgI5VjOwQDQQQEgIkDkADbBATBeQOUEPNk8oOQAFNgBFMlgMQlcdMgAPsEBKEUBFCJBCAA2wQC0RQAAjkDJWADRXAkNXBEoAXkMAIkVQgRJHTg1FAGgxUQ1FUggyAAFHACGwQD0VQFEgkEUAA7BATw+QR04ZsEBMT5AxAB9DTTqwQE8AkEcAErBAUhRAWgGQQwASsEBlD5AyWASwQGkCkDQAAkJUD7BAUhRAADmQQgAXRVBkRQArNFUEQ1IFMgBiQwAZsEAyC5A2VwNFVgKwQDsUQAADkDQAZ0lQAkUAVUkAJ0dQEzdVFTYAOjcAC0cAJDlUAElVO7BAPRJAQgKQSQAPsEAAFpA9VQVMVQE5ADZMAAo9ADc5VQ9PVjFPAEc0UQ1PXAs5ADewQD0UQFI3kDlMBkxSAjQAB7BATgCQTwBdTAAPNFEGSVcCOQANsEBQFUBUEkBbApBJABGwQGYSQHUTQHkWQGEBkDFQCEVTBbBAAAeQNAAlRQACR0YfsEM1FZA0QBBJVQMxAARHADJJABlKUy0xUA80AAlMUQJKADFOURFMAAoxAA8tVAOwQEALkE9aB7BAAAJDMRiQTgAUTwAELQBFL1EJTlYlLwADTgBPMVMUTFcmMQAHTABOTlkEMlgSsEA+CZAyAAqwQGcSQH9JkExTBU4AAE4jFE4AIEwAOrBAZRCQN1kCsEA2BJBKVxKwQAADkEdECjcAA0UzDUoAB0cAC0UALbBDLRVANAKQOVcDSkYGRVYIsEBcAUMnB5A5AAmwQHgSQH8AkEoAArBDLQ6QRQA7TEYCsEMpDJBNQRtNABCwQy4xkEwAE0NXAS1VBklUJ7BAXgSQLQAHQwAJsEAAA5BJACKwQygMkCZSGUpSK0w6HkwAQEVRDCpIH0UAQioAHC1SAkJRIkIAKi0ALyYAC7BAIQFDLRJARQCQMlQEPlcPsEBNAUMyB5BKAAIyAAY+AAOwQFMUQF0TQHEBQzYQQH8AQzsTQ0EnQ0VKQ0wmQG0UQFUTQDoPQAAnkDk+gQc2Pwg5AHk2AAwyO38yAAs3PYEFNkMINwBxNgACMkNxMgAPOUQesENIbZA2RA85AEI2AB4yR4EJMgANN0uBDzZNDjcAQzYAJjJRTTIAOzlVOrBDRBuQOQAyNlI4sEM9PJA5Uw02ADs5ADg8UEc8AFsyTwSwQDUUQFIKkDIACbBAaRNAfYFQQHgSQFsGkDtQD7BAHRBAAD6QOwAvN01yO00EsEAfC5A3AAawQCkUQCwOkDsARz5RILBAKhJAFwaQPgAOsEAARJA0VBuwQBkMkDQABbBARBRAVhRAahNAfQFDQoE+kDxUCrBAdhNAWhRANBFAAACQPABJOUw9sEAXEkAsFEA0E5A5AAE8TBKwQDYnkDwASEBMA7BAOCyQQABGsEArEEAAAJA2T2CwQDQCkDYAAbBDPhBARQmQPkkIsEBOE0BTQpA+ABw8UTM8ABewQE8TQDwTQAAnkDtPI7BANRFARRZAThFAUQOQOwAjN0ArNwBPMkgysEBKDJAyAAawQEAUQDATQCkXkDdMILBAFxNAACKQNwAmMkQ1MgBUPkUILTMZLzIlLwACLQA8K0YDO0YLPgBLsENCO5A3PQI7AEg3AD48PwQ0OHM0ABM7PwE8AA4yND87ACs3NT43AFArAAY+OgkqQEA+ABwqACc7NwgrPU87ADY3K2w3ABIyABQ8NwU0N2g0ABE8AAY7OQEyNFg7AC83N4ECKwAEKjwGPkMSNwAsKgA+K0AIPgAFO0UiMgAdsEM+PJArAAs7AAEvPQI+RGsvAAE+AAiwQzoMkEFEATI8Y0EAEbBAJwFDNhNANwSQLz4BN0kBMgAMsEAyEUAwFEAuJUAwFZAvAA8rPhWwQC5eQCcJkCsACbBAHAeQMEENsEATDJBARSM3AAiwQA0UQAAqkDAADy1FDDxJDEAAD7BDMVeQMEUELQALQEoDPABcMAAPQAANQ00KND5ZNAAAQwAXMEEJsEMtAJA5ThSwQBsSQB8UQC0DkDAAILBANi2QLUFqsEAzDZAtABewQDACkDJCCUFNHLBALQuQOQAIsEAqE0AmJUAhAZAyABMvQQg+UgpBAHEyRAZBUAQ+AAkvAF4yABVBAAM1QQRFUF9FAB4yQQE1AAQ7SXgvQgMyAARDTQI7AH2wQBwIkEMABEFMCS8AAzJHD7BADQFDMRFAAECQMgAWQEYFQQALMEZXsEAXFEApEkAvCZA0PARAAAKwQDMCkDAAQzQAJzdCG7BAMBNALBNAKSCQNwAZsEAkAZA0QCSwQB45QBoRkDQADzA6GLBAFk1AEAqQMAATPEQCNEIssEAJEkAAAZA0AF85SQkqSAE8AD6wQCAHkDkAKTxMgQdATAs8AEYqADFAAAE8TiqwQCU6QCgOkDlRBbBAKgSQPAAQsEAtEkAxEkA2D5A5AAOwQDknQDYHkDxTAy1JBrBAAE+QPAAhLQAAL0cEsEAbE0AnA5A2Sh82AAOwQB0BQzUmQzsmkC8AATJCbLBDPxOQMgAgPlMGsEAXAJA2RBY+ABg2ABywQBITQAAWkDJICzxQGjtEBzwAH7BAFxJAOQyQPD0FsEA3BZAvSQk7AASwQDAJkDIAC7BAHBVAAA2QOzoDsEANCpA8AAiwQCQTQCsckC8ADLBAHAiQOwADMj8HOVACsEAALZAyADUoTCY3SwE5AA2wQAsSQDAmQCoSQCQAkDcAHjtQCbBAMhRAOhBAPBVAMhJAADGQOwAHsEAhAJA+ThOwQDkUQEITQEEVkD4AAygACrBAPRJANh2QO08KsEA9EkBBLJA7AA2wQD4UQDwIkDdQHbBAPheQNwBHsEBBAJArRQs7SgewQEImQDoTQAAAkDsAMSsABC1EDTRHJjQAMbBDQyGQLQAKMD1qsENHAZAwAB48SgE0OHs8AAU0AAcwNwg5SDSwQDAAQ0sTQD0SQEEjQEISQEUJkDAACS0xArBAShFAUBRAVA9AVydAXxFAZQ6QOQAAQ0sFsEBqB5AwQQiwQGYMkC0ACLBAVBZAMxFAACeQQwAEMAAGQkIQMkZVMgAAMjQYQgAOPj8/PgA+O0oDQ0I8QwA7OwAPQkAEOT5aQgAgPjhEPgBKMgAHMUkBRURWMQAPRQAkQj8KMjxeQgAbPjw4PgBDOQAJOz8FQ0J5OwAHQwACQkIJOUNSQgAnPj56PgAVMUQDRUcCMgA/MQBaMkcCRQAFQkljOQARNkQFMgACRVAFQgBTRQAdNgAJOUECSE1fSAAcNkMBOQAMPk8UsEAJFUAUDJA2AAWwQBo8kDJGSzIARTdACUdPDrBDRyGQPgAqsEAQEkAACZA3AAtHAAI0RgdDUx2wQ0M2kEMAMDdHBTQAAUdUWUcAGTcAD0pRCjtDTEoAHTsABjdFDkBNKbBAFxFAIhNAJwuQNwAbNEeBBTQABTlGCUhRE0AAVzkAETZIBUVUBkgAAbBAAHSQOUQHSFQBRQAHsEASC5A2AB2wQAAtkDkAC7BAFAyQSAAGsEAeBZA8RQBMUjGwQABRkEwAAzlJDjwABkJSCbBAIgFDRxJAMS+QQgAFOQAhNkUISk8CsEA1E0A4E0A6OEA9EZA5TAKwQD4IkDYABUhQBrBAPwqQSgAIsEA9CZA5AAqwQBsTQAAakEgAITdVCkdSBbBAFxZAPRRARThARAaQRwAIO0kLSlIFNwBUOwARsEBGC5A+TA1PTAdKABs+ABCwQDITQAALkE8AGztTFEpZJ7BAOxBARiNASCOQPk4FsEBGCJA7AARKAANPQBBNRjE+AAVNABmwQEgQkENKClQ9BVNDAU8AGLBASgeQUwAAVAADQwAxsEBFEkAgEZA8TAFMUwKwQABLQBAMkEwAB7BALBJAOBJAOwCQQEIMPAAGTzkGUTUeUQAEsEA9CpBPAAZAAAOwQD8lQEAIkEdGFENBK0MAAkcAArBAPxNALxNAABeQSEwIQEYssEATDZBAAAFIAASwQDQUQEETQEQTkExMBzxMILBARhOQTAATPAAlsEBIBJBAThlDTgSwQEoOkEAABbBATQeQQwAhsEBBEUAAAUNMJJA2UglFWh2wQBsTQD4UQEsSQE8BQ1ETQEwFkEUABTlICbBASgyQNgABSE8+sEBMC5A5ABpIAAo8TA1OTRo8ABqwQEcUQCYAkE4AFLBAABiQOVIJSFgqsEAkEkBBE0BJGpBIAAM8SAg5ABJOTUo8AChCQAGwQEwGkE4ABFFOCLBAThqQQgAaUQAGsEBCEkAAJZA7RAVLUUOwQCQMkEsACLBAQRNAQwWQOwAOsEBBDpBOSQE/PQOwQD8SQEAVQEEEkD8ADrBAQgiQTgAcsEBEIJBCOgRFSRiwQEYNkEIAE0UAF7BARBRANhFAAAqQPzoFR0s3PwAPRwAIsEAcFEAwEZBLUgGwQDgDkDtDErBAPBNAPRNAPwmQOwALsEBCA5BLAA6wQEMQkD9OEEJRDT8AHrBAPRJAAAKQQgAyNFgKQ1AhsENME0A7E0BFEJBDABawQEQKkDdLATQAB0dQJrBDSCyQNwAGRwAxO0gATFEJsEBGHpA7AAmwQEEEkEwAD7BAADuQN1ECR1g1sEBAFEBMKJA3AAE7RwBHAAlMVUk7AChMAAVASgxPVCBAABtPAAWwQEEUQAAlQ0QHkDlNCEhYKrBAHQJDSBFAQg6QOQAEsEBGAZBIABKwQEMPkDxFA7BAQQ+QTE05PAADsEBCQpBAQAFEUgRMACpAABewQEEMkEQAF7BAPw+QPEUDsENDBpBFVS+wQD4okDwAFUUAD7BAPQmQOUcLsEA8ApBIWRGwQz4kQDo6QDYDkExYATxKCzkAArBALQKQSAARsEAAFUM6VpA8AAFRWQNMAAFASgOwQzMTQy8MkE0gLLBAOAGQTQASsEBLA5BAABCwQE0SQysAkEVJTbBATxNDJRNDHAmQRQAKsEMVAJBITBSwQFETkFEAJrBDDxuQSAAZRVRQsEMLEZBFAB5CVGKwQFMFkEIAJbBATQeQNFoFRVADsEA1DJBDRgewQAAUkEMATUUAAzNMEzQAA0dVZzMAAi9IUi8ANDROJk9SazNKBLBAJAOQNAAQTlcDsEAWA5BPAA2wQAA7Qw8QQxMBkDMACS9HCLBDF3WQLwALNlAGRVQgRwAYTgAsNgApM0wXR1gCsEAPAZBFABKwQAAokDMAEbBDHB+QL0tNLwBHNEgDT1BBRwALNAAsRz0KM0wGTlELTwAHsEAmF0BBEUAyD5AzAASwQAAkkC9Jby8AIUVQFjZKDkcAEE4AG0UADDYAKjNEfTZLAktVDjMAOjYABksACLBDICWQOUsDTlgksEMcGpBOAAo5ABOwQyEmkE9WAS9WE7BASA+QS0oEsEBbBJAvAA+wQHAUQH8RQyU5kEdLD0sAJ7BDKgqQRwAxsEB2EJBMUAKwQFsBkDdMFLBANhJAADCQNwAOTwAKTAAPNEgESVE3SQA3NAACN0wJTFEYSy0RNwARSwA0O04IT1ciTAAiOwBGsEMuBJAxWgRRWgxMWAxPAAawQEACkDEAD7BAWxRAcBNAfAFDNhNDOgyQTAAZSVA9SQBFOVACsEByAJBOTRKwQFkVQDIPkDkAArBAACSQTgAbNkoKS1U1UQAYSwAfNgAAOUkNTlQ9OQAYTgAhPEwKUVM3PABAM1YOU1YETlUBUQAtsEBBFEBUCpAzAANOAAWwQF8tkDtNCEtTQjsAB0sAKTlWDE5NFTkALrBAWBZAPxBAAAKQTgAON1gRTFIFsEM+JkAeEkA/E5A3AAGwQEgEkEwAD7BASwiQNFEQT0wkNABJL1MGTwAFS1UbsEBJBpAvAAqwQEQVQAsIkEsACbBAACyQNFUFTFUtsEA9FUBNDpBMAAOwQFIQkDQAGLBATgaQT08IL0EGLT8fLwAFLQBTK1kFS1MMTwAIsEBQFpArACSwQEQEkEsAELBAACuQMF4HTFIcUwAQsEAeEUA6EkAvAJBMAAGwQ0UUQAABQ0kekFBKUlAAMVFQd01OFlEAb0tOAS9HBTAAB00AOUsALUxKDjBPBS8AR0wABLBDRTiQLVECSE0WMABeL1IESAAQREgXLQAjLwAwRAAEMFUARUs8MAArRQAVLVYSQVMqsEAeEkArFEAlCZBBAAewQBcAkC9UE7BAAAiQP1IfsEAdE0ArA5AvAAYtAAmwQCYVQAAKkDBREUBPBD8ALDAAH0AABLBDSiOQKk8OP1gwsEAmHpA/AAewQCIUkC1LCEJTBSoAK7BAKhJALhyQLQAYsEAqCZAwSABCAA1FVkuwQCwhkEUAAbBAJgeQSFAOsEAhBpAzSQgwACRIAAWwQCoTQC8VQDEHkDZKDEdICTMACbBALhGQRwAqsEAyE0A2EEAzCpA5RQmwQAAEkEtXDzYARTkABrBAEwuQN0cHsEAwFJBMUgGwQCcSQAADkEsASbBACxCQNwACNkoCsEAnCpBOUgewQCwKkEwACbBAKCdAJCZALAiQNEwGNgAFsEAuD5BPUBawQDABkE4AFLBAMgaQTwAJsEA4DpA0AAawQD4TQEAGkDtSA0dYC7BAOiFAAB2QRwAcsENOKENSCJBMUkhMAB+wQ1gHkC9IB0tUBTsACUVLJkUATzRMAEsAAi8ABU0+EUxEAUM8BEVDHkwAA0UABEMATk0AAE0eCEwaE0AVE00AHUAAQ0U+BTxDYkUADLBDXAeQPAAAQ0APO0AXQwBnQDBMQABNNAALM0QBRzpaMwAkRwAGNEEDQzw1QwBSQDE4QAA9OwAKRToGPDlLRQA9QzoMOzgCPAAxQwBGQDM+QABFNAAMMz4YRzgwMwBXNEAGRwACREIVTABCOwAROEIINAAQRAAER0VaRwAEOAAOO0EPSkxeSgAVOEECOwAPQE5sOAAEND8MsEAJgQOQSFEDOT8CNAApQABCOQASNkQCRVQLSAB4RQACSFADOUgLsEAAF5A2AE45AAlIAANMVAg8Q1awQAsGkEwADbBAFxGQOUYDQlQBPAARsEATSkAZG5A5AAU2RWZCABI2AAc7RAdKUxawQABdkDhHCDsABEdWB0oAcjtKBTgAAkpWAkcAczsAE0oAAT5LA01VXE0AF7BAPASQO08LPgAEsEBFAUNYBpBEWAuwQEIVQD4QQDkTQDcUQDsSQD8JkDhQAUQAB0xRBLBAQgFDUQKQOwAPsENJFEBBAkNBNkBCEkM7AZBKUQE7UgxMAAE4AASwQEMBQy8UQx0QQwwSQEEUQBMJkDsACbBAABCQOVcLSE8ZSgBsSAABRUWBFUFBAEpMCUUAKbBDCEWQQEcBQQAaSEwNSgBeSAAURUJ6OEoCOQAOTFARRQAvOABDOUYFTAABSEpxSAANRUNZRQAoSkoIQUQBQAB3QQAHSEkEQEkESgBRSAAxRUgCsEAUAUMMFUAbAkMQEUAgAUMVEUAmFEAsE0AwJkAyA5A5AAM4RANMUQZFADuwQDQIkDgAMbBALQuQOUwFSVIBsEAaBZBMABGwQAASkEAASD1MCUxXBTkACUkAWEwACkBHAj0AEU9UYU8AFD1MEkAAAkVTLrBDGRRAHBJALBVAMwSQOUkEPQAusEA1JkA3KpA5AAs+SBBOUkNFAEA+AAg7SwRKVwVOAAiwQDMSQCkUQB4SQx0mQAsHkD5LATsACbBAAAKQTlkRSgBxUVgHQkUEPgABTgBgUQAQPkIFQgACR1QUsEAsEkA5E0A9SpA7RQA+AIEGQEUDsEA8AJA7AARPURpHAAWwQDkTQDcTQDQTQDEikEAAAT1KBLBALQaQTFgFTwAHsEAqIkAoWZBASQFPVgVMAB89ABmwQCQrkEAABU8ACbBAHQuQQ0oCU1MFsEAAAUMiTJBTACRATAJDAA9JWBewQyYmQBwQkEkAA7BALRJANgyQPVIFsEA5AZBRUwZAAFiwQDsdkEBPBU9UAj0AAbBAPQuQUQAJsEA+E0BDE0BHE0BKFEBFCZBAAAewQBIFkD5YBU5SCbBAAA2QTwBoSkcMTgCBB0oAE0dSAU9JNbBAFwFDKhNAAD2QTkoFRwAHRUIETwAisEMuPpBOAAxKRFZKACw+AAc9SAdRSzCwQzMLkD0AO1EABT5FB05JaE4AGUpCUEoAGEUAHU9KA0dEgQNOTQNFTAJHAAZPADxOADhKTEewQzcUkEoALFFTCj4ABD1IST0ANE5XDD5MBVEAB7BAFhFAABOQRQAwTgALUVgLQkwMPgBLUQAeVFgJQgAARUtLVAAvQkoCsEAwBpBKVwVFAAiwQEEUQEUakEIAMz5IXz4AHrBDOxmQQ00MU1UosEBED5BKAAWwQEATQDATQAAZkDxMB0xaCFMACUMAU7BAJgiQQEcIT1cCsEApCpBMAAQ8ABqwQCEgkEAAFrBAJwmQTwATQ0oJsEAcBJBTVA+wQABUkFMAB0BJCkMACkhSNUAACbBAJxBAMhqQPE5EsEA0CZA8AAqwQDcTQDknkEJOCVFTC7BAOzWQSAAksEAwFEAAEJA7UARKWBVRAAJCADOwQCIRQDQVQDoJkDsAAD5KB05TEkoAaUJLCT4AAVFSCU4AC7BAOBRAKhJAACiQUQAWPksDQgAHR00psEAXEkAqFEAyEUA0IZA7SAM+ABawQDY3kDsAJ7BAOA6QQEUIT1AzRwBNTwABOUgASFcNQAAFsEAnFUAAWkAXC5A8RQFMTQQ5AAKwQDMKkEgACrBAPxJAQyiQPAAiTAAOT1EDQEYssEBCD0BBFUA4AJBPABKwQAAXkEAAAjxJBUVWLbBAEBVAMBFAPQKQPAAMRQAFsEBBE5A5SQZIU1mwQEIekDxOAEgADExGDEpKAbBAOBRAAACQOQAgPAAMSgADTAAdsEAXDJA+TgJCVgWwQDsSQEgTQEoTQEgTQEYIkEIAEUVPDLBASAGQOUwCsEM3AJA+AEqwQEUSQzAUQysUQyUNkDZLA0hUCDkAAUUAB7BAPgFDIRJAABJDGxVDFxBDEgyQNgAJMlMLPlQGsEBFD5AyAAWwQFcTQGNVkEJTMLBAVRJASRNARAOQSAAhLVoBsEA9D5BFVAOwQAABQxYZkEIAWypRD0hRFLBDHACQRQASsEMhBZAtABMqADkmSEAmAE0rRQpHTihIAEawQDIMkCpGAisAA7BAQgyQRVAIsEAAAkMmAJBHADk+AAgqACkmRSawQytQkCYAHy1NCUhSE0UAcCpHCD5HCi0AcLBAMgFDLwCQJkUDKgANsEAlE0AAQJAmADErSwlHSSxIADU+ABYqSwkrAAdFUBJHAD4qAAGwQA0ZkCZMDrBACW5AAAOQJgAbLVMLSFQpRyoERQAZLQAERwAzKkYKPkhQPgAdLUkHKgADQkVHLQAkQgALRUUDMEk4MAAlRQATsEA3A5BIAAwmUgOwQEQBkEJTE7BATAFDMwmQJgAKsEBUFEBaB5BCAAmwQGESQGUekEVNZbBAbAKQRQAdL1gBSlccsEBYEkAuFkAAREAUC5ArSAIvAARATAOwQC0lQCggkEAALLBAKwOQKwABL0kNQ00kLwAnQwAgMkwWR1IDsEAbFEAAEZAyACJHABooVx1DUgiwQDYBQzgAkEoAASgAD7BATRVAWgNDPA9AZxRAbCiQR1AQQwAUsENBEUNGSZAwWAVHAARMWQ2wQGQTQEwSQAAKkDAANi1PEUJSLC0AHkIANTBEEUVGFzAANLBACQ2QRQAMNE4RSFINsEAAEJA0ADJIACcqVgZMAApFVCwqAASwQD4TQEoUQE4ikDJPAEhRKzIASjBPCE5TBUgAFTAAFrBASwiQSwkLsEBBC5BLAAiwQAAkkE4ABi9TDE9WAUUAAEUzJ7BANRRARAOQRQAQsEBLE0BNE0NKBpAvAAgyPASwQEsEkEpHATA7aDAAEEdOBE8AAjIAAEoAGzdGB7BARxVALhFAABVDRQqQNwARRwAWO00AQ1gFsEAkFkA6EUBBFUA/EUA9AZA7AA5DACBNWBA3PwY1Qi6wQD4DkDUAJk0ADztECDcAAEpZCDk9HDkADLBANQWQOwAOsEAAF5BKABs8TxJMVhuwQBwRQC8SQDQ4kDk+DTwACEg9CUdGCrBANhRAOD+QSAAIRwADRUwCNkABOQAQsEA2AJBMABOwQCcSQAAtkDYACrBALASQRQACMkwNsEA+BJBCUhGwQEQRQEIlQD4TQDsCQ0oAkEIAI7BAPwWQRU4JNkoDsEBBCpAyADCwQD4RQD0VQD8SQEENkEhSAjlRATYAB0UAD7BAORNAAAFDRjuQOQADN1UMsENKBJBHUghIAAewQD0TQEoGkDcADrBATRNASwmQRwADN0YGsEBIKJBFURGwQEomkEUAE7BATBJAThJAUQqQME0EQFcAQ1QJNwAQsEBBFEAAB5BDAAdAAD4yUgcwAARDUwg+VzlDACSwQCwTQEESQEcDkEVQCj4ABrBARAFDThRAPiRARSFATRGQJk4CsEBVGZA8UgNCUwBFAAywQE8AkCYAEbBAMBNAADOQQgARMgAKK1ETQ1UkPAAmsENKOpAvSAA+VCOwQ0IRkD4AA7BDMQGQLwASsEMYQ5A7UwIyTQSwQwAWkDsAFDIAgQGwQBcVQFAJkDdUAisABrBAYRVAawCQNwAlsEB2EkB/JZBDAIFxsEBhFEApBJA5TA6wQAAtkDkAVTZNPbBAOAFDDhBAPwFDEhNAABSQNgAHMkUbsEMWOkMbMJAyAAo3QSSwQx8+kDcAITZESzYALDJFUjIAMzlIgSg2SAg5ACo2AA+wQyUnQykAkDJHcrBDLiuQMgAFNz8RMhkBMgBwNwARNkU/NgAFsEMzMpAyRUGwQzglQzwCkDIAIzlLZzkAIDZIgQI5TQs2ACk5AEs8SU08AD0yUw6wQDoTQE8AkDIAErBAYxZAexFAfwFDQBFDRIEsQHgFkDtQDLBAVxJAHRNAAAyQOwBHN0wysEAiE0AoL5A3AAY7Rys7ACGwQCpJkD5MKLBAJgCQPgATsEAAX5A0RBKwQDwPkDQABbBATRNAXRNAbhFAeIEvkDxPD7BAdBNAaBRAVAeQPAAJsEA/AkNAEkAnEkAgG5A5SUSwQCQ0kDkAATxLRDwAMLBAKBqQQEcMsENENkAkB5BAAAywQAA1kDZPQTYAC7BAMBJAPRJARBGQPkcEsEBGP5A+ADU8TyE8AE6wQDoRQAAOkDtPG7BADRJAMBJAQAmQOwALsEBIJUBEAJA3RRGwQEIVQEQGkDcAUzJDUDIAJrBAQhNAQQiQNz8xsEA8E0ApIUAADJA3ABAyO3AyAAywQ0gVkD5HPC0TBy8LMy0AFC8AAStBADtGCD4Aezc7BzsATDcANjxBBzQ2bDQAGDtAAzI1CTwASzsAIzc5gSErAAc+QQYqPwE3AEoqADo7PwUrODo+AB87ACU3OFg3ABEyABk0MQM8PX47Pg48AAM0AAcyOz07ADI3O4ENNwAHPkQEKwAJKjk6KgBaPgACO0YEKz5RMgAlKwAAL0ABOwAGPklaPgAdMkABLwAEQUoWsENEQZBBAAiwQ0ATQzkLkDIACrBDMQCQLz0GN0cMsEMsPJAvABGwQBMRQB8BQyYSQCcAkCs6FLBAKgBDIluQKwAZMDwDQEkgsEMeAJA3ACWwQCMTQBQTQAAJkDAADzxRAi1IDEAAgQAtAAM8AAQwQQBATlswAApAABc0QQFDS1w0AA9DABIwQRA5TDGwQAsTQB0QQCoVQDYMkC0+BrBAPAWQMAAOsEA/X5AtABsyPw1BTxCwQD4PkDkAFbBAPCdAOAGQMgATsEAzBZAvQQ2wQCwDkD5SCUEAB7BAJhRAIlCQMkIJQVIBPgAVLwBBMgA3NUAFQQAARVBmRQAENQANMjwIO01vOwAFL0ENQ00BMgB8QU0FQwABLwAJMkUFsEAaE0AAMJAyADRBAAowQgFAQE2wQA0BQyITQCoTQDQEkEAAD7BAPQGQNEIRsEBBBJAwAEg0ACY3PxKwQD8SQD0TQDsTkDcAJ7BAORaQNEMfsEA1FEAyJUAwIJA0AAIwP3QwABU0RgE8SBKwQCkSQAAOkDQATSpLAjlIFTwAEbBAJCZALQiQOQAKsEAzFEA2FZA8SBKwQDhIkDwAJ0BKTioADEAAJTxLbDwACDlPVzkANDxRBi1IBLBAMhRAADGQPAApL0gBLQACsEAnEZA2SgOwQDoUQDwKkDYAB7BAOAFDJhNAMhZAMAJDKhSQMkYOLwARsEAhFEAAAkMuSZAyACM2PwA+Uxw+ABY2AEYySgo8VxU7RAw8AAiwQzITQDcGkDIADrBALACQPEYTsEAACZAvSwc7AEA7RQo8ADg7AAcyRAMvABI5UzAyADA5ACMoTBA3UkY3AAKwQAsBQzYQQCUZkDtNVjsAIj5MTz4ALztKCigAY7BDOhGQN08EOwA0NwBCKz4LPEUSsEAoFEAiDZA8AAewQABLQ0EBkC1AAjRHASsAIDQAcLBDSAiQMDsLLQBfMAARsENNC5A8SAU0O2s0ABQwQQQ8ABQ5Ogo3Qx+wQCIIkDcACbBAOBVAQxFASwKQOQAAOTIPLT0BsEBSAkNRDJAwAASwQFgWQF0mQGFGkENHEDBICLBAUgmQLQADOQAIsEA0EEAANpAwAARDAAlCQggySEywQ1UnkEIACT4+Wj4AMbBDURaQO0gBQz5VOwApQwALOUQBQjoasENWPZBCACc+NVQ+ADgyAAFFPwExS1lFABUxACBCPg4yLWZCAAs+OUY+AC45AA87Ow1DPoEHOwABQwAFQkQBOUBEsEAcD5BCAASwQCkTQDISQDcMkD47B7BAOU1APCdAPQWQPgAFMgAARUkBMUVJMQAtsEA4EZBCTAGwQDEFkDJIAkUADrBAJRRADxJAABqQOQAnRUsHNkUGMgABQgBRRQAhOUIFSE8DNgBeSAAasEAhBJA5AAc2QwM+SwSwQC0VQDEkQDNOkDJFAzYAaLBAMRCQMgAXN0gAR1AksEAuEpA+AAGwQCsTQCkgkDcABrBAIhRAGwGQQ1QDRwAHNEQZsEAASpA3UABDAAk0AAxHTz43AB1HABtKUQo7SUVKACA7AA43RxawQCsFkEBFDrBANxJAORVAOwyQNwAGsEA9E0A/EEBBAJA0S4EGNAAJOUgfSEgIQAA9sEA/EpA5AAGwQDwWQC8BkDZKDUVUAbBAAAiQSABmOUkNSFMFRQAFNgBCOQA1SAABTFIBPEV1PAABOUkLTAACQlMysEAgEUAyAJA5ABWwQDwBkEIAEbBAQRGQNkMBsEBEApBKTCWwQEY6QEgJkDlLDTYABUhQDLBASgmQSgAfOQAOsEBFFUAuCJBIAAewQAAZkDdUBUdWPbBAIBNAOxNARhVASwOQRwAVO0cASlURNwA0sEBNLJA7AA2wQE8EkE9QBD5IBEoAKj4AFbBASgyQTwAGsEAiFEAACZA7Ug1KXTWwQDMUQEYTQFATQFYGkD5LBDsABk9ACEoADE1FTz4AGFNPBENKCU0AA08AELBAWxmQQwAHUwA7sEBQApA8Tw1MVASwQB8TQAA8kEwAEbBALBZAPQWQQEcDPAADT04FsEBEKJBAABNPAB6wQEctkEdICUNBM0cAAkMACbBARBNALxJAABeQSE0HQEEssEAiBpBIAAywQDoFkEAAELBAQxJARhKQTD8OPEE3TAAHPAAnsEBIApBATQhDTRJAABJDAAmwQEQUQCUSQAATQ1sYkDZSBUVaHLBALhNARBRAUBJAWQ2QRQAasENgA5A5SAZITwc2ADxIABE5ACU8TAdOTyE8ACFOABawQEgTQAALkDlUFkhZObBAGRNAPRNASQaQSAANsEBQAJA8SQg5AA2wQFMIkE5MRLBAVQyQPAAEsEBXJpBOAAJRTgRCRg2wQF0ZkEIADbBAYgiQUQAfsEBVE0AkDpBLVAKwQAANkDtCLksAEbBANxNARQeQOwANsEBJCZBOSBQ/PTI/AApOAD9FQw5COAKwQEsckEUACEIAFbBASBNAORRAABGQR0kIPzgvRwAEsEAnEkA7BZA/AA2wQEQUQEYHkEtPCTs5UUsAAzsACrBASRmQP0cJQlEDsEBLEJA/ACFCAAiwQEkSQC8TQAAbkDRaAUNbL7BAFAFDXBJAQxNATwOQQwAQsEBWHJBHUAE3QwQ0AFc3AANHAB07RQZMUgywQFoSkDsAH0wAB7BAVxRAQRRAAAyQN1IHR1g4sEAiE0BFE0BQCJBHAAewQFUHkDtMAjcAA0xXTjsAFkwAGk9TBEBJHrBAVw+QQAAJTwBDsEBNEkAABpA5TQRIVEOwQ2APkEgABLBALwWQOQAPsEA+EUBBBpA8SAdMTRqwQEAmkDwAErBAQRNAPxNANgaQTAAGQEIAREoHsEAdE0AQE0AfCZBAAAlEAAGwQCoRQDEUQDcRkDxGAbBAOgWQRVQPsEA9EUA+AkNcEUBBFUBCCJA8AAmwQEQHkEUAFzlJBUhXPrBARiVASAqQSAAKTFsGPEwMsEBKApA5AA+wQ1cUQEw4QD8VQAAIkEBQATwAAFFaB7BDUw6QTAAETTMVsENNCJBNAAtAABSwQDgRQEkiQE8mQ0cDkEVEJbBAUzhDPQWQRQAPsEMtDJBITASwQFUBQyASQFcnQFsBQxoIkFEAB7BDEw+QSAAEsEBhIJBFTgiwQGYBQwA3QGomQG8EkEUAFUJUQ7BAdA+QQgAYsEBeEJA0WQKwQDABkEVSE7BAADpAHAOQNAAPsEA5FEA8DZBFAAEzSwOwQDYUQDICkEdQD7BANRRAOxJAQAWQMwAisEA8FUA4AZAvQCSwQDsRQD0UQDwHkC8AC7BANRNAHxRAAB2QNEMFT09ysEAWBZA0AAwzSAKwQCwAkE5TBk8AC7BAMzlDCxJANQBDDwyQMwAHsEA6BJAvRA6wQDxhQD0BQxYXkDZNC0VZAi8AE7BAPAeQRwANsEAwAUMRCpBOAAWwQAAekDYAB7BDFR+QM0gFRQARR1kEsEMRO0MWBJAzADMvRCWwQBAUQBkZkC8AM7BAIRJAJQCQT1YENEYksEAgEUAAC5BHAEBHQA9OVwM0AAIzTgxPAAGwQAkVQCsSQDYVQDgKkDMAJS9LGLBDEktDFxaQLwAJRVMUNksZsEMTAJBHAABOABtFABo2AASwQxcUQDYOkDNHAEdWS0cABjMAGTZQDktYNjYADksAGbBANBBALgSQOUwITloHsEAAJ0MTE5BOAAU5ADSwQCUBQxkJkC9YAU9bCLBARwFDHgiQS1cKsEBUA5AvAA+wQGMVQHASQHY3QyINkEdMCksAOEcARbBAcAeQN1ENsEBoCJBMRwqwQFwKkE0zCbBAUBGQTwACNwABsEBGAkMeCZBNAAiwQEEKkEwAB7BAPxWQNEwLSVY/sEA+A5BJABc0ABQ3TQ9MURBLMxY3ABJLABZMAAuwQD0SQDoIkDtNBE9ZB7BALBRAABKQOwAwTwAlMVkDUVgEsEMjA5BMVyWwQFYAkDEAA7BDJxJAdBBAfyeQTAAWSVAQsEMuMJBJAEVOTwE5Uw6wQG4UQFohQEMEkDkADrBALBRAKQuQTgAGsEArF0AtBJBLVQc2RydRABtLABI2ABGwQyoKkDlJBE5RTDkAB04ALDxNA1FVBrBAJRRAABSQPABLM1sDU0gETlYCUQAasEArFEBTAUMuCZAzAAiwQGMLkE4AB7BAayhAZgaQS1QEO08+OwAFSwAhsEBiEZA5UQNOTxSwQE8HkDkADLBAADuQUwAAUxodTgACN1gFTFIlsEBAFEBPAUMqDpBMAAKwQFICkDcAILBDLhRATwiQNEkJT0ohNAAasEMqIJBPAAawQy4JkC9SDEtUIy8AE7BARhJAAAOQSwA7NFwKTFMqsEA2E0BRFEBaA5BMACGwQFYAkC9RCDQAA09OCLBAUhiQLwBKTwAEK1oLS1cUsEBMEkAcAJArABSwQAAJkEsATTBfAkxSArBDMhdAJwGQUwAQsEBPAkM4E0BTD5BMAAKwQE4UQEQTQDwEkFBNIrBAPi6QUABAUVIRsEA9FEA7EkA3FEArFEANEkAADZBNTxNRAHFLUgEvSwcwAApNAD9LAC4wUQFMUAUvAFhMABwtTw1ITwIwAD0tABBIAB0vTxVERjYvADswURZFRgFEACkwADhFAActURJBUEWwQDYTQEgOkEEABLBAOQWQL1AQsEAACpA/TwQtAEsvABMwUQdASiQ/AAswACZAADQqSws/VBWwQDcBQzwSQEkRQEUTQD4CkD8AEbBAOgyQQlAHLUURsEA9AZAqAEUtAAlCAA9FUBAwOhawQDkNkDIkBLBAHhNAABiQRQARSE0cMgAFsEAZBpAwAAIzSQywQDAUQDcHkEgARkU5ATZKB0dBBTMAF0UAAkcAN7BAOiJAPgJDQAiQOTwJsEBBEpBLOAGwQEMFkDYAE0sADrBAPxNAIBNAAACQOQASsENECZA3SgdMVzNOUhNMACg2SwWwQ0gIkDcAB09WFk4AGE8ADzYAOTRJFExSB0pRFkwABUoAHTQAMDtPAbBAFwFDTxFAOACQR04QSEUCsENTE0AzAJBIAAhHAAywQC0mQDMTQDwBQ1gDkExSELBAPxJAPgyQTAAGsEA8NpAvQgOwQD0BQ14JkEVSBktUAjsAArBDYidAPAKQRQAGSwAusEA9FUNmB5BMUgQvAAawQDoAkDRKCENOGbBAGRNAAD+QQwAuQDBDQABCRTkFPEVXRQAlQ0EHPAAHO0IYQwBUQDs5QABhM08CNAAGRzpcMwAjNEUGRwANQzs4QwBXQC5HQAAhOwAWPDsDRTwyRQBSO0ECPAACQzo+QwBNQDJUQAAvNAALMz8JRzY8MwBENEgERwARRDgiOwAWTAAuOEkLRAAJNAANR0JFRwAZO0MbOAAFSk1wSgAMOwAEOEMePj8GsEAeAJBAPxOwQCkQkD4AA7BAKzGQOAABNEYFsEAwFEAycpA5SA1ITQM0AAKwQDQskEAASzZLAEVQATkACrBADQKQSAATsEAAXkAgAJA5SARITwZFABg2AAWwQBoRQAkmQBQVQCIDkDkABUgAAUxRAzxEF7BAAFuQTAAGsEArBZA5SQc8AAewQD4BkEJTHrBAQhNAPhRAOiRAPQqQOQAIsEBBBJA2RhKwQEQTQEMSQEEUQD4QkEIAArBAPxVAQhNARAJDagGQNgAEO0cBSlYcsEBBE0AxE0AAPJA4TAU7AAFHVwVKAHQ7TQFKWANHACU4AEpKAAk7AAg+UAFNVVBNAA6wQCYTQDIIkDtSCj4AAURaN7BDZBRANBRAOANDYAOQRAAMsEA6C5BMUQI4UQ47AECwQD0AQ1cTQ0sSQD4BQ0EOkDtRBkpSAzgAAUwAILBDOBNAOQBDJxRAAAFDDhBDABmQOwAIOVgMSE0NSgBvSAABRURxRQAhQVMMSkwysEAwFEAAKpBBAANATxlISB1KAERIAB5FQFBFACs4TwE5ABFMPluwQwgNkDgAGEwACkhBAzlIZUgAIkU8OkUAREAABEpFCEFNX7BAJQuQQQAGsEAsEJBKAANASQBIRgKwQCYUQB4TQwwTQCIKkEgACLBALhJANhNAOwmQRUhEsEMRE0A8JEMMB5BFAAQ4SAI5AAZMVUY4ADk5TwdJVRBMAB1AAEGwQDcRQCgKkD1OAkxWB7BAAAiQSQALOQBITAAcQEYFPQACT1VqTwAZQAADPUsBRVQWsEAcEkAoFUAyEkA7FEBBE0BDCZA5SQg9AHCwQwgEkDkADj5LB05SNEUARTtRAT4AAUpYCE4AELBAQRNAPxNAPRFAPCZANwKQOwAEPk0ITloDsEAvEZBKAASwQCIUQBsmQBQUQAArkEJKAVFXEj4AAk4ATlEAHz5LBUdWBEIAFbBAFBJALBVANw9AOiqQO00JPgCBBUBMA09WHTsADUcAUT1SCExbCEAACE8AaEBHA09XEkwADj0ATUAADU8AA7BAOACQQ00LU1gJsEAxE0AXFEAAJZBTABSwQA8AkEBTAbBDDAyQQwAIsEAlGJBJWQewQDETQDYTQwghkEkAF7BDDQmQPVMCUVILQABdsEMIC5BAUAg9AANPUxNRADOwQCgUQAASkEAAEj5ZB05PFU8AH7BAKhNAPRNARCCQSkoJTgAPsEMOOUMKA5BKAElHUgBPTCawQDoQQABCkEcABEVVBbBAIQWQTk0PsEA2CJBPAAuwQD5akE4ABUpIb7BAPwiQSgAHsEBACZA9UAE+ABJRUAywQD8TQD0UQDsgkD0AJD5QBVEAAU5MJrBAOCVANjOQSkoHTgA5sEAzE0AxA5BKABGwQCsQQBwNkEdUAU9QBrBACwKQRQA1sEATFEAcLZBHAARFUwNOUgOwQCALkE8AHrBAJSNAKBVAKw2QTgAFsEAuAZBKUhGwQDIUQDYRQDlQkD1LBFFZCz4ADEoAOD0AAbBANkWQPlECTlkWUQBsUVcCRQADQkYNPgAITgBMsEAuFEAACZBCAAJUVAJFSwxRAB1TEzywQBIDkFMACVQACLBALAaQSlQDQkYIsEA9C5BFAAewQEYUQElMkD5KCUIAZj4AFbBASwmQQ0oLU1UySgAqsEBIFEA+DJBMXASwQAAEkDxNA1MAEEMARrBAGxNAPBJASwyQQEQHsEBWApBPUQVMAAM8AAewQFtpkEAADENEAVNPDU8APbBATBNALAaQUwAKsEAAEJBITwFAQwdDACKwQCUTQDoTQEQVQEclkDxFBkAAVzwAJrBASQSQUVMEQkkySAAksEBGEkA3E0AAAJA7UAZKWRBRAAhCAC2wQC4UQEQSQFABkDsABT5ID7BAVwmQSgACTk84PgBNQkARUVATTgApsEBPE0A3AJBRABOwQAASkD48EEdMAUIABbBACRNANxBARxVAUBNAVCiQPgAEOzxWsEBWEJA7ABewQF4OkE9UBbBAZQGQQEMRsEBrKZBHABOwQFYOQDgUQAANkEhXA0AABTlMAk8AELBAKhNAPhJASRRATRCQOQAbTE0CPEsASAAxsEBQEZA8ABOwQFIakEwADbBAVgeQT1ACQEsJsEBbFEBgOkBZBpBAABqwQEIAkE8ACzxMCLBAAAWQRVowPAABsEAlFUA9E0BKBpBFAA2wQE8VkDlIAzw1AUhKJTwAD7BAUSVAUxNAVRGQSAABsEBXBpBMQQI8RAhKTQI5AAGwQF0SQGUWQGsnQF8IkDwABkoABbBARACQTAANPlADQlsDsEAAKEAmEEBDCJBCAAuwQFMUQGMMkEVQBbBAagOQOU8JPgB+NlEBSFQEOQAbsEBdCZBFAAuwQEAUQAADkDYALDJUBT5UAbBAPhZAWAKQMgAQsEB0EkB/RJBCUSmwQw40kEgANi1aBUVVA7BDEg6QQgADsEB1E0BGFEAAQZAqTw4tAABIUxCwQxcCkEUAXCoAByZGPCYATitLE0dQKUgAEysAFrBAIBNAPAyQKksGsEAAB5A+AAdFUglHAC4qADYmSm0mACktTwNIVyZFAG8+SwIqRRMtAEwqAComQWcmACJHTAUrTQiwQCgUQD4NkEgAHisAAz4ACrBAQBNARBNASQKQKk8IRVAIsEBPBJBHABCwQFQRQFsUQGQEkCoAD7BAbgFDGxaQJk0OsEBoFUBLE0AAN0MfF5AmAA0tUgFIWSNFABawQyRLkCpIAi0AAj5JWLBDKQiQPgAiLUkIQkUKKgAtLQAFsEMtJJBCABkwRglFSzMwACVFAA6wQBwUQEYDkCZTCEJNCLBAUAKQSAAQJgABsEBXA0M0BJBCAAqwQFwCQzoQQGMUQGoCQz4RQHANkEVSbEUAGi9SAkpXArBAXxVAQBFAAC+QLwAdsEAUCJArRwZATDtAAAgrAAywQBkUQB8VkC9GCUNKIy8ADkMARbBAFA6QMkgEsEAABpBHTCQyABdHACRKABYoVwpDUxGwQDwHkCgADLBAVxNAbRNAfQmQQwAMsENDL5BHSQFITD1IABRHABtMVQowVhawQGYSQEQTQAASkDAANEJXAi1LNi0ABEIAFbBDRyiQME8PRUwkMAAwRQAZNE4ISFAlNAAySAAasENLAJBMAAgqVx5FVR0qABewQEcRQFgTQGUYkDJUCEhVJTIASzBVDE5TDkgABDAAFUsoILBAUgWQSwAPsEAAAZBFAAlOAAewQ08dkE9YBi9EEEUgBLBALgGQMEATsEBHDpBFAASwQFYWQGAnQFsJkDJIA0pRAy8AKE8AGTAAHkoAAbBDVBOQR1ITMgABN0IjOR8BsEBTFEA9EUAAAJA3AAM5AAJHACOwQAsIkDtSAkNOCLBAOg+QRTkCsEBKFUBUCpBFAAY7AAhDAA+wQE0SQEgYkDdNAU1XDrBATCFATkGQTQASO04JsEBQAJA3AAZKUyKwQE0TQDkMkDsAA7BAABSQSgAeTEYEPE4EsEAWAUNZFEA8FEBLEkBTOUBVBpA5SAk8ABJITQSwQ10lQFATQEUEkEwADrBAPRRAPg2QNkgGsEA9BpBFUAg5AAawQCkPkEgAA7BAACaQRQASsEAyC5A2AAewQE0IkDJMDbBAYwGQQlYQsEB7A0NmD0B/AkNsA5BCAHg2RgBFVAIyACVHUxNFABqwQF8RQAAJkEhaCDlJETYACUcAgQxHVwc5AAU3RQVIAAWwQCMUQE4SQGATQGcTQGITQFoTQFEhkEVJG7BAUwaQRwAcsENoC5BFAC2wQFYhkDA5BEBRAjcABUNQBjJAB7BATwJDZBJAKQFDXACQQwASsEAAA5BAADawQ1gPkDIAADIlA7BDUBGQQ1YBMAABsEM7AZA+UhGwQxwlQwBJkD4AH0VQAUMAgSUmSgZCVQE8TwdFADomAIEXK1EIQgALQ08EMgCBRC9MCD5MGjwAES8AgXgySQA7RCQyAIMsN0eCArBAFxJAKBZANBFAOhNAPRNAPiVAQBRAQhJARBJARhNASCZASidAThRAUhJAVhFAWxRAYBJAZCRAaidAbiZAcjdAdjdAeydAf4gGkCsAZTcAHEMADzsALj4AgXewQHgTQGsTQFsVQEwSQEITQD82QD4VQD0SQDw5QDgSQDMUQDFbQCwUQChcQCQB/y8A sound-font visualizer=&quot;#section489 midi-visualizer&quot;&gt;&lt;/midi-player&gt;\n",
       "          &lt;midi-visualizer src=data:audio/midi;base64,TVRoZAAAAAYAAQACAeBNVHJrAAAAEwD/UQMHoSAA/1gEBAIYCAH/LwBNVHJrAAGGcQDAAACwQG4AQ3WDakByXkB2S0N5ggZAeoEAkEc8JbBDdTdDcQGQRwApsEBvE0BdEUBMCZA3LAlHNgGwQEEBQ2wTQDwmQEIBQ2cTQEwTQFkSQGcSQHETQHgPkDs3BbBAfQFDYxqQNwAvsENeUpA7AAI+NDGwQ1pCkD4AIEhMB0cACUM4GEgAgRU5PQBKRA2wQGMDkEMADrBAQRFAAAWQSE06SgAASjMISAApSDwWQzkKSgBeQwAuQjqBLkIACkgAAzkAAEdEIkAjHkcAAUgvUEgABUpEIDsyMUAAdz4/gTlCPyA+AIEDQzoWQgB/sEAtDpA7AAawQEISQE4DkEoABUdCDbBAWhJAZxNAchJAeTlAfRKQRwARSk6BGLBAbhSQTk0BsEBXBpBKAAE7OguwQDsTQAAoQCMSQDgTQEMhQEoNkDsABbBAUBRAVQCQT0kUsEBbDJBOAASwQGEUQGUTQGlgQGMCkExMCTw2BrBAUAuQTwAJsEAyEkAAOEApFEA7EkBFB5A8AAlMAAKwQEsEkE9ED7BATSdAURJAUxRAViVAWyKQSkYCsEBVAJBPAAM7OxOwQEQRQABNQC4UQD4RQEYEkEoADE8/A7BASQWQOwCBALBAQxNAMBNAAA+QSEYETwAVOS+BDkgACkdIWLBDVlWQRwANSEkGQj0cOQAUQwBsUUkKSACBHUIAEkhGATdDAVEAgRtIAA1HRoE2RwAGRUIKOz4tOwBhRQAKQ0CBMDcAB0dFEj45BEMAgSE2OUE+AGY2AAJDQAE0Mx9DAFM0ABoyPoFNRwACMgABMToMQECBKExFOkAAb0wAA0VGBDRCLjQAekUAEUxCgSQ5MwpDPwtMAB4xAHRDABFCQYElQgAEMTwIQ0VgMQBBTEcDQwCBNkNDAkwAATJAgRtCRgJDAIFGQEQINjsVOQASQgBCNgAzPkUAQACBO0BGCDIAATk7Hz4AeUJJJUAAgQ9DSQIwPCJCADawQCoRQDwTQEQAkDAAN0JMJ0MAgQdCABYvNwEyOgBDRxywQEIRQD8AkDkAFbBAOxFANhVAMBJAKhNAHBNAAAKQQwAGRUmBK0NKDzdAA0UAMbBAMAaQLwAPsEBED0BQE0BdFEBsE0B3BpBFTAuwQH0AkEMAKkUAeEdFEC0+DbBAYgGQMgASsEA4AJBFSwhHAAmwQAA3kEUAAkc4OEU9H0cAgR02NwI3AIEoQ0EJRQBAQwANRUE8RQAVNgAIR0EFLQADNzOBMSs4gR8vOBArAAM3AIEvMjIILwCBCDIAHDc2H0cAgRVHSoEgRwARTEIHOTAuOx4uOwAxS1IDOQADOzUETAASNwAvsENSXENOF5A8RAFLAAY7AANMUyuwQDgBQ0oSQEYTQE8TQFgCQ0YPQGAGkDwADLBAZg6QTAAGsEBsAUNBBpBOUAywQHABQz0TQHQDQzkkQzU3QHkmQH8IkDdGAkBFAUxQBU4AKbBAcBJAXxRAUyRAVRuQTAAMsEMxAZBOTIEVsEBeDZBOAAewQGUIkE9OGzcAArBAVgWQOT4QsEAuE0AAApBPAAdOQi9PSAdOAC1OQANPAIEvOQAOQAAOOywOPzEEsEAXFEA3FEBDEUBIFUBKJ0BNEUBPDJBOAAewQFEWkExCSLBATgOQTkYITAAJsEBLEkBGCJA/AAQ7AAiwQEENkE4AAkA0A7BAPA2QT0sGsEA4JkA2OEA0JkAyKJA7NV2wQDA2kDsAFjcwgSI3ABA7NVKwQC4SQCsSQB0TQAAukDsACTQ6PbBAIhBANBVAPBFAPxVAQR+QTkcnNAADsEBCDpBPAApAAA+wQEM5QEUlQEIHkDc6AkxKAk4AB7BANhVAAEtAJBJANBRAOBSQTAAISkoMNwAPsEA8FEA+E0BBEkBCE0BEWkA+CJBJTAZKAAWwQCsBkDk5FLBAAIESkExEC0kAgS07OQJHPAVMAFY7AFZMPyJHAHZMAB09PQVFRTE5AAmwQCoTQD0TQEcTQE0SQFISQFUQkE9JBLBAVzZAXAFDLSZAYEtAWwFDJw6QOUEDsEBSAJBOTxOwQEgCQyIAkE8AB0UACbBAQidDHSZDGT2QTE8oTgAMsEMUNJA5ACmwQEEDQxARQDcVQAAJkD42Aj0AAk5NFTIkAUwAgRJRRR9OAIEIUQANMgAETD4CNDpHNAB5UTcNTACBGlEAEzYuAEo6fTYAIEhFF0oAgSBHSQwyOxdIAC2wQA0SQBwSQCIBkDIAErBAJhNAKBRALAWQRUkMsEAwApBHABOwQDQTQDcjQDooQDwhQD0mQDsKkDc5AEUAA0dEBLBAKhZAAIESkEo6AkcAgStFQgRKAAc8ODI+AGJFAApKPwY8AIEnSgAJQ0EMOzSBBTsAE0MAAkpCIbBACR9AEBVAFxJAHTpACRJAABmQQkEASgAKOT0WsEANEkA2FUBHEUBSFUBXPJA3AAA5AAJKRFRCAFRKAA+wQFIIkDc+A0BHCLBARRNAKxFAAHqQSkiBCUAALElKCDRHGEoAgQQ3ABdHSyFJAIEdLUYGSUojRwAfsEAdEkAwEkA5EkA8FUA9EkA+BpBMTQ6wQD8EkEkAD7BAQSZAQkqQTAAVsEA/D5BFTgOwQDAKkC0ABzFHA7BAAIEHkDQADk9OAbBAJBNALxJAMjhANEdALxNAABCQTk8DMk4LMQAMTwAkRQBwTEwcTgCBD05LCCtDMLBANAGQTAASsEA9EkBDFUBJEkBOAUMUEkBSDJArAANKSgKwQFUBkDIABjRKEk4AIbBAWV2QSgATsEBeDJBJRhE2TQQtRBZJAAKwQEsAkDQAC0pCB7BAGRRAACSQSgADsEMYB5BJPR2wQx0YkEo+PUoAebBDIWqQNz0hLQAUNgAcsEAXE0AwFEA+E0BHEEBMFUBQEkBUE5BKQwGwQFkQQGAVQGcTQGwCkEkAOkoAfTcAFrBAYwmQNjICSj0GMi8DsEBbEUBQFkBFEUA+E0A9J0A8JUA6P5A+Og02AIEFMgAPPgAJNC4BNzaBEjcAHD46KrBAOG9ANg6QPgAFsEMdBZA5NQU2L0I0AGFOSwI5AAM+ORE2ADKwQDQNkEoABrBAMRRAKRNAGhNAEhyQNjoAUVEJsEAZBZAyMQE+AA6wQCgEkE4ADrBANBNAOyBAPhZAQBBAQRVAQhiQVFABMgAOPj4HNgAGUQAEsEBDgQNAQhRAQRNAPQCQNzsNPgACU0sEsEA3BJBUAA6wQC8UQCQTQBAUQABxkD4xgQo3ABU+AAM5NYEnUwAFUUcKPjKBPD4ABE9ICDszFVEAZzkAIE5LBz49FE8AgQY7AA1MSgdOAAE3Qw4+ACmwQBMUQDITQEEUQEsRQFEUQFMDkDcACEpSAj5CIUwACbBAVRVAVwmQSgAtsEBbRZA0PgZMTAKwQGAekD4AGk5KAbBAVRVAQwOQTAAOsEAlEkAALJBPRxhOABY+OoElNAAENjUTPgCBIT46Ak5EEk8AgSJOAAU+AAU3NQFMPQw2AIEPTAAHPjkHSkaBLD4ABkoAAUlDEbBAExmQNCQHsEAlEkA2E0BBE0BHCpA3AAiwQEkmkDQAGD40A0dFBEkAgQqwQEcWQEQSQD8GkDk6CElFBLBAOwSQRwAQsEA2C5A+AAewQDASQC4mQCwmQCoQkEkADEVCEj03EzkAMbBAKDhAHhNAFBCQPQAARQADsEALAJBKRQE7O0uwQBsTQCITQCYTQCgEkEoAEbBAKhFALQaQPjcARUALsEAvOkAxWJBFABWwQCYOkD08AExCAT4ABbBAAAmQOwBVsEAUEkAkFEAtB5BMAAQ9AAawQDIKkEAxEEU5C7BANHNANjCQOTQIQAACsEAuA5BPQA+wQBYRQAA6QBATQCUTQDELkE8ABrBANxWQTDsBPTUIOQAbsEA5R5BFADA9AA6wQDcOkD4zBrBAJwmQTT4CTAAHsEAAgRNAHRJAJhRAKQaQRTQMsEArKEAuBZA+AA2wQDAnQDIlQDASQC0FkDw1CUo6F0UAFk0ASbBALyVAMROQTD8dPAAPSgAgsEA0JkA2JkA0EkAkD5BNSgSwQAAFkDo8DkwAXbBADxRAHxJAKAWQOgACTQAOsEAtBJBKPw6wQDATQDInQDRLQCsfQCELkDlAA05IBrBAHAmQSgAwsEAhR5A5AAawQCUkkEpAOU4ATLBAEhNAAAyQSgAQOj8FT08+sEAtE0A/EUBIFUBMCpBPAAWwQE8IkDoAD7BAUQiQSkwKsEBUE0BWOUBbN0BSFUBHEEA6FEAyApBSUAk3ODxKADM3ABhSACNRRymwQDA5QC0TQCITQAA8kDQ7AlBAClEAKrBADxRAIBBAKwiQNAAMsEAyEkA3FEA6E0A9FEA+CJBKPAqwQEAUQEElQEISQEEUQDkQQA0OkEoABbBAABqQUAADOTMCSUAbsEAwFUBFEUBRFEBbE0BhApA5AEpPR4EXsEBWE0BGC5A+OwmwQDcCkE5BA08AC7BAMAeQSQCBGUhBgRlIAAVOABtHQwc3MYECPgAcNwAKTEoRQzWBGEcADkI3CUU9CUMACDkfgRdMAAdKTIE5RQAGQgADQDkQQzuBBUoAMklHgQM5ABCwQC5OkEAACz4yA0pGBUMAKkkADLBALIEFQCoGkEMogSpDAA1FPIE/QDcNsEAogTOQQAAAQkCBMz4AAT0zgQGwQyEbkD0AEj43gU45LYE2sEMlS0MpX5AyKRGwQCIUQy0SQB4nQBkkQBQAQzE6QBAkQzUmQAAlQzpgQz85Q0MlQAkTQB0UQCgSQDIVQDgBQ0gRQD4RQEIUQEUSQEgTQEoUQE0dkEUABLBATxRAUhJAVxNAXBFAZBJAbBRAdBNAeRGQSgAVsEB+A5BCAIEKOQAPMgAoPgCBELBDTyVDVTlDWihAehFAcwJDXxJAaxJAYhNAVxRASxFAPhJANBNAMkmQRz8DsEAwFUAuW5BHACWwQDARQDIkkEc8AbBANQqQNy4LsEA3EkA6FEA9EkBAFUBBaZA7KQewQD4UQDsTQDg3QDsUQD4QkDcAAbBAQhJARQmQPjQHOwAEsEBKE0BPE0BVEkBbE0BhFEBmEkBtD5A+AASwQHISkEhGArBAdgaQRwABQzUaSABPsEB6SJA5QwFKSw5DAAawQGYVQEcFkEoADrBAAASQSEhHSAAJSkM5SEACSgACQzlyQwA3QjoBsEAcAJBIAABIBxWwQCOBIpA5AABCAAFIAAhHOw9AMyiwQB4AkEg6A0cAJLBAGhiQSAAfsEAWAZBKQSWwQBAIkDs0BUAAgSY+OYFCQj0bPgCBCkNBKDsAB0IAJLBAAF+QSgAdR0MFsEAcFUA0E0A/EEBFFUBIEkBKJUBNE0BQAJBKRxOwQFIOkEcABrBAVRNAWhNAXhRAYxJAZ0KQSgAEOz4BTkwEsEBeEkBMEkA3JkA/FUBHEkBPFUBXEUBdD5BPSAk7ABywQGMCkE4AJLBAaTlAbUSQPEACTEgGsEBiAJBPABOwQEwUQCURQAAmQC8TQEAUQEoQQFEUQFUEkDwABk9GAkwAB7BAVzpAWydAYhBAZjKQTwAHOz4ASkwCsEBOEEAAYEAuFEA7EUA+HJBKAAVPSmOwQD8mQDsOkDsABbBAKQWQTwAPsEAABpBISgY5PUdKRwFIADZKAAVIQUVHSQBIAIEnSE0ERwABQj8hOQAcQwA8sEASFUAnEEA0BpBRTA2wQDsBkEgAErBAPktAQCdAOhNAHQuQQgAGSEoBsEAAA5A3QgdRAEKwQDUTQEUTQE0RQFEbkEgADLBAUwiQR0gesEBVWkBYOkBSDJBFSQNHAAKwQEMDkDs9ELBAJCZAGQmQOwALsEAsFUA6EUBBE0BCH5BFAAlDRjewQEMkQEQmQEIUQD0AkDcAE7BANAWQQwALR0UBsEAmB5A+Oh+wQC0VQDgRQD4UQEJakDYzCkUxIkUATT4AJDYAD7BAQQWQNDEBQ0gPsEA+EkA5EZBDAAGwQDNTkDQALzI4GkI2HLBAMQmQQgAesEAsFEAjEkAJFUAAK5AxOAQyAANHABdAPTqwQCcRQDsUQEUSQEoVQE0qkExEDrBAUCVAVBNAVydAXSVAWASQTAACQAAMsEBKApA0PgRFPQ6wQDITQAAikDQAArBAHBVALBNANhJAOTSQTEQDRQACsEA7EUA9FEA+E0BAE0BCE0BEJ0BCEkA9IUAyBJA5PAtDRQSwQComQDMMkEwABLBAOQyQMQAIsEA9FUA/NZBDAAOwQEAGkEJANLBAQRFAQkxAPhNANQ+QMUMAQgAEsEAsApBDRjewQDUUQD0TQD8FkDEADLBAQDpAQQWQTEYEQwBVsEBCJkBEJkBBEUA3BJAyPRCwQBkCkENHC0wABbBAADlACxNAGRNAIi2QQwAHQkmBQTY/CkBJMzkAEEIAWrBDWwaQQAAGPkUZsEAeTEAZAENXAJA2ABawQABLkEBJEjk4CD4AAjIAG7BAFxRAKBJAMBVANRFAORVAPBJAPQWQQkgvQAAEsEA/E0BBFUBCIkBDJ0BBE0A2AJBDSgMwOhGwQBoNkEIABLBAABVAHyBAOBRARxGQMAABsEBQFEBVMpBCSQ1DAFiwQFglQGAQkEIABLBAZhCQQ0cQLzsFsEBYA5AyNw+wQDoTQAAAkDkAF0MAC0VIUUNGAUUAPkMAHEJLSkIAHjc7AENHOC8AV7BAHRRANAqQQwAARUYJsEBAEkBKBJBFABCwQFQSQGEVQG0SQHUgQHonQH8ZkEdDDC0+ErBAewiQMgALsEBiAZBHAAhFTAuwQEETQAAVkEUACEc9NUVCB0cAeUUAAEUjQTcAFTYzgQpFABZDOz9DAB9FS1FFAAU2ABVHPAo3KwMtAIE/KziBHisABC83GDcAgSIyNQcvAIEMMgAjNzIBRwAksEAqE0A6E0BCE0BEN0BGFpBHQxGwQEglQEppkEcAGUxGHDksCbBARRNAPxNAPhNAPxFAQRRAQiqQOQADOzcCS0sbTAAQNwACsEBDT0BCEkA5EEAABpBLAAs8Pw5MSRQ7ADCwQDISQEEEkEwABE5FC7BASQuQPAAEsEBOFUBREJBMRiZOAD5LUAhMAEOwQEYIkEsABjc+AEAsBbBAGQWQTFIIQTMDsEAAAUNSHZBBAAewQ0oVQ0QkQ0AnQCITQDMKkEwAB05QArBAOwJDNxJAQAJDMhBARBRDLiBARjpAShFATg2QTgAGsEBWBJA3AAVPTwmwQGIDkDlEErBAaRBAYAJDKRRARQSQTwABTk8LsEAAOpBOAAZPSzJOTQNPAIETOQAhOy4HsEAnApBAAAw/NgSwQEIVQE4RQFgUQGADkE4AD7BAaBNAbxRAdUOQTEU+TkMNTAAHsEBrAUMtEkBfFUBSD5BOAAKwQEUGkDsABE9FC7BAOQWQPwAHQDYFsEA0W0AxE0AuTZA7NiWwQCx6kDsACDcygQ83ABw7M3CwQCgVQAAzkDsAHDQhIbBAFxRAMBNAPBJAQhRARC+QTkMHsEBHKEBKCpBPAAiwQEwUQE4TQFAFkDQADrBAUiJAVBeQQAAfTEYCTgABsEBLAZA3NBCwQDMUQABJQBcUQCsTQDIJkEwACrBANgmQSkoJsEA7FEA/FUBCD0BEKEBGRpA3AASwQD4DkEoAAzlBAUlJDLBAFhNAAE5ALBBAPRVAQyKQTEMJSQALsEBEOkBGJ0BIN0BFCJBHQAFMAAI7PwiwQDsSQBkUQAAlQCUSQDgVQEIEkDsADrBARS2QTD4yRwAisEBEEkBCFUA7EEAuApBMABOwQCEgkD0/AUVGBLBAJxNALhNANBRAORNAPASQOQANsEA+E0BBFEBDE0BEDZBPShawQEY7QEg4QEUUQDwPkDlBAbBAJwSQTk8RsEAWBZBPAAJFAAywQB8UQDQQQEQKkDkACrBATxNAWRNAYBJAZR2QTFAKsEBqGpBOAIEePQAEsEBiApA+QwFOTSGwQFEAkDI7A0wADrBANBNAAGBADxBAFxSQUUA2TgCBBDIABrBAHAKQNDoFUQABTEAIsEAlEUAuE0A1FEA5I5A0AAOwQDsmQDwVQD0PQD4CkFEyE7BAPweQTAAMsEBBI0BCOkA/E0A6FEA3EJBRAAQ2LgRKNw2wQDoSQD0TQEEUQEIikDYABLBDMRFAQyuQSEMOSgA2sEBFJ0BHN0BBFUAzDpBHRAGwQAAKkDI7FUgAHLBACxNALBNAOQ2QMgAFsEA8RJBFRRZHAAWwQD0lQD4mQEEUQEI5QEERkEdDAbBAOwKQNzAPRQABsEAsFEAAN0AfEkAvFUA5EkA8EpBKNgGwQD0FkEcAIrBAPxNAQCRAQiZAQxuQSgAKsEA+CJBFOw2wQDgIkDw3CbBANhRAOSVAPRFAQhJARACQPgA8SjgPsEBGBZBFABE8ACKwQEg6QEs6QEMGkEoAC7BANACQQz8IOzUKsEASJ0AqFEA6EEBDFEBJIZA7ABNKQQSwQEsjkEMAGLBAThJAUCZAUzZATBRAQwSQQkQBOToBSgAOsEA9BpA3AAywQD8TQEUUQEsSQFEUQFYxkDkADUpHHbBAWidAYAWQQgAxsEBnFEBsN0BbBZBKAAc3QgFARwewQEMRQBcWQBIPQC4VQD0SQEUUQEkwkEpJL7BATBFAThNAUQ6QQAAGsEBTE0BWN0BNBZA0SAdJSwiwQD4FkEoADbBAKilAOhJARhBAThRAUQeQNwAMsEBPFUBNAUM1B5BHSxNJAAewQE8oQFISQFVeQEwUQD4GkC04AUlRDLBAIhJAAACQRwASsEAeFEA2E0BCE0BHOJBJABpKRQqwQEoRQE0SQFAlQEwQQEICkExJErBAMgeQSgANsEAhEkAAEJBMAAgxRwtFTwMtAAQ0ACOwQBwUQDQRQDpnkE9QarBAPDdANhRAKwCQTk8EMkwHTwAFsEAkAJBFABExACqwQCsSQC85QDEXkExPIE4AOrBAJxJAAFGQTlQDK0QWTAAZsEAmEEA7FUBEEkBIFEBMEEBQFUBSDJBKUAErAAAyAAhOAAU0Rx+wQFQlQFcUQzk3QFwPkEoAHUlJDbBAVQeQLUEANkQMsEBBEkAADpBKTAJJAAc0ADlJRQJKAA6wQz0xkEkAFEosJEoAAklDGLBDQoEvkDc4RDYAFbBALCRAPgGQLQASsEBIE0BPE0BVEEBbFUBiEkBoDJBKRQiwQGwVkEkAIrBAcBiQSgCBEbBAahVAYQeQNwAJsEBVAJA2MwIyLRBKOgOwQEcTQDsSQDKBM5A+NQg2AHSwQDAikDIADD4AATc5AjQxZ7BALlOQPj0CNwApsEAsgQmQPgAKNjgKOTU9NABWSgAGNgAETEgDOQAKPj1UTAALTkUwTgARNjkDMjMLT0wFPgA0TwAdsEAwAZBRSygyABpTSwNRAAk2AAs+OT2wQDIBkFMAAVRQJLBALA9AJhVAFxJAEwWQPgAENz4MVAAEU0t7sEAeJ0AiLJA+Nx+wQCsTQDEUQDZXkDcACz4ACjk2GLBAOIEFQDwkkD40BVFFAVMARrBAPRJAQBJAQUWQOzkHPgAHT0sgUQBIOQA6sEBCAJA+OghOTxdPACc7AE+wQEMSQEIVQD4HkExPAjdBAE4AB7BAOAqQPgAKsEA0J0A3EUA9FEBDJ0BFF5A3AAVKTQc+QRSwQEgGkEwADbBATBRATzGQSgAFsEBSKEBUE0BXE5BMRwI0Pgs+AASwQE8VQEERQDQHkE5IC0wATbBAMQmQT0kJsEAuCZA+PAhOAAGwQCxekDQAUDY1Gj4AgQqwQC4skE5BAT40Fk8ARTYAD7BAMTpALQiQNzYKsEAqCJBMRQhOAAI+AEqwQC06QDESQDYAkEwAAj47FLBAOgKQSkhZsEA8FUA/EkBCEkA/CZA0QAlJSAGwQDgCkD4AELBAMgKQSgAjsEA2FEA7E0BBAJA3ABSwQEIdkDQAHT43BEdMG0kAF7BARSdAREhAQhRAQRCQOUIJSU0LsEBAE5BHAAGwQD8akD4AQ7BAQSlAQBCQPUABsEA+AJBFSQFJABKwQD0LkDkALbBAPiZAPRBAOhVAMgmQRQAJsEArEZA7OgFKSAE9ADqwQC5DkEoAC7BAMBJANBaQRUMCPjkzsEAxOUA0HZBFACRMRgc9QQc+ACo7AB2wQDc5kEwADrBANB6QPQABQDEERUIrsEA2TEA0QJA5OQRAAAJPRoEKsEA3EpBPAA09OwVMQhA5AAGwQDR0QDEFkEUADbBAJBNAAAKQPQAQPjQDTUcYTABFsEAZE0AqEkA1E0A9FEBDIJBFPDA+AA+wQEUjQEo2kEUABLBARiFAQgSQPDYASkAPsEBAFEBCDJBNAECwQEM3QEcHkDwADbBASgKQTEcmSgBvsEBEFEBAD5BNSAM6QgtMABqwQEITQENvkEo9CU0ADbBARQyQOgAqsEBDFkBCEEBBNZBKABROTQI5RE2wQEIUQEQlkDkAKkpCQ7BARxKQTgA6sEBCFEA6DpBKAAawQDYSkE9QATpFN7BAOxFAPRNAPxRAQxNARg+QTwAfSkwYOgAGsEBIEkBKEkBMOkBKEUBFFEBBJZBSUQE3PiiwQEMPkEoAArBARTlARxJASgaQNwAJUgAeUUtXsEBMFEBJEkA/E0ArE0AcG5A0PgRQTgRRAAGwQCsVQDUiQDoRQD0nQD4UQEESQEYUQEoIkDQABEo9Y7BATSZARxRAQQyQSgAcsEBEAZBQAAJJRgc5OQawQEcWQEwPQE83kDkAOrBAUwKQSQAFT0pasENGEkBVWJA+QQdOSQhPAAewQFIWQEwSQEQTQDsHkExGKU4AHUwADEpIAbBAPTiQSgA5SEkksEA8MJBIAAM3ORNHSCywQD1hkD4AGTcAEUxGAUM5CEcAgS05LwRCNQ2wQDwGkEMADkU9TbBAPTWQTAABsEA8HpBKQhZFABiwQD07QDxMkEM7A0A4D7BAPQCQQgBZsEA6OkA8DJBKACBJQx6wQDofkEMALLBAPEyQOQAXQAACSkYDPjokSQCBD0M2gSJDABhFOYEdsEA6IZBANoFUQjcGQAAbsEA4EUA2b5A+AAk9OQ6wQDSBG5A9AB4+OzywQDEUQC9uQCwHkDk0DbBAKnJAIRRAHUpAEyJAAFSQMi6DY7BAEhRAHxNAKhBAMBZANBFAOBNAPBFAQRJARRVASRJATRNATxRAURRAVRJAWwmQQgALsEBjEUBsFEByHpBKAEpFABY+AAKwQHYlkDkAKLBDSg6QMgCBBrBDToE9QHIrkE5TgQhOAFewQGwSQF8EkE5MD7BASgeQRSkBSigDMjEIsEAuFEAAJkAgEEA1FkBCEUBLE0BTIkBXDpA2NhIyAAFFABdKABOwQFsUQGASQGU6QGkSkDk4FLBAcBJAdBSQNgBWOQAGsEB5D5A8OwZPTB9OABdPAEuwQH0tkDwABztBD1FWC7BAbxNAUhNAIAOQUQAOsEAAAZBPSTJRThRPACRPSwg7AAFRAAE5QYEvO0QHOQA4sEAPc0ATBZBPABJORAY7AAw3KjJOAApPT0o3AApPAAGwQA8HkFFQBjY3B7BAAIE9kDk1gSc5AB08MoEKPAAkQDiBSz46FUAAQLBAJRJAOBCQPgACsEBDAUNJEkBIG5BRAAY2AAxISQ6wQEomQE8BQ0UPQFMVQFgSQF4TQGI0kEgAA7BAVwSQOTYASlABNjUPsEBIE0A6FUA9EUBEFUBLEkBSEkBcEkBkC5A2AAewQGgNkEVUDTkADLBAbAFDQQiQSgAdsEByFEB3EkB9LZBFAB83RwlHTwmwQF4UQDQUQAABQzuBF5BLTSKwQAkQQBQIkEcAC7BAHG2QMDYANwADTE0CND0QSwA9MAAAMB1cT0gMTAAZsEAXTUALFEAAIpAwABRPAAUtOABORDSwQBsUQDISQD0UQEIRQEMUQEQtkEhBC04AWbBAQxVAQBJAPCGQLQABSAAVLzQEsEA+AJBHPgEzNg40AAOwQEAUQEMSQEZeQEgSQEoPkFFDBLBATBKQRwAiLwAZsEBOJEBQOUBJBpAzAApRAAGwQEADkDQzBk9ADLBANQiQKCoKsEAyYUAwLJBPAANLSj6wQCwAkCgAd0xNATQAA0sAgTtPTgVMAHewQz9OkEhIHU8AGUgAF0dBM7BAKiCQRwAUSEwCNEh1sEAoOJBIAAY2QAo0AD2wQCFKQB0ekDI7AkhIBbBAABGQNgAXSACBLDc5ATIABkg3YrBAHBRAKgaQNwANsEAuGpBFPDpIADGwQCoTQCElQAAYkEUABis4Ckc8NrBAHBJAKhRANRJAPhJARRNASAiQRwACKwATTDxDsEBLcUBGEpBFRgKwQD8SQDYJkEwACrBAJASQRQAOsEAAGJBDPERDACsxQgJFQYE+M0cQMQAQRQCBGy85D0VICDMAJ0UAgQmwQBIGkDQ9A0VDAS8ACrBACRNAAEaQNAAEsEANJkAAIJBFAAFCO4EwQgAhKDQFQzsisEANEkAXJ0AhE0AtEUA5B5BDAA2wQEEHkCgADbBARAKQSDpIsEBGJkBDE0A+BpBIAABICA6wQDgPQDUrQDABkEgAAUE6DrBAKRJAJAqQQQAcsEAeCpBAMBuwQBMSQAsJkEAAJUE5BS05LrBAAIEOkC0AAS85JUEAgRsrNhFBPBYvAB5BAIEZQToOKwAEMDcbsEAkDkA2E0A8V5AwABM/PBywQDoBkEEAXLBAOCdANg6QPwAKQD4CMTeBCzEAFUAAA0U9EbBANIFKkDJBCUNCFkUAeDIADEMAD0A+gShAAA4zRwFCQoEKMwAmQgANRzIlSCYVsEAwE0AqApBIABGwQA0SQABMkDQ+CEVGCLBAEw2QRwAHsEA1E0BEFUBMEkBUFEBcEkBkFUBpF5A0ABpCQhWwQG4JkEUAe7BAZhNAXQSQQgAQsEBTApAoPwFDSA2wQEgUQD4SQDc7kCgAELBANRVAMhJALgmQSEoJsEAsBZBDAFywQCoRQCg4kCpCEkdOEUgAfioADEcADkNMYbBAIRRAAF2QNkoBQwAARVAOsEASFEAwEkA9EkBCE0BEN5A2ABWwQEYMkEpHBEUAdLBAQhJAPBNANBZAJxFAFwSQN0EASEwISgAtsEAiFEAsEEA2FEA6J0A9EEBBC5BFSAmwQEQDkEgAELBARxRASSZASzdARRRANQCQRQATsEAAA5BHTAYrQRywQBISQDcUQEwSQF8TQHQUQH8okEpQCysAB0cAIEoAQjcAak9RNrBAexRAZwKQTlIETwANsEBNE0AzEkAADpBOABVPUhc0Q4EzN0UYNAAEsEAXFEArEkA4E0A/E0BDCJBPAAuwQEYTQEkRQE0SQFMDkDtDBE9SAzcADbBAWhBAYBRAZQ2QTwAYsEBqJkBxE0B1MpBPUQewQG8YkDBBBDsABbBAYBRAShNAMhJAJDlAKBJAKjCQRz6BFEcAFjc7AUg7HLBALCeQNwB9TDoCSAA7sEAnE0AgE0AZOEAgEkAxA5BMAAQ8PgdFQgawQD4PkE8AA7BASBCQMAAEsEBREkBbFEBkE0BrEkBvJ0B1FpBPT4E1sEBwDpA5RAWwQGEJkE5PC7BASgmQTwAJsEAyE0AnAZA8ABOwQCsTQDYRQD8TQEMVQEYRQEoRkE4AAbBATQKQUUsRsEBPJ0BRJUBTFkBWCpBRAECwQFMBkDs+ATkACEtHBbBATBRARRRAPwWQRQAOsEA9OkA/E0BAN0A/BpBFPiCwQD5LQD0TQDoVQDISQCATQAACkEM8FzQ5BjsATLBAHQKQSwASsEAwE0A+BJBDAA+wQEYSQEsIkExLH7BATRGQRQAosEBQSUBNFEBKEkBFAZA7OwRCRgg0AAiwQEMTQEEhkEwAY7BAQASQRUUNsEA+FUA9XkA8FkA2EEAsEUAmCZAvOQRMSRdCABA7ABiwQB4TQBc/kEwAIEtIGkUAgTkvAAdMQxI0MRhLAIEaRzaBN0MwgUM7MXw0AGc7AAdAN4EuPUUEQACBPj5IEj0AgSE7QA4+AC2wQBNQkEwALDsADz07O0cAgSNFOAFDAIE2R0IVRQCBGENGB0cAgT5MPxJDAAewQBmBEJA5PgewQB4ykD0ABLBAGmJAHx+QOQAUO0QgQzwhRRkvRQBSPUUKOwCBIUMAGj4+A0JFCT0AIEwAgRawQBkEkEIAAUBCN7BAHklAFi6QQkwNsEAcA5BAAIEVsEAiKZBFSR6wQB6BAUALE0AACpBITIE1sEAcBpA5PguwQCsVQDQSQDoPkEIAA7BAPhJAQRVARRJASE+QRQACNkMVOQALsEBLgQyQMkEINgAVPgBgsEBJE0BFFUBBIEA+DJAyABE3Pi6wQD0SQDsSQDcVQDM0kEgAHUVBILBAMYEfkEdGFkUAFUgqAUgAULBALzKQSk8MRwCBOE1ODkoAArBALIExkDk4A0g/AzcAgS9IAANKRgQ7OBc5AIEPSgAMNzQBR0cLOwCBSDw/AEcABzcAAEM+arBAKhFAJRRAFxFAAA6QR0kHQwBKsEAUEkAeE0AmE0AvE0A5E0A/IJBITwOwQEEikEcAA7BAPxRAPQSQTQBJsEBAG5BMUghIADmwQEITQENKQD8LkEwACLBAPA2QTlIrsEA+FEBBJkBCE0BDFEBGEkBICpBKSBo5PRWwQEIAkDwAE7BAOhNAOCdAPBFAPgqQSgAMsEA/D0BCFEBEAZBPUws7QxqwQEcRQEoEkDkAIrBATDqQOwAbTwAFPkACSkoCTgBKsEBOJ0BSEUBVOkBNEUBECZBRTgE2QwiwQD0JkEoACU86FbBAPwqQTwACPgAHsEBBE0BCFEBDN0BHCZA2AAM5PwawQEoFkEpMCVEABrBATF5ASRNAQhNAMhRAABiQSgAEN0MCOQAAU1IGsEASFEAjFEAyEUA+FkBEEUBHL5A3ABywQEkAkDtDA1MABkpGgQ+wQEcKkEoABrBARBZAQQuQMD8DTEs5OwBKsEA+FEA8G5AwABQ0NgNHP4EhRwAINAAULS4ESEMjTAArsEA9W5BRSxWwQD4GkDA6DbBAQBiQLQBGsEA/FEA+EkA8FUA2BJBPSwxRAAGwQCIBkDJCCjAAB7BAACZAEhRAJRJANRRAPhNAQBJAPwSQTwAWTEAusEBBE0BDX0BAFEA7EUA4EUAyAJBMAAUmJARIAAFOOgqwQC0TQ0MTQDASkDIAAbBANhNAPBRAQhFAQxNDRyeQRT03sEBEJ0BDOkBCCpBFABiwQD8AkCs4DUdBB7BAPA+QTgAEsEA5OJArABSwQD06QDwfkENBI0cAVLBAOVOQQwAPMTUHTEIFsEAwFEAAJZAxADqwQB8QQDMTQD4SQEMQkEwAF7BARgSQQzoQsEBIgQWQQwAHJgA7MjYIsEBGBpBCPDSwQEQSQEERQD5fQD0XkD49CEIABDIAA7BAOYEFQDYekDQ3Az4ABUNCgQCwQDQ9kDdEBEMABT47IjQALrBAMWGQPgADRUYVNkEBNwBEsEAzE0A1N5BFAAGwQDIRkDk3CDYAAj48MrBANUlAMkGQOQABMjUCSEEHsEA0epBIAC1FPgU2NgUyAIEhsEAtFEAcCJA2AAiwQAALkDczAT4AFEY5BEUAYbBAFxNAJBRALRFAMBRAMgCQPjEmsEA0DJA3ABqwQDhMQDURQDIIkD4ADjU1BENAPUYAQbBANBFANi2QRUQLNQAXQwBusEAwFEArHpBGSQYzPRSwQC4JkEUACrBAMW9ANBJANxCQRgADsEA8BpBDPgQzAGawQD0nQDoTQDMTQCoNkEdMBDI9BUMAIrBAMBRANxNAOjqQMgAyQzsHsEA+EEA/E5BHAHCwQDwUQDUTQCwAkEhMBzNCEUMADrBALhRANBNAOxJAQRFAQiiQSAAdQ0IGsEBDD5AzABiwQEhvQEY5QEMPkEtOAbBAQgmQMDJEsEBDC5BDADBLAAYwAAywQEIXkEpPNLBAQzZAQBNAPRRAODuQSUcESgACLTcdsEA6OkA9EEA/FEBBF5AtABFDPE2wQEMRQEQQQEIWQD8RQDgUQCwJkEMABrBAKQOQSQAQQj8DMjwTsEAsEkAxJEA3EkA7JZAyAAKwQD0QQEAUQEITkEhBI0IAO7BAQ2BAQRJAPwOQNzcDSAACR0OBIrBAQBmQQT0esEA/TEBBHpBBABuwQD8IkEA5DjAxN7BAQEtAPxuQMAAONwAJRwAFRUkPPDMEsEBAHJBAAC6wQD9KQEAekDwAATs0DD4+CDItBLBAPxRAPU1APjKQRQAYsEA9AJBDQTmwQD4ikD4AO7BAPTGQOTYFPDoCOwADsEA+XUA9OkA+BpBDAB9CQiWwQD2BKEA8JJA5AAUyAAg3MxJDQAI8AAOwQD0SkEIAOrBAPDdAPTuQPC0ksEA7dZA8ACE+NoE4OS+BUDkAAjsxgUc3AAY2M4ErNgAmNzKBRDIugimwQDkmQDUGkCsoC7BAMBRAKhVAIQ9AGxJAFhRAEBNAAIE7QAsQQBcUQBwTQCETQCYTQCsTQDIUQDcSQDoSQD0TQD4VQD8RQEETQEQSQEcVQEoRQE4UQFITQFYSQFsVQGISQGoTQHIRQHkUQH6BKpA7AEA+ABpDABwyABorADqwQ04TQ1IVkDcAErBDWSZDXiVDY4FikE5SUE4AI7BDZwuQRUlOSkIYsEB2FEBmEUBRDZAyNAawQDsAkE5PE7BAKzdAMhCQRQABsEA+FUBHFUBOAZBKABGwQFUSQF0VQGMOkDY8ArBAahRAcQ+QMgACsEB4NkB8VpA5PSg2AG85ABFPUAY8PCVOAA5PAH08AAY7PwywQHgBkFFUErBAXRNAQQaQUQALT04DsEAoOZBRUAxPADRPTwVRAAk5PRE7ABCwQCsTQC8UQDETQDMTQDYTQDgRQDsYkDkAAztCMLBAPIEKkDc1BzsAA08ADU5NGbBAOSWQTgAXT1A3sEA3BZA3AA2wQDQBkDY5CU8AAFFRCLBALhJAK2JAJRJAHC6QOT6BPzxAAjkABbBDY4EQkDwAH0A0gQCwQBYUQAA1kEAABj49MbBDXzlAEBJAHw2QPgAFsEAmFUAqAUNaDZBRAASwQC8IkEhDAzYAB7BANBNAORNAPRRAPxJAQQFDVhNAQjZAPhGQSAADsEA4AJA2MAE5OQRKTA6wQDAmQDMTQDkSQD4VQEMRQEUnQEgEkDYAADkAD0VQJrBAShCQSgACsEBNE0BQE0BTEUBXE0BcFZBFAB83QASwQFIJkEdQDbBAQRJAKhRAIjdAKGOQS006RwByNwAGNEMMTE8GMD4BSwA7sEAjcpBPRwFMABGwQB9zQBkSQBAVkDAAEk8AAk5FBS07gTFIRxVOAGktAB2wQAATkEgAHzM/AUdBCS8yEjQAH7BAHxNAOhRARRNASwOQLwAOsEBNJkBQCZBRQQYzAAOwQFQTQFcckEcAfLBAUhJARAaQUQAENDcIsEAtApBPPhKwQBYAkCglTLBADxFAAECQS0oCTwA7KABENAA0TE8DSwCBGUwAJU9MgVJIRitPAA9IABRHPklHAA00Pw5IRYEkSAANNkQENACBPjI6AkhFEDYAHUgAgSZIRwUyAAo3NXc3ADlFPgRIAIElRQAVKzsFRzwwsEAcEkAoE0AyFEA6E0BAEkBDB5ArAAdHABhMPAGwQEVLQEdMQEQSQEITQD8LkEVBCLBAPBRAOA2QTAAEsEAwD5BFAASwQBwTQAAHkEM7SEMADzFBFUVAgS4zQQExACNFAIEeLzkERUU7MwADRQCBBS8AD0VGATQ7DrBAJhRAORNAPEtAPhRAPxJAQASQQj8QRQACNABJsEBBEkNSJkA+IkAyCJBCAAqwQAANkEM7Byg0TbBAOBRARxFATxJAVRKQQwACsEBaCZAoAAiwQF8VkEg9gQWwQFgSQFETQEcRQD0LkEgABkFAArBAJRNAACGQQQAiQDY0QAAoLToBQTuBQy0AA7BDTgGQLzUnsENJD5BBACqwQ0Q0QzoRQzIUQy0SkCsvCC8ADUE9JbBDKQ2QQQBSsEMkQZArABJBOgkwLE6wQA0SQCISQC8UQDYTQDgakD86ETAAEEEAgQg/ABZAOQUxNoEjMQANRUAIQACBRjI6DkM9AkUAgQ5DABkyAAFAPTmwQDY5QDQBQygRQDAUQCoSQB8PkEJGBjNCH0AAZbBAJAuQMwAmQgAAR0NlsEAdEkAAXJA0KwdFQA6wQCYKkEcACbBAOQSQMiIPsEBCIUBHD5AyAASwQEpekEJAI0UAUbBASBJARRJAQxJAQROQQgAEKEAGQ0YKsEA+E0A7E0A3E0A1GZA0ABEoACKwQDIRQC8OkEhBBrBALA6QQwCBMSpIB0dHEUgAcioAEUcAFENHILBAMChAMzNANiZAMhJAJxRAAAWQRUsNNkQcQwALsEAZEkA3E0BFE0BPFEBUEUBXJJA2AAFKTB9FAIEOsEBREEBEBpA3QwFITAlKAAKwQBkUQAAnQCQUQD0TQEoTQFIVQFchkEVOP0gADbBDJCdAWyZAVBRAQQCQRQATsEAAAZBHUQMrSTKwQCAVQEEeQFIVQGISQG0UQHEIkEcAGCsAA0pKHUg0DEoAEUgAgQ9PUi+wQGkCkDcAELBAWBCQTk0ATwACsEBBFEAiFUAQJJBOAAGwQAAJkDQ/AE9Te7BAFBRAJRNAMRNAOhFAPgaQN0EQsEBCEUBEAJA0ABGwQEgTQEwMkE8ABrBATxVAUiZAVRNAVw+QT1IHO0EJNwAEsEBdRZBPAIEOT1AQsEBQBJAwPAqwQEYAkDsAErBAPxRAPDdAPRRAPhNAPxiQRz4hsEA+S0A/SZBIQQFHAAI3OBGwQEAnQEEAkDcAcrBAQg2QSAACTEY8sEBBJ0BAJkA+EkA7FkA3B5BMAAewQDUCkEVIBzxAAU8AEjAAC7BAOxVAQSBARxJASU5ASxNATQOQT0wRsEBREUBUb0BSFkBKD0A9AJA5PglOTA2wQDcHkE8ADbBAORJAPhGQPAABsEBDEkBIFEBLUZBRUAJOAB2wQE1rkFEALbBASQyQOzsHsEBEAJBLSwY5AA6wQD8ekEUALbBAQRNAQidAQSiQRT4jsEBCWUBBE0A9E0A3FEAwDpBDQQw7AAg0PiiwQDQTQDcAkEUABksADLBAORNAPQOQQwAPsEBBFUBCJZBMQTqwQEMSQEUAQyhJQEMVQD8EkDQADrBAPQKQOzoLQkQXTAAnsEA+TUBBH5BFPVKwQywlQEISQEEUQD0UQDAGkC86G0w/BLBAABKQOwACsEAJEkAiIUAsE0AvS5BMAAtLRQuwQDcSQDpCkEUADUIANbBAMhJAHwSQLwAPsEAAAJA0PQZMQSZLAFqwQB0RQCcjkEc+ArBALBRANRJAOxNAPhJAQCZAQRVARRJAShRATxJAUgKQQz4RsEBUJEBYFUBdEkBiSkBmBJA0AAs7PxewQGsgkDsATrBAcRVAdSVAeS6QQEMJsEByFEBhE0BKE0A0D5BAAAE+PwOwQCtekD1IHT4AgRI9AB8+P0k+ACI9RDo9AA87Q4EisEMwMJA7ABw9PIFLQwAARTkORwAzTAB7sEAoA5BHPQRFAH6wQCESQBkRQAAPkEcAAkNGgQewQBYUQDMRQEIOkEVLBbBASBaQPQABQwCBArBARReQOUISQkgLsEBEB5BFAEWwQEMRQEEUQD4TQD0akDkACjs+CEIAAkNHCbBAPjdAPXeQTEECOwAEPT0IsEA8FpBDAIEYPQAFPkUMQ0ULTABksEA6TZBDAAFAQoFEQAAIQkWBL0VDDLBAOG9AMhRAFxJAACdADwKQSEkRsEAhE0AqFEAvE0A0EEA4FEA8AUM0EkBBEkBEApA+AB05PQawQEEUQD0SQDoQkDkAT7BANxNAMxVAMBiQNj0yNgBcRQBDMjgBQgAnMgBPsEAuFUAqEUAfFUAaJkArC5A3NAWwQDkVQEQTQEoTQE0lQFAnQFMJkEgAJEU9gT1HRhFFAESwQFEnQE4SQEwtkEpRD0cAN7BASYEakE1NFUoAB7BAS0WQOQ0UNwAzOQAAOSAPSD0jsEBII5A5AAKwQEUVQERckEgABEpMCzkzBbBAQ0tARBOQOQASsEBDFEBCApA7OwpKAAawQEEPkEdFULBAPxNAPQiQOwAJsEAzFUAgDpA3NQOwQBkykENAA0cAOTxKCDcAI7BAI3SQQwAGR0QZsEArEkAvgQVAMSKQSD8FRwALSj0asEAvS5BKADBIAAZMSidNAAGwQDMUQDkRQDx9kEwAA05QgTZKSBU5QBA8ACCwQD1sQDwBkEoAErBAOA+QT1AEsEA0A5A7OxCwQCwTQCULkDkAG7BALhRAMxRAORFAQAiQOwALsEBFE0BIAZBPAA0+QQWwQzgCkEpFAE4ASLBASk5ARBJAPBJAOgGQUVEDNkIQsEA8EkA+ApBKAAo+AAawQEESQENgkDYADzk/BkpJDFEAPrBARSRARydAQRNAMxNADwmQU1IDNz8COQAGsEALE0AdBJBKAA6wQDAhQDwTQEImQEMSQEQGkDcAG1MABrBARwqQSkkDOz4FsEBKgQRARxRARAaQSgAOsEA/CpBMSgEwPBo7ADqwQEAlQD8tkDAAEDQ7FEdBDbBAQV5AQCVAQQyQNAADRwAXSEYSLSUCKyUnTAAjsEBDJ0BFA5ArADFRTAEwOgwtAD6wQEdeQEUTQD4TQDcKkDI/AE9LATAABVEAA7BAKxNAGSdAKhRAMhBAORRAPxJAQx6QTwADTEo9sEBFFEBIS0BEEkA8EpBMAAKwQDcGkCZCAU5HAUgAHDIAAbBAORJAOxRAPxNAQjtARBJARx+QRUU/sEBFS0BDE0A/B5BFAAuwQDsXkCs8AkdBLU4AOysAakNACLBAORGQRwBzsEAyEkAcEUAAA5BDAB1MQgoxNTewQCMPkDEABLBANxJAQxNASxNAURNAVCWQTAAXQziBOUMAErBAUQGQJgASsEBPE0BMAJBCPgoyOAmwQEo7QEcSQEUhQEMSQEJRkDYyDrBAQQCQPj0LMgAIQgAUsEBAXUA/L5A0OgM2ABA+AAFDP4EyPjoAQwAHNzINsEA+JpA0AHQ+ABJFPQc2NAo3AIEbRQALOTMGNgAHPjeBSDIzCjkABEhCgQpIABs2OwkyAANFOoEQsEA6EUAZE0AABZA2AAE+AAU3OgZGQgFFAHOwQBAUQCcRQDAWQDUQQDcAkD45ObBAOwiQNwALsEA+EkBAJkBCJkA+CpA+AAmwQDUCkENBBTU7DrBAJBJAGTKQRgABsEAoFEA0E0A7EkA/EkBBLpBFRhk1AASwQEIJkEMAHbBARF9AQBNAMw2QRlAFsEAJC5AzQQiwQAAPkEUAGLBACxJAKRNANhRAOxJAPSZAPgCQRgAJQz4FMwAZsEA/EkBAEkBCE0BDTUBAE0A6EkA3BJBHTAVDAAMyPhqwQDkTQD4RQEIUQEQ4kDIAG0M7TUcABbBARmBAQRJAMxNAAA6QSEwDM0EJQwAMsEATE0A0EkBFFEBPEkBYFUBhC5BIAAWwQGYskENEKTMAfrBAXRFAShVAMQOQS1ANsEAmAZAwOBKwQC4TQDgTQD8AkEMAE7BAQiyQSwAHMAAqSkwVsEBEJUBHX0BEEkA9FUAxCpAtNwBJRQRKAASwQCM0QDAUQDoTQEERQEgTQEpFkEM7GbBATBRATw6QLQAssEBML5BDABuwQE8DkEkAEkI4BzI8G7BAURRAVAiQMgALsEBZE0BfEkBkPpBCAABISoFBSAAWR0YHsEBYAZA3OxKwQEYSQDAUQCwHkEVFCUcAArBAMRNANDqQRQAVQ0VRQwAZQUNeQQALMDcCQEYZsEM8gROQMAAFNwAJQAAGRUYOPDWBNjwABDs2CrBANgGQPjsEMjNGsEAzSpBFAAKwQDYhkEM/GLBANEtANlaQPgAasEA0GpA8PAU5NgI7AIEZQwAkQj6BeTkABTIABTwAB0M/CjcxHEIAgSs8L4FGPAADPjiBXDk2gWE5ABM7MoFrNi4DNwCCBzYAKTcyglAyKIUSKyuDUrBANoEoQDgnQDo6QDwRQD0nQD4SQD8kQEAmQEE4QEImQERcQEY5QEg5QEonQEwkQE8nQFMQQFUnQF0UQGERQGYVQGsTQG8kQHUnQHskQH+BXpA7ACxDABErABo+AHIyABuwQzgQkDcAY7BAeBJAYgFDMhJAShJAOxVANSRAM0pAMBRAJhNAITlAHBNAAAiQT08lTwA6T1IONzwGSkUFRz8WsEAUE0A4FEBDE0BKE0BQE0BXEUBdFEBiNZBHAAVKAAJORwRPAFOwQFkRkDcAAbBATgGQTE0TsEBED5BOAAOwQD4TQD0UQDsTQDQDkEwACEpQB7BAJRJAFyGQSgAYsEAJCZBIRQuwQAA9kEgAHUdLAT5KIj4AHEcAFkVQOUUAPUdRA0NNHkMAIEcAI0pMXUoADUVRA0JMG0IAFEUAOUhSNUgAQkNKB0dYF0cAgSJDACZDUwdCQiFCAApDADBAQ2c+SAdAAABHUhlHAC0+ACc8RltKUgM8AAk7SBZKADs7AB45RWBPUAU7TQQ5AAawQzYNkE8AHjsAQT5FVD4ABTlLNE0sJ00ACzkACjxGLDwANDtOD09QGjsAIU8AKFFFbzdPAlEAAFNGITcAJFMAD09LXE8AFztLDkpQGjsAJUoAKU1Ic0xRAk0ABDlDEjc9EzkADDcAFEwAD0pSOUoANzxSBUxSHjwAMkwAE7BADQuQUVNDUQAfOVIDsEAaA5BTVBs5ADlTAA9UUh+wQCInQCYWkFQAFz5JAU5QCbBAIg+QTgBlsEAcWpBKTRE+AAI8QAxKAB2wQBRKkDtHEbBAGwSQPAA0sEAXE0ASEZA5Swo7ACU5AAmwQBYpkExJDjdLBbBADTZACQeQTAAPsEATDJBKSBg3AAQ2RR1KAASwQAAkkEhNFDYABzRGKUgAMjQAATJHAUdMRDIABUcAGkpKATZKQDYAD0oAG0VLBDBPLUUAIjAAFUpMETZNSkoAAzYAJC9TA0NRJi8ADEMAOkpBXkoAEy1OBUJMKS0AA0IAQEpKO0oALi9LCENNIS8AJUMAIkpJWEoACytRDkhJHysAGLBAJxNAABiQSAAPR0YvRwAuLVIfRUEVQzoELQASRQACQwA9Qz4xQwAqL1IEQU0gLwAOQQA7Sk1QSgAeMFkCQFIeMAAFsEA1E0AAB5BAAC5KTVRKACQ+TgMvRCUvAA4+ADZKR0hKAChATwMwQiEwAB5AADZKTFxKAAwtTgdITx4tAEVIAAxHTENHABcvUBdFThMvACVFAClDUEhDAB1FUAowWh8wABiwQDMGkEUAC7BAABGQSE+BBjJZAUJSBkgAJrBANBJAPBNAORFANwaQQgADQExAsEA6HZBAACUyAAA+TgUwSQWwQDUSQDIVQDASQCwUQBoFkD4ABC9MCLBAAAmQQEcEMABKQAALLUwIQlQCLwA1LQAUQgAcQ1IHK01IQwAcRVAIKk0eKwA2RQAFR1EKKgAJKEs6KAAgJkoCSFYFsEAlCpBHAAawQABEkEgABSYACSpAA0VVPEUAHSoABC1FEUpSNS0ALEoADDJHDEVROUUANDIAAys7AUdPdUNGXkJGFEMAFisABUIANEBCQ0AANj5DKD4AOjxAaDtAATwAUDsAEDlDWEcAEDkAFzdGMTcAPTtGWzsAHDY+CUc/JUcAFTYAKTk4UjkAIkw+DDc6JjcAQU5FCkwAVE4AFjRJAU9JKDQAT0xKA08AckwABzc5BEdMHDcALUcAJExMF7BDMkKQNEMMTk8KTAAkNAAsTgAST09xO0MJS1IATwAaOwAvSwAxUT4IUzobUwA6L08AUQABT1IkLwBDTwAHTlJxNEACT1YJTgAfTwAnNAAeNk06NgAzN00QTFAdTABENwABNEddNAAcMT8GT00dTwAhMQAkNz5UNwAVL0gESk8aSgAbLwBBN0ZSNwAcLU8ASVAYSQAYLQBLN0hYNwARNkMQUUsZUQAssEMuEpA0SQI2AEE0ADk2TwRKTxk2AENKAA1MR3IyTgJOSgpMABYyAEtKTApOADlKACY2UQRFUCI2ACFFAC9ITW0yUgdHUQRIABYyADhHAAewQyoJkEVSMUUAOjdOBEdRGjcANkcAHExRVkwAE05UBDRLHTQALk4AHE9QPk8AOElSBDlGE0kAgUY5ABU3QQJFTiRFAEk2Sg83ADI2AD40QSIyJTI0AAYyAAAyIGMyABZFTggxRilFAAsxACQvPg9HRD9HACItTgIvAAZJTzItABRJAB40TgFKUVw0AARKABErVQVMUCwrAChMACBJUAM0TkFJABc0AA1KVAgqViAqADhKAAxMT0ZMADdFUQEoUCkoAChFABpJTElJACBKUA8qSCEqAASwQy4lkEoAF0xGTEwAIi1PAkVOHi0AH0UAKEpGVEoAODJOAEJRITIACEIAOkpHcCpUBEVRAkoAIioAEUUAOExKZ0wABbBAJQGQK1kGSlINsEAuFEAADJArAC1KABhMT2VMABItUQNHSyotACJHACBJSQiwQypNkEkAJC9MAkpNHC8APEoAFExJTEwAJitIA0dLISsADEcAPkpMBbBDJEOQSgAfKEwIQ1AEsEMfH5AoABZDADBKTQ+wQxklQxU6kEoAAStSCkdSFSsAJEcALEpRdy1UAUlUB0oAMi0AJUkAGEpSaEoACkxNAi9JJi8AQEwAA0lMW0kAGjE8AkNNIjEAC0MAPkdJazJCAUcADEVBEzIAJEUAH0NATUMAHy1JBEJJNi0ABkIAOkpMSEoAJTdGCkBKIjcAG0AAJ0lKbzY/CkkABEpNJ7BDGYEYQx1DkEoABDI2BklGAjYAX0kAA0dDOEcAKUVLFjYuCUUALzYAGUNGS0MANUJAGDk2BkIAGDkAOUA7OUAAFbBDIi6QPjtFsEAxAUMoEUBBEkBJE0BNEkBSFUBbEUBlE0BtBZAyAA+wQHERQyRSkD4ANE9SHk8APEdPBbBAaBNAVhRAJwWQSjsMsEAAE0MoH5A3QANPVSRKABOwQCMUQDYBQy0SQD0BQzQSQEICQzsQQEcWQE4RQFYVQGAAQz8SQGsQQHUBQ0UTQHwkkEcAAE5ICE8AGTcAQExPFE4AN7BAcRNAZw2QTAAFsEBeAZBKUhOwQFcQQFAUQEYUQD0NkEoABbBAOBCQSEopsEA0AUM/EUAnDJBIAAewQAAJkD5YHEdLObBDOxuQRwASRU0/RQAOPgAXQ0sRR08HQwA1RwA2SkxRSgARQkYXRUsFQgAWRQAJsEM/QZBIUC5IADxDQAFHUh1HAIElQwAkQkAIQ00qQgAGQwAxQD9iPkoEQAAQR0kURwATPgAxPEV/O0gGSlYBPABZOwAROUNbSgAHsEAJFEAPBZBPTwM7RgY5ABNPAAWwQAAUkDsAPj49Tz4ABjlDEU5KGk4AOjkAEzxBJzwARztIBk9JGDsAI08AKFE6ezdNBFEAClNCHDcAIlMAH08/UE8AIjtPBUpIHTsAHkoAM01FYUxKAU0ACDdKHDcAI0wAF0pRNUoARzxODUxDEU1CATwAFE0AHEwAGlFQWVEABlNQFTlJIDkAC1MAK1RSMbBAFgaQVAAQsEAcI0AACZBOVxI+VwywQ0MDkE4ABU8wL05RBE8AAE8eIk8Aa0o/Az4ABDxDCk4APUoAKTs/BjwAaDlGBTsAKTkASDdHBExPSbBDPyGQSk0DNwABTAACNkgxSgA1SE4BNgADNEU6SAANNAAYMkcTR0w5RwAEMgAoNkQASko2NgAOSgAhRU4FMEwnRQAYMAArSkwNNko1SgAPsEAkBJA2AA2wQEIMkC9YA0NRBLBARSZDRB2QQwAusEBHAJBKSAGwQ0AnQEwTQFISQF0HkC8ADLBAaQOQSgAQsEBlBpBCRgItUwuwQEwSQAAFkEIADy0AQEpHS0oAOUNKCC9EJC8AC0MALUpIcitSA0oADEhKHysAP0gACkdGL0cAOy1VAUVOIC0ACUUAQ0NJOEMAMy9ZAUFPGS8ACUEAQkpMZEoAGkBNAzBSCLBAKRZALzNANAOQQAAQsEA7FkA/ApBKSg2wQEAlQD0VQC8KkEoAB7BAABaQPk4CL00KMAAcLwAIPgA8SkpCSgArQE4PMD4UMi8NMAATQAAJMgAaSkdXSgAZSE8DLU8rLQA8SAANR0svRwAzL1QKRU4dLwAaRQA/Q009QwAsRVEMMFcgMAAJRQAzSE9VsENED5BIABIyWwdCUCEyAAGwQFYVQGsSQHATQGsAkEIAD0BQBLBAZyRAbSaQQAAmsEBmAkNKCpA+TgQwTQSwQFcTQD0TQAARkD4AJS9KBTAAAEBKVkAADkJTBy1RAS8AO0IAAS0AJENSEitQQkMAKUVSECpPASsANioABUUAG0dTEChNRSgAGUhSASZHDUcAWiYAA0VWAUgABSpMMkUAKCoADS1PA0pSOS0AEEoAJjJHAEVQN0UAIDIAErBDUQiQK04CR051Q0VmQkAPsENVGJBDAA1CAAkrADZAP0xAAC0+QDY+ADk8Pkw8ACQ7PwawQ1EpkDsAMDlCCEcAQDkAIDdENjcAQjtAXTsAEjY9PDYATDk0RzkAKUw6Djc7HzcASU5AAUwAZTRGBE4ACE8/ITQAXkxFAE8AS0wACTdGJTcADEcxB0gsIEcAAEgALExGaDQ+AbBDTAKQTkkKTAAhNAAuTgAMT054sENIBJA7RwlPAANLThU7AEBLACJTOgNRQEVTAA5PTwRRAAkvSCwvAD5OTwFPAGo0RwxOAAFPSyBPADI0AAk2Qzs2AC43QwtMVGg0RBM3AFo0ABFPTAcxRQFMABdPAB4xADM3Pko3AB4vQwNKTxpKABkvAD43Qlo3ABFJUAwtTAtJACUtADo3RlQ3ABM2RQdRSxlRAEw2AAI0SEA0AD1KTQI2Si42ACxKABhMR3VOTQMySxBMABYyAEdKRhNOADxKABo2SwRFUCI2ACZFACRISGIySRVHTBUyAC5IABtHAAhFUDZFACQ3TSA3AANHT1RHACNMSlg0SwhOTQlMABI0ADtOABNPTguwQAsUQCAKkE8ACLBAKSdAAA+QSVkBOVUhSjQXSQAuSUIdSgBNOQAbN0AARVAWSQAcRQA9NkMKNwBGNgApNEltNAAIMkV2MgAFMUQCRUw6MQADRQAdL0IQR0tILwAcLVAGRwABSVM5LQAISQAjSlYHNE9fNAABSgATK1gCTFIzKwAhTAAWNFMBSVBOSQAfNAAHSlAJKloSsEA9E0BEEUBCEkBBIJBMTwewQEIHkEoADrBARQBDTBFARziQTAAgsEBLBpBFTAQoUgQqAAWwQE4UQEkTQC8FkCgADLBAAAFDSAuQRQAgSU1ESQAnSlAIKlElKgAnSgAhTE1mLVIQRVABTAAQLQBHRQAGSkREsENECZBKAC5CUgkyTAuwQ0gckDIAB0IAGbBDQxKQSklyKlYBRVIGSgA6KgAEsENHCZBFACFMTBCwQ0NokEwACUpSAytaIrBAPBFAQkWQTE8MSgA1sEBDJUBBDZAtUAQrAAKwQBYBkEdOCUwACbBAABaQLQAkRwAfSUpKSQAbSlITL0kbMCEELwAsMAAPSgAJTFBbTAAdK1EGR04eKwAYRwBFSkMrsEM/JkNDCpBKAAwoTxBDUB4oABqwQz8KkEMAJkpQaitVDkoABUdVCSsABrBDQymQRwAksEM/CJBKTzGwQ0RHkC1YA0lXB0oADbBALgFDQBFAURJAUxRATAJDRBFAQwOQSQALSlMFsEA9E0BBFEBFAkM/D0BIJUNEB5BMUAEvTQMtAAiwQEEKkEoACLBAABuQLwAuSVAFTABgSQAoQ1AlMRoNMCUDQwApMQAIMAACsENAB5BHTEawQ0QhkEcAA0VMAzJLGzIACbBDQCVDRAWQRQAaQ0dTQwAaLU4GQkoZsEAuEkBEFEBCDZBCAASwQD4UQDwIkEpMHrBAPhJAQCOQSgADsEBBFEBCAJAtAAk3RQVAShiwQD8PkDcAArBALBNAAA+QQAAWSU9vsENKGJA2SAZKUwpJAFqwQ0+BCENTL5BKAAJJTAIyQA42AFtHSQpJAC9HAC02QQFFTCdFABM2AChDRUFDAC9CRwc5Qh1CAAGwQ08FkDkAPUBIYkAAJD5MLLBAKBJAORVARRJAThJAVBJAWCpAXyZAZUaQMgAtPgAisEBbE0BOE0A1BZBOWw+wQAAfkE4ANU5YDUVNB0pKAT5DZ7BAIxFAMxRAOxNAQhRASBJATxRAVQKQRQAPsEBbEpA8QQKwQGEBkEoABz4ACrBAZUuQO0gNPAA8sEBfEkBaFUBUCZA5TgA7AAiwQE4TQEkUQEUMkDkACLBAQhJAPRJANQyQN0oIsEAtE0ApOEAgEkANBJA3AAQ2SgFOAAhKUASwQABNkDYABUoAC0xOBDRJVDQADzJOCE5SH0wAITIAGk4AEU9SBjlGVTkAGTBNBFFRE08ALTAAGFEADk5SEzlORTkAIU4ABE9SCS9YMC8AgUgyPwSwQ1MGkE5HCk8AETIAPLBDTwKQTEwfTgBNTAACSlQEN0chNwAeSgAySEpLSAAUOUQIR1EoOQAsRwAURVJORQAcO0kJQ1AxOwA2QwAMR1BtRwACN0QESkwwNwBASgACTUtiTQANTEgLPDUPPjEZPAAKPgA6SkIJTABXSgADSEUJQD8pQAAaSAAZR0dRRwAhRU4EPEYqPAAZRQA1TlFUTgAWT1YEsEAJCpA7Sh47AENRVQdPAGw8TgNPUgJRAB08AEVPAAFOTVpOABFPTgM5QyQ5AChPABFMTTNMAAWwQBI4kEtSArBACw+QO0QDsEAABZBLAIFcOwAQOTwFR0kdRwBJNz0MOQBYNkYBNwBCNgBBND1ANAAkM0kAU1BjMwAFMUQLUVECUwApMQAhL0glT1AaUQAXLwAnTwAENkoLTk0EsENLMZA2ABROABMtTwVMUDktADE2SgFMAAtLTiCwQAkPkEsAAjYAJbBAAAiQKUIOK0QDTFYbTAABKwAHKQBJLUYOK0EZsENQCZArAD4qTRFOUAEtACwqADBLUwItPxJOACxLABgtAAgrUQSwQ1QIkExXH7BAMgaQTAAMsEAnBZArABCwQAAvkC1JWC0ADypID05TNyoAPS1HAUtUBE4AQ0sAFi0ADCtHA0xVNisARS9DZkdJAihDBC8AFUcAPygAFStEbysABC1IAUhQH0gAEi0AOy9AYy8AEEpNAitDOysAIUoABEdOFi9EIUcAOkhSAS8ADy1IEkgAIS0AOS9BZUpMBi8ABitFQCsADkdRFEwABUoAAS9EI7BADweQRwAMsEAAF5AvAANIVhMtUAxIADQtACwwSVsqUgEwAAJRWANIUhlIAANRAE4tTiIqADQtAB6wQBkDkEdVAS9QAE9SHrBALAFDWAaQRwAHTwAGsEAAgTyQMUoJLwACTlMJRU02RQAhM0wQMQAIsENRFENHE0NCEUNGAZAzACM0TgxDUQiwQ0AVQzcVQys1kDZGBzQAM7BDIhSQQwAFN0sZTFAFTgAENgA2sEMcE5A5UgY3AFM5AAewQxcVkEwAAztVDkJQIjsAS0IAC0VJLLBDGzaQRQAEL00JTE8cLwBQTAACS01FsEMfHZBJGgFJAAI0QgewQyQTkExMCUsAgUE0AAU2PBFIRy5IACo2AAI3OVo3AAw5RhxHRRY5AAlHADs7R287AAc9RAJFRCBFAEg/SAQ9AEQ/AClARwRMAARDTRawQyAFkEMAK0AAHz1HUT0AHrBDJACQPlAJTFUdTAAyPgATO019PU8IRVUCsEMgApA7ACWwQyQWkD0AKT5HH7BDICdDJAmQPgA4PUgCRQAOR0Q/PQAkSUoGRwAEO0RDSQATOwAIOUkJSkxYSgAGOQAFN0YGTEdfNwAENk0ITk0JTABINgAGTgAST08FNEtvNksAUUwDTwAXNAAxUQACNgAXTk0LPk4vsEMqNJBOAANPTgw0RgiwQyUDkD4AQ7BDKxyQTwAFTEsCPUgHNAA2sEMnA5BMAAg9ABmwQysNkD5OA05PT7BDJR+QT04ETgAXsEMqSkMkBZAyTQw+AABOUxRPABSwQykwkDIABDRLA0xWFLBDJAeQTgA0sEMpA5BMAB02RAVKVxU0ABCwQyU3kEoAArBDKQiQN0sGTFMHNgA7NwAOsEMlEpBOVANMAAU5Sx6wQyklkE4AHE9TAzkACLBDJRWQO01DTwAbUVMSPEgQOwBHU1UHPlQLPAAHUQAvPgAkVFYFUwABQExXQAARUVUBVAACQlBBsEMpA5BRAAlCABlTUgFDXCWwQyQCkEMAIVMAGLBDKRWQTktUTgAZT08CO1ItOwAYTwAoSkozSgBRTE8IPFInPAABTAA4R0kxRwBLSFABQE0hQAAPSAAvQ0c8QwA1PEkHRU4XPAAoRQArSE09SAAqOUsPQEwQOQAbQABKQ0kvQwAjsEAjE0A7A5A+VAtCSQawQD0CQy0VkD4ACbBAPBOQQgAmsEA9FEA8A5BFTBCwQDcBQykRQDITkEUAArBDLjZAKQqQPEkAPkcKsEAAEUMqIJA+AAWwQy8PkDwAGDtCCEBHOkAAGTsAAjlJFkJOErBDNA+QOQAgQgAIsEMvFJA3SQhDTjKwQzQOkEMAIzcABrBDMAKQNkYLRUtINgAERQARR0YBNEdGRwAONAASSEwDMkg3SAABMgBCOUQMSkY7SgAOOQAbMEcITEcfMAATTAASsEM0JpBOTAY5PzOwQy8HkDkABE4AG7BDNAyQL1UKT0dcsEALBZBPABFRSQ2wQAA+kFEAD7BAEgKQLwASsEAACJAtSQVKRiQtAAWwQzgakEoAI05BIbBDMy2QTgAOsEM4GJBPRQIvSiEvABGwQzQgkE8AHFFCD7BDODeQUQAjsEMzIJAyPwJKOxawQzgMkDIAC0oANrBDMwiQTzw/TwABsEM3M5BHRAc3QhWwQzMRkDcAA0cAI7BDNxyQTz5DsEMyJ0M2ApAvRwBPAAdKSSYvAA1KACCwQzIUkFFIKLBDNzuQUQAOsEAjAEMyDJBPTAewQEIAkDBRFLBAPhNANAFDNxJAEBNAABGQTwAFUU0isEATAUMyEkAbNEAAAUM3CJBRABkwAAMyTwNMRh8yABiwQzMVkEwAJLBDOAiQTkJLTgAdNEsLT0wdNABTTwACUUtNUQAoMEUCTEseMAAQTAA5T0lEsEAXAkM0BJBPAAywQAAOkC1IE0hNBbBDOBeQLQAfSAAoT0oDsEMzN0M4PZBPAA0wTAhMUBkwAAGwQzQdkEwAH7BDOBGQT05NsEAhJUAXBpAySwVOTwdPABSwQBInQBwQkE4AFbBDNAWQT05qsEAUA5BRTgJPAAUyAAQ0RwawQAAikDQAF7BDOB+QUQAETkxLTgAxSE0FNkYiNgALSAA7TEaBB0pKATdGAUwAMDcACEoAKUhFJDccGEgANjcAC0dJBDJKQkcALE9FV08AEjIAATxAEkVIIzwAEkUALE5HeDs8Dk4AAk9FgiA7AAI3OwdPAAFORHNMQQJOADZMACI7NQFKSiVKAAs7AEBIRDlIACY+PgxHPBg+AApHAEBFQDZFAExDQSWwQzw6QCoTQD0TQEcUQE4TQFMRQFcTQzgUQF0zQGEKkEMATjcAKE5YH04AH7BAXRNATwKQRVcRsEAnEUAAC5BKQQmwQzwPkD5HKE5ZKbBALgiQSgALsEBCEUBOEJBFAAOwQFsCQ0IRQGoUQHkRQH8TQz5ekD4AATxDFbBDOSNAeyOQO0oDsEBzFEBrAJA8ABGwQGIBQzQSQFcUQFETQE8MkDlNBDsAAbBDORZATRJASRRARgFDNAGQOQAxN08ZsEBBAEM5IEA8EkA3FEA1AUM0EkAyEJBOAAGwQCQAkEpWATZPATcAErBAAFaQNFEHTFIFNgAASgA0sEM5J5AyTwI0AANOVg6wQzQGkEwAMjIAFbBDOQSQTgAGT1cFOUk7sEM0KpA5AA6wQzsCkDBPAlFSD08AObBDNgyQMAATUQAETlAVsEM7ApA5TCSwQz8ykE9PAjkAAS9WAU4AAbBDOzeQLwADsENDXUM/J0NENENIFJAyRAZOSQZPAAiwQ0QQkDIARU4AB0xFTrBDQAqQTAAMN0oASlAPsENED5A3ACFKACpITEtIAB85UAJHUBywQBkTQEEBQ0ATQFMDkEcADbBAYwJDRBFAageQRVAzsEBlFEBgAUNABpBFAAywQE4SQAANkDtNAENJAzkABLBDRROQOwAcQwAnR05HRwAqSkoQN0cLsENBI5A3ACOwQ0UQkEoACE1JSbBDQR6QTQAGsENFCZBMRwI8TgiwQBwTQCIHkDwADLBAAEmQSkEBTABQSgAMSEUTQEchQAAVSAAjR0I7RwA2RUsFPEYjPAAZRQApTk5KTgAgT1QCO1AiOwAlTwAGsENKNZBRUSawQ0VCkDxQC7BDSgGQUQACT1ATPAA1sENFG5BPAAFOTVxOAAdPUAo5TQ+wQAsLkDkAB7BAHBRAKRJAMBNANAiQTwADTEkGsEA4FkA9DZBMAAKwQD8TQDoEkDkaELBAAACQOQANS1gEO1IBsENJC5BMPW1MAFg7ABo5PQZLABtILRFHIQ5IABtHAAY3PQk5AG82Swo3AEA2ADk0S1hTVwI0AAkzTw6wQBAUQABBkDMAAlFQAVMABjFKQjEAGS9CFk9MElEAJy8AFE8ABU5RCjZPIE4AMjYADkxKEC1QBrBDTQCQSjwcSgAJLQARTAATS1EMNk0asENJC5BLABM2AAewQ1ApkExWAStFFyk9BUwAGisABCkAQi1MArBDVm2QKkwJTlIDLQAgsENaCJAqAAFOACFMSRYtSAiwQ1UGkEtQDUwAFrBDWguQSwAGsEAdFkA8B5ArUwAtAABMVQqwQAAekEwABrBDVRaQKwARsENaKZAtRVItAA0qRgxOUC5OABEqABNMNwtNLQEtQQ9LUQlMAAdNAClLAA4tABErSgBMWQywQDYVQC8CQ1UPQAATQ1oAkCsAOS8/KLBDVkdDWgWQLwADR0sBKEsbRwAmsENWHZAoAA0rRVgrABQtTxJITRWwQCYGkEgACS0AA7BAAAJDWi2QL0MxsENWJkNaDJAvABYrSBFKQyqwQ1YGkEhMBCsAC0oAEbBDWhGQL0YISAAMR0kfRwAaSFECsENWB5AvAAUtRyBIAAywQ1sOkC0ALy9FH7BDVydDWxiQLwAPK0oQSkA0SE8HTAAHKwAYSgAVL0cNR08BSAAbRwAcLwARSFUILU8OSAADsEApFUAAAUNfHpAtAC8wR0SwQ2MSkCpPBDAACVFYDUhCE1EAA0gAC7BDXDaQLUwhKgA1LQAiT1cBR1cDL04WRwAATwBSsEAfJkAAEENhRpAxRwFOVghFSwYvAA2wQA0BQ10RQAkUQAAQkEUAHzNOIDEANDMAITRSDENSLbBDWBVDVB2QNk0NNABMN0oLNgAAQwAQTE0VTgBCOVMLNwA5sEALFEAQCJA5ABBMAAc7VwSwQBYOkEJSGDsAFLBAACOQQgAaRUZWRQATL1ABTE8fLwBLTAAHS0pLsENZMpA0SwVLAAVMTIFxNjgASEURNAAUSABCNz0LNgBfNwAGOUQER0MfRwAjOQAlO0MqsENVQ5A7AAU9RQNFQSNFAD8/SAo9AEs/ACVAThBDTAdMABdDADxAAAk9Umg9AAk+VRRMVCZMACU7VBY+ABCwQ1ojkDsAMzs4Az1ZF0VYBzsART0AGD5UIbBDViZDWwuQPgAkPVQCRQAKR0YjsENWNZA9AAGwQ1sMkElPCUcAATtNOLBDVQ6QSQAfSlADOwAFOUtjSgAEOQAGN0wPTE1jNk0ENwAITlEHTABNTgAGNgAMT1ICNEx3UVABNlQITwAGsENZEZA0ACE2ABewQ1UBkFEADU5RDT5MH7BDWkeQT1MMNFAMsENVB5A+AAFOADGwQ1sVkExSBz1TDzQACE8AKrBDVQOQTAAIPQAasENaCJBOUgc+VIEAT1IaTgBXMk8CTlIDsENVEZA+AApPAEtMVgc0TggyAAlOAAewQ0kUQ0IckEwAHkpZCDZFFzQAF7BDPRKQSgAkTFcCN00XNgAyNwAcTlgDOVIPTABATgAdT1UOO1QQOQA0TwAYUVQNPEseOwBFU1MOPlcIUQADPABNPgAZVFUEQFYJUwAMsENBOEM9A5BUAAlAAAdRURdCVyOwQ0IJkFEAIEIAClNOE0NbIkMALrBDTAeQUwACTk1VsEAQAUNIE0AyDZBPUAJOAAOwQDoBQ00CkDtZR7BDSAmQTwAMsEA9CJBKTAqwQEACQ0QSQEMTQEYBQ0kQkEoABLBAShFAUhFAXQ2QOwADPFgCsEBhBpBMUBCwQE8SQAAHkDwAEEwAM0dLMkcAPLBDTRaQQFEGSE0VQAAdSAAxQ0Y1QwAdsENJFJA8Vg5FTA88AAawQ00gkEUAM0hMDLBDSCdDTAqQSAAtOU8HQEwaOQAUQABEQ0grQwBBsENRCZBCTQE+VgmwQDcPQEUAkD4AFLBASwKQQgARsEBPLpBFTh2wQFEgkEUAQbBASQeQPkYWPE8DsEAwE0AADZA+ABY8ADBARwE7TTVAABCwQ1UNkDsAFkJMBTlPNTkACUIAJUNNDTdNL0MALzcADjZKAkVLOkUAAjYAKTRLCEdJF7BDWSKQNAAQRwAgMkkGSEomSAAcMgAxOUUBSkctSgAdOQAYsENdCZAwRgVMRiVMAAowAFpOSgY5PxNOAD85AExPRAQvOBGwQBkTQDoTQEQTQEclQEoJkFFBCbBATQCQTwAUsEBPE0BSFEBUFZBRABGwQE4SQDkAkC05AEpDDy8AA7BAABuQLQATSgAkTkEgsENiNJBOACBPRA8vPCYvABtPAChRQC9RAERKQQMyQjUyAAVKADpPPlFPAChHRAE3QSg3AA1HAENPNkhPACMvQAJKQiAvAAdKAExRPBGwQ15OkFEAEbBALwyQT0ACMEMFsEBBFEBHAkNYIUBKJ0BNB5BRQQuwQ1QDkE8AELBATwFDTjlARgGQUQARsEAqC5AwAAEyTABMQQawQAACQ0kTQ0QGkDIAPUwAHk4+T04AIk9KAjRMCLBDQBiQNAAPsEM4PJBPAAhRSFdRAB9MTQ4wPB5MAAYwAEJPRU5PACUtQARITw6wQzwdkC0AG0gAIU9JbTBHCUxQBE8AEDAAREwAHk9QZ7BDOAiQMkgLTlMHTwBaTgAOT1RxMgAHUVABNEgETwAjNABJTk8LUQBZTgATNkQBSE1KSAAlTEJnsEAcAUM8A5BKUAw3SAOwQCMMkDYABEwAF7BAExJAABCQSgALSEiBB0gAFrBACwKQMkgGR0sDNwAasEAAPJBHAB9PQRmwQA8SQAASQ0ESQ0UmkE8AAbBAIAeQPD0JsEA1AZBFQROwQD8TQEAUQD0SQDsCQ0sTQD0CkEUADjIAAbBAQQWQTkMPsEBEFEBGJUA+EkA3AUNRE0A1CJA8AAewQDcPkE9BCE4AAzs6DrBAMhNAHRRAABNDVhJAEhRAJRBALidAKidDWxRALIEDkDsABTc4A08AB046f0w5BE4AakwADjs0DbBDYAiQSjgbOwAnSgATsEAqFkNlBJBINwywQ2tTkEgAH7BDcQKQPjQNRzkDsEN1KJA+AAhHAESwQ3kbkEU5LrBAKDpDfoEBkEUAPUMtDrBAJCZAHxNAFxJAAIJUQA0VQBMSQBcQQBwUQCETQCYTQCsSQC8TQDIUQDQkQDgnQDsUQD0QQD4UQD8TQEETQEIRQEMnQEVKQEglQEslQE4mQFIVQFQQQFcmQF0nQGJwQGaBOpA3AC9DAIEksEBhJEBcFUBYEkBSE0BNE0BKEkBIJkBFE0BEI0BDEkBCFEBBE0A+E0A8EUA4FEA1gghANzhAOk5APCRAPSdAPklAPyZAQExAQSdAQiZARDhARjRASCdASjdATCZATiVAUSdAVDlAVl5AWoVWkEdDEiswGbBAWBRAVhJAUg6QRwAFsEBMBpBFPw6wQEUSQD4VQDoikEUAA7BANxFAMgyQRz8IsEAmE0ASEkANgRdAFxNAHCdAICRAJDlAKXJAK4FyQCglQCQlQB8NkDczCLBAFydAAGmQKwAssEAXEkAkEUAuFUA1EkA6FUA+EkBCFEBFE0BHEkBJEkBLE0BOFEBRC5BIQQSwQFUVQFoNkEcABbBAYBRAZxNAbhRAcxNAeCdAfIIWQHMTQGMGkDQ3DLBATRJAOAKQR0cRsEAsJkAwAZBIABSwQDUSQDoRQD4VQEAEkEcAEEVBNkUAAbBAPweQR0MLsEA+E0A9EkA8CJBFQQFHAAuwQDoTQDUVQC8RQCqBF0AvEUAygSGQRQARQztXsEAwNkAsFUAoC5AvMQWwQCEAkEMAAUpDDTQABLBACxRAAIE+QBcTQDESQD8SQEcUQE0TQFMSQFsSQGITQGgUQGwmQHInQ3oQQHY6QHoLkEoAQLBAfoEFQHoQkC8ABLBAcAaQSk8LsEBhD5AwNAGwQFQVQE4nQFIjQFcSQFsUQF8ykDcALEoABUxFUkwACUpGEbBAUhNARRJAORRALgGQSgAQsEAXBpA3MwBMSQ2wQACBDpA3AIEgsEAJXJA5NAOwQA0nQBKBApA5AIEpsEAAXEATDJA7OgSwQCgXQDgTQEIUQEoSQFERQFkVQGMRQGwIkDAAC7BAcwGQOwASsEB4JkB8DZBMAIIfsEB1AJA8LQQ5LRCwQGgFkENAD7BAWRJAShJAOxRALBNAKIMAkEMABEI4dbBAKyGQOQAFsEAuOkAwgVOQOTMOsEAuBJA2Lhg8AIMAsEAsEkAlA5BIShKwQBMRQAADkEIASrBAHRJANxNARBNAThRAVhFAXxNAZxRAbTlAcSyQSAB1NzQYNgACsEBpBJBIPw+wQFkEkDkAD7BARhFANgOQSAALR0EHsEArE0AnGJBHAAxIR0FIAA1HPW2wQCMmQBqBBEAhEkAoFEAwE0A2E0A5E0A7JUA8OEA9V5BFPS9HABtFAGewQDwTQDoTQDgNkEVCCbBANQiQMjEIsEAxFEAtE0ArXEAjgiOQNDhlNwAxNACCFTY1gQs2AIIuOTeBBzkAgXawQBkUQAA9kD4wNbBAGRNAKBJANhNAPgaQMgANsEBDEEBHFUBJEUBNFUBREkBXFUBeEkBlFEBrEUBwOkB1NEB5bpAyMwSwQG0UQGARQFcUkEUAJbBAXRJAYxNAaRNAbTqQMgBdsEBxgg1AaBBAXQ2QPgACMDQEsEBPE0BCAJBORxSwQDgTQDM5kE4AAkxJIrBAMDuQTAAQTlCEcbBALBFAJRRACxJAAC6QOTCBDrBAFhNAJBNALxNANxRAPCBAQRNARRNASBRASxNAThNAUg6QMAAFsEBWFUBcEEBjE0BrE0BxFUB2AZBPTAhOABqwQHpNQH+CO5AwNwSwQHAUQFUWQDUEkE5ICrBAAChAGQiQTwAIsEAuFkA5CJBOAAqwQD4OkExHM05FAUwACLBAPztAOwGQTEcTTgAMsEA1E0AvgQVAMRJANExANydAOjhAPBRAPU+QSkUHTABTsEA4E0AwE0AbFEAADJBPSQZKAAgvNAMwADE5AFmwQB0UQDQTQD4UQEQSQEcUQEoRQEwUQE9aQEoSQEclQEsPkDIzA7BAUA2QLwAHsEBXE0BhEEBsFEB4EkB/JpBPADsyAIF1sEB6CpBISQWwQGkAkDQzADczFrBAVxRARxGQSAABsEA+EUA8B5BHSE5HAB9IQ4JzsEA5JkA2JUAyFUAtEUAngWiQMCk6NACCeko7LkgAgSZMQR1KAIEzMAAgRTsETAAEsEAgBpAyLBGwQBcPQACBCEAJEEAmFEA2EkBAFUBGEEBKEkBNFEBQE0BTFEBXJ0BfEkBkFEBoJUBtgnVAYxRAVwqQNi4ASjkIsEBHEJA3AASwQDQJkEUACLBAHzlAJhRAMBFAOhJAQBRARAuQSgAHsEBHFEBKFEBMEkBQFUBTEEBYFEBcEkBgJkBlM5A0MTI2AIEaSEVQsEBgKEBZE0BSEUBJFEBBE0A8FEA5C5BIAAFHOgE0AAo2KAywQDcUQDUSQDIUQC4TQCkSQCQoQCCBFkAcggZAIBVAKhJANBRAPQCQSDwQsEBEFEBIFUBMBpBHAAywQFAgQFQUQFkFkEgADrBAXhNAYxJAaCdAbCVAaBRAXxJAURRARAqQNy0IsEA9BZBIPQ6wQDwekDYAgTtIABlHOAQyACtHABRIOEtIAAlHNAOwQDgSQDYoQDQ3QDJxQDBtQC4nQCsTQCknQCMmQBwikDIrAbBAFhRACRVAAIEAQBsVQCwCkDIAELBANxRAPRJAPyVAPhRAPRJAPIEckEUzGEcAC7BAOoN4QDglQDYoQDMHkEMlBishCEUAD7BAMBVALBJAJxNAInBALhRAOBRAQRJARxRATRRAVRBAXxJAahRAdRNAfSuQKwAcQwBZNwCCf7BAdhNAchFAbhRAaRJAZBRAXxJAWRVAUxJATBRARBBAPhRAPCdAORBANRVALAiQU0kKsEAfDZA3LQSwQA0VQACBBEAXFEAiEUAqE0AwFEA0E0A3JkA6E0A8FEA9IUA/EkBBE0BCFEBEGJA7Mw+wQEYTQEgmQEwRQE4BkDsAEbBAURVAVBFAWCVAXyZAZSdAaoEWQF8QkEA4BLBAURNAQxJAOyZAPhFAQRRARRNASRRATBJATyVAUhRAVSZAXBFAYRRAZhJAaidAbzhAcwCQT0wwUwAYsEB4DJBPAIEvT0MrTwAUTkchsEBtCZBOAAtPQgGwQFYSQDgOkD46BLBAAA2QTkgDQAAETwAlsEAaE0AuEUA4FEA9EkA/FEBBE0BDEUBFFEBIEkBLFEBPE0BSFEBWEkBaFEBfEUBjFEBoEkBtJ0ByTJBOAIEWTEaBFLBAbRRAZQyQPgACsEBWFUBDBpA3AAVRSAE9NwewQCoUQAAHkEwAVrBADxVAFxJAHBNAIRFAJhRAKhNAMBRANBNANiVAOVyQNy8CsEA7FEA9EEA/FkBBEEBDFUBGEEBKFUBOCZA3AAiwQFEWQFOBAEBREkBPJkBLE0BIEUBFFUBEFJBKQw02LxewQEMUQEIKkFEACLBAQRJAPyqQPQA2sEA+gXNAPQSQOTNSOQAJsEA6JkA4OkA2JEA0JUAwFEAuE0ArE0AndpA+NAywQC4RQDUSQD0UQEITQEcTQEwTQFIUQFoTQGMRQG4TQHcAkD4AE7BAfYFVkExFL0oAgQlORyFMAHWwQHQTQGgTQFoUQE0SQEEUQDYJkEdBCTcrAbBAMheQTgABNgCBDbBANSVAN4EpQDlOkDYogQc2AIIZNDCBKzQAGUo6TUcAgQFJQQgyNQlKAAiwQDuBF5AyAA5HSA5JAIE1TEoKMTQ2RwBQMQAqT00QTACBB7BAOBJAMxFAIRRAAAiQLzUCTkgBTwBUsEAcCZAvAA2wQDQPQEIUQEoSQFIUQFkHkExKCrBAYBRAZxJAaweQTgAgsEBwOUB2JUB8AJBMAB1KSgewQHgBkC04FbBAZxBATAmQNwALsEAfCpBKAAiwQAAHkElDOEkAAko8M0oAEUk6gRiwQAk5kDQ5bLBADS+QNABnsEATX0AXSpA5NBewQBx0kDkAILBAIIFtkEc+CTcwKEkAYjcAgiWwQBYCkEcACEU2CLBAAAOQNisMLQCBUrBAFBJAHBJAJBNALBRANBJAOhRAQBNARBRARxFAShNAThRAUhRAWQGQMi8QsEBhE0BqEkByFUB4EUB8CZBFABE2AAwyAIFSRUApRQAONDkJQ0EHsEBqE0BVDpBDAASwQEQIkEVFCrBAOydAPAaQQ0MDRQAbsEA9YZBCTAhDAIEIQgAOQ0wFMj+BATIAQLBAPIEFQDkiQDYSQDIVQC8RQCwYkExHDbBAKASQMTgwNAABQwAEsEAkO0AfgiSQNDd3NABisEAaEkAUE0AAgSpAFwyQOTkVsEAuFEA8E0BEE0BKBpAxAAuwQFAUQFcSQF4TQGYVQG0SQHImQHaBA0ByE0BuFEBoE0BiCJAvOQqwQFsHkEpHDbBAVBNATA+QTAACsEBGFEBDGZAvAA6wQEI2QEEikElMBLBAPw6QSgAssEA+JUA8OUA6JEA4IJBPUAMtPQOwQDYVkEkAJ7BAMxJAMSFALhJALCdAKSRAJBRAHBNACRNAAIEYQA0RQDIHkDJADbBAQgmQOQAIsEBMFEBWE0BgFEBqEUBxBpAyAA+wQHZokE5PAU8ANU4AK0xHBrBAZhRAVhJARRJAOBJAMSCQUVAJLQAAMToATACBN7BALzlAKQ9AGhVAAF5AHxNANBNAQQWQKzcOsEBKFEBRE0BYE0BfEkBlAZArABGwQGlckE5JRVEAaLBAYxNAXRVAUxFARxVAOwCQMjcATEEIKjILsEA0B5AxAAmwQDICkE4AOLBAMIJakDIABDQ3Bko9AkwAXzQAgRKwQC4lQCw6QCpyQC8BkDYrErBAMhFANhVAORNAPQKQKgAPsEBAE0BCEkBDJkBGJkBJE0BLJEBOJ0BRXUBNEUBGE0BDFEBFAJArKwFHPRGwQEoTQFEEkEoADbBAWxNAaBRAdRNAfwGQKwA6NgAIRwCCGDQ6DLBAbwOQLTEQsEBbBJBKSA+wQEkUQD4TQD2BOZBKAA5JNjZJAB1KPUQ2OgSwQDwYkDQABUlFAkoAJTYAP7BAOnJAOExANl1AMzlAMQ6QNy0+sEAvcEAtgQZAKzhAKBRAJBNAFyBAACWQSkQmsEAeE0A2CpAtAABJAAqwQEQUQE4RQFgSQGQMkEoACLBAcBNAeIJBQG0TQGAAkEo6BzIuC7BAUxRARxNAPRFAOIMkkDYvFzcAgSo0NAk2AG0yAGw0AA42L4NOsEA2FEAxE0AdA5AyMQ6wQAByQCwPkDIABLBAPxNAShNAVBRAXRJAZxFAbhNAc0qQNgCBUrBAbiZAZRJAXhNAVhNATQuQJikIsEBFFEBAE0A9JkA4EkAzE0ApEkAaE0APJkAJE0AAgTlACRFAHBVAKhJANxVAPhFARBRARxRASxBATxRAUxJAWhVAYhJAaxJAdRJAfg+QJgAWSgCCMbBAeSVAcyVAbCZAZiVAYDdAXCZAVxJAUxNATxJAShNARxNARRJARCZAQyhAQhFAQRNAQBRAPzmQKy8lsEA+EZBHQSewQD00kEcAA7BAOgmQRUNMRQALsEA4DZBHRHiwQDaBKUA0J0AxNUAvgQJALYJCQCsgkDcrGrBAJBBAHxNAFxVAEyJACRRAAG2QKwCBMLBAEiJAHQmQSEYJsEAkFEAqFEAxEUA3BZBHAA6wQDwTQD8TQEERQEImQEOBUUBBE0A9EkA6FEA3ApA0Mw5HRgKwQDVOkEgAgQJHAA5FPzRFAAuwQDMCkEc/ELBALRJAIBNAAAiQRUACRwCBMLBAEBJAJxNANhJAPhVARBFARxJATBRAUBJAVhRAWxJAYAmQRQAMsEBlBZBDRg2wQGoTQG4lQHUmkEMAE7BAeUxAbg+QLzMEsEBkE0BZEZBDOgGwQE8VQEcCkDQADrBAQRNAP15APQ6QSkEEQwAUsEA8J0A5FUA1EUAwE0AqEkAgE0AAXUAwJEBDFEBQEkBdE0BqEUB0FEB4epBKAHqwQHMUQGoSQFkEkC8AD7BARwyQSkcFsEA5BZAwMhGwQDY4QDiBIJBKAA83AA1MRU9MAA1KSSmwQ3YlQ3IAkEoAAjc5DUxMPbBDbFtDaAuQNwAasENkJkNgOENaE0NTE0NJFEM/E0M1E0MsE0MlEkMhEZA5OhWwQxslQxMnQw9YkDkAgR2wQDYTQDMTQC4SQCsnQC4GkDs5C7BANQFDCxJAPBRAQhNARxFASxNATxRAVRJAXCNAYwaQOwAOsEBrFEByEJAwAAGwQHkRQH1jkEwAgQKwQHcSQG8HkDwxAjkwCEM9ArBAYxJAVxRASRJAPRNAOIJpQDoOkEI7BEMADrBAPChAPQ9APg2QOQAbsEBASkBBJEBCgWNAQQaQOSwINiwGsEA+EUA7B5A8AAuwQDkmQDeBdUA0E0AyEkAoFEAQE0AAFpBIQTWwQCEUQDURQEEAkEIAFbBAShJAURJAWRRAYhJAaBRAbUlAcQ+QSACBBrBAbRNAYA+QSD8CNy4BsEBNApA5AAo2AAiwQD0UQDcSQDkUQDsRQD17kEgAC0c/QEcAGkg1Q0gAC0c3gWSwQD4DkEVAH0cAArBAQSdAQjWQRQBrMjALRTofsEA/E0A8FUA5gnGQNDOBMbBAO0tAPF9AOiCQNwAENAAoNjmBATYAgko5MYEHOQCBVrBAOIE1kD4sFrBAOxVAPhJAQRNARBFARhNASAOQMgARsEBKE0BNE0BRFEBWEkBbE0BhEUBmFEBrE0BvE0BzJUB5OUB9B5BFAHgyLIEHMgCDHbBAdhVAbgeQMDAHTkgEsEBkEUBcE0BWFEBPEkBIAJA+AAlOAAmwQEQAkExGW0wAC05KDLBAQ4QgQEInQEETQD8SQDwTQDcUQDNDkDkvGrBANxNAOxFAPhRAQRRARCVARxRAShNATBBAUBZAVQKQMAAPsEBaFEBhE0BmEUBrJ0BwTUB0FJBPRRlOAIFDUUcdTwCBM7BAbhCQMDQBsEBgDpBPRAawQEsHkFEADbBAMRNAHiZAJRJALhRANxBAPBRAPxZAQgGQTkwQsEBEE0BGCJBPAAuwQEgUQEoQQE0UQFASQFMWQFciQF0BkExNJbBAY0uQTgBDSlAXTABUSgCBSbBAWgiQSkYBLzAJsEBQE0BEEpAwAAKwQDwTQDlbkEoABE9EXDkAOrBANxRAMxRAJBFAAC6QMjEdsEASEkAxE0BBFEBMEkBWFEBhCJAvAAywQGoLkDIAB7BAcSRAdoFSQG8QQGUUQFgEkEg+DTQtADcuArBATQOQTwARsEBDEkA8PJBIABBHPkxHADNIOIQlsEA6gSmQMCwlNACDPEo1JUgAgSxMORRKAIEsMAAVsEA3EJBMAAGwQDMPkEU3A7BALAOQMicSsEAkgQBALRVANhFAPhRARBNARxJAShNATRJAURRAVhFAWxRAYBFAZRVAajhAboMyQGgVQGQQkEo5AbBAWw+QNigFsEBOD5A3AAOwQEETQDcMkEUAG7BAOhFAPyJARRJASRVATRJATxNAURRAVBRAVgyQSgAXsEBbgRaQNgA2NCqBFEg8gS+wQFcSQFMRQE4LkEgABUcyATYwArBARhVAPQuQNAAGsEAxFUAgEkAAgTlAFxJAKBVANhJAPhRAQxJARhNASCZATBNAUBJAVBJAWRRAXSZAYyVDD0tDFCdDGQqQSDsasEMgJ0MnC5BHABhIAAGwQy0pQzQRQzgUQF4BQzwSQFITQD0CQ0MRQAAHkDcwBEg7GLBDRxmQNgAhsEAXFEAnE0AwE0A1EUA3FJAyAFFIAAiwQDkWkEc2N0cAGUg5H7BANiqQSAAQsEAzE5BHLRGwQDFgQC+BA0NDgQVDP0xDOgGQMieBHzIAgiNFLiRHAIQisEAtB5BDKQgrHw1FAAywQCsRQCgTQCQUQCAkQBxZQCcVQDISQDsUQEITQEgTQE0TQFMLkEMACbBAXBFAZRGQKwABsEBuFEB1FEB5JEB+gRGQNwAFsEM+gWVDQjhAeCRAciZAbhRDRidAaTdAZCdAXyBAWhNAVRRATxJASBRAQhJAPhVAPRJAOhRANgyQU0YEsEAsEJA3KAWwQBkTQACBA0AaFEAnE0AwEUA3E0A7E0A+E0BBEkBCJkBEJUBGJkBIJ0BKBJA7KjSwQE1MQFAXkDsAELBAUktAVIE5QFITQEsLkEApB7BAQhZAPCNAPhNAQRRAQxBARSdAR11ASUxAS3CQUTwcUwCBI09EOLBATQKQUQCBIU8AAbBASwCQPjoBTkUUsEBHE0BAD5BAAAOwQDkUQDcnQDoTQD4QQEEVQEQakE9IBk4ABrBAR0tASSdATCVATiVAUBCQTEwKTwAdsEBSOkBUOEBWgWJAUhNARw+QUUYDPgABsEAuBJBMABCwQAABkDcACT00MLBAFiFAMRBAPhVARRJARyZASilATRJATxBAURVAUxRAVkpAWhOQUQAiNzOBe088cU5BBU8ADLBAUxJATBNAQxFAPRNAOgCQTgAHNi4ATEEINwCDMT0AEEo7BzknEEwANTkAgS+wQDiBPUA6E0A9AZA+KxKwQEERQEUUQEkSQE0UQFQUQF0SQGkSQHUUQH81kD4AgUxKACNMQ4FKTkMUTAAxsEB2EkBvEkBmE0BZFEBKE0A6E0AqEkAoHJBHQQY2AAA3MAVOAFywQC4UQDMTQDgUQD0RQEAVQEKBepA2OoEtNgCBcTQzCrBAQYEvkDQACEpBWkcAgQUyOAJJRgJKAIE0MgANR0sOSQApsEBAX0A/PpBMSw0xMBhHAHIxACpPSQ5MAA6wQD5MQDwRQDkTQDESQB0UQAAWkE5HAk8ABy8yLLBAFxRALhNAPSFARxRATBJAUQKQLwASsEBVE5BMSRKwQFomkE4AcbBAXjmQTAAFLTYKSkYWsEBUEkBHFEA6BZA3AA6wQDUSkEoAFUlCP0kADUpATEoACEk+gRA0O4EENACCRjkxYjkAgktHOxE3LRpJAFo3AIJhNioDRTQBRwAsLQAVsEAzX0AxTEA0E0A3EkA5EkA9FEBCE0BHEkBKE0BPFEBUEkBbE0BkE0BuFEB4C5AyMAiwQH9vkEUAHjIAFDYAgRlFPSRFACmwQHYEkEM4DrBAYhVATAmQQwACRUkDNC8FsEA+EkA5FpBFABFDQ4EOQwAOQkuBKUIAFENLDTI3bTIAKbBAO4ItkExKCjE7GbBAOSKQNAABQwA8sEA3OEA1gXGQNDtwNACBQbBAMhVALRJAHxNACVpAJw2QOTYFsEA5FUBECJAxAAqwQEwRQFMUQFwVQGURQG0UQHMnQHiBOkBzJ0BrEJAvNQOwQGYNkEpJBLBAYBVAXBaQTAAQsEBVEkBSE0BQEkBOE0BMN5BJSgKwQEoFkEoANbBARyWQLwAmsEBFEUBDE0BBFUA/GEA8C5BPTAewQDgDkC07DEkABbBAMBNAJBNAGyFAFxNAExRACxJAAIIJQC8NkDJFA7BAQAyQOQAHsEBKFEBSE0BZFEBfEkBjJUBqBpAyACCwQG8qkE5KDE8AIk4ANExNIbBAahJAYBFAUhNARRJAOxKQTAACsEA2ApAxNActAAJRTYEtsEA0J0AyE0AuEUAnE0AdFEAJE0AAOkAXEkArE0A7CZArOAmwQEQUQEoSQFAUQFYQQFwDkCsAEbBAYhJAZhRAaydAcCGQTkZhUQBysEBjFUBUDpBMQgSwQEUDkCorADIzDrBAOw2QMQAFTgADsEA4gw6QMgALNDIHSjoDTABYNACBKLBANoEDQDgTQDoUQD0HkDYzDbBAQhJARRNASBNASxNATxFAUwKQKgASsEBZFEBgEEBnFEBtEkBxOkB2gSVAahNAXAeQRz8CKzQLsEBNC5BKAAawQEYTQEkTQE8VQFkFkCsAC7BAZBSQNgADsEBwEEB5BJBHABCwQH6CD5AtNwywQHAMkDQ1BLBAXwKQSkUUsEBPEkBEE0BCOkBDaZBJPwJKAFBJABNKQBOwQEI0QEEZkEoACTY4AUlBF7BAPw2QNAAGsEA+EkA9BZA2AA+wQDxxQDk4QDYSQDQTQDI5QDAUQC4UQCojQCU5QB8AkDcqJrBAGyVAF3FAE4EGQA8mQACBBJBKQDSwQCYBkEkAE7BAOhNARQuQLQAFsEBNFEBTBZBKAA6wQFoUQGITQGoSQG8nQHWCGkBsBpBKOgMyLAmwQGATQFMSQEcTQD4TQDyDHJA2LA03AIEuNDkNNgAoMgCBMjYwEDQAg2WwQDkTQDUMkDIvB7BAKxNAGRJAAExAGxNAMQyQMgAHsEA/FkBID0BOFEBUFEBbEkBhEEBlgTaQNgCBMrBAYBRAXBFAVQmQJiIJsEBNFEBGFUBAEEA8FEA5E0A2E0AxE0ApI0AdE0ASE0ANFEAJEUAAcUAaE0AmE0AwE0A5E0A/FEBDEEBGFEBIEkBLFUBOEEBTFEBaE0BiE0BqE0BxBZBKAAImAA2wQHgSQH2CdkB4JkBxNkBqE0BmE0BiFEBdEUBZEkBUFEBPEkBJE0BFEkBCO0BBEUA9FkA5EUA2gjKQMjEJTj9UTgAQTEJZTAAVTkKFObBDQjpANA+QPjGBCLBANhJAOABDPhRAOhNAPBNAPxNAQhBARBVARxJASQmQMgALsEBMIkBPFEBREkBTFUBWJEBbIJBPSAWwQGEikE4AA7BAZSdDOiZAaYEVQzaBB0BiEUBYD5BRQgOwQEoIkDwsDbBAOQuQTwAHsEAkEUAfOkAtFEA4EkBBFkBFEEBIAZBRABKwQEwTQE8SQFMUQFkSQF8TQGMmQGiCUpBOP4EUsEBjFUBeEUBUBJBKRQ88AAOwQEcDkDswBE4AC7BAMAWQPgAOsEAAbkAaFkAqEUA1E0A8E0A/E0BBFEBCJEBDJ0BEUpA+OQywQEZIQEglQEolQE0mQE85QFGBLEBNBJA7AA2wQEYAkE9IATw4EbBAOAOQSgARsEASB5A+AAuwQAA7QBsSQCkSQDMSQDkVQDsSQD0SQD4nQD8SQEEmQEJwkDs5GTwAgluwQD8TQD0TQDsKkDk9L7BAPBRAPRJAPiZAQDhAQRiQOwAPsEBCb0BBEUA9FUA6MJA3OQVRSwlPAA+wQD0OkDkABbBAPxNAQCVAQSVAQjmQU04SsEBDCpBRAIEcsEBBE0A/EkA9FUA6EUA3CZBMRAywQDQDkFMACDw1B7BAMQuQNwCCbbBANhNAPA+QMDAEsEBCFEBGFEBJEkBNFEBQE0BSFEBUFpAwAIF/sEBQE0BJEkBCEZAyLwKwQD6BBUA/JkBAS0BBYEA+SUBACpBKQgE7LgmwQEICkDwAE7BARQWQTAALsEBJEkBMFEBPEkBSBpAyAA+wQFUSQFgmQF8kQGaBUZA7ABGwQF4IkEg/BzkwArBAVgeQSgAOsEBOEUBJEkBGJUBEJkBDTUBCJUBBcEBAKUA/EkA9EkA6BZA4LA+wQDcGkDkAC7BANTpANxNAPBJAQRJARRRAShNAUBBAVgSQRz4QsEBdEEBjFUBpDpBIAAOwQG44kEcAA7BAcm1AaQ6QSkECOToCsEBdA5A4ABGwQE8UQEQQQEE7QEJgkEoAHEg8OEgAH0o9PEoACbBAQRKQNDQGSDVlNAAbsEBAE0A/J0A+S0A9EUA8gQqQLS+BbS0AgVRHNQhIAAYvKXgvAII+MCMQRTETsEA6BZBHAIEMsEA8FUA9CJAwADCwQD6BK0A8JkA5OJA0KBOwQDwRQEEUQEYTQEwTQFAHkDQACUUAA7BAVhRAXBNAZBVAaxFAcxJAeBeQOQCCJ7BAcxRAbhNAZiJAXhJAUwaQOSsIVEQDsEBHF0A9EkA5JkA2gnaQPCeBAzwAF7BAODlDMoEFQy0lQD0SQEIUQEYSQEkGkEIrG7BATBRAURJAWBVAXxJAZxRAbgWQOQAOsEBygXqQOTcdU0ECVACBM1FGBlMAY7BAaxNAZRNAWhVATA+QOQACsEA6FEAhCZBRAAZTQwKwQBkLkDcwAUIALbBAJhRANBFAPhNARQSQUwAPsEBKFEBPIUBVEkBbFEBhE0BmgVmQOyWBBDcAJkxFakwAbrBAXRdAUwiQTEUDNioIsEBJEUBEE0BDMZA7AFpMAA5LPYFZOS48OQCBdbBAQRBAPxRAPRVAORFANBNAKxRAJiWQPC0SsEAyFEA7E0BCE0BGE0BKFEBNDpA2AAWwQFESQFQSQFcmQFwlQGCBOkBWE0BNB5A0LgdMQQFLAAOwQEkVQEsQQE4UQFISQFcwkDQAHEwAME47gUSwQFMWQE4RQEYUQD4OkE4ABLBAOBVAMQ+QRzIBsEAnAZA2HAk8AAIzKwewQBQUQACBPEAkEkA4FUBDEUBKFEBQIkBVEkBbE0BgDJA2AAMzAAOwQGQnQGqBK5BHABKwQGQUQF4SQFkVkFFFgSewQFcTQFMUQEcSQCwKkFEAAjQ3CLBAAAOQTzxbsEAPC5BPAAOwQDAVQD4UQEYSQEsVQE8SQFMVQFcRQFslQGImQGZbQFwTQFYWkC0yATY0NrBAXCeQLQAWNAAPsEBgL5BOQ4ELsEBkS0BSFEA4BpAvMQ2wQAAIkExGDk4AN7BAGRNALhFANxNAPBRAPg2QNgAEsEBBJUBCHZBMAApLP0VLAApMOxGwQD8RQD0UQDsTQDkSQDYAkEwAFUtCDLBAMQ2QNzcGsEAuE0ArFUApJJA3ACiwQCQmQB+CH5A5KYIWsEAZJUAJE0AAZJBMPg6wQBYLkEsACLBALiBAPRRARhJATAGQTAAUsEBSEkBaFEBiB5AvAAuwQGgUQG4lQHKBdEBnCZBMPQU0KQSwQFkWQEgQQDwTQDiDDZA5ABE3LYFBNwAPNitBNACBMjYADDcqg2CwQDUSQC8KkDQqCLBAJ0hDMRNALBNANxRAQBNARhNASgSQNAAOsEBNFEM2b0BLOkBJS0BHOEBFFEBEJkBDJkBBEkBAFEA+EUA9E0A8BpA3AAgoHAOwQDkVQDYUQDEQQCkVQB8SQBcmQBNyQBcSQCIhQCwUQDcTQD8TQEUTQEoUQE8TQFYTQF4QQGYVQGwdkEwACbBAciRAdh+QKAAFsEB7ggxAdTlAcDdAaidAZCRAXyhAWhFAVxRAVBNAUBRATBFASBJARlpARChAQyZAQQeQNCoONyQDRz0OsEA/JUA+B5BHAB6wQD0FkEU8ILBAPBSQRQAiRzSCILBAOhJAOCVANCZAMRRALhFAKhNAJRNAICdAGxNAFxNAEBVACUlAAIEhkDIsNjQAgxVIOwhHAC+wQBsTQC0TQDsUQEQRQEkTQEwSQE4VQFAmQFIpQFRHQFZtQFEVQEgIkDAqBEc6B7BAPgOQMgAQsEA6DJBIABewQD0VQEESQEIMkEcAFkU0OkclF7BAPxJAOhNAMAWQRwAOsEAZJUAAb0AJJkATFEAhEkAwFEA8E0BEE0BIEkBLFkBPD0BUFEBZEkBfFUBkCJBDPQuwQGkSQG4JkEUAGUMABLBAdIFNQGsSQGEFkC8vD7BAVgKQMAABTTgQsEBLEEBCBpBMJQ+wQD0KkE0AUkwAAbBAPBiQTUQOsEA4FEA1FEAtEUAgEkAZgQRAKRRANxBAQhRASRNATxNAVxRAYBNAaRNAcRNAeCVAfWeQTQCBGS8AGLBAbg2QTUMHsEBeDZAwKwWwQE8UQEY2QEkUQEwSQE4lQFCBUkBOEUBLE0BHFEBDEkBAAJBMPwk0LQuwQD0RkE0AEzcAJ7BAPGeQNABVsEMygSaQNTeBFTUAgUCwQDgUQDEQQB0VQAAakDc4HLBAIhRAOAJDLhFARRJATxVAWBBAYxVAbQiQMAAJsEBzF5A3ABGwQHgTQyqBUEByCpA1NAFKSgI5NgSwQGYUQFcFkEwADrBASiFAQRRAP4EDQyZxQEBekDkAArBDIgWQO0IPsEBBgQCQOwA3SgARSEhGSAAaR0kpsEA/JkA+AZBHACOwQD0DkFFJATwzI7BAOl9AOIJAkDUAGzczgSM3ADJPPDtRAIEFOTAFTUc5TwA6OQBITEkaTQCBKUwAEDU1BkpDZDUAQUoAG0g7gTywQDYckEgACbBAMxJALAmQTCMLsEAXCJA3IgqwQABzQBwRQDAUQD0RQEQVQEgRQEsUQE8TQFMUQFkTQGATQGkgQHAUQHUqkEwAIbBAeiVAfoESkEw1KUwAH0ozHLBAeQeQSgAMsEB1FUBuBpBMMwywQGYRQFwAkEwAFLBAUgSQSj8PsEBHAZA8ABKwQD4IkDsrC7BAPRiQSgAgsEA8JUMmFUA5EJA7AAA7CjBINQiwQyoXkEgAEbBANwOQOwAOsEMuJ0A0E0AyFEAsEkAlFEAfEkMzDJBKNTywQCsBQzcRQDkUQEQLkDcABbBATAFDOxNAUw+QSgADsEBaFUBhEkBoFUBtEUBxAUM/JUB1ghxAcB+QSC8EsEBnDpA8JwewQGAJkDAlCbBAWRVAUBFARBNAOhRAMhJALhJAKhNAI0tAJxRAMRNAORNAQBJARBVARw+QSAACsEBLFkBOH0BSFEBXEkBcDJA8AAewQGISQGgTQG0mQHGESUBtJ0BlCpA2LwmwQFsLkEdBBbBATxZAQxJAOxNAOWuQMACCMEU8AjQyAEcAgQs0AIIWMjeBCTIAgWmwQDUUQDAUQCYRQCEAkEdDAjAyH0UAGbBAKxJAOBNAQhNASBFAThNAVBNAWSdAXj2QMACBErBAWBKQRUABsEBOB5AvLAtHAAGwQEMUQD0GkEUAG0NAMUMADEU/NkUAEEM5P7BAPCRAOSFANBVAKhJAExNAAACQLwAlLTEmsEAhEkAzFUA/E0BHE0BME0BQEUBUA5AtABGwQFgTQFwEkEJKBzYAAkMAF7BAYl9DOzlAXhJAVxRATgiQSkcGNzgELzACsEBEAJBCABCwQDsTQDUTQDAUQCsTQCUUQBwTQAkSQAABQzeBAkMyJ0AjEkA3FEBCE0BKEZAvAAKwQFIAQy0dkEoAATJAAbBAXBZAZhJAcBRAdzdAe0qQMgCBKrBAcRVAZhJAWwqQMDQBSkwJsEBSE0BLE0BHgUqQTEQESgAZMAAfsEBFD5BMAAOwQEQRkEpDBLBAQhRAPxFAOxNANAmQSgAGLzUDsEAsCZBMRgqwQCiBD5AvAIIoLTl+sEAqHpAtAIFqsEAiPpArMA+wQCwSQDsUQEYTQFAOkEwABrBAWhJAZgmQKwAJsEByFEB8gnZAdQiQNwAEKjUGsEBqEkBiApA+OxOwQFoSQFIUQEwSQEddQEUvkEA7Dz4AgTVCQgEtOBFAADctAGxCABuwQEQAkENESrBAQxNAQhNAQRNAPhVAPBJANxRAMBBAJg+QRUIEMjUCsEAgDJBDAFkqADGwQCQwkEc/KkUAdrBAIB6QKisCSEEYsEAkDZBHAAewQDESQD0SQEUTQEoVQE4NkCoAArBAURRAUyGQSAAMRTwNsEBVgTlAUxJATQiQKzMLsEBGDpBFAAWwQEMDkEc5gQxFQwZHAHVFAAFDQ2YwNwY0OQ5DABBFRgqwQEIxkDIAG7BAQSKQRQACQ0UWsEA/EUA+E0A9CJArAAuwQDokQDYAkEMADUI/B7BANBNALxNAJxRAGhNACxJAACOQQgAkMAABNAAHQzsIMjSBLbBAIhRANxJAQRRARhNASRFATBRATxFAUhVAVhNAWhBAXihAYy2QOzVHQwCCUkM9E7BAXwqQOTEJsEBTApA7AARDABuwQEYRQDwFkEI5D7BAOSGQQgAKQzwrQwAjQi2BELBANhJAMhJAKhRAHRNAEAyQOQAFsEALL5A3KYFAQgACQC+BdDYqAj4zAUAACzIAIDcAg08wLQOwQBsUQCsTQDoTQEQUQEsTQFECkD4AEbBAWBBAYBRAaAWQMAAOsEBuE0Bzg0FAbhRAYwGQLzAGSkMMsEBVEkBIDpA2AAOwQD4TQDkAkEoAFUhCR0gAEko+BbBAN4I2kDI7NTIAgjqwQDMSQC4UQCoykDctGbBALhFANRJAPRVAQhNARwmQLwAKsEBKEkBMFEBPE0BSEkBXEkBbFEBgE0BlE0BqJEBwOUB1KEB5HZAvMwBMQA5KACCwQH6BBZAvAHtMAHawQHYSQGsEkEpDBi0xCbBAYRNAWQeQSgALsEBSFEBKA5BIQhCwQEUTQEQIkEgACkpBL0oAB7BAQwOQSEEksEBBJ0A+E0A7EUA2FUAyEkAwSZAtACMrMwWwQDYWQDwRQEITQEURQEcnQEokQE0jkEgAA0dCJ7BAUHBATRVASRFAQxCQRwAEsEA8AZArAAJMTQEwOg6wQDYSQCoUQAAdkDcAgS6wQBcTQCoUQDgTQEESQEcUQEsUQFAJkEwACLBAVRNAWxNAYguQNDYHsEBpFkBvEEBzJkB4M5A0AC2wQHyBYkBwDpA5OgWwQF4SQEsTQEEHkExJH7BARBJARxNASRNAS0GQTAAgTkJETgATT0wCsEBNGpAwACotMwZORwGwQEkAkE8AE7BARBNAPg2QTgAGsEA2BZBPTA6wQCsTQBwSQAAJkE5QAE8AghgtABIyOUawQA1eQBIUQBdfQB4RQCokQDcTQEETQEcTQE4PQFUTQF4GkE4ACDA/BLBAZwJDKRJAcAuQMgAFsEB3FUB7JkB/FEMlXJA5ABlMSlxOUwNMADSwQGsTQE8HkE4ADrBAMA6QMAABsEALDJAvPgFPUy2wQBBwQBlLQCAUQCUUQCoSQC5LQDEiQDMVQDYGkDI7gTEyABewQDiBO0A2FEAyEpAxRAKwQDAVkC8Ag0E0LwNRRTlPAE40AElTSB5RAHKwQDI2kFFGCzk5GlMAgRlORQNRAIEWsEAuE0AoFEANE0AABJAtNAFPRgFOAAIxAFSwQCkSQDwVQEcKkDkAB7BAUSVAXBNAaBJAdRRAfRCQTwCBLk9FEi0ADjIzA7BAbhRAXAWQTwAPsEBKApBOOw+wQEATQD4RkE4AEU9AMU8AFU47ggQ5M4EdOQBPsEA/gWSQPi+BBD4Agh1MPAI8LDZOAEo8AIJITAAGSjYNOyaBHTsAObBAQF9AQUtAPjlAQRJARQCQOS0TsEBME0BUEkBeFkBoD0BuAJBKAA45ABmwQHMZkDIAWUo9IkoAOkg4HEgAGko7A7BAZQWQNzwLsEBNAZA0MwdKAAuwQCwEkEhNErBAACRAEBFAKBVANRJAOhRAPBJAPRRAPgGQSAAXR0kOsEBAEkBBJkBCYZBHAA+wQD0UQDARkEhKAbBAHg+QMjcYsEAqBpA0AAywQDsSQEYOkDcABLBATRZAVBBAWxRAYxJAahRAbyuQMgCBD0gAKLBAayFAYBNATRKQTkYCsEA2AEMpEUAABpA5LgEwJlmwQBQSQCEUQC4TQDgTQDwTQD4UQEASQEIUQEMlQEVJQEMVQDwRQDITQC8BkC80GzAACbBANxNAPxRARBNARxRAShJATRVAUBFAVQeQLwAMsEBaEkBeFEBiJkBocUBkEkBXEkBCFEAPDpAtNwSwQAA1QCITQDcTQEEUQEcSQEoTQE0QkC0AA7BAUBRAUxFAVRRAV4FhQFMFkCs4Bk4ABU9CA7BARwCQOQATsEAuFEAAOUASE0AwEkA+E0BGE0BKFEBMBJArACCwQE4EkFFINrBAUB2QTwAtsEBTA5BRAFuwQE4OkCouBbBARAyQUUQGsEAzIkAhJkAnE0AyFEA5EkA8J0A9CZBTRwuwQyUkQD4oQD8kQEAHkFRLFVEACbBAQg2QUwAbsEBDBZBUADGwQD4WQDIEkFRECSYvA7BAGRRAEgKQKgAPsEAWE0AnFEAzE0A6E0A8G5BTTS1UAAOwQD0oQD4WkFFQD7BAPxBAQAGQUwATsEBBGJBRAComAAqwQD8PkFFDAyg8AbBANxRAIAFDIRBAADtAIBJALyBANxNAOQWQT0sjsEA8AZBRABGwQD0TQD4UQD8TQEEGkE5PGE8ABbBAQjKQTgA0KAANsEA7EZBORwEqMgGwQCAIkC0qCLBAAGJAJRJANBNAPAKQTEYOsEA/EJBOAASwQEETQEJNQEMMkEpEBkwAJrBARR+QSgANKgAMsEBITUBEAZAvMAErMhGwQDkCkC0ACUpACLBAAEpACRRAIBNAKB9AKxSQU0MbSgAfsEAtSJBTAARRRXCwQCgGkC8ACSsAAi07CTAzAk9IF1EAbk5HBU8AZ04AIUxCJbBAIBFAGRNACRRAADuQSj4LTAAELQABMjMSLyoRMAAosEAZE0A0EkBCFEBLApBIQwUvAAFKAAqwQFEAkDIAE7BAVXSQR0ADSABVsEBSE0BQE0BMFEBIEEBDAJBHAA5MQQM3OgOwQD8NkDAeBLBAPShAOiZANhVANBWQSkADTAANsEAwcUAuCJBKAANIPi2wQCxLQComQCIDkEgACjAAADI7BLBAHQSQRz8jsEAZcEAfggZAFxNACRJAADqQNC83RwABsEArE0A9FEBHE0BNEkBREUBVJ0BbJEBgA0MlgU9DKSVAWQJDLQyQRzkEsEBNA5A0AAc2LwmwQD0AQzEUQC8CkEcAEbBALAmQNwAFRT4YsEM2EJBFABpHOg6wQzohkEcAJkVCJbBDPkqQRQAARR48sEAqAUNCJUAZEkAAOkNHDJA8Ngc2ACWwQ0wVQB0SQDQQQD8UQEUUQEgTQEpBkEM5HLBDUCdATBeQRQATQwB/sEBKE0BDC5BDOQI3MAIyAAOwQDgUQCUTQBmDR5A8AAM7K4FDOwAMOTKBfTswBDkAITcAgzOwQBAlQAAkkDcsFLBAIRNANBJAQQeQOwAOsEBIEEBNFEBQEkBTFUBWJUBbgy9AVyZAUhNATxJAShNAQxJAPQiQKycLsEA2E0AuE0AkEUAWAJA3ABSwQACBPUAcFUAtEEA6FEBCE0BHFEBLEkBPFUBSEUBWJUBeEkBkFEBpE0BtCpBDACwrABawQHGDCEBsJEBlFUBhEkBdJkBZJ0BWE0BUE0BRE0BNEkBKEkBHFEBFJUBEEkBCFEBBE0BAE0A+J0A9EUA8EkNMTEA5RJAyLQewQDcGkE4+NbBANA2QTgAMTEIMsEAxUJBMABVORxuwQC9NQ0g3Q0M4Qz9yQztfQzeBUEMzcEMvBZA+MEmwQDIAQyokQDUTQDcBQyUSQDkgQDsTQD4UQD8TQEESQyEnQEI4QEMBQx0NkDIABbBARFCQT0UhsEMZCpBOAB2wQEYRQxU5QxE5QwuBPEBDFEA/E0A5EkArB5BRQQo8KwGwQAACkE8Ac7BAJg9AOBRAQxVASgSQUQAOsEBQIEBWE0BbE0BiFEBnJkBsgnuQTkOBF7BAYhBAUxKQOy0BPAACsEA9C5BKQgawQAAQkE4AET4AZLBAGRRAKBRAMhBAOBRAOxJAPBJAPV1APlKQPjqBW7BAP4EBkDsAObBAOwSQPDIET0wCSgAJsEAzDpA+AAawQB0TQABMQA8UQBdeQByBA0AhS5A7MxU8AFuwQCZKQCgmQCuBKkAtNJA5OQOwQC89kDsASLBAMl9ANHBALBRAJjWQNzUDsEAtBJBRRRCwQDQEkE8ABjkAFrBAOBRAOxNAPBNAPSdAPxJAQCKQU0kxUQALsEBBX0BAEEA+FEA8E0A6JUA4AJBNRBSwQDYDkDw3BlMAC7BAMxaQNwCCPbBAMBJALRRAJhJAGgyQTDsGsEAAA5BNABQwJVewQCAUQDITQD0AkDAAE7BAQxNARhNASCdASoEpQEgQQEULkDItCLBAQzpAQRRAQBNAPiNAPTtAPBJAOidAOCdANBBAMUxANw+QPAAEsEA8BJA7Lw1KPwGwQEEVQEQOkDIAAbBARhRASQaQTAANsEBME0BPFUBTEkBWJkBeIkBiJkBmgS+QOwAPsEBgD5A0MQGwQFsAkDkuEEg8A7BAVAyQSgAGsEBOFkBKEUBFFUBAEkA9TEA7JEA3EkA1OkAzEkAxE0AsE0AnE0AiE0AZFEAAGJA5AAU4Li6wQBATQCoTQDkRQEMTQEkOkDQABbBAThNAUxRAVxCQRz0WsEBdHZBIABiwQGE5QGVXkEcADEpFDbBAXQSQOTUCOAAPsEBOEkA/FEA7EEA8FEA+gQGQSgAZSDwySAAbSjQuSgAFsEA9E0A8C5BIOQU0LCmwQDpDkDQACbBANxJANHFDD4FPkC0wZi0AgkVHLgEvKBVIAEIvAIIUsEAxOUAvJ5BHAAJFLwywQCwEkDAUgROwQC8mQDGBFUAvYUA0E0A5CZA0KgewQD4VQEMHkDAAC7BASBRATQeQRQAIsEBSEZA0AASwQFoTQGITQGwTQHUVQHsSQH8okDkAgjqwQHcRQG4GkDkwB1RLB7BAZBJAWBVASxNAQQGQVAAEU0QOsEA9NZBTAAKwQDwMkFRKGrBAOoIVkDwsbDwAgQ6wQDgnQDZgQDwgQEEUQEQLkEIvBrBARxVASRBATACQOQAVsEBQEkBUFEBXJ0BdJkBhgVqQOSohVAAJU0KBJFFJBVMAgQewQFsSQFAVQDsRkEIAArBAAA+QUQALU0AMNzEHOQAesEAZFEA3H0BEFUBMEkBUEZBTAAOwQF0RQGcUQHATQHWBfZA7LUhRQC83AB5RAAhPRCpPACJOSjpOABRMQyVMAAGwQG0VQFsUQEMLkDYzBrBAFwOQTEYPsEAAEZA7ADuwQBCBAkAWSkAagSSQTAASSzwIOSpJOQCBLLBAFBJAEBRACRNAADlACxNAJRNANxFAQhNASgCQPDIUsEBQE0BVEEBaDZA2AAWwQF8VQGMmQGmCPZA0LwGwQF8LkEsAB7BAUAmQTDwLsEA/FEA1I0A8FEBDE0BJE0BOFEBUAkMVEEBaA5BMABCwQF8OkE48ATQAULBDGSRDHSdDIUtAWBVAUA9ARxRAPwFDJQ2QNiQFsEA6ApAzLBtOAAdIMhSwQDcAQykOkDwABrBAMxRALhFAKwFDLiZDNBRAKR9DOCdAJRRAHQFDPA9AEBRAAFGQRyclSAA1sEASEkAnFEA2EUA/E0BGE0BLE0BPFEBTFEBXJ0BdD5A2AEEzAGmwQzhLkFFFFLBAVgFDMxJAURVASwGQRwAPsEBHAEMuE0BCFUA8AUMqEUAzEUAiEkAAU5A0MgZPOwOwQyYNkFEAP7BAJQuQTwAHsEA6FUBFEUBKFUBOEkBRFEBVE0BZJEBgJkBlJUBpf5A2NhEtMxuwQGATQFMTQEoxkC0AAjQAA7BAThVAUBNAUw2QTkUZsEBVOEBXX0BbOUBSE0BFBJAvKgNMRQ6wQDQFkE4AGbBALiZAMQiQNgANsEA0EEA2fZBMAAdLQ0pLAA5MP0CwQDQVkEwABUtDD7BAMAGQNzJRNwAIsEAtFEArJUAlgStAICZAHDhAFydADQqQOSwHsEAAgxxAHRNAMhNAPgCQTEENSwAFsEBGFEBLFEBPE0BTFEBZEEBhCJAvAAFMAAqwQGoUQHESQHeCU0BxEUBoAJBMQQM0MBGwQFwVQE8hQEETQDcUQDSCdJA5ABo3LYE9NwADNjJANACBMDYABzcrhAKwQDITQC8OkDQtBLBAJhVAFgNDKg9AAExAFxFAKxRAOBFAQQiQNAAMsEBGE0BKE0BNAUMuE0BPFEBSJUBVOEMyYEBTWkBQFEBOEEBME0BJJkBGJUBDFEBCE0BBEUA/AJAoJBSwQD0WQDkSQDIQQCIUQAACkDcAgU6wQB8SQDITQD0SQEQUQEgRQE0UQFMTQFsTQGMTQGsUQHAvkEwAHLBDNhNAdCGQKACCMbBAcF5AayRAZiZAYXJAXCZAVxNAVRJAUhJATwuQNCoIsEBKEpA3LAGwQEYRQEITQD8OkEc9BbBAPidAPRiQRwAOsEA5CZBFQgqwQDcSQDQUQDISkEUAH0c+GrBAMCVALoUUkDIrNTQAgj+wQCwmQCkrkEhBKkcACLBAMBNANxJAPRRAQhNARRNARxNASiVATSZATyRAUYEIQE0SQEUPkDAxAbBAOA+QR0QFsEAkKZAyAA6wQC0VQDYSQDsNkEgABrBAPChAPQyQRwAdRUApRQAMsEA3CpBHNwawQB8VQAASkEcADkU8dbBAHxJANRNAQRJARxRATBJAUBNAVBJAWhJAYRNAZxRAay+QRQALsEBvI5BDPDNDABmwQHQnQHkTQH1MQGkHkDAACbBAUwKQLy4BQzkSsEA/E0A2EpBDACawQDgFkEVDPEUAK0dCJkcAOEhCJEgAUEo9ObBANROQSgAITEEJsEAzE0AwFEAkEEAAGpBMAAlNQ1GwQCEUQDcRQEMTQEwUQFMTQFkDkE0AD7BAXjeQLwAZMC0NsEBYBpBNPQ+wQFATQEkTQEWCUUBEI5BMOAOwQEIEkDQuELBAPwaQTQAcsEA9FEA6EkA4ApA3ADewQDZckDQAgVI1OoEFsEMyLpA1AIE1sEA0E0AqEEALFEAAHZA3OAewQCASQDcVQEUSQE8UQFkiQGMUQGsTQHELkDAACLBAdQuQNwAasEB7gU9AcBRAYxCQNTkAOT4BSkcBsEBXE0BNBpBMAA2wQEUSQEASQD9NQD4TQDwUQDpcQDwSQD0UQD8UQEESQEIUQEM5Qy4KkDs+QTkAgSFKABRIQjg7AAWwQD4IkEgACbBAOAyQR0kGsEAyFUAwAUMqJUAuFJBHABKwQCwTQCoEkFFOD7BAJRCQPDYUsEAgFUAcOEAUJUAQgkFDJguQNQAGsEAUB5A3LYFmT0MoUQAtNwBvTUkTOSoXTwCBAzkAFExKIk0AgRSwQAALkEwABjUzA0pGJrBAFxJAIhRAKRNALBRALyCQNQAjSgATSD+BZbBAKxJAJAaQTDgFSAAIsEAZB5A3MA2wQACBPkALEEApFUA6EUBEAkMqE0BKEkBOFEBSAUMwEkBXFUBbAkM0DUBgFEBkEkM5FEBoEZBMABSwQz45Q0NNQ0dAkEwyG7BDTBCQTAAlSjo8sEBkA5BKABZMQQywQF0RQFUUQEoAkEwAArBDUAOQSj4DPAAJOywBsEA9FEAsEEAAFENWJ0NaOUNfE5BKADJIOgawQ2N9kEgAUDcACko6DLBAFgFDZxFALxRAPg6QOwACsEBGFkBMEUBPE0BSFUBVEEBZEkBdFEBhJ0BlAJBKAIIYsEBgI0BYFEBSBpBIMg6wQEsQkDAkATwgA7BAQhFANxRAKxNAIRRAFxJAAIEpQB4UQDATQDsTQEESQEUTQEkRQEwAkDwABUgAEbBATxFAUxNAWBJAXBJAYDhAZYNEQGFxQF0nQFkQQFIOkDYtBrBARxNAOhNALAWQR0gNsEAlNpAwAIMGRT4FNDIKRwCBATQAgj8yNFuwQCkTQCwTQC8HkDIAC7BAMhRANRJAOBRAOiVAPBFAPSdAPl5AOBRALhNAIwaQMC0BR0MdRQABsEAqEkA2FEBAIEBGE0BLE0BQFEBWE0BbA5AwACOwQF8ikEcAdLBAY2BAVwSQLzIMRUYCsEBKEkA+FUA6C5BFAB5DPy9DABNFPC5DPwNFAGqwQDcVQCwQQAAZkC8ARC0qO7BALBRAPhNASBJATyFAUwCQLQAUsEBXBZBDABE2ABCwQFsAkEJEJrBAYCdAZG5AYBNAVxNASQCQLzICSkQFQgABNzgNsEA8EkAzE0AvFEAsOEAnEkAiX0AdOUASEkAAAkNjS5AvAB8yND6wQC8TQEIHkEoADbBATRJAVxRAYRFAaRRAbxJAcyGQMgASsEB5gSxAcAFDXxFAYhNAUgaQMDYISkYGsEBFEUBCE0BEE0BIFUBNEUBSFUBVCZBKABkwACiwQFdBkEw6JkwAKEpEHLBAUxNARxNALAGQSgAELzECTEQKsEAAX0AQE0AmFEAzEUA6BJAvABGwQD0RQD4VQD8QQEATQEIUQEOBAUA/E0A3E0AsE0AqA5AtJxCwQCwSQDYSQD4TQEMUQEUlQEkJkC0AHbBATCZATylAUTVAUzhASxJAPhRAKhJAIxRALAeQKzAMsEA8FEBIAZBMABGwQFITQFsTQGMSQGkRkCsAArBAbSZAc1OQNwCBV7BAaxVAZRFAXxVAWhJAVQuQKi8FsEBSEJA+OwOwQE8UQE0lQEomQEhykEBAET4AKbBARnBARBqQLToFQkQSQAAHsEBDHpAtABywQEJVkEIACLBAQRmQQ0EhsEBAEUA/J0A8E0A4EUAyFUAlIEAAPZBFQwIyPxNDABMqADOwQB0TQDMTQD4UQEURQEoTQE0JkEdCHrBAUAeQRQAMsEBSEkBVE0BZFEBfAUNbEkBjJEBnKEBeCJAqNgVIQQKwQFEPkEcABbBARBRAQBNARBJASRVATxJAUwSQKgBHSAABRUUTsEBVgQRAVyVAUxJASgJDVxJAPhJANgOQKx0ALSoNRz4CRQA2sEA4DJArAGBFSQ5HAHFDRwdFAHwyAAs0PAJFTAFDAAYwOgItAAewQDZ4kEUAEEM0ZUMACbBANAqQQkIbsEAwE0ArFEAkE0AWEkAAHZAwAAtCAAtDPgI0AAQyOYEnsEASE0ArFUA4EUA/E0BEE0BHJkBKEkBNE0BQEkBTE0BVJkBTFEBPDpA7PASwQEoTQEwUQFITQFsLkEMACLBAZxFAcYJEkDsABUNACTk7FbBAYg6QQwAFsEBOCpBCPQiwQDoVQC8ekEIAA0NAOkMAHEI1gTKwQCsSQCAWQAAwkDkAKTctgUxANxRCAIFQNwAFMgAHNi4OPjQBQACDaTAwNLBAGxNAMRRAQBBAShRAVRJAXwKQPgAKMAAIsEBpEkBvJkB0glVAbxFAaRRAYAuQLzMHsEBVFEBLAJA2ACCwQEIDkEpEErBAPBJAORiQSgARSEURsEA3E0A0EkAwEkAuA5BIAA5KQ4JCMjprMgCBRbBALBJAKhRAIRNAAGmQNzQWsEAcE0AyE0A+E0BFFEBKE0BNE0BPC5AvABuwQFMRQFgTQF4TQGQSQGkTQG0mQHFeQGwVQGMRQFsIkExJAy82IEoAD7BAYCZAZUxAaoEBQG51QGYPQFYSkC06AbBAQRKQLwACsEAsCpBKRylMAAGwQDQTQDoTQD4AkEoAE0hDPEpMCUgACLBAPxFAQBqQSgAKSDgXsEA9EkA4EkArE0AAR5AtABewQCITQDYMkCszBrBAQBVARhJASxRATxBAUhVAVRNAVyVAYBZAZRFAag2QR0smSACBDysADbBAWwSQRwAMTEkBMDcCsEBHE0AeFUAAEpA3AIFMsEAjE0A0EkA9EkBDE0BIFUBMEUBRE0BXBpBMAAywQF0UQGMSQGkTQG8FkDQ+DrBAdhNAe0tAf4IbQGsSQEoAkDk/AjQAEbBAACiQTEsSsEASFEAzAUNTE0BBEEBIFEBKRkBNDZBMAAWwQ00VQFAEkE5HELBAUwJDRw9AVxRAWxNAYAOQTgARsENDDZBPSgSwQGUWkDAAJLBDPw+QTwABLUELTkYJsEBbE0BLE0A5A5BOAA5PRQKwQDQSQDkVQD4JkE8ACbBAQwKQTkQRsEBEI5BOABVPSS1PAAuwQEYAkE5IME4AEU9LHrBASBaQTk0BTwAMLQAQMjwZsEBCEkA1FUAQEEAAJkAfFUAwEkA1gUtAOBRAPhNARBNASBNATwmQMEIMsEBYEUBjB5AyAAmwQGsKkE4ACrBAcCZAdXBAeR2QTEwdsEB9C5A5AChOSgRMADqwQG8TQFICkE4AELBAKguQT1IDMAADsEAAA5AvPoE7sEANFUAXOEAcE0AhEkAoFEAtEkAwFUAzH0A2FEA5J0A7EkA8BJAyPBCwQD0SQD8UQEEUQEIQQEM6QEYkQEkGkDIAIbBATCdATxJAURRAVRFAWhNAYBRAZCNAXRRATxNAPwOQMUYRsEA1I0A3A5AvACOwQDqBK0A8gT+QNDgIUUwnTwCBDDQAElNQMVEAF7BAORRANRBALBVAExJAAD2QOTkNUU4CsEASFUAfEEAlAJBTABSwQCkTQC4UQDISQDURQDc7QDkGkE5KDlEAbrBAOzlAOBNALAqQLTcAT0sEMQAFsEAAApBOAEqwQCEiQDcTQEMSQEoUQFAUQFUSQFsHkExJCrBAYhVAaAyQTwAEsEBtFkBxJ0B1NkB7J0B/HJAtAAVMAA8yPAiwQG4OkE9OBrBAVQmQOQAJsEA8E0ArJ0A0D0A4gReQTkgQTwA4TgAITzg2sEA2FEAzDZBOSQKwQDAGkDk3Ak8ADbBALBNAJhJAH1WQOQCBV7BAJxNALBVALyNAMRNANACQPjYTsEA3EkA6JkA8OkA9D5A+ACmwQD6BUEA5FEA2AkM7CpBMRASwQDMGkDwzHU4AF7BANhFAOCdAOiZAPAWQPAAOsEA9W0A+JkA/JUBATEA9E0A2E0ArGJBMAAI7MABKOh2wQDQUQD4TQEQSQEcSQEkUQEsTQE0UQE8YkDsADrBAUiZAVSVAV4EDQFUWQEsRQD0TQDImQDwDkDkpD7BARRNATBFAUhNAWCOQOQACsEBeLJAyAAJKAHuwQGMfkEo0HEoAH0g/J0gAFbBAXASQSkcRsEBJD5A3MwKwQCACkEhJAUoABzQwCbBAACZAEhJAMBNAPRNARBNARjCQSAAIsEBJCZBHRi6wQEwqQE8iQFInQFQCkEcAErBAUhJAShCQSEwDsEA6BpAyPA6wQBATkDQAEbBAIRNANgCQNwAUsEBDE0BKEUBPEkBSFUBUApAyABCwQFkTQF8UQGSBSkBbFUBNE0A8C5BIAAewQCgDkEJCAzAsCjkmPLBAKhJALCVALiZAMhNANRRANyZAOTdAOztAORBANz2QLzEPsEA7FkA9EUA+BJAwADWwQEAnQEEjQEI1kC8AF7BAQ4EVQD4QQDQUQCQRkC05AbBAGidAKxRAOBFAQRVARRBASBVATBFATw2QLQAHsEBSE0BVJUBbX0BfcUBQDpArMQOwQDwNkEM7B7BAACCQQgAusEAoE0A5EUBBCJArAAqwQEUnQEcfkEVADTkADbBASgSQQwBbsEBMR0BOXUBLEJBFAAIqLwGwQEMQkD46A7BANxVAJRJAIEpAJYErQCglQCuBUJAwKwVAOgs+ADMqAHxCPhZAAHywQCkvkEIAB7BAKxRAMQeQLzAEQ0IIsEA4FUA9DJAwAAawQEAUQEESQEITQEMmQEYlQEkEkEMABEVIHbBATDpATydAUTdAShNAPgKQLTwHLwACR0wCKjUEsEAyA5BFABCwQDATQDIUQDcUQDsSQD1ZkEcAA7BAPhqQSE8PsEA/SkBAPpAqAFawQD0DkC0AErBAMwKQKy4ELzcGSkUKSAANsEAAgQVACRNAFhNAHSuQT0ENsEAJEkAAFpBKACOwQBsUQCUTQC4TQDYRQDoUQD0SQD4DkC8AB05GCS05BTA2AU8ACCsAArBAPxVAQBBAQhNAQzpARSmQLQAcTEY0TgCBELBAPiBAKhNAAAmQLzQDMjUFSkYSTAAIMABEsEAdE0AyDZBKAAawQD0UQEIEkEhCDrBARAiQLwAKMgATsEBIJ0BLKJBIAANHSWywQEkUQEckQEQTQEMEkDc2CTAuBrBAQRJAQA6QTEIGsEA/EUA+DJBHABuwQD1RkEwADbBAPACQSjoosEM/XZBIPwBKADmwQDo0QDcSQDMOkDAABrBAKBNACQaQMi8MsEAAApBIAAtHO3ewQ0OBd0AJEkAuE0A/ApBHABGwQEgSQEwTQFAOkDQnBLBAVxJAYxVAbxJAeE5AfII8QHcSQHASQGIUQFIKkDYqAzQABLBAQwKQRyoSsEA6F5BHAB5FOQY3AClFABNHNDFHABhFOIEUsEA4JkA2EkAyE0AoEkAAY5A2AAU8KkSwQBAUQCMRQDATQDgTQDsTQD0UQD4lQEAUQEELkEM4FbBAQidAQzSQRQAoQwAUsEBFU5AyAB+wQEQTQD8AkDcsD0M2ArBANhRAKxNAJINnkDwAFTsygWGwQz8QkDsAHTkofTcAS7BAIBJAHCVAFzaQOQAAOy9isEAbTkAfSUAkgwpAHDGQNyUGsENDJkApE0A0FEA9E0BDEEBHAJA7ABSwQEoUQE8TQFQRQFoTQF8UQGUTQGsmQHGFJEBtJUBoEkBjFUBeDpArKQOwQFgSQFIUQEsUQEUTQEIRQEETQD8UQD0SQDkVQDQRQDAUQCwmQColQCiDZkAsFEAxE0A2E0A6FEA9E0A+E0BBEUBDE0BGFEBIE0BMEUBOE0BQJ0BVEUBZFEBfEUBmFUBtEUBxJpArACo3AB1DAIUXsEBtOEBnJkBhJUBdTUBZOEBWJUBTJkBQJEBNFUBLEUBJFUBHSkBFFEBDE0BCSkBBJkA+JEA9SkA8gSpAOktAOCZANSdAMjhAMDpALm9ALGBDP15AJRNAAAGQUzwBSjkMNyUMSgAQUwAINwCCPk8/A0MyEkcsE08AAkMADEcAgiNKRQ5FOgNCLQKwQDcRkEoAAbBASRNAVRCQRQAEQgABsEBgEUBpE0BwJkB0gTSQTEQIsEBvAJA2NDQ2AAGwQGkAkEwAKLBAZSRAXw2QTkoGsEBZFEBOBZBOAAywQDwTQABPkE9FBTQ2EUc2Ek8ABjQABEcAgghMRw1ANwFDPhdMAAlDAAVAAIIMR0ISQjYEPjYVsEAdIZA+AAGwQDUUQEAUQEYSQEwSQFITQFoTQGENkEIABLBAZidAbVWQRwABMjwwMgCBdLBAUhJAAAKQMDkCTEINQ0ASMAAFTAALQwCCCkhEBTw6AUU8G0gAB0UAAzwAgiuwQBsPkD43AEVCA7BAMAKQQj4TsEA+EUBIApA+AA+wQFAVQFkSQGESQGcPkEIAAEIbF7BAa4EdkEIABDk/DEdDHkUACDkAU0cACUhIS7BAZhRAXhNARhBAABOQSkMDRUEGNj8KSAA3sEAXCZA2AAiwQDYVQEISQEcUkEoADUc/BLBASQKQRQBwsEBDE0A4FUAoAZAyNwFIQg1HABWwQCwNkDIABrBANBJAN0SQRT8PSAALsEA5JkA2FUApEUAAM5BFAAawQB0GkDczBUhCBkMzAbBALhNAORRAPQGQNwAMQwADsEBAE0BCOpBHQwJIADmwQD4SQDUSQC4SQDEVQDsQkEcAAbBARQGQRUMEMjkOsEBNE0BXCJAyAAywQF8SQGMIkEUASUNENEMAD7BAaBNAbhFAdxNAfhOQK0sBsEB4DpBTSwNKTAKwQFUSQAAAkEoAA1MAazI+CisAfDIAFU9IAkdIAzRDG0cABU8AazZEEDQAgRRMSQU3QwJJSRY2ABewQDYQQEMTQEkUQE4TQFIiQFYGkDlDAjcAC7BAXBRAYxJAaQaQSQAJTABjOQABNz4ZTEcGST0XSQAQTAA8sEBkBJBOUAY2QAewQE0AkEpLCTcADLBAAA2QSgAITgBcNgABNEMATE0BT0waTAACTwBlMkUJNACBCjIACDREA0xNC0lIG0kABUwAYzY+BjQAgSdJSwM3RAJFSAuwQDYIkDYAC7BARxJATCZATxJAUQeQNwAMsEBVA5A5QRCwQFoLkEkACbBAXiZAYluQO0gHOQAFSkpWsEM7KpA9TAtMTAE7AB5KAFM9ABSwQFAJkE5PAj5SCLBAABKQTAABsEM3C5A+AGdKShpOAHmwQzMMkD1VBE9OEEoADT0AC7BDL1KQTwARTEqBET5SCk5MGD4ABbBAMgWQTAAPsEBBEUBEEJBFAAOwQEcUQEkPkEpPFU4AAbBASw6QSgAasEBPEkBREUBTFEBVEkBXJJA2TQRRUgZKUAywQE4SQDYSQAAskDYAHzdHgQo3ABQ5Sys5AApPTBVRABFKAF1OShFPAHEtSgtMTAhJRwxOAAstAB1MAEROShhJACJOAHpKSgsyQgewQBcRkEoAA7BARwBDNAOQMgAQsEBWEkBjAkM5EUBwFEB7AkM/EEB/EkNGJkNKXkNPLJBMQUNMABBOTDywQHsbkE4AEE8+HFFCH08AO1EAAFNHCLBAdQGQN0IBSkwUsEBbDJBKAAM3AAOwQAACkFMAgg5PRA5HPgtDLxVPAANHAAJDAIIDsEAcAJBCQAhKOQNFOQiwQCoRkEIAAUoAArBANyFAQxNATBRAUxNAXBNAZRNAbA6QRQAARQkGsEByA5BMQjFMAAGwQGUSkEpBAbBATxVAPhCQSgACsEBBBZA2Nw+wQEkBkExJELBAURZAWRFAXlOQTk8ETAA8RQAETgAVNgA3NEcJT0kKsEBQBpBHPwywQAAGkDQAAU8AAkcAghFMRgpDRgRAMRhMAAJDAAdAAIFEsENLN0NHJ0NDBpBIQxY+MQlCLSo+AA+wQz8oQzsFkEgACEc5ULBDNzpAIBGQMjgCsEA6E0BGEUBRD5AyAASwQGEUQHUSQH8tkEIAgRtHACNMSgmwQFsAkDBAAENGFLBAAAOQTAAHQwAHsEMzAJAwAIImSEoFRUYDPEMaRQACSAAIPACCG7BAMAqQPjsBRUkIsEA7AJBCSBSwQD4SQEUSQEwGkD4ADbBAVBRAXxJAaBRAcBNAdCZAeGqQQgAFsEBuEkBkDpA5PgJHRgWwQGAkkEUAEjkAVkhQB0cAcbBAXBNARxJAAASQSkoDRUgCSAAENj8tsEAnE0A+E0BIFEBOIZBKAAGwQFADkEdEBkUAILBAUxFAVjSQNgAFsEBSEkBBFEAACZBIRQoyPwRHACsyAAiwQCATQDYVQDslQD0BkEVBA0gADbBAPxRAQSZAPhNAKhNAAC+QNzgERQAFSEEEQzoPsEAcE0A0B5A3AAywQDkBkEMAWbBAPACQSAAORz8FsEA+FEA9E0AvE0AAS0AnB5BHAAhFRgKwQEEKkDI+CLBATRVAVwaQMgANsEBgFEBnC5BFAAawQGs4kEM/J7BAcwmQQwAKsEB6E0B/SpArUApTSgFKTAqwQFkSQAAAkEoAClMAaDJDDisAczIAHE9JATRIBUdGGU8ABEcAeTZIJzQAgQM3SgVMUANJUic2AAiwQDwUQEkVQFERQFkVQGAQkDlGA7BAZhRAbgCQNwARsEB4EkB/B5BJAAxMAF83RQtMSQg5AAFJQRxJAAVMACmwQHISQEoUQAAAkE5ICzZCB0pDEjcADUoAB04AZDRHAk9KAUxKCDYAFkwAAE8AczJKBTQAgRcyAAM0RwtMTgpJSh1JAARMAGk2RRs0AHqwQCAMkEVOBElMArBARAmQN1AMsEBKBpA2AAywQE0TQFEVQFQSQFgfkDcADEkABDlTgR07UQRKTxs5AGawQFYVkD1YAkxPCbBAVAaQOwABSgAesEBQFUBNE0BEE0AjFEAACpA9AA5OTwE+WB5MAAw+AAewQy9dkEpQHk4Adj1VB09QFD0AAEoAZk8AAkxLgSQ+UgJOUBg+AAKwQDMMkEwACLBAShRAUBNAUyVAVwCQRQADSlAQsEBeDJBOAAawQGYCQzMBkEoAEbBAbjNAdCdAezSQSloFsEBxAZBRVwE2RRGwQFYVQC4QQAA6QA8gkDdFBbBACwCQNgASsEAAZpA3ACE5SBBPTg45AAJRACxKAE9OTAtPAIEHLUYETEoKSUQITgARLQASTAA6sEM3JpBORRdJAAxOAIEqMjQPSjuBB7BALhJAQRNASxRAVBJAXBRAZhJAcgaQSgAPsEB/CpAyAFGwQzMTQy8TQykUQGgBQyUSQFATQD4UQDQTQCwSQCkBQx4QQxcVQB4CQw8RQABBkEVHBUJMBz5AFkIAAkUAC7BDAAOQPgCCLzlJBEpPAUI0CUU+EDkAC0IACUUAAkoAgiA3PAROSQNFSwBKRIENNkMLNwCBATRAPDYAUDQABjJGgQgyACs5RglPRwdKAApOAAU5AH1OSglPAHtMRgQ8RglOAAVFAA6wQDQCkDwAD7BAQRJAPxRAPiOQTAAEsEBBDZBKOwWwQEIUQEQYkEoAH7BASAKQQ0YSsEBME0BRGZBKSAE7QghDAAGwQEYLkE9TCLBAAA+QSgAFTwBeOwAXPDyBGzwAEjs8B0pQHkoAZzk9BzsAdDkAADkxKFNQBDdKAjkAA0pMHEoAClMAXjcABTk3gRs5AAw7PgRPTApHRhVPAAdHADKwQwgckDsAEzdBgTBMSQlDRwY3AAOwQCkRQDIAkDwmBTsuEbBAPBNARBRASwiQOwAHsEBSEZA8AASwQFkRkD5CArBAXwKQQwASsEBkApBMAA6wQGoUQG9DkD4ADTxAFE5NCEVMBrBAaRNAVwGQTgAGRQALsEA9E0AAMJA8AAE7QwtPUgpHSxpHAABPAGBRUg07AABIRwI5QhBIAARRAEmwQw0xkDkAEzs1gRY7AAFORwxFQwY8NhVOAAlFAA6wQxFbkDwABLBDFRaQOTI4sEMZVJA5AAtLPxFCOAc7NB+wQx0YkDsAILBDIV1DJYEDkEIAES8uBLBAMBVAQw9ATRJAVxRAYRRAaRFAbjlAcwSQLwASSwAQsEB7FEB/bUBxFkBKApBHRg6wQABlkEcAMEkzekkADUs+AUJFHkIAVEsAH0w6gQ5MABVORAg/PyQ/AFtPRBJOAIEkP0YATkBfTwAjPwABQEMATEIcTgBaTAASQAAOS0IEQkweQgBkSwAHTEF3TAA3P1ACTkMgPwBdTgAGT0SBFE8AIztPBFFJLDsAHbBAExFAHxRAJRNAKBGQU0cBsEArFJBRABSwQC5vQCsQkFFLAjtNA7BAKSiQUwBgT0oCPU8LUQADOwBqTwASPQADTkkBP1QmPwBSTgART0iBE08AD1FOCDtIHzsAcVNKK1EAcFRMCDdLGVMAalFLAlQAAjZFA7BAIRRAGQKQNwASsEANEkAAYJBTSwE3RwZRAAI2ABZTAASwQCATQCozkDcAGDlATbBAKEGQOQARO0gETEkDQ0McOwAGQwAHTACBOrBAHhNAAFGQL0QNTkYJRUIVLwAgRQBDTgAKS0GBHzQ6CExDEUM7DksAZTQAEC8+FLBAFBFAIxRAKxNALyqQTAARsEAxG5BDAAMrPQIvABiwQDM7QDZHQDgFkCsAAC9DMrBAOxJAPRRAQRJARBVAQwCQLwASsEA0AZAoQg5HRgJDRQOwQAAgkEMAAUcAdCgAASo/gRFMRwErPwFHSQYqABdHAAdMAHErAAQtP4EcLQAFT0QDLz8ISkUTsEAoEkBAE0A+E0A8J0A6OJAwOgwvAIENMkACMACBDDRGFjIAJbBAOE6QNAADSgASNT4KSEdcTwAtSAAHR0gPNz4SNQBwOUMINwADRwADRUZ7RQAHO0kbOQATQ0ozsEA2KJA7ACE8PBZNSyhDADSwQDAVQBkJkDwABT5CA7BAAAeQTQAGSkeBDz4ABUxJCTxFFEoAFUwAXzwAATtHgRs5Qws7AARCRmE5AB5CAAM3QwhDRoEoNkMBQwAFRUkONwCBBTQ+AEdLDTYAC0UAgQAyRwdITAI0ABpHADwyACxIAAkwPwlFUHhFABEwAAUvQQhHT4EMLUUCSE0KLwAfRwBwLQAOSk8CK0gcSABbsEAgCpAtRQkrAAtITQhKAHkvRQwtAAJKTxtIAGwwRAlMTQdKAAIvAAuwQBkRQABVkDAABkwAHjJFBUVRB0JJJbBAFBVARAFDHxJASwBDGxFDFRNDDwyQLU4FsEBNAUMIDJAyAAawQE8QkEIAA7BAUxVAWgJDAAKQRQAPsEBjFUBtEUB1IkB5C5AqSRYtAH8tSQoqAIEFsEBwBpAtAAuwQEQCkCZPD1RUArBAABiQVABuJgACKEeBGCpKDVFTB0pNCCgAE1EAAkoAbitKGioAgRMrAAYtSw1OVARIUA+wQDkSQEZskC9LES0AGU4AcC8AAS1MBE5UQU4ABkgAQk9WAitPB0gpDy0ABbBASAyQSAALTwAisEBDE0ApE0AAEpAqTwFRVARITwYrABFIAAxRAHgrPQ0qAIEPLUwBTk8GRU4DKwAlRQATTgBGLQAVL0mBKzBICEpTBEJNCy8AHbBARCVAQkCQMkYHMAAFsEBDK5BKAHAwRg4yABJKTQOwQEICkEIAcy9JC0xQA7BAQwSQSgADMABLTAAgsEA5EpAvAAKwQAADkC1REkhPAE5UVrBAIhNANBJAOBKQL0kATgAET1EBLQCBEzBKD1FOBi8ADE8AaTJMETAABE5RBlEAJkgAPLBAHgeQTgALsEAABZA0TAEyAA9PVwpHUgw0ACKwQCMRQD0VQEcEkEcADrBASh+QTFAFsEBIDpBPAC6wQEQPQCkKkEwACbBAADOQMFQPUVMGSFABsEAwBJAwABKwQEgUQFQiQGATQGgUQG0hkEgAD1EAGrBAcSZAeBFAfkmQMlQAT1sPRU8RMgAJTkcDsEBSBZBFAAhPAAewQAArkE4AB0UxB09MKk5QJU8AgRImUSUmAHpPVQ9OABBFAAxPAIFVT0wDK0IFR0iBL7BAExJANxVARhJAURRAXhJAbQFDChFAeQFDEhJAfwFDGRRDHRFDIQCQKwAGTwAOsEMnEUMzAJBHABSwQ0QTQ1YSQ2IUQ2oSQ3ESQ3cTQ3xNQHkTQG4TQGEUQFQRQEoUQEESQDYVQCcQQABEkEU+B0I9Aj4zIEUAAkIACz4AghtKRAg5OANCNwtFMBlCAAVFAAk5AABKAIIbSjoBNzMBTkMIRTZ+NkMJNwCBEjQ3CTYAgQA0AAoySyxKAGAyABJPSQM5SRVOAA45AHFORxZPAHhMSAk8QwewQCQBQ3gTQDcAkE4ABjwADbBAPhJAQgSQRQAPsEBGFEBJDZBMAAhKOR5KACywQEwkQE4AkENAFLBATAmQSj4IsEBEEpA7NgGwQDITQAAskE9FVrBAHBNANRNAPxNARA6QPDcDOwABsEBHEkBKD5BKAAOwQExNQE4ZkDwAAE8ADLBARgWQOzoESk0FQwAEsEAwFUAABpBKAGk7AAI5PYEXN0QAUz4DOQAESkEeUSkESgALUwADTw0VUQA3TwAENwAGOUKBJ09CBDs9BDkABUdDHE8AAkcAYDsAFTdCgSmwQBkGkExJAzw+BDcABkNEArBAMgFDcxFAOhNAPgFDbxJAPxNAQxFARw6QPAAAQwAGsEBKAUNrEpBMAAI+OxKwQ2MjQ15OQEgNkD4AATxBBE5NA0VLELBARhNAQwCQRQABsENZApBOAA+wQD8TQDoTQDYTQDMSQDACkDtGAk9QBDwAAkdGCrBAIQ+QTwABsEAAApBHACs7ADw5RQdRSwZIRxtRAAZIAGU7PAM5AIEZOwAfTkEHPDYURUAiRQAKTgBaPAAIOTqBJLBDXieQOykLTDoOOQAJQiw8sENiMJA7ABJMABJLOwqwQ2ZeQ2qBJ0AmDJAvKAWwQDYVQEETQEkDkEIAD7BAUBNAVhJAXBVAYhBAZxRAbBRAcGKQLwBGsEBgEkBRDJBHQgBLAAiwQEsmQE8mQFIVQFQSQFcbkEcAIkkxDrBAWyRAX05ATwqQQkQJsEA3AZBLQQhJAAiwQC0UQDkSQEUUQE0SQFEMkEIAFEsAGkw4EbBAVhJAXRVAZFGQTAAKsEBYEkBEA5A/SwFOQw+wQCUnQDQQQEIVQEkIkD8ACLBASzWQTzoITgCBAbBARxJAPgaQTkEHP0oGsEAtFUALFpBPAFFAPwE/AABMRQ5BRQpOACiwQABBkEwABkEAF0AAAEs+AUJROEIAT0sADUxCgRNMACY/UAVORi4/AFNOAApPSR6wQAk4QABCkE8AGTtMAlFEJ7BAIBNAMhNAPAOQOwAQsEBBFEBCH5BTNBFRABuwQER8kFFCAjtKA7BAQRZAPBNANQGQUwASsEAyTZBPSAs9TASwQDAJkDsAAVEAHLBALkqQTwAlP1IGTkcIPQAYPwBgTgAOT0Y7sEArFEAlE0AAJ5BPABY7UQRRTCE7AHFTTiFRAH5UTgs3RxtTAHBRTgJUAAk2QB43AHw3SgFRAAhTSw02AA5TAFw3AA45RoEeO0sGTEoEOQACQ0YTOwAJQwABTACCFy9FFE5MBkVLEy8ABrBADSuQRQAdTgAaS0klsEASNkAAU5A0QgRMShFDRAJLAD6wQBcSQCcTQDASQDUSQDkAkDQAAi9EErBAPBJAPhVAQBJAQRRDZgmQTAANQwAqK0gNLwAQsEBCS0NiJkBDCpAvSRIrAAuwQ14UQEcQQEsTQFAWQFULkC8ABLBATw+QKEoEsEAyD5BHUgOwQAADkENOIEMAB0cAWipIHigAeSoACitLHUxVAkdPHEcACkwAaC1JGisAgSZPUQEtAAEvRQNKTG6wQBkTQB8ekDA4B7BAJReQLwCBADJHEzAAObBAIUWQNEsDsEAaAkNaE5AyABOwQBZtkEoAAbBAEgJDVQSQNAACNUcKSEofTwAIsENROUNLIpBIABNHTgc3RBw1ABqwQ0dRkDlJBkVQCEcACDcAdTtLAUUAEENJCjkAcDsAGDxDB01PIUMAHbBAFkxACQGQPAADPkYDTQADSkwIsEAAgRKQPgABTEwFPEgkSgAYTABhO0oBPACBITlCB0JKEjsATTkAKEIAAjdGA0NLgRk2SAJDAAJFTAg3AIEENEUHR04GNgAbRQAEsENCJUM7FUM1NpAyRgVITwY0AAmwQzEMkEcAUjIALjBEBUVQA0gAgQJFAA4wAAQvRAGwQy0CkEdQgQ9ITQItQw8vABhHAGlKTQMtAAErSyFIAGwtRQUrAAJITAtKAIECL0UESlQLLQADSAASsEALFEAZE0AgWZAwSAFMTQJKABIvADiwQAA1kEwAEjAAHTJDDEJCAkdAfkVGE0cAAS0+DjIACLBAFhZALBBAPBRARwmQQgAKsEBSFEBeE0BrA5BFAAgqSActAAGwQHYSQH8CQyUPQyBMQxwNkC1PCSoAJbBDFzZDEy6QJlIHLQAOVFYJUUgUsEBoBJBRAABUAA2wQBMUQABVkChMAiYAgR8qTg1RWAhKTQooABxKAAFRADCwQw8skCtKIyoAgQArAAktTghOVgKwQAkDkEhNELBATxRAXgGQRzYSsEBnCJBHAEUvTxctACBOAGVIAABIJQ0tSwtOUwEvAD5OAFQrUANPUg9IAABIEwctABpIAAFPAFiwQFUFkCpSBlFRBrBAAACQSFIMKwAOSAAGUQBkK0oFKgCBHC1MBE5OB0VQCysAFUUAEU4APC0AHi9DgS0wShJKUAJCUAYvABWwQDITQFQRQF0TQxM1kDJMFDAALkoAczBGFEIAAkpQATIAgQMvSwFKAAUwAAJMUUiwQFgBkEwAE7BATxJALxJAAAiQLwAELVAMTlQBSE8zsEAhE0A5FEBDE0BFD5BOAAcvSQJPUAMtAFWwQEQTQD8SQDYTQCoDkEgAAEghBjBNA1FREi8ACbBAMAGQTwAKSAAHsEA1FEA5N0A7EZAyTgNRAAFOUBEwAAGwQDwhQD05QDsFkE4ABTIACbBAIRJAABeQNFAAT1YGR04bNAAUsEArFEBKE0BaFEBkHpBMTwlHAAhPADJMAA6wQFwVQEESQAASQw8bkDBTC7BAGgCQUVMCSFIQsEBFAJAwABSwQFgSQG8UQH8BQwpPkEgAEFEAI7BDAIEEkE9aAzJODEVTB7BAdgmQTlICMgAGsEBCBpBPAA2wQABGkE4AAk9UPU5QJE8AgRYmWSMmAIE1T1ERRQAOTgAPTwCCHStGB09OA0dLgR6wQwgQQDIUQD8iQEQRQEcUQEsCQw0RQFEBQxESQFgSQGEUQGoTQHIRQHkTQH6BTZBPABpHACYrAIJjsEMNgSZAehFATAJDCBJAADpDAAeQR08oRwB0SkUhSgBxT1UwTlAATwASsEBABJBOABGwQEMLkE9IBrBAADKQPkcrPgBOO0MeOwBYTwATNz8NUVEXNwADUQB9NkUFU1AdNgACsEAXAJBTAAtRRQawQEoUQDMSQAAKkFNQEzxFAFEAKFFRBDwACFMAYDlFBVEAAFESGjkAW1EAITY4Bk9MFTYAHU8AA1FSNzdLBrBAOgKQU1wOUQADsEAAEpA3ACawQwhZkDsxIDsAXDdBA1FJDFMAFTcAAFEAbzI3AVNOIzIABVMAWS9BDk9PArBATRNASQaQLSUALwALsEAqFEAAA5BPAAotACpPPg0ySCQyAGQvRBFKSQJPABQvAAdKAFYrRxhHUA0rABBHAGAwSwtMUg6wQDYJkDAACrBATSdASBNARBNAQhWQK0UjsEBBApArABGwQD4hQDsTQDcSQC0UQAAIkEhPAjRMAUwAHUgADDQAXzBIAEVUHjAAC0UATLBDDBCQMlULQlIMsEA0D5AyAAOwQEgSQEITQDAWQAAnkC1RLC0AWUIACjZPE0o/DDYAG0oARzJMBrBDEAyQRVAQMgAMsEMLBpBFAFewQw8OkDdMA7BAJwmQSEoMsEA/IUA8AJBIABWwQCcAQwkRQAAUQw40kEdMH0cAC7BDCidDDjOQNwALRU4CMkwbsEMIAJBFAAYyAEmwQw0YkEdPG0cAA7BDCGBDDBGQL0kIQ1UNsEAWDZAvAAWwQDENkEMABrBAABRDCEWQRVoeRQAzsEMMJkMQFpBHXQQyRguwQwwXkDIAAUcASLBDESiQSlwesEMNBJBKAEmwQxMpkCtPAk9ZHrBAFwKQKwATsEBGApBOSQxPAAGwQD8OkE4ABrBAAAJDGRJDHi+QPlAesEMYCZA+AB6wQxxLkDwnAzsvDrBDFRBDEACQOwACPAAnsEMXJkMbD5A3RQRRURSwQxYLkDcABlEAE7BDESdDFymQU1EFNkocsEMRAJBTAAM2AAxRSwWwQB0SQEEVQBcBQxgJkFNQBVQ/A7BAAAqQUQAHsEMdApA8SwZUAAxRUAZTAAk8AAOwQxcUQxNIQxglkDlCJ7BDEQGQOQA1sEMWDZBRACdPTgI2OB42AAqwQxAAkE8ADlFYGrBDFSaQU1wCUQACN0siNwAmsEMPJ0MUJ5A7QyI7ABOwQxA5QxQekDdDBVFQA1MAFjcAFlEADbBDEDdDFQKQMksJU1kbMgAaUwBXL0wKT1kJsEAmFEBGBpAvAC+wQEMUQD8RQD0dkDdQKjcAF7BAPEWQMkwGsEA4CZBRWAuwQDYIkDIACbBANAKQTwAbUQALsEAyQJAvSwpUWwGwQDATQCwCkC8AEbBAGwiQVAAKsEAAVZArSgqwQxkBkFNXHysALbBDFTuQL0UjLwBoMUkQTFUWMQABUwASTABsNEMGT1YgNAAITwBpKkQAUVQcsEAcBJAqABCwQCcSQClAkC1RIy0AbbBAJAuQMk4IR08TsEAaApBRABCwQBACkEcAJLBAADWQSlItSgAjMgBKKEwGT08sKABTK001KwB4LUkDSVAYTwAKLQAMSQBVTFUBMVEjMQAFTABAsEMZJpAyTwROVw+wQCARQDEGkDIADrBAOhJAPkmQNEEmNABNsEA9FEA7B5BOAAhKVgM2OwKwQDYTQCwTQCEBkDYAAEoAI7BAGRJAACKQMjkITlUfMgAJTgB2N0cEU1gbUwADNwBuNEMhNAB2NkMEUVYhNgAQUQBiMjwkMgBvT04DOUghOQADTwBvTkokTgBhT1IMLUAUTwATLQBqTFAcTACBAzI6ArBDFQSQSkcgMgABsEMLYJAtPSUtAGgqQCQqAGktPictAG6wQBQNkCZDBrBAQhNAUgqQJgAJsEBkFUB2AEMQEkB/VpBKAIE1R04MsEB1EJBHAAOwQEcSQABFkEpPGUoAgQNPRiNOUARPAAGwQBcBQxUSQCcBQxkSQAAFkE4AFj43Kz4AK7BDHSGQO0ohOwBnN00YUVIINwAXUQBxU1AENkoYUwAGNgANUUgDsEBFFEA9FUAAAUMkB5BTUhNRABM8SBRRSwuwQx4HkDwAB1MAFrBDIxmQUQAMsEMrAJBTUhw5TxpRNgI5AAtTAAmwQyYmQy05kE9QAlEABTZLGzYAAbBDJheQUU4CTwAPsEMsFEAZAUMxEEA3AUM1BJBTXAg3TwWwQAAGkFEAGzcABbBDLBVDJhNDKhJDLxRDMyCQO0MWsEMtDZA7AAawQyYnQys1kFFOAjdBAlMAIjcAArBDIgmQUQAMsEMdE0MiIkMmEUMqEZBTVQMyPySwQyIBkDIAC1MAQrBDJyGQT1AEsEBEDZAvJg8tGgiwQDkDQyERQBkDkC8AELBAABCQLQADsEMlEUATDpAyShqwQAkIkDIAC7BAAAFDIDdACRRDJQyQL0kEsEAAEJBKTQhPAAQvAA5KABKwQx82QyQWkCtJFEdPDSsADUcAHLBDHSVDIiSQMEwSTFICsEA7DpAwAAWwQFMUQF0ekEwALrBAYwFDJgKQK0sRsEBoDpArAASwQGw0QHIBQyERQHYVQH4BQyUlkDRRCUxOG7BAbwWQNAAOsEBBB5BMAAywQAAJkEpPHrBDKQOQSEwFSgAZSAABMDoTMjEHR1IHMAAcRwABMgAisEApBpBFWQywQD0GkDJPD7BAAAFDLRGQMgB3MiwlMgAPRQA9SlIeNkoaSgAHNgBQRVQiRQAEsEMxapA3TAZITQSwQDAUQE8ZkEgABrBDNhRARRVAPxJAQRNARgFDMQuQR1ADsEBMFkBOFEBMApBHABCwQEo6QE0ZkDcABTJOAEVHBrBARRNAAAaQRQADMgBoR0YdRwB1L08LQ08VLwAKQwBfRVUfRQBzR1gBMkkfMgAMRwBoSlgeSgB7T1QCK1AhTwACKwADsEA9AJBOTwKwQzYTQDoGkE4AC7BAABKQT1I3PlAVsEM7FZA+AFI7TSA7AG1PAANRTgI3Sx43AAZRAGpTVQE2UCE2AAdTAAxRSAawQEUXQEgKkFNOCLBAABGQUQASPEgQUVIDUwAQPABzUQAAUTEMOUsdOQBSUQAoT08BNkYgNgAQTwAJUVI6U10JN1EdUQANNwBqO0gfOwB3N0IDUwACUVAaNwAYUQBLMksGU1UeMgANUwBjL08EsEAhAZBPVxSwQD4XkC8ACbBARRNASRRASyRATxNAUwmQN1kIsEBbFUBnAkM/DZA3AAOwQHQVQH5GkDJSBLBAXhGQUVYDsEAZA0NDB5AyAAiwQAAAkE8AHVEAL7BDSBmQL1ETVFYLLwAlVABPK00PU1QeKwBpL0wdLwB0MUoMTE8PUwAKMQAJTAB1NEcAT04iTwABNABvUUoGKkkesEAWBZAqAAqwQCIUQBYSQAA4kC1LHi0AejJFCUdOF1EABUcAbEpSMEoAKTIARE9TAyhGKigAUitLTisAXy1PBklUGU8ACi0AE0kAVExYAzFVKDEAAUwAcDJPAE5ZJLBAJBJAOQGQMgARsEA/J0A9FJA0ViE0ABawQD5OkE4AGkpXAzZKHjYAB0oALLBAOxRAMg2QMlMGsEASEJBOWQOwQAAOkDIAJU4AYzdPC1NZFjcAFFMAYzRKJDQAeDZIClFWGzYAF1EAWTJGIzIAejlPBE9PGjkADU8AaU5KIk4AgQJPTgItSR9PAActAGNMTB1MAIEIMjwDSkIkMgBsLT4kLQBpKj4lKgByLUEgLQCBD7BAMiFAQAaQJjINsEBIFEBRE0BcEUBoD5BKAAOwQHMMkCYACLBAexJAfxRDTHJDUUpAcBNAShNAAAJDVQWQUVYqUQBpTlIVTgCBAEpSFLBALhFAQRJANxZAKBJAHSRALhRANQCQPjwlsEAzBpA+AF05QSU5AGJKAA02Qw9MQhCwQDcCkDYAEbBAPQGQTAASsEBEB5BOTQ2wQEcAQ1ESQEEUQAADkE4ABTJHCU9TGjIAKE8AA05TNDlPCE4AAU9OGjkAHE5QFE8ALTZSHDYAfTJKEUxLAE4AETIAKkwACk5VMS9SA04AE09TIS8AbTtJHzsAgQA3LQQ1Mh83AAU1AFAyQSgyAGcvRygvAGIyTCcyAE1PABovRANKUB4vAAZKAGMrSw5PUh0rAAFPAH6wQD4DkC1MCVRRBrBATBSQLQBwMEQvMAAwsEBEFUAsEUAADJAtSRFLUgBUABYtABtLAE8qSAdOVR8qAAlOAGQrSxJTUhOwQBoDkCsAELBARBNARyVARTaQLzopLwBuK0cTsEBDAJBMTgBTABOwQD0BkCsADkwAArBAHhJAAFGQKDkBT0kkTwABKABoTkwHL0cgLwANTgBdTEgnTAByMUkBS04nMQAGSwBlSUwhSQCBATNHFLBAEACQR0gTsEA2C5AzAAawQD0WQD4BQ00RQD8SQEETQEIBQ0kTQEQHkDZEIzYARbBAQRVALxJAAAaQO0QIUVAURwAHOwAUUQBYM0sGTk0fMwAVTgBhNE4QR0YiNAADsEA6FEBBVZA4RiM4AB+wQDwTQDQUQCoCkEcAD7BAJBNACQqQO0IBUE0IsEAAGpA7AB1QAFIyRwhMTjIyAAlMACWwQ00ykDFQB7BAPQiQRlAMsEBBE0A8BJAxAA+wQDlLQDsakDQzIjQANbBAORRANhNAMhNAMAaQOkoHT04BRgADsEAuFEAfDpBOFAOwQAAJkE4AAk8ACDoAUExKBzFLLDEAA0wAbDNEAkVOFLBAMAyQMwAHsEA+E0A8WJA2SB42AFawQDkmQDQNkDlGBU5PAbBAMA6QRQAEsEAoCZA5AAuwQB4PkE4ABLBAExVACw9AACqQS1AJPEUSSwAPPABlO0cQRFQUOwAHsEA0E0A6SkNJCpA0Ti40AGCwQDgHkEQAAThNDLBALgWQTVANsEAADpA4ABlNAGQ7TwZLVBg7ACBLAFY8UARMWBs8AAVMAHpAQCJAAHZOUwI8PyE8AA9OAGI5PSQ5AHBHUAw7ShdHAAM7AIImS00TLz8EMDoaSwAILwAAMACCB0xMAzQ3KjQAZy9HIy8AcStDISsAaS9EJi8AgScoNQ6wQDYSQEgLkEwACLBAUhNAWxNAYxRAZ3qQKAAusENNE0BaFEA8E0AAD5BPVDFPAGZMUiBMAHlHUAKwQDQTQDISQCwTQCk5QCwfkEBBNkAATrBAMBNAMwWQOz4OsEA2FEA6A5A7AA6wQD0TQD8UQEETQEMekDc/B7BARQOQSFAERwAVNwAFSAAXsEBHJ0BME0BREUBVDpA0TAOwQE0FkEpQEbBAGgqQSgAENAAEsEAAEJBISi9KUBhIABA3TA9ITRJKAAI3AGQwRiYwAF5IABY0RwpHTRQ0AApHABFITQWwQCcSQBojQAAZkC9QA0pYA0gAKS8AcDtEIjsAY0oACjdDD0dOFzcADUcAVzJFF0pHDDIAC0gxCEoAGUgAPS9JFE9QD7BAMQCQLwAUsEBKFEBFEkArE0AAMJAySx8yAIECU00GKzMUTwADKTIZUwADKwAOKQBQL0cDT1MfLwANTwBhME0PTEwSMAAHsEAyE0A3E0AmAUNREUAAMpA0UCE0AIEINUYPRUwFTAAWRQAWsENWXpBIUCdIAAs1AGAvSRBKTRcvAIEIMkMbMgCBCERKBDRDJUoAA0QAXkdPLkcANzQAPy1FAkhJFbBAJxRANheQLQANsEA0EkAxKpAwPhCwQDUvkDAAHLBAMhJAKBVAABKQR0gGSAABNEMcRwAINAB9SEkHNz8YSAALNwBvNjgOsEAZBJBFQBQ2AA6wQCgVQDYSQD4TQEItkDk+KTkAQbBAPxJAOhNALxNAAAKQSkgBNj0RRQAPSgAFNgBiMjwKRUwWsENSBZBFAAIyAGmwQCQMkDdDB7BAPQ6QR0kGsEBCC5A3AAWwQEQVQEcSQEkSkEcAArBASz2QMjsORykcMgA/sEBIAkNWD0BED5AvQwSwQD0UQDoGkEcACkNGArBAOAKQLwASsEAvCZBDAAuwQABZkEdRBjJEHUcABTIAaStQCkxSJSsAArBAPRJAR0pDUhKQLzkQMDQTLwAQMAAcsEBFEkA+FUAuAUNNEUAAAUNJBJA0SApPTwlMAA40ABdPAF43SRVHUxc3AAFHADuwQ0VJQDUAkDlJEkhSA7BASQFDPhJATQmQOQBEsEM4E0M0E0MsA5A0QA6wQyYUkDQAE7BDIiVDGhJDEyZASgKQSAAHRVMFMDQDLzICsEBGFEBBCZBFAAQwAAQvAAGwQDYVQCIBQw8QQBQTQAAfkDRJAkhWHzQAD0gAYC1QCU5XGLBAMBFAPACQLQAEsEMTEUBBEkBEFEMXEkBGFpAwTxCwQEgUkDAARrBDHCZAQxCQNk0CsEA3CpBRUgqwQAAAkE4ADzYAHFEAWjlIBUhYHTkAA0gAgQI7TgVKXA+wQEYTQFMBQyEKkDsABrBAWU2QN0okNwBNsEMdJJAyTwlKAAywQFQHkEdUC7BAPwaQMgAMsEAAC5BHAGA3TwNKWBo3ABBKAHIvVhJPWBGwQCQTQEMDQxgAkC8AELBARyRASgFDHC6QMk8LsEMYF5AyAA6wQE0lQE84kDdPClNWC7BARQWQTwAGNwAGsEAfE0AABJBTADSwQx8mkE9XATtPHTsAEE8AILBDJRJDKz6QPlIJUVUFsEA1AUMnEkBME0BSAUMtWZA+AASwQFAAQygFkE9QAlEABUBMG7BARRBAIQKQQAAFTwANsEAAAkMtRUMpFJA+TglOUhU+ABROAFc8Tw5MWBc8AAlMAG07UQ5KVQ+wQCoFkDsAD7BAQxNARSRARDKQPlEhPgALsEBCE0A+E0A3FEArEJBKAAGwQBcVQAAGkDtNBk9OGzsABE8AZzdPCEpWGTcAE0oAZrBAMQeQMFADTFcKsEBMIkBOCpAwAAawQEsBQy0UQEYQQEEUQD8SQykRkDRSA7BAORVAKAuQNAAGsEAAAEMtbpA2UQVFUAJMABtFAAI2AHU5SgFIUx1IAAU5AHtKVwktOQQvORSwQBwNkC0AAy8AArBAMxJALhJAIhRACxJAAA6QMlIfMgCBADdUCUBQFUoAB0AAgQFDVB1DACk3ACiwQzEnQDYGkC1LCEhSA7BANBNAFw2QLQAFsEAAYpAwSiQwAH8yTANCUgtIABYyAA5CAGNFVAM2TxxFAAE2AHo3TQSwQysBkEdUELBANxVATQGQNwARsEBYFEBcR0MnDZAyQAWwQGEckDIAHrBAZilAahKQRwAXL0kDQ1MdsEBeA5BDAAMvAAuwQEIEQysOQABRkEdRATJIH0cAAjIAbjdKAkpDC0hIFkoAAkgAAjcAAbBDL19DKwCQMkkMR1IRMgAFRwAXsEMvOEMrGpAvURJPWA4vABBPABWwQEIBQy8TQFgQQG8VQH8ekCtRLysAdjJSAEhcI0gAEUdQDbBAbhRAPQuQSCIHsEAAOEM0IpBIACuwQzBbkDIABUcAAUVTECZPHEUABCYAF7BDNE5DLh2QQ1gZsEMzD5BDACqwQy9rkENWBitIgSewQypyQyUUQyFJQx0PkC9IA7BDGBRDExGQLwAWsEMPcEMAEJAyRiUyAIFCsEAqCpA3RwewQEIDkCsAELBATQSQNwAPsEBaA5BDAA+wQG4TQH+CUkBcCpBRWAewQCITQAAWkFEAgQBOWSdOAIESSlMYsEAfE0BHE0BMOEBJF5A+SCo+ADGwQEcxkDk/CLBARRiQOQCBAUoABzY/BkxEHjYABrBASg+QTAAGsEBNCJBOTx6wQEQTQAANkDJLA04ACk9QGjIAKE5QAU8AFLBDCB2QOU4STgAMT0wEOQAsTk0LTwAmNlEUT04BTgAINgABsEAWF0AsAUMMEEA3EpBPAARORw6wQDECQxAlQDYRkDJDAbBAPAiQTEMMsEBCFEBBCZAyAAqwQC8RQAAEkEwAH09PCU4ACS9QMC8ADLBDFVCQO0gjOwAlsEMaT5A3SiY3AHIyPCEyAGovRRewQD4RkC8AAbBAQhVAMBJAAEeQMkYiMgBMTwAgL0EFSlEaLwAHSgBjK0oJT1MgTwABKwACsEMebpAtSxBUVQiwQEANkC0ABbBAUSJAXRJAZxRAazWQMEgrMABeVAAFLUsNsEBlA5BLURCwQEsIkC0ABksABLBAAFuQTlIEKkMjKgADTgBsK0cMU1AXKwAGsEAvFkBGEkBJOEBLEZAvRCcvAF8rSAGwQyIMkFMABkxMDCsAFUwAGLBDHkdDIgeQKEkMT1EcKAABTwAHsEBEFUAbE0AAR5BOTwMvSxWwQB0SQDYTQDsSQD4EkE9IAk4APS8AEE5TDLBAPwiQTwAMsEBAFEBCDZBOAAOwQEcAkEw9ErBASxVDJhJAQhNAAACQMU4CS1ACTAAdMQAssEA5CJBMRwJLAAawQEsWQE0BQy4SQEcQQEEHkEtKDbBAPBJAQQCQTAAVsEBGFJBJRgNLAA2wQEETQCgUQAAXkEkAAkdMDDNBFLBAJw6QMwAGsEA8EkBCEUA/FEA7FEA8EkBAHJA2QAWwQEQSQEYKkDYAHLBARBRAQhNAQSdAQg6QOzkEsEBAAJBRSxKwQDcEkEcADTsAC1EACrBAAE6QM0AITkogMwAYTgBkNEIDsEAkEUA0AJBHQhSwQD4GkDQADrBARhJATBNAUhJAVxRAXB+QODkFsEBgJZA4AFJHABCwQFwKkDs8CVBME7BAVgyQOwAEsEBPFkBCBJBQAA+wQC4RQAAjkDJCB0xKUjIAL0wAMUZNAjFFJrBAFhVAKwaQMQALsEAuFUAwEUAyE0A2BJA0Pw6wQDoUQD0JkDQAVrBAPB+QOkkQT0wXRgAEsEA6BZA6AA9PABhOFQFOACGwQDgckExPBzFGFrBANhJAMxFAKwKQMQAHTAAKsEAAUpAzQglFSyozACewQBsSQCwSQDQSQDcDkDZEJzYAgRQ5QgBOSRdFAA05AANOAA2wQDVMQDIKkEtLDTw8D7BALAyQSwAEsEAfCJA8AA6wQABakDs6DURJDzsADrBAKBJAORNAQxNARziQND0xNABqTUsGOEACRAAHsEBEE0BDApA4ABVNAA6wQEIUQEESQD8UQDwLkDtDAktLBrBAOBNANASQOwAQsEAsBpBLAAywQABnkDxGBUxNFbBAIAJDMwSQPAAJTAAFsEA3EkBDFEBJP5BARh2wQEYGkEAAILBAQxJAQhVAQRJAPxRAOQGQPEAJTk8IsEAnDZA8AASwQAARkE4AWTlIHzkAcTtNBEdFDLBAOBCQOwACsEBDBZBHAEawQEJKkElGKLBAQQCQSQASsEA8AJBLShSwQCAVQAAtkEsAAi84A0xKIS8ALkwAAUtNIbBDOjCQSUwCSwA2SQABS0BNTFEBND8BSwAoNABzL0IgLwCBAis4IysAcS8yJi8AgTKwQz4XkCgzD7BAJxFAORRAQRNARhCQTAAEsEBKE0BQEkBXFEBeFEBkEEBqEkBxFUB3PZAoADOwQGsUQFgUQDkRQAAVkE9IIk8Ad0xHI0wAfkdFgRZAOzNAAGM7PBk7AHQ3OwFIQwNHAB5IAAI3ACCwQBwVQCwSQDcUQD0SQDoFkEpHCjQyA7BAABaQSgAPNAADSEctSkMJSAAnN0ABSEwOSgAVsEM6AJA3AChIABOwQz4mkEg9ATBGIjAAArBDOjpDPjOQSAAINEYLR0gXNAADRwAKSEcusEAeH0AADpBIAANKVAkvTDMvAGs7QiQ7AEhKABc3RAWwQzoGkEdUFjcAE0cAXDJHCEpYHzIADUoAXC9JE09SFbBAKweQLwAMsEBDFEBBEUA8EkA2FUAxEUAzBpAySgywQDgVkDIAJLBANlGQU1AKTwAEsEAyFJArLQwpKgKwQC0MkFMACLBAJAmQKwAIsEAgFJApACWwQAATkC9AAk9JD01KDy8ABk0AAU8AdzA2BExCCbBANACQTTcRsEBBB5AwAAywQz8LkE0AB7BAPhVAOzaQNFACsEA8AkM6G5A0AAuwQz5cQDkTQCoGkEVOBjVEB7BAAAaQTAANRQB3SFAgNQACSABvL0kBsEAWC5BKTwewQCcVQB8EkC8ADrBAGXKQMkciMgCBArBAAAKQNEwBRE8KSgAWRAB+R0ggRwCBAy1JAEpREjQATi0AMzA/DkhMBUoAIDAAAkgAazQ7AkdLIUcABzQAckhPDDc8EkgAFDcAV7BDOQ2QNkUFRUwdNgAHsEA8E0BGE0BIOUM1DJA5SCo5AGk2SwywQEYFkEpKCkUAArBAPAWQNgANsEAABJBKAGUyQAhFUhlFAAQyAG03TQ1HUAGwQEIBQzkTQE0JkEcACDcABLBAUhFAVBRAVzNAXQ+QMksiMgBiL08WsEM9D5BDSAUvABhFUwFDABxFAAKwQE8ekEdSCbBAABSQRwAOMjogMgAESFA3SAADSlAbsEANApArTQ6wQDEAQ0EEkExdC0oAAbBAIA6QKwAGsEAaFUAeEkApEkA0EkA6I5AvPiIvAFOwQDISQAASkDQ9AUwACE9OGTQABU8AaTc9A0dUFkcACjcAfTlLEEheErBAPAuQOQAHSAABsEBOE0BWFEBbEkBgIJA0SQSwQGYgkDQAYzBSHkVJCzAADUdWBkUAMEcAB7BAXQeQSFQOsEA8D5BIAAKwQAAEkEowBzRJITQADUw8E7BDRxyQSgAdTAAATAoLLVMDTlwFsEBBEUBTC5BMAAiwQFoIkC0ADLBDTRNAVxJDUjlDTQCQMEglMABvsEBNAZA2RwtRUAVOAAGwQDITQAAEkDYACFEAZjlDBkhWHEgAAjkAeDtLCkpgFrBAPA+QOwABSgAGsEBSEEBfE0BpFEBvH5A3TyI3AGIyUStHQgUyAAhIWBZHACBIAAtKUBxKAAw3SA6wQGsPkExNA7BAUwKQNwASsEAAI5BOUAdMADIvVwOwQDMBQ1EBkE9bErBAQgSQTgAcsEBKCJAvAAywQE43QFAxkDJKJjIAYlNPA7BARwCQTwAEN0QSsEAaCpBTAAQ3AAOwQABskE9WBDtHG08AAjsAerBAJAKQPkoKUVcIsEBIE0BNTkBPE5A+ABGwQFIFkEBGDrBAVAiQT0oLsEBXB5BRAAdAAAdPABGwQE0RQCgVQAAakD5IEk5XGT4AGk4AYjxJDkxZFDwADUwAZTtOD0pYEbBAIQOQOwARsEA2EkA9E0BDE0BGJUBICpA+UAewQ00VQEoRkD4AFrBATSVATx6QSgAHsEBSAZA7ShWwQFUEkE9XDzsAD7BAShKQTwACsEAgEkAAQJA3SghKXxk3AA1KADywQ0kSQ0ISQzwRkExcAjBNFLBARhRAVQmQMAALsEBbAkM2EUMrEkMcIUMPHpA0UhuwQwsHkDQAMrBAUxJASxFAQRRANAeQNk8BRVYKsEAbBJBMABCwQAAAkDYADUUAZzlLD0hQETkACkgAAkc3IUcASLBAHwGQL0sSsEBFA5BKUBCwQE8DkC8AEbBAVxFAXEyQMlUdMgBpsEBYEkBCBJA3VglATwSwQAAPkEoAD0AAgQlDUxlDACY3AEWwQDISQEEAkC1OA0hTEbBAPxNAPQeQLQBXsEA8B5AwTywwAFKwQDoUQDgKkDJMBEJUBLBANQuQSAAGsEAxC5AyAAmwQCkBkEIAErBAAFiQNlIHRVcZNgAPRQBwN00JR04IsEA5BpBISg2wQFMJkDcABEgAA7BAZBVAcRRAeDaQMk80MgBVRwAcL00IQ1UOsEBtE0BNA5AvAANDAA2wQABbkDJQCkdYFDIAEkcAaDdKCkpYHzcAEkoAUTJODkdXFDIAF0cAYS9SEU9YES8AFLBAMwiQTwAMsEBHEEBQFUBYEUBgFUBnCpArVwWwQGsgkCsAULBAcBNAdRRAfBOQSFwEMlUxSAADsEBjDZBHUgWwQCASQAAYkEhSS0gAgT0mUgZFTARHAAFDTgsyAA9DAABFAAEmAIElsEMACZBDWyhDAIFcK00hQ1aEBi9MNC8AgiAyTzEyAINiN0OBGLBAIxJALxRANRJAORNAPhNARBNASRRATxNAVRJAXhRAaBFAcxNAfopRkCsAgkywQHglQHIhkDcAA7BAaRNAYgSQQwARsEBaEkBTFEBOE0BJEkBGXEBEFEBDAUMIJUBBE0A/I0A+EkA9J0A5EkA3J0A1N0AyJkAwE0AuE0ArE0AkFEAbEEAWFEASE0ANFEAJEEAAhFpACSdADyVAE4EWQBeEVZBKNoFQsEASE0ALFEAAOZBHOwZKAIEjsEAcE0A0D5BHAAKwQEITQEoVQFASQFQTQFcoQFwRQGERQGWCBJBFPRqwQFwRQE0RQD0WQCgQQBeBcJBDMAVFAIFNsEAbc0AggkaQPjaBf7BAGi+QPgAHsEAJFUAAEJA7PHWwQCITQDcTQEMRQEsCkDsAErBAUhNAWBNAXDpAWBNAVRFAUSZAThNATBFASRNARhRARCVAQyhAQRJAPxRAPhFAPRVAPCVAORBANwiQOS4MsEA1E0AyE0AwI0AsE0AqTEAogUeQOQAONy2BIrBAJF9AHRRACxNAAF9ACxJAIRRALhNAOBNAPhBAQxVARYEOkEVADjY4DzcALkMABLBASCVASxOQNgACsEBOEUBRFEBUE0BYJkBdWZBHSBdFAAGwQFADkDc5EbBAQhJAMhNAKUSQNwACOzhuOwAUPjt7PgAVQzFIQwA+RwAgRTsFQjRosEMMgSpDEHFDFF5DGCZAK19DHIIekC01gkItACgqPAmwQCgUQB0SQACBEpAqAAOwQCAUQDcTQEETQEcUQElMQEdLQEVJQEQ5QENLQEIPkCgrBLBAQRNAPyBAPhRAPRNAPCRAOidANxJANSVAMhNAMBNALBNAJBRAExNAAHSQJiILKABTsEAcEEAwFEA+EkBIEkBRE0BZE0BgApBCAAFFABGwQGUSQGklQG6CKUBqJ0BkE0BeAZBHQgQmAA+wQFgQkDIwAUMwAbBAUhRATRNAShNARyRARBRAQkxAQSVAPxNAPQOQQwAQsEA7EkA4CJAyAAywQC4EkEhJBEcACDAyA7BACwCQRT0SsEAAgRZAEhVAIBNAKxFAMRNANCdAN4JQQDAHkC81BUpHB7BAGQaQSAAOsEAAAZAwAIETsEAmFEA2EkA+FEBEE0BGJkBKJEBNJkBPJ0BSE0BUJUBXcEBVFEBME0A8FEAABZA0NxdDQw1FABZKAAywQCYSQDgVQEISQEkRQE4UQFISQFYdkC8AF7BAW01AXxmQT06COrBAWwyQTEcJsEBTAJAwNABPABKwQD8PkDQAArBAAExAGhRAOhNASBNAUhNAXBNAZRFAbhRAc4IXQHdkkEpEBC02B0wAFrBAaQiQMAALsEBRA0MgC5BKAAOwQDUSkEhBAbBAEgyQLQAZMCIBsEAdEkAiA5BKRgRIADtINgVKADMvOwkwAIEDLwAFLTZ3LQAMsEMkBJBDABhCPxMyJ4I4R0ACSACCPLBAHAqQRwAESDsBMgAEsEANA5AmKQ6wQABfkEgACkVCQbBDKDlADxRALRFAPQKQR0ESsEBIEkBQCJBFAAqwQFoOkEIABbBAYxNAawBDLAiQRwALsEBxJ0B2gUqQJgABsEBuAJBIRQQrOg+wQFoJkEMqC7BAQhNAIRRAGRJAIhFAKxNAMhRANAaQSAAoRzcwRwAcSD8fsEAyA5BIAAVHSFGwQDAkQC0VQColQCITQBwUQBMSQABSkC84JysAC7BAEhJAJBRAMBNANwaQLwANsEA6FEA+EkBBEUBCFEBDgSCQRwACRTkKQwB/sEBCgRhAQRJAPhJANxNAIBOQMi0BsEAAAJBFAAhDMGiwQCEUQDsTQEcIkDIAC7BAURJAWxJAZg2QQwAHsEBvEkB1JUB7g0SQOycyNyUVPjICsEB2JkBuFkBnEUBfA5BDMxCwQFMSQEQTQC8UQAkSQABKQAkVQB4SQC8UQDwSQEQSQEoTQE8VQFMRQFgJkDsACbBAXRRAYRNAZhFAahVAbgiQPgAJQwAVsEB0g0GQNwBxsEBwFEBmEkBaCpBHSwewQFMoQFYmQF0SQGEmQGZWkEcALbBAa0GQSlINsEBgEUBME0AwE0AbAUMoEUAlFEA4E0BFIUBQE0BdE0BsE0B6E0B/E5BKAIMMT1AmsEByE0BQCpBOUgJPAAawQCQUQAATQBcNkE4AA7BAMhCQT1ADsEBBFkBKEkBQRJArOoESLUIDKwA9sEBOJkBKFEBHE0BFCpAvPgYtAE6wQEQTQEMukC8AAjBCcTAAHDJFgQ40SAhRThIyABBPAGSwQEENkDZABbBAQAWQNAAMsEA+E0A8FUA4EkAzE0ArE0AdE0AAF5A3QxY2AAZTSChRAF03AAo7OzGwQCgSQD4SQEwNkFMABbBAWBRAaA+QOwADsEB2AZA5RBOwQH8+kDkATTdHMzcAgUU3PwmwQHYBkEpLEbBAZQWQRUIFQEEIsEBPFUA4I0AAgmiQSUUASgCBAbBADRNANA6QQAAFsEBFAJBFABOwQFITQGATQG4KkEkACLBAeRRAf4FKkDcAIzs5CLBAexNAcxJAZhRAWhNAUhFATx+QTE0BOT8AOwAGsEBSOkBUJ0BWLJA3RQs5AIEeNwAJsEBPApA2QANRTg6wQDsIkEwACrBAAGOQNgAdNz8DsEAdE0A0FEA+EUBFE0BJE0BME0BOJJA0PwGwQFEVQFMVkDcAEbBAVyVAWz2QNAA1sEBfgQNAVxNARxNAAAuQNjsKS0VFUQBMsEANEJBLAAGwQCcWQDMAkExMEbBAOxRAPxNAQSZAQg2QTAAYsEBDCJA2AAFOTQuwQERrkE4AB09RJLBARnJAQQ6QTwAEsEA2A5BRUAEzPA6wQACBCpBUSglRAASwQBkWQC0RQDcUQD4QQEITQEQBkDMAN1NJDFQAeFFJBVMAfrBAQRVAOg6QUQABsEAgEJBPRQewQAAJkC8yb08ACLBAJweQUUMOsEA1EkA9FEBBEkBDFEBERZBRAAdORDewQEMkQEINkC8ABbBAQSdAP4EsQD4lQD0SkE9CA7BAPASQTgAOsEA6EUA3FEAzE0AtE0AmIEAhLJA0LQ6wQCoTQDIUQDcTQDpGkDQAGDcwdzcADTY8gQs2AAU0P4ESMkAANACBGTIAATE8CExAW0wARjJAFzEAc7BAOBCQMgACsEAyDZA0NwWwQCcKkEk8CrBAAF9AGRFALgaQSQAOsEA7AJAxOwY0AA6wQEISQEVjkDI9HDEAbDIADjQ/gROwQEQSQEITQEAKkCoxBEc2A7BAPhVAPBNAOBRAMAaQNAAMsEAlE0AhggCQLTYBRTUORwBGLQCBJbBAJUiQLz5LLwCBcExDCU8ADTEyGbBAKCqQTAAHMQCBQLBAIydAHiRAGQuQTj8WMiErsEAkEkAxE0A8E0BEE0BJFEBPBZBFAAFOAA6wQFQRQFoTQGITQGwUQHYSQH4hkDIACzQ5gg40AGawQHQWkEU5C7BAYwaQQzYDNiwLsEBQEkBBFEA5W5BFABJDAAU2AAsqAIMSsEA3J0AwEkAhFUAAJZArLQlHMwhCNXGwQCYVQDwOkCsAA7BARweQQgAIRwADsEBNNkBFEkA3FEAJFUAAg0GQSTIbLSwDQCWBD7BAKguQLQAEQAABsEA9BJBJABCwQEYUQEkTQEYSQEESQDoTQDaBJkA0XkAyJkAwTkAugQNAMBJAMxNANwOQSjMQsEA8AZBFKwVCJwQyKwqwQEITQEYUQEoQQFAUQFgUQGMRQHARQH03kDIAhHCwQHclQG8RQGgWQF4RQFMUQEcSQD4UQDpeQDgDkC00Yi0AglYqJoEJsEA6MpAqABuwQDiFS5AmH4EBsEA6OkA8EkA+FEBBEkBFFEBHEUBKFEBOE0BSEkBXEkBdFkBjEUBqE0BxE0B1J0B6DpBCAFJFAAhKAB8mAII+sEB2WkByN0BsJ0BoJkBkJkBfJUBYEkBUFEBQFEBLEUBGE0BDEkBCC5BKPy6wQEEnQD8UQD0kQDsmQDcSQDUnQDISQDATQCwTQCgUQCQTQCARQBkPkEdBArBAAAuQSgCBELBADRJANBJARA+QRwAEsEBRIkBdFUBoEUBxFUB2gz2QRT4GsEBxFEBoEUBbEkBNFEBDFEA9gU9APII9QDpLQDcIkEM0AkUACLBAMRRAKBVAIYIIkD49gl07QhY+AD6wQBxgkDsAELBAFzlAEyVAD4E9QAuBfpA5MYUdOQAdNy2BarBDJBNAADyQRUkXNjMLQwApNwAQsEALEkArEUA8E0BHEkBQFkBZB5A2ABqwQGISQGaBCJBHRg6wQGAFkDc3AkUADrBAWRJAURNASRRAQhJAOxRANwqQOzYCNwBjsEA1HJA7AAE+Oh6wQDNqkD4AFUM1R0MAV0cAHUU9BkIyEbBAMYEIQC+BEEAthTiQLS2CSS0AIyoxDrBAKiVAI4EbkCoAg2ooLINhsEAoEkAtFEAyEkA4FEA9EkBAEkBCDpBCAAWwQEQTQEYJkEUAC7BASRNATRJAUBNAVBNAVwiQJicTKAAKsEBdKEBjgV5AXQyQRz8FsEBYB5AmAAUyNAiwQFMAkEMwE7BAThJASRRARRNAQxNAQiRAQSZAQBRAPydAPiRAPRNAPBRAORJANAKQQwAMSEkDsEApBJAwMAFFPgEyAApHAAOwQBQUQACBKkAJE0AWJUAcJ0AkJkAqJkAtgXFAKxVAJguQLzkFsEAZDpAwAANKRwGwQAAJkEgAgUmwQBkTQCYSQC8TQDYRQDoTQD4UQEETQEImQENLQEWBBEA+FEAuE0AAEJA0NyJKAAWwQBcAkENKAkUAErBAMhNAQRGQLwACsEBKEUBRFEBYEkBfFUBmEkBqgSiQT1GBYrBAZSRAYBNAXBRAVRFARBVAEwmQNAAGMDcBsEAAApBMTCNPAE6wQB0TQDcSQEMTQEwTQFIUQFgSQF0UQGESQGUTQGmBF0BtgRNAciVAdidAbQ+QSkYDsEBYDpAtNAJMAAOwQDkTQAAKkDAAGkoAD0g6Ii0AFDAkAUpABEgAUUhGCEoAJjAAAi9CgQMtPAMvAIEJLQAFQwAQQj4SMjaCQUgACEdCglsmLwNHAANIPhYyAGhIAA5FPYEXR0QCsEASFEA4E0BHAZBFABGwQFIUQFwEkEIADrBAZhNAbhiQRwALsEB1E0B5E0MoFEB+gQiQJgAMSEkBsEBuDpArMwawQFYBkEMuEbBAPhRALCVANRJAOxVAPS6QSAAaRzw3RwATSEQCsEA6FUA4H5BIAANHRAGwQDYUQDQUQDBdQC48QCoRQB0SQABhkC8zFCsAD7BAFxRAMyJAQRNARiOQLwCBTEMAB0U/EUcAgi+wQEMTQDsRQCUJkDIxDLBAAAOQRQAIQzhAsEAeE0A4AkMuEUBHAUMyEUBSE0BdAkM4DZAyAAOwQGgUQHEUQHYRQzwhkEMABbBAehNDQINokDcwgQhDOBCwQHUiQG8pQGkNkDswEEMAHLBAZSKQPDYVsEBeJkBXEkBTEZA+PgGwQE8FkDwAD7BAShNARRNAQhqQQzwIsEBAFUA+EUA5E0AwEkAkE0APE0AAOkAJEUAlE0A3FEBBE0BJE0BQE0BXCpA7AAmwQF8SQGcSQG4UQHQHkD4ADbBAeRFAfRCQQwCCazcARUdLUbBDPFeQRwADsEM4JkMzJ0MrJUMmJUMiFEBmCZBKUwmwQEgUQDQTQDgBQx0SQEMSQE8TQGETQHoTQH8lQxgQkEoAT7BDFDhDEDlDC4F9kE86Dk4yBE1BDLBAYQyQTQAGsEA6IkAAAJBOAABOKwNPADewQC8SQEAJkE9PB04AArBASBRASkmQKzuBDysAAi07QbBASEOQLz4CLQBSsEBGSZAwQgQvAG0wABoyRIEPNEIWMgAisEBEXkBDFJBRTgE2PgZPAAk0AASwQEERQD8TQD0UQDkSQDQTQCQUQAATkDdJG1NOAjYAKVEAKrBAIBNAOwaQNwAGOz0HsEBKEkBVE0BiFUBuEUB2AJBTABWwQHoJkDsAHjlIcTkAGDc/KDcAgTOwQG4TQFkFkDc8A0pPFkVCAbBAQAWQQDsOsEAAgnuQSUINSgBiQAAXsEA0E0BFB5BFAAuwQFMUQGISQHAQQH0AkEkAgXM7OQM3AIEnOT0HOwB1TFMZN0QUOQAosEB4S0BzDpA2RAQ3AAKwQGMKkFFSBrBAQRRAAA2QTAA/sEAcC5A2AAmwQDkTQEUAkDc+ErBASxNATxJAUhRAVSVAXBFAYBmQNEcOsEBkBZA3AIEbNACBRLBAXxGQNj4DsEBMDZBLRQOwQABfQAkHkFEADLBALxJAPBGQSwADsEBDDZBMSwWwQEYUQEgTQEoTQEwSQE4TQFESQFMAkEwAFLBAVgmQTlEGNgBzTgATT0sjUS4oUQA9sEBYCZBPABpRUgOwQFICkDM/EbBAQxFAAF1ACw6QVEsEsEAwDJBRAAmwQD4iQEURQEkUQEsakDMAMFNLF1QAcVFJCFMAgQdRAAWwQEcKkE9ICbBAORRAAACQLzdesEAeEkAwApBPAAdRRQuwQDcTQDsTQD0lQD5NkFEACk5FgSIvAIE3sEA9E0A5DJBPSQewQC4AkE4AEbBAAF1AHhZAMhFAPQCQNDgUsEBDEkBFbpA0ABA3Nnk3AA02PYERNgAPND4isEBEJ0BDNkBBA5A0AAoyPYEqMT4AMgArsEBAWkA/E0A4A5BMQgEyQBGwQBIGkDEADLBAAC2QTAAfsEAXEkAqE0AzA5AyAAY0QAqwQDYGkElCJEkAYTFKHDQAezJANDEARzIAHjQ+U7BANCRAMSdALhNALBuQKj0CRzkKsEApG5A0ABywQCU3QCGBPkAdHZAtMwFFNwVHAEAtACGwQBmBWZAvNksvAIEysEAfS0AjCZAxOBuwQCcUQCkckDEAG7BAKzKQTwAFTEA9TAA5sEAnEkAcJEAAGZBOOQEyLEawQBwTQDATQD0RQEUJkE4AC7BASgOQRQAQsEBPEkBUE0BaEkBiFEBpEkBwE0B0EpAyACM0LYJVsEBwEkBmEkBXApBFOgE2MBGwQEcDkEMxCTQABrBAOxRAOEyQKgACQwAARQAUNgCCArBANoEEQDIUQC4SQCkTQCQSQBwmQABDkEc0BSstFEIrX7BAFwKQQgAPsEAlApArAAtHAAawQC4TQDI2QCsVQACDapBJNhAtLABALFtAAANJABUtAIYQSjcQRTANQioJMiQGsEAcFEA1E0BCFEBMFEBWEkBiEEBwFEB9UJAyAIUxsEB4E0BxFEBoEkBeFUBREkBEEkA5FEA0M5AtLxewQDE0QC8KkC0AgjkqK4EAKgCFJ7BDD0iQJh0CsEMUYEMYKEAyEEA1FEA5AkMcEUA9EkBBE0BFAUMhEEBIFEBNFEBTAUMmEkBbE0BlAUMrEkBuE0B1AkMvEEB5EkMzIJBKAAJCAAOwQH4ekEUAdCYAglewQHolQHQmQG4TQGoUQGQSQF4UQFgTQFISQE0SQEgTQEQUQEERQEASQD8oQD4AkFFIE7BAPBJAOBRANRNAMhJAMBJALRVAJxJAGxNAEhFADRJAAIEOkFEABE5IdLBAGRNANBNAQxVATRJAVhNAXwWQTgANsEBnEkBtJ0BygmVDLzpAahJAXQOQTEcRsEBKE0A4FEAughZAMCKQTAASSjeEeEU7gSWwQyuBEUMnPpBCPYZaPDdNsEAyE0A1FEA4EkA7EUA/FEBCE0BEE0BHEUBLFEBQE0BWE0BeEkBmE0BuE0BzCpBCAAdFABWwQHlWkEoAglqwQH2BTUB4DpBMRxJDOwSwQHMrkEMAJUwAEbBAeF9AfIECkE5RD0VDBbBAdhJAahVAVxNASBFARhRAShFAUhRAWxNAZBNAbBRAcR+QTgAFsEB3gQRAe4IsQHYSQHETQGUCkDwABU9OBTswCLBAUgGQPjQSsEA7EEAAGpBFAIESsEAUE0AoEUA2FEA+EkBDFEBGDpA+AABKMwOwQEgVQEoRQEwVQE8RQFMVQFgSQF0UQGElQGaBGpBHNIIosEBfDJBDOAWwQFYFkDsACD42CLBATzdAUhRAViRAW09DI4EGkDtBBj4AMLBAUxNATjpAUhNAVSVAW4QwQFMQkDU7BLBAShRAPhJALRRAExNAAAyQQwArsEALFEAeE0ArE0A4EUBBE0BIFEBPEkBWFUBeEkBmE0BuFEB1EUB5M5BHAAWwQH0ekEoAbE8Agys7AAFRUAI8REM8ACdRAIFlsEBvE0BbBJA+QANTVQ2wQEYSQDclQD0UQEMSQEkUQE8UQFcRQF8UQGcVQG4fQHMSQHcoQHyCUZBTABA0PwOwQHgWQGoSQFMTQDkCkFRIDTUAAbBAKhVALxJAOhJAQxNASRRATxJAVBRAWQmQU1QKsEBeB5BUAAywQGMUQGcQkDQAFLBAbTKQUU4fUwBlUQABUFCBDVAADLBAYwCQPgALPDwEUVADsEBPAZA1NxSwQCsSQABLQCkSQDsUQEUTQEsSQFADkDUABlEACrBAVxNAXhNAZhRAbBNAcYFPkExMgRewQGkOkEwAA7BAWQyQOzUDTUoGsEBCAZA8AANFQAEyMg6wQABxQCciQDoTQEUTQE0TQFYDkDIAD7BAXxNAaRNAbydAdIJmQHAIkE0ABEg/B7BAYhJASgaQNC8LsEAfFUAANZA7AAOwQCIUQDcTQEIRQEgTQE0WQFAQQFMTQFcmQF0lQGMekEdABUgAA7BAaElAbTlAcYFFkDs/CrBAYxNAURJAPhNAOBRAPRJAQxRASRJATxRAVhNAXRRAYwaQOwAKsEBnJ0BrA5BFAEZNQCtHAIIGsEBkE0BWCZBNAAZMPwOwQEEDkEAqG0QzArBAAHJACxNALhRAPhNASRNAUhGQNAACsEBdA5BAAA+wQGoDkEQAD7BAcxRAeIEZQHwskEwAgUiwQGkOkDkzAEpGBbBAUBJAOQWQRS0NsEA0FEA4E0A+EkBCEkBEXJBKABhIOUhIAAVKPB6wQEMQQEETQD8AkEhFAUoAErBAPhRAOxJAOSZANjhANCdAKxRAFxBAAEaQNDdlsEAiE0AyFUA6D5A0AAGwQD4SQEB0QD8SQD4SQD0MkEdACLBAPAqQSAAaRQATsEA5KEA3N0A1b0AzI0AwFEAsE0AmE0AABZBHAAMwLAZFO3ewQBISQDMUQEMTQE0IkDAACbBAWBNAZBRAbxNAdgeQRQCDZLBAbhNAWwqQLTIJsEBDCJBFQRmwQCkTQCImQCwTQDESQDUOkDkAULBANzpAOYMzkC0ADS8vgRdIPwdFAIEqSAADR0N8RwAhRTgDsEA3JkA1FEAyEkAuEkAlFEAWD5BFAAKwQAAUkC8AFEw/BDAtf7BAJBNAPBJASRNAVRVAYxJAcRNAfoQeQGgUQEoFkEI7CiYrF7BAAA+QMAApsEArE0A7EJBMAAOwQEMSQEcmQElfQEs1kC0+ghcmAAiwQEkTQEQUQDwGkDJEAS0ADLBANDRAOhJAQhVARxBATBNATydAUhRAVBBAVydAWzSQNDciRUMKMgAHQgAIsEBPFUBFE0BDJEBHGJA2Pg80AHGwQEITQDoTQCADkDYABzQ8CLBAAAiQRQACSENqsEAXEkAhE0AsFUA2EEA+EkBEFEBHJkBKE0BNFEBQE0BVIUBbEkBhBJA2PBCwQGUlQGoFkDQAM7BAbhmQNzwYNgAGsEBzJ5A3ADqwQG0UQFoIkD5CBjZAAbBAPhVAADdAEBRALBNAOBJAOoFXkDc7JTYAWDcAEDk8gTsyPho5AA6wQDh9kEI+GEgACD4AczY+CEBCBDIAJEIAYUAAAz5DWrBANRFAMhVALBBAIRVAAASQR0YJNzkRPgAcNgCCK7BAIg2QO0EEsEA2EkBBE0BHFEBNE0BREUBWE0BaE0BfFEBjAZA7ABGwQGeBKUBdFkBKB5BFRgmwQCwDkDw5EEcAArBAACKQNwBOsEAXE0AnE0AyEUA5FEA9EkA/FUBBEkBCSpA3LxSwQEOCLpA2NiQ3ABGwQEWBKkBCEkBBNZA2AAM0NwZMSw+wQEI5QEMlQEQSkEwAgSuwQEITQEEMkDQABrBAPQyQMzsEUUsBsEAxFEAAgRVAHBRAMBFAPRVARRBAShRATxJAUgKQRQATsEBWJEBeEkBjBJA0OBGwQGcmQGw3QHAnkDMANrBAdIEHQGoRQFcQkDM2AEdEBLBAPQKQUQANNAAFsEAAHZA8AFOwQA0TQBMTQBkmQB8RQCQUQCkSQCwTQC4mQDA+kDMAADQ3HbBAMnmQNAABNjmBHy83AzYAErBAMBNALF5ALx+QUUUGsEAxgQ2QLwACUQAFTz0HMzmBCk5EAk8AZbBALA2QMwAEsEAiEkAALJA0MxBOAAFPRIEPsEATE0AsE0A7FEBDE0BIA5BPAAdHAAmwQE0TQFEUQFcSQF0SQGMTQGgYkDY4gS03OAs0AAA2AHCwQGEUQFYFkDk5DbBASgWQSEoBNwAOsEBAFEA9cZBHSIEKSAARRUsJRwATsEA+XZBFABlDRn5DAC5CR4EWTEAMQgA7sEA9N0A8HZBMAAmwQDkFkDY8BkpCB7BANRVALhRAJRFAHAGQNgAksEAXJJBKAAKwQA8RkEhBArBAAIFqkEgAEUo5DjAobLBAJRRAOxRASBJAUguQSgAGsEBeFUBpFEBxgWJAbCRAZhNAYhRAXgJDJzdAWjdAVxRAUxNATxNAShFAQwBDKxNAOxRALBJAAAaQPi8RMAADLy4JPCoUsEMvJ0MzI0AnAUM5E0A5E0BBEUBFAkM+CZA8AAM+AAIvABWwQEEVQDkRkDkAAbBALxRAKRNDQkpDRoIuQCQUQBkSQAAukEAwEDspAjAqBDcoU7BAHBRANAmQNwACOwAEsEBAB5AwAA+wQEYCkEAAELBASBRARSJAQBNAOBRAM0pAMBRALUpAK4FPQClgQCATQAA6kEIyCzIrCDkugQCwQCYMkDkAB7BAOQmQMgALsEBCA5BCACWwQEARQD4TQD05QDyBOkA6N0A3TEA1FUAyEkAvgRZDQoE6QCwZkD4pCCsoATsqAEMsGbBAKBJAIRVAEoECQBcTQCgVQDcSQEIiQEkTQFEUQFsSQGcRQHQUQH5+kCsAgjWwQHgVQHISQG4mQGklQGEUQFoSQFIVQEoSQEMTQEE3QD8TQD0UQDoTQDcIkC8ygQAvAAmwQDWCC0AzEUAxB5AyLQ6wQC8RQCsUQCdKQCoVQC4zkDIAhVY3IoEksEAwEUAzFEA4EkA9FEBCEUBGE0BLE0BRFEBYE0BgEUBlE0BqE0BuE0ByEkB2BpA7ACCwQHwzkD4AFkMAQDcAggCwQHgmQHQmQG4lQGknQGUmQF8RQFkTQFIUQEsRQEQVQEATQD8lQD4mQDwTQDkTQDcRkFFEAbBANCZAMjhAMBJALhRALHFAKjpAKDJAJBKQTkoBsEAfC5BRAAiwQBMVQABdQCEUQDkTQEYTQFALkE4ABrBAWhNAZBRAbRJAcztAdxNDPoMxQGoOkExHBbBAWhNASxNAQBFAPYUdkEwADEo6gkxFM0uwQDyCHUA6D5BCOoUmsEA4KEA2EkA0E0AwEUArCJA8OgywQCcSQCKBBUAmE0AuFEA2EEA9FEBCFEBGE0BJEkBNEUBSFEBXE0BbBpBFACCwQGITQGYTQGoFkEIAD7BAcBFAdCZAeG6QSgCDFExKDkM9L0MAGUwAggxOTw1FRQOwQHAUQGASQEkSQDwUQD4RQEUTQE0SQFUVQGARQGoVQHIUQHcfkE4AgQSwQHuCMEBxEUBkAZA+OQM7NApPTQWwQE4VQDEMkDwABbBAAGKQRQBesEAQEkAmE0A0EUA9EkBCFUBFEUBIAZBKOyWwQEolQE4WQFIRQFUUQFklQF+BCpA+AA1HQiKwQGNeQzqBNJBDRQc+Ph07AGmwQzaBTpA7TEg+AIUUsEBYFUBICpA1SAiwQCUUQABMQCERQDQUQD4TQEQSQEgSQEwSQE8VQFITQFcSQFwUQGMTQGsTQHAPkEMAFrBAdTlAeQSQRwAeSgAksEB+PEMyHpBPAIJBOwA2UVUEPEZyUQAFPACBPLBAcRRAWxNAPgSQU1UGPkgGsEAjAkMuEkAnE0A1E0BAAUMqIEBHE0BNE0BTAUMlE0BZAkMhEEBfAkMcFEBkAEMXAZA1ABCwQGgTQxMSQG0lQHMTQHgEQw4OQHwlQwqCO5BTABA0PwywQFsRQDkUQBwBkFRQErBAJAFDABFANBJAQRJAShVAUhNAWxJAYhRAaRNAbRuQVAATNAAIsEBxW0B1epBTQT5RRwBTAEJRABpQTjtQABmwQG4AkD4ACDxAAFFXDbBAVwOQNTkOsEAzEkAAKEATEUA4EkBHFEBTFEBfCpA1AAiwQGgSQG5fQHIakFEAHrBAdoEykExQgSCwQG0OkEwABLBAWwqQTU4BOzwHMjsCsEA8AZBFRQ48AAGwQABMQBkTQDQUQEESQEkUQFAUQFcSQF8SQGYWQGwYkDIACrBAcjhAdk5AenFAfoEDQHcTQGMIkE0ABUhNB7BARQKQNDcQsEAAOEAXE0AyIEA+FUBFA5A7ABCwQEoTQE4TQFAnQFQSQFclQF8UQGMlQGgMkEdPH0gANLBAbTpAcYE5QGsTQFwTQEYDkDs7EbBAMiZAORNAQRRARhBAShRATBNATxRAUhJAVQyQOwAbsEBdJEBiJkBmCJBFAC9NQlywQGtgkEcAgRhNAA+wQGAGkExBD7BATAmQRDQDQCwFsEArA5A0ABKwQABdQBkUQDcRQEMUQEsSQFIUQFkGkEQADbBAYhCQQAABsEBpFEBuFEBzckB4HJBMAIEHsEB8YUB4E0BsE0BXEZBKQwGwQEIDkDkwD7BAOwaQRTAOsEA+E0BDE0BGEkBIJkBKU5BKABVIPz1IAA1KPR6wQEcSQEUCkEg4BUoADLBAQhNAPxJAPRJAO2BANxVAMBBAJBNAGRNADRZAACqQNDoisEAQE0AbE0AgR0AkLpA0AIFER0AWSACBDkUAgUJHAAKwQBcLkDAlCLBAAAGQRTiBBbBAIhVAPBBAShJAVxVAZAKQMAAQsEBvEJBFAASwQHYlQHp+kDkAFrBAfoJnQHAEkC0tBUU9CbBAWxRAQxNALhFALBNAMhJANxNAOxNAPoFQQwiCaJAtABwvL4FGRQAERy41RwAMSEE4SAAgR0CBBEcAIkU8a7BAPCZANwyQRQAHsEAwIkAgDpBMQgEvAAOwQAAdkDAtVbBAIBNANxNARRJAUBVAXhNAbhFAfoNTkDAAF7BDDDhAdRRAXQqQJi0FQjkDsEBAE0AAC5BMAEOwQBwSQDAhQDkUQD8SQEMVQEYQQEgmQEthQE0KkC02gQ4mACKwQE8oQFEkQFMnQE4RQEcOkC0AAjI/AbBAQxVARBNARxRAShJATRRAUCVAUxJAVRRAWCZAXiRAY0mQND0CsEBcBZBFSRCwQFERQEUAkDIAFrBAQhKQQgAPsEBFEkBIFUBKEkBNCJA2PQY0ABWwQE+BEZA2AAawQEgCkDQyE7BAOgiQRQAESEgIsEAASkALEkAlFEA1E0A/E0BGFEBKEEBMFEBOE0BQE0BTEUBYFEBeE0BkE0BoH5A2QAewQG04QHMBkDQAJrBAeB+QN0EEsEB8EZA2ACI3AFWwQHUQQF0UkD5EATZEDLBAPQCQNzQSsEAAOEAPE0AqE0A1EpA3AAGwQDeBXJA3Ohk2AHOwQDURkDcACDk2MLBAM3yQMjoQOQAysEAxWZBCPAc+AAtIAIEdNjcAQEYCMgAiQgBnQAAGPkFxsEAvEkAsE0AiFEAQD5BHRQOwQAADkDczBD4AKzYAgQuwQAkUQBwSQCgVQDARQDQUQDkRQD0TQEEUQEUSQEgKkDs5CLBASxNAThRAURNAUxRAWBJAXRRAYg+QOwABsEBmgWFAYA6QRUgFsEBSBJA8NglHAAiwQD8QQCcDkDcAELBAEBJAAExAFBJAIxVALhFANxVAPBJAQRVAQw9ARTtARyRASQGQNzISsEBLFEBNJkBQgXWQNi0NNwCCHLBATiZASwiQNgANsEBIA5A0MwJMQR6wQEYmkEwAFLBARF1AQ19AQRNAPhRAOhFAMQKQNAAIUUAFMzoDsEAbFUAAcEAXEkArFUA5EkBBFEBFEkBIFUBLEUBOFkBRApBFABywQFMUQFYfkDQ5B7BAXSVAYRCQMwCBSlEAQbBAWhRATA2QMzYHsEA6AZBHRQk0AAewQChhkDwAgSewQCpYkDQxLLBALBuQMwBlNj4YNACBIzYAAy84gQZRRYEgLwAJUQACMz0AT0aBBE8AFk5FRbBAKTlAIhFAGhRAAAGQMwAUNDkJTgACTzyBPrBAHRRAMxNAPwiQTwADRwAIsEBGEEBKFkBOEUBQJkBSJJA2NzqwQFRikDc8GzYAEzQAU7BATxRARxJAOwSQNwAEOTgLsEAwEpBIMQGwQCwikEobNUoAMkdGDkgAfUcAB0VFgQdFACRDRHdDABmwQCYIkEJFDLBAFhNAAIEBkEIAB0xFgQ5MABNKQRM2NTQ2AChKAERIMDKwQxBOQxUXkEgAL7BDGh6QSi8CMDEXsEMgKEMlI0AXAUMrFUA3AUMwEUBFAUM4EkBQAUNAApBKAA+wQFsCQ0YSQGUCQ0sSQG0lQ0+BKEBoJkBjKEBeJEBZFEBWE0BTE0BQEkBMFUBKA5AwAA+wQEcRQEUTQEMTQD0UQCoRQAAWkD42Ci8rATwyUrBADRJALCFAOxVAQgiQPAADPgAGsEBFC5AvABqwQEMUQD8TQDkUQDQEkDkAM7BAMYJWQC8QQCsWQCEQQABGkEAyDDsnDjAoAjckN7BAJxJAOxVARBBAShKQOwABsEBOFEBSE0BXA5AwAARAACI3ABCwQFMUQEsgQEQTQD8TQD5xQD05QDyCeUA5EJAyLgKwQDYFkEIvDTkmArBAMBFAIhRAAF9AHxNANRJAQhJASwOQMgARsEBQBZA5ABlCABuwQE0UQEsTQEkhQEcmQEQlQEMSQEIUQEETQEATQD4TQD0TQDsnQDklQDc3QDWEPpBCKgcrJgA7KQQ+LYVeQycZQgBXsEAzSkAxXUA2EkA6E0A/FEBEE0BJEUBOE0BTFUBZE0BgEUBnEkBvFUB1CZArABywQHqCHEB1JEBwE0BrE0BlE0BfEkBYCJAvJAywQFESQEoUQEMSQD4QkC8ABbBAPIEBQDqCBpAyJYEqMgCISjcbgiewQDw5QD0kQD4mQEATQEEUQEI0QEQnQEckQEooQEw2QE8oQFETQFMTQFUUQFclQF0lQGM4QGhfQG1LQHFLQHZxQHt8kDcAgQE7ABU+AG9DAIEysEB3gQRAcjlAbSZAaDhAYzpAXzdAWiZAWBJAVhVAVBFAUhRATxJATTdASydASUhARzpARV5ARIEWQEOBBEBCJ0BBhAxAQDlAP4E8QD4RkEo0KbBAPRJAPEOQTz0DSgAFsEA5FEA3EkAzFUAwJEAsFZBPAAJTOGFTAA1OQRGwQ0soQCpFkE9DCE4AbU8AFlNAbVMAB0pFfUoAA09Ic08AB1NHalMAEU5GSk4ANU9GV08AElNLTVMAKkpKY0oAMExLckhIA0wATrBAJhJAIQCQSAASsEAQE0AAA5BDQjhDACOwQBwTQDkPkE9BBLBARxNAUhVAXhBAaBNAboE8QGYFkEhGB08ACLBAWBNARBRAJxJACxKQSAAhSkqBC0dLAUoAYkcAGENGA7BAAFSQQwA+T0IssEAjEUA6FEBHEUBQFkBVEkBXXkBVE0BSCpBPAAqwQE4EkEc8DbBASBJARRVAQxFAQRVAPw+QRwABsEA9E5BIRBawQDojQDcVQDUmQDMAkEpIHEgAG7BAMBRALiFAKxVAKQaQTEwQSgAQsEAkJUAdEkAZJEATBpBKTQdMABqwQA8UQAkSQAA3kExJCEoAckwAAkhMfkgAC0dJPrBAEBJALBNAOwqQRwAIsEBEBJBKSBKwQEciQElAkEoADE9Me1NOAk8APrBAR0GQUVECUwBQUQAtQzwGT1EvsEA8BpBPAA6wQAAPkEMAF0pFFFFQHVEAQUoAIU41f1FLAU4ADEk+F1EAYkkABUpDAFFEHlEAOEoAJ045QU4AVFFJAUVCHlEAPkUAGUpFFFFMGlEAGUoAOE43OE4AUEk9B1FLJFEAQkkACUpCJVE/GVEADkoANE46KU4AZUU/CVFAHkUADVEAWEpDBkc+QUcAAUoALENBBE8/NU8AEkMAJj5IEFNDEbBDRw2QUwAtsEANEpA+AAKwQDwTQE4KkEpNAFNOCLBAXBFAahVAcwWQSgAAUwANsEB4LZBPRTZPAEiwQHQSQGMAkEpNA0NQD7BARBNAAAqQSgAkQwAySkgJRUlRRQAHSgAXQkkCTk1bTgAnPk0QUUwCQgAnUQAyPgANsEAkDJBKTwVRUAOwQDkTQEQTQEwHkEoACLBAURVAVhRAWxCQTk8WsEBgBpBQLxFRAA5QAA9OAENKVwRCTAiwQFwSQE4UQC8IkEoACrBAAD+QQ0oCSlABQgBhQwAWRU5CRQBFR0RnRwAaSgASRUINSUhNRQAuRzxpRwAPQ0GBAkJEDUMAAUpLBUkAaEVGE0IAX0UAFbBAGgCQSgAFSEIOsEAsDpBIAAWwQDgRQEAUQEYTQEsTQE8NkExUA05QArBAUxVAWBJAXhVAYxBAaA6QTAAYsEBsBZBKSmVOAAlKAB4+RAtITTpIADCwQFwPkD4AArBAOAGQQ0EKT04GsEAAC5BHNw5PAAxHAANDAFhHOjtHAEZRTANCOwdKQxdRAAlKAD+wQBMUQAABkFNTAUNCBUpKBUIAElMABEoAFEMATUc3fVRRCz4/BEpHEEcADkoABFQAXT4AAUNBCFNQA0pKGVMABEoAKUMAQ0c2ZkcADEpKBlFLCEI8GFEACEoAOUIAEk9PCENBI7BAOQKQQwANTwACsEBKEJBKOjRHNzRHAANKAABPH0RHPQo+QAewQEgWQEYNkD4AA7BAQxGQRwADsEA9E0A4FEA1IJBAQgJDRxWwQDMUQC4QkEMAArBAJwCQQAATsEAeE0AZFpA8RQywQBQCkEhKJbBAAAaQSAApPAAYN0oRTEkoTAApsEAgA5A3AA+wQDkRQEcAkENNBkxPDrBAUBVAWAiQQwAKsEBeRZBITDhIAAZMADY8Sw9DUBqwQE8TQDkDkEMABzwAC7BAAC+QPkkSQ049PgAMQwAfR04VOz0nRwA7Sk0jOwAUSgAKNzcUQ005sEAXC5BKSgawQDIQkDcAA7BAPRRAQhNARCRARxKQQwAPR00EsEBKC5BKAC+wQEwOkEcAQENFBTs7Azw6B7BARBZANxJAFxJAAAeQOwABQwAfsEASCJBFTgg+PxQ8AAA8HRY+AAY8AB2wQBcTQBsfkEA+U7BAIAiQQAAMPjxWPgArQEMSTwALTkgKsEAkEkAvFUA6EUBAOJBAAA88MxWwQEESQEUUQEoDkDwAD7BAUBNAUwmQRQAdQDglsEBWApBAACOwQFwTQFgJkDtICrBASgyQT0kJsEAzAZBDQxGwQBATQBsDkE4AD7BAMBVAPRJAQBJAPwSQOwAPsEA+GpA+PB2wQD8NkD4ANzk9Z7BAPQCQOQAGO0NssEA8EkA6DpA7AAWwQDgVkDwmJTwAJbBALBRAAAqQN0MCSlAdQwAgTwAQsEAhE0A5BZA3AA+wQD4PkDxBA7BAPQuQTE4dPAADSgAVShoBSgAdsEA4FEAgEUAAEpBPRARMAG1PAAVKSQU7PnA7AApMSgJKAAE8QSA8AFNMAAlPRYEBR0UEN0IZTwBMRwAhSEIBOUACNwBfOQA5PDeBBDwAATc/ezlCEzcALjkAPTw7VzwAJEgACE9FBjREaTQAElFLCTZGCk8AGjYAWFEAAFRFbFQAHjRFA09JfjQABVFOCDZICU8AGTYAPFEAHVRGe1QAGjlBAEw5Ck0+IbBDQxOQTQAKTAAQOQAbPkILTkdcPgAhQj0DUUUOTgBYQgALPUUBUQAITEyBAj0AAD5CEU5MGkwASz4AEUJACVFKBk4AGEIAUVEAEklMCDk0bkkAC0pQAjkABDtDODsAIEoAIE5MDD4/TD4AEk4AEElMDTk9eTtBBkkAAEpKCLBAIRRAKgCQOQATsEAyFUA4B5A7AAmwQDodkD5DBk5MArBAPAKQSgASsEA9CZA+ACuwQD4xkE4ACLBAPRCQRUwDsEA2FUAcEkAACZA2OzJFAB5HSRc3QwU2ADNHAAI3ADBKRwewQ0dzkElIAkoAFDRIXkkAEkpMFTZGBzQAIjYAOkxMG0oASUwAIEdMAzdQazcAE0cAETlSB7BAJgCQSU8TsEAACJA5AFJMTQFJAH5MABBKSwQ2S3dKAA43TQFMUAE2AC83AEVOURVMAHM5SgRJUDdOAB5JACdKUAI7PB85AAawQDIOkDsABrBAIhRAAByQSgAXsENLDJBOUYEATgABPVADTFFeTAAgTlIFPk8JPQAUPgBZUVMMTgBGUQAuT1cfOT0BOz4RsENFJUM8EJA5AAGwQzcFkDsAD7BDMwKQPVMLUVUEsEMtCZBPAAywQyMTQxYSQwsSQCMUQD0DkEBMEbBASgaQPQAJsEBVFEBiFEBwE0B+EpBAAB5FThxFAHpJWA1RAA2wQwA3kEkAJkxVSEwAPk9XAi1PL08AB7BAeBJAThJAABGQLQAOMk4FTlocTgBHMgAVNkCBBzE8DjYAA0xMC0VCGUwAB0UAQjJGAjEADU5YCkVOEk4AB0UAIzIAFrBDCCWQNj9yNgAgLUUCT1ALRUoaTwAERQA/LQAJMkUTTlcHRU4RTgAHRQAMsEAhEkAAE0MOBJAyAB02QYEEMUUDNgAMTFACRUshTAACRQAJsEMJNpAySRZKWAkxAAmwQCsFkEVGD7BAVQqQSgAHsEBgAUMODJAyABc2SDRKSApFABA2AFctTAFCUiewQFAJkC0ACbBAMwCQQgATsEAAMpAvTQI+UEE+ACIvAAsrTQ1DUC9DACQrACAmUAtHUDNHAEUmAAAyWApHSQOwQEMUQGAKkDIAB7BAeRRAfziQQ0skRwAbQwBMK1YMPlAVsEBtEZA+AAOwQEQJkCsACLBAAD2QLVAIPlNBPgA4KlADLQAGQlIzQgA+KgAFJk8BRVI0RQAyJgAWMlcHsEA+CpBFSwywQE0SQFMFkDIADrBAVxJDEjmQQkkDRQBeQgAXKk0NsEBPAZA+SROwQEERQCcGkEoAD7BAACaQKgAPPgACK0IYQEpXLUQHKwByLQAtLzgdSkFiLwAFLTsCsEMWCZBKAApJQ1wtACUvOAKwQxp/kCs9AEkAAi8ABUc+WysAHSo/BEAAAkcACUVAUioACSs/AbBDHmGQKwA4LTkQPj5oLQAFKz0wR0QGRQBJKwAlLTl4RwAOKjkFLQAIRTVIKgAqKD8ARQAOQ0VNKAAgsEMiBpAqPwtDAABDHDEqAEE+AAg9QwkrPFkrABVDAAoqPA9FPS0qAE4rOVUrAEc9AAJFABJDOQEoMkUoAC9DAAdCQQMmQgqwQD0UQEcBQyYQQEATQDITQAAYkEIADj48E7BAFxVAJwFDKiSQPgArJgAKKDwHQzsgsEAhE0AcSJAqQwJFPgYoAAxDABewQBYdkEUAKj49FbBADxNAAE6QPgApK0QBR0UtKgBQKwABRwALPUkCLUlBPQBAOTpNOQAxPkICL0cQLQBdPgAWQEMFMUUCLwAyQAAIsEALFUAkFEAyE0A3CpA5NDQ5AA6wQDoRQDwUQD4SQEEAkEJJCzJRBjEAA7BAQhFARAGQQgASsEBGFEBKA5AyAA+wQFAUQFoUQGUJkChTBkNQF7BATxNAABGQQwA+QEZSQAA+RU4IKkoDKABzKgABsEAPAZBHTAcrTQZFAAOwQB4VQAArkEcANkA+aUAAHS1OEElKBisAM0kAMC0ADi9MAT5Pcz4AFDtFVjsAODFJBEBHBS8AcjJSAUJPF0AAEDEAOUIAGTtKVjsANkNQAzRJBzIAYkMAI0VQAzZUGDQAAzYAdkI9eTdSBj1IF7BDJimQQgAQNwA8NlIAPQAQPkwNNgAuPgAJsEMrPJBCRX00UgM5SxhCAA+wQyY7kDkAITZWAz5QBjQAEzYAILBDKwCQPgA3sEMvFZBCSoEGN1IKPUcZsEMqNJBCABw9AA+wQCkBkDcAATZTAD5LJLBAAAOQNgAfPgAEsEMwM0M2EJBCSwSwQAkTQABvkEIABDRTADlWOTkAELBAJRRANBJAMQ6QMlEBRQAARQ0FsEApBZA7Vg2wQCEAkDQAJUUAE7BAKAqQOwAJsEArHJA3TQNDUAewQCcBkDIANTcAFrBAKhiQQwAHO1AFPlcTsEANFEAAApA7ABc+AEM7WAtKVh2wQBkSQDkPkDsABbBARRNASyCQOywBN0ooOwAENwBSMkoJQ1EjsEBFEpAyAAGwQCwUQAARkEMADUoAHTJXD0VSJ7BAExRAMQWQMgANsEA5KpBFAAU2UgNCVDQ2AAywQDcNkEIABLBAMxNAIBNAAAWQOVECPlUoOQAXPgA/OU4SSk1LsEA+FUBIDZA2Sxo5ADo2ACsyTg5CURCwQEYEkDIADLBAPRRAABeQQgArNFIHMk8JQ1EJSgB6RVEGQwB6R08NRQB4RU4IMUcCRwAIMgBmR0wIsEAbApBFABCwQDESQD0AkDEAFLBAQjqQQ0sRsEBDOEBFBZBHAA+wQEgGkEMADrBATgmQMlMJsEBXApBCUwU0AAqwQFsUQE0SQAAXkEIANkVOVkUANENTBzRSEjIAQkMAIzZQDEVVCDQAaUUACklSZkkAGkdWCTdVKjYALjcAJzlSA0lYDUcAcz1XBExXAkkABTkAPUwACj0AIjlWDU9ZOE8ATE9eAjRNHTkAO7BAPRBARBBAPwaQNAAOsEA8BZA5SwNMURpPAAKwQD0WQD42kDkADDRPB7BAQAeQSVgOsEBBA5BMABCwQEI3QEATQDIMkDFQA0kAAUVYA7BAAAqQNABBRQAUsEAUG5A0TwFJWQmwQAAFkDEANLBAEhJAHBNAIRSQTFcDMVMQNAAFSQA1sEAnEUAqF5AtVggxAAFPVAWwQCMHkEwADrBAAFGQTkYJL1YCsEASBZBPAAstAASwQA0TQABvkExPATFXDk4ACC8ADLBDMiKQMQAXsEMuE0ArBZBOVggyXAWwQDwCkEwAErBAOAOQMgAQsEAwFEAUEkAAFEMyJJBMSQROAGtKTQFMAAY3WAVHRRVILAFKAAlHABGwQy0BkDcADEgAGbBDKBuQRVoIOVYASlcBsEA3E0BNAkMsBZA5AA2wQFAJkEUATExRCLBATgaQSgAQsEBKEEBEFEBAMpBMAAWwQDwBQzASkC1PAENSAbBAKAKQSVASsEAANZAtAAxJABRDACMmUA5KWH1FUgQqTStFADYqACYtUANCTxxCADmwQDIKkC0ABbBAPgWQJgAQsEA/EJAyUwOwQEUBQzQEkD5RELBAUgJDPQCQSgAFMgAIPgAFsEBjA0NKD0BzAUNUEUB/AkNbFENiEkNmJkNrgRdAbRRAXQiQSkcNsEBPD0BBFEAyEkAiFUASEEAAEpBPTAlKAHVPAB9TQGpTAAtORX5PSBVOAEtPACtTQmtTAAlKRH1PSgVKAH5TRwJPAB6wQ2cmQ2M0Q14PkE5PAVMAFrBDWiVDUgyQTgAHsENME0NIGJBPTh6wQ0MnQzwkkE8AArBDOBqQU01SUwAhSk9bSgAuTE9uSEwWTAA9SAA0Q008QwBOsEAlDJBPTAawQDkkQEMTQEsSQFMWQFsRQGQSQGo5QzxeQGETQFIDkE8ABEg8DLBAQxRANxBAMRRAKxNAIQ6QSAAQSk1BsEAaJUAUF5BHSwJKAG1HABRDSxCwQA8SQAAzkEMAPU9KObBAEhFANBRARBFATRVAUoEnQFAJkEdBCbBAThJAShCQTwABsEBGFUBEFEBDE0BBE0A8BpBIRgJHAAqwQDcUQDIQQC5LQCsBkEpMHEgACLBAI1+QTE0TSgAosEAfUJBKTAdMAHRMTgRKAHGwQBcPkEwAAUhNBrBAAHSQSAAJsEAPFpBHT2BHABdKTx2wQ0AUQBYlQBwmQ0QFkE9LBUoACbBAAEtAFg+QTwADsEA8FEBPAZBTUBOwQF8TQGwTQHErkFMAD1FQSlEAOLBAdRRAehFAfwOQQ00jsEBpFEBDE0AABpBDAAtRUQpKSB1RAEhKAD5OO21OABNJPQZRRSdRAFNJAABKRQ9RRh5RAClKACNOO19OAC9FTAdRTTFRACVFACVKTBZRRh1RAB9KADFOQGVOADRJQAhRUDJRAD5JAAJKRhRRTgiwQB4UQDgHkFEAHEoALE4+M04ATbBAMwuQUUwJsEAhApBFQhGwQAATkFEACUUAQrBACQ2QR0cASkUFsEAcFEAlFEArCpBKAAWwQC4PkEcAJkNKB09DME8AF0MAKbBAJAeQPk8GU0gGsEAAH5BTAGc+AAhKUwRTSwKwQDEUQEQSQFAUQFwDkEoAD7BAaA2QUwAAUy0EsEBxFUB2CZBPQBBTACxPAFZDTQtKSgOwQG4TQFcRkEoAA7BAKxFAAAWQQwA4RVALSk1FSgAqQk8ERQAMTkpCTgAjQgADPlAXUUkoUQBDPgANSlIGUVABsEAcFEA8E0BKE0BWB5BKAAiwQGAWQGgHkFEAAFEwEk5MOFEALU4AM0JJCUpUN7BAXwGQSgASsEBJE0AACpBCAA9DRwxKVHBDAAhFSHNFAB9HP3NHAAVKAAtFSAlJTlBFADNHQ3JHAAdDQYEESQAISk8MQkIBQwByRUgxQgBPRQAMSEgGSgAWSAAksEA5E0BFE0BLCJBOUgJMUgawQE8BQ0gUQFUSQF0VQGgSQHEBkEwAE7BAdgyQSkVqSgAFTgASPlACSExHSAAzsEB9BJA+AAlDSgdPUgVHSQuwQGkKkEcABE8ABrBAPQmQQwAIsEAASJBHRoEYUVIDQj4BRwADSkkfSgAOUQBTQ0QHU1IHSk0FsEATAJBCAAlTAAewQAAFkEoAJUMAD7BDTCSQRzuBBFRWBz5BB0pKHUoAAkcACFQAS0NHBj4ABVNWA0pSHkoAAVMAD0MAAbBALRRAADyQRz1URwA1SlEIUVEFQj8uUQACSgA3QgANQ0UGT1YqsEA4AJBDAAxKQAFPAAWwQEkVQE8ikEc8OkoAAk8yCEcAOEc8CLBATAeQPkgPsEBFEUA+FUA6ApA+AAZHAAqwQDgTQDATQCIUQB0JkEBJDUNGOEMABEAACrBAABiQPEsRSE8qSAAkPAAeN08JTFA5TAAuNwAEsEAsEZBDUgKwQEUGkExMDrBATyFAVhKQQwABsEBcJkBgJZBISi9MABlIADA8Tg5DVBKwQFsUQEgSQAABkDwAAUMAOj5JDENQQUMAJD4ABTtIBEdSNkcAGDsALzdNBEpSN0oAOjcAB7BAGRCQQ00DsEA6AJBKUBOwQEgVQFURQGIAkEMAFLBAbRRAchyQSgACR1BvRwAiO0cHQ1AVsEBdE0A8FEAAIpBDABA7AAU8QgxFUH0+RQc8AGA+ACJAQFpAAANPABk+QwpORjKwQCEQkD4ABLBAOhJARASQRQARsEBIEZBAN2dAABA8PoENsEBFCpA8AAU7RAOwQDoUQAAFkE9GAkNFJU4ABjsAQD5BgQg5QQU+AHQ5AAI7QFs7AC0+PEZDAAI+ADNPABE3OwFKQoEHTEcCPEIGNwAMSgATPABLTAAQT0R/TwAHO0cBSkmBCUxNAjsAATxID0oAEDwAF7BANRJAPhRAPRNAOwmQT0gBTAAusEA+EkA/FEA9FEA4EkAxEJBHRgKwQCoBkDdDGU8AH7BAADaQRwAgNwADOUIBSEgEsENQRZA5ADI8QIEEPAABN0KBEzlGFTcANzkADEgAITxFgQo0SAJPRRc8AGhRSwQ0AAI2TQdPAAawQ1URkDYAFrBDXhVDZRJDbRNDcgaQUQAIVEQXsEN3XJBUAAg0TgdPRiywQ3JXkFFJBDQAATZQEE8AEDYAUFEAFLBDdg2QVEeBA1QAEUxHBDk9DjdDBrBDciCQNwAtTAAROQACPkEVTkZQPgAaQkAPTgAAUUVmQgADPUgDUQAQTEwQsENtJkNpN5A+RRY9AAFOTRtMAE8+AAZCRQlRTgVOADBCAEpRABBJTwE5SCGwQ2RLkDkADUkACUpPBDtGPzsAHkoAH05ICj4/QD4AIU4AG0lMBTlDVEkAJEpLAztDFDkAKLBAGQmQOwAIsEApGpBKABc+QANOTQWwQCtgQAACkE4AG0VQBzZDCj4AUUUAIDYAFDdNBkdOKTcAIUcAO0pKgQFJTQNKAAI0SFpJACdKTwc2Tw40ABU2AE5MTSFKADdMACxHSwk3U0uwQ2AckEcAEzcABzlRB0lOHTkAA7BAMhVANRJAAA2QSQAGsENkKZBMUGhMACJKTw82TG5KAAw3UgZMTRY2AB43AEJOTRBMAH05VgVJSjNOADdJABJKUAo7WBg5ABI7ADpKABpOT4EETFIQPVQETgAhsEAQEkAAMZBMABdOVwY+Vwk9AA8+AF5OAARRVV9RAChPVxU5UhawQ2AnQ1QGkE8ACrBDSxRDRBGQUVcEPVISsEM/AZA5ACWwQzIUQDgBQyMSQE4BQxUQQwwSQEwBQwgGkEBKDz0AEbBAUhBAXBVAZhNAbgFDABCQQAAWsEBzBZBFVh5FAAKwQHteQH8HkElaIlEAPkkAI0xaRUwAPk9ZAS1QMk8AELBAXBVAABKQLQAIMkwTTlgaTgA1MgAGsEMIIZA2Qns2AA8xQgtMVARFSRxMAAVFAE8ySAgxAA5FSwVONghPPxNFAAFOAAewQwwAkE8AETIAKzZHbjYAKU9PBUVOAS1LHkUAC08AAbBDCDuQMkwTLQAITlkGRVIWsEBCAkMMAZBFAANOAAywQDIVQAABQxAZkDIACrBDFRCQNkh2NgATMUMMTEoBRUoWsEMRDZBMAAhFAEcyRgJKWA8xAAawQDIJkEVDCbBAVwiQSgAKsEBoFEBxAUMVBZAyAB82Tx1KPwZFACQ2AERCVAktTBiwQGoRQFcCkC0ACkIAB7BANxRAADiQPk4EL1BKPgAeLwAEK1AUQ0o1QwAMKwAmJlIQR1A2RwBAJgAFsEAWApAyWQhHSwiwQFISQG0FkDIAD7BAf0yQQ00jRwAeQwBAK1gQPk8JsEB7E0BTDJA+AAWwQAADkCsAQy1UED5WOT4AKCpSDS0AA0JSR0IAPCZPAioAAUVTN0UAQCYADTJXBLBARgWQRVANsEBbEJAyAAKwQGwUQHBVkEUAAUJJaEIACypNFD5OBbBAYxRAQAKQSgARsEAAOZArQwcqAB9AUAU+AE4tRQkrAEctAEMvSSBKSlywQxkWkC8AAS1JHUlKB0oANS0AMy9BgQMrOApJAAsvAAZHQ2krAAEqSA5FSBhHAA9AAB6wQDEUQCgSQAADkCtEDioAPisAPi1EFj5FYy0ACCtDI0dGEUUAHSsAB7BDHUKQLTqBAio/AS0ADUcAA0VAPCoAA0UALChDGENFaUMAAEMqAyo/AygAQyoAPz4AAT1IBys+ZCsAESo8E0U9FUMACioAGrBDITdALgWQKzgQsEA3E0AxEUAnFkAbGJArAA2wQCogQDUQkEUAA7BAOQWQQ0MNsEAsAJAoMQ89AAewQABBkCgACbBAFAFDJRJANwOQQkEEQwAEJkAIsEA7S0A8CpBCAAiwQD4BQykFkD5BDrBAPBNAOTeQPgADsEA7E0A8EkA4ApAmAAtDPAEoPwawQCcSQAA4QDMSQEITQEYLkEVDBbBAQgCQQwAIKkAEKAAIsEA3FEAkJ0A1E0A/ApBFABGwQEQMkD47G7BAQxFAQRJAQw2QPgAbsEBGJ0BEA5BHSwIrQgywQDMAkCoAFLBAACWQRwAlKwAEsEAcCZAtSBM9TAOwQC0BQy1SkD0AIbBAMAmQOUFCsEAyE0A0HZA5ABE+RAcvPwGwQDAGkC0AD7BAAGKQPgADQEAMsEAUAZAxQwIvABCwQDETQD0TQEIKkEAABrBARC2QOTcgsEBHD5A5AAOwQEkUQEwTQFAUQFMNkEJMBbBAWAOQMk4DMQANsEBdE0BjC5BCAAiwQGsSQHYLkDIAC7BAfyCQKFQLQ1ANsEB3E0BQE0AAHZBDACZAQ3hAAC5FTgYqTQwoAGtHTw8rUAUqAAJFADlHADJARltAADAtUAFJUB+wQCQCkCsAD7BAKxRAHBNAAAyQSQAZLQAEPlABL1B3PgAGO0pbOwArQEwCMUoSLwAVsEAUMkAAMZBCUggyUw5AAAewQB4SQCwFkDEAELBAHxFAAAeQQgAkO0shsEAcEEAwFEAkFUAAB5A7ACZDUgQ0TgkyAA6wQB8TQDgRQDwUQDYTQDARQDIAkEMADkVOBLBAPRCQNlQEsEBFBpA0AA6wQEIHkDYADbBAAFCQQkWBADdWAD1DSUIAErBANgJDKRNAEAaQPQAMsEAAAJA2VAE3AAE+Shs2ACo+AD1CRIESOUsDNFIWQgBMOQAjNlgEPkoHNAAFsEAZE0AABZA2ACGwQy0MkD4AO0JGgQc3VAA9RlhCABM9AAawQDQAkDZWBz5OBzcABrBAOhNAAAaQNgAkPgAhsEMxE5BCS4EXOVQINFECQgAdOQBZMlMGNAAANBcEO1caNAAYsEBNE0BgAZBFABY7AA6wQFwNkDdPBrBAVAGQQ1EPsEBNA5AyABGwQEsckDcAHbBARg2QQwAGsEA3A5A7Tgc+WAiwQAAgkDsADj4ATDtVCEpWKLBAQhNATRRATy6QN0YaOwAMNwBQMlIRQ1IGsEBKFUAzAZAyABKwQAAjkEMAJjJYJEVSC0oAG7BAQRRAShFATBJASgaQRQAOsEBHA5A2UgdCVgIyAAewQEQmQEIFkDYADrBANQyQQgAHsEAAH5A5Ugw+Vis5ABQ+AERKVgI5VjOwQDQQQEgIkDkADbBATBeQOUEPNk8oOQAFNgBFMlgMQlcdMgAPsEBKEUBFCJBCAA2wQC0RQAAjkDJWADRXAkNXBEoAXkMAIkVQgRJHTg1FAGgxUQ1FUggyAAFHACGwQD0VQFEgkEUAA7BATw+QR04ZsEBMT5AxAB9DTTqwQE8AkEcAErBAUhRAWgGQQwASsEBlD5AyWASwQGkCkDQAAkJUD7BAUhRAADmQQgAXRVBkRQArNFUEQ1IFMgBiQwAZsEAyC5A2VwNFVgKwQDsUQAADkDQAZ0lQAkUAVUkAJ0dQEzdVFTYAOjcAC0cAJDlUAElVO7BAPRJAQgKQSQAPsEAAFpA9VQVMVQE5ADZMAAo9ADc5VQ9PVjFPAEc0UQ1PXAs5ADewQD0UQFI3kDlMBkxSAjQAB7BATgCQTwBdTAAPNFEGSVcCOQANsEBQFUBUEkBbApBJABGwQGYSQHUTQHkWQGEBkDFQCEVTBbBAAAeQNAAlRQACR0YfsEM1FZA0QBBJVQMxAARHADJJABlKUy0xUA80AAlMUQJKADFOURFMAAoxAA8tVAOwQEALkE9aB7BAAAJDMRiQTgAUTwAELQBFL1EJTlYlLwADTgBPMVMUTFcmMQAHTABOTlkEMlgSsEA+CZAyAAqwQGcSQH9JkExTBU4AAE4jFE4AIEwAOrBAZRCQN1kCsEA2BJBKVxKwQAADkEdECjcAA0UzDUoAB0cAC0UALbBDLRVANAKQOVcDSkYGRVYIsEBcAUMnB5A5AAmwQHgSQH8AkEoAArBDLQ6QRQA7TEYCsEMpDJBNQRtNABCwQy4xkEwAE0NXAS1VBklUJ7BAXgSQLQAHQwAJsEAAA5BJACKwQygMkCZSGUpSK0w6HkwAQEVRDCpIH0UAQioAHC1SAkJRIkIAKi0ALyYAC7BAIQFDLRJARQCQMlQEPlcPsEBNAUMyB5BKAAIyAAY+AAOwQFMUQF0TQHEBQzYQQH8AQzsTQ0EnQ0VKQ0wmQG0UQFUTQDoPQAAnkDk+gQc2Pwg5AHk2AAwyO38yAAs3PYEFNkMINwBxNgACMkNxMgAPOUQesENIbZA2RA85AEI2AB4yR4EJMgANN0uBDzZNDjcAQzYAJjJRTTIAOzlVOrBDRBuQOQAyNlI4sEM9PJA5Uw02ADs5ADg8UEc8AFsyTwSwQDUUQFIKkDIACbBAaRNAfYFQQHgSQFsGkDtQD7BAHRBAAD6QOwAvN01yO00EsEAfC5A3AAawQCkUQCwOkDsARz5RILBAKhJAFwaQPgAOsEAARJA0VBuwQBkMkDQABbBARBRAVhRAahNAfQFDQoE+kDxUCrBAdhNAWhRANBFAAACQPABJOUw9sEAXEkAsFEA0E5A5AAE8TBKwQDYnkDwASEBMA7BAOCyQQABGsEArEEAAAJA2T2CwQDQCkDYAAbBDPhBARQmQPkkIsEBOE0BTQpA+ABw8UTM8ABewQE8TQDwTQAAnkDtPI7BANRFARRZAThFAUQOQOwAjN0ArNwBPMkgysEBKDJAyAAawQEAUQDATQCkXkDdMILBAFxNAACKQNwAmMkQ1MgBUPkUILTMZLzIlLwACLQA8K0YDO0YLPgBLsENCO5A3PQI7AEg3AD48PwQ0OHM0ABM7PwE8AA4yND87ACs3NT43AFArAAY+OgkqQEA+ABwqACc7NwgrPU87ADY3K2w3ABIyABQ8NwU0N2g0ABE8AAY7OQEyNFg7AC83N4ECKwAEKjwGPkMSNwAsKgA+K0AIPgAFO0UiMgAdsEM+PJArAAs7AAEvPQI+RGsvAAE+AAiwQzoMkEFEATI8Y0EAEbBAJwFDNhNANwSQLz4BN0kBMgAMsEAyEUAwFEAuJUAwFZAvAA8rPhWwQC5eQCcJkCsACbBAHAeQMEENsEATDJBARSM3AAiwQA0UQAAqkDAADy1FDDxJDEAAD7BDMVeQMEUELQALQEoDPABcMAAPQAANQ00KND5ZNAAAQwAXMEEJsEMtAJA5ThSwQBsSQB8UQC0DkDAAILBANi2QLUFqsEAzDZAtABewQDACkDJCCUFNHLBALQuQOQAIsEAqE0AmJUAhAZAyABMvQQg+UgpBAHEyRAZBUAQ+AAkvAF4yABVBAAM1QQRFUF9FAB4yQQE1AAQ7SXgvQgMyAARDTQI7AH2wQBwIkEMABEFMCS8AAzJHD7BADQFDMRFAAECQMgAWQEYFQQALMEZXsEAXFEApEkAvCZA0PARAAAKwQDMCkDAAQzQAJzdCG7BAMBNALBNAKSCQNwAZsEAkAZA0QCSwQB45QBoRkDQADzA6GLBAFk1AEAqQMAATPEQCNEIssEAJEkAAAZA0AF85SQkqSAE8AD6wQCAHkDkAKTxMgQdATAs8AEYqADFAAAE8TiqwQCU6QCgOkDlRBbBAKgSQPAAQsEAtEkAxEkA2D5A5AAOwQDknQDYHkDxTAy1JBrBAAE+QPAAhLQAAL0cEsEAbE0AnA5A2Sh82AAOwQB0BQzUmQzsmkC8AATJCbLBDPxOQMgAgPlMGsEAXAJA2RBY+ABg2ABywQBITQAAWkDJICzxQGjtEBzwAH7BAFxJAOQyQPD0FsEA3BZAvSQk7AASwQDAJkDIAC7BAHBVAAA2QOzoDsEANCpA8AAiwQCQTQCsckC8ADLBAHAiQOwADMj8HOVACsEAALZAyADUoTCY3SwE5AA2wQAsSQDAmQCoSQCQAkDcAHjtQCbBAMhRAOhBAPBVAMhJAADGQOwAHsEAhAJA+ThOwQDkUQEITQEEVkD4AAygACrBAPRJANh2QO08KsEA9EkBBLJA7AA2wQD4UQDwIkDdQHbBAPheQNwBHsEBBAJArRQs7SgewQEImQDoTQAAAkDsAMSsABC1EDTRHJjQAMbBDQyGQLQAKMD1qsENHAZAwAB48SgE0OHs8AAU0AAcwNwg5SDSwQDAAQ0sTQD0SQEEjQEISQEUJkDAACS0xArBAShFAUBRAVA9AVydAXxFAZQ6QOQAAQ0sFsEBqB5AwQQiwQGYMkC0ACLBAVBZAMxFAACeQQwAEMAAGQkIQMkZVMgAAMjQYQgAOPj8/PgA+O0oDQ0I8QwA7OwAPQkAEOT5aQgAgPjhEPgBKMgAHMUkBRURWMQAPRQAkQj8KMjxeQgAbPjw4PgBDOQAJOz8FQ0J5OwAHQwACQkIJOUNSQgAnPj56PgAVMUQDRUcCMgA/MQBaMkcCRQAFQkljOQARNkQFMgACRVAFQgBTRQAdNgAJOUECSE1fSAAcNkMBOQAMPk8UsEAJFUAUDJA2AAWwQBo8kDJGSzIARTdACUdPDrBDRyGQPgAqsEAQEkAACZA3AAtHAAI0RgdDUx2wQ0M2kEMAMDdHBTQAAUdUWUcAGTcAD0pRCjtDTEoAHTsABjdFDkBNKbBAFxFAIhNAJwuQNwAbNEeBBTQABTlGCUhRE0AAVzkAETZIBUVUBkgAAbBAAHSQOUQHSFQBRQAHsEASC5A2AB2wQAAtkDkAC7BAFAyQSAAGsEAeBZA8RQBMUjGwQABRkEwAAzlJDjwABkJSCbBAIgFDRxJAMS+QQgAFOQAhNkUISk8CsEA1E0A4E0A6OEA9EZA5TAKwQD4IkDYABUhQBrBAPwqQSgAIsEA9CZA5AAqwQBsTQAAakEgAITdVCkdSBbBAFxZAPRRARThARAaQRwAIO0kLSlIFNwBUOwARsEBGC5A+TA1PTAdKABs+ABCwQDITQAALkE8AGztTFEpZJ7BAOxBARiNASCOQPk4FsEBGCJA7AARKAANPQBBNRjE+AAVNABmwQEgQkENKClQ9BVNDAU8AGLBASgeQUwAAVAADQwAxsEBFEkAgEZA8TAFMUwKwQABLQBAMkEwAB7BALBJAOBJAOwCQQEIMPAAGTzkGUTUeUQAEsEA9CpBPAAZAAAOwQD8lQEAIkEdGFENBK0MAAkcAArBAPxNALxNAABeQSEwIQEYssEATDZBAAAFIAASwQDQUQEETQEQTkExMBzxMILBARhOQTAATPAAlsEBIBJBAThlDTgSwQEoOkEAABbBATQeQQwAhsEBBEUAAAUNMJJA2UglFWh2wQBsTQD4UQEsSQE8BQ1ETQEwFkEUABTlICbBASgyQNgABSE8+sEBMC5A5ABpIAAo8TA1OTRo8ABqwQEcUQCYAkE4AFLBAABiQOVIJSFgqsEAkEkBBE0BJGpBIAAM8SAg5ABJOTUo8AChCQAGwQEwGkE4ABFFOCLBAThqQQgAaUQAGsEBCEkAAJZA7RAVLUUOwQCQMkEsACLBAQRNAQwWQOwAOsEBBDpBOSQE/PQOwQD8SQEAVQEEEkD8ADrBAQgiQTgAcsEBEIJBCOgRFSRiwQEYNkEIAE0UAF7BARBRANhFAAAqQPzoFR0s3PwAPRwAIsEAcFEAwEZBLUgGwQDgDkDtDErBAPBNAPRNAPwmQOwALsEBCA5BLAA6wQEMQkD9OEEJRDT8AHrBAPRJAAAKQQgAyNFgKQ1AhsENME0A7E0BFEJBDABawQEQKkDdLATQAB0dQJrBDSCyQNwAGRwAxO0gATFEJsEBGHpA7AAmwQEEEkEwAD7BAADuQN1ECR1g1sEBAFEBMKJA3AAE7RwBHAAlMVUk7AChMAAVASgxPVCBAABtPAAWwQEEUQAAlQ0QHkDlNCEhYKrBAHQJDSBFAQg6QOQAEsEBGAZBIABKwQEMPkDxFA7BAQQ+QTE05PAADsEBCQpBAQAFEUgRMACpAABewQEEMkEQAF7BAPw+QPEUDsENDBpBFVS+wQD4okDwAFUUAD7BAPQmQOUcLsEA8ApBIWRGwQz4kQDo6QDYDkExYATxKCzkAArBALQKQSAARsEAAFUM6VpA8AAFRWQNMAAFASgOwQzMTQy8MkE0gLLBAOAGQTQASsEBLA5BAABCwQE0SQysAkEVJTbBATxNDJRNDHAmQRQAKsEMVAJBITBSwQFETkFEAJrBDDxuQSAAZRVRQsEMLEZBFAB5CVGKwQFMFkEIAJbBATQeQNFoFRVADsEA1DJBDRgewQAAUkEMATUUAAzNMEzQAA0dVZzMAAi9IUi8ANDROJk9SazNKBLBAJAOQNAAQTlcDsEAWA5BPAA2wQAA7Qw8QQxMBkDMACS9HCLBDF3WQLwALNlAGRVQgRwAYTgAsNgApM0wXR1gCsEAPAZBFABKwQAAokDMAEbBDHB+QL0tNLwBHNEgDT1BBRwALNAAsRz0KM0wGTlELTwAHsEAmF0BBEUAyD5AzAASwQAAkkC9Jby8AIUVQFjZKDkcAEE4AG0UADDYAKjNEfTZLAktVDjMAOjYABksACLBDICWQOUsDTlgksEMcGpBOAAo5ABOwQyEmkE9WAS9WE7BASA+QS0oEsEBbBJAvAA+wQHAUQH8RQyU5kEdLD0sAJ7BDKgqQRwAxsEB2EJBMUAKwQFsBkDdMFLBANhJAADCQNwAOTwAKTAAPNEgESVE3SQA3NAACN0wJTFEYSy0RNwARSwA0O04IT1ciTAAiOwBGsEMuBJAxWgRRWgxMWAxPAAawQEACkDEAD7BAWxRAcBNAfAFDNhNDOgyQTAAZSVA9SQBFOVACsEByAJBOTRKwQFkVQDIPkDkAArBAACSQTgAbNkoKS1U1UQAYSwAfNgAAOUkNTlQ9OQAYTgAhPEwKUVM3PABAM1YOU1YETlUBUQAtsEBBFEBUCpAzAANOAAWwQF8tkDtNCEtTQjsAB0sAKTlWDE5NFTkALrBAWBZAPxBAAAKQTgAON1gRTFIFsEM+JkAeEkA/E5A3AAGwQEgEkEwAD7BASwiQNFEQT0wkNABJL1MGTwAFS1UbsEBJBpAvAAqwQEQVQAsIkEsACbBAACyQNFUFTFUtsEA9FUBNDpBMAAOwQFIQkDQAGLBATgaQT08IL0EGLT8fLwAFLQBTK1kFS1MMTwAIsEBQFpArACSwQEQEkEsAELBAACuQMF4HTFIcUwAQsEAeEUA6EkAvAJBMAAGwQ0UUQAABQ0kekFBKUlAAMVFQd01OFlEAb0tOAS9HBTAAB00AOUsALUxKDjBPBS8AR0wABLBDRTiQLVECSE0WMABeL1IESAAQREgXLQAjLwAwRAAEMFUARUs8MAArRQAVLVYSQVMqsEAeEkArFEAlCZBBAAewQBcAkC9UE7BAAAiQP1IfsEAdE0ArA5AvAAYtAAmwQCYVQAAKkDBREUBPBD8ALDAAH0AABLBDSiOQKk8OP1gwsEAmHpA/AAewQCIUkC1LCEJTBSoAK7BAKhJALhyQLQAYsEAqCZAwSABCAA1FVkuwQCwhkEUAAbBAJgeQSFAOsEAhBpAzSQgwACRIAAWwQCoTQC8VQDEHkDZKDEdICTMACbBALhGQRwAqsEAyE0A2EEAzCpA5RQmwQAAEkEtXDzYARTkABrBAEwuQN0cHsEAwFJBMUgGwQCcSQAADkEsASbBACxCQNwACNkoCsEAnCpBOUgewQCwKkEwACbBAKCdAJCZALAiQNEwGNgAFsEAuD5BPUBawQDABkE4AFLBAMgaQTwAJsEA4DpA0AAawQD4TQEAGkDtSA0dYC7BAOiFAAB2QRwAcsENOKENSCJBMUkhMAB+wQ1gHkC9IB0tUBTsACUVLJkUATzRMAEsAAi8ABU0+EUxEAUM8BEVDHkwAA0UABEMATk0AAE0eCEwaE0AVE00AHUAAQ0U+BTxDYkUADLBDXAeQPAAAQ0APO0AXQwBnQDBMQABNNAALM0QBRzpaMwAkRwAGNEEDQzw1QwBSQDE4QAA9OwAKRToGPDlLRQA9QzoMOzgCPAAxQwBGQDM+QABFNAAMMz4YRzgwMwBXNEAGRwACREIVTABCOwAROEIINAAQRAAER0VaRwAEOAAOO0EPSkxeSgAVOEECOwAPQE5sOAAEND8MsEAJgQOQSFEDOT8CNAApQABCOQASNkQCRVQLSAB4RQACSFADOUgLsEAAF5A2AE45AAlIAANMVAg8Q1awQAsGkEwADbBAFxGQOUYDQlQBPAARsEATSkAZG5A5AAU2RWZCABI2AAc7RAdKUxawQABdkDhHCDsABEdWB0oAcjtKBTgAAkpWAkcAczsAE0oAAT5LA01VXE0AF7BAPASQO08LPgAEsEBFAUNYBpBEWAuwQEIVQD4QQDkTQDcUQDsSQD8JkDhQAUQAB0xRBLBAQgFDUQKQOwAPsENJFEBBAkNBNkBCEkM7AZBKUQE7UgxMAAE4AASwQEMBQy8UQx0QQwwSQEEUQBMJkDsACbBAABCQOVcLSE8ZSgBsSAABRUWBFUFBAEpMCUUAKbBDCEWQQEcBQQAaSEwNSgBeSAAURUJ6OEoCOQAOTFARRQAvOABDOUYFTAABSEpxSAANRUNZRQAoSkoIQUQBQAB3QQAHSEkEQEkESgBRSAAxRUgCsEAUAUMMFUAbAkMQEUAgAUMVEUAmFEAsE0AwJkAyA5A5AAM4RANMUQZFADuwQDQIkDgAMbBALQuQOUwFSVIBsEAaBZBMABGwQAASkEAASD1MCUxXBTkACUkAWEwACkBHAj0AEU9UYU8AFD1MEkAAAkVTLrBDGRRAHBJALBVAMwSQOUkEPQAusEA1JkA3KpA5AAs+SBBOUkNFAEA+AAg7SwRKVwVOAAiwQDMSQCkUQB4SQx0mQAsHkD5LATsACbBAAAKQTlkRSgBxUVgHQkUEPgABTgBgUQAQPkIFQgACR1QUsEAsEkA5E0A9SpA7RQA+AIEGQEUDsEA8AJA7AARPURpHAAWwQDkTQDcTQDQTQDEikEAAAT1KBLBALQaQTFgFTwAHsEAqIkAoWZBASQFPVgVMAB89ABmwQCQrkEAABU8ACbBAHQuQQ0oCU1MFsEAAAUMiTJBTACRATAJDAA9JWBewQyYmQBwQkEkAA7BALRJANgyQPVIFsEA5AZBRUwZAAFiwQDsdkEBPBU9UAj0AAbBAPQuQUQAJsEA+E0BDE0BHE0BKFEBFCZBAAAewQBIFkD5YBU5SCbBAAA2QTwBoSkcMTgCBB0oAE0dSAU9JNbBAFwFDKhNAAD2QTkoFRwAHRUIETwAisEMuPpBOAAxKRFZKACw+AAc9SAdRSzCwQzMLkD0AO1EABT5FB05JaE4AGUpCUEoAGEUAHU9KA0dEgQNOTQNFTAJHAAZPADxOADhKTEewQzcUkEoALFFTCj4ABD1IST0ANE5XDD5MBVEAB7BAFhFAABOQRQAwTgALUVgLQkwMPgBLUQAeVFgJQgAARUtLVAAvQkoCsEAwBpBKVwVFAAiwQEEUQEUakEIAMz5IXz4AHrBDOxmQQ00MU1UosEBED5BKAAWwQEATQDATQAAZkDxMB0xaCFMACUMAU7BAJgiQQEcIT1cCsEApCpBMAAQ8ABqwQCEgkEAAFrBAJwmQTwATQ0oJsEAcBJBTVA+wQABUkFMAB0BJCkMACkhSNUAACbBAJxBAMhqQPE5EsEA0CZA8AAqwQDcTQDknkEJOCVFTC7BAOzWQSAAksEAwFEAAEJA7UARKWBVRAAJCADOwQCIRQDQVQDoJkDsAAD5KB05TEkoAaUJLCT4AAVFSCU4AC7BAOBRAKhJAACiQUQAWPksDQgAHR00psEAXEkAqFEAyEUA0IZA7SAM+ABawQDY3kDsAJ7BAOA6QQEUIT1AzRwBNTwABOUgASFcNQAAFsEAnFUAAWkAXC5A8RQFMTQQ5AAKwQDMKkEgACrBAPxJAQyiQPAAiTAAOT1EDQEYssEBCD0BBFUA4AJBPABKwQAAXkEAAAjxJBUVWLbBAEBVAMBFAPQKQPAAMRQAFsEBBE5A5SQZIU1mwQEIekDxOAEgADExGDEpKAbBAOBRAAACQOQAgPAAMSgADTAAdsEAXDJA+TgJCVgWwQDsSQEgTQEoTQEgTQEYIkEIAEUVPDLBASAGQOUwCsEM3AJA+AEqwQEUSQzAUQysUQyUNkDZLA0hUCDkAAUUAB7BAPgFDIRJAABJDGxVDFxBDEgyQNgAJMlMLPlQGsEBFD5AyAAWwQFcTQGNVkEJTMLBAVRJASRNARAOQSAAhLVoBsEA9D5BFVAOwQAABQxYZkEIAWypRD0hRFLBDHACQRQASsEMhBZAtABMqADkmSEAmAE0rRQpHTihIAEawQDIMkCpGAisAA7BAQgyQRVAIsEAAAkMmAJBHADk+AAgqACkmRSawQytQkCYAHy1NCUhSE0UAcCpHCD5HCi0AcLBAMgFDLwCQJkUDKgANsEAlE0AAQJAmADErSwlHSSxIADU+ABYqSwkrAAdFUBJHAD4qAAGwQA0ZkCZMDrBACW5AAAOQJgAbLVMLSFQpRyoERQAZLQAERwAzKkYKPkhQPgAdLUkHKgADQkVHLQAkQgALRUUDMEk4MAAlRQATsEA3A5BIAAwmUgOwQEQBkEJTE7BATAFDMwmQJgAKsEBUFEBaB5BCAAmwQGESQGUekEVNZbBAbAKQRQAdL1gBSlccsEBYEkAuFkAAREAUC5ArSAIvAARATAOwQC0lQCggkEAALLBAKwOQKwABL0kNQ00kLwAnQwAgMkwWR1IDsEAbFEAAEZAyACJHABooVx1DUgiwQDYBQzgAkEoAASgAD7BATRVAWgNDPA9AZxRAbCiQR1AQQwAUsENBEUNGSZAwWAVHAARMWQ2wQGQTQEwSQAAKkDAANi1PEUJSLC0AHkIANTBEEUVGFzAANLBACQ2QRQAMNE4RSFINsEAAEJA0ADJIACcqVgZMAApFVCwqAASwQD4TQEoUQE4ikDJPAEhRKzIASjBPCE5TBUgAFTAAFrBASwiQSwkLsEBBC5BLAAiwQAAkkE4ABi9TDE9WAUUAAEUzJ7BANRRARAOQRQAQsEBLE0BNE0NKBpAvAAgyPASwQEsEkEpHATA7aDAAEEdOBE8AAjIAAEoAGzdGB7BARxVALhFAABVDRQqQNwARRwAWO00AQ1gFsEAkFkA6EUBBFUA/EUA9AZA7AA5DACBNWBA3PwY1Qi6wQD4DkDUAJk0ADztECDcAAEpZCDk9HDkADLBANQWQOwAOsEAAF5BKABs8TxJMVhuwQBwRQC8SQDQ4kDk+DTwACEg9CUdGCrBANhRAOD+QSAAIRwADRUwCNkABOQAQsEA2AJBMABOwQCcSQAAtkDYACrBALASQRQACMkwNsEA+BJBCUhGwQEQRQEIlQD4TQDsCQ0oAkEIAI7BAPwWQRU4JNkoDsEBBCpAyADCwQD4RQD0VQD8SQEENkEhSAjlRATYAB0UAD7BAORNAAAFDRjuQOQADN1UMsENKBJBHUghIAAewQD0TQEoGkDcADrBATRNASwmQRwADN0YGsEBIKJBFURGwQEomkEUAE7BATBJAThJAUQqQME0EQFcAQ1QJNwAQsEBBFEAAB5BDAAdAAD4yUgcwAARDUwg+VzlDACSwQCwTQEESQEcDkEVQCj4ABrBARAFDThRAPiRARSFATRGQJk4CsEBVGZA8UgNCUwBFAAywQE8AkCYAEbBAMBNAADOQQgARMgAKK1ETQ1UkPAAmsENKOpAvSAA+VCOwQ0IRkD4AA7BDMQGQLwASsEMYQ5A7UwIyTQSwQwAWkDsAFDIAgQGwQBcVQFAJkDdUAisABrBAYRVAawCQNwAlsEB2EkB/JZBDAIFxsEBhFEApBJA5TA6wQAAtkDkAVTZNPbBAOAFDDhBAPwFDEhNAABSQNgAHMkUbsEMWOkMbMJAyAAo3QSSwQx8+kDcAITZESzYALDJFUjIAMzlIgSg2SAg5ACo2AA+wQyUnQykAkDJHcrBDLiuQMgAFNz8RMhkBMgBwNwARNkU/NgAFsEMzMpAyRUGwQzglQzwCkDIAIzlLZzkAIDZIgQI5TQs2ACk5AEs8SU08AD0yUw6wQDoTQE8AkDIAErBAYxZAexFAfwFDQBFDRIEsQHgFkDtQDLBAVxJAHRNAAAyQOwBHN0wysEAiE0AoL5A3AAY7Rys7ACGwQCpJkD5MKLBAJgCQPgATsEAAX5A0RBKwQDwPkDQABbBATRNAXRNAbhFAeIEvkDxPD7BAdBNAaBRAVAeQPAAJsEA/AkNAEkAnEkAgG5A5SUSwQCQ0kDkAATxLRDwAMLBAKBqQQEcMsENENkAkB5BAAAywQAA1kDZPQTYAC7BAMBJAPRJARBGQPkcEsEBGP5A+ADU8TyE8AE6wQDoRQAAOkDtPG7BADRJAMBJAQAmQOwALsEBIJUBEAJA3RRGwQEIVQEQGkDcAUzJDUDIAJrBAQhNAQQiQNz8xsEA8E0ApIUAADJA3ABAyO3AyAAywQ0gVkD5HPC0TBy8LMy0AFC8AAStBADtGCD4Aezc7BzsATDcANjxBBzQ2bDQAGDtAAzI1CTwASzsAIzc5gSErAAc+QQYqPwE3AEoqADo7PwUrODo+AB87ACU3OFg3ABEyABk0MQM8PX47Pg48AAM0AAcyOz07ADI3O4ENNwAHPkQEKwAJKjk6KgBaPgACO0YEKz5RMgAlKwAAL0ABOwAGPklaPgAdMkABLwAEQUoWsENEQZBBAAiwQ0ATQzkLkDIACrBDMQCQLz0GN0cMsEMsPJAvABGwQBMRQB8BQyYSQCcAkCs6FLBAKgBDIluQKwAZMDwDQEkgsEMeAJA3ACWwQCMTQBQTQAAJkDAADzxRAi1IDEAAgQAtAAM8AAQwQQBATlswAApAABc0QQFDS1w0AA9DABIwQRA5TDGwQAsTQB0QQCoVQDYMkC0+BrBAPAWQMAAOsEA/X5AtABsyPw1BTxCwQD4PkDkAFbBAPCdAOAGQMgATsEAzBZAvQQ2wQCwDkD5SCUEAB7BAJhRAIlCQMkIJQVIBPgAVLwBBMgA3NUAFQQAARVBmRQAENQANMjwIO01vOwAFL0ENQ00BMgB8QU0FQwABLwAJMkUFsEAaE0AAMJAyADRBAAowQgFAQE2wQA0BQyITQCoTQDQEkEAAD7BAPQGQNEIRsEBBBJAwAEg0ACY3PxKwQD8SQD0TQDsTkDcAJ7BAORaQNEMfsEA1FEAyJUAwIJA0AAIwP3QwABU0RgE8SBKwQCkSQAAOkDQATSpLAjlIFTwAEbBAJCZALQiQOQAKsEAzFEA2FZA8SBKwQDhIkDwAJ0BKTioADEAAJTxLbDwACDlPVzkANDxRBi1IBLBAMhRAADGQPAApL0gBLQACsEAnEZA2SgOwQDoUQDwKkDYAB7BAOAFDJhNAMhZAMAJDKhSQMkYOLwARsEAhFEAAAkMuSZAyACM2PwA+Uxw+ABY2AEYySgo8VxU7RAw8AAiwQzITQDcGkDIADrBALACQPEYTsEAACZAvSwc7AEA7RQo8ADg7AAcyRAMvABI5UzAyADA5ACMoTBA3UkY3AAKwQAsBQzYQQCUZkDtNVjsAIj5MTz4ALztKCigAY7BDOhGQN08EOwA0NwBCKz4LPEUSsEAoFEAiDZA8AAewQABLQ0EBkC1AAjRHASsAIDQAcLBDSAiQMDsLLQBfMAARsENNC5A8SAU0O2s0ABQwQQQ8ABQ5Ogo3Qx+wQCIIkDcACbBAOBVAQxFASwKQOQAAOTIPLT0BsEBSAkNRDJAwAASwQFgWQF0mQGFGkENHEDBICLBAUgmQLQADOQAIsEA0EEAANpAwAARDAAlCQggySEywQ1UnkEIACT4+Wj4AMbBDURaQO0gBQz5VOwApQwALOUQBQjoasENWPZBCACc+NVQ+ADgyAAFFPwExS1lFABUxACBCPg4yLWZCAAs+OUY+AC45AA87Ow1DPoEHOwABQwAFQkQBOUBEsEAcD5BCAASwQCkTQDISQDcMkD47B7BAOU1APCdAPQWQPgAFMgAARUkBMUVJMQAtsEA4EZBCTAGwQDEFkDJIAkUADrBAJRRADxJAABqQOQAnRUsHNkUGMgABQgBRRQAhOUIFSE8DNgBeSAAasEAhBJA5AAc2QwM+SwSwQC0VQDEkQDNOkDJFAzYAaLBAMRCQMgAXN0gAR1AksEAuEpA+AAGwQCsTQCkgkDcABrBAIhRAGwGQQ1QDRwAHNEQZsEAASpA3UABDAAk0AAxHTz43AB1HABtKUQo7SUVKACA7AA43RxawQCsFkEBFDrBANxJAORVAOwyQNwAGsEA9E0A/EEBBAJA0S4EGNAAJOUgfSEgIQAA9sEA/EpA5AAGwQDwWQC8BkDZKDUVUAbBAAAiQSABmOUkNSFMFRQAFNgBCOQA1SAABTFIBPEV1PAABOUkLTAACQlMysEAgEUAyAJA5ABWwQDwBkEIAEbBAQRGQNkMBsEBEApBKTCWwQEY6QEgJkDlLDTYABUhQDLBASgmQSgAfOQAOsEBFFUAuCJBIAAewQAAZkDdUBUdWPbBAIBNAOxNARhVASwOQRwAVO0cASlURNwA0sEBNLJA7AA2wQE8EkE9QBD5IBEoAKj4AFbBASgyQTwAGsEAiFEAACZA7Ug1KXTWwQDMUQEYTQFATQFYGkD5LBDsABk9ACEoADE1FTz4AGFNPBENKCU0AA08AELBAWxmQQwAHUwA7sEBQApA8Tw1MVASwQB8TQAA8kEwAEbBALBZAPQWQQEcDPAADT04FsEBEKJBAABNPAB6wQEctkEdICUNBM0cAAkMACbBARBNALxJAABeQSE0HQEEssEAiBpBIAAywQDoFkEAAELBAQxJARhKQTD8OPEE3TAAHPAAnsEBIApBATQhDTRJAABJDAAmwQEQUQCUSQAATQ1sYkDZSBUVaHLBALhNARBRAUBJAWQ2QRQAasENgA5A5SAZITwc2ADxIABE5ACU8TAdOTyE8ACFOABawQEgTQAALkDlUFkhZObBAGRNAPRNASQaQSAANsEBQAJA8SQg5AA2wQFMIkE5MRLBAVQyQPAAEsEBXJpBOAAJRTgRCRg2wQF0ZkEIADbBAYgiQUQAfsEBVE0AkDpBLVAKwQAANkDtCLksAEbBANxNARQeQOwANsEBJCZBOSBQ/PTI/AApOAD9FQw5COAKwQEsckEUACEIAFbBASBNAORRAABGQR0kIPzgvRwAEsEAnEkA7BZA/AA2wQEQUQEYHkEtPCTs5UUsAAzsACrBASRmQP0cJQlEDsEBLEJA/ACFCAAiwQEkSQC8TQAAbkDRaAUNbL7BAFAFDXBJAQxNATwOQQwAQsEBWHJBHUAE3QwQ0AFc3AANHAB07RQZMUgywQFoSkDsAH0wAB7BAVxRAQRRAAAyQN1IHR1g4sEAiE0BFE0BQCJBHAAewQFUHkDtMAjcAA0xXTjsAFkwAGk9TBEBJHrBAVw+QQAAJTwBDsEBNEkAABpA5TQRIVEOwQ2APkEgABLBALwWQOQAPsEA+EUBBBpA8SAdMTRqwQEAmkDwAErBAQRNAPxNANgaQTAAGQEIAREoHsEAdE0AQE0AfCZBAAAlEAAGwQCoRQDEUQDcRkDxGAbBAOgWQRVQPsEA9EUA+AkNcEUBBFUBCCJA8AAmwQEQHkEUAFzlJBUhXPrBARiVASAqQSAAKTFsGPEwMsEBKApA5AA+wQ1cUQEw4QD8VQAAIkEBQATwAAFFaB7BDUw6QTAAETTMVsENNCJBNAAtAABSwQDgRQEkiQE8mQ0cDkEVEJbBAUzhDPQWQRQAPsEMtDJBITASwQFUBQyASQFcnQFsBQxoIkFEAB7BDEw+QSAAEsEBhIJBFTgiwQGYBQwA3QGomQG8EkEUAFUJUQ7BAdA+QQgAYsEBeEJA0WQKwQDABkEVSE7BAADpAHAOQNAAPsEA5FEA8DZBFAAEzSwOwQDYUQDICkEdQD7BANRRAOxJAQAWQMwAisEA8FUA4AZAvQCSwQDsRQD0UQDwHkC8AC7BANRNAHxRAAB2QNEMFT09ysEAWBZA0AAwzSAKwQCwAkE5TBk8AC7BAMzlDCxJANQBDDwyQMwAHsEA6BJAvRA6wQDxhQD0BQxYXkDZNC0VZAi8AE7BAPAeQRwANsEAwAUMRCpBOAAWwQAAekDYAB7BDFR+QM0gFRQARR1kEsEMRO0MWBJAzADMvRCWwQBAUQBkZkC8AM7BAIRJAJQCQT1YENEYksEAgEUAAC5BHAEBHQA9OVwM0AAIzTgxPAAGwQAkVQCsSQDYVQDgKkDMAJS9LGLBDEktDFxaQLwAJRVMUNksZsEMTAJBHAABOABtFABo2AASwQxcUQDYOkDNHAEdWS0cABjMAGTZQDktYNjYADksAGbBANBBALgSQOUwITloHsEAAJ0MTE5BOAAU5ADSwQCUBQxkJkC9YAU9bCLBARwFDHgiQS1cKsEBUA5AvAA+wQGMVQHASQHY3QyINkEdMCksAOEcARbBAcAeQN1ENsEBoCJBMRwqwQFwKkE0zCbBAUBGQTwACNwABsEBGAkMeCZBNAAiwQEEKkEwAB7BAPxWQNEwLSVY/sEA+A5BJABc0ABQ3TQ9MURBLMxY3ABJLABZMAAuwQD0SQDoIkDtNBE9ZB7BALBRAABKQOwAwTwAlMVkDUVgEsEMjA5BMVyWwQFYAkDEAA7BDJxJAdBBAfyeQTAAWSVAQsEMuMJBJAEVOTwE5Uw6wQG4UQFohQEMEkDkADrBALBRAKQuQTgAGsEArF0AtBJBLVQc2RydRABtLABI2ABGwQyoKkDlJBE5RTDkAB04ALDxNA1FVBrBAJRRAABSQPABLM1sDU0gETlYCUQAasEArFEBTAUMuCZAzAAiwQGMLkE4AB7BAayhAZgaQS1QEO08+OwAFSwAhsEBiEZA5UQNOTxSwQE8HkDkADLBAADuQUwAAUxodTgACN1gFTFIlsEBAFEBPAUMqDpBMAAKwQFICkDcAILBDLhRATwiQNEkJT0ohNAAasEMqIJBPAAawQy4JkC9SDEtUIy8AE7BARhJAAAOQSwA7NFwKTFMqsEA2E0BRFEBaA5BMACGwQFYAkC9RCDQAA09OCLBAUhiQLwBKTwAEK1oLS1cUsEBMEkAcAJArABSwQAAJkEsATTBfAkxSArBDMhdAJwGQUwAQsEBPAkM4E0BTD5BMAAKwQE4UQEQTQDwEkFBNIrBAPi6QUABAUVIRsEA9FEA7EkA3FEArFEANEkAADZBNTxNRAHFLUgEvSwcwAApNAD9LAC4wUQFMUAUvAFhMABwtTw1ITwIwAD0tABBIAB0vTxVERjYvADswURZFRgFEACkwADhFAActURJBUEWwQDYTQEgOkEEABLBAOQWQL1AQsEAACpA/TwQtAEsvABMwUQdASiQ/AAswACZAADQqSws/VBWwQDcBQzwSQEkRQEUTQD4CkD8AEbBAOgyQQlAHLUURsEA9AZAqAEUtAAlCAA9FUBAwOhawQDkNkDIkBLBAHhNAABiQRQARSE0cMgAFsEAZBpAwAAIzSQywQDAUQDcHkEgARkU5ATZKB0dBBTMAF0UAAkcAN7BAOiJAPgJDQAiQOTwJsEBBEpBLOAGwQEMFkDYAE0sADrBAPxNAIBNAAACQOQASsENECZA3SgdMVzNOUhNMACg2SwWwQ0gIkDcAB09WFk4AGE8ADzYAOTRJFExSB0pRFkwABUoAHTQAMDtPAbBAFwFDTxFAOACQR04QSEUCsENTE0AzAJBIAAhHAAywQC0mQDMTQDwBQ1gDkExSELBAPxJAPgyQTAAGsEA8NpAvQgOwQD0BQ14JkEVSBktUAjsAArBDYidAPAKQRQAGSwAusEA9FUNmB5BMUgQvAAawQDoAkDRKCENOGbBAGRNAAD+QQwAuQDBDQABCRTkFPEVXRQAlQ0EHPAAHO0IYQwBUQDs5QABhM08CNAAGRzpcMwAjNEUGRwANQzs4QwBXQC5HQAAhOwAWPDsDRTwyRQBSO0ECPAACQzo+QwBNQDJUQAAvNAALMz8JRzY8MwBENEgERwARRDgiOwAWTAAuOEkLRAAJNAANR0JFRwAZO0MbOAAFSk1wSgAMOwAEOEMePj8GsEAeAJBAPxOwQCkQkD4AA7BAKzGQOAABNEYFsEAwFEAycpA5SA1ITQM0AAKwQDQskEAASzZLAEVQATkACrBADQKQSAATsEAAXkAgAJA5SARITwZFABg2AAWwQBoRQAkmQBQVQCIDkDkABUgAAUxRAzxEF7BAAFuQTAAGsEArBZA5SQc8AAewQD4BkEJTHrBAQhNAPhRAOiRAPQqQOQAIsEBBBJA2RhKwQEQTQEMSQEEUQD4QkEIAArBAPxVAQhNARAJDagGQNgAEO0cBSlYcsEBBE0AxE0AAPJA4TAU7AAFHVwVKAHQ7TQFKWANHACU4AEpKAAk7AAg+UAFNVVBNAA6wQCYTQDIIkDtSCj4AAURaN7BDZBRANBRAOANDYAOQRAAMsEA6C5BMUQI4UQ47AECwQD0AQ1cTQ0sSQD4BQ0EOkDtRBkpSAzgAAUwAILBDOBNAOQBDJxRAAAFDDhBDABmQOwAIOVgMSE0NSgBvSAABRURxRQAhQVMMSkwysEAwFEAAKpBBAANATxlISB1KAERIAB5FQFBFACs4TwE5ABFMPluwQwgNkDgAGEwACkhBAzlIZUgAIkU8OkUAREAABEpFCEFNX7BAJQuQQQAGsEAsEJBKAANASQBIRgKwQCYUQB4TQwwTQCIKkEgACLBALhJANhNAOwmQRUhEsEMRE0A8JEMMB5BFAAQ4SAI5AAZMVUY4ADk5TwdJVRBMAB1AAEGwQDcRQCgKkD1OAkxWB7BAAAiQSQALOQBITAAcQEYFPQACT1VqTwAZQAADPUsBRVQWsEAcEkAoFUAyEkA7FEBBE0BDCZA5SQg9AHCwQwgEkDkADj5LB05SNEUARTtRAT4AAUpYCE4AELBAQRNAPxNAPRFAPCZANwKQOwAEPk0ITloDsEAvEZBKAASwQCIUQBsmQBQUQAArkEJKAVFXEj4AAk4ATlEAHz5LBUdWBEIAFbBAFBJALBVANw9AOiqQO00JPgCBBUBMA09WHTsADUcAUT1SCExbCEAACE8AaEBHA09XEkwADj0ATUAADU8AA7BAOACQQ00LU1gJsEAxE0AXFEAAJZBTABSwQA8AkEBTAbBDDAyQQwAIsEAlGJBJWQewQDETQDYTQwghkEkAF7BDDQmQPVMCUVILQABdsEMIC5BAUAg9AANPUxNRADOwQCgUQAASkEAAEj5ZB05PFU8AH7BAKhNAPRNARCCQSkoJTgAPsEMOOUMKA5BKAElHUgBPTCawQDoQQABCkEcABEVVBbBAIQWQTk0PsEA2CJBPAAuwQD5akE4ABUpIb7BAPwiQSgAHsEBACZA9UAE+ABJRUAywQD8TQD0UQDsgkD0AJD5QBVEAAU5MJrBAOCVANjOQSkoHTgA5sEAzE0AxA5BKABGwQCsQQBwNkEdUAU9QBrBACwKQRQA1sEATFEAcLZBHAARFUwNOUgOwQCALkE8AHrBAJSNAKBVAKw2QTgAFsEAuAZBKUhGwQDIUQDYRQDlQkD1LBFFZCz4ADEoAOD0AAbBANkWQPlECTlkWUQBsUVcCRQADQkYNPgAITgBMsEAuFEAACZBCAAJUVAJFSwxRAB1TEzywQBIDkFMACVQACLBALAaQSlQDQkYIsEA9C5BFAAewQEYUQElMkD5KCUIAZj4AFbBASwmQQ0oLU1UySgAqsEBIFEA+DJBMXASwQAAEkDxNA1MAEEMARrBAGxNAPBJASwyQQEQHsEBWApBPUQVMAAM8AAewQFtpkEAADENEAVNPDU8APbBATBNALAaQUwAKsEAAEJBITwFAQwdDACKwQCUTQDoTQEQVQEclkDxFBkAAVzwAJrBASQSQUVMEQkkySAAksEBGEkA3E0AAAJA7UAZKWRBRAAhCAC2wQC4UQEQSQFABkDsABT5ID7BAVwmQSgACTk84PgBNQkARUVATTgApsEBPE0A3AJBRABOwQAASkD48EEdMAUIABbBACRNANxBARxVAUBNAVCiQPgAEOzxWsEBWEJA7ABewQF4OkE9UBbBAZQGQQEMRsEBrKZBHABOwQFYOQDgUQAANkEhXA0AABTlMAk8AELBAKhNAPhJASRRATRCQOQAbTE0CPEsASAAxsEBQEZA8ABOwQFIakEwADbBAVgeQT1ACQEsJsEBbFEBgOkBZBpBAABqwQEIAkE8ACzxMCLBAAAWQRVowPAABsEAlFUA9E0BKBpBFAA2wQE8VkDlIAzw1AUhKJTwAD7BAUSVAUxNAVRGQSAABsEBXBpBMQQI8RAhKTQI5AAGwQF0SQGUWQGsnQF8IkDwABkoABbBARACQTAANPlADQlsDsEAAKEAmEEBDCJBCAAuwQFMUQGMMkEVQBbBAagOQOU8JPgB+NlEBSFQEOQAbsEBdCZBFAAuwQEAUQAADkDYALDJUBT5UAbBAPhZAWAKQMgAQsEB0EkB/RJBCUSmwQw40kEgANi1aBUVVA7BDEg6QQgADsEB1E0BGFEAAQZAqTw4tAABIUxCwQxcCkEUAXCoAByZGPCYATitLE0dQKUgAEysAFrBAIBNAPAyQKksGsEAAB5A+AAdFUglHAC4qADYmSm0mACktTwNIVyZFAG8+SwIqRRMtAEwqAComQWcmACJHTAUrTQiwQCgUQD4NkEgAHisAAz4ACrBAQBNARBNASQKQKk8IRVAIsEBPBJBHABCwQFQRQFsUQGQEkCoAD7BAbgFDGxaQJk0OsEBoFUBLE0AAN0MfF5AmAA0tUgFIWSNFABawQyRLkCpIAi0AAj5JWLBDKQiQPgAiLUkIQkUKKgAtLQAFsEMtJJBCABkwRglFSzMwACVFAA6wQBwUQEYDkCZTCEJNCLBAUAKQSAAQJgABsEBXA0M0BJBCAAqwQFwCQzoQQGMUQGoCQz4RQHANkEVSbEUAGi9SAkpXArBAXxVAQBFAAC+QLwAdsEAUCJArRwZATDtAAAgrAAywQBkUQB8VkC9GCUNKIy8ADkMARbBAFA6QMkgEsEAABpBHTCQyABdHACRKABYoVwpDUxGwQDwHkCgADLBAVxNAbRNAfQmQQwAMsENDL5BHSQFITD1IABRHABtMVQowVhawQGYSQEQTQAASkDAANEJXAi1LNi0ABEIAFbBDRyiQME8PRUwkMAAwRQAZNE4ISFAlNAAySAAasENLAJBMAAgqVx5FVR0qABewQEcRQFgTQGUYkDJUCEhVJTIASzBVDE5TDkgABDAAFUsoILBAUgWQSwAPsEAAAZBFAAlOAAewQ08dkE9YBi9EEEUgBLBALgGQMEATsEBHDpBFAASwQFYWQGAnQFsJkDJIA0pRAy8AKE8AGTAAHkoAAbBDVBOQR1ITMgABN0IjOR8BsEBTFEA9EUAAAJA3AAM5AAJHACOwQAsIkDtSAkNOCLBAOg+QRTkCsEBKFUBUCpBFAAY7AAhDAA+wQE0SQEgYkDdNAU1XDrBATCFATkGQTQASO04JsEBQAJA3AAZKUyKwQE0TQDkMkDsAA7BAABSQSgAeTEYEPE4EsEAWAUNZFEA8FEBLEkBTOUBVBpA5SAk8ABJITQSwQ10lQFATQEUEkEwADrBAPRRAPg2QNkgGsEA9BpBFUAg5AAawQCkPkEgAA7BAACaQRQASsEAyC5A2AAewQE0IkDJMDbBAYwGQQlYQsEB7A0NmD0B/AkNsA5BCAHg2RgBFVAIyACVHUxNFABqwQF8RQAAJkEhaCDlJETYACUcAgQxHVwc5AAU3RQVIAAWwQCMUQE4SQGATQGcTQGITQFoTQFEhkEVJG7BAUwaQRwAcsENoC5BFAC2wQFYhkDA5BEBRAjcABUNQBjJAB7BATwJDZBJAKQFDXACQQwASsEAAA5BAADawQ1gPkDIAADIlA7BDUBGQQ1YBMAABsEM7AZA+UhGwQxwlQwBJkD4AH0VQAUMAgSUmSgZCVQE8TwdFADomAIEXK1EIQgALQ08EMgCBRC9MCD5MGjwAES8AgXgySQA7RCQyAIMsN0eCArBAFxJAKBZANBFAOhNAPRNAPiVAQBRAQhJARBJARhNASCZASidAThRAUhJAVhFAWxRAYBJAZCRAaidAbiZAcjdAdjdAeydAf4gGkCsAZTcAHEMADzsALj4AgXewQHgTQGsTQFsVQEwSQEITQD82QD4VQD0SQDw5QDgSQDMUQDFbQCwUQChcQCQB/y8A type=piano-roll&gt;&lt;/midi-visualizer&gt;\n",
       "          &lt;/section&gt;\n",
       "          \" width=\"100%\" height=\"400\"\n",
       "            style=\"border:none !important;\"\n",
       "            \"allowfullscreen\" \"webkitallowfullscreen\" \"mozallowfullscreen\">'\n",
       "            </iframe>"
      ],
      "text/plain": [
       "<midi_player.midi_player.MIDIPlayer at 0x7ff79839e540>"
      ]
     },
     "execution_count": 3,
     "metadata": {},
     "output_type": "execute_result"
    }
   ],
   "source": [
    "MIDIPlayer(midi_path, 400, styler=dark)"
   ]
  },
  {
   "cell_type": "code",
   "execution_count": 4,
   "metadata": {},
   "outputs": [
    {
     "name": "stdout",
     "output_type": "stream",
     "text": [
      "('/media/nova/Datasets/maestro/midi/2004/MIDI-Unprocessed_SMF_02_R1_2004_01-05_ORIG_MID--AUDIO_02_R1_2004_05_Track05_wav', '.midi')\n"
     ]
    }
   ],
   "source": [
    "import os\n",
    "\n",
    "print(os.path.splitext(midi_path))"
   ]
  }
 ],
 "metadata": {
  "kernelspec": {
   "display_name": ".venv",
   "language": "python",
   "name": "python3"
  },
  "language_info": {
   "codemirror_mode": {
    "name": "ipython",
    "version": 3
   },
   "file_extension": ".py",
   "mimetype": "text/x-python",
   "name": "python",
   "nbconvert_exporter": "python",
   "pygments_lexer": "ipython3",
   "version": "3.12.2"
  }
 },
 "nbformat": 4,
 "nbformat_minor": 2
}
