{
 "cells": [
  {
   "cell_type": "code",
   "execution_count": 1,
   "metadata": {},
   "outputs": [],
   "source": [
    "import mido\n",
    "from mido import Message, MidiFile, MidiTrack\n",
    "import pretty_midi\n",
    "import numpy as np\n",
    "from pathlib import Path\n",
    "import matplotlib.pyplot as plt\n",
    "import matplotlib.patches as patches\n",
    "import time"
   ]
  },
  {
   "cell_type": "code",
   "execution_count": 2,
   "metadata": {},
   "outputs": [
    {
     "name": "stdout",
     "output_type": "stream",
     "text": [
      "note_on channel=0 note=98 velocity=39 time=0\n",
      "note_on channel=0 note=100 velocity=48 time=0\n",
      "note_off channel=0 note=100 velocity=42 time=0\n",
      "note_off channel=0 note=98 velocity=43 time=0\n",
      "polytouch channel=0 note=98 value=127 time=0\n",
      "polytouch channel=0 note=98 value=0 time=0\n",
      "note_on channel=0 note=98 velocity=72 time=0\n",
      "note_off channel=0 note=98 velocity=57 time=0\n",
      "note_on channel=0 note=98 velocity=71 time=0\n",
      "note_off channel=0 note=98 velocity=53 time=0\n",
      "note_on channel=0 note=98 velocity=70 time=0\n",
      "note_off channel=0 note=98 velocity=59 time=0\n",
      "note_on channel=0 note=98 velocity=55 time=0\n",
      "note_off channel=0 note=98 velocity=39 time=0\n",
      "note_on channel=0 note=98 velocity=55 time=0\n",
      "note_off channel=0 note=98 velocity=58 time=0\n",
      "note_on channel=0 note=98 velocity=60 time=0\n",
      "note_off channel=0 note=98 velocity=57 time=0\n",
      "note_on channel=0 note=98 velocity=73 time=0\n",
      "note_off channel=0 note=98 velocity=63 time=0\n",
      "polytouch channel=0 note=77 value=127 time=0\n",
      "polytouch channel=0 note=79 value=0 time=0\n",
      "polytouch channel=0 note=77 value=0 time=0\n",
      "note_on channel=0 note=83 velocity=63 time=0\n",
      "note_off channel=0 note=83 velocity=67 time=0\n",
      "note_on channel=0 note=84 velocity=70 time=0\n",
      "note_on channel=0 note=86 velocity=13 time=0\n",
      "note_off channel=0 note=86 velocity=127 time=0\n",
      "note_off channel=0 note=84 velocity=13 time=0\n",
      "note_on channel=0 note=88 velocity=72 time=0\n",
      "note_off channel=0 note=88 velocity=65 time=0\n",
      "note_on channel=0 note=72 velocity=59 time=0\n",
      "note_off channel=0 note=72 velocity=65 time=0\n",
      "note_on channel=0 note=73 velocity=62 time=0\n",
      "note_off channel=0 note=73 velocity=62 time=0\n",
      "note_on channel=0 note=74 velocity=79 time=0\n",
      "note_off channel=0 note=74 velocity=69 time=0\n",
      "note_on channel=0 note=75 velocity=63 time=0\n",
      "note_off channel=0 note=75 velocity=43 time=0\n",
      "note_on channel=0 note=76 velocity=26 time=0\n",
      "note_off channel=0 note=76 velocity=64 time=0\n",
      "note_on channel=0 note=77 velocity=33 time=0\n",
      "note_off channel=0 note=77 velocity=72 time=0\n",
      "note_on channel=0 note=78 velocity=72 time=0\n",
      "note_off channel=0 note=78 velocity=5 time=0\n",
      "note_on channel=0 note=79 velocity=72 time=0\n",
      "note_off channel=0 note=79 velocity=1 time=0\n",
      "note_on channel=0 note=80 velocity=30 time=0\n",
      "note_off channel=0 note=80 velocity=17 time=0\n",
      "note_on channel=0 note=81 velocity=75 time=0\n",
      "note_off channel=0 note=81 velocity=14 time=0\n",
      "note_on channel=0 note=82 velocity=34 time=0\n",
      "note_off channel=0 note=82 velocity=54 time=0\n",
      "note_on channel=0 note=82 velocity=37 time=0\n",
      "note_off channel=0 note=82 velocity=8 time=0\n",
      "note_on channel=0 note=83 velocity=59 time=0\n",
      "note_off channel=0 note=83 velocity=7 time=0\n",
      "note_on channel=0 note=84 velocity=46 time=0\n",
      "note_off channel=0 note=84 velocity=57 time=0\n",
      "note_on channel=0 note=85 velocity=38 time=0\n",
      "note_off channel=0 note=85 velocity=57 time=0\n",
      "note_on channel=0 note=86 velocity=46 time=0\n",
      "note_off channel=0 note=86 velocity=56 time=0\n",
      "note_on channel=0 note=74 velocity=66 time=0\n",
      "note_off channel=0 note=74 velocity=67 time=0\n",
      "note_on channel=0 note=74 velocity=52 time=0\n",
      "note_off channel=0 note=74 velocity=60 time=0\n",
      "note_on channel=0 note=86 velocity=70 time=0\n",
      "note_on channel=0 note=74 velocity=68 time=0\n",
      "note_off channel=0 note=86 velocity=55 time=0\n",
      "note_off channel=0 note=74 velocity=67 time=0\n",
      "note_on channel=0 note=74 velocity=78 time=0\n",
      "note_off channel=0 note=74 velocity=72 time=0\n",
      "note_on channel=0 note=74 velocity=68 time=0\n",
      "note_off channel=0 note=74 velocity=64 time=0\n",
      "note_on channel=0 note=86 velocity=70 time=0\n",
      "note_off channel=0 note=86 velocity=60 time=0\n",
      "note_on channel=0 note=74 velocity=41 time=0\n",
      "note_off channel=0 note=74 velocity=0 time=0\n",
      "note_on channel=0 note=74 velocity=19 time=0\n",
      "note_off channel=0 note=74 velocity=60 time=0\n",
      "note_on channel=0 note=74 velocity=65 time=0\n",
      "note_off channel=0 note=74 velocity=66 time=0\n",
      "note_on channel=0 note=86 velocity=66 time=0\n",
      "note_off channel=0 note=86 velocity=61 time=0\n",
      "note_on channel=0 note=74 velocity=68 time=0\n",
      "note_off channel=0 note=74 velocity=64 time=0\n",
      "note_on channel=0 note=74 velocity=58 time=0\n",
      "note_off channel=0 note=74 velocity=65 time=0\n",
      "note_on channel=0 note=86 velocity=77 time=0\n",
      "note_off channel=0 note=86 velocity=64 time=0\n",
      "note_on channel=0 note=74 velocity=62 time=0\n",
      "note_off channel=0 note=74 velocity=0 time=0\n",
      "polytouch channel=0 note=74 value=0 time=0\n",
      "note_on channel=0 note=74 velocity=70 time=0\n",
      "note_off channel=0 note=74 velocity=67 time=0\n",
      "note_on channel=0 note=86 velocity=71 time=0\n",
      "note_off channel=0 note=86 velocity=60 time=0\n",
      "note_on channel=0 note=74 velocity=53 time=0\n",
      "note_off channel=0 note=74 velocity=64 time=0\n",
      "note_on channel=0 note=74 velocity=58 time=0\n",
      "note_off channel=0 note=74 velocity=66 time=0\n",
      "note_on channel=0 note=86 velocity=74 time=0\n",
      "note_off channel=0 note=86 velocity=65 time=0\n",
      "note_on channel=0 note=74 velocity=68 time=0\n",
      "note_off channel=0 note=74 velocity=66 time=0\n",
      "note_on channel=0 note=86 velocity=80 time=0\n",
      "note_on channel=0 note=74 velocity=69 time=0\n",
      "note_off channel=0 note=86 velocity=64 time=0\n",
      "note_off channel=0 note=74 velocity=63 time=0\n",
      "note_on channel=0 note=74 velocity=68 time=0\n",
      "note_off channel=0 note=74 velocity=67 time=0\n",
      "note_on channel=0 note=74 velocity=51 time=0\n",
      "note_off channel=0 note=74 velocity=62 time=0\n",
      "note_on channel=0 note=86 velocity=63 time=0\n",
      "note_off channel=0 note=86 velocity=64 time=0\n",
      "note_on channel=0 note=74 velocity=74 time=0\n",
      "note_off channel=0 note=74 velocity=65 time=0\n",
      "note_on channel=0 note=74 velocity=44 time=0\n",
      "note_off channel=0 note=74 velocity=59 time=0\n",
      "note_on channel=0 note=74 velocity=35 time=0\n",
      "note_off channel=0 note=74 velocity=45 time=0\n",
      "note_on channel=0 note=86 velocity=73 time=0\n",
      "note_on channel=0 note=74 velocity=68 time=0\n",
      "note_off channel=0 note=86 velocity=64 time=0\n",
      "note_off channel=0 note=74 velocity=64 time=0\n",
      "note_on channel=0 note=74 velocity=68 time=0\n",
      "note_off channel=0 note=74 velocity=67 time=0\n",
      "note_on channel=0 note=74 velocity=81 time=0\n",
      "note_off channel=0 note=74 velocity=69 time=0\n",
      "note_on channel=0 note=74 velocity=74 time=0\n",
      "note_off channel=0 note=74 velocity=66 time=0\n",
      "note_on channel=0 note=74 velocity=65 time=0\n",
      "note_off channel=0 note=74 velocity=67 time=0\n",
      "note_on channel=0 note=74 velocity=58 time=0\n",
      "note_off channel=0 note=74 velocity=127 time=0\n",
      "note_on channel=0 note=74 velocity=61 time=0\n",
      "note_off channel=0 note=74 velocity=66 time=0\n",
      "note_on channel=0 note=74 velocity=51 time=0\n",
      "note_off channel=0 note=74 velocity=0 time=0\n",
      "note_on channel=0 note=74 velocity=63 time=0\n",
      "note_off channel=0 note=74 velocity=61 time=0\n",
      "note_on channel=0 note=74 velocity=73 time=0\n",
      "note_off channel=0 note=74 velocity=68 time=0\n",
      "note_on channel=0 note=74 velocity=54 time=0\n",
      "note_off channel=0 note=74 velocity=127 time=0\n",
      "note_on channel=0 note=74 velocity=37 time=0\n",
      "note_off channel=0 note=74 velocity=60 time=0\n",
      "note_on channel=0 note=74 velocity=67 time=0\n",
      "note_off channel=0 note=74 velocity=67 time=0\n",
      "note_on channel=0 note=74 velocity=68 time=0\n",
      "note_off channel=0 note=74 velocity=68 time=0\n",
      "note_on channel=0 note=74 velocity=62 time=0\n",
      "note_off channel=0 note=74 velocity=127 time=0\n",
      "note_on channel=0 note=74 velocity=50 time=0\n",
      "note_off channel=0 note=74 velocity=59 time=0\n",
      "note_on channel=0 note=74 velocity=66 time=0\n",
      "note_off channel=0 note=74 velocity=66 time=0\n",
      "note_on channel=0 note=74 velocity=75 time=0\n",
      "note_off channel=0 note=74 velocity=68 time=0\n",
      "note_on channel=0 note=74 velocity=79 time=0\n",
      "note_off channel=0 note=74 velocity=73 time=0\n",
      "note_on channel=0 note=74 velocity=87 time=0\n",
      "note_off channel=0 note=74 velocity=70 time=0\n",
      "note_on channel=0 note=74 velocity=76 time=0\n",
      "note_off channel=0 note=74 velocity=70 time=0\n",
      "note_on channel=0 note=74 velocity=82 time=0\n",
      "note_off channel=0 note=74 velocity=70 time=0\n",
      "note_on channel=0 note=74 velocity=75 time=0\n",
      "note_off channel=0 note=74 velocity=41 time=0\n",
      "note_on channel=0 note=74 velocity=81 time=0\n",
      "note_off channel=0 note=74 velocity=70 time=0\n",
      "note_on channel=0 note=74 velocity=81 time=0\n",
      "note_off channel=0 note=74 velocity=71 time=0\n",
      "note_on channel=0 note=74 velocity=84 time=0\n",
      "note_off channel=0 note=74 velocity=69 time=0\n",
      "note_on channel=0 note=74 velocity=78 time=0\n",
      "note_off channel=0 note=74 velocity=69 time=0\n",
      "note_on channel=0 note=74 velocity=58 time=0\n",
      "note_off channel=0 note=74 velocity=61 time=0\n",
      "note_on channel=0 note=74 velocity=55 time=0\n",
      "note_off channel=0 note=74 velocity=33 time=0\n",
      "note_on channel=0 note=74 velocity=57 time=0\n",
      "note_off channel=0 note=74 velocity=42 time=0\n",
      "polytouch channel=0 note=74 value=0 time=0\n",
      "note_on channel=0 note=74 velocity=69 time=0\n",
      "note_off channel=0 note=74 velocity=67 time=0\n",
      "note_on channel=0 note=74 velocity=84 time=0\n",
      "note_off channel=0 note=74 velocity=71 time=0\n",
      "note_on channel=0 note=74 velocity=77 time=0\n",
      "note_off channel=0 note=74 velocity=68 time=0\n",
      "note_on channel=0 note=74 velocity=80 time=0\n",
      "note_off channel=0 note=74 velocity=69 time=0\n",
      "note_on channel=0 note=74 velocity=75 time=0\n",
      "note_off channel=0 note=74 velocity=70 time=0\n",
      "note_on channel=0 note=74 velocity=82 time=0\n",
      "note_off channel=0 note=74 velocity=70 time=0\n",
      "note_on channel=0 note=74 velocity=77 time=0\n",
      "note_off channel=0 note=74 velocity=68 time=0\n",
      "note_on channel=0 note=74 velocity=76 time=0\n",
      "note_off channel=0 note=74 velocity=71 time=0\n",
      "note_on channel=0 note=74 velocity=80 time=0\n",
      "note_off channel=0 note=74 velocity=70 time=0\n",
      "note_on channel=0 note=74 velocity=75 time=0\n",
      "note_off channel=0 note=74 velocity=67 time=0\n",
      "note_on channel=0 note=74 velocity=64 time=0\n",
      "note_off channel=0 note=74 velocity=68 time=0\n",
      "note_on channel=0 note=74 velocity=79 time=0\n",
      "note_off channel=0 note=74 velocity=68 time=0\n",
      "note_on channel=0 note=74 velocity=83 time=0\n",
      "note_off channel=0 note=74 velocity=71 time=0\n",
      "note_on channel=0 note=74 velocity=81 time=0\n",
      "note_off channel=0 note=74 velocity=70 time=0\n",
      "note_on channel=0 note=74 velocity=79 time=0\n",
      "note_off channel=0 note=74 velocity=68 time=0\n",
      "note_on channel=0 note=74 velocity=54 time=0\n",
      "note_off channel=0 note=74 velocity=127 time=0\n",
      "note_on channel=0 note=74 velocity=48 time=0\n",
      "note_off channel=0 note=74 velocity=66 time=0\n",
      "note_on channel=0 note=74 velocity=78 time=0\n",
      "note_off channel=0 note=74 velocity=68 time=0\n",
      "note_on channel=0 note=74 velocity=65 time=0\n",
      "note_off channel=0 note=74 velocity=127 time=0\n",
      "note_on channel=0 note=74 velocity=69 time=0\n",
      "note_off channel=0 note=74 velocity=68 time=0\n",
      "note_on channel=0 note=74 velocity=62 time=0\n",
      "note_off channel=0 note=74 velocity=41 time=0\n",
      "note_on channel=0 note=74 velocity=65 time=0\n",
      "note_off channel=0 note=74 velocity=66 time=0\n",
      "note_on channel=0 note=74 velocity=67 time=0\n",
      "note_off channel=0 note=74 velocity=0 time=0\n",
      "polytouch channel=0 note=74 value=0 time=0\n",
      "polytouch channel=0 note=74 value=0 time=0\n",
      "note_on channel=0 note=74 velocity=30 time=0\n",
      "note_off channel=0 note=74 velocity=64 time=0\n",
      "note_on channel=0 note=74 velocity=56 time=0\n",
      "note_off channel=0 note=74 velocity=62 time=0\n",
      "note_on channel=0 note=74 velocity=70 time=0\n",
      "note_off channel=0 note=74 velocity=67 time=0\n",
      "note_on channel=0 note=74 velocity=50 time=0\n",
      "note_off channel=0 note=74 velocity=36 time=0\n",
      "note_on channel=0 note=74 velocity=61 time=0\n",
      "note_off channel=0 note=74 velocity=66 time=0\n",
      "note_on channel=0 note=105 velocity=90 time=0\n",
      "note_off channel=0 note=105 velocity=34 time=0\n",
      "polytouch channel=0 note=105 value=127 time=0\n",
      "polytouch channel=0 note=105 value=0 time=0\n",
      "polytouch channel=0 note=105 value=127 time=0\n",
      "polytouch channel=0 note=105 value=0 time=0\n",
      "polytouch channel=0 note=105 value=127 time=0\n",
      "polytouch channel=0 note=105 value=0 time=0\n",
      "polytouch channel=0 note=105 value=127 time=0\n",
      "polytouch channel=0 note=105 value=0 time=0\n",
      "polytouch channel=0 note=105 value=127 time=0\n",
      "polytouch channel=0 note=105 value=0 time=0\n",
      "polytouch channel=0 note=105 value=127 time=0\n",
      "polytouch channel=0 note=105 value=0 time=0\n",
      "note_on channel=0 note=81 velocity=64 time=0\n",
      "note_off channel=0 note=81 velocity=56 time=0\n",
      "note_on channel=0 note=101 velocity=91 time=0\n",
      "note_off channel=0 note=101 velocity=0 time=0\n",
      "polytouch channel=0 note=101 value=127 time=0\n",
      "polytouch channel=0 note=101 value=0 time=0\n",
      "polytouch channel=0 note=101 value=127 time=0\n",
      "polytouch channel=0 note=101 value=0 time=0\n",
      "note_on channel=0 note=72 velocity=56 time=0\n",
      "note_off channel=0 note=72 velocity=38 time=0\n",
      "polytouch channel=0 note=72 value=127 time=0\n",
      "polytouch channel=0 note=72 value=0 time=0\n",
      "note_on channel=0 note=72 velocity=14 time=0\n",
      "note_off channel=0 note=72 velocity=43 time=0\n",
      "polytouch channel=0 note=96 value=127 time=0\n",
      "polytouch channel=0 note=96 value=0 time=0\n",
      "polytouch channel=0 note=96 value=127 time=0\n",
      "polytouch channel=0 note=96 value=0 time=0\n",
      "polytouch channel=0 note=96 value=127 time=0\n",
      "polytouch channel=0 note=96 value=0 time=0\n",
      "polytouch channel=0 note=96 value=127 time=0\n",
      "polytouch channel=0 note=96 value=0 time=0\n",
      "note_on channel=0 note=96 velocity=72 time=0\n",
      "note_off channel=0 note=96 velocity=0 time=0\n",
      "polytouch channel=0 note=96 value=127 time=0\n",
      "polytouch channel=0 note=96 value=0 time=0\n",
      "note_on channel=0 note=67 velocity=25 time=0\n",
      "note_off channel=0 note=67 velocity=42 time=0\n",
      "note_on channel=0 note=60 velocity=22 time=0\n",
      "note_off channel=0 note=60 velocity=51 time=0\n",
      "polytouch channel=0 note=96 value=127 time=0\n",
      "polytouch channel=0 note=96 value=0 time=0\n",
      "note_on channel=0 note=96 velocity=59 time=0\n",
      "note_off channel=0 note=96 velocity=8 time=0\n",
      "polytouch channel=0 note=96 value=127 time=0\n",
      "polytouch channel=0 note=96 value=0 time=0\n",
      "note_on channel=0 note=98 velocity=88 time=0\n",
      "note_off channel=0 note=98 velocity=0 time=0\n",
      "polytouch channel=0 note=98 value=127 time=0\n",
      "polytouch channel=0 note=98 value=0 time=0\n",
      "polytouch channel=0 note=98 value=127 time=0\n",
      "polytouch channel=0 note=98 value=0 time=0\n",
      "polytouch channel=0 note=98 value=127 time=0\n",
      "polytouch channel=0 note=98 value=0 time=0\n",
      "polytouch channel=0 note=98 value=127 time=0\n",
      "polytouch channel=0 note=98 value=0 time=0\n",
      "polytouch channel=0 note=67 value=127 time=0\n",
      "polytouch channel=0 note=67 value=0 time=0\n",
      "polytouch channel=0 note=67 value=127 time=0\n",
      "polytouch channel=0 note=67 value=0 time=0\n",
      "polytouch channel=0 note=67 value=127 time=0\n",
      "polytouch channel=0 note=67 value=0 time=0\n",
      "polytouch channel=0 note=67 value=127 time=0\n",
      "polytouch channel=0 note=67 value=0 time=0\n",
      "polytouch channel=0 note=67 value=127 time=0\n",
      "polytouch channel=0 note=67 value=0 time=0\n",
      "polytouch channel=0 note=67 value=127 time=0\n",
      "polytouch channel=0 note=67 value=0 time=0\n",
      "polytouch channel=0 note=67 value=127 time=0\n",
      "polytouch channel=0 note=67 value=0 time=0\n",
      "polytouch channel=0 note=67 value=127 time=0\n",
      "polytouch channel=0 note=67 value=0 time=0\n",
      "polytouch channel=0 note=67 value=127 time=0\n",
      "polytouch channel=0 note=67 value=0 time=0\n",
      "note_on channel=0 note=67 velocity=18 time=0\n",
      "note_off channel=0 note=67 velocity=47 time=0\n",
      "polytouch channel=0 note=67 value=0 time=0\n",
      "polytouch channel=0 note=67 value=127 time=0\n",
      "polytouch channel=0 note=67 value=0 time=0\n",
      "polytouch channel=0 note=67 value=127 time=0\n",
      "polytouch channel=0 note=67 value=0 time=0\n",
      "polytouch channel=0 note=67 value=127 time=0\n",
      "polytouch channel=0 note=67 value=0 time=0\n",
      "note_on channel=0 note=67 velocity=15 time=0\n",
      "note_off channel=0 note=67 velocity=44 time=0\n",
      "polytouch channel=0 note=67 value=127 time=0\n",
      "polytouch channel=0 note=67 value=0 time=0\n",
      "polytouch channel=0 note=67 value=127 time=0\n",
      "polytouch channel=0 note=67 value=0 time=0\n",
      "polytouch channel=0 note=67 value=127 time=0\n",
      "polytouch channel=0 note=67 value=0 time=0\n",
      "polytouch channel=0 note=67 value=127 time=0\n",
      "polytouch channel=0 note=67 value=0 time=0\n",
      "polytouch channel=0 note=67 value=127 time=0\n",
      "polytouch channel=0 note=67 value=0 time=0\n",
      "polytouch channel=0 note=67 value=127 time=0\n",
      "polytouch channel=0 note=67 value=0 time=0\n",
      "note_on channel=0 note=67 velocity=4 time=0\n",
      "note_off channel=0 note=67 velocity=48 time=0\n",
      "polytouch channel=0 note=67 value=127 time=0\n",
      "polytouch channel=0 note=67 value=0 time=0\n",
      "note_on channel=0 note=57 velocity=34 time=0\n",
      "note_on channel=0 note=61 velocity=9 time=0\n",
      "note_off channel=0 note=57 velocity=55 time=0\n",
      "note_off channel=0 note=61 velocity=34 time=0\n",
      "note_on channel=0 note=75 velocity=33 time=0\n",
      "note_off channel=0 note=75 velocity=37 time=0\n",
      "note_on channel=0 note=57 velocity=12 time=0\n",
      "polytouch channel=0 note=63 value=127 time=0\n",
      "polytouch channel=0 note=61 value=127 time=0\n",
      "polytouch channel=0 note=67 value=127 time=0\n",
      "note_off channel=0 note=57 velocity=44 time=0\n",
      "polytouch channel=0 note=63 value=0 time=0\n",
      "polytouch channel=0 note=61 value=0 time=0\n",
      "polytouch channel=0 note=67 value=0 time=0\n",
      "polytouch channel=0 note=69 value=127 time=0\n",
      "note_on channel=0 note=75 velocity=7 time=0\n",
      "polytouch channel=0 note=73 value=127 time=0\n",
      "polytouch channel=0 note=77 value=127 time=0\n",
      "note_off channel=0 note=75 velocity=33 time=0\n",
      "polytouch channel=0 note=77 value=0 time=0\n",
      "polytouch channel=0 note=69 value=0 time=0\n",
      "polytouch channel=0 note=73 value=0 time=0\n",
      "polytouch channel=0 note=67 value=127 time=0\n",
      "polytouch channel=0 note=63 value=127 time=0\n",
      "polytouch channel=0 note=61 value=127 time=0\n",
      "polytouch channel=0 note=57 value=127 time=0\n",
      "polytouch channel=0 note=57 value=0 time=0\n",
      "polytouch channel=0 note=63 value=0 time=0\n",
      "polytouch channel=0 note=61 value=0 time=0\n",
      "polytouch channel=0 note=67 value=0 time=0\n",
      "polytouch channel=0 note=75 value=127 time=0\n",
      "polytouch channel=0 note=77 value=127 time=0\n",
      "polytouch channel=0 note=73 value=127 time=0\n",
      "polytouch channel=0 note=69 value=127 time=0\n",
      "polytouch channel=0 note=69 value=0 time=0\n",
      "polytouch channel=0 note=73 value=0 time=0\n",
      "polytouch channel=0 note=77 value=0 time=0\n",
      "polytouch channel=0 note=75 value=0 time=0\n",
      "polytouch channel=0 note=67 value=127 time=0\n",
      "polytouch channel=0 note=63 value=127 time=0\n",
      "polytouch channel=0 note=61 value=127 time=0\n",
      "polytouch channel=0 note=57 value=127 time=0\n",
      "polytouch channel=0 note=57 value=0 time=0\n",
      "polytouch channel=0 note=67 value=0 time=0\n",
      "polytouch channel=0 note=63 value=0 time=0\n",
      "polytouch channel=0 note=61 value=0 time=0\n",
      "polytouch channel=0 note=63 value=127 time=0\n",
      "polytouch channel=0 note=58 value=127 time=0\n",
      "polytouch channel=0 note=67 value=127 time=0\n",
      "polytouch channel=0 note=71 value=127 time=0\n",
      "polytouch channel=0 note=73 value=127 time=0\n",
      "polytouch channel=0 note=77 value=127 time=0\n",
      "polytouch channel=0 note=67 value=0 time=0\n",
      "polytouch channel=0 note=63 value=0 time=0\n",
      "polytouch channel=0 note=58 value=0 time=0\n",
      "polytouch channel=0 note=77 value=0 time=0\n",
      "polytouch channel=0 note=71 value=0 time=0\n",
      "polytouch channel=0 note=73 value=0 time=0\n",
      "polytouch channel=0 note=61 value=127 time=0\n",
      "polytouch channel=0 note=66 value=127 time=0\n",
      "polytouch channel=0 note=56 value=127 time=0\n",
      "polytouch channel=0 note=73 value=127 time=0\n",
      "polytouch channel=0 note=71 value=127 time=0\n",
      "polytouch channel=0 note=75 value=127 time=0\n",
      "polytouch channel=0 note=80 value=127 time=0\n",
      "polytouch channel=0 note=56 value=0 time=0\n",
      "polytouch channel=0 note=61 value=0 time=0\n",
      "polytouch channel=0 note=66 value=0 time=0\n",
      "polytouch channel=0 note=62 value=127 time=0\n",
      "note_on channel=0 note=67 velocity=11 time=0\n",
      "polytouch channel=0 note=55 value=127 time=0\n",
      "polytouch channel=0 note=71 value=0 time=0\n",
      "polytouch channel=0 note=73 value=0 time=0\n",
      "polytouch channel=0 note=75 value=0 time=0\n",
      "polytouch channel=0 note=80 value=0 time=0\n",
      "note_off channel=0 note=67 velocity=43 time=0\n",
      "polytouch channel=0 note=55 value=0 time=0\n",
      "polytouch channel=0 note=62 value=0 time=0\n",
      "note_on channel=0 note=81 velocity=23 time=0\n",
      "polytouch channel=0 note=74 value=127 time=0\n",
      "polytouch channel=0 note=76 value=127 time=0\n",
      "polytouch channel=0 note=71 value=127 time=0\n",
      "note_off channel=0 note=81 velocity=42 time=0\n",
      "polytouch channel=0 note=76 value=0 time=0\n",
      "polytouch channel=0 note=71 value=0 time=0\n",
      "polytouch channel=0 note=74 value=0 time=0\n",
      "polytouch channel=0 note=62 value=127 time=0\n",
      "polytouch channel=0 note=67 value=127 time=0\n",
      "polytouch channel=0 note=55 value=127 time=0\n",
      "polytouch channel=0 note=62 value=0 time=0\n",
      "polytouch channel=0 note=67 value=0 time=0\n",
      "polytouch channel=0 note=55 value=0 time=0\n",
      "note_on channel=0 note=48 velocity=74 time=0\n",
      "note_off channel=0 note=48 velocity=61 time=0\n",
      "note_on channel=0 note=50 velocity=70 time=0\n",
      "note_off channel=0 note=50 velocity=62 time=0\n",
      "note_on channel=0 note=52 velocity=76 time=0\n",
      "note_off channel=0 note=52 velocity=59 time=0\n",
      "note_on channel=0 note=53 velocity=70 time=0\n",
      "note_off channel=0 note=53 velocity=62 time=0\n",
      "note_on channel=0 note=55 velocity=72 time=0\n",
      "note_off channel=0 note=55 velocity=62 time=0\n",
      "note_on channel=0 note=53 velocity=70 time=0\n",
      "note_off channel=0 note=53 velocity=63 time=0\n",
      "note_on channel=0 note=52 velocity=73 time=0\n",
      "note_off channel=0 note=52 velocity=62 time=0\n",
      "note_on channel=0 note=50 velocity=74 time=0\n",
      "note_off channel=0 note=50 velocity=60 time=0\n",
      "note_on channel=0 note=48 velocity=80 time=0\n",
      "note_off channel=0 note=48 velocity=60 time=0\n",
      "polytouch channel=0 note=72 value=127 time=0\n",
      "polytouch channel=0 note=79 value=127 time=0\n",
      "polytouch channel=0 note=67 value=127 time=0\n",
      "polytouch channel=0 note=76 value=127 time=0\n",
      "polytouch channel=0 note=67 value=0 time=0\n",
      "polytouch channel=0 note=79 value=0 time=0\n",
      "polytouch channel=0 note=72 value=0 time=0\n",
      "polytouch channel=0 note=72 value=127 time=0\n",
      "polytouch channel=0 note=67 value=127 time=0\n",
      "polytouch channel=0 note=79 value=127 time=0\n",
      "note_on channel=0 note=48 velocity=75 time=0\n",
      "note_off channel=0 note=48 velocity=61 time=0\n",
      "note_on channel=0 note=50 velocity=71 time=0\n",
      "note_off channel=0 note=50 velocity=62 time=0\n",
      "note_on channel=0 note=52 velocity=70 time=0\n",
      "note_off channel=0 note=52 velocity=57 time=0\n",
      "note_on channel=0 note=53 velocity=72 time=0\n",
      "note_off channel=0 note=53 velocity=60 time=0\n",
      "note_on channel=0 note=55 velocity=76 time=0\n",
      "note_off channel=0 note=55 velocity=61 time=0\n",
      "note_on channel=0 note=53 velocity=77 time=0\n",
      "note_off channel=0 note=53 velocity=62 time=0\n",
      "note_on channel=0 note=52 velocity=77 time=0\n",
      "note_off channel=0 note=52 velocity=62 time=0\n",
      "note_on channel=0 note=50 velocity=75 time=0\n",
      "note_off channel=0 note=50 velocity=63 time=0\n",
      "note_on channel=0 note=48 velocity=89 time=0\n",
      "note_off channel=0 note=48 velocity=61 time=0\n",
      "polytouch channel=0 note=67 value=0 time=0\n",
      "polytouch channel=0 note=72 value=0 time=0\n",
      "polytouch channel=0 note=76 value=0 time=0\n",
      "polytouch channel=0 note=79 value=0 time=0\n",
      "polytouch channel=0 note=73 value=127 time=0\n",
      "polytouch channel=0 note=60 value=127 time=0\n",
      "polytouch channel=0 note=60 value=0 time=0\n",
      "note_on channel=0 note=60 velocity=88 time=0\n",
      "note_off channel=0 note=60 velocity=62 time=0\n",
      "note_on channel=0 note=61 velocity=85 time=0\n",
      "note_off channel=0 note=61 velocity=63 time=0\n",
      "note_on channel=0 note=80 velocity=83 time=0\n",
      "note_on channel=0 note=61 velocity=84 time=0\n",
      "note_off channel=0 note=61 velocity=62 time=0\n",
      "note_off channel=0 note=80 velocity=62 time=0\n",
      "note_on channel=0 note=61 velocity=76 time=0\n",
      "note_on channel=0 note=80 velocity=78 time=0\n",
      "note_on channel=0 note=85 velocity=83 time=0\n",
      "note_off channel=0 note=61 velocity=62 time=0\n",
      "note_off channel=0 note=85 velocity=63 time=0\n",
      "note_off channel=0 note=80 velocity=60 time=0\n",
      "polytouch channel=0 note=73 value=0 time=0\n",
      "polytouch channel=0 note=61 value=127 time=0\n",
      "note_on channel=0 note=73 velocity=73 time=0\n",
      "note_on channel=0 note=89 velocity=80 time=0\n",
      "note_on channel=0 note=85 velocity=77 time=0\n",
      "note_on channel=0 note=80 velocity=77 time=0\n",
      "note_off channel=0 note=73 velocity=60 time=0\n",
      "note_off channel=0 note=80 velocity=59 time=0\n",
      "note_off channel=0 note=89 velocity=61 time=0\n",
      "note_off channel=0 note=85 velocity=60 time=0\n",
      "polytouch channel=0 note=61 value=0 time=0\n",
      "polytouch channel=0 note=56 value=127 time=0\n",
      "polytouch channel=0 note=64 value=127 time=0\n",
      "polytouch channel=0 note=61 value=127 time=0\n",
      "polytouch channel=0 note=56 value=0 time=0\n",
      "polytouch channel=0 note=61 value=0 time=0\n",
      "polytouch channel=0 note=64 value=0 time=0\n",
      "polytouch channel=0 note=64 value=127 time=0\n",
      "polytouch channel=0 note=58 value=127 time=0\n",
      "polytouch channel=0 note=54 value=127 time=0\n",
      "polytouch channel=0 note=60 value=127 time=0\n",
      "note_on channel=0 note=72 velocity=73 time=0\n",
      "note_off channel=0 note=72 velocity=62 time=0\n",
      "note_on channel=0 note=79 velocity=86 time=0\n",
      "note_off channel=0 note=79 velocity=64 time=0\n",
      "note_on channel=0 note=78 velocity=74 time=0\n",
      "note_off channel=0 note=78 velocity=64 time=0\n",
      "note_on channel=0 note=79 velocity=78 time=0\n",
      "note_off channel=0 note=79 velocity=66 time=0\n",
      "note_on channel=0 note=77 velocity=80 time=0\n",
      "note_off channel=0 note=77 velocity=65 time=0\n",
      "note_on channel=0 note=74 velocity=64 time=0\n",
      "note_on channel=0 note=72 velocity=56 time=0\n",
      "note_off channel=0 note=72 velocity=63 time=0\n",
      "note_off channel=0 note=74 velocity=63 time=0\n",
      "note_on channel=0 note=74 velocity=78 time=0\n",
      "note_off channel=0 note=74 velocity=63 time=0\n",
      "note_on channel=0 note=76 velocity=72 time=0\n",
      "note_off channel=0 note=76 velocity=63 time=0\n",
      "note_on channel=0 note=72 velocity=83 time=0\n",
      "note_off channel=0 note=72 velocity=65 time=0\n",
      "note_on channel=0 note=69 velocity=74 time=0\n",
      "note_off channel=0 note=69 velocity=64 time=0\n",
      "polytouch channel=0 note=60 value=0 time=0\n",
      "polytouch channel=0 note=58 value=0 time=0\n",
      "polytouch channel=0 note=54 value=0 time=0\n",
      "polytouch channel=0 note=64 value=0 time=0\n",
      "note_on channel=0 note=77 velocity=84 time=0\n",
      "note_off channel=0 note=77 velocity=53 time=0\n",
      "control_change channel=0 control=64 value=41 time=0\n",
      "control_change channel=0 control=64 value=53 time=0\n",
      "control_change channel=0 control=64 value=59 time=0\n",
      "control_change channel=0 control=64 value=63 time=0\n",
      "note_on channel=0 note=41 velocity=47 time=0\n",
      "control_change channel=0 control=64 value=65 time=0\n",
      "control_change channel=0 control=64 value=67 time=0\n",
      "control_change channel=0 control=64 value=70 time=0\n",
      "control_change channel=0 control=64 value=75 time=0\n",
      "control_change channel=0 control=64 value=80 time=0\n",
      "control_change channel=0 control=64 value=88 time=0\n",
      "control_change channel=0 control=64 value=103 time=0\n",
      "control_change channel=0 control=64 value=127 time=0\n",
      "note_off channel=0 note=41 velocity=55 time=0\n",
      "note_on channel=0 note=48 velocity=44 time=0\n",
      "note_off channel=0 note=48 velocity=54 time=0\n",
      "polytouch channel=0 note=53 value=127 time=0\n",
      "note_on channel=0 note=57 velocity=50 time=0\n",
      "note_off channel=0 note=57 velocity=55 time=0\n",
      "note_on channel=0 note=53 velocity=8 time=0\n",
      "note_off channel=0 note=53 velocity=53 time=0\n",
      "note_on channel=0 note=48 velocity=57 time=0\n",
      "note_off channel=0 note=48 velocity=59 time=0\n",
      "note_on channel=0 note=41 velocity=41 time=0\n",
      "note_off channel=0 note=41 velocity=46 time=0\n",
      "note_on channel=0 note=48 velocity=50 time=0\n",
      "note_off channel=0 note=48 velocity=49 time=0\n",
      "note_on channel=0 note=53 velocity=48 time=0\n",
      "note_off channel=0 note=53 velocity=61 time=0\n",
      "note_on channel=0 note=57 velocity=45 time=0\n",
      "note_off channel=0 note=57 velocity=60 time=0\n",
      "note_on channel=0 note=53 velocity=16 time=0\n",
      "note_on channel=0 note=48 velocity=43 time=0\n",
      "note_off channel=0 note=53 velocity=55 time=0\n",
      "note_off channel=0 note=48 velocity=59 time=0\n",
      "note_on channel=0 note=41 velocity=36 time=0\n",
      "note_off channel=0 note=41 velocity=55 time=0\n",
      "note_on channel=0 note=48 velocity=53 time=0\n",
      "note_off channel=0 note=48 velocity=49 time=0\n",
      "note_on channel=0 note=53 velocity=35 time=0\n",
      "note_off channel=0 note=53 velocity=56 time=0\n",
      "note_on channel=0 note=57 velocity=39 time=0\n",
      "note_off channel=0 note=57 velocity=61 time=0\n",
      "note_on channel=0 note=53 velocity=8 time=0\n",
      "note_on channel=0 note=48 velocity=60 time=0\n",
      "note_off channel=0 note=53 velocity=53 time=0\n",
      "note_off channel=0 note=48 velocity=48 time=0\n",
      "note_on channel=0 note=41 velocity=28 time=0\n",
      "note_off channel=0 note=41 velocity=56 time=0\n",
      "note_on channel=0 note=48 velocity=51 time=0\n",
      "note_off channel=0 note=48 velocity=51 time=0\n",
      "note_on channel=0 note=53 velocity=21 time=0\n",
      "note_on channel=0 note=57 velocity=51 time=0\n",
      "note_off channel=0 note=53 velocity=47 time=0\n",
      "note_off channel=0 note=57 velocity=61 time=0\n",
      "polytouch channel=0 note=53 value=127 time=0\n",
      "note_on channel=0 note=48 velocity=37 time=0\n",
      "polytouch channel=0 note=53 value=0 time=0\n",
      "note_off channel=0 note=48 velocity=51 time=0\n",
      "note_on channel=0 note=41 velocity=36 time=0\n",
      "note_off channel=0 note=41 velocity=52 time=0\n",
      "note_on channel=0 note=48 velocity=46 time=0\n",
      "note_off channel=0 note=48 velocity=51 time=0\n",
      "note_on channel=0 note=53 velocity=35 time=0\n",
      "note_off channel=0 note=53 velocity=57 time=0\n",
      "note_on channel=0 note=57 velocity=34 time=0\n",
      "note_off channel=0 note=57 velocity=52 time=0\n",
      "note_on channel=0 note=48 velocity=23 time=0\n",
      "note_on channel=0 note=41 velocity=47 time=0\n",
      "note_off channel=0 note=48 velocity=52 time=0\n",
      "note_off channel=0 note=41 velocity=57 time=0\n",
      "note_on channel=0 note=48 velocity=53 time=0\n",
      "note_off channel=0 note=48 velocity=54 time=0\n",
      "note_on channel=0 note=53 velocity=43 time=0\n",
      "note_off channel=0 note=53 velocity=55 time=0\n",
      "note_on channel=0 note=57 velocity=48 time=0\n",
      "note_off channel=0 note=57 velocity=60 time=0\n",
      "note_on channel=0 note=48 velocity=46 time=0\n",
      "note_off channel=0 note=48 velocity=51 time=0\n",
      "note_on channel=0 note=41 velocity=51 time=0\n",
      "note_off channel=0 note=41 velocity=48 time=0\n",
      "note_on channel=0 note=48 velocity=45 time=0\n",
      "note_off channel=0 note=48 velocity=52 time=0\n",
      "note_on channel=0 note=53 velocity=36 time=0\n",
      "note_off channel=0 note=53 velocity=55 time=0\n",
      "note_on channel=0 note=57 velocity=44 time=0\n",
      "note_off channel=0 note=57 velocity=62 time=0\n",
      "note_on channel=0 note=48 velocity=49 time=0\n",
      "note_off channel=0 note=48 velocity=52 time=0\n",
      "note_on channel=0 note=41 velocity=43 time=0\n",
      "note_off channel=0 note=41 velocity=47 time=0\n",
      "note_on channel=0 note=53 velocity=42 time=0\n",
      "note_off channel=0 note=53 velocity=50 time=0\n",
      "note_on channel=0 note=57 velocity=33 time=0\n",
      "note_off channel=0 note=57 velocity=54 time=0\n",
      "note_on channel=0 note=48 velocity=47 time=0\n",
      "note_on channel=0 note=41 velocity=49 time=0\n",
      "note_off channel=0 note=48 velocity=35 time=0\n",
      "note_off channel=0 note=41 velocity=55 time=0\n",
      "note_on channel=0 note=48 velocity=40 time=0\n",
      "note_off channel=0 note=48 velocity=53 time=0\n",
      "note_on channel=0 note=53 velocity=28 time=0\n",
      "note_off channel=0 note=53 velocity=51 time=0\n",
      "note_on channel=0 note=57 velocity=35 time=0\n",
      "note_off channel=0 note=57 velocity=56 time=0\n",
      "note_on channel=0 note=53 velocity=6 time=0\n",
      "note_off channel=0 note=53 velocity=55 time=0\n",
      "note_on channel=0 note=48 velocity=41 time=0\n",
      "note_off channel=0 note=48 velocity=50 time=0\n",
      "note_on channel=0 note=41 velocity=50 time=0\n",
      "note_off channel=0 note=41 velocity=51 time=0\n",
      "note_on channel=0 note=48 velocity=48 time=0\n",
      "note_on channel=0 note=77 velocity=79 time=0\n",
      "note_off channel=0 note=48 velocity=35 time=0\n",
      "note_on channel=0 note=53 velocity=19 time=0\n",
      "note_off channel=0 note=53 velocity=51 time=0\n",
      "note_on channel=0 note=57 velocity=39 time=0\n",
      "note_off channel=0 note=57 velocity=63 time=0\n",
      "note_on channel=0 note=48 velocity=38 time=0\n",
      "note_off channel=0 note=48 velocity=56 time=0\n",
      "note_on channel=0 note=41 velocity=34 time=0\n",
      "note_off channel=0 note=41 velocity=51 time=0\n",
      "note_on channel=0 note=48 velocity=51 time=0\n",
      "note_off channel=0 note=48 velocity=55 time=0\n",
      "polytouch channel=0 note=53 value=127 time=0\n",
      "note_on channel=0 note=57 velocity=47 time=0\n",
      "polytouch channel=0 note=53 value=0 time=0\n",
      "note_off channel=0 note=57 velocity=62 time=0\n",
      "polytouch channel=0 note=53 value=127 time=0\n",
      "polytouch channel=0 note=53 value=0 time=0\n",
      "note_on channel=0 note=48 velocity=28 time=0\n",
      "note_on channel=0 note=76 velocity=76 time=0\n",
      "note_off channel=0 note=48 velocity=47 time=0\n",
      "note_off channel=0 note=77 velocity=61 time=0\n",
      "note_on channel=0 note=41 velocity=48 time=0\n",
      "note_off channel=0 note=41 velocity=56 time=0\n",
      "note_on channel=0 note=48 velocity=50 time=0\n",
      "note_off channel=0 note=48 velocity=52 time=0\n",
      "note_on channel=0 note=53 velocity=39 time=0\n",
      "note_off channel=0 note=53 velocity=60 time=0\n",
      "note_on channel=0 note=57 velocity=53 time=0\n",
      "note_off channel=0 note=57 velocity=57 time=0\n",
      "note_on channel=0 note=53 velocity=41 time=0\n",
      "note_off channel=0 note=53 velocity=50 time=0\n",
      "note_on channel=0 note=48 velocity=49 time=0\n",
      "note_on channel=0 note=41 velocity=47 time=0\n",
      "note_on channel=0 note=69 velocity=73 time=0\n",
      "note_on channel=0 note=71 velocity=72 time=0\n",
      "note_off channel=0 note=41 velocity=46 time=0\n",
      "note_off channel=0 note=48 velocity=0 time=0\n",
      "note_on channel=0 note=48 velocity=38 time=0\n",
      "note_off channel=0 note=71 velocity=59 time=0\n",
      "note_off channel=0 note=48 velocity=50 time=0\n",
      "note_on channel=0 note=53 velocity=45 time=0\n",
      "note_off channel=0 note=53 velocity=60 time=0\n",
      "note_on channel=0 note=57 velocity=47 time=0\n",
      "note_off channel=0 note=57 velocity=58 time=0\n",
      "note_off channel=0 note=76 velocity=61 time=0\n",
      "note_on channel=0 note=48 velocity=48 time=0\n",
      "note_off channel=0 note=48 velocity=53 time=0\n",
      "note_on channel=0 note=41 velocity=40 time=0\n",
      "note_on channel=0 note=74 velocity=81 time=0\n",
      "note_off channel=0 note=41 velocity=59 time=0\n",
      "note_off channel=0 note=69 velocity=61 time=0\n",
      "note_on channel=0 note=48 velocity=38 time=0\n",
      "note_off channel=0 note=48 velocity=47 time=0\n",
      "note_on channel=0 note=53 velocity=20 time=0\n",
      "note_off channel=0 note=53 velocity=47 time=0\n",
      "note_on channel=0 note=57 velocity=48 time=0\n",
      "note_off channel=0 note=57 velocity=63 time=0\n",
      "note_on channel=0 note=53 velocity=44 time=0\n",
      "note_off channel=0 note=53 velocity=57 time=0\n",
      "note_on channel=0 note=48 velocity=47 time=0\n",
      "note_off channel=0 note=48 velocity=53 time=0\n",
      "note_on channel=0 note=41 velocity=50 time=0\n",
      "note_off channel=0 note=41 velocity=58 time=0\n",
      "note_on channel=0 note=48 velocity=51 time=0\n",
      "note_on channel=0 note=72 velocity=75 time=0\n",
      "note_off channel=0 note=74 velocity=58 time=0\n",
      "note_off channel=0 note=48 velocity=54 time=0\n",
      "note_on channel=0 note=53 velocity=38 time=0\n",
      "note_off channel=0 note=53 velocity=54 time=0\n",
      "note_on channel=0 note=57 velocity=47 time=0\n",
      "note_off channel=0 note=57 velocity=60 time=0\n",
      "note_on channel=0 note=48 velocity=26 time=0\n",
      "note_off channel=0 note=48 velocity=50 time=0\n",
      "note_on channel=0 note=41 velocity=26 time=0\n",
      "note_off channel=0 note=41 velocity=44 time=0\n",
      "note_on channel=0 note=48 velocity=56 time=0\n",
      "note_off channel=0 note=48 velocity=48 time=0\n",
      "note_on channel=0 note=53 velocity=48 time=0\n",
      "note_on channel=0 note=65 velocity=73 time=0\n",
      "note_off channel=0 note=53 velocity=58 time=0\n",
      "note_on channel=0 note=57 velocity=38 time=0\n",
      "note_off channel=0 note=57 velocity=59 time=0\n",
      "polytouch channel=0 note=53 value=127 time=0\n",
      "note_on channel=0 note=48 velocity=40 time=0\n",
      "polytouch channel=0 note=53 value=0 time=0\n",
      "note_off channel=0 note=48 velocity=35 time=0\n",
      "note_on channel=0 note=41 velocity=44 time=0\n",
      "note_off channel=0 note=72 velocity=58 time=0\n",
      "note_off channel=0 note=41 velocity=0 time=0\n",
      "polytouch channel=0 note=48 value=127 time=0\n",
      "polytouch channel=0 note=41 value=127 time=0\n",
      "polytouch channel=0 note=48 value=0 time=0\n",
      "control_change channel=0 control=64 value=104 time=0\n",
      "control_change channel=0 control=64 value=89 time=0\n",
      "control_change channel=0 control=64 value=78 time=0\n",
      "control_change channel=0 control=64 value=72 time=0\n",
      "control_change channel=0 control=64 value=69 time=0\n",
      "control_change channel=0 control=64 value=70 time=0\n",
      "control_change channel=0 control=64 value=70 time=0\n",
      "control_change channel=0 control=64 value=71 time=0\n",
      "control_change channel=0 control=64 value=71 time=0\n",
      "control_change channel=0 control=64 value=72 time=0\n",
      "control_change channel=0 control=64 value=73 time=0\n",
      "control_change channel=0 control=64 value=74 time=0\n",
      "control_change channel=0 control=64 value=75 time=0\n",
      "control_change channel=0 control=64 value=75 time=0\n",
      "control_change channel=0 control=64 value=76 time=0\n",
      "control_change channel=0 control=64 value=77 time=0\n",
      "control_change channel=0 control=64 value=76 time=0\n",
      "control_change channel=0 control=64 value=75 time=0\n",
      "control_change channel=0 control=64 value=74 time=0\n",
      "control_change channel=0 control=64 value=72 time=0\n",
      "control_change channel=0 control=64 value=69 time=0\n",
      "control_change channel=0 control=64 value=65 time=0\n",
      "control_change channel=0 control=64 value=62 time=0\n",
      "control_change channel=0 control=64 value=57 time=0\n",
      "control_change channel=0 control=64 value=52 time=0\n",
      "control_change channel=0 control=64 value=41 time=0\n",
      "control_change channel=0 control=64 value=0 time=0\n",
      "polytouch channel=0 note=41 value=0 time=0\n",
      "note_off channel=0 note=65 velocity=63 time=0\n",
      "note_on channel=0 note=77 velocity=79 time=0\n",
      "note_on channel=0 note=41 velocity=26 time=0\n",
      "note_off channel=0 note=41 velocity=57 time=0\n",
      "note_on channel=0 note=48 velocity=44 time=0\n",
      "note_on channel=0 note=53 velocity=50 time=0\n",
      "note_off channel=0 note=48 velocity=53 time=0\n",
      "note_off channel=0 note=53 velocity=61 time=0\n",
      "note_on channel=0 note=57 velocity=50 time=0\n",
      "note_off channel=0 note=57 velocity=62 time=0\n",
      "note_on channel=0 note=53 velocity=49 time=0\n",
      "note_off channel=0 note=53 velocity=56 time=0\n",
      "note_on channel=0 note=48 velocity=45 time=0\n",
      "note_off channel=0 note=48 velocity=61 time=0\n",
      "note_on channel=0 note=41 velocity=53 time=0\n",
      "note_off channel=0 note=41 velocity=62 time=0\n",
      "note_on channel=0 note=48 velocity=53 time=0\n",
      "note_off channel=0 note=48 velocity=55 time=0\n",
      "note_on channel=0 note=53 velocity=24 time=0\n",
      "note_off channel=0 note=53 velocity=56 time=0\n",
      "note_on channel=0 note=57 velocity=58 time=0\n",
      "note_off channel=0 note=57 velocity=64 time=0\n",
      "note_on channel=0 note=48 velocity=62 time=0\n",
      "note_off channel=0 note=48 velocity=49 time=0\n",
      "note_on channel=0 note=41 velocity=50 time=0\n",
      "note_off channel=0 note=41 velocity=60 time=0\n",
      "note_on channel=0 note=48 velocity=53 time=0\n",
      "note_on channel=0 note=53 velocity=46 time=0\n",
      "note_off channel=0 note=48 velocity=53 time=0\n",
      "note_off channel=0 note=53 velocity=58 time=0\n",
      "note_on channel=0 note=57 velocity=51 time=0\n",
      "note_off channel=0 note=57 velocity=65 time=0\n",
      "note_on channel=0 note=48 velocity=51 time=0\n",
      "note_off channel=0 note=48 velocity=56 time=0\n",
      "note_on channel=0 note=41 velocity=46 time=0\n",
      "note_off channel=0 note=41 velocity=60 time=0\n",
      "note_on channel=0 note=48 velocity=50 time=0\n",
      "note_off channel=0 note=48 velocity=51 time=0\n",
      "note_on channel=0 note=53 velocity=31 time=0\n",
      "note_off channel=0 note=53 velocity=63 time=0\n",
      "note_on channel=0 note=57 velocity=64 time=0\n",
      "note_off channel=0 note=57 velocity=63 time=0\n",
      "note_on channel=0 note=48 velocity=54 time=0\n",
      "note_off channel=0 note=48 velocity=61 time=0\n",
      "note_on channel=0 note=41 velocity=41 time=0\n",
      "note_off channel=0 note=41 velocity=53 time=0\n",
      "note_on channel=0 note=48 velocity=31 time=0\n",
      "note_off channel=0 note=48 velocity=46 time=0\n",
      "note_on channel=0 note=53 velocity=48 time=0\n",
      "note_off channel=0 note=53 velocity=64 time=0\n",
      "note_on channel=0 note=57 velocity=52 time=0\n",
      "note_off channel=0 note=57 velocity=64 time=0\n",
      "note_on channel=0 note=48 velocity=48 time=0\n",
      "note_off channel=0 note=48 velocity=56 time=0\n",
      "note_off channel=0 note=77 velocity=62 time=0\n",
      "note_on channel=0 note=77 velocity=65 time=0\n",
      "control_change channel=0 control=64 value=26 time=0\n",
      "control_change channel=0 control=64 value=45 time=0\n",
      "control_change channel=0 control=64 value=52 time=0\n",
      "control_change channel=0 control=64 value=55 time=0\n",
      "control_change channel=0 control=64 value=58 time=0\n",
      "control_change channel=0 control=64 value=60 time=0\n",
      "control_change channel=0 control=64 value=62 time=0\n",
      "note_on channel=0 note=49 velocity=32 time=0\n",
      "control_change channel=0 control=64 value=64 time=0\n",
      "control_change channel=0 control=64 value=65 time=0\n",
      "control_change channel=0 control=64 value=67 time=0\n",
      "control_change channel=0 control=64 value=72 time=0\n",
      "control_change channel=0 control=64 value=79 time=0\n",
      "control_change channel=0 control=64 value=88 time=0\n",
      "control_change channel=0 control=64 value=99 time=0\n",
      "control_change channel=0 control=64 value=114 time=0\n",
      "control_change channel=0 control=64 value=127 time=0\n",
      "note_off channel=0 note=49 velocity=30 time=0\n",
      "note_off channel=0 note=77 velocity=60 time=0\n",
      "control_change channel=0 control=64 value=123 time=0\n",
      "control_change channel=0 control=64 value=120 time=0\n",
      "control_change channel=0 control=64 value=119 time=0\n",
      "control_change channel=0 control=64 value=117 time=0\n",
      "control_change channel=0 control=64 value=116 time=0\n",
      "control_change channel=0 control=64 value=115 time=0\n",
      "control_change channel=0 control=64 value=114 time=0\n",
      "control_change channel=0 control=64 value=112 time=0\n",
      "control_change channel=0 control=64 value=111 time=0\n",
      "control_change channel=0 control=64 value=108 time=0\n",
      "control_change channel=0 control=64 value=104 time=0\n",
      "control_change channel=0 control=64 value=100 time=0\n",
      "control_change channel=0 control=64 value=96 time=0\n",
      "control_change channel=0 control=64 value=91 time=0\n",
      "control_change channel=0 control=64 value=88 time=0\n",
      "control_change channel=0 control=64 value=86 time=0\n",
      "control_change channel=0 control=64 value=85 time=0\n",
      "control_change channel=0 control=64 value=84 time=0\n",
      "control_change channel=0 control=64 value=84 time=0\n",
      "control_change channel=0 control=64 value=83 time=0\n",
      "control_change channel=0 control=64 value=84 time=0\n",
      "control_change channel=0 control=64 value=84 time=0\n",
      "control_change channel=0 control=64 value=85 time=0\n",
      "control_change channel=0 control=64 value=86 time=0\n",
      "control_change channel=0 control=64 value=86 time=0\n",
      "control_change channel=0 control=64 value=87 time=0\n",
      "control_change channel=0 control=64 value=88 time=0\n",
      "control_change channel=0 control=64 value=89 time=0\n",
      "control_change channel=0 control=64 value=89 time=0\n",
      "control_change channel=0 control=64 value=90 time=0\n",
      "control_change channel=0 control=64 value=89 time=0\n",
      "control_change channel=0 control=64 value=89 time=0\n",
      "control_change channel=0 control=64 value=88 time=0\n",
      "control_change channel=0 control=64 value=87 time=0\n",
      "control_change channel=0 control=64 value=84 time=0\n",
      "control_change channel=0 control=64 value=78 time=0\n",
      "note_on channel=0 note=68 velocity=56 time=0\n",
      "control_change channel=0 control=64 value=68 time=0\n",
      "control_change channel=0 control=64 value=60 time=0\n",
      "control_change channel=0 control=64 value=51 time=0\n",
      "control_change channel=0 control=64 value=40 time=0\n",
      "control_change channel=0 control=64 value=0 time=0\n",
      "note_on channel=0 note=49 velocity=6 time=0\n",
      "note_off channel=0 note=49 velocity=58 time=0\n",
      "note_on channel=0 note=49 velocity=29 time=0\n",
      "control_change channel=0 control=64 value=37 time=0\n",
      "control_change channel=0 control=64 value=48 time=0\n",
      "control_change channel=0 control=64 value=55 time=0\n",
      "control_change channel=0 control=64 value=59 time=0\n",
      "control_change channel=0 control=64 value=62 time=0\n",
      "control_change channel=0 control=64 value=64 time=0\n",
      "control_change channel=0 control=64 value=66 time=0\n",
      "control_change channel=0 control=64 value=67 time=0\n",
      "control_change channel=0 control=64 value=70 time=0\n",
      "control_change channel=0 control=64 value=74 time=0\n",
      "control_change channel=0 control=64 value=78 time=0\n",
      "control_change channel=0 control=64 value=81 time=0\n",
      "note_off channel=0 note=49 velocity=37 time=0\n",
      "control_change channel=0 control=64 value=83 time=0\n",
      "control_change channel=0 control=64 value=85 time=0\n",
      "control_change channel=0 control=64 value=85 time=0\n",
      "note_on channel=0 note=56 velocity=33 time=0\n",
      "control_change channel=0 control=64 value=86 time=0\n",
      "control_change channel=0 control=64 value=87 time=0\n",
      "control_change channel=0 control=64 value=90 time=0\n",
      "control_change channel=0 control=64 value=94 time=0\n",
      "control_change channel=0 control=64 value=97 time=0\n",
      "control_change channel=0 control=64 value=98 time=0\n",
      "note_off channel=0 note=56 velocity=42 time=0\n",
      "note_on channel=0 note=61 velocity=41 time=0\n",
      "note_off channel=0 note=61 velocity=54 time=0\n",
      "control_change channel=0 control=64 value=97 time=0\n",
      "control_change channel=0 control=64 value=97 time=0\n",
      "note_on channel=0 note=65 velocity=54 time=0\n",
      "control_change channel=0 control=64 value=96 time=0\n",
      "note_off channel=0 note=65 velocity=50 time=0\n",
      "control_change channel=0 control=64 value=96 time=0\n",
      "note_on channel=0 note=61 velocity=41 time=0\n",
      "control_change channel=0 control=64 value=95 time=0\n",
      "note_off channel=0 note=68 velocity=58 time=0\n",
      "control_change channel=0 control=64 value=95 time=0\n",
      "note_off channel=0 note=61 velocity=62 time=0\n",
      "note_on channel=0 note=56 velocity=47 time=0\n",
      "control_change channel=0 control=64 value=94 time=0\n",
      "control_change channel=0 control=64 value=94 time=0\n",
      "control_change channel=0 control=64 value=93 time=0\n",
      "control_change channel=0 control=64 value=92 time=0\n",
      "control_change channel=0 control=64 value=91 time=0\n",
      "control_change channel=0 control=64 value=90 time=0\n",
      "note_on channel=0 note=70 velocity=58 time=0\n",
      "control_change channel=0 control=64 value=87 time=0\n",
      "control_change channel=0 control=64 value=82 time=0\n",
      "note_off channel=0 note=70 velocity=63 time=0\n",
      "control_change channel=0 control=64 value=76 time=0\n",
      "note_on channel=0 note=72 velocity=57 time=0\n",
      "note_off channel=0 note=56 velocity=43 time=0\n",
      "control_change channel=0 control=64 value=67 time=0\n",
      "control_change channel=0 control=64 value=59 time=0\n",
      "control_change channel=0 control=64 value=47 time=0\n",
      "control_change channel=0 control=64 value=19 time=0\n",
      "note_on channel=0 note=70 velocity=70 time=0\n",
      "control_change channel=0 control=64 value=0 time=0\n",
      "note_on channel=0 note=49 velocity=44 time=0\n",
      "note_off channel=0 note=72 velocity=64 time=0\n",
      "control_change channel=0 control=64 value=43 time=0\n",
      "control_change channel=0 control=64 value=54 time=0\n",
      "control_change channel=0 control=64 value=60 time=0\n",
      "control_change channel=0 control=64 value=62 time=0\n",
      "note_off channel=0 note=49 velocity=56 time=0\n",
      "control_change channel=0 control=64 value=63 time=0\n",
      "control_change channel=0 control=64 value=64 time=0\n",
      "control_change channel=0 control=64 value=66 time=0\n",
      "note_on channel=0 note=56 velocity=31 time=0\n",
      "control_change channel=0 control=64 value=67 time=0\n",
      "control_change channel=0 control=64 value=70 time=0\n",
      "control_change channel=0 control=64 value=74 time=0\n",
      "control_change channel=0 control=64 value=80 time=0\n",
      "control_change channel=0 control=64 value=89 time=0\n",
      "control_change channel=0 control=64 value=102 time=0\n",
      "note_on channel=0 note=68 velocity=68 time=0\n",
      "control_change channel=0 control=64 value=127 time=0\n",
      "note_off channel=0 note=70 velocity=63 time=0\n",
      "note_on channel=0 note=60 velocity=37 time=0\n",
      "note_off channel=0 note=56 velocity=31 time=0\n",
      "note_off channel=0 note=60 velocity=53 time=0\n",
      "note_on channel=0 note=73 velocity=76 time=0\n",
      "note_on channel=0 note=66 velocity=10 time=0\n",
      "note_on channel=0 note=60 velocity=36 time=0\n",
      "note_off channel=0 note=66 velocity=43 time=0\n",
      "note_off channel=0 note=68 velocity=55 time=0\n",
      "note_on channel=0 note=75 velocity=78 time=0\n",
      "note_on channel=0 note=56 velocity=41 time=0\n",
      "note_off channel=0 note=60 velocity=40 time=0\n",
      "note_off channel=0 note=73 velocity=57 time=0\n",
      "control_change channel=0 control=64 value=120 time=0\n",
      "control_change channel=0 control=64 value=100 time=0\n",
      "control_change channel=0 control=64 value=85 time=0\n",
      "control_change channel=0 control=64 value=72 time=0\n",
      "note_off channel=0 note=56 velocity=36 time=0\n",
      "control_change channel=0 control=64 value=62 time=0\n",
      "control_change channel=0 control=64 value=44 time=0\n",
      "note_on channel=0 note=49 velocity=37 time=0\n",
      "control_change channel=0 control=64 value=0 time=0\n",
      "note_on channel=0 note=77 velocity=68 time=0\n",
      "note_off channel=0 note=75 velocity=59 time=0\n",
      "control_change channel=0 control=64 value=46 time=0\n",
      "control_change channel=0 control=64 value=52 time=0\n",
      "control_change channel=0 control=64 value=56 time=0\n",
      "control_change channel=0 control=64 value=58 time=0\n",
      "control_change channel=0 control=64 value=59 time=0\n",
      "control_change channel=0 control=64 value=59 time=0\n",
      "note_off channel=0 note=49 velocity=55 time=0\n",
      "control_change channel=0 control=64 value=60 time=0\n",
      "control_change channel=0 control=64 value=61 time=0\n",
      "note_on channel=0 note=56 velocity=26 time=0\n",
      "control_change channel=0 control=64 value=61 time=0\n",
      "control_change channel=0 control=64 value=62 time=0\n",
      "note_off channel=0 note=56 velocity=52 time=0\n",
      "control_change channel=0 control=64 value=62 time=0\n",
      "note_on channel=0 note=61 velocity=28 time=0\n",
      "control_change channel=0 control=64 value=63 time=0\n",
      "control_change channel=0 control=64 value=63 time=0\n",
      "control_change channel=0 control=64 value=64 time=0\n",
      "note_off channel=0 note=61 velocity=43 time=0\n",
      "control_change channel=0 control=64 value=64 time=0\n",
      "control_change channel=0 control=64 value=65 time=0\n",
      "control_change channel=0 control=64 value=65 time=0\n",
      "control_change channel=0 control=64 value=66 time=0\n",
      "note_on channel=0 note=65 velocity=32 time=0\n",
      "control_change channel=0 control=64 value=67 time=0\n",
      "control_change channel=0 control=64 value=69 time=0\n",
      "control_change channel=0 control=64 value=71 time=0\n",
      "control_change channel=0 control=64 value=72 time=0\n",
      "control_change channel=0 control=64 value=74 time=0\n",
      "control_change channel=0 control=64 value=76 time=0\n",
      "control_change channel=0 control=64 value=78 time=0\n",
      "control_change channel=0 control=64 value=80 time=0\n",
      "control_change channel=0 control=64 value=82 time=0\n",
      "control_change channel=0 control=64 value=83 time=0\n",
      "note_on channel=0 note=61 velocity=40 time=0\n",
      "note_off channel=0 note=65 velocity=41 time=0\n",
      "note_off channel=0 note=61 velocity=55 time=0\n",
      "note_on channel=0 note=56 velocity=28 time=0\n",
      "control_change channel=0 control=64 value=82 time=0\n",
      "note_off channel=0 note=56 velocity=52 time=0\n",
      "note_on channel=0 note=49 velocity=39 time=0\n",
      "control_change channel=0 control=64 value=82 time=0\n",
      "note_off channel=0 note=49 velocity=36 time=0\n",
      "note_on channel=0 note=56 velocity=29 time=0\n",
      "note_off channel=0 note=56 velocity=51 time=0\n",
      "note_on channel=0 note=61 velocity=28 time=0\n",
      "control_change channel=0 control=64 value=81 time=0\n",
      "note_off channel=0 note=61 velocity=33 time=0\n",
      "control_change channel=0 control=64 value=81 time=0\n",
      "note_on channel=0 note=65 velocity=32 time=0\n",
      "control_change channel=0 control=64 value=80 time=0\n",
      "control_change channel=0 control=64 value=80 time=0\n",
      "control_change channel=0 control=64 value=79 time=0\n",
      "note_off channel=0 note=65 velocity=34 time=0\n",
      "control_change channel=0 control=64 value=79 time=0\n",
      "note_on channel=0 note=61 velocity=29 time=0\n",
      "note_off channel=0 note=61 velocity=53 time=0\n",
      "note_on channel=0 note=56 velocity=8 time=0\n",
      "control_change channel=0 control=64 value=78 time=0\n",
      "note_off channel=0 note=56 velocity=36 time=0\n",
      "control_change channel=0 control=64 value=78 time=0\n",
      "control_change channel=0 control=64 value=77 time=0\n",
      "control_change channel=0 control=64 value=77 time=0\n",
      "control_change channel=0 control=64 value=76 time=0\n",
      "control_change channel=0 control=64 value=76 time=0\n",
      "control_change channel=0 control=64 value=75 time=0\n",
      "control_change channel=0 control=64 value=75 time=0\n",
      "control_change channel=0 control=64 value=74 time=0\n",
      "control_change channel=0 control=64 value=74 time=0\n",
      "control_change channel=0 control=64 value=73 time=0\n",
      "control_change channel=0 control=64 value=73 time=0\n",
      "control_change channel=0 control=64 value=72 time=0\n",
      "control_change channel=0 control=64 value=71 time=0\n",
      "control_change channel=0 control=64 value=70 time=0\n",
      "control_change channel=0 control=64 value=70 time=0\n",
      "control_change channel=0 control=64 value=69 time=0\n",
      "control_change channel=0 control=64 value=69 time=0\n",
      "control_change channel=0 control=64 value=68 time=0\n",
      "control_change channel=0 control=64 value=68 time=0\n",
      "control_change channel=0 control=64 value=67 time=0\n",
      "control_change channel=0 control=64 value=67 time=0\n",
      "control_change channel=0 control=64 value=66 time=0\n",
      "control_change channel=0 control=64 value=65 time=0\n",
      "control_change channel=0 control=64 value=64 time=0\n",
      "control_change channel=0 control=64 value=63 time=0\n",
      "control_change channel=0 control=64 value=61 time=0\n",
      "control_change channel=0 control=64 value=60 time=0\n",
      "control_change channel=0 control=64 value=58 time=0\n",
      "control_change channel=0 control=64 value=57 time=0\n",
      "control_change channel=0 control=64 value=54 time=0\n",
      "control_change channel=0 control=64 value=49 time=0\n",
      "control_change channel=0 control=64 value=39 time=0\n",
      "control_change channel=0 control=64 value=0 time=0\n",
      "control_change channel=0 control=64 value=32 time=0\n",
      "control_change channel=0 control=64 value=45 time=0\n",
      "control_change channel=0 control=64 value=50 time=0\n",
      "control_change channel=0 control=64 value=52 time=0\n",
      "control_change channel=0 control=64 value=53 time=0\n",
      "control_change channel=0 control=64 value=53 time=0\n",
      "control_change channel=0 control=64 value=54 time=0\n",
      "control_change channel=0 control=64 value=54 time=0\n",
      "control_change channel=0 control=64 value=55 time=0\n",
      "control_change channel=0 control=64 value=55 time=0\n",
      "control_change channel=0 control=64 value=56 time=0\n",
      "control_change channel=0 control=64 value=57 time=0\n",
      "control_change channel=0 control=64 value=58 time=0\n",
      "control_change channel=0 control=64 value=58 time=0\n",
      "control_change channel=0 control=64 value=59 time=0\n",
      "control_change channel=0 control=64 value=59 time=0\n",
      "control_change channel=0 control=64 value=60 time=0\n",
      "control_change channel=0 control=64 value=60 time=0\n",
      "control_change channel=0 control=64 value=60 time=0\n",
      "control_change channel=0 control=64 value=59 time=0\n",
      "control_change channel=0 control=64 value=58 time=0\n",
      "control_change channel=0 control=64 value=56 time=0\n",
      "control_change channel=0 control=64 value=47 time=0\n",
      "control_change channel=0 control=64 value=0 time=0\n",
      "control_change channel=0 control=64 value=31 time=0\n",
      "control_change channel=0 control=64 value=41 time=0\n",
      "control_change channel=0 control=64 value=46 time=0\n",
      "control_change channel=0 control=64 value=48 time=0\n",
      "control_change channel=0 control=64 value=49 time=0\n",
      "control_change channel=0 control=64 value=50 time=0\n",
      "control_change channel=0 control=64 value=51 time=0\n",
      "control_change channel=0 control=64 value=53 time=0\n",
      "control_change channel=0 control=64 value=55 time=0\n",
      "control_change channel=0 control=64 value=57 time=0\n",
      "control_change channel=0 control=64 value=59 time=0\n",
      "control_change channel=0 control=64 value=60 time=0\n",
      "control_change channel=0 control=64 value=60 time=0\n",
      "control_change channel=0 control=64 value=61 time=0\n",
      "control_change channel=0 control=64 value=61 time=0\n",
      "control_change channel=0 control=64 value=62 time=0\n",
      "control_change channel=0 control=64 value=62 time=0\n",
      "control_change channel=0 control=64 value=63 time=0\n",
      "control_change channel=0 control=64 value=62 time=0\n",
      "control_change channel=0 control=64 value=63 time=0\n",
      "control_change channel=0 control=64 value=63 time=0\n",
      "control_change channel=0 control=64 value=64 time=0\n",
      "control_change channel=0 control=64 value=66 time=0\n",
      "control_change channel=0 control=64 value=68 time=0\n",
      "control_change channel=0 control=64 value=72 time=0\n",
      "control_change channel=0 control=64 value=79 time=0\n",
      "control_change channel=0 control=64 value=89 time=0\n",
      "control_change channel=0 control=64 value=111 time=0\n",
      "control_change channel=0 control=64 value=127 time=0\n",
      "control_change channel=0 control=64 value=120 time=0\n",
      "control_change channel=0 control=64 value=119 time=0\n",
      "control_change channel=0 control=64 value=116 time=0\n",
      "control_change channel=0 control=64 value=114 time=0\n",
      "control_change channel=0 control=64 value=113 time=0\n",
      "control_change channel=0 control=64 value=111 time=0\n",
      "control_change channel=0 control=64 value=111 time=0\n",
      "control_change channel=0 control=64 value=110 time=0\n",
      "control_change channel=0 control=64 value=109 time=0\n",
      "control_change channel=0 control=64 value=109 time=0\n",
      "control_change channel=0 control=64 value=108 time=0\n",
      "control_change channel=0 control=64 value=107 time=0\n",
      "control_change channel=0 control=64 value=106 time=0\n",
      "control_change channel=0 control=64 value=105 time=0\n",
      "control_change channel=0 control=64 value=103 time=0\n",
      "control_change channel=0 control=64 value=102 time=0\n",
      "control_change channel=0 control=64 value=102 time=0\n",
      "control_change channel=0 control=64 value=101 time=0\n",
      "control_change channel=0 control=64 value=100 time=0\n",
      "control_change channel=0 control=64 value=99 time=0\n",
      "control_change channel=0 control=64 value=96 time=0\n",
      "control_change channel=0 control=64 value=94 time=0\n",
      "control_change channel=0 control=64 value=93 time=0\n",
      "control_change channel=0 control=64 value=91 time=0\n",
      "control_change channel=0 control=64 value=91 time=0\n",
      "control_change channel=0 control=64 value=90 time=0\n",
      "control_change channel=0 control=64 value=88 time=0\n",
      "control_change channel=0 control=64 value=86 time=0\n",
      "control_change channel=0 control=64 value=85 time=0\n",
      "control_change channel=0 control=64 value=83 time=0\n",
      "control_change channel=0 control=64 value=82 time=0\n",
      "control_change channel=0 control=64 value=80 time=0\n",
      "control_change channel=0 control=64 value=79 time=0\n",
      "control_change channel=0 control=64 value=77 time=0\n",
      "control_change channel=0 control=64 value=76 time=0\n",
      "control_change channel=0 control=64 value=75 time=0\n",
      "control_change channel=0 control=64 value=75 time=0\n",
      "control_change channel=0 control=64 value=74 time=0\n",
      "control_change channel=0 control=64 value=73 time=0\n",
      "control_change channel=0 control=64 value=72 time=0\n",
      "control_change channel=0 control=64 value=70 time=0\n",
      "control_change channel=0 control=64 value=68 time=0\n",
      "control_change channel=0 control=64 value=66 time=0\n",
      "control_change channel=0 control=64 value=64 time=0\n",
      "control_change channel=0 control=64 value=63 time=0\n",
      "control_change channel=0 control=64 value=61 time=0\n",
      "control_change channel=0 control=64 value=59 time=0\n",
      "control_change channel=0 control=64 value=56 time=0\n",
      "control_change channel=0 control=64 value=48 time=0\n",
      "control_change channel=0 control=64 value=23 time=0\n",
      "control_change channel=0 control=64 value=0 time=0\n",
      "control_change channel=0 control=64 value=20 time=0\n",
      "control_change channel=0 control=64 value=29 time=0\n",
      "control_change channel=0 control=64 value=35 time=0\n",
      "control_change channel=0 control=64 value=40 time=0\n",
      "control_change channel=0 control=64 value=43 time=0\n",
      "control_change channel=0 control=64 value=45 time=0\n",
      "control_change channel=0 control=64 value=46 time=0\n",
      "control_change channel=0 control=64 value=47 time=0\n",
      "control_change channel=0 control=64 value=47 time=0\n",
      "control_change channel=0 control=64 value=48 time=0\n",
      "control_change channel=0 control=64 value=48 time=0\n",
      "control_change channel=0 control=64 value=49 time=0\n",
      "control_change channel=0 control=64 value=50 time=0\n",
      "control_change channel=0 control=64 value=51 time=0\n",
      "control_change channel=0 control=64 value=51 time=0\n",
      "control_change channel=0 control=64 value=52 time=0\n",
      "control_change channel=0 control=64 value=51 time=0\n",
      "control_change channel=0 control=64 value=52 time=0\n",
      "note_off channel=0 note=77 velocity=59 time=0\n",
      "control_change channel=0 control=64 value=51 time=0\n",
      "control_change channel=0 control=64 value=51 time=0\n",
      "control_change channel=0 control=64 value=50 time=0\n",
      "control_change channel=0 control=64 value=50 time=0\n",
      "control_change channel=0 control=64 value=49 time=0\n",
      "control_change channel=0 control=64 value=49 time=0\n",
      "control_change channel=0 control=64 value=48 time=0\n",
      "control_change channel=0 control=64 value=48 time=0\n",
      "control_change channel=0 control=64 value=47 time=0\n",
      "control_change channel=0 control=64 value=47 time=0\n",
      "control_change channel=0 control=64 value=46 time=0\n",
      "control_change channel=0 control=64 value=46 time=0\n",
      "note_on channel=0 note=77 velocity=36 time=0\n",
      "control_change channel=0 control=64 value=45 time=0\n",
      "control_change channel=0 control=64 value=45 time=0\n",
      "control_change channel=0 control=64 value=44 time=0\n",
      "control_change channel=0 control=64 value=43 time=0\n",
      "control_change channel=0 control=64 value=43 time=0\n",
      "control_change channel=0 control=64 value=42 time=0\n",
      "control_change channel=0 control=64 value=41 time=0\n",
      "control_change channel=0 control=64 value=40 time=0\n",
      "control_change channel=0 control=64 value=39 time=0\n",
      "control_change channel=0 control=64 value=38 time=0\n",
      "control_change channel=0 control=64 value=38 time=0\n",
      "control_change channel=0 control=64 value=37 time=0\n",
      "control_change channel=0 control=64 value=37 time=0\n",
      "control_change channel=0 control=64 value=36 time=0\n",
      "control_change channel=0 control=64 value=35 time=0\n",
      "control_change channel=0 control=64 value=35 time=0\n",
      "control_change channel=0 control=64 value=34 time=0\n",
      "control_change channel=0 control=64 value=34 time=0\n",
      "control_change channel=0 control=64 value=33 time=0\n",
      "control_change channel=0 control=64 value=33 time=0\n",
      "control_change channel=0 control=64 value=32 time=0\n",
      "control_change channel=0 control=64 value=32 time=0\n",
      "control_change channel=0 control=64 value=31 time=0\n",
      "control_change channel=0 control=64 value=31 time=0\n",
      "control_change channel=0 control=64 value=29 time=0\n",
      "control_change channel=0 control=64 value=27 time=0\n",
      "control_change channel=0 control=64 value=25 time=0\n",
      "control_change channel=0 control=64 value=25 time=0\n",
      "control_change channel=0 control=64 value=24 time=0\n",
      "control_change channel=0 control=64 value=24 time=0\n",
      "control_change channel=0 control=64 value=22 time=0\n",
      "control_change channel=0 control=64 value=20 time=0\n",
      "control_change channel=0 control=64 value=19 time=0\n",
      "control_change channel=0 control=64 value=18 time=0\n",
      "control_change channel=0 control=64 value=17 time=0\n",
      "control_change channel=0 control=64 value=12 time=0\n",
      "control_change channel=0 control=64 value=0 time=0\n",
      "control_change channel=0 control=64 value=19 time=0\n",
      "control_change channel=0 control=64 value=43 time=0\n",
      "control_change channel=0 control=64 value=48 time=0\n",
      "control_change channel=0 control=64 value=51 time=0\n",
      "control_change channel=0 control=64 value=52 time=0\n",
      "control_change channel=0 control=64 value=54 time=0\n",
      "control_change channel=0 control=64 value=56 time=0\n",
      "control_change channel=0 control=64 value=58 time=0\n",
      "control_change channel=0 control=64 value=59 time=0\n",
      "control_change channel=0 control=64 value=61 time=0\n",
      "control_change channel=0 control=64 value=62 time=0\n",
      "control_change channel=0 control=64 value=63 time=0\n",
      "control_change channel=0 control=64 value=64 time=0\n",
      "control_change channel=0 control=64 value=64 time=0\n",
      "control_change channel=0 control=64 value=65 time=0\n",
      "control_change channel=0 control=64 value=65 time=0\n",
      "control_change channel=0 control=64 value=66 time=0\n",
      "control_change channel=0 control=64 value=67 time=0\n",
      "control_change channel=0 control=64 value=68 time=0\n",
      "control_change channel=0 control=64 value=69 time=0\n",
      "control_change channel=0 control=64 value=70 time=0\n",
      "control_change channel=0 control=64 value=71 time=0\n",
      "control_change channel=0 control=64 value=72 time=0\n",
      "control_change channel=0 control=64 value=73 time=0\n",
      "control_change channel=0 control=64 value=73 time=0\n",
      "note_on channel=0 note=49 velocity=44 time=0\n",
      "control_change channel=0 control=64 value=74 time=0\n",
      "note_off channel=0 note=49 velocity=34 time=0\n",
      "note_on channel=0 note=56 velocity=32 time=0\n",
      "note_off channel=0 note=56 velocity=51 time=0\n",
      "note_on channel=0 note=61 velocity=23 time=0\n",
      "note_off channel=0 note=61 velocity=31 time=0\n",
      "note_on channel=0 note=65 velocity=37 time=0\n",
      "note_off channel=0 note=65 velocity=45 time=0\n",
      "note_on channel=0 note=61 velocity=30 time=0\n",
      "note_off channel=0 note=61 velocity=53 time=0\n",
      "note_on channel=0 note=56 velocity=38 time=0\n",
      "note_off channel=0 note=56 velocity=53 time=0\n",
      "control_change channel=0 control=64 value=73 time=0\n",
      "note_on channel=0 note=49 velocity=39 time=0\n",
      "control_change channel=0 control=64 value=72 time=0\n",
      "control_change channel=0 control=64 value=70 time=0\n",
      "control_change channel=0 control=64 value=65 time=0\n",
      "control_change channel=0 control=64 value=58 time=0\n",
      "control_change channel=0 control=64 value=46 time=0\n",
      "control_change channel=0 control=64 value=28 time=0\n",
      "control_change channel=0 control=64 value=0 time=0\n",
      "note_on channel=0 note=80 velocity=76 time=0\n",
      "control_change channel=0 control=64 value=18 time=0\n",
      "control_change channel=0 control=64 value=38 time=0\n",
      "control_change channel=0 control=64 value=51 time=0\n",
      "note_off channel=0 note=77 velocity=58 time=0\n",
      "control_change channel=0 control=64 value=58 time=0\n",
      "control_change channel=0 control=64 value=61 time=0\n",
      "control_change channel=0 control=64 value=62 time=0\n",
      "control_change channel=0 control=64 value=63 time=0\n",
      "control_change channel=0 control=64 value=65 time=0\n",
      "control_change channel=0 control=64 value=66 time=0\n",
      "control_change channel=0 control=64 value=68 time=0\n",
      "control_change channel=0 control=64 value=70 time=0\n",
      "note_on channel=0 note=56 velocity=39 time=0\n",
      "control_change channel=0 control=64 value=72 time=0\n",
      "control_change channel=0 control=64 value=74 time=0\n",
      "note_off channel=0 note=49 velocity=36 time=0\n",
      "control_change channel=0 control=64 value=76 time=0\n",
      "control_change channel=0 control=64 value=76 time=0\n",
      "note_on channel=0 note=65 velocity=36 time=0\n",
      "note_off channel=0 note=56 velocity=55 time=0\n",
      "note_off channel=0 note=65 velocity=61 time=0\n",
      "note_on channel=0 note=68 velocity=37 time=0\n",
      "note_on channel=0 note=65 velocity=33 time=0\n",
      "note_off channel=0 note=68 velocity=35 time=0\n",
      "note_off channel=0 note=65 velocity=42 time=0\n",
      "note_on channel=0 note=56 velocity=37 time=0\n",
      "control_change channel=0 control=64 value=76 time=0\n",
      "control_change channel=0 control=64 value=75 time=0\n",
      "control_change channel=0 control=64 value=74 time=0\n",
      "control_change channel=0 control=64 value=73 time=0\n",
      "note_on channel=0 note=66 velocity=40 time=0\n",
      "note_on channel=0 note=78 velocity=73 time=0\n",
      "control_change channel=0 control=64 value=70 time=0\n",
      "note_off channel=0 note=56 velocity=23 time=0\n",
      "control_change channel=0 control=64 value=66 time=0\n",
      "control_change channel=0 control=64 value=59 time=0\n",
      "control_change channel=0 control=64 value=49 time=0\n",
      "control_change channel=0 control=64 value=32 time=0\n",
      "note_off channel=0 note=80 velocity=58 time=0\n",
      "control_change channel=0 control=64 value=0 time=0\n",
      "control_change channel=0 control=64 value=46 time=0\n",
      "control_change channel=0 control=64 value=55 time=0\n",
      "control_change channel=0 control=64 value=57 time=0\n",
      "note_on channel=0 note=63 velocity=39 time=0\n",
      "control_change channel=0 control=64 value=59 time=0\n",
      "control_change channel=0 control=64 value=61 time=0\n",
      "control_change channel=0 control=64 value=62 time=0\n",
      "control_change channel=0 control=64 value=63 time=0\n",
      "control_change channel=0 control=64 value=64 time=0\n",
      "control_change channel=0 control=64 value=66 time=0\n",
      "control_change channel=0 control=64 value=68 time=0\n",
      "note_off channel=0 note=63 velocity=47 time=0\n",
      "control_change channel=0 control=64 value=70 time=0\n",
      "control_change channel=0 control=64 value=74 time=0\n",
      "control_change channel=0 control=64 value=77 time=0\n",
      "control_change channel=0 control=64 value=79 time=0\n",
      "note_on channel=0 note=56 velocity=34 time=0\n",
      "note_off channel=0 note=66 velocity=31 time=0\n",
      "control_change channel=0 control=64 value=78 time=0\n",
      "control_change channel=0 control=64 value=78 time=0\n",
      "control_change channel=0 control=64 value=76 time=0\n",
      "control_change channel=0 control=64 value=74 time=0\n",
      "control_change channel=0 control=64 value=68 time=0\n",
      "control_change channel=0 control=64 value=62 time=0\n",
      "note_on channel=0 note=77 velocity=61 time=0\n",
      "control_change channel=0 control=64 value=53 time=0\n",
      "control_change channel=0 control=64 value=41 time=0\n",
      "note_on channel=0 note=65 velocity=38 time=0\n",
      "control_change channel=0 control=64 value=0 time=0\n",
      "note_off channel=0 note=78 velocity=60 time=0\n",
      "note_off channel=0 note=56 velocity=38 time=0\n",
      "control_change channel=0 control=64 value=38 time=0\n",
      "note_on channel=0 note=61 velocity=34 time=0\n",
      "control_change channel=0 control=64 value=50 time=0\n",
      "control_change channel=0 control=64 value=54 time=0\n",
      "control_change channel=0 control=64 value=57 time=0\n",
      "control_change channel=0 control=64 value=59 time=0\n",
      "control_change channel=0 control=64 value=62 time=0\n",
      "control_change channel=0 control=64 value=63 time=0\n",
      "control_change channel=0 control=64 value=64 time=0\n",
      "note_off channel=0 note=65 velocity=57 time=0\n",
      "control_change channel=0 control=64 value=65 time=0\n",
      "control_change channel=0 control=64 value=66 time=0\n",
      "control_change channel=0 control=64 value=68 time=0\n",
      "control_change channel=0 control=64 value=70 time=0\n",
      "control_change channel=0 control=64 value=73 time=0\n",
      "note_on channel=0 note=56 velocity=35 time=0\n",
      "control_change channel=0 control=64 value=74 time=0\n",
      "note_off channel=0 note=61 velocity=40 time=0\n",
      "control_change channel=0 control=64 value=74 time=0\n",
      "control_change channel=0 control=64 value=74 time=0\n",
      "control_change channel=0 control=64 value=73 time=0\n",
      "control_change channel=0 control=64 value=70 time=0\n",
      "control_change channel=0 control=64 value=66 time=0\n",
      "note_on channel=0 note=75 velocity=61 time=0\n",
      "control_change channel=0 control=64 value=59 time=0\n",
      "note_on channel=0 note=63 velocity=36 time=0\n",
      "control_change channel=0 control=64 value=48 time=0\n",
      "control_change channel=0 control=64 value=40 time=0\n",
      "note_off channel=0 note=56 velocity=19 time=0\n",
      "note_off channel=0 note=77 velocity=54 time=0\n",
      "control_change channel=0 control=64 value=44 time=0\n",
      "control_change channel=0 control=64 value=51 time=0\n",
      "control_change channel=0 control=64 value=57 time=0\n",
      "control_change channel=0 control=64 value=61 time=0\n",
      "control_change channel=0 control=64 value=64 time=0\n",
      "control_change channel=0 control=64 value=65 time=0\n",
      "control_change channel=0 control=64 value=67 time=0\n",
      "note_on channel=0 note=60 velocity=41 time=0\n",
      "control_change channel=0 control=64 value=68 time=0\n",
      "control_change channel=0 control=64 value=70 time=0\n",
      "note_off channel=0 note=63 velocity=34 time=0\n",
      "note_off channel=0 note=75 velocity=60 time=0\n",
      "control_change channel=0 control=64 value=72 time=0\n",
      "control_change channel=0 control=64 value=74 time=0\n",
      "control_change channel=0 control=64 value=76 time=0\n",
      "control_change channel=0 control=64 value=77 time=0\n",
      "note_on channel=0 note=77 velocity=55 time=0\n",
      "note_on channel=0 note=56 velocity=26 time=0\n",
      "note_off channel=0 note=60 velocity=30 time=0\n",
      "control_change channel=0 control=64 value=76 time=0\n",
      "note_off channel=0 note=77 velocity=56 time=0\n",
      "note_on channel=0 note=75 velocity=52 time=0\n",
      "control_change channel=0 control=64 value=76 time=0\n",
      "control_change channel=0 control=64 value=75 time=0\n",
      "note_off channel=0 note=75 velocity=60 time=0\n",
      "control_change channel=0 control=64 value=75 time=0\n",
      "note_on channel=0 note=73 velocity=60 time=0\n",
      "control_change channel=0 control=64 value=74 time=0\n",
      "note_off channel=0 note=56 velocity=35 time=0\n",
      "note_on channel=0 note=60 velocity=28 time=0\n",
      "control_change channel=0 control=64 value=74 time=0\n",
      "note_on channel=0 note=75 velocity=49 time=0\n",
      "note_off channel=0 note=73 velocity=59 time=0\n",
      "note_on channel=0 note=77 velocity=64 time=0\n",
      "control_change channel=0 control=64 value=74 time=0\n",
      "note_off channel=0 note=60 velocity=41 time=0\n",
      "note_off channel=0 note=75 velocity=59 time=0\n",
      "note_on channel=0 note=63 velocity=36 time=0\n",
      "control_change channel=0 control=64 value=75 time=0\n",
      "control_change channel=0 control=64 value=75 time=0\n",
      "note_on channel=0 note=60 velocity=45 time=0\n",
      "note_off channel=0 note=63 velocity=35 time=0\n",
      "note_on channel=0 note=73 velocity=61 time=0\n",
      "note_off channel=0 note=77 velocity=63 time=0\n",
      "note_off channel=0 note=60 velocity=32 time=0\n",
      "note_on channel=0 note=56 velocity=26 time=0\n",
      "note_off channel=0 note=56 velocity=58 time=0\n",
      "control_change channel=0 control=64 value=75 time=0\n",
      "control_change channel=0 control=64 value=74 time=0\n",
      "control_change channel=0 control=64 value=74 time=0\n",
      "control_change channel=0 control=64 value=73 time=0\n",
      "control_change channel=0 control=64 value=70 time=0\n",
      "control_change channel=0 control=64 value=66 time=0\n",
      "note_on channel=0 note=68 velocity=53 time=0\n",
      "control_change channel=0 control=64 value=62 time=0\n",
      "control_change channel=0 control=64 value=54 time=0\n",
      "control_change channel=0 control=64 value=44 time=0\n",
      "control_change channel=0 control=64 value=24 time=0\n",
      "note_off channel=0 note=73 velocity=56 time=0\n",
      "control_change channel=0 control=64 value=0 time=0\n",
      "polytouch channel=0 note=49 value=127 time=0\n",
      "polytouch channel=0 note=49 value=0 time=0\n",
      "control_change channel=0 control=64 value=34 time=0\n",
      "control_change channel=0 control=64 value=54 time=0\n",
      "control_change channel=0 control=64 value=60 time=0\n",
      "control_change channel=0 control=64 value=63 time=0\n",
      "control_change channel=0 control=64 value=64 time=0\n",
      "control_change channel=0 control=64 value=65 time=0\n",
      "control_change channel=0 control=64 value=66 time=0\n",
      "control_change channel=0 control=64 value=67 time=0\n",
      "control_change channel=0 control=64 value=68 time=0\n",
      "control_change channel=0 control=64 value=69 time=0\n",
      "note_on channel=0 note=44 velocity=33 time=0\n",
      "control_change channel=0 control=64 value=68 time=0\n",
      "control_change channel=0 control=64 value=66 time=0\n",
      "control_change channel=0 control=64 value=61 time=0\n",
      "control_change channel=0 control=64 value=47 time=0\n",
      "control_change channel=0 control=64 value=0 time=0\n",
      "control_change channel=0 control=64 value=48 time=0\n",
      "control_change channel=0 control=64 value=57 time=0\n",
      "control_change channel=0 control=64 value=60 time=0\n",
      "control_change channel=0 control=64 value=61 time=0\n",
      "control_change channel=0 control=64 value=61 time=0\n",
      "control_change channel=0 control=64 value=62 time=0\n",
      "control_change channel=0 control=64 value=63 time=0\n",
      "control_change channel=0 control=64 value=64 time=0\n",
      "note_off channel=0 note=44 velocity=50 time=0\n",
      "control_change channel=0 control=64 value=65 time=0\n",
      "note_on channel=0 note=51 velocity=37 time=0\n",
      "control_change channel=0 control=64 value=66 time=0\n",
      "control_change channel=0 control=64 value=68 time=0\n",
      "control_change channel=0 control=64 value=70 time=0\n",
      "control_change channel=0 control=64 value=72 time=0\n",
      "control_change channel=0 control=64 value=73 time=0\n",
      "control_change channel=0 control=64 value=74 time=0\n",
      "control_change channel=0 control=64 value=74 time=0\n",
      "note_off channel=0 note=51 velocity=51 time=0\n",
      "note_on channel=0 note=56 velocity=29 time=0\n",
      "control_change channel=0 control=64 value=75 time=0\n",
      "note_off channel=0 note=56 velocity=53 time=0\n",
      "note_on channel=0 note=60 velocity=27 time=0\n",
      "control_change channel=0 control=64 value=74 time=0\n",
      "note_off channel=0 note=60 velocity=34 time=0\n",
      "control_change channel=0 control=64 value=74 time=0\n",
      "control_change channel=0 control=64 value=73 time=0\n",
      "note_on channel=0 note=51 velocity=36 time=0\n",
      "control_change channel=0 control=64 value=73 time=0\n",
      "note_off channel=0 note=51 velocity=51 time=0\n",
      "note_on channel=0 note=44 velocity=30 time=0\n",
      "note_off channel=0 note=44 velocity=45 time=0\n",
      "note_on channel=0 note=51 velocity=37 time=0\n",
      "control_change channel=0 control=64 value=72 time=0\n",
      "note_off channel=0 note=51 velocity=55 time=0\n",
      "note_on channel=0 note=56 velocity=23 time=0\n",
      "note_off channel=0 note=56 velocity=53 time=0\n",
      "note_on channel=0 note=60 velocity=28 time=0\n",
      "note_off channel=0 note=60 velocity=44 time=0\n",
      "polytouch channel=0 note=56 value=127 time=0\n",
      "polytouch channel=0 note=56 value=0 time=0\n",
      "note_on channel=0 note=51 velocity=21 time=0\n",
      "note_off channel=0 note=51 velocity=32 time=0\n",
      "note_on channel=0 note=44 velocity=32 time=0\n",
      "note_off channel=0 note=44 velocity=57 time=0\n",
      "note_on channel=0 note=51 velocity=39 time=0\n",
      "note_off channel=0 note=51 velocity=54 time=0\n",
      "note_on channel=0 note=56 velocity=16 time=0\n",
      "note_off channel=0 note=68 velocity=63 time=0\n",
      "note_off channel=0 note=56 velocity=43 time=0\n",
      "control_change channel=0 control=64 value=72 time=0\n",
      "control_change channel=0 control=64 value=71 time=0\n",
      "control_change channel=0 control=64 value=71 time=0\n",
      "control_change channel=0 control=64 value=70 time=0\n",
      "control_change channel=0 control=64 value=69 time=0\n",
      "control_change channel=0 control=64 value=68 time=0\n",
      "control_change channel=0 control=64 value=67 time=0\n",
      "control_change channel=0 control=64 value=66 time=0\n",
      "control_change channel=0 control=64 value=64 time=0\n",
      "control_change channel=0 control=64 value=63 time=0\n",
      "control_change channel=0 control=64 value=62 time=0\n",
      "control_change channel=0 control=64 value=60 time=0\n",
      "control_change channel=0 control=64 value=59 time=0\n",
      "control_change channel=0 control=64 value=58 time=0\n",
      "control_change channel=0 control=64 value=55 time=0\n",
      "control_change channel=0 control=64 value=52 time=0\n",
      "control_change channel=0 control=64 value=48 time=0\n",
      "control_change channel=0 control=64 value=41 time=0\n",
      "control_change channel=0 control=64 value=26 time=0\n",
      "control_change channel=0 control=64 value=0 time=0\n",
      "control_change channel=0 control=64 value=25 time=0\n",
      "control_change channel=0 control=64 value=73 time=0\n",
      "control_change channel=0 control=64 value=94 time=0\n",
      "control_change channel=0 control=64 value=127 time=0\n",
      "note_on channel=0 note=36 velocity=78 time=0\n",
      "note_on channel=0 note=51 velocity=82 time=0\n",
      "note_on channel=0 note=55 velocity=64 time=0\n",
      "note_on channel=0 note=43 velocity=56 time=0\n",
      "note_off channel=0 note=51 velocity=62 time=0\n",
      "note_off channel=0 note=36 velocity=58 time=0\n",
      "note_off channel=0 note=43 velocity=63 time=0\n",
      "note_off channel=0 note=55 velocity=62 time=0\n",
      "note_on channel=0 note=48 velocity=62 time=0\n",
      "note_on channel=0 note=63 velocity=62 time=0\n",
      "note_off channel=0 note=48 velocity=62 time=0\n",
      "note_off channel=0 note=63 velocity=64 time=0\n",
      "note_on channel=0 note=63 velocity=71 time=0\n",
      "note_on channel=0 note=48 velocity=69 time=0\n",
      "note_off channel=0 note=63 velocity=59 time=0\n",
      "note_off channel=0 note=48 velocity=48 time=0\n",
      "note_on channel=0 note=55 velocity=50 time=0\n",
      "note_on channel=0 note=67 velocity=65 time=0\n",
      "note_off channel=0 note=55 velocity=63 time=0\n",
      "note_off channel=0 note=67 velocity=66 time=0\n",
      "note_on channel=0 note=75 velocity=62 time=0\n",
      "note_on channel=0 note=60 velocity=55 time=0\n",
      "note_off channel=0 note=60 velocity=63 time=0\n",
      "note_off channel=0 note=75 velocity=63 time=0\n",
      "note_on channel=0 note=75 velocity=58 time=0\n",
      "note_on channel=0 note=67 velocity=36 time=0\n",
      "note_off channel=0 note=75 velocity=58 time=0\n",
      "polytouch channel=0 note=60 value=127 time=0\n",
      "note_on channel=0 note=79 velocity=60 time=0\n",
      "note_off channel=0 note=67 velocity=59 time=0\n",
      "polytouch channel=0 note=60 value=0 time=0\n",
      "note_on channel=0 note=72 velocity=67 time=0\n",
      "note_off channel=0 note=79 velocity=63 time=0\n",
      "note_on channel=0 note=87 velocity=79 time=0\n",
      "note_off channel=0 note=72 velocity=63 time=0\n",
      "note_on channel=0 note=79 velocity=69 time=0\n",
      "note_on channel=0 note=67 velocity=71 time=0\n",
      "note_off channel=0 note=87 velocity=63 time=0\n",
      "note_off channel=0 note=67 velocity=65 time=0\n",
      "note_off channel=0 note=79 velocity=65 time=0\n",
      "note_on channel=0 note=75 velocity=72 time=0\n",
      "note_on channel=0 note=60 velocity=48 time=0\n",
      "note_off channel=0 note=75 velocity=65 time=0\n",
      "note_off channel=0 note=60 velocity=54 time=0\n",
      "note_on channel=0 note=60 velocity=62 time=0\n",
      "note_off channel=0 note=60 velocity=62 time=0\n",
      "note_on channel=0 note=74 velocity=62 time=0\n",
      "note_on channel=0 note=55 velocity=53 time=0\n",
      "note_on channel=0 note=67 velocity=66 time=0\n",
      "note_off channel=0 note=74 velocity=63 time=0\n",
      "note_off channel=0 note=55 velocity=61 time=0\n",
      "note_off channel=0 note=67 velocity=65 time=0\n",
      "note_on channel=0 note=63 velocity=63 time=0\n",
      "note_on channel=0 note=47 velocity=33 time=0\n",
      "note_off channel=0 note=63 velocity=66 time=0\n",
      "polytouch channel=0 note=48 value=127 time=0\n",
      "note_on channel=0 note=63 velocity=57 time=0\n",
      "note_on channel=0 note=57 velocity=51 time=0\n",
      "polytouch channel=0 note=48 value=0 time=0\n",
      "note_on channel=0 note=43 velocity=59 time=0\n",
      "note_off channel=0 note=57 velocity=59 time=0\n",
      "note_on channel=0 note=56 velocity=48 time=0\n",
      "note_off channel=0 note=47 velocity=20 time=0\n",
      "note_off channel=0 note=56 velocity=65 time=0\n",
      "note_on channel=0 note=36 velocity=83 time=0\n",
      "note_off channel=0 note=63 velocity=61 time=0\n",
      "note_off channel=0 note=43 velocity=61 time=0\n",
      "note_on channel=0 note=50 velocity=85 time=0\n",
      "note_off channel=0 note=50 velocity=65 time=0\n",
      "note_off channel=0 note=36 velocity=62 time=0\n",
      "control_change channel=0 control=64 value=79 time=0\n",
      "control_change channel=0 control=64 value=58 time=0\n",
      "control_change channel=0 control=64 value=0 time=0\n",
      "polytouch channel=0 note=64 value=127 time=0\n",
      "polytouch channel=0 note=48 value=127 time=0\n",
      "polytouch channel=0 note=55 value=127 time=0\n",
      "polytouch channel=0 note=48 value=0 time=0\n",
      "polytouch channel=0 note=55 value=0 time=0\n",
      "polytouch channel=0 note=64 value=0 time=0\n"
     ]
    },
    {
     "ename": "KeyboardInterrupt",
     "evalue": "",
     "output_type": "error",
     "traceback": [
      "\u001b[0;31m---------------------------------------------------------------------------\u001b[0m",
      "\u001b[0;31mKeyboardInterrupt\u001b[0m                         Traceback (most recent call last)",
      "Cell \u001b[0;32mIn[2], line 2\u001b[0m\n\u001b[1;32m      1\u001b[0m \u001b[38;5;28;01mwith\u001b[39;00m mido\u001b[38;5;241m.\u001b[39mopen_input(\u001b[38;5;124m\"\u001b[39m\u001b[38;5;124mDisklavier\u001b[39m\u001b[38;5;124m\"\u001b[39m) \u001b[38;5;28;01mas\u001b[39;00m inport:\n\u001b[0;32m----> 2\u001b[0m \u001b[43m    \u001b[49m\u001b[38;5;28;43;01mfor\u001b[39;49;00m\u001b[43m \u001b[49m\u001b[43mmsg\u001b[49m\u001b[43m \u001b[49m\u001b[38;5;129;43;01min\u001b[39;49;00m\u001b[43m \u001b[49m\u001b[43minport\u001b[49m\u001b[43m:\u001b[49m\n\u001b[1;32m      3\u001b[0m \u001b[43m        \u001b[49m\u001b[38;5;28;43mprint\u001b[39;49m\u001b[43m(\u001b[49m\u001b[43mmsg\u001b[49m\u001b[43m)\u001b[49m\n",
      "File \u001b[0;32m~/Documents/Programming/disklavier/.venv/lib/python3.12/site-packages/mido/ports.py:243\u001b[0m, in \u001b[0;36mBaseInput.__iter__\u001b[0;34m(self)\u001b[0m\n\u001b[1;32m    241\u001b[0m \u001b[38;5;28;01mwhile\u001b[39;00m \u001b[38;5;28;01mTrue\u001b[39;00m:\n\u001b[1;32m    242\u001b[0m     \u001b[38;5;28;01mtry\u001b[39;00m:\n\u001b[0;32m--> 243\u001b[0m         \u001b[38;5;28;01myield\u001b[39;00m \u001b[38;5;28;43mself\u001b[39;49m\u001b[38;5;241;43m.\u001b[39;49m\u001b[43mreceive\u001b[49m\u001b[43m(\u001b[49m\u001b[43m)\u001b[49m\n\u001b[1;32m    244\u001b[0m     \u001b[38;5;28;01mexcept\u001b[39;00m \u001b[38;5;167;01mOSError\u001b[39;00m:\n\u001b[1;32m    245\u001b[0m         \u001b[38;5;28;01mif\u001b[39;00m \u001b[38;5;28mself\u001b[39m\u001b[38;5;241m.\u001b[39mclosed:\n\u001b[1;32m    246\u001b[0m             \u001b[38;5;66;03m# The port closed before or inside receive().\u001b[39;00m\n\u001b[1;32m    247\u001b[0m             \u001b[38;5;66;03m# (This makes the assumption that this is the reason,\u001b[39;00m\n\u001b[1;32m    248\u001b[0m             \u001b[38;5;66;03m# at the risk of masking other errors.)\u001b[39;00m\n",
      "File \u001b[0;32m~/Documents/Programming/disklavier/.venv/lib/python3.12/site-packages/mido/backends/rtmidi.py:152\u001b[0m, in \u001b[0;36mInput.receive\u001b[0;34m(self, block)\u001b[0m\n\u001b[1;32m    150\u001b[0m \u001b[38;5;28;01mdef\u001b[39;00m \u001b[38;5;21mreceive\u001b[39m(\u001b[38;5;28mself\u001b[39m, block\u001b[38;5;241m=\u001b[39m\u001b[38;5;28;01mTrue\u001b[39;00m):\n\u001b[1;32m    151\u001b[0m     \u001b[38;5;28;01mif\u001b[39;00m block:\n\u001b[0;32m--> 152\u001b[0m         \u001b[38;5;28;01mreturn\u001b[39;00m \u001b[38;5;28;43mself\u001b[39;49m\u001b[38;5;241;43m.\u001b[39;49m\u001b[43m_queue\u001b[49m\u001b[38;5;241;43m.\u001b[39;49m\u001b[43mget\u001b[49m\u001b[43m(\u001b[49m\u001b[43m)\u001b[49m\n\u001b[1;32m    153\u001b[0m     \u001b[38;5;28;01melse\u001b[39;00m:\n\u001b[1;32m    154\u001b[0m         \u001b[38;5;28;01mreturn\u001b[39;00m \u001b[38;5;28mself\u001b[39m\u001b[38;5;241m.\u001b[39m_queue\u001b[38;5;241m.\u001b[39mpoll()\n",
      "File \u001b[0;32m~/Documents/Programming/disklavier/.venv/lib/python3.12/site-packages/mido/backends/_parser_queue.py:43\u001b[0m, in \u001b[0;36mParserQueue.get\u001b[0;34m(self)\u001b[0m\n\u001b[1;32m     42\u001b[0m \u001b[38;5;28;01mdef\u001b[39;00m \u001b[38;5;21mget\u001b[39m(\u001b[38;5;28mself\u001b[39m):\n\u001b[0;32m---> 43\u001b[0m     \u001b[38;5;28;01mreturn\u001b[39;00m \u001b[38;5;28;43mself\u001b[39;49m\u001b[38;5;241;43m.\u001b[39;49m\u001b[43m_queue\u001b[49m\u001b[38;5;241;43m.\u001b[39;49m\u001b[43mget\u001b[49m\u001b[43m(\u001b[49m\u001b[43m)\u001b[49m\n",
      "File \u001b[0;32m~/miniconda3/envs/disklavier/lib/python3.12/queue.py:171\u001b[0m, in \u001b[0;36mQueue.get\u001b[0;34m(self, block, timeout)\u001b[0m\n\u001b[1;32m    169\u001b[0m \u001b[38;5;28;01melif\u001b[39;00m timeout \u001b[38;5;129;01mis\u001b[39;00m \u001b[38;5;28;01mNone\u001b[39;00m:\n\u001b[1;32m    170\u001b[0m     \u001b[38;5;28;01mwhile\u001b[39;00m \u001b[38;5;129;01mnot\u001b[39;00m \u001b[38;5;28mself\u001b[39m\u001b[38;5;241m.\u001b[39m_qsize():\n\u001b[0;32m--> 171\u001b[0m         \u001b[38;5;28;43mself\u001b[39;49m\u001b[38;5;241;43m.\u001b[39;49m\u001b[43mnot_empty\u001b[49m\u001b[38;5;241;43m.\u001b[39;49m\u001b[43mwait\u001b[49m\u001b[43m(\u001b[49m\u001b[43m)\u001b[49m\n\u001b[1;32m    172\u001b[0m \u001b[38;5;28;01melif\u001b[39;00m timeout \u001b[38;5;241m<\u001b[39m \u001b[38;5;241m0\u001b[39m:\n\u001b[1;32m    173\u001b[0m     \u001b[38;5;28;01mraise\u001b[39;00m \u001b[38;5;167;01mValueError\u001b[39;00m(\u001b[38;5;124m\"\u001b[39m\u001b[38;5;124m'\u001b[39m\u001b[38;5;124mtimeout\u001b[39m\u001b[38;5;124m'\u001b[39m\u001b[38;5;124m must be a non-negative number\u001b[39m\u001b[38;5;124m\"\u001b[39m)\n",
      "File \u001b[0;32m~/miniconda3/envs/disklavier/lib/python3.12/threading.py:355\u001b[0m, in \u001b[0;36mCondition.wait\u001b[0;34m(self, timeout)\u001b[0m\n\u001b[1;32m    353\u001b[0m \u001b[38;5;28;01mtry\u001b[39;00m:    \u001b[38;5;66;03m# restore state no matter what (e.g., KeyboardInterrupt)\u001b[39;00m\n\u001b[1;32m    354\u001b[0m     \u001b[38;5;28;01mif\u001b[39;00m timeout \u001b[38;5;129;01mis\u001b[39;00m \u001b[38;5;28;01mNone\u001b[39;00m:\n\u001b[0;32m--> 355\u001b[0m         \u001b[43mwaiter\u001b[49m\u001b[38;5;241;43m.\u001b[39;49m\u001b[43macquire\u001b[49m\u001b[43m(\u001b[49m\u001b[43m)\u001b[49m\n\u001b[1;32m    356\u001b[0m         gotit \u001b[38;5;241m=\u001b[39m \u001b[38;5;28;01mTrue\u001b[39;00m\n\u001b[1;32m    357\u001b[0m     \u001b[38;5;28;01melse\u001b[39;00m:\n",
      "\u001b[0;31mKeyboardInterrupt\u001b[0m: "
     ]
    }
   ],
   "source": [
    "with mido.open_input(\"Disklavier\") as inport:\n",
    "    for msg in inport:\n",
    "        print(msg)"
   ]
  },
  {
   "cell_type": "code",
   "execution_count": 2,
   "metadata": {},
   "outputs": [
    {
     "name": "stdout",
     "output_type": "stream",
     "text": [
      "found input ports: ['Disklavier']\n",
      "found output ports: ['Disklavier']\n",
      "using port Disklavier\n"
     ]
    }
   ],
   "source": [
    "print(f\"found input ports: {mido.get_input_names()}\")\n",
    "print(f\"found output ports: {mido.get_output_names()}\")\n",
    "\n",
    "outfile = '../recordings/live_piano_recording.mid'\n",
    "ctrl = 67  # CC 64 is the standard sustain pedal\n",
    "pedal_value = 127  # Value might need adjustment\n",
    "\n",
    "device = mido.get_input_names()[0]\n",
    "print(f\"using port {device}\")"
   ]
  },
  {
   "cell_type": "code",
   "execution_count": 11,
   "metadata": {},
   "outputs": [],
   "source": [
    "def stretch_midi_file(midi, new_duration_seconds):\n",
    "    print(f\"rescaling file from {midi.length} to {new_duration_seconds}\")\n",
    "    # Calculate stretch factor based on the provided original duration\n",
    "    stretch_factor = new_duration_seconds / midi.length\n",
    "    \n",
    "    # Scale the time attribute of each message by the stretch factor\n",
    "    for track in midi.tracks:\n",
    "        for msg in track:\n",
    "            msg.time = int(msg.time * stretch_factor)\n",
    "    \n",
    "    # Save the modified MIDI file back to the same path\n",
    "    return midi\n"
   ]
  },
  {
   "cell_type": "code",
   "execution_count": 12,
   "metadata": {},
   "outputs": [],
   "source": [
    "def calculate_delta_time(start_time, current_time, ticks_per_beat):\n",
    "    # Calculate delta time in seconds\n",
    "    delta_seconds = current_time - start_time\n",
    "    # Convert delta time to ticks\n",
    "    return int(delta_seconds * ticks_per_beat)"
   ]
  },
  {
   "cell_type": "code",
   "execution_count": 25,
   "metadata": {},
   "outputs": [
    {
     "name": "stdout",
     "output_type": "stream",
     "text": [
      "recording at 480tpb... Press Ctrl+C to stop.\n",
      "control_change channel=0 control=67 value=10 time=820468597258\n",
      "recording...\n",
      "control_change channel=0 control=67 value=17 time=9\n",
      "control_change channel=0 control=67 value=21 time=9\n",
      "control_change channel=0 control=67 value=24 time=9\n",
      "control_change channel=0 control=67 value=26 time=9\n",
      "control_change channel=0 control=67 value=29 time=9\n",
      "control_change channel=0 control=67 value=33 time=9\n",
      "control_change channel=0 control=67 value=38 time=9\n",
      "control_change channel=0 control=67 value=45 time=9\n",
      "control_change channel=0 control=67 value=58 time=9\n",
      "control_change channel=0 control=67 value=76 time=9\n",
      "control_change channel=0 control=67 value=103 time=9\n",
      "control_change channel=0 control=67 value=127 time=9\n",
      "note_on channel=0 note=48 velocity=54 time=158\n",
      "adding note to track\n",
      "note_off channel=0 note=48 velocity=46 time=78\n",
      "adding note to track\n",
      "note_on channel=0 note=50 velocity=61 time=28\n",
      "adding note to track\n",
      "note_off channel=0 note=50 velocity=62 time=60\n",
      "adding note to track\n",
      "note_on channel=0 note=51 velocity=67 time=51\n",
      "adding note to track\n",
      "note_off channel=0 note=51 velocity=54 time=54\n",
      "adding note to track\n",
      "note_on channel=0 note=53 velocity=58 time=80\n",
      "adding note to track\n",
      "note_off channel=0 note=53 velocity=57 time=65\n",
      "adding note to track\n",
      "note_on channel=0 note=51 velocity=55 time=59\n",
      "adding note to track\n",
      "note_off channel=0 note=51 velocity=60 time=70\n",
      "adding note to track\n",
      "note_on channel=0 note=53 velocity=62 time=64\n",
      "adding note to track\n",
      "note_off channel=0 note=53 velocity=54 time=77\n",
      "adding note to track\n",
      "note_on channel=0 note=51 velocity=68 time=46\n",
      "adding note to track\n",
      "note_off channel=0 note=51 velocity=61 time=47\n",
      "adding note to track\n",
      "control_change channel=0 control=67 value=108 time=160\n",
      "control_change channel=0 control=67 value=72 time=9\n",
      "control_change channel=0 control=67 value=24 time=9\n",
      "control_change channel=0 control=67 value=0 time=9\n",
      "stopping recording at 2.60s...\n",
      "rescaling file from 0.9760416666666666 to 2.5995640754699707\n",
      "Recording saved to 'live_piano_recording.mid'.\n"
     ]
    }
   ],
   "source": [
    "# Create a new MIDI file and track\n",
    "mid = MidiFile()\n",
    "track = MidiTrack()\n",
    "mid.tracks.append(track)\n",
    "track.append(Message('program_change', program=12))\n",
    "\n",
    "ticks_per_beat = mid.ticks_per_beat  # Default ticks per beat for MIDI file\n",
    "start_time = -1\n",
    "end_time = -1\n",
    "last_note_time = start_time\n",
    "\n",
    "is_recording = False\n",
    "\n",
    "# Open the input port for the MIDI keyboard\n",
    "with mido.open_input(device) as inport:\n",
    "    print(f\"recording at {ticks_per_beat}tpb... Press Ctrl+C to stop.\")\n",
    "\n",
    "    try:\n",
    "        for msg in inport:\n",
    "            current_time = time.time()\n",
    "            delta_time = calculate_delta_time(last_note_time, current_time, ticks_per_beat)\n",
    "            msg.time = delta_time\n",
    "            print(msg)\n",
    "            last_note_time = current_time \n",
    "            if msg.type == 'control_change' and msg.control == ctrl:\n",
    "                if msg.value == 0:\n",
    "                    end_time = time.time()\n",
    "                    print(f\"stopping recording at {end_time - start_time:.02f}s...\")\n",
    "                    is_recording = False\n",
    "                    break\n",
    "                elif is_recording == False:\n",
    "                    print(f\"recording...\")\n",
    "                    start_time = time.time()\n",
    "                    is_recording = True\n",
    "            elif is_recording and msg.type in ['note_on', 'note_off']:\n",
    "                print(\"adding note to track\")\n",
    "                track.append(msg)\n",
    "    except KeyboardInterrupt:\n",
    "        # Stop recording on Ctrl+C\n",
    "        end_time = time.time()\n",
    "        print(f\"stopping recording at {end_time}...\")\n",
    "\n",
    "# Save the recorded MIDI messages to a file\n",
    "mid = stretch_midi_file(mid, end_time - start_time)\n",
    "mid.save(outfile)\n",
    "print(\"Recording saved to 'live_piano_recording.mid'.\")\n"
   ]
  },
  {
   "cell_type": "code",
   "execution_count": 26,
   "metadata": {},
   "outputs": [
    {
     "name": "stdout",
     "output_type": "stream",
     "text": [
      "=== Track 0\n",
      "\tMessage('program_change', channel=0, program=12, time=0)\n",
      "\tMessage('note_on', channel=0, note=48, velocity=54, time=420)\n",
      "\tMessage('note_off', channel=0, note=48, velocity=46, time=207)\n",
      "\tMessage('note_on', channel=0, note=50, velocity=61, time=74)\n",
      "\tMessage('note_off', channel=0, note=50, velocity=62, time=159)\n",
      "\tMessage('note_on', channel=0, note=51, velocity=67, time=135)\n",
      "\tMessage('note_off', channel=0, note=51, velocity=54, time=143)\n",
      "\tMessage('note_on', channel=0, note=53, velocity=58, time=213)\n",
      "\tMessage('note_off', channel=0, note=53, velocity=57, time=173)\n",
      "\tMessage('note_on', channel=0, note=51, velocity=55, time=157)\n",
      "\tMessage('note_off', channel=0, note=51, velocity=60, time=186)\n",
      "\tMessage('note_on', channel=0, note=53, velocity=62, time=170)\n",
      "\tMessage('note_off', channel=0, note=53, velocity=54, time=205)\n",
      "\tMessage('note_on', channel=0, note=51, velocity=68, time=122)\n",
      "\tMessage('note_off', channel=0, note=51, velocity=61, time=125)\n",
      "\tMetaMessage('end_of_track', time=0)\n"
     ]
    }
   ],
   "source": [
    "def print_midi(filename):\n",
    "    midi_file = MidiFile(filename)\n",
    "    for i, track in enumerate(midi_file.tracks):\n",
    "            print(f'=== Track {i}')\n",
    "            for message in track:\n",
    "                print(f'\\t{message!r}')\n",
    "print_midi(outfile)"
   ]
  },
  {
   "cell_type": "code",
   "execution_count": 27,
   "metadata": {},
   "outputs": [],
   "source": [
    "def draw_midi(midi_file: str, labels: bool = False):\n",
    "    plt.style.use(\"dark_background\")\n",
    "\n",
    "    midi = pretty_midi.PrettyMIDI(midi_file)\n",
    "\n",
    "    _, ax = plt.subplots(figsize=(12, 4))\n",
    "\n",
    "    for note in midi.instruments[0].notes:\n",
    "        rect = patches.Rectangle(\n",
    "            (note.start, note.pitch), note.end - note.start, 1, color=\"green\"\n",
    "        )\n",
    "        ax.add_patch(rect)\n",
    "\n",
    "    if labels:\n",
    "        ax.set_xlabel(\"Time (s)\")\n",
    "        ax.set_ylabel(\"MIDI Note\")\n",
    "    ax.set_yticks([])\n",
    "    ax.set_title(f\"{Path(midi_file).stem}\")\n",
    "\n",
    "    plt.box(False)\n",
    "    plt.ylim(20, 108)  # MIDI note range for a piano\n",
    "    plt.xlim(0, np.ceil(midi.instruments[0].notes[-1].end))\n",
    "    plt.show()"
   ]
  },
  {
   "cell_type": "code",
   "execution_count": 28,
   "metadata": {},
   "outputs": [
    {
     "data": {
      "image/png": "iVBORw0KGgoAAAANSUhEUgAAA8sAAAF2CAYAAABZOgotAAAAOXRFWHRTb2Z0d2FyZQBNYXRwbG90bGliIHZlcnNpb24zLjguMCwgaHR0cHM6Ly9tYXRwbG90bGliLm9yZy81sbWrAAAACXBIWXMAAA9hAAAPYQGoP6dpAAAes0lEQVR4nO3de3DV5Z348Q9BLordlBUVq1vwgoKRVXDXrU5tvDLSdnRoKXTUaTqdddlqXS+ztpZWcduVtrpauvyc1S42OFOXilOK9VYsknqFcVYLpasVxAAFuYikabgkBH1+f7g5s+dJ0CSEHA68XjPPjOeb55zznOP3ezxvz61PRKQAAAAACipKvQAAAADY34hlAAAAyIhlAAAAyIhlAAAAyIhlAAAAyIhlAAAAyIhlAAAAyIhlAAAAyIhlAAAAyIhlAPZKTU1NpJRi2LBhERFRV1cXdXV1JV5V5wwbNixSSlFTU1PqpRw06uvro7a2tnC6uro6UkpRXV1dwlUBQHtiGQAAADKHlHoBABxYxo0bV+oldNqaNWti4MCB0draWuqlHLSeffbZGDhwYOzatavUSwGAIl5ZBqBHtba2llV8trS0xHvvvVfqZXTbYYcdVuolFOnqelJK0dLSEimlfbQiAOgesQxAj/q/n1k+6qijorW1NW699dZ2804++eRIKcU111xT2FZZWRk//OEPY+3atdHc3BwrV66Mr3/969GnT58ur2H58uUxduzYeOGFF2LHjh3x5ptvxpQpU4rmdfSZ5dGjR0dtbW2sWrUqdu7cGRs2bIj7778//vIv/7LovNOmTYuUUpx44olRW1sbDQ0N8ac//Sl+8pOfxKGHHlo0t2/fvvHtb3873njjjWhubo76+vq4/fbbo3///l26XW3XOWrUqHjwwQdj69at8fzzzxf+fsUVV8R///d/x44dO+Kdd96JOXPmxHHHHdfucs4666x4/PHHY+vWrbFt27ZYtmxZ/NM//VPRnPPPPz+effbZ2LZtWzQ0NMT8+fNj5MiRXVrPt771rfjjH/8Y27dvj0WLFsWpp57abi0dfWa57d/fqFGjYtGiRbF9+/ZYt25d3HTTTe3O//GPfzweeeSR2LZtW2zatCnuvvvuGDdunM9BA7DXvA0bgH1m8+bN8cwzz8SkSZPiO9/5TtHfJk+eHLt3746HH344IiIOPfTQeOaZZ+LYY4+N++67L9auXRvnnHNOfO9734tjjjkmbrjhhi5d9+DBg+OJJ56IuXPnxpw5c2LSpElx7733xq5du4q+YCp38cUXxwknnBC1tbWxcePGqKqqin/4h3+Iqqqq+MQnPtFu/ty5c6O+vj6++c1vxtixY+Oqq66KzZs3x80331yYM2vWrPjyl78cDz/8cNx1113xd3/3dzF16tQYNWpUfO5zn+vS7YqIePjhh2PlypUxderUwv9ImDp1anz3u9+NuXPnxqxZs+LII4+Ma6+9Np599tkYM2ZMNDY2RkTERRddFI899lhs2LAhfvSjH8XGjRtj1KhR8dnPfjb+/d//PSIiLrzwwnjyySfjzTffjNtuuy0OPfTQuPbaa+OFF16IsWPHxpo1az50Pd/5znfilltuiccffzyeeOKJGDt2bDz11FOd/h8EgwcPjl/96lcxb968mDt3bkycODHuuOOOWL58efzqV7+KiPdfxV60aFEcc8wxhdty+eWXx/nnn9/l+xQAOpIMwzAMo7ujpqYmpZTSsGHDUkSkurq6VFdXV/j7VVddlVJKqaqqquh8v//979PChQsLp7/1rW+lpqamdNJJJxXNmz59emptbU3HHXdcp9dUV1eXUkrphhtuKGzr169feuWVV9LGjRvTIYcckiIiDRs2LKWUUk1NTWHewIED213e5MmTU0opffKTnyxsmzZtWkoppVmzZhXN/fnPf57efvvtwum//uu/Timl9OMf/7ho3h133JFSSum8887r9O1qu84HH3ywaPvHP/7x1Nramr75zW8Wba+qqkq7du0qbK+oqEirVq1K9fX1qbKyco/X03Y/DR48uLBt9OjRaffu3Wn27Nkfup4hQ4ak5ubm9OijjxZt/9d//deUUkq1tbWFbdXV1SmllKqrq9v9+7vyyiuL/v299dZb6eGHHy5su+GGG1JKKV166aWFbQMGDEivvvpqu8s0DMMwjK4Ob8MGYJ+aN29etLa2xuTJkwvbqqqqoqqqKh566KHCti984Qvx3HPPRUNDQxxxxBGFsXDhwjjkkEPiU5/6VJeut7W1Ne677752p48++ug488wz93i+5ubmwj8PGDAgjjjiiFiyZElERIwdO7bd/Hvvvbfo9HPPPRdDhgyJj3zkIxER8elPfzoiIu6+++6ieXfddVdERHzmM5/pys3q8Do/97nPRUVFRcydO7fovtu4cWOsXLmy8ErrmDFj4oQTTogZM2YUXmnODR06NMaMGROzZ8+OhoaGwvbly5fHr3/968Lt+aD1XHTRRTFgwICYOXNm0fYZM2Z0+jY2NTXFT3/608Lp1tbWeOmll+KEE04obLvkkkti3bp18ctf/rKwraWlJf7zP/+z09cDAHsilgHYp9555514+umnY9KkSYVtkydPjtbW1pg3b15h24gRI2L8+PGxZcuWovH0009HxPuff+6Kt956K3bs2FG0bcWKFRERMXz48D2eb/DgwTFjxozYuHFjNDc3x5YtW2L16tUR8f5nqnNr164tOt0WmIMHD46I9z8X/e6778Ybb7xRNG/Tpk3R0NBQ+H3qrqivry86PWLEiKioqIg33nij3f136qmnFu67E088MSIifv/73+/xstvW8/rrr7f722uvvRZHHnlkuy/xytfTdhkrV64s2r5ly5bYunVrZ25irFu3rt22hoaGwv3adj2rVq1qNy+/rwGgO3xmGYB97mc/+1nMnj07Tj/99Fi2bFlMmjQpnn766XjnnXcKcyoqKuKpp56KO+64o8PLaAvdfW3u3LlxzjnnxJ133hlLly6Nbdu2RUVFRSxYsCAqKtr/P+Z33323w8vJv5SsJ7/teefOnUWnKyoq4r333ovx48d3uJ5t27b12HV3Zj09obP3KwDsK2IZgH1u/vz50dLSUngr9imnnBLf+973iuasWrUqDj/88MIryXvrYx/7WBx22GFFry6ffPLJERGFV4pzH/3oR+Oiiy6KW2+9Nb773e8Wtp900kndXseaNWuib9++MWLEiPjDH/5Q2H7UUUfF4MGD231ZVnesWrUqKioqor6+vt2rufm8iIjTTjttj/dz23pOOeWUdn8bOXJkvP322+1esd/TZYwYMaLoVechQ4a0+1bxvbFmzZoOv2F7b/59AUAbb8MGYJ9rbGyMBQsWxKRJk+KLX/xitLS0xPz584vmtL2iO27cuHbnr6ysjL59+3bpOvv161f0U1Ftpzdv3hwvv/xyh+dpezUzf/Xy+uuv79J1/19PPPFEh5dx4403RkTE448/3u3LbjNv3rzYvXt3TJs2rcO/twXqK6+8Em+++WZcf/31Hb6lPCJi48aN8dvf/jZqamqK5lRVVcW4ceMKt+eDLFy4MHbt2hXXXntt0fa9uR87smDBgjjuuOPi0ksvLWwbMGBAXHXVVT16PQAcnLyyDECveOihh+LBBx+Mq6++OhYsWNDuC6buvPPOuPTSS+Oxxx6L2bNnx8svvxyDBg2K0aNHx8SJE2P48OFFb9v+MOvXr49vfOMbMXz48FixYkVMnjw5xowZE1dddVXs3r27w/M0NTXFM888E1//+tejX79+sX79+hg3blwcf/zx3b7dv/vd72L27NkxZcqU+OhHPxrPPPNMnHXWWfHlL385fvGLX8RvfvObbl92mzfffDO+/e1vx/e///0YPnx4zJ8/P5qamuL444+PCRMmxI9//OO46667IqUUX/3qV+PRRx+NpUuXRm1tbWzYsCFGjhwZVVVVcckll0RExE033RRPPvlkLF68OO6///7CT0c1NjbGbbfd9qHr2bJlS/zbv/1bTJ06NR577LF44oknYsyYMTF+/Ph4++239/r2trnvvvvia1/7WsyZMyd+9KMfxYYNG+KKK64ofElbT771HYCDU8m/ktswDMMo3/FhPx3VNg4//PC0ffv2lFJKl19+eYeXNWjQoHT77benFStWpObm5rR58+b0/PPPpxtvvLHwc0+dGXV1dWn58uVp7Nix6YUXXkg7duxI9fX16eqrry6a19FPR33sYx9LP//5z9PWrVtTQ0NDeuihh9LQoUNTSilNmzatMK/tZ5OOOOKID7w/IiL17ds33XLLLWnVqlWppaUlrVmzJt1+++2pf//+Xbqv93SdbWPChAnp2WefTU1NTampqSm9+uqraebMmWnEiBFF884555y0YMGC1NjYmJqamtLSpUvTNddcUzTnggsuSM8991zavn17+tOf/pQeeeSRNHLkyE6vp0+fPumWW25J69evT9u3b0+LFi1Kp556aqqvr+/UT0ctX7683WXW1tam+vr6om3Dhw9Pjz76aNq+fXvatGlTuvPOO9OECRNSSimdddZZJT8+DMMwjPIdff73HwDggFFXVxdDhgyJ0aNHl3oplMB1110XM2bMiGOPPTbeeuutUi8HgDLlM8sAQNkaOHBg0ekBAwbElClTYsWKFUIZgL3iM8sAlI3BgwdH//799/j3d999N7Zs2dKLK+oZgwYNisMPP/wD57z99tvx3nvv9dKKyse8efNi7dq1sXTp0qisrIwrr7wyRo0aFZdffnmplwZAmRPLAJSNefPmxXnnnbfHv69evXqvvoyrVP75n//5Q784a/jw4T3yM1MHmgULFsTf//3fxxVXXBF9+/aNV199NSZPnhxz584t9dIAKHM+swxA2Rg7dmwMHjx4j3/fuXNnvPjii724op5x/PHHxwknnPCBc55//vloaWnppRUBAGIZAAAAMr7gCwAAADJiGQAAADJiGQAAADJiGQAAADJiGQAAADJiGQAAADJiGQAAADJiGQAAADJiGQAAADJiGQAAADJiGQAAADJiGQAAADJiGQAAADJiGQAAADJiGQAAADJiGQAAADJiGQAAADJiGQAAADJiGQAAADJiGQAAADJiGQAAADJiGQAAADJiGQAAADJiGQAAADJiGQAAADJiGQAAADJiGQAAADJiGQAAADJiGQAAADJiGQAAADJiGQAAADJiGQAAADJiGQAAADJiGQAAADJiGQAAADJiGQAAADJiGQAAADJiGQAAADJiGQAAADJiGQAAADJiGQAAADJiGQAAADJiGQAAADJiGQAAADJiGQAAADJiGQAAADJiGQAAADJiGQAAADJiGQAAADJiGQAAADJiGQAAADJiGQAAADJiGQAAADJiGQAAADJiGQAAADJiGQAAADJiGQAAADJiGQAAADJiGQAAADJiGQAAADJiGQAAADJiGQAAADJiGQAAADJiGQAAADJiGQAAADJiGQAAADJiGQAAADJiGQAAADJiGQAAADJiGQAAADJiGQAAADJiGQAAADJiGQAAADJiGQAAADJiGQAAADJiGQAAADJiGQAAADJiGQAAADJiGQAAADJiGQAAADJiGQAAADJiGQAAADJiGQAAADJiGQAAADJiGQAAADJiGQAAADJiGQAAADJiGQAAADJiGQAAADJiGQAAADJiGQAAADJiGQAAADJiGQAAADJiGQAAADJiGQAAADJiGQAAADJiGQAAADJiGQAAADJiGQAAADJiGQAAADJiGQAAADJiGQAAADJiGQAAADJiGQAAADJiGQAAADJiGQAAADJiGQAAADJiGQAAADJiGQAAADJiGQAAADJiGQAAADJiGQAAADJiGQAAADJiGQAAADJiGQAAADJiGQAAADJiGQAAADJiGQAAADJiGQAAADJiGQAAADJiGQAAADJiGQAAADJiGQAAADJiGQAAADJiGQAAADJiGQAAADJiGQAAADJiGQAAADJiGQAAADJiGQAAADJiGQAAADJiGQAAADJiGQAAADJiGQAAADJiGQAAADJiGQAAADJiGQAAADJiGQAAADJiGQAAADJiGQAAADJiGQAAADJiGQAAADJiGQAAADJiGQAAADJiGQAAADJiGQAAADJiGQAAADJiGQAAADJiGQAAADJiGQAAADJiGQAAADJiGQAAADJiGQAAADJiGQAAADJiGQAAADJiGQAAADJiGQAAADJiGQAAADJiGQAAADJiGQAAADJiGQAAADJiGQAAADJiGQAAADJiGQAAADJiGQAAADJiGQAAADJiGQAAADJiGQAAADJiGQAAADJiGQAAADJiGQAAADJiGQAAADJiGQAAADJiGQAAADJiGQAAADJiGQAAADJiGQAAADJiGQAAADJiGQAAADJiGQAAADJiGQAAADJiGQAAADJiGQAAADJiGQAAADJiGQAAADJiGQAAADJiGQAAADJiGQAAADJiGQAAADJiGQAAADKHlHoBALDfqoyIw0q9iH1oR0Q0lnoRkDnQj7vOcnxCyYllAOhIZUR8LSL6lXoh+1BrRPy/8ISc/cfBcNx1luMTSs7bsAGgI4fFgf+EvV94BY/9y8Fw3HWW4xNKTiwDAABARiwDAABARiwDQEd2xPufGTyQtcb7txP2FwfDcddZjk8ouT4RkUq9CADYLx3o38rr23bZHx3ox11nOT6h5MQyQE8r1yd6nphRzsr1uOsuxyulVA7Hm2OEHuCnowB6Ujn/7ImfKaFclfNx112OV0qlXI43xwg9wGeWAXpSOf/siZ8poVyV83HXXY5XSqVcjjfHCD1ALAMAAEDG27DhQFUOnyfqCp89AgCgF4llOBCVy+eJuqJcPnvU9rMn5Xjf+5kSylU5H3fd5XilVMrleHOM0AN8GzYciI6JiCmlXsQ+cF9EbCj1IjqhXF/V9+o95axcj7vucrxSSuVwvDlG6AFeWQboaY3hP9DQ2xx30HscbxwkfMEXHIja3iJ1IPF2KgAAepG3YcOBqhzeItUV3k4FAEAvEssAAACQ8Zllet+B9opnd3mlFAAA9ltimd51IP6kUXeVy08hAQDAQcgXfNG7Dguh3KZfeIUdAAD2U2IZAAAAMmKZ3nUg/qRRd/kpJAAA2G/5Nmx6ny/4ep8v+AIAgP2WWAYAAICMt2EDAABARiwDAABARiwDAABARiwDAABARiwDAABARiwDAABARiwDAABARiwDAABARiwDAABARiwDAABARiwDAABARiwDAABARiwDAABARiwDAABARiwDAABARiwDAABARiwDAABARiwDAABARiwDAABARiwDAABARiwDAABARiwDAABARiwDAABARiwDAABARiwDAABARiwDAABARiwDAABARiwDAABARiwDAABARiwDAABARiwDAABARiwDAABARiwDAABARiwDAABARiwDAABARiwDAABARiwDAABARiwDAABARiwDAABARiwDAABARiwDAABARiwDAABARiwDAABARiwDAABARiwDAABARiwDAABARiwDAABARiwDAABARiwDAABARiwDAABARiwDAABARiwDAABARiwDAABARiwDAABARiwDAABARiwDAABARiwDAABARiwDAABARiwDAABARiwDAABARiwDAABARiwDAABARiwDAABARiwDAABARiwDAABARiwDAABARiwDAABARiwDAABARiwDAABARiwDAABARiwDAABARiwDAABARiwDAABARiwDAABARiwDAABARiwDAABARiwDAABARiwDAABARiwDAABARiwDAABARiwDAABARiwDAABARiwDAABARiwDAABARiwDAABARiwDAABARiwDAABARiwDAABARiwDAABARiwDAABARiwDAABARiwDAABARiwDAABARiwDAABARiwDAABApsdjuX///jFt2rTo379/T180FLGv0Vvsa/QW+xq9xb5Gb7Gv0Vv2xb7WJyJSj11aRHzkIx+JP//5z/EXf/EX0dTU1JMXDUXsa/QW+xq9xb5Gb7Gv0Vvsa/SWfbGveRs2AAAAZMQyAAAAZMQyAAAAZHo8lltaWuK2226LlpaWnr5oKGJfo7fY1+gt9jV6i32N3mJfo7fsi32tx7/gCwAAAMqdt2EDAABARiwDAABARiwDAABARiwDAABApluxfPXVV0d9fX3s3LkzlixZEn/7t3/7gfMnTpwYr732WuzcuTN+97vfxfjx47u1WA4+XdnXampqIqVUNHbu3NmLq6VcnXvuufHLX/4y1q9fHymluOyyyz70PNXV1fHyyy9Hc3NzrFy5MmpqanphpZSzru5n1dXV7R7TUkpx9NFH99KKKVc333xzvPTSS/HnP/85Nm3aFL/4xS/i5JNP/tDzeb5GV3VnX/N8je74x3/8x1i2bFk0NjZGY2NjvPjii3HJJZd84Hl64jGty7E8adKkuPvuu+Nf/uVfYuzYsbFs2bJYsGBBHHnkkR3OP/vss2POnDlx//33x5gxY2L+/Pkxf/78qKqq6vJiObh0dV+LiGhsbIyhQ4cWxrBhw3pxxZSrQYMGxbJly+Kaa67p1Pzhw4fH448/HnV1dXHGGWfEjBkzYtasWTFu3Lh9vFLKWVf3szYnn3xy0ePa5s2b99EKOVBUV1fHPffcE5/4xCfi4osvjn79+sVTTz0Vhx122B7P4/ka3dGdfS3C8zW6bt26dXHzzTfHmWeeGX/zN38TixYtikceeSROPfXUDuf35GNa6spYsmRJmjlzZuF0nz590rp169I3vvGNDuf/7Gc/S48++mjRtsWLF6f/+I//6NL1Ggff6Oq+VlNTkxoaGkq+bqO8R0opXXbZZR845/vf/35avnx50bY5c+akJ598suTrN8pjdGY/q66uTimlVFlZWfL1GuU9hgwZklJK6dxzz93jHM/XjJ4YndnXPF8zemq888476Stf+UqHf+upx7QuvbLcr1+/OPPMM2PhwoWFbSmlWLhwYZx99tkdnufss88umh8RsWDBgj3Oh4ju7WsREYcffnisXr061q5dG/Pnz9/j/22CveFxjd60dOnSeOutt+Kpp56Kc845p9TLoQxVVlZGRMTWrVv3OMfjGj2hM/tahOdr7J2KioqYPHlyDBo0KBYvXtzhnJ56TOtSLA8ZMiQOOeSQ2LRpU9H2TZs2xdChQzs8z9ChQ7s0HyK6t6+9/vrr8ZWvfCUuu+yyuPLKK6OioiJefPHFOPbYY3tjyRxE9vS4VllZGQMHDizRqjjQbNiwIaZMmRKf//zn4/Of/3z88Y9/jN/85jcxZsyYUi+NMtKnT5+YMWNGPP/88/E///M/e5zn+Rp7q7P7mudrdNdpp50WTU1N0dLSEvfee29MmDAhXnvttQ7n9tRj2iHdXi3sZ5YsWRJLliwpnH7xxRfjtddeiylTpsStt95awpUBdN2KFStixYoVhdOLFy+OE088MW644Yb40pe+VMKVUU7uueeeOO200+KTn/xkqZfCAa6z+5rna3TX66+/HmeccUZUVlbGxIkT44EHHojq6uo9BnNP6NIry1u2bIndu3e3+ybOo48+OjZu3NjheTZu3Nil+RDRvX0tt3v37vjtb38bJ5100r5YIgexPT2uNTY2RnNzc4lWxcHgpZde8phGp82cOTM++9nPxvnnnx/r16//wLmer7E3urKv5Txfo7NaW1tj1apV8corr8TUqVNj2bJlcd1113U4t6ce07oUy62trfHyyy/HhRdeWNjWp0+fuPDCC/f4fvHFixcXzY+IuPjii/c4HyK6t6/lKioqYvTo0bFhw4Z9tUwOUh7XKJUzzjjDYxqdMnPmzJgwYUJccMEFsXr16g+d73GN7urqvpbzfI3uqqioiAEDBnT4t558TOvSN4JNmjQp7dy5M33pS19KI0eOTPfee2/aunVrOuqoo1JEpAceeCBNnz69MP/ss89Ou3btSjfeeGM65ZRT0rRp01JLS0uqqqoq+TeoGfv36Oq+dsstt6SLL744HX/88WnMmDHpv/7rv9KOHTvSqFGjSn5bjP17DBo0KJ1++unp9NNPTymldP3116fTTz89/dVf/VWKiDR9+vT0wAMPFOYPHz48bdu2Lf3gBz9Ip5xySvrqV7+aWltb07hx40p+W4z9d3R1P7vuuuvSpZdemk488cRUVVWVfvjDH6bdu3enCy64oOS3xdi/xz333JMaGhrSpz71qXT00UcXxsCBAwtzPF8zemJ0Z1/zfM3ozpg+fXo699xz07Bhw9Jpp52Wpk+fnt5999100UUXpYh9+pjW9cVec801afXq1am5uTktWbIknXXWWYW/1dXVpdra2qL5EydOTH/4wx9Sc3NzWr58eRo/fnzJ73CjPEZX9rW77767MHfDhg3pscceS2eccUbJb4Ox/4+2n+jJte1ftbW1qa6urt15XnnlldTc3JzeeOONVFNTU/LbYezfo6v72U033ZRWrlyZduzYkbZs2ZIWLVqUzjvvvJLfDmP/H3vyfx+nPF8zemJ0Z1/zfM3ozpg1a1aqr69Pzc3NadOmTenXv/51IZQj9t1jWp///QcAAADgf3XpM8sAAABwMBDLAAAAkBHLAAAAkBHLAAAAkBHLAAAAkBHLAAAAkBHLAAAAkBHLAAAAkBHLAAAAkBHLAAAAkBHLAAAAkBHLAAAAkPn/OrEFH4T8IA0AAAAASUVORK5CYII=",
      "text/plain": [
       "<Figure size 1200x400 with 1 Axes>"
      ]
     },
     "metadata": {},
     "output_type": "display_data"
    }
   ],
   "source": [
    "draw_midi(outfile)"
   ]
  },
  {
   "cell_type": "code",
   "execution_count": 29,
   "metadata": {},
   "outputs": [],
   "source": [
    "def play_midi_file(midi_file_path, output_port_name):\n",
    "    \"\"\"\n",
    "    Play a MIDI file through the specified MIDI output port.\n",
    "\n",
    "    Parameters:\n",
    "    - midi_file_path: The path to the MIDI file to be played.\n",
    "    - output_port_name: The name of the MIDI output port.\n",
    "    \"\"\"\n",
    "    # Load the MIDI file\n",
    "    mid = MidiFile(midi_file_path)\n",
    "    \n",
    "    # Open the MIDI output port\n",
    "    with mido.open_output(output_port_name) as outport:\n",
    "        print(f\"Playing {midi_file_path} on {output_port_name}...\")\n",
    "        for msg in mid.play():\n",
    "            if not msg.is_meta:\n",
    "                outport.send(msg)\n",
    "\n",
    "    print(\"Playback finished.\")"
   ]
  },
  {
   "cell_type": "code",
   "execution_count": 30,
   "metadata": {},
   "outputs": [
    {
     "name": "stdout",
     "output_type": "stream",
     "text": [
      "Playing ../recordings/live_piano_recording.mid on Disklavier...\n",
      "Playback finished.\n"
     ]
    }
   ],
   "source": [
    "play_midi_file('../recordings/live_piano_recording.mid', 'Disklavier')"
   ]
  }
 ],
 "metadata": {
  "kernelspec": {
   "display_name": ".venv",
   "language": "python",
   "name": "python3"
  },
  "language_info": {
   "codemirror_mode": {
    "name": "ipython",
    "version": 3
   },
   "file_extension": ".py",
   "mimetype": "text/x-python",
   "name": "python",
   "nbconvert_exporter": "python",
   "pygments_lexer": "ipython3",
   "version": "3.12.2"
  }
 },
 "nbformat": 4,
 "nbformat_minor": 2
}
