{
 "cells": [
  {
   "cell_type": "code",
   "execution_count": 4,
   "metadata": {},
   "outputs": [],
   "source": [
    "import os\n",
    "import mido\n",
    "from mido import MidiFile\n",
    "# from rich import print"
   ]
  },
  {
   "cell_type": "code",
   "execution_count": 5,
   "metadata": {},
   "outputs": [],
   "source": [
    "def stretch_midi_file(file: MidiFile, new_duration_seconds):\n",
    "    print(f\"rescaling file from {file.length:.02f}s to {new_duration_seconds:.02f}s ({new_duration_seconds / file.length:.03f})\")\n",
    "    # Calculate stretch factor based on the original duration\n",
    "    stretch_factor = new_duration_seconds / file.length\n",
    "    \n",
    "    # Scale the time attribute of each message by the stretch factor\n",
    "    for track in file.tracks:\n",
    "        for msg in track:\n",
    "            msg.time = int(msg.time * stretch_factor)\n",
    "\n",
    "    return file"
   ]
  },
  {
   "cell_type": "code",
   "execution_count": 6,
   "metadata": {},
   "outputs": [
    {
     "name": "stdout",
     "output_type": "stream",
     "text": [
      "found bpm 64.0 for file 20240124-064-02_0435-0442.mid\n",
      "program_change channel=0 program=0 time=0\n",
      "note_on channel=0 note=45 velocity=18 time=0.021306795454545457\n",
      "note_on channel=0 note=61 velocity=60 time=0\n",
      "note_on channel=0 note=54 velocity=24 time=0.4772722181818182\n",
      "note_on channel=0 note=54 velocity=0 time=0.12784077272727273\n",
      "note_on channel=0 note=61 velocity=0 time=0.6136357090909091\n",
      "note_on channel=0 note=63 velocity=52 time=0\n",
      "note_on channel=0 note=54 velocity=17 time=0.18749980000000002\n",
      "note_on channel=0 note=61 velocity=49 time=0.008522718181818182\n",
      "note_on channel=0 note=63 velocity=0 time=0.03835223181818182\n",
      "note_on channel=0 note=61 velocity=0 time=0.16619300454545455\n",
      "note_on channel=0 note=59 velocity=42 time=0.03835223181818182\n",
      "note_on channel=0 note=45 velocity=0 time=0.06818174545454546\n",
      "note_on channel=0 note=54 velocity=0 time=0.11931805454545455\n",
      "note_on channel=0 note=47 velocity=34 time=0.008522718181818182\n",
      "note_on channel=0 note=54 velocity=26 time=0.4900562954545455\n",
      "note_on channel=0 note=54 velocity=0 time=0.1448862090909091\n",
      "note_on channel=0 note=61 velocity=42 time=0.5667607590909092\n",
      "note_on channel=0 note=59 velocity=0 time=0.017045436363636365\n",
      "note_on channel=0 note=54 velocity=11 time=0.12784077272727273\n",
      "note_on channel=0 note=59 velocity=51 time=0.06818174545454546\n",
      "note_on channel=0 note=61 velocity=0 time=0.03835223181818182\n",
      "note_on channel=0 note=59 velocity=0 time=0.1960225181818182\n",
      "note_on channel=0 note=58 velocity=62 time=0.012784077272727273\n",
      "note_on channel=0 note=54 velocity=0 time=0.13636349090909092\n",
      "note_on channel=0 note=47 velocity=0 time=0.0980112590909091\n",
      "note_on channel=0 note=49 velocity=29 time=0\n",
      "note_on channel=0 note=54 velocity=23 time=0.46874950000000004\n",
      "note_on channel=0 note=54 velocity=0 time=0.1448862090909091\n",
      "note_on channel=0 note=59 velocity=55 time=0.5752834772727273\n",
      "note_on channel=0 note=58 velocity=0 time=0.008522718181818182\n",
      "note_on channel=0 note=54 velocity=18 time=0.18749980000000002\n",
      "note_on channel=0 note=58 velocity=55 time=0\n",
      "note_on channel=0 note=59 velocity=0 time=0.046874950000000006\n",
      "note_on channel=0 note=58 velocity=0 time=0.20880659545454547\n",
      "note_on channel=0 note=57 velocity=52 time=0.008522718181818182\n",
      "note_on channel=0 note=54 velocity=0 time=0.008522718181818182\n",
      "note_on channel=0 note=49 velocity=0 time=0.10653397727272727\n",
      "note_on channel=0 note=47 velocity=30 time=0.08096582272727273\n",
      "note_on channel=0 note=54 velocity=32 time=0.49857901363636364\n",
      "note_on channel=0 note=54 velocity=0 time=0.15340892727272729\n",
      "note_on channel=0 note=54 velocity=30 time=0.6178970681818182\n",
      "note_on channel=0 note=47 velocity=0 time=0.6136357090909091\n",
      "note_on channel=0 note=54 velocity=0 time=0\n",
      "note_on channel=0 note=57 velocity=0 time=0\n",
      "removing set tempo message MetaMessage('set_tempo', tempo=937500, time=0)\n",
      "adding message MetaMessage('set_tempo', tempo=600000, time=0)\n",
      "program_change channel=0 program=0 time=0\n",
      "note_on channel=0 note=45 velocity=18 time=0.021306795454545457\n",
      "note_on channel=0 note=61 velocity=60 time=0\n",
      "note_on channel=0 note=54 velocity=24 time=0.4772722181818182\n",
      "note_on channel=0 note=54 velocity=0 time=0.12784077272727273\n",
      "note_on channel=0 note=61 velocity=0 time=0.6136357090909091\n",
      "note_on channel=0 note=63 velocity=52 time=0\n",
      "note_on channel=0 note=54 velocity=17 time=0.18749980000000002\n",
      "note_on channel=0 note=61 velocity=49 time=0.008522718181818182\n",
      "note_on channel=0 note=63 velocity=0 time=0.03835223181818182\n",
      "note_on channel=0 note=61 velocity=0 time=0.16619300454545455\n",
      "note_on channel=0 note=59 velocity=42 time=0.03835223181818182\n",
      "note_on channel=0 note=45 velocity=0 time=0.06818174545454546\n",
      "note_on channel=0 note=54 velocity=0 time=0.11931805454545455\n",
      "note_on channel=0 note=47 velocity=34 time=0.008522718181818182\n",
      "note_on channel=0 note=54 velocity=26 time=0.4900562954545455\n",
      "note_on channel=0 note=54 velocity=0 time=0.1448862090909091\n",
      "note_on channel=0 note=61 velocity=42 time=0.5667607590909092\n",
      "note_on channel=0 note=59 velocity=0 time=0.017045436363636365\n",
      "note_on channel=0 note=54 velocity=11 time=0.12784077272727273\n",
      "note_on channel=0 note=59 velocity=51 time=0.06818174545454546\n",
      "note_on channel=0 note=61 velocity=0 time=0.03835223181818182\n",
      "note_on channel=0 note=59 velocity=0 time=0.1960225181818182\n",
      "note_on channel=0 note=58 velocity=62 time=0.012784077272727273\n",
      "note_on channel=0 note=54 velocity=0 time=0.13636349090909092\n",
      "note_on channel=0 note=47 velocity=0 time=0.0980112590909091\n",
      "note_on channel=0 note=49 velocity=29 time=0\n",
      "note_on channel=0 note=54 velocity=23 time=0.46874950000000004\n",
      "note_on channel=0 note=54 velocity=0 time=0.1448862090909091\n",
      "note_on channel=0 note=59 velocity=55 time=0.5752834772727273\n",
      "note_on channel=0 note=58 velocity=0 time=0.008522718181818182\n",
      "note_on channel=0 note=54 velocity=18 time=0.18749980000000002\n",
      "note_on channel=0 note=58 velocity=55 time=0\n",
      "note_on channel=0 note=59 velocity=0 time=0.046874950000000006\n",
      "note_on channel=0 note=58 velocity=0 time=0.20880659545454547\n",
      "note_on channel=0 note=57 velocity=52 time=0.008522718181818182\n",
      "note_on channel=0 note=54 velocity=0 time=0.008522718181818182\n",
      "note_on channel=0 note=49 velocity=0 time=0.10653397727272727\n",
      "note_on channel=0 note=47 velocity=30 time=0.08096582272727273\n",
      "note_on channel=0 note=54 velocity=32 time=0.49857901363636364\n",
      "note_on channel=0 note=54 velocity=0 time=0.15340892727272729\n",
      "note_on channel=0 note=54 velocity=30 time=0.6178970681818182\n",
      "note_on channel=0 note=47 velocity=0 time=0.6136357090909091\n",
      "note_on channel=0 note=54 velocity=0 time=0\n",
      "note_on channel=0 note=57 velocity=0 time=0\n"
     ]
    }
   ],
   "source": [
    "data_dir = os.path.join(\"..\", \"inputs\", \"all-time\")\n",
    "target_bpm = 100\n",
    "\n",
    "file =  os.listdir(data_dir)[0]\n",
    "midi_file_path = os.path.join(data_dir, file)\n",
    "midi_file = mido.MidiFile(midi_file_path)\n",
    "bpm = float(os.path.basename(midi_file_path).split('-')[1])\n",
    "\n",
    "print(f\"found bpm {bpm} for file {os.path.basename(midi_file_path)}\")\n",
    "new_message = mido.MetaMessage('set_tempo', tempo=mido.bpm2tempo(target_bpm), time=0)\n",
    "tempo_added = False\n",
    "midi_file_cp = midi_file    \n",
    "\n",
    "with mido.open_output('Disklavier') as output: # type: ignore\n",
    "    for msg in midi_file.play(meta_messages=False):\n",
    "        print(msg)\n",
    "        output.send(msg)\n",
    "    \n",
    "    for track in midi_file_cp.tracks:\n",
    "        # Remove existing set_tempo messages\n",
    "        for msg in track:\n",
    "            if msg.type == 'set_tempo':\n",
    "                print(f\"removing set tempo message {msg}\")\n",
    "                track.remove(msg)\n",
    "        \n",
    "        # Add new set_tempo message to the first track\n",
    "        if not tempo_added:\n",
    "            print(f\"adding message {new_message}\")\n",
    "            track.insert(0, new_message)\n",
    "            tempo_added = True\n",
    "\n",
    "    new_time = midi_file.length * bpm / target_bpm\n",
    "    midi_file_cp = stretch_midi_file(midi_file_cp, new_time)\n",
    "\n",
    "    midi_file_cp.save(\"tmp.mid\")\n",
    "    midi_file_cp = MidiFile(\"tmp.mid\")\n",
    "    for msg in midi_file_cp.play(meta_messages=False):\n",
    "        print(msg)\n",
    "        output.send(msg)\n"
   ]
  }
 ],
 "metadata": {
  "kernelspec": {
   "display_name": "full",
   "language": "python",
   "name": "python3"
  },
  "language_info": {
   "codemirror_mode": {
    "name": "ipython",
    "version": 3
   },
   "file_extension": ".py",
   "mimetype": "text/x-python",
   "name": "python",
   "nbconvert_exporter": "python",
   "pygments_lexer": "ipython3",
   "version": "3.11.5"
  }
 },
 "nbformat": 4,
 "nbformat_minor": 2
}
